<?xml version="1.0" encoding="utf-8"?>
<!-- Generator: Adobe Illustrator 22.1.0, SVG Export Plug-In . SVG Version: 6.00 Build 0)  -->
<svg version="1.1" id="Layer_833" xmlns="http://www.w3.org/2000/svg" xmlns:xlink="http://www.w3.org/1999/xlink" x="0px" y="0px"
	 viewBox="0 0 936 792" style="enable-background:new 0 0 936 792;" xml:space="preserve">
<style type="text/css">
	.st0{opacity:0.4;fill:none;stroke:#FFFFFF;stroke-miterlimit:10;enable-background:new    ;}
	.st1{fill:none;stroke:#FFFFFF;stroke-miterlimit:10;}
	.st2{fill:#1776BF;}
	.st3{fill:none;stroke:#A3A3A3;}
	.st4{fill:#FFFFFF;stroke:#A3A3A3;}
	.st5{fill:none;stroke:#0899CC;stroke-miterlimit:10;}
	.st6{fill:none;stroke:#A3A3A3;stroke-miterlimit:10;}
	.st7{fill:#FFFFFF;stroke:#A3A3A3;stroke-miterlimit:10;}
	.st8{opacity:0.17;fill:#3B3B3B;}
	.st9{opacity:0.4;fill:none;stroke:#FFFFFF;stroke-miterlimit:10;}
	.st10{fill:none;stroke:#A3A3A3;stroke-linecap:round;stroke-linejoin:round;stroke-miterlimit:10;}
	.st11{opacity:0.17;fill:#FFFFFF;}
	.st12{fill:none;stroke:#000000;stroke-linecap:round;stroke-linejoin:round;stroke-miterlimit:10;}
	.st13{fill:#8A8A8A;}
	.st14{fill:none;stroke:#000000;stroke-miterlimit:10;}
	.st15{fill:#FFFFFF;}
	.st16{fill:#D6D6D6;}
	.st17{fill:#FF4D00;}
	.st18{fill:#0899CC;}
	.st19{fill:#C2D500;}
	.st20{fill:#A9F4F0;}
	.st21{fill:none;stroke:#231F20;stroke-linecap:round;stroke-linejoin:round;stroke-miterlimit:10;}
	.st22{fill:#FFFFFF;stroke:#231F20;stroke-linecap:round;stroke-linejoin:round;stroke-miterlimit:10;}
	.st23{fill:none;stroke:#000000;stroke-miterlimit:10;stroke-dasharray:4;}
	.st24{fill:#FFFFFF;stroke:#000000;stroke-miterlimit:10;}
	.st25{fill:none;stroke:#A1A1A1;stroke-miterlimit:10;}
	.st26{opacity:0.4;fill:#0899CC;}
	.st27{fill:#7BCAEF;}
	.st28{fill:#C2C2C2;}
	.st29{fill:#ECEEAB;}
	.st30{fill:#603E31;}
	.st31{fill:#FCCEB8;}
	.st32{fill:#2B2B2B;}
	.st33{fill:#333333;}
	.st34{fill:#787878;}
	.st35{fill:#00BCF2;}
	.st36{fill:none;stroke:#000000;stroke-linecap:round;stroke-linejoin:round;}
	.st37{fill:#72471C;}
	.st38{fill:#72471C;stroke:#000000;stroke-miterlimit:10;}
	.st39{fill:#2B2B2B;stroke:#000000;stroke-miterlimit:10;}
	.st40{fill:#FFFFFF;stroke:#231F20;stroke-miterlimit:10;}
	.st41{fill:#B9E8FF;stroke:#000000;stroke-miterlimit:10;}
	.st42{fill:#B96D00;stroke:#000000;stroke-miterlimit:10;}
	.st43{fill:#E0E0E0;stroke:#000000;stroke-miterlimit:10;}
	.st44{fill:#7BCAEF;stroke:#000000;stroke-miterlimit:10;}
	.st45{fill:#1776BF;stroke:#000000;stroke-miterlimit:10;}
	.st46{fill:#C2D500;stroke:#000000;stroke-miterlimit:10;}
	.st47{fill:#FF4D00;stroke:#000000;stroke-miterlimit:10;}
</style>
<circle class="st0" cx="536.8" cy="83.3" r="8.2"/>
<circle class="st1" cx="703.5" cy="71.3" r="3"/>
<polygon style="fill:none;" points="-117.2,-74.1 -109.2,-74.1 -109.2,-74.1 -117.2,-74.1 "/>
<path class="st2" d="M498.6,668.6l-59-21.7c-17.9-6.6-37-9.7-56-9L266.4,642c-76.7,2.7-142.7-54-151.5-130.3l0,0
	c-5.6-48,0.6-96.6,17.9-141.7l24.4-63.4c21.2-55,73.1-92.1,132-94.3l86.1-3.2c19.6-0.7,38.8-5.4,56.6-13.6l105.8-49.1
	c46-21.4,99.7-17.6,142.3,10l0,0c50.6,32.8,76.1,93,64.4,152.1L734,360.4c-5.6,28.5-2.7,58,8.4,84.8l7.3,17.7
	c24.7,59.7,7.6,128.5-42,169.7l0,0C649.4,681.1,569.7,694.8,498.6,668.6z"/>
<g>
	<path class="st3" d="M851.7,583.2c-18.1-18.1-18.1-47.5,0-65.6"/>
	<path class="st3" d="M917.3,517.6c18.1,18.1,18.1,47.5,0,65.6"/>
	<line class="st4" x1="838.1" y1="550.5" x2="691.1" y2="550.5"/>
	<circle class="st3" cx="687.6" cy="550.5" r="3.6"/>
	<circle class="st4" cx="838" cy="550.5" r="1.8"/>
</g>
<g>
	<g>
		<path class="st5" d="M907.7,537.9c0,6.1-4.9,11-11,11c-6.1,0-11-4.9-11-11c0-6.1,4.9-11,11-11
			C902.8,526.9,907.7,531.8,907.7,537.9z"/>
		<line class="st5" x1="904.5" y1="545.7" x2="913.3" y2="554.5"/>
	</g>
	<g>
		<path class="st5" d="M901.4,553.6v11.3c0,1.5-1.2,2.8-2.6,2.8h-35.2c-1.5,0-2.6-1.3-2.6-2.8v-26.1c0-1.5,1.2-2.8,2.6-2.8H882"/>
		<line class="st5" x1="868.8" y1="571.2" x2="893.4" y2="571.2"/>
		<line class="st5" x1="881.1" y1="567.7" x2="881.1" y2="571.2"/>
		<circle class="st5" cx="881.1" cy="564.1" r="0.9"/>
		<line class="st5" x1="860.9" y1="560.6" x2="901.4" y2="560.6"/>
	</g>
	<polyline class="st5" points="889.6,551.8 869.7,551.8 869.7,544.8 883.2,544.8 	"/>
	<g>
		<circle class="st5" cx="874.1" cy="548.3" r="0.9"/>
		<circle class="st5" cx="879.6" cy="548.3" r="0.9"/>
		<circle class="st5" cx="885.1" cy="548.3" r="0.9"/>
	</g>
</g>
<g>
	<path class="st6" d="M119,466.1c-15.1,15.1-15.1,39.7,0,54.8"/>
	<path class="st6" d="M173.8,520.9c15.1-15.1,15.1-39.7,0-54.8"/>
	<line class="st6" x1="184.9" y1="493.5" x2="246.3" y2="493.5"/>
	<circle class="st6" cx="249.6" cy="493.5" r="3.6"/>
	<circle class="st7" cx="185.3" cy="493.5" r="1.8"/>
</g>
<g>
	<line class="st5" x1="171.9" y1="485.7" x2="120.7" y2="485.7"/>
	<circle class="st5" cx="164.1" cy="480.1" r="1.1"/>
	<circle class="st5" cx="157.5" cy="480.1" r="1.1"/>
	<circle class="st5" cx="150.8" cy="480.1" r="1.1"/>
	<rect x="149.7" y="492.4" class="st5" width="15.6" height="15.6"/>
	<polygon class="st5" points="165.2,508 156.3,496.9 149.7,508 	"/>
	<rect x="127.4" y="492.4" class="st5" width="15.6" height="15.6"/>
	<polygon class="st5" points="143,508 134,496.9 127.4,508 	"/>
</g>
<path class="st8" d="M677.1,608.7c0.5-19.4,16.3-34.9,35.8-34.9c11.3,0,21.4,5.2,27.9,13.4c2.7-4.9,7.9-8.3,13.8-8.3
	c7.4,0,13.6,5.1,15.3,12c2.3-1,4.9-1.5,7.6-1.5c4.1,0,7.9,1.2,11,3.3c4.5-4.5,10.8-7.3,17.8-7.3c10.6,0,19.7,6.6,23.4,15.9
	c2.2-2.3,5.3-3.8,8.8-3.8c6.4,0,11.7,5,12.1,11.3H677.1z"/>
<circle class="st9" cx="300.3" cy="334.8" r="8.2"/>
<g>
	<circle class="st6" cx="323.1" cy="358.9" r="3.5"/>
	<circle class="st6" cx="445.2" cy="358.9" r="3.5"/>
	<circle class="st6" cx="544.1" cy="358.9" r="3.5"/>
	<circle class="st6" cx="612.7" cy="358.9" r="3.5"/>
	<g>
		<path class="st6" d="M558.8,305.7c-6.1,8.2-17.7,9.8-25.8,3.7c-8.2-6.1-9.8-17.7-3.7-25.8c6.1-8.2,17.7-9.8,25.8-3.7
			C563.2,285.9,564.9,297.5,558.8,305.7z"/>
	</g>
	<polyline class="st3" points="445.1,355.4 445.1,315.5 394.6,315.5 	"/>
	<line class="st6" x1="544.1" y1="313" x2="544.1" y2="355.3"/>
	<polyline class="st6" points="558.5,184.6 579.5,184.6 579.5,267.5 613.1,267.5 613.1,355 	"/>
	<polyline class="st6" points="323.1,355.3 323.1,184.6 355.8,184.6 	"/>
	<path class="st3" d="M385.6,256.2c-39.6-39.6-39.6-103.7,0-143.2"/>
	<path class="st3" d="M528.8,113c39.6,39.6,39.6,103.7,0,143.2"/>
	<circle class="st6" cx="376.2" cy="315.3" r="18.3"/>
	<circle class="st7" cx="558.5" cy="184.6" r="1.8"/>
	<circle class="st7" cx="544.1" cy="313" r="1.8"/>
	<circle class="st7" cx="394.6" cy="315.5" r="1.8"/>
	<circle class="st7" cx="355.8" cy="184.6" r="1.8"/>
</g>
<g>
	<circle class="st6" cx="250" cy="416" r="3.5"/>
	<circle class="st6" cx="109.8" cy="350.7" r="3.5"/>
	<circle class="st6" cx="266.1" cy="358.9" r="3.5"/>
	<path class="st3" d="M168.5,310.3v29.1c0,6.2-5,11.3-11.3,11.3h-44"/>
	<path class="st3" d="M198.1,317.1v77.4c0,11.9,9.6,21.5,21.5,21.5h26.9"/>
	<line class="st6" x1="266.1" y1="297.1" x2="266.1" y2="355.3"/>
	<path class="st3" d="M134.3,145c39.4-39.4,103.2-39.4,142.6,0"/>
	<path class="st3" d="M276.9,287.7c-39.4,39.4-103.2,39.4-142.6,0"/>
	<path class="st6" d="M65.2,305.8c23.5,0,42.8,18.2,44.5,41.2"/>
	<path class="st6" d="M109.6,354.4c-2,22.8-21.1,40.6-44.4,40.6c-24.6,0-44.6-20-44.6-44.6"/>
	<circle class="st7" cx="266.1" cy="297.3" r="1.8"/>
	<circle class="st7" cx="198" cy="317" r="1.8"/>
	<circle class="st7" cx="168.5" cy="310.1" r="1.8"/>
</g>
<g>
	<circle class="st6" cx="639.2" cy="358.9" r="3.5"/>
	<circle class="st6" cx="687.1" cy="397" r="3.5"/>
	<polyline class="st6" points="730.5,319.1 730.5,397 690.6,397 	"/>
	<polyline class="st6" points="682.5,306.7 682.5,340 639.1,340 639.1,355.1 	"/>
	<path class="st3" d="M799.7,290.2c-38.4,38.4-100.6,38.4-139,0"/>
	<path class="st3" d="M660.7,151.2c38.4-38.4,100.6-38.4,139,0"/>
	<path class="st10" d="M904.8,114c0,20.2-16.4,36.6-36.6,36.6c-19,0-34.7-14.5-36.5-33.1"/>
	<path class="st10" d="M831.8,110.3c1.8-18.5,17.5-33,36.5-33"/>
	<circle class="st7" cx="730.5" cy="319.1" r="1.8"/>
	<circle class="st7" cx="682.5" cy="306.7" r="1.8"/>
	<circle class="st7" cx="775" cy="133.1" r="1.8"/>
	<polyline class="st6" points="828.1,114 775.1,114 775.1,133.4 	"/>
	<circle class="st6" cx="831.6" cy="114" r="3.5"/>
</g>
<g>
	<line class="st5" x1="838.8" y1="226.3" x2="876.3" y2="226.3"/>
	<line class="st5" x1="838.8" y1="268" x2="892.3" y2="268"/>
	<line class="st5" x1="838.8" y1="257.6" x2="918" y2="257.6"/>
	<g>
		<line class="st5" x1="838.8" y1="247.2" x2="858" y2="247.2"/>
		<line class="st5" x1="864.2" y1="247.2" x2="917.6" y2="247.2"/>
	</g>
	<polyline class="st5" points="833.8,231.3 831.7,226.4 833.8,221.5 	"/>
	<g>
		<line class="st5" x1="838.8" y1="236.8" x2="892.3" y2="236.8"/>
		<line class="st5" x1="899.1" y1="236.8" x2="918" y2="236.8"/>
	</g>
	<line class="st5" x1="838.8" y1="299.2" x2="892.3" y2="299.2"/>
	<line class="st5" x1="838.8" y1="288.7" x2="918" y2="288.7"/>
	<g>
		<line class="st5" x1="838.8" y1="278.3" x2="858" y2="278.3"/>
		<line class="st5" x1="864.2" y1="278.3" x2="906.5" y2="278.3"/>
	</g>
	<polyline class="st5" points="900.5,294.3 902.6,299.1 900.5,304 	"/>
	<line class="st5" x1="898.7" y1="294.7" x2="896.3" y2="303.6"/>
</g>
<g>
	<line class="st5" x1="280.1" y1="94.1" x2="336.9" y2="94.1"/>
	<line class="st5" x1="280.1" y1="127.5" x2="385.2" y2="127.5"/>
	<g>
		<line class="st5" x1="280.1" y1="116.4" x2="309.2" y2="116.4"/>
		<line class="st5" x1="318.6" y1="116.4" x2="427.1" y2="116.4"/>
	</g>
	<polyline class="st5" points="272.5,99.3 269.3,94.1 272.5,88.9 	"/>
	<g>
		<line class="st5" x1="280.1" y1="105.2" x2="361.1" y2="105.2"/>
		<line class="st5" x1="371.5" y1="105.2" x2="400.1" y2="105.2"/>
	</g>
	<polyline class="st5" points="397.5,122.2 400.7,127.4 397.5,132.6 	"/>
	<line class="st5" x1="394.7" y1="122.6" x2="391.1" y2="132.1"/>
</g>
<path class="st11" d="M648,126.7c-0.4-15.3-12.9-27.7-28.3-27.7c-9,0-16.9,4.2-22.1,10.6c-2.1-3.9-6.2-6.6-11-6.6
	c-5.9,0-10.8,4-12.1,9.5c-1.9-0.8-3.9-1.2-6-1.2c-3.2,0-6.2,1-8.8,2.6c-3.6-3.6-8.6-5.8-14.1-5.8c-8.4,0-15.6,5.2-18.5,12.6
	c-1.8-1.9-4.2-3-7-3c-5.1,0-9.2,3.9-9.6,8.9H648z"/>
<path class="st8" d="M883,368.8c-0.3-14.3-12-25.8-26.4-25.8c-8.3,0-15.8,3.9-20.6,9.9c-2-3.6-5.8-6.1-10.2-6.1
	c-5.5,0-10,3.8-11.3,8.8c-1.7-0.7-3.6-1.1-5.6-1.1c-3,0-5.8,0.9-8.2,2.4c-3.4-3.4-8-5.4-13.1-5.4c-7.8,0-14.5,4.9-17.3,11.7
	c-1.6-1.7-4-2.8-6.5-2.8c-4.7,0-8.6,3.7-9,8.3H883z"/>
<path class="st8" d="M27.7,178.7c0.4-16.7,14-30.1,30.8-30.1c9.7,0,18.4,4.5,24.1,11.6c2.3-4.2,6.8-7.1,11.9-7.1
	c6.4,0,11.7,4.4,13.2,10.3c2-0.8,4.2-1.3,6.5-1.3c3.5,0,6.8,1,9.5,2.8c3.9-3.9,9.3-6.3,15.3-6.3c9.1,0,16.9,5.7,20.1,13.7
	c1.9-2,4.6-3.3,7.6-3.3c5.5,0,10.1,4.3,10.4,9.7H27.7z"/>
<path class="st8" d="M27,455.8c0.6-23,19.3-41.4,42.4-41.4c13.4,0,25.3,6.2,33.1,15.9c3.1-5.8,9.3-9.8,16.4-9.8
	c8.8,0,16.1,6,18.1,14.2c2.8-1.1,5.8-1.8,9-1.8c4.8,0,9.3,1.4,13.1,3.9c5.4-5.4,12.8-8.7,21.1-8.7c12.6,0,23.3,7.8,27.7,18.8
	c2.6-2.8,6.3-4.5,10.5-4.5c7.6,0,13.8,5.9,14.4,13.4H27z"/>
<path class="st8" d="M562.5,111.5c0.4-14.6,12.3-26.3,26.9-26.3c8.5,0,16.1,3.9,21,10.1c2-3.7,5.9-6.2,10.4-6.2
	c5.6,0,10.2,3.8,11.5,9c1.8-0.7,3.7-1.1,5.7-1.1c3.1,0,5.9,0.9,8.3,2.5c3.4-3.4,8.1-5.5,13.4-5.5c8,0,14.8,4.9,17.6,11.9
	c1.7-1.8,4-2.9,6.6-2.9c4.8,0,8.8,3.7,9.1,8.5H562.5z"/>
<path class="st8" d="M299.5,288.4c0.4-14.9,12.5-26.9,27.5-26.9c8.7,0,16.4,4,21.5,10.3c2-3.8,6-6.4,10.7-6.4
	c5.7,0,10.4,3.9,11.7,9.2c1.8-0.7,3.8-1.1,5.8-1.1c3.1,0,6.1,0.9,8.5,2.5c3.5-3.5,8.3-5.6,13.7-5.6c8.2,0,15.1,5.1,18,12.2
	c1.7-1.8,4.1-2.9,6.8-2.9c4.9,0,9,3.8,9.3,8.7H299.5z"/>
<g>
	<g>
		<line class="st12" x1="850.1" y1="646.7" x2="91" y2="646.7"/>
		<line class="st12" x1="636.7" y1="659" x2="777.5" y2="659"/>
		<line class="st12" x1="454.2" y1="659" x2="612.4" y2="659"/>
		<line class="st12" x1="330" y1="671.9" x2="540.5" y2="671.9"/>
		<line class="st12" x1="562.9" y1="671.9" x2="657.6" y2="671.9"/>
		<line class="st12" x1="277.6" y1="671.9" x2="308.1" y2="671.9"/>
		<line class="st12" x1="360.1" y1="659" x2="430.3" y2="659"/>
		<line class="st12" x1="301.8" y1="659" x2="337.7" y2="659"/>
		<line class="st12" x1="205.7" y1="659" x2="276.6" y2="659"/>
	</g>
</g>
<g>
	<line class="st5" x1="73.1" y1="341.6" x2="82.8" y2="332.3"/>
	<line class="st5" x1="60.1" y1="337.2" x2="68.7" y2="342.1"/>
	<line class="st5" x1="46.2" y1="347.8" x2="55.8" y2="337.8"/>
	<rect x="53.2" y="345.2" class="st5" width="9.5" height="25.2"/>
	<rect x="66.6" y="350.7" class="st5" width="9.5" height="19.7"/>
	<rect x="79.9" y="338.7" class="st5" width="9.5" height="31.7"/>
	<rect x="39.9" y="357.6" class="st5" width="9.5" height="12.7"/>
	<line class="st5" x1="37.5" y1="370.3" x2="91.9" y2="370.3"/>
	<circle class="st5" cx="44.3" cy="349.8" r="2.7"/>
	<circle class="st5" cx="57.7" cy="335.8" r="2.7"/>
	<circle class="st5" cx="71.1" cy="343.5" r="2.7"/>
	<circle class="st5" cx="84.8" cy="330.4" r="2.7"/>
</g>
<g>
	<g>
		<path class="st9" d="M74.6,217.5c-4.5,6-13,7.2-19,2.7c-6-4.5-7.2-13-2.7-19c4.5-6,13-7.2,19-2.7C77.8,203,79.1,211.5,74.6,217.5z
			"/>
	</g>
	<g>
		<polyline class="st1" points="59.9,212.6 57.6,210.8 55.4,209 57.6,207.2 59.9,205.4 		"/>
		<polyline class="st1" points="67.6,212.6 69.9,210.8 72.1,209 69.9,207.2 67.6,205.4 		"/>
		<line class="st1" x1="65.5" y1="203.4" x2="62.3" y2="214.6"/>
	</g>
</g>
<g>
	<polyline class="st1" points="538.8,299 535.7,296.6 532.6,294.1 535.7,291.7 538.8,289.2 	"/>
	<polyline class="st1" points="549.3,299 552.4,296.6 555.5,294.1 552.4,291.7 549.3,289.2 	"/>
	<line class="st1" x1="546.4" y1="286.5" x2="542" y2="301.8"/>
</g>
<g>
	<g>
		<path class="st13" d="M730.3,638.3H206.8v-12.3c0-1.6,1.3-3,3-3h517.5c1.6,0,3,1.3,3,3V638.3z"/>
		<path class="st13" d="M730.3,638.3l-7.9,5.5c-2.8,1.9-6.1,3-9.5,3H224.2c-3.4,0-6.7-1-9.5-3l-7.9-5.5"/>
	</g>
	<g>
		<path class="st14" d="M730.3,638.1H206.8v-12.3c0-1.6,1.3-3,3-3h517.5c1.6,0,3,1.3,3,3V638.1z"/>
		<path class="st14" d="M730.3,638.1l-7.9,5.5c-2.8,1.9-6.1,3-9.5,3H224.2c-3.4,0-6.7-1-9.5-3l-7.9-5.5"/>
	</g>
	<g>
		<path class="st15" d="M682.7,622.6l-428.4-0.1c-2.4,0-4.3-1.9-4.3-4.3v-255c0-2.4,1.9-4.3,4.3-4.3h428.4c2.4,0,4.3,1.9,4.3,4.3
			v255C687,620.7,685.1,622.6,682.7,622.6z"/>
		<g>
			<path class="st16" d="M686.7,374.9H250.4c-0.2,0-0.4-0.2-0.4-0.4v-11.2c0-2.4,2-4.4,4.4-4.4h428.3c2.4,0,4.4,2,4.4,4.4v11.2
				C687.1,374.7,686.9,374.9,686.7,374.9z"/>
		</g>
		<path class="st14" d="M682.7,622.6H254.4c-2.4,0-4.4-2-4.4-4.4V363.4c0-2.4,2-4.4,4.4-4.4h428.2c2.4,0,4.4,2,4.4,4.4v254.8
			C687.1,620.6,685.1,622.6,682.7,622.6z"/>
		<line class="st14" x1="468.5" y1="389.8" x2="468.5" y2="607.2"/>
		<line class="st14" x1="257.5" y1="498.5" x2="679.5" y2="498.5"/>
		<path class="st17" d="M517.8,487.3c-15.1,0-27.5-12.3-27.5-27.5s12.3-27.5,27.5-27.5s27.5,12.3,27.5,27.5S533,487.3,517.8,487.3z
			 M517.8,439.3c-11.3,0-20.5,9.2-20.5,20.5s9.2,20.5,20.5,20.5s20.5-9.2,20.5-20.5S529.1,439.3,517.8,439.3z"/>
		<circle class="st18" cx="427.4" cy="546.7" r="24.8"/>
		<path class="st17" d="M341.9,535.2c-6.4,0-11.7-5.2-11.7-11.7c0-6.4,5.2-11.7,11.7-11.7s11.7,5.2,11.7,11.7
			C353.6,530,348.4,535.2,341.9,535.2z M341.9,512.9c-5.9,0-10.7,4.8-10.7,10.7s4.8,10.7,10.7,10.7s10.7-4.8,10.7-10.7
			S347.8,512.9,341.9,512.9z"/>
		<circle class="st19" cx="560.2" cy="530.5" r="15.5"/>
		<circle class="st18" cx="626.9" cy="575.8" r="28.8"/>
		<path class="st19" d="M389.1,448.4c-11.3,0-20.5-9.2-20.5-20.5s9.2-20.5,20.5-20.5s20.5,9.2,20.5,20.5S400.3,448.4,389.1,448.4z
			 M389.1,408.5c-10.7,0-19.5,8.7-19.5,19.5s8.7,19.5,19.5,19.5s19.5-8.7,19.5-19.5S399.8,408.5,389.1,408.5z"/>
		<circle class="st18" cx="441" cy="467.6" r="11.2"/>
		<circle class="st17" cx="312.9" cy="406.5" r="7.2"/>
		<circle class="st19" cx="602.4" cy="426.1" r="29.9"/>
		<circle class="st18" cx="643.1" cy="463.6" r="5.6"/>
		<path class="st19" d="M302.9,591.8c-13.2,0-23.9-10.7-23.9-23.8c0-13.2,10.7-23.8,23.9-23.8c13.1,0,23.8,10.7,23.8,23.8
			C326.8,581.1,316.1,591.8,302.9,591.8z M302.9,548.9c-10.5,0-19.1,8.6-19.1,19.1c0,10.5,8.6,19.1,19.1,19.1
			c10.5,0,19.1-8.6,19.1-19.1C322,557.5,313.5,548.9,302.9,548.9z"/>
		<path class="st20" d="M292.4,470.7c-12.3,0-22.3-10-22.3-22.3s10-22.3,22.3-22.3c12.3,0,22.3,10,22.3,22.3
			S304.7,470.7,292.4,470.7z M292.4,429.2c-10.6,0-19.3,8.6-19.3,19.3s8.6,19.3,19.3,19.3c10.6,0,19.3-8.6,19.3-19.3
			S303,429.2,292.4,429.2z"/>
		<path class="st17" d="M515,582.4c-3.5,0-6.3-2.8-6.3-6.3s2.8-6.3,6.3-6.3c3.5,0,6.3,2.8,6.3,6.3S518.4,582.4,515,582.4z
			 M515,572.8c-1.8,0-3.3,1.5-3.3,3.3s1.5,3.3,3.3,3.3c1.8,0,3.3-1.5,3.3-3.3S516.8,572.8,515,572.8z"/>
		<line class="st14" x1="250" y1="374.9" x2="687.1" y2="374.9"/>
		<g>
			<line class="st14" x1="260.9" y1="366.6" x2="353.6" y2="366.6"/>
			<line class="st14" x1="400.9" y1="366.6" x2="420.7" y2="366.6"/>
			<line class="st14" x1="427.9" y1="366.6" x2="447.6" y2="366.6"/>
			<line class="st14" x1="454.9" y1="366.6" x2="474.6" y2="366.6"/>
			<line class="st14" x1="481.8" y1="366.6" x2="501.6" y2="366.6"/>
		</g>
		<g>
			<line class="st14" x1="672.2" y1="362.4" x2="681.7" y2="371.1"/>
			<line class="st14" x1="672.2" y1="371.1" x2="681.7" y2="362.4"/>
		</g>
		<line class="st14" x1="667.7" y1="358.6" x2="667.7" y2="374.6"/>
	</g>
</g>
<circle class="st19" cx="205.6" cy="216.3" r="91.9"/>
<g>
	<polyline class="st21" points="262.5,215.7 231.8,215.7 231.8,176 262.5,176 	"/>
	<polyline class="st21" points="174.5,179.2 174.5,196.2 232,196.2 	"/>
	<polyline class="st21" points="209.5,229.7 209.5,251.9 138.3,251.9 138.3,179.9 177.4,179.9 	"/>
	<rect x="129.1" y="206.7" class="st22" width="19.4" height="19.6"/>
	<rect x="165.2" y="169.8" class="st22" width="19.4" height="19.6"/>
	<rect x="165.2" y="242.4" class="st22" width="19.4" height="19.6"/>
	<rect x="199.7" y="221.5" class="st22" width="19.4" height="19.6"/>
	<rect x="222.2" y="186.1" class="st22" width="19.4" height="19.6"/>
	<rect x="252.5" y="205.8" class="st22" width="19.4" height="19.6"/>
	<rect x="252.5" y="166.9" class="st22" width="19.4" height="19.6"/>
</g>
<circle class="st18" cx="457.2" cy="184.6" r="91.9"/>
<g>
	<polyline class="st23" points="424.6,152 491.6,152 491.6,179.7 425.2,179.7 425.2,211.1 492.1,211.1 	"/>
	<g>
		<polygon class="st24" points="451.6,152.1 445.6,139.4 397.2,139.4 403.2,152.1 397.2,164.8 445.6,164.8 		"/>
	</g>
	<g>
		<polygon class="st24" points="519.1,152.1 513.1,139.4 464.7,139.4 470.7,152.1 464.7,164.8 513.1,164.8 		"/>
	</g>
	<g>
		<polygon class="st24" points="451.6,211.2 445.6,198.6 397.2,198.6 403.2,211.2 397.2,224 445.6,224 		"/>
	</g>
	<g>
		<polygon class="st24" points="519.1,211.2 513.1,198.6 464.7,198.6 470.7,211.2 464.7,224 513.1,224 		"/>
	</g>
</g>
<circle class="st9" cx="536.4" cy="84.4" r="8.2"/>
<g>
	<polyline class="st5" points="886.9,131.4 850.4,131.4 850.4,94.9 	"/>
	<circle class="st5" cx="861.5" cy="120.3" r="2.4"/>
	<line class="st5" x1="876.4" y1="107.3" x2="882.9" y2="99"/>
	<line class="st5" x1="865.4" y1="105.9" x2="872.7" y2="108.6"/>
	<line class="st5" x1="850.4" y1="112.8" x2="861.1" y2="106.4"/>
	<line class="st5" x1="875.4" y1="119.1" x2="882.4" y2="115.1"/>
	<line class="st5" x1="863.9" y1="120.3" x2="871" y2="120.3"/>
	<line class="st5" x1="850.4" y1="127.4" x2="859.5" y2="121.5"/>
	<circle class="st5" cx="863.1" cy="105.2" r="2.4"/>
	<circle class="st5" cx="875" cy="109.2" r="2.4"/>
	<circle class="st5" cx="884.5" cy="97.3" r="2.4"/>
	<circle class="st5" cx="884.5" cy="113.9" r="2.4"/>
	<circle class="st5" cx="873.4" cy="120.3" r="2.4"/>
</g>
<g>
	<g>
		<g>
			<line class="st5" x1="71.7" y1="543.6" x2="211.4" y2="543.6"/>
			<line class="st5" x1="26.2" y1="543.6" x2="62.8" y2="543.6"/>
		</g>
		<polyline class="st5" points="26.3,555.8 38.1,555.8 44,555.8 60.2,555.8 65.6,555.8 211.4,555.8 		"/>
		<g>
			<polyline class="st5" points="46.6,568 62.8,568 68.2,568 214,568 			"/>
			<line class="st5" x1="26.8" y1="568" x2="38.1" y2="568"/>
		</g>
		<g>
			<polyline class="st5" points="46.6,580.2 62.8,580.2 68.2,580.2 214,580.2 			"/>
			<line class="st5" x1="26.8" y1="580.2" x2="38.1" y2="580.2"/>
		</g>
		<g>
			<polyline class="st5" points="46.6,592.3 62.8,592.3 68.2,592.3 214,592.3 			"/>
			<line class="st5" x1="26.8" y1="592.3" x2="38.1" y2="592.3"/>
		</g>
		<g>
			<line class="st5" x1="64.8" y1="604.5" x2="89.3" y2="604.5"/>
			<line class="st5" x1="46.6" y1="604.5" x2="55.6" y2="604.5"/>
			<line class="st5" x1="26.8" y1="604.5" x2="38.1" y2="604.5"/>
		</g>
	</g>
	<polyline class="st5" points="17.1,549.5 13,543.7 17.1,538 	"/>
	<polyline class="st5" points="97.8,610.3 101.9,604.6 97.8,598.8 	"/>
</g>
<circle class="st17" cx="730.2" cy="220.7" r="89.4"/>
<g>
	<path class="st24" d="M677.4,191.3h-9.1c-1.2,0-2.1-0.9-2.1-2.1l0,0c0-1.2,0.9-2.1,2.1-2.1h9.1c1.2,0,2.1,0.9,2.1,2.1l0,0
		C679.5,190.4,678.5,191.3,677.4,191.3z"/>
	<path class="st24" d="M798.1,191.3h-90.9c-1.2,0-2.1-0.9-2.1-2.1l0,0c0-1.2,0.9-2.1,2.1-2.1h90.9c1.2,0,2.1,0.9,2.1,2.1l0,0
		C800.3,190.4,799.3,191.3,798.1,191.3z"/>
	<path class="st24" d="M676.1,210.5h-14.4c-1.2,0-2.1-0.9-2.1-2.1l0,0c0-1.2,0.9-2.1,2.1-2.1h14.4c1.2,0,2.1,0.9,2.1,2.1l0,0
		C678.2,209.6,677.3,210.5,676.1,210.5z"/>
	<path class="st14" d="M784.7,201.4h-123c-1.2,0-2.1-0.9-2.1-2.1l0,0c0-1.2,0.9-2.1,2.1-2.1h123c1.2,0,2.1,0.9,2.1,2.1l0,0
		C786.9,200.5,785.9,201.4,784.7,201.4z"/>
	<path class="st14" d="M745.1,210.5h-59.8c-1.2,0-2.1-0.9-2.1-2.1l0,0c0-1.2,0.9-2.1,2.1-2.1h59.8c1.2,0,2.1,0.9,2.1,2.1l0,0
		C747.2,209.6,746.3,210.5,745.1,210.5z"/>
	<path class="st14" d="M745.1,181.4h-59.8c-1.2,0-2.1-0.9-2.1-2.1v0c0-1.2,0.9-2.1,2.1-2.1h59.8c1.2,0,2.1,0.9,2.1,2.1v0
		C747.2,180.4,746.3,181.4,745.1,181.4z"/>
	<path class="st14" d="M804.8,220.6h-31.2c-1.2,0-2.1-0.9-2.1-2.1l0,0c0-1.2,0.9-2.1,2.1-2.1h31.2c1.2,0,2.1,0.9,2.1,2.1l0,0
		C806.9,219.7,806,220.6,804.8,220.6z"/>
	<path class="st24" d="M753,220.6h-16.8c-1.2,0-2.1-0.9-2.1-2.1l0,0c0-1.2,0.9-2.1,2.1-2.1H753c1.2,0,2.1,0.9,2.1,2.1l0,0
		C755.1,219.7,754.2,220.6,753,220.6z"/>
	<path class="st24" d="M752.1,160.1h-16.8c-1.2,0-2.1-0.9-2.1-2.1l0,0c0-1.2,0.9-2.1,2.1-2.1h16.8c1.2,0,2.1,0.9,2.1,2.1l0,0
		C754.3,159.2,753.3,160.1,752.1,160.1z"/>
	<path class="st24" d="M725.3,220.6h-45.5c-1.2,0-2.1-0.9-2.1-2.1l0,0c0-1.2,0.9-2.1,2.1-2.1h45.5c1.2,0,2.1,0.9,2.1,2.1l0,0
		C727.4,219.7,726.5,220.6,725.3,220.6z"/>
	<g>
		<path class="st24" d="M752.1,289.9h-16.8c-1.2,0-2.1-0.9-2.1-2.1l0,0c0-1.2,0.9-2.1,2.1-2.1h16.8c1.2,0,2.1,0.9,2.1,2.1l0,0
			C754.3,288.9,753.3,289.9,752.1,289.9z"/>
		<path class="st24" d="M725.3,289.9h-5.4c-1.2,0-2.1-0.9-2.1-2.1l0,0c0-1.2,0.9-2.1,2.1-2.1h5.4c1.2,0,2.1,0.9,2.1,2.1l0,0
			C727.4,288.9,726.5,289.9,725.3,289.9z"/>
	</g>
	<path class="st14" d="M717,230.1h-28.7c-1.2,0-2.1-0.9-2.1-2.1l0,0c0-1.2,0.9-2.1,2.1-2.1H717c1.2,0,2.1,0.9,2.1,2.1l0,0
		C719.1,229.2,718.2,230.1,717,230.1z"/>
	<path class="st14" d="M738,268.7h-49.7c-1.2,0-2.1-0.9-2.1-2.1l0,0c0-1.2,0.9-2.1,2.1-2.1H738c1.2,0,2.1,0.9,2.1,2.1l0,0
		C740.1,267.7,739.1,268.7,738,268.7z"/>
	<path class="st24" d="M798.1,230.1H765c-1.2,0-2.1-0.9-2.1-2.1l0,0c0-1.2,0.9-2.1,2.1-2.1h33.1c1.2,0,2.1,0.9,2.1,2.1l0,0
		C800.3,229.2,799.3,230.1,798.1,230.1z"/>
	<path class="st14" d="M664.5,250h-2.7c-1.2,0-2.1-0.9-2.1-2.1v0c0-1.2,0.9-2.1,2.1-2.1h2.7c1.2,0,2.1,0.9,2.1,2.1v0
		C666.6,249,665.6,250,664.5,250z"/>
	<path class="st24" d="M769.7,250H767c-1.2,0-2.1-0.9-2.1-2.1v0c0-1.2,0.9-2.1,2.1-2.1h2.7c1.2,0,2.1,0.9,2.1,2.1v0
		C771.9,249,770.9,250,769.7,250z"/>
	<path class="st14" d="M722.1,250h-48.7c-1.2,0-2.1-0.9-2.1-2.1v0c0-1.2,0.9-2.1,2.1-2.1h48.7c1.2,0,2.1,0.9,2.1,2.1v0
		C724.2,249,723.3,250,722.1,250z"/>
	<path class="st24" d="M708.4,259.3h-37.8c-1.2,0-2.1-0.9-2.1-2.1l0,0c0-1.2,0.9-2.1,2.1-2.1h37.8c1.2,0,2.1,0.9,2.1,2.1l0,0
		C710.6,258.4,709.6,259.3,708.4,259.3z"/>
	<path class="st24" d="M782.9,259.3h-65.3c-1.2,0-2.1-0.9-2.1-2.1l0,0c0-1.2,0.9-2.1,2.1-2.1h65.3c1.2,0,2.1,0.9,2.1,2.1l0,0
		C785,258.4,784.1,259.3,782.9,259.3z"/>
	<path class="st24" d="M699.5,239.8h-37.8c-1.2,0-2.1-0.9-2.1-2.1v0c0-1.2,0.9-2.1,2.1-2.1h37.8c1.2,0,2.1,0.9,2.1,2.1v0
		C701.6,238.9,700.7,239.8,699.5,239.8z"/>
	<path class="st14" d="M768.9,239.8h-59.5c-1.2,0-2.1-0.9-2.1-2.1l0,0c0-1.2,0.9-2.1,2.1-2.1h59.5c1.2,0,2.1,0.9,2.1,2.1l0,0
		C771,238.9,770.1,239.8,768.9,239.8z"/>
	<path class="st14" d="M798.1,239.8h-19.3c-1.2,0-2.1-0.9-2.1-2.1v0c0-1.2,0.9-2.1,2.1-2.1h19.3c1.2,0,2.1,0.9,2.1,2.1v0
		C800.3,238.9,799.3,239.8,798.1,239.8z"/>
</g>
<circle class="st25" cx="768.2" cy="339.2" r="3.6"/>
<circle class="st25" cx="840.4" cy="468.4" r="3.6"/>
<circle class="st25" cx="106.4" cy="128.5" r="3.6"/>
<circle class="st25" cx="703.1" cy="72.4" r="3"/>
<circle class="st1" cx="441.1" cy="579.7" r="3.6"/>
<circle class="st25" cx="841.1" cy="181.4" r="3.6"/>
<circle class="st18" cx="464.6" cy="334.7" r="2.5"/>
<circle class="st18" cx="588.7" cy="201.2" r="2.5"/>
<circle class="st26" cx="595.2" cy="309.2" r="2.5"/>
<circle class="st26" cx="411" cy="72.2" r="2.5"/>
<circle class="st26" cx="814.7" cy="574.2" r="2.5"/>
<circle class="st18" cx="14.2" cy="401.7" r="2.5"/>
<circle class="st18" cx="813.1" cy="395.8" r="2.5"/>
<g>
	<path class="st27" d="M898.3,421.4H891c-0.6,0-1-0.4-1-1s0.4-1,1-1h7.3c0.6,0,1,0.4,1,1S898.9,421.4,898.3,421.4z"/>
	<path class="st27" d="M894.7,425.1c-0.6,0-1-0.4-1-1v-7.3c0-0.6,0.4-1,1-1s1,0.4,1,1v7.3C895.7,424.6,895.2,425.1,894.7,425.1z"/>
</g>
<g>
	<path class="st27" d="M256.8,331.3h-7.3c-0.6,0-1-0.4-1-1s0.4-1,1-1h7.3c0.6,0,1,0.4,1,1S257.3,331.3,256.8,331.3z"/>
	<path class="st27" d="M253.1,335c-0.6,0-1-0.4-1-1v-7.3c0-0.6,0.4-1,1-1s1,0.4,1,1v7.3C254.1,334.6,253.7,335,253.1,335z"/>
</g>
<g>
	<path class="st27" d="M130.5,632h-7.3c-0.6,0-1-0.4-1-1s0.4-1,1-1h7.3c0.6,0,1,0.4,1,1S131,632,130.5,632z"/>
	<path class="st27" d="M126.8,635.7c-0.6,0-1-0.4-1-1v-7.3c0-0.6,0.4-1,1-1s1,0.4,1,1v7.3C127.8,635.2,127.3,635.7,126.8,635.7z"/>
</g>
<g>
	<path class="st27" d="M313.1,166.7h-7.3c-0.6,0-1-0.4-1-1s0.4-1,1-1h7.3c0.6,0,1,0.4,1,1S313.7,166.7,313.1,166.7z"/>
	<path class="st27" d="M309.5,170.3c-0.6,0-1-0.4-1-1V162c0-0.6,0.4-1,1-1s1,0.4,1,1v7.3C310.5,169.9,310,170.3,309.5,170.3z"/>
</g>
<g>
	<path class="st27" d="M628.4,250.7H621c-0.6,0-1-0.4-1-1s0.4-1,1-1h7.3c0.6,0,1,0.4,1,1S628.9,250.7,628.4,250.7z"/>
	<path class="st27" d="M624.7,254.4c-0.6,0-1-0.4-1-1v-7.3c0-0.6,0.4-1,1-1s1,0.4,1,1v7.3C625.7,254,625.3,254.4,624.7,254.4z"/>
</g>
<g>
	<path class="st27" d="M85.4,245.6h-7.3c-0.6,0-1-0.4-1-1s0.4-1,1-1h7.3c0.6,0,1,0.4,1,1S86,245.6,85.4,245.6z"/>
	<path class="st27" d="M81.8,249.2c-0.6,0-1-0.4-1-1v-7.3c0-0.6,0.4-1,1-1s1,0.4,1,1v7.3C82.8,248.8,82.3,249.2,81.8,249.2z"/>
</g>
<path class="st28" d="M195.2,535.5h-6.3l-3.1-5.4l3.1-5.4h6.3l3.1,5.4L195.2,535.5z M189.8,534h4.5l2.3-3.9l-2.3-3.9h-4.5l-2.3,3.9
	L189.8,534z"/>
<path class="st28" d="M897.3,334.2h-6.3l-3.1-5.4l3.1-5.4h6.3l3.1,5.4L897.3,334.2z M891.9,332.7h4.5l2.3-3.9l-2.3-3.9h-4.5
	l-2.3,3.9L891.9,332.7z"/>
<path class="st28" d="M49.6,487h-4.3l-2.1-3.7l2.1-3.7h4.3l2.1,3.7L49.6,487z M45.9,486H49l1.5-2.7l-1.5-2.7h-3.1l-1.5,2.7L45.9,486
	z"/>
<circle class="st29" cx="345" cy="238.6" r="5.2"/>
<circle class="st18" cx="170.7" cy="415.9" r="5.2"/>
<g>
	<rect x="348.3" y="607.9" class="st30" width="19.5" height="14.7"/>
	<path class="st30" d="M392.5,607.9h1.9c2.7,0.1,4.9,1.1,6.8,2.9c1.9,2,3,4.3,3.1,7.1v4.7H373v-14.7H392.5z"/>
	<path class="st31" d="M361.7,418.3v-9.6c-0.3-0.3-0.7-0.6-1-1c-0.5-0.5-1-1.1-1.4-1.6l-0.1-0.1c-1.6-2.2-2.5-4.8-2.5-7.7v-0.9h2.1
		c0.8,0,1.5-0.3,2.1-0.9c0.6-0.6,0.9-1.3,0.9-2.1v-2.2c0-1.2,0.5-2.2,1.3-3c0.8-0.8,1.8-1.3,3-1.3H384v10.5c-0.1,3.7-1.4,6.8-4,9.4
		c-0.3,0.3-0.7,0.7-1,1v9.6H361.7z"/>
	<path class="st32" d="M359.3,406.1c-0.8,0.1-1.8,0.1-1.8,0.1c-2,0-3.6-0.7-5-2.1c-0.8-0.8-1.4-1.8-1.8-2.8c-0.2-0.6-0.3-1.3-0.3-2
		v-15.6c0.1-3.3,1.3-6.2,3.7-8.5c2.3-2.4,5.2-3.6,8.4-3.7h2.9c0.1-0.1,0.3-0.3,0.4-0.4c2.1-2.2,4.7-3.3,7.7-3.4
		c3.3-0.1,6.6,1.2,8.9,3.6c1.6,1.6,2.5,3.5,3,5.6c0.9,0.2,1.8,0.7,2.5,1.5c1.1,1.1,1.6,2.4,1.6,4c0,1.6-0.5,2.9-1.6,4
		c-1,1.1-2.3,1.6-3.8,1.6H384h-1.5h-16.4c-1.2,0-2.1,0.5-3,1.3c-0.8,0.8-1.2,1.8-1.3,3v2.2c0,0.8-0.3,1.5-0.9,2.1
		c-0.6,0.6-1.3,0.9-2.1,0.9h-2.1v0.9c0.1,2.9,0.9,5.4,2.5,7.7L359.3,406.1L359.3,406.1z"/>
	<path class="st33" d="M348.2,490.8v117.1h19.5v-79.4c0-1.4,1.2-2.6,2.6-2.6l0,0c1.4,0,2.6,1.2,2.6,2.6v79.4h19.6V490.8H348.2z"/>
	<rect x="348.2" y="496.6" class="st34" width="44.2" height="6.6"/>
	<rect x="365.2" y="496.6" class="st15" width="10.3" height="6.6"/>
	<polygon class="st31" points="342.1,474.8 347.7,486.9 331.2,494.7 325.6,482.6 	"/>
	<polygon class="st31" points="433.2,394.9 439.6,382.9 455.7,391.8 449.3,403.8 	"/>
	<path class="st35" d="M419.1,418.3c0.7,0,1.4-0.4,1.7-1l12.3-22.4l16.1,8.9l-15.7,28.9c-1.5,2.7-4.3,4.3-7.3,4.3h-31.6
		c-1.2,0-2.1,1-2.1,2.1v51.7h-44.2v-49.9c0-1.2-1.5-1.7-2.2-0.7L335.1,456c-0.6,0.8-0.7,1.9-0.2,2.8l7.2,16l-16.5,7.8l-9.8-20.5
		c-1.5-3-1.3-6.6,0.5-9.4l17-27.5c2.6-4.2,7.2-6.8,12.2-6.8L419.1,418.3z"/>
	<line class="st36" x1="367.7" y1="607.9" x2="348.2" y2="607.9"/>
	<line class="st36" x1="392.4" y1="607.9" x2="373" y2="607.9"/>
	<path class="st36" d="M397.7,418.6"/>
	<line class="st36" x1="365.2" y1="496.6" x2="348.2" y2="496.6"/>
	<line class="st36" x1="370.3" y1="490.8" x2="348.2" y2="490.8"/>
	<line class="st36" x1="392.4" y1="496.6" x2="375.6" y2="496.6"/>
	<line class="st36" x1="392.4" y1="503.2" x2="375.6" y2="503.2"/>
	<line class="st36" x1="348.2" y1="503.2" x2="365.2" y2="503.2"/>
	<rect x="365.2" y="496.6" class="st36" width="10.4" height="6.6"/>
	<path class="st36" d="M356.5,418.3l5.1,5.1c0.5,0.5,1.1,0.7,1.7,0.7c0.8,0,1.4-0.2,1.8-0.7l5.3-5.1"/>
	<polyline class="st36" points="361.7,418.3 370.3,418.3 379,418.3 	"/>
	<path class="st36" d="M379,408.6c-2.4,2.1-5.3,3.1-8.6,3.1c-3.3,0-6.2-1-8.6-3.1h-0.1"/>
	<path class="st36" d="M384,387.8h-17.9c-1.2,0-2.1,0.5-3,1.3c-0.8,0.8-1.2,1.8-1.3,3v2.2c0,0.8-0.3,1.5-0.9,2.1
		c-0.6,0.6-1.3,0.9-2.1,0.9h-2.1v0.9c0.1,2.9,0.9,5.5,2.6,7.8"/>
	<path class="st36" d="M383.8,418.3l-4.9,5.1c-0.5,0.5-1.1,0.7-1.8,0.7c-0.7,0-1.3-0.2-1.8-0.7l-5-5.1v72.6h22.1v5.8v6.6v104.7h1.9
		c2.7,0.1,4.9,1.1,6.8,2.9c1.9,2,3,4.3,3.1,7.1v4.7H373v-14.7v-79.4c0-0.7-0.3-1.3-0.8-1.8c-0.5-0.5-1.2-0.8-1.9-0.8
		c-0.7,0-1.3,0.3-1.9,0.8c-0.5,0.5-0.8,1.2-0.8,1.9v79.3v14.7h-19.5v-14.7V503.2v-6.6v-5.8v-49.9c0-1.2-1.5-1.7-2.2-0.7L335.1,456
		c-0.6,0.8-0.7,1.9-0.2,2.8l12.9,28l-16.5,7.8l-15.5-32.6c-1.5-3-1.3-6.6,0.5-9.4l17-27.5c2.6-4.2,7.2-6.8,12.2-6.8l11,0h5.3v-9.6
		c-0.3-0.3-0.7-0.6-1-1c-0.5-0.5-1-1.1-1.4-1.6c-0.6,0.1-1.2,0.2-1.8,0.2c-2,0-3.6-0.7-5-2.1c-0.8-0.8-1.4-1.8-1.8-2.8
		c-0.2-0.6-0.3-1.3-0.3-2v-15.6c0.1-3.3,1.3-6.2,3.7-8.5c2.3-2.4,5.2-3.6,8.4-3.7h2.9c0.1-0.1,0.3-0.3,0.4-0.4
		c2.1-2.2,4.7-3.3,7.7-3.4c3.3-0.1,6.6,1.2,8.9,3.6c1.6,1.6,2.5,3.5,3,5.6c0.9,0.2,1.8,0.7,2.5,1.5c1.1,1.1,1.6,2.4,1.6,4
		c0,1.6-0.5,2.9-1.6,4c-1,1.1-2.3,1.6-3.8,1.6H384v10.5c-0.1,3.7-1.4,6.8-4,9.4c-0.3,0.3-0.7,0.7-1,1v9.6H383.8h7.3h28
		c0.7,0,1.4-0.4,1.7-1l18.8-34.4l16.1,8.9l-22.3,40.9c-1.5,2.7-4.3,4.3-7.3,4.3h-31.6c-1.2,0-2.1,1-2.1,2.1v51.7"/>
	<line class="st36" x1="433.2" y1="394.9" x2="449.2" y2="403.7"/>
	<line class="st36" x1="342.1" y1="474.8" x2="325.6" y2="482.6"/>
</g>
<g>
	<rect x="653.8" y="437.7" class="st37" width="10.7" height="15.7"/>
	<rect x="664.5" y="437.7" class="st2" width="71.2" height="15.7"/>
	<rect x="653.8" y="437.7" class="st14" width="82.7" height="15.7"/>
	<rect x="735" y="427.5" class="st38" width="13.7" height="10.3"/>
	<path class="st2" d="M755.4,526h-21.1c-8,0-14.5-6.5-14.5-14.5v-59.2c0-8,6.5-14.5,14.5-14.5h17.8c8,0,14.5,6.5,14.5,14.5
		L755.4,526z"/>
	<path class="st38" d="M743,432.5h-1.9c-6.8,0-12.3-5.5-12.3-12.3v-20.3c0-3.1,2.5-5.7,5.7-5.7h8.5c6.8,0,12.3,5.5,12.3,12.3v13.7
		C755.4,427,749.8,432.5,743,432.5z"/>
	<path class="st39" d="M758.1,395.1h-11.4l0,0c0-5.8-4.7-10.6-10.6-10.6h-4c-6,0-10.9,4.9-10.9,10.9v3c0,4.2,3.4,7.5,7.5,7.5h21.8
		c2.6,0,4.7,2.1,4.7,4.7v3.6h2.8c3.3,0,6-2.7,6-6v-7.2C764.1,397.7,761.5,395.1,758.1,395.1z"/>
	<line class="st24" x1="664.5" y1="437.7" x2="664.5" y2="453.4"/>
	<path class="st14" d="M755.4,526h-21.1c-8,0-14.5-6.5-14.5-14.5v-59.2c0-8,6.5-14.5,14.5-14.5h17.8c8,0,14.5,6.5,14.5,14.5
		L755.4,526z"/>
	<path class="st40" d="M745.3,559.3"/>
	<path class="st41" d="M746.6,556.6l21.4,74.7l21.7-6.2l-31-106.3l-17.3,1.5l-19.6,2.6v111.7h22.6v-77.7
		C744.4,555.7,746.3,555.4,746.6,556.6z"/>
	<path class="st42" d="M744.8,646.7h-37.6v-4.8c0-4.2,3.4-7.7,7.7-7.7h29.9V646.7z"/>
	<path class="st42" d="M793.1,636.6L757,646.9l-1-4.4c-1.2-4.2,1.2-8.5,5.4-9.7l28.6-8.2L793.1,636.6z"/>
	<g>
		<path class="st43" d="M806.8,521.3l-118.6,15.9c-3,0.4-5.8-1.7-6.2-4.7l-6.4-47.9c-0.4-3,1.7-5.8,4.7-6.2l118.6-15.9
			c3-0.4,5.8,1.7,6.2,4.7l6.4,47.9C811.9,518.1,809.8,520.9,806.8,521.3z"/>
		<g>
			<g>
				<path class="st44" d="M747.4,483.5l-3.3,0.4c-1.2,0.2-2.3-0.7-2.4-1.8l0,0c-0.2-1.2,0.7-2.3,1.8-2.4l3.3-0.4
					c1.2-0.2,2.3,0.7,2.4,1.8l0,0C749.4,482.2,748.6,483.3,747.4,483.5z"/>
				<path class="st44" d="M793,477.4l-36.3,4.9c-1.2,0.2-2.3-0.7-2.4-1.8v0c-0.2-1.2,0.7-2.3,1.8-2.4l36.3-4.9
					c1.2-0.2,2.3,0.7,2.4,1.8l0,0C795,476.1,794.2,477.2,793,477.4z"/>
			</g>
			<g>
				<path class="st24" d="M748.6,492.5l-3.3,0.4c-1.2,0.2-2.3-0.7-2.4-1.8l0,0c-0.2-1.2,0.7-2.3,1.8-2.4l3.3-0.4
					c1.2-0.2,2.3,0.7,2.4,1.8l0,0C750.6,491.3,749.8,492.4,748.6,492.5z"/>
				<path class="st24" d="M794.3,486.4l-36.3,4.9c-1.2,0.2-2.3-0.7-2.4-1.8v0c-0.2-1.2,0.7-2.3,1.8-2.4l36.3-4.9
					c1.2-0.2,2.3,0.7,2.4,1.8l0,0C796.3,485.2,795.4,486.3,794.3,486.4z"/>
			</g>
			<g>
				<path class="st44" d="M749.8,501.6l-3.3,0.4c-1.2,0.2-2.3-0.7-2.4-1.8v0c-0.2-1.2,0.7-2.3,1.8-2.4l3.3-0.4
					c1.2-0.2,2.3,0.7,2.4,1.8l0,0C751.8,500.4,751,501.4,749.8,501.6z"/>
				<path class="st44" d="M795.5,495.5l-36.3,4.9c-1.2,0.2-2.3-0.7-2.4-1.8l0,0c-0.2-1.2,0.7-2.3,1.8-2.4l36.3-4.9
					c1.2-0.2,2.3,0.7,2.4,1.8l0,0C797.5,494.3,796.6,495.3,795.5,495.5z"/>
			</g>
			<g>
				<path class="st24" d="M751,510.7l-3.3,0.4c-1.2,0.2-2.3-0.7-2.4-1.8v0c-0.2-1.2,0.7-2.3,1.8-2.4l3.3-0.4
					c1.2-0.2,2.3,0.7,2.4,1.8l0,0C753.1,509.4,752.2,510.5,751,510.7z"/>
				<path class="st24" d="M796.7,504.6l-36.3,4.9c-1.2,0.2-2.3-0.7-2.4-1.8l0,0c-0.2-1.2,0.7-2.3,1.8-2.4l36.3-4.9
					c1.2-0.2,2.3,0.7,2.4,1.8l0,0C798.7,503.3,797.9,504.4,796.7,504.6z"/>
			</g>
			<g>
				<path class="st44" d="M752.3,519.7l-3.3,0.4c-1.2,0.2-2.3-0.7-2.4-1.8l0,0c-0.2-1.2,0.7-2.3,1.8-2.4l3.3-0.4
					c1.2-0.2,2.3,0.7,2.4,1.8l0,0C754.3,518.5,753.4,519.6,752.3,519.7z"/>
				<path class="st44" d="M797.9,513.6l-36.3,4.9c-1.2,0.2-2.3-0.7-2.4-1.8l0,0c-0.2-1.2,0.7-2.3,1.8-2.4l36.3-4.9
					c1.2-0.2,2.3,0.7,2.4,1.8l0,0C799.9,512.4,799.1,513.5,797.9,513.6z"/>
			</g>
		</g>
		<g>
			
				<rect x="689.7" y="487.3" transform="matrix(0.9912 -0.1326 0.1326 0.9912 -61.1406 96.5647)" class="st45" width="9.6" height="40.3"/>
			
				<rect x="715.3" y="499.2" transform="matrix(0.9912 -0.1326 0.1326 0.9912 -60.4262 99.888)" class="st24" width="9" height="9"/>
			
				<rect x="717.5" y="515.3" transform="matrix(0.9912 -0.1326 0.1326 0.9912 -62.549 100.3171)" class="st46" width="9" height="9"/>
			<circle class="st47" cx="717.6" cy="486.9" r="4.3"/>
			<g>
				<g>
					<line class="st14" x1="718.2" y1="491.2" x2="718.7" y2="494.5"/>
					<g>
						<polygon points="721.7,493.7 715.6,494.5 719.1,497.2 						"/>
					</g>
				</g>
			</g>
			<line class="st14" x1="696.9" y1="489.8" x2="713.4" y2="487.6"/>
			<g>
				<g>
					<line class="st14" x1="699.4" y1="506.2" x2="711.3" y2="504.6"/>
					<g>
						<polygon points="710.5,501.6 711.3,507.6 713.9,504.2 						"/>
					</g>
				</g>
			</g>
			<g>
				<g>
					<line class="st14" x1="701.6" y1="522.5" x2="713.5" y2="520.9"/>
					<g>
						<polygon points="712.7,517.9 713.5,523.9 716.1,520.5 						"/>
					</g>
				</g>
			</g>
		</g>
	</g>
	<path class="st2" d="M764.2,444.3l16.4,26.7c1.8,2.9,2.5,6.4,2.1,9.8l-3.4,25l-13.8-1.6l3.2-24.6c0.1-0.7-0.1-1.4-0.5-2l-13.4-19.4
		"/>
	<polygon class="st37" points="764.4,512.5 778,514.1 779.3,505.8 765.5,504.2 	"/>
	<path class="st14" d="M764.2,444.3l16.4,26.7c1.8,2.9,2.5,6.4,2.1,9.8l-4.5,33.2l-13.8-1.6l4.3-32.8c0.1-0.7-0.1-1.4-0.5-2
		l-13.4-19.4"/>
	<line class="st14" x1="779.2" y1="505.7" x2="765.5" y2="504.1"/>
</g>
</svg>
