<?xml version="1.0" encoding="utf-8"?>
<!-- Generator: Adobe Illustrator 22.1.0, SVG Export Plug-In . SVG Version: 6.00 Build 0)  -->
<svg version="1.1" id="Layer_hjvabv" xmlns="http://www.w3.org/2000/svg" xmlns:xlink="http://www.w3.org/1999/xlink" x="0px" y="0px"
	 viewBox="0 0 750 400" enable-background="new 0 0 750 400" xml:space="preserve">
<path opacity="0.14" d="M627.3,165c-0.4-16.9-14.2-30.4-31.2-30.4c-9.8,0-18.6,4.6-24.3,11.7c-2.3-4.3-6.9-7.2-12.1-7.2
	c-6.4,0-11.8,4.4-13.3,10.4c-2-0.8-4.3-1.3-6.6-1.3c-3.6,0-6.9,1.1-9.6,2.9c-4-4-9.4-6.4-15.5-6.4c-9.2,0-17.2,5.7-20.4,13.8
	c-1.9-2-4.7-3.3-7.7-3.3c-5.6,0-10.2,4.3-10.6,9.8H627.3z"/>
<path fill="none" stroke="#A6A6A6" stroke-miterlimit="10" d="M663,165.1v14.8c0,10.2-8.3,18.5-18.5,18.5h-92.1"/>
<linearGradient id="SVGID_1_" gradientUnits="userSpaceOnUse" x1="665.1014" y1="194.9267" x2="1052.6112" y2="194.9267" gradientTransform="matrix(-1 0 0 1 1237.9236 0)">
	<stop  offset="5.405406e-03" style="stop-color:#0B98CC;stop-opacity:0.5"/>
	<stop  offset="0.7351" style="stop-color:#0B98CC;stop-opacity:0.2"/>
</linearGradient>
<path fill="url(#SVGID_1_)" d="M504.9,313.8c37.4,0,67.9-30.5,67.9-67.9c0-32.8-23.3-60.6-55.1-66.7C515.5,122,468.1,76,410.3,76
	c-51.3,0-95.6,36.8-105.5,86.6c-4.7-0.9-9.4-1.4-14.1-1.4c-41.4,0-75.1,33.7-75.1,75.1c0,1,0,2,0.1,3.1
	c-17.4,3.3-30.3,18.5-30.3,36.8c0,20,15.7,36.4,35.5,37.5l0,0.1H504.9z"/>
<path fill="none" stroke="#A6A6A6" stroke-miterlimit="10" d="M186.8,268.4H89.4c-7.5,0-13.6,6.1-13.6,13.6v7.8"/>
<path fill="none" stroke="#A6A6A6" stroke-miterlimit="10" d="M210.2,364.7h60.3c3.2,0,5.8-2.6,5.8-5.8v-59.5c0-3.2,2.6-5.8,5.8-5.8
	h32.3c3.2,0,5.8-2.6,5.8-5.8v-12.2"/>
<path fill="none" stroke="#A6A6A6" stroke-miterlimit="10" d="M427.3,196v-79.7c0-14.2,11.5-25.7,25.7-25.7h112.1"/>
<path fill="none" stroke="#A6A6A6" stroke-miterlimit="10" d="M327,111V54.4c0-5.8-4.7-10.4-10.4-10.4H118.8
	c-5.8,0-10.4,4.7-10.4,10.4v38.9"/>
<path opacity="0.14" d="M34,78.1C34.3,64.5,45.4,53.6,59,53.6c7.9,0,15,3.7,19.6,9.4c1.9-3.5,5.5-5.8,9.7-5.8
	c5.2,0,9.5,3.6,10.7,8.4c1.6-0.7,3.4-1,5.3-1c2.9,0,5.5,0.9,7.7,2.3c3.2-3.2,7.6-5.1,12.5-5.1c7.4,0,13.8,4.6,16.4,11.1
	c1.6-1.6,3.8-2.7,6.2-2.7c4.5,0,8.2,3.5,8.5,7.9H34z"/>
<path opacity="0.14" d="M118.8,164.8c0.3-12.1,10.2-21.8,22.3-21.8c7,0,13.3,3.3,17.4,8.4c1.7-3.1,4.9-5.2,8.6-5.2
	c4.6,0,8.5,3.2,9.5,7.5c1.5-0.6,3.1-0.9,4.7-0.9c2.5,0,4.9,0.8,6.9,2.1c2.8-2.8,6.7-4.6,11.1-4.6c6.6,0,12.3,4.1,14.6,9.9
	c1.4-1.5,3.3-2.4,5.5-2.4c4,0,7.3,3.1,7.6,7H118.8z"/>
<path opacity="0.14" d="M297.2,368.3c0.2-10.2,8.6-18.4,18.9-18.4c6,0,11.3,2.8,14.8,7.1c1.4-2.6,4.2-4.4,7.3-4.4
	c3.9,0,7.2,2.7,8.1,6.3c1.2-0.5,2.6-0.8,4-0.8c2.2,0,4.2,0.6,5.8,1.7c2.4-2.4,5.7-3.9,9.4-3.9c5.6,0,10.4,3.5,12.3,8.4
	c1.2-1.2,2.8-2,4.7-2c3.4,0,6.2,2.6,6.4,6H297.2z"/>
<path opacity="0.14" d="M458.9,52.9c0.2-8.1,6.8-14.6,15-14.6c4.7,0,8.9,2.2,11.7,5.6c1.1-2.1,3.3-3.5,5.8-3.5c3.1,0,5.7,2.1,6.4,5
	c1-0.4,2-0.6,3.2-0.6c1.7,0,3.3,0.5,4.6,1.4c1.9-1.9,4.5-3.1,7.4-3.1c4.4,0,8.2,2.7,9.8,6.6c0.9-1,2.2-1.6,3.7-1.6
	c2.7,0,4.9,2.1,5.1,4.7H458.9z"/>
<path fill="none" stroke="#A6A6A6" stroke-miterlimit="10" d="M249.1,88.5c0,14.6-11.9,26.5-26.5,26.5s-26.5-11.9-26.5-26.5"/>
<path fill="none" stroke="#A6A6A6" stroke-miterlimit="10" d="M214.5,352.2c0,12.3-9.9,22.2-22.2,22.2"/>
<path fill="none" stroke="#A6A6A6" stroke-miterlimit="10" d="M574.6,364c-12.3,0-22.2-9.9-22.2-22.2s9.9-22.2,22.2-22.2"/>
<path fill="none" stroke="#A6A6A6" stroke-miterlimit="10" d="M674.8,168.7c-11.4,0-20.7-9.3-20.7-20.7c0-11.4,9.3-20.7,20.7-20.7"
	/>
<path fill="none" stroke="#A6A6A6" stroke-miterlimit="10" d="M446.3,313.5v12c0,9.1,7.4,16.5,16.5,16.5h89.6"/>
<circle fill="#C2D500" cx="607" cy="77.2" r="38.1"/>
<circle fill="#FF4D00" cx="76" cy="333.4" r="37"/>
<circle fill="#0B98CC" cx="108.2" cy="152.5" r="52"/>
<path fill="none" stroke="#A6A6A6" stroke-miterlimit="10" d="M222,115v18c0,6.1,4.9,11,11,11h23.3c6.1,0,11,4.9,11,11v63.7
	c0,6.1,4.9,11,11,11H363"/>
<path fill="none" stroke="#A6A6A6" stroke-miterlimit="10" d="M620.8,291H512.2c-4.2,0-7.7-3.4-7.7-7.7V270c0-4.2-3.4-7.7-7.7-7.7
	h-17.5"/>
<g>
	<g>
		
			<line fill="none" stroke="#000000" stroke-width="2" stroke-linecap="round" stroke-linejoin="round" x1="410.3" y1="183.8" x2="410.3" y2="183.8"/>
		
			<line fill="none" stroke="#000000" stroke-width="2" stroke-linecap="round" stroke-linejoin="round" stroke-dasharray="0,5.06" x1="410.3" y1="178.8" x2="410.3" y2="34.6"/>
		
			<line fill="none" stroke="#000000" stroke-width="2" stroke-linecap="round" stroke-linejoin="round" x1="410.3" y1="32" x2="410.3" y2="32"/>
		<g>
			<polygon points="398.2,182.2 422.5,182.2 410.3,194.4 			"/>
		</g>
		<g>
			<polygon points="398.2,33.7 422.5,33.7 410.3,21.5 			"/>
		</g>
	</g>
</g>
<g>
	<g>
		
			<line fill="none" stroke="#000000" stroke-width="2" stroke-linecap="round" stroke-linejoin="round" x1="410.3" y1="361.2" x2="410.3" y2="361.2"/>
		
			<line fill="none" stroke="#000000" stroke-width="2" stroke-linecap="round" stroke-linejoin="round" stroke-dasharray="0,5.0697" x1="410.3" y1="356.1" x2="410.3" y2="257.2"/>
		
			<line fill="none" stroke="#000000" stroke-width="2" stroke-linecap="round" stroke-linejoin="round" x1="410.3" y1="254.7" x2="410.3" y2="254.7"/>
		<g>
			<polygon points="398.2,359.5 422.5,359.5 410.3,371.7 			"/>
		</g>
		<g>
			<polygon points="398.2,256.3 422.5,256.3 410.3,244.2 			"/>
		</g>
	</g>
</g>
<g>
	<g>
		
			<line fill="none" stroke="#000000" stroke-width="2" stroke-linecap="round" stroke-linejoin="round" x1="345.1" y1="244" x2="345.1" y2="244"/>
		
			<line fill="none" stroke="#000000" stroke-width="2" stroke-linecap="round" stroke-linejoin="round" stroke-dasharray="0,5.0052" x1="340.1" y1="244" x2="57.3" y2="244"/>
		
			<line fill="none" stroke="#000000" stroke-width="2" stroke-linecap="round" stroke-linejoin="round" x1="54.8" y1="244" x2="54.8" y2="244"/>
		<g>
			<polygon points="343.5,256.2 343.5,231.9 355.7,244 			"/>
		</g>
		<g>
			<polygon points="56.5,256.2 56.5,231.9 44.3,244 			"/>
		</g>
	</g>
</g>
<g>
	<g>
		
			<line fill="none" stroke="#000000" stroke-width="2" stroke-linecap="round" stroke-linejoin="round" x1="466.2" y1="244" x2="466.2" y2="244"/>
		
			<line fill="none" stroke="#000000" stroke-width="2" stroke-linecap="round" stroke-linejoin="round" stroke-dasharray="0,4.9646" x1="471.1" y1="244" x2="702" y2="244"/>
		
			<line fill="none" stroke="#000000" stroke-width="2" stroke-linecap="round" stroke-linejoin="round" x1="704.5" y1="244" x2="704.5" y2="244"/>
		<g>
			<polygon points="467.8,231.9 467.8,256.2 455.7,244 			"/>
		</g>
		<g>
			<polygon points="702.8,231.9 702.8,256.2 715,244 			"/>
		</g>
	</g>
</g>
<path fill="#FFFFFF" stroke="#000000" stroke-miterlimit="10" d="M453.7,275.2c17.1,0,31-13.9,31-31c0-15-10.6-27.7-25.1-30.4
	c-1-26.2-22.6-47.1-49-47.1c-23.4,0-43.6,16.8-48.1,39.5c-2.1-0.4-4.3-0.6-6.4-0.6c-18.9,0-34.3,15.4-34.3,34.3c0,0.5,0,0.9,0,1.4
	c-8,1.5-13.8,8.4-13.8,16.8c0,9.1,7.2,16.6,16.2,17.1l0,0H453.7z"/>
<g>
	<g>
		
			<line fill="none" stroke="#000000" stroke-width="2" stroke-linecap="round" stroke-linejoin="round" x1="407.8" y1="241.7" x2="407.8" y2="241.7"/>
		
			<line fill="none" stroke="#000000" stroke-width="2" stroke-linecap="round" stroke-linejoin="round" stroke-dasharray="0,5.0214" x1="404.3" y1="238.1" x2="335" y2="168.9"/>
		
			<line fill="none" stroke="#000000" stroke-width="2" stroke-linecap="round" stroke-linejoin="round" x1="333.3" y1="167.1" x2="333.3" y2="167.1"/>
		<g>
			<polygon points="325.8,176.9 343,159.7 325.8,159.7 			"/>
		</g>
	</g>
</g>
<g>
	<g>
		
			<line fill="none" stroke="#000000" stroke-width="2" stroke-linecap="round" stroke-linejoin="round" x1="457.6" y1="291.4" x2="457.6" y2="291.4"/>
		
			<line fill="none" stroke="#000000" stroke-width="2" stroke-linecap="round" stroke-linejoin="round" stroke-dasharray="0,5.1199" x1="453.9" y1="287.8" x2="412.3" y2="246.2"/>
		
			<line fill="none" stroke="#000000" stroke-width="2" stroke-linecap="round" stroke-linejoin="round" x1="410.5" y1="244.4" x2="410.5" y2="244.4"/>
		<g>
			<polygon points="447.8,298.9 465,281.7 465,298.9 			"/>
		</g>
	</g>
</g>
<g>
	<g>
		
			<line fill="none" stroke="#000000" stroke-width="2" stroke-linecap="round" stroke-linejoin="round" x1="410.6" y1="244" x2="410.6" y2="244"/>
		
			<line fill="none" stroke="#000000" stroke-width="2" stroke-linecap="round" stroke-linejoin="round" stroke-dasharray="0,4.9455" x1="414.1" y1="240.5" x2="527.7" y2="126.9"/>
		
			<line fill="none" stroke="#000000" stroke-width="2" stroke-linecap="round" stroke-linejoin="round" x1="529.5" y1="125.1" x2="529.5" y2="125.1"/>
		<g>
			<polygon points="519.7,117.7 536.9,134.9 536.9,117.7 			"/>
		</g>
	</g>
</g>
<g>
	<g>
		
			<line fill="none" stroke="#000000" stroke-width="2" stroke-linecap="round" stroke-linejoin="round" x1="321.8" y1="332.8" x2="321.8" y2="332.8"/>
		
			<line fill="none" stroke="#000000" stroke-width="2" stroke-linecap="round" stroke-linejoin="round" stroke-dasharray="0,5.0005" x1="325.3" y1="329.3" x2="408.4" y2="246.2"/>
		
			<line fill="none" stroke="#000000" stroke-width="2" stroke-linecap="round" stroke-linejoin="round" x1="410.2" y1="244.4" x2="410.2" y2="244.4"/>
		<g>
			<polygon points="314.3,323.1 331.5,340.3 314.3,340.3 			"/>
		</g>
	</g>
</g>
<linearGradient id="SVGID_2_" gradientUnits="userSpaceOnUse" x1="381.6904" y1="245.544" x2="431.0761" y2="245.544">
	<stop  offset="0" style="stop-color:#525252"/>
	<stop  offset="0.7351" style="stop-color:#D9D9D9"/>
</linearGradient>
<path fill="url(#SVGID_2_)" stroke="#000000" stroke-miterlimit="10" d="M422.4,260.7c4.8,0,8.7-3.9,8.7-8.7c0-4.2-3-7.7-7-8.5
	c-0.3-7.3-6.3-13.2-13.7-13.2c-6.5,0-12.2,4.7-13.4,11c-0.6-0.1-1.2-0.2-1.8-0.2c-5.3,0-9.6,4.3-9.6,9.6c0,0.1,0,0.3,0,0.4
	c-2.2,0.4-3.9,2.4-3.9,4.7c0,2.5,2,4.6,4.5,4.8l0,0H422.4z"/>
<linearGradient id="SVGID_3_" gradientUnits="userSpaceOnUse" x1="623.3286" y1="312.5904" x2="711.1381" y2="312.5904">
	<stop  offset="0" style="stop-color:#1C76BC"/>
	<stop  offset="0.7351" style="stop-color:#0E578C"/>
</linearGradient>
<ellipse fill="url(#SVGID_3_)" cx="667.2" cy="312.6" rx="43.9" ry="43.7"/>
<path fill="none" stroke="#A6A6A6" stroke-miterlimit="10" d="M575.9,108.4c-17.2-17.2-17.2-45.1,0-62.3"/>
<path fill="none" stroke="#A6A6A6" stroke-miterlimit="10" d="M638.2,46.1c17.2,17.2,17.2,45.1,0,62.3"/>
<path fill="none" stroke="#A6A6A6" stroke-miterlimit="10" d="M45.1,302.5c17.1-17.1,44.7-17.1,61.8,0"/>
<path fill="none" stroke="#A6A6A6" stroke-miterlimit="10" d="M106.9,364.2c-17.1,17.1-44.7,17.1-61.8,0"/>
<path fill="none" stroke="#A6A6A6" stroke-miterlimit="10" d="M66.3,110.7c23.1-23.1,60.6-23.1,83.7,0"/>
<path fill="none" stroke="#A6A6A6" stroke-miterlimit="10" d="M150,194.4c-23.1,23.1-60.6,23.1-83.7,0"/>
<path fill="none" stroke="#A6A6A6" stroke-miterlimit="10" d="M616.1,312.6c0-28.2,22.9-51.1,51.1-51.1"/>
<path fill="none" stroke="#A6A6A6" stroke-miterlimit="10" d="M718.3,312.6c0,28.2-22.9,51.1-51.1,51.1"/>
<circle fill="#FFFFFF" stroke="#A6A6A6" stroke-miterlimit="10" cx="328.1" cy="219.8" r="5.2"/>
<circle fill="#FFFFFF" stroke="#A6A6A6" stroke-miterlimit="10" cx="322.3" cy="275.5" r="5.2"/>
<circle fill="#FFFFFF" stroke="#A6A6A6" stroke-miterlimit="10" cx="447.3" cy="313.5" r="5.2"/>
<circle fill="#FFFFFF" stroke="#A6A6A6" stroke-miterlimit="10" cx="552.3" cy="198.5" r="5.2"/>
<circle fill="#FFFFFF" stroke="#A6A6A6" stroke-miterlimit="10" cx="478.8" cy="262.5" r="5.2"/>
<circle fill="#FFFFFF" stroke="#A6A6A6" stroke-miterlimit="10" cx="327" cy="115.3" r="5.2"/>
<circle fill="#FFFFFF" stroke="#A6A6A6" stroke-miterlimit="10" cx="427.7" cy="170.1" r="5.2"/>
<circle fill="#FFFFFF" stroke="#A6A6A6" stroke-miterlimit="10" cx="185.8" cy="269" r="5.2"/>
<circle fill="#FFFFFF" stroke="#A6A6A6" stroke-miterlimit="10" cx="108.3" cy="93.4" r="2"/>
<circle fill="#FFFFFF" stroke="#A6A6A6" stroke-miterlimit="10" cx="75.8" cy="289.7" r="2"/>
<circle fill="#FFFFFF" stroke="#A6A6A6" stroke-miterlimit="10" cx="552.3" cy="342.3" r="2"/>
<circle fill="#FFFFFF" stroke="#A6A6A6" stroke-miterlimit="10" cx="663.3" cy="165.3" r="2"/>
<circle fill="#FFFFFF" stroke="#A6A6A6" stroke-miterlimit="10" cx="620.6" cy="291" r="2"/>
<circle fill="#FFFFFF" stroke="#A6A6A6" stroke-miterlimit="10" cx="565.1" cy="90.7" r="2"/>
<circle fill="#FFFFFF" stroke="#A6A6A6" stroke-miterlimit="10" cx="222" cy="115.3" r="2"/>
<circle fill="#FFFFFF" stroke="#A6A6A6" stroke-miterlimit="10" cx="211.2" cy="364.7" r="2"/>
<circle fill="#FFFFFF" stroke="#A6A6A6" stroke-miterlimit="10" cx="288.3" cy="116.8" r="5.2"/>
<circle fill="#FFFFFF" stroke="#A6A6A6" stroke-miterlimit="10" cx="376.3" cy="334" r="2"/>
<circle fill="#C2D500" cx="250.3" cy="335.9" r="1.9"/>
<circle fill="#FF4D00" cx="33.2" cy="171" r="1.9"/>
<circle fill="#C2D500" cx="619.2" cy="271" r="1.9"/>
<circle fill="#FFFFFF" cx="532.9" cy="267.7" r="1.9"/>
<circle fill="#C2D500" cx="72.4" cy="223" r="1.9"/>
<circle fill="#C2D500" cx="174.2" cy="79" r="1.9"/>
<circle fill="#E0E0E0" cx="236.2" cy="30.5" r="3.8"/>
<circle fill="#E0E0E0" cx="555.6" cy="118.4" r="1.9"/>
<circle fill="#E0E0E0" cx="673" cy="60.4" r="1.9"/>
<circle fill="#FFFFFF" cx="365" cy="126.9" r="1.9"/>
<circle fill="#FF4D00" cx="601.3" cy="184.6" r="3.8"/>
<circle fill="#FF4D00" cx="308.2" cy="196" r="3.8"/>
<circle fill="none" stroke="#C2C2C2" stroke-width="2" stroke-miterlimit="10" cx="641.3" cy="231.3" r="3.2"/>
<circle fill="none" stroke="#FFFFFF" stroke-width="2" stroke-miterlimit="10" cx="229.2" cy="278.5" r="3.2"/>
<circle fill="none" stroke="#FFFFFF" stroke-width="2" stroke-miterlimit="10" cx="507.8" cy="221" r="3.2"/>
<circle fill="none" stroke="#C2C2C2" stroke-width="2" stroke-miterlimit="10" cx="57.1" cy="94" r="3.2"/>
<circle fill="none" stroke="#C2C2C2" stroke-width="2" stroke-miterlimit="10" cx="132.6" cy="288" r="3.2"/>
<g>
	<path fill="#7BCAEF" d="M506.8,366.5h-7c-0.5,0-1-0.4-1-1s0.4-1,1-1h7c0.5,0,1,0.4,1,1S507.3,366.5,506.8,366.5z"/>
	<path fill="#7BCAEF" d="M503.3,370c-0.5,0-1-0.4-1-1v-7c0-0.5,0.4-1,1-1c0.5,0,1,0.4,1,1v7C504.2,369.6,503.8,370,503.3,370z"/>
</g>
<g>
	<path fill="#7BCAEF" d="M160.1,222.4h-7c-0.5,0-1-0.4-1-1c0-0.5,0.4-1,1-1h7c0.5,0,1,0.4,1,1C161.1,222,160.7,222.4,160.1,222.4z"
		/>
	<path fill="#7BCAEF" d="M156.6,226c-0.5,0-1-0.4-1-1v-7c0-0.5,0.4-1,1-1s1,0.4,1,1v7C157.6,225.5,157.2,226,156.6,226z"/>
</g>
<g>
	<path fill="#7BCAEF" d="M697.4,205.9h-7c-0.5,0-1-0.4-1-1s0.4-1,1-1h7c0.5,0,1,0.4,1,1S697.9,205.9,697.4,205.9z"/>
	<path fill="#7BCAEF" d="M693.8,209.5c-0.5,0-1-0.4-1-1v-7c0-0.5,0.4-1,1-1c0.5,0,1,0.4,1,1v7C694.8,209,694.4,209.5,693.8,209.5z"
		/>
</g>
<g>
	<path fill="#7BCAEF" d="M351.4,67h-7c-0.5,0-1-0.4-1-1c0-0.5,0.4-1,1-1h7c0.5,0,1,0.4,1,1C352.3,66.6,351.9,67,351.4,67z"/>
	<path fill="#7BCAEF" d="M347.8,70.5c-0.5,0-1-0.4-1-1v-7c0-0.5,0.4-1,1-1s1,0.4,1,1v7C348.8,70.1,348.4,70.5,347.8,70.5z"/>
</g>
<path fill="#C2C2C2" d="M487.4,74.5h-6l-3-5.2l3-5.2h6l3,5.2L487.4,74.5z M482.2,73.1h4.4l2.2-3.8l-2.2-3.8h-4.4l-2.2,3.8
	L482.2,73.1z"/>
<path fill="#C2C2C2" d="M185.2,202.5h-6l-3-5.2l3-5.2h6l3,5.2L185.2,202.5z M180,201h4.4l2.2-3.8l-2.2-3.8H180l-2.2,3.8L180,201z"/>
<g>
	<polyline fill="none" stroke="#0B98CC" stroke-linecap="round" stroke-linejoin="round" stroke-miterlimit="10" points="
		683.5,153.6 669.6,153.5 669.7,141 701.5,141.3 701.5,149.6 	"/>
	
		<line fill="none" stroke="#0B98CC" stroke-linecap="round" stroke-linejoin="round" stroke-miterlimit="10" x1="675.2" y1="144.5" x2="675.2" y2="150.1"/>
	
		<line fill="none" stroke="#0B98CC" stroke-linecap="round" stroke-linejoin="round" stroke-miterlimit="10" x1="677.5" y1="145.8" x2="672.9" y2="148.8"/>
	
		<line fill="none" stroke="#0B98CC" stroke-linecap="round" stroke-linejoin="round" stroke-miterlimit="10" x1="677.5" y1="148.9" x2="672.9" y2="145.8"/>
	
		<line fill="none" stroke="#0B98CC" stroke-linecap="round" stroke-linejoin="round" stroke-miterlimit="10" x1="683.5" y1="144.6" x2="683.5" y2="150.1"/>
	
		<line fill="none" stroke="#0B98CC" stroke-linecap="round" stroke-linejoin="round" stroke-miterlimit="10" x1="685.8" y1="145.9" x2="681.2" y2="148.9"/>
	
		<line fill="none" stroke="#0B98CC" stroke-linecap="round" stroke-linejoin="round" stroke-miterlimit="10" x1="685.8" y1="148.9" x2="681.2" y2="145.8"/>
	<g>
		
			<rect x="688.9" y="153.7" transform="matrix(6.653801e-03 -1 1 6.653801e-03 529.284 853.983)" fill="none" stroke="#0B98CC" stroke-linecap="round" stroke-linejoin="round" stroke-miterlimit="10" width="11.1" height="13.8"/>
		
			<line fill="none" stroke="#0B98CC" stroke-linecap="round" stroke-linejoin="round" stroke-miterlimit="10" x1="694.4" y1="162.4" x2="694.5" y2="159.6"/>
		<path fill="none" stroke="#0B98CC" stroke-linecap="round" stroke-linejoin="round" stroke-miterlimit="10" d="M690.3,155l0-1.4
			c0-2.3,1.9-4.1,4.2-4.1c2.3,0,4.1,1.9,4.1,4.2l0,1.4"/>
		<path fill="none" stroke="#0B98CC" stroke-linejoin="round" stroke-miterlimit="10" d="M695.1,158.9c0,0.4-0.3,0.7-0.7,0.7l0,0
			c-0.4,0-0.7-0.3-0.7-0.7l0,0c0-0.4,0.3-0.7,0.7-0.7l0,0C694.8,158.2,695.1,158.5,695.1,158.9L695.1,158.9z"/>
	</g>
</g>
<g>
	<polyline fill="none" stroke="#FFFFFF" stroke-linecap="round" stroke-linejoin="round" stroke-miterlimit="10" points="
		98.3,141.2 98.4,131 97.2,132.1 	"/>
	<polyline fill="none" stroke="#FFFFFF" stroke-linecap="round" stroke-linejoin="round" stroke-miterlimit="10" points="
		86.6,157.1 86.7,146.9 85.5,148 	"/>
	<polyline fill="none" stroke="#FFFFFF" stroke-linecap="round" stroke-linejoin="round" stroke-miterlimit="10" points="
		127.4,141.4 127.5,131.2 126.2,132.3 	"/>
	<polyline fill="none" stroke="#FFFFFF" stroke-linecap="round" stroke-linejoin="round" stroke-miterlimit="10" points="
		127.3,157.3 127.3,147.2 126.1,148.3 	"/>
	<polyline fill="none" stroke="#FFFFFF" stroke-linecap="round" stroke-linejoin="round" stroke-miterlimit="10" points="
		118.7,141.3 118.7,131.1 117.5,132.3 	"/>
	<polyline fill="none" stroke="#FFFFFF" stroke-linecap="round" stroke-linejoin="round" stroke-miterlimit="10" points="107,157.2 
		107,147 105.8,148.2 	"/>
	<path fill="none" stroke="#FFFFFF" stroke-linecap="round" stroke-linejoin="round" stroke-miterlimit="10" d="M90.3,136
		c0,2.9-0.4,5.2-2.7,5.2c-2.3,0-2.6-2.3-2.6-5.2c0-2.9,0.4-5.2,2.7-5.2C90,130.8,90.4,133.2,90.3,136z"/>
	<path fill="none" stroke="#FFFFFF" stroke-linecap="round" stroke-linejoin="round" stroke-miterlimit="10" d="M110.5,136.2
		c0,2.9-0.4,5.2-2.7,5.2c-2.3,0-2.6-2.3-2.6-5.2c0-2.9,0.4-5.2,2.7-5.2C110.2,131,110.5,133.3,110.5,136.2z"/>
	<path fill="none" stroke="#FFFFFF" stroke-linecap="round" stroke-linejoin="round" stroke-miterlimit="10" d="M119,152.2
		c0,2.9-0.4,5.2-2.7,5.2c-2.3,0-2.6-2.3-2.6-5.2s0.4-5.2,2.7-5.2C118.6,147,119,149.3,119,152.2z"/>
	<path fill="none" stroke="#FFFFFF" stroke-linecap="round" stroke-linejoin="round" stroke-miterlimit="10" d="M98.8,152.1
		c0,2.9-0.4,5.2-2.7,5.2c-2.3,0-2.6-2.3-2.6-5.2s0.4-5.2,2.7-5.2C98.4,146.9,98.8,149.2,98.8,152.1z"/>
	<path fill="none" stroke="#FFFFFF" stroke-linecap="round" stroke-linejoin="round" stroke-miterlimit="10" d="M141.7,171.7
		c0,2.5-2,4.6-4.4,4.6l-58.1-0.4c-2.4,0-4.3-2.1-4.3-4.6l0.3-43c0-2.5,2-4.6,4.4-4.6l58.1,0.4c2.4,0,4.3,2.1,4.3,4.6L141.7,171.7z"
		/>
	
		<line fill="none" stroke="#FFFFFF" stroke-linecap="round" stroke-linejoin="round" stroke-miterlimit="10" x1="87.9" y1="181.8" x2="128.6" y2="182"/>
	
		<line fill="none" stroke="#FFFFFF" stroke-linecap="round" stroke-linejoin="round" stroke-miterlimit="10" x1="106.8" y1="176.1" x2="106.8" y2="181.9"/>
	<circle fill="none" stroke="#FFFFFF" stroke-linejoin="round" stroke-miterlimit="10" cx="108.3" cy="170.3" r="1.5"/>
	<line fill="none" stroke="#FFFFFF" stroke-linejoin="round" stroke-miterlimit="10" x1="75" y1="164.2" x2="141.8" y2="164.7"/>
</g>
<g>
	<g>
		<path fill="none" stroke="#0B98CC" stroke-linecap="round" stroke-linejoin="round" stroke-miterlimit="10" d="M628.1,89.6
			c0,1.6-1.2,2.8-2.7,2.8l-35.8-0.2c-1.5,0-2.7-1.3-2.7-2.9l0.2-26.5c0-1.6,1.2-2.8,2.7-2.8l35.8,0.2c1.5,0,2.7,1.3,2.7,2.9
			L628.1,89.6z"/>
		
			<line fill="none" stroke="#0B98CC" stroke-linecap="round" stroke-linejoin="round" stroke-miterlimit="10" x1="595" y1="95.8" x2="620" y2="96"/>
		
			<line fill="none" stroke="#0B98CC" stroke-linecap="round" stroke-linejoin="round" stroke-miterlimit="10" x1="606.6" y1="92.3" x2="606.6" y2="95.9"/>
		<circle fill="none" stroke="#0B98CC" stroke-linejoin="round" stroke-miterlimit="10" cx="607.5" cy="88.7" r="0.9"/>
		<line fill="none" stroke="#0B98CC" stroke-linejoin="round" stroke-miterlimit="10" x1="587" y1="85" x2="628.1" y2="85.3"/>
	</g>
	
		<rect x="596.9" y="75.2" transform="matrix(6.653801e-03 -1 1 6.653801e-03 518.5211 677.8379)" fill="none" stroke="#0B98CC" stroke-linejoin="round" stroke-miterlimit="10" width="7.2" height="5.4"/>
	
		<rect x="603.1" y="72.6" transform="matrix(6.653801e-03 -1 1 6.653801e-03 530.059 684.2)" fill="none" stroke="#0B98CC" stroke-linejoin="round" stroke-miterlimit="10" width="12.5" height="5.4"/>
	
		<rect x="610.3" y="70.9" transform="matrix(6.653801e-03 -1 1 6.653801e-03 540.6957 691.4454)" fill="none" stroke="#0B98CC" stroke-linejoin="round" stroke-miterlimit="10" width="16.1" height="5.4"/>
	<line fill="none" stroke="#0B98CC" stroke-linejoin="round" stroke-miterlimit="10" x1="594.3" y1="64.5" x2="594.1" y2="82.4"/>
</g>
<g>
	<g>
		<path fill="none" stroke="#FFFFFF" stroke-linecap="round" stroke-linejoin="round" stroke-miterlimit="10" d="M667.1,287.8
			L667.1,287.8c-4.5,5.4-12.2,7.5-21.4,1l-0.2,31.7c0,0,3,11.3,21.3,16.5c18.3-5,21.5-16.3,21.5-16.3l0.2-31.7
			C679.2,295.4,671.5,293.3,667.1,287.8z"/>
	</g>
	<circle fill="none" stroke="#FFFFFF" stroke-linejoin="round" stroke-miterlimit="10" cx="666.9" cy="312.5" r="4.3"/>
	<path fill="none" stroke="#FFFFFF" stroke-linejoin="round" stroke-miterlimit="10" d="M677.4,310.2l3.2-1.8l-3.2-5.6l-3.2,1.8
		c-1.1-1-2.5-1.8-4-2.3l0-3.7l-6.4,0l0,3.7c-1.5,0.5-2.9,1.2-4,2.3l-3.2-1.9l-3.2,5.5l3.2,1.9c-0.4,1.6-0.4,3,0,4.6l-3.2,1.8
		l3.2,5.6l3.2-1.8c1.1,1,2.5,1.8,4,2.3l0,3.7l6.4,0l0-3.7c1.5-0.5,2.9-1.2,4-2.3l3.2,1.9l3.2-5.5l-3.2-1.9
		C677.7,313.2,677.7,311.8,677.4,310.2z"/>
</g>
<g>
	
		<line fill="none" stroke="#0B98CC" stroke-linecap="round" stroke-linejoin="round" stroke-miterlimit="10" x1="572.1" y1="331.6" x2="595.3" y2="331.7"/>
	<g>
		<g>
			<path fill="#0B98CC" d="M575.8,328.5c-0.3,0-0.6,0.3-0.6,0.6c0,0.3,0.3,0.6,0.6,0.6c0,0,0,0,0,0c0.3,0,0.6-0.3,0.6-0.6
				C576.4,328.8,576.1,328.5,575.8,328.5C575.8,328.5,575.8,328.5,575.8,328.5L575.8,328.5z"/>
		</g>
	</g>
	<g>
		<g>
			<path fill="#0B98CC" d="M578.2,328.5c-0.3,0-0.6,0.3-0.6,0.6c0,0.3,0.3,0.6,0.6,0.6c0,0,0,0,0,0c0.3,0,0.6-0.3,0.6-0.6
				C578.8,328.8,578.5,328.5,578.2,328.5C578.2,328.5,578.2,328.5,578.2,328.5L578.2,328.5z"/>
		</g>
	</g>
	<g>
		<g>
			<path fill="#0B98CC" d="M580.6,328.5c-0.3,0-0.6,0.3-0.6,0.6c0,0.3,0.3,0.6,0.6,0.6c0,0,0,0,0,0c0.3,0,0.6-0.3,0.6-0.6
				C581.3,328.8,581,328.6,580.6,328.5C580.7,328.5,580.6,328.5,580.6,328.5L580.6,328.5z"/>
		</g>
	</g>
	<path fill="none" stroke="#0B98CC" stroke-linecap="round" stroke-linejoin="round" stroke-miterlimit="10" d="M572.1,332.8l0-3.7
		c0-1.4,1.1-2.4,2.5-2.4l18.4,0.1c1.4,0,2.4,1.1,2.4,2.5l-0.1,12.2c0,1.4-1.1,2.4-2.5,2.4"/>
	<path fill="none" stroke="#0B98CC" stroke-linecap="round" stroke-linejoin="round" stroke-miterlimit="10" d="M582.9,352.4
		c0,1.3-1.1,2.4-2.5,2.4l-11-0.1c-1.3,0-2.4-1.1-2.4-2.5l0-7.3c0-1.3,1.1-2.4,2.5-2.4l11,0.1c1.3,0,2.4,1.1,2.4,2.5L582.9,352.4z"/>
	
		<line fill="none" stroke="#0B98CC" stroke-linecap="round" stroke-linejoin="round" stroke-miterlimit="10" x1="567.1" y1="346.2" x2="583" y2="346.3"/>
	
		<line fill="none" stroke="#0B98CC" stroke-linecap="round" stroke-linejoin="round" stroke-miterlimit="10" x1="572" y1="335.2" x2="572" y2="340.1"/>
	<polyline fill="none" stroke="#0B98CC" stroke-linecap="round" stroke-linejoin="round" stroke-miterlimit="10" points="
		569.6,337.7 572,335.2 574.5,337.7 	"/>
	
		<line fill="none" stroke="#0B98CC" stroke-linecap="round" stroke-linejoin="round" stroke-miterlimit="10" x1="590.3" y1="343.9" x2="585.4" y2="343.9"/>
	<polyline fill="none" stroke="#0B98CC" stroke-linecap="round" stroke-linejoin="round" stroke-miterlimit="10" points="
		587.9,341.4 590.3,343.9 587.9,346.3 	"/>
	
		<rect x="570.1" y="349.3" transform="matrix(6.653801e-03 -1 1 6.653801e-03 217.6192 920.1144)" fill="none" stroke="#0B98CC" stroke-linecap="round" stroke-linejoin="round" stroke-miterlimit="10" width="3.7" height="2.4"/>
	
		<rect x="576.2" y="349.3" transform="matrix(6.653801e-03 -1 1 6.653801e-03 223.6569 926.2739)" fill="none" stroke="#0B98CC" stroke-linecap="round" stroke-linejoin="round" stroke-miterlimit="10" width="3.7" height="2.4"/>
	
		<rect x="575.7" y="335.3" transform="matrix(6.653801e-03 -1 1 6.653801e-03 237.8235 912.3873)" fill="none" stroke="#0B98CC" stroke-linecap="round" stroke-linejoin="round" stroke-miterlimit="10" width="4.9" height="2.4"/>
	
		<rect x="580.6" y="335.3" transform="matrix(6.653801e-03 -1 1 6.653801e-03 242.6536 917.3148)" fill="none" stroke="#0B98CC" stroke-linecap="round" stroke-linejoin="round" stroke-miterlimit="10" width="4.9" height="2.4"/>
	
		<rect x="585.5" y="335.3" transform="matrix(6.653801e-03 -1 1 6.653801e-03 247.4838 922.2423)" fill="none" stroke="#0B98CC" stroke-linecap="round" stroke-linejoin="round" stroke-miterlimit="10" width="4.9" height="2.4"/>
</g>
<g>
	<g>
		
			<circle fill="none" stroke="#0B98CC" stroke-linecap="round" stroke-linejoin="round" stroke-miterlimit="10" cx="195.4" cy="355.4" r="8.3"/>
		<polyline fill="none" stroke="#0B98CC" stroke-linecap="round" stroke-linejoin="round" stroke-miterlimit="10" points="
			199.6,352.6 194,358.2 191.2,355.4 		"/>
	</g>
	<g>
		
			<line fill="none" stroke="#0B98CC" stroke-linecap="round" stroke-linejoin="round" stroke-miterlimit="10" x1="176" y1="340.2" x2="176" y2="342.9"/>
		
			<line fill="none" stroke="#0B98CC" stroke-linecap="round" stroke-linejoin="round" stroke-miterlimit="10" x1="184.3" y1="340.2" x2="184.3" y2="342.9"/>
		
			<line fill="none" stroke="#0B98CC" stroke-linecap="round" stroke-linejoin="round" stroke-miterlimit="10" x1="181.6" y1="347.1" x2="181.6" y2="349.9"/>
		
			<line fill="none" stroke="#0B98CC" stroke-linecap="round" stroke-linejoin="round" stroke-miterlimit="10" x1="184.3" y1="347.1" x2="184.3" y2="349.9"/>
		
			<rect x="178.8" y="340.2" fill="none" stroke="#0B98CC" stroke-linecap="round" stroke-linejoin="round" stroke-miterlimit="10" width="2.8" height="2.8"/>
		
			<rect x="176" y="347.1" fill="none" stroke="#0B98CC" stroke-linecap="round" stroke-linejoin="round" stroke-miterlimit="10" width="2.8" height="2.8"/>
		
			<rect x="181.6" y="354" fill="none" stroke="#0B98CC" stroke-linecap="round" stroke-linejoin="round" stroke-miterlimit="10" width="2.8" height="2.8"/>
		
			<line fill="none" stroke="#0B98CC" stroke-linecap="round" stroke-linejoin="round" stroke-miterlimit="10" x1="176" y1="354" x2="176" y2="356.8"/>
		
			<line fill="none" stroke="#0B98CC" stroke-linecap="round" stroke-linejoin="round" stroke-miterlimit="10" x1="178.8" y1="354" x2="178.8" y2="356.8"/>
		<g>
			<polyline fill="none" stroke="#0B98CC" stroke-linecap="round" stroke-linejoin="round" stroke-miterlimit="10" points="
				185.7,360.9 171.9,360.9 171.9,331.9 187.1,331.9 194,338.8 194,344.3 			"/>
			<polyline fill="none" stroke="#0B98CC" stroke-linecap="round" stroke-linejoin="round" stroke-miterlimit="10" points="
				187.1,331.9 187.1,338.8 194,338.8 			"/>
		</g>
	</g>
</g>
<g>
	<g>
		
			<rect x="225.4" y="91" fill="none" stroke="#0B98CC" stroke-linecap="round" stroke-linejoin="round" stroke-miterlimit="10" width="13.8" height="11.1"/>
		
			<line fill="none" stroke="#0B98CC" stroke-linecap="round" stroke-linejoin="round" stroke-miterlimit="10" x1="232.3" y1="98.6" x2="232.3" y2="95.9"/>
		<path fill="none" stroke="#0B98CC" stroke-linecap="round" stroke-linejoin="round" stroke-miterlimit="10" d="M228.2,91v-1.4
			c0-2.3,1.9-4.2,4.2-4.2c2.3,0,4.2,1.9,4.2,4.2V91"/>
		
			<circle fill="none" stroke="#0B98CC" stroke-linecap="round" stroke-linejoin="round" stroke-miterlimit="10" cx="232.3" cy="95.2" r="0.7"/>
	</g>
	<g>
		
			<line fill="none" stroke="#0B98CC" stroke-linecap="round" stroke-linejoin="round" stroke-miterlimit="10" x1="211.6" y1="78.6" x2="211.6" y2="81.3"/>
		
			<line fill="none" stroke="#0B98CC" stroke-linecap="round" stroke-linejoin="round" stroke-miterlimit="10" x1="219.9" y1="78.6" x2="219.9" y2="81.3"/>
		
			<line fill="none" stroke="#0B98CC" stroke-linecap="round" stroke-linejoin="round" stroke-miterlimit="10" x1="217.1" y1="85.5" x2="217.1" y2="88.2"/>
		
			<line fill="none" stroke="#0B98CC" stroke-linecap="round" stroke-linejoin="round" stroke-miterlimit="10" x1="219.9" y1="85.5" x2="219.9" y2="88.2"/>
		
			<rect x="214.3" y="78.6" fill="none" stroke="#0B98CC" stroke-linecap="round" stroke-linejoin="round" stroke-miterlimit="10" width="2.8" height="2.8"/>
		
			<rect x="211.6" y="85.5" fill="none" stroke="#0B98CC" stroke-linecap="round" stroke-linejoin="round" stroke-miterlimit="10" width="2.8" height="2.8"/>
		
			<rect x="217.1" y="92.4" fill="none" stroke="#0B98CC" stroke-linecap="round" stroke-linejoin="round" stroke-miterlimit="10" width="2.8" height="2.8"/>
		
			<line fill="none" stroke="#0B98CC" stroke-linecap="round" stroke-linejoin="round" stroke-miterlimit="10" x1="211.6" y1="92.4" x2="211.6" y2="95.2"/>
		
			<line fill="none" stroke="#0B98CC" stroke-linecap="round" stroke-linejoin="round" stroke-miterlimit="10" x1="214.3" y1="92.4" x2="214.3" y2="95.2"/>
		<g>
			<polyline fill="none" stroke="#0B98CC" stroke-linecap="round" stroke-linejoin="round" stroke-miterlimit="10" points="
				221.3,99.3 207.4,99.3 207.4,70.3 222.6,70.3 229.6,77.2 229.6,82.7 			"/>
			<polyline fill="none" stroke="#0B98CC" stroke-linecap="round" stroke-linejoin="round" stroke-miterlimit="10" points="
				222.6,70.3 222.6,77.2 229.6,77.2 			"/>
		</g>
	</g>
</g>
<g>
	<g>
		<path fill="none" stroke="#FFFFFF" stroke-linecap="round" stroke-linejoin="round" stroke-miterlimit="10" d="M89.6,335.5
			L89.6,335.5c-1.9,2.4-5,3.1-9,0.3v13.1c0,0,1.4,5,9,7.2c7.6-2.1,9-7.2,9-7.2v-13.1C94.6,338.5,91.5,337.9,89.6,335.5z"/>
		
			<line fill="none" stroke="#FFFFFF" stroke-linecap="round" stroke-linejoin="round" stroke-miterlimit="10" x1="89.6" y1="349.8" x2="89.6" y2="340.9"/>
		
			<line fill="none" stroke="#FFFFFF" stroke-linecap="round" stroke-linejoin="round" stroke-miterlimit="10" x1="85.1" y1="345.3" x2="94.1" y2="345.3"/>
	</g>
	<g>
		<polyline fill="none" stroke="#FFFFFF" stroke-linecap="round" stroke-linejoin="round" stroke-miterlimit="10" points="
			66.3,329.2 61,334.6 66.3,340 		"/>
		<polyline fill="none" stroke="#FFFFFF" stroke-linecap="round" stroke-linejoin="round" stroke-miterlimit="10" points="
			71.7,329.2 77.1,334.6 71.7,340 		"/>
		<g>
			<polyline fill="none" stroke="#FFFFFF" stroke-linecap="round" stroke-linejoin="round" stroke-miterlimit="10" points="
				75.3,352.5 57.4,352.5 57.4,314.9 77.1,314.9 86,323.8 86,331 			"/>
			<polyline fill="none" stroke="#FFFFFF" stroke-linecap="round" stroke-linejoin="round" stroke-miterlimit="10" points="
				77.1,314.9 77.1,323.8 86,323.8 			"/>
		</g>
	</g>
</g>
<circle fill="#FFFFFF" stroke="#A6A6A6" stroke-miterlimit="10" cx="185.8" cy="269" r="5.2"/>
<circle fill="#FFFFFF" stroke="#A6A6A6" stroke-miterlimit="10" cx="75.8" cy="289.7" r="2"/>
</svg>
