<?xml version="1.0" encoding="utf-8"?>
<!-- Generator: Adobe Illustrator 22.1.0, SVG Export Plug-In . SVG Version: 6.00 Build 0)  -->
<svg version="1.1" id="Layer_a1" xmlns="http://www.w3.org/2000/svg" xmlns:xlink="http://www.w3.org/1999/xlink" x="0px" y="0px"
	 viewBox="0 0 750 400" enable-background="new 0 0 750 400" xml:space="preserve">
<line fill="none" stroke="#A3A3A3" stroke-miterlimit="10" x1="155.4" y1="285.7" x2="224.8" y2="285.7"/>
<path fill="none" stroke="#A3A3A3" stroke-miterlimit="10" d="M556,194l32-32c3.6-3.6,8.4-5.6,13.5-5.6h37.1"/>
<path fill="none" stroke="#A3A3A3" stroke-miterlimit="10" d="M602,282.5h28.9c5.7,0,10.3-4.6,10.3-10.3v-13.5"/>
<path fill="none" stroke="#A3A3A3" stroke-miterlimit="10" d="M463.5,317.5v20.6c0,7.7,6.3,14,14,14H645"/>
<path fill="none" stroke="#A6A6A6" stroke-miterlimit="10" d="M365,317v29.1c0,4.3-3.5,7.8-7.8,7.8h-86"/>
<path fill="none" stroke="#A3A3A3" stroke-miterlimit="10" d="M477.5,148.8h27.7c8.7,0,15.7-7,15.7-15.7V98.8"/>
<line fill="none" stroke="#A3A3A3" stroke-miterlimit="10" x1="228.5" y1="208.2" x2="86.8" y2="208.2"/>
<path fill="none" stroke="#A3A3A3" stroke-miterlimit="10" d="M310.4,102.7H194.3c-5,0-9.1,4.1-9.1,9.1v22.7c0,5-4.1,9.1-9.1,9.1
	h-56.9"/>
<polygon points="451.2,234.5 284.3,234.5 284.3,151.8 302.8,123.3 451.2,123.3 "/>
<path opacity="0.14" d="M712.2,103.6C711.8,86.8,698,73.2,681,73.2c-9.8,0-18.6,4.6-24.3,11.7c-2.3-4.3-6.9-7.2-12.1-7.2
	c-6.4,0-11.8,4.4-13.3,10.4c-2-0.8-4.3-1.3-6.6-1.3c-3.6,0-6.9,1.1-9.6,2.9c-4-4-9.4-6.4-15.5-6.4c-9.2,0-17.2,5.7-20.4,13.8
	c-1.9-2-4.7-3.3-7.7-3.3c-5.6,0-10.2,4.3-10.6,9.8H712.2z"/>
<path opacity="0.14" d="M87.2,70.2c0.3-13.6,11.4-24.5,25.1-24.5c7.9,0,15,3.7,19.6,9.4c1.9-3.5,5.5-5.8,9.7-5.8
	c5.2,0,9.5,3.6,10.7,8.4c1.6-0.7,3.4-1,5.3-1c2.9,0,5.5,0.9,7.7,2.3c3.2-3.2,7.6-5.1,12.5-5.1c7.4,0,13.8,4.6,16.4,11.1
	c1.6-1.6,3.8-2.7,6.2-2.7c4.5,0,8.2,3.5,8.5,7.9H87.2z"/>
<path opacity="0.14" d="M394.2,371.1c0.3-11.1,9.3-20,20.5-20c6.5,0,12.2,3,16,7.7c1.5-2.8,4.5-4.7,7.9-4.7c4.2,0,7.8,2.9,8.7,6.9
	c1.3-0.5,2.8-0.8,4.3-0.8c2.3,0,4.5,0.7,6.3,1.9c2.6-2.6,6.2-4.2,10.2-4.2c6.1,0,11.3,3.8,13.4,9.1c1.3-1.3,3.1-2.2,5.1-2.2
	c3.7,0,6.7,2.8,6.9,6.5H394.2z"/>
<path opacity="0.14" d="M184.5,171c0.3-14.2,11.9-25.6,26.2-25.6c8.3,0,15.6,3.8,20.4,9.8c1.9-3.6,5.8-6.1,10.1-6.1
	c5.4,0,9.9,3.7,11.2,8.8c1.7-0.7,3.6-1.1,5.5-1.1c3,0,5.8,0.9,8.1,2.4c3.3-3.3,7.9-5.4,13-5.4c7.8,0,14.4,4.8,17.1,11.6
	c1.6-1.7,3.9-2.8,6.5-2.8c4.7,0,8.5,3.6,8.9,8.3H184.5z"/>
<path opacity="0.14" d="M48.7,353c0.3-14.3,12.1-25.9,26.5-25.9c8.4,0,15.8,3.9,20.7,9.9c2-3.7,5.8-6.1,10.3-6.1
	c5.5,0,10.1,3.8,11.3,8.9c1.7-0.7,3.6-1.1,5.6-1.1c3,0,5.8,0.9,8.2,2.4c3.4-3.4,8-5.4,13.2-5.4c7.9,0,14.6,4.9,17.3,11.7
	c1.6-1.7,4-2.8,6.5-2.8c4.8,0,8.6,3.7,9,8.4H48.7z"/>
<circle fill="#B9D432" cx="258.3" cy="53.2" r="20.7"/>
<path fill="none" stroke="#A6A6A6" stroke-miterlimit="10" d="M239.8,71.6c-10.2-10.2-10.2-26.7,0-36.8"/>
<path fill="none" stroke="#A6A6A6" stroke-miterlimit="10" d="M276.7,34.7c10.2,10.2,10.2,26.7,0,36.8"/>
<path fill="#FFFFFF" stroke="#000000" stroke-miterlimit="10" d="M359.6,129.8v7.8c-3.3,2-5.5,5.6-5.5,9.7c0,6.2,5.1,11.3,11.3,11.3
	s11.3-5.1,11.3-11.3c0-4.1-2.2-7.7-5.5-9.7v-7.8l96.7,0c-19.3-30.3-53.1-50.1-90.8-50.1c-38.2,0-71.8,20-90.9,50.1L359.6,129.8z"/>
<path fill="#C9C9C9" stroke="#000000" stroke-miterlimit="10" d="M515.4,167.2v26.4h-7.8c-2-3.3-5.6-5.5-9.7-5.5
	c-6.2,0-11.3,5.1-11.3,11.3c0,6.2,5.1,11.3,11.3,11.3c4.1,0,7.7-2.2,9.7-5.5h0l0,0h7.8v0h0v24.5H571
	C566.9,199.4,544.6,174.8,515.4,167.2z"/>
<path fill="#878787" stroke="#000000" stroke-miterlimit="10" d="M415.4,174h7.8c2-3.3,5.6-5.5,9.7-5.5c0,0,0,0,0,0c0,0,0,0,0,0
	c6.2,0,11.3,5.1,11.3,11.3s-5.1,11.3-11.3,11.3c0,0,0,0,0,0c0,0,0,0,0,0c-4.1,0-7.7-2.2-9.7-5.5h-7.8v44.2h44.2v0.1h0v7.8
	c-3.3,2-5.5,5.6-5.5,9.7c0,1.2,0.2,2.3,0.5,3.3c1.4,4.6,5.7,7.9,10.8,7.9c6.2,0,11.3-5.1,11.3-11.3c0-1-0.1-2-0.4-2.9
	c-0.8-2.8-2.6-5.2-5.1-6.7v0c0,0,0,0,0,0v-7.8h44.2v-24.5h-7.8c-2,3.3-5.6,5.5-9.7,5.5c0,0,0,0,0,0c0,0,0,0,0,0
	c-6.2,0-11.3-5.1-11.3-11.3s5.1-11.3,11.3-11.3c0,0,0,0,0,0c0,0,0,0,0,0c4.1,0,7.7,2.2,9.7,5.5h7.8v-26.4c-6-1.6-12.3-2.4-18.8-2.4
	c-4.7,0-9.4,0.5-14.1,1.4c-2.6-13.2-7.7-25.5-14.6-36.4h-52.5V174z"/>
<path fill="#ABABAB" stroke="#000000" stroke-miterlimit="10" d="M259.5,229.8L259.5,229.8l0,7.8c-3.3,2-5.5,5.6-5.5,9.7
	c0,1.9,0.5,3.8,1.4,5.4c1.9,3.5,5.6,5.9,9.9,5.9c6.2,0,11.3-5.1,11.3-11.3c0-2-0.5-4-1.5-5.6c-1-1.7-2.3-3-4-4v0c0,0,0,0,0,0v-7.8
	h44.2v-44.2h-7.8c-2,3.3-5.6,5.5-9.7,5.5c0,0,0,0,0,0c0,0,0,0,0,0c-6.2,0-11.3-5.1-11.3-11.3s5.1-11.3,11.3-11.3c0,0,0,0,0,0
	c0,0,0,0,0,0c4.1,0,7.7,2.2,9.7,5.5h7.8v-44.2h-29.2c-9.8,15.5-15.8,33.6-16.6,53.1c-25.1,4.8-44.9,23.2-52.1,46.9L259.5,229.8
	L259.5,229.8z"/>
<path fill="#F05923" stroke="#000000" stroke-miterlimit="10" d="M315.4,285.7h7.8h0c2,3.3,5.6,5.5,9.7,5.5
	c6.2,0,11.3-5.1,11.3-11.3s-5.1-11.3-11.3-11.3c-4.1,0-7.7,2.2-9.7,5.5h0h-7.8h0v-44.2h-44.2v7.7c1.6,1,3,2.4,4,4.1
	c1,1.7,1.5,3.6,1.5,5.7c0,6.2-5.1,11.3-11.3,11.3c-4.3,0-8-2.4-10-5.9c-0.9-1.6-1.4-3.5-1.4-5.4c0-4.1,2.2-7.7,5.5-9.7v-7.7h-42.1
	c-1.9,6.3-2.9,12.9-2.9,19.7c0,37.4,30.5,67.9,67.9,67.9h33L315.4,285.7L315.4,285.7z"/>
<path fill="#FEFEFE" stroke="#000000" stroke-miterlimit="10" d="M515.4,285.7L515.4,285.7h7.8h0c2,3.3,5.6,5.5,9.7,5.5
	c6.2,0,11.3-5.1,11.3-11.3s-5.1-11.3-11.3-11.3c-4.1,0-7.7,2.2-9.7,5.5h0h-7.8h0v-44.2h-44.2v7.7c2.5,1.5,4.3,3.9,5.1,6.7
	c0.3,1,0.4,2,0.4,3c0,6.2-5.1,11.3-11.3,11.3c-5.1,0-9.4-3.4-10.8-8c-0.3-1.1-0.5-2.2-0.5-3.4c0-4.1,2.2-7.7,5.5-9.7v-7.7h-44.2V274
	h0h-7.8h0c-2-3.3-5.6-5.5-9.7-5.5c-6.2,0-11.3,5.1-11.3,11.3s5.1,11.3,11.3,11.3c4.1,0,7.7-2.2,9.7-5.5h0h7.8h0v31.8h100V285.7z"/>
<path fill="#C9C9C9" stroke="#000000" stroke-miterlimit="10" d="M407.6,285.7c-2,3.3-5.6,5.5-9.7,5.5c0,0,0,0,0,0c0,0,0,0,0,0
	c-6.2,0-11.3-5.1-11.3-11.3s5.1-11.3,11.3-11.3c0,0,0,0,0,0c0,0,0,0,0,0c4.1,0,7.7,2.2,9.7,5.5h7.8v-44.2h-44.2v-0.1h0V222
	c3.3-2,5.5-5.6,5.5-9.7c0-1.9-0.5-3.8-1.4-5.4c-1.9-3.5-5.6-5.9-9.9-5.9c-6.2,0-11.3,5.1-11.3,11.3c0,2,0.5,4,1.5,5.6
	c1,1.6,2.3,3,4,4v0c0,0,0,0,0,0v7.8h-44.2V274h7.8c2-3.3,5.6-5.5,9.7-5.5c0,0,0,0,0,0c0,0,0,0,0,0c6.2,0,11.3,5.1,11.3,11.3
	s-5.1,11.3-11.3,11.3c0,0,0,0,0,0c0,0,0,0,0,0c-4.1,0-7.7-2.2-9.7-5.5h-7.8v31.8h100v-31.8H407.6z"/>
<path fill="#0B98CC" stroke="#000000" stroke-miterlimit="10" d="M515.4,274h7.8c2-3.3,5.6-5.5,9.7-5.5c0,0,0,0,0,0c0,0,0,0,0,0
	c6.2,0,11.3,5.1,11.3,11.3s-5.1,11.3-11.3,11.3c0,0,0,0,0,0c0,0,0,0,0,0c-4.1,0-7.7-2.2-9.7-5.5h-7.8v31.8h51.1l0-0.1
	c19.7-1.1,35.5-17.5,35.5-37.5c0-18.3-12.9-33.5-30.3-36.8c0-1.1,0.1-2.1,0.1-3.1c0-3.4-0.3-6.8-0.7-10.2h-55.6V274z"/>
<path fill="#C2D500" stroke="#000000" stroke-miterlimit="10" d="M410.1,180.1L410.1,180.1L410.1,180.1l7.8,0c2,3.3,5.6,5.5,9.7,5.5
	c6.2,0,11.3-5.1,11.3-11.3c0-6.2-5.1-11.3-11.3-11.3c-4.1,0-7.7,2.2-9.7,5.5h0l0,0h-7.8v-44.2h-44.2v7.8c3.3,2,5.5,5.6,5.5,9.7
	c0,6.2-5.1,11.3-11.3,11.3s-11.3-5.1-11.3-11.3c0-4.1,2.2-7.7,5.5-9.7v-7.8h-44.2v44.2h-7.8l0,0h0c-2-3.3-5.6-5.5-9.7-5.5
	c-6.2,0-11.3,5.1-11.3,11.3c0,6.2,5.1,11.3,11.3,11.3c4.1,0,7.7-2.2,9.7-5.5h7.8v0h0v44.2h44.2v-7.7c-1.6-1-3-2.4-4-4.1
	c-1-1.7-1.5-3.6-1.5-5.7c0-6.2,5.1-11.3,11.3-11.3c4.3,0,8,2.4,10,5.9c0.9,1.6,1.4,3.5,1.4,5.4c0,4.1-2.2,7.7-5.5,9.7v7.7h44.2
	V180.1z"/>
<g>
	<g>
		<line fill="none" stroke="#FFFFFF" stroke-miterlimit="10" x1="224.9" y1="285.7" x2="272.8" y2="285.7"/>
		<g>
			<polygon fill="#FFFFFF" points="272,279.6 272,291.8 278,285.7 			"/>
		</g>
	</g>
</g>
<path fill="none" stroke="#A6A6A6" stroke-miterlimit="10" d="M668.5,280.2"/>
<g>
	<g>
		<line fill="none" stroke="#FFFFFF" stroke-miterlimit="10" x1="547.4" y1="202.6" x2="556" y2="194"/>
		<g>
			<polygon fill="#FFFFFF" points="543.7,197.7 552.3,206.3 543.7,206.3 			"/>
		</g>
	</g>
</g>
<g>
	<g>
		<line fill="none" stroke="#FFFFFF" stroke-miterlimit="10" x1="573.8" y1="282.5" x2="602" y2="282.5"/>
		<g>
			<polygon fill="#FFFFFF" points="574.6,276.4 574.6,288.6 568.5,282.5 			"/>
		</g>
	</g>
</g>
<g>
	<g>
		<line fill="none" stroke="#A3A3A3" stroke-miterlimit="10" x1="463.5" y1="289.4" x2="463.5" y2="317.3"/>
		<g>
			<polygon fill="#A3A3A3" points="469.6,290.2 457.5,290.2 463.5,284.2 			"/>
		</g>
	</g>
</g>
<g>
	<g>
		<line fill="none" stroke="#FFFFFF" stroke-miterlimit="10" x1="365" y1="257.4" x2="365" y2="317"/>
		<g>
			<polygon fill="#FFFFFF" points="371.1,258.2 359,258.2 365,252.2 			"/>
		</g>
	</g>
</g>
<g>
	<g>
		<line fill="none" stroke="#FFFFFF" stroke-miterlimit="10" x1="454.3" y1="148.8" x2="477.5" y2="148.8"/>
		<g>
			<polygon fill="#FFFFFF" points="455.1,142.7 455.1,154.9 449,148.8 			"/>
		</g>
	</g>
</g>
<g>
	<g>
		<line fill="none" stroke="#FFFFFF" stroke-miterlimit="10" x1="260.6" y1="208.2" x2="228.5" y2="208.2"/>
		<g>
			<polygon fill="#FFFFFF" points="259.8,214.2 259.8,202.1 265.9,208.2 			"/>
		</g>
	</g>
</g>
<g>
	<g>
		<line fill="none" stroke="#A3A3A3" stroke-miterlimit="10" x1="348.3" y1="102.7" x2="310.5" y2="102.7"/>
		<g>
			<polygon fill="#A3A3A3" points="347.5,108.7 347.5,96.6 353.5,102.7 			"/>
		</g>
	</g>
</g>
<g>
	<g>
		<line fill="none" stroke="#FFFFFF" stroke-miterlimit="10" x1="387.9" y1="164.9" x2="387.9" y2="124.8"/>
		<g>
			<polygon fill="#FFFFFF" points="381.8,164.1 393.9,164.1 387.9,170.2 			"/>
		</g>
	</g>
</g>
<path fill="none" stroke="#A6A6A6" stroke-miterlimit="10" d="M114.2,92.8c16,16,16,42,0,58s-42,16-58,0"/>
<path fill="none" stroke="#A6A6A6" stroke-miterlimit="10" d="M85.4,307.2c-16.3-16.3-16.3-42.8,0-59.2s42.8-16.3,59.2,0
	s16.3,42.8,0,59.2"/>
<path fill="none" stroke="#A6A6A6" stroke-miterlimit="10" d="M701.7,358.7c-14.5,14.5-37.9,14.5-52.3,0
	c-14.5-14.5-14.5-37.9,0-52.3c14.5-14.5,37.9-14.5,52.3,0"/>
<path fill="none" stroke="#A6A6A6" stroke-miterlimit="10" d="M650.3,186.6c-15.7-15.7-15.7-41.1,0-56.8"/>
<path fill="none" stroke="#A6A6A6" stroke-miterlimit="10" d="M707.1,129.7c15.7,15.7,15.7,41.1,0,56.8"/>
<path fill="none" stroke="#A6A6A6" stroke-miterlimit="10" d="M544.5,89.2c-13.8,13.8-36.2,13.8-50,0"/>
<path fill="none" stroke="#A6A6A6" stroke-miterlimit="10" d="M494.5,39.2c13.8-13.8,36.2-13.8,50,0"/>
<circle fill="#F05923" cx="60.5" cy="208.2" r="20.7"/>
<path fill="none" stroke="#A6A6A6" stroke-miterlimit="10" d="M42.1,226.6c-10.2-10.2-10.2-26.7,0-36.8"/>
<path fill="none" stroke="#A6A6A6" stroke-miterlimit="10" d="M78.9,189.8c10.2,10.2,10.2,26.7,0,36.8"/>
<circle fill="#FFFFFF" stroke="#A3A3A3" stroke-miterlimit="10" cx="86.6" cy="208.2" r="2"/>
<circle fill="#0F3C60" cx="245.4" cy="354" r="20.7"/>
<path fill="none" stroke="#A6A6A6" stroke-miterlimit="10" d="M227,372.4c-10.2-10.2-10.2-26.7,0-36.8"/>
<path fill="none" stroke="#A6A6A6" stroke-miterlimit="10" d="M263.8,335.6c10.2,10.2,10.2,26.7,0,36.8"/>
<circle fill="#FFFFFF" stroke="#A3A3A3" stroke-miterlimit="10" cx="271.5" cy="354" r="2"/>
<g>
	<circle fill="#F05923" cx="641.1" cy="232.8" r="20.7"/>
	<path fill="none" stroke="#A6A6A6" stroke-miterlimit="10" d="M622.7,214.3c10.2-10.2,26.7-10.2,36.8,0"/>
	<path fill="none" stroke="#A6A6A6" stroke-miterlimit="10" d="M659.5,251.2c-10.2,10.2-26.7,10.2-36.8,0"/>
	<circle fill="#FFFFFF" stroke="#A3A3A3" stroke-miterlimit="10" cx="641.1" cy="258.9" r="2"/>
</g>
<circle fill="#FFFFFF" stroke="#A6A6A6" stroke-miterlimit="10" cx="155.8" cy="285.7" r="2"/>
<circle fill="#FFFFFF" stroke="#A6A6A6" stroke-miterlimit="10" cx="119.8" cy="143.2" r="2"/>
<circle fill="#FFFFFF" stroke="#A6A6A6" stroke-miterlimit="10" cx="520.9" cy="99.7" r="2"/>
<circle fill="#FFFFFF" stroke="#A6A6A6" stroke-miterlimit="10" cx="638.5" cy="156.4" r="2"/>
<circle fill="#FFFFFF" stroke="#A6A6A6" stroke-miterlimit="10" cx="644.2" cy="351.8" r="2"/>
<path fill="none" stroke="#000000" stroke-miterlimit="10" d="M282.4,317.4c-37.4,0-67.9-30.5-67.9-67.9c0-32.8,23.3-60.6,55.1-66.7
	c2.3-57.3,49.6-103.2,107.5-103.2c51.3,0,95.6,36.8,105.5,86.6c4.7-0.9,9.4-1.4,14.1-1.4c41.4,0,75.1,33.7,75.1,75.1
	c0,1,0,2-0.1,3.1c17.4,3.3,30.3,18.5,30.3,36.8c0,20-15.7,36.4-35.5,37.5l0,0.1H282.4z"/>
<g>
	<polygon fill="none" stroke="#0B98CC" stroke-miterlimit="10" points="699.4,179.4 676.1,179.4 676.1,149 692.2,149 699.4,156.2 	
		"/>
	<polyline fill="none" stroke="#0B98CC" stroke-miterlimit="10" points="692.2,149 692.2,156.2 699.4,156.2 	"/>
	<polyline fill="none" stroke="#0B98CC" stroke-miterlimit="10" points="676.1,168.7 658.2,168.7 658.2,138.2 674.3,138.2 
		681.5,145.4 681.5,149 	"/>
	<polyline fill="none" stroke="#0B98CC" stroke-miterlimit="10" points="674.3,138.2 674.3,145.4 681.5,145.4 	"/>
	<path fill="none" stroke="#0B98CC" stroke-miterlimit="10" d="M697.6,147.2v-2.7c0-1.5-1.2-2.7-2.7-2.7h-9"/>
	<polyline fill="none" stroke="#0B98CC" stroke-miterlimit="10" points="689.5,138.2 685.9,141.8 689.5,145.4 	"/>
	<path fill="none" stroke="#0B98CC" stroke-miterlimit="10" d="M660,172.3v0.9c0,1.5,1.2,2.7,2.7,2.7h9"/>
	<polyline fill="none" stroke="#0B98CC" stroke-miterlimit="10" points="668,179.4 671.6,175.9 668,172.3 	"/>
</g>
<g>
	<g>
		<path fill="none" stroke="#FFFFFF" stroke-linejoin="round" stroke-miterlimit="10" d="M65.3,215.3l1.4-2.5l-1.4-0.8
			c0.1-0.7,0.2-1.4,0-2.1l1.4-0.8l-1.4-2.5l-1.4,0.8c-0.5-0.5-1.3-0.8-1.7-1v-1.7h-2.9v1.7c-1,0.2-1.3,0.6-1.8,1l-1.5-0.8l-1.4,2.5
			l1.4,0.8c-0.1,0.7-0.2,1.3,0,2.1l-1.4,0.8l1.4,2.5l1.5-0.8c0.5,0.5,0.9,0.8,1.8,1v1.7h2.9v-1.7c0.5-0.2,1.2-0.6,1.7-1L65.3,215.3z
			"/>
		<path fill="none" stroke="#FFFFFF" stroke-linejoin="round" stroke-miterlimit="10" d="M62.6,210.9c0,1.1-0.9,1.9-1.9,1.9
			c-1.1,0-1.9-0.9-1.9-1.9c0-1.1,0.9-1.9,1.9-1.9C61.7,209,62.6,209.9,62.6,210.9z"/>
	</g>
	<g>
		<polygon fill="none" stroke="#FFFFFF" stroke-linecap="round" stroke-linejoin="round" stroke-miterlimit="10" points="
			71.5,220.5 50.1,220.5 50.1,194.6 64.7,194.6 71.5,201.3 		"/>
		<polyline fill="none" stroke="#FFFFFF" stroke-linecap="round" stroke-linejoin="round" stroke-miterlimit="10" points="
			64.7,194.6 64.7,201.3 71.5,201.3 		"/>
	</g>
</g>
<g>
	<path fill="none" stroke="#0B98CC" stroke-linecap="round" stroke-linejoin="round" stroke-miterlimit="10" d="M691.1,344.9
		c0,1.8-1.5,3.3-3.3,3.3h-31c-1.8,0-3.3-1.5-3.3-3.3v-31c0-1.8,1.5-3.3,3.3-3.3h31c1.8,0,3.3,1.5,3.3,3.3V344.9z"/>
	<path fill="none" stroke="#0B98CC" stroke-linecap="round" stroke-linejoin="round" stroke-miterlimit="10" d="M691.7,314.4
		c1.8,0,3.3,1.5,3.3,3.3v31c0,1.8-1.5,3.3-3.3,3.3h-31c-1.8,0-3.3-1.5-3.3-3.3"/>
	<path fill="none" stroke="#0B98CC" stroke-linecap="round" stroke-linejoin="round" stroke-miterlimit="10" d="M695.3,318
		c1.8,0,3.3,1.5,3.3,3.3v31c0,1.8-1.5,3.3-3.3,3.3h-31c-1.8,0-3.3-1.5-3.3-3.3"/>
	
		<line fill="none" stroke="#0B98CC" stroke-linecap="round" stroke-linejoin="round" stroke-miterlimit="10" x1="653.6" y1="318.7" x2="691.1" y2="318.7"/>
	
		<circle fill="none" stroke="#0B98CC" stroke-linecap="round" stroke-linejoin="round" stroke-miterlimit="10" cx="659.3" cy="314.6" r="0.8"/>
	
		<circle fill="none" stroke="#0B98CC" stroke-linecap="round" stroke-linejoin="round" stroke-miterlimit="10" cx="664.2" cy="314.6" r="0.8"/>
	
		<circle fill="none" stroke="#0B98CC" stroke-linecap="round" stroke-linejoin="round" stroke-miterlimit="10" cx="669.1" cy="314.6" r="0.8"/>
	
		<line fill="none" stroke="#0B98CC" stroke-linecap="round" stroke-linejoin="round" stroke-miterlimit="10" x1="668.3" y1="318.7" x2="668.3" y2="348.1"/>
	
		<line fill="none" stroke="#0B98CC" stroke-linecap="round" stroke-linejoin="round" stroke-miterlimit="10" x1="658.5" y1="323.6" x2="663.4" y2="323.6"/>
	
		<line fill="none" stroke="#0B98CC" stroke-linecap="round" stroke-linejoin="round" stroke-miterlimit="10" x1="658.5" y1="326.9" x2="663.4" y2="326.9"/>
	
		<line fill="none" stroke="#0B98CC" stroke-linecap="round" stroke-linejoin="round" stroke-miterlimit="10" x1="658.5" y1="330.2" x2="663.4" y2="330.2"/>
	
		<line fill="none" stroke="#0B98CC" stroke-linecap="round" stroke-linejoin="round" stroke-miterlimit="10" x1="658.5" y1="333.4" x2="663.4" y2="333.4"/>
	
		<line fill="none" stroke="#0B98CC" stroke-linecap="round" stroke-linejoin="round" stroke-miterlimit="10" x1="658.5" y1="336.7" x2="663.4" y2="336.7"/>
	
		<line fill="none" stroke="#0B98CC" stroke-linecap="round" stroke-linejoin="round" stroke-miterlimit="10" x1="658.5" y1="340" x2="663.4" y2="340"/>
	
		<line fill="none" stroke="#0B98CC" stroke-linecap="round" stroke-linejoin="round" stroke-miterlimit="10" x1="658.5" y1="343.2" x2="663.4" y2="343.2"/>
	
		<rect x="673.2" y="323.6" fill="none" stroke="#0B98CC" stroke-linecap="round" stroke-linejoin="round" stroke-miterlimit="10" width="13.1" height="8.2"/>
	
		<rect x="673.2" y="336.7" fill="none" stroke="#0B98CC" stroke-linecap="round" stroke-linejoin="round" stroke-miterlimit="10" width="4.9" height="3.3"/>
	
		<rect x="681.3" y="336.7" fill="none" stroke="#0B98CC" stroke-linecap="round" stroke-linejoin="round" stroke-miterlimit="10" width="4.9" height="3.3"/>
</g>
<g>
	<path fill="none" stroke="#FFFFFF" stroke-linecap="round" stroke-linejoin="round" stroke-miterlimit="10" d="M637.5,238.6h-7
		c-1,0-1.8-0.8-1.8-1.8V224c0-1,0.8-1.8,1.8-1.8h21.1c1,0,1.8,0.8,1.8,1.8v7.1"/>
	<polyline fill="none" stroke="#FFFFFF" stroke-linecap="round" stroke-linejoin="round" stroke-miterlimit="10" points="
		652.7,222.8 641,232.2 629.3,222.8 	"/>
	<polygon fill="none" stroke="#FFFFFF" stroke-linecap="round" stroke-linejoin="round" stroke-miterlimit="10" points="
		648.6,242.1 648.6,245.6 655.6,239.2 648.6,232.8 648.6,236.3 640.4,236.3 640.4,242.1 	"/>
</g>
<g>
	<polygon fill="none" stroke="#0B98CC" stroke-linecap="round" stroke-linejoin="round" stroke-miterlimit="10" points="270,65.5 
		250,65.5 250,38.5 262.9,38.5 270,45.5 	"/>
	<polyline fill="none" stroke="#0B98CC" stroke-linecap="round" stroke-linejoin="round" stroke-miterlimit="10" points="
		262.9,38.5 262.9,45.5 270,45.5 	"/>
	
		<rect x="253.5" y="47.9" fill="none" stroke="#0B98CC" stroke-linecap="round" stroke-linejoin="round" stroke-miterlimit="10" width="12.9" height="14.1"/>
	
		<line fill="none" stroke="#0B98CC" stroke-linecap="round" stroke-linejoin="round" stroke-miterlimit="10" x1="253.5" y1="51.4" x2="266.4" y2="51.4"/>
	
		<line fill="none" stroke="#0B98CC" stroke-linecap="round" stroke-linejoin="round" stroke-miterlimit="10" x1="253.5" y1="54.9" x2="266.4" y2="54.9"/>
	
		<line fill="none" stroke="#0B98CC" stroke-linecap="round" stroke-linejoin="round" stroke-miterlimit="10" x1="253.5" y1="58.4" x2="266.4" y2="58.4"/>
	
		<line fill="none" stroke="#0B98CC" stroke-linecap="round" stroke-linejoin="round" stroke-miterlimit="10" x1="258.2" y1="47.9" x2="258.2" y2="62"/>
</g>
<g>
	
		<rect x="124.9" y="269.3" fill="none" stroke="#0B98CC" stroke-linecap="round" stroke-linejoin="round" stroke-miterlimit="10" width="17.9" height="14.3"/>
	
		<line fill="none" stroke="#0B98CC" stroke-linecap="round" stroke-linejoin="round" stroke-miterlimit="10" x1="133.9" y1="279.1" x2="133.9" y2="275.5"/>
	<path fill="none" stroke="#0B98CC" stroke-linecap="round" stroke-linejoin="round" stroke-miterlimit="10" d="M128.5,269.3v-1.8
		c0-3,2.4-5.4,5.4-5.4c3,0,5.4,2.4,5.4,5.4v1.8"/>
	
		<circle fill="none" stroke="#0B98CC" stroke-linecap="round" stroke-linejoin="round" stroke-miterlimit="10" cx="133.9" cy="274.6" r="0.9"/>
</g>
<line fill="none" stroke="#0B98CC" stroke-linecap="round" stroke-linejoin="round" stroke-miterlimit="10" x1="107" y1="253.2" x2="107" y2="256.7"/>
<line fill="none" stroke="#0B98CC" stroke-linecap="round" stroke-linejoin="round" stroke-miterlimit="10" x1="117.8" y1="253.2" x2="117.8" y2="256.7"/>
<line fill="none" stroke="#0B98CC" stroke-linecap="round" stroke-linejoin="round" stroke-miterlimit="10" x1="114.2" y1="262.1" x2="114.2" y2="265.7"/>
<line fill="none" stroke="#0B98CC" stroke-linecap="round" stroke-linejoin="round" stroke-miterlimit="10" x1="117.8" y1="262.1" x2="117.8" y2="265.7"/>
<rect x="110.6" y="253.2" fill="none" stroke="#0B98CC" stroke-linecap="round" stroke-linejoin="round" stroke-miterlimit="10" width="3.6" height="3.6"/>
<rect x="107" y="262.1" fill="none" stroke="#0B98CC" stroke-linecap="round" stroke-linejoin="round" stroke-miterlimit="10" width="3.6" height="3.6"/>
<rect x="114.2" y="271.1" fill="none" stroke="#0B98CC" stroke-linecap="round" stroke-linejoin="round" stroke-miterlimit="10" width="3.6" height="3.6"/>
<line fill="none" stroke="#0B98CC" stroke-linecap="round" stroke-linejoin="round" stroke-miterlimit="10" x1="107" y1="271.1" x2="107" y2="274.6"/>
<line fill="none" stroke="#0B98CC" stroke-linecap="round" stroke-linejoin="round" stroke-miterlimit="10" x1="110.6" y1="271.1" x2="110.6" y2="274.6"/>
<line fill="none" stroke="#0B98CC" stroke-linecap="round" stroke-linejoin="round" stroke-miterlimit="10" x1="102.5" y1="274.6" x2="102.5" y2="271.1"/>
<line fill="none" stroke="#0B98CC" stroke-linecap="round" stroke-linejoin="round" stroke-miterlimit="10" x1="91.8" y1="274.6" x2="91.8" y2="271.1"/>
<line fill="none" stroke="#0B98CC" stroke-linecap="round" stroke-linejoin="round" stroke-miterlimit="10" x1="95.4" y1="265.7" x2="95.4" y2="262.1"/>
<line fill="none" stroke="#0B98CC" stroke-linecap="round" stroke-linejoin="round" stroke-miterlimit="10" x1="91.8" y1="265.7" x2="91.8" y2="262.1"/>
<rect x="95.4" y="271.1" fill="none" stroke="#0B98CC" stroke-linecap="round" stroke-linejoin="round" stroke-miterlimit="10" width="3.6" height="3.6"/>
<rect x="98.9" y="262.1" fill="none" stroke="#0B98CC" stroke-linecap="round" stroke-linejoin="round" stroke-miterlimit="10" width="3.6" height="3.6"/>
<rect x="91.8" y="253.2" fill="none" stroke="#0B98CC" stroke-linecap="round" stroke-linejoin="round" stroke-miterlimit="10" width="3.6" height="3.6"/>
<line fill="none" stroke="#0B98CC" stroke-linecap="round" stroke-linejoin="round" stroke-miterlimit="10" x1="102.5" y1="256.7" x2="102.5" y2="253.2"/>
<line fill="none" stroke="#0B98CC" stroke-linecap="round" stroke-linejoin="round" stroke-miterlimit="10" x1="98.9" y1="256.7" x2="98.9" y2="253.2"/>
<line fill="none" stroke="#0B98CC" stroke-linecap="round" stroke-linejoin="round" stroke-miterlimit="10" x1="107" y1="279.9" x2="107" y2="283.4"/>
<line fill="none" stroke="#0B98CC" stroke-linecap="round" stroke-linejoin="round" stroke-miterlimit="10" x1="117.8" y1="279.9" x2="117.8" y2="283.4"/>
<line fill="none" stroke="#0B98CC" stroke-linecap="round" stroke-linejoin="round" stroke-miterlimit="10" x1="114.2" y1="288.8" x2="114.2" y2="292.4"/>
<line fill="none" stroke="#0B98CC" stroke-linecap="round" stroke-linejoin="round" stroke-miterlimit="10" x1="117.8" y1="288.8" x2="117.8" y2="292.4"/>
<rect x="110.6" y="279.9" fill="none" stroke="#0B98CC" stroke-linecap="round" stroke-linejoin="round" stroke-miterlimit="10" width="3.6" height="3.6"/>
<rect x="107" y="288.8" fill="none" stroke="#0B98CC" stroke-linecap="round" stroke-linejoin="round" stroke-miterlimit="10" width="3.6" height="3.6"/>
<rect x="114.2" y="297.8" fill="none" stroke="#0B98CC" stroke-linecap="round" stroke-linejoin="round" stroke-miterlimit="10" width="3.6" height="3.6"/>
<line fill="none" stroke="#0B98CC" stroke-linecap="round" stroke-linejoin="round" stroke-miterlimit="10" x1="107" y1="297.8" x2="107" y2="301.4"/>
<line fill="none" stroke="#0B98CC" stroke-linecap="round" stroke-linejoin="round" stroke-miterlimit="10" x1="110.6" y1="297.8" x2="110.6" y2="301.4"/>
<line fill="none" stroke="#0B98CC" stroke-linecap="round" stroke-linejoin="round" stroke-miterlimit="10" x1="102.5" y1="301.4" x2="102.5" y2="297.8"/>
<line fill="none" stroke="#0B98CC" stroke-linecap="round" stroke-linejoin="round" stroke-miterlimit="10" x1="91.8" y1="301.4" x2="91.8" y2="297.8"/>
<line fill="none" stroke="#0B98CC" stroke-linecap="round" stroke-linejoin="round" stroke-miterlimit="10" x1="95.4" y1="292.4" x2="95.4" y2="288.8"/>
<line fill="none" stroke="#0B98CC" stroke-linecap="round" stroke-linejoin="round" stroke-miterlimit="10" x1="91.8" y1="292.4" x2="91.8" y2="288.8"/>
<rect x="95.4" y="297.8" fill="none" stroke="#0B98CC" stroke-linecap="round" stroke-linejoin="round" stroke-miterlimit="10" width="3.6" height="3.6"/>
<rect x="98.9" y="288.8" fill="none" stroke="#0B98CC" stroke-linecap="round" stroke-linejoin="round" stroke-miterlimit="10" width="3.6" height="3.6"/>
<rect x="91.8" y="279.9" fill="none" stroke="#0B98CC" stroke-linecap="round" stroke-linejoin="round" stroke-miterlimit="10" width="3.6" height="3.6"/>
<line fill="none" stroke="#0B98CC" stroke-linecap="round" stroke-linejoin="round" stroke-miterlimit="10" x1="102.5" y1="283.4" x2="102.5" y2="279.9"/>
<line fill="none" stroke="#0B98CC" stroke-linecap="round" stroke-linejoin="round" stroke-miterlimit="10" x1="98.9" y1="283.4" x2="98.9" y2="279.9"/>
<g>
	<g>
		<path fill="none" stroke="#0B98CC" stroke-linejoin="round" stroke-miterlimit="10" d="M255.5,346.6c0-2.5-2.1-4.5-4.8-4.4
			c-1-2.1-3.2-3.6-5.8-3.6c-3.4,0-6.2,2.6-6.4,5.8c-2.1-0.4-4.2,1.1-4.2,3.3c0,3.4,3.7,3.3,3.7,3.3h13.3
			C251.3,351,255.5,350.5,255.5,346.6z"/>
	</g>
	
		<rect x="234.3" y="354.7" fill="none" stroke="#0B98CC" stroke-linejoin="round" stroke-miterlimit="10" width="21.1" height="6.2"/>
	
		<rect x="234.3" y="360.9" fill="none" stroke="#0B98CC" stroke-linejoin="round" stroke-miterlimit="10" width="21.1" height="6.2"/>
	<circle fill="none" stroke="#0B98CC" stroke-linejoin="round" stroke-miterlimit="10" cx="238.7" cy="357.8" r="1.2"/>
	<circle fill="none" stroke="#0B98CC" stroke-linejoin="round" stroke-miterlimit="10" cx="251.1" cy="357.8" r="0.6"/>
	<circle fill="none" stroke="#0B98CC" stroke-linejoin="round" stroke-miterlimit="10" cx="247.4" cy="357.8" r="0.6"/>
	<circle fill="none" stroke="#0B98CC" stroke-linejoin="round" stroke-miterlimit="10" cx="238.7" cy="364" r="1.2"/>
	<circle fill="none" stroke="#0B98CC" stroke-linejoin="round" stroke-miterlimit="10" cx="251.1" cy="364" r="0.6"/>
	<circle fill="none" stroke="#0B98CC" stroke-linejoin="round" stroke-miterlimit="10" cx="247.4" cy="364" r="0.6"/>
</g>
<g>
	<g>
		<path fill="none" stroke="#0B98CC" stroke-linecap="round" stroke-linejoin="round" stroke-miterlimit="10" d="M107.4,132.6
			l2.1-1.2l-2.9-5.1l-2.1,1.2c-1-1-2.3-1.7-3.7-2.1v-2.5h-5.9v2.5c-1.4,0.4-2.6,1.2-3.7,2.1l-2.1-1.2l-2.9,5.1l2.1,1.2
			c-0.3,1.5-0.3,2.8,0,4.3l-2.1,1.2l2.9,5.1l2.1-1.2c1,1,2.3,1.7,3.7,2.1v2.5h5.9V144c1.4-0.4,2.6-1.2,3.7-2.1l2.1,1.2l2.9-5.1
			l-2.1-1.2C107.8,135.4,107.7,134,107.4,132.6z"/>
		
			<circle fill="none" stroke="#0B98CC" stroke-linecap="round" stroke-linejoin="round" stroke-miterlimit="10" cx="97.8" cy="134.7" r="3.9"/>
	</g>
	<g>
		<path fill="none" stroke="#0B98CC" stroke-linecap="round" stroke-linejoin="round" stroke-miterlimit="10" d="M105.7,113.1
			c0,1.1-0.9,2-2,2H66.4c-1.1,0-2-0.9-2-2v-9.8c0-1.1,0.9-2,2-2h37.4c1.1,0,2,0.9,2,2V113.1z"/>
		
			<line fill="none" stroke="#0B98CC" stroke-linecap="round" stroke-linejoin="round" stroke-miterlimit="10" x1="79.2" y1="111.1" x2="98.8" y2="111.1"/>
		
			<line fill="none" stroke="#0B98CC" stroke-linecap="round" stroke-linejoin="round" stroke-miterlimit="10" x1="79.2" y1="107.2" x2="98.8" y2="107.2"/>
		
			<circle fill="none" stroke="#0B98CC" stroke-linecap="round" stroke-linejoin="round" stroke-miterlimit="10" cx="71.3" cy="108.2" r="2"/>
		<path fill="none" stroke="#0B98CC" stroke-linecap="round" stroke-linejoin="round" stroke-miterlimit="10" d="M81.1,128.8H66.4
			c-1.1,0-2-0.9-2-2V117c0-1.1,0.9-2,2-2h37.4c1.1,0,2,0.9,2,2v2.9"/>
		
			<line fill="none" stroke="#0B98CC" stroke-linecap="round" stroke-linejoin="round" stroke-miterlimit="10" x1="79.2" y1="124.9" x2="83.1" y2="124.9"/>
		
			<line fill="none" stroke="#0B98CC" stroke-linecap="round" stroke-linejoin="round" stroke-miterlimit="10" x1="79.2" y1="120.9" x2="85.1" y2="120.9"/>
		
			<circle fill="none" stroke="#0B98CC" stroke-linecap="round" stroke-linejoin="round" stroke-miterlimit="10" cx="71.3" cy="121.9" r="2"/>
		<path fill="none" stroke="#0B98CC" stroke-linecap="round" stroke-linejoin="round" stroke-miterlimit="10" d="M83.1,142.6H66.4
			c-1.1,0-2-0.9-2-2v-9.8c0-1.1,0.9-2,2-2h14.7"/>
		
			<circle fill="none" stroke="#0B98CC" stroke-linecap="round" stroke-linejoin="round" stroke-miterlimit="10" cx="71.3" cy="135.7" r="2"/>
	</g>
</g>
<g>
	<rect x="512" y="54" fill="none" stroke="#0B98CC" stroke-miterlimit="10" width="13.8" height="27.5"/>
	<line fill="none" stroke="#0B98CC" stroke-miterlimit="10" x1="515.1" y1="57.1" x2="522.7" y2="57.1"/>
	<line fill="none" stroke="#0B98CC" stroke-miterlimit="10" x1="515.1" y1="60.2" x2="522.7" y2="60.2"/>
	<line fill="none" stroke="#0B98CC" stroke-miterlimit="10" x1="515.1" y1="63.2" x2="522.7" y2="63.2"/>
	<line fill="none" stroke="#0B98CC" stroke-miterlimit="10" x1="515.1" y1="66.3" x2="522.7" y2="66.3"/>
	<line fill="none" stroke="#0B98CC" stroke-miterlimit="10" x1="515.1" y1="69.3" x2="522.7" y2="69.3"/>
	<line fill="none" stroke="#0B98CC" stroke-miterlimit="10" x1="515.1" y1="72.4" x2="522.7" y2="72.4"/>
	<line fill="none" stroke="#0B98CC" stroke-miterlimit="10" x1="515.1" y1="75.4" x2="522.7" y2="75.4"/>
	<g>
		<rect x="487.2" y="60.2" fill="none" stroke="#0B98CC" stroke-miterlimit="10" width="16.8" height="21.4"/>
		<rect x="490.3" y="51" fill="none" stroke="#0B98CC" stroke-miterlimit="10" width="10.7" height="9.2"/>
		<line fill="none" stroke="#0B98CC" stroke-miterlimit="10" x1="494.9" y1="51" x2="494.9" y2="46.4"/>
		<line fill="none" stroke="#0B98CC" stroke-miterlimit="10" x1="490.3" y1="64.7" x2="501" y2="64.7"/>
		<line fill="none" stroke="#0B98CC" stroke-miterlimit="10" x1="490.3" y1="69.3" x2="501" y2="69.3"/>
		<line fill="none" stroke="#0B98CC" stroke-miterlimit="10" x1="490.3" y1="73.9" x2="501" y2="73.9"/>
		<line fill="none" stroke="#0B98CC" stroke-miterlimit="10" x1="493.4" y1="54" x2="497.9" y2="54"/>
		<line fill="none" stroke="#0B98CC" stroke-miterlimit="10" x1="493.4" y1="57.1" x2="497.9" y2="57.1"/>
		<rect x="493.4" y="78.5" fill="none" stroke="#0B98CC" stroke-miterlimit="10" width="3.1" height="3.1"/>
	</g>
	<rect x="518.2" y="78.5" fill="none" stroke="#0B98CC" stroke-miterlimit="10" width="3.1" height="3.1"/>
	<g>
		<rect x="531" y="73" fill="none" stroke="#0B98CC" stroke-miterlimit="10" width="23.5" height="8.8"/>
		<rect x="534" y="58.4" fill="none" stroke="#0B98CC" stroke-miterlimit="10" width="17.6" height="14.7"/>
		<rect x="536.9" y="54" fill="none" stroke="#0B98CC" stroke-miterlimit="10" width="11.7" height="4.4"/>
		<polygon fill="none" stroke="#0B98CC" stroke-miterlimit="10" points="542.8,48.1 536.9,54 548.6,54 		"/>
		<rect x="538.4" y="61.3" fill="none" stroke="#0B98CC" stroke-miterlimit="10" width="2.9" height="2.9"/>
		<rect x="544.2" y="61.3" fill="none" stroke="#0B98CC" stroke-miterlimit="10" width="2.9" height="2.9"/>
		<rect x="538.4" y="67.2" fill="none" stroke="#0B98CC" stroke-miterlimit="10" width="2.9" height="2.9"/>
		<rect x="544.2" y="67.2" fill="none" stroke="#0B98CC" stroke-miterlimit="10" width="2.9" height="2.9"/>
		<rect x="534" y="76" fill="none" stroke="#0B98CC" stroke-miterlimit="10" width="2.9" height="2.9"/>
		<rect x="541.3" y="76" fill="none" stroke="#0B98CC" stroke-miterlimit="10" width="2.9" height="2.9"/>
		<rect x="548.6" y="76" fill="none" stroke="#0B98CC" stroke-miterlimit="10" width="2.9" height="2.9"/>
	</g>
	<line fill="none" stroke="#0B98CC" stroke-miterlimit="10" x1="504.2" y1="67.5" x2="512" y2="67.5"/>
	<line fill="none" stroke="#0B98CC" stroke-miterlimit="10" x1="526" y1="67.5" x2="533.8" y2="67.5"/>
</g>
<g transform="matrix( 1, 0, 0, 1, -287.6,-198.6) ">
	<g>
		<g id="Layer8_3_FILL_6_">
			<path fill="#B9D432" d="M331.2,340c0-0.5-0.2-0.9-0.6-1.2c-0.4-0.4-0.7-0.6-1.2-0.6s-0.9,0.2-1.3,0.6c-0.4,0.4-0.6,0.7-0.6,1.2
				c0,0.5,0.2,0.9,0.6,1.3c0.4,0.4,0.7,0.5,1.3,0.5c0.5,0,0.9-0.2,1.2-0.5C331,340.9,331.2,340.4,331.2,340z"/>
		</g>
	</g>
</g>
<g transform="matrix( 1, 0, 0, 1, -287.6,-198.6) ">
	<g>
		<g id="Layer8_3_FILL_7_">
			<path fill="#0B98CC" d="M483.4,438c0-0.5-0.2-0.9-0.6-1.2c-0.4-0.4-0.7-0.6-1.2-0.6c-0.5,0-0.9,0.2-1.3,0.6
				c-0.4,0.4-0.6,0.7-0.6,1.2c0,0.5,0.2,0.9,0.6,1.3c0.4,0.4,0.7,0.5,1.3,0.5c0.5,0,0.9-0.2,1.2-0.5
				C483.2,438.9,483.4,438.4,483.4,438z"/>
		</g>
	</g>
</g>
<g transform="matrix( 1, 0, 0, 1, -287.6,-198.6) ">
	<g>
		<g id="Layer8_3_FILL_8_">
			<path fill="#B9D432" d="M838.6,361c0-0.5-0.2-0.9-0.6-1.2c-0.4-0.4-0.7-0.6-1.2-0.6s-0.9,0.2-1.3,0.6c-0.4,0.4-0.6,0.7-0.6,1.2
				c0,0.5,0.2,0.9,0.6,1.3s0.7,0.5,1.3,0.5c0.5,0,0.9-0.2,1.2-0.5C838.4,361.9,838.6,361.5,838.6,361z"/>
		</g>
	</g>
</g>
<g transform="matrix( 1, 0, 0, 1, -287.6,-198.6) ">
	<g>
		<g id="Layer8_3_FILL_10_">
			<path fill="#B9D432" d="M579.9,500.5c0-0.5-0.2-0.9-0.6-1.2c-0.4-0.4-0.7-0.6-1.2-0.6c-0.5,0-0.9,0.2-1.3,0.6
				c-0.4,0.4-0.6,0.7-0.6,1.2s0.2,0.9,0.6,1.3c0.4,0.4,0.7,0.5,1.3,0.5c0.5,0,0.9-0.2,1.2-0.5C579.7,501.4,579.9,501,579.9,500.5z"
				/>
		</g>
	</g>
</g>
<g transform="matrix( 1, 0, 0, 1, -287.6,-198.6) ">
	<g>
		<g id="Layer8_3_FILL_9_">
			<path fill="#B9D432" d="M688.5,308.8c0-0.5-0.2-0.9-0.6-1.2c-0.4-0.4-0.7-0.6-1.2-0.6s-0.9,0.2-1.3,0.6c-0.4,0.4-0.6,0.7-0.6,1.2
				c0,0.5,0.2,0.9,0.6,1.3c0.4,0.4,0.7,0.5,1.3,0.5c0.5,0,0.9-0.2,1.2-0.5C688.3,309.7,688.5,309.3,688.5,308.8z"/>
		</g>
	</g>
</g>
<g transform="matrix( 1, 0, 0, 1, -287.6,-198.6) ">
	<g>
		<g id="Layer8_5_FILL_3_">
			<path fill="#F05923" d="M605,282.5c0-0.5-0.2-0.9-0.6-1.2c-0.4-0.4-0.7-0.6-1.3-0.6c-0.6,0-0.9,0.2-1.2,0.6
				c-0.4,0.4-0.5,0.7-0.5,1.2s0.2,0.9,0.5,1.3c0.4,0.4,0.7,0.6,1.2,0.6c0.5,0,0.9-0.2,1.3-0.6C604.8,283.4,605,283,605,282.5z"/>
		</g>
	</g>
</g>
<g transform="matrix( 1, 0, 0, 1, -287.6,-198.6) ">
	<g>
		<g id="Layer8_5_FILL_6_">
			<path fill="#F05923" d="M735.4,487.3c0-0.5-0.2-0.9-0.6-1.2c-0.4-0.4-0.7-0.6-1.3-0.6s-0.9,0.2-1.2,0.6c-0.4,0.4-0.5,0.7-0.5,1.2
				c0,0.5,0.2,0.9,0.5,1.3c0.4,0.4,0.7,0.6,1.2,0.6c0.5,0,0.9-0.2,1.3-0.6C735.2,488.2,735.4,487.8,735.4,487.3z"/>
		</g>
	</g>
</g>
<g transform="matrix( 1, 0, 0, 1, -287.6,-198.6) ">
	<g>
		<g id="Layer8_5_FILL_4_">
			<path fill="#F05923" d="M898,314c0-0.5-0.2-0.9-0.6-1.2c-0.4-0.4-0.7-0.6-1.3-0.6s-0.9,0.2-1.2,0.6c-0.4,0.4-0.5,0.7-0.5,1.2
				c0,0.5,0.2,0.9,0.5,1.3c0.4,0.4,0.7,0.6,1.2,0.6c0.5,0,0.9-0.2,1.3-0.6C897.8,314.9,898,314.4,898,314z"/>
		</g>
	</g>
</g>
<g transform="matrix( 1, 0, 0, 1, -287.6,-198.6) ">
	<g>
		<g id="Layer8_5_FILL_5_">
			<path fill="#F05923" d="M619.5,564.8c0-0.5-0.2-0.9-0.6-1.2c-0.4-0.4-0.7-0.6-1.3-0.6s-0.9,0.2-1.2,0.6c-0.4,0.4-0.5,0.7-0.5,1.2
				s0.2,0.9,0.5,1.3c0.4,0.4,0.7,0.6,1.2,0.6s0.9-0.2,1.3-0.6C619.3,565.7,619.5,565.2,619.5,564.8z"/>
		</g>
	</g>
</g>
<g transform="matrix( 1, 0, 0, 1, -287.6,-198.6) ">
	<g>
		<g id="Layer8_8_FILL_7_">
			<path fill="#DEDEDD" d="M435.4,265.7c-0.4-0.4-0.7-0.5-1.3-0.5c-0.5,0-0.9,0.2-1.3,0.5c-0.4,0.4-0.5,0.8-0.5,1.3s0.2,0.9,0.5,1.3
				c0.4,0.4,0.7,0.6,1.3,0.6c0.5,0,0.9-0.2,1.3-0.6s0.6-0.7,0.6-1.3C436,266.5,435.8,266.2,435.4,265.7z"/>
		</g>
	</g>
</g>
<g transform="matrix( 1, 0, 0, 1, -287.6,-198.6) ">
	<g>
		<path id="Layer8_12_1_STROKES_4_" fill="none" stroke="#BFBEBE" stroke-width="2" stroke-miterlimit="10" d="M424.9,288.8
			c0,0.8-0.3,1.6-0.9,2.1c-0.6,0.6-1.3,0.8-2.1,0.8c-0.8,0-1.5-0.3-2.1-0.8c-0.6-0.6-0.9-1.3-0.9-2.1c0-0.8,0.3-1.5,0.9-2.1
			c0.6-0.6,1.3-0.8,2.1-0.8c0.8,0,1.6,0.3,2.1,0.8C424.5,287.2,424.9,287.9,424.9,288.8z"/>
	</g>
</g>
<g transform="matrix( 1, 0, 0, 1, -287.6,-198.6) ">
	<g>
		<path id="Layer8_12_1_STROKES_5_" fill="none" stroke="#BFBEBE" stroke-width="2" stroke-miterlimit="10" d="M761.8,311.1
			c0,0.8-0.3,1.6-0.9,2.1c-0.6,0.6-1.3,0.8-2.1,0.8c-0.8,0-1.5-0.3-2.1-0.8c-0.6-0.6-0.9-1.3-0.9-2.1s0.3-1.5,0.9-2.1
			c0.6-0.6,1.3-0.8,2.1-0.8c0.8,0,1.6,0.3,2.1,0.8C761.5,309.6,761.8,310.3,761.8,311.1z"/>
	</g>
</g>
<g transform="matrix( 1, 0, 0, 1, -287.6,-198.6) ">
	<g>
		<path id="Layer8_12_1_STROKES_8_" fill="none" stroke="#BFBEBE" stroke-width="2" stroke-miterlimit="10" d="M895.5,382.8
			c0,0.8-0.3,1.6-0.9,2.1c-0.6,0.6-1.3,0.8-2.1,0.8c-0.8,0-1.5-0.3-2.1-0.8c-0.6-0.6-0.9-1.3-0.9-2.1c0-0.8,0.3-1.5,0.9-2.1
			c0.6-0.6,1.3-0.8,2.1-0.8s1.6,0.3,2.1,0.8C895.1,381.2,895.5,381.9,895.5,382.8z"/>
	</g>
</g>
<g transform="matrix( 1, 0, 0, 1, -287.6,-198.6) ">
	<g>
		<path id="Layer8_12_1_STROKES_7_" fill="none" stroke="#FFFFFF" stroke-width="2" stroke-miterlimit="10" d="M834.1,445.4
			c0,0.8-0.3,1.6-0.9,2.1c-0.6,0.6-1.3,0.8-2.1,0.8s-1.5-0.3-2.1-0.8c-0.6-0.6-0.9-1.3-0.9-2.1s0.3-1.5,0.9-2.1
			c0.6-0.6,1.3-0.8,2.1-0.8c0.8,0,1.6,0.3,2.1,0.8C833.8,443.9,834.1,444.6,834.1,445.4z"/>
	</g>
</g>
<g transform="matrix( 1, 0, 0, 1, -287.6,-198.6) ">
	<g>
		<path id="Layer8_12_1_STROKES_6_" fill="none" stroke="#BFBEBE" stroke-width="2" stroke-miterlimit="10" d="M665.8,529.8
			c0,0.8-0.3,1.6-0.9,2.1c-0.6,0.6-1.3,0.8-2.1,0.8c-0.8,0-1.5-0.3-2.1-0.8c-0.6-0.6-0.9-1.3-0.9-2.1c0-0.8,0.3-1.5,0.9-2.1
			c0.6-0.6,1.3-0.8,2.1-0.8c0.8,0,1.6,0.3,2.1,0.8C665.5,528.2,665.8,529,665.8,529.8z"/>
	</g>
</g>
<g>
	<g transform="matrix( 1, 0, 0, 1, -287.6,-198.6) ">
		<g>
			<g id="Layer8_13_MEMBER_0_FILL_2_">
				<path fill="#83C2EA" d="M528.4,327.6h6.5c0.3,0,0.5-0.1,0.6-0.3s0.3-0.4,0.3-0.6c0-0.3-0.1-0.5-0.3-0.6
					c-0.2-0.2-0.4-0.3-0.6-0.3h-6.5c-0.6,0-0.8,0.3-0.8,0.8c0,0.3,0.1,0.5,0.3,0.6C528.1,327.5,528.2,327.6,528.4,327.6z"/>
			</g>
		</g>
	</g>
	<g transform="matrix( 1, 0, 0, 1, -287.6,-198.6) ">
		<g>
			<g id="Layer8_13_MEMBER_1_FILL_2_">
				<path fill="#83C2EA" d="M531.1,322.8c-0.2,0.2-0.3,0.4-0.3,0.6v6.5c0,0.3,0.1,0.5,0.3,0.6s0.4,0.3,0.6,0.3
					c0.6,0,0.9-0.3,0.9-0.9v-6.5c0-0.3-0.1-0.5-0.3-0.6c-0.2-0.2-0.4-0.3-0.6-0.3C531.5,322.5,531.3,322.6,531.1,322.8z"/>
			</g>
		</g>
	</g>
</g>
<g>
	<g transform="matrix( 1, 0, 0, 1, -287.6,-198.6) ">
		<g>
			<g id="Layer8_13_MEMBER_0_FILL_3_">
				<path fill="#83C2EA" d="M337,486.8h6.5c0.3,0,0.5-0.1,0.6-0.3s0.3-0.4,0.3-0.6c0-0.3-0.1-0.5-0.3-0.6c-0.2-0.2-0.4-0.3-0.6-0.3
					H337c-0.6,0-0.8,0.3-0.8,0.8c0,0.3,0.1,0.5,0.3,0.6C336.6,486.7,336.8,486.8,337,486.8z"/>
			</g>
		</g>
	</g>
	<g transform="matrix( 1, 0, 0, 1, -287.6,-198.6) ">
		<g>
			<g id="Layer8_13_MEMBER_1_FILL_3_">
				<path fill="#83C2EA" d="M339.7,482c-0.2,0.2-0.3,0.4-0.3,0.6v6.5c0,0.3,0.1,0.5,0.3,0.6c0.2,0.2,0.4,0.3,0.6,0.3
					c0.6,0,0.9-0.3,0.9-0.9v-6.5c0-0.3-0.1-0.5-0.3-0.6c-0.2-0.2-0.4-0.3-0.6-0.3C340,481.7,339.9,481.8,339.7,482z"/>
			</g>
		</g>
	</g>
</g>
<g>
	<g transform="matrix( 1, 0, 0, 1, -287.6,-198.6) ">
		<g>
			<g id="Layer8_13_MEMBER_0_FILL_4_">
				<path fill="#83C2EA" d="M788.7,538.3h6.5c0.3,0,0.5-0.1,0.6-0.3s0.3-0.4,0.3-0.6c0-0.3-0.1-0.5-0.3-0.6s-0.4-0.3-0.6-0.3h-6.5
					c-0.6,0-0.8,0.3-0.8,0.8c0,0.3,0.1,0.5,0.3,0.6C788.4,538.3,788.6,538.3,788.7,538.3z"/>
			</g>
		</g>
	</g>
	<g transform="matrix( 1, 0, 0, 1, -287.6,-198.6) ">
		<g>
			<g id="Layer8_13_MEMBER_1_FILL_4_">
				<path fill="#83C2EA" d="M791.4,533.6c-0.2,0.2-0.3,0.4-0.3,0.6v6.5c0,0.3,0.1,0.5,0.3,0.6c0.2,0.2,0.4,0.3,0.6,0.3
					c0.6,0,0.9-0.3,0.9-0.9v-6.5c0-0.3-0.1-0.5-0.3-0.6c-0.2-0.2-0.4-0.3-0.6-0.3C791.8,533.3,791.6,533.4,791.4,533.6z"/>
			</g>
		</g>
	</g>
</g>
<g>
	<g transform="matrix( 1, 0, 0, 1, -287.6,-198.6) ">
		<g>
			<g id="Layer8_13_MEMBER_0_FILL_5_">
				<path fill="#83C2EA" d="M904.6,244.2h6.5c0.3,0,0.5-0.1,0.6-0.3c0.2-0.2,0.3-0.4,0.3-0.6c0-0.3-0.1-0.5-0.3-0.6
					c-0.2-0.2-0.4-0.3-0.6-0.3h-6.5c-0.6,0-0.8,0.3-0.8,0.8c0,0.3,0.1,0.5,0.3,0.6C904.3,244.2,904.5,244.2,904.6,244.2z"/>
			</g>
		</g>
	</g>
	<g transform="matrix( 1, 0, 0, 1, -287.6,-198.6) ">
		<g>
			<g id="Layer8_13_MEMBER_1_FILL_5_">
				<path fill="#83C2EA" d="M907.3,239.5c-0.2,0.2-0.3,0.4-0.3,0.6v6.5c0,0.3,0.1,0.5,0.3,0.6s0.4,0.3,0.6,0.3
					c0.6,0,0.9-0.3,0.9-0.9v-6.5c0-0.3-0.1-0.5-0.3-0.6c-0.2-0.2-0.4-0.3-0.6-0.3C907.7,239.2,907.5,239.3,907.3,239.5z"/>
			</g>
		</g>
	</g>
</g>
<g transform="matrix( 1, 0, 0, 1, -287.6,-198.6) ">
	<g>
		<g id="Layer8_19_FILL_3_">
			<path fill="#BFBEBE" d="M481.3,518.4l-2.8,4.8l2.8,4.8h5.5l2.8-4.8l-2.8-4.8H481.3 M482.2,526.8l-2-3.5l2-3.5h4l2,3.5l-2,3.5
				H482.2z"/>
		</g>
	</g>
</g>
<g transform="matrix( 1, 0, 0, 1, -287.6,-198.6) ">
	<g>
		<g id="Layer8_19_FILL_4_">
			<path fill="#BFBEBE" d="M418.6,383.8l-2.8,4.8l2.8,4.8h5.5l2.8-4.8l-2.8-4.8H418.6 M419.5,392.1l-2-3.5l2-3.5h4l2,3.5l-2,3.5
				H419.5z"/>
		</g>
	</g>
</g>
<g transform="matrix( 1, 0, 0, 1, -287.6,-198.6) ">
	<g>
		<g id="Layer8_19_FILL_5_">
			<path fill="#BFBEBE" d="M978,454.4l-2.8,4.8l2.8,4.8h5.5l2.8-4.8l-2.8-4.8H978 M978.8,462.8l-2-3.5l2-3.5h4l2,3.5l-2,3.5H978.8z"
				/>
		</g>
	</g>
</g>
<g transform="matrix( 1, 0, 0, 1, -287.6,-198.6) ">
	<g>
		<g id="Layer8_19_FILL_6_">
			<path fill="#BFBEBE" d="M724,233.8l-2.8,4.8l2.8,4.8h5.5l2.8-4.8l-2.8-4.8H724 M724.8,242.1l-2-3.5l2-3.5h4l2,3.5l-2,3.5H724.8z"
				/>
		</g>
	</g>
</g>
<g transform="matrix( 1, 0, 0, 1, -287.6,-198.6) ">
	<g>
		<g id="Layer8_8_FILL_9_">
			<path fill="#DEDEDD" d="M438.2,368.8c-0.4-0.4-0.8-0.4-1.3-0.4c-0.5,0-0.9,0.2-1.3,0.5c-0.4,0.4-0.4,0.8-0.4,1.3
				c0,0.5,0.2,0.9,0.5,1.3c0.4,0.4,0.8,0.5,1.3,0.5c0.5,0,0.9-0.2,1.3-0.6s0.5-0.8,0.5-1.3C438.8,369.6,438.6,369.2,438.2,368.8z"/>
		</g>
	</g>
</g>
<g transform="matrix( 1, 0, 0, 1, -287.6,-198.6) ">
	<g>
		<g id="Layer8_8_FILL_11_">
			<path fill="#DEDEDD" d="M595.4,525.9c-0.4-0.4-0.8-0.4-1.3-0.4c-0.5,0-0.9,0.2-1.3,0.5c-0.4,0.4-0.4,0.8-0.4,1.3s0.2,0.9,0.5,1.3
				c0.4,0.4,0.8,0.5,1.3,0.5c0.5,0,0.9-0.2,1.3-0.6c0.4-0.4,0.5-0.8,0.5-1.3C595.9,526.7,595.7,526.4,595.4,525.9z"/>
		</g>
	</g>
</g>
<g transform="matrix( 1, 0, 0, 1, -287.6,-198.6) ">
	<g>
		<g id="Layer8_8_FILL_12_">
			<path fill="#DEDEDD" d="M974.1,260.7c-0.4-0.4-0.8-0.4-1.3-0.4c-0.5,0-0.9,0.2-1.3,0.5c-0.4,0.4-0.4,0.8-0.4,1.3
				c0,0.5,0.2,0.9,0.5,1.3c0.4,0.4,0.8,0.5,1.3,0.5c0.5,0,0.9-0.2,1.3-0.6c0.4-0.4,0.5-0.8,0.5-1.3
				C974.6,261.5,974.4,261.1,974.1,260.7z"/>
		</g>
	</g>
</g>
<g transform="matrix( 1, 0, 0, 1, -287.6,-198.6) ">
	<g>
		<g id="Layer8_8_FILL_10_">
			<path fill="#FFFFFF" d="M614,401.4c-0.4-0.4-0.8-0.4-1.3-0.4c-0.5,0-0.9,0.2-1.3,0.5c-0.4,0.4-0.4,0.8-0.4,1.3
				c0,0.5,0.2,0.9,0.5,1.3c0.4,0.4,0.8,0.5,1.3,0.5c0.5,0,0.9-0.2,1.3-0.6c0.4-0.4,0.5-0.8,0.5-1.3
				C614.6,402.2,614.4,401.9,614,401.4z"/>
		</g>
	</g>
</g>
<path fill="none" stroke="#A3A3A3" stroke-miterlimit="10" d="M387.9,123.8v-62c0-4.8-3.9-8.7-8.7-8.7h-94.4"/>
<circle fill="#FFFFFF" stroke="#A3A3A3" stroke-miterlimit="10" cx="284.4" cy="53.2" r="2"/>
</svg>
