<svg id="Layer_qwe1" data-name="Layer 1" xmlns="http://www.w3.org/2000/svg" viewBox="0 0 750 400"><defs><style>.cls-1{opacity:0.14;}.cls-2{opacity:0.17;}.cls-3{fill:#3d3d3d;}.cls-4{fill:#bad727;}.cls-5{fill:#f7571a;}.cls-6{fill:#dedede;}.cls-7{fill:#d1d1d1;}.cls-13,.cls-18,.cls-20,.cls-21,.cls-22,.cls-23,.cls-8{fill:none;}.cls-8{stroke:#bfbfbf;stroke-width:2px;}.cls-9{fill:#83c4ec;}.cls-10{fill:#bfbfbf;}.cls-11{fill:#2c538a;}.cls-12{fill:#0899cc;}.cls-13{stroke:#a6a6a6;}.cls-14{fill:#344e5f;}.cls-15{fill:#fff;}.cls-16{fill:#ff3100;}.cls-17{fill:#66c1ec;}.cls-18,.cls-23{stroke:#fff;}.cls-19{fill:#cacaca;}.cls-20{stroke:#000;}.cls-21{stroke:#a3a3a3;}.cls-22{stroke:#0899cc;stroke-linecap:round;}.cls-22,.cls-23{stroke-linejoin:round;}.cls-24{fill:#ea4335;}.cls-25{fill:#4285f4;}.cls-26{fill:#34a853;}.cls-27{fill:#fbbc05;}.cls-28{fill:#0064bf;}.cls-29{fill:#252f3e;}.cls-30{fill:#f90;}.cls-31{fill:#716fb3;}.cls-32{fill:#455560;}.cls-33{fill:#0f9bd7;}.cls-34{fill:#035bda;}</style></defs><title>Artboard 1</title><g id="Group" class="cls-1"><g id="Clipped"><path id="Path" d="M437.2,56.6a18.08,18.08,0,0,1,18.1-17.7,17.83,17.83,0,0,1,14.1,6.8,7.92,7.92,0,0,1,14.7,1.9,9.86,9.86,0,0,1,3.8-.7,9.75,9.75,0,0,1,5.6,1.7,12.7,12.7,0,0,1,9-3.7,12.57,12.57,0,0,1,11.8,8,6,6,0,0,1,4.5-1.9,6.12,6.12,0,0,1,6.1,5.7l-87.7-.1Z"/></g></g><g id="Group-2" data-name="Group" class="cls-1"><g id="Clipped-2" data-name="Clipped"><path id="Path-2" data-name="Path" d="M431.4,191.5a36.92,36.92,0,0,1,65.7-22.2,16.1,16.1,0,0,1,14.3-8.5,16.41,16.41,0,0,1,15.8,12.3,20.08,20.08,0,0,1,7.8-1.5,21.2,21.2,0,0,1,11.4,3.4,25.88,25.88,0,0,1,42.4,8.8,12.54,12.54,0,0,1,21.6,7.7Z"/></g></g><g id="Group-3" data-name="Group" class="cls-1"><g id="Clipped-3" data-name="Clipped"><path id="Path-3" data-name="Path" d="M646.4,261.9a15,15,0,0,1,15-14.6,15.15,15.15,0,0,1,11.7,5.6,6.58,6.58,0,0,1,12.2,1.5,8.29,8.29,0,0,1,3.2-.6,8.06,8.06,0,0,1,4.6,1.4,10.43,10.43,0,0,1,7.4-3.1,10.6,10.6,0,0,1,9.8,6.6,4.9,4.9,0,0,1,3.7-1.6,5.12,5.12,0,0,1,5.1,4.7H646.4Z"/></g></g><g id="Group-4" data-name="Group" class="cls-2"><g id="Clipped-4" data-name="Clipped"><path id="Path-4" data-name="Path" class="cls-3" d="M193.2,360.7a5.67,5.67,0,0,0-5.6-5.1,5.18,5.18,0,0,0-4,1.8,10.64,10.64,0,0,0-4.2-5.2,11.35,11.35,0,0,0-6.5-2,10.57,10.57,0,0,0-7.9,3.3,9.4,9.4,0,0,0-5-1.4,9.74,9.74,0,0,0-3.4.6,6.82,6.82,0,0,0-2.5-3.9,7.2,7.2,0,0,0-4.4-1.6,7,7,0,0,0-3.7,1.1,7.55,7.55,0,0,0-2.5,2.8,16.07,16.07,0,0,0-28.6,9.6Z"/></g></g><path id="Path-5" data-name="Path" class="cls-4" d="M198.7,287a1.43,1.43,0,0,0-.6-1.2,1.56,1.56,0,0,0-1.2-.6,1.76,1.76,0,0,0-1.3.6,1.56,1.56,0,0,0-.6,1.2,1.76,1.76,0,0,0,.6,1.3,1.54,1.54,0,0,0,1.3.5,1.66,1.66,0,0,0,1.2-.5,1.94,1.94,0,0,0,.6-1.3"/><path id="Path-6" data-name="Path" class="cls-4" d="M68,57.9a1.43,1.43,0,0,0-.6-1.2,1.56,1.56,0,0,0-1.2-.6,1.76,1.76,0,0,0-1.3.6,1.56,1.56,0,0,0-.6,1.2,1.76,1.76,0,0,0,.6,1.3,1.54,1.54,0,0,0,1.3.5,1.66,1.66,0,0,0,1.2-.5,1.76,1.76,0,0,0,.6-1.3"/><path id="Path-7" data-name="Path" class="cls-4" d="M556.3,228a1.43,1.43,0,0,0-.6-1.2,1.56,1.56,0,0,0-1.2-.6,1.76,1.76,0,0,0-1.3.6,1.46,1.46,0,0,0-.5,1.2,2.11,2.11,0,0,0,.5,1.3,1.61,1.61,0,0,0,1.3.6,1.43,1.43,0,0,0,1.2-.6,1.94,1.94,0,0,0,.6-1.3"/><path id="Path-8" data-name="Path" class="cls-5" d="M316.4,119.2a1.43,1.43,0,0,0-.6-1.2,1.61,1.61,0,0,0-1.3-.6,1.31,1.31,0,0,0-1.2.6,1.46,1.46,0,0,0-.5,1.2,2.11,2.11,0,0,0,.5,1.3,1.56,1.56,0,0,0,1.2.6,2.07,2.07,0,0,0,1.9-1.9"/><path id="Path-9" data-name="Path" class="cls-5" d="M701.8,349a1.43,1.43,0,0,0-.6-1.2,1.61,1.61,0,0,0-1.3-.6,1.31,1.31,0,0,0-1.2.6,1.46,1.46,0,0,0-.5,1.2,2.11,2.11,0,0,0,.5,1.3,1.56,1.56,0,0,0,1.2.6,1.76,1.76,0,0,0,1.3-.6,1.61,1.61,0,0,0,.6-1.3"/><path id="Path-10" data-name="Path" class="cls-5" d="M250.5,247.5a1.76,1.76,0,0,0-.6-1.3,1.46,1.46,0,0,0-1.2-.5,2.11,2.11,0,0,0-1.3.5,1.54,1.54,0,0,0-.5,1.3,2.11,2.11,0,0,0,.5,1.3,1.61,1.61,0,0,0,1.3.6,1.31,1.31,0,0,0,1.2-.6,1.76,1.76,0,0,0,.6-1.3"/><path id="Path-11" data-name="Path" class="cls-6" d="M223.7,251.8a4.21,4.21,0,0,0-1-2.6,4,4,0,0,0-2.6-1,3.74,3.74,0,0,0-2.5,1,4,4,0,0,0-1,2.6,3.55,3.55,0,0,0,1,2.5,4,4,0,0,0,2.5,1,4.21,4.21,0,0,0,2.6-1,3.55,3.55,0,0,0,1-2.5"/><path id="Path-12" data-name="Path" class="cls-6" d="M553.6,287.9a1.54,1.54,0,0,0-1.3-.5,2.11,2.11,0,0,0-1.3.5,1.66,1.66,0,0,0-.5,1.3,2.11,2.11,0,0,0,.5,1.3,1.61,1.61,0,0,0,1.3.6,1.76,1.76,0,0,0,1.3-.6,1.61,1.61,0,0,0,.6-1.3,1.76,1.76,0,0,0-.6-1.3"/><path id="Path-13" data-name="Path" class="cls-6" d="M287.1,363.7a1.54,1.54,0,0,0-1.3-.5,2.11,2.11,0,0,0-1.3.5,1.66,1.66,0,0,0-.5,1.3,2.11,2.11,0,0,0,.5,1.3,1.61,1.61,0,0,0,1.3.6,1.76,1.76,0,0,0,1.3-.6,1.61,1.61,0,0,0,.6-1.3,2.55,2.55,0,0,0-.6-1.3"/><path id="Path-14" data-name="Path" class="cls-6" d="M237.7,158.8a1.54,1.54,0,0,0-1.3-.5,2.11,2.11,0,0,0-1.3.5,1.66,1.66,0,0,0-.5,1.3,2.11,2.11,0,0,0,.5,1.3,1.61,1.61,0,0,0,1.3.6,1.76,1.76,0,0,0,1.3-.6,1.61,1.61,0,0,0,.6-1.3,2.15,2.15,0,0,0-.6-1.3"/><path id="Path-15" data-name="Path" class="cls-6" d="M418.3,117.8a1.54,1.54,0,0,0-1.3-.5,2.11,2.11,0,0,0-1.3.5,1.66,1.66,0,0,0-.5,1.3,2.11,2.11,0,0,0,.5,1.3,1.61,1.61,0,0,0,1.3.6,1.76,1.76,0,0,0,1.3-.6,1.61,1.61,0,0,0,.6-1.3,1.94,1.94,0,0,0-.6-1.3"/><path id="Path-16" data-name="Path" class="cls-6" d="M697.1,182.5a1.54,1.54,0,0,0-1.3-.5,2.11,2.11,0,0,0-1.3.5,1.66,1.66,0,0,0-.5,1.3,2.11,2.11,0,0,0,.5,1.3,1.61,1.61,0,0,0,1.3.6,1.76,1.76,0,0,0,1.3-.6,1.61,1.61,0,0,0,.6-1.3,2.23,2.23,0,0,0-.6-1.3"/><path id="Path-17" data-name="Path" class="cls-6" d="M146.9,102.4a1.54,1.54,0,0,0-1.3-.5,2.11,2.11,0,0,0-1.3.5,1.66,1.66,0,0,0-.5,1.3,2.11,2.11,0,0,0,.5,1.3,1.61,1.61,0,0,0,1.3.6,1.76,1.76,0,0,0,1.3-.6,1.61,1.61,0,0,0,.6-1.3,3.79,3.79,0,0,0-.6-1.3"/><path id="Path-18" data-name="Path" class="cls-7" d="M549.6,371.2a3.74,3.74,0,0,0-1-2.5,4,4,0,0,0-2.6-1,3.74,3.74,0,0,0-2.5,1,3.58,3.58,0,0,0-1.1,2.5,3.63,3.63,0,0,0,1.1,2.6,3.55,3.55,0,0,0,2.5,1,4.21,4.21,0,0,0,2.6-1,3.7,3.7,0,0,0,1-2.6"/><path id="Path-19" data-name="Path" class="cls-8" d="M559.3,156a2.72,2.72,0,0,1-.9,2.1,2.88,2.88,0,0,1-2.1.9,2.72,2.72,0,0,1-2.1-.9,3,3,0,1,1,4.2-4.2A2.32,2.32,0,0,1,559.3,156Z"/><path id="Path-20" data-name="Path" class="cls-8" d="M396.2,341.4a2.72,2.72,0,0,1-.9,2.1,2.88,2.88,0,0,1-2.1.9,2.72,2.72,0,0,1-2.1-.9,2.88,2.88,0,0,1-.9-2.1,2.72,2.72,0,0,1,.9-2.1,2.9,2.9,0,0,1,4.2,0A2.93,2.93,0,0,1,396.2,341.4Z"/><path id="Path-21" data-name="Path" class="cls-8" d="M341.7,75.9a2.72,2.72,0,0,1-.9,2.1,2.78,2.78,0,0,1-2.1.8,3.23,3.23,0,0,1-2.1-.8,2.9,2.9,0,0,1,0-4.2,2.78,2.78,0,0,1,2.1-.8,3,3,0,0,1,2.1.8A3.33,3.33,0,0,1,341.7,75.9Z"/><path id="Path-22" data-name="Path" class="cls-8" d="M192,328.3a2.72,2.72,0,0,1-.9,2.1,2.78,2.78,0,0,1-2.1.8,3.23,3.23,0,0,1-2.1-.8,2.9,2.9,0,0,1,0-4.2,2.78,2.78,0,0,1,2.1-.8,3,3,0,0,1,2.1.8A2.93,2.93,0,0,1,192,328.3Z"/><path id="Path-23" data-name="Path" class="cls-8" d="M128.7,86.3a2.72,2.72,0,0,1-.9,2.1,2.78,2.78,0,0,1-2.1.8,3.23,3.23,0,0,1-2.1-.8,2.9,2.9,0,0,1,0-4.2,2.78,2.78,0,0,1,2.1-.8,3,3,0,0,1,2.1.8A2.93,2.93,0,0,1,128.7,86.3Z"/><path id="Path-24" data-name="Path" class="cls-9" d="M265.2,41.6h6.5a.6.6,0,0,0,.6-.3.86.86,0,0,0,.3-.6.6.6,0,0,0-.3-.6.86.86,0,0,0-.6-.3h-6.5c-.6,0-.8.3-.8.8a.6.6,0,0,0,.3.6.51.51,0,0,0,.5.4"/><path id="Path-25" data-name="Path" class="cls-9" d="M267.9,36.9a.86.86,0,0,0-.3.6V44a.6.6,0,0,0,.3.6.86.86,0,0,0,.6.3.8.8,0,0,0,.9-.9V37.5a.6.6,0,0,0-.3-.6.86.86,0,0,0-.6-.3q-.3-.15-.6.3"/><path id="Path-26" data-name="Path" class="cls-9" d="M575.4,298.9a.86.86,0,0,0,.6.3h6.6a.6.6,0,0,0,.6-.3c.2-.2.2-.4.3-.6,0-.6-.3-.9-.8-.9h-6.6a.6.6,0,0,0-.6.3.86.86,0,0,0-.3.6c0,.3,0,.5.2.6"/><path id="Path-27" data-name="Path" class="cls-9" d="M580.1,295a.71.71,0,0,0-.3-.6.86.86,0,0,0-.6-.3.6.6,0,0,0-.6.3.86.86,0,0,0-.3.6v6.6a.6.6,0,0,0,.3.6.86.86,0,0,0,.6.3.71.71,0,0,0,.6-.3.86.86,0,0,0,.3-.6Z"/><path id="Path-28" data-name="Path" class="cls-9" d="M127.5,173.9a.6.6,0,0,0-.6.3.86.86,0,0,0-.3.6.6.6,0,0,0,.3.6.86.86,0,0,0,.6.3H134a.6.6,0,0,0,.6-.3.86.86,0,0,0,.3-.6.8.8,0,0,0-.9-.9Z"/><path id="Path-29" data-name="Path" class="cls-9" d="M131.6,171.5a.71.71,0,0,0-.3-.6.86.86,0,0,0-.6-.3.71.71,0,0,0-.6.3.86.86,0,0,0-.3.6V178a.6.6,0,0,0,.3.6.86.86,0,0,0,.6.3.6.6,0,0,0,.6-.3.86.86,0,0,0,.3-.6Z"/><path id="Path-30" data-name="Path" class="cls-9" d="M479.8,94.2a.86.86,0,0,0,.6.3h6.5a.6.6,0,0,0,.6-.3.86.86,0,0,0,.3-.6.6.6,0,0,0-.3-.6.86.86,0,0,0-.6-.3h-6.5a.6.6,0,0,0-.6.3.86.86,0,0,0-.3.6.71.71,0,0,0,.3.6"/><path id="Path-31" data-name="Path" class="cls-9" d="M483.7,97.7a.6.6,0,0,0,.6-.3.86.86,0,0,0,.3-.6V90.2c0-.6-.3-.8-.9-.8s-.9.3-.9.8v6.6a.6.6,0,0,0,.3.6c.1.3.4.3.6.3"/><path id="Path-32" data-name="Path" class="cls-9" d="M389,372.3a.6.6,0,0,0,.6-.3.86.86,0,0,0,.3-.6.71.71,0,0,0-.3-.6.86.86,0,0,0-.6-.3h-6.5a.6.6,0,0,0-.6.3.86.86,0,0,0-.3.6.6.6,0,0,0,.3.6.86.86,0,0,0,.6.3Z"/><path id="Path-33" data-name="Path" class="cls-9" d="M385.1,367.5a.86.86,0,0,0-.3.6v6.5a.6.6,0,0,0,.3.6.86.86,0,0,0,.6.3.6.6,0,0,0,.6-.3.86.86,0,0,0,.3-.6v-6.5a.6.6,0,0,0-.3-.6.86.86,0,0,0-.6-.3c-.3.1-.5.1-.6.3"/><path id="Shape" class="cls-10" d="M250.6,286.6h-5.5l-2.8,4.8,2.8,4.8h5.5l2.8-4.8Zm-4.8,1.3h4.1l2,3.5-2,3.5h-4.1l-2-3.5Z"/><path id="Shape-2" data-name="Shape" class="cls-10" d="M508.3,110.7l-2.8,4.8,2.8,4.8h5.5l2.8-4.8-2.8-4.8Zm.8,8.3-2-3.5,2-3.5h4l2,3.5-2,3.5Z"/><path id="Shape-3" data-name="Shape" class="cls-10" d="M30.9,318.1l-2.8,4.8,2.8,4.8h5.5l2.8-4.8-2.8-4.8Zm.8,8.3-2-3.5,2-3.5h4l2,3.5-2,3.5Z"/><path id="Path-34" data-name="Path" class="cls-5" d="M612.4,255.6a20.7,20.7,0,1,1-20.7-20.7,20.74,20.74,0,0,1,20.7,20.7"/><path id="Path-35" data-name="Path" class="cls-11" d="M579.1,65.1a20.7,20.7,0,1,1-20.7-20.7,20.74,20.74,0,0,1,20.7,20.7"/><path id="Path-36" data-name="Path" class="cls-12" d="M194.5,213.4a20.7,20.7,0,1,1-20.7-20.7,20.74,20.74,0,0,1,20.7,20.7"/><path id="Path-37" data-name="Path" class="cls-4" d="M297.6,134.5a20.7,20.7,0,1,1-20.7-20.7,20.74,20.74,0,0,1,20.7,20.7"/><path id="Path-38" data-name="Path" class="cls-13" d="M573.5,273.8a25.83,25.83,0,0,1,0-36.4"/><path id="Path-39" data-name="Path" class="cls-13" d="M609.9,237.5a25.83,25.83,0,0,1,0,36.4"/><path id="Path-40" data-name="Path" class="cls-13" d="M583.9,65.1a25.6,25.6,0,1,1-25.6-25.6"/><path id="Path-41" data-name="Path" class="cls-13" d="M192.1,231.8a26,26,0,0,1-36.8,0"/><path id="Path-42" data-name="Path" class="cls-13" d="M155.4,195a26,26,0,0,1,36.8,0"/><path id="Path-43" data-name="Path" class="cls-13" d="M258.4,152.9a26,26,0,0,1,0-36.8"/><path id="Path-44" data-name="Path" class="cls-13" d="M295.3,116.1a26,26,0,0,1,0,36.8"/><rect id="Rectangle" class="cls-14" x="252.2" y="190.7" width="239.8" height="132.8"/><rect id="Rectangle-2" data-name="Rectangle" class="cls-15" x="278.1" y="215.6" width="4.1" height="4"/><rect id="Rectangle-3" data-name="Rectangle" class="cls-15" x="278.1" y="270.7" width="4.1" height="4"/><rect id="Rectangle-4" data-name="Rectangle" class="cls-16" x="296.1" y="270.7" width="23.8" height="4"/><rect id="Rectangle-5" data-name="Rectangle" class="cls-15" x="278.1" y="302.2" width="4.1" height="4"/><rect id="Rectangle-6" data-name="Rectangle" class="cls-16" x="296.1" y="302.2" width="23.8" height="4"/><rect id="Rectangle-7" data-name="Rectangle" class="cls-16" x="296.1" y="223.5" width="23.8" height="4"/><rect id="Rectangle-8" data-name="Rectangle" class="cls-15" x="278.1" y="223.5" width="4.1" height="4"/><rect id="Rectangle-9" data-name="Rectangle" class="cls-12" x="324.8" y="223.5" width="23.8" height="4"/><rect id="Rectangle-10" data-name="Rectangle" class="cls-15" x="278.1" y="294.3" width="4.1" height="4"/><rect id="Rectangle-11" data-name="Rectangle" class="cls-12" x="303.2" y="294.3" width="15.6" height="4"/><rect id="Rectangle-12" data-name="Rectangle" class="cls-4" x="323.6" y="294.3" width="112.6" height="4"/><rect id="Rectangle-13" data-name="Rectangle" class="cls-15" x="278.1" y="286.5" width="4.1" height="4"/><rect id="Rectangle-14" data-name="Rectangle" class="cls-17" x="303.2" y="286.5" width="32" height="4"/><rect id="Rectangle-15" data-name="Rectangle" class="cls-12" x="340.6" y="286.5" width="59.5" height="4"/><rect id="Rectangle-16" data-name="Rectangle" class="cls-4" x="405.3" y="286.5" width="8.6" height="4"/><rect id="Rectangle-17" data-name="Rectangle" class="cls-15" x="278.1" y="247.1" width="4.1" height="4"/><rect id="Rectangle-18" data-name="Rectangle" class="cls-17" x="303.2" y="247.1" width="23.4" height="4"/><rect id="Rectangle-19" data-name="Rectangle" class="cls-12" x="331.2" y="247.1" width="45.7" height="4"/><rect id="Rectangle-20" data-name="Rectangle" class="cls-15" x="278.1" y="262.8" width="4.1" height="4"/><rect id="Rectangle-21" data-name="Rectangle" class="cls-12" x="303.2" y="262.8" width="64.5" height="4"/><rect id="Rectangle-22" data-name="Rectangle" class="cls-4" x="372.2" y="262.8" width="48" height="4"/><rect id="Rectangle-23" data-name="Rectangle" class="cls-15" x="278.1" y="231.3" width="4.1" height="4"/><rect id="Rectangle-24" data-name="Rectangle" class="cls-17" x="303.2" y="231.3" width="36.9" height="4"/><rect id="Rectangle-25" data-name="Rectangle" class="cls-12" x="344.5" y="231.3" width="20.6" height="4"/><rect id="Rectangle-26" data-name="Rectangle" class="cls-4" x="369.4" y="231.3" width="38" height="4"/><rect id="Rectangle-27" data-name="Rectangle" class="cls-15" x="278.1" y="255" width="4.1" height="4"/><rect id="Rectangle-28" data-name="Rectangle" class="cls-17" x="303.2" y="255" width="51.1" height="4"/><rect id="Rectangle-29" data-name="Rectangle" class="cls-16" x="359" y="255" width="24.5" height="4"/><rect id="Rectangle-30" data-name="Rectangle" class="cls-17" x="388.1" y="255" width="52.4" height="4"/><rect id="Rectangle-31" data-name="Rectangle" class="cls-15" x="278.1" y="239.2" width="4.1" height="4"/><rect id="Rectangle-32" data-name="Rectangle" class="cls-4" x="303.2" y="239.2" width="65" height="4"/><rect id="Rectangle-33" data-name="Rectangle" class="cls-17" x="373.3" y="239.2" width="17.8" height="4"/><rect id="Rectangle-34" data-name="Rectangle" class="cls-16" x="395.6" y="239.2" width="30.5" height="4"/><rect id="Rectangle-35" data-name="Rectangle" class="cls-15" x="278.1" y="278.6" width="4.1" height="4"/><rect id="Rectangle-36" data-name="Rectangle" class="cls-4" x="303.2" y="278.6" width="85.3" height="4"/><rect id="Rectangle-37" data-name="Rectangle" class="cls-17" x="392.6" y="278.6" width="27.4" height="4"/><rect id="Rectangle-38" data-name="Rectangle" class="cls-17" x="424.5" y="278.6" width="40.1" height="4"/><polyline id="Path-45" data-name="Path" class="cls-18" points="317.2 212.9 320.7 216.3 317.2 219.6"/><polyline id="Path-46" data-name="Path" class="cls-18" points="304.3 212.9 300.8 216.3 304.3 219.6"/><path id="Path-47" data-name="Path" class="cls-18" d="M313.9,213.2l-6.4,6.2"/><polyline id="Path-48" data-name="Path" class="cls-18" points="317.2 309.3 320.7 312.7 317.2 316"/><polyline id="Path-49" data-name="Path" class="cls-18" points="304.3 309.3 300.8 312.7 304.3 316"/><path id="Path-50" data-name="Path" class="cls-18" d="M313.9,309.6l-6.4,6.2"/><path id="Path-51" data-name="Path" class="cls-18" d="M289.1,212.1V316.7"/><rect id="Rectangle-39" data-name="Rectangle" class="cls-19" x="252.3" y="191" width="239.9" height="13.2"/><path id="Shape-4" data-name="Shape" class="cls-15" d="M502.6,185.2a6.2,6.2,0,0,0-1.8-4.4,6,6,0,0,0-4.4-1.8H247.8a6,6,0,0,0-5.8,5.8V335.2H502.6v-150ZM492.1,323.5H252.3V190.7H492.1Z"/><path id="Shape-5" data-name="Shape" class="cls-20" d="M502.6,185.2a6.2,6.2,0,0,0-1.8-4.4,6,6,0,0,0-4.4-1.8H247.8a6,6,0,0,0-5.8,5.8V335.2H502.6v-150ZM492.1,323.5H252.3V190.7H492.1Z"/><path id="Path-52" data-name="Path" class="cls-20" d="M502.6,335.1H242V185.2a5.44,5.44,0,0,1,1.7-4,5.76,5.76,0,0,1,4.1-1.8H496.4a5.88,5.88,0,0,1,4.4,1.8,6,6,0,0,1,1.8,4.4V335.1Z"/><rect id="Rectangle-40" data-name="Rectangle" class="cls-20" x="252.3" y="191.1" width="239.8" height="132.8"/><path id="Path-53" data-name="Path" class="cls-20" d="M252.4,204.2H492.2"/><path id="Path-54" data-name="Path" class="cls-15" d="M460.8,197.8a2.6,2.6,0,1,1-2.6-2.6,2.65,2.65,0,0,1,2.6,2.6"/><circle id="Oval" class="cls-20" cx="458.2" cy="197.8" r="2.6"/><path id="Path-55" data-name="Path" class="cls-15" d="M482.5,197.8a2.6,2.6,0,1,1-2.6-2.6,2.65,2.65,0,0,1,2.6,2.6"/><circle id="Oval-2" data-name="Oval" class="cls-20" cx="479.9" cy="197.8" r="2.6"/><path id="Path-56" data-name="Path" class="cls-15" d="M471.6,197.8a2.6,2.6,0,1,1-2.6-2.6,2.58,2.58,0,0,1,2.6,2.6"/><circle id="Oval-3" data-name="Oval" class="cls-20" cx="469" cy="197.8" r="2.6"/><path id="Path-57" data-name="Path" class="cls-20" d="M289.5,197.6h59.7"/><path id="Path-58" data-name="Path" class="cls-20" d="M273.5,197.6h9.8"/><path id="Path-59" data-name="Path" class="cls-20" d="M259.1,197.6h9.1"/><path id="Path-60" data-name="Path" class="cls-15" d="M241.9,194.7H223.8a9.6,9.6,0,0,1-9.6-9.6V159.5a9.6,9.6,0,0,0-9.6-9.6H116.5"/><path id="Path-61" data-name="Path" class="cls-21" d="M241.9,194.7H223.8a9.6,9.6,0,0,1-9.6-9.6V159.5a9.6,9.6,0,0,0-9.6-9.6H116.5"/><path id="Path-62" data-name="Path" class="cls-15" d="M244.1,194.7a2,2,0,1,1-2-2,2,2,0,0,1,2,2"/><circle id="Oval-4" data-name="Oval" class="cls-21" cx="242.1" cy="194.7" r="2"/><path id="Path-63" data-name="Path" class="cls-21" d="M252.9,308.7H191.6a18.1,18.1,0,0,1-18.1-18.1v-52"/><path id="Path-64" data-name="Path" class="cls-15" d="M254.9,308.7a2,2,0,1,1-2-2,2,2,0,0,1,2,2"/><circle id="Oval-5" data-name="Oval" class="cls-21" cx="252.9" cy="308.7" r="2"/><path id="Path-65" data-name="Path" class="cls-21" d="M271.1,270.8H142"/><path id="Path-66" data-name="Path" class="cls-15" d="M274.1,270.8a2,2,0,1,1-2-2,2,2,0,0,1,2,2"/><circle id="Oval-6" data-name="Oval" class="cls-21" cx="272" cy="270.8" r="2"/><path id="Path-67" data-name="Path" class="cls-15" d="M175.6,239.5a2,2,0,1,1-2-2,2,2,0,0,1,2,2"/><path id="Oval-7" data-name="Oval" class="cls-21" d="M173.5,237.5a2,2,0,1,1-2,2A2,2,0,0,1,173.5,237.5Z"/><path id="Path-68" data-name="Path" class="cls-21" d="M374.5,310.8H544.4a6,6,0,0,1,6,6v10.5a6,6,0,0,0,6,6h42"/><path id="Path-69" data-name="Path" class="cls-15" d="M372.3,310.9a2,2,0,1,1,2,2,1.89,1.89,0,0,1-2-2"/><circle id="Oval-8" data-name="Oval" class="cls-21" cx="374.3" cy="310.9" r="2"/><path id="Path-70" data-name="Path" class="cls-21" d="M502.8,264.5h64.1"/><path id="Path-71" data-name="Path" class="cls-15" d="M500.6,264.5a2,2,0,1,1,2,2,2,2,0,0,1-2-2"/><circle id="Oval-9" data-name="Oval" class="cls-21" cx="502.7" cy="264.5" r="2"/><path id="Path-72" data-name="Path" class="cls-21" d="M462.1,215.2H637.3a19.1,19.1,0,0,0,19.1-19.1v-7.4"/><path id="Path-73" data-name="Path" class="cls-15" d="M459.9,215.2a2,2,0,1,1,2,2,2,2,0,0,1-2-2"/><circle id="Oval-10" data-name="Oval" class="cls-21" cx="462" cy="215.2" r="2"/><path id="Path-74" data-name="Path" class="cls-21" d="M398.7,226.2V108.8"/><path id="Path-75" data-name="Path" class="cls-15" d="M398.7,228.3a2,2,0,1,1,2-2,2,2,0,0,1-2,2"/><circle id="Oval-11" data-name="Oval" class="cls-21" cx="398.7" cy="226.2" r="2"/><path id="Path-76" data-name="Path" class="cls-21" d="M464.2,179.1V145.7a7.6,7.6,0,0,1,7.6-7.6h78.1a7.6,7.6,0,0,0,7.6-7.6V90.7"/><path id="Path-77" data-name="Path" class="cls-15" d="M464.2,181.3a2,2,0,1,1,2-2,2,2,0,0,1-2,2"/><circle id="Oval-12" data-name="Oval" class="cls-21" cx="464.2" cy="179.3" r="2"/><path id="Path-78" data-name="Path" class="cls-15" d="M371.9,179.1V141a6.49,6.49,0,0,0-6.5-6.5H303"/><path id="Path-79" data-name="Path" class="cls-21" d="M371.9,179.1V141a6.49,6.49,0,0,0-6.5-6.5H303"/><path id="Path-80" data-name="Path" class="cls-15" d="M371.9,181.3a2,2,0,1,1,2-2,2,2,0,0,1-2,2"/><circle id="Oval-13" data-name="Oval" class="cls-21" cx="371.9" cy="179.3" r="2"/><path id="Path-81" data-name="Path" class="cls-21" d="M329.1,253.9V86.1a19,19,0,0,0-18.9-18.9H245"/><path id="Path-82" data-name="Path" class="cls-15" d="M329.1,256.1a2,2,0,1,1,2-2,2,2,0,0,1-2,2"/><circle id="Oval-14" data-name="Oval" class="cls-21" cx="329.1" cy="254.1" r="2"/><path id="Path-83" data-name="Path" class="cls-19" d="M526.2,341.6v-6.5H218.3v6.4a6.56,6.56,0,0,0,2,4.9,6.79,6.79,0,0,0,5,2h294a6.72,6.72,0,0,0,4.9-2,6.06,6.06,0,0,0,2-4.8"/><path id="Path-84" data-name="Path" class="cls-20" d="M526.2,335.2H218.3v6.4a6.56,6.56,0,0,0,2,4.9,6.79,6.79,0,0,0,5,2h294a6.72,6.72,0,0,0,4.9-2,6.8,6.8,0,0,0,2-4.9v-6.4Z"/><path id="Path-85" data-name="Path" class="cls-20" d="M526.1,343H218.4"/><path id="Path-86" data-name="Path" class="cls-13" d="M200.3,25.2a44,44,0,1,1-44,44"/><path id="Path-87" data-name="Path" class="cls-13" d="M29.9,140.2a44,44,0,1,1,44,44"/><path id="Path-88" data-name="Path" class="cls-13" d="M684.9,321.7a44,44,0,1,1-44-44"/><path id="Path-89" data-name="Path" class="cls-13" d="M432.7,72.1a37.3,37.3,0,1,1-37.3-37.3"/><path id="Path-90" data-name="Path" class="cls-13" d="M658.1,79.6a54.6,54.6,0,1,1-54.6,54.6"/><path id="Path-91" data-name="Path" class="cls-13" d="M91.8,229.5a51.7,51.7,0,1,1-51.7,51.7"/><path id="Path-92" data-name="Path" class="cls-15" d="M119,149.7a2,2,0,1,1-2-2,2,2,0,0,1,2,2"/><circle id="Oval-15" data-name="Oval" class="cls-21" cx="117" cy="149.7" r="2"/><path id="Path-93" data-name="Path" class="cls-15" d="M246.5,67.2a2,2,0,1,1-2-2,2,2,0,0,1,2,2"/><circle id="Oval-16" data-name="Oval" class="cls-21" cx="244.5" cy="67.2" r="2"/><path id="Path-94" data-name="Path" class="cls-15" d="M305,134.5a2,2,0,1,1-2-2,1.89,1.89,0,0,1,2,2"/><circle id="Oval-17" data-name="Oval" class="cls-21" cx="303" cy="134.5" r="2"/><path id="Path-95" data-name="Path" class="cls-15" d="M658.4,188.9a2,2,0,1,1-2-2,2,2,0,0,1,2,2"/><circle id="Oval-18" data-name="Oval" class="cls-21" cx="656.4" cy="188.9" r="2"/><path id="Path-96" data-name="Path" class="cls-15" d="M569.4,264.4a2,2,0,1,1-2-2,2,2,0,0,1,2,2"/><circle id="Oval-19" data-name="Oval" class="cls-21" cx="567.4" cy="264.4" r="2"/><path id="Path-97" data-name="Path" class="cls-15" d="M600.3,333.2a2,2,0,1,1-2-2,2.07,2.07,0,0,1,2,2"/><circle id="Oval-20" data-name="Oval" class="cls-21" cx="598.2" cy="333.2" r="2"/><path id="Path-98" data-name="Path" class="cls-15" d="M559.4,90.8a2,2,0,1,1-2-2,2,2,0,0,1,2,2"/><circle id="Oval-21" data-name="Oval" class="cls-21" cx="557.4" cy="90.8" r="2"/><path id="Path-99" data-name="Path" class="cls-15" d="M400.8,109.2a2,2,0,1,1-2-2,2,2,0,0,1,2,2"/><circle id="Oval-22" data-name="Oval" class="cls-21" cx="398.8" cy="109.2" r="2"/><path id="Path-100" data-name="Path" class="cls-15" d="M144.5,270.8a2,2,0,1,1-2-2,2,2,0,0,1,2,2"/><circle id="Oval-23" data-name="Oval" class="cls-21" cx="142.5" cy="270.8" r="2"/><g id="Group-5" data-name="Group" class="cls-1"><g id="Clipped-5" data-name="Clipped"><path id="Path-101" data-name="Path" d="M144.1,134.7a18.14,18.14,0,0,1,32.3-10.9,7.92,7.92,0,0,1,14.7,1.9,9.86,9.86,0,0,1,3.8-.7,9.75,9.75,0,0,1,5.6,1.7,12.7,12.7,0,0,1,9-3.7,12.57,12.57,0,0,1,11.8,8,6,6,0,0,1,4.5-1.9,6.12,6.12,0,0,1,6.1,5.7l-87.8-.1Z"/></g></g><path id="Path-102" data-name="Path" class="cls-22" d="M283.5,140.5h1.8s5.4-.7,5.4-6a6.06,6.06,0,0,0-6.2-6,8.37,8.37,0,0,0-7.6-4.8,8.27,8.27,0,0,0-8.3,7.9,4.45,4.45,0,0,0-5.4,4.4c0,4.6,4.8,4.5,4.8,4.5h2.4"/><path id="Path-103" data-name="Path" class="cls-22" d="M277,147.3V134.8"/><polyline id="Path-104" data-name="Path" class="cls-22" points="273.2 143.6 277 147.3 280.7 143.6"/><circle id="Oval-24" data-name="Oval" class="cls-23" cx="580.7" cy="263.8" r="2.6"/><circle id="Oval-25" data-name="Oval" class="cls-23" cx="587.5" cy="251.7" r="2.6"/><circle id="Oval-26" data-name="Oval" class="cls-23" cx="594.9" cy="258" r="2.6"/><circle id="Oval-27" data-name="Oval" class="cls-23" cx="599.7" cy="244.8" r="2.6"/><path id="Path-105" data-name="Path" class="cls-23" d="M582,261.5l4.3-7.6"/><path id="Path-106" data-name="Path" class="cls-23" d="M589.5,253.4l3.4,2.9"/><path id="Path-107" data-name="Path" class="cls-23" d="M595.8,255.5l3-8.2"/><circle id="Oval-28" data-name="Oval" class="cls-23" cx="560.1" cy="62.7" r="4.3"/><circle id="Oval-29" data-name="Oval" class="cls-23" cx="547.8" cy="57.3" r="1.6"/><circle id="Oval-30" data-name="Oval" class="cls-23" cx="569.2" cy="53.5" r="1.6"/><circle id="Oval-31" data-name="Oval" class="cls-23" cx="547.8" cy="75" r="1.6"/><circle id="Oval-32" data-name="Oval" class="cls-23" cx="560.1" cy="75" r="1.6"/><path id="Path-108" data-name="Path" class="cls-23" d="M548.9,73.9l8.2-8.1"/><path id="Path-109" data-name="Path" class="cls-23" d="M563.1,59.6l4.9-4.9"/><path id="Path-110" data-name="Path" class="cls-23" d="M549.2,58l6.9,3"/><path id="Path-111" data-name="Path" class="cls-23" d="M567.7,66.4l-3.9-1.6"/><path id="Path-112" data-name="Path" class="cls-23" d="M560.1,73.4V67"/><circle id="Oval-33" data-name="Oval" class="cls-23" cx="569.2" cy="66.9" r="1.6"/><circle id="Oval-34" data-name="Oval" class="cls-23" cx="166.5" cy="219.2" r="3.9"/><circle id="Oval-35" data-name="Oval" class="cls-23" cx="181.2" cy="219.2" r="3.9"/><circle id="Oval-36" data-name="Oval" class="cls-23" cx="173.9" cy="204.6" r="3.9"/><path id="Path-113" data-name="Path" class="cls-23" d="M170.4,219.2h6.8"/><path id="Path-114" data-name="Path" class="cls-23" d="M175.8,207.9l3.8,7.7"/><path id="Path-115" data-name="Path" class="cls-23" d="M171.9,208l-3.8,7.6"/><path id="Path-116" data-name="Path" class="cls-24" d="M100.2,265.6h.2l-.1-.1,8.2-8.2v-.1a26.6,26.6,0,0,0-43.2,12.9.6.6,0,0,1,.4-.1,19.62,19.62,0,0,1,10.4-3.2,15,15,0,0,1,3.7.4c.1,0,.1-.1.2,0a14.78,14.78,0,0,1,20.2-1.6Z"/><path id="Path-117" data-name="Path" class="cls-25" d="M116.6,270.1a26.43,26.43,0,0,0-8-12.9l-8.3,8.3a14.79,14.79,0,0,1,5.4,11.7v1.5c9.8,0,9.8,14.7,0,14.7H91v11.7h-.1l.1.1h14.7a19.19,19.19,0,0,0,10.9-35.1"/><path id="Path-118" data-name="Path" class="cls-26" d="M76.2,305.1H90.9V293.3H76.2a6.3,6.3,0,0,1-3-.7l-8.5,8.5v.1a19,19,0,0,0,11.5,3.9"/><path id="Path-119" data-name="Path" class="cls-27" d="M76.2,266.8a19.12,19.12,0,0,0-11.5,34.3l8.5-8.5a7.34,7.34,0,1,1,9.7-9.7l8.5-8.5a18.94,18.94,0,0,0-15.2-7.6"/><path id="Shape-6" data-name="Shape" class="cls-28" d="M663.4,301.7a2.48,2.48,0,0,0-2.5-2.5H620.4a2.48,2.48,0,0,0-2.5,2.5v39.5a2.48,2.48,0,0,0,2.5,2.5h40.5a2.48,2.48,0,0,0,2.5-2.5ZM639.7,330a13,13,0,0,0,3.9-.8.31.31,0,0,1,.4.2,13.28,13.28,0,0,0,3,4c.2.2-.2.4-.2.4a14.9,14.9,0,0,1-7.1,1.7,14.38,14.38,0,0,1-14.8-14.1,13.89,13.89,0,0,1,14.5-14.2,16.65,16.65,0,0,1,8.4,2.5c.6.4.5.5.4.7a35.13,35.13,0,0,0-2.4,3.9.35.35,0,0,1-.5.1,10.62,10.62,0,0,0-6.2-1.8c-4.7,0-8.3,3.7-8.3,8.7A8.88,8.88,0,0,0,639.7,330Zm12.6.5a4,4,0,1,1,4-4A4.08,4.08,0,0,1,652.3,330.5Z"/><path id="Shape-7" data-name="Shape" class="cls-29" d="M640.7,133.5a6.71,6.71,0,0,0,.3,2.3c.2.6.5,1.2.8,1.9a1.42,1.42,0,0,1,.2.6c0,.3-.2.5-.5.8l-1.7,1.1a1,1,0,0,1-.7.2,1,1,0,0,1-.8-.4,10.59,10.59,0,0,1-1-1.2,11.88,11.88,0,0,1-.8-1.6,9.81,9.81,0,0,1-7.8,3.6,7.19,7.19,0,0,1-5.3-1.9,6.93,6.93,0,0,1-2-5.1,6.71,6.71,0,0,1,2.4-5.4,9.58,9.58,0,0,1,6.5-2.1c.9,0,1.8.1,2.8.2a15.94,15.94,0,0,1,3,.6v-1.9q0-3-1.2-4.2c-.8-.8-2.3-1.2-4.3-1.2a15,15,0,0,0-2.9.3,16.12,16.12,0,0,0-2.9.9,2.3,2.3,0,0,1-.9.3.76.76,0,0,1-.4.1c-.4,0-.6-.3-.6-.8v-1.3a2,2,0,0,1,.2-.9,2.17,2.17,0,0,1,.7-.6,12.67,12.67,0,0,1,3.3-1.2,18.41,18.41,0,0,1,4.1-.5q4.65,0,6.9,2.1c1.5,1.4,2.2,3.6,2.2,6.5l.4,8.8Zm-10.7,4a8.57,8.57,0,0,0,2.7-.5,5.89,5.89,0,0,0,2.5-1.7,5.56,5.56,0,0,0,.9-1.7,7.55,7.55,0,0,0,.3-2.3v-1.1a20,20,0,0,0-2.4-.4,21.05,21.05,0,0,0-2.5-.2c-1.8,0-3.1.3-3.9,1.1a4.25,4.25,0,0,0-.3,5.8A3.09,3.09,0,0,0,630,137.5Zm21.2,2.8a1.33,1.33,0,0,1-1-.3,2.89,2.89,0,0,1-.6-1l-6.2-20.4a2.8,2.8,0,0,1-.2-1.1c0-.4.2-.7.6-.7h2.6a1.33,1.33,0,0,1,1,.3,1.87,1.87,0,0,1,.5,1l4.4,17.5,4.1-17.5a1.54,1.54,0,0,1,.5-1,1.61,1.61,0,0,1,1.1-.3h2.1a1.8,1.8,0,0,1,1.1.3,1.87,1.87,0,0,1,.5,1l4.2,17.7,4.6-17.7c.2-.5.3-.9.5-1a1.49,1.49,0,0,1,1-.3h2.5a.63.63,0,0,1,.7.7.6.6,0,0,1-.1.4,2.54,2.54,0,0,1-.2.7L668.5,139c-.2.5-.3.9-.6,1a1.49,1.49,0,0,1-1,.3h-2.3a1.8,1.8,0,0,1-1.1-.3,1.87,1.87,0,0,1-.5-1.1l-4.1-17-4.1,17a2.26,2.26,0,0,1-.5,1.1,1.61,1.61,0,0,1-1.1.3Zm33.9.8a19.15,19.15,0,0,1-4.1-.5,10,10,0,0,1-3-1.1,1.9,1.9,0,0,1-.8-.7,1.85,1.85,0,0,1-.2-.7v-1.3c0-.6.2-.8.6-.8a.9.9,0,0,1,.5.1,4.88,4.88,0,0,0,.7.3,14,14,0,0,0,2.9.9,17.09,17.09,0,0,0,3.1.3,7,7,0,0,0,3.9-.9,2.85,2.85,0,0,0,1.4-2.5,2.41,2.41,0,0,0-.7-1.8,6.66,6.66,0,0,0-2.7-1.4l-3.8-1.2a7.71,7.71,0,0,1-4.2-2.7,6.24,6.24,0,0,1-1.3-3.8,5.43,5.43,0,0,1,.7-2.9,7.94,7.94,0,0,1,1.9-2.2,8.67,8.67,0,0,1,2.7-1.4,12.42,12.42,0,0,1,3.3-.4,10.87,10.87,0,0,1,1.8.1c.6.1,1.2.2,1.7.3s1,.3,1.5.4a5.82,5.82,0,0,1,1.1.5,1.85,1.85,0,0,1,.8.7c.2.2.2.5.2.9v1.2c0,.6-.2.8-.6.8a2.65,2.65,0,0,1-1-.3,11.91,11.91,0,0,0-5.1-1,6.78,6.78,0,0,0-3.5.7,2.62,2.62,0,0,0-1.2,2.4,2.73,2.73,0,0,0,.8,1.9,8.39,8.39,0,0,0,2.9,1.5l3.8,1.2a8.47,8.47,0,0,1,4.1,2.5,6.07,6.07,0,0,1,1.2,3.7,6.43,6.43,0,0,1-.7,3.1,7.1,7.1,0,0,1-1.9,2.3,8.86,8.86,0,0,1-2.9,1.5C687.7,140.9,686.4,141.1,685.1,141.1Z"/><path id="Shape-8" data-name="Shape" class="cls-30" d="M690.1,153.9c-8.7,6.4-21.3,9.8-32.2,9.8a58.15,58.15,0,0,1-39.3-15c-.8-.7-.1-1.7.9-1.2a78.31,78.31,0,0,0,69.3,4.3c1.5-.6,2.7,1,1.3,2.1m3.6-4.1c-1.1-1.4-7.3-.7-10.2-.3-.8.1-1-.6-.2-1.2,5-3.5,13.1-2.5,14.1-1.3s-.3,9.3-4.9,13.3c-.7.6-1.4.3-1.1-.5,1.1-2.7,3.4-8.6,2.3-10"/><path id="Shape-9" data-name="Shape" class="cls-31" d="M103.4,120.8h-2.2a1.2,1.2,0,0,0-1.2.9l-2.9,12.2a25,25,0,0,1,3.8,1.5l3.2-13.7a.72.72,0,0,0-.5-.9Zm-6,3.8H95.2a1.2,1.2,0,0,0-1.2.9l-1.7,7.3a28.75,28.75,0,0,1,4,.9l1.9-8.1a.72.72,0,0,0-.5-.9A.77.77,0,0,0,97.4,124.6Zm-11.3,4.7H83.9a1.2,1.2,0,0,0-1.2.9l-.5,2a4.1,4.1,0,0,0,1.1-.1h3.1l.5-2a.72.72,0,0,0-.5-.9l-.3.1Zm5.8-2.6H89.7a1.2,1.2,0,0,0-1.2.9l-1.1,4.6c1.5.1,2.8.2,4.1.4l1.2-5a.72.72,0,0,0-.5-.9Z"/><path id="Path-120" data-name="Path" class="cls-32" d="M40.6,137.2a1.3,1.3,0,0,1,1.3-1h2.2a.94.94,0,0,1,1,1v1.6c0,.6-.1,1.5-.1,2.1v1.2c-.1,1.1-.1,2-.2,3.2.3-.6.6-1.4.9-2.2a19.47,19.47,0,0,1,.9-2l1.8-4a2,2,0,0,1,1.5-1h2.2a1,1,0,0,1,.9.8v.3l-2.5,10.9a1.3,1.3,0,0,1-1.3,1h-.8a.77.77,0,0,1-.8-.7v-.3l1.9-7.6c.1-.6.1-.6-.2-.1l-3.5,7.7a2,2,0,0,1-1.5,1h-.5a1.11,1.11,0,0,1-1.1-1.1l.1-7.5c0-.6-.1-.6-.2,0L41,148a1.3,1.3,0,0,1-1.3,1h-.8a1,1,0,0,1-.9-.8v-.3Z"/><path id="Shape-10" data-name="Shape" class="cls-32" d="M59.3,148c0,.1-.1.3-.1.4a.91.91,0,0,0,.3.7H57.2c-.6,0-1-.2-.9-.5s-.2-.2-.7.2a3,3,0,0,1-1.8.6,1.75,1.75,0,0,1-1.9-1.8,6.27,6.27,0,0,1,1-3c.6-.7,1.5-.9,4.9-1.9a5,5,0,0,0,.2-1.2c0-.5-.5-.6-.8-.6-.8,0-1,.4-1.2,1.4H54.3a.77.77,0,0,1-.8-.7.37.37,0,0,1,.1-.3,3.65,3.65,0,0,1,1.2-1.7,5.75,5.75,0,0,1,2.6-.5c1.7,0,3.4.4,3.4,2.1v.4c-.1.4-.3,1.2-.4,1.8Zm-2-3.5a8.39,8.39,0,0,0-1.9.7,2.46,2.46,0,0,0-.6,1.6.56.56,0,0,0,.5.6h.6a3.19,3.19,0,0,0,.9-1.6Z"/><path id="Path-121" data-name="Path" class="cls-32" d="M65.4,141.3a3.22,3.22,0,0,1,3-2.1l-.5,1.7c-.1.6-.4,1-.7,1H67c-1.6,0-1.9.7-2.3,2.5l-.9,3.7a1.3,1.3,0,0,1-1.3,1h-.8a1,1,0,0,1-.9-.8V148l1.8-7.8a1.3,1.3,0,0,1,1.3-1h.8a1,1,0,0,1,.9.8v.3Z"/><path id="Path-122" data-name="Path" class="cls-32" d="M71.6,136.2a1,1,0,0,1,.9.8v.3L71.4,142c-.1.6.1.7.4.2l1.7-2.1a2.29,2.29,0,0,1,1.7-.8h1.2c.6,0,.7.4.4.8l-2.4,2.7a2,2,0,0,0-.4,1.8l1.1,3.5a.82.82,0,0,1-.4,1c-.1,0-.2.1-.3.1h-.9a1.3,1.3,0,0,1-1.3-1l-.8-3.2c-.1-.6-.4-.6-.5,0l-.7,3.2a1.3,1.3,0,0,1-1.3,1h-.8a1,1,0,0,1-.9-.8v-.3l2.5-10.9a1.3,1.3,0,0,1,1.3-1Z"/><path id="Shape-11" data-name="Shape" class="cls-32" d="M84.3,145.9a4.87,4.87,0,0,1-1,2.2,4.42,4.42,0,0,1-3.3,1.2,5.16,5.16,0,0,1-2.7-.7,2.27,2.27,0,0,1-.8-1.9,26,26,0,0,1,1.2-5.6c.3-.8,1.1-2,3.8-2,1.2,0,3.5.2,3.5,2.4a5,5,0,0,1-.2,1.2,22.5,22.5,0,0,1-.5,2.2H80.7a1.3,1.3,0,0,0-1.3,1,2,2,0,0,0-.1.8.37.37,0,0,0,.1.3.91.91,0,0,0,.8.4c.8,0,.9-.4.9-.4a1.3,1.3,0,0,1,1.3-1ZM82,143.1c.1-.4.2-.9.3-1.3a.75.75,0,0,0-.1-.5.91.91,0,0,0-.7-.3c-.9,0-1.1,1-1.1,1a.89.89,0,0,0,.6,1h.2l.8.1Z"/><path id="Path-123" data-name="Path" class="cls-32" d="M88,137.2a1.3,1.3,0,0,1,1.3-1H90a1,1,0,0,1,.9.8v.3l-.2,1.1c-.1.6.1,1,.4,1s.6.4.4.9a1.06,1.06,0,0,1-.9.9c-.4,0-.7.5-.9,1l-.7,3c-.1.6-.3,1.2-.3,1.4v.1c0,.5.4.5,1.2.5l-.2.8a1.3,1.3,0,0,1-1.3,1s-2.8,0-2.8-1.5a2.92,2.92,0,0,1,.2-.9l1.1-4.6c.1-.6,0-1-.3-1s-.5-.4-.4-.9.5-.9.8-.9.7-.5.8-1Z"/><path id="Shape-12" data-name="Shape" class="cls-32" d="M99.7,141.7a27.1,27.1,0,0,1-1.1,5.1c-.4,1-.9,2.5-3.8,2.5-2.2,0-3.6-.7-3.6-2.7a25.07,25.07,0,0,1,1-4.8,3.43,3.43,0,0,1,3.7-2.8C97.4,139.1,99.7,139.3,99.7,141.7Zm-2.9.4c0-.1.1-.3.1-.4a.68.68,0,0,0-.7-.7H96c-.8,0-.9.7-1,1.1l-.7,2.9c-.1.6-.3,1.2-.3,1.4v.2a.85.85,0,0,0,.7.8h.1c.8,0,.9-.3.9-.3.1-.6.4-1.5.5-2.1Z"/><path id="Shape-13" data-name="Shape" class="cls-32" d="M101.7,139.1a1.3,1.3,0,1,1-1.3,1.3,1.32,1.32,0,0,1,1.3-1.3Zm0,.2a1.05,1.05,0,1,0,1,1.1h0A1,1,0,0,0,101.7,139.3Zm-.2,1.8h-.3v-1.4h.4a.9.9,0,0,1,.5.1.37.37,0,0,1,.1.3.32.32,0,0,1-.3.3.52.52,0,0,1,.2.4.76.76,0,0,0,.1.4H102c-.1-.1-.1-.2-.1-.4a.22.22,0,0,0-.2-.2h-.1v.5Zm0-.9h.1c.2,0,.3-.1.3-.2s-.1-.2-.3-.2h-.1Z"/><path id="Path-124" data-name="Path" class="cls-33" d="M391.1,57.1a9.28,9.28,0,0,1,6.8-2.9,9.71,9.71,0,0,1,8.3,4.9,12,12,0,0,1,4.7-1,11.7,11.7,0,0,1,0,23.4,17.85,17.85,0,0,1-2.3-.2,8.33,8.33,0,0,1-7.4,4.3,7.79,7.79,0,0,1-3.7-.9,9.69,9.69,0,0,1-18-.4,11,11,0,0,1-1.8.2,9,9,0,0,1-9-9.1,8.83,8.83,0,0,1,4.5-7.8,9.78,9.78,0,0,1-.9-4.1,10.54,10.54,0,0,1,18.8-6.4"/><path id="Path-125" data-name="Path" class="cls-15" d="M376.5,72.5v.1c.1.1.2.1.3.2a3.17,3.17,0,0,0,1.6.4c1.1,0,1.8-.6,1.8-1.5h0c0-.9-.8-1.2-1.5-1.4h-.1c-.5-.2-1-.3-1-.7h0c0-.3.3-.5.7-.5a3.26,3.26,0,0,1,1.4.4s.1.1.1,0a4.17,4.17,0,0,1,.2-.6c0-.1,0-.1-.1-.1a2.73,2.73,0,0,0-1.6-.4h-.1a1.53,1.53,0,0,0-1.7,1.5h0c0,.9.8,1.2,1.5,1.4h.1c.5.2,1,.3,1,.7h0c0,.3-.3.6-.8.6a2.46,2.46,0,0,1-1.4-.4c-.1,0-.1-.1-.2-.1s-.1-.1-.1,0Z"/><path id="Path-126" data-name="Path" class="cls-15" d="M392.6,72.5v.1c.1.1.2.1.3.2a3.17,3.17,0,0,0,1.6.4c1.1,0,1.8-.6,1.8-1.5h0c0-.9-.8-1.2-1.5-1.4h-.1c-.5-.2-1-.3-1-.7h0c0-.3.3-.5.7-.5a3.26,3.26,0,0,1,1.4.4s.1.1.1,0a4.17,4.17,0,0,1,.2-.6c0-.1,0-.1-.1-.1a2.73,2.73,0,0,0-1.6-.4h-.1a1.53,1.53,0,0,0-1.7,1.5h0c0,.9.8,1.2,1.5,1.4h.1c.5.2,1,.3,1,.7h0c0,.3-.3.6-.8.6a2.46,2.46,0,0,1-1.4-.4c-.1,0-.1-.1-.2-.1h-.1Z"/><path id="Shape-14" data-name="Shape" class="cls-15" d="M404.5,69.7a2,2,0,0,0-.4-.8,1.79,1.79,0,0,0-.7-.5,2.6,2.6,0,0,0-2,0,1.79,1.79,0,0,0-.7.5,2,2,0,0,0-.4.8,5,5,0,0,0,0,2,2,2,0,0,0,.4.8,1.79,1.79,0,0,0,.7.5,2.6,2.6,0,0,0,2,0,1.79,1.79,0,0,0,.7-.5,2,2,0,0,0,.4-.8,3.08,3.08,0,0,0,.1-1,1.64,1.64,0,0,0-.1-1m-.9.9a2.5,2.5,0,0,1-.3,1.3,1.21,1.21,0,0,1-1.8,0,2.27,2.27,0,0,1-.3-1.3,1.92,1.92,0,0,1,.3-1.2,1.21,1.21,0,0,1,1.8,0,2.13,2.13,0,0,1,.3,1.2"/><path id="Path-127" data-name="Path" class="cls-15" d="M412.1,72.2a.1.1,0,0,0-.1-.1.6.6,0,0,1-.4.1h-.5a1.5,1.5,0,0,1-1.1-.4,1.7,1.7,0,0,1-.4-1.3,1.59,1.59,0,0,1,.4-1.2,1.16,1.16,0,0,1,1-.4,3.08,3.08,0,0,1,1,.1.1.1,0,0,0,.1-.1c.1-.2.1-.4.2-.6s0-.1-.1-.1a2.07,2.07,0,0,1-.6-.2h-.7a3,3,0,0,0-1,.2,1.79,1.79,0,0,0-.7.5,2,2,0,0,0-.4.8,3.08,3.08,0,0,0-.1,1,2.44,2.44,0,0,0,.6,1.8,2.14,2.14,0,0,0,1.8.7,4.44,4.44,0,0,0,1.3-.2s.1,0,0-.1Z"/><path id="Shape-15" data-name="Shape" class="cls-15" d="M416.8,69.5a2.15,2.15,0,0,0-.4-.7,2.65,2.65,0,0,0-.6-.5,2.92,2.92,0,0,0-.9-.2,3,3,0,0,0-1,.2,1.79,1.79,0,0,0-.7.5,2,2,0,0,0-.4.8,5,5,0,0,0,0,2,1.37,1.37,0,0,0,.5.8,2.18,2.18,0,0,0,.8.5,3.78,3.78,0,0,0,2.7-.1s.1-.1,0-.1l-.2-.6a.1.1,0,0,0-.1-.1,2.75,2.75,0,0,1-1.3.2,1.37,1.37,0,0,1-1.1-.4,2.32,2.32,0,0,1-.4-1h3.1a.1.1,0,0,0,.1-.1A2.74,2.74,0,0,0,416.8,69.5Zm-3.1.6a.91.91,0,0,1,.3-.7,1.06,1.06,0,0,1,1.8,0,1.45,1.45,0,0,1,.2.7Z"/><path id="Shape-16" data-name="Shape" class="cls-15" d="M391.9,69.5a2.15,2.15,0,0,0-.4-.7,2.65,2.65,0,0,0-.6-.5,2.92,2.92,0,0,0-.9-.2,3,3,0,0,0-1,.2,1.79,1.79,0,0,0-.7.5,2,2,0,0,0-.4.8,5.05,5.05,0,0,0,0,2,1.37,1.37,0,0,0,.5.8,2.18,2.18,0,0,0,.8.5,3.78,3.78,0,0,0,2.7-.1s.1-.1,0-.1l-.2-.6a.1.1,0,0,0-.1-.1,2.75,2.75,0,0,1-1.3.2,1.37,1.37,0,0,1-1.1-.4,2.32,2.32,0,0,1-.4-1h3.1a.1.1,0,0,0,.1-.1A2.74,2.74,0,0,0,391.9,69.5Zm-3.1.6a.91.91,0,0,1,.3-.7,1.06,1.06,0,0,1,1.8,0,1.45,1.45,0,0,1,.2.7Z"/><path id="Shape-17" data-name="Shape" class="cls-15" d="M383.3,70h-.5a2.2,2.2,0,0,0-.8.1,3.33,3.33,0,0,0-.6.3c-.2.1-.3.3-.5.5a1.45,1.45,0,0,0-.2.7,1.48,1.48,0,0,0,.1.7,1,1,0,0,0,.4.5l.6.3a2,2,0,0,0,.8.1,2.77,2.77,0,0,0,.9-.1c.3-.1.7-.1.8-.2a.35.35,0,0,0,.2-.1.1.1,0,0,0,.1-.1V69.9a2,2,0,0,0-.5-1.4,2,2,0,0,0-1.4-.4,2.2,2.2,0,0,0-.8.1,2.18,2.18,0,0,0-1,.4s-.1,0,0,.1l.2.6a.1.1,0,0,0,.1.1h.1a3.64,3.64,0,0,1,1.4-.3,1.88,1.88,0,0,1,.8.2c.2.1.3.3.3.7v.1a1.75,1.75,0,0,0-.5-.1M382,72.2l-.2-.2c-.1-.1-.1-.2-.1-.4a.6.6,0,0,1,.3-.6,1.72,1.72,0,0,1,.9-.2,3.78,3.78,0,0,1,.8.1v1.4a3.78,3.78,0,0,1-.8.1,1.72,1.72,0,0,1-.9-.2"/><path id="Path-128" data-name="Path" class="cls-15" d="M408.4,68.4v-.1a4.33,4.33,0,0,0-.5-.1,1.72,1.72,0,0,0-.8.1,1,1,0,0,0-.5.4v-.4c0-.1,0-.1-.1-.1h-.8c-.1,0-.1,0-.1.1v4.6c0,.1,0,.1.1.1h.8c.1,0,.1,0,.1-.1V70.6a2,2,0,0,1,.1-.8c.1-.2.2-.3.3-.5a.52.52,0,0,1,.4-.2c.1,0,.3-.1.4-.1h.3c.1,0,.1,0,.1-.1a2.57,2.57,0,0,0,.2-.5"/><path id="Path-129" data-name="Path" class="cls-15" d="M400.7,66.2c-.1,0-.2-.1-.3-.1H400a1.73,1.73,0,0,0-1.3.5,2.59,2.59,0,0,0-.6,1.4v.2h-.7a.1.1,0,0,0-.1.1l-.1.6c0,.1,0,.1.1.1h.7l-.7,3.9c-.1.3-.1.6-.2.8s-.1.3-.2.4-.2.2-.3.2-.2.1-.4.1H396c-.1,0-.1,0-.2-.1a.1.1,0,0,0-.1.1,4.17,4.17,0,0,1-.2.6v.1c.1,0,.2.1.3.1h.5a2.2,2.2,0,0,0,.8-.1,2.09,2.09,0,0,0,.6-.4,1.61,1.61,0,0,0,.4-.7c.1-.3.2-.6.3-1l.7-4h1a.1.1,0,0,0,.1-.1l.1-.6c0-.1,0-.1-.1-.1h-1s.1-.4.2-.7c0-.1.1-.3.2-.3s.2-.1.3-.2h.9l.2-.7a.44.44,0,0,1-.3-.1"/><path id="Path-130" data-name="Path" class="cls-15" d="M386.8,73h0l-.9.1c-.1,0-.1,0-.1-.1V66.4c0-.1,0-.1.1-.1h.8c.1,0,.1,0,.1.1Z"/><polygon id="Path-131" data-name="Path" class="cls-34" points="206.1 47.5 197.4 64.9 212.6 82.5 184.4 85.8 228.2 86.2 206.1 47.5"/><polygon id="Path-132" data-name="Path" class="cls-34" points="204.4 40.7 184.5 57.3 169.8 82.1 182.3 80.8 204.4 40.7"/></svg>