<?xml version="1.0" encoding="utf-8"?>
<!-- Generator: Adobe Illustrator 22.1.0, SVG Export Plug-In . SVG Version: 6.00 Build 0)  -->
<svg version="1.1" id="Layer_wedg1" xmlns="http://www.w3.org/2000/svg" xmlns:xlink="http://www.w3.org/1999/xlink" x="0px" y="0px"
	 viewBox="0 0 750 400" enable-background="new 0 0 750 400" xml:space="preserve">
<path opacity="0.14" d="M181.7,225c-0.4-16.7-14-30.1-30.8-30.1c-9.7,0-18.4,4.5-24,11.5c-2.3-4.2-6.8-7.1-11.9-7.1
	c-6.4,0-11.7,4.4-13.1,10.3c-2-0.8-4.2-1.3-6.5-1.3c-3.5,0-6.8,1-9.5,2.8c-3.9-3.9-9.3-6.3-15.3-6.3c-9.1,0-16.9,5.7-20.1,13.6
	c-1.9-2-4.6-3.3-7.6-3.3c-5.5,0-10,4.3-10.4,9.7H181.7z"/>
<path opacity="0.14" d="M569.5,372.2c0.3-13.6,11.4-24.5,25.1-24.5c7.9,0,15,3.7,19.6,9.4c1.9-3.5,5.5-5.8,9.7-5.8
	c5.2,0,9.5,3.6,10.7,8.4c1.6-0.7,3.4-1,5.3-1c2.9,0,5.5,0.9,7.7,2.3c3.2-3.2,7.6-5.1,12.5-5.1c7.4,0,13.8,4.6,16.4,11.1
	c1.6-1.6,3.8-2.7,6.2-2.7c4.5,0,8.2,3.5,8.5,7.9H569.5z"/>
<path opacity="0.14" d="M518.7,106.5c0.4-16.3,13.7-29.4,30.1-29.4c9.5,0,18,4.4,23.5,11.3c2.2-4.1,6.6-7,11.7-7
	c6.2,0,11.4,4.3,12.9,10.1c2-0.8,4.1-1.2,6.4-1.2c3.4,0,6.6,1,9.3,2.8c3.8-3.8,9.1-6.2,15-6.2c8.9,0,16.6,5.5,19.7,13.4
	c1.9-2,4.5-3.2,7.4-3.2c5.4,0,9.8,4.2,10.2,9.5H518.7z"/>
<path opacity="0.14" d="M298.7,42.9c0.2-8.1,6.8-14.6,15-14.6c4.7,0,8.9,2.2,11.7,5.6c1.1-2.1,3.3-3.5,5.8-3.5c3.1,0,5.7,2.1,6.4,5
	c1-0.4,2-0.6,3.2-0.6c1.7,0,3.3,0.5,4.6,1.4c1.9-1.9,4.5-3.1,7.4-3.1c4.4,0,8.2,2.7,9.8,6.6c0.9-1,2.2-1.6,3.7-1.6
	c2.7,0,4.9,2.1,5.1,4.7H298.7z"/>
<g transform="matrix( 1, 0, 0, 1, -287.6,-198.6) ">
	<g>
		<g id="Layer8_3_FILL_4_">
			<path fill="#B9D432" d="M950.6,533.3c0-0.5-0.2-0.9-0.6-1.2c-0.4-0.4-0.7-0.6-1.2-0.6s-0.9,0.2-1.3,0.6c-0.4,0.4-0.6,0.7-0.6,1.2
				s0.2,0.9,0.6,1.3c0.4,0.4,0.7,0.5,1.3,0.5c0.5,0,0.9-0.2,1.2-0.5C950.4,534.2,950.6,533.7,950.6,533.3z"/>
		</g>
	</g>
</g>
<g transform="matrix( 1, 0, 0, 1, -287.6,-198.6) ">
	<g>
		<g id="Layer8_3_FILL_3_">
			<path fill="#B9D432" d="M823.3,335.5c0-0.5-0.2-0.9-0.6-1.2c-0.4-0.4-0.7-0.6-1.2-0.6s-0.9,0.2-1.3,0.6c-0.4,0.4-0.6,0.7-0.6,1.2
				c0,0.5,0.2,0.9,0.6,1.3c0.4,0.4,0.7,0.5,1.3,0.5c0.5,0,0.9-0.2,1.2-0.5C823.1,336.4,823.3,336,823.3,335.5z"/>
		</g>
	</g>
</g>
<g transform="matrix( 1, 0, 0, 1, -287.6,-198.6) ">
	<g>
		<g id="Layer8_3_FILL_2_">
			<path fill="#B9D432" d="M995.1,309.9c0-0.5-0.2-0.9-0.6-1.2c-0.4-0.4-0.7-0.6-1.2-0.6c-0.5,0-0.9,0.2-1.3,0.6
				c-0.4,0.4-0.6,0.7-0.6,1.2s0.2,0.9,0.6,1.3c0.4,0.4,0.7,0.5,1.3,0.5c0.5,0,0.9-0.2,1.2-0.5C994.9,310.8,995.1,310.4,995.1,309.9z
				"/>
		</g>
	</g>
</g>
<g transform="matrix( 1, 0, 0, 1, -287.6,-198.6) ">
	<g>
		<g id="Layer8_3_FILL_1_">
			<path fill="#B9D432" d="M775.9,240.3c0-0.5-0.2-0.9-0.6-1.2c-0.4-0.4-0.7-0.6-1.2-0.6s-0.9,0.2-1.3,0.6c-0.4,0.4-0.6,0.7-0.6,1.2
				s0.2,0.9,0.6,1.3c0.4,0.4,0.7,0.5,1.3,0.5c0.5,0,0.9-0.2,1.2-0.5C775.7,241.2,775.9,240.8,775.9,240.3z"/>
		</g>
	</g>
</g>
<g transform="matrix( 1, 0, 0, 1, -287.6,-198.6) ">
	<g>
		<g id="Layer8_4_FILL_1_">
			<path fill="#B9D432" d="M354.7,309c0-0.5-0.2-0.9-0.6-1.2c-0.4-0.4-0.7-0.6-1.2-0.6c-0.5,0-0.9,0.2-1.3,0.6
				c-0.4,0.4-0.5,0.7-0.5,1.2c0,0.5,0.2,0.9,0.5,1.3c0.4,0.4,0.7,0.6,1.3,0.6c0.5,0,0.9-0.2,1.2-0.6
				C354.5,309.9,354.7,309.5,354.7,309z"/>
		</g>
	</g>
</g>
<g transform="matrix( 1, 0, 0, 1, -287.6,-198.6) ">
	<g>
		<g id="Layer8_5_FILL_1_">
			<path fill="#F05923" d="M502.8,304.5c0-0.5-0.2-0.9-0.6-1.2c-0.4-0.4-0.7-0.6-1.3-0.6c-0.6,0-0.9,0.2-1.2,0.6
				c-0.4,0.4-0.5,0.7-0.5,1.2c0,0.5,0.2,0.9,0.5,1.3c0.4,0.4,0.7,0.6,1.2,0.6c0.5,0,0.9-0.2,1.3-0.6
				C502.6,305.4,502.8,305,502.8,304.5z"/>
		</g>
	</g>
</g>
<g transform="matrix( 1, 0, 0, 1, -287.6,-198.6) ">
	<g>
		<g id="Layer8_6_FILL_3_">
			<path fill="#F05923" d="M537.2,425.6c0-0.5-0.2-0.9-0.6-1.3c-0.4-0.4-0.7-0.5-1.2-0.5c-0.5,0-0.9,0.2-1.3,0.5
				c-0.4,0.4-0.5,0.7-0.5,1.3c0,0.5,0.2,0.9,0.5,1.3c0.4,0.4,0.7,0.6,1.3,0.6c0.6,0,0.9-0.2,1.2-0.6
				C537,426.5,537.2,426,537.2,425.6z"/>
		</g>
	</g>
</g>
<g transform="matrix( 1, 0, 0, 1, -287.6,-198.6) ">
	<g>
		<g id="Layer8_6_FILL_2_">
			<path fill="#F05923" d="M364.9,549.3c0-0.5-0.2-0.9-0.6-1.3c-0.4-0.4-0.7-0.5-1.2-0.5c-0.5,0-0.9,0.2-1.3,0.5
				c-0.4,0.4-0.5,0.7-0.5,1.3c0,0.5,0.2,0.9,0.5,1.3c0.4,0.4,0.7,0.6,1.3,0.6s0.9-0.2,1.2-0.6C364.7,550.2,364.9,549.7,364.9,549.3z
				"/>
		</g>
	</g>
</g>
<g transform="matrix( 1, 0, 0, 1, -287.6,-198.6) ">
	<g>
		<g id="Layer8_6_FILL_1_">
			<path fill="#F05923" d="M757,494.4c0-0.5-0.2-0.9-0.6-1.3c-0.4-0.4-0.7-0.5-1.2-0.5s-0.9,0.2-1.3,0.5c-0.4,0.4-0.5,0.7-0.5,1.3
				c0,0.5,0.2,0.9,0.5,1.3c0.4,0.4,0.7,0.6,1.3,0.6s0.9-0.2,1.2-0.6C756.8,495.4,757,494.9,757,494.4z"/>
		</g>
	</g>
</g>
<g transform="matrix( 1, 0, 0, 1, -287.6,-198.6) ">
	<g>
		<g id="Layer8_7_FILL_3_">
			<path fill="#DEDEDD" d="M945.3,482.9c0-1-0.4-1.8-1-2.6c-0.7-0.6-1.6-1-2.6-1s-1.8,0.4-2.5,1c-0.6,0.7-1,1.6-1,2.6
				c0,1,0.4,1.8,1,2.5c0.7,0.6,1.6,1,2.5,1c1,0,1.8-0.4,2.6-1C944.9,484.7,945.3,483.9,945.3,482.9z"/>
		</g>
	</g>
</g>
<g transform="matrix( 1, 0, 0, 1, -287.6,-198.6) ">
	<g>
		<g id="Layer8_7_FILL_2_">
			<path fill="#DEDEDD" d="M899.1,234.7c0-1-0.4-1.8-1-2.6c-0.7-0.6-1.6-1-2.6-1c-1,0-1.8,0.4-2.5,1c-0.6,0.7-1,1.6-1,2.6
				c0,1,0.4,1.8,1,2.5c0.7,0.6,1.6,1,2.5,1c1,0,1.8-0.4,2.6-1C898.8,236.5,899.1,235.7,899.1,234.7z"/>
		</g>
	</g>
</g>
<g transform="matrix( 1, 0, 0, 1, -287.6,-198.6) ">
	<g>
		<g id="Layer8_7_FILL_1_">
			<path fill="#DEDEDD" d="M502.5,469.9c0-1-0.4-1.8-1-2.6c-0.7-0.6-1.6-1-2.6-1c-1,0-1.8,0.4-2.5,1c-0.6,0.7-1,1.6-1,2.6
				c0,1,0.4,1.8,1,2.5c0.7,0.6,1.6,1,2.5,1c1,0,1.8-0.4,2.6-1C502.1,471.7,502.5,470.9,502.5,469.9z"/>
		</g>
	</g>
</g>
<g transform="matrix( 1, 0, 0, 1, -287.6,-198.6) ">
	<g>
		<g id="Layer8_9_FILL_1_">
			<path fill="#D1D1D1" d="M807.5,568c0-1-0.4-1.8-1-2.5c-0.7-0.6-1.6-1-2.6-1c-1,0-1.8,0.4-2.5,1c-0.7,0.7-1.1,1.6-1.1,2.5
				c0,1,0.4,1.8,1.1,2.6c0.6,0.6,1.5,1,2.5,1s1.8-0.4,2.6-1C807.2,569.9,807.5,569,807.5,568z"/>
		</g>
	</g>
</g>
<g transform="matrix( 1, 0, 0, 1, -287.6,-198.6) ">
	<g>
		<path id="Layer8_10_1_STROKES_2_" fill="none" stroke="#BFBEBE" stroke-width="2" stroke-miterlimit="10" d="M332.1,478.9
			c0,0.8-0.3,1.6-0.9,2.1c-0.6,0.6-1.3,0.9-2.1,0.9c-0.8,0-1.6-0.3-2.1-0.9c-0.6-0.6-0.9-1.3-0.9-2.1c0-0.8,0.3-1.5,0.9-2.1
			c0.6-0.6,1.3-0.9,2.1-0.9c0.8,0,1.5,0.3,2.1,0.9C331.8,477.4,332.1,478.1,332.1,478.9z"/>
	</g>
</g>
<g transform="matrix( 1, 0, 0, 1, -287.6,-198.6) ">
	<g>
		<path id="Layer8_10_1_STROKES_1_" fill="none" stroke="#BFBEBE" stroke-width="2" stroke-miterlimit="10" d="M479.3,379.2
			c0,0.8-0.3,1.6-0.9,2.1c-0.6,0.6-1.3,0.9-2.1,0.9c-0.8,0-1.6-0.3-2.1-0.9c-0.6-0.6-0.9-1.3-0.9-2.1c0-0.8,0.3-1.5,0.9-2.1
			c0.6-0.6,1.3-0.9,2.1-0.9c0.8,0,1.5,0.3,2.1,0.9C479,377.7,479.3,378.4,479.3,379.2z"/>
	</g>
</g>
<g transform="matrix( 1, 0, 0, 1, -287.6,-198.6) ">
	<g>
		<path id="Layer8_11_1_STROKES_3_" fill="none" stroke="#BFBEBE" stroke-width="2" stroke-miterlimit="10" d="M654.1,538.2
			c0,0.8-0.3,1.6-0.9,2.1c-0.6,0.6-1.3,0.9-2.1,0.9c-0.8,0-1.6-0.3-2.1-0.9c-0.6-0.6-0.9-1.3-0.9-2.1c0-0.8,0.3-1.6,0.9-2.1
			c0.6-0.6,1.3-0.9,2.1-0.9s1.5,0.3,2.1,0.9C653.7,536.7,654.1,537.3,654.1,538.2z"/>
	</g>
</g>
<g transform="matrix( 1, 0, 0, 1, -287.6,-198.6) ">
	<g>
		<path id="Layer8_11_1_STROKES_2_" fill="none" stroke="#BFBEBE" stroke-width="2" stroke-miterlimit="10" d="M903.7,318.6
			c0,0.8-0.3,1.6-0.9,2.1c-0.6,0.6-1.3,0.9-2.1,0.9s-1.6-0.3-2.1-0.9c-0.6-0.6-0.9-1.3-0.9-2.1c0-0.8,0.3-1.6,0.9-2.1
			c0.6-0.6,1.3-0.9,2.1-0.9c0.8,0,1.5,0.3,2.1,0.9C903.4,317,903.7,317.7,903.7,318.6z"/>
	</g>
</g>
<g transform="matrix( 1, 0, 0, 1, -287.6,-198.6) ">
	<g>
		<path id="Layer8_11_1_STROKES_1_" fill="none" stroke="#BFBEBE" stroke-width="2" stroke-miterlimit="10" d="M705.2,349.7
			c0,0.8-0.3,1.6-0.9,2.1c-0.6,0.6-1.3,0.9-2.1,0.9s-1.6-0.3-2.1-0.9c-0.6-0.6-0.9-1.3-0.9-2.1s0.3-1.6,0.9-2.1
			c0.6-0.6,1.3-0.9,2.1-0.9c0.8,0,1.5,0.3,2.1,0.9C704.8,348.2,705.2,348.8,705.2,349.7z"/>
	</g>
</g>
<g transform="matrix( 1, 0, 0, 1, -287.6,-198.6) ">
	<g>
		<path id="Layer8_12_1_STROKES_1_" fill="none" stroke="#BFBEBE" stroke-width="2" stroke-miterlimit="10" d="M522.7,251.8
			c0,0.8-0.3,1.6-0.9,2.1c-0.6,0.6-1.3,0.8-2.1,0.8c-0.8,0-1.5-0.3-2.1-0.8c-0.6-0.6-0.9-1.3-0.9-2.1s0.3-1.5,0.9-2.1
			c0.6-0.6,1.3-0.8,2.1-0.8s1.6,0.3,2.1,0.8C522.3,250.2,522.7,251,522.7,251.8z"/>
	</g>
</g>
<g>
	<g transform="matrix( 1, 0, 0, 1, -287.6,-198.6) ">
		<g>
			<g id="Layer8_13_MEMBER_0_FILL_1_">
				<path fill="#83C2EA" d="M330,261.3h6.5c0.3,0,0.5-0.1,0.6-0.3c0.2-0.2,0.3-0.4,0.3-0.6s-0.1-0.5-0.3-0.6s-0.4-0.3-0.6-0.3H330
					c-0.6,0-0.8,0.3-0.8,0.8c0,0.3,0.1,0.5,0.3,0.6C329.7,261.2,329.8,261.3,330,261.3z"/>
			</g>
		</g>
	</g>
	<g transform="matrix( 1, 0, 0, 1, -287.6,-198.6) ">
		<g>
			<g id="Layer8_13_MEMBER_1_FILL_1_">
				<path fill="#83C2EA" d="M332.7,256.6c-0.2,0.2-0.3,0.4-0.3,0.6v6.5c0,0.3,0.1,0.5,0.3,0.6c0.2,0.2,0.4,0.3,0.6,0.3
					c0.6,0,0.9-0.3,0.9-0.9v-6.5c0-0.3-0.1-0.5-0.3-0.6c-0.2-0.2-0.4-0.3-0.6-0.3C333.1,256.2,332.9,256.3,332.7,256.6z"/>
			</g>
		</g>
	</g>
</g>
<g>
	<g transform="matrix( 1, 0, 0, 1, -287.6,-198.6) ">
		<g>
			<g id="Layer8_14_MEMBER_0_FILL_1_">
				<path fill="#83C2EA" d="M502.6,559.3c0.2,0.2,0.4,0.3,0.6,0.3h6.6c0.3,0,0.5-0.1,0.6-0.3s0.2-0.4,0.3-0.6c0-0.6-0.3-0.9-0.8-0.9
					h-6.6c-0.3,0-0.5,0.1-0.6,0.3c-0.2,0.2-0.3,0.4-0.3,0.6C502.3,558.9,502.4,559.1,502.6,559.3z"/>
			</g>
		</g>
	</g>
	<g transform="matrix( 1, 0, 0, 1, -287.6,-198.6) ">
		<g>
			<g id="Layer8_14_MEMBER_1_FILL_1_">
				<path fill="#83C2EA" d="M507.3,555.3c0-0.2-0.1-0.5-0.3-0.6c-0.2-0.2-0.4-0.3-0.6-0.3c-0.3,0-0.5,0.1-0.6,0.3s-0.3,0.4-0.3,0.6
					v6.6c0,0.3,0.1,0.5,0.3,0.6s0.4,0.3,0.6,0.3c0.3,0,0.5-0.1,0.6-0.3c0.2-0.2,0.3-0.4,0.3-0.6V555.3z"/>
			</g>
		</g>
	</g>
</g>
<g>
	<g transform="matrix( 1, 0, 0, 1, -287.6,-198.6) ">
		<g>
			<g id="Layer8_15_MEMBER_0_FILL_1_">
				<path fill="#83C2EA" d="M957,354.4c-0.3,0-0.5,0.1-0.6,0.3s-0.3,0.4-0.3,0.6s0.1,0.5,0.3,0.6c0.2,0.2,0.4,0.3,0.6,0.3h6.5
					c0.3,0,0.5-0.1,0.6-0.3c0.2-0.2,0.3-0.4,0.3-0.6c0-0.6-0.3-0.9-0.9-0.9H957z"/>
			</g>
		</g>
	</g>
	<g transform="matrix( 1, 0, 0, 1, -287.6,-198.6) ">
		<g>
			<g id="Layer8_15_MEMBER_1_FILL_1_">
				<path fill="#83C2EA" d="M961.1,352c0-0.2-0.1-0.5-0.3-0.6s-0.4-0.3-0.6-0.3s-0.5,0.1-0.6,0.3s-0.3,0.4-0.3,0.6v6.5
					c0,0.3,0.1,0.5,0.3,0.6s0.4,0.3,0.6,0.3c0.3,0,0.5-0.1,0.6-0.3c0.2-0.2,0.3-0.4,0.3-0.6V352z"/>
			</g>
		</g>
	</g>
</g>
<g>
	<g transform="matrix( 1, 0, 0, 1, -287.6,-198.6) ">
		<g>
			<g id="Layer8_16_MEMBER_0_FILL_3_">
				<path fill="#83C2EA" d="M953.7,261.4c0.2,0.2,0.4,0.3,0.6,0.3h6.5c0.3,0,0.5-0.1,0.6-0.3s0.3-0.4,0.3-0.6s-0.1-0.5-0.3-0.6
					c-0.2-0.2-0.4-0.3-0.6-0.3h-6.5c-0.3,0-0.5,0.1-0.6,0.3s-0.3,0.4-0.3,0.6S953.6,261.3,953.7,261.4z"/>
			</g>
		</g>
	</g>
	<g transform="matrix( 1, 0, 0, 1, -287.6,-198.6) ">
		<g>
			<g id="Layer8_16_MEMBER_1_FILL_3_">
				<path fill="#83C2EA" d="M957.6,264.9c0.3,0,0.5-0.1,0.6-0.3s0.3-0.4,0.3-0.6v-6.6c0-0.6-0.3-0.8-0.9-0.8c-0.6,0-0.9,0.3-0.9,0.8
					v6.6c0,0.3,0.1,0.5,0.3,0.6C957.2,264.9,957.4,264.9,957.6,264.9z"/>
			</g>
		</g>
	</g>
</g>
<g>
	<g transform="matrix( 1, 0, 0, 1, -287.6,-198.6) ">
		<g>
			<g id="Layer8_16_MEMBER_0_FILL_2_">
				<path fill="#83C2EA" d="M637.3,279.2c0.2,0.2,0.4,0.3,0.6,0.3h6.5c0.3,0,0.5-0.1,0.6-0.3c0.2-0.2,0.3-0.4,0.3-0.6
					s-0.1-0.5-0.3-0.6c-0.2-0.2-0.4-0.3-0.6-0.3H638c-0.3,0-0.5,0.1-0.6,0.3s-0.3,0.4-0.3,0.6S637.1,279.1,637.3,279.2z"/>
			</g>
		</g>
	</g>
	<g transform="matrix( 1, 0, 0, 1, -287.6,-198.6) ">
		<g>
			<g id="Layer8_16_MEMBER_1_FILL_2_">
				<path fill="#83C2EA" d="M641.2,282.7c0.3,0,0.5-0.1,0.6-0.3s0.3-0.4,0.3-0.6v-6.6c0-0.6-0.3-0.8-0.9-0.8c-0.6,0-0.9,0.3-0.9,0.8
					v6.6c0,0.3,0.1,0.5,0.3,0.6C640.7,282.7,641,282.7,641.2,282.7z"/>
			</g>
		</g>
	</g>
</g>
<g>
	<g transform="matrix( 1, 0, 0, 1, -287.6,-198.6) ">
		<g>
			<g id="Layer8_16_MEMBER_0_FILL_1_">
				<path fill="#83C2EA" d="M758.5,379.2c0.2,0.2,0.4,0.3,0.6,0.3h6.5c0.3,0,0.5-0.1,0.6-0.3c0.2-0.2,0.3-0.4,0.3-0.6
					s-0.1-0.5-0.3-0.6c-0.2-0.2-0.4-0.3-0.6-0.3h-6.5c-0.3,0-0.5,0.1-0.6,0.3s-0.3,0.4-0.3,0.6S758.3,379.1,758.5,379.2z"/>
			</g>
		</g>
	</g>
	<g transform="matrix( 1, 0, 0, 1, -287.6,-198.6) ">
		<g>
			<g id="Layer8_16_MEMBER_1_FILL_1_">
				<path fill="#83C2EA" d="M762.3,382.7c0.3,0,0.5-0.1,0.6-0.3s0.3-0.4,0.3-0.6v-6.6c0-0.6-0.3-0.8-0.9-0.8c-0.6,0-0.9,0.3-0.9,0.8
					v6.6c0,0.3,0.1,0.5,0.3,0.6C761.9,382.7,762.2,382.7,762.3,382.7z"/>
			</g>
		</g>
	</g>
</g>
<g>
	<g transform="matrix( 1, 0, 0, 1, -287.6,-198.6) ">
		<g>
			<g id="Layer8_17_MEMBER_0_FILL_1_">
				<path fill="#83C2EA" d="M715.6,556.4c0.3,0,0.5-0.1,0.6-0.3c0.2-0.2,0.3-0.4,0.3-0.6c0-0.2-0.1-0.5-0.3-0.6s-0.4-0.3-0.6-0.3
					h-6.5c-0.3,0-0.5,0.1-0.6,0.3s-0.3,0.4-0.3,0.6s0.1,0.5,0.3,0.6s0.4,0.3,0.6,0.3H715.6z"/>
			</g>
		</g>
	</g>
	<g transform="matrix( 1, 0, 0, 1, -287.6,-198.6) ">
		<g>
			<g id="Layer8_17_MEMBER_1_FILL_1_">
				<path fill="#83C2EA" d="M711.7,551.6c-0.2,0.2-0.3,0.4-0.3,0.6v6.5c0,0.3,0.1,0.5,0.3,0.6s0.4,0.3,0.6,0.3s0.5-0.1,0.6-0.3
					s0.3-0.4,0.3-0.6v-6.5c0-0.3-0.1-0.5-0.3-0.6c-0.2-0.2-0.4-0.3-0.6-0.3C712,551.5,711.8,551.5,711.7,551.6z"/>
			</g>
		</g>
	</g>
</g>
<g transform="matrix( 1, 0, 0, 1, -287.6,-198.6) ">
	<g>
		<g id="Layer8_18_FILL_1_">
			<path fill="#BFBEBE" d="M994,457.3h-5.5l-2.8,4.8l2.8,4.8h5.5l2.8-4.8L994,457.3 M989.2,458.6h4.1l2,3.5l-2,3.5h-4.1l-2-3.5
				L989.2,458.6z"/>
		</g>
	</g>
</g>
<g transform="matrix( 1, 0, 0, 1, -287.6,-198.6) ">
	<g>
		<g id="Layer8_19_FILL_1_">
			<path fill="#BFBEBE" d="M378.4,338l-2.8,4.8l2.8,4.8h5.5l2.8-4.8L384,338H378.4 M379.3,346.3l-2-3.5l2-3.5h4l2,3.5l-2,3.5H379.3z
				"/>
		</g>
	</g>
</g>
<g>
	<path fill="none" stroke="#A1A1A1" stroke-miterlimit="10" d="M197.5,99.5c51.5-35.2,122.3-29.9,168.1,15.8"/>
	<path fill="none" stroke="#A1A1A1" stroke-miterlimit="10" d="M145.2,246.5c-9.6-32.4-6.5-67.8,9.2-98.4"/>
	<path fill="none" stroke="#A1A1A1" stroke-miterlimit="10" d="M262.7,340.8c-27.1-1.9-53.7-12.1-75.8-30.6"/>
	<path fill="none" stroke="#A1A1A1" stroke-miterlimit="10" d="M469.5,218.8c5.5,5.5,14.4,5.5,20,0c5.5-5.5,5.5-14.4,0-20
		c-5.5-5.5-14.4-5.5-20,0L365.6,302.4c-13.1,13.1-28.2,22.8-44.3,29.3"/>
	<path fill="none" stroke="#A1A1A1" stroke-miterlimit="10" d="M302.4,110.9c15.4,4.8,29.9,13.2,42.1,25.4"/>
	<path fill="none" stroke="#A1A1A1" stroke-miterlimit="10" d="M449.4,238.9c16.6,16.6,43.5,16.6,60.1,0c16.6-16.6,16.6-43.5,0-60.1
		c-16.6-16.6-43.5-16.6-60.1,0L344.5,281.4c-40,40-105,40-145,0s-40-105,0-145c14.6-14.6,32.5-23.9,51.4-27.8"/>
	<path fill="none" stroke="#A1A1A1" stroke-miterlimit="10" d="M545.3,178.6c-3.5-7.6-8.4-14.7-14.6-21
		c-28.3-28.3-74.1-28.3-102.4,0l-105,102.4c-28.3,28.3-74.1,28.3-102.4,0c-28.3-28.3-28.3-74.1,0-102.4s74.1-28.3,102.4,0"/>
	<path fill="none" stroke="#A1A1A1" stroke-miterlimit="10" d="M428.3,260.1c28.3,28.3,74.1,28.3,102.4,0c3.8-3.8,7-7.8,9.8-12.1"/>
	<path fill="none" stroke="#A1A1A1" stroke-miterlimit="10" d="M413.9,130c-2.4,2-4.7,4.1-7,6.4L302.1,238.9
		c-16.6,16.6-43.5,16.6-60.1,0s-16.6-43.5,0-60.1s43.5-16.6,60.1,0"/>
	<path fill="none" stroke="#A1A1A1" stroke-miterlimit="10" d="M567.6,156.5c-4.3-7.2-9.5-13.9-15.7-20.1
		c-19.7-19.7-45.5-29.7-71.3-30"/>
	<path fill="none" stroke="#A1A1A1" stroke-miterlimit="10" d="M529.9,298.2c7.9-4.5,15.3-10.1,22.1-16.8c2.7-2.7,5.2-5.5,7.6-8.5"
		/>
	<path fill="none" stroke="#A1A1A1" stroke-miterlimit="10" d="M407,281.4c19.6,19.6,45.2,29.6,70.9,30"/>
	<path fill="none" stroke="#A1A1A1" stroke-miterlimit="10" d="M392.7,109c-2.3,2-4.6,4.1-6.8,6.3L282,218.8c-5.5,5.5-14.4,5.5-20,0
		c-5.5-5.5-5.5-14.4,0-20c5.5-5.5,14.4-5.5,20,0"/>
	<path fill="none" stroke="#A1A1A1" stroke-miterlimit="10" d="M596.4,146.8c-6-11.3-13.8-22-23.4-31.5
		c-24.5-24.5-56.2-37.4-88.4-38.7"/>
	<path fill="none" stroke="#A1A1A1" stroke-miterlimit="10" d="M385.9,302.4c51.7,51.7,135.4,51.7,187.1,0c5-5,9.5-10.3,13.6-15.9"
		/>
</g>
<g transform="matrix( 1, 0, 0, 1, -287.6,-198.6) ">
	<g>
		<g id="Layer5_0_FILL_2_">
			<path fill="#B9D432" d="M465.6,484.7c-4.2-13.1-12.4-22.7-24.6-28.9s-24.8-7.3-37.9-3.1c-13.1,4.2-22.7,12.4-28.9,24.6
				c-6.2,12.2-7.2,24.8-3.1,37.9c4.1,13.1,12.4,22.7,24.6,28.9c12.2,6.2,24.8,7.3,37.9,3.1c13.1-4.2,22.7-12.4,28.9-24.6
				C468.8,510.5,469.8,497.8,465.6,484.7z"/>
		</g>
	</g>
</g>
<g transform="matrix( 1, 0, 0, 1, -287.6,-198.6) ">
	<g>
		<g id="Layer5_1_FILL_2_">
			<path fill="#0B98CC" d="M954.1,416.1c0-17.3-6.1-32-18.3-44.3c-12.3-12.3-27-18.4-44.3-18.4s-32,6.1-44.2,18.4
				c-12.1,12.1-18.3,26.8-18.3,44.3c0,17.3,6.1,32,18.3,44.3c12.3,12.1,27,18.3,44.2,18.3c17.3,0,32-6.1,44.3-18.3
				C947.9,447.9,954.1,433.2,954.1,416.1z"/>
		</g>
	</g>
</g>
<g transform="matrix( 1, 0, 0, 1, -287.6,-198.6) ">
	<g>
		<g id="Layer5_3_FILL_3_">
			<path fill="#2C5389" d="M763.4,271.5c-3.5-11-10.5-19.2-20.9-24.5c-10.4-5.3-21-6.2-32.1-2.6c-11,3.6-19.2,10.5-24.5,20.9
				c-5.3,10.4-6.2,21-2.6,32.1c3.5,11,10.5,19.2,20.9,24.5c10.4,5.3,21,6.2,32.1,2.6s19.2-10.5,24.5-20.9
				C766.1,293.2,767,282.5,763.4,271.5z"/>
		</g>
	</g>
</g>
<circle fill="#F05923" cx="144.7" cy="95.6" r="45.9"/>
<g transform="matrix( 1, 0, 0, 1, -287.6,-198.6) ">
	<g>
		<g id="Layer5_0_FILL_1_">
			<path fill="none" stroke="#A1A1A1" stroke-miterlimit="10" d="M392.3,550.5c13.9,7.1,28.4,8.4,43.4,3.6c15-4.8,26-14.2,33.1-28.1
				c7.2-13.9,8.4-28.4,3.6-43.4c-4.8-15-14.2-26-28.1-33.1c-13.9-7.1-28.4-8.4-43.4-3.6c-15,4.8-26,14.2-33.1,28.1"/>
		</g>
	</g>
</g>
<g transform="matrix( 1, 0, 0, 1, -287.6,-198.6) ">
	<g>
		<g id="Layer5_1_FILL_1_">
			<path fill="none" stroke="#A1A1A1" stroke-miterlimit="10" d="M941.6,365.9c-13.9-13.9-30.6-20.9-50.1-20.9s-36.2,7-49.9,20.9
				c-13.7,13.7-20.7,30.4-20.7,50.1c0,19.6,7,36.2,20.7,50.1c13.9,13.7,30.6,20.7,49.9,20.7c19.6,0,36.2-7,50.1-20.7
				c13.7-14.1,20.7-30.7,20.7-50.1"/>
		</g>
	</g>
</g>
<g transform="matrix( 1, 0, 0, 1, -287.6,-198.6) ">
	<g>
		<g id="Layer5_3_FILL_1_">
			<path fill="none" stroke="#A1A1A1" stroke-miterlimit="10" d="M708.2,237.2c-13,4.2-22.6,12.4-28.9,24.6
				c-6.2,12.2-7.3,24.8-3.1,37.8c4.2,13,12.4,22.6,24.6,28.8c12.2,6.3,24.8,7.3,37.8,3.1s22.6-12.4,28.8-24.6
				c6.3-12.1,7.3-24.8,3.2-37.8s-12.4-22.6-24.6-28.8"/>
		</g>
	</g>
</g>
<path fill="none" stroke="#A1A1A1" stroke-miterlimit="10" d="M144.7,42.4c29.4,0,53.2,23.8,53.2,53.2s-23.8,53.2-53.2,53.2
	s-53.2-23.8-53.2-53.2"/>
<linearGradient id="SVGID_1_" gradientUnits="userSpaceOnUse" x1="302.614" y1="207.9598" x2="460.7243" y2="207.9598">
	<stop  offset="0" style="stop-color:#0B98CC"/>
	<stop  offset="1" style="stop-color:#D9D9D9"/>
</linearGradient>
<path fill="url(#SVGID_1_)" stroke="#000000" stroke-miterlimit="10" d="M330.3,256.5c-15.3,0-27.7-12.4-27.7-27.7
	c0-13.4,9.5-24.7,22.5-27.2c0.9-23.4,20.2-42.1,43.9-42.1c21,0,39,15,43,35.3c1.9-0.4,3.8-0.6,5.7-0.6c16.9,0,30.7,13.8,30.7,30.7
	c0,0.4,0,0.8,0,1.3c7.1,1.4,12.4,7.5,12.4,15c0,8.2-6.4,14.9-14.5,15.3l0,0H330.3z"/>
<g>
	<g>
		<path fill="none" stroke="#000000" stroke-miterlimit="10" d="M341.5,256.6h-11.2c-15.3,0-27.7-12.4-27.7-27.7
			c0-13.4,9.5-24.7,22.5-27.2c0.9-23.4,20.2-42.1,43.9-42.1c21,0,39,15,43,35.3c1.9-0.4,3.8-0.6,5.7-0.6c16.9,0,30.7,13.8,30.7,30.7
			c0,0.4,0,0.8,0,1.3c7.1,1.4,12.4,7.5,12.4,15c0,8.2-6.4,14.9-14.5,15.3l0,0h-37.9"/>
	</g>
</g>
<g>
	<path fill="#6B6B6B" stroke="#000000" stroke-miterlimit="10" d="M340.3,283.4v-55.2c0-2,1.6-3.6,3.6-3.6h59.5c2,0,3.6,1.6,3.6,3.6
		v55.2c0,2-1.6,3.6-3.6,3.6H344C342,287,340.3,285.4,340.3,283.4z"/>
	<path fill="#BABABA" stroke="#000000" stroke-miterlimit="10" d="M375.8,189.8L375.8,189.8c-12.4,0-22.5,10.1-22.5,22.5v12.3
		l10.2-0.1v-11.2c0-6.8,5.5-12.3,12.3-12.3c6.8,0,12.3,5.5,12.3,12.3v6.6v4.5l10.2-0.1v-12C398.3,199.9,388.2,189.8,375.8,189.8z"/>
	<path fill="#FFFFFF" d="M378.9,189.7L378.9,189.7c-12.4,0-22.5,10.1-22.5,22.5v16.1l45.1-0.3v-15.8
		C401.4,199.8,391.3,189.7,378.9,189.7z M391.2,224.6l-24.6,0v-11.5c0-6.8,5.5-12.3,12.3-12.3c6.8,0,12.3,5.5,12.3,12.3V224.6z"/>
	<g>
		<path fill="#FF4D00" d="M345.5,282.9v-54.3c0-2.3,1.8-4.1,4.1-4.1h58.6c2.3,0,4.1,1.8,4.1,4.1v54.3c0,2.3-1.8,4.1-4.1,4.1h-58.6
			C347.3,287,345.5,285.2,345.5,282.9z"/>
	</g>
	<g opacity="0.36">
		<path d="M378.9,242.7c-3,0-5.5,2.5-5.5,5.5c0,2,1.1,3.8,2.7,4.7l-1.2,13.6h4.1h4.1l-1.3-13.6c1.6-1,2.7-2.7,2.7-4.7
			C384.4,245.1,381.9,242.7,378.9,242.7L378.9,242.7z"/>
	</g>
	<g>
		<line fill="none" stroke="#000000" stroke-miterlimit="10" x1="407" y1="232.3" x2="408.6" y2="232.3"/>
		<line fill="none" stroke="#000000" stroke-miterlimit="10" x1="397.6" y1="232.3" x2="403.6" y2="232.3"/>
		<line fill="none" stroke="#000000" stroke-miterlimit="10" x1="345.6" y1="232.3" x2="393.5" y2="232.3"/>
	</g>
	<g>
		<line fill="none" stroke="#000000" stroke-miterlimit="10" x1="351.2" y1="276.8" x2="349.6" y2="276.8"/>
		<line fill="none" stroke="#000000" stroke-miterlimit="10" x1="360.6" y1="276.8" x2="354.6" y2="276.8"/>
		<line fill="none" stroke="#000000" stroke-miterlimit="10" x1="412.6" y1="276.8" x2="364.7" y2="276.8"/>
	</g>
	<g>
		<path fill="none" stroke="#000000" stroke-miterlimit="10" d="M356.3,224.6v-12.3c0-12.4,10.1-22.5,22.5-22.5h0
			c12.4,0,22.5,10.1,22.5,22.5v12"/>
	</g>
	<g>
		<path fill="none" stroke="#000000" stroke-miterlimit="10" d="M366.5,224.5v-11.2c0-6.8,5.5-12.3,12.3-12.3h0
			c6.8,0,12.3,5.5,12.3,12.3v6.6v4.9"/>
	</g>
	<path fill="none" stroke="#000000" stroke-miterlimit="10" d="M345.5,283.4v-55.2c0-2,1.6-3.6,3.6-3.6h59.5c2,0,3.6,1.6,3.6,3.6
		v55.2c0,2-1.6,3.6-3.6,3.6h-59.5C347.1,287,345.5,285.4,345.5,283.4z"/>
	<g>
		<path fill="none" stroke="#000000" stroke-miterlimit="10" d="M378.9,242.5c-3,0-5.5,2.5-5.5,5.5c0,2,1.1,3.8,2.7,4.7l-1.2,13.6
			h4.1h4.1l-1.3-13.6c1.6-1,2.7-2.7,2.7-4.7C384.4,245,381.9,242.5,378.9,242.5L378.9,242.5z"/>
	</g>
</g>
<circle fill="#FFFFFF" stroke="#A6A6A6" stroke-miterlimit="10" cx="304.5" cy="237.7" r="5.2"/>
<circle fill="#FFFFFF" stroke="#A6A6A6" stroke-miterlimit="10" cx="459.6" cy="247" r="5.2"/>
<circle fill="#FFFFFF" stroke="#A6A6A6" stroke-miterlimit="10" cx="405.1" cy="180" r="5.2"/>
<circle fill="#FFFFFF" stroke="#A6A6A6" stroke-miterlimit="10" cx="197.7" cy="99.7" r="2"/>
<circle fill="#FFFFFF" stroke="#A6A6A6" stroke-miterlimit="10" cx="145.1" cy="246.6" r="2"/>
<circle fill="#FFFFFF" stroke="#A6A6A6" stroke-miterlimit="10" cx="186.9" cy="310.3" r="2"/>
<circle fill="#FFFFFF" stroke="#A6A6A6" stroke-miterlimit="10" cx="484.7" cy="76.7" r="2"/>
<circle fill="#FFFFFF" stroke="#A6A6A6" stroke-miterlimit="10" cx="480.7" cy="106.4" r="2"/>
<circle fill="#FFFFFF" stroke="#A6A6A6" stroke-miterlimit="10" cx="567.6" cy="156.5" r="2"/>
<circle fill="#FFFFFF" stroke="#A6A6A6" stroke-miterlimit="10" cx="544.9" cy="178.2" r="2"/>
<circle fill="#FFFFFF" stroke="#A6A6A6" stroke-miterlimit="10" cx="540.2" cy="248.6" r="2"/>
<circle fill="#FFFFFF" stroke="#A6A6A6" stroke-miterlimit="10" cx="559.6" cy="272.9" r="2"/>
<circle fill="#FFFFFF" stroke="#A6A6A6" stroke-miterlimit="10" cx="586.5" cy="286.5" r="2"/>
<circle fill="#FFFFFF" stroke="#A6A6A6" stroke-miterlimit="10" cx="596.1" cy="147" r="2"/>
<circle fill="#FFFFFF" stroke="#A6A6A6" stroke-miterlimit="10" cx="414" cy="130" r="2"/>
<circle fill="#FFFFFF" stroke="#A6A6A6" stroke-miterlimit="10" cx="392.2" cy="109.5" r="2"/>
<circle fill="#FFFFFF" stroke="#A6A6A6" stroke-miterlimit="10" cx="154.4" cy="148.2" r="2"/>
<g>
	<path fill="none" stroke="#0B98CC" stroke-linecap="round" stroke-linejoin="round" stroke-miterlimit="10" d="M289.4,110.3
		L289.4,110.3c1.2,0,2.2,1,2.2,2.2c0,1.2-1,2.2-2.2,2.2h-1.5c1.2,0,2.2,1,2.2,2.2c0,1.2-1,1.5-2.2,1.5c0,0-6,0-9.7,0
		c-4.3,0-5.2-0.7-10.5-1.5v-12.7c3.7,0,9.7-6.7,9.7-12.7c0-2.4,3.3-3.3,4.5,1.1c0.7,2.7-1.5,7.9-1.5,7.9h12c1.2,0,2.2,1,2.2,2.2
		c0,1.2-1,3-2.2,3h-1.5c1.2,0,2.2,1,2.2,2.2c0,1.2-1,2.2-2.2,2.2H289.4"/>
	
		<rect x="260.2" y="102.1" fill="none" stroke="#0B98CC" stroke-linecap="round" stroke-linejoin="round" stroke-miterlimit="10" width="7.5" height="18"/>
	<g>
		<g>
			<g>
				<path fill="#0B98CC" d="M264.7,116.3c-0.4,0-0.7,0.3-0.7,0.7s0.3,0.8,0.7,0.8s0.7-0.3,0.7-0.8S265.1,116.3,264.7,116.3
					L264.7,116.3z"/>
			</g>
		</g>
	</g>
</g>
<g>
	<g>
		<path fill="none" stroke="#0B98CC" stroke-linecap="round" stroke-linejoin="round" stroke-miterlimit="10" d="M309.8,341.5v9.2
			c0,1.3-1,2.3-2.1,2.3H279c-1.2,0-2.1-1-2.1-2.3v-21.2c0-1.3,1-2.3,2.1-2.3h15"/>
		
			<line fill="none" stroke="#0B98CC" stroke-linecap="round" stroke-linejoin="round" stroke-miterlimit="10" x1="283.3" y1="355.8" x2="303.4" y2="355.8"/>
		
			<line fill="none" stroke="#0B98CC" stroke-linecap="round" stroke-linejoin="round" stroke-miterlimit="10" x1="293.3" y1="352.9" x2="293.3" y2="355.8"/>
		
			<circle fill="none" stroke="#0B98CC" stroke-linecap="round" stroke-linejoin="round" stroke-miterlimit="10" cx="293.3" cy="350.1" r="0.7"/>
		
			<line fill="none" stroke="#0B98CC" stroke-linecap="round" stroke-linejoin="round" stroke-miterlimit="10" x1="276.9" y1="347.2" x2="309.8" y2="347.2"/>
	</g>
	<polyline fill="none" stroke="#0B98CC" stroke-linecap="round" stroke-linejoin="round" stroke-miterlimit="10" points="
		292.6,334.3 286.9,340.1 284,337.2 	"/>
	<path fill="none" stroke="#0B98CC" stroke-linecap="round" stroke-linejoin="round" stroke-miterlimit="10" d="M294.1,337.2
		c0,3.6-2.9,6.4-6.4,6.4s-6.4-2.9-6.4-6.4c0-3.6,2.9-6.4,6.4-6.4c1.1,0,2.1,0.3,3,0.7"/>
	<g>
		
			<rect x="296.9" y="328.6" fill="none" stroke="#0B98CC" stroke-linecap="round" stroke-linejoin="round" stroke-miterlimit="10" width="12.9" height="10"/>
		
			<line fill="none" stroke="#0B98CC" stroke-linecap="round" stroke-linejoin="round" stroke-miterlimit="10" x1="303.4" y1="335.8" x2="303.4" y2="332.9"/>
		<path fill="none" stroke="#0B98CC" stroke-linecap="round" stroke-linejoin="round" stroke-miterlimit="10" d="M299.1,328.6v-1.4
			c0-2.4,1.9-4.3,4.3-4.3c2.4,0,4.3,1.9,4.3,4.3v1.4"/>
		<path fill="none" stroke="#0B98CC" stroke-linecap="round" stroke-linejoin="round" stroke-miterlimit="10" d="M304.1,332.2
			c0,0.4-0.3,0.7-0.7,0.7l0,0c-0.4,0-0.7-0.3-0.7-0.7l0,0c0-0.4,0.3-0.7,0.7-0.7l0,0C303.8,331.5,304.1,331.8,304.1,332.2
			L304.1,332.2z"/>
	</g>
</g>
<g>
	<g>
		<path fill="none" stroke="#0B98CC" stroke-linejoin="round" stroke-miterlimit="10" d="M521,313.6l1.5-0.9l-2.1-3.6l-1.5,0.9
			c-0.7-0.7-1.6-1.2-2.6-1.5v-1.7h-4.1v1.7c-1,0.3-1.8,0.8-2.6,1.5l-1.5-0.9l-2.1,3.6l1.5,0.9c-0.2,1-0.2,2,0,3l-1.5,0.9l2.1,3.6
			l1.5-0.9c0.7,0.7,1.6,1.2,2.6,1.5v1.7h4.1v-1.7c1-0.3,1.8-0.8,2.6-1.5l1.5,0.9l2.1-3.6l-1.5-0.9
			C521.2,315.6,521.2,314.7,521,313.6z"/>
		<circle fill="none" stroke="#0B98CC" stroke-linejoin="round" stroke-miterlimit="10" cx="514.2" cy="315.1" r="2.8"/>
	</g>
	<g>
		<polyline fill="none" stroke="#0B98CC" stroke-linecap="round" stroke-linejoin="round" stroke-miterlimit="10" points="
			518.4,304.8 518.4,294.5 512.9,294.5 		"/>
		<polyline fill="none" stroke="#0B98CC" stroke-linecap="round" stroke-linejoin="round" stroke-miterlimit="10" points="
			496.3,294.5 490.8,294.5 490.8,316.5 503.2,316.5 		"/>
		
			<rect x="496.3" y="291.7" fill="none" stroke="#0B98CC" stroke-linecap="round" stroke-linejoin="round" stroke-miterlimit="10" width="4.1" height="5.5"/>
		
			<rect x="508.7" y="291.7" fill="none" stroke="#0B98CC" stroke-linecap="round" stroke-linejoin="round" stroke-miterlimit="10" width="4.1" height="5.5"/>
		
			<line fill="none" stroke="#0B98CC" stroke-linecap="round" stroke-linejoin="round" stroke-miterlimit="10" x1="500.4" y1="294.5" x2="508.7" y2="294.5"/>
		
			<line fill="none" stroke="#0B98CC" stroke-linecap="round" stroke-linejoin="round" stroke-miterlimit="10" x1="490.8" y1="301.4" x2="518.4" y2="301.4"/>
	</g>
</g>
<g>
	
		<line fill="none" stroke="#FFFFFF" stroke-linecap="round" stroke-linejoin="round" stroke-miterlimit="10" x1="595.1" y1="255.9" x2="615" y2="255.9"/>
	
		<line fill="none" stroke="#FFFFFF" stroke-linecap="round" stroke-linejoin="round" stroke-miterlimit="10" x1="605" y1="249.3" x2="605" y2="255.9"/>
	<line fill="none" stroke="#FFFFFF" stroke-linejoin="round" stroke-miterlimit="10" x1="578.6" y1="242.7" x2="631.5" y2="242.7"/>
	<path fill="none" stroke="#FFFFFF" stroke-linecap="round" stroke-linejoin="round" stroke-miterlimit="10" d="M631.5,221.2v23.2
		c0,2.7-2.2,5-5,5h-43c-2.7,0-5-2.2-5-5v-23.2"/>
	<polyline fill="none" stroke="#FFFFFF" stroke-linecap="round" stroke-linejoin="round" stroke-miterlimit="10" points="
		578.6,214.6 578.6,206.3 586.8,206.3 	"/>
	
		<circle fill="none" stroke="#FFFFFF" stroke-linecap="round" stroke-linejoin="round" stroke-miterlimit="10" cx="576.9" cy="184.8" r="5"/>
	<path fill="none" stroke="#FFFFFF" stroke-linecap="round" stroke-linejoin="round" stroke-miterlimit="10" d="M585.2,199.7h-16.5
		c0-5.5,3.7-9.9,8.3-9.9S585.2,194.2,585.2,199.7z"/>
	
		<circle fill="none" stroke="#FFFFFF" stroke-linecap="round" stroke-linejoin="round" stroke-miterlimit="10" cx="633.2" cy="184.8" r="5"/>
	<path fill="none" stroke="#FFFFFF" stroke-linecap="round" stroke-linejoin="round" stroke-miterlimit="10" d="M641.5,199.7h-16.5
		c0-5.5,3.7-9.9,8.3-9.9C637.7,189.8,641.5,194.2,641.5,199.7z"/>
	
		<circle fill="none" stroke="#FFFFFF" stroke-linecap="round" stroke-linejoin="round" stroke-miterlimit="10" cx="605" cy="184.8" r="5"/>
	<path fill="none" stroke="#FFFFFF" stroke-linecap="round" stroke-linejoin="round" stroke-miterlimit="10" d="M613.3,199.7h-16.5
		c0-5.5,3.7-9.9,8.3-9.9S613.3,194.2,613.3,199.7z"/>
	
		<line fill="none" stroke="#FFFFFF" stroke-linecap="round" stroke-linejoin="round" stroke-miterlimit="10" x1="578.6" y1="206.3" x2="595" y2="222.8"/>
	<polyline fill="none" stroke="#FFFFFF" stroke-linecap="round" stroke-linejoin="round" stroke-miterlimit="10" points="
		631.5,214.6 631.5,206.3 623.2,206.3 	"/>
	
		<line fill="none" stroke="#FFFFFF" stroke-linecap="round" stroke-linejoin="round" stroke-miterlimit="10" x1="631.5" y1="206.3" x2="615.1" y2="222.8"/>
	
		<line fill="none" stroke="#FFFFFF" stroke-linecap="round" stroke-linejoin="round" stroke-miterlimit="10" x1="605" y1="222.8" x2="605" y2="206.3"/>
	<polyline fill="none" stroke="#FFFFFF" stroke-linecap="round" stroke-linejoin="round" stroke-miterlimit="10" points="
		598.5,211.2 605,206.3 611.7,211.3 	"/>
</g>
<g>
	<g>
		
			<circle fill="none" stroke="#FFFFFF" stroke-linecap="round" stroke-linejoin="round" stroke-miterlimit="10" cx="144.2" cy="95.6" r="17.5"/>
		<path fill="none" stroke="#FFFFFF" stroke-linecap="round" stroke-linejoin="round" stroke-miterlimit="10" d="M157.1,83.8
			c0,0-0.8,4.2-3.8,5.7c-7.1-1.8-4.4,2.2-3.8,4.6c0.8,0.8,2.3,0,2.3,0c3.4,6.7-2.3,8.4-2.3,8.4c-4.1,4.1-2.8,5.3-6.8,5.3
			c-0.8,0-2.3-3-2.3-3.8c0-5.8-2.9-6.8-5.3-6.8c-2.3,0-2.3-3-2.3-3s0-5.3,3.8-6.1c3.8-0.8,3.8,0.8,3.8,0.8c1.6,1.6,7.1-1.5,2.1-5.5
			c-1.9-1.5,6.9-4.4,6.9-4.4"/>
	</g>
	<polyline fill="none" stroke="#FFFFFF" stroke-linecap="round" stroke-linejoin="round" stroke-miterlimit="10" points="
		169.7,73.7 159.1,71.6 160,80.7 	"/>
	<polyline fill="none" stroke="#FFFFFF" stroke-linecap="round" stroke-linejoin="round" stroke-miterlimit="10" points="
		117.3,117.1 129.4,119.6 128.4,110.6 	"/>
	<path fill="none" stroke="#FFFFFF" stroke-linecap="round" stroke-linejoin="round" stroke-miterlimit="10" d="M159.1,71.6
		c8,5,13.4,13.9,13.4,24c0,15.6-12.7,28.3-28.3,28.3c-2.1,0-4.1-0.2-6-0.6"/>
	<path fill="none" stroke="#FFFFFF" stroke-linecap="round" stroke-linejoin="round" stroke-miterlimit="10" d="M129.4,119.6
		c-8-5-13.4-13.9-13.4-24c0-15.6,12.7-28.3,28.3-28.3c2,0,4,0.2,6,0.6"/>
</g>
<g>
	<path fill="none" stroke="#A3A3A3" stroke-miterlimit="10" d="M609.3,305.4h-0.8c-5,0-9.1,4.1-9.1,9.1c0,5,4.1,9.1,9.1,9.1h11.3
		l-9.8,7.6v-7.6"/>
	<path fill="none" stroke="#A3A3A3" stroke-miterlimit="10" d="M624.4,323.6h0.8c5,0,9.1-4.1,9.1-9.1c0-5-4.1-9.1-9.1-9.1h-11.3
		l9.8-7.5v7.5"/>
</g>
<g>
	<path fill="none" stroke="#A3A3A3" stroke-miterlimit="10" d="M90.6,171.3c0,0-2.2-5.1-6.6-5.1s-8,3.6-8,8c0,4.4,3.6,8,8,8
		c7.3,0,10.2-16,17.5-16c4.4,0,8,3.6,8,8c0,4.4-3.6,8-8,8s-6.6-3.6-6.6-3.6"/>
	<polyline fill="none" stroke="#A3A3A3" stroke-miterlimit="10" points="85.5,170.3 90.6,171.3 91.5,166.2 	"/>
</g>
<g>
	
		<rect x="132.8" y="310.8" fill="none" stroke="#0B98CC" stroke-linecap="round" stroke-linejoin="round" stroke-miterlimit="10" width="25" height="20"/>
	<path fill="none" stroke="#0B98CC" stroke-linecap="round" stroke-linejoin="round" stroke-miterlimit="10" d="M137.8,310.8v-2.5
		c0-4.1,3.4-7.5,7.5-7.5c4.1,0,7.5,3.4,7.5,7.5v2.5"/>
	<path fill="none" stroke="#0B98CC" stroke-linecap="round" stroke-linejoin="round" stroke-miterlimit="10" d="M155.4,288.3
		c0,1.4-1.1,2.5-2.5,2.5h-47.6c-1.4,0-2.5-1.1-2.5-2.5v-12.5c0-1.4,1.1-2.5,2.5-2.5h47.6c1.4,0,2.5,1.1,2.5,2.5V288.3z"/>
	
		<line fill="none" stroke="#0B98CC" stroke-linecap="round" stroke-linejoin="round" stroke-miterlimit="10" x1="121.6" y1="285.8" x2="146.6" y2="285.8"/>
	
		<line fill="none" stroke="#0B98CC" stroke-linecap="round" stroke-linejoin="round" stroke-miterlimit="10" x1="121.6" y1="280.8" x2="146.6" y2="280.8"/>
	
		<circle fill="none" stroke="#0B98CC" stroke-linecap="round" stroke-linejoin="round" stroke-miterlimit="10" cx="111.5" cy="282.1" r="2.5"/>
	<path fill="none" stroke="#0B98CC" stroke-linecap="round" stroke-linejoin="round" stroke-miterlimit="10" d="M124.1,308.3h-18.8
		c-1.4,0-2.5-1.1-2.5-2.5v-12.5c0-1.4,1.1-2.5,2.5-2.5h47.6c1.4,0,2.5,1.1,2.5,2.5v3.8"/>
	
		<line fill="none" stroke="#0B98CC" stroke-linecap="round" stroke-linejoin="round" stroke-miterlimit="10" x1="121.6" y1="303.3" x2="126.6" y2="303.3"/>
	
		<line fill="none" stroke="#0B98CC" stroke-linecap="round" stroke-linejoin="round" stroke-miterlimit="10" x1="121.6" y1="298.3" x2="129.1" y2="298.3"/>
	
		<circle fill="none" stroke="#0B98CC" stroke-linecap="round" stroke-linejoin="round" stroke-miterlimit="10" cx="111.5" cy="299.6" r="2.5"/>
	<path fill="none" stroke="#0B98CC" stroke-linecap="round" stroke-linejoin="round" stroke-miterlimit="10" d="M126.6,325.9h-21.3
		c-1.4,0-2.5-1.1-2.5-2.5v-12.5c0-1.4,1.1-2.5,2.5-2.5h18.8"/>
	
		<circle fill="none" stroke="#0B98CC" stroke-linecap="round" stroke-linejoin="round" stroke-miterlimit="10" cx="111.5" cy="317.1" r="2.5"/>
	
		<line fill="none" stroke="#0B98CC" stroke-linecap="round" stroke-linejoin="round" stroke-miterlimit="10" x1="145.3" y1="324.6" x2="145.3" y2="319.6"/>
	
		<circle fill="none" stroke="#0B98CC" stroke-linecap="round" stroke-linejoin="round" stroke-miterlimit="10" cx="145.3" cy="318.4" r="1.3"/>
</g>
<g>
	<path fill="none" stroke="#0B98CC" stroke-linecap="round" stroke-linejoin="round" stroke-miterlimit="10" d="M455.3,97.7
		c0,0,11.7-1.5,11.7-13c0-7.3-6-13.3-13.5-13c-2.9-6.2-9.2-10.5-16.5-10.5c-9.7,0-17.6,7.6-18.2,17.2c-6.1-1.3-11.8,3.4-11.8,9.6
		c0,8.2,7,9.5,9.6,9.7"/>
	<g>
		
			<rect x="426.1" y="95.2" fill="none" stroke="#0B98CC" stroke-linecap="round" stroke-linejoin="round" stroke-miterlimit="10" width="21.8" height="16.4"/>
		
			<line fill="none" stroke="#0B98CC" stroke-linecap="round" stroke-linejoin="round" stroke-miterlimit="10" x1="437" y1="106.2" x2="437" y2="103.4"/>
		<path fill="none" stroke="#0B98CC" stroke-linecap="round" stroke-linejoin="round" stroke-miterlimit="10" d="M428.8,95.2v-2.7
			c0-4.5,3.7-8.2,8.2-8.2c4.5,0,8.2,3.7,8.2,8.2v2.7"/>
		
			<circle fill="none" stroke="#0B98CC" stroke-linecap="round" stroke-linejoin="round" stroke-miterlimit="10" cx="437" cy="102.1" r="1.4"/>
	</g>
</g>
<g>
	<path fill="none" stroke="#A1A1A1" stroke-miterlimit="10" d="M273.1,362.2c-12.5-10.8-13.8-29.6-3.1-42.1"/>
	<path fill="none" stroke="#A1A1A1" stroke-miterlimit="10" d="M312.1,317.1c12.5,10.8,13.8,29.6,3.1,42.1"/>
</g>
<g>
	<path fill="none" stroke="#A1A1A1" stroke-miterlimit="10" d="M258.3,125.6c-10.2-10.2-10.2-26.6,0-36.8"/>
	<path fill="none" stroke="#A1A1A1" stroke-miterlimit="10" d="M295.1,88.8c10.2,10.2,10.2,26.6,0,36.8"/>
</g>
<g>
	<path fill="none" stroke="#A1A1A1" stroke-miterlimit="10" d="M492.6,331.8c-13.3-6.7-18.7-22.9-12-36.2"/>
	<path fill="none" stroke="#A1A1A1" stroke-miterlimit="10" d="M516.8,283.5c13.3,6.7,18.7,22.9,12,36.2"/>
</g>
</svg>
