<?xml version="1.0" encoding="utf-8"?>
<!-- Generator: Adobe Illustrator 23.0.1, SVG Export Plug-In . SVG Version: 6.00 Build 0)  -->
<svg version="1.1" id="Layer_60" xmlns="http://www.w3.org/2000/svg" xmlns:xlink="http://www.w3.org/1999/xlink" x="0px" y="0px"
	 viewBox="0 0 750 400" enable-background="new 0 0 750 400" xml:space="preserve">
<g id="clouds_bits">
	<g transform="matrix( 1, 0, 0, 1, -179.4,-238.9) ">
		<g>
			<g id="Layer6_2_FILL">
				<path fill="#BAD727" d="M458.9,578c0-0.5-0.2-1-0.6-1.3c-0.4-0.4-0.8-0.6-1.3-0.6c-0.5,0-1,0.2-1.4,0.6
					c-0.4,0.4-0.6,0.8-0.6,1.3s0.2,1,0.6,1.4c0.4,0.4,0.8,0.5,1.4,0.5c0.5,0,1-0.2,1.3-0.5C458.7,579,458.9,578.5,458.9,578z"/>
			</g>
		</g>
	</g>
	<g transform="matrix( 1, 0, 0, 1, -731.8,-347.45) ">
		<g>
			<g id="Layer6_3_FILL">
				<path fill="#BAD727" d="M851.7,428.8c0-0.5-0.2-1-0.6-1.3c-0.4-0.4-0.8-0.6-1.3-0.6s-1,0.2-1.4,0.6c-0.4,0.4-0.5,0.8-0.5,1.3
					c0,0.5,0.2,1,0.5,1.4c0.4,0.4,0.8,0.6,1.4,0.6c0.5,0,1-0.2,1.3-0.6C851.5,429.8,851.7,429.3,851.7,428.8z"/>
			</g>
		</g>
	</g>
	<g transform="matrix( 1, 0, 0, 1, -226.5,-202.65) ">
		<g>
			<g id="Layer6_4_FILL">
				<path fill="#F7571A" d="M598,321.3c0-0.5-0.2-1-0.6-1.3c-0.4-0.4-0.8-0.6-1.4-0.6s-1,0.2-1.3,0.6c-0.4,0.4-0.5,0.8-0.5,1.3
					c0,0.5,0.2,1,0.5,1.4c0.4,0.4,0.8,0.6,1.3,0.6s1-0.2,1.4-0.6C597.8,322.3,598,321.8,598,321.3z"/>
			</g>
		</g>
	</g>
	<g transform="matrix( 1, 0, 0, 1, -149.4,-124.55) ">
		<g>
			<g id="Layer6_5_FILL">
				<path fill="#F7571A" d="M520.9,449.9c0-0.5-0.2-1-0.6-1.4c-0.4-0.4-0.8-0.5-1.3-0.5s-1,0.2-1.4,0.5c-0.4,0.4-0.5,0.8-0.5,1.4
					c0,0.5,0.2,1,0.5,1.4c0.4,0.4,0.8,0.6,1.4,0.6s1-0.2,1.3-0.6C520.7,450.9,520.9,450.4,520.9,449.9z"/>
			</g>
		</g>
	</g>
	<g transform="matrix( 1, 0, 0, 1, -306.85,-211.8) ">
		<g>
			<g id="Layer6_6_FILL">
				<path fill="#DEDEDE" d="M454,529.6c0-1.1-0.4-2-1.1-2.8c-0.8-0.7-1.7-1.1-2.8-1.1c-1.1,0-2,0.4-2.7,1.1
					c-0.7,0.8-1.1,1.7-1.1,2.8c0,1.1,0.4,2,1.1,2.7c0.8,0.7,1.7,1.1,2.7,1.1c1.1,0,2-0.4,2.8-1.1C453.6,531.6,454,530.7,454,529.6z"
					/>
			</g>
		</g>
	</g>
	<g transform="matrix( 1, 0, 0, 1, -422.4,-199.5) ">
		<g>
			<g id="Layer6_7_FILL">
				<path fill="#DEDEDE" d="M848.8,493.6c-0.4-0.4-0.8-0.5-1.4-0.5c-0.5,0-1,0.2-1.4,0.5c-0.4,0.4-0.5,0.9-0.5,1.4
					c0,0.5,0.2,1,0.5,1.4c0.4,0.4,0.8,0.6,1.4,0.6c0.5,0,1-0.2,1.4-0.6c0.4-0.4,0.6-0.8,0.6-1.4
					C849.4,494.5,849.2,494.1,848.8,493.6z"/>
			</g>
		</g>
	</g>
	<g transform="matrix( 1, 0, 0, 1, -317.3,-300.6) ">
		<g>
			<g id="Layer6_8_FILL">
				<path fill="#D1D1D1" d="M844.5,583.7c0-1.1-0.4-2-1.1-2.7c-0.8-0.7-1.7-1.1-2.8-1.1c-1.1,0-2,0.4-2.7,1.1
					c-0.8,0.8-1.2,1.7-1.2,2.7c0,1.1,0.4,2,1.2,2.8c0.7,0.7,1.6,1.1,2.7,1.1c1.1,0,2-0.4,2.8-1.1
					C844.1,585.7,844.5,584.8,844.5,583.7z"/>
			</g>
		</g>
	</g>
	<g transform="matrix( 1, 0, 0, 1, -173.3,-265.55) ">
		<g>
			<path id="Layer6_9_1_STROKES" fill="none" stroke="#BFBFBF" stroke-width="2" stroke-miterlimit="10" d="M855,350.9
				c0,0.9-0.3,1.7-1,2.3c-0.6,0.6-1.4,1-2.3,1c-0.9,0-1.7-0.3-2.3-1c-0.6-0.6-1-1.4-1-2.3c0-0.9,0.3-1.6,1-2.3c0.6-0.6,1.4-1,2.3-1
				c0.9,0,1.6,0.3,2.3,1C854.7,349.2,855,350,855,350.9z"/>
		</g>
	</g>
	<g transform="matrix( 1, 0, 0, 1, -199.5,-198.6) ">
		<g>
			<path id="Layer6_10_1_STROKES" fill="none" stroke="#BFBFBF" stroke-width="2" stroke-miterlimit="10" d="M678.5,551.5
				c0,0.9-0.3,1.7-1,2.3s-1.4,1-2.3,1c-0.9,0-1.7-0.3-2.3-1c-0.6-0.6-1-1.4-1-2.3s0.3-1.7,1-2.3c0.6-0.6,1.4-1,2.3-1
				c0.9,0,1.6,0.3,2.3,1C678.1,549.8,678.5,550.5,678.5,551.5z"/>
		</g>
	</g>
	<g transform="matrix( 1, 0, 0, 1, -213.95,-213.4) ">
		<g>
			<path id="Layer6_11_1_STROKES" fill="none" stroke="#BFBFBF" stroke-width="2" stroke-miterlimit="10" d="M619.5,264.3
				c0,0.9-0.3,1.7-1,2.3c-0.6,0.6-1.4,0.9-2.3,0.9c-0.9,0-1.6-0.3-2.3-0.9c-0.6-0.6-1-1.4-1-2.3c0-0.9,0.3-1.6,1-2.3
				c0.6-0.6,1.4-0.9,2.3-0.9c0.9,0,1.7,0.3,2.3,0.9S619.5,263.4,619.5,264.3z"/>
		</g>
	</g>
	<g transform="matrix( 1, 0, 0, 1, -197.45,-186.6) ">
		<g>
			<g id="Layer6_12_MEMBER_0_FILL">
				<path fill="#83C4EC" d="M506.5,271.5h7c0.3,0,0.5-0.1,0.7-0.3c0.2-0.2,0.3-0.4,0.3-0.7c0-0.3-0.1-0.5-0.3-0.7
					c-0.2-0.2-0.4-0.3-0.7-0.3h-7c-0.6,0-0.9,0.3-0.9,0.9c0,0.3,0.1,0.5,0.3,0.7C506.1,271.4,506.3,271.5,506.5,271.5z"/>
			</g>
		</g>
	</g>
	<g transform="matrix( 1, 0, 0, 1, -197.45,-186.6) ">
		<g>
			<g id="Layer6_12_MEMBER_1_FILL">
				<path fill="#83C4EC" d="M509.4,266.4c-0.2,0.2-0.3,0.4-0.3,0.6v7c0,0.3,0.1,0.5,0.3,0.7c0.2,0.2,0.4,0.3,0.6,0.3
					c0.6,0,1-0.3,1-1v-7c0-0.3-0.1-0.5-0.3-0.6c-0.2-0.2-0.4-0.3-0.7-0.3C509.8,266,509.6,266.1,509.4,266.4z"/>
			</g>
		</g>
	</g>
	<g transform="matrix( 1, 0, 0, 1, -450.3,-275.35) ">
		<g>
			<g id="Layer6_13_MEMBER_0_FILL">
				<path fill="#83C4EC" d="M909.2,384.4c0.2,0.2,0.4,0.3,0.6,0.3h7.1c0.3,0,0.5-0.1,0.7-0.3c0.2-0.2,0.2-0.4,0.3-0.6
					c0-0.6-0.3-1-0.9-1h-7.1c-0.3,0-0.5,0.1-0.6,0.3c-0.2,0.2-0.3,0.4-0.3,0.7C908.9,384,909,384.2,909.2,384.4z"/>
			</g>
		</g>
	</g>
	<g transform="matrix( 1, 0, 0, 1, -450.3,-275.35) ">
		<g>
			<g id="Layer6_13_MEMBER_1_FILL">
				<path fill="#83C4EC" d="M914.3,380.1c0-0.2-0.1-0.5-0.3-0.6c-0.2-0.2-0.4-0.3-0.6-0.3c-0.3,0-0.5,0.1-0.7,0.3
					c-0.2,0.2-0.3,0.4-0.3,0.6v7.1c0,0.3,0.1,0.5,0.3,0.7c0.2,0.2,0.4,0.3,0.7,0.3c0.3,0,0.5-0.1,0.6-0.3c0.2-0.2,0.3-0.4,0.3-0.7
					V380.1z"/>
			</g>
		</g>
	</g>
	<g transform="matrix( 1, 0, 0, 1, -230.4,-214.2) ">
		<g>
			<g id="Layer6_14_MEMBER_0_FILL">
				<path fill="#83C4EC" d="M399.5,556.6c-0.3,0-0.5,0.1-0.7,0.3c-0.2,0.2-0.3,0.4-0.3,0.7c0,0.3,0.1,0.5,0.3,0.7
					c0.2,0.2,0.4,0.3,0.7,0.3h7c0.3,0,0.5-0.1,0.7-0.3c0.2-0.2,0.3-0.4,0.3-0.7c0-0.6-0.3-1-1-1H399.5z"/>
			</g>
		</g>
	</g>
	<g transform="matrix( 1, 0, 0, 1, -230.4,-214.2) ">
		<g>
			<g id="Layer6_14_MEMBER_1_FILL">
				<path fill="#83C4EC" d="M404,554c0-0.2-0.1-0.5-0.3-0.7c-0.2-0.2-0.4-0.3-0.6-0.3s-0.5,0.1-0.7,0.3c-0.2,0.2-0.3,0.4-0.3,0.7v7
					c0,0.3,0.1,0.5,0.3,0.7c0.2,0.2,0.4,0.3,0.7,0.3s0.5-0.1,0.6-0.3c0.2-0.2,0.3-0.4,0.3-0.7V554z"/>
			</g>
		</g>
	</g>
	<g transform="matrix( 1, 0, 0, 1, -527.35,-399.8) ">
		<g>
			<g id="Layer6_15_MEMBER_0_FILL">
				<path fill="#83C4EC" d="M584.3,587c0.2,0.2,0.4,0.3,0.7,0.3h7c0.3,0,0.5-0.1,0.7-0.3c0.2-0.2,0.3-0.4,0.3-0.7s-0.1-0.5-0.3-0.6
					c-0.2-0.2-0.4-0.3-0.7-0.3h-7c-0.3,0-0.5,0.1-0.7,0.3c-0.2,0.2-0.3,0.4-0.3,0.6S584.1,586.9,584.3,587z"/>
			</g>
		</g>
	</g>
	<g transform="matrix( 1, 0, 0, 1, -527.35,-399.8) ">
		<g>
			<g id="Layer6_15_MEMBER_1_FILL">
				<path fill="#83C4EC" d="M588.5,590.8c0.3,0,0.5-0.1,0.7-0.3c0.2-0.2,0.3-0.4,0.3-0.6v-7.1c0-0.6-0.3-0.9-1-0.9
					c-0.6,0-1,0.3-1,0.9v7.1c0,0.3,0.1,0.5,0.3,0.6C588,590.8,588.3,590.8,588.5,590.8z"/>
			</g>
		</g>
	</g>
	<g transform="matrix( 1, 0, 0, 1, -48.8,-274.3) ">
		<g>
			<g id="Layer6_16_MEMBER_0_FILL">
				<path fill="#83C4EC" d="M745,571.2c0.3,0,0.5-0.1,0.6-0.3c0.2-0.2,0.3-0.4,0.3-0.7c0-0.2-0.1-0.5-0.3-0.7
					c-0.2-0.2-0.4-0.3-0.6-0.3h-7c-0.3,0-0.5,0.1-0.7,0.3c-0.2,0.2-0.3,0.4-0.3,0.7c0,0.3,0.1,0.5,0.3,0.7c0.2,0.2,0.4,0.3,0.7,0.3
					H745z"/>
			</g>
		</g>
	</g>
	<g transform="matrix( 1, 0, 0, 1, -48.8,-274.3) ">
		<g>
			<g id="Layer6_16_MEMBER_1_FILL">
				<path fill="#83C4EC" d="M740.8,566c-0.2,0.2-0.3,0.4-0.3,0.7v7c0,0.3,0.1,0.5,0.3,0.7c0.2,0.2,0.4,0.3,0.7,0.3
					c0.3,0,0.5-0.1,0.7-0.3c0.2-0.2,0.3-0.4,0.3-0.7v-7c0-0.3-0.1-0.5-0.3-0.7c-0.2-0.2-0.4-0.3-0.7-0.3
					C741.1,565.8,740.9,565.8,740.8,566z"/>
			</g>
		</g>
	</g>
	<g transform="matrix( 1, 0, 0, 1, -287.6,-198.6) ">
		<g>
			<g id="Layer6_17_FILL">
				<path fill="#BFBFBF" d="M521,492.2h-6l-3,5.2l3,5.2h6l3-5.2L521,492.2 M515.8,493.6h4.4l2.2,3.8l-2.2,3.8h-4.4l-2.2-3.8
					L515.8,493.6z"/>
			</g>
		</g>
	</g>
	<g transform="matrix( 1, 0, 0, 1, -287.6,-198.6) ">
		<g>
			<g id="Layer6_18_FILL">
				<path fill="#BFBFBF" d="M845.3,287.1l-3,5.2l3,5.2h6l3-5.2l-3-5.2H845.3 M846.2,296.1l-2.2-3.8l2.2-3.8h4.3l2.2,3.8l-2.2,3.8
					H846.2z"/>
			</g>
		</g>
	</g>
	<g transform="matrix( 1, 0, 0, 1, 337.2,55) " opacity="0.17">
		<g transform="matrix( 1, 0, 0, 1, 0,0) ">
			<g>
				<g id="flash0_ai_Layer_91__Path__0_Layer0_0_FILL_1_">
					<path fill="#3D3D3D" d="M-51.7,65.6c-0.2-11.4-4.1-21.1-11.7-29.1c-7.5-8.1-16.5-12.1-27-12.1c-6,0-11.7,1.4-17.1,4.3
						c-5.2,2.8-9.6,6.6-13.2,11.5c-1.4-2.9-3.5-5.3-6.1-7.1c-2.7-1.8-5.7-2.7-8.8-2.7c-4,0-7.5,1.3-10.6,4c-3,2.6-5,6-6,10.1
						c-2.7-1.2-5.4-1.8-8.2-1.8c-4.3,0-8.3,1.3-12,3.9c-2.5-2.7-5.4-4.8-8.6-6.3c-3.4-1.5-6.9-2.3-10.6-2.3
						c-5.7,0-10.8,1.7-15.5,5.3c-4.5,3.4-7.8,7.9-9.8,13.4c-1.2-1.4-2.6-2.5-4.3-3.3s-3.5-1.2-5.3-1.2c-3.5,0-6.5,1.3-9,3.9
						c-2.5,2.6-3.9,5.7-4.2,9.5C-239.7,65.6-51.7,65.6-51.7,65.6z"/>
				</g>
			</g>
		</g>
	</g>
	<g transform="matrix( 1, 0, 0, 1, 337.2,55) " opacity="0.17">
		<g transform="matrix( 1, 0, 0, 1, 0,0) ">
			<g>
				<g id="flash0_ai_Layer_92__Path__0_Layer0_0_FILL_2_">
					<path fill="#3D3D3D" d="M347.3,273.2c-0.2-2.6-1.3-4.6-3.2-6.4c-1.9-1.8-4.2-2.6-6.8-2.6c-1.4,0-2.7,0.3-4,0.8
						c-1.3,0.5-2.4,1.3-3.3,2.2c-1.5-3.7-4-6.7-7.4-9c-3.6-2.4-7.4-3.6-11.8-3.6c-2.8,0-5.5,0.5-8,1.5c-2.4,1-4.6,2.4-6.5,4.2
						c-2.8-1.8-5.8-2.6-9.1-2.6c-2.1,0-4.2,0.4-6.2,1.2c-0.8-2.8-2.3-5.1-4.6-6.8c-2.4-1.8-5-2.7-8-2.7c-2.4,0-4.6,0.6-6.7,1.8
						c-2,1.2-3.6,2.8-4.6,4.8c-2.7-3.3-6.1-5.9-10-7.7c-4.1-2-8.4-2.9-13-2.9c-8,0-14.8,2.7-20.5,8.1c-5.8,5.4-8.7,11.9-8.9,19.6
						C204.7,273.2,347.3,273.2,347.3,273.2z"/>
				</g>
			</g>
		</g>
	</g>
	<g transform="matrix( 1, 0, 0, 1, 337.2,55) " opacity="0.17">
		<g transform="matrix( 1, 0, 0, 1, 0,0) ">
			<g>
				<g id="flash0_ai_Layer_93__Path__0_Layer0_0_FILL_3_">
					<path fill="#3D3D3D" d="M377.2,59.9c-0.1-1.5-0.7-2.7-1.8-3.7c-1.1-1-2.4-1.5-3.9-1.5c-0.8,0-1.6,0.2-2.3,0.5
						c-0.7,0.3-1.4,0.7-1.9,1.3c-0.9-2.1-2.3-3.9-4.3-5.2c-2-1.4-4.3-2.1-6.8-2.1c-1.6,0-3.1,0.3-4.6,0.9c-1.4,0.6-2.7,1.4-3.7,2.4
						c-1.6-1-3.4-1.5-5.2-1.5c-1.2,0-2.4,0.2-3.6,0.7c-0.4-1.6-1.3-2.9-2.6-3.9c-1.4-1-2.9-1.5-4.6-1.5c-1.4,0-2.7,0.3-3.8,1
						c-1.1,0.7-2,1.6-2.7,2.7c-1.6-1.9-3.5-3.4-5.8-4.5c-2.4-1.1-4.8-1.7-7.5-1.7c-4.6,0-8.5,1.5-11.8,4.7c-3.3,3.1-5,6.9-5.1,11.3
						C295.2,59.9,377.2,59.9,377.2,59.9z"/>
				</g>
			</g>
		</g>
	</g>
</g>
<g id="lock">
	<g transform="matrix( 1, 0, 0, 1, 0,0) ">
		<g>
			<path id="Layer5_0_1_STROKES" fill="none" stroke="#F7571A" stroke-width="2" stroke-linejoin="round" d="M417.5,199.8v-10.3
				c0-4.5,1.6-8.3,4.8-11.4c3.1-3.2,6.9-4.8,11.4-4.8c4.5,0,8.3,1.6,11.4,4.8c3.2,3.1,4.8,6.9,4.8,11.4v10.3h8.9v41.1h-50v-41.1
				H417.5h32.3 M433.6,217.4c-0.4,0-0.7-0.1-1-0.4c-0.3-0.3-0.4-0.7-0.4-1.1c0-0.4,0.1-0.8,0.4-1.1c0.3-0.3,0.6-0.4,1-0.4
				c0.4,0,0.8,0.1,1,0.4c0.3,0.3,0.4,0.7,0.4,1.1c0,0.4-0.1,0.8-0.4,1.1C434.4,217.2,434,217.4,433.6,217.4z"/>
		</g>
		<g>
			
				<path id="Layer5_0_2_STROKES" fill="none" stroke="#F7571A" stroke-width="2" stroke-linecap="round" stroke-linejoin="round" d="
				M433.6,217.4v8.8"/>
		</g>
	</g>
</g>
<g id="connector">
	<g transform="matrix( 1, 0, 0, 1, 0,0) ">
		<g>
			<path id="Layer4_0_1_STROKES" fill="none" stroke="#A3A3A3" stroke-miterlimit="10" d="M392.2,249.6c-0.6-0.6-1.3-1.3-1.9-1.9
				c-5.6-6-9.7-12.7-12.2-19.9c-2.2-6.2-3.4-12.8-3.4-19.9c0-0.1,0-0.1,0-0.2c0-7,1.1-13.6,3.2-19.8c2.5-7.3,6.6-14.1,12.2-20.1
				c0.7-0.7,1.4-1.4,2-2.1c11.6-11.6,25.6-17.4,42-17.4c16.4,0,30.4,5.8,42,17.4c11.6,11.6,17.3,25.6,17.3,42
				c0,16.4-5.7,30.3-17.3,41.9"/>
		</g>
	</g>
</g>
<g id="server">
	<g transform="matrix( 1, 0, 0, 1, 570.85,108.5) ">
		<g transform="matrix( 1, 0, 0, 1, 0,0) ">
			<g>
				<g id="big_server_0_Layer0_0_FILL">
					<path fill="#CBE15C" d="M0,82v28.9h110.8V82H0 M81.2,94.8c0.4,0.5,0.7,1.1,0.8,1.7c0,0,0,0.1,0,0.2c0,0.7-0.3,1.3-0.8,1.8
						c-0.4,0.4-1,0.6-1.7,0.6c-0.6,0-1.2-0.2-1.7-0.6c-0.4-0.5-0.7-1.1-0.7-1.8c0-0.1,0-0.1,0-0.2c0.1-0.6,0.3-1.1,0.7-1.7
						c0.5-0.4,1-0.7,1.7-0.7C80.2,94.1,80.8,94.3,81.2,94.8 M94.1,94.1c0.7,0,1.3,0.2,1.7,0.7c0.4,0.5,0.6,1.1,0.7,1.7
						c0,0,0,0.1,0,0.2c0,0.7-0.2,1.3-0.7,1.8c-0.4,0.4-1,0.6-1.7,0.6c-0.6,0-1.2-0.2-1.8-0.6c-0.4-0.5-0.7-1.1-0.7-1.8
						c0-0.1,0-0.1,0-0.2c0-0.6,0.3-1.1,0.7-1.7C92.8,94.3,93.4,94.1,94.1,94.1 M9.6,96.6c0-0.1,0-0.1,0-0.2c0-1.3,0.5-2.4,1.5-3.4
						c0.9-0.9,2.1-1.4,3.4-1.4S17,92.1,18,93c0.9,1,1.3,2.1,1.3,3.4c0,0,0,0.1,0,0.2c0,1.3-0.4,2.4-1.3,3.3c-1,1-2.2,1.4-3.5,1.4
						s-2.5-0.5-3.4-1.4C10.1,98.9,9.6,97.8,9.6,96.6 M63.3,94.8c0.6-0.4,1.2-0.7,1.8-0.7c0.7,0,1.2,0.2,1.7,0.7
						c0.4,0.5,0.6,1.1,0.7,1.7c0,0,0,0.1,0,0.2c0,0.7-0.2,1.3-0.7,1.8c-0.5,0.4-1,0.6-1.7,0.6c-0.6,0-1.2-0.2-1.8-0.6
						c-0.4-0.5-0.6-1.1-0.6-1.8c0-0.1,0-0.1,0-0.2C62.7,95.8,63,95.3,63.3,94.8 M65.2,94.1c-0.6,0-1.2,0.2-1.8,0.7
						c-0.4,0.5-0.6,1.1-0.6,1.7c0,0,0,0.1,0,0.2c0,0.6,0.3,1.1,0.6,1.5c0.6,0.5,1.2,0.8,1.8,0.8c0.7,0,1.2-0.2,1.7-0.8
						c0.4-0.4,0.6-0.9,0.7-1.5c0-0.1,0-0.1,0-0.2c-0.1-0.6-0.3-1.1-0.7-1.7C66.4,94.3,65.8,94.1,65.2,94.1 M9.6,96.4
						c0,0,0,0.1,0,0.2c0,1.3,0.5,2.4,1.5,3.3c0.9,0.9,2.1,1.3,3.4,1.3c1.3,0,2.5-0.4,3.5-1.3c0.9-1,1.3-2.1,1.3-3.3
						c0-0.1,0-0.1,0-0.2c0-1.3-0.5-2.4-1.3-3.3c-1-0.9-2.2-1.4-3.5-1.4s-2.5,0.5-3.4,1.4C10.2,94,9.7,95.1,9.6,96.4 M95.8,94.8
						c-0.4-0.4-1-0.7-1.7-0.7c-0.6,0-1.2,0.2-1.8,0.7c-0.4,0.5-0.6,1.1-0.7,1.7c0,0,0,0.1,0,0.2c0,0.6,0.3,1.1,0.7,1.5
						c0.6,0.5,1.2,0.8,1.8,0.8c0.7,0,1.3-0.2,1.7-0.8c0.4-0.4,0.6-0.9,0.7-1.5c0-0.1,0-0.1,0-0.2C96.3,95.8,96.1,95.3,95.8,94.8
						 M81.9,96.4c-0.1-0.6-0.3-1.1-0.8-1.7c-0.4-0.4-1-0.7-1.7-0.7c-0.6,0-1.2,0.2-1.7,0.7c-0.3,0.5-0.6,1.1-0.7,1.7
						c0,0,0,0.1,0,0.2c0.1,0.6,0.3,1.1,0.7,1.5c0.5,0.5,1,0.8,1.7,0.8c0.7,0,1.3-0.2,1.7-0.8c0.4-0.4,0.7-0.9,0.8-1.5
						C81.9,96.5,81.9,96.4,81.9,96.4 M2.9,166c1.9,1.9,4.1,2.9,6.8,2.9h91.7c2.6,0,4.8-0.9,6.7-2.9c1.9-1.9,2.8-4.2,2.8-6.9v-19.3H0
						v19.3C0,161.8,1,164.1,2.9,166 M18,150.9c0.9,1,1.3,2.1,1.3,3.4c0,1.3-0.4,2.5-1.3,3.5c-1,0.9-2.2,1.3-3.5,1.3
						s-2.5-0.4-3.4-1.3c-1-1-1.5-2.2-1.5-3.5c0-1.3,0.5-2.4,1.5-3.4c0.9-0.9,2.1-1.3,3.4-1.3S17,150,18,150.9 M77.8,152.7
						c0.5-0.4,1-0.6,1.7-0.6s1.2,0.2,1.7,0.6c0.5,0.4,0.8,1,0.8,1.6c0,0.7-0.3,1.2-0.8,1.6c-0.4,0.5-1,0.8-1.7,0.8
						c-0.6,0-1.2-0.3-1.7-0.8c-0.4-0.5-0.7-1-0.7-1.6S77.4,153.1,77.8,152.7 M66.8,152.7c0.4,0.4,0.7,1,0.7,1.6
						c0,0.7-0.2,1.2-0.7,1.6c-0.5,0.5-1,0.8-1.7,0.8c-0.6,0-1.2-0.3-1.8-0.8c-0.4-0.4-0.6-1-0.6-1.6c0-0.6,0.2-1.2,0.6-1.6
						c0.6-0.4,1.2-0.6,1.8-0.6C65.7,152.1,66.3,152.3,66.8,152.7 M95.8,152.7c0.4,0.4,0.7,1,0.7,1.6c0,0.7-0.2,1.2-0.7,1.6
						c-0.4,0.5-1,0.8-1.7,0.8c-0.6,0-1.2-0.3-1.8-0.8c-0.4-0.4-0.7-1-0.7-1.6c0-0.6,0.2-1.2,0.7-1.6c0.6-0.4,1.2-0.6,1.8-0.6
						C94.7,152.1,95.3,152.3,95.8,152.7 M96.4,154.3c0-0.6-0.2-1.2-0.7-1.6c-0.5-0.4-1.1-0.6-1.7-0.6c-0.6,0-1.2,0.2-1.8,0.6
						c-0.4,0.4-0.7,1-0.7,1.6c0,0.7,0.2,1.2,0.7,1.6c0.6,0.5,1.2,0.8,1.8,0.8c0.7,0,1.3-0.3,1.7-0.8C96.2,155.5,96.4,155,96.4,154.3
						 M67.5,154.3c0-0.6-0.2-1.2-0.7-1.6c-0.6-0.4-1.2-0.6-1.7-0.6c-0.6,0-1.2,0.2-1.8,0.6c-0.4,0.4-0.6,1-0.6,1.6
						c0,0.7,0.2,1.2,0.6,1.6c0.6,0.5,1.2,0.8,1.8,0.8c0.7,0,1.2-0.3,1.7-0.8C67.3,155.5,67.5,155,67.5,154.3 M79.5,152.1
						c-0.6,0-1.2,0.2-1.7,0.6c-0.4,0.4-0.7,1-0.7,1.6s0.2,1.2,0.7,1.6c0.5,0.5,1,0.8,1.7,0.8c0.7,0,1.3-0.3,1.7-0.8
						c0.5-0.4,0.8-1,0.8-1.6c0-0.6-0.3-1.2-0.8-1.6C80.7,152.3,80.1,152.1,79.5,152.1 M19.3,154.3c0-1.3-0.4-2.4-1.3-3.4
						c-1-0.9-2.2-1.3-3.5-1.3s-2.5,0.4-3.4,1.3c-1,1-1.5,2.1-1.5,3.4c0,1.3,0.5,2.5,1.5,3.5c0.9,0.9,2.1,1.3,3.4,1.3
						s2.5-0.4,3.5-1.3C18.9,156.8,19.3,155.6,19.3,154.3 M0,110.9v29h110.8v-29H0 M77.2,125.4c0-0.6,0.2-1.2,0.7-1.6
						c0.5-0.5,1-0.8,1.7-0.8c0.7,0,1.3,0.3,1.7,0.8c0.5,0.5,0.8,1,0.8,1.6c0,0.6-0.3,1.2-0.8,1.6s-1.1,0.6-1.7,0.6
						c-0.6,0-1.2-0.2-1.7-0.6C77.4,126.6,77.2,126.1,77.2,125.4 M62.7,125.4c0-0.6,0.2-1.2,0.6-1.6c0.6-0.5,1.2-0.8,1.8-0.8
						c0.7,0,1.2,0.3,1.7,0.8c0.4,0.5,0.7,1,0.7,1.6c0,0.6-0.2,1.2-0.7,1.6c-0.6,0.4-1.2,0.6-1.7,0.6c-0.6,0-1.2-0.2-1.8-0.6
						C62.9,126.6,62.7,126.1,62.7,125.4 M14.5,120.7c1.3,0,2.5,0.5,3.5,1.4c0.9,1,1.3,2.1,1.3,3.4c0,1.3-0.4,2.4-1.3,3.4
						c-1,0.9-2.2,1.3-3.5,1.3s-2.5-0.4-3.4-1.3c-1-1-1.5-2.1-1.5-3.4c0-1.3,0.5-2.4,1.5-3.4C12,121.1,13.2,120.7,14.5,120.7
						 M95.8,123.8c0.4,0.5,0.7,1,0.7,1.6c0,0.6-0.2,1.2-0.7,1.6c-0.5,0.4-1.1,0.6-1.7,0.6c-0.6,0-1.2-0.2-1.8-0.6
						c-0.4-0.4-0.7-1-0.7-1.6c0-0.6,0.2-1.2,0.7-1.6c0.6-0.5,1.2-0.8,1.8-0.8C94.8,123,95.3,123.3,95.8,123.8 M96.4,125.4
						c0-0.6-0.2-1.2-0.7-1.6c-0.4-0.5-1-0.8-1.7-0.8c-0.6,0-1.2,0.3-1.8,0.8c-0.4,0.5-0.7,1-0.7,1.6c0,0.6,0.2,1.2,0.7,1.6
						c0.6,0.4,1.2,0.6,1.8,0.6c0.6,0,1.2-0.2,1.7-0.6C96.2,126.6,96.4,126.1,96.4,125.4 M18,122.1c-1-0.9-2.2-1.4-3.5-1.4
						s-2.5,0.5-3.4,1.4c-1,1-1.5,2.1-1.5,3.4c0,1.3,0.5,2.4,1.5,3.4c0.9,0.9,2.1,1.3,3.4,1.3s2.5-0.4,3.5-1.3c0.9-1,1.3-2.1,1.3-3.4
						C19.3,124.2,18.9,123,18,122.1 M63.3,123.8c-0.4,0.5-0.6,1-0.6,1.6c0,0.6,0.2,1.2,0.6,1.6c0.6,0.4,1.2,0.6,1.8,0.6
						c0.5,0,1.1-0.2,1.7-0.6c0.4-0.4,0.7-1,0.7-1.6c0-0.6-0.2-1.2-0.7-1.6c-0.5-0.5-1-0.8-1.7-0.8C64.5,123,63.9,123.3,63.3,123.8
						 M77.8,123.8c-0.4,0.5-0.7,1-0.7,1.6c0,0.6,0.2,1.2,0.7,1.6c0.5,0.4,1,0.6,1.7,0.6c0.6,0,1.2-0.2,1.7-0.6s0.8-1,0.8-1.6
						c0-0.6-0.3-1.2-0.8-1.6c-0.4-0.5-1-0.8-1.7-0.8C78.9,123,78.3,123.3,77.8,123.8 M110.8,53V24H0v29H110.8 M94.1,36.2
						c0.7,0,1.3,0.2,1.7,0.6c0.4,0.6,0.7,1.2,0.7,1.8c0,0.7-0.2,1.3-0.7,1.7c-0.4,0.4-1,0.7-1.7,0.7c-0.6,0-1.2-0.2-1.8-0.7
						c-0.4-0.4-0.7-1-0.7-1.7c0-0.6,0.2-1.2,0.7-1.8C92.8,36.4,93.4,36.2,94.1,36.2 M81.9,38.7c0,0.7-0.3,1.3-0.8,1.7
						c-0.4,0.4-1,0.7-1.7,0.7c-0.6,0-1.2-0.2-1.7-0.7c-0.4-0.5-0.7-1.1-0.7-1.7c0-0.6,0.2-1.2,0.7-1.8c0.5-0.4,1-0.6,1.7-0.6
						c0.7,0,1.3,0.2,1.7,0.6C81.7,37.4,81.9,38,81.9,38.7 M65.2,36.2c0.7,0,1.2,0.2,1.7,0.6c0.4,0.6,0.7,1.2,0.7,1.8
						c0,0.7-0.2,1.3-0.7,1.7c-0.5,0.4-1,0.7-1.7,0.7c-0.6,0-1.2-0.2-1.8-0.7c-0.4-0.4-0.6-1-0.6-1.7c0-0.6,0.2-1.2,0.6-1.8
						C63.9,36.4,64.5,36.2,65.2,36.2 M19.3,38.7c0,1.3-0.4,2.4-1.3,3.3c-1,1-2.2,1.5-3.5,1.5S12,43,11.1,42c-1-0.9-1.5-2-1.5-3.3
						c0-1.4,0.5-2.5,1.5-3.4c0.9-1,2.1-1.5,3.4-1.5s2.5,0.5,3.5,1.5C18.9,36.1,19.3,37.3,19.3,38.7 M18,42c0.9-0.9,1.3-2,1.3-3.3
						c0-1.4-0.4-2.5-1.3-3.4c-1-1-2.2-1.5-3.5-1.5s-2.5,0.5-3.4,1.5c-1,0.9-1.5,2-1.5,3.4c0,1.3,0.5,2.4,1.5,3.3
						c0.9,1,2.1,1.5,3.4,1.5S17,43,18,42 M66.8,36.8c-0.5-0.4-1-0.6-1.7-0.6c-0.6,0-1.2,0.2-1.8,0.6c-0.4,0.6-0.6,1.2-0.6,1.8
						c0,0.7,0.2,1.3,0.6,1.7c0.6,0.4,1.2,0.7,1.8,0.7c0.7,0,1.2-0.2,1.7-0.7c0.4-0.4,0.7-1,0.7-1.7C67.5,38,67.3,37.4,66.8,36.8
						 M81.2,40.3c0.5-0.4,0.8-1,0.8-1.7c0-0.6-0.3-1.2-0.8-1.8c-0.4-0.4-1-0.6-1.7-0.6c-0.6,0-1.2,0.2-1.7,0.6
						c-0.4,0.6-0.7,1.2-0.7,1.8c0,0.6,0.2,1.2,0.7,1.7c0.5,0.4,1,0.7,1.7,0.7C80.2,41,80.8,40.8,81.2,40.3 M95.8,36.8
						c-0.4-0.4-1-0.6-1.7-0.6c-0.6,0-1.2,0.2-1.8,0.6c-0.4,0.6-0.7,1.2-0.7,1.8c0,0.7,0.2,1.3,0.7,1.7c0.6,0.4,1.2,0.7,1.8,0.7
						c0.7,0,1.3-0.2,1.7-0.7c0.4-0.4,0.7-1,0.7-1.7C96.4,38,96.2,37.4,95.8,36.8 M110.8,81.9L110.8,81.9l0.1-28.9H0v28.9h0.2L0,82
						L110.8,81.9L110.8,81.9 M81.2,65.8c0.5,0.5,0.8,1.1,0.8,1.7c0,0.6-0.3,1.2-0.8,1.6s-1.1,0.7-1.7,0.7s-1.2-0.2-1.7-0.7
						c-0.4-0.4-0.7-1-0.7-1.6c0-0.6,0.2-1.2,0.7-1.7c0.5-0.5,1-0.8,1.7-0.8C80.2,65.1,80.8,65.3,81.2,65.8 M91.6,67.6
						c0-0.4,0.1-0.8,0.3-1.2c0.1-0.2,0.2-0.4,0.3-0.5c0.6-0.5,1.2-0.8,1.8-0.8c0.7,0,1.3,0.3,1.7,0.8s0.7,1.1,0.7,1.7
						c0,0.6-0.2,1.2-0.7,1.6c-0.1,0.1-0.1,0.1-0.1,0.2c-0.5,0.3-1,0.5-1.6,0.5c-0.6,0-1.2-0.2-1.8-0.7
						C91.8,68.7,91.6,68.2,91.6,67.6 M19.1,66.1c0.1,0.5,0.2,1,0.2,1.5c0,1.3-0.4,2.4-1.3,3.4c-1,0.9-2.2,1.4-3.5,1.4
						c-0.8,0-1.5-0.2-2.1-0.5c-0.5-0.3-0.9-0.6-1.3-0.9c-1-1-1.5-2.1-1.5-3.4c0-1.3,0.5-2.5,1.5-3.4c0.9-1,2.1-1.5,3.4-1.5
						s2.5,0.5,3.5,1.5C18.5,64.7,18.9,65.3,19.1,66.1 M66.8,65.8c0.4,0.5,0.7,1.1,0.7,1.7c0,0.6-0.2,1.2-0.7,1.6
						c-0.6,0.4-1.2,0.7-1.7,0.7c-0.6,0-1.2-0.2-1.8-0.7c-0.4-0.4-0.6-1-0.6-1.6c0-0.6,0.2-1.2,0.6-1.7c0.6-0.5,1.2-0.8,1.8-0.8
						C65.8,65.1,66.4,65.3,66.8,65.8 M67.5,67.6c0-0.6-0.2-1.2-0.7-1.7c-0.5-0.5-1-0.8-1.7-0.8c-0.6,0-1.2,0.3-1.8,0.8
						c-0.4,0.5-0.6,1.1-0.6,1.7c0,0.6,0.2,1.2,0.6,1.6c0.6,0.4,1.2,0.7,1.8,0.7c0.5,0,1.1-0.2,1.7-0.7
						C67.3,68.7,67.5,68.2,67.5,67.6 M19.3,67.6c0-0.5-0.1-1-0.2-1.5c-0.2-0.7-0.6-1.3-1.1-1.9c-1-1-2.2-1.5-3.5-1.5
						s-2.5,0.5-3.4,1.5c-1,0.9-1.5,2.1-1.5,3.4c0,1.3,0.5,2.4,1.5,3.4c0.4,0.3,0.8,0.6,1.3,0.9c0.6,0.3,1.3,0.5,2.1,0.5
						c1.3,0,2.5-0.5,3.5-1.4C18.9,69.9,19.3,68.8,19.3,67.6 M91.9,66.3c-0.2,0.4-0.3,0.8-0.3,1.2c0,0.6,0.2,1.2,0.7,1.6
						c0.6,0.4,1.2,0.7,1.8,0.7c0.6,0,1.1-0.2,1.6-0.5c0-0.1,0-0.1,0.1-0.2c0.4-0.4,0.7-1,0.7-1.6c0-0.6-0.2-1.2-0.7-1.7
						s-1-0.8-1.7-0.8c-0.6,0-1.2,0.3-1.8,0.8C92.2,66,92,66.2,91.9,66.3 M81.9,67.6c0-0.6-0.3-1.2-0.8-1.7c-0.4-0.5-1-0.8-1.7-0.8
						c-0.6,0-1.2,0.3-1.7,0.8c-0.4,0.5-0.7,1.1-0.7,1.7c0,0.6,0.2,1.2,0.7,1.6c0.5,0.4,1,0.7,1.7,0.7s1.2-0.2,1.7-0.7
						S81.9,68.2,81.9,67.6 M110.8,24L81.9,0H28.9L0,24H110.8z"/>
				</g>
			</g>
			<g>
				<path id="big_server_0_Layer0_0_1_STROKES" fill="none" stroke="#000000" stroke-linecap="round" stroke-linejoin="round" d="
					M96.4,38.7c0,0.7-0.2,1.3-0.7,1.7c-0.4,0.4-1,0.7-1.7,0.7c-0.6,0-1.2-0.2-1.8-0.7c-0.4-0.4-0.7-1-0.7-1.7c0-0.6,0.2-1.2,0.7-1.8
					c0.6-0.4,1.2-0.6,1.8-0.6c0.7,0,1.3,0.2,1.7,0.6C96.2,37.4,96.4,38,96.4,38.7z M81.9,38.7c0,0.7-0.3,1.3-0.8,1.7
					c-0.4,0.4-1,0.7-1.7,0.7c-0.6,0-1.2-0.2-1.7-0.7c-0.4-0.5-0.7-1.1-0.7-1.7c0-0.6,0.2-1.2,0.7-1.8c0.5-0.4,1-0.6,1.7-0.6
					c0.7,0,1.3,0.2,1.7,0.6C81.7,37.4,81.9,38,81.9,38.7z M0,81.9V53V24L28.9,0h53.1l28.9,24v29v28.9V82v28.9v29v19.3
					c0,2.7-0.9,5-2.8,6.9c-1.9,1.9-4.1,2.9-6.7,2.9H9.6c-2.6,0-4.9-0.9-6.8-2.9C1,164.1,0,161.8,0,159.1v-19.3v-29V81.9L0,81.9h0.2
					H0L110.8,82l-0.1-0.1h0.1 M81.9,67.6c0,0.6-0.3,1.2-0.8,1.6s-1.1,0.7-1.7,0.7s-1.2-0.2-1.7-0.7c-0.4-0.4-0.7-1-0.7-1.6
					c0-0.6,0.2-1.2,0.7-1.7c0.5-0.5,1-0.8,1.7-0.8c0.7,0,1.3,0.3,1.7,0.8C81.7,66.3,81.9,66.9,81.9,67.6z M96.4,67.6
					c0,0.6-0.2,1.2-0.7,1.6c-0.1,0.1-0.1,0.1-0.1,0.2c-0.5,0.3-1,0.5-1.6,0.5c-0.6,0-1.2-0.2-1.8-0.7c-0.4-0.4-0.7-1-0.7-1.6
					c0-0.4,0.1-0.8,0.3-1.2c0.1-0.2,0.2-0.4,0.3-0.5c0.6-0.5,1.2-0.8,1.8-0.8c0.7,0,1.3,0.3,1.7,0.8S96.4,66.9,96.4,67.6z
					 M77.2,96.6c0-0.1,0-0.1,0-0.2c0.1-0.6,0.3-1.1,0.7-1.7c0.5-0.4,1-0.7,1.7-0.7c0.7,0,1.3,0.2,1.7,0.7c0.4,0.5,0.7,1.1,0.8,1.7
					c0,0,0,0.1,0,0.2c0,0.7-0.3,1.3-0.8,1.8c-0.4,0.4-1,0.6-1.7,0.6c-0.6,0-1.2-0.2-1.7-0.6C77.4,97.8,77.2,97.2,77.2,96.6
					c0.1,0.6,0.3,1.1,0.7,1.5c0.5,0.5,1,0.8,1.7,0.8c0.7,0,1.3-0.2,1.7-0.8c0.4-0.4,0.7-0.9,0.8-1.5 M91.6,96.6c0-0.1,0-0.1,0-0.2
					c0-0.6,0.3-1.1,0.7-1.7c0.6-0.4,1.2-0.7,1.8-0.7c0.7,0,1.3,0.2,1.7,0.7c0.4,0.5,0.6,1.1,0.7,1.7c0,0,0,0.1,0,0.2
					c0,0.7-0.2,1.3-0.7,1.8c-0.4,0.4-1,0.6-1.7,0.6c-0.6,0-1.2-0.2-1.8-0.6C91.8,97.8,91.6,97.3,91.6,96.6c0,0.6,0.3,1.1,0.7,1.5
					c0.6,0.5,1.2,0.8,1.8,0.8c0.7,0,1.3-0.2,1.7-0.8c0.4-0.4,0.6-0.9,0.7-1.5 M67.5,38.7c0,0.7-0.2,1.3-0.7,1.7
					c-0.5,0.4-1,0.7-1.7,0.7c-0.6,0-1.2-0.2-1.8-0.7c-0.4-0.4-0.6-1-0.6-1.7c0-0.6,0.2-1.2,0.6-1.8c0.6-0.4,1.2-0.6,1.8-0.6
					c0.7,0,1.2,0.2,1.7,0.6C67.3,37.4,67.5,38,67.5,38.7z M19.3,38.7c0,1.3-0.4,2.4-1.3,3.3c-1,1-2.2,1.5-3.5,1.5S12,43,11.1,42
					c-1-0.9-1.5-2-1.5-3.3c0-1.4,0.5-2.5,1.5-3.4c0.9-1,2.1-1.5,3.4-1.5s2.5,0.5,3.5,1.5C18.9,36.1,19.3,37.3,19.3,38.7z M19.3,67.6
					c0,1.3-0.4,2.4-1.3,3.4c-1,0.9-2.2,1.4-3.5,1.4c-0.8,0-1.5-0.2-2.1-0.5c-0.5-0.3-0.9-0.6-1.3-0.9c-1-1-1.5-2.1-1.5-3.4
					c0-1.3,0.5-2.5,1.5-3.4c0.9-1,2.1-1.5,3.4-1.5s2.5,0.5,3.5,1.5c0.5,0.6,0.9,1.2,1.1,1.9C19.2,66.6,19.3,67.1,19.3,67.6z
					 M11.1,99.9c-1-1-1.5-2.1-1.5-3.3c0-0.1,0-0.1,0-0.2c0-1.3,0.5-2.4,1.5-3.4c0.9-0.9,2.1-1.4,3.4-1.4S17,92.1,18,93
					c0.9,1,1.3,2.1,1.3,3.4c0,0,0,0.1,0,0.2c0,1.3-0.4,2.4-1.3,3.3c-1,1-2.2,1.4-3.5,1.4S12,100.9,11.1,99.9
					c0.9,0.9,2.1,1.3,3.4,1.3c1.3,0,2.5-0.4,3.5-1.3 M9.6,96.4c0.1-1.3,0.6-2.4,1.5-3.3c0.9-0.9,2.1-1.4,3.4-1.4s2.5,0.5,3.5,1.4
					c0.8,0.8,1.3,1.9,1.3,3.3 M67.5,67.6c0,0.6-0.2,1.2-0.7,1.6c-0.6,0.4-1.2,0.7-1.7,0.7c-0.6,0-1.2-0.2-1.8-0.7
					c-0.4-0.4-0.6-1-0.6-1.6c0-0.6,0.2-1.2,0.6-1.7c0.6-0.5,1.2-0.8,1.8-0.8c0.7,0,1.2,0.3,1.7,0.8C67.3,66.3,67.5,66.9,67.5,67.6z
					 M62.7,96.6c0-0.1,0-0.1,0-0.2c0-0.6,0.3-1.1,0.6-1.7c0.6-0.4,1.2-0.7,1.8-0.7c0.7,0,1.2,0.2,1.7,0.7c0.4,0.5,0.6,1.1,0.7,1.7
					c0,0,0,0.1,0,0.2c0,0.7-0.2,1.3-0.7,1.8c-0.5,0.4-1,0.6-1.7,0.6c-0.6,0-1.2-0.2-1.8-0.6C62.9,97.8,62.7,97.3,62.7,96.6
					c0,0.6,0.3,1.1,0.6,1.5c0.6,0.5,1.2,0.8,1.8,0.8c0.7,0,1.2-0.2,1.7-0.8c0.4-0.4,0.6-0.9,0.7-1.5 M81.9,125.4
					c0,0.6-0.3,1.2-0.8,1.6s-1.1,0.6-1.7,0.6c-0.6,0-1.2-0.2-1.7-0.6c-0.4-0.4-0.7-1-0.7-1.6c0-0.6,0.2-1.2,0.7-1.6
					c0.5-0.5,1-0.8,1.7-0.8c0.7,0,1.3,0.3,1.7,0.8C81.7,124.3,81.9,124.8,81.9,125.4z M67.5,125.4c0,0.6-0.2,1.2-0.7,1.6
					c-0.6,0.4-1.2,0.6-1.7,0.6c-0.6,0-1.2-0.2-1.8-0.6c-0.4-0.4-0.6-1-0.6-1.6c0-0.6,0.2-1.2,0.6-1.6c0.6-0.5,1.2-0.8,1.8-0.8
					c0.7,0,1.2,0.3,1.7,0.8C67.3,124.3,67.5,124.8,67.5,125.4z M19.3,125.4c0,1.3-0.4,2.4-1.3,3.4c-1,0.9-2.2,1.3-3.5,1.3
					s-2.5-0.4-3.4-1.3c-1-1-1.5-2.1-1.5-3.4c0-1.3,0.5-2.4,1.5-3.4c0.9-0.9,2.1-1.4,3.4-1.4s2.5,0.5,3.5,1.4
					C18.9,123,19.3,124.2,19.3,125.4z M19.3,154.3c0,1.3-0.4,2.5-1.3,3.5c-1,0.9-2.2,1.3-3.5,1.3s-2.5-0.4-3.4-1.3
					c-1-1-1.5-2.2-1.5-3.5c0-1.3,0.5-2.4,1.5-3.4c0.9-0.9,2.1-1.3,3.4-1.3s2.5,0.4,3.5,1.3C18.9,151.9,19.3,153,19.3,154.3z
					 M81.9,154.3c0,0.7-0.3,1.2-0.8,1.6c-0.4,0.5-1,0.8-1.7,0.8c-0.6,0-1.2-0.3-1.7-0.8c-0.4-0.5-0.7-1-0.7-1.6s0.2-1.2,0.7-1.6
					c0.5-0.4,1-0.6,1.7-0.6s1.2,0.2,1.7,0.6C81.7,153.1,81.9,153.7,81.9,154.3z M67.5,154.3c0,0.7-0.2,1.2-0.7,1.6
					c-0.5,0.5-1,0.8-1.7,0.8c-0.6,0-1.2-0.3-1.8-0.8c-0.4-0.4-0.6-1-0.6-1.6c0-0.6,0.2-1.2,0.6-1.6c0.6-0.4,1.2-0.6,1.8-0.6
					c0.5,0,1.1,0.2,1.7,0.6C67.3,153.1,67.5,153.7,67.5,154.3z M96.4,125.4c0,0.6-0.2,1.2-0.7,1.6c-0.5,0.4-1.1,0.6-1.7,0.6
					c-0.6,0-1.2-0.2-1.8-0.6c-0.4-0.4-0.7-1-0.7-1.6c0-0.6,0.2-1.2,0.7-1.6c0.6-0.5,1.2-0.8,1.8-0.8c0.7,0,1.3,0.3,1.7,0.8
					C96.2,124.3,96.4,124.8,96.4,125.4z M96.4,154.3c0,0.7-0.2,1.2-0.7,1.6c-0.4,0.5-1,0.8-1.7,0.8c-0.6,0-1.2-0.3-1.8-0.8
					c-0.4-0.4-0.7-1-0.7-1.6c0-0.6,0.2-1.2,0.7-1.6c0.6-0.4,1.2-0.6,1.8-0.6c0.6,0,1.2,0.2,1.7,0.6
					C96.2,153.1,96.4,153.7,96.4,154.3z M0,24h110.8 M110.8,53H0 M0,139.9h110.8 M110.8,110.9H0"/>
			</g>
		</g>
	</g>
</g>
<g id="laptop">
	<g transform="matrix( 1, 0, 0, 1, 0,0) ">
		<g>
			<g id="Layer2_0_FILL">
				<path fill="#FFFFFF" d="M297.9,141.5c0-1.4-0.5-2.6-1.5-3.6c-1-1-2.2-1.5-3.6-1.5H89.7c-1.3,0-2.4,0.5-3.3,1.4
					c-0.9,0.9-1.4,2-1.4,3.3v122.4h212.9V141.5 M289.4,145.9v108.5H93.5V145.9H289.4 M215.6,175.2h-82.4v70h82.4V175.2 M183.4,197.8
					h-17.8H183.4 M191.4,193.4v-13.2h17.8v13.2H191.4 M165.6,193.4v-13.2h17.8v13.2H165.6 M209.3,197.8h-17.8H209.3 M157.3,197.8
					h-17.8H157.3 M139.4,193.4v-13.2h17.8v13.2H139.4 M139.4,226.4v-13.2h17.8v13.2H139.4 M157.3,230.8h-17.8H157.3 M209.3,213.2
					v13.2h-17.8v-13.2H209.3 M183.4,230.8h-17.8H183.4 M165.6,226.4v-13.2h17.8v13.2H165.6 M209.3,230.8h-17.8H209.3 M165.6,213.2
					v13.2h17.8v-13.2H165.6 M209.3,226.4v-13.2h-17.8v13.2H209.3 M139.4,213.2v13.2h17.8v-13.2H139.4 M139.4,180.2v13.2h17.8v-13.2
					H139.4 M165.6,180.2v13.2h17.8v-13.2H165.6 M191.4,180.2v13.2h17.8v-13.2H191.4 M250.6,175.2h-35v70h35V175.2 M221.4,180.2h23.4
					H221.4 M221.4,184.4h23.4H221.4 M221.4,188.6h23.4H221.4 M221.4,192.8h23.4H221.4 M221.4,197h23.4H221.4 M221.4,230.8h23.4
					H221.4 M221.4,226.4h23.4H221.4 M221.4,222.2h23.4H221.4 M221.4,218h23.4H221.4 M221.4,213.8h23.4H221.4 M221.4,201.2h23.4
					H221.4 M221.4,209.6h23.4H221.4 M221.4,205.4h23.4H221.4z"/>
				<path fill="#CACACA" d="M289.4,254.4V145.9H93.5v108.5H289.4 M250.6,156.4v18.8v70h-35h-82.4v-70v-18.8h82.4H250.6z"/>
				<path fill="#5EB9E7" d="M215.6,175.2v-18.8h-82.4v18.8H215.6 M139.2,166.1h70.2H139.2 M215.6,156.4v18.8h35v-18.8H215.6
					 M221.4,166.1h23.4H221.4z"/>
			</g>
		</g>
		<g>
			<path id="Layer2_0_1_STROKES" fill="none" stroke="#000000" stroke-miterlimit="10" d="M183.4,197.8h-17.8 M191.4,180.2h17.8
				v13.2h-17.8V180.2z M165.6,180.2h17.8v13.2h-17.8V180.2z M215.6,156.4v18.8h35v-18.8H215.6h-82.4v18.8h82.4v70h35v-70
				 M209.3,197.8h-17.8 M297.9,263.5H85V141.1c0-1.3,0.5-2.4,1.4-3.3c0.9-0.9,2-1.4,3.3-1.4h203.1c1.4,0,2.6,0.5,3.6,1.5
				c1,1,1.5,2.2,1.5,3.6V263.5z M221.4,180.2h23.4 M221.4,184.4h23.4 M221.4,188.6h23.4 M221.4,192.8h23.4 M221.4,197h23.4
				 M157.3,197.8h-17.8 M139.4,180.2h17.8v13.2h-17.8V180.2z M139.4,213.2h17.8v13.2h-17.8V213.2z M157.3,230.8h-17.8 M191.4,213.2
				h17.8v13.2h-17.8V213.2z M183.4,230.8h-17.8 M165.6,213.2h17.8v13.2h-17.8V213.2z M209.3,230.8h-17.8 M221.4,230.8h23.4
				 M221.4,226.4h23.4 M221.4,222.2h23.4 M221.4,218h23.4 M221.4,213.8h23.4 M221.4,201.2h23.4 M221.4,209.6h23.4 M221.4,205.4h23.4
				 M289.4,254.4H93.5V145.9h195.9V254.4z M215.6,245.2h-82.4v-70"/>
		</g>
		<g>
			<path id="Layer2_0_2_STROKES" fill="none" stroke="#FFFFFF" stroke-miterlimit="10" d="M221.4,166.1h23.4 M139.2,166.1h70.2"/>
		</g>
	</g>
	<g transform="matrix( 0.7549285888671875, 0, 0, 0.7549285888671875, -327.55,-128.05) ">
		<g>
			<g id="Layer2_1_FILL">
				<path fill="#CACACA" d="M854,525.7v-7H520.9v6.9c0,2.1,0.7,3.8,2.2,5.3c1.5,1.5,3.3,2.2,5.4,2.2h318.1c2,0,3.8-0.7,5.3-2.2
					C853.3,529.6,854,527.8,854,525.7z"/>
			</g>
		</g>
		<g transform="matrix( 1.324615478515625, 0, 0, 1.324615478515625, 433.85,169.6) ">
			<path id="Layer2_1_1_STROKES" fill="none" stroke="#000000" stroke-miterlimit="10" d="M854,518.7H520.9v6.9
				c0,2.1,0.7,3.8,2.2,5.3c1.5,1.5,3.3,2.2,5.3,2.2h318.1c2,0,3.8-0.7,5.2-2.2c1.4-1.4,2.2-3.2,2.2-5.2V518.7z"/>
		</g>
	</g>
	<g transform="matrix( 0.7549285888671875, 0, 0, 0.7549285888671875, -327.55,-128.05) ">
		<g transform="matrix( 1.324615478515625, 0, 0, 1.324615478515625, 433.85,169.6) ">
			<path id="Layer2_2_1_STROKES" fill="none" stroke="#000000" stroke-miterlimit="10" d="M853.9,527.2H521"/>
		</g>
	</g>
</g>
<g id="connectors">
	<g transform="matrix( 1, 0, 0, 1, 0,0) ">
		<g>
			<g id="Layer1_0_FILL">
				<path fill="#FEFEFE" d="M569.8,206.4c0,0.4,0.1,0.7,0.4,1c0.3,0.3,0.6,0.4,1,0.4c0.4,0,0.8-0.1,1-0.4c0.3-0.3,0.5-0.6,0.5-1
					c0-0.4-0.2-0.8-0.5-1.1c-0.3-0.3-0.6-0.4-1-0.4c-0.4,0-0.8,0.1-1,0.4C569.9,205.7,569.8,206,569.8,206.4 M496.4,206.4
					L496.4,206.4c0-0.8-0.3-1.5-0.8-2.1c-0.6-0.6-1.2-0.8-2-0.8s-1.4,0.3-2,0.8c-0.6,0.6-0.8,1.2-0.8,2c0,0.8,0.3,1.4,0.8,2
					c0.6,0.5,1.2,0.8,2,0.8s1.4-0.3,2-0.8C496.1,207.8,496.3,207.2,496.4,206.4 M376.3,208.8c0.6-0.6,0.9-1.2,0.9-2s-0.3-1.4-0.9-2
					c-0.6-0.5-1.2-0.8-2-0.8s-1.4,0.3-2,0.8c-0.5,0.6-0.8,1.2-0.8,1.9v0.1c0,0.8,0.3,1.4,0.8,2c0.6,0.6,1.2,0.9,2,0.9
					C375.1,209.6,375.7,209.3,376.3,208.8 M297.9,205.3c-0.4,0-0.8,0.2-1.1,0.4c-0.3,0.3-0.4,0.6-0.4,1c0,0.4,0.1,0.8,0.4,1.1
					c0.3,0.3,0.6,0.4,1.1,0.4c0.4,0,0.8-0.1,1-0.4c0.3-0.3,0.4-0.6,0.4-1.1c0-0.4-0.1-0.7-0.4-1
					C298.6,205.4,298.3,205.3,297.9,205.3z"/>
			</g>
		</g>
		<g>
			<path id="Layer1_0_1_STROKES" fill="none" stroke="#A3A3A3" stroke-miterlimit="10" d="M371.5,206.7c0-0.7,0.3-1.4,0.8-1.9
				c0.6-0.5,1.2-0.8,2-0.8s1.4,0.3,2,0.8c0.6,0.6,0.9,1.2,0.9,2s-0.3,1.4-0.9,2s-1.2,0.9-2,0.9c-0.8,0-1.4-0.3-2-0.9
				C371.8,208.2,371.5,207.5,371.5,206.7L371.5,206.7h-72.2c0,0.4-0.1,0.8-0.4,1.1c-0.3,0.3-0.6,0.4-1,0.4c-0.4,0-0.8-0.1-1.1-0.4
				c-0.3-0.3-0.4-0.6-0.4-1.1c0-0.4,0.1-0.7,0.4-1c0.3-0.3,0.6-0.4,1.1-0.4c0.4,0,0.8,0.2,1,0.4c0.3,0.3,0.4,0.6,0.4,1 M569.8,206.4
				c0-0.4,0.1-0.8,0.4-1.1c0.3-0.3,0.6-0.4,1-0.4c0.4,0,0.8,0.1,1,0.4c0.3,0.3,0.5,0.6,0.5,1.1c0,0.4-0.2,0.7-0.5,1
				c-0.3,0.3-0.6,0.4-1,0.4c-0.4,0-0.8-0.1-1-0.4C569.9,207.2,569.8,206.8,569.8,206.4h-73.4c0,0.7-0.3,1.4-0.8,1.9
				c-0.6,0.5-1.2,0.8-2,0.8s-1.4-0.3-2-0.8c-0.6-0.6-0.8-1.2-0.8-2c0-0.8,0.3-1.4,0.8-2c0.6-0.6,1.2-0.8,2-0.8s1.4,0.3,2,0.8
				c0.5,0.6,0.8,1.2,0.8,2v0.1"/>
		</g>
	</g>
</g>
</svg>
