<?xml version="1.0" encoding="utf-8"?>
<!-- Generator: Adobe Illustrator 23.0.1, SVG Export Plug-In . SVG Version: 6.00 Build 0)  -->
<svg version="1.1" id="Layer_0002" xmlns="http://www.w3.org/2000/svg" xmlns:xlink="http://www.w3.org/1999/xlink" x="0px" y="0px"
	 viewBox="0 0 750 400" enable-background="new 0 0 750 400" xml:space="preserve">
<g id="clouds_bits">
	<g transform="matrix( 1, 0, 0, 1, 517.05,320.6) " opacity="0.17">
		<g>
			<g transform="matrix( 1, 0, 0, 1, 0,0) ">
				<g>
					<g id="flash0_ai_Layer_001__Path__48_0_Layer0_0_FILL">
						<path fill="#3D3D3D" d="M144.1,29c-0.2-2.6-1.2-4.8-3.2-6.6c-2-1.8-4.3-2.8-6.9-2.8c-2.9,0-5.4,1-7.3,3.1
							c-1.5-3.9-4.1-7-7.6-9.4c-3.6-2.5-7.5-3.7-11.8-3.7c-2.8,0-5.5,0.6-8.1,1.7c-2.5,1-4.8,2.5-6.7,4.4c-2.8-1.8-5.8-2.8-9.2-2.8
							c-2.1,0-4.2,0.4-6.3,1.2c-0.7-2.9-2.2-5.2-4.6-7.1c-2.4-1.9-5.1-2.8-8.2-2.8c-2.4,0-4.7,0.6-6.8,1.9c-2,1.2-3.6,2.9-4.7,4.9
							C50.1,7.7,46.7,5,42.8,3c-4.1-2-8.5-3-13.1-3c-8,0-14.9,2.8-20.7,8.5C3.2,14.1,0.2,21,0,29H144.1z"/>
					</g>
				</g>
			</g>
		</g>
	</g>
	<g transform="matrix( 1, 0, 0, 1, 63,259.35) " opacity="0.17">
		<g transform="matrix( 1, 0, 0, 1, 0,0) ">
			<g>
				<g id="flash0_ai_Layer_002__Path__47_0_Layer0_0_FILL">
					<path fill="#3D3D3D" d="M84.8,17c-0.1-1.5-0.8-2.8-1.9-3.9c-1.1-1.1-2.5-1.6-4.1-1.6c-1.7,0-3.1,0.6-4.3,1.9
						c-0.9-2.3-2.4-4.2-4.5-5.6c-2.1-1.4-4.4-2.2-7-2.2c-3.4,0-6.3,1.2-8.6,3.6C52.8,8.2,51,7.7,49,7.7c-1.3,0-2.5,0.2-3.7,0.7
						c-0.4-1.7-1.3-3.1-2.7-4.2c-1.4-1.1-3-1.7-4.8-1.7c-1.4,0-2.8,0.4-4,1.2c-1.2,0.7-2.1,1.7-2.8,2.9c-1.6-2-3.6-3.6-6-4.8
						c-2.4-1.2-5-1.8-7.7-1.8C12.7,0,8.7,1.7,5.3,5C1.9,8.3,0.1,12.3,0,17H84.8z"/>
				</g>
			</g>
		</g>
	</g>
	<g transform="matrix( 1, 0, 0, 1, -240.55,-290.5) ">
		<g>
			<g id="Layer5_2_FILL">
				<path fill="#BAD727" d="M458.9,578c0-0.5-0.2-1-0.6-1.3c-0.4-0.4-0.8-0.6-1.3-0.6c-0.5,0-1,0.2-1.4,0.6
					c-0.4,0.4-0.6,0.8-0.6,1.3s0.2,1,0.6,1.4c0.4,0.4,0.8,0.5,1.4,0.5c0.5,0,1-0.2,1.3-0.5C458.7,579,458.9,578.5,458.9,578z"/>
			</g>
		</g>
	</g>
	<g transform="matrix( 1, 0, 0, 1, -756.4,-331.75) ">
		<g>
			<g id="Layer5_3_FILL">
				<path fill="#BAD727" d="M851.7,428.8c0-0.5-0.2-1-0.6-1.3c-0.4-0.4-0.8-0.6-1.3-0.6s-1,0.2-1.4,0.6c-0.4,0.4-0.5,0.8-0.5,1.3
					c0,0.5,0.2,1,0.5,1.4c0.4,0.4,0.8,0.6,1.4,0.6c0.5,0,1-0.2,1.3-0.6C851.5,429.8,851.7,429.3,851.7,428.8z"/>
			</g>
		</g>
	</g>
	<g transform="matrix( 1, 0, 0, 1, -288.7,-160.6) ">
		<g>
			<g id="Layer5_4_FILL">
				<path fill="#F7571A" d="M598,321.3c0-0.5-0.2-1-0.6-1.3c-0.4-0.4-0.8-0.6-1.4-0.6s-1,0.2-1.3,0.6c-0.4,0.4-0.5,0.8-0.5,1.3
					c0,0.5,0.2,1,0.5,1.4c0.4,0.4,0.8,0.6,1.3,0.6s1-0.2,1.4-0.6C597.8,322.3,598,321.8,598,321.3z"/>
			</g>
		</g>
	</g>
	<g transform="matrix( 1, 0, 0, 1, -440.4,-322.9) ">
		<g>
			<g id="Layer5_5_FILL">
				<path fill="#F7571A" d="M520.9,449.9c0-0.5-0.2-1-0.6-1.4c-0.4-0.4-0.8-0.5-1.3-0.5s-1,0.2-1.4,0.5c-0.4,0.4-0.5,0.8-0.5,1.4
					c0,0.5,0.2,1,0.5,1.4c0.4,0.4,0.8,0.6,1.4,0.6s1-0.2,1.3-0.6C520.7,450.9,520.9,450.4,520.9,449.9z"/>
			</g>
		</g>
	</g>
	<g transform="matrix( 1, 0, 0, 1, -258.5,-212.8) ">
		<g>
			<g id="Layer5_6_FILL">
				<path fill="#DEDEDE" d="M454,529.6c0-1.1-0.4-2-1.1-2.8c-0.8-0.7-1.7-1.1-2.8-1.1c-1.1,0-2,0.4-2.7,1.1
					c-0.7,0.8-1.1,1.7-1.1,2.8c0,1.1,0.4,2,1.1,2.7c0.8,0.7,1.7,1.1,2.7,1.1c1.1,0,2-0.4,2.8-1.1C453.6,531.6,454,530.7,454,529.6z"
					/>
			</g>
		</g>
	</g>
	<g transform="matrix( 1, 0, 0, 1, -186.8,-344.25) ">
		<g>
			<g id="Layer5_7_FILL">
				<path fill="#D1D1D1" d="M844.5,583.7c0-1.1-0.4-2-1.1-2.7c-0.8-0.7-1.7-1.1-2.8-1.1c-1.1,0-2,0.4-2.7,1.1
					c-0.8,0.8-1.2,1.7-1.2,2.7c0,1.1,0.4,2,1.2,2.8c0.7,0.7,1.6,1.1,2.7,1.1c1.1,0,2-0.4,2.8-1.1
					C844.1,585.7,844.5,584.8,844.5,583.7z"/>
			</g>
		</g>
	</g>
	<g transform="matrix( 1, 0, 0, 1, -171.6,-198.6) ">
		<g>
			<path id="Layer5_8_1_STROKES" fill="none" stroke="#BFBFBF" stroke-width="2" stroke-miterlimit="10" d="M855,350.9
				c0,0.9-0.3,1.7-1,2.3c-0.6,0.6-1.4,1-2.3,1c-0.9,0-1.7-0.3-2.3-1c-0.6-0.6-1-1.4-1-2.3c0-0.9,0.3-1.6,1-2.3c0.6-0.6,1.4-1,2.3-1
				c0.9,0,1.6,0.3,2.3,1C854.7,349.2,855,350,855,350.9z"/>
		</g>
	</g>
	<g transform="matrix( 1, 0, 0, 1, -243.6,-227.6) ">
		<g>
			<path id="Layer5_9_1_STROKES" fill="none" stroke="#BFBFBF" stroke-width="2" stroke-miterlimit="10" d="M678.5,551.5
				c0,0.9-0.3,1.7-1,2.3s-1.4,1-2.3,1c-0.9,0-1.7-0.3-2.3-1c-0.6-0.6-1-1.4-1-2.3s0.3-1.7,1-2.3c0.6-0.6,1.4-1,2.3-1
				c0.9,0,1.6,0.3,2.3,1C678.1,549.8,678.5,550.5,678.5,551.5z"/>
		</g>
	</g>
	<g transform="matrix( 1, 0, 0, 1, -326.4,-171.4) ">
		<g>
			<path id="Layer5_10_1_STROKES" fill="none" stroke="#BFBFBF" stroke-width="2" stroke-miterlimit="10" d="M619.5,264.3
				c0,0.9-0.3,1.7-1,2.3c-0.6,0.6-1.4,0.9-2.3,0.9c-0.9,0-1.6-0.3-2.3-0.9c-0.6-0.6-1-1.4-1-2.3c0-0.9,0.3-1.6,1-2.3
				c0.6-0.6,1.4-0.9,2.3-0.9c0.9,0,1.7,0.3,2.3,0.9S619.5,263.4,619.5,264.3z"/>
		</g>
	</g>
	<g transform="matrix( 1, 0, 0, 1, -306.4,-211.05) ">
		<g>
			<g id="Layer5_11_MEMBER_0_FILL">
				<path fill="#83C4EC" d="M506.5,271.5h7c0.3,0,0.5-0.1,0.7-0.3c0.2-0.2,0.3-0.4,0.3-0.7c0-0.3-0.1-0.5-0.3-0.7
					c-0.2-0.2-0.4-0.3-0.7-0.3h-7c-0.6,0-0.9,0.3-0.9,0.9c0,0.3,0.1,0.5,0.3,0.7C506.1,271.4,506.3,271.5,506.5,271.5z"/>
			</g>
		</g>
	</g>
	<g transform="matrix( 1, 0, 0, 1, -306.4,-211.05) ">
		<g>
			<g id="Layer5_11_MEMBER_1_FILL">
				<path fill="#83C4EC" d="M509.4,266.4c-0.2,0.2-0.3,0.4-0.3,0.6v7c0,0.3,0.1,0.5,0.3,0.7c0.2,0.2,0.4,0.3,0.6,0.3
					c0.6,0,1-0.3,1-1v-7c0-0.3-0.1-0.5-0.3-0.6c-0.2-0.2-0.4-0.3-0.7-0.3C509.8,266,509.6,266.1,509.4,266.4z"/>
			</g>
		</g>
	</g>
	<g transform="matrix( 1, 0, 0, 1, -596,-134.9) ">
		<g>
			<g id="Layer5_12_MEMBER_0_FILL">
				<path fill="#83C4EC" d="M909.2,384.4c0.2,0.2,0.4,0.3,0.6,0.3h7.1c0.3,0,0.5-0.1,0.7-0.3c0.2-0.2,0.2-0.4,0.3-0.6
					c0-0.6-0.3-1-0.9-1h-7.1c-0.3,0-0.5,0.1-0.6,0.3c-0.2,0.2-0.3,0.4-0.3,0.7C908.9,384,909,384.2,909.2,384.4z"/>
			</g>
		</g>
	</g>
	<g transform="matrix( 1, 0, 0, 1, -596,-134.9) ">
		<g>
			<g id="Layer5_12_MEMBER_1_FILL">
				<path fill="#83C4EC" d="M914.3,380.1c0-0.2-0.1-0.5-0.3-0.6c-0.2-0.2-0.4-0.3-0.6-0.3c-0.3,0-0.5,0.1-0.7,0.3
					c-0.2,0.2-0.3,0.4-0.3,0.6v7.1c0,0.3,0.1,0.5,0.3,0.7c0.2,0.2,0.4,0.3,0.7,0.3c0.3,0,0.5-0.1,0.6-0.3c0.2-0.2,0.3-0.4,0.3-0.7
					V380.1z"/>
			</g>
		</g>
	</g>
	<g transform="matrix( 1, 0, 0, 1, -280.4,-223.8) ">
		<g>
			<g id="Layer5_13_MEMBER_0_FILL">
				<path fill="#83C4EC" d="M399.5,556.6c-0.3,0-0.5,0.1-0.7,0.3c-0.2,0.2-0.3,0.4-0.3,0.7c0,0.3,0.1,0.5,0.3,0.7
					c0.2,0.2,0.4,0.3,0.7,0.3h7c0.3,0,0.5-0.1,0.7-0.3c0.2-0.2,0.3-0.4,0.3-0.7c0-0.6-0.3-1-1-1H399.5z"/>
			</g>
		</g>
	</g>
	<g transform="matrix( 1, 0, 0, 1, -280.4,-223.8) ">
		<g>
			<g id="Layer5_13_MEMBER_1_FILL">
				<path fill="#83C4EC" d="M404,554c0-0.2-0.1-0.5-0.3-0.7c-0.2-0.2-0.4-0.3-0.6-0.3s-0.5,0.1-0.7,0.3c-0.2,0.2-0.3,0.4-0.3,0.7v7
					c0,0.3,0.1,0.5,0.3,0.7c0.2,0.2,0.4,0.3,0.7,0.3s0.5-0.1,0.6-0.3c0.2-0.2,0.3-0.4,0.3-0.7V554z"/>
			</g>
		</g>
	</g>
	<g transform="matrix( 1, 0, 0, 1, -2,-521) ">
		<g>
			<g id="Layer5_14_MEMBER_0_FILL">
				<path fill="#83C4EC" d="M584.3,587c0.2,0.2,0.4,0.3,0.7,0.3h7c0.3,0,0.5-0.1,0.7-0.3c0.2-0.2,0.3-0.4,0.3-0.7s-0.1-0.5-0.3-0.6
					c-0.2-0.2-0.4-0.3-0.7-0.3h-7c-0.3,0-0.5,0.1-0.7,0.3c-0.2,0.2-0.3,0.4-0.3,0.6S584.1,586.9,584.3,587z"/>
			</g>
		</g>
	</g>
	<g transform="matrix( 1, 0, 0, 1, -2,-521) ">
		<g>
			<g id="Layer5_14_MEMBER_1_FILL">
				<path fill="#83C4EC" d="M588.5,590.8c0.3,0,0.5-0.1,0.7-0.3c0.2-0.2,0.3-0.4,0.3-0.6v-7.1c0-0.6-0.3-0.9-1-0.9
					c-0.6,0-1,0.3-1,0.9v7.1c0,0.3,0.1,0.5,0.3,0.6C588,590.8,588.3,590.8,588.5,590.8z"/>
			</g>
		</g>
	</g>
	<g transform="matrix( 1, 0, 0, 1, -53.6,-158.2) ">
		<g>
			<g id="Layer5_15_FILL">
				<path fill="#BFBFBF" d="M521,492.2h-6l-3,5.2l3,5.2h6l3-5.2L521,492.2 M515.8,493.6h4.4l2.2,3.8l-2.2,3.8h-4.4l-2.2-3.8
					L515.8,493.6z"/>
			</g>
		</g>
	</g>
	<g transform="matrix( 1, 0, 0, 1, -287.6,-198.6) ">
		<g>
			<g id="Layer5_16_FILL">
				<path fill="#BFBFBF" d="M845.3,287.1l-3,5.2l3,5.2h6l3-5.2l-3-5.2H845.3 M846.2,296.1l-2.2-3.8l2.2-3.8h4.3l2.2,3.8l-2.2,3.8
					H846.2z"/>
			</g>
		</g>
	</g>
	<g transform="matrix( 1, 0, 0, 1, 337.2,55) " opacity="0.17">
		<g transform="matrix( 1, 0, 0, 1, 0,0) ">
			<g>
				<g id="flash0_ai_Layer_003__Path__0_Layer0_0_FILL">
					<path fill="#3D3D3D" d="M187.8,41.2c-0.2-11.4-4.1-21.1-11.7-29.1C168.6,4,159.6,0,149.1,0c-6,0-11.7,1.4-17.1,4.3
						c-5.2,2.8-9.6,6.6-13.2,11.5c-1.4-2.9-3.5-5.3-6.1-7.1c-2.7-1.8-5.7-2.7-8.8-2.7c-4,0-7.5,1.3-10.6,4c-3,2.6-5,6-6,10.1
						c-2.7-1.2-5.4-1.8-8.2-1.8c-4.3,0-8.3,1.3-12,3.9c-2.5-2.7-5.4-4.8-8.6-6.3c-3.4-1.5-6.9-2.3-10.6-2.3
						c-5.7,0-10.8,1.7-15.5,5.3c-4.5,3.4-7.8,7.9-9.8,13.4c-1.2-1.4-2.6-2.5-4.3-3.3c-1.7-0.8-3.5-1.2-5.3-1.2c-3.5,0-6.5,1.3-9,3.9
						c-2.5,2.6-3.9,5.7-4.2,9.5H187.8z"/>
				</g>
			</g>
		</g>
	</g>
</g>
<g id="screen">
	<g transform="matrix( 1, 0, 0, 1, 364.95,125.1) ">
		<g transform="matrix( 1, 0, 0, 1, 0,0) ">
			<g>
				<g id="laptop_screen_0_Layer2_0_FILL">
					<path fill="#FFFFFF" d="M259.4,143.6V28.8H0v114.8H259.4z"/>
					<path fill="#A8A9A9" d="M259.4,28.8v-8.4L0,20.3v8.5H259.4z"/>
					<path fill="#83C4EC" d="M259.4,20.4V0H0v20.3L259.4,20.4z"/>
				</g>
			</g>
		</g>
		<g id="Layer_4">
			<g transform="matrix( 1, 0, 0, 1, 0,0) ">
				<g>
					<path id="laptop_screen_0_Layer1_0_1_STROKES" fill="none" stroke="#000000" stroke-miterlimit="10" d="M2.4,45H257 M2.4,61.3
						H257 M2.4,78.1H257 M2.4,94.4H257 M2.4,110.3H257 M2.4,126.7H257"/>
				</g>
			</g>
		</g>
		<g>
			<g transform="matrix( 1, 0, 0, 1, 0,0) ">
				<g>
					<g id="laptop_screen_0_Layer0_0_FILL">
						<path fill="#A8A9A9" d="M121.2,103.8v-3.7H100v3.7H121.2 M117,120.1v-3.7h-17v3.7H117 M123.8,136.4v-3.7H100v3.7H123.8
							 M48.8,136.4v-3.7H10.2v3.7H48.8 M62.9,120.1v-3.7H10.2v3.7H62.9 M52.4,103.8v-3.7H10.2v3.7H52.4 M10.2,83.9v3.7h55.5v-3.7
							H10.2 M10.2,67.7v3.7h55.5v-3.7H10.2 M10.2,51.4v3.7h39.6v-3.7H10.2 M65.8,38.8v-3.7H10.2v3.7H65.8 M100,55.1h17.4v-3.7H100
							V55.1 M100,67.7v3.7h25.6v-3.7H100 M100,83.9v3.7h29.8v-3.7H100 M123,38.8v-3.7h-23v3.7H123 M245.1,139l4.5-4.5l-4.5-4.5V139
							 M245.1,122.6l4.5-4.5l-4.5-4.5V122.6 M245.1,106.4l4.5-4.5l-4.5-4.5V106.4 M176.4,132.8v3.7h16.2v-3.7H176.4 M192.6,120.1
							v-3.7h-16.2v3.7H192.6 M192.6,103.8v-3.7h-16.2v3.7H192.6 M176.4,83.9v3.7h16.2v-3.7H176.4 M192.6,71.3v-3.7h-16.2v3.7H192.6
							 M192.6,55.1v-3.7h-16.2v3.7H192.6 M176.4,38.8h16.2v-3.7h-16.2V38.8 M245.1,90.2l4.5-4.5l-4.5-4.5V90.2 M245.1,74l4.5-4.5
							l-4.5-4.5V74 M245.1,57.8l4.5-4.5l-4.5-4.5V57.8 M245.1,41.6l4.5-4.5l-4.5-4.5V41.6z"/>
						<path fill="#FFFFFF" d="M10.2,12.3h29.2V8.6H10.2V12.3 M46.2,7.2l7.3,7.3l7.3-7.2L46.2,7.2 M237.6,12.3V8.6h-52.7v3.7H237.6z"
							/>
					</g>
				</g>
				<g>
					<path id="laptop_screen_0_Layer0_0_1_STROKES" fill="none" stroke="#FFFFFF" stroke-miterlimit="10" d="M173.2,5.4h76.4v9.8
						h-76.4V5.4z"/>
				</g>
			</g>
		</g>
	</g>
</g>
<g id="laptop">
	<g transform="matrix( 1, 0, 0, 1, 0,0) ">
		<g>
			<g id="Layer3_0_FILL">
				<path fill="#FFFFFF" d="M635.6,119.3c0-1.8-0.6-3.4-1.9-4.8c-1.3-1.3-2.9-1.9-4.8-1.9h-269c-1.7,0-3.2,0.6-4.4,1.8
					c-1.2,1.2-1.8,2.6-1.8,4.3V281h281.9V119.3 M624.3,125.1v143.6H365V125.1H624.3z"/>
			</g>
		</g>
		<g>
			<path id="Layer3_0_1_STROKES" fill="none" stroke="#000000" stroke-miterlimit="10" d="M635.6,281H353.7V118.8
				c0-1.7,0.6-3.2,1.8-4.3c1.2-1.2,2.7-1.8,4.4-1.8h269c1.9,0,3.5,0.7,4.8,1.9c1.3,1.3,1.9,2.9,1.9,4.8V281z M624.3,268.8H365V125.1
				h259.4V268.8z"/>
		</g>
	</g>
	<g transform="matrix( 1, 0, 0, 1, -192.8,-237.8) ">
		<g>
			<g id="Layer3_1_FILL">
				<path fill="#CACACA" d="M854,525.8v-7H520.9v6.9c0,2.1,0.7,3.8,2.2,5.3c1.5,1.5,3.3,2.2,5.4,2.2h318.1c2,0,3.8-0.7,5.3-2.2
					C853.3,529.6,854,527.8,854,525.8z"/>
			</g>
		</g>
		<g>
			<path id="Layer3_1_1_STROKES" fill="none" stroke="#000000" stroke-miterlimit="10" d="M854,518.8H520.9v6.9
				c0,2.1,0.7,3.8,2.2,5.3c1.5,1.5,3.3,2.2,5.4,2.2h318.1c2,0,3.8-0.7,5.3-2.2c1.4-1.4,2.2-3.2,2.2-5.3V518.8z"/>
		</g>
	</g>
	<g transform="matrix( 1, 0, 0, 1, -192.8,-237.8) ">
		<g>
			<path id="Layer3_2_1_STROKES" fill="none" stroke="#000000" stroke-miterlimit="10" d="M853.9,527.3H521"/>
		</g>
	</g>
</g>
<g id="connectors">
	<g transform="matrix( 1, 0, 0, 1, 0,0) ">
		<g>
			<g id="Layer2_0_FILL">
				<path fill="#FEFEFE" d="M363.1,194.3c-0.6,0.6-0.9,1.2-0.9,2c0,0.1,0,0.1,0,0.2c0,0.8,0.3,1.6,0.9,2.2c0.6,0.6,1.4,0.9,2.2,0.9
					c0.8,0,1.6-0.3,2.2-0.9c0.6-0.6,1-1.4,1-2.2s-0.3-1.6-1-2.2c-0.6-0.6-1.4-0.9-2.2-0.9C364.5,193.4,363.8,193.7,363.1,194.3
					 M254.1,196.1c0,0.2,0,0.4-0.1,0.5c0.1-0.1,0.1-0.2,0.1-0.3C254.1,196.3,254.1,196.2,254.1,196.1 M251.3,197.3
					c0.1,0.2,0.3,0.3,0.4,0.4c0.2,0.1,0.5,0.1,0.8,0.1c0.4,0,0.8-0.2,1.1-0.5c0.1-0.1,0.1-0.1,0.2-0.2c0,0,0,0,0.1-0.1
					c0-0.1,0.1-0.2,0.1-0.3c0.1-0.1,0.1-0.3,0.1-0.5v0c0-0.4-0.1-0.8-0.4-1.1c-0.3-0.3-0.7-0.5-1.1-0.5c-0.5,0-0.9,0.2-1.2,0.5
					c-0.3,0.3-0.5,0.7-0.5,1.1C250.8,196.6,251,197,251.3,197.3z"/>
				<path fill="#F7571A" d="M240.4,158.3c-5.7-17.7-16.9-30.8-33.4-39.3c-16.6-8.5-33.8-9.9-51.6-4.3c-17.7,5.7-30.9,16.9-39.4,33.4
					c-8.5,16.6-9.9,33.8-4.2,51.6c5.7,17.7,16.9,30.9,33.5,39.4c16.6,8.5,33.8,9.9,51.6,4.2c17.7-5.7,30.9-16.9,39.4-33.4
					C244.7,193.2,246.1,176,240.4,158.3z"/>
			</g>
		</g>
		<g>
			<path id="Layer2_0_1_STROKES" fill="none" stroke="#A3A3A3" stroke-miterlimit="10" d="M362.3,196.3c0-0.8,0.3-1.4,0.9-2
				c0.6-0.6,1.4-0.9,2.2-0.9c0.8,0,1.6,0.3,2.2,0.9c0.6,0.6,1,1.4,1,2.2s-0.3,1.6-1,2.2c-0.6,0.6-1.4,0.9-2.2,0.9
				c-0.8,0-1.6-0.3-2.2-0.9c-0.6-0.6-0.9-1.4-0.9-2.2C362.3,196.4,362.3,196.4,362.3,196.3H254.1 M254,196.7c0,0.1-0.1,0.2-0.1,0.3
				c0,0,0,0.1-0.1,0.1c0,0.1-0.1,0.1-0.2,0.2c-0.3,0.3-0.7,0.5-1.1,0.5c-0.3,0-0.5-0.1-0.7-0.1c-1.5,5.7-3.6,11.3-6.5,16.8
				c-9.7,19.1-24.8,31.9-45.3,38.5c-20.5,6.6-40.2,5-59.3-4.8c-19.1-9.8-31.9-24.9-38.5-45.3 M251.8,197.6c-0.2-0.1-0.3-0.2-0.5-0.4
				c-0.3-0.3-0.5-0.6-0.5-1.1c0-0.4,0.2-0.8,0.5-1.1c0.3-0.3,0.7-0.5,1.2-0.5c2.7-12.8,2-25.9-2.4-39.3
				c-6.6-20.5-19.4-35.6-38.5-45.3c-19.1-9.8-38.9-11.4-59.3-4.8 M252.5,194.5c0.4,0,0.8,0.2,1.1,0.5c0.3,0.3,0.4,0.7,0.4,1.1v0
				c0,0.2,0,0.4-0.1,0.5"/>
		</g>
	</g>
</g>
<g transform="matrix( 1, 0, 0, 1, 0,0) ">
	<g>
		<path id="Layer1_0_1_STROKES" fill="none" stroke="#FEFEFE" stroke-linecap="round" stroke-linejoin="round" d="M171.3,145.6
			c0,0.4-0.1,0.8-0.4,1.2c-0.4,0.3-0.8,0.4-1.3,0.4c-0.4,0-0.8-0.2-1.2-0.4c-0.3-0.4-0.5-0.8-0.5-1.2s0.2-0.8,0.5-1.2
			c0.3-0.3,0.7-0.4,1.2-0.4c0.5,0,0.9,0.1,1.3,0.4C171.2,144.8,171.3,145.2,171.3,145.6z M167.9,173.9c0,0.4-0.1,0.8-0.4,1.1
			c-0.4,0.3-0.8,0.5-1.3,0.5c-0.4,0-0.8-0.2-1.1-0.5c-0.3-0.3-0.5-0.7-0.5-1.1c0-0.5,0.2-0.9,0.5-1.2c0.3-0.3,0.7-0.5,1.1-0.5
			c0.5,0,0.9,0.2,1.3,0.5C167.8,173,167.9,173.4,167.9,173.9z M187.9,172.2l6.6,6.7l11.6-11.7 M181.3,180.5h-33.2v-13.3h33.2V180.5z
			 M167.7,194.9h36.6 M151.3,145.6c0,0.4-0.1,0.8-0.4,1.2c-0.3,0.3-0.7,0.4-1.2,0.4c-0.5,0-0.9-0.2-1.1-0.4
			c-0.3-0.4-0.5-0.8-0.5-1.2s0.2-0.8,0.5-1.2c0.3-0.3,0.7-0.4,1.1-0.4c0.5,0,0.9,0.1,1.2,0.4C151.2,144.8,151.3,145.2,151.3,145.6z
			 M161.3,145.6c0,0.4-0.1,0.8-0.4,1.2c-0.3,0.3-0.7,0.4-1.2,0.4c-0.5,0-0.8-0.2-1.1-0.4c-0.4-0.4-0.6-0.8-0.6-1.2s0.2-0.8,0.6-1.2
			c0.3-0.3,0.7-0.4,1.1-0.4c0.5,0,0.9,0.1,1.2,0.4C161.2,144.8,161.3,145.2,161.3,145.6z M157.9,173.9c0,0.4-0.1,0.8-0.4,1.1
			s-0.7,0.5-1.1,0.5c-0.5,0-0.9-0.2-1.2-0.5c-0.4-0.3-0.6-0.7-0.6-1.1c0-0.5,0.2-0.9,0.6-1.2c0.3-0.3,0.7-0.5,1.2-0.5
			c0.5,0,0.8,0.2,1.1,0.5C157.8,173,157.9,173.4,157.9,173.9z M157.8,198.3h-10v-6.6h10V198.3z M157.8,214.9h-10v-6.7h10V214.9z
			 M167.7,211.5h36.6 M138.1,153.9h76.4"/>
	</g>
</g>
</svg>
