<?xml version="1.0" encoding="utf-8"?>
<!-- Generator: Adobe Illustrator 23.0.1, SVG Export Plug-In . SVG Version: 6.00 Build 0)  -->
<svg version="1.1" id="Layer_a" xmlns="http://www.w3.org/2000/svg" xmlns:xlink="http://www.w3.org/1999/xlink" x="0px" y="0px"
	 viewBox="0 0 750 400" enable-background="new 0 0 750 400" xml:space="preserve">
<g id="clouds_bits">
	<g transform="matrix( 1, 0, 0, 1, -261.35,-203.95) ">
		<g>
			<g id="Layer6_2_FILL">
				<path fill="#BAD727" d="M458.9,578c0-0.5-0.2-1-0.6-1.3c-0.4-0.4-0.8-0.6-1.3-0.6c-0.5,0-1,0.2-1.4,0.6
					c-0.4,0.4-0.6,0.8-0.6,1.3s0.2,1,0.6,1.4c0.4,0.4,0.8,0.5,1.4,0.5c0.5,0,1-0.2,1.3-0.5C458.7,579,458.9,578.5,458.9,578z"/>
			</g>
		</g>
	</g>
	<g transform="matrix( 1, 0, 0, 1, -340.35,-241.15) ">
		<g>
			<g id="Layer6_3_FILL">
				<path fill="#BAD727" d="M851.7,428.8c0-0.5-0.2-1-0.6-1.3c-0.4-0.4-0.8-0.6-1.3-0.6s-1,0.2-1.4,0.6c-0.4,0.4-0.5,0.8-0.5,1.3
					c0,0.5,0.2,1,0.5,1.4c0.4,0.4,0.8,0.6,1.4,0.6c0.5,0,1-0.2,1.3-0.6C851.5,429.8,851.7,429.3,851.7,428.8z"/>
			</g>
		</g>
	</g>
	<g transform="matrix( 1, 0, 0, 1, -287.6,-198.6) ">
		<g>
			<g id="Layer6_4_FILL">
				<path fill="#F7571A" d="M598,321.3c0-0.5-0.2-1-0.6-1.3c-0.4-0.4-0.8-0.6-1.4-0.6s-1,0.2-1.3,0.6c-0.4,0.4-0.5,0.8-0.5,1.3
					c0,0.5,0.2,1,0.5,1.4c0.4,0.4,0.8,0.6,1.3,0.6s1-0.2,1.4-0.6C597.8,322.3,598,321.8,598,321.3z"/>
			</g>
		</g>
	</g>
	<g transform="matrix( 1, 0, 0, 1, -327.05,-244.85) ">
		<g>
			<g id="Layer6_5_FILL">
				<path fill="#F7571A" d="M520.9,449.9c0-0.5-0.2-1-0.6-1.4c-0.4-0.4-0.8-0.5-1.3-0.5s-1,0.2-1.4,0.5c-0.4,0.4-0.5,0.8-0.5,1.4
					c0,0.5,0.2,1,0.5,1.4c0.4,0.4,0.8,0.6,1.4,0.6s1-0.2,1.3-0.6C520.7,450.9,520.9,450.4,520.9,449.9z"/>
			</g>
		</g>
	</g>
	<g transform="matrix( 1, 0, 0, 1, -367,-362.35) ">
		<g>
			<g id="Layer6_6_FILL">
				<path fill="#DEDEDE" d="M454,529.6c0-1.1-0.4-2-1.1-2.8c-0.8-0.7-1.7-1.1-2.8-1.1c-1.1,0-2,0.4-2.7,1.1
					c-0.7,0.8-1.1,1.7-1.1,2.8c0,1.1,0.4,2,1.1,2.7c0.8,0.7,1.7,1.1,2.7,1.1c1.1,0,2-0.4,2.8-1.1C453.6,531.6,454,530.7,454,529.6z"
					/>
			</g>
		</g>
	</g>
	<g transform="matrix( 1, 0, 0, 1, -300.25,-197.65) ">
		<g>
			<g id="Layer6_7_FILL">
				<path fill="#DEDEDE" d="M848.8,493.6c-0.4-0.4-0.8-0.5-1.4-0.5c-0.5,0-1,0.2-1.4,0.5c-0.4,0.4-0.5,0.9-0.5,1.4
					c0,0.5,0.2,1,0.5,1.4c0.4,0.4,0.8,0.6,1.4,0.6c0.5,0,1-0.2,1.4-0.6c0.4-0.4,0.6-0.8,0.6-1.4
					C849.4,494.5,849.2,494.1,848.8,493.6z"/>
			</g>
		</g>
	</g>
	<g transform="matrix( 1, 0, 0, 1, -287.6,-198.6) ">
		<g>
			<g id="Layer6_8_FILL">
				<path fill="#D1D1D1" d="M844.5,583.7c0-1.1-0.4-2-1.1-2.7c-0.8-0.7-1.7-1.1-2.8-1.1c-1.1,0-2,0.4-2.7,1.1
					c-0.8,0.8-1.2,1.7-1.2,2.7c0,1.1,0.4,2,1.2,2.8c0.7,0.7,1.6,1.1,2.7,1.1c1.1,0,2-0.4,2.8-1.1
					C844.1,585.7,844.5,584.8,844.5,583.7z"/>
			</g>
		</g>
	</g>
	<g transform="matrix( 1, 0, 0, 1, -287.6,-198.6) ">
		<g>
			<path id="Layer6_9_1_STROKES" fill="none" stroke="#BFBFBF" stroke-width="2" stroke-miterlimit="10" d="M855,350.9
				c0,0.9-0.3,1.7-1,2.3c-0.6,0.6-1.4,1-2.3,1c-0.9,0-1.7-0.3-2.3-1c-0.6-0.6-1-1.4-1-2.3c0-0.9,0.3-1.6,1-2.3c0.6-0.6,1.4-1,2.3-1
				c0.9,0,1.6,0.3,2.3,1C854.7,349.2,855,350,855,350.9z"/>
		</g>
	</g>
	<g transform="matrix( 1, 0, 0, 1, -287.6,-198.6) ">
		<g>
			<path id="Layer6_10_1_STROKES" fill="none" stroke="#BFBFBF" stroke-width="2" stroke-miterlimit="10" d="M678.5,551.5
				c0,0.9-0.3,1.7-1,2.3s-1.4,1-2.3,1c-0.9,0-1.7-0.3-2.3-1c-0.6-0.6-1-1.4-1-2.3s0.3-1.7,1-2.3c0.6-0.6,1.4-1,2.3-1
				c0.9,0,1.6,0.3,2.3,1C678.1,549.8,678.5,550.5,678.5,551.5z"/>
		</g>
	</g>
	<g transform="matrix( 1, 0, 0, 1, -371.85,-82.65) ">
		<g>
			<path id="Layer6_11_1_STROKES" fill="none" stroke="#BFBFBF" stroke-width="2" stroke-miterlimit="10" d="M619.5,264.3
				c0,0.9-0.3,1.7-1,2.3c-0.6,0.6-1.4,0.9-2.3,0.9c-0.9,0-1.6-0.3-2.3-0.9c-0.6-0.6-1-1.4-1-2.3c0-0.9,0.3-1.6,1-2.3
				c0.6-0.6,1.4-0.9,2.3-0.9c0.9,0,1.7,0.3,2.3,0.9S619.5,263.4,619.5,264.3z"/>
		</g>
	</g>
	<g transform="matrix( 1, 0, 0, 1, -264.45,-220) ">
		<g>
			<g id="Layer6_12_MEMBER_0_FILL">
				<path fill="#83C4EC" d="M506.5,271.5h7c0.3,0,0.5-0.1,0.7-0.3c0.2-0.2,0.3-0.4,0.3-0.7c0-0.3-0.1-0.5-0.3-0.7
					c-0.2-0.2-0.4-0.3-0.7-0.3h-7c-0.6,0-0.9,0.3-0.9,0.9c0,0.3,0.1,0.5,0.3,0.7C506.1,271.4,506.3,271.5,506.5,271.5z"/>
			</g>
		</g>
	</g>
	<g transform="matrix( 1, 0, 0, 1, -264.45,-220) ">
		<g>
			<g id="Layer6_12_MEMBER_1_FILL">
				<path fill="#83C4EC" d="M509.4,266.4c-0.2,0.2-0.3,0.4-0.3,0.6v7c0,0.3,0.1,0.5,0.3,0.7c0.2,0.2,0.4,0.3,0.6,0.3
					c0.6,0,1-0.3,1-1v-7c0-0.3-0.1-0.5-0.3-0.6c-0.2-0.2-0.4-0.3-0.7-0.3C509.8,266,509.6,266.1,509.4,266.4z"/>
			</g>
		</g>
	</g>
	<g transform="matrix( 1, 0, 0, 1, -218.55,-75.8) ">
		<g>
			<g id="Layer6_13_MEMBER_0_FILL">
				<path fill="#83C4EC" d="M909.2,384.4c0.2,0.2,0.4,0.3,0.6,0.3h7.1c0.3,0,0.5-0.1,0.7-0.3c0.2-0.2,0.2-0.4,0.3-0.6
					c0-0.6-0.3-1-0.9-1h-7.1c-0.3,0-0.5,0.1-0.6,0.3c-0.2,0.2-0.3,0.4-0.3,0.7C908.9,384,909,384.2,909.2,384.4z"/>
			</g>
		</g>
	</g>
	<g transform="matrix( 1, 0, 0, 1, -218.55,-75.8) ">
		<g>
			<g id="Layer6_13_MEMBER_1_FILL">
				<path fill="#83C4EC" d="M914.3,380.1c0-0.2-0.1-0.5-0.3-0.6c-0.2-0.2-0.4-0.3-0.6-0.3c-0.3,0-0.5,0.1-0.7,0.3
					c-0.2,0.2-0.3,0.4-0.3,0.6v7.1c0,0.3,0.1,0.5,0.3,0.7c0.2,0.2,0.4,0.3,0.7,0.3c0.3,0,0.5-0.1,0.6-0.3c0.2-0.2,0.3-0.4,0.3-0.7
					V380.1z"/>
			</g>
		</g>
	</g>
	<g transform="matrix( 1, 0, 0, 1, 116.7,-318.45) ">
		<g>
			<g id="Layer6_14_MEMBER_0_FILL">
				<path fill="#83C4EC" d="M399.5,556.6c-0.3,0-0.5,0.1-0.7,0.3c-0.2,0.2-0.3,0.4-0.3,0.7c0,0.3,0.1,0.5,0.3,0.7
					c0.2,0.2,0.4,0.3,0.7,0.3h7c0.3,0,0.5-0.1,0.7-0.3c0.2-0.2,0.3-0.4,0.3-0.7c0-0.6-0.3-1-1-1H399.5z"/>
			</g>
		</g>
	</g>
	<g transform="matrix( 1, 0, 0, 1, 116.7,-318.45) ">
		<g>
			<g id="Layer6_14_MEMBER_1_FILL">
				<path fill="#83C4EC" d="M404,554c0-0.2-0.1-0.5-0.3-0.7c-0.2-0.2-0.4-0.3-0.6-0.3s-0.5,0.1-0.7,0.3c-0.2,0.2-0.3,0.4-0.3,0.7v7
					c0,0.3,0.1,0.5,0.3,0.7c0.2,0.2,0.4,0.3,0.7,0.3s0.5-0.1,0.6-0.3c0.2-0.2,0.3-0.4,0.3-0.7V554z"/>
			</g>
		</g>
	</g>
	<g transform="matrix( 1, 0, 0, 1, -310.8,-218.5) ">
		<g>
			<g id="Layer6_15_MEMBER_0_FILL">
				<path fill="#83C4EC" d="M584.3,587c0.2,0.2,0.4,0.3,0.7,0.3h7c0.3,0,0.5-0.1,0.7-0.3c0.2-0.2,0.3-0.4,0.3-0.7s-0.1-0.5-0.3-0.6
					c-0.2-0.2-0.4-0.3-0.7-0.3h-7c-0.3,0-0.5,0.1-0.7,0.3c-0.2,0.2-0.3,0.4-0.3,0.6S584.1,586.9,584.3,587z"/>
			</g>
		</g>
	</g>
	<g transform="matrix( 1, 0, 0, 1, -310.8,-218.5) ">
		<g>
			<g id="Layer6_15_MEMBER_1_FILL">
				<path fill="#83C4EC" d="M588.5,590.8c0.3,0,0.5-0.1,0.7-0.3c0.2-0.2,0.3-0.4,0.3-0.6v-7.1c0-0.6-0.3-0.9-1-0.9
					c-0.6,0-1,0.3-1,0.9v7.1c0,0.3,0.1,0.5,0.3,0.6C588,590.8,588.3,590.8,588.5,590.8z"/>
			</g>
		</g>
	</g>
	<g transform="matrix( 1, 0, 0, 1, -313.95,-465.15) ">
		<g>
			<g id="Layer6_16_MEMBER_0_FILL">
				<path fill="#83C4EC" d="M745,571.2c0.3,0,0.5-0.1,0.6-0.3c0.2-0.2,0.3-0.4,0.3-0.7c0-0.2-0.1-0.5-0.3-0.7
					c-0.2-0.2-0.4-0.3-0.6-0.3h-7c-0.3,0-0.5,0.1-0.7,0.3c-0.2,0.2-0.3,0.4-0.3,0.7c0,0.3,0.1,0.5,0.3,0.7c0.2,0.2,0.4,0.3,0.7,0.3
					H745z"/>
			</g>
		</g>
	</g>
	<g transform="matrix( 1, 0, 0, 1, -313.95,-465.15) ">
		<g>
			<g id="Layer6_16_MEMBER_1_FILL">
				<path fill="#83C4EC" d="M740.8,566c-0.2,0.2-0.3,0.4-0.3,0.7v7c0,0.3,0.1,0.5,0.3,0.7c0.2,0.2,0.4,0.3,0.7,0.3
					c0.3,0,0.5-0.1,0.7-0.3c0.2-0.2,0.3-0.4,0.3-0.7v-7c0-0.3-0.1-0.5-0.3-0.7c-0.2-0.2-0.4-0.3-0.7-0.3
					C741.1,565.8,740.9,565.8,740.8,566z"/>
			</g>
		</g>
	</g>
	<g transform="matrix( 1, 0, 0, 1, -270.85,-171.6) ">
		<g>
			<g id="Layer6_17_FILL">
				<path fill="#BFBFBF" d="M521,492.2h-6l-3,5.2l3,5.2h6l3-5.2L521,492.2 M515.8,493.6h4.4l2.2,3.8l-2.2,3.8h-4.4l-2.2-3.8
					L515.8,493.6z"/>
			</g>
		</g>
	</g>
	<g transform="matrix( 1, 0, 0, 1, -287.6,-198.6) ">
		<g>
			<g id="Layer6_18_FILL">
				<path fill="#BFBFBF" d="M845.3,287.1l-3,5.2l3,5.2h6l3-5.2l-3-5.2H845.3 M846.2,296.1l-2.2-3.8l2.2-3.8h4.3l2.2,3.8l-2.2,3.8
					H846.2z"/>
			</g>
		</g>
	</g>
	<g transform="matrix( 1, 0, 0, 1, 337.2,55) " opacity="0.17">
		<g transform="matrix( 1, 0, 0, 1, 0,0) ">
			<g>
				<g id="flash0_ai_Layer_b__Path__0_Layer0_0_FILL_1_">
					<path fill="#3D3D3D" d="M319.4,20.6c-0.2-11.4-4.1-21.1-11.7-29.1c-7.5-8.1-16.5-12.1-27-12.1c-6,0-11.7,1.4-17.1,4.3
						c-5.2,2.8-9.6,6.6-13.2,11.5c-1.4-2.9-3.5-5.3-6.1-7.1c-2.7-1.8-5.7-2.7-8.8-2.7c-4,0-7.5,1.3-10.6,4c-3,2.6-5,6-6,10.1
						c-2.7-1.2-5.4-1.8-8.2-1.8c-4.3,0-8.3,1.3-12,3.9c-2.5-2.7-5.4-4.8-8.6-6.3c-3.4-1.5-6.9-2.3-10.6-2.3
						c-5.7,0-10.8,1.7-15.5,5.3c-4.5,3.4-7.8,7.9-9.8,13.4c-1.2-1.4-2.6-2.5-4.3-3.3s-3.5-1.2-5.3-1.2c-3.5,0-6.5,1.3-9,3.9
						c-2.5,2.6-3.9,5.7-4.2,9.5C131.4,20.6,319.4,20.6,319.4,20.6z"/>
				</g>
			</g>
		</g>
	</g>
	<g transform="matrix( 1, 0, 0, 1, 337.2,55) " opacity="0.17">
		<g transform="matrix( 1, 0, 0, 1, 0,0) ">
			<g>
				<g id="flash0_ai_Layer_c__Path__0_Layer0_0_FILL_2_">
					<path fill="#3D3D3D" d="M323.4,293.2c-0.2-2.5-1.3-4.6-3.2-6.4c-1.9-1.7-4.2-2.6-6.8-2.6c-1.4,0-2.7,0.3-4,0.8
						c-1.3,0.5-2.4,1.3-3.3,2.2c-1.5-3.7-4-6.7-7.5-9c-3.6-2.4-7.5-3.5-11.8-3.5c-2.8,0-5.5,0.5-8.1,1.5c-2.4,1-4.6,2.4-6.5,4.2
						c-2.8-1.7-5.9-2.6-9.1-2.6c-2.1,0-4.2,0.4-6.2,1.2c-0.8-2.7-2.3-5-4.6-6.8c-2.4-1.8-5-2.7-8.1-2.7c-2.4,0-4.6,0.6-6.7,1.8
						c-2,1.2-3.6,2.8-4.6,4.7c-2.7-3.3-6.1-5.8-10-7.7c-4.1-1.9-8.4-2.9-13-2.9c-8,0-14.8,2.7-20.5,8.1c-5.8,5.3-8.7,11.8-8.9,19.5
						C180.5,293.2,323.4,293.2,323.4,293.2z"/>
				</g>
			</g>
		</g>
	</g>
	<g transform="matrix( 1, 0, 0, 1, 337.2,55) " opacity="0.17">
		<g transform="matrix( 1, 0, 0, 1, 0,0) ">
			<g>
				<g id="flash0_ai_Layer_d__Path__0_Layer0_0_FILL_3_">
					<path fill="#3D3D3D" d="M-201.9,159.7c-0.1-1.5-0.8-2.7-1.9-3.8c-1.1-1-2.5-1.5-4.1-1.5c-0.8,0-1.6,0.2-2.4,0.5
						s-1.4,0.8-1.9,1.3c-0.9-2.2-2.4-4-4.4-5.3c-2.1-1.4-4.4-2.1-7-2.1c-1.7,0-3.3,0.3-4.8,0.9c-1.4,0.6-2.8,1.4-3.9,2.5
						c-1.7-1-3.5-1.5-5.4-1.5c-1.3,0-2.5,0.2-3.7,0.7c-0.5-1.6-1.4-3-2.7-4c-1.4-1.1-3-1.6-4.8-1.6c-1.4,0-2.8,0.4-4,1.1
						c-1.2,0.7-2.1,1.7-2.8,2.8c-1.6-1.9-3.6-3.5-6-4.6c-2.4-1.2-5-1.7-7.7-1.7c-4.7,0-8.8,1.6-12.2,4.8c-3.4,3.2-5.2,7-5.3,11.6
						C-286.8,159.7-201.9,159.7-201.9,159.7z"/>
				</g>
			</g>
		</g>
	</g>
</g>
<g id="browser">
	<g transform="matrix( 1, 0, 0, 1, 0,0) ">
		<g>
			<g id="Layer5_0_FILL">
				<path fill="#595959" d="M424.5,136.3c-1.4-1.4-3.1-2.1-5.1-2.1H277.6c-2,0-3.7,0.7-5.1,2.1s-2.1,3.1-2.1,5.1v158.8
					c0,2,0.7,3.7,2.1,5.1s3.1,2.1,5.1,2.1h141.9c2,0,3.7-0.7,5.1-2.1s2.1-3.1,2.1-5.1V141.4C426.6,139.4,425.9,137.7,424.5,136.3z"
					/>
			</g>
		</g>
		<g>
			<path id="Layer5_0_1_STROKES" fill="none" stroke="#000000" stroke-miterlimit="10" d="M419.5,134.1H277.6c-2,0-3.7,0.7-5.1,2.1
				s-2.1,3.1-2.1,5.1v158.8c0,2,0.7,3.7,2.1,5.1s3.1,2.1,5.1,2.1h141.9c2,0,3.7-0.7,5.1-2.1s2.1-3.1,2.1-5.1V141.4
				c0-2-0.7-3.7-2.1-5.1S421.5,134.1,419.5,134.1z"/>
		</g>
	</g>
	<g transform="matrix( 1, 0, 0, 1, 0,0) ">
		<g>
			<g id="Layer5_1_FILL">
				<path fill="#FEFEFE" d="M284,307.5h0.3c-1.9-0.1-3.5-0.8-4.8-2.1c-0.6-0.7-1.1-1.4-1.5-2.1c0.3,0.9,0.8,1.6,1.5,2.3
					C280.7,306.8,282.2,307.5,284,307.5 M468.8,300.5c-0.1,1.8-0.8,3.4-2.1,4.8c-1.3,1.3-2.9,2-4.8,2.1c1.9,0,3.5-0.7,4.9-2
					C468.1,304.1,468.8,302.4,468.8,300.5 M468.8,154.6h-0.4H277.6V301c0,0.8,0.1,1.5,0.4,2.2c0.4,0.8,0.9,1.5,1.5,2.1
					c1.3,1.3,2.9,2,4.8,2.1h177.6c1.9-0.1,3.5-0.8,4.8-2.1c1.3-1.4,2-3,2.1-4.8c0-0.1,0-0.2,0-0.3V154.6z"/>
				<path fill="#CACACA" d="M461.5,134.3H459l-172-0.1l-2.4,0.1c-2,0-3.7,0.7-5.1,2.1c-1.1,1-1.7,2.2-2,3.6l-0.1,1.4
					c0,0,0,0.1,0,0.1v12.9h191.4v-12.9c0,0,0-0.1,0-0.1c0-1-0.2-1.9-0.5-2.7c-0.1-0.2-0.2-0.4-0.3-0.6c-0.3-0.6-0.8-1.1-1.3-1.7
					C465.2,135,463.5,134.3,461.5,134.3 M292.3,143.8c0,0.8-0.3,1.4-0.8,1.9s-1.2,0.8-2,0.8c-0.8,0-1.4-0.3-2-0.8
					c-0.5-0.5-0.8-1.2-0.8-1.9c0-0.8,0.3-1.4,0.8-2c0.6-0.5,1.2-0.8,2-0.8c0.8,0,1.4,0.3,2,0.8C292,142.4,292.3,143,292.3,143.8
					 M302.8,143.8c0,0.8-0.3,1.4-0.8,1.9c-0.6,0.5-1.2,0.8-2,0.8s-1.4-0.3-2-0.8c-0.5-0.5-0.8-1.2-0.8-1.9c0-0.8,0.3-1.4,0.8-2
					c0.5-0.5,1.2-0.8,2-0.8s1.4,0.3,2,0.8C302.5,142.4,302.8,143,302.8,143.8 M313.3,143.8c0,0.8-0.3,1.4-0.8,1.9
					c-0.6,0.5-1.2,0.8-2,0.8s-1.4-0.3-2-0.8c-0.5-0.5-0.8-1.2-0.8-1.9c0-0.8,0.3-1.4,0.8-2c0.5-0.5,1.2-0.8,2-0.8s1.4,0.3,2,0.8
					C313,142.4,313.3,143,313.3,143.8 M312.5,145.8c0.5-0.5,0.8-1.2,0.8-1.9c0-0.8-0.3-1.4-0.8-2c-0.6-0.5-1.2-0.8-2-0.8
					s-1.4,0.3-2,0.8c-0.5,0.6-0.8,1.2-0.8,2c0,0.8,0.3,1.4,0.8,1.9c0.5,0.5,1.2,0.8,2,0.8S311.9,146.3,312.5,145.8 M302,145.8
					c0.5-0.5,0.8-1.2,0.8-1.9c0-0.8-0.3-1.4-0.8-2c-0.6-0.5-1.2-0.8-2-0.8s-1.4,0.3-2,0.8c-0.5,0.6-0.8,1.2-0.8,2
					c0,0.8,0.3,1.4,0.8,1.9c0.5,0.5,1.2,0.8,2,0.8S301.4,146.3,302,145.8 M291.5,145.8c0.5-0.5,0.8-1.2,0.8-1.9c0-0.8-0.3-1.4-0.8-2
					c-0.5-0.5-1.2-0.8-2-0.8c-0.8,0-1.4,0.3-2,0.8c-0.5,0.6-0.8,1.2-0.8,2c0,0.8,0.3,1.4,0.8,1.9c0.6,0.5,1.2,0.8,2,0.8
					C290.3,146.6,291,146.3,291.5,145.8z"/>
			</g>
		</g>
		<g>
			<path id="Layer5_1_1_STROKES" fill="none" stroke="#000000" stroke-miterlimit="10" d="M459,134.3l2.5-0.1c2,0,3.7,0.7,5.1,2.1
				c0.5,0.6,1,1.1,1.3,1.8c0.1,0.2,0.2,0.4,0.3,0.6c0.3,0.8,0.5,1.7,0.5,2.7c0,0,0,0.1,0,0.1v12.9v0.1v145.7c0,0.1,0,0.2,0,0.3
				 M461.9,307.5H284.3 M278,303.2c-0.4-0.9-0.6-1.9-0.6-3V154.6H277 M468.8,300.5c-0.1,1.8-0.8,3.4-2.1,4.8c-1.3,1.3-2.9,2-4.8,2.1
				 M277.5,140c0.2-1.4,0.9-2.6,2-3.7c1.4-1.4,3.1-2.1,5.1-2.1l2.5,0l172,0 M292.3,143.8c0,0.8-0.3,1.4-0.8,1.9s-1.2,0.8-2,0.8
				c-0.8,0-1.4-0.3-2-0.8c-0.5-0.5-0.8-1.2-0.8-1.9c0-0.8,0.3-1.4,0.8-2c0.6-0.5,1.2-0.8,2-0.8c0.8,0,1.4,0.3,2,0.8
				C292,142.4,292.3,143,292.3,143.8z M302.8,143.8c0,0.8-0.3,1.4-0.8,1.9c-0.6,0.5-1.2,0.8-2,0.8s-1.4-0.3-2-0.8
				c-0.5-0.5-0.8-1.2-0.8-1.9c0-0.8,0.3-1.4,0.8-2c0.5-0.5,1.2-0.8,2-0.8s1.4,0.3,2,0.8C302.5,142.4,302.8,143,302.8,143.8z
				 M313.3,143.8c0,0.8-0.3,1.4-0.8,1.9c-0.6,0.5-1.2,0.8-2,0.8s-1.4-0.3-2-0.8c-0.5-0.5-0.8-1.2-0.8-1.9c0-0.8,0.3-1.4,0.8-2
				c0.5-0.5,1.2-0.8,2-0.8s1.4,0.3,2,0.8C313,142.4,313.3,143,313.3,143.8z M277.4,141.4l0.1-1.4 M277.4,154.5L277.4,154.5l0.3,0.1
				h190.8 M277.4,154.5v-12.9 M284.3,307.5c-1.9-0.1-3.5-0.8-4.8-2.1c-0.6-0.7-1.1-1.4-1.5-2.1"/>
		</g>
	</g>
</g>
<g id="content">
	<g transform="matrix( 1, 0, 0, 1, 0,0) ">
		<g>
			<g id="Layer4_0_FILL">
				<path fill="#CACACA" d="M356.6,292v-35.5h-56.8V292H356.6 M311.3,281.6h33H311.3 M311.3,274.6h33H311.3 M311.3,267.6h33H311.3
					 M447.5,292v-35.5h-81.1V292H447.5 M377.8,281.6h57.4H377.8 M377.8,274.6h57.4H377.8 M377.8,267.6h57.4H377.8 M345.6,168.6v9.8
					h101.9v-9.8H345.6 M326.3,192.8v-24.6h-26.1v24.6H326.3z"/>
			</g>
		</g>
		<g>
			<path id="Layer4_0_1_STROKES" fill="none" stroke="#000000" stroke-miterlimit="10" d="M300.1,168.1h26.1v24.6h-26.1V168.1z
				 M345.6,168.6h101.9v9.8H345.6V168.6z M345.5,192.7h102.8 M366.4,256.5h81.1V292h-81.1V256.5z M299.9,256.5h56.8V292h-56.8V256.5
				z M377.8,281.6h57.4 M377.8,274.6h57.4 M377.8,267.6h57.4 M299.5,202.8v7.8 M299.5,237.9v7.8 M299.5,220.4v7.8 M317.5,245.8
				h130.8 M317.5,228.1h130.8 M317.5,210.6h130.8 M311.3,281.6h33 M311.3,274.6h33 M311.3,267.6h33"/>
		</g>
	</g>
</g>
<g id="connectors">
	<g transform="matrix( 1, 0, 0, 1, 0,0) ">
		<g>
			<g id="Layer3_0_FILL">
				<path fill="#FEFEFE" d="M232,92.2c-0.2,0-0.4,0-0.6,0.1c-0.2,0.1-0.4,0.2-0.6,0.4c-0.4,0.4-0.6,0.8-0.6,1.3c0,0.5,0.2,1,0.6,1.3
					c0.4,0.4,0.8,0.6,1.4,0.6c0.3,0,0.5,0,0.8-0.2c0.2-0.1,0.4-0.2,0.6-0.4c0.4-0.4,0.6-0.8,0.6-1.3c0,0,0-0.1,0-0.1
					c0-0.5-0.2-0.9-0.6-1.3c-0.4-0.4-0.8-0.6-1.3-0.6C232.1,92.2,232,92.2,232,92.2 M322.8,166.3c-0.6-0.6-1.2-0.9-2-0.9
					s-1.4,0.3-2,0.9c-0.5,0.6-0.8,1.2-0.8,2s0.3,1.4,0.8,2c0.6,0.5,1.2,0.8,2,0.8s1.4-0.3,2-0.8c0.6-0.6,0.9-1.2,0.9-2
					S323.3,166.8,322.8,166.3 M289,221.6c-0.8,0-1.4,0.3-2,0.8c-0.5,0.5-0.8,1.1-0.8,1.8c0,0,0,0.1,0,0.2c0,0.8,0.3,1.4,0.8,2
					c0.6,0.6,1.2,0.8,2,0.8c0.8,0,1.4-0.3,2-0.8c0.6-0.6,0.9-1.2,0.9-2c0-0.8-0.3-1.4-0.9-2C290.5,221.8,289.8,221.6,289,221.6
					 M450.5,266.6L450.5,266.6c0-0.8-0.3-1.5-0.8-2c-0.6-0.5-1.2-0.8-2-0.8c-0.8,0-1.5,0.3-2,0.8c-0.6,0.6-0.9,1.2-0.9,2
					c0,0.8,0.3,1.4,0.9,2c0.5,0.6,1.2,0.9,2,0.9c0.8,0,1.4-0.3,2-0.9C450.2,268,450.4,267.4,450.5,266.6z"/>
			</g>
		</g>
		<g>
			<path id="Layer3_0_1_STROKES" fill="none" stroke="#A3A3A3" stroke-miterlimit="10" d="M626.4,292.3c-19.9,0-37-7-51.1-21.1
				c-14.1-14.1-21.1-31.1-21.1-51s7-36.9,21.1-51c14.1-14.1,31.1-21.2,51.1-21.2c19.9,0,36.9,7.1,51,21.2
				c14.1,14.1,21.1,31.1,21.1,51 M450.5,266.6c0,0.7-0.3,1.4-0.8,2c-0.6,0.6-1.2,0.9-2,0.9c-0.8,0-1.5-0.3-2-0.9
				c-0.6-0.6-0.9-1.2-0.9-2c0-0.8,0.3-1.4,0.9-2c0.5-0.5,1.2-0.8,2-0.8c0.8,0,1.4,0.3,2,0.8C450.2,265.2,450.5,265.8,450.5,266.6
				L450.5,266.6h119 M234,94h78.4c2.3,0,4.3,0.8,5.9,2.4c1.6,1.6,2.5,3.6,2.5,6v63c0.8,0,1.4,0.3,2,0.9s0.9,1.2,0.9,2
				s-0.3,1.4-0.9,2c-0.6,0.5-1.2,0.8-2,0.8s-1.4-0.3-2-0.8c-0.5-0.6-0.8-1.2-0.8-2s0.3-1.4,0.8-2c0.6-0.6,1.2-0.9,2-0.9 M230.2,94.1
				c0,0.5,0.2,1,0.6,1.3c0.4,0.4,0.8,0.6,1.4,0.6c0.3,0,0.5,0,0.8-0.2c0.2-0.1,0.4-0.2,0.6-0.4c0.4-0.4,0.6-0.8,0.6-1.3
				c0,0,0-0.1,0-0.1c0-0.5-0.2-0.9-0.6-1.3c-0.4-0.4-0.8-0.6-1.3-0.6c0,0,0,0-0.1,0c-0.2,0-0.4,0-0.6,0.1c-0.2,0.1-0.5,0.2-0.7,0.4
				C230.4,93.1,230.2,93.6,230.2,94.1z M144.1,175.4c-15.6-8-26.2-20.4-31.6-37.2c-5.4-16.8-4.1-33,3.9-48.6
				c8-15.7,20.4-26.3,37.2-31.7s33-4.1,48.7,4c13.5,6.9,23.2,17,29.1,30.4 M232.9,95.8c0.4,1,0.8,2.1,1.1,3.2
				c5.4,16.8,4.1,33-3.9,48.6 M114.4,238.2c18.5-6,36.4-4.5,53.8,4.4c17.3,8.9,28.9,22.6,34.9,41.1c6,18.5,4.5,36.4-4.4,53.8
				c-8.8,17.3-22.5,29-41.1,34.9c-18.5,6-36.5,4.5-53.8-4.4c-17.3-8.9-29-22.6-35-41.1 M286.3,224.2c0-0.7,0.3-1.3,0.8-1.8
				c0.6-0.5,1.2-0.8,2-0.8c0.8,0,1.4,0.3,2,0.8c0.6,0.6,0.9,1.2,0.9,2c0,0.8-0.3,1.4-0.9,2c-0.6,0.6-1.2,0.8-2,0.8
				c-0.8,0-1.4-0.3-2-0.8c-0.5-0.6-0.8-1.2-0.8-2C286.3,224.3,286.3,224.2,286.3,224.2h-44.4c-2.3,0-4.3,0.8-5.9,2.4s-2.4,3.6-2.4,6
				v46.6c0,2.3-0.8,4.3-2.4,5.9c-1.6,1.6-3.6,2.5-5.9,2.5h-19.7"/>
		</g>
	</g>
	<g transform="matrix( 1.36749267578125, 0, 0, 1.36749267578125, -466.7,-245.6) ">
		<g>
			<g id="Layer3_1_FILL">
				<path fill="#BAD727" d="M483.4,389.1c-3.8-11.8-11.2-20.5-22.2-26.1c-11-5.6-22.4-6.6-34.2-2.8c-11.8,3.8-20.5,11.2-26.1,22.2
					c-5.6,11-6.5,22.4-2.8,34.2s11.2,20.5,22.2,26.1c11,5.6,22.4,6.6,34.2,2.8c11.8-3.8,20.5-11.2,26.1-22.2
					C486.3,412.3,487.2,400.9,483.4,389.1z"/>
			</g>
		</g>
	</g>
	<g transform="matrix( 1.6399383544921875, 0, 0, 1.6399383544921875, -893.85,-562.65) ">
		<g>
			<g id="Layer3_2_FILL">
				<path fill="#F7571A" d="M966,477.4c0-10.7-3.8-19.8-11.3-27.4c-7.6-7.6-16.7-11.4-27.4-11.4c-10.7,0-19.8,3.8-27.3,11.4
					c-7.5,7.5-11.3,16.6-11.3,27.4c0,10.7,3.8,19.8,11.3,27.4c7.6,7.5,16.7,11.3,27.3,11.3c10.7,0,19.8-3.8,27.4-11.3
					C962.2,497.1,966,488,966,477.4z"/>
			</g>
		</g>
	</g>
	<g transform="matrix( 1, 0, 0, 1, -582.85,-151.6) ">
		<g>
			<g id="Layer3_3_FILL">
				<path fill="#2C538A" d="M809.6,252.9c-4.7-14.7-14-25.6-27.8-32.6c-13.8-7.1-28-8.2-42.7-3.5c-14.7,4.8-25.6,14-32.7,27.8
					c-7,13.8-8.2,28-3.5,42.7c4.7,14.7,14,25.6,27.8,32.6c13.8,7.1,28,8.2,42.7,3.5c14.7-4.7,25.6-14,32.6-27.8
					C813.1,281.9,814.3,267.6,809.6,252.9z"/>
			</g>
		</g>
	</g>
	<g transform="matrix( 1, 0, 0, 1, -280.1,-142.85) ">
		<g>
			<g id="Layer3_4_FILL">
				<path fill="#FEFEFE" d="M485.9,430.3c0-0.4-0.1-0.7-0.4-1c-0.3-0.3-0.6-0.4-1-0.4c-0.4,0-0.8,0.1-1.1,0.4
					c-0.3,0.3-0.4,0.6-0.4,1c0,0.4,0.1,0.8,0.4,1.1c0.3,0.3,0.6,0.4,1.1,0.4c0.4,0,0.7-0.1,1-0.4
					C485.8,431.1,485.9,430.7,485.9,430.3z"/>
			</g>
		</g>
	</g>
	<g transform="matrix( 1, 0, 0, 1, -280.1,-142.85) ">
		<g>
			<path id="Layer3_5_1_STROKES" fill="none" stroke="#A3A3A3" stroke-miterlimit="10" d="M485.9,430.3c0,0.4-0.1,0.8-0.4,1.1
				c-0.3,0.3-0.6,0.4-1,0.4c-0.4,0-0.8-0.1-1.1-0.4c-0.3-0.3-0.4-0.6-0.4-1.1c0-0.4,0.1-0.7,0.4-1c0.3-0.3,0.6-0.4,1.1-0.4
				c0.4,0,0.7,0.1,1,0.4C485.8,429.6,485.9,429.9,485.9,430.3z"/>
		</g>
	</g>
	<g transform="matrix( 1, 0, 0, 1, -308.55,-207.6) ">
		<g>
			<g id="Layer3_6_FILL">
				<path fill="#FEFEFE" d="M881.4,474.4c0-0.5-0.2-1-0.6-1.4c-0.4-0.4-0.8-0.6-1.4-0.6c-0.5,0-1,0.2-1.4,0.6s-0.6,0.9-0.6,1.4
					c0,0.6,0.2,1,0.6,1.5c0.4,0.4,0.8,0.6,1.4,0.6c0.6,0,1-0.2,1.4-0.6C881.2,475.4,881.4,475,881.4,474.4z"/>
			</g>
		</g>
	</g>
	<g transform="matrix( 1, 0, 0, 1, -308.55,-207.6) ">
		<g>
			<path id="Layer3_7_1_STROKES" fill="none" stroke="#A3A3A3" stroke-miterlimit="10" d="M881.4,474.4c0,0.6-0.2,1-0.6,1.5
				c-0.4,0.4-0.8,0.6-1.4,0.6c-0.6,0-1-0.2-1.4-0.6c-0.4-0.4-0.6-0.9-0.6-1.5c0-0.5,0.2-1,0.6-1.4s0.9-0.6,1.4-0.6
				c0.6,0,1,0.2,1.4,0.6C881.2,473.4,881.4,473.9,881.4,474.4z"/>
		</g>
	</g>
</g>
<g id="icons">
	<g transform="matrix( 1, 0, 0, 1, 0,0) ">
		<g>
			<g id="Layer2_0_FILL">
				<path fill="#FFFFFF" d="M597.5,249.1c0-0.5-0.2-1-0.5-1.3c-0.4-0.4-0.8-0.6-1.4-0.6s-1,0.2-1.3,0.6c-0.4,0.4-0.5,0.8-0.5,1.3
					s0.2,1,0.5,1.4c0.4,0.4,0.8,0.6,1.3,0.6s1-0.2,1.4-0.6C597.3,250.1,597.5,249.7,597.5,249.1 M596.9,239.6
					c-0.4-0.4-0.8-0.6-1.4-0.6s-1,0.2-1.3,0.6c-0.4,0.4-0.5,0.8-0.5,1.3s0.2,1,0.5,1.4c0.4,0.4,0.8,0.6,1.3,0.6s1-0.2,1.4-0.6
					c0.4-0.4,0.5-0.8,0.5-1.4S597.3,239.9,596.9,239.6 M596.9,231.6c-0.4-0.4-0.8-0.6-1.4-0.6s-1,0.2-1.3,0.6
					c-0.4,0.4-0.5,0.8-0.5,1.3s0.2,1,0.5,1.4c0.4,0.4,0.8,0.6,1.3,0.6s1-0.2,1.4-0.6c0.4-0.4,0.5-0.8,0.5-1.4
					S597.3,231.9,596.9,231.6 M596.9,223.6c-0.4-0.4-0.8-0.6-1.4-0.6s-1,0.2-1.3,0.6c-0.4,0.4-0.5,0.8-0.5,1.3s0.2,1,0.5,1.4
					c0.4,0.4,0.8,0.6,1.3,0.6s1-0.2,1.4-0.6c0.4-0.4,0.5-0.8,0.5-1.4S597.3,223.9,596.9,223.6 M596.9,215.6
					c-0.4-0.4-0.8-0.6-1.4-0.6s-1,0.2-1.3,0.6c-0.4,0.4-0.5,0.8-0.5,1.3s0.2,1,0.5,1.4c0.4,0.4,0.8,0.6,1.3,0.6s1-0.2,1.4-0.6
					c0.4-0.4,0.5-0.8,0.5-1.4S597.3,215.9,596.9,215.6 M596.9,207.6c-0.4-0.4-0.8-0.6-1.4-0.6s-1,0.2-1.3,0.6
					c-0.4,0.4-0.5,0.8-0.5,1.3s0.2,1,0.5,1.4c0.4,0.4,0.8,0.6,1.3,0.6s1-0.2,1.4-0.6c0.4-0.4,0.5-0.8,0.5-1.4
					S597.3,207.9,596.9,207.6 M595.5,202.8c0.5,0,1-0.2,1.4-0.6c0.4-0.4,0.5-0.8,0.5-1.4s-0.2-1-0.5-1.3c-0.4-0.4-0.8-0.6-1.4-0.6
					s-1,0.2-1.3,0.6c-0.4,0.4-0.5,0.8-0.5,1.3s0.2,1,0.5,1.4C594.6,202.6,595,202.8,595.5,202.8 M597.5,192.9c0-0.5-0.2-1-0.5-1.3
					c-0.4-0.4-0.8-0.6-1.4-0.6s-1,0.2-1.3,0.6c-0.4,0.4-0.5,0.8-0.5,1.3s0.2,1,0.5,1.4c0.4,0.4,0.8,0.6,1.3,0.6s1-0.2,1.4-0.6
					C597.3,193.9,597.5,193.4,597.5,192.9z"/>
			</g>
		</g>
		<g>
			<path id="Layer2_0_1_STROKES" fill="none" stroke="#FFFFFF" stroke-linejoin="round" d="M187.8,100.4l-1.4,0.2
				c-2.5,0.5-4.7,0.3-6.5-0.7c-1.8-1-3.4-2.7-4.8-5.2c-0.8,1.6-2.4,3-4.7,4.2c-2.3,1.1-4.6,1.7-6.8,1.7c-2.1,0-4.1-0.5-5.9-1.4
				c-0.1,1-0.1,1.9-0.1,2.9c0,5,1.5,9.3,4.4,12.8c1,1.2,2,2.2,3.1,3c2.2,1.6,4.7,2.3,7.5,2.3c2.8,0,5.3-0.8,7.6-2.3
				c1.1-0.8,2.2-1.8,3.1-3c2.9-3.6,4.4-7.8,4.4-12.8C187.8,101.5,187.8,101,187.8,100.4c-0.3-4.3-1.8-8-4.4-11.2
				c-3-3.5-6.5-5.3-10.7-5.3c-4.2,0-7.7,1.8-10.6,5.3c-2.4,2.8-3.8,6.1-4.3,9.9 M165.2,117.9v8.3l-15.2,5.4
				c-1.8,0.7-3.2,1.8-4.3,3.4c-1.1,1.6-1.7,3.3-1.7,5.1v5.8h57.5v-5.8c0-1.9-0.6-3.6-1.7-5.1c-1.1-1.6-2.6-2.7-4.4-3.4l-15.1-5.4
				v-8.3"/>
		</g>
		<g>
			<path id="Layer2_0_2_STROKES" fill="none" stroke="#FFFFFF" stroke-linecap="round" stroke-linejoin="round" d="M604.7,232.7
				h42.7 M604.7,200.6h42.7 M604.7,216.7H666 M604.7,248.7H666 M604.7,240.6h50.8 M604.7,224.8h50.8 M604.7,192.7H658 M604.7,208.7
				h48.1"/>
		</g>
		<g>
			<path id="Layer2_0_3_STROKES" fill="none" stroke="#3A6FBB" stroke-linecap="round" stroke-linejoin="round" d="M141.6,346.9
				v-40.6l-24.5-24.5l5.5-5.6l-19.5,1l-0.9,19.5l5.5-5.6l20.7,20.7v35.1 M138.5,296l14.4-14.3l-5.6-5.6l19.6,1l0.9,19.5l-5.6-5.6
				l-14.3,14.4"/>
		</g>
	</g>
</g>
<g id="check">
	<g transform="matrix( 1, 0, 0, 1, 0,0) ">
		<g>
			<g id="Layer1_0_FILL">
				<path fill="#FFFFFF" d="M473.5,282.5c-7.2,0-13.4,2.5-18.5,7.6c-5.1,5.1-7.7,11.3-7.7,18.5c0,7.2,2.6,13.4,7.7,18.5
					c5.1,5.1,11.3,7.6,18.5,7.6s13.4-2.6,18.5-7.6c5.1-5.1,7.6-11.3,7.6-18.5s-2.5-13.4-7.6-18.5C486.9,285,480.7,282.5,473.5,282.5
					 M458.5,312.4l4.9-4.9l5.1,5.1l17.3-17.2l4.9,4.8l-22.1,22.1v0l-4.9-4.9l-1.4-1.4L458.5,312.4 M463.6,317.5L463.6,317.5
					l-1.4-1.4L463.6,317.5 M463.6,317.5L463.6,317.5l4.9,4.9v0L463.6,317.5z"/>
				<path fill="#BAD727" d="M463.4,307.5l-4.9,4.9l3.8,3.8l1.4,1.4l4.9,4.9l22.1-22.1l-4.9-4.8l-17.3,17.2L463.4,307.5z"/>
			</g>
		</g>
		<g>
			<path id="Layer1_0_1_STROKES" fill="none" stroke="#000000" stroke-linecap="round" stroke-linejoin="round" d="M499.6,308.6
				c0,7.2-2.5,13.4-7.6,18.5c-5.1,5.1-11.3,7.6-18.5,7.6s-13.4-2.6-18.5-7.6c-5.1-5.1-7.7-11.3-7.7-18.5c0-7.2,2.6-13.4,7.7-18.5
				c5.1-5.1,11.3-7.6,18.5-7.6s13.4,2.5,18.5,7.6C497.1,295.2,499.6,301.4,499.6,308.6z M468.5,322.4l22.1-22.1l-4.9-4.8l-17.2,17.2
				l-5.2-5.2l-4.9,4.9l3.8,3.8l1.4,1.4L468.5,322.4L468.5,322.4l-4.9-4.8l-1.4-1.4 M463.7,317.5L463.7,317.5"/>
		</g>
	</g>
</g>
</svg>
