<?xml version="1.0" encoding="utf-8"?>
<!-- Generator: Adobe Illustrator 23.0.1, SVG Export Plug-In . SVG Version: 6.00 Build 0)  -->
<svg version="1.1" id="Layer_211" xmlns="http://www.w3.org/2000/svg" xmlns:xlink="http://www.w3.org/1999/xlink" x="0px" y="0px"
	 viewBox="0 0 750 400" enable-background="new 0 0 750 400" xml:space="preserve">
<g id="clouds_bits">
	<g transform="matrix( 1, 0, 0, 1, -358,-481) ">
		<g>
			<g id="Layer4_2_FILL">
				<path fill="#BAD727" d="M458.9,578c0-0.5-0.2-1-0.6-1.3c-0.4-0.4-0.8-0.6-1.3-0.6c-0.5,0-1,0.2-1.4,0.6
					c-0.4,0.4-0.6,0.8-0.6,1.3s0.2,1,0.6,1.4c0.4,0.4,0.8,0.5,1.4,0.5c0.5,0,1-0.2,1.3-0.5C458.7,579,458.9,578.5,458.9,578z"/>
			</g>
		</g>
	</g>
	<g transform="matrix( 1, 0, 0, 1, -640.8,-123.15) ">
		<g>
			<g id="Layer4_3_FILL">
				<path fill="#BAD727" d="M851.7,428.8c0-0.5-0.2-1-0.6-1.3c-0.4-0.4-0.8-0.6-1.3-0.6s-1,0.2-1.4,0.6c-0.4,0.4-0.5,0.8-0.5,1.3
					c0,0.5,0.2,1,0.5,1.4c0.4,0.4,0.8,0.6,1.4,0.6c0.5,0,1-0.2,1.3-0.6C851.5,429.8,851.7,429.3,851.7,428.8z"/>
			</g>
		</g>
	</g>
	<g transform="matrix( 1, 0, 0, 1, -55.9,-230.85) ">
		<g>
			<g id="Layer4_4_FILL">
				<path fill="#F7571A" d="M598,321.3c0-0.5-0.2-1-0.6-1.3c-0.4-0.4-0.8-0.6-1.4-0.6s-1,0.2-1.3,0.6c-0.4,0.4-0.5,0.8-0.5,1.3
					c0,0.5,0.2,1,0.5,1.4c0.4,0.4,0.8,0.6,1.3,0.6s1-0.2,1.4-0.6C597.8,322.3,598,321.8,598,321.3z"/>
			</g>
		</g>
	</g>
	<g transform="matrix( 1, 0, 0, 1, -128,-286.15) ">
		<g>
			<g id="Layer4_5_FILL">
				<path fill="#F7571A" d="M520.9,449.9c0-0.5-0.2-1-0.6-1.4c-0.4-0.4-0.8-0.5-1.3-0.5s-1,0.2-1.4,0.5c-0.4,0.4-0.5,0.8-0.5,1.4
					c0,0.5,0.2,1,0.5,1.4c0.4,0.4,0.8,0.6,1.4,0.6s1-0.2,1.3-0.6C520.7,450.9,520.9,450.4,520.9,449.9z"/>
			</g>
		</g>
	</g>
	<g transform="matrix( 1, 0, 0, 1, -192.25,-185.95) ">
		<g>
			<g id="Layer4_6_FILL">
				<path fill="#DEDEDE" d="M454,529.6c0-1.1-0.4-2-1.1-2.8c-0.8-0.7-1.7-1.1-2.8-1.1c-1.1,0-2,0.4-2.7,1.1
					c-0.7,0.8-1.1,1.7-1.1,2.8c0,1.1,0.4,2,1.1,2.7c0.8,0.7,1.7,1.1,2.7,1.1c1.1,0,2-0.4,2.8-1.1C453.6,531.6,454,530.7,454,529.6z"
					/>
			</g>
		</g>
	</g>
	<g transform="matrix( 1, 0, 0, 1, -404.5,-261.05) ">
		<g>
			<g id="Layer4_7_FILL">
				<path fill="#DEDEDE" d="M848.8,493.6c-0.4-0.4-0.8-0.5-1.4-0.5c-0.5,0-1,0.2-1.4,0.5c-0.4,0.4-0.5,0.9-0.5,1.4
					c0,0.5,0.2,1,0.5,1.4c0.4,0.4,0.8,0.6,1.4,0.6c0.5,0,1-0.2,1.4-0.6c0.4-0.4,0.6-0.8,0.6-1.4
					C849.4,494.5,849.2,494.1,848.8,493.6z"/>
			</g>
		</g>
	</g>
	<g transform="matrix( 1, 0, 0, 1, -276.2,-256.8) ">
		<g>
			<g id="Layer4_8_FILL">
				<path fill="#D1D1D1" d="M844.5,583.7c0-1.1-0.4-2-1.1-2.7c-0.8-0.7-1.7-1.1-2.8-1.1c-1.1,0-2,0.4-2.7,1.1
					c-0.8,0.8-1.2,1.7-1.2,2.7c0,1.1,0.4,2,1.2,2.8c0.7,0.7,1.6,1.1,2.7,1.1c1.1,0,2-0.4,2.8-1.1
					C844.1,585.7,844.5,584.8,844.5,583.7z"/>
			</g>
		</g>
	</g>
	<g transform="matrix( 1, 0, 0, 1, -602.5,-241.75) ">
		<g>
			<path id="Layer4_9_1_STROKES" fill="none" stroke="#BFBFBF" stroke-width="2" stroke-miterlimit="10" d="M855,350.9
				c0,0.9-0.3,1.7-1,2.3c-0.6,0.6-1.4,1-2.3,1c-0.9,0-1.7-0.3-2.3-1c-0.6-0.6-1-1.4-1-2.3c0-0.9,0.3-1.6,1-2.3c0.6-0.6,1.4-1,2.3-1
				c0.9,0,1.6,0.3,2.3,1C854.7,349.2,855,350,855,350.9z"/>
		</g>
	</g>
	<g transform="matrix( 1, 0, 0, 1, -589.9,-282.8) ">
		<g>
			<path id="Layer4_10_1_STROKES" fill="none" stroke="#BFBFBF" stroke-width="2" stroke-miterlimit="10" d="M678.5,551.5
				c0,0.9-0.3,1.7-1,2.3s-1.4,1-2.3,1c-0.9,0-1.7-0.3-2.3-1c-0.6-0.6-1-1.4-1-2.3s0.3-1.7,1-2.3c0.6-0.6,1.4-1,2.3-1
				c0.9,0,1.6,0.3,2.3,1C678.1,549.8,678.5,550.5,678.5,551.5z"/>
		</g>
	</g>
	<g transform="matrix( 1, 0, 0, 1, -287.6,-198.6) ">
		<g>
			<path id="Layer4_11_1_STROKES" fill="none" stroke="#BFBFBF" stroke-width="2" stroke-miterlimit="10" d="M619.5,264.3
				c0,0.9-0.3,1.7-1,2.3c-0.6,0.6-1.4,0.9-2.3,0.9c-0.9,0-1.6-0.3-2.3-0.9c-0.6-0.6-1-1.4-1-2.3c0-0.9,0.3-1.6,1-2.3
				c0.6-0.6,1.4-0.9,2.3-0.9c0.9,0,1.7,0.3,2.3,0.9S619.5,263.4,619.5,264.3z"/>
		</g>
	</g>
	<g transform="matrix( 1, 0, 0, 1, -303.7,-232.2) ">
		<g>
			<g id="Layer4_12_MEMBER_0_FILL">
				<path fill="#83C4EC" d="M506.5,271.5h7c0.3,0,0.5-0.1,0.7-0.3c0.2-0.2,0.3-0.4,0.3-0.7c0-0.3-0.1-0.5-0.3-0.7
					c-0.2-0.2-0.4-0.3-0.7-0.3h-7c-0.6,0-0.9,0.3-0.9,0.9c0,0.3,0.1,0.5,0.3,0.7C506.1,271.4,506.3,271.5,506.5,271.5z"/>
			</g>
		</g>
	</g>
	<g transform="matrix( 1, 0, 0, 1, -303.7,-232.2) ">
		<g>
			<g id="Layer4_12_MEMBER_1_FILL">
				<path fill="#83C4EC" d="M509.4,266.4c-0.2,0.2-0.3,0.4-0.3,0.6v7c0,0.3,0.1,0.5,0.3,0.7c0.2,0.2,0.4,0.3,0.6,0.3
					c0.6,0,1-0.3,1-1v-7c0-0.3-0.1-0.5-0.3-0.6c-0.2-0.2-0.4-0.3-0.7-0.3C509.8,266,509.6,266.1,509.4,266.4z"/>
			</g>
		</g>
	</g>
	<g transform="matrix( 1, 0, 0, 1, -444.6,-348.6) ">
		<g>
			<g id="Layer4_13_MEMBER_0_FILL">
				<path fill="#83C4EC" d="M909.2,384.4c0.2,0.2,0.4,0.3,0.6,0.3h7.1c0.3,0,0.5-0.1,0.7-0.3c0.2-0.2,0.2-0.4,0.3-0.6
					c0-0.6-0.3-1-0.9-1h-7.1c-0.3,0-0.5,0.1-0.6,0.3c-0.2,0.2-0.3,0.4-0.3,0.7C908.9,384,909,384.2,909.2,384.4z"/>
			</g>
		</g>
	</g>
	<g transform="matrix( 1, 0, 0, 1, -444.6,-348.6) ">
		<g>
			<g id="Layer4_13_MEMBER_1_FILL">
				<path fill="#83C4EC" d="M914.3,380.1c0-0.2-0.1-0.5-0.3-0.6c-0.2-0.2-0.4-0.3-0.6-0.3c-0.3,0-0.5,0.1-0.7,0.3
					c-0.2,0.2-0.3,0.4-0.3,0.6v7.1c0,0.3,0.1,0.5,0.3,0.7c0.2,0.2,0.4,0.3,0.7,0.3c0.3,0,0.5-0.1,0.6-0.3c0.2-0.2,0.3-0.4,0.3-0.7
					V380.1z"/>
			</g>
		</g>
	</g>
	<g transform="matrix( 1, 0, 0, 1, -266.95,-231.25) ">
		<g>
			<g id="Layer4_14_MEMBER_0_FILL">
				<path fill="#83C4EC" d="M399.5,556.6c-0.3,0-0.5,0.1-0.7,0.3c-0.2,0.2-0.3,0.4-0.3,0.7c0,0.3,0.1,0.5,0.3,0.7
					c0.2,0.2,0.4,0.3,0.7,0.3h7c0.3,0,0.5-0.1,0.7-0.3c0.2-0.2,0.3-0.4,0.3-0.7c0-0.6-0.3-1-1-1H399.5z"/>
			</g>
		</g>
	</g>
	<g transform="matrix( 1, 0, 0, 1, -266.95,-231.25) ">
		<g>
			<g id="Layer4_14_MEMBER_1_FILL">
				<path fill="#83C4EC" d="M404,554c0-0.2-0.1-0.5-0.3-0.7c-0.2-0.2-0.4-0.3-0.6-0.3s-0.5,0.1-0.7,0.3c-0.2,0.2-0.3,0.4-0.3,0.7v7
					c0,0.3,0.1,0.5,0.3,0.7c0.2,0.2,0.4,0.3,0.7,0.3s0.5-0.1,0.6-0.3c0.2-0.2,0.3-0.4,0.3-0.7V554z"/>
			</g>
		</g>
	</g>
	<g transform="matrix( 1, 0, 0, 1, -273.1,-369.85) ">
		<g>
			<g id="Layer4_15_MEMBER_0_FILL">
				<path fill="#83C4EC" d="M584.3,587c0.2,0.2,0.4,0.3,0.7,0.3h7c0.3,0,0.5-0.1,0.7-0.3c0.2-0.2,0.3-0.4,0.3-0.7s-0.1-0.5-0.3-0.6
					c-0.2-0.2-0.4-0.3-0.7-0.3h-7c-0.3,0-0.5,0.1-0.7,0.3c-0.2,0.2-0.3,0.4-0.3,0.6S584.1,586.9,584.3,587z"/>
			</g>
		</g>
	</g>
	<g transform="matrix( 1, 0, 0, 1, -273.1,-369.85) ">
		<g>
			<g id="Layer4_15_MEMBER_1_FILL">
				<path fill="#83C4EC" d="M588.5,590.8c0.3,0,0.5-0.1,0.7-0.3c0.2-0.2,0.3-0.4,0.3-0.6v-7.1c0-0.6-0.3-0.9-1-0.9
					c-0.6,0-1,0.3-1,0.9v7.1c0,0.3,0.1,0.5,0.3,0.6C588,590.8,588.3,590.8,588.5,590.8z"/>
			</g>
		</g>
	</g>
	<g transform="matrix( 1, 0, 0, 1, -267.5,-225.95) ">
		<g>
			<g id="Layer4_16_MEMBER_0_FILL">
				<path fill="#83C4EC" d="M745,571.2c0.3,0,0.5-0.1,0.6-0.3c0.2-0.2,0.3-0.4,0.3-0.7c0-0.2-0.1-0.5-0.3-0.7
					c-0.2-0.2-0.4-0.3-0.6-0.3h-7c-0.3,0-0.5,0.1-0.7,0.3c-0.2,0.2-0.3,0.4-0.3,0.7c0,0.3,0.1,0.5,0.3,0.7c0.2,0.2,0.4,0.3,0.7,0.3
					H745z"/>
			</g>
		</g>
	</g>
	<g transform="matrix( 1, 0, 0, 1, -267.5,-225.95) ">
		<g>
			<g id="Layer4_16_MEMBER_1_FILL">
				<path fill="#83C4EC" d="M740.8,566c-0.2,0.2-0.3,0.4-0.3,0.7v7c0,0.3,0.1,0.5,0.3,0.7c0.2,0.2,0.4,0.3,0.7,0.3
					c0.3,0,0.5-0.1,0.7-0.3c0.2-0.2,0.3-0.4,0.3-0.7v-7c0-0.3-0.1-0.5-0.3-0.7c-0.2-0.2-0.4-0.3-0.7-0.3
					C741.1,565.8,740.9,565.8,740.8,566z"/>
			</g>
		</g>
	</g>
	<g transform="matrix( 1, 0, 0, 1, -126,-171.85) ">
		<g>
			<g id="Layer4_17_FILL">
				<path fill="#BFBFBF" d="M521,492.2h-6l-3,5.2l3,5.2h6l3-5.2L521,492.2 M515.8,493.6h4.4l2.2,3.8l-2.2,3.8h-4.4l-2.2-3.8
					L515.8,493.6z"/>
			</g>
		</g>
	</g>
	<g transform="matrix( 1, 0, 0, 1, -199.7,-74.15) ">
		<g>
			<g id="Layer4_18_FILL">
				<path fill="#BFBFBF" d="M845.3,287.1l-3,5.2l3,5.2h6l3-5.2l-3-5.2H845.3 M846.2,296.1l-2.2-3.8l2.2-3.8h4.3l2.2,3.8l-2.2,3.8
					H846.2z"/>
			</g>
		</g>
	</g>
	<g transform="matrix( 1, 0, 0, 1, -202.95,-408.4) ">
		<g>
			<g id="Layer4_20_FILL">
				<path fill="#DEDEDE" d="M848.8,493.6c-0.4-0.4-0.8-0.5-1.4-0.5c-0.5,0-1,0.2-1.4,0.5c-0.4,0.4-0.5,0.9-0.5,1.4
					c0,0.5,0.2,1,0.5,1.4c0.4,0.4,0.8,0.6,1.4,0.6c0.5,0,1-0.2,1.4-0.6c0.4-0.4,0.6-0.8,0.6-1.4
					C849.4,494.5,849.2,494.1,848.8,493.6z"/>
			</g>
		</g>
	</g>
	<g transform="matrix( 1, 0, 0, 1, 337.2,55) " opacity="0.17">
		<g transform="matrix( 1, 0, 0, 1, 0,0) ">
			<g>
				<g id="flash0_ai_Layer_s__Path__0_Layer0_0_FILL_1_">
					<path fill="#3D3D3D" d="M141.1,79c-0.2-11.4-4.1-21.1-11.7-29.1c-7.5-8.1-16.5-12.1-27-12.1c-6,0-11.7,1.4-17.1,4.3
						c-5.2,2.8-9.6,6.6-13.2,11.5c-1.4-2.9-3.5-5.3-6.1-7.1c-2.7-1.8-5.7-2.7-8.8-2.7c-4,0-7.5,1.3-10.6,4c-3,2.6-5,6-6,10.1
						c-2.7-1.2-5.4-1.8-8.2-1.8c-4.3,0-8.3,1.3-12,3.9c-2.5-2.7-5.4-4.8-8.6-6.3c-3.4-1.5-6.9-2.3-10.6-2.3
						c-5.7,0-10.8,1.7-15.5,5.3c-4.5,3.4-7.8,7.9-9.8,13.4c-1.2-1.4-2.6-2.5-4.3-3.3c-1.7-0.8-3.5-1.2-5.3-1.2c-3.5,0-6.5,1.3-9,3.9
						s-3.9,5.7-4.2,9.5C-46.9,79,141.1,79,141.1,79z"/>
				</g>
			</g>
		</g>
	</g>
	<g transform="matrix( 1, 0, 0, 1, 337.2,55) " opacity="0.17">
		<g transform="matrix( 1, 0, 0, 1, 0,0) ">
			<g>
				<g id="flash0_ai_Layer_f__Path__0_Layer0_0_FILL_2_">
					<path fill="#3D3D3D" d="M82.6,221.7c-0.2-2.6-1.3-4.7-3.2-6.5c-1.9-1.8-4.2-2.7-6.9-2.7c-1.4,0-2.7,0.3-4,0.8
						c-1.3,0.5-2.4,1.3-3.3,2.3c-1.5-3.8-4-6.8-7.5-9.2c-3.6-2.5-7.5-3.6-11.8-3.6c-2.8,0-5.5,0.5-8.1,1.6c-2.4,1-4.7,2.5-6.6,4.3
						c-2.8-1.8-5.9-2.7-9.2-2.7c-2.1,0-4.2,0.4-6.3,1.2c-0.8-2.8-2.3-5.1-4.6-6.9c-2.4-1.8-5-2.7-8.1-2.7c-2.4,0-4.7,0.6-6.7,1.8
						c-2,1.2-3.6,2.9-4.7,4.9c-2.7-3.4-6.1-6-10.1-7.9c-4.1-2-8.5-2.9-13.1-2.9c-8,0-14.9,2.7-20.6,8.3c-5.8,5.5-8.8,12.1-8.9,19.9
						C-61,221.7,82.6,221.7,82.6,221.7z"/>
				</g>
			</g>
		</g>
	</g>
	<g transform="matrix( 1, 0, 0, 1, 337.2,55) " opacity="0.17">
		<g transform="matrix( 1, 0, 0, 1, 0,0) ">
			<g>
				<g id="flash0_ai_Layer_g__Path__0_Layer0_0_FILL_3_">
					<path fill="#3D3D3D" d="M369.1,271.3c-0.1-1.5-0.8-2.8-1.9-3.8c-1.1-1.1-2.5-1.6-4.1-1.6c-0.8,0-1.6,0.2-2.4,0.5
						s-1.4,0.8-1.9,1.3c-0.9-2.2-2.4-4-4.4-5.4c-2.1-1.5-4.4-2.1-7-2.1c-1.7,0-3.2,0.3-4.8,0.9c-1.4,0.6-2.8,1.5-3.9,2.5
						c-1.7-1.1-3.5-1.6-5.4-1.6c-1.3,0-2.5,0.2-3.7,0.7c-0.5-1.7-1.4-3-2.7-4.1c-1.4-1.1-3-1.6-4.8-1.6c-1.4,0-2.8,0.4-4,1.1
						c-1.2,0.7-2.1,1.7-2.8,2.9c-1.6-2-3.6-3.5-6-4.7c-2.4-1.2-5-1.7-7.7-1.7c-4.7,0-8.8,1.6-12.2,4.9c-3.4,3.2-5.2,7.2-5.3,11.8
						C284.3,271.3,369,271.3,369.1,271.3z"/>
				</g>
			</g>
		</g>
	</g>
	<g transform="matrix( 1, 0, 0, 1, 337.2,55) " opacity="0.17">
		<g transform="matrix( 1, 0, 0, 1, 0,0) ">
			<g>
				<g id="flash0_ai_Layer_l__Path__0_Layer0_0_FILL_4_">
					<path fill="#3D3D3D" d="M-179.6,21.3c-0.1-3.9-1.6-7.2-4.5-10c-2.9-2.8-6.3-4.1-10.3-4.1c-2.3,0-4.5,0.5-6.5,1.5
						c-2,1-3.7,2.3-5,3.9c-0.5-1-1.3-1.8-2.3-2.4c-1-0.6-2.2-0.9-3.4-0.9c-1.5,0-2.9,0.4-4.1,1.4c-1.1,0.9-1.9,2.1-2.3,3.5
						c-1-0.4-2.1-0.6-3.1-0.6c-1.6,0-3.2,0.4-4.6,1.3c-1-0.9-2.1-1.6-3.3-2.2c-1.3-0.5-2.6-0.8-4.1-0.8c-2.2,0-4.1,0.6-5.9,1.8
						c-1.7,1.2-3,2.7-3.7,4.6c-0.5-0.5-1-0.9-1.6-1.1s-1.3-0.4-2-0.4c-1.3,0-2.5,0.4-3.4,1.3c-1,0.9-1.5,2-1.6,3.3
						C-251.4,21.3-179.6,21.3-179.6,21.3z"/>
				</g>
			</g>
		</g>
	</g>
</g>
<g id="doc">
	<g transform="matrix( 1, 0, 0, 1, 0,0) ">
		<g>
			<g id="Layer3_0_FILL">
				<path fill="#595959" d="M529.2,241.8l5.2-2.3l-7.5-7.5l-4.2,9.8l-1.5,3.4L529.2,241.8z"/>
				<path fill="#FFFFFF" d="M535,213l-2.3,5.2l-5,11.8l-0.8,2.1l7.5,7.5l19.2-8.2L535,213 M495.5,156.1v22.2h-22.2v114.6h123.8v-105
					l-30.3,30.3h8.7h-8.7L555,230h20.5H555l-1.4,1.4l-19.2,8.2l-5.2,2.3h46.2h-46.2l-8,3.4l1.5-3.4h-25.3h25.3l4.2-9.8l0.8-2.1
					h-30.4h30.4l5-11.8h-35.4h35.4l2.3-5.2l6.6-6.6h-44.3h44.3l11.8-11.8h-56.1h56.1l38.5-38.6H495.5 M497.4,265.4H522H497.4
					 M497.4,253.6h58.4H497.4z"/>
				<path fill="#CACACA" d="M611.3,173.8l11.9-11.9l-18.4-18.5l-12,12L611.3,173.8 M495.5,178.3v-22.2l-22.2,22.2H495.5z"/>
				<path fill="#F7571A" d="M592.8,155.4l-0.8,0.7l-38.5,38.6l-11.8,11.8L535,213l18.5,18.4l1.4-1.4l11.8-11.8l30.3-30.3l14.2-14.1
					L592.8,155.4z"/>
			</g>
		</g>
		<g>
			<path id="Layer3_0_1_STROKES" fill="none" stroke="#000000" stroke-linecap="round" stroke-linejoin="round" d="M495.5,156.1
				v22.2h-22.2L495.5,156.1z M473.3,178.3v114.6h123.8v-105l-30.3,30.3 M553.5,194.6l38.5-38.6h-96.5 M592,156.1l0.8-0.7l12-12
				l18.4,18.5l-11.9,11.9l-14.2,14.1 M611.3,173.8l-18.5-18.4 M541.7,206.4L535,213l-2.2,5.2 M535,213l18.5,18.4l1.4-1.4l11.8-11.8
				 M534.4,239.6l-5.2,2.2 M526.9,232.1l0.9-2.1 M553.6,231.4l-19.2,8.2 M527.8,230l5-11.8 M522.7,241.8l4.2-9.8 M529.2,241.8
				l-8,3.4l1.5-3.4 M541.7,206.4l11.8-11.8"/>
		</g>
		<g>
			<path id="Layer3_0_2_STROKES" fill="none" stroke="#000000" stroke-miterlimit="10" d="M566.8,218.2h8.6 M497.4,194.6h56.1
				 M497.4,206.4h44.3 M529.2,241.8h46.2 M497.4,230h30.4 M526.9,232.1l7.5,7.5 M497.4,218.2h35.4 M497.4,241.8h25.3 M497.4,265.4
				H522 M497.4,253.6h58.4 M555,230h20.5"/>
		</g>
	</g>
</g>
<g id="connectors">
	<g transform="matrix( 1, 0, 0, 1, 0,0) ">
		<g>
			<g id="Layer2_0_FILL">
				<path fill="#FEFEFE" d="M251.4,197.3c0.1,0.1,0.2,0.3,0.4,0.3c0.2,0.1,0.5,0.2,0.8,0.2c0.4,0,0.8-0.2,1.1-0.5
					c0,0,0.1-0.1,0.1-0.2c0.2-0.2,0.3-0.5,0.4-0.8c0-0.1,0-0.1,0-0.2c0-0.4-0.2-0.8-0.5-1.1c-0.3-0.3-0.7-0.4-1.1-0.4
					c-0.5,0-0.9,0.1-1.1,0.4c-0.3,0.3-0.5,0.7-0.5,1.1C250.9,196.6,251,197,251.4,197.3 M475.7,196.5c0-0.8-0.3-1.6-1-2.2
					c-0.6-0.6-1.4-0.9-2.2-0.9c-0.8,0-1.6,0.3-2.2,0.9c-0.6,0.6-0.9,1.2-0.9,2c0,0.1,0,0.1,0,0.2c0,0.8,0.3,1.6,0.9,2.2
					c0.6,0.6,1.4,0.9,2.2,0.9c0.8,0,1.6-0.3,2.2-0.9S475.7,197.3,475.7,196.5z"/>
			</g>
		</g>
		<g>
			<path id="Layer2_0_1_STROKES" fill="none" stroke="#A3A3A3" stroke-miterlimit="10" d="M469.5,196.3c0-0.8,0.3-1.4,0.9-2
				c0.6-0.6,1.4-0.9,2.2-0.9c0.8,0,1.6,0.3,2.2,0.9c0.6,0.6,1,1.4,1,2.2c0,0.8-0.3,1.6-1,2.2s-1.4,0.9-2.2,0.9
				c-0.8,0-1.6-0.3-2.2-0.9c-0.6-0.6-0.9-1.4-0.9-2.2C469.5,196.4,469.5,196.4,469.5,196.3H254.1c0,0.3-0.1,0.6-0.3,0.8
				c0,0.1-0.1,0.1-0.1,0.2c-0.3,0.3-0.7,0.5-1.1,0.5c-0.3,0-0.5-0.1-0.7-0.2c-1.5,5.6-3.6,11.2-6.5,16.8
				c-9.7,19.1-24.8,31.9-45.3,38.5c-20.5,6.6-40.2,5-59.3-4.8c-19.1-9.8-31.9-24.9-38.5-45.3 M251.8,197.6c-0.2-0.1-0.3-0.2-0.4-0.3
				c-0.3-0.3-0.5-0.7-0.5-1.2c0-0.4,0.2-0.8,0.5-1.1c0.3-0.3,0.6-0.4,1.1-0.4c2.7-12.9,2-26-2.4-39.4c-6.6-20.5-19.4-35.6-38.5-45.3
				c-19.1-9.8-38.9-11.4-59.3-4.8 M252.5,194.6c0.4,0,0.8,0.1,1.1,0.4c0.3,0.3,0.5,0.7,0.5,1.1c0,0.1,0,0.1,0,0.2"/>
		</g>
	</g>
	<g transform="matrix( 1.506683349609375, 0, 0, 1.506683349609375, -487.95,-427.95) ">
		<g>
			<g id="Layer2_1_FILL">
				<path fill="#BAD727" d="M483.4,389.1c-3.8-11.8-11.2-20.5-22.2-26.1c-11-5.6-22.4-6.6-34.2-2.8c-11.8,3.8-20.5,11.2-26.1,22.2
					c-5.6,11-6.5,22.4-2.8,34.2s11.2,20.5,22.2,26.1c11,5.6,22.4,6.6,34.2,2.8c11.8-3.8,20.5-11.2,26.2-22.2
					C486.3,412.3,487.2,400.9,483.4,389.1z"/>
			</g>
		</g>
	</g>
</g>
<g id="icon">
	<g transform="matrix( 1, 0, 0, 1, 0,0) ">
		<g>
			<g id="Layer1_0_FILL">
				<path fill="#2C538A" d="M171.2,207.2v9.8h9.8v-9.8H171.2 M187.6,207.2v9.8h9.8v-9.8H187.6 M204.4,207.2v9.8h9.8v-9.8H204.4
					 M138,207.2v9.8h9.8v-9.8H138 M154.6,207.2v9.8h9.8v-9.8H154.6 M147.8,190.4H138v9.8h9.8V190.4 M138,174.2v9.8h9.8v-9.8H138
					 M147.8,167.4v-9.8H138v9.8H147.8 M147.8,140.6H138v9.8h9.8V140.6 M164.4,150.4v-9.8h-9.8v9.8H164.4 M214.2,174.2h-9.8v9.8h9.8
					V174.2 M214.2,190.4h-9.8v9.8h9.8V190.4 M214.2,157.6h-9.8v9.8h9.8V157.6 M154.6,190.4v9.8h9.8v-9.8H154.6 M181,190.4h-9.8v9.8
					h9.8V190.4 M164.4,184v-9.8h-9.8v9.8H164.4 M171.2,174.2v9.8h9.8v-9.8H171.2 M164.4,167.4v-9.8h-9.8v9.8H164.4 M171.2,157.6v9.8
					h9.8v-9.8H171.2 M187.6,157.6v9.8h9.8v-9.8H187.6 M187.6,174.2v9.8h9.8v-9.8H187.6 M181,140.6h-9.8v9.8h9.8V140.6 M197.4,140.6
					h-9.8v9.8h9.8V140.6 M214.2,140.6h-9.8v9.8h9.8V140.6z"/>
				<path fill="#FFFFFF" d="M187.6,200.2h9.8l-4.9-4.9L187.6,200.2 M192.5,195.3l-4.9-4.9v9.8L192.5,195.3 M197.4,190.4l-4.9,4.9
					l4.9,4.9V190.4 M192.5,195.3l4.9-4.9h-9.8L192.5,195.3z"/>
			</g>
		</g>
		<g>
			<path id="Layer1_0_1_STROKES" fill="none" stroke="#3A6FBB" stroke-miterlimit="10" d="M204.4,140.6h9.8v9.8h-9.8V140.6z
				 M187.6,140.6h9.8v9.8h-9.8V140.6z M171.2,140.6h9.8v9.8h-9.8V140.6z M187.6,157.6h9.8v9.8h-9.8V157.6z M200.8,170.7h-16.6v16.5
				h16.6V170.7v-16.5h-16.6v16.5h-16.5v16.5h16.5v16.6h16.6v-16.6H218 M171.2,157.6h9.8v9.8h-9.8V157.6z M154.6,157.6h9.8v9.8h-9.8
				V157.6z M184.2,154.2h-16.5v16.5h-16.5v16.5h16.5v16.6h16.5V221 M171.2,190.4h9.8v9.8h-9.8V190.4z M171.2,174.2h9.8v9.8h-9.8
				V174.2z M154.6,174.2h9.8v9.8h-9.8V174.2z M187.6,174.2h9.8v9.8h-9.8V174.2z M204.4,157.6h9.8v9.8h-9.8V157.6z M204.4,190.4h9.8
				v9.8h-9.8V190.4z M204.4,174.2h9.8v9.8h-9.8V174.2z M218,170.7h-17.2 M154.6,140.6h9.8v9.8h-9.8V140.6z M167.7,137v17.2h-16.5
				v16.5H134 M184.2,137v17.2 M218,154.2h-17.2V137 M138,140.6h9.8v9.8H138V140.6z M138,157.6h9.8v9.8H138V157.6z M138,174.2h9.8
				v9.8H138V174.2z M138,190.4h9.8v9.8H138V190.4z M151.2,154.2H134 M134,203.8h17.2v-16.6H134 M151.2,137v17.2 M154.6,207.2h9.8
				v9.8h-9.8V207.2z M138,207.2h9.8v9.8H138V207.2z M167.7,221v-17.2h-16.5V221 M204.4,207.2h9.8v9.8h-9.8V207.2z M187.6,207.2h9.8
				v9.8h-9.8V207.2z M218,203.8h-17.2V221 M171.2,207.2h9.8v9.8h-9.8V207.2z M154.6,190.4h9.8v9.8h-9.8V190.4z"/>
		</g>
		<g>
			<path fill="#3A6FBB" d="M187.2,190.8l4.9,4.9c0.1,0.1,0.2,0.1,0.4,0.1c0.1,0,0.3-0.1,0.4-0.1l4.9-4.9c0.1-0.1,0.2-0.4,0.1-0.5
				s-0.3-0.3-0.5-0.3h-9.8c-0.1,0-0.3,0.1-0.4,0.1s-0.1,0.2-0.1,0.4v9.8c0,0.2,0.1,0.4,0.3,0.5c0.2,0.1,0.4,0,0.5-0.1l4.5-4.5
				l4.5,4.5c0.1,0.1,0.4,0.2,0.5,0.1c0.2-0.1,0.3-0.3,0.3-0.5v-9.8c0-0.3-0.2-0.5-0.5-0.5c-0.3,0-0.5,0.2-0.5,0.5l0,8.6l-4-4
				c-0.1-0.1-0.2-0.1-0.4-0.1c-0.1,0-0.3,0.1-0.4,0.1l-4,4v-8.1h8.1l-3.7,3.7L188,190c-0.2-0.2-0.5-0.2-0.7,0
				C187.1,190.2,187.1,190.6,187.2,190.8L187.2,190.8z M197.4,199.7h-9.8c-0.3,0-0.5,0.2-0.5,0.5c0,0.3,0.2,0.5,0.5,0.5h9.8
				c0.3,0,0.5-0.2,0.5-0.5C197.9,199.9,197.7,199.7,197.4,199.7z"/>
		</g>
	</g>
</g>
</svg>
