<?xml version="1.0" encoding="utf-8"?>
<!-- Generator: Adobe Illustrator 23.0.1, SVG Export Plug-In . SVG Version: 6.00 Build 0)  -->
<svg version="1.1" id="Layer_993" xmlns="http://www.w3.org/2000/svg" xmlns:xlink="http://www.w3.org/1999/xlink" x="0px" y="0px"
	 viewBox="0 0 750 400" enable-background="new 0 0 750 400" xml:space="preserve">
<g id="clouds_bits">
	<g transform="matrix( 1, 0, 0, 1, -87.85,-322.35) ">
		<g>
			<g id="Layer5_2_FILL">
				<path fill="#BAD727" d="M458.9,578c0-0.5-0.2-1-0.6-1.3c-0.4-0.4-0.8-0.6-1.3-0.6c-0.5,0-1,0.2-1.4,0.6
					c-0.4,0.4-0.6,0.8-0.6,1.3s0.2,1,0.6,1.4c0.4,0.4,0.8,0.5,1.4,0.5c0.5,0,1-0.2,1.3-0.5C458.7,579,458.9,578.5,458.9,578z"/>
			</g>
		</g>
	</g>
	<g transform="matrix( 1, 0, 0, 1, -457.85,-112.05) ">
		<g>
			<g id="Layer5_3_FILL">
				<path fill="#BAD727" d="M851.7,428.8c0-0.5-0.2-1-0.6-1.3c-0.4-0.4-0.8-0.6-1.3-0.6s-1,0.2-1.4,0.6c-0.4,0.4-0.5,0.8-0.5,1.3
					c0,0.5,0.2,1,0.5,1.4c0.4,0.4,0.8,0.6,1.4,0.6c0.5,0,1-0.2,1.3-0.6C851.5,429.8,851.7,429.3,851.7,428.8z"/>
			</g>
		</g>
	</g>
	<g transform="matrix( 1, 0, 0, 1, 27.95,-10.75) ">
		<g>
			<g id="Layer5_4_FILL">
				<path fill="#F7571A" d="M598,321.3c0-0.5-0.2-1-0.6-1.3c-0.4-0.4-0.8-0.6-1.4-0.6s-1,0.2-1.3,0.6c-0.4,0.4-0.5,0.8-0.5,1.3
					c0,0.5,0.2,1,0.5,1.4c0.4,0.4,0.8,0.6,1.3,0.6s1-0.2,1.4-0.6C597.8,322.3,598,321.8,598,321.3z"/>
			</g>
		</g>
	</g>
	<g transform="matrix( 1, 0, 0, 1, -389.25,-161.7) ">
		<g>
			<g id="Layer5_5_FILL">
				<path fill="#F7571A" d="M520.9,449.9c0-0.5-0.2-1-0.6-1.4c-0.4-0.4-0.8-0.5-1.3-0.5s-1,0.2-1.4,0.5c-0.4,0.4-0.5,0.8-0.5,1.4
					c0,0.5,0.2,1,0.5,1.4c0.4,0.4,0.8,0.6,1.4,0.6s1-0.2,1.3-0.6C520.7,450.9,520.9,450.4,520.9,449.9z"/>
			</g>
		</g>
	</g>
	<g transform="matrix( 1, 0, 0, 1, 111.05,-191.15) ">
		<g>
			<g id="Layer5_6_FILL">
				<path fill="#DEDEDE" d="M454,529.6c0-1.1-0.4-2-1.1-2.8c-0.8-0.7-1.7-1.1-2.8-1.1c-1.1,0-2,0.4-2.7,1.1
					c-0.7,0.8-1.1,1.7-1.1,2.8c0,1.1,0.4,2,1.1,2.7c0.8,0.7,1.7,1.1,2.7,1.1c1.1,0,2-0.4,2.8-1.1C453.6,531.6,454,530.7,454,529.6z"
					/>
			</g>
		</g>
	</g>
	<g transform="matrix( 1, 0, 0, 1, -328.95,-165.95) ">
		<g>
			<g id="Layer5_7_FILL">
				<path fill="#DEDEDE" d="M848.8,493.6c-0.4-0.4-0.8-0.5-1.4-0.5c-0.5,0-1,0.2-1.4,0.5c-0.4,0.4-0.5,0.9-0.5,1.4
					c0,0.5,0.2,1,0.5,1.4c0.4,0.4,0.8,0.6,1.4,0.6c0.5,0,1-0.2,1.4-0.6c0.4-0.4,0.6-0.8,0.6-1.4
					C849.4,494.5,849.2,494.1,848.8,493.6z"/>
			</g>
		</g>
	</g>
	<g transform="matrix( 1, 0, 0, 1, -172.65,-409.75) ">
		<g>
			<g id="Layer5_8_FILL">
				<path fill="#D1D1D1" d="M844.5,583.7c0-1.1-0.4-2-1.1-2.7c-0.8-0.7-1.7-1.1-2.8-1.1c-1.1,0-2,0.4-2.7,1.1
					c-0.8,0.8-1.2,1.7-1.2,2.7c0,1.1,0.4,2,1.2,2.8c0.7,0.7,1.6,1.1,2.7,1.1c1.1,0,2-0.4,2.8-1.1
					C844.1,585.7,844.5,584.8,844.5,583.7z"/>
			</g>
		</g>
	</g>
	<g transform="matrix( 1, 0, 0, 1, -213.1,-289.1) ">
		<g>
			<path id="Layer5_9_1_STROKES" fill="none" stroke="#BFBFBF" stroke-width="2" stroke-miterlimit="10" d="M855,350.9
				c0,0.9-0.3,1.7-1,2.3c-0.6,0.6-1.4,1-2.3,1c-0.9,0-1.7-0.3-2.3-1c-0.6-0.6-1-1.4-1-2.3c0-0.9,0.3-1.6,1-2.3c0.6-0.6,1.4-1,2.3-1
				c0.9,0,1.6,0.3,2.3,1C854.7,349.2,855,350,855,350.9z"/>
		</g>
	</g>
	<g transform="matrix( 1, 0, 0, 1, -386.85,-478.55) ">
		<g>
			<path id="Layer5_10_1_STROKES" fill="none" stroke="#BFBFBF" stroke-width="2" stroke-miterlimit="10" d="M678.5,551.5
				c0,0.9-0.3,1.7-1,2.3s-1.4,1-2.3,1c-0.9,0-1.7-0.3-2.3-1c-0.6-0.6-1-1.4-1-2.3s0.3-1.7,1-2.3c0.6-0.6,1.4-1,2.3-1
				c0.9,0,1.6,0.3,2.3,1C678.1,549.8,678.5,550.5,678.5,551.5z"/>
		</g>
	</g>
	<g transform="matrix( 1, 0, 0, 1, -243.45,-111.5) ">
		<g>
			<path id="Layer5_11_1_STROKES" fill="none" stroke="#BFBFBF" stroke-width="2" stroke-miterlimit="10" d="M619.5,264.3
				c0,0.9-0.3,1.7-1,2.3c-0.6,0.6-1.4,0.9-2.3,0.9c-0.9,0-1.6-0.3-2.3-0.9c-0.6-0.6-1-1.4-1-2.3c0-0.9,0.3-1.6,1-2.3
				c0.6-0.6,1.4-0.9,2.3-0.9c0.9,0,1.7,0.3,2.3,0.9S619.5,263.4,619.5,264.3z"/>
		</g>
	</g>
	<g transform="matrix( 1, 0, 0, 1, -324.85,-207.05) ">
		<g>
			<g id="Layer5_12_MEMBER_0_FILL">
				<path fill="#83C4EC" d="M506.5,271.5h7c0.3,0,0.5-0.1,0.7-0.3c0.2-0.2,0.3-0.4,0.3-0.7c0-0.3-0.1-0.5-0.3-0.7
					c-0.2-0.2-0.4-0.3-0.7-0.3h-7c-0.6,0-0.9,0.3-0.9,0.9c0,0.3,0.1,0.5,0.3,0.7C506.1,271.4,506.3,271.5,506.5,271.5z"/>
			</g>
		</g>
	</g>
	<g transform="matrix( 1, 0, 0, 1, -324.85,-207.05) ">
		<g>
			<g id="Layer5_12_MEMBER_1_FILL">
				<path fill="#83C4EC" d="M509.4,266.4c-0.2,0.2-0.3,0.4-0.3,0.6v7c0,0.3,0.1,0.5,0.3,0.7c0.2,0.2,0.4,0.3,0.6,0.3
					c0.6,0,1-0.3,1-1v-7c0-0.3-0.1-0.5-0.3-0.6c-0.2-0.2-0.4-0.3-0.7-0.3C509.8,266,509.6,266.1,509.4,266.4z"/>
			</g>
		</g>
	</g>
	<g transform="matrix( 1, 0, 0, 1, -471.35,-255.05) ">
		<g>
			<g id="Layer5_13_MEMBER_0_FILL">
				<path fill="#83C4EC" d="M909.2,384.4c0.2,0.2,0.4,0.3,0.6,0.3h7.1c0.3,0,0.5-0.1,0.7-0.3c0.2-0.2,0.2-0.4,0.3-0.6
					c0-0.6-0.3-1-0.9-1h-7.1c-0.3,0-0.5,0.1-0.6,0.3c-0.2,0.2-0.3,0.4-0.3,0.7C908.9,384,909,384.2,909.2,384.4z"/>
			</g>
		</g>
	</g>
	<g transform="matrix( 1, 0, 0, 1, -471.35,-255.05) ">
		<g>
			<g id="Layer5_13_MEMBER_1_FILL">
				<path fill="#83C4EC" d="M914.3,380.1c0-0.2-0.1-0.5-0.3-0.6c-0.2-0.2-0.4-0.3-0.6-0.3c-0.3,0-0.5,0.1-0.7,0.3
					c-0.2,0.2-0.3,0.4-0.3,0.6v7.1c0,0.3,0.1,0.5,0.3,0.7c0.2,0.2,0.4,0.3,0.7,0.3c0.3,0,0.5-0.1,0.6-0.3c0.2-0.2,0.3-0.4,0.3-0.7
					V380.1z"/>
			</g>
		</g>
	</g>
	<g transform="matrix( 1, 0, 0, 1, 267.95,-227.4) ">
		<g>
			<g id="Layer5_14_MEMBER_0_FILL">
				<path fill="#83C4EC" d="M399.5,556.6c-0.3,0-0.5,0.1-0.7,0.3c-0.2,0.2-0.3,0.4-0.3,0.7c0,0.3,0.1,0.5,0.3,0.7
					c0.2,0.2,0.4,0.3,0.7,0.3h7c0.3,0,0.5-0.1,0.7-0.3c0.2-0.2,0.3-0.4,0.3-0.7c0-0.6-0.3-1-1-1H399.5z"/>
			</g>
		</g>
	</g>
	<g transform="matrix( 1, 0, 0, 1, 267.95,-227.4) ">
		<g>
			<g id="Layer5_14_MEMBER_1_FILL">
				<path fill="#83C4EC" d="M404,554c0-0.2-0.1-0.5-0.3-0.7c-0.2-0.2-0.4-0.3-0.6-0.3s-0.5,0.1-0.7,0.3c-0.2,0.2-0.3,0.4-0.3,0.7v7
					c0,0.3,0.1,0.5,0.3,0.7c0.2,0.2,0.4,0.3,0.7,0.3s0.5-0.1,0.6-0.3c0.2-0.2,0.3-0.4,0.3-0.7V554z"/>
			</g>
		</g>
	</g>
	<g transform="matrix( 1, 0, 0, 1, -416.05,-300.7) ">
		<g>
			<g id="Layer5_15_MEMBER_0_FILL">
				<path fill="#83C4EC" d="M584.3,587c0.2,0.2,0.4,0.3,0.7,0.3h7c0.3,0,0.5-0.1,0.7-0.3c0.2-0.2,0.3-0.4,0.3-0.7s-0.1-0.5-0.3-0.6
					c-0.2-0.2-0.4-0.3-0.7-0.3h-7c-0.3,0-0.5,0.1-0.7,0.3c-0.2,0.2-0.3,0.4-0.3,0.6S584.1,586.9,584.3,587z"/>
			</g>
		</g>
	</g>
	<g transform="matrix( 1, 0, 0, 1, -416.05,-300.7) ">
		<g>
			<g id="Layer5_15_MEMBER_1_FILL">
				<path fill="#83C4EC" d="M588.5,590.8c0.3,0,0.5-0.1,0.7-0.3c0.2-0.2,0.3-0.4,0.3-0.6v-7.1c0-0.6-0.3-0.9-1-0.9
					c-0.6,0-1,0.3-1,0.9v7.1c0,0.3,0.1,0.5,0.3,0.6C588,590.8,588.3,590.8,588.5,590.8z"/>
			</g>
		</g>
	</g>
	<g transform="matrix( 1, 0, 0, 1, -180.85,-457.45) ">
		<g>
			<g id="Layer5_16_MEMBER_0_FILL">
				<path fill="#83C4EC" d="M745,571.2c0.3,0,0.5-0.1,0.6-0.3c0.2-0.2,0.3-0.4,0.3-0.7c0-0.2-0.1-0.5-0.3-0.7
					c-0.2-0.2-0.4-0.3-0.6-0.3h-7c-0.3,0-0.5,0.1-0.7,0.3c-0.2,0.2-0.3,0.4-0.3,0.7c0,0.3,0.1,0.5,0.3,0.7c0.2,0.2,0.4,0.3,0.7,0.3
					H745z"/>
			</g>
		</g>
	</g>
	<g transform="matrix( 1, 0, 0, 1, -180.85,-457.45) ">
		<g>
			<g id="Layer5_16_MEMBER_1_FILL">
				<path fill="#83C4EC" d="M740.8,566c-0.2,0.2-0.3,0.4-0.3,0.7v7c0,0.3,0.1,0.5,0.3,0.7c0.2,0.2,0.4,0.3,0.7,0.3
					c0.3,0,0.5-0.1,0.7-0.3c0.2-0.2,0.3-0.4,0.3-0.7v-7c0-0.3-0.1-0.5-0.3-0.7c-0.2-0.2-0.4-0.3-0.7-0.3
					C741.1,565.8,740.9,565.8,740.8,566z"/>
			</g>
		</g>
	</g>
	<g transform="matrix( 1, 0, 0, 1, -93.65,-221.15) ">
		<g>
			<g id="Layer5_17_FILL">
				<path fill="#BFBFBF" d="M521,492.2h-6l-3,5.2l3,5.2h6l3-5.2L521,492.2 M515.8,493.6h4.4l2.2,3.8l-2.2,3.8h-4.4l-2.2-3.8
					L515.8,493.6z"/>
			</g>
		</g>
	</g>
	<g transform="matrix( 1, 0, 0, 1, -730.05,-175.55) ">
		<g>
			<g id="Layer5_18_FILL">
				<path fill="#BFBFBF" d="M845.3,287.1l-3,5.2l3,5.2h6l3-5.2l-3-5.2H845.3 M846.2,296.1l-2.2-3.8l2.2-3.8h4.3l2.2,3.8l-2.2,3.8
					H846.2z"/>
			</g>
		</g>
	</g>
	<g transform="matrix( 1, 0, 0, 1, 337.2,55) " opacity="0.17">
		<g transform="matrix( 1, 0, 0, 1, 0,0) ">
			<g>
				<g id="flash0_ai_Layer_91__Path__0_Layer0_0_FILL_1_">
					<path fill="#3D3D3D" d="M-29.2,271.9c-0.2-8.7-3.1-16.1-8.9-22.1c-5.7-6.2-12.6-9.2-20.5-9.2c-4.6,0-8.9,1.1-13,3.3
						c-4,2.1-7.3,5-10,8.7c-1.1-2.2-2.7-4-4.6-5.4c-2.1-1.4-4.3-2.1-6.7-2.1c-3,0-5.7,1-8.1,3c-2.3,2-3.8,4.6-4.6,7.7
						c-2.1-0.9-4.1-1.4-6.2-1.4c-3.3,0-6.3,1-9.1,3c-1.9-2.1-4.1-3.7-6.5-4.8c-2.6-1.1-5.2-1.7-8.1-1.7c-4.3,0-8.2,1.3-11.8,4
						c-3.4,2.6-5.9,6-7.5,10.2c-0.9-1.1-2-1.9-3.3-2.5s-2.7-0.9-4-0.9c-2.7,0-4.9,1-6.8,3c-1.9,2-3,4.3-3.2,7.2
						C-172.2,271.9-29.2,271.9-29.2,271.9z"/>
				</g>
			</g>
		</g>
	</g>
	<g transform="matrix( 1, 0, 0, 1, 337.2,55) " opacity="0.17">
		<g transform="matrix( 1, 0, 0, 1, 0,0) ">
			<g>
				<g id="flash0_ai_Layer_994_Path__0_Layer0_0_FILL_2_">
					<path fill="#3D3D3D" d="M310.3,38.1c-0.2-2.7-1.3-5-3.2-6.8c-1.9-1.9-4.2-2.8-6.8-2.8c-1.4,0-2.7,0.3-4,0.9
						c-1.3,0.6-2.4,1.4-3.3,2.4c-1.5-4-4-7.2-7.5-9.6c-3.6-2.6-7.5-3.8-11.8-3.8c-2.8,0-5.5,0.6-8.1,1.7c-2.4,1.1-4.6,2.6-6.5,4.5
						c-2.8-1.9-5.9-2.8-9.1-2.8c-2.1,0-4.2,0.4-6.2,1.3c-0.8-2.9-2.3-5.4-4.6-7.3c-2.4-1.9-5-2.9-8.1-2.9c-2.4,0-4.6,0.6-6.7,1.9
						c-2,1.3-3.6,3-4.6,5.1c-2.7-3.5-6.1-6.3-10-8.3c-4.1-2.1-8.4-3.1-13-3.1c-8,0-14.8,2.9-20.5,8.7c-5.8,5.8-8.7,12.7-8.9,20.9
						C167.3,38.1,310.3,38.1,310.3,38.1z"/>
				</g>
			</g>
		</g>
	</g>
	<g transform="matrix( 1, 0, 0, 1, 337.2,55) " opacity="0.17">
		<g transform="matrix( 1, 0, 0, 1, 0,0) ">
			<g>
				<g id="flash0_ai_Layer_995__Path__0_Layer0_0_FILL_3_">
					<path fill="#3D3D3D" d="M146.7,142.6c-0.1-1.5-0.8-2.6-1.9-3.6c-1.1-1-2.4-1.5-4-1.5c-0.8,0-1.6,0.2-2.4,0.5s-1.4,0.7-1.9,1.3
						c-0.9-2.1-2.4-3.8-4.4-5.1c-2.1-1.4-4.4-2-6.9-2c-1.6,0-3.2,0.3-4.7,0.9c-1.4,0.6-2.7,1.4-3.8,2.4c-1.6-1-3.4-1.5-5.3-1.5
						c-1.2,0-2.4,0.2-3.6,0.7c-0.4-1.6-1.3-2.9-2.7-3.9c-1.4-1-2.9-1.5-4.7-1.5c-1.4,0-2.7,0.3-3.9,1c-1.2,0.7-2.1,1.6-2.7,2.7
						c-1.6-1.9-3.6-3.3-5.9-4.4c-2.4-1.1-4.9-1.6-7.6-1.6c-4.7,0-8.7,1.5-12,4.6c-3.4,3.1-5.1,6.8-5.2,11.2
						C63.1,142.6,146.7,142.6,146.7,142.6z"/>
				</g>
			</g>
		</g>
	</g>
</g>
<g id="browser">
	<g transform="matrix( 1, 0, 0, 1, -1111.95,-784.4) ">
		<g>
			<g id="Layer4_0_FILL">
				<path fill="#595959" d="M1433.9,875.3c-1.4-1.4-3.1-2.1-5.1-2.1h-211.5c-2,0-3.7,0.7-5.1,2.1c-1.4,1.4-2.1,3.1-2.1,5.1v158.8
					c0,2,0.7,3.7,2.1,5.1s3.1,2.1,5.1,2.1h211.5c2,0,3.7-0.7,5.1-2.1s2.1-3.1,2.1-5.1V880.5C1436.1,878.5,1435.3,876.8,1433.9,875.3
					z"/>
			</g>
		</g>
		<g>
			<path id="Layer4_0_1_STROKES" fill="none" stroke="#000000" stroke-miterlimit="10" d="M1428.8,873.3h-211.5
				c-2,0-3.7,0.7-5.1,2.1c-1.4,1.4-2.1,3.1-2.1,5.1v158.8c0,2,0.7,3.7,2.1,5.1s3.1,2.1,5.1,2.1h211.5c2,0,3.7-0.7,5.1-2.1
				s2.1-3.1,2.1-5.1V880.5c0-2-0.7-3.7-2.1-5.1C1432.5,874,1430.8,873.3,1428.8,873.3z"/>
		</g>
	</g>
	<g transform="matrix( 1, 0, 0, 1, -1111.95,-784.4) ">
		<g>
			<g id="Layer4_1_MEMBER_0_FILL">
				<path fill="#CACACA" d="M1443,880.7c0-2-0.7-3.7-2.1-5.1c-1.4-1.4-3.1-2.1-5.1-2.1h-211.5c-2,0-3.7,0.7-5.1,2.1
					c-1.4,1.4-2.2,3.1-2.2,5.1v12.9H1443V880.7z"/>
			</g>
		</g>
	</g>
	<g transform="matrix( 1, 0, 0, 1, -1111.95,-784.4) ">
		<g>
			<g id="Layer4_1_MEMBER_1_FILL">
				<path fill="#FEFEFE" d="M1436.1,1046.6c1.9,0,3.5-0.7,4.9-2c1.3-1.4,2-3,2-4.9v-146h-225.7v146.4c0,1.8,0.6,3.3,1.8,4.6
					c1.3,1.3,2.8,1.9,4.6,1.9H1436.1z"/>
			</g>
		</g>
	</g>
	<g transform="matrix( 1, 0, 0, 1, -1111.95,-784.4) ">
		<g>
			<path id="Layer4_1_MEMBER_2_1_STROKES" fill="none" stroke="#000000" stroke-miterlimit="10" d="M1435.8,1046.6h-211.5
				c-2,0-3.7-0.7-5.1-2.1c-1.4-1.4-2.1-3.1-2.1-5.1V880.5c0-2,0.7-3.7,2.1-5.1c1.4-1.4,3.1-2.1,5.1-2.1h211.5c2,0,3.7,0.7,5.1,2.1
				c1.4,1.4,2.1,3.1,2.1,5.1v158.8c0,2-0.7,3.7-2.1,5.1C1439.5,1045.8,1437.8,1046.6,1435.8,1046.6z"/>
		</g>
	</g>
	<g transform="matrix( 1, 0, 0, 1, -1111.95,-784.4) ">
		<g>
			<path id="Layer4_1_MEMBER_3_1_STROKES" fill="none" stroke="#000000" stroke-miterlimit="10" d="M1216.8,893.7h225.9"/>
		</g>
	</g>
	<g transform="matrix( 1, 0, 0, 1, -1111.95,-784.4) ">
		<g>
			<path id="Layer4_1_MEMBER_4_1_STROKES" fill="none" stroke="#000000" stroke-miterlimit="10" d="M1232.1,882.9
				c0,0.8-0.3,1.4-0.8,1.9s-1.2,0.8-1.9,0.8c-0.8,0-1.4-0.3-2-0.8c-0.5-0.5-0.8-1.2-0.8-1.9c0-0.8,0.3-1.4,0.8-2
				c0.6-0.5,1.2-0.8,2-0.8c0.8,0,1.4,0.3,1.9,0.8C1231.8,881.5,1232.1,882.1,1232.1,882.9z"/>
		</g>
	</g>
	<g transform="matrix( 1, 0, 0, 1, -1111.95,-784.4) ">
		<g>
			<path id="Layer4_1_MEMBER_5_1_STROKES" fill="none" stroke="#000000" stroke-miterlimit="10" d="M1242.6,882.9
				c0,0.8-0.3,1.4-0.8,1.9c-0.6,0.5-1.2,0.8-2,0.8c-0.8,0-1.4-0.3-1.9-0.8s-0.8-1.2-0.8-1.9c0-0.8,0.3-1.4,0.8-2
				c0.5-0.5,1.2-0.8,1.9-0.8c0.8,0,1.4,0.3,2,0.8C1242.3,881.5,1242.6,882.1,1242.6,882.9z"/>
		</g>
	</g>
	<g transform="matrix( 1, 0, 0, 1, -1111.95,-784.4) ">
		<g>
			<path id="Layer4_1_MEMBER_6_1_STROKES" fill="none" stroke="#000000" stroke-miterlimit="10" d="M1253.1,882.9
				c0,0.8-0.3,1.4-0.8,1.9c-0.6,0.5-1.2,0.8-2,0.8c-0.8,0-1.4-0.3-1.9-0.8s-0.8-1.2-0.8-1.9c0-0.8,0.3-1.4,0.8-2
				c0.5-0.5,1.2-0.8,1.9-0.8c0.8,0,1.4,0.3,2,0.8C1252.8,881.5,1253.1,882.1,1253.1,882.9z"/>
		</g>
	</g>
</g>
<g id="content">
	<g transform="matrix( 1, 0, 0, 1, 0,0) ">
		<g>
			<g id="Layer3_0_FILL">
				<path fill="#CACACA" d="M217.8,205.2h96.5v-13.4H120.4v13.4H217.8 M127.8,198.8h179.4H127.8 M120.4,221.9v13.4h193.8v-13.4
					H120.4 M127.8,228.9h179.4H127.8 M314.2,175.2v-13.4H120.4v13.4H314.2 M127.8,168.8h179.4H127.8 M314.2,145.2v-13.4H120.4v13.4
					h97.3H314.2 M127.8,138.8h179.4H127.8z"/>
			</g>
		</g>
		<g>
			<path id="Layer3_0_1_STROKES" fill="none" stroke="#000000" stroke-miterlimit="10" d="M217.8,145.2h-97.3v-13.4h193.8v13.4
				H217.8z M120.4,161.8h193.8v13.4H120.4V161.8z M120.4,221.9h193.8v13.4H120.4V221.9z M217.8,205.2h-97.3v-13.4h193.8v13.4H217.8z
				 M127.8,198.8h179.4 M127.8,228.9h179.4 M127.8,168.8h179.4 M127.8,138.8h179.4"/>
		</g>
		<g>
			<path id="Layer3_0_2_STROKES" fill="none" stroke="#000000" stroke-linecap="round" stroke-linejoin="round" d="M212.9,154.5
				l4.9,4.9v-14.2 M217.8,159.4l4.9-4.9 M217.8,175.7v14.1l4.9-4.9 M212.9,184.9l4.9,4.9 M217.8,205.2v14.1l4.9-4.9 M212.9,214.4
				l4.9,4.9"/>
		</g>
	</g>
</g>
<g id="connectors">
	<g transform="matrix( 1, 0, 0, 1, 0,0) ">
		<g>
			<g id="Layer2_0_FILL">
				<path fill="#FEFEFE" d="M499.5,225.7c0-0.4-0.2-0.8-0.5-1.1c-0.2-0.3-0.5-0.4-0.9-0.5c-0.1,0-0.2,0-0.3,0
					c-0.4,0-0.8,0.2-1.1,0.5c-0.3,0.3-0.4,0.7-0.4,1.1c0,0.1,0,0.1,0,0.2c0,0.3,0.1,0.6,0.3,0.9c0,0,0,0,0.1,0.1c0,0,0,0,0,0.1
					c0.2,0.2,0.5,0.4,0.8,0.4c0.1,0,0.3,0.1,0.4,0.1c0.5,0,0.9-0.2,1.2-0.5C499.3,226.6,499.5,226.2,499.5,225.7 M334,225.9
					c0-0.8-0.3-1.4-0.9-2c-0.6-0.6-1.4-0.9-2.2-0.9s-1.6,0.3-2.2,0.9c-0.6,0.6-1,1.4-1,2.2c0,0.8,0.3,1.6,1,2.2s1.4,0.9,2.2,0.9
					s1.6-0.3,2.2-0.9c0.6-0.6,0.9-1.4,0.9-2.2C334,226,334,226,334,225.9z"/>
			</g>
		</g>
		<g>
			<path id="Layer2_0_1_STROKES" fill="none" stroke="#A3A3A3" stroke-miterlimit="10" d="M498.1,224.1c1.5-6.3,3.8-12.4,6.9-18.6
				c9.7-19.1,24.8-31.9,45.3-38.5c20.5-6.6,40.2-5,59.3,4.8c19.1,9.8,31.9,24.9,38.5,45.3 M334,225.9c0-0.8-0.3-1.4-0.9-2
				c-0.6-0.6-1.4-0.9-2.2-0.9s-1.6,0.3-2.2,0.9c-0.6,0.6-1,1.4-1,2.2c0,0.8,0.3,1.6,1,2.2s1.4,0.9,2.2,0.9s1.6-0.3,2.2-0.9
				c0.6-0.6,0.9-1.4,0.9-2.2C334,226,334,226,334,225.9h162.2c0-0.1,0-0.1,0-0.2c0-0.4,0.1-0.8,0.4-1.1c0.3-0.3,0.7-0.5,1.1-0.5
				c0.1,0,0.2,0,0.3,0c0.4,0.1,0.7,0.2,0.9,0.5c0.3,0.3,0.5,0.7,0.5,1.1c0,0.5-0.2,0.9-0.5,1.2c-0.3,0.3-0.7,0.5-1.2,0.5
				c-0.1,0-0.3,0-0.4-0.1c-2.3,12.3-1.4,24.8,2.7,37.5c6.6,20.5,19.4,35.6,38.5,45.3c19.1,9.8,38.9,11.4,59.3,4.8 M496.3,225.9
				c0,0.3,0.1,0.6,0.3,0.9c0,0,0,0,0.1,0.1c0,0,0,0,0,0.1c0.2,0.2,0.5,0.4,0.8,0.4"/>
		</g>
	</g>
	<g transform="matrix( 1, 0, 0, 1, 0,0) ">
		<g>
			<g id="Layer2_1_FILL">
				<path fill="#2C538A" d="M605,180.9c-16.6-8.5-33.8-9.9-51.5-4.2c-17.7,5.7-30.9,16.9-39.4,33.4c-8.5,16.6-9.9,33.8-4.1,51.6
					c5.7,17.7,16.9,30.8,33.4,39.3c16.6,8.5,33.8,9.9,51.6,4.3c17.7-5.7,30.9-16.9,39.4-33.5c8.5-16.6,9.9-33.8,4.2-51.5
					C632.7,202.5,621.6,189.4,605,180.9z"/>
			</g>
		</g>
	</g>
</g>
<g id="icon">
	<g transform="matrix( 1, 0, 0, 1, 0,0) ">
		<g>
			<path id="Layer1_0_1_STROKES" fill="none" stroke="#FFFFFF" stroke-linecap="round" stroke-linejoin="round" d="M585.3,212.9H551
				c-4.6,0-8.2,1.9-10.6,5.8c-2,3.1-3,6.9-3,11.4c0,3.1,0.9,6.3,2.6,9.7c0.9,1.6,1.8,3,2.5,4v-8.6c0-1.8,0.6-3,1.8-3.8
				c1.3-0.8,3.5-1.3,6.8-1.3h34.2v10.2l17.1-18.8l-17.1-18.8V212.9z M561.4,271.1h34.2c4.6,0,8.2-1.9,10.7-5.7c2-3.1,3-6.9,3-11.4
				c0-3.1-0.9-6.3-2.6-9.6l-2.6-4v8.5c0,1.9-0.6,3.2-1.8,3.9c-1.3,0.8-3.5,1.2-6.8,1.2h-34.2v-10.2l-17.1,18.8l17.1,18.9V271.1z"/>
		</g>
	</g>
</g>
</svg>
