<?xml version="1.0" encoding="utf-8"?>
<!-- Generator: Adobe Illustrator 22.1.0, SVG Export Plug-In . SVG Version: 6.00 Build 0)  -->
<svg version="1.1" id="Layer_29" xmlns="http://www.w3.org/2000/svg" xmlns:xlink="http://www.w3.org/1999/xlink" x="0px" y="0px"
	 viewBox="0 0 936 792" style="enable-background:new 0 0 936 792;" xml:space="preserve">
<style type="text/css">
	.st0{opacity:0.4;}
	.st1{fill:none;stroke:#0899CC;stroke-miterlimit:10;}
	.st2{opacity:0.4;fill:none;stroke:#0899CC;stroke-miterlimit:10;}
	.st3{fill:#1776BF;}
	.st4{opacity:0.17;fill:#3B3B3B;}
	.st5{fill:#0C3B60;}
	.st6{fill:#C2D500;}
	.st7{fill:#FF4D00;}
	.st8{fill:#0899CC;}
	.st9{fill:#7BCAEF;}
	.st10{opacity:0.4;fill:#FFFFFF;}
	.st11{fill:#FFFFFF;}
	.st12{fill:none;stroke:#000000;stroke-miterlimit:10;}
	.st13{fill:#FFFFFF;stroke:#000000;stroke-miterlimit:10;}
	.st14{fill:#F1DAD5;}
	.st15{fill:#4991E6;}
	.st16{fill:none;stroke:#000000;stroke-linecap:round;stroke-linejoin:round;stroke-miterlimit:10;}
	.st17{fill:#085099;}
	.st18{fill:#76BBFF;}
	.st19{fill:#2B2B2B;}
	.st20{fill:#DBDBDB;}
	.st21{fill:#ADADAD;}
	.st22{fill:#454545;}
	.st23{fill:none;stroke:#000000;stroke-linejoin:round;stroke-miterlimit:10;}
	.st24{fill:#D1D1D1;stroke:#000000;stroke-miterlimit:10;}
	.st25{fill:none;stroke:#6B6B6B;stroke-miterlimit:10;}
	.st26{fill:none;stroke:#FFFFFF;stroke-miterlimit:10;}
	.st27{fill:#C2C2C2;}
	.st28{fill:#A6A6A6;}
	.st29{fill:#FEFEFE;}
</style>
<g>
	<g class="st0">
		<g>
			<line class="st1" x1="489.3" y1="128.9" x2="640.4" y2="128.9"/>
			<line class="st1" x1="440.1" y1="128.9" x2="479.7" y2="128.9"/>
		</g>
		<polyline class="st1" points="440.2,142.1 453,142.1 459.4,142.1 476.8,142.1 482.7,142.1 640.4,142.1 		"/>
		<g>
			<polyline class="st1" points="462.2,155.3 479.7,155.3 485.6,155.3 643.3,155.3 			"/>
			<line class="st1" x1="440.7" y1="155.3" x2="453" y2="155.3"/>
		</g>
		<g>
			<polyline class="st1" points="462.2,168.5 479.7,168.5 485.6,168.5 643.3,168.5 			"/>
			<line class="st1" x1="440.7" y1="168.5" x2="453" y2="168.5"/>
		</g>
		<g>
			<polyline class="st1" points="462.2,181.6 479.7,181.6 485.6,181.6 643.3,181.6 			"/>
			<line class="st1" x1="440.7" y1="181.6" x2="453" y2="181.6"/>
		</g>
		<g>
			<line class="st1" x1="481.8" y1="194.8" x2="508.4" y2="194.8"/>
			<line class="st1" x1="462.2" y1="194.8" x2="471.9" y2="194.8"/>
			<line class="st1" x1="440.7" y1="194.8" x2="453" y2="194.8"/>
		</g>
	</g>
	<polyline class="st2" points="430.2,135.2 425.7,129 430.2,122.8 	"/>
	<polyline class="st2" points="517.5,201 522,194.9 517.5,188.7 	"/>
</g>
<path class="st3" d="M406,146.8l167.3,136.7c19.4,15.8,43.1,25.3,68.1,27.1l47.9,3.4c83.2,5.9,135.7,92.2,102.7,168.8l-34.8,80.8
	c-28.5,66.3-108.2,93.1-171,57.6l-50.1-28.3c-36.6-20.7-81.3-21-118.1-0.7l-99.4,54.7c-52.3,28.8-117.7,15.2-154.2-31.9l-29.5-38
	c-37.2-48-33.2-116.1,9.5-159.3l35.2-35.7c27.5-27.9,39.8-67.3,33.1-105.8l-2.6-14.8c-8.6-49.3,14-98.7,56.8-124.6l0,0
	C310.6,110.4,366.4,114.4,406,146.8z"/>
<path class="st4" d="M898.5,206.4c-0.6-25.5-21.5-45.9-47.1-45.9c-14.9,0-28.1,6.9-36.7,17.6c-3.5-6.5-10.3-10.9-18.2-10.9
	c-9.7,0-17.9,6.7-20.1,15.7c-3.1-1.3-6.4-1.9-10-1.9c-5.4,0-10.4,1.6-14.5,4.3c-6-6-14.2-9.7-23.4-9.7c-14,0-25.9,8.6-30.8,20.9
	c-2.9-3.1-7-5-11.6-5c-8.4,0-15.4,6.5-16,14.8H898.5z"/>
<path class="st4" d="M55.2,353.8c0.5-18.9,15.9-34.1,35-34.1c11,0,20.9,5.1,27.3,13.1c2.6-4.8,7.7-8.1,13.5-8.1
	c7.2,0,13.3,5,14.9,11.7c2.3-0.9,4.8-1.4,7.4-1.4c4,0,7.7,1.2,10.8,3.2c4.4-4.4,10.6-7.2,17.4-7.2c10.4,0,19.2,6.4,22.9,15.5
	c2.2-2.3,5.2-3.7,8.6-3.7c6.3,0,11.4,4.9,11.9,11H55.2z"/>
<path class="st4" d="M686.2,637.3c0.5-18.9,15.9-34.1,35-34.1c11,0,20.9,5.1,27.3,13.1c2.6-4.8,7.7-8.1,13.5-8.1
	c7.2,0,13.3,5,14.9,11.7c2.3-0.9,4.8-1.4,7.4-1.4c4,0,7.7,1.2,10.8,3.2c4.4-4.4,10.6-7.2,17.4-7.2c10.4,0,19.2,6.4,22.9,15.5
	c2.2-2.3,5.2-3.7,8.6-3.7c6.3,0,11.4,4.9,11.9,11H686.2z"/>
<rect x="80.3" y="244.7" class="st5" width="51" height="43.1"/>
<rect x="256.1" y="177.4" class="st6" width="130.6" height="110.5"/>
<rect x="80.3" y="370.4" class="st7" width="51" height="43.1"/>
<rect x="197.9" y="370.4" class="st8" width="51" height="43.1"/>
<rect x="271.8" y="370.4" class="st9" width="51" height="43.1"/>
<rect x="391" y="370.4" class="st10" width="51" height="43.1"/>
<rect x="463.2" y="370.4" class="st5" width="51" height="43.1"/>
<rect x="663.6" y="370.4" class="st6" width="51" height="43.1"/>
<rect x="750.3" y="302.8" class="st7" width="104.6" height="68.6"/>
<rect x="538.8" y="244.7" class="st9" width="51" height="43.1"/>
<rect x="538.8" y="370.4" class="st10" width="51" height="43.1"/>
<rect x="612.2" y="244.7" class="st10" width="51" height="43.1"/>
<g>
	<circle class="st11" cx="46.4" cy="272" r="10.5"/>
	<circle class="st11" cx="273.1" cy="516.2" r="5.6"/>
	<circle class="st11" cx="223.3" cy="516.2" r="10.5"/>
	<circle class="st11" cx="410.8" cy="272" r="10.5"/>
	<circle class="st11" cx="683.4" cy="272" r="10.5"/>
	<circle class="st8" cx="637.6" cy="346.5" r="19.4"/>
	<circle class="st11" cx="156.7" cy="272" r="5.6"/>
	<circle class="st11" cx="156.7" cy="448" r="5.6"/>
	<circle class="st11" cx="558.6" cy="354.4" r="5.6"/>
	<circle class="st11" cx="683.4" cy="309.1" r="5.6"/>
	<circle class="st11" cx="683.4" cy="355.6" r="5.6"/>
	<circle class="st11" cx="156.7" cy="397.7" r="10.5"/>
	<circle class="st11" cx="558.6" cy="487" r="5.6"/>
</g>
<g>
	<g>
		<line class="st12" x1="233.9" y1="515.3" x2="267.4" y2="515.3"/>
		<path class="st12" d="M156.4,453.4v47.8c0,7.8,6.3,14.2,14.2,14.2H213"/>
		<line class="st12" x1="156.4" y1="407.9" x2="156.4" y2="442.1"/>
		<line class="st12" x1="156.4" y1="277.4" x2="156.4" y2="386.9"/>
		<line class="st12" x1="125.5" y1="271.8" x2="151.1" y2="271.8"/>
		<line class="st12" x1="57" y1="271.8" x2="74.5" y2="271.8"/>
		<line class="st12" x1="436.1" y1="397.7" x2="457.7" y2="397.7"/>
		<g>
			<g>
				<path class="st12" d="M316.7,397.7h25.4c7.3,0,13.2-5.9,13.2-13.2v-86.1"/>
				<g>
					<polygon points="352.9,298.7 357.8,298.7 355.4,296.3 					"/>
				</g>
			</g>
		</g>
		<g>
			<g>
				<line class="st12" x1="242.9" y1="397.7" x2="260.9" y2="397.7"/>
				<g>
					<polygon points="260.6,395.3 260.6,400.2 263,397.7 					"/>
				</g>
			</g>
		</g>
		<line class="st12" x1="125.2" y1="397.7" x2="146.2" y2="397.7"/>
		<line class="st12" x1="223.3" y1="505.4" x2="223.3" y2="419.7"/>
		<line class="st12" x1="99.6" y1="293.3" x2="99.6" y2="375.9"/>
		<g>
			<g>
				<path class="st12" d="M693.9,271.3h80.4c6.2,0,11.2,5,11.2,11.2v24.3"/>
				<g>
					<polygon points="788,306.5 783.1,306.5 785.5,309 					"/>
				</g>
			</g>
		</g>
		<line class="st12" x1="657.3" y1="271.3" x2="672.9" y2="271.3"/>
		<path class="st12" d="M533.5,271.3h-23.3c-15.1,0-27.4,12.2-27.4,27.4v77.2"/>
		<line class="st12" x1="381.5" y1="271.3" x2="400" y2="271.3"/>
		<g>
			<g>
				<line class="st12" x1="410.2" y1="282.3" x2="410.2" y2="370.6"/>
				<g>
					<polygon points="412.7,370.3 407.8,370.3 410.2,372.7 					"/>
				</g>
			</g>
		</g>
		<g>
			<g>
				<path class="st12" d="M291.7,375.9V221.5c0-6.9,5.6-12.5,12.5-12.5h93.6c6.9,0,12.5,5.6,12.5,12.5v35"/>
				<g>
					<polygon points="412.7,256.2 407.8,256.2 410.2,258.6 					"/>
				</g>
			</g>
		</g>
		<line class="st12" x1="558.6" y1="419.2" x2="558.6" y2="480.4"/>
		<line class="st12" x1="558.6" y1="359.8" x2="558.6" y2="375.5"/>
		<g>
			<g>
				<line class="st12" x1="558.6" y1="293.3" x2="558.6" y2="344.4"/>
				<g>
					<polygon points="561,344.1 556.2,344.1 558.6,346.5 					"/>
				</g>
			</g>
		</g>
		<line class="st12" x1="564.2" y1="354.1" x2="612.4" y2="354.1"/>
		<line class="st12" x1="631.9" y1="293.3" x2="631.9" y2="332.6"/>
		<line class="st13" x1="553" y1="486.6" x2="501.2" y2="486.6"/>
		<g>
			<g>
				<rect x="74.6" y="250.2" class="st12" width="51" height="43.1"/>
				<rect x="74.6" y="375.8" class="st12" width="51" height="43.1"/>
				<rect x="192.2" y="375.8" class="st12" width="51" height="43.1"/>
				<rect x="266" y="375.8" class="st12" width="51" height="43.1"/>
				<rect x="385.3" y="375.8" class="st12" width="51" height="43.1"/>
				<rect x="457.5" y="375.8" class="st12" width="51" height="43.1"/>
				<rect x="657.9" y="375.8" class="st12" width="51" height="43.1"/>
				<rect x="743.7" y="309.5" class="st12" width="104.6" height="68.6"/>
				<rect x="533.1" y="250.2" class="st12" width="51" height="43.1"/>
				<rect x="533.1" y="375.8" class="st12" width="51" height="43.1"/>
				<rect x="249.3" y="181.9" class="st12" width="131.7" height="111.4"/>
				<rect x="606.4" y="250.2" class="st12" width="51" height="43.1"/>
			</g>
			<g>
				<circle class="st12" cx="46.4" cy="271.8" r="10.5"/>
				<circle class="st12" cx="273.1" cy="515.9" r="5.6"/>
				<circle class="st12" cx="223.3" cy="515.9" r="10.5"/>
				<circle class="st12" cx="410.8" cy="271.8" r="10.5"/>
				<circle class="st12" cx="683.4" cy="271.8" r="10.5"/>
				<circle class="st12" cx="631.9" cy="351.9" r="19.4"/>
				<circle class="st12" cx="156.7" cy="271.8" r="5.6"/>
				<circle class="st12" cx="156.7" cy="447.7" r="5.6"/>
				<circle class="st12" cx="558.6" cy="354.1" r="5.6"/>
				<circle class="st12" cx="683.4" cy="308.8" r="5.6"/>
				<circle class="st12" cx="683.4" cy="355.4" r="5.6"/>
				<circle class="st12" cx="156.7" cy="397.4" r="10.5"/>
				<circle class="st12" cx="558.6" cy="486.7" r="5.6"/>
			</g>
		</g>
		<line class="st12" x1="583.9" y1="271.3" x2="606" y2="271.3"/>
	</g>
	<g>
		<line class="st12" x1="683.1" y1="281.6" x2="683.1" y2="303.1"/>
		<line class="st12" x1="683.1" y1="360.8" x2="683.1" y2="376.2"/>
		<line class="st12" x1="683.1" y1="314.3" x2="683.1" y2="350.2"/>
	</g>
</g>
<path class="st14" d="M489.3,658.6l0.3,5.7l6.4,3.3l21.7,3l6.3,0.3l-2.8-5.1L505,655.2l-22.4-76.6c-2.6-8.9-10.8-15.1-20.1-15.1
	h-32.3l-1.6,22.6h32.6l28.1,67l0.1,3.2L489.3,658.6"/>
<path class="st15" d="M520.4,665.5l6.7,4.1c1.1,0.7,1.8,1.8,1.9,3.1l0.1,1.3c0.1,1.1-0.8,2-1.9,2h-9.7c-2.9,0-5.7-0.4-8.5-1.2
	l-13.7-4l-1.1,5.1h-4.7l0-18.6l3.5,1.3l17.9,6.4c2,0.7,4.2,0.9,6.3,0.6l0.5-0.1L520.4,665.5z"/>
<path class="st16" d="M495.7,666.1"/>
<path class="st16" d="M490.3,659.1"/>
<path class="st17" d="M396.1,459h5.2c8.1,0,15.7,3.9,20.4,10.5l35.8,50c1.3,2.1,2,4.6,1.6,7.3c-0.6,5.1-4.7,9.2-9.8,9.7h-26.4v-18.2
	H434l-25-34.8L396.1,459L396.1,459"/>
<path class="st18" d="M353.1,543v4.4v15.9h60.6v-91.7c0-6.9-5.6-12.6-12.6-12.6h-35.1c-8.1,0-15.7,3.9-20.4,10.5l-35.8,50
	c-1.3,2.1-2,4.6-1.6,7.3c0.6,5.1,4.7,9.2,9.8,9.7h35V543z M339.6,518.4l-6.4-0.1l19.8-27.2v27.2H339.6z"/>
<path class="st14" d="M423,536.9h-16.5l0,0c0-7.9,6.4-14.3,14.3-14.3h2.2V536.9z"/>
<path class="st19" d="M410.9,460v-37.4c0-14.9-12.1-27-27-27c-14.9,0-27,12.1-27,27v37.2l8.2-1.3l37.7,0.2L410.9,460z"/>
<g>
	<polyline class="st14" points="391.4,458.8 391.4,450.5 388.6,451.8 381.5,451.6 375.5,449.8 375.5,458.8 391.6,458.8 	"/>
</g>
<rect x="386" y="611" class="st20" width="9" height="35.1"/>
<rect x="381.8" y="598.6" class="st21" width="17.3" height="17.7"/>
<rect x="381.8" y="643.8" class="st21" width="17.3" height="15.9"/>
<path class="st22" d="M430,662.5h-79.2v-0.1c0-3.7,3-6.8,6.8-6.8h65.7C427,655.7,430,658.7,430,662.5L430,662.5z"/>
<g>
	<circle class="st20" cx="358.6" cy="669.4" r="6.2"/>
	<circle class="st20" cx="422.3" cy="669.4" r="6.2"/>
	<circle class="st20" cx="390.5" cy="669.4" r="6.2"/>
</g>
<path class="st22" d="M429.1,602.6h-77.2c-2.6,0-4.6-2.1-4.6-4.6v-7.3c0-2.6,2.1-4.6,4.6-4.6h77.2c2.6,0,4.6,2.1,4.6,4.6v7.3
	C433.7,600.5,431.6,602.6,429.1,602.6z"/>
<g>
	<g>
		<circle class="st12" cx="358.6" cy="669.4" r="6.2"/>
		<circle class="st12" cx="422.3" cy="669.4" r="6.2"/>
		<circle class="st12" cx="390.5" cy="669.4" r="6.2"/>
	</g>
	<g>
		<line class="st16" x1="386" y1="643.7" x2="386" y2="616.4"/>
		<line class="st16" x1="394.9" y1="616.4" x2="394.9" y2="643.7"/>
		<polyline class="st16" points="399.1,603 399.1,616.3 381.8,616.3 381.8,603.2 		"/>
		<polyline class="st16" points="381.8,655.6 381.8,643.8 399.1,643.8 399.1,655.4 		"/>
		<path class="st12" d="M430,662.5h-79.2v-0.1c0-3.7,3-6.8,6.8-6.8h65.7C427,655.7,430,658.7,430,662.5L430,662.5z"/>
		<path class="st16" d="M429.1,602.6h-77.2c-2.6,0-4.6-2.1-4.6-4.6v-7.3c0-2.6,2.1-4.6,4.6-4.6h77.2c2.6,0,4.6,2.1,4.6,4.6v7.3
			C433.7,600.5,431.6,602.6,429.1,602.6z"/>
	</g>
</g>
<g>
	<path class="st14" d="M387.5,410.6c-3.2,8-11,13.6-20.1,13.6c-0.2,0-0.4,0-0.6,0v10.7c0,9.4,7.6,17.1,17.1,17.1
		c9.4,0,17.1-7.6,17.1-17.1v-16C395.3,418.4,390.4,415.2,387.5,410.6z"/>
</g>
<path class="st12" d="M411.1,460v-37.4c0-14.9-12.1-27-27-27c-14.9,0-27,12.1-27,27v37.2"/>
<g>
	<line class="st23" x1="375.5" y1="449.6" x2="375.5" y2="458.6"/>
	<line class="st23" x1="391.4" y1="450.3" x2="391.4" y2="458.6"/>
</g>
<path class="st16" d="M396.4,458.6h5.2c8.1,0,15.7,3.9,20.4,10.5l35.8,50c1.3,2.1,2,4.6,1.6,7.3c-0.6,5.1-4.7,9.2-9.8,9.7h-26.4
	v-18.2h16.3"/>
<line class="st16" x1="414.3" y1="490.1" x2="434.4" y2="517.9"/>
<path class="st12" d="M423.3,522.1h-2.2c-7.9,0-14.3,6.4-14.3,14.3l0,0h16.5"/>
<line class="st16" x1="353.4" y1="490.7" x2="353.4" y2="517.5"/>
<line class="st16" x1="361.5" y1="478.8" x2="333.6" y2="517.9"/>
<g>
	<path class="st16" d="M401.2,419.2v15.6c0,9.4-7.6,17.1-17.1,17.1h0c-9.4,0-17.1-7.6-17.1-17.1v-10.7"/>
	<path class="st16" d="M405,418.8c-0.7,0.1-1.4,0.1-2.2,0.1c-8.5,0-15.6-5.9-17.4-13.9c-0.3-1.3-0.4-2.6-0.4-3.9"/>
	<path class="st16" d="M387.8,410.5c-3.2,8-11,13.6-20.1,13.6c-1.3,0-2.6-0.1-3.9-0.4"/>
</g>
<path class="st14" d="M496.1,665.9l-16.3-10.3l-20.2-77.2c-2.6-8.9-10.8-15.1-20.1-15.1h-31.7l2,23H437l28.5,66.9v5.6l0.2,5.3
	l3.5,3.5h23.1L496.1,665.9"/>
<path class="st15" d="M496.6,665.9l6.7,4.1c1.1,0.7,1.8,1.8,1.9,3.1l0.1,1.3c0.1,1.1-0.8,2-1.9,2h-9.7c-2.9,0-5.7-0.4-8.5-1.2
	l-13.7-4l-1.1,5.1h-4.7l0-18.6l3.5,1.3l17.9,6.4c2,0.7,4.2,0.9,6.3,0.6l0.5-0.1L496.6,665.9z"/>
<g>
	<g>
		<path class="st17" d="M437.5,563.4l-84.3,0v0.9c0,12.2,9.9,22.2,22.2,22.2h55.9l9.1-22.8C439.4,563.5,438.5,563.4,437.5,563.4z"/>
	</g>
</g>
<g>
	<path class="st16" d="M489.3,657.2l5,1.8l17.9,6.4c2,0.7,4.2,0.9,6.3,0.6l0.5-0.1l2.7-0.3l6.7,4.1c1.1,0.7,1.8,1.8,1.9,3.1l0.1,1.3
		c0.1,1.1-0.8,2-1.9,2h-9.7c-2.9,0-5.7-0.4-8.5-1.2l-4.6-1.3"/>
	<path class="st16" d="M496.6,665.7l6.7,4.1c1.1,0.7,1.8,1.8,1.9,3.1l0.1,1.3c0.1,1.1-0.8,2-1.9,2h-9.7c-2.9,0-5.7-0.4-8.5-1.2
		l-13.7-4l-1.1,5.1h-4.7l0-18.6l3.5,1.3l17.9,6.4c2,0.7,4.2,0.9,6.3,0.6l0.5-0.1L496.6,665.7z"/>
	<g>
		<line class="st16" x1="414" y1="562.7" x2="414" y2="549"/>
		<polyline class="st16" points="489.3,661.3 489.3,658.7 489.3,653.2 461.5,586.7 		"/>
		<path class="st16" d="M521.2,665.6l-16.3-10.3l-22-77.2c-2.6-8.9-10.8-15.1-20.1-15.1H379"/>
		<path class="st16" d="M353.4,549.1v14.7c0,12.2,9.9,22.2,22.2,22.2H437l28.5,66.9v5.6"/>
		<path class="st16" d="M496.1,665.6l-16.3-10.3L459,578.1c-2.6-8.9-10.8-15.1-20.1-15.1h-85.1"/>
		<line class="st16" x1="440.6" y1="563" x2="431.5" y2="586"/>
	</g>
</g>
<path class="st11" d="M430,536.2h-55.3v-7.9h47.5c4.3,0,7.7,3.5,7.7,7.7V536.2z"/>
<path class="st12" d="M374.8,527.9h47.4c4.3,0,7.8,3.5,7.8,7.8v0.1h-51.7"/>
<path class="st14" d="M361.6,522.1h2.2c7.9,0,14.3,6.4,14.3,14.3l0,0h-16.5"/>
<path class="st12" d="M361.8,522.1h2.2c7.9,0,14.3,6.4,14.3,14.3l0,0h-16.5"/>
<path class="st16" d="M414,523.6v-52.5c0-6.9-5.6-12.6-12.6-12.6h-35.1c-8.1,0-15.7,3.9-20.4,10.5l-35.8,50c-1.3,2.1-2,4.6-1.6,7.3
	c0.6,5.1,4.7,9.2,9.8,9.7H362v-18.2h-33.5"/>
<rect x="465.6" y="506.9" class="st20" width="32.2" height="23"/>
<path class="st21" d="M512,536.3h-60.8v-0.1c0-4.7,3.8-8.5,8.5-8.5h43.9C508.2,527.7,512,531.5,512,536.3L512,536.3z"/>
<path class="st24" d="M525.9,511.6h-86.1c-3.6,0-6.5-2.9-6.5-6.5v-54c0-3.6,2.9-6.5,6.5-6.5h86.1c3.6,0,6.5,2.9,6.5,6.5v54
	C532.4,508.7,529.5,511.6,525.9,511.6z"/>
<path class="st21" d="M531.2,511.6h-86.1c-3.6,0-6.5-2.9-6.5-6.5v-54c0-3.6,2.9-6.5,6.5-6.5h86.1c3.6,0,6.5,2.9,6.5,6.5v54
	C537.7,508.7,534.8,511.6,531.2,511.6z"/>
<g>
	<line class="st12" x1="465.6" y1="527.6" x2="465.6" y2="511.4"/>
	<line class="st12" x1="497.8" y1="511.4" x2="497.8" y2="527.6"/>
	<path class="st12" d="M512,536.3h-60.8v-0.1c0-4.7,3.8-8.5,8.5-8.5h43.9C508.2,527.7,512,531.5,512,536.3L512,536.3z"/>
	<path class="st12" d="M531.2,511.6h-86.1c-3.6,0-6.5-2.9-6.5-6.5v-54c0-3.6,2.9-6.5,6.5-6.5h86.1c3.6,0,6.5,2.9,6.5,6.5v54
		C537.7,508.7,534.8,511.6,531.2,511.6z"/>
</g>
<rect x="521.5" y="548.3" class="st15" width="17.1" height="128.4"/>
<rect x="298.3" y="536.4" class="st15" width="247.5" height="12.2"/>
<rect x="308.6" y="548.3" class="st15" width="17.1" height="128.4"/>
<g>
	<g>
		<line class="st16" x1="308.6" y1="676.7" x2="308.6" y2="549.2"/>
		<line class="st16" x1="325.7" y1="549.2" x2="325.7" y2="676.7"/>
		<line class="st16" x1="521.5" y1="676.7" x2="521.5" y2="549.2"/>
		<line class="st16" x1="538.5" y1="549.2" x2="538.5" y2="676.7"/>
		<rect x="298.3" y="536.4" class="st16" width="247.5" height="12.2"/>
	</g>
	<g>
		<line class="st16" x1="644.3" y1="676.8" x2="184.5" y2="676.8"/>
		<line class="st16" x1="515" y1="689" x2="600.3" y2="689"/>
		<line class="st16" x1="404.5" y1="689" x2="500.3" y2="689"/>
		<line class="st16" x1="329.2" y1="702" x2="456.8" y2="702"/>
		<line class="st16" x1="470.3" y1="702" x2="527.7" y2="702"/>
		<line class="st16" x1="297.5" y1="702" x2="316" y2="702"/>
		<line class="st16" x1="347.4" y1="689" x2="390" y2="689"/>
		<line class="st16" x1="312.2" y1="689" x2="333.9" y2="689"/>
		<line class="st16" x1="253.9" y1="689" x2="296.9" y2="689"/>
	</g>
</g>
<g>
	<line class="st1" x1="633.5" y1="468.6" x2="741.2" y2="468.6"/>
	<line class="st1" x1="633.5" y1="530.8" x2="787.1" y2="530.8"/>
	<line class="st1" x1="633.5" y1="515.2" x2="913.3" y2="515.2"/>
	<g>
		<line class="st1" x1="633.5" y1="499.7" x2="688.7" y2="499.7"/>
		<line class="st1" x1="706.5" y1="499.7" x2="912.3" y2="499.7"/>
	</g>
	<polyline class="st1" points="619,476 613,468.7 619,461.5 	"/>
	<g>
		<line class="st1" x1="633.5" y1="484.2" x2="787.1" y2="484.2"/>
		<line class="st1" x1="806.8" y1="484.2" x2="861.1" y2="484.2"/>
	</g>
	<line class="st1" x1="633.5" y1="577.3" x2="787.1" y2="577.3"/>
	<line class="st1" x1="633.5" y1="561.8" x2="881.2" y2="561.8"/>
	<g>
		<line class="st1" x1="633.5" y1="546.3" x2="688.7" y2="546.3"/>
		<line class="st1" x1="706.5" y1="546.3" x2="828.1" y2="546.3"/>
	</g>
	<polyline class="st1" points="810.9,570.1 816.9,577.3 810.9,584.6 	"/>
	<line class="st1" x1="805.6" y1="570.7" x2="798.7" y2="583.9"/>
</g>
<g>
	<line class="st1" x1="37.6" y1="551.1" x2="111.2" y2="551.1"/>
	<line class="st1" x1="37.6" y1="600.3" x2="142.6" y2="600.3"/>
	<line class="st1" x1="37.6" y1="588" x2="228.8" y2="588"/>
	<g>
		<line class="st1" x1="37.6" y1="575.7" x2="75.4" y2="575.7"/>
		<line class="st1" x1="87.5" y1="575.7" x2="228.1" y2="575.7"/>
	</g>
	<polyline class="st1" points="27.7,556.9 23.6,551.1 27.7,545.4 	"/>
	<g>
		<line class="st1" x1="37.6" y1="563.4" x2="142.6" y2="563.4"/>
		<line class="st1" x1="156" y1="563.4" x2="193.1" y2="563.4"/>
	</g>
	<line class="st1" x1="37.6" y1="637.2" x2="142.6" y2="637.2"/>
	<line class="st1" x1="37.6" y1="624.8" x2="206.9" y2="624.8"/>
	<g>
		<line class="st1" x1="37.6" y1="612.5" x2="75.4" y2="612.5"/>
		<line class="st1" x1="87.5" y1="612.5" x2="170.6" y2="612.5"/>
	</g>
	<polyline class="st1" points="158.8,631.4 163,637.1 158.8,642.9 	"/>
	<line class="st1" x1="155.2" y1="631.9" x2="150.5" y2="642.4"/>
</g>
<circle class="st25" cx="597.1" cy="209" r="3.6"/>
<circle class="st25" cx="182.5" cy="541.6" r="3.6"/>
<circle class="st26" cx="246.1" cy="331" r="3.6"/>
<circle class="st25" cx="571.5" cy="635.6" r="3.6"/>
<circle class="st8" cx="491.1" cy="251.5" r="2.1"/>
<circle class="st11" cx="305.1" cy="470.6" r="2.1"/>
<circle class="st8" cx="71" cy="452.8" r="2.1"/>
<circle class="st8" cx="759.1" cy="283.5" r="2.1"/>
<circle class="st8" cx="409.1" cy="100.2" r="2.1"/>
<circle class="st11" cx="227.7" cy="231.9" r="2.5"/>
<g>
	<path class="st9" d="M225.2,401.1h-7.3c-0.6,0-1-0.4-1-1s0.4-1,1-1h7.3c0.6,0,1,0.4,1,1S225.8,401.1,225.2,401.1z"/>
	<path class="st9" d="M221.5,404.8c-0.6,0-1-0.4-1-1v-7.3c0-0.6,0.4-1,1-1s1,0.4,1,1v7.3C222.5,404.4,222.1,404.8,221.5,404.8z"/>
</g>
<g>
	<path class="st9" d="M336.8,315.9h-7.3c-0.6,0-1-0.4-1-1s0.4-1,1-1h7.3c0.6,0,1,0.4,1,1S337.3,315.9,336.8,315.9z"/>
	<path class="st9" d="M333.1,319.6c-0.6,0-1-0.4-1-1v-7.3c0-0.6,0.4-1,1-1s1,0.4,1,1v7.3C334.1,319.1,333.7,319.6,333.1,319.6z"/>
</g>
<g>
	<path class="st9" d="M826.5,233.6h-7.3c-0.6,0-1-0.4-1-1s0.4-1,1-1h7.3c0.6,0,1,0.4,1,1S827,233.6,826.5,233.6z"/>
	<path class="st9" d="M822.8,237.2c-0.6,0-1-0.4-1-1v-7.3c0-0.6,0.4-1,1-1s1,0.4,1,1v7.3C823.8,236.8,823.3,237.2,822.8,237.2z"/>
</g>
<g>
	<path class="st9" d="M594.8,454.2h-7.3c-0.6,0-1-0.4-1-1s0.4-1,1-1h7.3c0.6,0,1,0.4,1,1S595.3,454.2,594.8,454.2z"/>
	<path class="st9" d="M591.1,457.9c-0.6,0-1-0.4-1-1v-7.3c0-0.6,0.4-1,1-1s1,0.4,1,1v7.3C592.1,457.4,591.7,457.9,591.1,457.9z"/>
</g>
<g>
	<path class="st9" d="M186.8,108.9h-7.3c-0.6,0-1-0.4-1-1s0.4-1,1-1h7.3c0.6,0,1,0.4,1,1S187.3,108.9,186.8,108.9z"/>
	<path class="st9" d="M183.1,112.6c-0.6,0-1-0.4-1-1v-7.3c0-0.6,0.4-1,1-1s1,0.4,1,1v7.3C184.1,112.1,183.7,112.6,183.1,112.6z"/>
</g>
<g>
	<path class="st9" d="M653.8,605.9h-7.3c-0.6,0-1-0.4-1-1s0.4-1,1-1h7.3c0.6,0,1,0.4,1,1S654.3,605.9,653.8,605.9z"/>
	<path class="st9" d="M650.1,609.6c-0.6,0-1-0.4-1-1v-7.3c0-0.6,0.4-1,1-1s1,0.4,1,1v7.3C651.1,609.1,650.7,609.6,650.1,609.6z"/>
</g>
<g>
	<path class="st9" d="M109.8,524.2h-7.3c-0.6,0-1-0.4-1-1s0.4-1,1-1h7.3c0.6,0,1,0.4,1,1S110.3,524.2,109.8,524.2z"/>
	<path class="st9" d="M106.1,527.9c-0.6,0-1-0.4-1-1v-7.3c0-0.6,0.4-1,1-1s1,0.4,1,1v7.3C107.1,527.4,106.7,527.9,106.1,527.9z"/>
</g>
<g>
	<path class="st9" d="M879.5,594.6h-7.3c-0.6,0-1-0.4-1-1s0.4-1,1-1h7.3c0.6,0,1,0.4,1,1S880,594.6,879.5,594.6z"/>
	<path class="st9" d="M875.8,598.2c-0.6,0-1-0.4-1-1v-7.3c0-0.6,0.4-1,1-1s1,0.4,1,1v7.3C876.8,597.8,876.3,598.2,875.8,598.2z"/>
</g>
<path class="st27" d="M109,194.1h-6.3l-3.1-5.4l3.1-5.4h6.3l3.1,5.4L109,194.1z M103.6,192.6h4.5l2.3-3.9l-2.3-3.9h-4.5l-2.3,3.9
	L103.6,192.6z"/>
<path class="st27" d="M459.8,344h-6.3l-3.1-5.4l3.1-5.4h6.3l3.1,5.4L459.8,344z M454.4,342.5h4.5l2.3-3.9l-2.3-3.9h-4.5l-2.3,3.9
	L454.4,342.5z"/>
<path class="st28" d="M832,428.9h-6.3l-3.1-5.4l3.1-5.4h6.3l3.1,5.4L832,428.9z M826.6,427.4h4.5l2.3-3.9l-2.3-3.9h-4.5l-2.3,3.9
	L826.6,427.4z"/>
<path class="st27" d="M747,102.1h-6.3l-3.1-5.4l3.1-5.4h6.3l3.1,5.4L747,102.1z M741.6,100.6h4.5l2.3-3.9l-2.3-3.9h-4.5l-2.3,3.9
	L741.6,100.6z"/>
<circle class="st29" cx="329.6" cy="149.6" r="5.2"/>
</svg>
