<?xml version="1.0" encoding="utf-8"?>
<!-- Generator: Adobe Illustrator 23.0.1, SVG Export Plug-In . SVG Version: 6.00 Build 0)  -->
<svg version="1.1" id="Layer_63465436" xmlns="http://www.w3.org/2000/svg" xmlns:xlink="http://www.w3.org/1999/xlink" x="0px" y="0px"
	 viewBox="0 0 750 400" enable-background="new 0 0 750 400" xml:space="preserve">
<g id="clouds_bits">
	<g transform="matrix( 1, 0, 0, 1, 459.65,322.35) " opacity="0.17">
		<g>
			<g transform="matrix( 1, 0, 0, 1, 0,0) ">
				<g>
					<g id="flash0_ai_Layer_435__Path__48_0_Layer0_0_FILL">
						<path fill="#3D3D3D" d="M144.1,29c-0.2-2.6-1.2-4.8-3.2-6.6c-2-1.8-4.3-2.8-6.9-2.8c-2.9,0-5.4,1-7.3,3.1
							c-1.5-3.9-4.1-7-7.6-9.4c-3.6-2.5-7.5-3.7-11.8-3.7c-2.8,0-5.5,0.6-8.1,1.7c-2.5,1-4.8,2.5-6.7,4.4c-2.8-1.8-5.8-2.8-9.2-2.8
							c-2.1,0-4.2,0.4-6.3,1.2c-0.7-2.9-2.2-5.2-4.6-7.1c-2.4-1.9-5.1-2.8-8.2-2.8c-2.4,0-4.7,0.6-6.8,1.9c-2,1.2-3.6,2.9-4.7,4.9
							C50.1,7.7,46.7,5,42.8,3c-4.1-2-8.5-3-13.1-3c-8,0-14.9,2.8-20.7,8.5C3.2,14.1,0.2,21,0,29H144.1z"/>
					</g>
				</g>
			</g>
		</g>
	</g>
	<g transform="matrix( 1, 0, 0, 1, 618.05,207.95) " opacity="0.17">
		<g transform="matrix( 1, 0, 0, 1, 0,0) ">
			<g>
				<g id="flash0_ai_Layer_3456__Path__47_0_Layer0_0_FILL">
					<path fill="#3D3D3D" d="M84.8,17c-0.1-1.5-0.8-2.8-1.9-3.9c-1.1-1.1-2.5-1.6-4.1-1.6c-1.7,0-3.1,0.6-4.3,1.9
						c-0.9-2.3-2.4-4.2-4.5-5.6c-2.1-1.4-4.4-2.2-7-2.2c-3.4,0-6.3,1.2-8.6,3.6C52.8,8.2,51,7.7,49,7.7c-1.3,0-2.5,0.2-3.7,0.7
						c-0.4-1.7-1.3-3.1-2.7-4.2c-1.4-1.1-3-1.7-4.8-1.7c-1.4,0-2.8,0.4-4,1.2c-1.2,0.7-2.1,1.7-2.8,2.9c-1.6-2-3.6-3.6-6-4.8
						c-2.4-1.2-5-1.8-7.7-1.8C12.7,0,8.7,1.7,5.3,5C1.9,8.3,0.1,12.3,0,17H84.8z"/>
				</g>
			</g>
		</g>
	</g>
	<g transform="matrix( 1, 0, 0, 1, -201.3,-263.1) ">
		<g>
			<g id="Layer5_2_FILL">
				<path fill="#BAD727" d="M458.9,578c0-0.5-0.2-1-0.6-1.3c-0.4-0.4-0.8-0.6-1.3-0.6c-0.5,0-1,0.2-1.4,0.6
					c-0.4,0.4-0.6,0.8-0.6,1.3s0.2,1,0.6,1.4c0.4,0.4,0.8,0.5,1.4,0.5c0.5,0,1-0.2,1.3-0.5C458.7,579,458.9,578.5,458.9,578z"/>
			</g>
		</g>
	</g>
	<g transform="matrix( 1, 0, 0, 1, -388.15,-218.95) ">
		<g>
			<g id="Layer5_3_FILL">
				<path fill="#BAD727" d="M851.7,428.8c0-0.5-0.2-1-0.6-1.3c-0.4-0.4-0.8-0.6-1.3-0.6s-1,0.2-1.4,0.6c-0.4,0.4-0.5,0.8-0.5,1.3
					c0,0.5,0.2,1,0.5,1.4c0.4,0.4,0.8,0.6,1.4,0.6c0.5,0,1-0.2,1.3-0.6C851.5,429.8,851.7,429.3,851.7,428.8z"/>
			</g>
		</g>
	</g>
	<g transform="matrix( 1, 0, 0, 1, -316.3,-189.2) ">
		<g>
			<g id="Layer5_4_FILL">
				<path fill="#F7571A" d="M598,321.3c0-0.5-0.2-1-0.6-1.3c-0.4-0.4-0.8-0.6-1.4-0.6s-1,0.2-1.3,0.6c-0.4,0.4-0.5,0.8-0.5,1.3
					c0,0.5,0.2,1,0.5,1.4c0.4,0.4,0.8,0.6,1.3,0.6s1-0.2,1.4-0.6C597.8,322.3,598,321.8,598,321.3z"/>
			</g>
		</g>
	</g>
	<g transform="matrix( 1, 0, 0, 1, 130,-387.2) ">
		<g>
			<g id="Layer5_5_FILL">
				<path fill="#F7571A" d="M520.9,449.9c0-0.5-0.2-1-0.6-1.4c-0.4-0.4-0.8-0.5-1.3-0.5s-1,0.2-1.4,0.5c-0.4,0.4-0.5,0.8-0.5,1.4
					c0,0.5,0.2,1,0.5,1.4c0.4,0.4,0.8,0.6,1.4,0.6s1-0.2,1.3-0.6C520.7,450.9,520.9,450.4,520.9,449.9z"/>
			</g>
		</g>
	</g>
	<g transform="matrix( 1, 0, 0, 1, 167.1,-407.6) ">
		<g>
			<g id="Layer5_6_FILL">
				<path fill="#DEDEDE" d="M454,529.6c0-1.1-0.4-2-1.1-2.8c-0.8-0.7-1.7-1.1-2.8-1.1c-1.1,0-2,0.4-2.7,1.1
					c-0.7,0.8-1.1,1.7-1.1,2.8c0,1.1,0.4,2,1.1,2.7c0.8,0.7,1.7,1.1,2.7,1.1c1.1,0,2-0.4,2.8-1.1C453.6,531.6,454,530.7,454,529.6z"
					/>
			</g>
		</g>
	</g>
	<g transform="matrix( 1, 0, 0, 1, -549.15,-307.4) ">
		<g>
			<g id="Layer5_7_FILL">
				<path fill="#DEDEDE" d="M848.8,493.6c-0.4-0.4-0.8-0.5-1.4-0.5c-0.5,0-1,0.2-1.4,0.5c-0.4,0.4-0.5,0.9-0.5,1.4
					c0,0.5,0.2,1,0.5,1.4c0.4,0.4,0.8,0.6,1.4,0.6c0.5,0,1-0.2,1.4-0.6c0.4-0.4,0.6-0.8,0.6-1.4
					C849.4,494.5,849.2,494.1,848.8,493.6z"/>
			</g>
		</g>
	</g>
	<g transform="matrix( 1, 0, 0, 1, -447.7,-257.55) ">
		<g>
			<g id="Layer5_8_FILL">
				<path fill="#D1D1D1" d="M844.5,583.7c0-1.1-0.4-2-1.1-2.7c-0.8-0.7-1.7-1.1-2.8-1.1c-1.1,0-2,0.4-2.7,1.1
					c-0.8,0.8-1.2,1.7-1.2,2.7c0,1.1,0.4,2,1.2,2.8c0.7,0.7,1.6,1.1,2.7,1.1c1.1,0,2-0.4,2.8-1.1
					C844.1,585.7,844.5,584.8,844.5,583.7z"/>
			</g>
		</g>
	</g>
	<g transform="matrix( 1, 0, 0, 1, -371.35,-239.4) ">
		<g>
			<path id="Layer5_9_1_STROKES" fill="none" stroke="#BFBFBF" stroke-width="2" stroke-miterlimit="10" d="M855,350.9
				c0,0.9-0.3,1.7-1,2.3c-0.6,0.6-1.4,1-2.3,1c-0.9,0-1.7-0.3-2.3-1c-0.6-0.6-1-1.4-1-2.3c0-0.9,0.3-1.6,1-2.3c0.6-0.6,1.4-1,2.3-1
				c0.9,0,1.6,0.3,2.3,1C854.7,349.2,855,350,855,350.9z"/>
		</g>
	</g>
	<g transform="matrix( 1, 0, 0, 1, -88.7,-250.1) ">
		<g>
			<path id="Layer5_10_1_STROKES" fill="none" stroke="#BFBFBF" stroke-width="2" stroke-miterlimit="10" d="M678.5,551.5
				c0,0.9-0.3,1.7-1,2.3s-1.4,1-2.3,1c-0.9,0-1.7-0.3-2.3-1c-0.6-0.6-1-1.4-1-2.3s0.3-1.7,1-2.3c0.6-0.6,1.4-1,2.3-1
				c0.9,0,1.6,0.3,2.3,1C678.1,549.8,678.5,550.5,678.5,551.5z"/>
		</g>
	</g>
	<g transform="matrix( 1, 0, 0, 1, -439.5,30.55) ">
		<g>
			<path id="Layer5_11_1_STROKES" fill="none" stroke="#BFBFBF" stroke-width="2" stroke-miterlimit="10" d="M619.5,264.3
				c0,0.9-0.3,1.7-1,2.3c-0.6,0.6-1.4,0.9-2.3,0.9c-0.9,0-1.6-0.3-2.3-0.9c-0.6-0.6-1-1.4-1-2.3c0-0.9,0.3-1.6,1-2.3
				c0.6-0.6,1.4-0.9,2.3-0.9c0.9,0,1.7,0.3,2.3,0.9S619.5,263.4,619.5,264.3z"/>
		</g>
	</g>
	<g transform="matrix( 1, 0, 0, 1, -433.9,-143.15) ">
		<g>
			<g id="Layer5_12_MEMBER_0_FILL">
				<path fill="#83C4EC" d="M506.5,271.5h7c0.3,0,0.5-0.1,0.7-0.3c0.2-0.2,0.3-0.4,0.3-0.7c0-0.3-0.1-0.5-0.3-0.7
					c-0.2-0.2-0.4-0.3-0.7-0.3h-7c-0.6,0-0.9,0.3-0.9,0.9c0,0.3,0.1,0.5,0.3,0.7C506.1,271.4,506.3,271.5,506.5,271.5z"/>
			</g>
		</g>
	</g>
	<g transform="matrix( 1, 0, 0, 1, -433.9,-143.15) ">
		<g>
			<g id="Layer5_12_MEMBER_1_FILL">
				<path fill="#83C4EC" d="M509.4,266.4c-0.2,0.2-0.3,0.4-0.3,0.6v7c0,0.3,0.1,0.5,0.3,0.7c0.2,0.2,0.4,0.3,0.6,0.3
					c0.6,0,1-0.3,1-1v-7c0-0.3-0.1-0.5-0.3-0.6c-0.2-0.2-0.4-0.3-0.7-0.3C509.8,266,509.6,266.1,509.4,266.4z"/>
			</g>
		</g>
	</g>
	<g transform="matrix( 1, 0, 0, 1, -287.8,-100.15) ">
		<g>
			<g id="Layer5_13_MEMBER_0_FILL">
				<path fill="#83C4EC" d="M909.2,384.4c0.2,0.2,0.4,0.3,0.6,0.3h7.1c0.3,0,0.5-0.1,0.7-0.3c0.2-0.2,0.2-0.4,0.3-0.6
					c0-0.6-0.3-1-0.9-1h-7.1c-0.3,0-0.5,0.1-0.6,0.3c-0.2,0.2-0.3,0.4-0.3,0.7C908.9,384,909,384.2,909.2,384.4z"/>
			</g>
		</g>
	</g>
	<g transform="matrix( 1, 0, 0, 1, -287.8,-100.15) ">
		<g>
			<g id="Layer5_13_MEMBER_1_FILL">
				<path fill="#83C4EC" d="M914.3,380.1c0-0.2-0.1-0.5-0.3-0.6c-0.2-0.2-0.4-0.3-0.6-0.3c-0.3,0-0.5,0.1-0.7,0.3
					c-0.2,0.2-0.3,0.4-0.3,0.6v7.1c0,0.3,0.1,0.5,0.3,0.7c0.2,0.2,0.4,0.3,0.7,0.3c0.3,0,0.5-0.1,0.6-0.3c0.2-0.2,0.3-0.4,0.3-0.7
					V380.1z"/>
			</g>
		</g>
	</g>
	<g transform="matrix( 1, 0, 0, 1, -274.6,-230.7) ">
		<g>
			<g id="Layer5_14_MEMBER_0_FILL">
				<path fill="#83C4EC" d="M399.5,556.6c-0.3,0-0.5,0.1-0.7,0.3c-0.2,0.2-0.3,0.4-0.3,0.7c0,0.3,0.1,0.5,0.3,0.7
					c0.2,0.2,0.4,0.3,0.7,0.3h7c0.3,0,0.5-0.1,0.7-0.3c0.2-0.2,0.3-0.4,0.3-0.7c0-0.6-0.3-1-1-1H399.5z"/>
			</g>
		</g>
	</g>
	<g transform="matrix( 1, 0, 0, 1, -274.6,-230.7) ">
		<g>
			<g id="Layer5_14_MEMBER_1_FILL">
				<path fill="#83C4EC" d="M404,554c0-0.2-0.1-0.5-0.3-0.7c-0.2-0.2-0.4-0.3-0.6-0.3s-0.5,0.1-0.7,0.3c-0.2,0.2-0.3,0.4-0.3,0.7v7
					c0,0.3,0.1,0.5,0.3,0.7c0.2,0.2,0.4,0.3,0.7,0.3s0.5-0.1,0.6-0.3c0.2-0.2,0.3-0.4,0.3-0.7V554z"/>
			</g>
		</g>
	</g>
	<g transform="matrix( 1, 0, 0, 1, -289.8,-316.95) ">
		<g>
			<g id="Layer5_15_MEMBER_0_FILL">
				<path fill="#83C4EC" d="M584.3,587c0.2,0.2,0.4,0.3,0.7,0.3h7c0.3,0,0.5-0.1,0.7-0.3c0.2-0.2,0.3-0.4,0.3-0.7s-0.1-0.5-0.3-0.6
					c-0.2-0.2-0.4-0.3-0.7-0.3h-7c-0.3,0-0.5,0.1-0.7,0.3c-0.2,0.2-0.3,0.4-0.3,0.6S584.1,586.9,584.3,587z"/>
			</g>
		</g>
	</g>
	<g transform="matrix( 1, 0, 0, 1, -289.8,-316.95) ">
		<g>
			<g id="Layer5_15_MEMBER_1_FILL">
				<path fill="#83C4EC" d="M588.5,590.8c0.3,0,0.5-0.1,0.7-0.3c0.2-0.2,0.3-0.4,0.3-0.6v-7.1c0-0.6-0.3-0.9-1-0.9
					c-0.6,0-1,0.3-1,0.9v7.1c0,0.3,0.1,0.5,0.3,0.6C588,590.8,588.3,590.8,588.5,590.8z"/>
			</g>
		</g>
	</g>
	<g transform="matrix( 1, 0, 0, 1, -375.9,-475.4) ">
		<g>
			<g id="Layer5_16_MEMBER_0_FILL">
				<path fill="#83C4EC" d="M745,571.2c0.3,0,0.5-0.1,0.6-0.3c0.2-0.2,0.3-0.4,0.3-0.7c0-0.2-0.1-0.5-0.3-0.7
					c-0.2-0.2-0.4-0.3-0.6-0.3h-7c-0.3,0-0.5,0.1-0.7,0.3c-0.2,0.2-0.3,0.4-0.3,0.7c0,0.3,0.1,0.5,0.3,0.7c0.2,0.2,0.4,0.3,0.7,0.3
					H745z"/>
			</g>
		</g>
	</g>
	<g transform="matrix( 1, 0, 0, 1, -375.9,-475.4) ">
		<g>
			<g id="Layer5_16_MEMBER_1_FILL">
				<path fill="#83C4EC" d="M740.8,566c-0.2,0.2-0.3,0.4-0.3,0.7v7c0,0.3,0.1,0.5,0.3,0.7c0.2,0.2,0.4,0.3,0.7,0.3
					c0.3,0,0.5-0.1,0.7-0.3c0.2-0.2,0.3-0.4,0.3-0.7v-7c0-0.3-0.1-0.5-0.3-0.7c-0.2-0.2-0.4-0.3-0.7-0.3
					C741.1,565.8,740.9,565.8,740.8,566z"/>
			</g>
		</g>
	</g>
	<g transform="matrix( 1, 0, 0, 1, -393.6,-434.6) ">
		<g>
			<g id="Layer5_17_FILL">
				<path fill="#BFBFBF" d="M521,492.2h-6l-3,5.2l3,5.2h6l3-5.2L521,492.2 M515.8,493.6h4.4l2.2,3.8l-2.2,3.8h-4.4l-2.2-3.8
					L515.8,493.6z"/>
			</g>
		</g>
	</g>
	<g transform="matrix( 1, 0, 0, 1, -286.7,-207.2) ">
		<g>
			<g id="Layer5_18_FILL">
				<path fill="#BFBFBF" d="M845.3,287.1l-3,5.2l3,5.2h6l3-5.2l-3-5.2H845.3 M846.2,296.1l-2.2-3.8l2.2-3.8h4.3l2.2,3.8l-2.2,3.8
					H846.2z"/>
			</g>
		</g>
	</g>
	<g transform="matrix( 1, 0, 0, 1, 135.75,64.65) " opacity="0.17">
		<g transform="matrix( 1, 0, 0, 1, 0,0) ">
			<g>
				<g id="flash0_ai_Layer_34561__Path__0_Layer0_0_FILL">
					<path fill="#3D3D3D" d="M187.8,41.2c-0.2-11.4-4.1-21.1-11.7-29.1C168.6,4,159.6,0,149.1,0c-6,0-11.7,1.4-17.1,4.3
						c-5.2,2.8-9.6,6.6-13.2,11.5c-1.4-2.9-3.5-5.3-6.1-7.1c-2.7-1.8-5.7-2.7-8.8-2.7c-4,0-7.5,1.3-10.6,4c-3,2.6-5,6-6,10.1
						c-2.7-1.2-5.4-1.8-8.2-1.8c-4.3,0-8.3,1.3-12,3.9c-2.5-2.7-5.4-4.8-8.6-6.3c-3.4-1.5-6.9-2.3-10.6-2.3
						c-5.7,0-10.8,1.7-15.5,5.3c-4.5,3.4-7.8,7.9-9.8,13.4c-1.2-1.4-2.6-2.5-4.3-3.3c-1.7-0.8-3.5-1.2-5.3-1.2c-3.5,0-6.5,1.3-9,3.9
						c-2.5,2.6-3.9,5.7-4.2,9.5H187.8z"/>
				</g>
			</g>
		</g>
	</g>
	<g transform="matrix( 1, 0, 0, 1, -421.2,-442.7) ">
		<g>
			<g id="Layer5_20_FILL">
				<path fill="#DEDEDE" d="M848.8,493.6c-0.4-0.4-0.8-0.5-1.4-0.5c-0.5,0-1,0.2-1.4,0.5c-0.4,0.4-0.5,0.9-0.5,1.4
					c0,0.5,0.2,1,0.5,1.4c0.4,0.4,0.8,0.6,1.4,0.6c0.5,0,1-0.2,1.4-0.6c0.4-0.4,0.6-0.8,0.6-1.4
					C849.4,494.5,849.2,494.1,848.8,493.6z"/>
			</g>
		</g>
	</g>
	<g transform="matrix( 0.620880126953125, 0, 0, 0.6187744140625, 60.6,168.05) " opacity="0.17">
		<g transform="matrix( 1, 0, 0, 1, 0,0) ">
			<g>
				<g>
					<path fill="#3D3D3D" d="M84.8,17.1c-0.1-1.5-0.8-2.8-1.9-3.9c-1.1-1.1-2.5-1.6-4.1-1.6c-1.7,0-3.1,0.6-4.3,1.9
						c-0.9-2.3-2.4-4.2-4.5-5.6c-2.1-1.4-4.4-2.2-7-2.2c-3.4,0-6.3,1.2-8.7,3.6c-1.7-1.1-3.5-1.6-5.4-1.6c-1.3,0-2.5,0.2-3.7,0.7
						c-0.4-1.7-1.3-3.1-2.7-4.2c-1.4-1.1-3-1.7-4.8-1.7c-1.4,0-2.8,0.4-4,1.2c-1.2,0.7-2.1,1.7-2.8,2.9c-1.6-2-3.6-3.6-6-4.8
						c-2.4-1.2-5-1.8-7.7-1.8C12.7,0,8.7,1.7,5.3,5C1.9,8.3,0.1,12.3,0,17.1H84.8z"/>
				</g>
			</g>
		</g>
	</g>
</g>
<g id="arrows">
	<g transform="matrix( 1, 0, 0, 1, 0,0) ">
		<g>
			<path id="Layer4_0_1_STROKES" fill="none" stroke="#A3A3A3" stroke-linecap="round" stroke-linejoin="round" d="M492,234.8
				l4.8-4.9h-66.6 M496.8,229.9L492,225 M492.2,198.4h-55.5 M309.2,198.4h-52l4.8,4.9 M244.4,229.9h71.1 M262,193.5l-4.8,4.9"/>
		</g>
	</g>
</g>
<g id="laptops">
	<g transform="matrix( 1, 0, 0, 1, 0,0) ">
		<g>
			<g id="Layer3_0_FILL">
				<path fill="#CACACA" d="M50.7,256.4c0,0.3,0,0.6,0.1,0.9h135.9c0-0.3,0-0.6,0-0.9v-4H98.3H50.7V256.4 M51.7,259.5
					c0.7,0.9,1.6,1.3,2.6,1.3h128.8c1,0,1.8-0.5,2.5-1.3c0.5-0.6,0.9-1.3,1-2.2H50.8C50.9,258.1,51.2,258.8,51.7,259.5 M691,260.8
					c1,0,1.9-0.4,2.6-1.3c0.5-0.6,0.8-1.4,1-2.2H558.7c0.1,0.8,0.5,1.6,1,2.2c0.7,0.8,1.5,1.3,2.5,1.3H691 M694.5,257.3
					c0.1-0.3,0.1-0.6,0.1-0.9v-4H647h-88.4v4c0,0.3,0,0.6,0,0.9H694.5z"/>
				<path fill="#FFFFFF" d="M259.3,154.9c-0.1-0.1-0.2-0.2-0.3-0.3c-0.1,0-0.2-0.1-0.3-0.1c-0.2-0.1-0.5-0.1-0.8-0.1H128.1
					c-0.8,0-1.6,0.4-2.4,1.1c-0.8,0.7-1.3,1.5-1.6,2.5l-25.9,94.3h88.4h47.6l25.8-94c0.3-1,0.2-1.9-0.2-2.7c0,0,0,0,0-0.1
					C259.7,155.4,259.5,155.1,259.3,154.9 M253.7,161.8l-22.9,83.4H105.7l23-83.4H253.7 M486.6,154.6c-0.1,0-0.2,0-0.3,0.1
					c-0.1,0-0.3,0.1-0.4,0.2c-0.2,0.2-0.4,0.4-0.5,0.7l-0.1,0.1c-0.4,0.8-0.5,1.7-0.1,2.7l25.8,94h47.6H647l-25.9-94.3
					c-0.3-1-0.8-1.8-1.6-2.5c-0.8-0.7-1.6-1.1-2.4-1.1H487.4C487.1,154.5,486.8,154.6,486.6,154.6 M491.6,161.8h125.1l23,83.4H514.5
					L491.6,161.8z"/>
				<path fill="#F7571A" d="M230.8,245.3l22.9-83.4H128.6l-23,83.4H230.8 M135.8,171.6h105.1H135.8 M129.9,192.6h105.2H129.9
					 M124.2,213.6h105.2H124.2 M118.4,234.8h105.2H118.4 M121.3,224.1h96.3H121.3 M127.1,203.1h82.8H127.1 M132.9,182.1h92.3H132.9z
					"/>
				<path fill="#BAD727" d="M616.7,161.8H491.6l22.9,83.4h125.1L616.7,161.8 M507.4,182.3h96.4H507.4 M510.2,192.8h105.1H510.2
					 M504.4,171.6h105.1H504.4 M518.8,224.3h92.4H518.8 M516,213.8h105.1H516 M521.8,234.8h105.2H521.8 M513.1,203.3H596H513.1z"/>
			</g>
		</g>
		<g>
			<path id="Layer3_0_1_STROKES" fill="none" stroke="#000000" stroke-miterlimit="10" d="M647,252.4h47.6v4c0,0.3,0,0.6-0.1,0.9
				c-0.1,0.8-0.5,1.5-1,2.2c-0.7,0.9-1.6,1.3-2.6,1.3H562.2h-47.5c-1,0-1.9-0.4-2.6-1.3c-0.5-0.6-0.9-1.3-1-2.2
				c0-0.3-0.1-0.6-0.1-0.9v-1.6h-3.4l-25.8-93.9c-0.3-1.1-0.2-2,0.2-2.8c0.1-0.2,0.1-0.3,0.3-0.4c0.1-0.1,0.1-0.2,0.3-0.3
				c0.1-0.1,0.1-0.1,0.2-0.1l3.3-2.4c0.1-0.1,0.3-0.2,0.4-0.2c0.1-0.1,0.1-0.1,0.3-0.1c0.2-0.1,0.5-0.1,0.8-0.1h129.8
				c0.8,0,1.6,0.4,2.4,1.1c0.8,0.7,1.3,1.5,1.6,2.5L647,252.4h-88.4v4c0,0.3,0,0.6,0,0.9h135.8 M514.5,245.3h125.1l-23-83.4H491.6
				L514.5,245.3z M486,154.9c-0.2,0.2-0.4,0.4-0.5,0.7l-0.1,0.1c-0.4,0.8-0.5,1.7-0.1,2.7l25.8,94h47.6 M507.6,254.8l3.4-2.4v2.4
				h0.5 M562.2,260.8c-1,0-1.8-0.5-2.5-1.3c-0.5-0.6-0.9-1.3-1-2.2h-47.6 M259.3,154.9l3.3,2.3c0,0,0.1,0.1,0.1,0.1
				c0.1,0.1,0.2,0.2,0.3,0.3c0.1,0.1,0.2,0.3,0.3,0.4c0.4,0.8,0.5,1.7,0.2,2.8l-25.8,93.9h-3.4v1.6c0,0.3,0,0.6-0.1,0.9
				c-0.1,0.8-0.5,1.6-1,2.2c-0.7,0.9-1.6,1.3-2.6,1.3h-47.5H54.3c-1,0-1.9-0.4-2.6-1.3c-0.5-0.6-0.8-1.4-1-2.2
				c-0.1-0.3-0.1-0.6-0.1-0.9v-4h47.6l25.9-94.3c0.3-1,0.8-1.8,1.6-2.5c0.8-0.7,1.6-1.1,2.4-1.1h129.8c0.3,0,0.6,0,0.8,0.1
				c0.1,0,0.2,0.1,0.3,0.1C259.1,154.8,259.2,154.9,259.3,154.9c0.2,0.2,0.4,0.4,0.5,0.7c0,0,0,0,0,0.1c0.4,0.8,0.5,1.7,0.2,2.7
				l-25.8,94l3.4,2.4 M186.6,257.3c0-0.3,0-0.6,0-0.9v-4H98.3 M183.1,260.8c1,0,1.8-0.5,2.5-1.3c0.5-0.6,0.9-1.3,1-2.2H50.8
				 M233.8,254.8h0.5v-2.4h-47.6 M234.2,257.3h-47.6 M230.8,245.3H105.7l23-83.4h125.1L230.8,245.3z"/>
		</g>
		<g>
			<path id="Layer3_0_2_STROKES" fill="none" stroke="#3A6FBB" stroke-miterlimit="10" d="M507.4,182.3h96.4 M510.2,192.8h105.1
				 M504.4,171.6h105.1 M518.8,224.3h92.4 M516,213.8h105.1 M521.8,234.8h105.2 M513.1,203.3H596"/>
		</g>
		<g>
			<path id="Layer3_0_3_STROKES" fill="none" stroke="#FFFFFF" stroke-miterlimit="10" d="M135.8,171.6h105.1 M129.9,192.6h105.2
				 M124.2,213.6h105.2 M118.4,234.8h105.2 M121.3,224.1h96.3 M127.1,203.1h82.8 M132.9,182.1h92.3"/>
		</g>
	</g>
</g>
<g id="middle">
	<g transform="matrix( 1, 0, 0, 1, 0,0) ">
		<g>
			<path id="Layer2_0_1_STROKES" fill="none" stroke="#A3A3A3" stroke-miterlimit="10" d="M327.5,246.3
				c-12.3-12.5-18.4-27.6-18.3-45.3c0.1-17.6,6.4-32.6,19-45c12.6-12.3,27.7-18.5,45.3-18.4c17.6,0.1,32.5,6.5,44.8,19.1
				c12.4,12.5,18.5,27.6,18.5,45.3c-0.2,17.6-6.5,32.6-19,44.9"/>
		</g>
	</g>
	<g transform="matrix( 1, 0, 0, 1, -384.2,-68.35) ">
		<g>
			<g id="Layer2_1_FILL">
				<path fill="#2C538A" d="M809.6,252.9c-4.7-14.7-14-25.6-27.8-32.6c-13.8-7.1-28-8.2-42.7-3.5c-14.7,4.8-25.6,14-32.7,27.8
					c-7,13.8-8.2,28-3.5,42.7c4.7,14.7,14,25.6,27.8,32.6c13.8,7.1,28,8.2,42.7,3.5c14.7-4.7,25.6-14,32.6-27.8
					C813.1,281.9,814.3,267.6,809.6,252.9z"/>
			</g>
		</g>
	</g>
</g>
<g id="icon">
	<g transform="matrix( 1, 0, 0, 1, 0,0) ">
		<g>
			<path id="Layer1_0_1_STROKES" fill="none" stroke="#FFFFFF" stroke-linecap="round" stroke-linejoin="round" d="M363.5,164.6h4.5
				h8.8h4.5 M368,164.6l0.1,12.1c1.4-0.2,2.8-0.4,4.3-0.4c1.5,0,3,0.1,4.5,0.4v-12.1 M376.8,176.8c5.9,0.9,11,3.5,15.4,7.9l5.3-5.3
				l-1.5-1.5 M397.4,179.4l1.5,1.5 M392.1,184.6c5.4,5.5,8.1,12.1,8.1,19.8c0,7.7-2.7,14.3-8.1,19.8c-5.5,5.4-12.1,8.1-19.9,8.1
				c-7.7,0-14.3-2.7-19.7-8.1c-5.5-5.5-8.3-12.1-8.3-19.8c0-7.7,2.8-14.3,8.3-19.8c4.4-4.5,9.5-7.1,15.4-7.9 M372.3,204.4
				l-13.2-13.3"/>
		</g>
	</g>
</g>
</svg>
