<?xml version="1.0" encoding="utf-8"?>
<!-- Generator: Adobe Illustrator 23.0.1, SVG Export Plug-In . SVG Version: 6.00 Build 0)  -->
<svg version="1.1" id="Layer_qwe1" xmlns="http://www.w3.org/2000/svg" xmlns:xlink="http://www.w3.org/1999/xlink" x="0px" y="0px"
	 viewBox="0 0 750 400" enable-background="new 0 0 750 400" xml:space="preserve">
<g id="clouds_bits">
	<g transform="matrix( 0.465576171875, 0, 0, 0.465576171875, 123.65,319.4) " opacity="0.17">
		<g>
			<g transform="matrix( 1, 0, 0, 1, 0,0) ">
				<g>
					<g id="flash0_ai_0_Layer_1__Path__32_0_Layer0_0_FILL">
						<path fill="#3D3D3D" d="M268.4,42.6c-3.7-3.5-8-5.2-13.1-5.2c-2.7,0-5.3,0.5-7.8,1.6c-2.4,1-4.5,2.5-6.3,4.4
							c-3-7.4-7.8-13.4-14.4-18c-6.8-4.7-14.3-7.1-22.5-7.1c-5.4,0-10.6,1-15.5,3.1c-4.8,2-9,4.8-12.7,8.5
							c-5.3-3.5-11.1-5.3-17.4-5.3c-4.1,0-8.1,0.8-12,2.3c-1.3-5.5-4.2-10-8.7-13.5c-4.5-3.6-9.7-5.4-15.5-5.4
							c-4.6,0-8.9,1.2-12.9,3.6c-3.9,2.4-6.9,5.5-9,9.5C95.5,14.6,89,9.5,81.5,5.8C73.6,1.9,65.3,0,56.6,0C41.2,0,28,5.4,17,16.2
							C6,26.9,0.4,39.9,0,55.3h274.5C274.1,50.3,272.1,46,268.4,42.6z"/>
					</g>
				</g>
			</g>
		</g>
	</g>
	<g transform="matrix( 1, 0, 0, 1, 36.3,35.45) " opacity="0.17">
		<g transform="matrix( 1, 0, 0, 1, 0,0) ">
			<g>
				<g id="flash0_ai_0_Layer_1__Path__31_0_Layer0_0_FILL">
					<path fill="#3D3D3D" d="M189.1,38c-0.2-10.6-4.1-19.5-11.7-26.9C169.8,3.7,160.7,0,150.1,0c-6,0-11.8,1.3-17.2,4
						c-5.2,2.6-9.6,6.1-13.3,10.7c-1.5-2.7-3.5-4.9-6.2-6.5c-2.7-1.7-5.7-2.5-8.9-2.5c-4,0-7.6,1.2-10.7,3.7c-3.1,2.4-5.1,5.5-6,9.3
						c-2.7-1.1-5.4-1.6-8.3-1.6c-4.4,0-8.4,1.2-12,3.6c-2.5-2.5-5.4-4.5-8.7-5.9c-3.4-1.4-7-2.1-10.7-2.1c-5.7,0-10.9,1.6-15.5,4.9
						c-4.6,3.2-7.9,7.3-9.9,12.4c-2.7-2.8-5.9-4.1-9.7-4.1c-3.5,0-6.5,1.2-9,3.6C1.7,31.7,0.3,34.6,0,38H189.1z"/>
				</g>
			</g>
		</g>
	</g>
	<g transform="matrix( 1, 0, 0, 1, 561,55.8) " opacity="0.17">
		<g transform="matrix( 1, 0, 0, 1, 0,0) ">
			<g>
				<g id="flash0_ai_0_Layer_1__Path__19_0_Layer0_0_FILL">
					<path fill="#3D3D3D" d="M87.9,17.7c-0.1-4.9-1.9-9.1-5.4-12.5C79,1.7,74.8,0,69.8,0c-2.8,0-5.5,0.6-8,1.9
						c-2.4,1.2-4.5,2.8-6.1,4.9c-0.7-1.3-1.7-2.3-2.9-3c-1.3-0.8-2.6-1.2-4.1-1.2c-1.8,0-3.5,0.6-5,1.7c-1.4,1.1-2.3,2.5-2.8,4.3
						c-1.3-0.5-2.5-0.7-3.8-0.7c-2,0-3.9,0.6-5.6,1.7c-2.5-2.5-5.5-3.7-9-3.7c-2.7,0-5.1,0.8-7.3,2.2c-2.1,1.5-3.7,3.4-4.6,5.8
						C9.4,12.6,7.9,12,6.2,12c-1.6,0-3,0.6-4.2,1.6s-1.8,2.5-2,4.1H87.9z"/>
				</g>
			</g>
		</g>
	</g>
	<g transform="matrix( 1, 0, 0, 1, -900.8,-998.35) ">
		<g>
			<g id="Layer6_3_MEMBER_0_FILL">
				<path fill="#FEFEFE" d="M1510.3,1033.7c0-0.6-0.2-1.1-0.6-1.5c-0.4-0.4-0.8-0.6-1.4-0.6s-1,0.2-1.4,0.6
					c-0.4,0.4-0.6,0.9-0.6,1.5s0.2,1,0.6,1.4c0.4,0.4,0.9,0.6,1.4,0.6c0.6,0,1-0.2,1.4-0.6
					C1510.2,1034.7,1510.3,1034.2,1510.3,1033.7z"/>
			</g>
		</g>
	</g>
	<g transform="matrix( 1, 0, 0, 1, -900.8,-998.35) ">
		<g>
			<path id="Layer6_3_MEMBER_1_1_STROKES" fill="none" stroke="#A3A3A3" stroke-miterlimit="10" d="M1510.3,1033.7
				c0,0.6-0.2,1-0.6,1.4c-0.4,0.4-0.8,0.6-1.4,0.6c-0.5,0-1-0.2-1.4-0.6c-0.4-0.4-0.6-0.8-0.6-1.4s0.2-1.1,0.6-1.5
				c0.4-0.4,0.8-0.6,1.4-0.6s1,0.2,1.4,0.6C1510.2,1032.6,1510.3,1033.1,1510.3,1033.7z"/>
		</g>
	</g>
	<g transform="matrix( 1, 0, 0, 1, -709.9,-842.55) ">
		<g>
			<g id="Layer6_4_FILL">
				<path fill="#BAD727" d="M1214,1098.3c-0.5,0-1,0.2-1.4,0.6c-0.4,0.4-0.5,0.9-0.5,1.4s0.2,1,0.5,1.3c0.4,0.4,0.9,0.5,1.4,0.5
					s1-0.2,1.3-0.5c0.4-0.4,0.6-0.8,0.6-1.3s-0.2-1-0.6-1.4C1215,1098.5,1214.5,1098.3,1214,1098.3z"/>
			</g>
		</g>
	</g>
	<g transform="matrix( 1, 0, 0, 1, -863.75,-647.45) ">
		<g>
			<g id="Layer6_5_FILL">
				<path fill="#BAD727" d="M1516.6,870.3c0-0.5-0.2-1-0.6-1.4c-0.4-0.4-0.8-0.6-1.3-0.6c-0.5,0-1,0.2-1.3,0.6
					c-0.4,0.4-0.6,0.9-0.6,1.4c0,0.5,0.2,1,0.6,1.4c0.4,0.4,0.8,0.5,1.3,0.5c0.5,0,1-0.2,1.3-0.5S1516.6,870.8,1516.6,870.3z"/>
			</g>
		</g>
	</g>
	<g transform="matrix( 1, 0, 0, 1, -947,-705.6) ">
		<g>
			<g id="Layer6_6_FILL">
				<path fill="#BAD727" d="M1196.3,999c0-0.5-0.2-1-0.6-1.3c-0.4-0.4-0.8-0.5-1.3-0.5c-0.5,0-1,0.2-1.3,0.5
					c-0.4,0.4-0.6,0.8-0.6,1.3s0.2,1,0.6,1.4c0.4,0.4,0.8,0.6,1.3,0.6c0.5,0,1-0.2,1.3-0.6C1196.1,1000,1196.3,999.6,1196.3,999z"/>
			</g>
		</g>
	</g>
	<g transform="matrix( 1, 0, 0, 1, -847.4,-666.45) ">
		<g>
			<g id="Layer6_7_FILL">
				<path fill="#F7571A" d="M1179.7,836.3c0-0.5-0.2-1-0.6-1.3c-0.4-0.4-0.8-0.5-1.4-0.5c-0.5,0-1,0.2-1.3,0.5
					c-0.4,0.4-0.5,0.8-0.5,1.3s0.2,1,0.5,1.4c0.4,0.4,0.8,0.5,1.3,0.5s1-0.2,1.4-0.5C1179.5,837.3,1179.7,836.8,1179.7,836.3z"/>
			</g>
		</g>
	</g>
	<g transform="matrix( 1, 0, 0, 1, -915.65,-711.15) ">
		<g>
			<g id="Layer6_8_FILL">
				<path fill="#F7571A" d="M1415.7,755.8c0-0.5-0.2-1-0.5-1.3c-0.4-0.4-0.8-0.5-1.3-0.5c-0.5,0-1,0.2-1.4,0.5
					c-0.4,0.4-0.6,0.8-0.6,1.3s0.2,1,0.6,1.4c0.4,0.4,0.9,0.5,1.4,0.5c0.5,0,1-0.2,1.3-0.5C1415.5,756.8,1415.7,756.3,1415.7,755.8z
					"/>
			</g>
		</g>
	</g>
	<g transform="matrix( 1, 0, 0, 1, -872.25,-795.2) ">
		<g>
			<g id="Layer6_9_FILL">
				<path fill="#DEDEDE" d="M981.8,950.5c0-1.1-0.4-2-1.2-2.8c-0.7-0.7-1.6-1.1-2.7-1.1c-1.1,0-2,0.4-2.7,1.1
					c-0.8,0.8-1.2,1.7-1.2,2.8c0,1,0.4,1.9,1.2,2.7c0.7,0.7,1.6,1.1,2.7,1.1c1.1,0,2-0.4,2.7-1.1
					C981.4,952.4,981.8,951.5,981.8,950.5z"/>
			</g>
		</g>
	</g>
	<g transform="matrix( 1, 0, 0, 1, -928.85,-711.6) ">
		<g>
			<g id="Layer6_10_FILL">
				<path fill="#DEDEDE" d="M1168.8,805.2c0-0.5-0.2-1-0.6-1.4c-0.4-0.4-0.8-0.5-1.3-0.5c-0.5,0-1,0.2-1.3,0.5s-0.6,0.8-0.6,1.4
					s0.2,1,0.6,1.4c0.4,0.4,0.8,0.6,1.3,0.6c0.5,0,1-0.2,1.3-0.6C1168.6,806.2,1168.8,805.7,1168.8,805.2z"/>
			</g>
		</g>
	</g>
	<g transform="matrix( 1, 0, 0, 1, -950.5,-745.3) ">
		<g>
			<g id="Layer6_11_FILL">
				<path fill="#D1D1D1" d="M1426.2,1098.7c0-1.1-0.4-2-1.1-2.7c-0.8-0.7-1.7-1.1-2.8-1.1s-2,0.4-2.7,1.1c-0.8,0.8-1.2,1.7-1.2,2.7
					c0,1.1,0.4,2,1.2,2.8c0.7,0.7,1.6,1.1,2.7,1.1s2-0.4,2.8-1.1C1425.8,1100.7,1426.2,1099.8,1426.2,1098.7z"/>
			</g>
		</g>
	</g>
	<g transform="matrix( 1, 0, 0, 1, -961.85,-794.1) ">
		<g>
			<path id="Layer6_12_1_STROKES" fill="none" stroke="#BFBFBF" stroke-width="2" stroke-miterlimit="10" d="M1379.2,843.9
				c0,0.9-0.3,1.6-0.9,2.3s-1.4,0.9-2.3,0.9c-0.9,0-1.7-0.3-2.3-0.9c-0.6-0.6-0.9-1.4-0.9-2.3c0-0.9,0.3-1.7,0.9-2.3
				c0.6-0.6,1.4-0.9,2.3-0.9c0.9,0,1.6,0.3,2.3,0.9S1379.2,843,1379.2,843.9z"/>
		</g>
	</g>
	<g transform="matrix( 1, 0, 0, 1, -747.65,-743.85) ">
		<g>
			<path id="Layer6_13_1_STROKES" fill="none" stroke="#BFBFBF" stroke-width="2" stroke-miterlimit="10" d="M1260.1,1066.4
				c0,0.9-0.3,1.7-0.9,2.3c-0.6,0.6-1.4,0.9-2.3,0.9c-0.9,0-1.7-0.3-2.3-0.9c-0.6-0.6-0.9-1.4-0.9-2.3c0-0.9,0.3-1.6,0.9-2.3
				c0.6-0.6,1.4-0.9,2.3-0.9c0.9,0,1.6,0.3,2.3,0.9C1259.8,1064.8,1260.1,1065.6,1260.1,1066.4z"/>
		</g>
	</g>
	<g transform="matrix( 1, 0, 0, 1, -811.8,-628.4) ">
		<g>
			<path id="Layer6_14_1_STROKES" fill="none" stroke="#BFBFBF" stroke-width="2" stroke-miterlimit="10" d="M1201.1,779.3
				c0,0.9-0.3,1.6-0.9,2.3c-0.6,0.6-1.4,1-2.3,1c-0.9,0-1.6-0.3-2.3-1c-0.6-0.6-0.9-1.4-0.9-2.3c0-0.9,0.3-1.7,0.9-2.3
				c0.6-0.6,1.4-1,2.3-1c0.9,0,1.7,0.3,2.3,1C1200.8,777.7,1201.1,778.5,1201.1,779.3z"/>
		</g>
	</g>
	<g transform="matrix( 1, 0, 0, 1, -1008.95,-721.8) ">
		<g>
			<g id="Layer6_15_MEMBER_0_FILL">
				<path fill="#83C4EC" d="M1112.8,821.6c0-0.6-0.3-0.9-0.9-0.9h-7.1c-0.3,0-0.5,0.1-0.7,0.3c-0.2,0.2-0.3,0.4-0.3,0.7
					c0,0.3,0.1,0.5,0.3,0.7c0.2,0.2,0.4,0.3,0.7,0.3h7.1c0.3,0,0.5-0.1,0.7-0.3C1112.7,822.1,1112.8,821.9,1112.8,821.6z"/>
			</g>
		</g>
	</g>
	<g transform="matrix( 1, 0, 0, 1, -1008.95,-721.8) ">
		<g>
			<g id="Layer6_15_MEMBER_1_FILL">
				<path fill="#83C4EC" d="M1109.3,818.1c0-0.3-0.1-0.5-0.3-0.7c-0.2-0.2-0.4-0.3-0.6-0.3c-0.3,0-0.5,0.1-0.7,0.3
					c-0.2,0.2-0.3,0.4-0.3,0.7v7c0,0.6,0.3,1,1,1c0.3,0,0.5-0.1,0.6-0.3c0.2-0.2,0.3-0.4,0.3-0.7V818.1z"/>
			</g>
		</g>
	</g>
	<g transform="matrix( 1, 0, 0, 1, -931.65,-660.35) ">
		<g>
			<g id="Layer6_16_MEMBER_0_FILL">
				<path fill="#83C4EC" d="M1016.5,999.9c0.3,0,0.5-0.1,0.7-0.3c0.2-0.2,0.3-0.4,0.3-0.6c0-0.3-0.1-0.5-0.3-0.7
					c-0.2-0.2-0.4-0.3-0.7-0.3h-7c-0.3,0-0.5,0.1-0.7,0.3c-0.2,0.2-0.3,0.4-0.3,0.7c0,0.3,0.1,0.5,0.3,0.6c0.2,0.2,0.4,0.3,0.7,0.3
					H1016.5z"/>
			</g>
		</g>
	</g>
	<g transform="matrix( 1, 0, 0, 1, -931.65,-660.35) ">
		<g>
			<g id="Layer6_16_MEMBER_1_FILL">
				<path fill="#83C4EC" d="M1013,1003.4c0.6,0,1-0.3,1-1v-7c0-0.3-0.1-0.5-0.3-0.7c-0.2-0.2-0.4-0.3-0.7-0.3
					c-0.2,0-0.5,0.1-0.7,0.3c-0.2,0.2-0.3,0.4-0.3,0.7v7c0,0.3,0.1,0.5,0.3,0.7C1012.5,1003.3,1012.7,1003.4,1013,1003.4z"/>
			</g>
		</g>
	</g>
	<g transform="matrix( 1, 0, 0, 1, -990.05,-703.5) ">
		<g>
			<g id="Layer6_17_MEMBER_0_FILL">
				<path fill="#83C4EC" d="M1545.8,1057.2c0.6,0,0.9-0.3,0.9-0.9c0-0.3-0.1-0.5-0.3-0.7c-0.2-0.2-0.4-0.3-0.7-0.3h-7.1
					c-0.2,0-0.5,0.1-0.7,0.3s-0.3,0.4-0.3,0.7c0,0.3,0.1,0.5,0.3,0.7c0.2,0.2,0.4,0.3,0.7,0.3H1545.8z"/>
			</g>
		</g>
	</g>
	<g transform="matrix( 1, 0, 0, 1, -990.05,-703.5) ">
		<g>
			<g id="Layer6_17_MEMBER_1_FILL">
				<path fill="#83C4EC" d="M1542.3,1060.8c0.3,0,0.5-0.1,0.6-0.3c0.2-0.2,0.3-0.4,0.3-0.6v-7.1c0-0.3-0.1-0.5-0.3-0.7
					c-0.2-0.2-0.4-0.3-0.6-0.3c-0.6,0-1,0.3-1,0.9v7.1c0,0.3,0.1,0.5,0.3,0.6C1541.8,1060.7,1542,1060.8,1542.3,1060.8z"/>
			</g>
		</g>
	</g>
	<g transform="matrix( 1, 0, 0, 1, -957.45,-812.8) ">
		<g>
			<g id="Layer6_18_MEMBER_0_FILL">
				<path fill="#83C4EC" d="M1498.6,899.7c0.6,0,1-0.3,1-1c0-0.6-0.3-1-1-1h-7c-0.3,0-0.5,0.1-0.7,0.3c-0.2,0.2-0.3,0.4-0.3,0.7
					c0,0.3,0.1,0.5,0.3,0.7c0.2,0.2,0.4,0.3,0.7,0.3H1498.6z"/>
			</g>
		</g>
	</g>
	<g transform="matrix( 1, 0, 0, 1, -957.45,-812.8) ">
		<g>
			<g id="Layer6_18_MEMBER_1_FILL">
				<path fill="#83C4EC" d="M1494.4,894.5c-0.2,0.2-0.3,0.4-0.3,0.7v7c0,0.3,0.1,0.5,0.3,0.7s0.4,0.3,0.7,0.3c0.3,0,0.5-0.1,0.7-0.3
					c0.2-0.2,0.3-0.4,0.3-0.7v-7c0-0.3-0.1-0.5-0.3-0.7c-0.2-0.2-0.4-0.3-0.7-0.3C1494.8,894.2,1494.6,894.3,1494.4,894.5z"/>
			</g>
		</g>
	</g>
	<g transform="matrix( 1, 0, 0, 1, -938.05,-706.35) ">
		<g>
			<g id="Layer6_19_MEMBER_0_FILL">
				<path fill="#83C4EC" d="M1138.6,1079.2c-0.3,0-0.5,0.1-0.7,0.3c-0.2,0.2-0.3,0.4-0.3,0.7c0,0.3,0.1,0.5,0.3,0.7
					c0.2,0.2,0.4,0.3,0.7,0.3h7c0.3,0,0.5-0.1,0.7-0.3c0.2-0.2,0.3-0.4,0.3-0.7c0-0.3-0.1-0.5-0.3-0.7c-0.2-0.2-0.4-0.3-0.7-0.3
					H1138.6z"/>
			</g>
		</g>
	</g>
	<g transform="matrix( 1, 0, 0, 1, -938.05,-706.35) ">
		<g>
			<g id="Layer6_19_MEMBER_1_FILL">
				<path fill="#83C4EC" d="M1143,1076.6c0-0.3-0.1-0.5-0.3-0.7c-0.2-0.2-0.4-0.3-0.7-0.3c-0.3,0-0.5,0.1-0.7,0.3
					c-0.2,0.2-0.3,0.4-0.3,0.7v7c0,0.3,0.1,0.5,0.3,0.7c0.2,0.2,0.4,0.3,0.7,0.3c0.3,0,0.5-0.1,0.7-0.3c0.2-0.2,0.3-0.4,0.3-0.7
					V1076.6z"/>
			</g>
		</g>
	</g>
	<g transform="matrix( 1, 0, 0, 1, -904.05,-723.9) ">
		<g>
			<g id="Layer6_20_MEMBER_0_FILL">
				<path fill="#83C4EC" d="M1340.4,1098.6c0.3,0,0.5-0.1,0.7-0.3c0.2-0.2,0.3-0.4,0.3-0.7c0-0.3-0.1-0.5-0.3-0.7
					c-0.2-0.2-0.4-0.3-0.7-0.3h-7c-0.3,0-0.5,0.1-0.7,0.3c-0.2,0.2-0.3,0.4-0.3,0.7c0,0.3,0.1,0.5,0.3,0.7c0.2,0.2,0.4,0.3,0.7,0.3
					H1340.4z"/>
			</g>
		</g>
	</g>
	<g transform="matrix( 1, 0, 0, 1, -904.05,-723.9) ">
		<g>
			<g id="Layer6_20_MEMBER_1_FILL">
				<path fill="#83C4EC" d="M1336.9,1102.2c0.3,0,0.5-0.1,0.7-0.3c0.2-0.2,0.3-0.4,0.3-0.7v-7c0-0.6-0.3-1-0.9-1c-0.6,0-1,0.3-1,1v7
					c0,0.3,0.1,0.5,0.3,0.7C1336.4,1102,1336.6,1102.2,1336.9,1102.2z"/>
			</g>
		</g>
	</g>
	<g transform="matrix( 1, 0, 0, 1, -899.25,-792.85) ">
		<g>
			<g id="Layer6_21_FILL">
				<path fill="#BFBFBF" d="M1105.7,1012.4l-3-5.2h-6l-3,5.2l3,5.2h6L1105.7,1012.4 M1101.8,1008.7l2.2,3.8l-2.2,3.8h-4.3l-2.2-3.8
					l2.2-3.8H1101.8z"/>
			</g>
		</g>
	</g>
	<g transform="matrix( 1, 0, 0, 1, -902.9,-705.6) ">
		<g>
			<g id="Layer6_22_FILL">
				<path fill="#BFBFBF" d="M1424,807.3l3.1,5.3h6l3-5.3l-3-5.2h-6L1424,807.3 M1427.8,803.6h4.3l2.2,3.8l-2.2,3.8h-4.3l-2.2-3.8
					L1427.8,803.6z"/>
			</g>
		</g>
	</g>
</g>
<g id="circles">
	<g transform="matrix( 1, 0, 0, 1, 0,0) ">
		<g>
			<path id="Layer5_0_1_STROKES" fill="none" stroke="#A3A3A3" stroke-miterlimit="10" d="M573.5,309.6c-4-12.5-3-24.5,3-36.2
				c5.9-11.7,15.1-19.5,27.6-23.5c12.5-4,24.5-3.1,36.2,2.9c11.7,6,19.5,15.2,23.5,27.7c4,12.5,3,24.6-2.9,36.3
				c-6,11.7-15.2,19.5-27.7,23.5 M593.3,217.9c-16.6,0-30.8-5.9-42.5-17.6c-11.7-11.7-17.6-25.9-17.6-42.6
				c0-16.6,5.9-30.8,17.6-42.6c11.8-11.8,26-17.7,42.5-17.7s30.8,5.9,42.5,17.7c11.7,11.8,17.6,25.9,17.6,42.6 M507.9,133.1
				c-6,11.7-15.3,19.6-27.9,23.7c-12.6,4.1-24.7,3.1-36.5-2.9c-11.8-6-19.7-15.3-23.8-27.9c-4.1-12.6-3.1-24.7,3-36.4
				c6-11.8,15.3-19.7,27.9-23.8c12.6-4,24.7-3,36.5,3 M300.5,20.5c16.9-5.5,33.2-4.1,49,3.9c15.8,8.1,26.4,20.6,31.9,37.4
				c5.4,16.9,4.1,33.2-4,49.1c-8,15.8-20.5,26.4-37.4,31.8c-16.9,5.4-33.3,4.1-49.1-4c-15.8-8.1-26.4-20.6-31.9-37.4 M133.9,154.4
				c-4-12.6-3-24.8,2.9-36.5c6-11.8,15.3-19.7,27.9-23.8c12.6-4,24.8-3,36.6,3c11.7,6,19.6,15.3,23.6,27.9c4,12.6,3.1,24.7-2.9,36.5
				c-6,11.7-15.3,19.6-27.9,23.7 M92.9,287c-9.4-9.4-14.1-20.8-14.1-34.1c0-13.3,4.7-24.6,14.1-34c9.4-9.4,20.8-14.1,34-14.1
				c13.3,0,24.7,4.6,34.1,14.1c9.4,9.4,14.1,20.8,14.1,34.1c0,13.3-4.7,24.7-14.1,34.1"/>
		</g>
	</g>
	<g transform="matrix( 1.2460174560546875, 0, 0, 1.2460174560546875, 129.35,-172.95) ">
		<g>
			<g id="Layer5_1_FILL">
				<path fill="#BAD727" d="M195.8,190.5c-3.8-11.8-11.2-20.5-22.2-26.1c-11-5.6-22.4-6.6-34.2-2.8c-11.8,3.8-20.5,11.2-26.2,22.2
					c-5.6,11-6.5,22.4-2.8,34.2c3.8,11.8,11.2,20.5,22.2,26.2c11,5.6,22.4,6.6,34.2,2.8c11.8-3.8,20.5-11.2,26.2-22.2
					C198.7,213.7,199.6,202.3,195.8,190.5z"/>
			</g>
		</g>
	</g>
	<g transform="matrix( 1, 0, 0, 1, -800.35,-224.45) ">
		<g>
			<g id="Layer5_2_FILL">
				<path fill="#F7571A" d="M966,477.4c0-10.7-3.8-19.8-11.3-27.4c-7.6-7.6-16.7-11.4-27.4-11.4c-10.7,0-19.8,3.8-27.3,11.4
					c-7.5,7.5-11.3,16.6-11.3,27.4c0,10.7,3.8,19.8,11.3,27.4c7.6,7.5,16.7,11.3,27.3,11.3c10.7,0,19.8-3.8,27.4-11.3
					C962.2,497.1,966,488,966,477.4z"/>
			</g>
		</g>
	</g>
	<g transform="matrix( 0.7498016357421875, 0, 0, 0.7498016357421875, -387.6,-62.85) ">
		<g>
			<g id="Layer5_3_FILL">
				<path fill="#2C538A" d="M809.6,252.9c-4.7-14.7-14-25.6-27.8-32.6c-13.8-7.1-28-8.2-42.7-3.5c-14.7,4.8-25.6,14-32.7,27.7
					c-7,13.8-8.2,28-3.5,42.7c4.7,14.7,14,25.6,27.8,32.6c13.8,7.1,28,8.2,42.7,3.5c14.7-4.7,25.6-14,32.6-27.8
					C813.1,281.9,814.3,267.6,809.6,252.9z"/>
			</g>
		</g>
	</g>
	<g transform="matrix( 0.7498016357421875, 0, 0, 0.7498016357421875, -101.25,-91.1) ">
		<g>
			<g id="Layer5_4_FILL">
				<path fill="#2C538A" d="M809.6,252.9c-4.7-14.7-14-25.6-27.8-32.6c-13.8-7.1-28-8.2-42.7-3.5c-14.7,4.8-25.6,14-32.7,27.7
					c-7,13.8-8.2,28-3.5,42.7c4.7,14.7,14,25.6,27.8,32.6c13.8,7.1,28,8.2,42.7,3.5c14.7-4.7,25.6-14,32.6-27.8
					C813.1,281.9,814.3,267.6,809.6,252.9z"/>
			</g>
		</g>
	</g>
	<g transform="matrix( 1.24920654296875, 0, 0, 1.24920654296875, -565.15,-438.5) ">
		<g>
			<g id="Layer5_5_FILL">
				<path fill="#F7571A" d="M966,477.3c0-10.7-3.8-19.8-11.3-27.3c-7.6-7.6-16.7-11.4-27.4-11.4c-10.7,0-19.8,3.8-27.3,11.4
					c-7.5,7.5-11.3,16.6-11.3,27.3c0,10.7,3.8,19.8,11.3,27.4c7.6,7.5,16.7,11.3,27.3,11.3c10.7,0,19.8-3.8,27.4-11.3
					C962.2,497.1,966,488,966,477.3z"/>
			</g>
		</g>
	</g>
	<g transform="matrix( 0.920623779296875, 0, 0, 0.920623779296875, 478,106.95) ">
		<g>
			<g id="Layer5_6_FILL">
				<path fill="#BAD727" d="M195.8,190.5c-3.8-11.8-11.2-20.5-22.2-26.1c-11-5.6-22.4-6.6-34.2-2.8c-11.8,3.8-20.5,11.2-26.1,22.2
					c-5.6,11-6.5,22.4-2.7,34.2c3.8,11.8,11.2,20.5,22.2,26.1c11,5.6,22.4,6.6,34.2,2.8c11.8-3.8,20.5-11.2,26.2-22.2
					C198.7,213.7,199.6,202.3,195.8,190.5z"/>
			</g>
		</g>
	</g>
</g>
<g id="monitor">
	<g transform="matrix( 1, 0, 0, 1, 279,211.6) ">
		<g transform="matrix( 1, 0, 0, 1, 0,0) ">
			<g>
				<g id="monitor_0_Layer1_0_FILL">
					<path fill="#CACACA" d="M81.8,133.1h33.7v-21H81.8V133.1 M76.8,133.1h-9.9c-1.3,0-2.4,0.5-3.4,1.5c-0.7,0.7-1.1,1.6-1.3,2.5
						H135c-0.2-0.9-0.7-1.8-1.4-2.5c-1-1-2.2-1.5-3.6-1.5h-14.7H81.8H76.8 M62,138.1v4.7h73.1v-4.6c0-0.4,0-0.7-0.1-1.1H62.1
						C62,137.4,62,137.8,62,138.1 M192.8,4.4c0-1.2-0.4-2.3-1.3-3.1S189.6,0,188.4,0H9.1C7.9,0,7,0.4,6.2,1.2C5.4,2,5,3,5,4.1v104.1
						c0,1.1,0.4,2,1.2,2.8s1.7,1.2,2.9,1.2h67.7h5h33.7h73.1c1.2,0,2.2-0.5,3-1.3c0.8-0.8,1.3-1.8,1.3-3V4.4 M185.3,8.4v95.7H12.5
						V8.4H185.3z"/>
					<path fill="#828282" d="M76.8,112.2v21h5v-21H76.8 M57,137.1v5.7h5v-4.7c0-0.3,0-0.7,0.1-1H57 M58.4,134.6
						c-0.7,0.7-1.2,1.6-1.4,2.5h5.1c0.2-0.9,0.6-1.8,1.3-2.5c1-0.9,2.1-1.4,3.4-1.5h-4.9C60.6,133.1,59.4,133.6,58.4,134.6 M9.1,0
						H4.2C3,0,2,0.4,1.2,1.2S0,3,0,4.1v104.1c0,1.1,0.4,2,1.2,2.8s1.7,1.2,2.9,1.2h5c-1.1,0-2.1-0.4-2.9-1.2S5,109.3,5,108.2V4.1
						C5,3,5.4,2,6.2,1.2C7,0.4,7.9,0,9.1,0z"/>
					<path fill="#FFFFFF" d="M185.3,104.1V8.4H12.5v95.7H185.3z"/>
				</g>
			</g>
			<g>
				<path id="monitor_0_Layer1_0_1_STROKES" fill="none" stroke="#000000" stroke-miterlimit="10" d="M9.1,0h179.3
					c1.2,0,2.3,0.4,3.1,1.3s1.3,1.9,1.3,3.1v103.4c0,1.2-0.5,2.2-1.3,3c-0.8,0.8-1.8,1.3-3,1.3h-73.1v21h14.7c1.4,0,2.6,0.5,3.6,1.5
					c0.7,0.7,1.2,1.6,1.4,2.5c0.1,0.4,0.1,0.7,0.1,1.1v4.6H62h-5v-5.7c0.2-0.9,0.7-1.8,1.4-2.5c1-1,2.2-1.5,3.5-1.5h4.9h9.9v-21H9.1
					h-5c-1.1,0-2.1-0.4-2.9-1.2S0,109.3,0,108.2V4.1C0,3,0.4,2,1.2,1.2S3,0,4.2,0H9.1C7.9,0,7,0.4,6.2,1.2C5.4,2,5,3,5,4.1v104.1
					c0,1.1,0.4,2,1.2,2.8s1.7,1.2,2.9,1.2 M185.3,104.1H12.5V8.4h172.8V104.1z M62.1,137.1c-0.1,0.3-0.1,0.7-0.1,1v4.7 M66.8,133.1
					c-1.3,0-2.4,0.5-3.4,1.5c-0.7,0.7-1.1,1.6-1.3,2.5H135 M62.1,137.1H57 M115.4,133.1H81.8h-5 M115.4,112.2H81.8v21 M81.8,112.2
					h-5"/>
			</g>
		</g>
		<g>
			<g transform="matrix( 1, 0, 0, 1, 0,0) ">
				<g>
					<g id="monitor_0_Layer0_0_FILL">
						<path fill="#CACACA" d="M40.4,52.9v7.4h7.4v-7.4H40.4 M40.4,68.2v7.4h7.4v-7.4H40.4 M47.8,45v-7.4h-7.4V45H47.8z"/>
					</g>
				</g>
				<g>
					<path id="monitor_0_Layer0_0_1_STROKES" fill="none" stroke="#000000" stroke-miterlimit="10" d="M40.4,37.6h7.4V45h-7.4V37.6z
						 M40.4,68.2h7.4v7.4h-7.4V68.2z M40.4,52.9h7.4v7.4h-7.4V52.9z"/>
				</g>
			</g>
			<g transform="matrix( 1, 0, 0, 1, 0,0) ">
				<g>
					<g id="monitor_0_Layer0_1_FILL">
						<path fill="#CACACA" d="M155.8,45v-7.4H57V45H155.8z"/>
					</g>
				</g>
				<g>
					<path id="monitor_0_Layer0_1_1_STROKES" fill="none" stroke="#000000" stroke-miterlimit="10" d="M57,37.6h98.8V45H57V37.6z"/>
				</g>
			</g>
			<g transform="matrix( 1, 0, 0, 1, 0,0) ">
				<g>
					<g id="monitor_0_Layer0_2_FILL">
						<path fill="#CACACA" d="M155.8,75.6v-7.4H57v7.4H155.8z"/>
					</g>
				</g>
				<g>
					<path id="monitor_0_Layer0_2_1_STROKES" fill="none" stroke="#000000" stroke-miterlimit="10" d="M57,68.2h98.8v7.4H57V68.2z"
						/>
				</g>
			</g>
			<g transform="matrix( 1, 0, 0, 1, 0,-0.1) ">
				<g>
					<g id="monitor_0_Layer0_3_FILL">
						<path fill="#CACACA" d="M155.8,60.4V53H57v7.4H155.8z"/>
					</g>
				</g>
				<g>
					<path id="monitor_0_Layer0_3_1_STROKES" fill="none" stroke="#000000" stroke-miterlimit="10" d="M57,53h98.8v7.4H57V53z"/>
				</g>
			</g>
		</g>
	</g>
</g>
<g id="icons">
	<g transform="matrix( 1, 0, 0, 1, 0,0) ">
		<g>
			<path id="Layer3_0_1_STROKES" fill="none" stroke="#FFFFFF" stroke-linecap="round" stroke-linejoin="round" d="M128.3,248.4
				h-12.2l-4.1-4.1h-8.1l6.1,12.2h16.3l-12.2,12.3h10.1l12.2-12.3h10.2c1.1,0,2.1-0.4,2.9-1.2s1.2-1.8,1.2-2.9
				c0-1.1-0.4-2.1-1.2-2.8c-0.8-0.8-1.8-1.2-2.9-1.2h-10.2H128.3l-10.2-10.2h8.2l10.1,10.2"/>
		</g>
		<g>
			<path id="Layer3_0_2_STROKES" fill="none" stroke="#FFFFFF" stroke-linejoin="round" d="M472.8,131.4H487v-41h-41v41h14.3v-6.2
				c0-1.7,0.6-3.2,1.9-4.4c1.2-1.2,2.7-1.8,4.4-1.8s3.2,0.6,4.4,1.8c1.2,1.2,1.9,2.7,1.9,4.4V131.4h-12.5 M474.5,102.9v-9h9v9v8.9
				h-9V102.9h9 M462,102.9v-9h8.9v9v8.9H462V102.9h8.9 M449.5,102.9v-9h9v9v8.9h-9V102.9h9 M483.5,117.2h-7.2v8.9h7.2V117.2z
				 M456.7,117.2h-7.2v8.9h7.2V117.2z M165.9,130.6v-8.1h4.8v-4.2h4.3v4.2h16.5v8.1 M170.6,122.6h4.3 M177.4,126.7h2.7 M170.9,126.7
				h2.7 M183.8,126.7h2.7"/>
		</g>
		<g>
			<path id="Layer3_0_3_STROKES" fill="none" stroke="#FFFFFF" stroke-linecap="round" stroke-linejoin="round" d="M570.1,173.1
				h-6.3v-5.1v-8.9l5-5l6.4-11.4h11.3v-5.1H622v30.4v5.1h-6.3c0,1.4-0.5,2.6-1.5,3.6c-1,1-2.2,1.5-3.6,1.5c-1.4,0-2.6-0.5-3.5-1.5
				c-1-1-1.5-2.2-1.5-3.6h-25.3c0,1.4-0.5,2.6-1.5,3.6c-1,1-2.2,1.5-3.5,1.5c-1.4,0-2.6-0.5-3.6-1.5
				C570.6,175.6,570.1,174.4,570.1,173.1c0-1.4,0.5-2.6,1.5-3.6c0.9-1,2.1-1.5,3.5-1.5h-11.3 M581.5,147.7h-3.8l-3.8,7.6
				 M605.5,173.1c0-1.4,0.5-2.6,1.5-3.6c0.9-1,2-1.5,3.4-1.5h-23.9h-11.2c1.3,0,2.5,0.5,3.4,1.5c1,1,1.5,2.2,1.5,3.6 M575,167.9h0.3
				 M610.5,167.9h0.3H622 M610.8,167.9c1.3,0,2.5,0.5,3.4,1.5c1,1,1.5,2.2,1.5,3.6 M586.5,142.7v25.3 M191.4,130.6h4.6
				c0,1.3-0.3,2.6-0.9,3.8c-0.7,1.5-1.5,2.5-2.5,3.1 M201.7,146.6c-1.1,0-2.2-0.4-3.1-1.4c-0.9-0.9-1.4-1.9-1.4-3
				c0,1.1-0.5,2.1-1.4,3c-0.9,0.9-2,1.4-3.1,1.4c-1.2,0-2.3-0.4-3.2-1.4c-1-0.9-1.4-1.9-1.4-3c0,1.1-0.5,2.1-1.4,3
				c-0.9,0.9-1.9,1.4-3.1,1.4c-1.2,0-2.2-0.4-3.1-1.4c-1-0.9-1.4-1.9-1.4-3c0,1.1-0.5,2.1-1.4,3c-0.9,0.9-2,1.4-3.1,1.4
				c-1.2,0-2.3-0.4-3.2-1.4c-1-0.9-1.4-1.9-1.4-3c0,1.1-0.5,2.1-1.4,3c-0.9,0.9-2,1.4-3.2,1.4c-1.2,0-2.2-0.4-3.1-1.4
				c-0.9-0.9-1.4-1.9-1.4-3c0,1.1-0.5,2.1-1.5,3c-0.9,0.9-2,1.4-3.2,1.4 M191.4,130.6h-25.5h-6.4c0,1.4,0.3,2.7,0.9,3.9
				c0.7,1.4,1.7,2.4,2.9,2.9 M201.7,155.8c-1.1,0-2.2-0.4-3.1-1.4c-0.9-0.9-1.4-1.8-1.4-2.9c0,1.1-0.5,2.1-1.4,2.9
				c-0.9,0.9-2,1.4-3.1,1.4c-1.2,0-2.3-0.4-3.2-1.4c-1-0.9-1.4-1.8-1.4-2.9c0,1.1-0.5,2.1-1.4,2.9c-0.9,0.9-1.9,1.4-3.1,1.4
				c-1.2,0-2.2-0.4-3.1-1.4c-1-0.9-1.4-1.8-1.4-2.9c0,1.1-0.5,2.1-1.4,2.9c-0.9,0.9-2,1.4-3.1,1.4c-1.2,0-2.3-0.4-3.2-1.4
				c-1-0.9-1.4-1.8-1.4-2.9c0,1.1-0.5,2.1-1.4,2.9c-0.9,0.9-2,1.4-3.2,1.4c-1.2,0-2.2-0.4-3.1-1.4c-0.9-0.9-1.4-1.8-1.4-2.9
				c0,1.1-0.5,2.1-1.5,2.9c-0.9,0.9-2,1.4-3.2,1.4"/>
		</g>
		<g>
			<path id="Layer3_0_4_STROKES" fill="none" stroke="#3A6FBB" stroke-linecap="round" stroke-linejoin="round" d="M332.3,83.8H345
				 M332.3,78.7H345 M332.3,73.5H345 M332.3,94.1H345 M332.3,88.8H345 M337.4,109.4H327V63.3h23.1v46.2h-7.7H337.4v-5.2h5.1v5.2
				 M332.3,68.3H345 M332.3,99.2H345 M611.5,295h-6.7v-6.7h6.7V295z M638.2,272.7l-4.5-4.5h-29l-4.4,4.5H638.2v46.7h-15.5H616h-15.6
				v-46.7 M611.5,283.9h-6.7v-6.6h6.7V283.9z M633.8,283.9h-6.7v-6.6h6.7V283.9z M622.7,283.9H616v-6.6h6.7V283.9z M622.7,295H616
				v-6.7h6.7V295z M633.8,295h-6.7v-6.7h6.7V295z M633.8,306h-6.7v-6.6h6.7V306z M622.7,306H616v-6.6h6.7V306z M611.5,306h-6.7v-6.6
				h6.7V306z M616,319.4v-8.9h6.7v8.9 M304,58.2h10.3v15.3h5.1v35.9h-12.8h-5.1h-10.3V73.5h5.2V58.2H304v-7.7 M296.4,81.2h17.9
				 M296.4,73.5h17.9 M296.4,88.8h17.9 M301.5,63.3h7.7 M296.4,96.6h17.9 M301.5,68.3h7.7 M306.5,109.4v-5.2h-5.1v5.2"/>
		</g>
	</g>
</g>
<g id="connectors">
	<g transform="matrix( 1, 0, 0, 1, 0,0) ">
		<g>
			<g id="Layer2_0_FILL">
				<path fill="#FEFEFE" d="M177.6,252.9c0,0,0-0.1,0-0.1c0-0.6-0.2-1.1-0.6-1.4c-0.4-0.4-0.8-0.6-1.4-0.6c-0.6,0-1,0.2-1.4,0.6
					c-0.4,0.4-0.6,0.9-0.6,1.4c0,0.5,0.2,1,0.6,1.4c0.4,0.4,0.8,0.6,1.4,0.6c0.5,0,1-0.2,1.4-0.6
					C177.3,253.8,177.5,253.4,177.6,252.9 M282.3,253c0-0.8-0.3-1.4-0.9-2c-0.5-0.6-1.2-0.9-2-0.9c-0.8,0-1.4,0.3-2,0.9
					c-0.5,0.6-0.8,1.2-0.8,1.9v0.1c0,0.8,0.3,1.4,0.8,2c0.6,0.5,1.2,0.8,2,0.8c0.8,0,1.5-0.3,2-0.8C282,254.4,282.3,253.8,282.3,253
					 M223.6,159.5c0,0,0.1,0,0.1,0c0.4,0,0.7-0.1,1-0.4c0.3-0.3,0.4-0.7,0.4-1.1c0-0.4-0.1-0.8-0.4-1.1c-0.3-0.3-0.6-0.4-1-0.4
					c-0.4,0-0.8,0.1-1.1,0.4c-0.3,0.3-0.4,0.6-0.4,1.1c0,0.4,0.2,0.8,0.4,1.1C222.9,159.3,223.2,159.5,223.6,159.5 M304.4,213.4
					c0.6,0.6,1.2,0.8,2,0.8s1.4-0.3,2-0.8c0.5-0.6,0.8-1.2,0.8-2c0-0.8-0.3-1.4-0.8-2c-0.5-0.5-1.1-0.8-1.9-0.8c0,0-0.1,0-0.1,0
					c-0.8,0-1.4,0.3-2,0.8c-0.6,0.6-0.9,1.2-0.9,2C303.5,212.1,303.8,212.8,304.4,213.4 M349.5,140.4c0.4-0.4,0.6-0.8,0.6-1.4
					s-0.2-1-0.6-1.4c-0.4-0.4-0.9-0.6-1.4-0.6c-0.5,0-1,0.2-1.4,0.6c-0.4,0.4-0.6,0.8-0.6,1.4c0,0.5,0.2,1,0.6,1.4
					c0.4,0.4,0.8,0.6,1.3,0.6c0,0,0.1,0,0.1,0C348.7,141,349.1,140.8,349.5,140.4 M349.9,209.4c-0.6-0.5-1.2-0.8-2-0.8h0
					c-0.8,0-1.4,0.3-2,0.8c-0.5,0.6-0.8,1.2-0.8,2c0,0.8,0.3,1.5,0.8,2c0.6,0.6,1.2,0.8,2,0.8s1.4-0.3,2-0.8c0.6-0.5,0.9-1.2,0.9-2
					C350.7,210.6,350.4,209.9,349.9,209.4 M394.1,209.4c-0.6-0.5-1.2-0.8-2-0.8c-0.1,0-0.1,0-0.1,0c-0.7,0-1.3,0.3-1.9,0.8
					c-0.5,0.6-0.8,1.2-0.8,2c0,0.8,0.3,1.4,0.8,2c0.6,0.6,1.2,0.8,2,0.8s1.4-0.3,2-0.8c0.6-0.6,0.9-1.2,0.9-2
					C395,210.6,394.7,209.9,394.1,209.4 M456.7,158.1c0-0.4-0.1-0.8-0.5-1.1c-0.3-0.3-0.6-0.4-1-0.4c-0.4,0-0.7,0.1-1,0.4
					c-0.3,0.3-0.5,0.6-0.5,1.1c0,0.4,0.1,0.8,0.5,1.1c0.3,0.3,0.6,0.4,1,0.4c0.1,0,0.1,0,0.1,0c0.4,0,0.7-0.2,0.9-0.4
					C456.6,158.8,456.7,158.4,456.7,158.1 M545.8,192.9c-0.5,0-1,0.2-1.3,0.6s-0.5,0.8-0.5,1.4s0.2,1,0.5,1.3s0.8,0.6,1.3,0.6
					c0,0,0.1,0,0.1,0c0.5,0,0.9-0.2,1.3-0.6c0.4-0.4,0.5-0.8,0.5-1.3s-0.2-1-0.5-1.4C546.8,193.1,546.4,192.9,545.8,192.9
					 M473.7,225.6c-0.6-0.5-1.2-0.8-2-0.8s-1.4,0.3-2,0.8c-0.5,0.6-0.8,1.2-0.8,2c0,0.8,0.3,1.4,0.8,2c0.6,0.6,1.2,0.8,2,0.8
					c0.8,0,1.4-0.3,2-0.8c0.6-0.6,0.8-1.2,0.8-2C474.5,226.8,474.3,226.1,473.7,225.6 M473.8,288.6c0.5-0.6,0.8-1.2,0.8-1.9v-0.1
					c0-0.8-0.3-1.4-0.8-2c-0.6-0.5-1.2-0.8-2-0.8c-0.8,0-1.5,0.3-2,0.8c-0.6,0.6-0.9,1.2-0.9,2s0.3,1.4,0.9,2c0.5,0.6,1.2,0.9,2,0.9
					C472.5,289.5,473.2,289.2,473.8,288.6 M573.2,288.4c0.4-0.4,0.6-0.9,0.6-1.5c0-0.5-0.2-1-0.6-1.4c-0.4-0.4-0.8-0.6-1.4-0.6
					c-0.5,0-1,0.2-1.4,0.6c-0.4,0.4-0.6,0.8-0.6,1.3c0,0,0,0.1,0,0.1c0,0.6,0.2,1,0.6,1.5c0.4,0.4,0.8,0.6,1.4,0.6
					C572.4,289,572.8,288.8,573.2,288.4z"/>
			</g>
		</g>
		<g>
			<path id="Layer2_0_1_STROKES" fill="none" stroke="#A3A3A3" stroke-miterlimit="10" d="M545.8,192.9c-0.5,0-1,0.2-1.3,0.6
				s-0.5,0.8-0.5,1.4s0.2,1,0.5,1.3s0.8,0.6,1.3,0.6c0,0,0.1,0,0.1,0c0.5,0,0.9-0.2,1.3-0.6c0.4-0.4,0.5-0.8,0.5-1.3s-0.2-1-0.5-1.4
				C546.8,193.1,546.4,192.9,545.8,192.9z M348,141c-0.5,0-0.9-0.2-1.3-0.6c-0.4-0.4-0.6-0.9-0.6-1.4c0-0.6,0.2-1,0.6-1.4
				c0.4-0.4,0.9-0.6,1.4-0.6c0.6,0,1,0.2,1.4,0.6c0.4,0.4,0.6,0.8,0.6,1.4s-0.2,1-0.6,1.4c-0.4,0.4-0.9,0.6-1.4,0.6
				C348,141,348,141,348,141l-0.1,67.6c0.7,0,1.4,0.3,2,0.8c0.6,0.6,0.9,1.2,0.9,2c0,0.8-0.3,1.5-0.9,2c-0.6,0.6-1.2,0.8-2,0.8
				s-1.4-0.3-2-0.8c-0.5-0.5-0.8-1.2-0.8-2c0-0.8,0.3-1.4,0.8-2c0.6-0.5,1.2-0.8,2-0.8h0 M455.4,159.5v11.9c0,2.3-0.8,4.3-2.5,6
				c-1.6,1.6-3.6,2.4-5.9,2.4h-46.6c-2.3,0-4.3,0.8-6,2.4c-1.6,1.6-2.4,3.6-2.4,5.9v20.4c0,0,0.1,0,0.1,0c0.8,0,1.4,0.3,2,0.8
				c0.6,0.6,0.9,1.2,0.9,2c0,0.8-0.3,1.4-0.9,2c-0.6,0.6-1.2,0.8-2,0.8s-1.4-0.3-2-0.8c-0.5-0.6-0.8-1.2-0.8-2c0-0.8,0.3-1.4,0.8-2
				c0.5-0.5,1.1-0.8,1.9-0.8 M455.2,159.5c0.1,0,0.1,0,0.1,0c0.4,0,0.7-0.2,0.9-0.4c0.3-0.3,0.5-0.7,0.5-1.1c0-0.4-0.1-0.8-0.5-1.1
				c-0.3-0.3-0.6-0.4-1-0.4c-0.4,0-0.7,0.1-1,0.4c-0.3,0.3-0.5,0.6-0.5,1.1c0,0.4,0.1,0.8,0.5,1.1
				C454.5,159.4,454.8,159.5,455.2,159.5z M471.7,224.8c-0.8,0-1.4,0.3-2,0.8c-0.5,0.6-0.8,1.2-0.8,2c0,0.8,0.3,1.4,0.8,2
				c0.6,0.6,1.2,0.8,2,0.8c0.8,0,1.4-0.3,2-0.8c0.6-0.6,0.8-1.2,0.8-2c0-0.8-0.3-1.4-0.8-2C473.1,225,472.5,224.8,471.7,224.8z
				 M474.5,286.7c0,0.7-0.3,1.4-0.8,1.9c-0.6,0.6-1.2,0.9-2,0.9c-0.8,0-1.5-0.3-2-0.9c-0.6-0.6-0.9-1.2-0.9-2s0.3-1.4,0.9-2
				c0.5-0.5,1.2-0.8,2-0.8c0.8,0,1.4,0.3,2,0.8C474.3,285.2,474.5,285.9,474.5,286.7L474.5,286.7l95.3,0c0-0.5,0.2-0.9,0.6-1.3
				c0.4-0.4,0.9-0.6,1.4-0.6c0.6,0,1,0.2,1.4,0.6c0.4,0.4,0.6,0.9,0.6,1.4c0,0.6-0.2,1-0.6,1.5c-0.4,0.4-0.8,0.6-1.4,0.6
				c-0.6,0-1-0.2-1.4-0.6c-0.4-0.4-0.6-0.9-0.6-1.5c0-0.1,0-0.1,0-0.1 M546,196.8v22.4c0,2.3-0.8,4.3-2.5,6s-3.6,2.4-6,2.4h-63
				 M223.6,159.5c-0.4,0-0.7-0.2-0.9-0.4c-0.3-0.3-0.4-0.7-0.4-1.1c0-0.4,0.2-0.8,0.4-1.1c0.3-0.3,0.6-0.4,1.1-0.4
				c0.4,0,0.7,0.1,1,0.4c0.3,0.3,0.4,0.6,0.4,1.1c0,0.4-0.1,0.8-0.4,1.1c-0.3,0.3-0.6,0.4-1,0.4
				C223.7,159.5,223.6,159.5,223.6,159.5v11.9c0,2.3,0.8,4.3,2.4,6s3.6,2.4,5.9,2.4h66.1c2.3,0,4.3,0.8,5.9,2.4s2.5,3.6,2.5,5.9
				v20.4c0.7,0,1.3,0.3,1.9,0.8c0.5,0.6,0.8,1.2,0.8,2c0,0.8-0.3,1.4-0.8,2c-0.6,0.6-1.2,0.8-2,0.8s-1.4-0.3-2-0.8
				c-0.6-0.6-0.9-1.2-0.9-2c0-0.8,0.3-1.4,0.9-2c0.6-0.5,1.2-0.8,2-0.8c0.1,0,0.1,0,0.1,0 M276.6,252.9c0-0.7,0.3-1.4,0.8-1.9
				c0.6-0.6,1.2-0.9,2-0.9c0.8,0,1.5,0.3,2,0.9c0.6,0.6,0.9,1.2,0.9,2s-0.3,1.4-0.9,2c-0.5,0.5-1.2,0.8-2,0.8c-0.8,0-1.4-0.3-2-0.8
				C276.9,254.4,276.6,253.8,276.6,252.9L276.6,252.9l-99.1-0.1c0,0.5-0.2,0.9-0.6,1.3c-0.4,0.4-0.9,0.6-1.4,0.6
				c-0.6,0-1-0.2-1.4-0.6c-0.4-0.4-0.6-0.9-0.6-1.4c0-0.6,0.2-1.1,0.6-1.4c0.4-0.4,0.8-0.6,1.4-0.6c0.6,0,1,0.2,1.4,0.6
				c0.4,0.4,0.6,0.9,0.6,1.4c0,0.1,0,0.1,0,0.1"/>
		</g>
	</g>
</g>
<g id="connectors_2">
	<g transform="matrix( 1, 0, 0, 1, 0,0) ">
		<g>
			<g id="Layer1_0_FILL">
				<path fill="#FEFEFE" d="M225.4,147.4c0,0.4,0.2,0.8,0.5,1.1c0.3,0.3,0.6,0.4,1,0.4c0.4,0,0.7-0.1,1-0.4c0.3-0.3,0.5-0.6,0.5-1.1
					v0c0-0.4-0.2-0.7-0.5-1c-0.3-0.3-0.6-0.5-1-0.5c-0.4,0-0.8,0.2-1,0.5C225.6,146.6,225.4,147,225.4,147.4 M268,121.8
					C268,121.8,268,121.9,268,121.8c0,0.5,0.1,0.8,0.4,1.1c0.3,0.3,0.6,0.4,1,0.4c0.4,0,0.8-0.1,1.1-0.4c0.3-0.3,0.4-0.6,0.4-1
					c0-0.4-0.1-0.8-0.4-1.1c-0.3-0.3-0.6-0.4-1.1-0.4c-0.4,0-0.8,0.1-1,0.4C268.1,121.1,268,121.4,268,121.8 M280.4,129.7
					c-0.4-0.4-0.8-0.6-1.4-0.6c-0.5,0-1,0.2-1.3,0.6s-0.6,0.8-0.6,1.4c0,0.5,0.2,1,0.6,1.3c0.4,0.4,0.8,0.6,1.3,0.6c0,0,0.1,0,0.1,0
					c0.5,0,0.9-0.2,1.3-0.6c0.4-0.4,0.6-0.8,0.6-1.3C281,130.5,280.8,130.1,280.4,129.7 M475.1,156.9c-0.4-0.4-0.8-0.6-1.4-0.6
					s-1,0.2-1.4,0.6c-0.4,0.4-0.5,0.8-0.5,1.4c0,0.5,0.2,1,0.5,1.3c0.3,0.3,0.8,0.5,1.3,0.6c0,0,0.1,0,0.1,0c0.5,0,1-0.2,1.4-0.6
					c0.4-0.4,0.5-0.8,0.5-1.3C475.6,157.8,475.5,157.3,475.1,156.9 M537.3,181.9c0.4,0,0.8-0.1,1-0.4c0.3-0.3,0.5-0.7,0.5-1.1
					c0-0.4-0.2-0.8-0.5-1.1c-0.3-0.3-0.6-0.4-1-0.4c-0.4,0-0.7,0.1-1,0.4c-0.3,0.3-0.4,0.6-0.5,1v0.1c0,0.4,0.2,0.8,0.5,1.1
					C536.6,181.8,536.9,181.9,537.3,181.9 M560.5,206.3c-0.3-0.3-0.6-0.4-1-0.4c-0.4,0-0.8,0.1-1,0.4c-0.3,0.3-0.4,0.6-0.4,1.1
					c0,0.4,0.1,0.7,0.4,1c0.3,0.3,0.7,0.4,1,0.4h0c0.4,0,0.7-0.2,1-0.4c0.3-0.3,0.5-0.6,0.5-1C561,206.9,560.9,206.6,560.5,206.3
					 M583.5,264.7c0-0.5-0.2-1-0.5-1.4c-0.4-0.4-0.8-0.6-1.3-0.6c-0.5,0-1,0.2-1.4,0.6c-0.4,0.4-0.5,0.8-0.5,1.4c0,0,0,0.1,0,0.1
					c0,0.5,0.2,0.9,0.5,1.3c0.4,0.4,0.8,0.6,1.4,0.6c0.5,0,1-0.2,1.3-0.6S583.5,265.2,583.5,264.7z"/>
			</g>
		</g>
		<g>
			<path id="Layer1_0_1_STROKES" fill="none" stroke="#A3A3A3" stroke-miterlimit="10" d="M537.3,181.9c0.4,0,0.8-0.1,1-0.4
				c0.3-0.3,0.5-0.7,0.5-1.1c0-0.4-0.2-0.8-0.5-1.1c-0.3-0.3-0.6-0.4-1-0.4c-0.4,0-0.7,0.1-1,0.4c-0.3,0.3-0.4,0.6-0.5,1v0.1
				c0,0.4,0.2,0.8,0.5,1.1C536.6,181.8,536.9,181.9,537.3,181.9z M473.6,160.2c-0.5,0-0.9-0.2-1.3-0.6c-0.4-0.4-0.5-0.8-0.5-1.3
				c0-0.5,0.2-1,0.5-1.4c0.4-0.4,0.8-0.6,1.4-0.6s1,0.2,1.4,0.6c0.4,0.4,0.5,0.8,0.5,1.4c0,0.5-0.2,1-0.5,1.3
				c-0.4,0.4-0.8,0.6-1.4,0.6C473.7,160.2,473.7,160.2,473.6,160.2V172c0,2.3,0.8,4.3,2.5,5.9c1.6,1.6,3.6,2.4,5.9,2.4h53.8
				 M583.5,264.7c0-0.5-0.2-1-0.5-1.4c-0.4-0.4-0.8-0.6-1.3-0.6c-0.5,0-1,0.2-1.4,0.6c-0.4,0.4-0.5,0.8-0.5,1.4c0,0,0,0.1,0,0.1
				c0,0.5,0.2,0.9,0.5,1.3c0.4,0.4,0.8,0.6,1.4,0.6c0.5,0,1-0.2,1.3-0.6S583.5,265.2,583.5,264.7z M579.8,264.8H568
				c-2.3,0-4.3-0.8-6-2.4c-1.6-1.6-2.5-3.6-2.5-6v-47.6h0c-0.4,0-0.8-0.1-1-0.4c-0.3-0.3-0.4-0.6-0.4-1c0-0.4,0.1-0.8,0.4-1.1
				c0.3-0.3,0.7-0.4,1-0.4c0.4,0,0.8,0.1,1,0.4c0.3,0.3,0.5,0.6,0.5,1.1c0,0.4-0.1,0.7-0.5,1c-0.3,0.3-0.6,0.4-1,0.4 M228.4,147.4
				L228.4,147.4c0,0.4-0.2,0.8-0.5,1.1c-0.3,0.3-0.6,0.4-1,0.4c-0.4,0-0.8-0.1-1-0.4c-0.3-0.3-0.5-0.6-0.5-1.1c0-0.4,0.2-0.8,0.5-1
				c0.3-0.3,0.6-0.5,1-0.5c0.4,0,0.7,0.2,1,0.5C228.2,146.6,228.3,146.9,228.4,147.4h19.3v-17.2c0-2.3,0.8-4.3,2.5-5.9
				s3.6-2.4,5.9-2.4H268c0-0.4,0.2-0.7,0.4-1c0.3-0.3,0.6-0.4,1-0.4c0.4,0,0.8,0.1,1.1,0.4c0.3,0.3,0.4,0.6,0.4,1.1
				c0,0.4-0.1,0.7-0.4,1c-0.3,0.3-0.6,0.4-1.1,0.4c-0.4,0-0.8-0.1-1-0.4c-0.3-0.3-0.4-0.6-0.4-1c0,0,0-0.1,0-0.1 M279,129.1
				c-0.5,0-1,0.2-1.3,0.6s-0.6,0.8-0.6,1.4c0,0.5,0.2,1,0.6,1.3c0.4,0.4,0.8,0.6,1.3,0.6c0,0,0.1,0,0.1,0c0.5,0,0.9-0.2,1.3-0.6
				c0.4-0.4,0.6-0.8,0.6-1.3c0-0.5-0.2-1-0.6-1.4C280,129.3,279.6,129.1,279,129.1z M279.1,132.9v6.2c0,0.3,0,0.7-0.1,1
				c-0.1,0.5-0.2,1.1-0.4,1.6c-0.2,0.5-0.4,1-0.7,1.4c-0.4,0.6-0.8,1.2-1.3,1.7c-1.6,1.6-3.6,2.5-6,2.5h-23.1v97.2
				c0,2.3-0.8,4.3-2.4,5.9s-3.6,2.4-5.9,2.4h-23.9"/>
		</g>
	</g>
</g>
</svg>
