<?xml version="1.0" encoding="utf-8"?>
<!-- Generator: Adobe Illustrator 23.0.1, SVG Export Plug-In . SVG Version: 6.00 Build 0)  -->
<svg version="1.1" id="Layer_1" xmlns="http://www.w3.org/2000/svg" xmlns:xlink="http://www.w3.org/1999/xlink" x="0px" y="0px"
	 viewBox="0 0 750 400" enable-background="new 0 0 750 400" xml:space="preserve">
<g id="clouds_bits">
	<g transform="matrix( 1, 0, 0, 1, 508.7,33.4) " opacity="0.17">
		<g>
			<g transform="matrix( 1, 0, 0, 1, 0,0) ">
				<g>
					<g id="flash0_ai_Layer_1__Path__48_0_Layer0_0_FILL">
						<path fill="#3D3D3D" d="M144.1,29c-0.2-2.6-1.2-4.8-3.2-6.6c-2-1.8-4.3-2.8-6.9-2.8c-2.9,0-5.4,1-7.3,3.1
							c-1.5-3.9-4.1-7-7.6-9.4c-3.6-2.5-7.5-3.7-11.8-3.7c-2.8,0-5.5,0.6-8.1,1.7c-2.5,1-4.8,2.5-6.7,4.4c-2.8-1.8-5.8-2.8-9.2-2.8
							c-2.1,0-4.2,0.4-6.3,1.2c-0.7-2.9-2.2-5.2-4.6-7.1c-2.4-1.9-5.1-2.8-8.2-2.8c-2.4,0-4.7,0.6-6.8,1.9c-2,1.2-3.6,2.9-4.7,5
							C50.1,7.7,46.7,5,42.8,3c-4.1-2-8.5-3-13.1-3c-8,0-14.9,2.8-20.7,8.5C3.2,14.1,0.2,21,0,29H144.1z"/>
					</g>
				</g>
			</g>
		</g>
	</g>
	<g transform="matrix( 1, 0, 0, 1, 298.45,81.9) " opacity="0.17">
		<g transform="matrix( 1, 0, 0, 1, 0,0) ">
			<g>
				<g id="flash0_ai_Layer_1__Path__47_0_Layer0_0_FILL">
					<path fill="#3D3D3D" d="M84.8,17c-0.1-1.5-0.8-2.8-1.9-3.9c-1.1-1.1-2.5-1.6-4.1-1.6c-1.7,0-3.1,0.6-4.3,1.9
						c-0.9-2.3-2.4-4.2-4.5-5.6c-2.1-1.4-4.4-2.2-7-2.2c-3.4,0-6.3,1.2-8.6,3.6C52.8,8.2,51,7.6,49,7.6c-1.3,0-2.5,0.2-3.7,0.7
						c-0.4-1.7-1.3-3.1-2.7-4.2c-1.4-1.1-3-1.7-4.8-1.7c-1.4,0-2.8,0.4-4,1.2c-1.2,0.7-2.1,1.7-2.8,2.9c-1.6-2-3.6-3.6-6-4.8
						c-2.4-1.2-5-1.8-7.7-1.8C12.7,0,8.7,1.7,5.3,5C1.9,8.3,0.1,12.3,0,17H84.8z"/>
				</g>
			</g>
		</g>
	</g>
	<g transform="matrix( 1, 0, 0, 1, -319.2,-527.15) ">
		<g>
			<g id="Layer5_2_FILL">
				<path fill="#BAD727" d="M458.9,578c0-0.5-0.2-1-0.6-1.3c-0.4-0.4-0.8-0.6-1.3-0.6c-0.5,0-1,0.2-1.4,0.6
					c-0.4,0.4-0.6,0.8-0.6,1.3s0.2,1,0.6,1.4c0.4,0.4,0.8,0.5,1.4,0.5c0.5,0,1-0.2,1.3-0.5C458.7,579,458.9,578.5,458.9,578z"/>
			</g>
		</g>
	</g>
	<g transform="matrix( 1, 0, 0, 1, -303.55,-124.25) ">
		<g>
			<g id="Layer5_3_FILL">
				<path fill="#BAD727" d="M851.7,428.8c0-0.5-0.2-1-0.6-1.3c-0.4-0.4-0.8-0.6-1.3-0.6s-1,0.2-1.4,0.6c-0.4,0.4-0.5,0.8-0.5,1.3
					c0,0.5,0.2,1,0.5,1.4c0.4,0.4,0.8,0.6,1.4,0.6c0.5,0,1-0.2,1.3-0.6C851.5,429.8,851.7,429.3,851.7,428.8z"/>
			</g>
		</g>
	</g>
	<g transform="matrix( 1, 0, 0, 1, -287.6,-198.6) ">
		<g>
			<g id="Layer5_4_FILL">
				<path fill="#F7571A" d="M598,321.3c0-0.5-0.2-1-0.6-1.3c-0.4-0.4-0.8-0.6-1.4-0.6s-1,0.2-1.3,0.6c-0.4,0.4-0.5,0.8-0.5,1.3
					c0,0.5,0.2,1,0.5,1.4c0.4,0.4,0.8,0.6,1.3,0.6s1-0.2,1.4-0.6C597.8,322.3,598,321.8,598,321.3z"/>
			</g>
		</g>
	</g>
	<g transform="matrix( 1, 0, 0, 1, 158.75,-184.85) ">
		<g>
			<g id="Layer5_5_FILL">
				<path fill="#F7571A" d="M520.9,449.9c0-0.5-0.2-1-0.6-1.4c-0.4-0.4-0.8-0.5-1.3-0.5s-1,0.2-1.4,0.5c-0.4,0.4-0.5,0.8-0.5,1.4
					c0,0.5,0.2,1,0.5,1.4c0.4,0.4,0.8,0.6,1.4,0.6s1-0.2,1.3-0.6C520.7,450.9,520.9,450.4,520.9,449.9z"/>
			</g>
		</g>
	</g>
	<g transform="matrix( 1, 0, 0, 1, -363.6,-369.75) ">
		<g>
			<g id="Layer5_6_FILL">
				<path fill="#DEDEDE" d="M454,529.6c0-1.1-0.4-2-1.1-2.8c-0.8-0.7-1.7-1.1-2.8-1.1c-1.1,0-2,0.4-2.7,1.1
					c-0.7,0.8-1.1,1.7-1.1,2.8c0,1.1,0.4,2,1.1,2.7c0.8,0.7,1.7,1.1,2.7,1.1c1.1,0,2-0.4,2.8-1.1C453.6,531.6,454,530.7,454,529.6z"
					/>
			</g>
		</g>
	</g>
	<g transform="matrix( 1, 0, 0, 1, -796.05,-220.75) ">
		<g>
			<g id="Layer5_7_FILL">
				<path fill="#DEDEDE" d="M848.8,493.6c-0.4-0.4-0.8-0.5-1.4-0.5c-0.5,0-1,0.2-1.4,0.5c-0.4,0.4-0.5,0.9-0.5,1.4
					c0,0.5,0.2,1,0.5,1.4c0.4,0.4,0.8,0.6,1.4,0.6c0.5,0,1-0.2,1.4-0.6c0.4-0.4,0.6-0.8,0.6-1.4
					C849.4,494.5,849.2,494.1,848.8,493.6z"/>
			</g>
		</g>
	</g>
	<g transform="matrix( 1, 0, 0, 1, -328.05,-255.4) ">
		<g>
			<g id="Layer5_8_FILL">
				<path fill="#D1D1D1" d="M844.5,583.7c0-1.1-0.4-2-1.1-2.7c-0.8-0.7-1.7-1.1-2.8-1.1c-1.1,0-2,0.4-2.7,1.1
					c-0.8,0.8-1.2,1.7-1.2,2.7c0,1.1,0.4,2,1.2,2.8c0.7,0.7,1.6,1.1,2.7,1.1c1.1,0,2-0.4,2.8-1.1
					C844.1,585.7,844.5,584.8,844.5,583.7z"/>
			</g>
		</g>
	</g>
	<g transform="matrix( 1, 0, 0, 1, -189.2,-259.1) ">
		<g>
			<path id="Layer5_9_1_STROKES" fill="none" stroke="#BFBFBF" stroke-width="2" stroke-miterlimit="10" d="M855,350.9
				c0,0.9-0.3,1.7-1,2.3c-0.6,0.6-1.4,1-2.3,1c-0.9,0-1.7-0.3-2.3-1c-0.6-0.6-1-1.4-1-2.3c0-0.9,0.3-1.6,1-2.3c0.6-0.6,1.4-1,2.3-1
				c0.9,0,1.6,0.3,2.3,1C854.7,349.2,855,350,855,350.9z"/>
		</g>
	</g>
	<g transform="matrix( 1, 0, 0, 1, -238.4,-248.25) ">
		<g>
			<path id="Layer5_10_1_STROKES" fill="none" stroke="#BFBFBF" stroke-width="2" stroke-miterlimit="10" d="M678.5,551.5
				c0,0.9-0.3,1.7-1,2.3s-1.4,1-2.3,1c-0.9,0-1.7-0.3-2.3-1c-0.6-0.6-1-1.4-1-2.3s0.3-1.7,1-2.3c0.6-0.6,1.4-1,2.3-1
				c0.9,0,1.6,0.3,2.3,1C678.1,549.8,678.5,550.5,678.5,551.5z"/>
		</g>
	</g>
	<g transform="matrix( 1, 0, 0, 1, 1.6,-22.95) ">
		<g>
			<path id="Layer5_11_1_STROKES" fill="none" stroke="#BFBFBF" stroke-width="2" stroke-miterlimit="10" d="M619.5,264.3
				c0,0.9-0.3,1.7-1,2.3c-0.6,0.6-1.4,0.9-2.3,0.9c-0.9,0-1.6-0.3-2.3-0.9c-0.6-0.6-1-1.4-1-2.3c0-0.9,0.3-1.6,1-2.3
				c0.6-0.6,1.4-0.9,2.3-0.9c0.9,0,1.7,0.3,2.3,0.9S619.5,263.4,619.5,264.3z"/>
		</g>
	</g>
	<g transform="matrix( 1, 0, 0, 1, -287.6,-198.6) ">
		<g>
			<g id="Layer5_12_MEMBER_0_FILL">
				<path fill="#83C4EC" d="M506.5,271.5h7c0.3,0,0.5-0.1,0.7-0.3c0.2-0.2,0.3-0.4,0.3-0.7c0-0.3-0.1-0.5-0.3-0.7
					c-0.2-0.2-0.4-0.3-0.7-0.3h-7c-0.6,0-0.9,0.3-0.9,0.9c0,0.3,0.1,0.5,0.3,0.7C506.1,271.4,506.3,271.5,506.5,271.5z"/>
			</g>
		</g>
	</g>
	<g transform="matrix( 1, 0, 0, 1, -287.6,-198.6) ">
		<g>
			<g id="Layer5_12_MEMBER_1_FILL">
				<path fill="#83C4EC" d="M509.4,266.4c-0.2,0.2-0.3,0.4-0.3,0.6v7c0,0.3,0.1,0.5,0.3,0.7c0.2,0.2,0.4,0.3,0.6,0.3
					c0.6,0,1-0.3,1-1v-7c0-0.3-0.1-0.5-0.3-0.6c-0.2-0.2-0.4-0.3-0.7-0.3C509.8,266,509.6,266.1,509.4,266.4z"/>
			</g>
		</g>
	</g>
	<g transform="matrix( 1, 0, 0, 1, -499.85,-34.35) ">
		<g>
			<g id="Layer5_13_MEMBER_0_FILL">
				<path fill="#83C4EC" d="M909.2,384.4c0.2,0.2,0.4,0.3,0.6,0.3h7.1c0.3,0,0.5-0.1,0.7-0.3c0.2-0.2,0.2-0.4,0.3-0.6
					c0-0.6-0.3-1-0.9-1h-7.1c-0.3,0-0.5,0.1-0.6,0.3c-0.2,0.2-0.3,0.4-0.3,0.7C908.9,384,909,384.2,909.2,384.4z"/>
			</g>
		</g>
	</g>
	<g transform="matrix( 1, 0, 0, 1, -499.85,-34.35) ">
		<g>
			<g id="Layer5_13_MEMBER_1_FILL">
				<path fill="#83C4EC" d="M914.3,380.1c0-0.2-0.1-0.5-0.3-0.6c-0.2-0.2-0.4-0.3-0.6-0.3c-0.3,0-0.5,0.1-0.7,0.3
					c-0.2,0.2-0.3,0.4-0.3,0.6v7.1c0,0.3,0.1,0.5,0.3,0.7c0.2,0.2,0.4,0.3,0.7,0.3c0.3,0,0.5-0.1,0.6-0.3c0.2-0.2,0.3-0.4,0.3-0.7
					V380.1z"/>
			</g>
		</g>
	</g>
	<g transform="matrix( 1, 0, 0, 1, -254.2,-250.4) ">
		<g>
			<g id="Layer5_14_MEMBER_0_FILL">
				<path fill="#83C4EC" d="M399.5,556.6c-0.3,0-0.5,0.1-0.7,0.3c-0.2,0.2-0.3,0.4-0.3,0.7c0,0.3,0.1,0.5,0.3,0.7
					c0.2,0.2,0.4,0.3,0.7,0.3h7c0.3,0,0.5-0.1,0.7-0.3c0.2-0.2,0.3-0.4,0.3-0.7c0-0.6-0.3-1-1-1H399.5z"/>
			</g>
		</g>
	</g>
	<g transform="matrix( 1, 0, 0, 1, -254.2,-250.4) ">
		<g>
			<g id="Layer5_14_MEMBER_1_FILL">
				<path fill="#83C4EC" d="M404,554c0-0.2-0.1-0.5-0.3-0.7c-0.2-0.2-0.4-0.3-0.6-0.3s-0.5,0.1-0.7,0.3c-0.2,0.2-0.3,0.4-0.3,0.7v7
					c0,0.3,0.1,0.5,0.3,0.7c0.2,0.2,0.4,0.3,0.7,0.3s0.5-0.1,0.6-0.3c0.2-0.2,0.3-0.4,0.3-0.7V554z"/>
			</g>
		</g>
	</g>
	<g transform="matrix( 1, 0, 0, 1, 39.75,-457.25) ">
		<g>
			<g id="Layer5_15_MEMBER_0_FILL">
				<path fill="#83C4EC" d="M584.3,587c0.2,0.2,0.4,0.3,0.7,0.3h7c0.3,0,0.5-0.1,0.7-0.3c0.2-0.2,0.3-0.4,0.3-0.7s-0.1-0.5-0.3-0.6
					c-0.2-0.2-0.4-0.3-0.7-0.3h-7c-0.3,0-0.5,0.1-0.7,0.3c-0.2,0.2-0.3,0.4-0.3,0.6S584.1,586.9,584.3,587z"/>
			</g>
		</g>
	</g>
	<g transform="matrix( 1, 0, 0, 1, 39.75,-457.25) ">
		<g>
			<g id="Layer5_15_MEMBER_1_FILL">
				<path fill="#83C4EC" d="M588.5,590.8c0.3,0,0.5-0.1,0.7-0.3c0.2-0.2,0.3-0.4,0.3-0.6v-7.1c0-0.6-0.3-0.9-1-0.9
					c-0.6,0-1,0.3-1,0.9v7.1c0,0.3,0.1,0.5,0.3,0.6C588,590.8,588.3,590.8,588.5,590.8z"/>
			</g>
		</g>
	</g>
	<g transform="matrix( 1, 0, 0, 1, -412,-324.9) ">
		<g>
			<g id="Layer5_16_MEMBER_0_FILL">
				<path fill="#83C4EC" d="M745,571.2c0.3,0,0.5-0.1,0.6-0.3c0.2-0.2,0.3-0.4,0.3-0.7c0-0.2-0.1-0.5-0.3-0.7
					c-0.2-0.2-0.4-0.3-0.6-0.3h-7c-0.3,0-0.5,0.1-0.7,0.3c-0.2,0.2-0.3,0.4-0.3,0.7c0,0.3,0.1,0.5,0.3,0.7c0.2,0.2,0.4,0.3,0.7,0.3
					H745z"/>
			</g>
		</g>
	</g>
	<g transform="matrix( 1, 0, 0, 1, -412,-324.9) ">
		<g>
			<g id="Layer5_16_MEMBER_1_FILL">
				<path fill="#83C4EC" d="M740.8,566c-0.2,0.2-0.3,0.4-0.3,0.7v7c0,0.3,0.1,0.5,0.3,0.7c0.2,0.2,0.4,0.3,0.7,0.3
					c0.3,0,0.5-0.1,0.7-0.3c0.2-0.2,0.3-0.4,0.3-0.7v-7c0-0.3-0.1-0.5-0.3-0.7c-0.2-0.2-0.4-0.3-0.7-0.3
					C741.1,565.8,740.9,565.8,740.8,566z"/>
			</g>
		</g>
	</g>
	<g transform="matrix( 1, 0, 0, 1, -447.6,-381.8) ">
		<g>
			<g id="Layer5_17_FILL">
				<path fill="#BFBFBF" d="M521,492.2h-6l-3,5.2l3,5.2h6l3-5.2L521,492.2 M515.8,493.6h4.4l2.2,3.8l-2.2,3.8h-4.4l-2.2-3.8
					L515.8,493.6z"/>
			</g>
		</g>
	</g>
	<g transform="matrix( 1, 0, 0, 1, -287.6,-198.6) ">
		<g>
			<g id="Layer5_18_FILL">
				<path fill="#BFBFBF" d="M845.3,287.1l-3,5.2l3,5.2h6l3-5.2l-3-5.2H845.3 M846.2,296.1l-2.2-3.8l2.2-3.8h4.3l2.2,3.8l-2.2,3.8
					H846.2z"/>
			</g>
		</g>
	</g>
	<g transform="matrix( 1, 0, 0, 1, 178.6,306.45) " opacity="0.17">
		<g transform="matrix( 1, 0, 0, 1, 0,0) ">
			<g>
				<g id="flash0_ai_Layer_1__Path__0_Layer0_0_FILL">
					<path fill="#3D3D3D" d="M187.8,41.2c-0.2-11.4-4.1-21.1-11.7-29.1C168.6,4,159.6,0,149.1,0c-6,0-11.7,1.4-17.1,4.3
						c-5.2,2.8-9.6,6.6-13.2,11.5c-1.4-2.9-3.5-5.3-6.1-7.1c-2.7-1.8-5.7-2.7-8.8-2.7c-4,0-7.5,1.3-10.6,4c-3,2.6-5,6-6,10.1
						c-2.7-1.2-5.4-1.8-8.2-1.8c-4.3,0-8.3,1.3-12,3.9c-2.5-2.7-5.4-4.8-8.6-6.3c-3.4-1.5-6.9-2.3-10.6-2.3
						c-5.7,0-10.8,1.7-15.5,5.3c-4.5,3.4-7.8,7.9-9.8,13.4c-1.2-1.4-2.6-2.5-4.3-3.3c-1.7-0.8-3.5-1.2-5.3-1.2c-3.5,0-6.5,1.3-9,3.9
						c-2.5,2.6-3.9,5.7-4.2,9.5H187.8z"/>
				</g>
			</g>
		</g>
	</g>
	<g transform="matrix( 1, 0, 0, 1, -421.4,-438.1) ">
		<g>
			<g id="Layer5_20_FILL">
				<path fill="#DEDEDE" d="M848.8,493.6c-0.4-0.4-0.8-0.5-1.4-0.5c-0.5,0-1,0.2-1.4,0.5c-0.4,0.4-0.5,0.9-0.5,1.4
					c0,0.5,0.2,1,0.5,1.4c0.4,0.4,0.8,0.6,1.4,0.6c0.5,0,1-0.2,1.4-0.6c0.4-0.4,0.6-0.8,0.6-1.4
					C849.4,494.5,849.2,494.1,848.8,493.6z"/>
			</g>
		</g>
	</g>
</g>
<g id="data">
	<g transform="matrix( 1, 0, 0, 1, 0,0) ">
		<g>
			<g id="Layer4_0_FILL">
				<path fill="#5EB9E7" d="M499.5,207.1v-23.3h-23.3v23.3H499.5 M530.5,238.1v-23.3h-23.2v23.3H530.5 M468.5,238.1v-23.3h-23.3
					v23.3H468.5 M476.1,214.9v23.3h23.3v-23.3H476.1 M468.5,183.9h-23.3v23.3h23.3V183.9 M530.5,183.9h-23.2v23.3h23.2V183.9
					 M499.5,176.1v-23.2h-23.3v23.2H499.5 M507.3,152.9v23.2h23.2v-23.2H507.3z"/>
				<path fill="#BAD727" d="M445.1,152.9v23.2h23.3v-23.2H445.1z"/>
			</g>
		</g>
		<g>
			<path id="Layer4_0_1_STROKES" fill="none" stroke="#000000" stroke-linecap="round" stroke-linejoin="round" d="M530.5,176.1
				h-23.2v-23.2h23.2V176.1z M499.5,176.1h-23.3v-23.2h23.3V176.1z M530.5,207.1h-23.2v-23.3h23.2V207.1z M468.5,176.1h-23.3v-23.2
				h23.3V176.1z M468.5,207.1h-23.3v-23.3h23.3V207.1z M499.5,238.1h-23.3v-23.3h23.3V238.1z M468.5,238.1h-23.3v-23.3h23.3V238.1z
				 M530.5,238.1h-23.2v-23.3h23.2V238.1z M499.5,207.1h-23.3v-23.3h23.3V207.1z"/>
		</g>
	</g>
</g>
<g id="glass">
	<g transform="matrix( 1, 0, 0, 1, 0,0) ">
		<g>
			<g id="Layer3_0_FILL">
				<path fill="#A1A1A1" d="M562.6,287.1L562.6,287.1l57.7,57.8l18.5-18.6l-57.7-57.7L562.6,287.1z"/>
				<path fill="#D7D7D7" d="M581.1,268.6c-1.2,1.2-2.7,1.7-4.4,1.7c-1.7,0-3.2-0.6-4.4-1.7l-14.5-14.4c-1.5,1.7-3,3.3-4.6,4.9
					c-1.7,1.7-3.4,3.3-5.1,4.9l14.5,14.4c1.1,1.2,1.7,2.7,1.7,4.4c0,1.7-0.5,3.2-1.7,4.4L581.1,268.6 M553.2,130.4
					c-17.7-17.7-39.2-26.6-64.4-26.6c-25.1,0-46.5,8.9-64.3,26.6s-26.7,39.2-26.7,64.3c0.1,25.1,9,46.6,26.7,64.3
					c17.8,17.8,39.2,26.7,64.3,26.7c22.8,0,42.5-7.3,59.2-21.8c1.7-1.6,3.4-3.2,5.1-4.9c1.6-1.6,3.2-3.2,4.6-4.9
					c14.7-16.8,22-36.6,22-59.4C579.8,169.7,571,148.2,553.2,130.4 M488.8,115c22.1,0,40.9,7.8,56.5,23.4
					c15.6,15.6,23.4,34.4,23.3,56.4c0,22-7.7,40.8-23.3,56.4c-15.6,15.6-34.4,23.4-56.4,23.4c-22,0-40.9-7.8-56.5-23.4
					c-15.6-15.6-23.4-34.4-23.4-56.4c0-22,7.8-40.9,23.4-56.4C448,122.8,466.8,115,488.8,115z"/>
			</g>
		</g>
		<g>
			<path id="Layer3_0_1_STROKES" fill="none" stroke="#000000" stroke-miterlimit="10" d="M522,135.8c0.4,0.2,0.8,0.5,1.2,0.7
				c4.5,2.8,8.8,6.2,12.8,10.2c13.1,13.1,19.7,28.9,19.7,47.4s-6.6,34.4-19.7,47.4c-4.4,4.4-9,8-14,11 M562.6,287.1
				c1.1-1.2,1.7-2.6,1.7-4.4c0-1.7-0.6-3.2-1.7-4.4L548.1,264c-16.7,14.5-36.4,21.8-59.2,21.8c-25.1,0-46.5-8.9-64.3-26.7
				c-17.7-17.7-26.6-39.2-26.7-64.3c0-25.1,8.9-46.5,26.7-64.3s39.2-26.6,64.3-26.6c25.2,0,46.7,8.9,64.4,26.6
				c17.8,17.8,26.6,39.3,26.6,64.4c0.1,22.8-7.3,42.6-22,59.4l14.5,14.4c1.2,1.1,2.7,1.7,4.4,1.7c1.7,0,3.2-0.5,4.4-1.7l57.7,57.7
				l-18.5,18.6L562.6,287.1L562.6,287.1l18.5-18.5 M545.3,138.4c15.6,15.6,23.4,34.4,23.3,56.4c0,22-7.7,40.8-23.3,56.4
				c-15.6,15.6-34.4,23.4-56.4,23.4c-22,0-40.9-7.8-56.5-23.4c-15.6-15.6-23.4-34.4-23.4-56.4c0-22,7.8-40.9,23.4-56.4
				c15.6-15.6,34.3-23.4,56.3-23.4C510.9,115,529.7,122.8,545.3,138.4z M557.8,254.2c-1.5,1.7-3,3.3-4.6,4.9
				c-1.7,1.7-3.4,3.3-5.1,4.9"/>
		</g>
	</g>
</g>
<g id="connectors">
	<g transform="matrix( 1, 0, 0, 1, 0,0) ">
		<g>
			<g id="Layer2_0_FILL">
				<path fill="#FEFEFE" d="M445.4,161.9c-0.8,0-1.4,0.3-2,0.8c-0.5,0.5-0.8,1.1-0.8,1.9c0,0,0,0.1,0,0.1c0,0.8,0.3,1.4,0.8,2
					c0.6,0.6,1.2,0.9,2,0.9s1.4-0.3,2-0.9c0.6-0.6,0.9-1.2,0.9-2s-0.3-1.4-0.9-2C446.8,162.2,446.2,161.9,445.4,161.9 M295.9,201.1
					L295.9,201.1c-0.7,0-1.3,0.3-1.8,0.8c-0.5,0.5-0.8,1.1-0.8,1.8c0,0.7,0.3,1.3,0.8,1.8c0.4,0.4,0.8,0.7,1.4,0.8
					c0.1,0,0.3,0,0.4,0c0.7,0,1.3-0.3,1.8-0.8c0.4-0.4,0.6-0.9,0.7-1.4c0-0.1,0-0.3,0-0.4c0-0.7-0.3-1.3-0.8-1.8
					C297.2,201.4,296.6,201.1,295.9,201.1z"/>
			</g>
		</g>
		<g>
			<path id="Layer2_0_1_STROKES" fill="none" stroke="#A3A3A3" stroke-miterlimit="10" d="M298.5,204.1h120.6
				c2.2-0.1,4.1-0.9,5.7-2.5c1.6-1.6,2.4-3.4,2.5-5.6v-23c0-2.3,0.8-4.3,2.5-5.9c1.6-1.6,3.6-2.4,5.9-2.4h7c0-0.7,0.3-1.3,0.8-1.9
				c0.6-0.5,1.2-0.8,2-0.8s1.4,0.3,2,0.8c0.6,0.6,0.9,1.2,0.9,2s-0.3,1.4-0.9,2c-0.6,0.6-1.2,0.9-2,0.9s-1.4-0.3-2-0.9
				c-0.5-0.6-0.8-1.2-0.8-2c0-0.1,0-0.1,0-0.1 M427.3,198v-2 M207.9,109.8c24.3,0,45,8.6,62.2,25.8c17.2,17.2,25.8,37.9,25.8,62.3
				c0,1.1,0,2.2,0,3.3h0c0.7,0,1.3,0.3,1.8,0.8c0.5,0.5,0.8,1.1,0.8,1.8c0,0.1,0,0.3,0,0.4c-0.1,0.5-0.3,1-0.7,1.4
				c-0.5,0.5-1.1,0.8-1.8,0.8c-0.1,0-0.3,0-0.4,0c-1.8,20.7-10.3,38.6-25.4,53.7c-17.1,17.2-37.9,25.8-62.2,25.8
				c-24.3,0-45-8.6-62.1-25.8c-17.2-17.1-25.8-37.9-25.8-62.2 M295.5,206.3c-0.6-0.1-1-0.3-1.4-0.8c-0.5-0.5-0.8-1.1-0.8-1.8
				c0-0.7,0.3-1.3,0.8-1.8c0.5-0.5,1-0.8,1.7-0.8"/>
		</g>
	</g>
	<g transform="matrix( 1.983184814453125, 0, 0, 1.983184814453125, -1632,-749.25) ">
		<g>
			<g id="Layer2_1_FILL">
				<path fill="#F7571A" d="M966,477.3c0-10.7-3.8-19.8-11.3-27.4c-7.6-7.6-16.7-11.4-27.4-11.4c-10.7,0-19.8,3.8-27.3,11.4
					c-7.5,7.5-11.3,16.6-11.3,27.4c0,10.7,3.8,19.8,11.3,27.3c7.6,7.5,16.7,11.3,27.3,11.3c10.7,0,19.8-3.8,27.4-11.3
					C962.2,497.1,966,488,966,477.3z"/>
			</g>
		</g>
	</g>
</g>
<g id="tools">
	<g transform="matrix( 1, 0, 0, 1, 0,0) ">
		<g>
			<path id="Layer1_0_1_STROKES" fill="none" stroke="#FFFFFF" stroke-width="2" stroke-linejoin="round" d="M206,188.4l-12.4-12.4
				c1.1-2.5,1.4-5,0.9-7.6c-0.5-2.7-1.7-5-3.7-6.9c-1.9-1.9-4.2-3.1-6.8-3.6c-2.6-0.6-5.1-0.3-7.5,0.8l6.8,7.1v6.8h-7.1l-6.9-6.4
				c-1,2.5-1.3,5-0.8,7.5c0.5,2.6,1.7,4.9,3.7,6.8c1.9,1.9,4.2,3.1,6.9,3.6c2.6,0.5,5.1,0.2,7.6-0.8l12.4,12.3 M193.2,201.9
				L193.2,201.9l3.6,3.6l35.3-35.3l-4.3-4.4l11.7-8.1l4.9,4.9l-8.4,11.4l-3.9-3.9 M206,202.5l12.4,12.4c-1.1,2.5-1.3,5-0.8,7.6
				c0.5,2.7,1.7,5,3.6,6.9c2,2,4.3,3.2,6.9,3.7c2.6,0.5,5.1,0.2,7.6-0.9l-6.8-7.1v-6.6h6.7l7.1,6.6c1-2.5,1.3-5,0.8-7.6
				c-0.5-2.7-1.7-4.9-3.6-6.9c-1.9-2-4.3-3.3-6.9-3.8c-2.6-0.5-5.1-0.2-7.5,0.9l-12.4-12.4 M200.3,208.9L200.3,208.9l-3.4-3.5h-0.1
				 M200.3,208.9l-21.8,21.7c-1,1-2.2,1.4-3.5,1.4c-1.4,0-2.5-0.5-3.4-1.4c-1-0.9-1.5-2.1-1.5-3.5s0.5-2.5,1.5-3.5l21.7-21.8"/>
		</g>
		<g>
			
				<path id="Layer1_0_2_STROKES" fill="none" stroke="#FFFFFF" stroke-width="2" stroke-linecap="round" stroke-linejoin="round" d="
				M196.7,205.4l3.6,3.5l3.4,3.4 M189.6,198.4l3.6,3.5l3.5,3.6"/>
		</g>
	</g>
</g>
</svg>
