<?xml version="1.0" encoding="utf-8"?>
<!-- Generator: Adobe Illustrator 23.0.1, SVG Export Plug-In . SVG Version: 6.00 Build 0)  -->
<svg version="1.1" id="Layer_2341" xmlns="http://www.w3.org/2000/svg" xmlns:xlink="http://www.w3.org/1999/xlink" x="0px" y="0px"
	 viewBox="0 0 750 400" enable-background="new 0 0 750 400" xml:space="preserve">
<g id="clouds_bits">
	<g transform="matrix( 1, 0, 0, 1, 398.6,319.95) " opacity="0.17">
		<g>
			<g transform="matrix( 1, 0, 0, 1, 0,0) ">
				<g>
					<g id="flash0_ai_Layer_1231__Path__48_0_Layer0_0_FILL">
						<path fill="#3D3D3D" d="M144.1,29c-0.2-2.6-1.2-4.8-3.2-6.6c-2-1.8-4.3-2.8-6.9-2.8c-2.9,0-5.4,1-7.3,3.1
							c-1.5-3.9-4.1-7-7.6-9.4c-3.6-2.5-7.5-3.7-11.8-3.7c-2.8,0-5.5,0.6-8.1,1.7c-2.5,1-4.8,2.5-6.7,4.4c-2.8-1.8-5.8-2.8-9.2-2.8
							c-2.1,0-4.2,0.4-6.3,1.2c-0.7-2.9-2.2-5.2-4.6-7.1c-2.4-1.9-5.1-2.8-8.2-2.8c-2.4,0-4.7,0.6-6.8,1.9c-2,1.2-3.6,2.9-4.7,4.9
							C50.1,7.7,46.7,5,42.8,3.1c-4.1-2-8.5-3-13.1-3c-8,0-14.9,2.8-20.7,8.5C3.2,14.1,0.2,21,0,29H144.1z"/>
					</g>
				</g>
			</g>
		</g>
	</g>
	<g transform="matrix( -1, 0, 0, 1, 504.8,199.9) " opacity="0.17">
		<g transform="matrix( 1, 0, 0, 1, 0,0) ">
			<g>
				<g id="flash0_ai_Layer_3121__Path__47_0_Layer0_0_FILL">
					<path fill="#3D3D3D" d="M84.8,17c-0.1-1.5-0.8-2.8-1.9-3.9c-1.1-1.1-2.5-1.6-4.1-1.6c-1.7,0-3.1,0.6-4.3,1.9
						c-0.9-2.3-2.4-4.2-4.5-5.6c-2.1-1.4-4.4-2.2-7-2.2c-3.4,0-6.3,1.2-8.6,3.6C52.8,8.2,51,7.7,49,7.7c-1.3,0-2.5,0.2-3.7,0.7
						c-0.4-1.7-1.3-3.1-2.7-4.2c-1.4-1.1-3-1.7-4.8-1.7c-1.4,0-2.8,0.4-4,1.2c-1.2,0.7-2.1,1.7-2.8,2.9c-1.6-2-3.6-3.6-6-4.8
						c-2.4-1.2-5-1.8-7.7-1.8C12.7,0,8.7,1.7,5.3,5C1.9,8.3,0.1,12.3,0,17H84.8z"/>
				</g>
			</g>
		</g>
	</g>
	<g transform="matrix( 1, 0, 0, 1, 55.55,-411.65) ">
		<g>
			<g id="Layer7_2_FILL">
				<path fill="#BAD727" d="M458.9,578c0-0.5-0.2-1-0.6-1.3c-0.4-0.4-0.8-0.6-1.3-0.6c-0.5,0-1,0.2-1.4,0.6
					c-0.4,0.4-0.6,0.8-0.6,1.3s0.2,1,0.6,1.4c0.4,0.4,0.8,0.5,1.4,0.5c0.5,0,1-0.2,1.3-0.5C458.7,579,458.9,578.5,458.9,578z"/>
			</g>
		</g>
	</g>
	<g transform="matrix( 1, 0, 0, 1, -607.8,-71.9) ">
		<g>
			<g id="Layer7_3_FILL">
				<path fill="#BAD727" d="M851.7,428.8c0-0.5-0.2-1-0.6-1.3c-0.4-0.4-0.8-0.6-1.3-0.6s-1,0.2-1.4,0.6c-0.4,0.4-0.5,0.8-0.5,1.3
					c0,0.5,0.2,1,0.5,1.4c0.4,0.4,0.8,0.6,1.4,0.6c0.5,0,1-0.2,1.3-0.6C851.5,429.8,851.7,429.3,851.7,428.8z"/>
			</g>
		</g>
	</g>
	<g transform="matrix( 1, 0, 0, 1, -356.4,-158.8) ">
		<g>
			<g id="Layer7_4_FILL">
				<path fill="#F7571A" d="M598,321.3c0-0.5-0.2-1-0.6-1.3c-0.4-0.4-0.8-0.6-1.4-0.6s-1,0.2-1.3,0.6c-0.4,0.4-0.5,0.8-0.5,1.3
					c0,0.5,0.2,1,0.5,1.4c0.4,0.4,0.8,0.6,1.3,0.6s1-0.2,1.4-0.6C597.8,322.3,598,321.8,598,321.3z"/>
			</g>
		</g>
	</g>
	<g transform="matrix( 1, 0, 0, 1, -287.6,-198.6) ">
		<g>
			<g id="Layer7_5_FILL">
				<path fill="#F7571A" d="M520.9,449.9c0-0.5-0.2-1-0.6-1.4c-0.4-0.4-0.8-0.5-1.3-0.5s-1,0.2-1.4,0.5c-0.4,0.4-0.5,0.8-0.5,1.4
					c0,0.5,0.2,1,0.5,1.4c0.4,0.4,0.8,0.6,1.4,0.6s1-0.2,1.3-0.6C520.7,450.9,520.9,450.4,520.9,449.9z"/>
			</g>
		</g>
	</g>
	<g transform="matrix( 1, 0, 0, 1, 109.5,-205.8) ">
		<g>
			<g id="Layer7_6_FILL">
				<path fill="#DEDEDE" d="M454,529.6c0-1.1-0.4-2-1.1-2.8c-0.8-0.7-1.7-1.1-2.8-1.1c-1.1,0-2,0.4-2.7,1.1
					c-0.7,0.8-1.1,1.7-1.1,2.8c0,1.1,0.4,2,1.1,2.7c0.8,0.7,1.7,1.1,2.7,1.1c1.1,0,2-0.4,2.8-1.1C453.6,531.6,454,530.7,454,529.6z"
					/>
			</g>
		</g>
	</g>
	<g transform="matrix( 1, 0, 0, 1, -368.1,-198.9) ">
		<g>
			<g id="Layer7_7_FILL">
				<path fill="#DEDEDE" d="M848.8,493.6c-0.4-0.4-0.8-0.5-1.4-0.5c-0.5,0-1,0.2-1.4,0.5c-0.4,0.4-0.5,0.9-0.5,1.4
					c0,0.5,0.2,1,0.5,1.4c0.4,0.4,0.8,0.6,1.4,0.6c0.5,0,1-0.2,1.4-0.6c0.4-0.4,0.6-0.8,0.6-1.4
					C849.4,494.5,849.2,494.1,848.8,493.6z"/>
			</g>
		</g>
	</g>
	<g transform="matrix( 1, 0, 0, 1, -326.2,-538.95) ">
		<g>
			<g id="Layer7_8_FILL">
				<path fill="#D1D1D1" d="M844.5,583.7c0-1.1-0.4-2-1.1-2.7c-0.8-0.7-1.7-1.1-2.8-1.1c-1.1,0-2,0.4-2.7,1.1
					c-0.8,0.8-1.2,1.7-1.2,2.7c0,1.1,0.4,2,1.2,2.8c0.7,0.7,1.6,1.1,2.7,1.1c1.1,0,2-0.4,2.8-1.1
					C844.1,585.7,844.5,584.8,844.5,583.7z"/>
			</g>
		</g>
	</g>
	<g transform="matrix( 1, 0, 0, 1, -462.15,-469.05) ">
		<g>
			<path id="Layer7_10_1_STROKES" fill="none" stroke="#BFBFBF" stroke-width="2" stroke-miterlimit="10" d="M678.5,551.5
				c0,0.9-0.3,1.7-1,2.3s-1.4,1-2.3,1c-0.9,0-1.7-0.3-2.3-1c-0.6-0.6-1-1.4-1-2.3s0.3-1.7,1-2.3c0.6-0.6,1.4-1,2.3-1
				c0.9,0,1.6,0.3,2.3,1C678.1,549.8,678.5,550.5,678.5,551.5z"/>
		</g>
	</g>
	<g transform="matrix( 1, 0, 0, 1, -85.65,-23.35) ">
		<g>
			<path id="Layer7_11_1_STROKES" fill="none" stroke="#BFBFBF" stroke-width="2" stroke-miterlimit="10" d="M619.5,264.3
				c0,0.9-0.3,1.7-1,2.3c-0.6,0.6-1.4,0.9-2.3,0.9c-0.9,0-1.6-0.3-2.3-0.9c-0.6-0.6-1-1.4-1-2.3c0-0.9,0.3-1.6,1-2.3
				c0.6-0.6,1.4-0.9,2.3-0.9c0.9,0,1.7,0.3,2.3,0.9S619.5,263.4,619.5,264.3z"/>
		</g>
	</g>
	<g transform="matrix( 1, 0, 0, 1, -357.6,-222.6) ">
		<g>
			<g id="Layer7_12_MEMBER_0_FILL">
				<path fill="#83C4EC" d="M506.5,271.5h7c0.3,0,0.5-0.1,0.7-0.3c0.2-0.2,0.3-0.4,0.3-0.7c0-0.3-0.1-0.5-0.3-0.7
					c-0.2-0.2-0.4-0.3-0.7-0.3h-7c-0.6,0-0.9,0.3-0.9,0.9c0,0.3,0.1,0.5,0.3,0.7C506.1,271.4,506.3,271.5,506.5,271.5z"/>
			</g>
		</g>
	</g>
	<g transform="matrix( 1, 0, 0, 1, -357.6,-222.6) ">
		<g>
			<g id="Layer7_12_MEMBER_1_FILL">
				<path fill="#83C4EC" d="M509.4,266.4c-0.2,0.2-0.3,0.4-0.3,0.6v7c0,0.3,0.1,0.5,0.3,0.7c0.2,0.2,0.4,0.3,0.6,0.3
					c0.6,0,1-0.3,1-1v-7c0-0.3-0.1-0.5-0.3-0.6c-0.2-0.2-0.4-0.3-0.7-0.3C509.8,266,509.6,266.1,509.4,266.4z"/>
			</g>
		</g>
	</g>
	<g transform="matrix( 1, 0, 0, 1, -486.5,-316.95) ">
		<g>
			<g id="Layer7_13_MEMBER_0_FILL">
				<path fill="#83C4EC" d="M909.2,384.4c0.2,0.2,0.4,0.3,0.6,0.3h7.1c0.3,0,0.5-0.1,0.7-0.3c0.2-0.2,0.2-0.4,0.3-0.6
					c0-0.6-0.3-1-0.9-1h-7.1c-0.3,0-0.5,0.1-0.6,0.3c-0.2,0.2-0.3,0.4-0.3,0.7C908.9,384,909,384.2,909.2,384.4z"/>
			</g>
		</g>
	</g>
	<g transform="matrix( 1, 0, 0, 1, -486.5,-316.95) ">
		<g>
			<g id="Layer7_13_MEMBER_1_FILL">
				<path fill="#83C4EC" d="M914.3,380.1c0-0.2-0.1-0.5-0.3-0.6c-0.2-0.2-0.4-0.3-0.6-0.3c-0.3,0-0.5,0.1-0.7,0.3
					c-0.2,0.2-0.3,0.4-0.3,0.6v7.1c0,0.3,0.1,0.5,0.3,0.7c0.2,0.2,0.4,0.3,0.7,0.3c0.3,0,0.5-0.1,0.6-0.3c0.2-0.2,0.3-0.4,0.3-0.7
					V380.1z"/>
			</g>
		</g>
	</g>
	<g transform="matrix( 1, 0, 0, 1, 151.5,-344.45) ">
		<g>
			<g id="Layer7_14_MEMBER_0_FILL">
				<path fill="#83C4EC" d="M399.5,556.6c-0.3,0-0.5,0.1-0.7,0.3c-0.2,0.2-0.3,0.4-0.3,0.7c0,0.3,0.1,0.5,0.3,0.7
					c0.2,0.2,0.4,0.3,0.7,0.3h7c0.3,0,0.5-0.1,0.7-0.3c0.2-0.2,0.3-0.4,0.3-0.7c0-0.6-0.3-1-1-1H399.5z"/>
			</g>
		</g>
	</g>
	<g transform="matrix( 1, 0, 0, 1, 151.5,-344.45) ">
		<g>
			<g id="Layer7_14_MEMBER_1_FILL">
				<path fill="#83C4EC" d="M404,554c0-0.2-0.1-0.5-0.3-0.7c-0.2-0.2-0.4-0.3-0.6-0.3s-0.5,0.1-0.7,0.3c-0.2,0.2-0.3,0.4-0.3,0.7v7
					c0,0.3,0.1,0.5,0.3,0.7c0.2,0.2,0.4,0.3,0.7,0.3s0.5-0.1,0.6-0.3c0.2-0.2,0.3-0.4,0.3-0.7V554z"/>
			</g>
		</g>
	</g>
	<g transform="matrix( 1, 0, 0, 1, -391.2,-309.1) ">
		<g>
			<g id="Layer7_15_MEMBER_0_FILL">
				<path fill="#83C4EC" d="M584.3,587c0.2,0.2,0.4,0.3,0.7,0.3h7c0.3,0,0.5-0.1,0.7-0.3c0.2-0.2,0.3-0.4,0.3-0.7s-0.1-0.5-0.3-0.6
					c-0.2-0.2-0.4-0.3-0.7-0.3h-7c-0.3,0-0.5,0.1-0.7,0.3c-0.2,0.2-0.3,0.4-0.3,0.6S584.1,586.9,584.3,587z"/>
			</g>
		</g>
	</g>
	<g transform="matrix( 1, 0, 0, 1, -391.2,-309.1) ">
		<g>
			<g id="Layer7_15_MEMBER_1_FILL">
				<path fill="#83C4EC" d="M588.5,590.8c0.3,0,0.5-0.1,0.7-0.3c0.2-0.2,0.3-0.4,0.3-0.6v-7.1c0-0.6-0.3-0.9-1-0.9
					c-0.6,0-1,0.3-1,0.9v7.1c0,0.3,0.1,0.5,0.3,0.6C588,590.8,588.3,590.8,588.5,590.8z"/>
			</g>
		</g>
	</g>
	<g transform="matrix( 1, 0, 0, 1, -366.7,-215.9) ">
		<g>
			<g id="Layer7_16_MEMBER_0_FILL">
				<path fill="#83C4EC" d="M745,571.2c0.3,0,0.5-0.1,0.6-0.3c0.2-0.2,0.3-0.4,0.3-0.7c0-0.2-0.1-0.5-0.3-0.7
					c-0.2-0.2-0.4-0.3-0.6-0.3h-7c-0.3,0-0.5,0.1-0.7,0.3c-0.2,0.2-0.3,0.4-0.3,0.7c0,0.3,0.1,0.5,0.3,0.7c0.2,0.2,0.4,0.3,0.7,0.3
					H745z"/>
			</g>
		</g>
	</g>
	<g transform="matrix( 1, 0, 0, 1, -366.7,-215.9) ">
		<g>
			<g id="Layer7_16_MEMBER_1_FILL">
				<path fill="#83C4EC" d="M740.8,566c-0.2,0.2-0.3,0.4-0.3,0.7v7c0,0.3,0.1,0.5,0.3,0.7c0.2,0.2,0.4,0.3,0.7,0.3
					c0.3,0,0.5-0.1,0.7-0.3c0.2-0.2,0.3-0.4,0.3-0.7v-7c0-0.3-0.1-0.5-0.3-0.7c-0.2-0.2-0.4-0.3-0.7-0.3
					C741.1,565.8,740.9,565.8,740.8,566z"/>
			</g>
		</g>
	</g>
	<g transform="matrix( 1, 0, 0, 1, -358,-165.4) ">
		<g>
			<g id="Layer7_17_FILL">
				<path fill="#BFBFBF" d="M521,492.2h-6l-3,5.2l3,5.2h6l3-5.2L521,492.2 M515.8,493.6h4.4l2.2,3.8l-2.2,3.8h-4.4l-2.2-3.8
					L515.8,493.6z"/>
			</g>
		</g>
	</g>
	<g transform="matrix( 1, 0, 0, 1, -767.45,-177.95) ">
		<g>
			<g id="Layer7_18_FILL">
				<path fill="#BFBFBF" d="M845.3,287.1l-3,5.2l3,5.2h6l3-5.2l-3-5.2H845.3 M846.2,296.1l-2.2-3.8l2.2-3.8h4.3l2.2,3.8l-2.2,3.8
					H846.2z"/>
			</g>
		</g>
	</g>
	<g transform="matrix( 0.7615509033203125, 0, 0, 0.7615509033203125, 184.25,97) " opacity="0.17">
		<g transform="matrix( 1, 0, 0, 1, 0,0) ">
			<g>
				<g id="flash0_ai_Layer_1__Path__0_Layer0_0_FILL">
					<path fill="#3D3D3D" d="M187.8,41.1c-0.2-11.4-4.1-21.1-11.6-29.1c-7.5-8-16.5-12-27-12c-6,0-11.7,1.4-17.1,4.3
						c-5.2,2.8-9.6,6.6-13.2,11.5c-1.4-2.9-3.5-5.3-6.1-7C110,6.9,107.1,6,103.9,6c-4,0-7.5,1.3-10.6,4c-3,2.6-5,6-5.9,10.1
						c-2.7-1.2-5.4-1.8-8.2-1.8c-4.3,0-8.3,1.3-12,3.9c-2.5-2.7-5.4-4.8-8.6-6.3c-3.4-1.5-6.9-2.3-10.6-2.3
						c-5.7,0-10.8,1.7-15.4,5.3c-4.5,3.4-7.8,7.9-9.8,13.4c-1.2-1.4-2.6-2.5-4.2-3.3c-1.7-0.8-3.5-1.2-5.3-1.2c-3.5,0-6.5,1.3-9,3.9
						c-2.5,2.6-3.9,5.7-4.1,9.5H187.8z"/>
				</g>
			</g>
		</g>
	</g>
</g>
<g id="main_fill">
	<g transform="matrix( 1, 0, 0, 1, 0,0) ">
		<g>
			<g id="Layer6_0_FILL">
				<path fill="#828282" d="M313.2,311.1v-10.8h-41.6v10.8H313.2 M313.2,321.9v-10.8h-41.6v10.8H313.2 M313.2,332.8v-10.9h-41.6
					v10.9H313.2 M313.2,257.4v-10.8h-41.6v10.8H313.2 M313.2,289.6h-41.6v10.8h41.6V289.6 M271.6,257.4v10.8h41.6v-10.8H271.6
					 M271.6,278.9v10.8h41.6v-10.8H271.6 M271.6,268.1v10.8h41.6v-10.8H271.6 M313.2,214.4v-10.8h-41.6v10.8H313.2 M313.2,225.1
					v-10.8h-41.6v10.8H313.2 M313.2,235.9v-10.8h-41.6v10.8H313.2 M313.2,246.6v-10.8h-41.6v10.8H313.2 M313.2,192.9h-41.6v10.8
					h41.6V192.9 M271.6,139.1v10.8h41.6v-10.8H271.6 M271.6,182.1v10.8h41.6v-10.8H271.6 M271.6,171.4v10.8h41.6v-10.8H271.6
					 M271.6,160.6v10.8h41.6v-10.8H271.6 M271.6,149.9v10.8h41.6v-10.8H271.6 M313.2,139.1v-10.8h-41.6v10.8H313.2 M313.2,128.4
					v-10.8h-41.6v10.8H313.2z"/>
			</g>
		</g>
		<g>
			<path id="Layer6_0_1_STROKES" fill="none" stroke="#000000" stroke-miterlimit="10" d="M313.2,128.4v10.8v10.8v10.8v10.8v10.8
				v10.8v10.8v10.8v10.8v10.8v10.8v10.8v10.8v10.8v10.8v10.8v10.8v10.8v10.9h-41.6v-10.9v-10.8v-10.8v-10.8v-10.8v-10.8v-10.8v-10.8
				v-10.8v-10.8v-10.8v-10.8v-10.8v-10.8v-10.8v-10.8v-10.8v-10.8v-10.8v-10.8h41.6V128.4h-41.6 M271.6,149.9h41.6 M271.6,139.1
				h41.6 M271.6,192.9h41.6 M271.6,160.6h41.6 M271.6,171.4h41.6 M271.6,182.1h41.6 M271.6,289.6h41.6 M271.6,268.1h41.6
				 M271.6,235.9h41.6 M271.6,225.1h41.6 M271.6,214.4h41.6 M271.6,203.6h41.6 M271.6,246.6h41.6 M271.6,257.4h41.6 M271.6,278.9
				h41.6 M271.6,321.9h41.6 M271.6,311.1h41.6 M271.6,300.4h41.6"/>
		</g>
	</g>
</g>
<g id="main">
	<g transform="matrix( 1, 0, 0, 1, 0,0) ">
		<g>
			<g id="Layer5_0_FILL">
				<path fill="#FFFFFF" d="M317.6,332.8v-10.9H276v10.9H317.6 M317.6,321.9v-10.8H276v10.8H317.6 M317.6,311.1v-10.8H276v10.8
					H317.6 M317.6,289.6H276v10.8h41.6V289.6 M276,246.6v10.8h41.6v-10.8H276 M276,268.1v10.8h41.6v-10.8H276 M276,278.9v10.8h41.6
					v-10.8H276 M276,257.4v10.8h41.6v-10.8H276 M317.6,246.6v-10.8H276v10.8H317.6 M317.6,235.9v-10.8H276v10.8H317.6 M317.6,214.4
					v-10.8H276v10.8H317.6 M317.6,149.9v-10.8H276v10.8H317.6 M317.6,192.9H276v10.8h41.6V192.9 M276,149.9v10.8h41.6v-10.8H276
					 M276,160.6v10.8h41.6v-10.8H276 M276,171.4v10.8h41.6v-10.8H276 M276,182.1v10.8h41.6v-10.8H276 M317.6,128.4v-10.8H276v10.8
					H317.6 M317.6,139.1v-10.8H276v10.8H317.6 M367.4,203.6v-10.8h-49.8v10.8H367.4 M367.4,300.4v-10.8h-49.8v10.8H367.4
					 M434.4,300.4v-10.8h-30.6v10.8H434.4 M403.8,311.1v10.8h30.6v-10.8H403.8 M367.4,321.9v-10.8h-49.8v10.8H367.4 M367.4,311.1
					v10.8h36.4v-10.8H367.4 M403.8,321.9v10.9h30.6v-10.9H403.8 M367.4,332.8v-10.9h-49.8v10.9H367.4 M367.4,321.9v10.9h36.4v-10.9
					H367.4 M367.4,311.1v-10.8h-49.8v10.8H367.4 M403.8,311.1v-10.8h-36.4v10.8H403.8 M403.8,300.4v10.8h30.6v-10.8H403.8
					 M367.4,257.4v-10.8h-49.8v10.8H367.4 M403.8,289.6h-36.4v10.8h36.4V289.6 M367.4,278.9v-10.8h-49.8v10.8H367.4 M367.4,289.6
					v-10.8h-49.8v10.8H367.4 M367.4,278.9v10.8h36.4v-10.8H367.4 M367.4,268.1v-10.8h-49.8v10.8H367.4 M403.8,268.1v-10.8h-36.4
					v10.8H403.8 M403.8,246.6h-36.4v10.8h36.4V246.6 M367.4,225.1v-10.8h-49.8v10.8H367.4 M367.4,214.4v10.8h36.4v-10.8H367.4
					 M367.4,246.6v-10.8h-49.8v10.8H367.4 M367.4,235.9v10.8h36.4v-10.8H367.4 M367.4,235.9v-10.8h-49.8v10.8H367.4 M367.4,225.1
					v10.8h36.4v-10.8H367.4 M367.4,214.4v-10.8h-49.8v10.8H367.4 M403.8,214.4v-10.8h-36.4v10.8H403.8 M434.4,257.4v-10.8h-30.6
					v10.8H434.4 M434.4,289.6v-10.8h-30.6v10.8H434.4 M434.4,278.9v-10.8h-30.6v10.8H434.4 M434.4,268.1v-10.8h-30.6v10.8H434.4
					 M434.4,235.9v-10.8h-30.6v10.8H434.4 M434.4,225.1v-10.8h-30.6v10.8H434.4 M434.4,214.4v-10.8h-30.6v10.8H434.4 M434.4,246.6
					v-10.8h-30.6v10.8H434.4 M434.4,192.9h-30.6v10.8h30.6V192.9 M367.4,149.9v-10.8h-49.8v10.8H367.4 M403.8,139.1v10.8h30.6v-10.8
					H403.8 M403.8,171.4v10.8h30.6v-10.8H403.8 M403.8,192.9h-36.4v10.8h36.4V192.9 M367.4,182.1v-10.8h-49.8v10.8H367.4
					 M367.4,171.4v10.8h36.4v-10.8H367.4 M403.8,182.1v10.8h30.6v-10.8H403.8 M367.4,182.1v10.8h36.4v-10.8H367.4 M367.4,171.4
					v-10.8h-49.8v10.8H367.4 M367.4,160.6v-10.8h-49.8v10.8H367.4 M403.8,171.4v-10.8h-36.4v10.8H403.8 M403.8,160.6v10.8h30.6
					v-10.8H403.8 M403.8,160.6v-10.8h-36.4v10.8H403.8 M403.8,149.9v10.8h30.6v-10.8H403.8 M367.4,128.4v-10.8h-49.8v10.8H367.4
					 M367.4,139.1v-10.8h-49.8v10.8H367.4 M403.8,139.1h-36.4v10.8h36.4V139.1 M403.8,128.4v-10.8h-36.4v10.8H403.8 M403.8,117.6
					v10.8h30.6v-10.8H403.8 M403.8,139.1v-10.8h-36.4v10.8H403.8 M403.8,128.4v10.8h30.6v-10.8H403.8z"/>
				<path fill="#CACACA" d="M317.6,225.1v-10.8H276v10.8H317.6 M367.4,268.1v10.8h36.4v-10.8H367.4 M367.4,192.9v-10.8h-49.8v10.8
					H367.4z"/>
			</g>
		</g>
		<g>
			<path id="Layer5_0_1_STROKES" fill="none" stroke="#5EB9E7" stroke-miterlimit="10" d="M434.4,128.4h-30.6v10.8h30.6V128.4v-10.8
				h-30.6v10.8h-36.4v10.8h36.4v10.8h30.6v-10.8 M276,214.4v-10.8v-10.8v-10.8v-10.8v-10.8v-10.8v-10.8v-10.8v-10.8h41.6h49.8h36.4
				 M367.4,117.6v10.8h-49.8v10.8h49.8v10.8h36.4v10.8h30.6v-10.8 M403.8,160.6v10.8h30.6v-10.8 M367.4,149.9v10.8h36.4
				 M367.4,160.6v10.8h36.4v10.8h30.6v-10.8 M367.4,182.1v10.8h36.4v-10.8H367.4v-10.8h-49.8v10.8H367.4z M434.4,182.1v10.8v10.8
				v10.8v10.8v10.8v10.8v10.8v10.8v10.8v10.8v10.8v10.8v10.8v10.9h-30.6h-36.4h-49.8H276v-10.9v-10.8v-10.8v-10.8v-10.8v-10.8v-10.8
				v-10.8v-10.8v-10.8v-10.8h41.6v-10.8H276 M403.8,192.9h30.6 M434.4,203.6h-30.6v10.8h30.6 M403.8,203.6h-36.4v10.8h36.4v10.8
				h30.6 M367.4,225.1v10.8h36.4v-10.8H367.4v-10.8h-49.8v10.8H367.4z M367.4,235.9v10.8h36.4v-10.8h30.6 M434.4,257.4h-30.6v10.8
				h30.6 M403.8,257.4h-36.4v10.8h36.4v10.8h30.6 M367.4,278.9v10.8h36.4v-10.8H367.4v-10.8h-49.8v10.8H367.4z M367.4,246.6v10.8
				h-49.8v10.8H276 M434.4,246.6h-30.6v10.8 M434.4,300.4h-30.6v10.8h30.6 M403.8,300.4h-36.4v10.8h36.4v10.8h30.6 M403.8,332.8
				v-10.9h-36.4v10.9 M367.4,311.1v10.8h-49.8v10.9 M367.4,289.6v10.8h-49.8v10.8h49.8 M434.4,289.6h-30.6v10.8 M367.4,192.9v10.8
				h-49.8v-10.8H276 M403.8,192.9v10.8 M317.6,117.6v10.8H276 M367.4,160.6h-49.8v10.8H276 M317.6,182.1v10.8h49.8 M367.4,149.9
				h-49.8v10.8H276 M276,182.1h41.6 M317.6,139.1v10.8H276 M276,139.1h41.6 M317.6,225.1v10.8h49.8 M317.6,235.9v10.8h49.8
				 M317.6,278.9v10.8h49.8 M276,278.9h41.6 M276,257.4h41.6v-10.8H276 M276,225.1h41.6 M276,235.9h41.6 M276,289.6h41.6v10.8H276
				 M317.6,311.1v10.8H276 M276,311.1h41.6"/>
		</g>
	</g>
</g>
<g id="fills">
	<g transform="matrix( 1, 0, 0, 1, 0,0) ">
		<g>
			<path id="Layer4_0_1_STROKES" fill="none" stroke="#000000" stroke-miterlimit="10" d="M373.4,123h13.8 M373.4,133.7h13.8
				 M373.4,144.4h13.8 M373.4,155.1h13.8 M373.4,187.2h13.8 M373.4,176.5h13.8 M373.4,165.8h13.8 M373.4,197.9h13.8 M410.4,144.4
				H428 M410.4,123H428 M410.4,133.7h12 M410.4,165.8H428 M410.4,187.2H428 M410.4,176.5h11.8 M410.4,197.9h9.6 M410.4,155.1h8.2
				 M410.4,219.3H428 M410.4,230h14 M410.4,240.7h14 M410.4,208.6h9.6 M410.4,262.1H428 M410.4,294.2H428 M410.4,283.5h11
				 M410.4,272.8h11 M410.4,251.4h5.8 M373.4,230h13.8 M373.4,219.3h13.8 M373.4,208.6h13.8 M373.4,240.7h13.8 M373.4,251.4h13.8
				 M373.4,262.1h13.8 M373.4,272.8h13.8 M373.4,283.5h13.8 M373.4,294.2h13.8 M373.4,326.8h13.8 M373.4,315.6h13.8 M373.4,304.9
				h13.8 M410.4,326.8H428 M410.4,315.6h14.2 M410.4,304.9h14.2 M282.6,123H311 M282.6,144.4H311 M282.6,197.9H311 M282.6,176.5H311
				 M282.6,133.7h13.6 M282.6,155.1H293 M282.6,165.8h12 M282.6,187.2h9 M282.6,240.7H311 M282.6,219.3H311 M282.6,262.1H311
				 M282.6,272.8H311 M282.6,208.6h22 M282.6,230h12.8 M282.6,251.4h11.8 M282.6,283.5h8.8 M282.6,294.2h15.8 M282.6,326.8H311
				 M282.6,304.9H311 M282.6,315.6h9 M323.6,123h37.2 M323.6,155.1h37.2 M323.6,144.4h37.2 M323.6,176.5h37.2 M323.6,208.6h37.2
				 M323.6,326.8h37.2 M323.6,133.7h13.6 M323.6,165.8h17.2 M323.6,197.9h14.2 M323.6,187.2h18 M323.6,219.3h23.8 M323.6,230h30.8
				 M323.6,240.7h19.2 M323.6,251.4h15.2 M323.6,262.1h14.8 M323.6,272.8h21 M323.6,283.5H354 M323.6,294.2H354 M323.6,304.9H339
				 M323.6,315.6h17.8"/>
		</g>
	</g>
</g>
<g id="circles">
	<g transform="matrix( 1, 0, 0, 1, -17.2,1.35) ">
		<g>
			<g id="Layer3_0_FILL">
				<path fill="#BAD727" d="M195.8,190.5c-3.8-11.8-11.2-20.5-22.2-26.1c-11-5.6-22.4-6.6-34.2-2.8c-11.8,3.8-20.5,11.2-26.1,22.2
					c-5.6,11-6.5,22.4-2.8,34.2s11.2,20.5,22.2,26.1c11,5.6,22.4,6.6,34.2,2.8c11.8-3.8,20.5-11.2,26.2-22.2
					C198.7,213.7,199.6,202.3,195.8,190.5z"/>
			</g>
		</g>
	</g>
	<g transform="matrix( 1, 0, 0, 1, -303.2,-198.6) ">
		<g>
			<g id="Layer3_1_FILL">
				<path fill="#F7571A" d="M966,477.4c0-10.7-3.8-19.8-11.3-27.4c-7.6-7.6-16.7-11.4-27.4-11.4c-10.7,0-19.8,3.8-27.3,11.4
					c-7.5,7.5-11.3,16.6-11.3,27.4c0,10.7,3.8,19.8,11.3,27.4c7.6,7.5,16.7,11.3,27.3,11.3c10.7,0,19.8-3.8,27.4-11.3
					C962.2,497.1,966,488,966,477.4z"/>
			</g>
		</g>
	</g>
	<g transform="matrix( 1, 0, 0, 1, -166.4,-154.3) ">
		<g>
			<g id="Layer3_2_FILL">
				<path fill="#2C538A" d="M809.6,252.9c-4.7-14.7-14-25.6-27.8-32.6c-13.8-7.1-28-8.2-42.7-3.5c-14.7,4.8-25.6,14-32.7,27.8
					c-7,13.8-8.2,28-3.5,42.7c4.7,14.7,14,25.6,27.8,32.6c13.8,7.1,28,8.2,42.7,3.5c14.7-4.7,25.6-14,32.6-27.8
					C813.1,281.9,814.3,267.6,809.6,252.9z"/>
			</g>
		</g>
	</g>
</g>
<g id="connectors">
	<g transform="matrix( 1, 0, 0, 1, 0,0) ">
		<g>
			<g id="Layer2_0_FILL">
				<path fill="#FEFEFE" d="M526.4,111.2c-0.1,0-0.3,0-0.5,0.1c0,0,0.1,0,0.1,0C526.2,111.2,526.3,111.2,526.4,111.2 M527.2,110.8
					C527.2,110.7,527.2,110.7,527.2,110.8c0.5-0.4,0.6-0.9,0.6-1.4c0-0.5-0.2-1-0.5-1.3c-0.2-0.2-0.5-0.4-0.8-0.5
					c-0.2,0-0.3-0.1-0.5-0.1c-0.5,0-1,0.2-1.4,0.6c-0.3,0.3-0.5,0.7-0.5,1.2c0,0,0,0.1,0,0.2c0,0.5,0.2,1,0.5,1.3
					c0.4,0.4,0.8,0.6,1.4,0.6h0c0.2,0,0.3,0,0.5-0.1C526.7,111.1,526.9,110.9,527.2,110.8 M360.7,190.1c0-0.8-0.3-1.4-0.9-2
					c-0.6-0.5-1.2-0.8-2-0.8s-1.4,0.3-2,0.8c-0.5,0.6-0.8,1.2-0.8,2c0,0.8,0.3,1.4,0.8,2c0.6,0.6,1.2,0.8,2,0.8c0.8,0,1.4-0.3,2-0.8
					C360.4,191.5,360.7,190.8,360.7,190.1 M576,278.5c0,0,0.1,0,0.2,0c-0.2,0-0.3,0-0.5-0.1C575.8,278.4,575.9,278.4,576,278.5
					 M577.6,277.9c0.4-0.4,0.6-0.9,0.6-1.5c0-0.5-0.2-1-0.6-1.4c-0.4-0.4-0.8-0.6-1.4-0.6h0c-0.5,0-1,0.2-1.4,0.6
					c-0.4,0.4-0.6,0.8-0.6,1.3c0,0,0,0.1,0,0.1c0,0.6,0.2,1,0.6,1.5c0,0,0.1,0.1,0.1,0.1c0.3,0.1,0.5,0.3,0.8,0.4
					c0.1,0,0.3,0,0.5,0.1h0C576.8,278.5,577.2,278.3,577.6,277.9 M394,277.6c0.5-0.6,0.8-1.2,0.8-2v0c0-0.8-0.3-1.4-0.8-2
					c-0.6-0.5-1.2-0.8-2-0.8c-0.8,0-1.5,0.3-2,0.8c-0.6,0.6-0.9,1.2-0.9,2s0.3,1.4,0.9,2c0.5,0.6,1.2,0.9,2,0.9
					C392.7,278.5,393.4,278.2,394,277.6 M273.2,219.7L273.2,219.7c0,0.8,0.3,1.5,0.8,2.1c0.6,0.6,1.2,0.9,2,0.9c0.8,0,1.4-0.3,2-0.9
					s0.9-1.2,0.9-2s-0.3-1.4-0.9-2c-0.6-0.5-1.2-0.8-2-0.8s-1.4,0.3-2,0.8C273.5,218.3,273.2,219,273.2,219.7 M186.8,218.7
					c-0.2-0.2-0.5-0.4-0.8-0.4c-0.1,0-0.2,0-0.3,0c-0.4,0-0.8,0.2-1.1,0.4c-0.3,0.3-0.4,0.6-0.4,1c0,0.4,0.2,0.8,0.4,1.1
					c0,0,0,0,0.1,0.1l0.1,0.1c0.1,0.1,0.3,0.2,0.4,0.3c0.1,0.1,0.3,0.1,0.4,0.1h0c0,0,0.1,0,0.1,0c0.4,0,0.8-0.1,1.1-0.4
					c0.3-0.3,0.4-0.6,0.4-1.1C187.2,219.3,187.1,219,186.8,218.7z"/>
			</g>
		</g>
		<g>
			<path id="Layer2_0_1_STROKES" fill="none" stroke="#A3A3A3" stroke-miterlimit="10" d="M576.2,274.4c0.9-11.4,5.6-21.3,13.9-29.7
				c9.4-9.4,20.8-14.1,34.1-14.1s24.6,4.7,34,14.1c9.4,9.4,14.1,20.7,14.1,34.1 M526.5,107.5c0.9-7,3.2-14,6.7-20.8
				c8-15.7,20.4-26.2,37.2-31.6s33-4.1,48.7,4c15.7,8,26.2,20.4,31.5,37.2c5.4,16.8,4.1,33-3.9,48.7c-8,15.7-20.4,26.2-37.2,31.6
				 M526.5,107.5c0.3,0.1,0.5,0.2,0.8,0.5c0.4,0.4,0.5,0.8,0.5,1.3c0,0.5-0.2,1-0.5,1.3c0,0-0.1,0.1-0.1,0.1
				c-0.3,0.1-0.5,0.3-0.8,0.4 M529.2,135.4c-2.6-8.2-3.7-16.2-3.1-24.1 M524,109.2c0-0.5,0.2-0.9,0.5-1.2c0.4-0.4,0.8-0.6,1.4-0.6
				c0.2,0,0.4,0,0.6,0.1 M526,111.3L526,111.3c-0.6,0-1-0.2-1.4-0.6c-0.4-0.4-0.5-0.8-0.5-1.3c0-0.1,0-0.1,0-0.2h-35.3
				c-2.3,0-4.3,0.8-6,2.5c-1.6,1.6-2.4,3.4-2.5,5.7v64.3c0,2.3-0.8,4.3-2.4,6c-1.6,1.6-3.6,2.4-6,2.4H360.7c0,0.8-0.3,1.4-0.9,2
				c-0.6,0.6-1.2,0.8-2,0.8c-0.8,0-1.4-0.3-2-0.8c-0.5-0.6-0.8-1.2-0.8-2c0-0.8,0.3-1.4,0.8-2c0.6-0.5,1.2-0.8,2-0.8s1.4,0.3,2,0.8
				c0.6,0.6,0.9,1.2,0.9,2 M526.4,111.2c-0.1,0-0.3,0-0.5,0.1 M394.8,275.6c0,0.7-0.3,1.4-0.8,2c-0.6,0.6-1.2,0.9-2,0.9
				c-0.8,0-1.5-0.3-2-0.9c-0.6-0.6-0.9-1.2-0.9-2s0.3-1.4,0.9-2c0.5-0.5,1.2-0.8,2-0.8c0.8,0,1.4,0.3,2,0.8
				C394.5,274.2,394.8,274.8,394.8,275.6L394.8,275.6l179.5,0.6c0-0.5,0.2-0.9,0.6-1.3c0.4-0.4,0.9-0.6,1.4-0.6h0
				c0.6,0,1,0.2,1.4,0.6c0.4,0.4,0.6,0.9,0.6,1.4c0,0.6-0.2,1-0.6,1.5c-0.4,0.4-0.8,0.6-1.4,0.6h0 M576,278.5c0,0.1,0,0.2,0,0.3
				c0,13.3,4.7,24.6,14.1,34c9.4,9.4,20.8,14.1,34.1,14.1 M575.7,278.4c-0.3-0.1-0.5-0.3-0.8-0.4c0,0-0.1-0.1-0.1-0.1
				c-0.4-0.4-0.6-0.9-0.6-1.5c0-0.1,0-0.1,0-0.1 M576.2,278.5c-0.2,0-0.3,0-0.5-0.1 M120.2,156.6c13.5-4.4,26.7-3.3,39.3,3.2
				c12.7,6.5,21.2,16.5,25.6,30.1c3.1,9.7,3.5,19.2,1,28.5c0.3,0.1,0.5,0.2,0.8,0.4c0.3,0.3,0.4,0.6,0.4,1h86c0-0.7,0.3-1.4,0.8-1.9
				c0.6-0.5,1.2-0.8,2-0.8s1.4,0.3,2,0.8c0.6,0.6,0.9,1.2,0.9,2s-0.3,1.4-0.9,2s-1.2,0.9-2,0.9c-0.8,0-1.4-0.3-2-0.9
				c-0.5-0.6-0.8-1.2-0.8-2v-0.1 M185.6,221.2c-0.1,0-0.3,0-0.4-0.1c-0.9,2.7-2,5.4-3.4,8c-6.5,12.7-16.5,21.2-30.1,25.6
				c-13.6,4.4-26.7,3.3-39.4-3.2S91.3,235,86.9,221.4 M184.8,220.9L184.8,220.9c-0.1-0.1-0.1-0.1-0.1-0.1c-0.3-0.3-0.4-0.6-0.4-1.1
				c0-0.4,0.2-0.7,0.4-1c0.3-0.3,0.6-0.4,1.1-0.4c0.1,0,0.2,0,0.3,0 M187.2,219.7c0,0.4-0.1,0.8-0.4,1.1c-0.3,0.3-0.6,0.4-1.1,0.4
				c0,0,0,0-0.1,0h-0.1 M185.2,221.1L185.2,221.1c-0.2,0-0.3-0.1-0.4-0.2"/>
		</g>
	</g>
</g>
<g id="icons">
	<g transform="matrix( 1, 0, 0, 1, 0,0) ">
		<g>
			<path id="Layer1_0_1_STROKES" fill="none" stroke="#3A6FBB" stroke-miterlimit="10" d="M134.8,185.2h24 M134.8,192.6h24
				 M111.8,185h15.6v15.6h-15.6V185z M134.8,200.6h24 M111.6,208.2h47.2 M111.6,215.6h47.2 M111.6,223.6h47.2"/>
		</g>
		<g>
			<path id="Layer1_0_2_STROKES" fill="none" stroke="#FFFFFF" stroke-miterlimit="10" d="M649.3,289.9v-3.3 M602,95.9h-23.6
				 M578.3,91.6H602 M606.9,91.6h23.7 M630.6,95.9H607 M550.2,87.4h4v4h-4V87.4z M602,117.4h-23.6 M602,108.8h-23.6 M602,121.7
				h-23.6 M602,126h-23.6 M602,100.2h-23.6 M602,143.4h-23.6 M602,138.9h-23.6 M602,134.6h-23.6 M602,130.3h-23.6 M602,113.1h-23.6
				 M602,104.5h-23.6 M630.6,100.2H607 M630.6,126H607 M630.6,121.7H607 M630.6,143.4H607 M630.6,138.9H607 M630.6,134.6H607
				 M630.6,130.3H607 M630.6,113.1H607 M630.6,104.5H607 M630.6,108.8H607 M630.6,117.4H607 M573.6,138.9H550 M573.6,134.6H550
				 M573.6,130.3H550 M573.6,113.1H550 M573.6,104.5H550 M573.6,108.8H550 M573.6,117.4H550 M573.6,126H550 M573.6,121.7H550
				 M573.6,143.4H550 M573.6,95.9H550 M573.6,100.2H550 M558.6,91.6h15 M601.9,271.1v-3.3 M599.5,271.1v-3.3 M646.8,289.9v-3.3
				 M605,270.6h38.6 M605,280h38.6 M605,289.4h38.6"/>
		</g>
	</g>
</g>
</svg>
