<?xml version="1.0" encoding="utf-8"?>
<!-- Generator: Adobe Illustrator 23.0.1, SVG Export Plug-In . SVG Version: 6.00 Build 0)  -->
<svg version="1.1" id="Layer_qwe1" xmlns="http://www.w3.org/2000/svg" xmlns:xlink="http://www.w3.org/1999/xlink" x="0px" y="0px"
	 viewBox="0 0 750 400" enable-background="new 0 0 750 400" xml:space="preserve">
<g id="clouds_bits">
	<g transform="matrix( 1, 0, 0, 1, 0,0) ">
		<g>
			<g id="Layer5_0_FILL">
				<path fill="#BFBFBF" d="M153.6,281.6l3,5.2h6l3.1-5.2l-3.1-5.2h-6L153.6,281.6 M157.5,277.9h4.4l2.1,3.8l-2.1,3.8h-4.4l-2.2-3.8
					L157.5,277.9 M367.5,339.2l3,5.2h6.1l3-5.2l-3-5.2h-6.1L367.5,339.2 M369.2,339.2l2.2-3.8h4.4l2.2,3.8l-2.2,3.8h-4.4
					L369.2,339.2z"/>
				<path fill="#83C4EC" d="M490.3,77.9c-0.3,0-0.5,0.1-0.7,0.3c-0.2,0.2-0.3,0.4-0.3,0.7v2.6h-2.6c-0.3,0-0.5,0.1-0.6,0.3
					c-0.2,0.2-0.3,0.4-0.3,0.7c0,0.3,0.1,0.5,0.3,0.7c0.2,0.2,0.4,0.3,0.6,0.3h2.6v2.6c0,0.6,0.3,0.9,0.9,0.9c0.3,0,0.5-0.1,0.7-0.3
					c0.2-0.2,0.3-0.4,0.3-0.7v-2.6h2.5c0.3,0,0.5-0.1,0.7-0.3c0.2-0.2,0.3-0.4,0.3-0.7c0-0.6-0.3-1-1-1h-2.5v-2.6
					c0-0.2-0.1-0.4-0.3-0.7C490.8,78,490.5,77.9,490.3,77.9 M664.5,320.6c0-0.3-0.1-0.5-0.3-0.6c-0.2-0.2-0.4-0.3-0.7-0.3
					s-0.5,0.1-0.7,0.3c-0.2,0.2-0.3,0.4-0.3,0.6v2.6H660c-0.6,0-1,0.3-1,0.9c0,0.3,0.1,0.5,0.3,0.6c0.2,0.2,0.4,0.3,0.7,0.3h2.5v2.5
					c0,0.3,0.1,0.5,0.3,0.7c0.2,0.2,0.4,0.3,0.7,0.3s0.5-0.1,0.7-0.3c0.2-0.2,0.3-0.4,0.3-0.7v-2.5h2.5c0.2,0,0.5-0.1,0.7-0.3
					c0.2-0.2,0.3-0.4,0.3-0.6s-0.1-0.5-0.3-0.7c-0.2-0.2-0.4-0.3-0.7-0.3h-2.5V320.6 M72.3,178c-0.6,0-0.9,0.3-0.9,0.9v2.6h-2.6
					c-0.3,0-0.5,0.1-0.7,0.3c-0.2,0.2-0.3,0.4-0.3,0.6c0,0.3,0.1,0.5,0.3,0.7c0.2,0.2,0.4,0.2,0.7,0.3h2.6v2.6
					c0,0.3,0.1,0.5,0.3,0.6c0.2,0.2,0.4,0.3,0.7,0.3s0.5-0.1,0.7-0.3c0.2-0.2,0.3-0.4,0.3-0.6v-2.6h2.6c0.3,0,0.5-0.1,0.7-0.3
					c0.2-0.2,0.3-0.4,0.3-0.7c0-0.3-0.1-0.5-0.3-0.6c-0.2-0.2-0.4-0.3-0.7-0.3h-2.6v-2.6C73.2,178.3,72.9,178,72.3,178 M454,245.3
					c0-0.3-0.1-0.5-0.3-0.6c-0.2-0.2-0.4-0.3-0.7-0.3s-0.5,0.1-0.6,0.3c-0.2,0.2-0.3,0.4-0.3,0.6v2.6h-2.5c-0.6,0-1,0.3-1,0.9
					c0,0.3,0.1,0.5,0.3,0.6c0.2,0.2,0.4,0.3,0.7,0.3h2.5v2.6c0,0.3,0.1,0.5,0.3,0.7c0.2,0.2,0.4,0.3,0.6,0.3s0.5-0.1,0.7-0.3
					c0.2-0.2,0.3-0.4,0.3-0.7v-2.6h2.5c0.2,0,0.5-0.1,0.7-0.3c0.2-0.2,0.3-0.4,0.3-0.6c0-0.3-0.1-0.5-0.3-0.7
					c-0.2-0.2-0.4-0.2-0.7-0.3H454V245.3z"/>
				<path fill="#BAD727" d="M627.3,280.3c-0.4,0.4-0.5,0.8-0.5,1.4c0,0.5,0.2,1,0.5,1.4c0.4,0.4,0.8,0.6,1.4,0.6
					c0.5,0,1-0.2,1.3-0.6c0.4-0.4,0.6-0.9,0.6-1.4c0-0.5-0.2-1-0.6-1.4c-0.4-0.4-0.8-0.5-1.3-0.5
					C628.1,279.8,627.7,279.9,627.3,280.3 M631.2,66.8c-0.4,0.4-0.6,0.8-0.6,1.3c0,0.5,0.2,1,0.6,1.3c0.4,0.4,0.8,0.6,1.3,0.6
					s1-0.2,1.4-0.6c0.4-0.4,0.5-0.8,0.5-1.3c0-0.5-0.2-1-0.5-1.3c-0.4-0.4-0.8-0.6-1.4-0.6S631.6,66.4,631.2,66.8z"/>
				<path fill="#DEDEDE" d="M590.6,307.2c0,1.1,0.4,2,1.1,2.7c0.8,0.7,1.7,1.1,2.8,1.1c1,0,1.9-0.4,2.7-1.1c0.7-0.7,1.1-1.6,1.1-2.7
					c0-1.1-0.4-2-1.1-2.8c-0.7-0.7-1.6-1.1-2.7-1.1c-1.1,0-2,0.4-2.8,1.1C591,305.2,590.6,306.1,590.6,307.2z"/>
				<path fill="#3D3D3D" fill-opacity="0.1686" d="M670.2,134.6c-3.4-3.3-7.5-5-12.2-5c-2.7,0-5.3,0.6-7.7,1.8
					c-2.3,1.1-4.3,2.7-6,4.8c-0.7-1.2-1.6-2.2-2.8-2.9c-1.2-0.8-2.6-1.2-4-1.2c-1.8,0-3.4,0.6-4.8,1.7c-1.4,1.1-2.3,2.5-2.7,4.2
					c-1.2-0.5-2.4-0.7-3.7-0.7c-1.9,0-3.7,0.5-5.4,1.6c-2.4-2.4-5.3-3.5-8.7-3.5c-2.6,0-4.9,0.7-7,2.1c-2.1,1.4-3.5,3.3-4.5,5.6
					c-1.2-1.3-2.6-1.9-4.3-1.9c-1.6,0-2.9,0.5-4,1.6c-1.1,1.1-1.8,2.4-1.9,3.9h84.8C675.3,142,673.5,137.9,670.2,134.6 M259,41.7
					c-4.6-3.5-9.8-5.3-15.4-5.3c-3.7,0-7.2,0.8-10.6,2.3c-3.2,1.5-6.1,3.6-8.6,6.3c-3.7-2.6-7.6-3.9-11.9-3.9
					c-2.8,0-5.5,0.6-8.2,1.8c-0.9-4.1-2.9-7.5-5.9-10.1c-3.1-2.7-6.6-4-10.6-4c-3.2,0-6.1,0.9-8.8,2.7c-2.6,1.8-4.7,4.1-6.1,7
					c-3.6-4.9-8-8.7-13.2-11.5c-5.4-2.9-11.1-4.3-17.1-4.3c-10.5,0-19.5,4-27.1,12c-7.5,8-11.4,17.7-11.6,29.1h187.8
					c-0.3-3.7-1.6-6.9-4.1-9.5c-2.5-2.6-5.5-3.8-9-3.8c-1.8,0-3.6,0.4-5.3,1.2c-1.6,0.8-3,1.9-4.3,3.3
					C266.9,49.6,263.6,45.1,259,41.7 M160.9,336.4c-1.9-1.9-4.1-3.4-6.7-4.5c-2.6-1.1-5.3-1.6-8.1-1.6c-4.3,0-8.3,1.2-11.9,3.7
					c-3.5,2.4-6,5.5-7.6,9.4c-2-2.1-4.4-3.1-7.3-3.1c-2.6,0-4.9,0.9-6.9,2.8c-1.9,1.8-3,4-3.1,6.6h144.1c-0.2-8-3.2-14.9-9-20.5
					c-5.8-5.7-12.7-8.5-20.7-8.5c-4.6,0-9,1-13.1,3c-4,1.9-7.3,4.6-10.1,8.1c-1.1-2.1-2.7-3.7-4.7-5c-2.1-1.3-4.4-1.9-6.8-1.9
					c-3,0-5.8,0.9-8.1,2.8c-2.3,1.9-3.9,4.2-4.6,7.1c-2-0.8-4.1-1.2-6.3-1.2C166.7,333.6,163.6,334.5,160.9,336.4z"/>
				<path fill="#F7571A" d="M649.2,98.1c0-0.5-0.2-1-0.5-1.4c-0.4-0.4-0.8-0.5-1.4-0.5s-1,0.2-1.3,0.5c-0.4,0.4-0.6,0.8-0.6,1.4
					c0,0.5,0.2,1,0.6,1.4c0.4,0.4,0.8,0.6,1.3,0.6s1-0.2,1.4-0.6C649,99,649.2,98.6,649.2,98.1 M461.1,160.7c0,0.5,0.2,1,0.6,1.4
					c0.4,0.4,0.8,0.6,1.3,0.6c0.5,0,1-0.2,1.4-0.6c0.4-0.4,0.6-0.8,0.6-1.4c0-0.5-0.2-1-0.6-1.3c-0.4-0.4-0.8-0.6-1.4-0.6
					c-0.5,0-1,0.2-1.3,0.6C461.3,159.7,461.1,160.2,461.1,160.7z"/>
				<path fill="#D1D1D1" d="M112.8,239.4c0,1.1,0.4,2,1.1,2.8c0.8,0.7,1.7,1.1,2.8,1.1s2-0.4,2.7-1.1c0.8-0.8,1.1-1.7,1.1-2.8
					c0-1-0.4-1.9-1.1-2.7c-0.7-0.7-1.6-1.1-2.7-1.1c-1.1,0-2,0.4-2.8,1.1C113.1,237.5,112.8,238.4,112.8,239.4z"/>
			</g>
		</g>
		<g>
			<path id="Layer5_0_1_STROKES" fill="none" stroke="#BFBFBF" stroke-width="2" stroke-miterlimit="10" d="M515.3,69.4
				c0,0.9,0.3,1.7,1,2.3c0.6,0.6,1.4,1,2.3,1c0.9,0,1.6-0.3,2.3-1c0.6-0.6,1-1.4,1-2.3c0-0.9-0.3-1.6-1-2.3c-0.6-0.6-1.4-1-2.3-1
				c-0.9,0-1.7,0.3-2.3,1C515.6,67.8,515.3,68.5,515.3,69.4z M403.1,323.9c0,0.9,0.3,1.7,1,2.3c0.6,0.6,1.4,1,2.3,1
				c0.9,0,1.7-0.3,2.3-1c0.6-0.6,1-1.4,1-2.3c0-0.9-0.3-1.7-1-2.3c-0.6-0.6-1.4-0.9-2.3-0.9c-0.9,0-1.6,0.3-2.3,0.9
				C403.5,322.2,403.1,322.9,403.1,323.9z M87,152.3c0,0.9,0.3,1.7,0.9,2.3c0.6,0.6,1.4,0.9,2.3,0.9c0.9,0,1.7-0.3,2.3-0.9
				s0.9-1.4,0.9-2.3c0-0.9-0.3-1.6-0.9-2.3s-1.4-0.9-2.3-0.9c-0.9,0-1.6,0.3-2.3,0.9C87.3,150.6,87,151.4,87,152.3z"/>
		</g>
	</g>
</g>
<g id="man">
	<g transform="matrix( 1, 0, 0, 1, 0,0) ">
		<g>
			<g id="Layer4_0_FILL">
				<path fill="#5EB9E7" d="M526.3,169.9l-4.5-4.4c-0.5,0.4-1.1,0.6-1.8,0.6c-0.8,0-1.4-0.3-1.9-0.8l-3.9-4l-1.5-1.6H501h-0.7
					c-0.8,0-1.6,0.1-2.5,0.2c-3.3,0.5-6.2,2.1-8.8,4.6c-2.3,2.3-3.7,4.8-4.4,7.8c-0.1,0.6-0.2,1.2-0.3,1.8c0,0.4-0.1,0.7-0.1,1
					c-0.5,5.5-2.1,10.6-4.8,15.2c-1.8,2.9-3.9,5.4-6.2,7.6c-6.4,6.5-14.1,10.2-23.1,11.1v17.1c13.6-0.8,25.4-6.2,35.4-16
					c3.8-3.9,6.9-7.8,9.3-11.9c1.1-2,2-4,2.9-6c0.8-2,1.5-4.1,2-6.2c0-0.1,0.1-0.2,0.1-0.4c0.1-0.2,0.2-0.5,0.4-0.6
					c0.4-0.3,0.8-0.5,1.3-0.5c0.5,0,1,0.2,1.3,0.5c0.3,0.3,0.4,0.6,0.5,0.9v0.2c0,0.1,0,0.3,0,0.4c0,0.2,0,0.3,0,0.4v51.8h24.3v-2.9
					l-8.9-8.6L526.3,169.9 M518,159.8h-5.3l1.5,1.6l3.9,4c0.5,0.5,1.1,0.8,1.9,0.8c0.7,0,1.3-0.2,1.8-0.6c0.1,0,0.1-0.1,0.2-0.1
					l5.5-5.6H518 M556.2,159.9c-0.2,0-0.4-0.1-0.6-0.1c-0.4,0-0.8,0-1.1-0.1c-0.1,0-0.2,0-0.3-0.1h-11.4l-5.5,5.6
					c-0.5,0.5-1.2,0.8-1.9,0.8c-0.8,0-1.4-0.2-1.9-0.6l-4.5,4.4l7.6,57.3l-9,8.6l0-0.1v2.9h24.3v-52.8c0-0.5,0.2-0.9,0.5-1.3
					c0.3-0.3,0.6-0.4,1-0.6h0.7c0.2,0.1,0.3,0.1,0.5,0.2c0.2,0.1,0.4,0.2,0.5,0.4l0.3,0.3l0.8,1.7c0,0,0,0.1,0.1,0.1
					c1.3,2.7,2.4,5.3,3.3,8c0.4,1.2,0.8,2.4,1.1,3.6c0.4,1.3,0.9,3.3,1.5,6c1.2,5.8,1.9,11.9,1.9,18.4c0,7.2-0.8,14.1-2.4,20.7
					l17.4,6.9c2.5-9.4,3.8-19.3,3.8-29.8c0-8.3-0.8-16.2-2.4-23.9c-0.7-3.4-1.5-6.7-2.5-9.9c-1.4-4.5-3.1-8.8-5.1-13.1l-1.9-3.8
					c-0.8-1.5-1.9-2.9-3.3-4.3C564.3,162.4,560.5,160.5,556.2,159.9 M542.8,159.8H537h-9.5l5.8,5.6c0,0,0.1,0.1,0.1,0.1
					c0.5,0.4,1.1,0.6,1.9,0.6c0.7,0,1.4-0.3,1.9-0.8L542.8,159.8z"/>
				<path fill="#FFC89E" d="M450.1,226.1v-17.1l-15.7,0.1v17H450.1 M573.5,265.4c2.2-4.9,4-9.9,5.4-15.1l-17.4-6.9
					c-1.2,5.1-2.9,10-5.1,14.7L573.5,265.4 M518,149.3v10.5h9.5h9.5v-10.5h-0.1c-2.6,2.2-5.8,3.4-9.5,3.4
					C523.8,152.6,520.6,151.5,518,149.3 M536.8,133.8v-2.4c-0.1-1.3-0.5-2.4-1.4-3.3c-0.9-0.9-2-1.3-3.3-1.4h-19.7V138
					c0.1,4,1.6,7.4,4.4,10.3l1.1,1c2.6,2.2,5.8,3.4,9.5,3.4c3.7,0,6.8-1.1,9.5-3.4h0.1l1.1-1c0.7-0.8,1.2-1.4,1.5-1.8
					c1.9-2.4,2.8-5.2,2.9-8.4v-0.9h-2.3c-1-0.1-1.8-0.4-2.4-1C537.2,135.3,536.8,134.6,536.8,133.8z"/>
				<path fill="#828282" d="M551.8,244.9v-6.3h-24.3h-24.3v6.3h18.5h11.4H551.8 M522.5,276.2c0.2-0.6,0.5-1.1,1-1.6
					c0.8-0.8,1.8-1.2,2.9-1.2c1.1,0,2.1,0.4,2.8,1.2c0.6,0.6,1,1.4,1.2,2.4c0,0.2,0,0.4,0,0.6c0,0.2,0,0.4,0,0.6v27.1V366h21.4
					v-60.8v-53.1h-18.6h-11.4h-18.5v6.4L488.8,304c-0.4,1.3-0.5,2.8-0.5,4.3c0,1.2,0.1,2.4,0.4,3.6c0.1,0.6,0.3,1.2,0.6,1.9
					l13.9,52.3h0.3l20.5-5.5l-12.7-47.4L522.5,276.2 M542.1,106.3c0.1,0,0.1-0.1,0.2-0.1c1.8-0.9,3.8-1.4,5.9-1.5h-25.1
					c-3.3,0.1-6.2,1.3-8.6,3.7c-1.8,1.9-3,4-3.5,6.3c-1,0.3-1.9,0.8-2.8,1.6c-1.2,1.2-1.8,2.6-1.8,4.3c0,1.7,0.6,3.2,1.8,4.3
					c1.2,1.2,2.6,1.8,4.2,1.8h0.1h19.7c1.3,0.1,2.4,0.5,3.3,1.4c0.9,0.9,1.3,1.9,1.4,3.3v2.4c0,0.8,0.3,1.6,1,2.3
					c0.6,0.6,1.4,0.9,2.4,1h2.3v0.9c0,3.2-1,6.1-2.9,8.4c0.5,0.2,1.2,0.3,2,0.3c2.2,0,4-0.8,5.5-2.3c0.9-0.9,1.5-1.9,2-3
					c0.2-0.8,0.3-1.6,0.3-2.3v-17c-0.1-3.6-1.4-6.7-4-9.3c-0.8-0.8-1.7-1.5-2.6-2.1c2-1.2,4.2-1.9,6.7-2l-10.5,0.1
					C539.9,107.7,541,106.9,542.1,106.3z"/>
				<path fill="#B96D00" d="M530.4,382h21.4v-16h-21.4V382 M503.1,366h-2c-2.9,0.1-5.4,1.2-7.4,3.2c-2.1,2.1-3.3,4.7-3.4,7.6v5.1
					h15.1l22.5-6l-4.1-15.5l-20.5,5.5H503.1L503.1,366 M521.8,244.9h-18.5v7.2h18.5V244.9 M551.8,244.9h-18.6v7.2h18.6V244.9z"/>
				<path fill="#FFFFFF" d="M533.2,252.1v-7.2h-11.4v7.2H533.2 M529,169.9h-2.7l-7.6,57.3l8.9,8.6l0,0.1l9-8.6L529,169.9
					 M521.8,165.4l4.5,4.4h2.7l4.5-4.4c0-0.1-0.1-0.1-0.1-0.1l-5.8-5.6l-5.5,5.6C522,165.4,521.9,165.4,521.8,165.4z"/>
			</g>
		</g>
		<g>
			<path id="Layer4_0_1_STROKES" fill="none" stroke="#080A09" stroke-linecap="round" stroke-linejoin="round" d="M548.2,104.7
				c-2.1,0.1-4.1,0.6-5.9,1.5c0,0-0.1,0.1-0.2,0.1c-1.1,0.6-2.2,1.5-3.2,2.6 M549.4,108.8c-2.4,0.1-4.7,0.8-6.7,2
				c0.9,0.6,1.8,1.3,2.6,2.1c2.6,2.6,3.9,5.7,4,9.3v17c0,0.7-0.1,1.4-0.3,2.3c-0.4,1.2-1.1,2.2-2,3c-1.5,1.5-3.3,2.3-5.5,2.3
				c-0.8,0-1.5-0.1-2-0.3c-0.3,0.4-0.8,1-1.5,1.8l-1.1,1v10.5h5.8 M551.8,238.6v6.3v7.2v53.1 M530.4,305.2v-27.1V277
				c-0.1-0.9-0.5-1.7-1.2-2.4c-0.8-0.8-1.7-1.2-2.8-1.2c-1.1,0-2,0.4-2.9,1.2c-0.5,0.5-0.8,1-1,1.6l-11.3,36.9l12.7,47.4L528,376
				l-22.5,6h-15.1v-5.1c0.1-3,1.2-5.5,3.4-7.6c2-2,4.5-3.1,7.4-3.2 M503.1,366l-13.9-52.3c-0.2-0.6-0.4-1.3-0.6-1.9
				c-0.3-1.2-0.4-2.4-0.4-3.6c0-1.5,0.2-3,0.5-4.3l14.5-45.5v-6.4v-7.2v-6.3v-51.7v-0.9v-0.2c-0.1-0.3-0.2-0.6-0.5-0.9
				c-0.3-0.3-0.8-0.5-1.3-0.5c-0.5,0-0.9,0.2-1.3,0.5c-0.2,0.2-0.3,0.4-0.4,0.6c0,0.1-0.1,0.3-0.1,0.4c-0.6,2.1-1.3,4.2-2.1,6.2
				c-0.8,2-1.8,4-2.9,6c-2.4,4.1-5.5,8-9.3,11.9c-9.9,9.9-21.7,15.2-35.4,16h-15.7v-17l15.7-0.1c9-0.9,16.7-4.6,23.1-11.1
				c2.3-2.2,4.4-4.7,6.2-7.6c2.7-4.6,4.4-9.7,4.9-15.2c0-0.3,0.1-0.7,0.1-1c0.1-0.6,0.2-1.2,0.3-1.8c0.7-2.9,2.1-5.5,4.4-7.8
				c2.6-2.5,5.5-4.1,8.8-4.6 M500.4,159.8h0.7 M512.8,159.8h5.3v-10.5l-1.1-1c-2.8-2.8-4.3-6.3-4.4-10.3v-11.3h-0.1
				c-1.6,0-3-0.6-4.2-1.8c-1.2-1.1-1.8-2.6-1.8-4.3c0-1.7,0.6-3.1,1.8-4.3c0.8-0.8,1.7-1.3,2.8-1.6c0.5-2.3,1.6-4.4,3.5-6.3
				c2.5-2.4,5.3-3.6,8.6-3.7 M539.6,146.4c1.9-2.4,2.8-5.2,2.9-8.4v-0.9h-2.3c-1-0.1-1.8-0.4-2.4-1c-0.6-0.7-1-1.5-1-2.3v-2.4
				c-0.1-1.3-0.5-2.4-1.4-3.3c-0.9-0.9-2-1.3-3.3-1.4h-19.7 M521.8,165.4c-0.5,0.4-1.1,0.6-1.8,0.6c-0.8,0-1.4-0.3-1.9-0.8l-3.9-4
				 M533.4,165.4c0-0.1-0.1-0.1-0.1-0.1l-5.8-5.6l-5.5,5.6c-0.1,0.1-0.1,0.1-0.2,0.1 M503.3,186.1c0,0.1,0,0.3,0,0.4
				c0,0.2,0,0.3,0,0.4 M537,149.3L537,149.3c-2.7,2.2-5.9,3.4-9.5,3.4c-3.7,0-6.8-1.1-9.5-3.4 M533.4,165.4c0.5,0.4,1.1,0.6,1.9,0.6
				c0.7,0,1.4-0.3,1.9-0.8l5.5-5.6 M518,159.8h9.5h9.5 M450.1,226.1v-17.1 M527.5,235.7v2.9h24.3 M551.8,244.9h-18.6v7.2h18.6
				 M521.8,244.9h-18.5 M521.8,252.1h-18.5 M530.4,278.1c0-0.2,0-0.4,0-0.6c0-0.2,0-0.4,0-0.6 M521.8,244.9v7.2h11.4 M503.3,238.6
				h24.3 M533.2,244.9h-11.4 M503.4,366l-0.2,0l-0.1,0 M523.9,360.5l-20.5,5.5"/>
		</g>
		<g>
			<path id="Layer4_0_2_STROKES" fill="none" stroke="#000000" stroke-linecap="round" stroke-linejoin="round" d="M549.4,108.8
				l-10.5,0.1 M542.8,159.8h11.4c0.1,0,0.2,0,0.3,0.1c0.4,0,0.8,0,1.2,0.1c0.2,0,0.4,0.1,0.6,0.1c4.3,0.6,8.1,2.4,11.3,5.7
				c1.4,1.4,2.5,2.8,3.3,4.3l1.9,3.8c2,4.2,3.7,8.6,5.1,13.1c1,3.2,1.8,6.5,2.5,9.9c1.6,7.7,2.4,15.6,2.4,23.9
				c0,10.5-1.3,20.4-3.8,29.8c-1.4,5.2-3.2,10.2-5.4,15.1l-17.1-7.3c2.2-4.7,3.9-9.6,5.1-14.7c1.6-6.6,2.4-13.5,2.4-20.7
				c0-6.5-0.6-12.6-1.9-18.4c-0.6-2.7-1.1-4.7-1.5-6c-0.3-1.2-0.7-2.4-1.1-3.6c-0.9-2.7-2-5.3-3.3-8c0,0-0.1-0.1-0.1-0.1l-0.8-1.7
				l-0.3-0.3c-0.1-0.1-0.3-0.3-0.5-0.4c-0.1-0.1-0.3-0.1-0.5-0.2h-0.7c-0.4,0.1-0.7,0.3-1,0.6c-0.4,0.4-0.5,0.8-0.5,1.3v52.8
				 M551.8,305.2V366v16h-21.4v-16v-60.8 M501.1,366h2 M497.9,159.9c0.8-0.1,1.6-0.2,2.4-0.2 M501.1,159.8h11.7 M548.2,104.7h-25.1
				 M527.5,235.7l-8.9-8.6l7.6-57.3l-4.5-4.4 M512.8,159.8l1.5,1.6 M533.4,165.4l-4.5,4.4h-2.7 M529,169.9l7.6,57.3l-9,8.6l0-0.1
				 M503.1,366h0.3 M530.4,366h21.4 M561.5,243.4l17.4,6.9"/>
		</g>
	</g>
</g>
<g id="circles">
	<g transform="matrix( 1, 0, 0, 1, 0,0) ">
		<g>
			<g id="Layer3_0_FILL">
				<path fill="#F7571A" d="M231.4,94.2c-1.3-0.4-2.7-0.7-4-0.8c-2.8-0.5-5.7-0.8-8.7-0.8c-13.3,0-24.7,4.7-34.1,14.2
					c-9.4,9.4-14.1,20.8-14.1,34.1c0,13.3,4.7,24.7,14.1,34.2c9.4,9.4,20.8,14.1,34.1,14.1c0.2,0,0.5,0,0.7,0
					c11.8-0.2,22.1-4.1,30.8-11.6c0.9-0.8,1.8-1.6,2.7-2.5c9.4-9.4,14.2-20.8,14.2-34.2c0-12.5-4.1-23.3-12.5-32.3
					c-0.5-0.6-1.1-1.2-1.7-1.8c-0.9-0.9-1.8-1.7-2.7-2.5C244.6,99.4,238.3,96,231.4,94.2z"/>
				<path fill="#BAD727" d="M433.3,87.1c3.2-10,2.5-19.6-2.3-28.9c-4.8-9.3-12.2-15.6-22.2-18.9c-9.9-3.2-19.5-2.4-28.8,2.4
					c-9.3,4.8-15.6,12.2-18.8,22.1c-3.2,9.9-2.4,19.6,2.3,28.9c4.8,9.3,12.1,15.6,22.1,18.8c10,3.2,19.6,2.4,28.9-2.4
					C423.8,104.4,430.1,97.1,433.3,87.1 M342.1,275.6c-3.7-7.2-9.5-12.1-17.2-14.6c-7.8-2.5-15.3-1.9-22.5,1.9
					c-7.2,3.7-12.1,9.5-14.6,17.1c-2.5,7.7-1.9,15.2,1.8,22.5c3.7,7.2,9.5,12.1,17.2,14.6c7.7,2.5,15.2,1.9,22.5-1.8
					c7.2-3.7,12.1-9.4,14.6-17.1C346.4,290.4,345.8,282.9,342.1,275.6z"/>
				<path fill="#2C538A" d="M399.4,193.6c0.4-2.7,0.6-5.4,0.6-8.3c0-14.6-5.2-27.1-15.5-37.5c-10.3-10.3-22.8-15.4-37.5-15.4
					c-14.6,0-27.1,5.1-37.5,15.4c-10.3,10.4-15.5,22.9-15.5,37.5c0,2.9,0.2,5.6,0.6,8.3c0.9,6,2.7,11.6,5.5,16.8
					c2.2,4,5,7.8,8.4,11.3c0.4,0.4,0.7,0.7,1,1.1c10.4,10.4,22.9,15.6,37.5,15.6c13.1,0,24.4-4.1,34.1-12.4c1.1-1,2.3-2,3.4-3.1
					c0.4-0.3,0.7-0.7,1-1.1C393.2,213.6,397.8,204.3,399.4,193.6z"/>
			</g>
		</g>
		<g>
			<path id="Layer3_0_1_STROKES" fill="none" stroke="#A3A3A3" stroke-miterlimit="10" d="M377.4,36.7
				c-10.7,5.5-17.9,13.9-21.6,25.4c-3.7,11.5-2.9,22.6,2.6,33.3s14,17.9,25.5,21.6c11.4,3.7,22.5,2.9,33.1-2.6
				c10.8-5.5,18-14,21.7-25.5c3.7-11.5,2.8-22.6-2.7-33.3 M346.6,127c-16.1,0-29.9,5.7-41.3,17.1c-11.4,11.4-17,25.1-17,41.2
				c0,2.8,0.2,5.4,0.5,8c0.7,5.7,2.2,11.1,4.5,16.2c1.7,3.8,4,7.5,6.7,11c0.8,1.1,1.7,2.1,2.7,3.3c0.8,0.9,1.7,1.8,2.6,2.8
				c0.3,0.3,0.6,0.7,1,1c5.1,4.9,10.7,8.7,16.8,11.4c7.2,3.2,15.1,4.8,23.6,4.8s16.3-1.6,23.5-4.8c3.5-1.5,6.8-3.4,9.9-5.8
				c2.7-1.9,5.4-4.1,7.9-6.6c1.9-1.9,3.7-3.9,5.4-6c1.9-2.4,3.5-5,4.9-7.6c4.5-8.3,6.8-17.5,6.8-27.6 M305.5,321.3
				c8.9,2.9,17.5,2.2,25.9-2c8.3-4.3,13.9-10.9,16.8-19.8c2.9-8.9,2.2-17.5-2.1-25.9c-4.2-8.3-10.8-13.9-19.7-16.8
				c-8.9-2.9-17.5-2.2-25.9,2c-8.4,4.3-14,10.9-16.9,19.8 M218.6,197.1c0.3,0,0.5,0,0.8,0c11.5-0.1,21.8-3.3,30.8-9.5
				c2.9-2,5.6-4.3,8.2-6.9c11-11,16.4-24.2,16.4-39.8c0-14-4.5-26.2-13.4-36.5c-0.9-1.1-1.9-2.2-3-3.3c-2.6-2.6-5.3-4.9-8.2-6.9
				c0,0-0.1-0.1-0.1-0.1c-6.8-4.7-14.4-7.7-22.6-8.8c-2.8-0.4-5.7-0.7-8.8-0.7c-15.5,0-28.7,5.5-39.8,16.5
				c-10.9,11-16.4,24.2-16.4,39.8"/>
		</g>
	</g>
</g>
<g id="connectors">
	<g transform="matrix( 1, 0, 0, 1, 0,0) ">
		<g>
			<g id="Layer2_0_FILL">
				<path fill="#FEFEFE" d="M295,214.8c-0.6,0.6-0.9,1.2-0.9,2c0,0.8,0.3,1.4,0.9,2c0.6,0.6,1.2,0.8,2,0.8c0.8,0,1.4-0.3,2-0.8
					c0.5-0.6,0.8-1.2,0.8-2c0-0.8-0.3-1.4-0.8-2c-0.6-0.5-1.2-0.8-2-0.8C296.2,214,295.5,214.3,295,214.8 M239.6,192.5
					c0,0.5,0.2,1,0.5,1.4c0.3,0.3,0.7,0.5,1.3,0.5c0,0,0.1,0,0.1,0c0.5,0,1-0.2,1.4-0.5s0.5-0.8,0.5-1.4c0-0.5-0.2-1-0.5-1.4
					s-0.8-0.5-1.4-0.5c-0.5,0-1,0.2-1.4,0.5S239.6,192,239.6,192.5 M347.9,294.3c0.4,0.4,0.8,0.5,1.4,0.5s1-0.2,1.4-0.5
					c0.3-0.3,0.5-0.8,0.5-1.3c0,0,0-0.1,0-0.1c0-0.5-0.2-1-0.5-1.4c-0.4-0.4-0.8-0.5-1.4-0.5s-1,0.2-1.4,0.5
					c-0.4,0.4-0.5,0.8-0.5,1.4C347.4,293.4,347.5,293.9,347.9,294.3 M371.5,239.4c0.6,0.6,1.2,0.9,2,0.9s1.4-0.3,2-0.9
					c0.6-0.6,0.9-1.2,0.9-2c0-0.8-0.3-1.4-0.9-2c-0.6-0.5-1.2-0.8-2-0.8c-0.8,0-1.4,0.3-2,0.8c-0.5,0.6-0.8,1.2-0.8,2
					C370.8,238.2,371,238.9,371.5,239.4 M333,125.5c-0.8,0-1.4,0.3-2,0.8c-0.6,0.6-0.9,1.2-0.9,2c0,0.8,0.3,1.4,0.9,2
					c0.6,0.5,1.2,0.8,2,0.8c0.8,0,1.4-0.3,2-0.8c0.5-0.6,0.8-1.2,0.8-2c0-0.8-0.3-1.4-0.8-2C334.4,125.8,333.7,125.5,333,125.5
					 M355.1,72.9c0-0.5-0.2-1-0.5-1.3c-0.4-0.4-0.8-0.6-1.4-0.6s-1,0.2-1.4,0.6c-0.3,0.3-0.5,0.8-0.5,1.3c0,0,0,0.1,0,0.1
					c0,0.5,0.2,1,0.5,1.3c0.4,0.4,0.8,0.6,1.4,0.6s1-0.2,1.4-0.6C355,73.9,355.1,73.4,355.1,72.9z"/>
			</g>
		</g>
		<g>
			<path id="Layer2_0_1_STROKES" fill="none" stroke="#A3A3A3" stroke-miterlimit="10" d="M351.4,72.8c0-0.5,0.2-0.9,0.5-1.3
				c0.4-0.4,0.8-0.6,1.4-0.6s1,0.2,1.4,0.6c0.4,0.4,0.5,0.8,0.5,1.3c0,0.5-0.2,1-0.5,1.3c-0.4,0.4-0.8,0.6-1.4,0.6s-1-0.2-1.4-0.6
				C351.5,73.9,351.4,73.4,351.4,72.8C351.4,72.9,351.4,72.8,351.4,72.8h-10.3c-0.6,0-1.2,0.1-1.8,0.3c-1.4,0.3-2.7,1.1-3.9,2.2
				c-1.6,1.6-2.4,3.6-2.4,5.9v44.3c0.8,0,1.4,0.3,2,0.8c0.5,0.6,0.8,1.2,0.8,2c0,0.8-0.3,1.4-0.8,2c-0.6,0.5-1.2,0.8-2,0.8
				c-0.8,0-1.4-0.3-2-0.8c-0.6-0.6-0.9-1.2-0.9-2c0-0.8,0.3-1.4,0.9-2c0.6-0.6,1.2-0.8,2-0.8 M373.5,240.3c-0.8,0-1.4-0.3-2-0.9
				c-0.5-0.6-0.8-1.2-0.8-2c0-0.8,0.3-1.4,0.8-2c0.6-0.5,1.2-0.8,2-0.8c0.8,0,1.4,0.3,2,0.8c0.6,0.6,0.9,1.2,0.9,2
				c0,0.8-0.3,1.4-0.9,2C375,240,374.3,240.3,373.5,240.3v44.3c0,2.3-0.8,4.3-2.4,5.9c-1.1,1.1-2.4,1.9-3.9,2.2
				c-0.6,0.1-1.2,0.2-1.9,0.3h-14.3c0,0.5-0.2,0.9-0.5,1.3c-0.4,0.4-0.8,0.5-1.4,0.5s-1-0.2-1.4-0.5c-0.4-0.4-0.5-0.8-0.5-1.4
				c0-0.5,0.2-1,0.5-1.4c0.4-0.4,0.8-0.5,1.4-0.5s1,0.2,1.4,0.5c0.4,0.4,0.5,0.8,0.5,1.4c0,0,0,0.1,0,0.1 M241.4,194.4
				c-0.5,0-0.9-0.2-1.3-0.5c-0.4-0.4-0.5-0.8-0.5-1.4c0-0.5,0.2-1,0.5-1.4s0.8-0.5,1.4-0.5c0.5,0,1,0.2,1.4,0.5s0.5,0.8,0.5,1.4
				c0,0.5-0.2,1-0.5,1.4s-0.8,0.5-1.4,0.5C241.5,194.4,241.4,194.4,241.4,194.4v14.3c0,0.6,0.1,1.3,0.3,1.9c0.3,1.4,1.1,2.7,2.2,3.9
				c1.6,1.6,3.6,2.4,5.9,2.4h44.3c0-0.8,0.3-1.4,0.9-2c0.6-0.5,1.2-0.8,2-0.8c0.8,0,1.4,0.3,2,0.8c0.5,0.6,0.8,1.2,0.8,2
				c0,0.8-0.3,1.4-0.8,2c-0.6,0.6-1.2,0.8-2,0.8c-0.8,0-1.4-0.3-2-0.8c-0.6-0.6-0.9-1.2-0.9-2"/>
		</g>
	</g>
</g>
<g id="icons">
	<g transform="matrix( 1, 0, 0, 1, 0,0) ">
		<g>
			<g id="Layer1_0_FILL">
				<path fill="#FFFFFF" d="M333.8,215.6c-0.6,0-1.1,0.2-1.5,0.6c-0.4,0.4-0.5,0.9-0.5,1.4c0,0.6,0.2,1,0.5,1.4
					c0.4,0.4,0.9,0.6,1.5,0.6c0.6,0,1-0.2,1.4-0.6c0.4-0.4,0.6-0.8,0.6-1.4c0-0.6-0.2-1.1-0.6-1.4
					C334.8,215.8,334.3,215.6,333.8,215.6 M325,169.9c1.4-1.4,2-3,2-5c0-1.9-0.7-3.5-2-4.9c-1.4-1.3-3-2-5-2c-1.9,0-3.6,0.7-5,2
					c-1.3,1.4-2,3.1-2,4.9c0,2,0.7,3.6,2,5c1.4,1.4,3.1,2.1,5,2.1C321.9,172,323.6,171.3,325,169.9z"/>
			</g>
		</g>
		<g>
			<path id="Layer1_0_1_STROKES" fill="none" stroke="#FFFFFF" stroke-miterlimit="10" d="M360.1,148.9c0,0.4-0.2,0.7-0.5,1
				c-0.3,0.3-0.6,0.4-1,0.4c-0.4,0-0.8-0.1-1-0.4c-0.3-0.3-0.4-0.6-0.4-1c0-0.4,0.1-0.8,0.4-1.1c0.3-0.3,0.6-0.4,1-0.4
				c0.4,0,0.7,0.1,1,0.4C359.9,148.1,360.1,148.4,360.1,148.9z M327,164.9c0,2-0.7,3.6-2,5s-3,2.1-5,2.1c-1.9,0-3.6-0.7-5-2.1
				c-1.3-1.4-2-3-2-5c0-1.9,0.7-3.5,2-4.9c1.4-1.3,3.1-2,5-2c2,0,3.6,0.7,5,2C326.3,161.4,327,163.1,327,164.9z M339.6,166.4
				c0,0.9-0.3,1.8-1,2.5c-0.7,0.7-1.5,1-2.5,1c-0.9,0-1.8-0.3-2.4-1c-0.7-0.7-1.1-1.5-1.1-2.5c0-1,0.4-1.8,1.1-2.4
				c0.7-0.7,1.5-1,2.4-1c0.9,0,1.8,0.3,2.5,1C339.3,164.6,339.6,165.4,339.6,166.4z M381.5,169.9c0,1.5-0.5,2.7-1.6,3.8
				c-1,1.1-2.3,1.6-3.8,1.6s-2.8-0.5-3.8-1.6c-1.1-1.1-1.6-2.3-1.6-3.8c0-1.5,0.5-2.8,1.6-3.8c1-1,2.3-1.6,3.8-1.6s2.8,0.5,3.8,1.6
				C381,167.1,381.5,168.4,381.5,169.9z M380.4,196.4c0,0.7-0.3,1.4-0.8,1.9s-1.1,0.8-1.9,0.8s-1.4-0.3-1.9-0.8s-0.8-1.1-0.8-1.9
				c0-0.7,0.3-1.3,0.8-1.8c0.5-0.5,1.1-0.7,1.9-0.8c0.7,0,1.4,0.3,1.9,0.8C380.1,195.1,380.4,195.7,380.4,196.4z M387.8,185.4h-41.4
				v41.4 M346.4,144v41.4H305 M355.8,212.6c0-1.8,0.7-3.4,2-4.8c1.4-1.3,3-2,4.9-2c1.9,0,3.5,0.7,4.9,2c1.4,1.4,2,3,2,4.9
				c0,1.9-0.7,3.5-2,4.9c-1.3,1.4-2.9,2-4.9,2c-1.9,0-3.5-0.7-4.9-2c-1.3-1.3-2-2.9-2-4.7 M330.4,202.1c0,1.4-0.5,2.6-1.6,3.6
				c-1,1-2.2,1.6-3.6,1.6c-1.4,0-2.7-0.5-3.7-1.6c-1-1-1.5-2.2-1.5-3.6c0-1.4,0.5-2.7,1.5-3.7c1-1,2.3-1.5,3.7-1.5
				c1.4,0,2.6,0.5,3.6,1.5C329.8,199.4,330.4,200.6,330.4,202.1z M335.8,217.6c0,0.6-0.2,1-0.6,1.4c-0.4,0.4-0.8,0.6-1.4,0.6
				c-0.6,0-1.1-0.2-1.5-0.6c-0.4-0.4-0.5-0.8-0.5-1.4c0-0.6,0.2-1.1,0.5-1.4c0.4-0.4,0.9-0.6,1.5-0.6c0.6,0,1,0.2,1.4,0.6
				C335.6,216.6,335.8,217.1,335.8,217.6z"/>
		</g>
		<g>
			<path id="Layer1_0_2_STROKES" fill="none" stroke="#3A6FBB" stroke-linecap="round" stroke-linejoin="round" d="M418,67.2h-26.9
				v-9H418V67.2z M418,81.5h-26.9v-8.9H418V81.5z M418,95.8h-26.9v-9H418V95.8z M385.8,67.2h-9v-9h9V67.2z M385.8,95.8h-9v-9h9V95.8
				z M385.8,81.5h-9v-8.9h9V81.5z M334.4,282.2v2.8H325v-2.8H334.4z M311.2,288h14.2v2.8h-14.2V288z M311.2,293.8h14.2v2.8h-14.2
				V293.8z M311.2,276.4h20.6v2.8h-20.6V276.4z M334.4,299.6v2.8h-14.2v-2.8H334.4z M297.2,295.2h5.4 M311.2,282.2h9.8v2.8h-9.8
				V282.2z M297.2,283.6h9.8 M297.2,289.4h8 M297.2,277.8h8 M297.2,301h8"/>
		</g>
		<g>
			<path id="Layer1_0_3_STROKES" fill="none" stroke="#FFFFFF" stroke-linecap="round" stroke-linejoin="round" d="M214.1,138.8
				h-21.3v-21.3h21.3V138.8z M214.1,166.4h-21.3v-21.3h21.3V166.4z"/>
		</g>
		<g>
			<path id="Layer1_0_4_STROKES" fill="none" stroke="#FFFFFF" stroke-linejoin="round" d="M219.4,119.6h23.5 M219.4,123.8h23.5
				 M219.4,128.1h23.5 M219.4,132.4h23.5 M219.4,136.6h23.5 M219.4,147.3h23.5 M219.4,151.5h23.5 M219.4,155.8h23.5 M219.4,160.1
				h23.5 M219.4,164.3h23.5"/>
		</g>
	</g>
</g>
</svg>
