<?xml version="1.0" encoding="utf-8"?>
<!-- Generator: Adobe Illustrator 23.0.1, SVG Export Plug-In . SVG Version: 6.00 Build 0)  -->
<svg version="1.1" id="Layer_543341" xmlns="http://www.w3.org/2000/svg" xmlns:xlink="http://www.w3.org/1999/xlink" x="0px" y="0px"
	 viewBox="0 0 750 400" enable-background="new 0 0 750 400" xml:space="preserve">
<g id="clouds_bits">
	<g transform="matrix( 1, 0, 0, 1, 0,0) ">
		<g>
			<g id="Layer5_0_FILL">
				<path fill="#F7571A" d="M675.2,187.7c-0.4,0.4-0.6,0.8-0.6,1.4c0,0.5,0.2,1,0.6,1.4c0.4,0.4,0.8,0.6,1.3,0.6s1-0.2,1.3-0.6
					c0.4-0.4,0.6-0.9,0.6-1.4c0-0.5-0.2-1-0.6-1.4c-0.4-0.4-0.8-0.6-1.3-0.6C676,187.1,675.5,187.3,675.2,187.7 M355.6,64
					c-0.4,0.4-0.6,0.8-0.6,1.3c0,0.5,0.2,1,0.6,1.3c0.4,0.4,0.8,0.6,1.4,0.6s1-0.2,1.4-0.6c0.4-0.4,0.5-0.8,0.5-1.3
					c0-0.5-0.2-1-0.5-1.3c-0.4-0.4-0.8-0.5-1.4-0.5S356,63.6,355.6,64z"/>
				<path fill="#BAD727" d="M660.4,157.8c-0.4,0.4-0.6,0.8-0.6,1.4c0,0.5,0.2,1,0.6,1.3c0.4,0.4,0.8,0.6,1.3,0.6s1-0.2,1.3-0.6
					c0.4-0.4,0.6-0.8,0.6-1.3c0-0.5-0.2-1-0.6-1.4c-0.4-0.4-0.8-0.6-1.3-0.6S660.8,157.4,660.4,157.8 M473,315.1
					c0,0.5,0.2,1,0.5,1.4c0.4,0.4,0.8,0.5,1.4,0.5c0.5,0,1-0.2,1.4-0.5c0.4-0.4,0.6-0.9,0.6-1.4c0-0.5-0.2-1-0.6-1.4
					c-0.4-0.4-0.8-0.5-1.4-0.5c-0.5,0-1,0.2-1.4,0.5C473.2,314.1,473,314.6,473,315.1z"/>
				<path fill="#83C4EC" d="M473.4,207.9c0-0.3-0.1-0.5-0.3-0.6c-0.2-0.2-0.4-0.3-0.7-0.3s-0.5,0.1-0.6,0.3
					c-0.2,0.2-0.3,0.4-0.3,0.6v2.6h-2.5c-0.6,0-1,0.3-1,0.9c0,0.3,0.1,0.5,0.3,0.7c0.2,0.2,0.4,0.3,0.7,0.3h2.5v2.6
					c0,0.3,0.1,0.5,0.3,0.7c0.2,0.2,0.4,0.2,0.6,0.3c0.3,0,0.5-0.1,0.7-0.3c0.2-0.2,0.3-0.4,0.3-0.7v-2.6h2.5c0.2,0,0.5-0.1,0.6-0.3
					c0.2-0.2,0.3-0.4,0.3-0.7c0-0.3-0.1-0.5-0.3-0.7c-0.2-0.2-0.4-0.3-0.6-0.3h-2.5V207.9 M525.2,345.1c-0.2-0.2-0.4-0.3-0.7-0.3
					c-0.3,0-0.5,0.1-0.7,0.3c-0.2,0.2-0.3,0.4-0.3,0.6v2.6H521c-0.6,0-1,0.3-1,1c0,0.3,0.1,0.5,0.3,0.6c0.2,0.2,0.4,0.3,0.7,0.3h2.5
					v2.6c0,0.3,0.1,0.5,0.3,0.7c0.2,0.2,0.4,0.2,0.7,0.3c0.3,0,0.5-0.1,0.7-0.3c0.2-0.2,0.3-0.4,0.3-0.7v-2.6h2.5
					c0.2,0,0.5-0.1,0.7-0.3c0.2-0.2,0.3-0.4,0.3-0.6s-0.1-0.5-0.3-0.7c-0.2-0.2-0.4-0.3-0.7-0.3h-2.5v-2.6
					C525.5,345.5,525.4,345.3,525.2,345.1 M279.5,186.9c0-0.6-0.3-0.9-0.9-0.9c-0.6,0-1,0.3-1,0.9v2.6h-2.5c-0.3,0-0.5,0.1-0.7,0.3
					c-0.2,0.2-0.3,0.4-0.3,0.6c0,0.3,0.1,0.5,0.3,0.7c0.2,0.2,0.4,0.3,0.7,0.3h2.5v2.6c0,0.3,0.1,0.5,0.3,0.7
					c0.2,0.2,0.4,0.3,0.7,0.3c0.3,0,0.5-0.1,0.7-0.3c0.2-0.2,0.3-0.4,0.3-0.7v-2.6h2.6c0.3,0,0.5-0.1,0.7-0.3
					c0.2-0.2,0.3-0.4,0.3-0.7c0-0.3-0.1-0.5-0.3-0.6c-0.2-0.2-0.4-0.3-0.7-0.3h-2.6V186.9 M567.7,60.5h2.5c0.3,0,0.5-0.1,0.7-0.3
					c0.2-0.2,0.3-0.4,0.3-0.7c0-0.6-0.3-1-1-1h-2.5V56c0-0.2-0.1-0.5-0.3-0.7c-0.2-0.2-0.4-0.3-0.7-0.3c-0.3,0-0.5,0.1-0.7,0.3
					c-0.2,0.2-0.3,0.4-0.3,0.7v2.6h-2.6c-0.3,0-0.5,0.1-0.7,0.3c-0.2,0.2-0.3,0.4-0.3,0.7s0.1,0.5,0.3,0.7c0.2,0.2,0.4,0.3,0.7,0.3
					h2.6V63c0,0.6,0.3,1,1,1c0.3,0,0.5-0.1,0.7-0.3c0.2-0.2,0.3-0.4,0.3-0.7V60.5z"/>
				<path fill="#BFBFBF" d="M288.6,311.9l-3-5.2h-6l-3,5.2l3,5.2h6L288.6,311.9 M284.8,308l2.2,3.8l-2.2,3.8h-4.3l-2.2-3.8l2.2-3.8
					H284.8 M287.9,167.9l3,5.2h6l3.1-5.2l-3.1-5.2h-6L287.9,167.9 M289.5,167.9l2.2-3.8h4.4l2.1,3.8l-2.1,3.8h-4.4L289.5,167.9z"/>
				<path fill="#3D3D3D" fill-opacity="0.1686" d="M174.5,76.2c-0.1-5.9-2.3-10.9-6.6-15c-4.2-4.1-9.2-6.2-15.1-6.2
					c-3.4,0-6.6,0.8-9.6,2.3c-2.9,1.4-5.4,3.4-7.4,5.9c-0.8-1.5-2-2.7-3.4-3.6c-1.5-0.9-3.2-1.4-5-1.4c-2.2,0-4.2,0.7-5.9,2
					c-1.7,1.4-2.8,3.1-3.3,5.2c-1.5-0.6-3-0.9-4.6-0.9c-2.5,0-4.7,0.7-6.7,2c-1.4-1.4-3-2.5-4.8-3.3c-1.9-0.8-3.9-1.2-6-1.2
					c-3.2,0-6.1,0.9-8.7,2.7c-2.6,1.8-4.4,4.1-5.5,6.9c-1.5-1.5-3.3-2.3-5.4-2.3c-1.9,0-3.6,0.7-5.1,2.1c-1.4,1.3-2.2,2.9-2.3,4.8
					H174.5 M678.4,292.7c-5.8-5.7-12.7-8.5-20.7-8.5c-4.6,0-9,1-13.1,3c-4,1.9-7.3,4.6-10.1,8.1c-1.1-2.1-2.7-3.7-4.7-5
					c-2.1-1.3-4.4-1.9-6.8-1.9c-3,0-5.8,0.9-8.2,2.8c-2.3,1.9-3.8,4.2-4.5,7.1c-2-0.8-4.1-1.2-6.3-1.2c-3.4,0-6.4,0.9-9.2,2.8
					c-1.9-1.9-4.1-3.4-6.6-4.5c-2.6-1.1-5.3-1.6-8.1-1.6c-4.3,0-8.3,1.2-11.8,3.7c-3.5,2.4-6,5.6-7.5,9.5c-2-2.1-4.5-3.1-7.4-3.1
					c-2.6,0-4.9,0.9-6.9,2.8c-1.9,1.8-3,4-3.2,6.6h144C687.1,305.2,684.2,298.3,678.4,292.7 M157.6,303.6c-3.2,0-6.1,0.9-8.9,2.7
					c-2.6,1.8-4.7,4.1-6.1,7c-3.6-4.9-8-8.7-13.2-11.5c-5.4-2.9-11-4.3-17-4.3c-10.5,0-19.5,4-27.1,12c-7.5,8-11.4,17.7-11.7,29.1
					h187.8c-0.3-3.7-1.6-6.9-4.1-9.5c-2.5-2.6-5.5-3.8-9-3.8c-1.8,0-3.6,0.4-5.3,1.2c-1.6,0.8-3,1.9-4.3,3.3
					c-2-5.6-5.3-10.1-9.9-13.5c-4.6-3.5-9.8-5.3-15.4-5.3c-3.7,0-7.2,0.8-10.6,2.3c-3.2,1.5-6.1,3.6-8.6,6.4
					c-3.7-2.6-7.6-3.9-11.9-3.9c-2.8,0-5.5,0.6-8.2,1.8c-0.9-4.1-2.9-7.5-5.9-10.1C165.1,305,161.6,303.6,157.6,303.6 M667.2,82.6
					c-3.4-3.3-7.5-5-12.2-5c-2.7,0-5.3,0.6-7.7,1.8c-2.3,1.1-4.3,2.7-6,4.8c-0.7-1.2-1.6-2.2-2.8-2.9c-1.2-0.8-2.6-1.1-4-1.1
					c-1.8,0-3.4,0.5-4.8,1.6c-1.4,1.1-2.3,2.5-2.7,4.2c-1.2-0.5-2.4-0.7-3.7-0.7c-1.9,0-3.7,0.5-5.4,1.6c-2.4-2.4-5.3-3.6-8.7-3.6
					c-2.6,0-4.9,0.7-7,2.2c-2.1,1.4-3.5,3.3-4.5,5.6c-1.2-1.3-2.6-1.9-4.3-1.9c-1.6,0-2.9,0.5-4,1.6s-1.8,2.4-1.9,3.9h84.8
					C672.3,89.9,670.5,85.8,667.2,82.6z"/>
				<path fill="#DEDEDE" d="M452.6,329.6c-0.7,0.8-1.1,1.7-1.1,2.8c0,1.1,0.4,2,1.1,2.7c0.8,0.7,1.7,1.1,2.8,1.1
					c1,0,1.9-0.4,2.7-1.1c0.7-0.7,1.1-1.6,1.1-2.7c0-1.1-0.4-2-1.1-2.8c-0.7-0.7-1.6-1.1-2.7-1.1
					C454.3,328.5,453.4,328.9,452.6,329.6z"/>
				<path fill="#D1D1D1" d="M112.8,239.4c0,1.1,0.4,2,1.1,2.8c0.8,0.7,1.7,1.1,2.8,1.1s2-0.4,2.7-1.1c0.8-0.8,1.1-1.7,1.1-2.8
					c0-1-0.4-1.9-1.1-2.7c-0.7-0.7-1.6-1.1-2.7-1.1c-1.1,0-2,0.4-2.8,1.1C113.1,237.5,112.8,238.4,112.8,239.4z"/>
			</g>
		</g>
		<g>
			<path id="Layer5_0_1_STROKES" fill="none" stroke="#BFBFBF" stroke-width="2" stroke-miterlimit="10" d="M591.8,46.5
				c0,0.9,0.3,1.7,1,2.3c0.6,0.6,1.4,1,2.3,1c0.9,0,1.6-0.3,2.3-1c0.6-0.6,1-1.4,1-2.3c0-0.9-0.3-1.6-1-2.3s-1.4-1-2.3-1
				c-0.9,0-1.7,0.3-2.3,1C592.1,44.9,591.8,45.6,591.8,46.5z M87,152.3c0,0.9,0.3,1.7,0.9,2.3c0.6,0.6,1.4,0.9,2.3,0.9
				c0.9,0,1.7-0.3,2.3-0.9s0.9-1.4,0.9-2.3c0-0.9-0.3-1.6-0.9-2.3s-1.4-0.9-2.3-0.9c-0.9,0-1.6,0.3-2.3,0.9
				C87.3,150.6,87,151.4,87,152.3z M312.2,296.5c0,0.9,0.3,1.7,0.9,2.3c0.6,0.6,1.4,1,2.3,1c0.9,0,1.7-0.3,2.3-1s0.9-1.4,0.9-2.3
				s-0.3-1.7-0.9-2.3s-1.4-1-2.3-1c-0.9,0-1.6,0.3-2.3,1C312.5,294.8,312.2,295.6,312.2,296.5z"/>
		</g>
	</g>
</g>
<g id="man">
	<g transform="matrix( 1, 0, 0, 1, 0,0) ">
		<g>
			<g id="Layer4_0_FILL">
				<path fill="#B96D00" d="M398.2,366h-11.5l2.6,10l-12.6,3.4v2.6h21.4V366 M355.1,369.2c-2.1,2.1-3.3,4.7-3.4,7.6v5.1h15.1
					l9.9-2.6l12.6-3.4l-2.6-10l-1.5-5.5l-20.5,5.5l-0.2,0l0,0h-2c-1.3,0-2.4,0.3-3.5,0.7C357.5,367.2,356.2,368,355.1,369.2
					 M349.6,252.1h48.6v-7.2h-48.6V252.1z"/>
				<path fill="#828282" d="M371.9,271.6c0.6-0.6,1.3-0.9,2.1-0.9c0.7,0,1.4,0.3,2,0.9c0.5,0.6,0.8,1.3,0.8,2.1v3.7v0.3v51.4
					l8.4,31.4l1.5,5.5h11.5v-60.8v-53.1h-48.6V307v2.6c0.1,0.8,0.2,1.5,0.4,2.3c0.1,0.6,0.3,1.2,0.5,1.9l14,52.3h0.3l20.5-5.5
					l-8.4-31.4l-0.1-0.2l-4.3-15.9l-1.4-4.9v-34.6C371.1,272.8,371.4,272.2,371.9,271.6 M398.2,244.9v-6.3h-48.6v6.3H398.2
					 M385.3,108.8c1-1.1,2.1-1.9,3.2-2.6c0.1,0,0.1-0.1,0.1-0.1c1.8-0.9,3.8-1.4,5.9-1.5h-25c-3.3,0.1-6.2,1.3-8.6,3.7
					c-1.8,1.9-3,4-3.5,6.3c-1,0.3-2,0.8-2.8,1.6c-1.2,1.2-1.8,2.6-1.8,4.3c0,1.7,0.6,3.2,1.8,4.3c1.2,1.2,2.5,1.8,4.1,1.8h0.1h1
					c1,0.3,2,0.9,2.8,1.7c1.1,1.1,1.7,2.5,1.8,4.1v6.4c0,0.7,0.1,1.4,0.4,2.3c0.4,1.2,1.1,2.2,2,3c1.4,1.5,3.2,2.3,5.3,2.3h14h4.1
					c-0.5-0.9-0.7-1.9-0.7-2.9c0-1.7,0.6-3.1,1.8-4.3c0.3-0.3,0.5-0.5,0.9-0.7c0.2-0.1,0.4-0.3,0.6-0.4c0.2-0.1,0.4-0.3,0.6-0.5
					c1-1,1.8-2,2.2-3.2c0.2-0.7,0.4-1.4,0.4-2.1v-10.3c-0.1-3.6-1.4-6.7-4-9.3c-0.8-0.8-1.7-1.5-2.6-2.1c2-1.2,4.2-1.9,6.6-2
					L385.3,108.8z"/>
				<path fill="#FFC89E" d="M340,244.2c0-0.2-0.1-0.5-0.1-0.8l-17.4,6.9c1.3,4.8,2.9,9.5,4.9,14.1c0.1,0.3,0.3,0.7,0.5,1l17.1-7.3
					C342.9,253.7,341.2,249,340,244.2 M408,243.4c-0.1,0.3-0.1,0.5-0.2,0.8c-1.2,4.8-2.9,9.5-4.9,13.9l17.1,7.3
					c0.2-0.3,0.3-0.7,0.4-1c2-4.6,3.7-9.3,5-14.1L408,243.4 M364.4,149.3v10.5h19v-10.5h-0.1c-2.6,2.2-5.8,3.4-9.4,3.4
					C370.2,152.6,367,151.5,364.4,149.3 M366.7,144.1c-0.9-0.9-1.5-1.9-2-3c-0.2-0.8-0.4-1.6-0.4-2.3v-6.4c0-1.6-0.6-3-1.8-4.1
					c-0.8-0.8-1.7-1.4-2.8-1.7h-1V138c0,0.2,0,0.5,0.1,0.8c0.2,2.9,1.1,5.4,2.8,7.7c0.5,0.6,1,1.2,1.5,1.8l1.1,1
					c2.6,2.2,5.8,3.4,9.5,3.4c3.7,0,6.8-1.1,9.4-3.4h0.1l1.1-1c0.7-0.8,1.2-1.4,1.5-1.8h-14C369.9,146.4,368.1,145.6,366.7,144.1z"
					/>
				<path fill="#5EB9E7" d="M346.8,159.9l0.3-0.1h0C346.9,159.8,346.8,159.8,346.8,159.9 M364.4,159.8h-5.8h-11.4
					c-0.1,0-0.2,0-0.3,0.1l-0.3,0.1c-0.3,0-0.7,0-1,0c-0.2,0-0.3,0-0.5,0.1c-0.1,0-0.1,0-0.1,0c-4.3,0.6-8,2.5-11.3,5.7
					c-1.4,1.4-2.5,2.8-3.3,4.3l-1.9,3.8c-0.6,1.3-1.2,2.6-1.8,3.9c-1.3,3-2.4,6-3.4,9.1c-1,3.2-1.9,6.5-2.6,9.9
					c-1.6,7.7-2.4,15.6-2.4,23.9c0,10.5,1.3,20.4,3.8,29.8l17.4-6.9c-1.6-6.6-2.4-13.5-2.4-20.7c0-6.5,0.6-12.6,1.9-18.4
					c0.6-2.7,1.1-4.7,1.5-6c0.3-1.2,0.7-2.4,1.1-3.6c0.1-0.1,0.1-0.3,0.1-0.4c0.9-2.5,2-5,3.1-7.6c0,0,0-0.1,0-0.1l0.8-1.7l0.3-0.3
					c0.1-0.1,0.3-0.3,0.6-0.4c0.1-0.1,0.3-0.1,0.4-0.2h0.6c0.4,0.1,0.7,0.3,1,0.6c0.4,0.4,0.6,0.8,0.6,1.3l0,2.1v-1.1v-0.9
					c0,0.1,0.1,0.3,0.1,0.4c0,0.2,0,0.3-0.1,0.4v1.1v1.7c0,1.5,0,3.1,0,4.6v44.3h48.6v-52.8c0-0.5,0.2-0.9,0.5-1.3
					c0.3-0.3,0.6-0.4,1-0.6h0.6c0.2,0.1,0.3,0.1,0.5,0.2c0.2,0.1,0.4,0.2,0.5,0.4l0.3,0.3l0.8,1.7c0,0,0,0.1,0,0.1
					c1.2,2.5,2.3,5.1,3.2,7.6c0,0.2,0.1,0.3,0.1,0.4c0.4,1.2,0.8,2.4,1.1,3.6c0.4,1.3,0.9,3.3,1.5,6c1.2,5.8,1.8,11.9,1.8,18.4
					c0,7.2-0.8,14.1-2.3,20.7l17.4,6.9c2.5-9.4,3.8-19.3,3.8-29.8c0-8.3-0.8-16.2-2.4-23.9c-0.7-3.4-1.5-6.7-2.5-9.9
					c-1-3.1-2.1-6.2-3.4-9.1c-0.6-1.3-1.2-2.6-1.8-3.9l-1.9-3.8c-0.8-1.5-1.9-2.9-3.3-4.3c-3.2-3.2-7-5.1-11.3-5.7c0,0-0.1,0-0.1,0
					c-0.1,0-0.3-0.1-0.5-0.1c-0.4,0-0.8-0.1-1.2-0.1c-0.1,0-0.2-0.1-0.3-0.1h-11.4h-5.8H364.4z"/>
			</g>
		</g>
		<g>
			<path id="Layer4_0_1_STROKES" fill="none" stroke="#080A09" stroke-linecap="round" stroke-linejoin="round" d="M394.5,104.7
				c-2.1,0.1-4.1,0.6-5.9,1.5c0,0-0.1,0.1-0.1,0.1c-1.1,0.6-2.2,1.5-3.2,2.6 M395.8,108.8c-2.4,0.1-4.6,0.8-6.6,2
				c0.9,0.6,1.8,1.3,2.6,2.1c2.6,2.6,3.9,5.7,4,9.3v10.3c0,0.7-0.1,1.4-0.4,2.1c-0.4,1.2-1.2,2.2-2.2,3.2c-0.2,0.2-0.4,0.3-0.6,0.5
				c-0.2,0.1-0.4,0.3-0.6,0.4c-0.3,0.2-0.6,0.4-0.9,0.7c-1.2,1.2-1.8,2.6-1.8,4.3c0,1.1,0.2,2.1,0.7,2.9H386c-0.3,0.4-0.8,1-1.5,1.8
				l-1.1,1v10.5h5.8 M398.2,238.6v6.3v7.2v53.1 M376.8,379.4l-9.9,2.6h-15.1v-5.1c0.1-3,1.2-5.5,3.4-7.6c1.1-1.2,2.4-2,3.9-2.5
				c1.1-0.4,2.3-0.7,3.5-0.7 M364.5,366l-14-52.3c-0.2-0.6-0.4-1.3-0.5-1.9c-0.2-0.8-0.3-1.5-0.4-2.3c0-0.4,0-0.9,0-1.3
				c0-0.5,0-0.9,0-1.3v-54.9v-7.2v-6.3v-44.3 M347.3,159.8c-0.1,0-0.2,0-0.3,0.1 M358.6,159.8h5.8v-10.5l-1.1-1
				c-0.6-0.6-1.1-1.2-1.5-1.8c-1.7-2.3-2.6-4.8-2.8-7.7c0-0.3-0.1-0.5-0.1-0.8v-11.3h-0.1c-1.6,0-3-0.6-4.1-1.8
				c-1.2-1.1-1.8-2.6-1.8-4.3c0-1.7,0.6-3.1,1.8-4.3c0.8-0.8,1.7-1.3,2.8-1.6c0.5-2.3,1.7-4.4,3.5-6.3c2.5-2.4,5.3-3.6,8.6-3.7
				 M358.9,126.7h1c1,0.3,2,0.9,2.8,1.7c1.1,1.1,1.7,2.5,1.8,4.1v6.4c0,0.7,0.1,1.4,0.4,2.3c0.4,1.2,1.1,2.2,2,3
				c1.4,1.5,3.2,2.3,5.3,2.3 M346.8,159.9l0.3-0.1 M349.6,188v-1.1v-0.9c0,0.1,0.1,0.3,0.1,0.4c0,0.2,0,0.3-0.1,0.4 M383.4,149.3
				h-0.1c-2.6,2.2-5.8,3.4-9.4,3.4c-3.7,0-6.8-1.1-9.5-3.4 M364.4,159.8h19 M372.5,313.1l4.3,15.9 M376.8,305.2v-27.1V277
				c0,0.1,0,0.3,0.1,0.5 M376.9,329.1l8.4,31.4l1.5,5.5 M376.8,278.1c0-0.1,0-0.3,0.1-0.4 M349.6,252.1h48.6 M398.2,244.9h-48.6
				 M349.6,238.6h48.6 M376.8,329l0.1,0.2 M349.6,309.6V307 M364.8,366l-0.2,0l0,0 M385.3,360.5l-20.5,5.5 M386.8,366l2.6,10
				l-12.6,3.4"/>
		</g>
		<g>
			<path id="Layer4_0_2_STROKES" fill="none" stroke="#000000" stroke-linecap="round" stroke-linejoin="round" d="M395.8,108.8
				l-10.5,0.1 M389.1,159.8h11.4c0.1,0,0.2,0,0.3,0.1c0.4,0,0.8,0.1,1.2,0.1c0.2,0,0.3,0,0.5,0.1c0.1,0,0.1,0,0.1,0
				c4.3,0.6,8,2.5,11.3,5.7c1.4,1.4,2.5,2.8,3.3,4.3l1.9,3.8c0.6,1.3,1.2,2.6,1.8,3.9c1.3,3,2.4,6,3.4,9.1c1,3.2,1.9,6.5,2.5,9.9
				c1.6,7.7,2.4,15.6,2.4,23.9c0,10.5-1.3,20.4-3.8,29.8c-1.3,4.8-3,9.5-5,14.1c-0.1,0.3-0.3,0.7-0.4,1l-17.1-7.3
				c2.1-4.5,3.7-9.1,4.9-13.9c0-0.2,0.1-0.5,0.2-0.8c1.6-6.6,2.3-13.5,2.3-20.7c0-6.5-0.6-12.6-1.8-18.4c-0.6-2.7-1.1-4.7-1.5-6
				c-0.3-1.2-0.7-2.4-1.1-3.6c-0.1-0.1-0.1-0.3-0.1-0.4c-0.9-2.5-2-5-3.2-7.6c0,0,0-0.1,0-0.1l-0.8-1.7l-0.3-0.3
				c-0.1-0.1-0.3-0.3-0.5-0.4c-0.1-0.1-0.3-0.1-0.5-0.2h-0.6c-0.4,0.1-0.7,0.3-1,0.6c-0.4,0.4-0.5,0.8-0.5,1.3v52.8 M398.2,305.2
				V366v16h-21.4v-2.6 M362.5,366h2 M349.6,194.3c0-1.5,0-3.1,0-4.6V188l0-2.1c0-0.5-0.2-0.9-0.6-1.3c-0.3-0.3-0.6-0.4-1-0.6h-0.6
				c-0.2,0.1-0.3,0.1-0.4,0.2c-0.2,0.1-0.4,0.2-0.6,0.4l-0.3,0.3l-0.8,1.7c0,0,0,0.1,0,0.1c-1.2,2.5-2.3,5.1-3.1,7.6
				c0,0.2-0.1,0.3-0.1,0.4c-0.4,1.2-0.8,2.4-1.1,3.6c-0.4,1.3-0.9,3.3-1.5,6c-1.2,5.8-1.9,11.9-1.9,18.4c0,7.2,0.8,14.1,2.4,20.7
				c0.1,0.3,0.1,0.5,0.1,0.8c1.2,4.8,2.9,9.5,5,13.9l-17.1,7.3c-0.2-0.3-0.3-0.7-0.5-1c-2-4.6-3.6-9.3-4.9-14.1
				c-2.5-9.4-3.8-19.3-3.8-29.8c0-8.3,0.8-16.2,2.4-23.9c0.7-3.4,1.6-6.7,2.6-9.9c1-3.1,2.1-6.2,3.4-9.1c0.6-1.3,1.1-2.6,1.8-3.9
				l1.9-3.8c0.8-1.5,1.9-2.9,3.3-4.3c3.2-3.2,7-5.1,11.3-5.7c0,0,0.1,0,0.1,0c0.1,0,0.3-0.1,0.5-0.1c0.3,0,0.7,0,1,0
				c0.1,0,0.1-0.1,0.2-0.1h0 M347.3,159.8h11.4 M394.5,104.7h-25 M386,146.4h-14 M408,243.4l17.4,6.9 M376.9,277.4v-3.7
				c0-0.8-0.3-1.5-0.8-2.1c-0.6-0.6-1.3-0.9-2-0.9c-0.8,0-1.5,0.3-2.1,0.9c-0.5,0.6-0.8,1.2-0.8,2v34.6l1.4,4.9 M376.8,305.2V329
				 M376.9,277.4v0.3v51.4 M386.8,366h11.5 M364.5,366h0.3 M339.9,243.4l-17.4,6.9"/>
		</g>
	</g>
</g>
<g id="circles">
	<g transform="matrix( 1, 0, 0, 1, 0,0) ">
		<g>
			<g id="Layer3_0_FILL">
				<path fill="#BAD727" d="M255.9,260.6c2-10.3,0.2-19.8-5.6-28.5c-5.8-8.7-13.8-14.1-24.1-16.3c-10.2-2.1-19.7-0.2-28.4,5.6
					c-8.7,5.8-14.1,13.9-16.2,24.1c-2.1,10.2-0.2,19.7,5.6,28.4c5.8,8.7,13.8,14.1,24.1,16.2c10.2,2.1,19.8,0.2,28.6-5.6
					C248.6,278.8,253.9,270.9,255.9,260.6 M553.1,92.6c-6.5-12.6-16.4-21-29.8-25.3c-13.4-4.3-26.5-3.3-39.1,3.1
					c-12.6,6.4-21,16.4-25.4,29.8c-4.3,13.4-3.3,26.5,3.1,39.1c6.5,12.5,16.5,21,29.9,25.4c13.5,4.3,26.5,3.3,39-3.3
					c12.6-6.5,21-16.4,25.4-29.8C560.5,118.3,559.5,105.2,553.1,92.6z"/>
				<path fill="#2C538A" d="M304.9,47.4c-0.3-0.4-0.7-0.7-1-1.1c-8.1-7.7-17.4-12.3-28.1-13.8c-2.7-0.4-5.4-0.6-8.3-0.6
					c-14.6,0-27.1,5.2-37.5,15.5c-10.3,10.3-15.4,22.8-15.4,37.5c0,14.6,5.1,27.1,15.4,37.4c10.4,10.3,22.9,15.5,37.5,15.5
					c2.9,0,5.6-0.2,8.3-0.6c6-0.9,11.6-2.7,16.8-5.5c4-2.2,7.8-5,11.4-8.3c0.4-0.4,0.7-0.7,1-1.1c10.4-10.4,15.6-22.8,15.6-37.4
					c0-13.1-4.1-24.4-12.4-34.1C307.1,49.7,306,48.5,304.9,47.4z"/>
				<path fill="#F7571A" d="M600.7,177.2c-8.8,0-16.3,3.1-22.6,9.4c-6.2,6.2-9.3,13.7-9.3,22.5c0,8.8,3.1,16.4,9.3,22.6
					c6.3,6.2,13.8,9.4,22.6,9.4c0.2,0,0.3,0,0.5,0c7.8-0.1,14.6-2.7,20.4-7.7c0.6-0.5,1.2-1.1,1.8-1.6c6.2-6.2,9.4-13.8,9.4-22.6
					c0-8.3-2.8-15.4-8.3-21.4c-0.3-0.4-0.7-0.8-1.1-1.1c-0.6-0.6-1.2-1.2-1.8-1.7c-3.7-3.3-7.8-5.5-12.4-6.7
					c-0.9-0.2-1.8-0.4-2.7-0.6C604.6,177.4,602.7,177.2,600.7,177.2z"/>
			</g>
		</g>
		<g>
			<path id="Layer3_0_1_STROKES" fill="none" stroke="#A3A3A3" stroke-miterlimit="10" d="M525.5,60c-15.4-5-30.4-3.8-44.9,3.6
				c-14.4,7.4-24.1,18.8-29.1,34.3c-5,15.5-3.8,30.5,3.6,45c7.3,14.4,18.7,24.1,34.2,29.1c15.5,5,30.5,3.8,44.9-3.6
				c14.5-7.5,24.3-18.9,29.3-34.4 M600.7,246.4c0.2,0,0.4,0,0.5,0c7.6-0.1,14.4-2.2,20.4-6.4c1.9-1.3,3.7-2.8,5.4-4.6
				c7.3-7.2,10.9-16,10.9-26.3c0-9.2-3-17.3-8.9-24.1c-0.6-0.7-1.3-1.5-2-2.2c-1.7-1.7-3.5-3.3-5.4-4.6c0,0-0.1,0-0.1-0.1
				c-4.5-3.1-9.5-5.1-15-5.9c-1.9-0.3-3.8-0.4-5.8-0.4c-10.2,0-19,3.6-26.3,10.9c-7.2,7.3-10.9,16-10.9,26.3 M425.8,15.2
				c-8.4-4.1-16.9-4.7-25.7-1.7c-8.9,2.9-15.4,8.6-19.5,17c-4.2,8.4-4.8,17-1.8,25.8c2.9,8.8,8.6,15.3,17,19.5
				c8.4,4.1,17,4.7,25.9,1.7c8.9-2.9,15.4-8.6,19.5-17 M209.1,85.3c0,16.1,5.7,29.9,17.2,41.3c11.4,11.4,25.1,17,41.2,17
				c2.8,0,5.4-0.2,8-0.5c5.7-0.7,11.1-2.2,16.2-4.5c3.8-1.7,7.5-4,11-6.7c1.1-0.8,2.1-1.7,3.3-2.7c0.9-0.8,1.9-1.7,2.8-2.6
				c0.3-0.3,0.7-0.6,1-0.9c4.9-5.1,8.7-10.7,11.4-16.8c2.4-5.4,3.9-11.1,4.5-17.3c0.2-2.1,0.3-4.2,0.3-6.3c0-2.1-0.1-4.2-0.3-6.3
				c-0.6-6.1-2.1-11.9-4.5-17.3c-1.5-3.5-3.5-6.8-5.8-9.9c-1.9-2.7-4.1-5.4-6.6-7.9c-1.9-1.9-3.9-3.7-6-5.3c-2.4-1.9-5-3.6-7.6-5
				c-8.3-4.5-17.5-6.8-27.6-6.8 M527.8,269.3c1.8-9.2,0.1-17.6-5-25.3c-5.1-7.9-12.3-12.7-21.5-14.4c-9.2-1.9-17.6-0.2-25.4,4.9
				c-7.8,5.1-12.6,12.3-14.5,21.4c-1.8,9.2-0.1,17.6,5.1,25.4c5.1,7.8,12.3,12.6,21.4,14.5 M134.5,176.6
				c5.2,7.8,12.3,12.6,21.4,14.4c9.2,1.9,17.7,0.3,25.5-4.9c7.8-5.2,12.6-12.4,14.4-21.6c1.9-9.1,0.3-17.6-4.9-25.4
				c-5.2-7.8-12.3-12.6-21.5-14.4c-9.2-1.9-17.6-0.3-25.4,4.9 M261.5,261.6c2.4-11.8,0.3-22.7-6.4-32.7c-6.7-10-15.9-16.2-27.7-18.6
				s-22.7-0.2-32.8,6.5c-10,6.6-16.2,15.8-18.6,27.6c-2.4,11.8-0.3,22.8,6.4,32.8c6.6,10.1,15.8,16.3,27.6,18.6"/>
		</g>
	</g>
</g>
<g id="connectors">
	<g transform="matrix( 1, 0, 0, 1, 0,0) ">
		<g>
			<g id="Layer2_0_FILL">
				<path fill="#FEFEFE" d="M250.4,220.4c-0.3-0.3-0.8-0.5-1.3-0.5c0,0-0.1,0-0.1,0c-0.5,0-1,0.2-1.4,0.5s-0.6,0.8-0.6,1.4
					s0.2,1,0.6,1.4s0.8,0.5,1.4,0.5c0.5,0,1-0.2,1.3-0.5s0.6-0.8,0.6-1.4S250.8,220.8,250.4,220.4 M247.2,142.6
					c0.6,0.6,1.2,0.9,2,0.9c0.8,0,1.4-0.3,2-0.9c0.6-0.6,0.9-1.2,0.9-2c0-0.8-0.3-1.4-0.9-2c-0.6-0.5-1.2-0.8-2-0.8
					c-0.8,0-1.4,0.3-2,0.8c-0.5,0.6-0.8,1.2-0.8,2C246.4,141.4,246.7,142.1,247.2,142.6 M517.8,236c-0.5,0-1,0.2-1.3,0.6
					c-0.4,0.4-0.5,0.8-0.5,1.3s0.2,1,0.5,1.4c0.4,0.4,0.8,0.6,1.3,0.6s1-0.2,1.4-0.6c0.4-0.4,0.5-0.8,0.5-1.4s-0.2-1-0.5-1.3
					c-0.3-0.3-0.8-0.5-1.3-0.6C517.9,236,517.8,236,517.8,236 M517.9,171.8c-0.8,0-1.4,0.3-2,0.8c-0.5,0.6-0.8,1.2-0.8,2
					c0,0.8,0.3,1.4,0.8,2c0.6,0.6,1.2,0.8,2,0.8s1.4-0.3,2-0.8c0.6-0.6,0.8-1.2,0.8-2c0-0.8-0.3-1.4-0.8-2
					C519.3,172.1,518.7,171.8,517.9,171.8 M197.6,165.8c0,0,0-0.1,0-0.1c0-0.5-0.2-1-0.5-1.3c-0.4-0.4-0.8-0.6-1.4-0.6
					s-1,0.2-1.4,0.6c-0.4,0.4-0.5,0.8-0.5,1.3c0,0.5,0.2,1,0.5,1.4s0.8,0.6,1.4,0.6s1-0.2,1.4-0.6
					C197.4,166.7,197.6,166.3,197.6,165.8 M228.1,126.7c-0.8,0-1.4,0.3-2,0.8c-0.5,0.6-0.8,1.2-0.8,2c0,0.8,0.3,1.4,0.8,2
					c0.6,0.6,1.2,0.9,2,0.9c0.8,0,1.4-0.3,2-0.9c0.6-0.6,0.8-1.2,0.8-2c0-0.8-0.3-1.4-0.8-2C229.5,126.9,228.8,126.7,228.1,126.7
					 M565.3,194.9c-0.5,0-1,0.2-1.3,0.6c-0.4,0.4-0.6,0.8-0.6,1.4c0,0,0,0.1,0,0.1c0,0.5,0.2,0.9,0.6,1.3c0.4,0.4,0.8,0.6,1.3,0.6
					s1-0.2,1.3-0.6c0.4-0.4,0.6-0.8,0.6-1.3c0-0.5-0.2-1-0.6-1.4C566.2,195.1,565.8,194.9,565.3,194.9 M549,160.6
					c0-0.8-0.3-1.4-0.8-2c-0.6-0.5-1.2-0.8-2-0.8s-1.4,0.3-2,0.8c-0.6,0.6-0.9,1.2-0.9,2c0,0.8,0.3,1.4,0.9,2c0.6,0.6,1.2,0.8,2,0.8
					s1.4-0.3,2-0.8C548.7,162,549,161.3,549,160.6 M400.3,78.3c0.4-0.4,0.5-0.8,0.5-1.4c0-0.5-0.2-1-0.5-1.3
					c-0.4-0.4-0.8-0.5-1.4-0.5c-0.5,0-1,0.2-1.4,0.5c-0.4,0.4-0.5,0.8-0.5,1.3s0.2,1,0.5,1.4c0.3,0.3,0.7,0.5,1.3,0.5
					c0,0,0.1,0,0.1,0C399.4,78.8,399.9,78.7,400.3,78.3 M452.4,88.4c-0.6,0.6-0.9,1.2-0.9,2s0.3,1.4,0.9,2c0.6,0.6,1.2,0.9,2,0.9
					c0.8,0,1.4-0.3,2-0.9c0.5-0.6,0.8-1.2,0.8-2s-0.3-1.4-0.8-2c-0.6-0.5-1.2-0.8-2-0.8S452.9,87.9,452.4,88.4z"/>
			</g>
		</g>
		<g>
			<path id="Layer2_0_1_STROKES" fill="none" stroke="#A3A3A3" stroke-miterlimit="10" d="M517.9,177.4c-0.8,0-1.4-0.3-2-0.8
				c-0.5-0.6-0.8-1.2-0.8-2c0-0.8,0.3-1.4,0.8-2c0.6-0.5,1.2-0.8,2-0.8s1.4,0.3,2,0.8c0.6,0.6,0.8,1.2,0.8,2c0,0.8-0.3,1.4-0.8,2
				C519.3,177.2,518.7,177.4,517.9,177.4V236c0.5,0,0.9,0.2,1.3,0.6c0.4,0.4,0.5,0.8,0.5,1.3s-0.2,1-0.5,1.4
				c-0.4,0.4-0.8,0.6-1.4,0.6s-1-0.2-1.3-0.6c-0.4-0.4-0.5-0.8-0.5-1.4s0.2-1,0.5-1.3c0.4-0.4,0.8-0.6,1.3-0.6c0,0,0.1,0,0.1,0
				 M546.2,163.4c0.8,0,1.4-0.3,2-0.8c0.5-0.6,0.8-1.2,0.8-2c0-0.8-0.3-1.4-0.8-2c-0.6-0.5-1.2-0.8-2-0.8s-1.4,0.3-2,0.8
				c-0.6,0.6-0.9,1.2-0.9,2c0,0.8,0.3,1.4,0.9,2C544.7,163.1,545.4,163.4,546.2,163.4v25.1c0,2.3,0.8,4.3,2.4,5.9
				c1.1,1.1,2.4,1.9,3.9,2.2c0.6,0.1,1.2,0.2,1.8,0.3h9c0,0,0-0.1,0-0.1c0-0.5,0.2-1,0.6-1.4c0.4-0.4,0.8-0.6,1.3-0.6
				c0.5,0,1,0.2,1.3,0.6c0.4,0.4,0.6,0.8,0.6,1.4c0,0.5-0.2,1-0.6,1.3c-0.4,0.4-0.8,0.6-1.3,0.6s-1-0.2-1.3-0.6
				c-0.3-0.3-0.5-0.8-0.6-1.3 M451.5,90.4c0-0.8,0.3-1.4,0.9-2c0.6-0.5,1.2-0.8,2-0.8s1.4,0.3,2,0.8c0.5,0.6,0.8,1.2,0.8,2
				s-0.3,1.4-0.8,2c-0.6,0.6-1.2,0.9-2,0.9c-0.8,0-1.4-0.3-2-0.9C451.8,91.9,451.5,91.2,451.5,90.4h-44.3c-2.3,0-4.3-0.8-6-2.4
				c-1.1-1.1-1.9-2.4-2.2-3.8c-0.1-0.6-0.2-1.2-0.3-1.8v-3.5c-0.5,0-0.9-0.2-1.3-0.5c-0.4-0.4-0.5-0.8-0.5-1.4s0.2-1,0.5-1.3
				c0.4-0.4,0.8-0.5,1.4-0.5c0.5,0,1,0.2,1.4,0.5c0.4,0.4,0.5,0.8,0.5,1.3c0,0.5-0.2,1-0.5,1.4c-0.4,0.4-0.8,0.5-1.4,0.5
				c0,0-0.1,0-0.1,0 M228.1,132.3c-0.8,0-1.4-0.3-2-0.9c-0.5-0.6-0.8-1.2-0.8-2c0-0.8,0.3-1.4,0.8-2c0.6-0.5,1.2-0.8,2-0.8
				c0.8,0,1.4,0.3,2,0.8c0.6,0.6,0.8,1.2,0.8,2c0,0.8-0.3,1.4-0.8,2C229.5,132,228.8,132.3,228.1,132.3v25.1c0,2.3-0.8,4.3-2.4,6
				c-1.1,1.1-2.4,1.9-3.9,2.2c-0.6,0.1-1.2,0.2-1.9,0.3h-22.3c0,0.5-0.2,0.9-0.5,1.3c-0.4,0.4-0.8,0.6-1.4,0.6s-1-0.2-1.4-0.6
				s-0.5-0.8-0.5-1.4c0-0.5,0.2-1,0.5-1.3c0.4-0.4,0.8-0.6,1.4-0.6s1,0.2,1.4,0.6c0.4,0.4,0.5,0.8,0.5,1.3c0,0,0,0.1,0,0.1
				 M249.2,143.5c-0.8,0-1.4-0.3-2-0.9c-0.5-0.6-0.8-1.2-0.8-2c0-0.8,0.3-1.4,0.8-2c0.6-0.5,1.2-0.8,2-0.8c0.8,0,1.4,0.3,2,0.8
				c0.6,0.6,0.9,1.2,0.9,2c0,0.8-0.3,1.4-0.9,2C250.6,143.2,250,143.5,249.2,143.5v76.4c0.5,0,0.9,0.2,1.3,0.5
				c0.4,0.4,0.6,0.8,0.6,1.4s-0.2,1-0.6,1.4s-0.8,0.5-1.3,0.5c-0.5,0-1-0.2-1.4-0.5s-0.6-0.8-0.6-1.4s0.2-1,0.6-1.4s0.8-0.5,1.4-0.5
				c0,0,0.1,0,0.1,0"/>
		</g>
	</g>
</g>
<g id="icons">
	<g transform="matrix( 1, 0, 0, 1, 0,0) ">
		<g>
			<path id="Layer1_0_1_STROKES" fill="none" stroke="#FFFFFF" stroke-linecap="round" stroke-linejoin="round" d="M269.6,88.1
				c0,0.7-0.3,1.4-0.8,2c-0.5,0.5-1.1,0.8-1.9,0.8c-0.7,0-1.3-0.2-1.8-0.8c-0.6-0.6-0.9-1.2-0.9-2c0-0.7,0.3-1.3,0.9-1.8
				c0.5-0.6,1.1-0.8,1.8-0.8c0.7,0,1.3,0.3,1.9,0.8C269.4,86.8,269.6,87.4,269.6,88.1z M259.5,83.3c2.1-2.1,4.6-3.2,7.6-3.2
				c2.9,0,5.5,1.1,7.6,3.2 M254.8,78.4c3.4-3.3,7.5-5,12.3-5c4.8,0,8.9,1.7,12.3,5 M250.9,74.8c4.4-4.4,9.8-6.7,16.1-6.7
				c6.3,0,11.6,2.2,16.1,6.7 M248.3,113.5H267v-5.3h-26.8c-1.1,0-2-0.4-2.8-1.3c-0.8-0.8-1.2-1.8-1.2-3v-6.4V64.3
				c0-1.2,0.4-2.2,1.2-3c0.7-0.8,1.7-1.3,2.8-1.3h53.5c1.1,0,2,0.4,2.8,1.3c0.8,0.8,1.2,1.8,1.2,3v33.2v6.4c0,1.1-0.4,2.1-1.2,3
				c-0.8,0.9-1.7,1.3-2.8,1.3H267 M267,113.5h18.7"/>
		</g>
		<g>
			<path id="Layer1_0_2_STROKES" fill="none" stroke="#FFFFFF" stroke-linejoin="round" d="M268.3,102.8c0,0.4-0.1,0.7-0.3,1
				c-0.3,0.2-0.6,0.3-0.9,0.3s-0.6-0.1-0.9-0.3c-0.3-0.3-0.4-0.6-0.4-1c0-0.3,0.1-0.7,0.4-1c0.3-0.3,0.6-0.4,0.9-0.4
				c0.3,0,0.6,0.1,0.9,0.4C268.2,102.2,268.3,102.5,268.3,102.8z M236.3,97.5h61.4"/>
		</g>
		<g>
			<path id="Layer1_0_3_STROKES" fill="none" stroke="#3A6FBB" stroke-linejoin="round" d="M529,102.2c0-2.6-1-4.8-2.9-6.6
				c-1.9-1.8-4.2-2.7-7-2.6c-1.1-2.2-2.7-4-4.8-5.3c-2.2-1.4-4.6-2.1-7.2-2.1c-3.5,0-6.6,1.2-9.1,3.5c-2.6,2.4-4,5.2-4.2,8.6
				c-2.2-0.5-4.2,0-5.9,1.4c-1.8,1.4-2.6,3.2-2.6,5.4c0,2.9,1.3,5,3.8,6.1c1.3,0.6,2.6,0.8,3.8,0.8h27.6c1.4-0.2,2.9-0.7,4.3-1.5
				C527.5,108,529,105.5,529,102.2z M529,131.9v12.9h-43.8v-12.9v-12.8H529V131.9h-43.8 M496.8,125.4c0,0.7-0.2,1.3-0.7,1.9
				c-0.5,0.5-1.1,0.7-1.8,0.7c-0.7,0-1.3-0.2-1.8-0.7c-0.5-0.5-0.8-1.2-0.8-1.9c0-0.7,0.3-1.3,0.8-1.8c0.5-0.5,1.1-0.8,1.8-0.8
				c0.7,0,1.3,0.3,1.8,0.8C496.5,124.2,496.8,124.8,496.8,125.4z M496.8,138.3c0,0.7-0.2,1.3-0.7,1.8c-0.5,0.5-1.1,0.7-1.8,0.7
				c-0.7,0-1.3-0.2-1.8-0.7c-0.5-0.5-0.8-1.1-0.8-1.8c0-0.7,0.3-1.3,0.8-1.8c0.5-0.5,1.1-0.8,1.8-0.8c0.7,0,1.3,0.3,1.8,0.8
				C496.5,137,496.8,137.6,496.8,138.3z M521.3,125.4c0,0.4-0.1,0.7-0.3,0.9c-0.2,0.2-0.5,0.3-1,0.3c-0.3,0-0.6-0.1-0.9-0.3
				c-0.3-0.2-0.4-0.5-0.4-0.9c0-0.3,0.1-0.6,0.4-0.9c0.3-0.2,0.6-0.4,0.9-0.4c0.3,0,0.7,0.1,1,0.4
				C521.1,124.8,521.3,125.1,521.3,125.4z M513.5,125.4c0,0.4-0.1,0.7-0.3,0.9c-0.2,0.2-0.5,0.3-1,0.3c-0.3,0-0.6-0.1-1-0.3
				c-0.2-0.2-0.4-0.5-0.4-0.9c0-0.3,0.1-0.6,0.4-0.9c0.3-0.2,0.6-0.4,1-0.4c0.3,0,0.7,0.1,1,0.4
				C513.4,124.8,513.5,125.1,513.5,125.4z M513.5,138.3c0,0.4-0.1,0.7-0.3,0.9c-0.2,0.3-0.5,0.4-1,0.4c-0.3,0-0.6-0.1-1-0.4
				c-0.2-0.2-0.4-0.5-0.4-0.9c0-0.3,0.1-0.6,0.4-0.9c0.3-0.3,0.6-0.4,1-0.4c0.3,0,0.7,0.1,1,0.4C513.4,137.7,513.5,138,513.5,138.3z
				 M521.3,138.3c0,0.4-0.1,0.7-0.3,0.9c-0.2,0.3-0.5,0.4-1,0.4c-0.3,0-0.6-0.1-0.9-0.4c-0.3-0.2-0.4-0.5-0.4-0.9
				c0-0.3,0.1-0.6,0.4-0.9c0.3-0.3,0.6-0.4,0.9-0.4c0.3,0,0.7,0.1,1,0.4C521.1,137.7,521.3,138,521.3,138.3z"/>
		</g>
		<g>
			<path id="Layer1_0_4_STROKES" fill="none" stroke="#3A6FBB" stroke-linecap="round" stroke-linejoin="round" d="M428.6,53.3
				l-1.4-8.3c-0.6-3.8-2.4-6.9-5.3-9.4s-6.3-3.7-10.1-3.7c-3.3,0-6.3,0.9-9.1,2.7c-2.8,1.8-4.8,4.2-6.1,7.3l-1.1,2.5
				c-2.4,0-4.1,1-5.1,2.9c-0.7,1.4-1.1,3.4-1.1,6h3.6c0-1,0.4-1.8,1-2.5c0.7-0.7,1.5-1,2.5-1c1,0,1.8,0.3,2.5,1
				c0.7,0.7,1.1,1.5,1.1,2.5H418c0-1,0.4-1.8,1-2.5s1.5-1,2.5-1s1.8,0.3,2.5,1s1,1.5,1,2.5H428.6h1.8 M412.6,49.7v-7.2v-7.1
				c2,0,4,0.7,5.9,2.2c1.7,1.3,3,3,3.9,4.9h-9.8 M425,53.3c0,1-0.4,1.9-1,2.5c-0.7,0.7-1.5,1-2.5,1c-1,0-1.8-0.3-2.5-1
				c-0.7-0.7-1-1.5-1-2.5 M408.4,35.6c-1.7,0.3-3.4,1.2-4.9,2.6c-1.4,1.2-2.6,2.7-3.4,4.3h8 M400.1,53.3c0,1-0.4,1.9-1.1,2.5
				c-0.7,0.7-1.5,1-2.5,1c-1,0-1.8-0.3-2.5-1c-0.7-0.7-1-1.5-1-2.5 M494.1,258.8c-3.7,0-6,0.2-7,0.5s-2,1.1-3.1,2.2l-5.3,5.3l8.5-1
				l1.1-1.1L494.1,258.8l9.5-9.5c0.7-0.7,2.2-1.3,4.6-1.9c1.2-0.3,2.3-0.6,3.4-0.8l-0.8,3.4c-0.6,2.4-1.2,3.9-1.9,4.6l-9.6,9.6
				c0,3.5-0.2,5.8-0.5,6.9c-0.4,1.1-1.1,2.2-2.1,3.2l-5.3,5.3l1-8.4l-1,0.9l-5.3-5.3l1.1-1 M488.3,272c0.5,0.5,0.7,1.1,0.5,1.8
				c-0.1,0.7-0.5,1.3-1.1,1.9c-0.9,1-3.8,2.1-8.5,3.2c1.2-4.7,2.2-7.5,3.1-8.5c0.6-0.6,1.3-1,1.9-1.1c0.7-0.1,1.3,0,1.9,0.5
				 M488.3,264.6l5.3,5.3l5.8-5.9 M493.6,270l-1.1,1.1 M173.1,156.4c1-0.5,2.1-0.8,3.3-0.8c2,0,3.7,0.7,5.1,2.1c1.4,1.4,2.1,3,2.1,5
				c0,2-0.7,3.7-2.1,5.1s-3.1,2.1-5.1,2.1s-3.6-0.7-5-2.1c-1.4-1.4-2.1-3.1-2.1-5.1c0-2,0.7-3.6,2.1-5
				C171.9,157.1,172.5,156.7,173.1,156.4l-2.6-9.8l5.6,0.7c0.5,0.1,0.9,0.3,1.2,0.6c0.3,0.4,0.4,0.9,0.3,1.4
				c-0.1,0.5-0.3,0.9-0.7,1.1c-0.4,0.3-0.8,0.4-1.3,0.4 M176.4,162.6l-1.7-0.5l-1.6-5.8 M152.4,144.9l1.6,0.5l3.7,1.2 M161.3,162.6
				l10.7-10.7h-15.1v0.1L161.3,162.6h-4.4c0,2-0.7,3.7-2.1,5.1s-3.1,2.1-5.1,2.1c-2,0-3.6-0.7-5-2.1c-1.4-1.4-2.1-3.1-2.1-5.1
				c0-2,0.7-3.6,2.1-5c1.4-1.4,3.1-2.1,5-2.1c1.5,0,2.8,0.4,4,1.2l3.2-4.8l-2.8-6.6 M153.6,156.8c0.4,0.3,0.7,0.6,1.1,0.9
				c1.4,1.4,2.1,3,2.1,5h-7.2L153.6,156.8z M207.8,245.7h22.7v-8.3h-22.7V245.7v8.3h22.7v-8.3 M211.9,241.6h2 M218.1,241.6h2.1
				 M234.5,247.8h8.3v-6.2h-8.3 M203.6,266.3h-8.3v-6.1v-6.2v-6.2v-6.2h8.3 M234.5,253.9h8.3v-6.2 M207.8,262.1v8.3h22.7v-8.3H207.8
				v-8.2 M234.5,260.1h8.3v-6.2 M234.5,266.3h8.3v-6.1 M230.4,253.9v8.2 M218.1,249.9h2.1 M218.1,258.1h2.1 M218.1,266.3h2.1
				 M211.9,249.9h2 M211.9,266.3h2 M211.9,258.1h2 M203.6,253.9h-8.3 M203.6,260.1h-8.3 M203.6,247.8h-8.3"/>
		</g>
		<g>
			<path id="Layer1_0_5_STROKES" fill="none" stroke="#FFFFFF" stroke-linejoin="round" d="M620,196.9l-2.7-3.6h-9l-2.6,3.6v26.9
				H620V196.9z M616.4,200.5h-7.2v-3.6h7.2V200.5z M614.6,210.4c0,0.5-0.2,0.9-0.5,1.3c-0.4,0.3-0.8,0.5-1.3,0.5
				c-0.5,0-0.9-0.2-1.3-0.5c-0.4-0.4-0.5-0.8-0.5-1.3c0-0.5,0.2-0.9,0.5-1.3c0.3-0.4,0.8-0.6,1.3-0.6c0.5,0,0.9,0.2,1.3,0.6
				C614.4,209.4,614.6,209.9,614.6,210.4z M608.3,216.6h9 M608.3,220.2h9 M593.2,223.8v-5.4h-5.4v5.4 M598.5,214.8h-16.1v-10.8h16.1
				V214.8z M587.8,218.4h-7.2c-0.5,0-0.9-0.2-1.3-0.5c-0.4-0.4-0.5-0.8-0.5-1.3v-14.3c0-0.5,0.2-0.9,0.5-1.3
				c0.3-0.4,0.8-0.6,1.3-0.6h19.7c0.5,0,0.9,0.2,1.3,0.6c0.3,0.3,0.5,0.8,0.5,1.3v14.3c0,0.5-0.2,0.9-0.5,1.3
				c-0.4,0.3-0.8,0.5-1.3,0.5h-7.1"/>
		</g>
		<g>
			<path id="Layer1_0_6_STROKES" fill="none" stroke="#FFFFFF" stroke-linecap="round" stroke-linejoin="round" d="M587.8,223.8h5.4
				h2.6 M585.1,223.8h2.7"/>
		</g>
	</g>
</g>
</svg>
