<?xml version="1.0" encoding="utf-8"?>
<!-- Generator: Adobe Illustrator 23.0.1, SVG Export Plug-In . SVG Version: 6.00 Build 0)  -->
<svg version="1.1" id="Layer_grw1" xmlns="http://www.w3.org/2000/svg" xmlns:xlink="http://www.w3.org/1999/xlink" x="0px" y="0px"
	 viewBox="0 0 750 400" enable-background="new 0 0 750 400" xml:space="preserve">
<g id="bits_clouds">
	<g transform="matrix( 1, 0, 0, 1, 0,0) ">
		<g>
			<g id="Layer5_0_FILL">
				<path fill="#83C4EC" d="M138.6,82.7c0.2,0.2,0.4,0.3,0.7,0.3h2.6v2.6c0,0.3,0.1,0.5,0.3,0.6c0.2,0.2,0.4,0.3,0.7,0.3
					s0.5-0.1,0.7-0.3c0.2-0.2,0.3-0.4,0.3-0.6v-2.6h2.6c0.3,0,0.5-0.1,0.7-0.3c0.2-0.2,0.3-0.4,0.3-0.7s-0.1-0.5-0.3-0.7
					c-0.2-0.2-0.4-0.3-0.7-0.3h-2.6v-2.6c0-0.6-0.3-0.9-0.9-0.9s-0.9,0.3-0.9,0.9v2.6h-2.6c-0.3,0-0.5,0.1-0.7,0.3
					c-0.2,0.2-0.3,0.4-0.3,0.7S138.3,82.5,138.6,82.7 M194,307.5c0-0.3-0.1-0.5-0.3-0.6c-0.2-0.2-0.4-0.3-0.7-0.3s-0.5,0.1-0.6,0.3
					c-0.2,0.2-0.3,0.4-0.3,0.6v2.6h-2.6c-0.6,0-0.9,0.3-0.9,0.9c0,0.3,0.1,0.5,0.3,0.7c0.2,0.2,0.4,0.3,0.7,0.3h2.6v2.5
					c0,0.3,0.1,0.5,0.3,0.7c0.2,0.2,0.4,0.3,0.6,0.3s0.5-0.1,0.7-0.3c0.2-0.2,0.3-0.4,0.3-0.7V312h2.6c0.2,0,0.4-0.1,0.6-0.3
					c0.2-0.2,0.3-0.4,0.3-0.7c0-0.3-0.1-0.5-0.3-0.7c-0.2-0.2-0.4-0.3-0.6-0.3H194V307.5 M672.3,152.9c0-0.3-0.1-0.5-0.3-0.7
					c-0.2-0.2-0.4-0.3-0.7-0.3c-0.3,0-0.5,0.1-0.7,0.3c-0.2,0.2-0.3,0.4-0.3,0.7v2.5h-2.5c-0.3,0-0.5,0.1-0.7,0.3
					c-0.2,0.2-0.3,0.4-0.3,0.7c0,0.3,0.1,0.5,0.3,0.7c0.2,0.2,0.4,0.3,0.7,0.3h2.5v2.5c0,0.3,0.1,0.5,0.3,0.7
					c0.2,0.2,0.4,0.3,0.7,0.3c0.2,0,0.5-0.1,0.7-0.3c0.2-0.2,0.3-0.4,0.3-0.7v-2.5h2.5c0.3,0,0.5-0.1,0.7-0.3
					c0.2-0.2,0.3-0.4,0.3-0.7c0-0.3-0.1-0.5-0.3-0.7c-0.2-0.2-0.4-0.3-0.7-0.3h-2.5V152.9 M292.4,171.8c-0.6,0-1,0.3-1,0.9
					c0,0.3,0.1,0.5,0.3,0.7c0.2,0.2,0.4,0.3,0.7,0.3h2.5v2.6c0,0.3,0.1,0.5,0.3,0.7c0.2,0.2,0.4,0.2,0.6,0.3c0.3,0,0.5-0.1,0.7-0.3
					c0.2-0.2,0.3-0.4,0.3-0.7v-2.6h2.5c0.2,0,0.5-0.1,0.6-0.3c0.2-0.2,0.3-0.4,0.3-0.7c0-0.3-0.1-0.5-0.3-0.7
					c-0.2-0.2-0.4-0.3-0.6-0.3h-2.5v-2.6c0-0.3-0.1-0.5-0.3-0.6c-0.2-0.2-0.4-0.3-0.7-0.3s-0.5,0.1-0.6,0.3
					c-0.2,0.2-0.3,0.4-0.3,0.6v2.6H292.4 M448,46.2c0.2-0.2,0.3-0.4,0.3-0.7c0-0.6-0.3-1-1-1h-2.5V42c0-0.2-0.1-0.5-0.3-0.7
					S444,41,443.8,41c-0.3,0-0.5,0.1-0.7,0.3c-0.2,0.2-0.3,0.4-0.3,0.7v2.6h-2.6c-0.3,0-0.5,0.1-0.7,0.3c-0.2,0.2-0.3,0.4-0.3,0.7
					c0,0.3,0.1,0.5,0.3,0.7c0.2,0.2,0.4,0.3,0.7,0.3h2.6V49c0,0.6,0.3,1,1,1c0.3,0,0.5-0.1,0.6-0.3c0.2-0.2,0.3-0.4,0.3-0.7v-2.5
					h2.5C447.5,46.5,447.8,46.4,448,46.2z"/>
				<path fill="#DEDEDE" d="M72.2,255.4c-0.4,0.4-0.5,0.9-0.5,1.4s0.2,1,0.5,1.4c0.4,0.4,0.9,0.5,1.4,0.5c0.5,0,1-0.2,1.3-0.5
					c0.4-0.4,0.6-0.8,0.6-1.4s-0.2-1-0.6-1.4c-0.4-0.4-0.8-0.6-1.3-0.6C73,254.8,72.6,255,72.2,255.4 M396.8,376.9
					c0-1.1-0.4-2-1.1-2.8c-0.3-0.3-0.7-0.6-1.1-0.8c-0.5-0.2-1-0.4-1.6-0.4c-1.1,0-2,0.4-2.8,1.1c-0.7,0.8-1.1,1.7-1.1,2.8
					c0,1.1,0.4,2,1.1,2.7c0.8,0.7,1.7,1.1,2.8,1.1c0.6,0,1.1-0.1,1.6-0.4c0.4-0.2,0.8-0.4,1.1-0.8
					C396.4,378.9,396.8,378,396.8,376.9z"/>
				<path fill="#BFBFBF" d="M138.3,330.9l-3.1-5.2h-6l-3,5.2l3,5.2h6L138.3,330.9 M134.4,327.1l2.2,3.8l-2.2,3.8h-4.3l-2.2-3.8
					l2.2-3.8H134.4 M601.4,290.8h-6.1l-3,5.2l3,5.2h6.1l3-5.2L601.4,290.8 M596.2,292.2h4.3l2.2,3.8l-2.2,3.8h-4.3L594,296
					L596.2,292.2z"/>
				<path fill="#BAD727" d="M110.1,121c0-0.5-0.2-1-0.6-1.3c-0.4-0.4-0.8-0.6-1.3-0.6c-0.5,0-1,0.2-1.3,0.6
					c-0.4,0.4-0.6,0.8-0.6,1.3c0,0.5,0.2,1,0.6,1.3c0.4,0.4,0.8,0.6,1.3,0.6c0.5,0,1-0.2,1.3-0.6C109.9,122,110.1,121.5,110.1,121
					 M650.2,285.7c0.4,0.4,0.8,0.5,1.3,0.5s1-0.2,1.3-0.5c0.4-0.4,0.6-0.9,0.6-1.4c0-0.5-0.2-1-0.6-1.3c-0.4-0.4-0.8-0.6-1.3-0.6
					s-1,0.2-1.3,0.6c-0.4,0.4-0.6,0.8-0.6,1.3C649.6,284.8,649.8,285.3,650.2,285.7z"/>
				<path fill="#F7571A" d="M637.8,184.3c0.5,0,1-0.2,1.4-0.6c0.4-0.4,0.5-0.9,0.5-1.4s-0.2-1-0.5-1.4c-0.4-0.4-0.8-0.6-1.4-0.6
					s-1,0.2-1.3,0.6c-0.4,0.4-0.6,0.8-0.6,1.4s0.2,1,0.6,1.4C636.8,184.1,637.3,184.3,637.8,184.3 M390,240.4
					c-0.4,0.4-0.6,0.8-0.6,1.4s0.2,1,0.6,1.4c0.4,0.4,0.8,0.6,1.3,0.6c0.5,0,1-0.2,1.4-0.6c0.4-0.4,0.6-0.8,0.6-1.4
					c0-0.5-0.2-1-0.6-1.4c-0.4-0.4-0.8-0.5-1.4-0.5C390.8,239.9,390.3,240,390,240.4z"/>
				<path fill="#D1D1D1" d="M587.8,67.5c0.8-0.8,1.2-1.7,1.2-2.8c0-1-0.4-1.9-1.2-2.7c-0.7-0.7-1.6-1.1-2.7-1.1
					c-1.1,0-2,0.4-2.8,1.1c-0.7,0.7-1.1,1.6-1.1,2.7s0.4,2,1.1,2.8c0.8,0.7,1.7,1.1,2.8,1.1C586.2,68.6,587.1,68.2,587.8,67.5z"/>
				<path fill="#3D3D3D" fill-opacity="0.1686" d="M580.4,96.3c-2.1-1.3-4.4-1.9-6.8-1.9c-3,0-5.7,0.9-8.1,2.8
					c-2.3,1.9-3.8,4.2-4.5,7.1c-2-0.8-4.1-1.2-6.3-1.2c-3.4,0-6.4,0.9-9.2,2.8c-1.9-1.9-4.1-3.4-6.7-4.4c-2.6-1.1-5.3-1.7-8.1-1.7
					c-4.3,0-8.3,1.2-11.9,3.7c-3.5,2.4-6,5.6-7.5,9.5c-2-2.1-4.4-3.2-7.3-3.2c-2.6,0-4.9,0.9-6.9,2.8c-1.9,1.8-3,4-3.1,6.6H638
					c-0.2-8-3.2-14.9-9-20.5c-5.8-5.7-12.7-8.5-20.7-8.5c-4.6,0-9,1-13.1,3.1c-4,1.9-7.3,4.6-10.1,8.1
					C584,99.2,582.4,97.5,580.4,96.3 M359.4,176.5c-2.4-2.4-5.3-3.6-8.6-3.6c-2.6,0-4.9,0.7-7,2.2c-2.1,1.4-3.6,3.3-4.5,5.6
					c-1.2-1.3-2.6-1.9-4.3-1.9c-1.6,0-2.9,0.5-4.1,1.6c-1.1,1.1-1.8,2.4-1.9,3.9h84.8c-0.1-4.7-1.9-8.8-5.3-12.1
					c-3.4-3.3-7.5-5-12.2-5c-2.7,0-5.3,0.6-7.7,1.8c-2.3,1.1-4.3,2.7-5.9,4.8c-0.7-1.2-1.6-2.2-2.8-2.9c-1.2-0.8-2.6-1.1-4-1.1
					c-1.8,0-3.3,0.6-4.8,1.6c-1.4,1.1-2.3,2.5-2.7,4.2c-1.2-0.5-2.4-0.7-3.7-0.7C362.8,174.9,361,175.4,359.4,176.5 M482.4,315.5
					c-3.6-4.9-8-8.7-13.2-11.5c-5.4-2.9-11.1-4.3-17.1-4.3c-10.5,0-19.5,4-27,12c-7.5,8-11.4,17.7-11.6,29.1h187.8
					c-0.3-3.7-1.7-6.9-4.2-9.5c-2.5-2.6-5.5-3.9-9-3.9c-1.8,0-3.6,0.4-5.3,1.2c-1.6,0.8-3,1.9-4.3,3.3c-2-5.6-5.3-10-9.8-13.4
					c-4.6-3.5-9.8-5.3-15.5-5.3c-3.7,0-7.2,0.8-10.6,2.3c-3.2,1.5-6.1,3.6-8.6,6.4c-3.7-2.6-7.7-3.9-12-3.9c-2.8,0-5.5,0.6-8.2,1.8
					c-0.9-4.1-2.9-7.5-6-10.1c-3.1-2.7-6.6-4-10.6-4c-3.2,0-6.1,0.9-8.9,2.7C485.9,310.2,483.8,312.6,482.4,315.5z"/>
			</g>
		</g>
		<g>
			<path id="Layer5_0_1_STROKES" fill="none" stroke="#BFBFBF" stroke-width="2" stroke-miterlimit="10" d="M421.8,66.8
				c0,0.9,0.3,1.7,1,2.3c0.6,0.6,1.4,1,2.3,1c0.9,0,1.6-0.3,2.3-1c0.6-0.6,1-1.4,1-2.3c0-0.9-0.3-1.6-1-2.3c-0.6-0.6-1.4-1-2.3-1
				c-0.9,0-1.7,0.3-2.3,1C422.1,65.2,421.8,65.9,421.8,66.8z M373.3,359.9c0,0.9,0.3,1.7,1,2.3c0.6,0.6,1.4,1,2.3,1
				c0.9,0,1.7-0.3,2.3-1c0.6-0.6,1-1.4,1-2.3c0-0.4-0.1-0.9-0.2-1.3c-0.2-0.4-0.4-0.7-0.8-1.1c-0.6-0.6-1.4-0.9-2.3-0.9
				c-0.9,0-1.6,0.3-2.3,0.9c-0.3,0.3-0.5,0.7-0.7,1.1C373.4,359,373.3,359.4,373.3,359.9z M168.4,108.8c0,0.3,0.1,0.7,0.2,0.9
				c0.1,0.5,0.4,1,0.8,1.3c0.6,0.6,1.4,1,2.3,1c0.9,0,1.7-0.3,2.3-1c0.6-0.6,0.9-1.4,0.9-2.3c0-0.9-0.3-1.6-0.9-2.3
				c-0.4-0.4-0.9-0.7-1.5-0.9c-0.3-0.1-0.5-0.1-0.8-0.1c-0.9,0-1.6,0.3-2.3,1C168.8,107.2,168.4,107.9,168.4,108.8z"/>
		</g>
	</g>
</g>
<g id="monitor">
	<g transform="matrix( 1, 0, 0, 1, 0,0) ">
		<g>
			<g id="Layer4_0_FILL">
				<path fill="#CACACA" d="M510,246.9v21h33.7v-21H510 M490.3,272.8v4.7h73.1v-4.6c0-0.4,0-0.7-0.1-1.1h-72.9
					C490.3,272.1,490.3,272.5,490.3,272.8 M495,267.9c-1.3,0-2.4,0.5-3.4,1.4c-0.7,0.7-1.1,1.6-1.3,2.5h72.9
					c-0.2-0.9-0.6-1.8-1.3-2.5c-1-1-2.2-1.4-3.6-1.4h-14.6H510h-5H495 M619.8,136c-0.9-0.9-1.9-1.3-3.2-1.3H437.3
					c-1.1,0-2.1,0.4-2.8,1.2c-0.8,0.8-1.2,1.8-1.2,2.9v104.1c0,1.1,0.4,2,1.2,2.8c0.8,0.8,1.7,1.2,2.8,1.2H505h5h33.7h73.1
					c1.2,0,2.2-0.5,3-1.3c0.8-0.8,1.3-1.8,1.3-3V139.1C621,137.9,620.6,136.9,619.8,136 M613.5,143.1v17.3v78.4H440.8v-78.4v-17.3
					H613.5z"/>
				<path fill="#828282" d="M491.6,269.3c1-0.9,2.1-1.4,3.4-1.4h-4.9c-1.3,0-2.5,0.5-3.5,1.4c-0.7,0.7-1.2,1.6-1.4,2.5h5.1
					C490.5,270.9,490.9,270,491.6,269.3 M510,246.9h-5v21h5V246.9 M485.3,271.8v5.7h5v-4.7c0-0.3,0-0.7,0.1-1H485.3 M433.3,138.8
					c0-1.1,0.4-2.1,1.2-2.9c0.8-0.8,1.7-1.2,2.8-1.2h-4.9c-1.2,0-2.1,0.4-2.9,1.2c-0.8,0.8-1.2,1.8-1.2,2.9v104.1
					c0,1.1,0.4,2,1.2,2.8c0.8,0.8,1.7,1.2,2.8,1.2h5c-1.1,0-2.1-0.4-2.8-1.2c-0.8-0.8-1.2-1.7-1.2-2.8V138.8z"/>
				<path fill="#FFFFFF" fill-opacity="0.1686" d="M613.5,160.3H440.8v78.4h172.8V160.3 M451.9,170.9h12.6H451.9 M472.7,170.9h12.5
					H472.7 M493.9,170.9h12.6H493.9 M451.9,176.6H537H451.9 M447.3,186.1h160.2H447.3 M451.9,200.4h21.4H451.9 M451.9,218.9h12.6
					H451.9 M522,192.4H532v10.1H522V192.4 M532,221.6v10.1H522v-10.1H532 M532,207v10.1H522V207H532 M539.7,197.8h59.4H539.7
					 M539.7,211.8H586H539.7 M539.7,226.9h54.7H539.7 M448.2,213.3v-7.2h56.7v7.2H448.2 M448.2,206.1v7.2h56.7v-7.2H448.2
					 M451.9,209.6h12.6H451.9 M532,217.1V207H522v10.1H532 M532,231.6v-10.1H522v10.1H532 M532,192.4H522v10.1H532V192.4z"/>
				<path fill="#5EB9E7" d="M613.5,160.3v-17.3H440.8v17.3H613.5 M451.9,151.9h25.4H451.9 M577.8,151.9h25.4H577.8 M545.5,151.9
					h21.7H545.5 M512.3,151.9h21.7H512.3 M488.8,151.9h11H488.8z"/>
			</g>
		</g>
		<g>
			<path id="Layer4_0_1_STROKES" fill="none" stroke="#000000" stroke-miterlimit="10" d="M437.3,134.7h179.3c1.2,0,2.3,0.4,3.2,1.3
				s1.3,1.9,1.3,3.1v103.4c0,1.2-0.5,2.2-1.3,3c-0.8,0.8-1.8,1.3-3,1.3h-73.1v21h14.6c1.4,0,2.6,0.5,3.6,1.4
				c0.7,0.7,1.1,1.6,1.3,2.5c0.1,0.4,0.1,0.7,0.1,1.1v4.6h-73.1h-5v-5.7c0.2-0.9,0.7-1.8,1.4-2.5c1-1,2.2-1.4,3.5-1.4h4.9h10v-21
				h-67.7h-5c-1.1,0-2.1-0.4-2.8-1.2c-0.8-0.8-1.2-1.7-1.2-2.8V138.8c0-1.1,0.4-2.1,1.2-2.9c0.8-0.8,1.8-1.2,2.9-1.2H437.3
				c-1.1,0-2.1,0.4-2.8,1.2c-0.8,0.8-1.2,1.8-1.2,2.9v104.1c0,1.1,0.4,2,1.2,2.8c0.8,0.8,1.7,1.2,2.8,1.2 M440.8,160.3v-17.3h172.8
				v17.3v78.4H440.8V160.3z M505,267.9h5v-21h-5 M495,267.9c-1.3,0-2.4,0.5-3.4,1.4c-0.7,0.7-1.1,1.6-1.3,2.5h72.9 M490.4,271.8
				c-0.1,0.3-0.1,0.7-0.1,1v4.7 M543.7,246.9H510 M543.7,267.9H510 M490.4,271.8h-5.1"/>
		</g>
		<g>
			<path id="Layer4_0_2_STROKES" fill="none" stroke="#000000" stroke-miterlimit="3" d="M493.9,170.9h12.6 M440.8,160.3h172.8
				 M539.7,197.8h59.4 M472.7,170.9h12.5 M451.9,170.9h12.6 M451.9,209.6h12.6 M451.9,218.9h12.6 M451.9,200.4h21.4 M539.7,226.9
				h54.7 M539.7,211.8H586 M451.9,176.6H537"/>
		</g>
		<g>
			<path id="Layer4_0_3_STROKES" fill="none" stroke="#FFFFFF" stroke-miterlimit="3" d="M488.8,151.9h11 M512.3,151.9h21.7
				 M577.8,151.9h25.4 M545.5,151.9h21.7 M451.9,151.9h25.4"/>
		</g>
		<g>
			<path id="Layer4_0_4_STROKES" fill="none" stroke="#A3A3A3" stroke-miterlimit="3" d="M522,192.4H532v10.1H522V192.4z M522,221.6
				H532v10.1H522V221.6z M522,207H532v10.1H522V207z M447.3,186.1h160.2"/>
		</g>
		<g>
			<path id="Layer4_0_5_STROKES" fill="none" stroke="#5EB9E7" stroke-miterlimit="3" d="M448.2,206.1h56.7v7.2h-56.7V206.1z"/>
		</g>
	</g>
</g>
<g id="circle">
	<g transform="matrix( 1, 0, 0, 1, 0,0) ">
		<g>
			<g id="Layer3_0_FILL">
				<path fill="#F7571A" d="M355.6,89.3c0-13.3-4.7-24.7-14.1-34.1c-9.4-9.4-20.8-14.2-34.1-14.2c-13.3,0-24.7,4.7-34.1,14.2
					C263.8,64.6,259,76,259,89.3c0,13.4,4.7,24.8,14.2,34.2c9.4,9.5,20.8,14.2,34.1,14.2c13.3,0,24.7-4.7,34.1-14.2
					C350.9,114.1,355.6,102.7,355.6,89.3z"/>
				<path fill="#BAD727" d="M361,292.3c-5.1-9.9-12.9-16.6-23.5-20c-10.6-3.4-20.9-2.6-30.8,2.5c-9.9,5.1-16.6,13-20,23.6
					s-2.6,20.9,2.5,30.8s12.9,16.6,23.5,20c10.6,3.4,20.9,2.6,30.9-2.4c9.9-5.1,16.5-13,19.9-23.6S366.1,302.2,361,292.3z"/>
				<path fill="#2C538A" d="M234.4,154.3c-12.4-12.4-27.3-18.6-44.8-18.6c-17.5,0-32.5,6.2-44.9,18.6
					c-12.3,12.4-18.5,27.4-18.5,44.9c0,17.5,6.2,32.4,18.5,44.8c12.4,12.4,27.4,18.6,44.9,18.6c17.5,0,32.5-6.2,44.8-18.6
					c12.4-12.4,18.6-27.3,18.6-44.8C253.1,181.6,246.8,166.7,234.4,154.3z"/>
			</g>
		</g>
		<g>
			<path id="Layer3_0_1_STROKES" fill="none" stroke="#A3A3A3" stroke-miterlimit="10" d="M307.4,33.2c-15.5,0-28.8,5.5-39.8,16.4
				c-11,11-16.4,24.2-16.4,39.8c0,15.5,5.5,28.8,16.4,39.8c11,11,24.3,16.5,39.8,16.5s28.8-5.5,39.8-16.5
				c10.9-11,16.4-24.3,16.4-39.8 M369.3,324.9c4-12.2,3-24-2.8-35.4c-5.8-11.4-14.9-19.1-27.1-23c-12.2-3.9-24-3-35.4,2.9
				c-11.4,5.8-19.1,14.8-23,27c-3.9,12.2-3,24,2.8,35.4c5.9,11.4,14.9,19.1,27.1,23.1 M117.4,199.6c0,19.9,7.1,36.9,21.2,51.1
				c14.1,14.1,31.1,21.1,51,21.1c18.3,0,34.2-5.9,47.6-17.8c1.2-1,2.3-2.1,3.4-3.3c0.4-0.4,0.8-0.8,1.2-1.2
				c13.4-13.9,20-30.5,20-49.9c0-19.9-7.1-36.9-21.2-51c-14.1-14.1-31.1-21.1-51-21.1"/>
		</g>
	</g>
</g>
<g id="connector">
	<g transform="matrix( 1, 0, 0, 1, 0,0) ">
		<g>
			<g id="Layer2_0_FILL">
				<path fill="#FEFEFE" d="M280,311.3c-0.4-0.4-0.8-0.5-1.3-0.5c-0.5,0-1,0.2-1.4,0.5c-0.4,0.4-0.6,0.8-0.6,1.4c0,0,0,0.1,0,0.1
					c0,0.5,0.2,0.9,0.6,1.3c0.4,0.4,0.8,0.5,1.4,0.5c0.5,0,1-0.2,1.3-0.5s0.6-0.8,0.6-1.4C280.6,312.1,280.4,311.7,280,311.3
					 M233.2,260.5c0.8,0,1.4-0.3,2-0.9c0.5-0.6,0.8-1.2,0.8-2s-0.3-1.4-0.8-2c-0.6-0.5-1.2-0.8-2-0.8c-0.8,0-1.4,0.3-2,0.8
					c-0.6,0.6-0.8,1.2-0.8,2c0,0.8,0.3,1.4,0.8,2C231.8,260.2,232.4,260.5,233.2,260.5 M249.6,86.1
					C249.6,86.1,249.6,86.2,249.6,86.1c0,0.6,0.2,1.1,0.6,1.5c0.4,0.4,0.8,0.5,1.4,0.5c0.5,0,1-0.2,1.3-0.5c0.4-0.4,0.6-0.8,0.6-1.4
					c0-0.5-0.2-1-0.6-1.3c-0.4-0.4-0.8-0.5-1.3-0.5c-0.5,0-1,0.2-1.4,0.5C249.9,85.2,249.7,85.6,249.6,86.1 M215.4,133.3
					c0.5-0.6,0.8-1.2,0.8-2s-0.3-1.4-0.8-2c-0.6-0.6-1.2-0.9-2-0.9c-0.8,0-1.4,0.3-2,0.9c-0.6,0.6-0.8,1.2-0.8,2
					c0,0.8,0.3,1.4,0.8,2c0.6,0.5,1.2,0.8,2,0.8C214.2,134.1,214.9,133.8,215.4,133.3 M263.5,200.9c0-0.1,0-0.1,0-0.1
					c0-0.4-0.2-0.7-0.4-0.9c-0.3-0.3-0.6-0.5-1-0.5c-0.4,0-0.8,0.2-1,0.5c-0.3,0.3-0.5,0.6-0.5,1c0,0.4,0.1,0.7,0.5,1
					c0.3,0.3,0.6,0.5,1,0.5c0.4,0,0.8-0.2,1-0.5C263.3,201.6,263.5,201.3,263.5,200.9 M426.5,202.6c0.6,0.5,1.2,0.8,2,0.8
					c0.8,0,1.4-0.3,2-0.8c0.6-0.6,0.9-1.2,0.9-2c0-0.8-0.3-1.4-0.9-2c-0.6-0.6-1.2-0.9-2-0.9s-1.4,0.3-2,0.9c-0.5,0.6-0.8,1.2-0.8,2
					c0,0.1,0,0.1,0,0.1C425.8,201.4,426,202.1,426.5,202.6z"/>
			</g>
		</g>
		<g>
			<path id="Layer2_0_1_STROKES" fill="none" stroke="#A3A3A3" stroke-miterlimit="10" d="M425.8,200.8c0,0.7,0.3,1.3,0.8,1.9
				c0.6,0.5,1.2,0.8,2,0.8c0.8,0,1.4-0.3,2-0.8c0.6-0.6,0.9-1.2,0.9-2c0-0.8-0.3-1.4-0.9-2c-0.6-0.6-1.2-0.9-2-0.9s-1.4,0.3-2,0.9
				c-0.5,0.6-0.8,1.2-0.8,2C425.8,200.7,425.8,200.7,425.8,200.8H263.5c0,0,0,0.1,0,0.1c0,0.4-0.1,0.7-0.4,1c-0.3,0.3-0.6,0.5-1,0.5
				c-0.4,0-0.8-0.2-1-0.5c-0.3-0.3-0.5-0.6-0.5-1c0-0.4,0.1-0.8,0.5-1c0.3-0.3,0.6-0.5,1-0.5c0.4,0,0.8,0.2,1,0.5
				c0.2,0.2,0.4,0.5,0.4,0.9 M249.6,86.1c0-0.5,0.2-0.9,0.6-1.3c0.4-0.4,0.8-0.5,1.4-0.5c0.5,0,1,0.2,1.3,0.5
				c0.4,0.4,0.6,0.8,0.6,1.3c0,0.5-0.2,1-0.6,1.4c-0.4,0.4-0.8,0.5-1.3,0.5c-0.5,0-1-0.2-1.4-0.5C249.8,87.2,249.6,86.7,249.6,86.1
				C249.6,86.2,249.6,86.1,249.6,86.1h-27.8c-2.3,0-4.3,0.8-6,2.5c-1.6,1.6-2.4,3.6-2.4,5.9v33.9c0.8,0,1.4,0.3,2,0.9
				c0.5,0.6,0.8,1.2,0.8,2s-0.3,1.4-0.8,2c-0.6,0.5-1.2,0.8-2,0.8c-0.8,0-1.4-0.3-2-0.8c-0.6-0.6-0.8-1.2-0.8-2c0-0.8,0.3-1.4,0.8-2
				c0.6-0.6,1.2-0.9,2-0.9 M233.2,260.5c0.8,0,1.4-0.3,2-0.9c0.5-0.6,0.8-1.2,0.8-2s-0.3-1.4-0.8-2c-0.6-0.5-1.2-0.8-2-0.8
				c-0.8,0-1.4,0.3-2,0.8c-0.6,0.6-0.8,1.2-0.8,2c0,0.8,0.3,1.4,0.8,2C231.8,260.2,232.4,260.5,233.2,260.5v43.9
				c0,2.3,0.8,4.3,2.4,5.9s3.6,2.5,6,2.5h35.2c0,0,0-0.1,0-0.1c0-0.5,0.2-1,0.6-1.4c0.4-0.4,0.8-0.5,1.4-0.5c0.5,0,1,0.2,1.3,0.5
				s0.6,0.8,0.6,1.4c0,0.5-0.2,1-0.6,1.4s-0.8,0.5-1.3,0.5c-0.5,0-1-0.2-1.4-0.5c-0.3-0.3-0.5-0.8-0.6-1.3"/>
		</g>
	</g>
</g>
<g id="icons">
	<g transform="matrix( 1, 0, 0, 1, 0,0) ">
		<g>
			<path id="Layer1_0_1_STROKES" fill="none" stroke="#FFFFFF" stroke-linecap="round" stroke-linejoin="round" d="M171.9,183.9
				c0,0.4-0.1,0.7-0.4,0.9c-0.2,0.3-0.5,0.4-0.9,0.4c-0.4,0-0.7-0.1-0.9-0.4c-0.3-0.3-0.4-0.6-0.4-0.9c0-0.4,0.1-0.7,0.4-0.9
				c0.2-0.3,0.5-0.4,0.9-0.4c0.3,0,0.7,0.1,0.9,0.4C171.7,183.2,171.9,183.5,171.9,183.9z M196.1,204.1v5.4h24.2v-37.8h-62v37.8
				h10.8v-5.4v0c-1.5,0-2.8-0.5-3.8-1.6c-1-1.1-1.6-2.4-1.6-3.9v-16.1c0-1.5,0.5-2.8,1.6-3.8c1.1-1.1,2.3-1.6,3.8-1.6h40.4
				c1.5,0,2.7,0.5,3.8,1.6c1.1,1,1.6,2.3,1.6,3.8v16.1c0,1.5-0.5,2.8-1.6,3.9c-1,1.1-2.3,1.6-3.8,1.6L196.1,204.1L196.1,204.1
				c0,0.7-1.3,1.4-3.9,1.9c-2.7,0.5-5.9,0.8-9.6,0.8c-3.7,0-6.9-0.3-9.5-0.8c-2.6-0.6-3.9-1.2-3.9-1.9 M197.5,190.6
				c0,2.2-0.8,4.1-2.4,5.8c-1.6,1.5-3.5,2.3-5.8,2.3c-2.2,0-4.1-0.8-5.7-2.3c-1.6-1.6-2.3-3.5-2.3-5.8c0-2.2,0.8-4.1,2.3-5.7
				c1.6-1.6,3.5-2.3,5.7-2.3c2.2,0,4.1,0.8,5.8,2.3C196.7,186.5,197.5,188.4,197.5,190.6z M209.6,197.4c0,0.3-0.1,0.6-0.4,0.9
				c-0.3,0.2-0.6,0.3-1,0.3c-0.3,0-0.7-0.1-0.9-0.3c-0.3-0.3-0.4-0.6-0.4-0.9c0-0.4,0.1-0.7,0.4-1c0.3-0.2,0.6-0.3,0.9-0.3
				c0.4,0,0.7,0.1,1,0.3C209.5,196.7,209.6,197,209.6,197.4z M196.1,209.5L196.1,209.5v5.4v5.4v5.5v5.3c0,0.8-1.3,1.4-3.9,1.9
				c-2.7,0.5-5.9,0.8-9.6,0.8c-3.7,0-6.9-0.3-9.5-0.8c-2.6-0.5-3.9-1.2-3.9-1.9v-5.3v-5.5v-5.4v-5.4v0 M169.2,204.1
				c0-0.8,1.3-1.4,3.9-1.9c2.7-0.6,5.8-0.8,9.5-0.8c3.7,0,6.9,0.3,9.6,0.8c2.6,0.5,3.9,1.1,3.9,1.9 M196.1,214.9
				c0,0.7-1.3,1.4-3.9,1.9c-2.7,0.5-5.9,0.8-9.6,0.8c-3.7,0-6.9-0.3-9.5-0.8c-2.6-0.6-3.9-1.2-3.9-1.9 M169.2,209.5
				c0,0.7,1.3,1.3,3.9,1.9c2.7,0.5,5.8,0.7,9.5,0.8c3.7,0,6.9-0.3,9.6-0.8c2.6-0.6,3.9-1.2,3.9-1.9 M196.1,220.3
				c0,0.8-1.3,1.4-3.9,1.9c-2.7,0.5-5.9,0.8-9.6,0.8c-3.7,0-6.9-0.3-9.5-0.8c-2.6-0.5-3.9-1.2-3.9-1.9 M196.1,225.7
				c0,0.7-1.3,1.3-3.9,1.8c-2.7,0.5-5.9,0.8-9.6,0.8c-3.7,0-6.9-0.3-9.5-0.8c-2.6-0.5-3.9-1.1-3.9-1.8"/>
		</g>
		<g>
			<path id="Layer1_0_2_STROKES" fill="none" stroke="#FFFFFF" stroke-linejoin="round" d="M324.5,93.7l4.5,4.5"/>
		</g>
		<g>
			<path id="Layer1_0_3_STROKES" fill="none" stroke="#FFFFFF" stroke-linecap="round" stroke-linejoin="round" d="M314.7,103.6
				l9.8-9.9l3.6-3.6l4.5,4.5l-3.6,3.6l-9.9,9.8l-6.3,1.8L314.7,103.6l4.4,4.4 M305.8,82.9v-1.8h-9v5.3h9V82.9h5.4v9h4.5 M305.8,90.1
				h-9v5.3h9V90.1z M308.5,109.8h-17.1V68.6h19.7l10.8,10.8V91 M311.1,68.6v10.8h10.8 M305.8,100.8v-1.8h-9v5.3h9V100.8h5.4v-8.9"/>
		</g>
		<g>
			<path id="Layer1_0_4_STROKES" fill="none" stroke="#3A6FBB" stroke-linecap="round" stroke-linejoin="round" d="M307.6,293.7v17
				l10.1-6.1c-0.2-0.3-0.4-0.7-0.4-1.1c0-0.6,0.2-1.2,0.7-1.6c0.4-0.5,1-0.7,1.6-0.7s1.2,0.2,1.6,0.7c0.4,0.4,0.7,1,0.7,1.6
				c0,0.2,0,0.5-0.1,0.7l6.9,2.4c0.1-0.4,0.3-0.7,0.6-0.9c0.5-0.5,1-0.7,1.6-0.7c0.5,0,0.9,0.1,1.4,0.5l6.2-7.9c0,0-0.1-0.1-0.1-0.1
				c-0.5-0.4-0.7-0.9-0.7-1.5c0-0.6,0.2-1.1,0.7-1.6c0.4-0.4,1-0.6,1.6-0.6c0.6,0,1.1,0.2,1.6,0.6c0.4,0.5,0.6,1,0.6,1.6
				c0,0.6-0.2,1.1-0.6,1.5c-0.4,0.5-1,0.7-1.6,0.7s-1.1-0.2-1.5-0.6 M332.4,305.5c0.1,0.1,0.1,0.1,0.2,0.3c0.5,0.4,0.7,0.9,0.7,1.5
				c0,0.6-0.2,1.1-0.7,1.6c-0.4,0.4-0.9,0.6-1.5,0.6c-0.6,0-1.1-0.2-1.6-0.6c-0.4-0.4-0.6-1-0.6-1.6c0-0.2,0-0.4,0-0.6 M307.6,310.7
				v13.8l8.6-5.6c-0.2-0.4-0.4-0.8-0.4-1.2c0-0.6,0.2-1.2,0.6-1.6c0.5-0.5,1-0.7,1.6-0.7c0.7,0,1.2,0.2,1.6,0.7
				c0.5,0.4,0.7,1,0.7,1.6h6.8c0-0.6,0.2-1.2,0.7-1.6c0.4-0.5,1-0.7,1.6-0.7c0.6,0,1.1,0.2,1.6,0.7c0.1,0.1,0.3,0.3,0.4,0.4l6.6-3.8
				c-0.2-0.3-0.3-0.7-0.3-1.1c0-0.6,0.2-1.1,0.7-1.5c0.4-0.5,1-0.7,1.6-0.7c0.6,0,1.1,0.2,1.6,0.7c0.4,0.4,0.6,0.9,0.6,1.5
				c0,0.6-0.2,1.2-0.6,1.6c-0.4,0.5-1,0.7-1.6,0.7c-0.6,0-1.2-0.2-1.6-0.7c-0.1-0.1-0.3-0.3-0.4-0.5 M331.5,316.6
				c0.2,0.3,0.3,0.7,0.3,1.1c0,0.6-0.2,1.1-0.6,1.6c-0.5,0.4-1,0.6-1.6,0.6c-0.6,0-1.2-0.2-1.6-0.6c-0.5-0.4-0.7-1-0.7-1.6
				 M321.9,304.2c-0.1,0.3-0.3,0.6-0.6,0.9c-0.4,0.4-1,0.6-1.6,0.6s-1.2-0.2-1.6-0.6c-0.1-0.1-0.3-0.3-0.4-0.5 M320.5,317.8
				c0,0.6-0.2,1.2-0.7,1.6c-0.4,0.4-0.9,0.6-1.6,0.6c-0.6,0-1.1-0.2-1.6-0.6c-0.1-0.1-0.2-0.3-0.3-0.4 M342.3,328.4h-34.6v-3.8"/>
		</g>
	</g>
</g>
</svg>
