<?xml version="1.0" encoding="utf-8"?>
<!-- Generator: Adobe Illustrator 23.0.1, SVG Export Plug-In . SVG Version: 6.00 Build 0)  -->
<svg version="1.1" id="Layer_werw1" xmlns="http://www.w3.org/2000/svg" xmlns:xlink="http://www.w3.org/1999/xlink" x="0px" y="0px"
	 viewBox="0 0 750 400" enable-background="new 0 0 750 400" xml:space="preserve">
<g id="clouds_bits">
	<g transform="matrix( 1, 0, 0, 1, 0,0) ">
		<g>
			<g id="Layer6_0_FILL">
				<path fill="#BFBFBF" d="M286.5,115.9l3,5.3h6l3-5.3l-3-5.2h-6L286.5,115.9 M288.1,115.9l2.2-3.8h4.4l2.1,3.8l-2.1,3.8h-4.4
					L288.1,115.9 M117.2,209.1l-3-5.2h-6.1l-3,5.2l3,5.2h6.1L117.2,209.1 M113.3,205.4l2.2,3.8l-2.2,3.8h-4.4l-2.2-3.8l2.2-3.8
					H113.3z"/>
				<path fill="#F7571A" d="M340.7,58.3c-0.4,0.4-0.6,0.8-0.6,1.4s0.2,1,0.6,1.3s0.8,0.5,1.3,0.5c0.5,0,1-0.2,1.4-0.5
					c0.4-0.4,0.5-0.8,0.5-1.3s-0.2-1-0.5-1.4c-0.4-0.4-0.9-0.5-1.4-0.5C341.5,57.8,341.1,57.9,340.7,58.3 M89.3,138.4
					c0,0.5,0.2,1,0.6,1.4c0.4,0.4,0.8,0.6,1.4,0.6c0.5,0,1-0.2,1.3-0.6c0.4-0.4,0.5-0.9,0.5-1.4c0-0.5-0.2-1-0.5-1.4
					c-0.4-0.4-0.8-0.6-1.3-0.6c-0.5,0-1,0.2-1.4,0.6C89.5,137.4,89.3,137.8,89.3,138.4z"/>
				<path fill="#83C4EC" d="M192.4,105.4c0.2-0.2,0.3-0.4,0.3-0.7s-0.1-0.5-0.3-0.7c-0.2-0.2-0.4-0.3-0.6-0.3h-2.6v-2.6
					c0-0.3-0.1-0.5-0.3-0.7s-0.4-0.3-0.7-0.3c-0.3,0-0.5,0.1-0.6,0.3c-0.2,0.2-0.3,0.4-0.3,0.7v2.6h-2.6c-0.6,0-0.9,0.3-0.9,0.9
					c0,0.6,0.3,1,0.9,1h2.6v2.5c0,0.3,0.1,0.5,0.3,0.7c0.2,0.2,0.4,0.3,0.6,0.3c0.3,0,0.5-0.1,0.7-0.3s0.3-0.4,0.3-0.7v-2.5h2.6
					C192,105.7,192.2,105.6,192.4,105.4 M454.1,215.1c-0.3,0-0.5,0.1-0.7,0.3c-0.2,0.2-0.3,0.4-0.3,0.7c0,0.3,0.1,0.5,0.3,0.7
					c0.2,0.2,0.4,0.3,0.7,0.3h2.5v2.6c0,0.3,0.1,0.5,0.3,0.7c0.2,0.2,0.4,0.3,0.7,0.3c0.3,0,0.5-0.1,0.7-0.3
					c0.2-0.2,0.2-0.4,0.3-0.7v-2.6h2.6c0.3,0,0.5-0.1,0.7-0.3c0.2-0.2,0.3-0.4,0.3-0.7c0-0.3-0.1-0.5-0.3-0.7
					c-0.2-0.2-0.4-0.3-0.7-0.3h-2.6v-2.5c0-0.3-0.1-0.5-0.3-0.7c-0.2-0.2-0.4-0.3-0.7-0.3c-0.3,0-0.5,0.1-0.7,0.3
					c-0.2,0.2-0.3,0.4-0.3,0.7v2.5H454.1 M137.4,238.6c-0.3,0-0.5,0.1-0.7,0.3c-0.2,0.2-0.3,0.4-0.3,0.7v2.6h-2.5
					c-0.3,0-0.5,0.1-0.7,0.3c-0.2,0.2-0.3,0.4-0.3,0.6c0,0.6,0.3,0.9,1,0.9h2.5v2.6c0,0.3,0.1,0.5,0.3,0.6c0.2,0.2,0.4,0.3,0.7,0.3
					c0.3,0,0.5-0.1,0.7-0.3c0.2-0.2,0.3-0.4,0.3-0.6v-2.6h2.6c0.3,0,0.5-0.1,0.7-0.3c0.2-0.2,0.3-0.4,0.3-0.7c0-0.2-0.1-0.4-0.3-0.6
					c-0.2-0.2-0.4-0.3-0.7-0.3h-2.6v-2.6C138.3,238.9,138,238.6,137.4,238.6 M428.3,316.3c-0.2-0.2-0.4-0.3-0.7-0.3H425v-2.5
					c0-0.6-0.3-1-0.9-1c-0.6,0-1,0.3-1,1v2.5h-2.5c-0.3,0-0.5,0.1-0.7,0.3c-0.2,0.2-0.3,0.4-0.3,0.7c0,0.3,0.1,0.5,0.3,0.7
					c0.2,0.2,0.4,0.3,0.7,0.3h2.5v2.6c0,0.3,0.1,0.5,0.3,0.6c0.2,0.2,0.4,0.3,0.7,0.3s0.5-0.1,0.7-0.3c0.2-0.2,0.2-0.4,0.3-0.6v-2.6
					h2.6c0.3,0,0.5-0.1,0.7-0.3c0.2-0.2,0.3-0.4,0.3-0.7C428.6,316.7,428.5,316.5,428.3,316.3 M567.5,71.3v2.6h-2.5
					c-0.6,0-1,0.3-1,0.9c0,0.3,0.1,0.5,0.3,0.7c0.2,0.2,0.4,0.3,0.7,0.3h2.5v2.6c0,0.3,0.1,0.5,0.3,0.7c0.2,0.2,0.4,0.3,0.7,0.3
					c0.6,0,0.9-0.3,0.9-0.9v-2.6h2.6c0.2,0,0.4-0.1,0.6-0.3c0.2-0.2,0.3-0.4,0.3-0.7s-0.1-0.5-0.3-0.7c-0.2-0.2-0.4-0.3-0.6-0.3
					h-2.6v-2.6c0-0.3-0.1-0.5-0.3-0.7c-0.2-0.2-0.4-0.3-0.7-0.3s-0.5,0.1-0.7,0.3C567.5,70.8,567.5,71,567.5,71.3z"/>
				<path fill="#FEFEFE" d="M214.5,78c-0.4,0.4-0.6,0.9-0.6,1.4c0,0.6,0.2,1,0.6,1.4c0.4,0.4,0.8,0.6,1.4,0.6c0.5,0,1-0.2,1.4-0.6
					c0.4-0.4,0.6-0.8,0.6-1.4c0-0.6-0.2-1-0.6-1.4c-0.4-0.4-0.8-0.6-1.4-0.6C215.3,77.4,214.9,77.6,214.5,78z"/>
				<path fill="#BAD727" d="M435.5,194.9c0.4-0.4,0.6-0.8,0.6-1.3s-0.2-1-0.6-1.4c-0.4-0.4-0.9-0.6-1.4-0.6c-0.5,0-1,0.2-1.4,0.6
					c-0.4,0.4-0.5,0.9-0.5,1.4s0.2,1,0.5,1.3c0.4,0.4,0.8,0.6,1.4,0.6C434.7,195.5,435.1,195.3,435.5,194.9 M48.8,164.4
					c0,0.5,0.2,1,0.5,1.4c0.4,0.4,0.8,0.6,1.4,0.6s1-0.2,1.4-0.6c0.4-0.4,0.5-0.8,0.5-1.4c0-0.5-0.2-1-0.5-1.4
					c-0.4-0.4-0.9-0.6-1.4-0.6s-1,0.2-1.4,0.6C48.9,163.4,48.8,163.9,48.8,164.4 M498.7,293.5c0,0.5,0.2,1,0.6,1.3
					c0.4,0.4,0.8,0.6,1.4,0.6c0.5,0,1-0.2,1.4-0.6c0.4-0.4,0.5-0.8,0.5-1.3c0-0.5-0.2-1-0.5-1.4c-0.4-0.4-0.8-0.6-1.4-0.6
					c-0.5,0-1,0.2-1.4,0.6C498.9,292.5,498.7,292.9,498.7,293.5z"/>
				<path fill="#D1D1D1" d="M392,329.1c-0.7,0.7-1.1,1.6-1.1,2.7c0,1.1,0.4,2,1.1,2.8c0.8,0.7,1.7,1.1,2.8,1.1s2-0.4,2.7-1.1
					c0.8-0.8,1.1-1.7,1.1-2.8c0-1-0.4-1.9-1.1-2.7c-0.7-0.7-1.6-1.1-2.7-1.1S392.8,328.4,392,329.1z"/>
				<path fill="#3D3D3D" fill-opacity="0.1686" d="M436.9,265.5c-0.9-0.4-1.8-0.8-2.8-1.1c-1.7-0.5-3.4-0.8-5.2-0.8
					c-1.9,0-3.6,0.3-5.3,0.8c-2.7,0.8-5.2,2.3-7.3,4.4c-3.5,3.4-5.4,7.6-5.5,12.5h88c-0.1-1.6-0.8-3-2-4c-1.2-1.1-2.6-1.6-4.2-1.6
					c-1.7,0-3.2,0.6-4.5,1.9c-0.9-2.4-2.5-4.3-4.6-5.8c-2.2-1.5-4.6-2.3-7.3-2.3c-3.5,0-6.5,1.2-9,3.7c-1.7-1.1-3.6-1.7-5.6-1.7
					c-1.3,0-2.5,0.3-3.8,0.8c-0.5-1.8-1.4-3.2-2.8-4.3c-1.5-1.2-3.1-1.8-5-1.8c-1.5,0-2.9,0.4-4.1,1.2c-1.2,0.8-2.2,1.8-2.9,3
					C441.3,268.4,439.3,266.8,436.9,265.5 M352,189.4c-2.5-2.4-5.5-3.6-9-3.6c-3.8,0-7,1.4-9.6,4.1c-2-5.1-5.3-9.3-9.9-12.4
					c-4.7-3.2-9.9-4.9-15.6-4.9c-3.7,0-7.3,0.7-10.6,2.2c-3.3,1.4-6.2,3.3-8.7,5.8c-3.7-2.4-7.7-3.6-12-3.6c-2.8,0-5.6,0.5-8.3,1.6
					c-0.9-3.8-2.9-6.9-6-9.3c-3.1-2.5-6.6-3.7-10.6-3.7c-3.2,0-6.2,0.8-8.9,2.5c-2.7,1.6-4.7,3.8-6.2,6.5
					c-3.6-4.5-8.1-8.1-13.3-10.6c-5.4-2.6-11.1-3.9-17.1-3.9c-10.6,0-19.7,3.7-27.3,11.1c-7.6,7.4-11.5,16.4-11.7,27h189.1
					C355.9,194.7,354.5,191.8,352,189.4 M673.3,132.2c-0.2-7.1-2.8-13.2-7.9-18.2c-5.1-5-11.3-7.5-18.5-7.5c-4.1,0-7.9,0.9-11.5,2.7
					c-3.5,1.7-6.5,4.1-9,7.2c-1-1.8-2.4-3.3-4.2-4.4c-1.8-1.1-3.8-1.6-6-1.6c-2.7,0-5.1,0.8-7.2,2.5c-2.1,1.7-3.4,3.8-4,6.3
					c-1.8-0.7-3.7-1.1-5.6-1.1c-2.9,0-5.6,0.8-8.1,2.4c-1.7-1.7-3.7-3-5.9-3.9c-2.3-1-4.7-1.4-7.2-1.4c-3.8,0-7.3,1.1-10.5,3.3
					c-3.1,2.1-5.3,4.9-6.7,8.3c-0.8-0.9-1.8-1.5-2.9-2c-1.2-0.5-2.4-0.8-3.6-0.8c-2.3,0-4.3,0.8-6,2.3c-0.1,0.1-0.1,0.1-0.1,0.2
					c-1.7,1.6-2.7,3.6-2.9,5.8H673.3z"/>
				<path fill="#DEDEDE" d="M691.5,207.8c0,1,0.4,1.9,1.2,2.7c0.7,0.7,1.6,1.1,2.7,1.1c1.1,0,2-0.4,2.7-1.1c0.8-0.8,1.2-1.7,1.2-2.7
					c0-1.1-0.4-2-1.2-2.8c-0.7-0.7-1.6-1.1-2.7-1.1c-1.1,0-2,0.4-2.7,1.1C691.9,205.8,691.5,206.7,691.5,207.8 M687.7,189.6
					c0,0.5,0.2,1,0.6,1.4c0.4,0.4,0.8,0.6,1.3,0.6c0.5,0,1-0.2,1.4-0.6c0.4-0.4,0.5-0.9,0.5-1.4s-0.2-1-0.5-1.3
					c-0.4-0.4-0.8-0.6-1.4-0.6s-1,0.2-1.3,0.6C687.9,188.7,687.7,189.1,687.7,189.6z"/>
			</g>
		</g>
		<g>
			<path id="Layer6_0_1_STROKES" fill="none" stroke="#BFBFBF" stroke-width="2" stroke-miterlimit="10" d="M359.6,86.3
				c0,0.9,0.3,1.6,1,2.3c0.6,0.6,1.4,1,2.3,1c0.9,0,1.7-0.3,2.3-1c0.6-0.6,1-1.4,1-2.3c0-0.9-0.3-1.7-1-2.3c-0.6-0.6-1.4-1-2.3-1
				c-0.9,0-1.6,0.3-2.3,1C360,84.7,359.6,85.5,359.6,86.3z M640.3,319.2c0,0.9,0.3,1.6,1,2.3c0.3,0.3,0.7,0.6,1.2,0.8
				c0.4,0.1,0.7,0.2,1.1,0.2c0.9,0,1.6-0.3,2.3-0.9c0.6-0.6,1-1.4,1-2.3c0-0.9-0.3-1.7-1-2.3c-0.6-0.6-1.4-0.9-2.3-0.9
				c-0.4,0-0.8,0.1-1.1,0.2c-0.4,0.2-0.8,0.4-1.2,0.8C640.6,317.5,640.3,318.3,640.3,319.2z M62.4,287.9c0,0.9,0.3,1.7,0.9,2.3
				c0.6,0.6,1.4,0.9,2.3,0.9c0.9,0,1.7-0.3,2.3-0.9c0.6-0.6,0.9-1.4,0.9-2.3c0-0.9-0.3-1.6-0.9-2.3c-0.6-0.6-1.4-0.9-2.3-0.9
				c-0.9,0-1.6,0.3-2.3,0.9C62.7,286.3,62.4,287,62.4,287.9z"/>
		</g>
		<g>
			<path id="Layer6_0_2_STROKES" fill="none" stroke="#A3A3A3" stroke-miterlimit="10" d="M213.9,79.4c0,0.6,0.2,1,0.6,1.4
				c0.4,0.4,0.8,0.6,1.4,0.6c0.5,0,1-0.2,1.4-0.6c0.4-0.4,0.6-0.8,0.6-1.4c0-0.6-0.2-1-0.6-1.4c-0.4-0.4-0.8-0.6-1.4-0.6
				c-0.6,0-1,0.2-1.4,0.6C214.1,78.4,213.9,78.9,213.9,79.4z"/>
		</g>
	</g>
</g>
<g id="laptop">
	<g transform="matrix( 1, 0, 0, 1, 0,0) ">
		<g>
			<g id="Layer5_0_FILL">
				<path fill="#CACACA" d="M100.9,347.6c0,0.4,0.1,0.8,0.2,1.1h163.5c0-0.4,0.1-0.7,0.1-1.1v-4.9H158.2h-57.3V347.6 M101.1,348.8
					c0.2,1,0.5,1.8,1.1,2.6c0.8,1,1.9,1.5,3.1,1.5h155.1c1.2,0,2.2-0.5,3-1.5c0.6-0.7,1-1.6,1.2-2.6H101.1z"/>
				<path fill="#FFFFFF" d="M352.8,226.4L352.8,226.4c-0.2-0.4-0.4-0.7-0.6-0.9c-0.2-0.1-0.3-0.2-0.5-0.3c-0.1-0.1-0.2-0.1-0.3-0.1
					c-0.3-0.1-0.6-0.2-1-0.2H194.2c-1,0-2,0.4-2.9,1.4c-1,0.8-1.6,1.8-1.9,3l-31.2,113.4h106.4h57.3L353,229.7
					C353.3,228.5,353.3,227.4,352.8,226.4 M317.7,334.3H167.1l27.6-100.4h150.5L317.7,334.3z"/>
				<path fill="#F7571A" d="M167.1,334.3h150.6l27.6-100.4H194.8L167.1,334.3z"/>
			</g>
		</g>
		<g>
			<path id="Layer5_0_1_STROKES" fill="none" stroke="#000000" stroke-miterlimit="10" d="M352.1,225.6l3.9,2.8c0.1,0,0.1,0,0.2,0.1
				c0.1,0.1,0.2,0.2,0.3,0.3c0.1,0.1,0.2,0.3,0.3,0.5c0.5,0.9,0.6,2,0.3,3.3l-31,113.1h-4.1v1.9c0,0.4,0,0.7,0,1.1
				c-0.2,1-0.6,1.9-1.2,2.6c-0.9,1-1.9,1.5-3.1,1.5h-57.1H105.3c-1.2,0-2.3-0.5-3.1-1.5c-0.6-0.8-1-1.6-1.1-2.6
				c-0.1-0.4-0.2-0.8-0.2-1.1v-4.8h57.3l31.2-113.4c0.3-1.2,0.9-2.2,1.9-3c0.9-0.9,1.9-1.4,2.9-1.4h156.2c0.4,0,0.7,0.1,1,0.2
				c0.1,0,0.2,0,0.3,0.1C351.8,225.4,351.9,225.4,352.1,225.6c0.2,0.2,0.4,0.5,0.6,0.8l0,0.1c0.5,0.9,0.6,2,0.2,3.3l-31.1,113.1
				l4.1,2.9 M321.3,345.7h0.6v-2.9h-57.3v4.9c0,0.4,0,0.7-0.1,1.1h57.3 M260.4,352.9c1.2,0,2.2-0.5,3-1.5c0.6-0.7,1-1.6,1.2-2.6
				H101.1 M317.7,334.3H167.1l27.6-100.4h150.5L317.7,334.3z M264.6,342.8H158.2"/>
		</g>
	</g>
</g>
<g id="screen">
	<g transform="matrix( 1, 0, 0, 1, 0,0) ">
		<g>
			<path id="Layer4_0_1_STROKES" fill="none" stroke="#FFFFFF" stroke-miterlimit="10" d="M293.1,240.8h39.4l-1.9,6.7h-39.4
				L293.1,240.8z M246.5,294.1h16.4 M249.1,284.9h19.7 M251.6,275.7h14 M256.7,257.3h19.8 M254.1,266.5h24.1 M300.9,294.1h15.5
				 M306,275.7h15.5 M303.4,284.9h15.5 M190.8,294.1H222 M198.4,266.5h33.5 M201,257.3h28.5 M195.9,275.7h36.5 M193.4,284.9h36.5
				 M183.1,321.7H207 M185.7,312.5h33 M188.3,303.3h23.5 M298.3,303.3h15.5 M293.2,321.7h15.5 M295.8,312.5h15.5 M243.9,303.3h21
				 M320.5,298.8h-137 M318,308H180.9 M312.9,326.4h-137 M315.5,317.2H178.4 M323.1,289.6H186.1 M238.9,321.7h18.6 M241.4,312.5
				h12.4 M204.1,243.6h41.7 M325.6,280.4h-137 M328.2,271.2H191.1 M308.5,266.5H324 M311,257.3h15.5 M330.8,262H193.7 M333.3,252.8
				h-137"/>
		</g>
	</g>
</g>
<g id="circles">
	<g transform="matrix( 1, 0, 0, 1, 0,0) ">
		<g>
			<g id="Layer3_0_FILL">
				<path fill="#2C538A" d="M605,174.1c-13.7-7-27.9-8.2-42.6-3.5c-14.7,4.7-25.6,14-32.6,27.8c-7.1,13.8-8.2,28-3.5,42.7
					c4.8,14.7,14,25.6,27.8,32.6c13.8,7,28,8.2,42.7,3.5c14.7-4.7,25.6-14,32.6-27.8c7.1-13.8,8.2-28,3.5-42.7
					C628.1,192.1,618.8,181.2,605,174.1z"/>
				<path fill="#BAD727" d="M528.5,81.1c-4-12.4-11.8-21.6-23.4-27.6c-11.6-5.9-23.6-6.9-36-2.9c-12.4,4-21.6,11.8-27.5,23.4
					c-5.9,11.6-6.9,23.6-2.9,36c4,12.4,11.8,21.5,23.3,27.4c11.6,5.9,23.6,6.9,36,2.9c12.4-4,21.6-11.8,27.5-23.3
					C531.5,105.4,532.5,93.4,528.5,81.1z"/>
			</g>
		</g>
		<g>
			<path id="Layer3_0_1_STROKES" fill="none" stroke="#A3A3A3" stroke-miterlimit="10" d="M535.5,78.8c4.6,14.3,3.5,28.1-3.3,41.4
				c-6.8,13.3-17.3,22.3-31.7,26.9c-14.2,4.6-28,3.5-41.3-3.3c-13.4-6.8-22.4-17.4-27-31.6c-4.6-14.3-3.4-28.1,3.4-41.4
				c6.8-13.4,17.4-22.3,31.6-26.9 M599.2,284.7c-16.8,5.4-33,4.1-48.7-3.9c-15.7-8.1-26.3-20.5-31.7-37.2c-5.4-16.8-4.1-33,4-48.8
				c8-15.6,20.4-26.2,37.2-31.6c16.7-5.4,33-4.1,48.7,3.9c15.6,8,26.2,20.4,31.6,37.2"/>
		</g>
	</g>
</g>
<g id="connectors">
	<g transform="matrix( 1, 0, 0, 1, 0,0) ">
		<g>
			<g id="Layer2_0_FILL">
				<path fill="#FEFEFE" d="M431.5,104.5c-0.3-0.3-0.6-0.4-1.1-0.4c-0.4,0-0.8,0.2-1,0.4c-0.2,0.2-0.4,0.5-0.4,0.9c0,0,0,0.1,0,0.2
					c0,0.4,0.1,0.7,0.4,1c0.3,0.3,0.6,0.4,1,0.4c0.4,0,0.8-0.2,1.1-0.4c0.3-0.3,0.4-0.6,0.4-1C431.9,105.1,431.8,104.8,431.5,104.5
					 M522.9,250.6c-0.4-0.4-0.8-0.6-1.4-0.6c-0.5,0-1,0.2-1.4,0.6c-0.4,0.4-0.6,0.8-0.6,1.3c0,0,0,0.1,0,0.1c0,0.6,0.2,1.1,0.6,1.4
					c0.4,0.4,0.8,0.6,1.4,0.6s1-0.2,1.4-0.6c0.4-0.4,0.6-0.9,0.6-1.4C523.5,251.5,523.3,251,522.9,250.6 M342.4,249.8
					c-0.6-0.5-1.2-0.8-2-0.8c-0.8,0-1.5,0.3-2,0.8c-0.6,0.6-0.9,1.2-0.9,2s0.3,1.4,0.9,2c0.5,0.6,1.2,0.9,2,0.9c0.8,0,1.4-0.3,2-0.9
					c0.5-0.6,0.8-1.2,0.8-1.9v-0.1C343.1,251,342.9,250.3,342.4,249.8z"/>
			</g>
		</g>
		<g>
			<path id="Layer2_0_1_STROKES" fill="none" stroke="#A3A3A3" stroke-miterlimit="10" d="M429,105.4h-35.2c-2.3,0-4.3,0.8-5.9,2.4
				c-1.6,1.6-2.5,3.6-2.5,6v129.6c0,0.7-0.1,1.4-0.2,2c-0.3,1-0.7,2-1.3,2.8c-0.3,0.4-0.6,0.8-0.9,1.1c-1.6,1.6-3.5,2.4-5.7,2.5
				l142.3,0c0-0.5,0.2-0.9,0.6-1.3c0.4-0.4,0.9-0.6,1.4-0.6c0.6,0,1,0.2,1.4,0.6c0.4,0.4,0.6,0.9,0.6,1.4c0,0.6-0.2,1.1-0.6,1.4
				c-0.4,0.4-0.8,0.6-1.4,0.6s-1-0.2-1.4-0.6c-0.4-0.4-0.6-0.9-0.6-1.4c0-0.1,0-0.1,0-0.1 M429,105.4c0-0.4,0.2-0.7,0.4-0.9
				c0.3-0.3,0.6-0.4,1-0.4c0.4,0,0.8,0.2,1.1,0.4c0.3,0.3,0.4,0.6,0.4,1.1c0,0.4-0.1,0.7-0.4,1c-0.3,0.3-0.6,0.4-1.1,0.4
				c-0.4,0-0.8-0.2-1-0.4c-0.3-0.3-0.4-0.6-0.4-1C429,105.5,429,105.4,429,105.4z M343.1,251.8c0,0.7-0.3,1.4-0.8,1.9
				c-0.6,0.6-1.2,0.9-2,0.9c-0.8,0-1.5-0.3-2-0.9c-0.6-0.6-0.9-1.2-0.9-2s0.3-1.4,0.9-2c0.5-0.5,1.2-0.8,2-0.8c0.8,0,1.4,0.3,2,0.8
				C342.9,250.3,343.1,251,343.1,251.8L343.1,251.8l34.1,0"/>
		</g>
	</g>
</g>
<g id="icons">
	<g transform="matrix( 1, 0, 0, 1, 0,0) ">
		<g>
			<path id="Layer1_0_1_STROKES" fill="none" stroke="#FFFFFF" stroke-linecap="round" stroke-linejoin="round" d="M560.9,191.6
				c2.2-2.8,4.9-4.9,8-6.5c3.3-1.6,6.7-2.4,10.3-2.4s7.1,0.8,10.4,2.4c3.1,1.6,5.8,3.7,7.9,6.5 M565,194.6c1.7-2.1,3.8-3.7,6.3-4.9
				c2.5-1.2,5.2-1.8,8-1.8c2.8,0,5.5,0.6,8,1.8c2.4,1.2,4.5,2.9,6.2,4.9 M568.8,198.1c1.2-1.6,2.8-2.9,4.5-3.8
				c1.8-1,3.8-1.5,5.9-1.5c2.1,0,4,0.5,5.9,1.5c1.8,0.9,3.3,2.1,4.5,3.8 M570.1,208.2c0,1.4-0.5,2.6-1.5,3.7c-1,1-2.1,1.4-3.4,1.4
				c2.7,0,4.8,1.1,6.4,3.3c2.2-1.9,4.7-2.8,7.7-2.9c-2,0-3.7-0.7-5.2-2.1c-1.4-1.4-2.1-3.2-2.1-5.2c0-2,0.7-3.8,2.1-5.2
				c1.5-1.4,3.2-2.1,5.2-2.1c2,0,3.8,0.7,5.3,2.1c1.4,1.4,2.2,3.2,2.2,5.2c0,2-0.7,3.8-2.2,5.2c-1.4,1.4-3.2,2.1-5.2,2.1
				c2.9,0.1,5.5,1,7.6,2.9c1.6-2.2,3.8-3.3,6.5-3.3c-1.3,0-2.5-0.5-3.5-1.4c-1-1-1.5-2.2-1.5-3.7c0-1.4,0.5-2.6,1.5-3.6
				c1-1,2.2-1.5,3.6-1.5c1.4,0,2.6,0.5,3.6,1.5c1,1,1.5,2.2,1.5,3.6s-0.5,2.6-1.5,3.7c-1,1-2.1,1.4-3.5,1.4c2.2,0,4,0.8,5.6,2.4
				c1.6,1.6,2.4,3.5,2.4,5.8h-11.3c0.4,1.3,0.7,2.7,0.7,4.1h-23.5c0-1.4,0.2-2.8,0.7-4.1h-11.4c0-2.2,0.8-4.1,2.4-5.8
				c1.6-1.6,3.4-2.4,5.7-2.4c-1.3,0-2.5-0.5-3.5-1.4c-1-1-1.5-2.2-1.5-3.7c0-1.4,0.5-2.6,1.5-3.6c1-1,2.2-1.5,3.6-1.5
				c1.4,0,2.6,0.5,3.5,1.5C569.6,205.6,570.1,206.8,570.1,208.2z M586.9,216.6c0.2,0.2,0.5,0.4,0.6,0.6c1.2,1.2,2.2,2.6,2.8,4.2
				 M593.4,213.3h0.3 M568.2,221.4c0.6-1.6,1.5-3,2.8-4.2c0.2-0.2,0.4-0.4,0.6-0.6 M579.2,213.8h0.1 M564.9,213.3h0.3 M577,241.6h17
				 M577,254.7h17 M571.7,236.4l-7.8,7.9l-3.9-3.9 M571.7,250.8l-7.8,7.9l-3.9-3.9"/>
		</g>
		<g>
			<path id="Layer1_0_2_STROKES" fill="none" stroke="#3A6FBB" stroke-width="1.5" stroke-linejoin="round" d="M469.5,86.4v-8.7
				c0-3.8,1.4-7,4.1-9.6c2.6-2.7,5.8-4,9.6-4s7,1.3,9.6,4c2.7,2.7,4,5.9,4,9.6v8.7h7.5v34.8h-42.3V86.4H469.5h27.3 M483.2,101.3
				c-0.3,0-0.6-0.1-0.9-0.4c-0.2-0.3-0.4-0.5-0.4-0.8c0-0.3,0.1-0.6,0.4-0.9c0.2-0.2,0.5-0.3,0.9-0.3c0.4,0,0.7,0.1,0.9,0.3
				c0.2,0.3,0.3,0.6,0.3,0.9c0,0.4-0.1,0.7-0.3,0.8C483.9,101.2,483.6,101.3,483.2,101.3z"/>
		</g>
		<g>
			
				<path id="Layer1_0_3_STROKES" fill="none" stroke="#3A6FBB" stroke-width="1.5" stroke-linecap="round" stroke-linejoin="round" d="
				M483.2,101.3v7.4"/>
		</g>
	</g>
</g>
</svg>
