<?xml version="1.0" encoding="utf-8"?>
<!-- Generator: Adobe Illustrator 23.0.1, SVG Export Plug-In . SVG Version: 6.00 Build 0)  -->
<svg version="1.1" id="Layer_4234" xmlns="http://www.w3.org/2000/svg" xmlns:xlink="http://www.w3.org/1999/xlink" x="0px" y="0px"
	 viewBox="0 0 750 400" enable-background="new 0 0 750 400" xml:space="preserve">
<g id="clouds_bits">
	<g transform="matrix( 1, 0, 0, 1, 0,0) ">
		<g>
			<g id="Layer6_0_FILL">
				<path fill="#3D3D3D" fill-opacity="0.1686" d="M395.6,321.1c-0.1,0.1-0.3,0.3-0.4,0.4c-2.5,2.6-3.9,5.7-4.2,9.5h187.8
					c-0.2-11.4-4.1-21.1-11.6-29.1c-7.5-8-16.5-12-27-12c-6,0-11.7,1.4-17.1,4.3c-5.2,2.8-9.6,6.6-13.2,11.5c-1.4-2.9-3.5-5.3-6.1-7
					c-2.7-1.8-5.7-2.7-8.8-2.7c-4,0-7.5,1.3-10.6,4c-3,2.6-5,6-6,10.1c-2.7-1.2-5.4-1.8-8.2-1.8c-4.3,0-8.3,1.3-12,3.9
					c-2.5-2.7-5.4-4.9-8.6-6.4c-3.4-1.5-6.9-2.3-10.6-2.3c-5.7,0-10.8,1.8-15.4,5.3c-4.5,3.4-7.8,7.9-9.9,13.5
					c-1.2-1.4-2.6-2.5-4.3-3.3c-1.7-0.8-3.5-1.2-5.3-1.2C400.9,317.7,398,318.9,395.6,321.1 M182.9,154.4c-0.4-1.7-1.3-3.1-2.7-4.2
					c-1.4-1.1-3-1.6-4.8-1.6c-1.4,0-2.8,0.4-4,1.1c-1.2,0.7-2.1,1.7-2.8,2.9c-1.6-2-3.6-3.6-5.9-4.8c-2.4-1.2-5-1.8-7.7-1.8
					c-4.7,0-8.8,1.7-12.2,5c-3.4,3.3-5.1,7.3-5.3,12.1h84.8c-0.1-1.5-0.8-2.8-1.9-3.9c-1.1-1.1-2.5-1.6-4.1-1.6
					c-1.7,0-3.1,0.6-4.3,1.9c-0.9-2.3-2.4-4.2-4.5-5.6c-2.1-1.4-4.4-2.1-7-2.1c-3.4,0-6.3,1.2-8.6,3.6c-1.7-1.1-3.5-1.6-5.4-1.6
					C185.3,153.7,184.1,153.9,182.9,154.4 M669.9,142.5c-2.8,0-5.5,0.6-8.1,1.6c-2.5,1-4.8,2.5-6.6,4.5c-2.8-1.8-5.8-2.8-9.2-2.8
					c-2.1,0-4.2,0.4-6.3,1.2c-0.7-2.9-2.2-5.2-4.5-7.1c-2.4-1.9-5.1-2.8-8.2-2.8c-2.4,0-4.7,0.6-6.8,1.9c-2,1.2-3.6,2.9-4.7,4.9
					c-2.8-3.5-6.1-6.2-10.1-8.1c-4.1-2-8.5-3-13.1-3c-8,0-14.9,2.8-20.7,8.5c-5.8,5.6-8.7,12.5-8.9,20.5h144
					c-0.2-2.6-1.2-4.8-3.2-6.6c-2-1.8-4.3-2.8-6.9-2.8c-2.9,0-5.4,1.1-7.4,3.1c-1.5-3.9-4-7.1-7.5-9.4
					C678.2,143.7,674.2,142.5,669.9,142.5z"/>
				<path fill="#83C4EC" d="M477.4,352.8c-0.2,0.2-0.3,0.4-0.3,0.7v2.5h-2.6c-0.3,0-0.5,0.1-0.7,0.3c-0.2,0.2-0.3,0.4-0.3,0.7
					s0.1,0.5,0.3,0.7c0.2,0.2,0.4,0.3,0.7,0.3h2.6v2.5c0,0.3,0.1,0.5,0.3,0.6c0.2,0.2,0.4,0.3,0.6,0.3c0.3,0,0.5-0.1,0.7-0.3
					c0.2-0.2,0.3-0.4,0.3-0.6V358h2.6c0.3,0,0.5-0.1,0.6-0.3c0.2-0.2,0.3-0.4,0.3-0.7c0-0.2-0.1-0.5-0.3-0.7
					c-0.2-0.2-0.4-0.3-0.6-0.3H479v-2.5c0-0.3-0.1-0.5-0.3-0.7c-0.2-0.2-0.4-0.3-0.7-0.3S477.6,352.6,477.4,352.8 M90.9,293.4
					c-0.3,0-0.5,0.1-0.7,0.3c-0.2,0.2-0.3,0.4-0.3,0.7c0,0.3,0.1,0.5,0.3,0.6c0.2,0.2,0.4,0.3,0.7,0.3h2.5v2.6
					c0,0.3,0.1,0.5,0.3,0.7c0.2,0.2,0.4,0.3,0.7,0.3s0.5-0.1,0.7-0.3c0.2-0.2,0.3-0.4,0.3-0.7v-2.6h2.5c0.3,0,0.5-0.1,0.7-0.3
					c0.2-0.2,0.3-0.4,0.3-0.6c0-0.6-0.3-1-1-1h-2.5v-2.6c0-0.2-0.1-0.4-0.3-0.6c-0.2-0.2-0.4-0.3-0.7-0.3s-0.5,0.1-0.7,0.3
					c-0.2,0.2-0.3,0.4-0.3,0.6v2.6H90.9 M584,269.5v2.5h-2.5c-0.3,0-0.5,0.1-0.7,0.3c-0.2,0.2-0.3,0.4-0.3,0.7
					c0,0.3,0.1,0.5,0.3,0.7c0.2,0.2,0.4,0.3,0.7,0.3h2.5v2.6c0,0.3,0.1,0.5,0.3,0.6c0.2,0.2,0.4,0.3,0.7,0.3c0.3,0,0.5-0.1,0.7-0.3
					c0.2-0.2,0.3-0.4,0.3-0.6v-2.6h2.5c0.3,0,0.5-0.1,0.7-0.3c0.2-0.2,0.3-0.4,0.3-0.7c0-0.3-0.1-0.5-0.3-0.7
					c-0.2-0.2-0.4-0.3-0.7-0.3h-2.5v-2.5c0-0.6-0.3-1-1-1C584.3,268.5,584,268.8,584,269.5 M223.4,72.9h2.6c0.3,0,0.5-0.1,0.6-0.3
					c0.2-0.2,0.3-0.4,0.3-0.7c0-0.3-0.1-0.5-0.3-0.7c-0.2-0.2-0.4-0.3-0.6-0.3h-2.6v-2.6c0-0.3-0.1-0.5-0.3-0.7
					c-0.2-0.2-0.4-0.3-0.7-0.3c-0.2,0-0.4,0.1-0.6,0.3c-0.2,0.2-0.3,0.4-0.3,0.7V71h-2.6c-0.6,0-0.9,0.3-0.9,0.9
					c0,0.3,0.1,0.5,0.3,0.7c0.2,0.2,0.4,0.3,0.7,0.3h2.6v2.5c0,0.3,0.1,0.5,0.3,0.7c0.2,0.2,0.4,0.3,0.6,0.3c0.6,0,0.9-0.3,0.9-1
					V72.9 M435.6,49.3H433c-0.3,0-0.5,0.1-0.6,0.3c-0.2,0.2-0.3,0.4-0.3,0.7c0,0.3,0.1,0.5,0.3,0.7c0.2,0.2,0.4,0.3,0.6,0.3h2.6v2.5
					c0,0.3,0.1,0.5,0.3,0.7c0.2,0.2,0.4,0.3,0.7,0.3s0.5-0.1,0.6-0.3c0.2-0.2,0.3-0.4,0.3-0.7v-2.5h2.6c0.3,0,0.5-0.1,0.7-0.3
					c0.2-0.2,0.2-0.4,0.3-0.7c0-0.6-0.3-1-0.9-1h-2.6v-2.6c0-0.2-0.1-0.5-0.3-0.7c-0.2-0.2-0.4-0.3-0.6-0.3s-0.5,0.1-0.7,0.3
					c-0.2,0.2-0.3,0.4-0.3,0.7V49.3z"/>
				<path fill="#BFBFBF" d="M135.3,272.3l3,5.2h6.1l3-5.2l-3-5.2h-6.1L135.3,272.3 M139.1,276l-2.2-3.8l2.2-3.8h4.3l2.2,3.8
					l-2.2,3.8H139.1 M116.8,184.9l-3-5.2h-6l-3.1,5.2l3.1,5.2h6L116.8,184.9 M112.9,181.2l2.2,3.8l-2.2,3.8h-4.3l-2.2-3.8l2.2-3.8
					H112.9z"/>
				<path fill="#BAD727" d="M156.3,239.8c-0.4-0.4-0.8-0.6-1.4-0.6c-0.5,0-1,0.2-1.3,0.6c-0.4,0.4-0.6,0.8-0.6,1.4s0.2,1,0.6,1.3
					c0.4,0.4,0.8,0.6,1.3,0.6c0.5,0,1-0.2,1.4-0.6c0.4-0.4,0.6-0.8,0.6-1.3S156.7,240.1,156.3,239.8 M100.3,98.4
					c0.4-0.4,0.5-0.9,0.5-1.4s-0.2-1-0.5-1.3c-0.4-0.4-0.8-0.6-1.4-0.6c-0.5,0-1,0.2-1.3,0.6C97.2,96,97,96.5,97,97s0.2,1,0.6,1.4
					c0.4,0.4,0.8,0.5,1.3,0.5C99.5,98.9,99.9,98.8,100.3,98.4z"/>
				<path fill="#DEDEDE" d="M128.9,247.1c0-1.1-0.4-2-1.1-2.8c-0.8-0.7-1.7-1.1-2.8-1.1s-2,0.4-2.7,1.1c-0.7,0.8-1.1,1.7-1.1,2.8
					c0,1.1,0.4,2,1.1,2.7c0.8,0.7,1.7,1.1,2.7,1.1c1.1,0,2-0.4,2.8-1.1C128.6,249.1,128.9,248.2,128.9,247.1 M414.6,159.8
					c-0.4-0.4-0.8-0.6-1.4-0.6c-0.5,0-1,0.2-1.4,0.6c-0.4,0.4-0.5,0.9-0.5,1.4c0,0.5,0.2,1,0.5,1.4c0.4,0.4,0.8,0.6,1.4,0.6
					s1-0.2,1.4-0.6c0.4-0.4,0.6-0.8,0.6-1.4C415.2,160.7,415,160.2,414.6,159.8 M671.1,293.3c-0.4-0.4-0.8-0.5-1.4-0.5
					c-0.5,0-1,0.2-1.4,0.5c-0.4,0.4-0.5,0.9-0.5,1.4c0,0.5,0.2,1,0.5,1.4c0.4,0.4,0.8,0.5,1.4,0.5s1-0.2,1.4-0.5
					c0.4-0.4,0.6-0.8,0.6-1.4C671.7,294.1,671.5,293.6,671.1,293.3z"/>
				<path fill="#F7571A" d="M391,195.8c0-0.5-0.2-1-0.6-1.4c-0.4-0.4-0.8-0.5-1.4-0.5c-0.5,0-1,0.2-1.4,0.5s-0.5,0.8-0.5,1.4
					c0,0.5,0.2,1,0.5,1.4c0.4,0.4,0.8,0.6,1.4,0.6c0.5,0,1-0.2,1.4-0.6C390.9,196.8,391,196.3,391,195.8 M592.7,79.7
					c0.4-0.4,0.6-0.8,0.6-1.3s-0.2-1-0.6-1.4c-0.4-0.4-0.8-0.5-1.4-0.5c-0.5,0-1,0.2-1.3,0.5c-0.4,0.4-0.5,0.8-0.5,1.4
					s0.2,1,0.5,1.3c0.4,0.4,0.8,0.6,1.3,0.6C591.9,80.3,592.3,80,592.7,79.7z"/>
				<path fill="#D1D1D1" d="M604.8,335.9c0.7-0.8,1.1-1.7,1.1-2.8c0-1.1-0.4-2-1.1-2.7c-0.8-0.7-1.7-1.1-2.8-1.1s-2,0.4-2.7,1.1
					c-0.8,0.8-1.1,1.7-1.1,2.7c0,1.1,0.4,2,1.1,2.8c0.7,0.7,1.6,1.1,2.7,1.1S604,336.6,604.8,335.9z"/>
			</g>
		</g>
		<g>
			<path id="Layer6_0_1_STROKES" fill="none" stroke="#BFBFBF" stroke-width="2" stroke-miterlimit="10" d="M619,98.3
				c0,0.9-0.3,1.7-1,2.3c-0.6,0.6-1.4,1-2.3,1c-0.9,0-1.6-0.3-2.3-1c-0.6-0.6-1-1.4-1-2.3c0-0.9,0.3-1.6,1-2.3c0.6-0.6,1.4-1,2.3-1
				c0.9,0,1.7,0.3,2.3,1C618.7,96.7,619,97.4,619,98.3z M252.5,109.1c0,0.9-0.3,1.7-0.9,2.3c-0.6,0.6-1.4,0.9-2.3,0.9
				c-0.9,0-1.7-0.3-2.3-0.9c-0.6-0.6-0.9-1.4-0.9-2.3c0-0.9,0.3-1.6,0.9-2.3c0.6-0.6,1.4-0.9,2.3-0.9c0.9,0,1.6,0.3,2.3,0.9
				C252.2,107.5,252.5,108.2,252.5,109.1z"/>
		</g>
	</g>
	<g transform="matrix( 1, 0, 0, 1, 81.65,-39.5) ">
		<g>
			<path id="Layer6_1_1_STROKES" fill="none" stroke="#BFBFBF" stroke-width="2" stroke-miterlimit="10" d="M373.3,320.9
				c0,0.9-0.3,1.7-1,2.3c-0.6,0.6-1.4,1-2.3,1c-0.9,0-1.7-0.3-2.3-1c-0.6-0.6-1-1.4-1-2.3c0-0.9,0.3-1.7,1-2.3s1.4-0.9,2.3-0.9
				c0.9,0,1.6,0.3,2.3,0.9C372.9,319.2,373.3,319.9,373.3,320.9z"/>
		</g>
	</g>
</g>
<g id="person">
	<g transform="matrix( 1, 0, 0, 1, 0,0) ">
		<g>
			<g id="Layer5_0_FILL">
				<path fill="#FFC89E" d="M318.5,361.1h-2.9c-3.6,0-6.9,0.8-9.8,2.5l-1.5,1c-1,0.7-2,1.5-3,2.4c-1.1,1.1-2,2.2-2.7,3.4h18.6
					c0.4,0,0.8,0,1.1,0.1c0.1,0,0.2,0,0.2,0V361.1 M232.4,361.5v20.3h22.9c0-4.2-1.1-7.9-3.3-11.3c0,0-0.1-0.1-0.1-0.1
					c-0.7-1-1.6-2-2.6-3c-3-3-6.4-4.8-10.4-5.5l-3.9-0.4c-0.1,0-0.2,0-0.3,0H232.4 M232.7,219.9c-0.5,0.2-0.9,0.5-1.3,0.8
					c-1.2,1-1.7,2.1-1.6,3.5l1.4,7.7c0.2,1.5,0.8,2.6,1.8,3.5c1,1,2.4,1.4,4.1,1.4v-17.6h-1.4c-0.1,0-0.2,0-0.3,0
					C234.4,219.3,233.5,219.5,232.7,219.9 M275.2,262.8c-0.2,0-0.3,0-0.5,0l-20.8,0.2c-0.1,0-0.1,0-0.2,0l-2-0.1
					c-0.4,0-0.7-0.1-1.1-0.1c-0.1,0-0.2,0-0.3,0l-0.1,1.9c0,2.9-0.8,5.5-2.4,7.8c-0.1,0.2-0.3,0.4-0.4,0.6c-0.3,0.3-0.6,0.7-1,1
					c-1.2,1.2-2.5,2.1-3.9,2.7c-1,0.4-2,0.7-3.1,0.9c6.7,4.6,14.4,7,23,7c8.7,0,16.4-2.4,23.2-7.1l-2.1-0.6
					c-1.6-0.6-3.1-1.6-4.4-2.9c-0.3-0.4-0.6-0.7-0.9-1c-0.1-0.2-0.3-0.3-0.4-0.5c0,0,0-0.1,0-0.1c-1.7-2.3-2.5-4.9-2.5-7.8V262.8
					 M293.9,220.1c0,0-0.1-0.1-0.1-0.1c-0.9-0.5-1.9-0.7-3-0.7h-2.1v17.6c1,0,1.7-0.1,2.1-0.2c0.9-0.2,1.6-0.6,2.4-1.3
					c1-0.9,1.6-2.1,1.9-3.6l1.5-7.7c0.2-1.3-0.3-2.5-1.5-3.4C294.6,220.5,294.3,220.3,293.9,220.1 M288.7,208.1
					c0-2.1-0.7-3.8-2.2-5.3c-1.2-1.2-2.6-1.9-4.4-2.1l-25.4-0.1h-11.6c-0.1,0-0.2,0-0.2,0l-0.8,0.1c-1.9,0.2-3.4,0.9-4.8,2.2
					c-1.5,1.5-2.3,3.3-2.3,5.5v10.9v17.6v9.7c0,4.5,1.6,8.4,4.8,11.6c2.4,2.4,5.2,4,8.4,4.6c0.1,0,0.2,0,0.3,0
					c0.3,0.1,0.7,0.1,1.1,0.1l2,0.1c0.1,0,0.1,0,0.2,0l20.8-0.2h0.6l2.4-0.6c2.3-0.8,4.4-2.1,6.3-3.9c3.2-3.3,4.8-7.2,4.7-11.7v-9.6
					v-17.6h-0.4h0.4V208.1z"/>
				<path fill="#828282" d="M235.8,190.3c-1,1.1-1.8,2.2-2.3,3.4l-0.8,4v22.1c0.8-0.4,1.7-0.6,2.8-0.6c0.1,0,0.2,0,0.3,0h1.4v-10.9
					c0-2.2,0.8-4,2.3-5.5c1.3-1.3,2.9-2,4.8-2.2l0.8-0.1c0,0,0.1,0,0.2,0h11.6c-2.6-0.3-4.9-1.4-6.8-3.3c-1.7-1.7-2.7-3.7-3.1-5.9
					l-0.3-2.3l0.3,2.3c0.4,2.2,1.4,4.2,3.1,5.9c1.9,1.9,4.1,2.9,6.8,3.3l25.4,0.1c1.7,0.2,3.2,0.9,4.4,2.1c1.5,1.5,2.2,3.3,2.2,5.3
					v11.2h2.1c1.1,0,2.1,0.2,3,0.7l0-21.4c0-3.9-1.4-7.1-4.1-9.9c-1.4-1.3-2.8-2.4-4.4-3.1l-5.3-1h-8.2c0.5,1,1,2,1.3,3.1
					c-0.3-1.1-0.8-2.1-1.3-3.1c-0.7-1.2-1.6-2.3-2.6-3.3c-3-3-6.7-4.6-10.9-4.6s-7.9,1.5-11,4.6c-1.7,1.7-3,3.7-3.7,5.8
					c-0.3,0.7-0.5,1.4-0.6,2.2c0.1-0.7,0.3-1.5,0.6-2.2h-0.3C240.3,187.1,237.8,188.2,235.8,190.3 M328.1,379.7
					c-0.4-2.4-1.4-4.4-3.1-6.1c-1.9-1.9-4-2.9-6.5-3.2c0,0-0.1,0-0.2,0c-0.3-0.1-0.7-0.1-1.1-0.1h-18.6l-46.7,0.1
					c2.2,3.3,3.3,7.1,3.3,11.3l73-0.1v-0.3C328.2,380.8,328.2,380.2,328.1,379.7z"/>
				<path fill="#5EB9E7" d="M328.2,381.6l27.8,0.1c3.6-0.4,6.7-1.9,9.3-4.5c1.1-1.1,2-2.3,2.8-3.5c0.9-1.7,1.5-3.6,1.8-5.8
					c0.4-4-0.4-7.5-2.4-10.5L317,287c-3.4-4.6-7.6-8.2-12.6-10.8c-5-2.6-10.4-4-16.1-4l-10.5,0.2c0.1,0.1,0.3,0.3,0.4,0.5
					c0.3,0.3,0.6,0.7,0.9,1c1.3,1.3,2.8,2.2,4.4,2.9l2.1,0.6c-6.8,4.7-14.5,7.1-23.2,7.1c-8.6,0-16.3-2.3-23-7
					c1.1-0.2,2.1-0.5,3.1-0.9c1.4-0.6,2.8-1.5,3.9-2.7c0.4-0.4,0.7-0.7,1-1c0.1-0.2,0.3-0.4,0.4-0.6h-9.3c-5.7,0-11.1,1.3-16.1,3.9
					c-3.9,2-7.3,4.6-10.1,7.8l-2.6,3.1l-0.1,0.1l-50.4,70.4c-1.9,3-2.7,6.4-2.4,10.4c0.5,3.6,2.1,6.7,4.7,9.3s5.7,4.1,9.3,4.5h61.5
					v-20.3h-0.4h0.4V356h-12.1h-22.6h-8.1h8.1l22.6-31.6l9.4-13.1l-9.4,13.1V356h12.1v5.5h2.3c0.1,0,0.2,0,0.3,0l3.9,0.4
					c3.9,0.7,7.4,2.5,10.4,5.5c1,0.9,1.8,1.9,2.6,3c0,0.1,0.1,0.1,0.1,0.1l46.7-0.1c0.7-1.2,1.6-2.3,2.7-3.4c1-0.9,2-1.7,3-2.4
					l1.5-1v-40.4l24,32.8h11.8h-11.8h-11.3v5.1v9.4c2.5,0.3,4.7,1.3,6.5,3.2c1.7,1.7,2.7,3.7,3.1,6.1c0,0.5,0.1,1.1,0.1,1.6V381.6z"
					/>
			</g>
		</g>
		<g>
			<path id="Layer5_0_1_STROKES" fill="none" stroke="#000000" stroke-miterlimit="10" d="M328.2,381.6l-73,0.1h-22.9 M247.8,272.4
				c1.6-2.3,2.4-4.9,2.4-7.8l0.1-1.9c-3.2-0.6-5.9-2.2-8.4-4.6c-3.2-3.2-4.8-7.1-4.8-11.6v-9.7c-1.8,0-3.1-0.5-4.1-1.4
				c-1-0.9-1.6-2-1.8-3.5l-1.4-7.7c-0.1-1.4,0.4-2.5,1.6-3.5c0.4-0.3,0.8-0.6,1.3-0.8v-22.1l0.8-4c0.5-1.2,1.2-2.4,2.3-3.4
				c2-2.1,4.5-3.2,7.5-3.2h0.3c0.7-2.1,2-4.1,3.7-5.8c3-3,6.7-4.6,11-4.6s7.9,1.5,10.9,4.6c1,1,1.9,2.1,2.6,3.3h8.2l5.3,1
				c1.6,0.7,3,1.7,4.4,3.1c2.7,2.7,4.1,6,4.1,9.9l0,21.4c0,0,0.1,0,0.1,0.1c0.4,0.2,0.8,0.4,1.1,0.7c1.2,1,1.6,2.1,1.5,3.4l-1.5,7.7
				c-0.3,1.5-0.9,2.7-1.9,3.6c-0.7,0.6-1.5,1.1-2.4,1.3c-0.4,0.1-1.1,0.2-2.1,0.2v9.6c0.1,4.5-1.5,8.4-4.7,11.7
				c-1.9,1.8-3.9,3.1-6.3,3.9l-2.4,0.6l-0.1,0c0,0-0.1,0-0.1,0v1.8c0,2.9,0.8,5.5,2.5,7.8c0,0,0,0.1,0,0.1c0.1,0.1,0.3,0.3,0.4,0.5
				c0.3,0.3,0.6,0.7,0.9,1c1.3,1.3,2.8,2.2,4.4,2.9l2.1,0.6c-6.8,4.7-14.5,7.1-23.2,7.1c-8.6,0-16.3-2.3-23-7
				c1.1-0.2,2.1-0.5,3.1-0.9c1.4-0.6,2.8-1.5,3.9-2.7c0.4-0.4,0.7-0.7,1-1C247.5,272.8,247.7,272.6,247.8,272.4z M318.5,370.5
				c2.5,0.3,4.7,1.3,6.5,3.2c1.7,1.7,2.7,3.7,3.1,6.1c0,0.5,0.1,1.1,0.1,1.6v0.3 M246.6,189.3l0.3,2.3c0.4,2.2,1.4,4.2,3.1,5.9
				c1.9,1.9,4.1,2.9,6.8,3.3l25.4,0.1c1.7,0.2,3.2,0.9,4.4,2.1c1.5,1.5,2.2,3.3,2.2,5.3v11.2h2.1c1.1,0,2.1,0.2,3,0.7 M243,189.3
				c0.1-0.7,0.3-1.5,0.6-2.2 M271.8,184.6c0.5,1,1,2,1.3,3.1 M288.7,236.9v-17.6h-0.4 M232.7,219.9c0.8-0.4,1.7-0.6,2.8-0.6
				c0.1,0,0.2,0,0.3,0h1.4v-10.9c0-2.2,0.8-4,2.3-5.5c1.3-1.3,2.9-2,4.8-2.2l0.8-0.1c0,0,0.1,0,0.2,0h11.6 M275.2,262.8
				c-0.2,0-0.3,0-0.5,0l-20.8,0.2c-0.1,0-0.1,0-0.2,0l-2-0.1c-0.4,0-0.7-0.1-1.1-0.1c-0.1,0-0.2,0-0.3,0 M275.4,262.8h-0.6
				 M237.2,236.8v-17.6 M232.4,361.5h2.3c0.1,0,0.2,0,0.3,0l3.9,0.4c3.9,0.7,7.4,2.5,10.4,5.5c1,0.9,1.8,1.9,2.6,3
				c0,0.1,0.1,0.1,0.1,0.1l46.7-0.1c0.7-1.2,1.6-2.3,2.7-3.4c1-0.9,2-1.7,3-2.4l1.5-1 M318.5,370.5c0,0-0.1,0-0.2,0
				c-0.3-0.1-0.7-0.1-1.1-0.1h-18.6 M231.9,361.5h0.4 M251.9,370.5c2.2,3.3,3.3,7.1,3.3,11.3 M318.5,361.1h-2.9
				c-3.6,0-6.9,0.8-9.8,2.5"/>
		</g>
		<g>
			<path id="Layer5_0_2_STROKES" fill="none" stroke="#000000" stroke-linecap="round" stroke-linejoin="round" d="M277.8,272.5
				l10.5-0.2c5.7,0,11.1,1.3,16.1,4c5.1,2.6,9.3,6.2,12.6,10.8l50.5,70.4c2,3,2.8,6.5,2.4,10.5c-0.3,2.1-0.9,4-1.8,5.8
				c-0.8,1.3-1.7,2.4-2.8,3.5c-2.6,2.6-5.7,4.1-9.3,4.5l-27.8-0.1 M232.4,381.8h-61.5c-3.6-0.4-6.7-1.9-9.3-4.5s-4.2-5.7-4.7-9.3
				c-0.3-3.9,0.4-7.4,2.4-10.4l50.4-70.4l0.1-0.1l2.6-3.1c2.8-3.2,6.2-5.8,10.1-7.8c5-2.6,10.4-3.9,16.1-3.9h9.3 M329.8,356h11.8
				 M229.6,311.2l-9.4,13.1V356h12.1v5.5 M305.8,363.6v-40.4l24,32.8h-11.3v5.1v9.4 M197.6,356h-8.1 M232.4,381.8v-20.3
				 M220.3,324.4L197.6,356h22.6"/>
		</g>
	</g>
</g>
<g id="monitor">
	<g transform="matrix( 1, 0, 0, 1, 0,0) ">
		<g>
			<g id="Layer4_0_FILL">
				<path fill="#CACACA" d="M309,260.3H305c-2.4,0-4.5,0.9-6.2,2.5c-1.7,1.7-2.6,3.8-2.6,6.3v71c0,2.4,0.9,4.5,2.6,6.2
					c1.7,1.7,3.8,2.6,6.2,2.6h4.1c-2.3-0.1-4.3-0.9-5.9-2.6c-1.7-1.7-2.6-3.8-2.6-6.2v-71c0-2.4,0.9-4.5,2.6-6.3
					C304.7,261.2,306.7,260.3,309,260.3 M353.8,310.3c0-0.1,0-0.2,0-0.3v24.3l2.8,14.6l4.1,21.4h4.6L353.8,310.3z"/>
				<path fill="#ABABAB" d="M360.6,370.3h-26.9c-3.1,0-5.7,1.1-7.9,3.4c-2.2,2.2-3.4,4.8-3.4,7.9h92.7c0.1-3.1-1-5.8-3.3-8
					c-1.3-1.3-2.8-2.2-4.4-2.8c-1.1-0.3-2.3-0.5-3.5-0.5H395l0.1,0.5l-0.1-0.5h-29.7H360.6 M383.5,310.3c-0.3-1.5-1.1-2.9-2.5-4
					c-1.3-1.1-2.7-1.7-4.3-1.7h-18.4c-1.5,0-2.8,0.6-3.6,1.7c-0.6,0.7-0.9,1.4-1,2.3c-0.1,0.4-0.1,0.8,0,1.3v0.1c0,0.1,0,0.2,0,0.3
					l11.5,60H395l-4.1-21.4L383.5,310.3 M428.8,262.8c-1.7-1.7-3.8-2.5-6.2-2.5H309c-2.3,0.1-4.3,0.9-5.9,2.5
					c-1.7,1.7-2.6,3.8-2.6,6.3v71c0,2.4,0.9,4.5,2.6,6.2c1.6,1.7,3.6,2.5,5.9,2.6h47.5l-2.8-14.6V310v-0.1c-0.1-0.5-0.1-0.9,0-1.3
					c0.1-0.9,0.4-1.6,1-2.3c0.9-1.1,2.1-1.7,3.6-1.7h18.4c1.5,0,3,0.6,4.3,1.7c1.3,1.1,2.1,2.4,2.5,4l7.4,38.6h31.8
					c2.5,0,4.5-0.9,6.3-2.6c1.7-1.7,2.5-3.8,2.4-6.2v-71C431.4,266.6,430.5,264.5,428.8,262.8z"/>
			</g>
		</g>
		<g>
			<path id="Layer4_0_1_STROKES" fill="none" stroke="#000000" stroke-miterlimit="10" d="M309,260.3h113.6c2.4,0,4.5,0.9,6.2,2.5
				c1.7,1.7,2.6,3.8,2.6,6.3v71c0.1,2.4-0.7,4.5-2.4,6.2c-1.7,1.7-3.8,2.6-6.3,2.6h-31.8l4.1,21.4h9.1c1.2,0,2.4,0.2,3.5,0.5
				c1.6,0.5,3,1.5,4.4,2.8c2.2,2.2,3.3,4.9,3.3,8h-92.7c0-3.1,1.1-5.8,3.4-7.9c2.2-2.2,4.8-3.4,7.9-3.4h26.9l-4.1-21.4H309H305
				c-2.4,0-4.5-0.9-6.2-2.6c-1.7-1.7-2.6-3.8-2.6-6.2v-71c0-2.4,0.9-4.5,2.6-6.3c1.7-1.7,3.8-2.5,6.2-2.5H309
				c-2.3,0.1-4.3,0.9-5.9,2.5c-1.7,1.7-2.6,3.8-2.6,6.3v71c0,2.4,0.9,4.5,2.6,6.2c1.6,1.7,3.6,2.5,5.9,2.6 M353.8,310v-0.1
				c-0.1-0.5-0.1-0.9,0-1.3c0.1-0.9,0.4-1.6,1-2.3c0.9-1.1,2.1-1.7,3.6-1.7h18.4c1.5,0,3,0.6,4.3,1.7c1.3,1.1,2.1,2.4,2.5,4
				l7.4,38.6 M360.6,370.3h4.6l-11.5-60c0-0.1,0-0.2,0-0.3v24.3l2.8,14.6 M365.3,370.3H395l0.1,0.5"/>
		</g>
	</g>
</g>
<g id="circles">
	<g transform="matrix( 1, 0, 0, 1, 0,0) ">
		<g>
			<g id="Layer3_0_FILL">
				<path fill="#F7571A" d="M485.8,163.1c-13.4,0-24.8,4.7-34.1,14.1c-9.5,9.4-14.2,20.8-14.2,34.1c0,13.3,4.7,24.7,14.2,34.2
					c9.4,9.4,20.8,14.2,34.1,14.2c13.3,0,24.7-4.7,34.2-14.2c9.4-9.4,14.1-20.8,14.1-34.2c0-13.3-4.7-24.7-14.1-34.1
					C510.5,167.8,499.1,163.1,485.8,163.1z"/>
				<path fill="#2C538A" d="M401.7,93.7c0-15.4-5.4-28.5-16.3-39.5C374.5,43.4,361.4,38,346,38c-15.4,0-28.5,5.4-39.4,16.3
					c-10.9,10.9-16.3,24.1-16.3,39.5c0,3,0.2,5.9,0.6,8.8c0.9,6.3,2.8,12.2,5.8,17.6c2.3,4.2,5.3,8.2,8.8,11.9
					c0.4,0.4,0.7,0.7,1.1,1.1c10.9,10.9,24,16.3,39.4,16.3c13.7,0,25.7-4.3,35.8-13c1.2-1,2.4-2.1,3.6-3.3c0.4-0.4,0.7-0.7,1.1-1.1
					c8.1-8.5,12.9-18.3,14.5-29.5C401.5,99.6,401.7,96.7,401.7,93.7z"/>
				<path fill="#BAD727" d="M492.3,55.6c-3.4,10.6-2.6,20.9,2.5,30.8c5.1,9.9,12.9,16.6,23.5,20c10.6,3.4,20.9,2.6,30.8-2.5
					c9.9-5.1,16.6-12.9,20-23.5c3.4-10.6,2.6-20.9-2.5-30.8c-5.1-9.9-13-16.6-23.6-20s-20.9-2.6-30.8,2.5
					C502.4,37.2,495.7,45,492.3,55.6z"/>
			</g>
		</g>
		<g>
			<path id="Layer3_0_1_STROKES" fill="none" stroke="#A3A3A3" stroke-miterlimit="10" d="M516.5,112.2c12.2,4,24,3,35.4-2.8
				c11.4-5.8,19.1-14.8,23-27.1c3.9-12.2,3-24-2.9-35.5c-5.8-11.4-14.8-19.1-27-23c-12.2-3.9-24.1-3-35.5,2.9
				c-11.4,5.9-19.1,14.9-23,27.1 M345.5,30.3c-17.5,0-32.5,6.2-44.9,18.6C288.2,61.2,282,76.2,282,93.7c0,3,0.2,5.9,0.6,8.8
				c0.8,6.2,2.4,12.1,4.9,17.6c1.9,4.2,4.3,8.2,7.3,11.9c0.9,1.2,1.9,2.4,3,3.6c0.9,1,1.9,2,2.9,3c0.4,0.4,0.7,0.7,1,1.1
				c5.6,5.3,11.7,9.4,18.3,12.3c7.8,3.5,16.3,5.2,25.6,5.2c9.2,0,17.7-1.7,25.5-5.2c3.8-1.7,7.4-3.7,10.8-6.2c3-2.1,5.8-4.5,8.5-7.3
				c2.1-2.1,4.1-4.3,5.9-6.6c2-2.6,3.8-5.4,5.4-8.2c4.9-9,7.4-19.1,7.4-30.1 M542,211.4c0-15.5-5.5-28.8-16.5-39.8
				c-11-11-24.2-16.4-39.8-16.4c-15.5,0-28.8,5.5-39.8,16.4c-11,11-16.5,24.3-16.5,39.8s5.5,28.8,16.5,39.8
				c11,10.9,24.3,16.4,39.8,16.4"/>
		</g>
	</g>
</g>
<g id="connectors">
	<g transform="matrix( 1, 0, 0, 1, 0,0) ">
		<g>
			<g id="Layer2_0_FILL">
				<path fill="#FEFEFE" d="M525.8,172c-0.5,0.6-0.8,1.2-0.8,2s0.3,1.4,0.8,2c0.6,0.5,1.2,0.8,2,0.8c0.8,0,1.4-0.3,2-0.8
					c0.6-0.6,0.9-1.2,0.9-2s-0.3-1.4-0.9-2c-0.6-0.6-1.2-0.9-2-0.9C527,171.1,526.4,171.4,525.8,172 M529.6,114.5
					c0-0.5-0.2-1-0.5-1.3c-0.4-0.4-0.8-0.6-1.3-0.6s-1,0.2-1.4,0.6c-0.4,0.4-0.5,0.8-0.5,1.3s0.2,1,0.5,1.3c0.4,0.4,0.8,0.6,1.4,0.6
					c0,0,0.1,0,0.1,0c0.5,0,0.9-0.2,1.3-0.6C529.4,115.5,529.6,115,529.6,114.5 M346.9,257c-0.7,0-1.3,0.3-1.9,0.8
					c-0.5,0.6-0.8,1.2-0.8,2c0,0.8,0.3,1.4,0.8,2c0.6,0.6,1.2,0.9,2,0.9s1.4-0.3,2-0.9c0.6-0.6,0.9-1.2,0.9-2s-0.3-1.4-0.9-2
					c-0.6-0.5-1.2-0.8-2-0.8C346.9,257,346.9,257,346.9,257 M348.2,157.5c0-0.4-0.1-0.8-0.5-1.1c-0.3-0.3-0.6-0.4-1-0.4
					c-0.4,0-0.7,0.2-1,0.4c-0.3,0.3-0.5,0.6-0.5,1.1c0,0.4,0.1,0.8,0.5,1.1c0.3,0.3,0.6,0.4,1,0.4c0.1,0,0.1,0,0.1,0
					c0.4,0,0.7-0.2,0.9-0.4C348.1,158.3,348.2,157.9,348.2,157.5 M450.4,165.6c-0.5,0-1,0.2-1.4,0.6c-0.4,0.4-0.5,0.8-0.5,1.3
					c0,0.5,0.2,1,0.5,1.4s0.8,0.6,1.4,0.6c0.5,0,1-0.2,1.4-0.6c0.4-0.4,0.5-0.8,0.5-1.4c0-0.5-0.2-1-0.5-1.3
					c-0.3-0.3-0.7-0.5-1.3-0.6C450.4,165.6,450.4,165.6,450.4,165.6 M402.5,114.8c0,0.8,0.3,1.4,0.8,2c0.6,0.5,1.2,0.8,2,0.8
					c0.8,0,1.4-0.3,2-0.8c0.6-0.6,0.9-1.2,0.9-2s-0.3-1.4-0.9-2s-1.2-0.8-2-0.8s-1.4,0.3-2,0.8C402.8,113.3,402.5,114,402.5,114.8z"
					/>
			</g>
		</g>
		<g>
			<path id="Layer2_0_1_STROKES" fill="none" stroke="#A3A3A3" stroke-miterlimit="10" d="M527.8,116.4c0.5,0,0.9-0.2,1.3-0.6
				c0.4-0.4,0.5-0.8,0.5-1.3s-0.2-1-0.5-1.3c-0.4-0.4-0.8-0.6-1.3-0.6s-1,0.2-1.4,0.6c-0.4,0.4-0.5,0.8-0.5,1.3s0.2,1,0.5,1.3
				C526.7,116.2,527.2,116.4,527.8,116.4C527.7,116.4,527.8,116.4,527.8,116.4v54.7c0.8,0,1.4,0.3,2,0.9c0.6,0.6,0.9,1.2,0.9,2
				s-0.3,1.4-0.9,2c-0.6,0.5-1.2,0.8-2,0.8c-0.8,0-1.4-0.3-2-0.8c-0.5-0.6-0.8-1.2-0.8-2s0.3-1.4,0.8-2c0.6-0.6,1.2-0.9,2-0.9
				 M408.1,114.8c0,0.8-0.3,1.4-0.9,2c-0.6,0.5-1.2,0.8-2,0.8c-0.8,0-1.4-0.3-2-0.8c-0.5-0.6-0.8-1.2-0.8-2s0.3-1.4,0.8-2
				c0.6-0.6,1.2-0.8,2-0.8s1.4,0.3,2,0.8S408.1,114,408.1,114.8H442c2.3,0,4.3,0.8,6,2.4c1.6,1.6,2.5,3.6,2.5,6v42.4
				c0.5,0,0.9,0.2,1.3,0.6c0.4,0.4,0.5,0.8,0.5,1.3c0,0.5-0.2,1-0.5,1.4c-0.4,0.4-0.8,0.6-1.4,0.6c-0.5,0-1-0.2-1.4-0.6
				s-0.5-0.8-0.5-1.4c0-0.5,0.2-1,0.5-1.3c0.4-0.4,0.8-0.6,1.4-0.6c0,0,0.1,0,0.1,0 M346.9,158.9c0.4,0,0.7-0.2,0.9-0.4
				c0.3-0.3,0.5-0.6,0.5-1.1c0-0.4-0.1-0.8-0.5-1.1c-0.3-0.3-0.6-0.4-1-0.4c-0.4,0-0.7,0.2-1,0.4c-0.3,0.3-0.5,0.6-0.5,1.1
				c0,0.4,0.1,0.8,0.5,1.1c0.3,0.3,0.6,0.4,1,0.4C346.8,158.9,346.8,158.9,346.9,158.9V257c0,0,0.1,0,0.1,0c0.8,0,1.4,0.3,2,0.8
				c0.6,0.6,0.9,1.2,0.9,2s-0.3,1.4-0.9,2c-0.6,0.6-1.2,0.9-2,0.9s-1.4-0.3-2-0.9c-0.5-0.6-0.8-1.2-0.8-2c0-0.8,0.3-1.4,0.8-2
				c0.5-0.5,1.1-0.8,1.9-0.8"/>
		</g>
	</g>
</g>
<g id="ICONS">
	<g transform="matrix( 1, 0, 0, 1, 0,0) ">
		<g>
			
				<path id="Layer1_0_1_STROKES" fill="none" stroke="#3A6FBB" stroke-width="1.25" stroke-linecap="round" stroke-linejoin="round" d="
				M534.8,62.4l2.7-1.6l-2.7-4.6l-2.7,1.6c-0.9-0.9-2-1.5-3.3-2v-3h-5.4v3.1c-1.3,0.4-2.4,1.1-3.3,2l-2.7-1.6l-2.7,4.6l2.8,1.6
				c-0.3,1.3-0.3,2.6,0,3.8l-2.7,1.6l2.7,4.6l2.7-1.5c1,0.9,2.1,1.6,3.3,1.9v3.1h5.4v-3.1c1.2-0.4,2.3-1.1,3.3-1.9l2.7,1.5l2.7-4.6
				l-2.7-1.6C535,65,535,63.7,534.8,62.4z M549.3,87.6L538.7,77c-3.5,3.5-7.7,5.2-12.6,5.2c-5,0-9.2-1.8-12.7-5.3
				c-3.5-3.5-5.2-7.7-5.2-12.6c0-4.9,1.8-9.1,5.2-12.7c3.5-3.5,7.8-5.2,12.7-5.3c4.9,0,9.2,1.8,12.7,5.3c3.5,3.5,5.3,7.7,5.3,12.7
				c0,4.9-1.8,9.1-5.3,12.6l0,0"/>
		</g>
		<g>
			<path id="Layer1_0_2_STROKES" fill="none" stroke="#3A6FBB" stroke-width="1.25" stroke-miterlimit="10" d="M529.6,64.3
				c0,1-0.3,1.8-1,2.5c-0.7,0.7-1.5,1.1-2.5,1.1c-1,0-1.8-0.4-2.5-1.1s-1-1.5-1-2.5c0-1,0.3-1.8,1-2.5c0.7-0.7,1.5-1,2.5-1
				c1,0,1.8,0.4,2.5,1C529.3,62.5,529.6,63.3,529.6,64.3z"/>
		</g>
		<g>
			
				<path id="Layer1_0_3_STROKES" fill="none" stroke="#FFFFFF" stroke-width="1.25" stroke-linecap="round" stroke-linejoin="round" d="
				M474,225.9h-11.4c-1.2,0-2.3-0.4-3.3-1.3c-0.9-0.9-1.3-1.9-1.3-3.2v-29.6c0-1.3,0.4-2.4,1.3-3.3c0.9-0.9,2-1.3,3.3-1.3h43.3
				c1.3,0,2.3,0.4,3.3,1.3c0.9,0.9,1.4,2,1.4,3.3v20.5 M474,221.4h-6.8v-29.6h36.4v20.5"/>
		</g>
		<g>
			<path id="Layer1_0_4_STROKES" fill="none" stroke="#FFFFFF" stroke-width="1.25" stroke-linejoin="round" d="M368,82.4
				c0-6.2-2.5-11.3-7.6-15.2c-4.6-3.6-9.9-5.4-16-5.4c-7,0-12.8,2.4-17.6,7.2c-4.7,4.8-7.1,10.7-7.1,17.7c0,9.2,3.5,15.9,10.4,20v15
				h26v-9.1c2.8,0,4.8-0.2,6.1-0.4c1.5-0.3,2.7-0.8,3.5-1.7c1-1,1.6-3.3,2-7l0.1-5.3h4c0.6,0,1.1-0.3,1.5-0.8
				c0.2-0.2,0.3-0.7,0.3-1.6c0.1-1.6-0.8-4.1-2.7-7.5C369,84.9,368,82.9,368,82.4z M344.4,98.4c2.2-1.6,4.4-3.4,6.6-5.5
				c4.3-4.3,6.5-7.9,6.5-10.8c0-4.2-1.9-6.6-5.6-7.1c-3.8-0.5-6.3,1.6-7.5,6.3c-1.2-4.7-3.6-6.8-7.4-6.3c-3.7,0.5-5.6,2.9-5.6,7.1
				c0,2.9,2.2,6.4,6.6,10.8C340.1,95,342.2,96.9,344.4,98.4z M496.8,216.4v-12.1c0-1.5-0.6-2.2-1.7-2.2h-3.3c-1.2,0-1.8,0.7-1.8,2.2
				v21l-4-4.7c-0.4-0.5-1-0.8-1.8-0.8l-2.3,0.1c-0.9,0-1.5,0.4-1.9,1.1c-0.4,0.8-0.5,1.6-0.1,2.2l8.5,15.4c0.4,0.8,1.1,1.1,1.9,1.1
				H505c0.9,0,1.6-0.4,2-1.3l3.5-15.3c0-1.2-0.5-1.9-1.4-2.2L496.8,216.4z M463.8,206.6c0,0.3-0.1,0.6-0.3,0.8
				c-0.2,0.2-0.5,0.3-0.9,0.3c-0.3,0-0.6-0.1-0.8-0.3c-0.2-0.2-0.3-0.5-0.3-0.8c0-0.3,0.1-0.6,0.3-0.8c0.2-0.2,0.5-0.3,0.8-0.3
				c0.3,0,0.6,0.1,0.9,0.3C463.6,206.1,463.8,206.3,463.8,206.6z"/>
		</g>
	</g>
	<g transform="matrix( 1.2718505859375, 0, 0, 1.2718505859375, 160.95,-12572.9) ">
		<g>
			<g id="Layer1_1_FILL">
				<path fill="#3993C8" d="M272.7,10047.3c-0.2-0.2-0.4-0.3-0.7-0.3c-0.2,0-0.4,0.1-0.6,0.3c-0.2,0.2-0.3,0.4-0.3,0.7
					s0.1,0.5,0.3,0.7c0.2,0.2,0.4,0.3,0.6,0.3c0.3,0,0.5-0.1,0.7-0.3s0.3-0.4,0.3-0.7C272.9,10047.8,272.9,10047.5,272.7,10047.3z"
					/>
			</g>
		</g>
		<g transform="matrix( 0.7862548828125, 0, 0, 0.7862548828125, -126.5,9885.5) ">
			<path id="Layer1_1_1_STROKES" fill="none" stroke="#FFFFFF" stroke-width="1.25" stroke-miterlimit="10" d="M272.1,10047.1
				c-0.2,0-0.4,0.1-0.6,0.3c-0.2,0.2-0.3,0.4-0.3,0.7s0.1,0.5,0.3,0.6c0.2,0.2,0.4,0.3,0.6,0.3c0.3,0,0.5-0.1,0.7-0.3
				c0.2-0.2,0.3-0.4,0.3-0.6c0-0.2-0.1-0.5-0.3-0.7C272.6,10047.2,272.4,10047.1,272.1,10047.1z"/>
		</g>
	</g>
</g>
</svg>
