<?xml version="1.0" encoding="utf-8"?>
<!-- Generator: Adobe Illustrator 22.1.0, SVG Export Plug-In . SVG Version: 6.00 Build 0)  -->
<svg version="1.1" id="Layer_28" xmlns="http://www.w3.org/2000/svg" xmlns:xlink="http://www.w3.org/1999/xlink" x="0px" y="0px"
	 viewBox="0 0 750 400" enable-background="new 0 0 750 400" xml:space="preserve">
<g transform="matrix( 1, 0, 0, 1, 62.35,283.35) " opacity="0.17">
	<g transform="matrix( 1, 0, 0, 1, 0,0) ">
		<g>
			<g id="flash0_ai_Layer_21__Path__47_0_Layer0_0_FILL_8_">
				<path fill="#3E3E3D" d="M214.4-72.9c-0.2-3.4-1.8-6.3-4.3-8.8s-5.7-3.6-9.3-3.6c-3.8,0-7,1.4-9.7,4.3c-2-5.2-5.4-9.5-10.2-12.7
					s-9.9-5-15.8-5c-7.7,0-14.2,2.7-19.4,8.1c-3.6-2.3-7.7-3.4-12.2-3.4c-2.9,0-5.7,0.5-8.4,1.6c-0.9-3.8-2.9-7-6.1-9.5
					c-3.2-2.5-6.8-3.8-10.9-3.8c-3.2,0-6.3,0.9-9,2.7c-2.7,1.6-4.7,3.8-6.3,6.6c-3.6-4.5-8.1-8.1-13.6-10.9s-11.3-4.1-17.4-4.1
					c-10.4,0-19.4,3.8-27.1,11.3s-11.8,16.5-12,27.1H214.4z"/>
			</g>
		</g>
	</g>
</g>
<path opacity="0.14" d="M394.4,369.5c0.3-11.9,10-21.4,21.9-21.4c6.9,0,13.1,3.2,17.1,8.2c1.6-3,4.8-5.1,8.5-5.1
	c4.5,0,8.3,3.1,9.4,7.3c1.4-0.6,3-0.9,4.6-0.9c2.5,0,4.8,0.7,6.8,2c2.8-2.8,6.6-4.5,10.9-4.5c6.5,0,12.1,4,14.3,9.7
	c1.4-1.4,3.3-2.3,5.4-2.3c3.9,0,7.2,3,7.4,6.9H394.4z"/>
<path opacity="0.14" d="M711.1,51.3c-0.5-20.6-17.3-37.1-38-37.1c-12,0-22.7,5.6-29.7,14.3c-2.8-5.2-8.4-8.8-14.7-8.8
	c-7.9,0-14.4,5.4-16.2,12.7c-2.5-1-5.2-1.6-8.1-1.6c-4.3,0-8.4,1.3-11.7,3.5c-4.8-4.8-11.5-7.8-18.9-7.8c-11.3,0-20.9,7-24.8,16.8
	c-2.4-2.5-5.7-4-9.4-4c-6.8,0-12.4,5.3-12.9,12H711.1z"/>
<g>
	<path fill="#CACACA" d="M300.9,361.1c0.9,0,1.6-0.3,2.2-1.1c0.4-0.5,0.7-1.2,0.9-1.9H187.6c0.1,0.7,0.4,1.4,0.9,1.9
		c0.6,0.7,1.3,1.1,2.1,1.1H300.9"/>
	<path fill="#CACACA" d="M303.9,358.1c0.1-0.3,0.1-0.5,0.1-0.8v-3.4h-40.8h-75.7v3.4c0,0.3,0,0.5,0,0.8H303.9z"/>
	<path fill="#FFFFFF" d="M125.8,270.2c-0.1,0-0.2,0-0.3,0.1c-0.1,0-0.3,0.1-0.3,0.2c-0.2,0.2-0.3,0.3-0.4,0.6l-0.1,0.1
		c-0.3,0.7-0.4,1.5-0.1,2.3l22.1,80.5h40.8h75.7L241,273.2c-0.3-0.9-0.7-1.5-1.4-2.1c-0.7-0.6-1.4-0.9-2.1-0.9H126.5
		C126.3,270.1,126,270.2,125.8,270.2"/>
	<polygon fill="#FFFFFF" points="130.1,276.4 237.2,276.4 256.9,347.8 149.7,347.8 	"/>
	<path fill="#BAD727" d="M237.2,276.4H130.1l19.6,71.4h107.1L237.2,276.4 M143.6,293.9h82.6H143.6 M146,302.9h90H146 M141.1,284.7
		h90H141.1 M153.4,329.9h79.1H153.4 M151,320.9h90H151 M156,338.9h90.1H156 M148.5,311.9h71H148.5z"/>
	<path fill="none" stroke="#000000" stroke-miterlimit="10" d="M263.2,353.9h40.8v3.4c0,0.3,0,0.5-0.1,0.8c-0.1,0.7-0.4,1.3-0.9,1.9
		c-0.6,0.8-1.4,1.1-2.2,1.1H190.6h-40.7c-0.9,0-1.6-0.3-2.2-1.1c-0.4-0.5-0.8-1.1-0.9-1.9c0-0.3-0.1-0.5-0.1-0.8V356h-2.9
		l-22.1-80.4c-0.3-0.9-0.2-1.7,0.2-2.4c0.1-0.2,0.1-0.3,0.3-0.3c0.1-0.1,0.1-0.2,0.3-0.3c0.1-0.1,0.1-0.1,0.2-0.1l2.8-2.1
		c0.1-0.1,0.3-0.2,0.3-0.2c0.1-0.1,0.1-0.1,0.3-0.1c0.2-0.1,0.4-0.1,0.7-0.1h111.2c0.7,0,1.4,0.3,2.1,0.9c0.7,0.6,1.1,1.3,1.4,2.1
		L263.2,353.9h-75.7v3.4c0,0.3,0,0.5,0,0.8h116.3"/>
	<polygon fill="none" stroke="#000000" stroke-miterlimit="10" points="149.7,347.9 256.8,347.9 237.1,276.4 130.1,276.4 	"/>
	<path fill="none" stroke="#000000" stroke-miterlimit="10" d="M125.3,270.4c-0.2,0.2-0.3,0.3-0.4,0.6l-0.1,0.1
		c-0.3,0.7-0.4,1.5-0.1,2.3l22.1,80.5h40.8"/>
	<polyline fill="none" stroke="#000000" stroke-miterlimit="10" points="143.8,356 146.7,353.9 146.7,356 147.1,356 	"/>
	<path fill="none" stroke="#000000" stroke-miterlimit="10" d="M190.6,361.1c-0.9,0-1.5-0.4-2.1-1.1c-0.4-0.5-0.8-1.1-0.9-1.9h-40.8
		"/>
	<g>
		<path id="Layer3_0_2_STROKES_2_" fill="none" stroke="#3A6FBB" stroke-miterlimit="10" d="M143.6,293.9h82.6 M146,302.9h90
			 M141.1,284.7h90 M153.4,329.9h79.1 M151,320.9h90 M156,338.9h90.1 M148.5,311.9h71"/>
	</g>
</g>
<path fill="#FFFFFF" stroke="#3A6FBB" stroke-miterlimit="10" d="M629.4,72.4H282.2c-7.3,0-13.2,5.9-13.2,13.2v183
	c0,23.9-19.4,43.2-43.2,43.2h0h402.5c6.3,0,11.4-5.1,11.4-11.4l0-217.8C639.6,77,635,72.4,629.4,72.4z"/>
<g>
	<path fill="#595959" d="M288.6,293.6V92.5c0-3.8,3.1-6.9,6.9-6.9h-5.6c-3.8,0-6.9,3.1-6.9,6.9v201.1c0,3.8,3.1,6.9,6.9,6.9h5.6
		C291.7,300.5,288.6,297.4,288.6,293.6z"/>
	<path fill="#FEFEFE" d="M619.2,300.5H295.3c-3.7,0-6.7-3-6.7-6.7V118.1h337.3v175.7C625.9,297.5,622.9,300.5,619.2,300.5z"/>
	<polyline fill="#1776BF" points="626.1,102.5 625.9,102.5 289,102.5 289,117.9 626,117.9 626,102.5 	"/>
	<path fill="#CACACA" d="M296,85.5c-4.1,0-7.3,3.3-7.3,7.3v9.8H626v-9.9c0-4-3.2-7.2-7.2-7.2H296z"/>
	<polyline fill="#1776BF" points="603.5,110.1 621.2,110.1 603.5,110.1 	"/>
	<polyline fill="#1776BF" points="571.5,110.1 597.3,110.1 571.5,110.1 	"/>
	<path fill="#1776BF" d="M518.1,110.1h46.6H518.1z"/>
	<line fill="none" stroke="#000000" stroke-miterlimit="10" x1="626.1" y1="102.8" x2="626.1" y2="102.8"/>
	<line fill="none" stroke="#000000" stroke-miterlimit="10" x1="288.7" y1="102.8" x2="625.9" y2="102.8"/>
	<line fill="none" stroke="#000000" stroke-miterlimit="10" x1="591.1" y1="102.8" x2="591.1" y2="102.8"/>
	<path fill="none" stroke="#000000" stroke-miterlimit="10" d="M591.1,102.8"/>
	<polyline fill="none" stroke="#000000" stroke-miterlimit="10" points="288.6,102.8 288.8,102.8 288.8,102.8 	"/>
	<line fill="none" stroke="#000000" stroke-miterlimit="10" x1="289" y1="118.1" x2="626" y2="118.1"/>
	<line fill="none" stroke="#A3A3A3" stroke-miterlimit="10" x1="289" y1="130.6" x2="626" y2="130.6"/>
	<line fill="none" stroke="#A3A3A3" stroke-miterlimit="10" x1="289" y1="155.1" x2="626" y2="155.1"/>
	<path id="Layer3_0_2_STROKES_3_" fill="none" stroke="#FFFFFF" stroke-miterlimit="10" d="M569.5,110.1h25.8 M601.5,110.1h17.7
		 M295.9,110.1h34.5 M371,110.1h11.2 M389,110.1h11.2 M406.8,110.1H418 M424.8,110.1H436 M442.8,110.1H454"/>
	<line fill="none" stroke="#000000" stroke-miterlimit="10" x1="582.7" y1="124.6" x2="603.8" y2="124.6"/>
	<line fill="none" stroke="#000000" stroke-miterlimit="10" x1="610" y1="124.6" x2="618.7" y2="124.6"/>
	<line fill="none" stroke="#000000" stroke-miterlimit="10" x1="613.7" y1="136.6" x2="618.7" y2="136.6"/>
	<line fill="none" stroke="#000000" stroke-miterlimit="10" x1="594.6" y1="136.6" x2="609.7" y2="136.6"/>
	<line fill="none" stroke="#000000" stroke-miterlimit="10" x1="305.3" y1="124.6" x2="316.5" y2="124.6"/>
	<line fill="none" stroke="#000000" stroke-miterlimit="10" x1="323.3" y1="124.6" x2="334.5" y2="124.6"/>
	<line fill="none" stroke="#000000" stroke-miterlimit="10" x1="341" y1="124.6" x2="352.2" y2="124.6"/>
	<line fill="none" stroke="#000000" stroke-miterlimit="10" x1="295.8" y1="148.6" x2="307" y2="148.6"/>
	<line fill="none" stroke="#000000" stroke-miterlimit="10" x1="313.8" y1="148.6" x2="325" y2="148.6"/>
	<line fill="none" stroke="#000000" stroke-miterlimit="10" x1="331.5" y1="148.6" x2="342.7" y2="148.6"/>
	<g>
		<line fill="none" stroke="#000000" stroke-miterlimit="10" x1="614.5" y1="148.6" x2="618.4" y2="148.6"/>
		<line fill="none" stroke="#000000" stroke-miterlimit="10" x1="608.3" y1="148.6" x2="612.2" y2="148.6"/>
		<line fill="none" stroke="#000000" stroke-miterlimit="10" x1="602.2" y1="148.6" x2="606.1" y2="148.6"/>
		<line fill="none" stroke="#000000" stroke-miterlimit="10" x1="596" y1="148.6" x2="599.9" y2="148.6"/>
		<line fill="none" stroke="#000000" stroke-miterlimit="10" x1="589.9" y1="148.6" x2="593.8" y2="148.6"/>
		<line fill="none" stroke="#000000" stroke-miterlimit="10" x1="583.7" y1="148.6" x2="587.6" y2="148.6"/>
		<line fill="none" stroke="#000000" stroke-miterlimit="10" x1="577.6" y1="148.6" x2="581.5" y2="148.6"/>
		<line fill="none" stroke="#000000" stroke-miterlimit="10" x1="571.4" y1="148.6" x2="575.3" y2="148.6"/>
		<line fill="none" stroke="#000000" stroke-miterlimit="10" x1="565.3" y1="148.6" x2="569.2" y2="148.6"/>
		<line fill="none" stroke="#000000" stroke-miterlimit="10" x1="559.1" y1="148.6" x2="563" y2="148.6"/>
		<line fill="none" stroke="#000000" stroke-miterlimit="10" x1="553" y1="148.6" x2="556.9" y2="148.6"/>
		<line fill="none" stroke="#000000" stroke-miterlimit="10" x1="546.8" y1="148.6" x2="550.7" y2="148.6"/>
	</g>
	<line fill="none" stroke="#000000" stroke-miterlimit="10" x1="359" y1="124.6" x2="370.2" y2="124.6"/>
	<line fill="none" stroke="#000000" stroke-miterlimit="10" x1="377" y1="124.6" x2="388.2" y2="124.6"/>
	<path fill="#A3A3A3" d="M620.5,300.2H541V155.5h84.7V295C625.7,297.9,623.4,300.2,620.5,300.2z"/>
	<g>
		<rect x="545.2" y="168.8" fill="#FFFFFF" width="75.5" height="40.3"/>
		<rect x="545.2" y="211.8" fill="#FFFFFF" width="75.5" height="40.3"/>
		<rect x="545.2" y="254.9" fill="#FFFFFF" width="75.5" height="40.3"/>
	</g>
	<rect x="295" y="137" fill="none" stroke="#A3A3A3" stroke-miterlimit="10" width="76.2" height="6"/>
	<rect x="546" y="162.5" fill="none" stroke="#000000" stroke-miterlimit="10" width="30" height="3"/>
	<line fill="none" stroke="#A3A3A3" stroke-miterlimit="10" x1="295.5" y1="187.1" x2="536.5" y2="187.1"/>
	<line fill="none" stroke="#A3A3A3" stroke-miterlimit="10" x1="295.5" y1="214" x2="536.5" y2="214"/>
	<line fill="none" stroke="#A3A3A3" stroke-miterlimit="10" x1="295.5" y1="240.8" x2="536.5" y2="240.8"/>
	<line fill="none" stroke="#A3A3A3" stroke-miterlimit="10" x1="295.5" y1="267.7" x2="536.5" y2="267.7"/>
	<line fill="none" stroke="#A3A3A3" stroke-miterlimit="10" x1="300.5" y1="295.7" x2="300.5" y2="161"/>
	<g>
		<g>
			<line fill="none" stroke="#000000" stroke-miterlimit="10" x1="509.9" y1="173.1" x2="509.9" y2="191.6"/>
			<g>
				<polygon points="511.7,191.3 508,191.3 509.9,193.1 				"/>
			</g>
		</g>
	</g>
	<g>
		<g>
			<line fill="none" stroke="#000000" stroke-miterlimit="10" x1="493.5" y1="173.1" x2="497.4" y2="173.1"/>
			<g>
				<polygon points="497.1,171.3 497.1,174.9 498.9,173.1 				"/>
			</g>
		</g>
	</g>
	<g>
		<g>
			<polyline fill="none" stroke="#000000" stroke-miterlimit="10" points="484.9,283 491.2,283 491.2,180 			"/>
			<g>
				<polygon points="489.4,180.3 493,180.3 491.2,178.5 				"/>
			</g>
		</g>
	</g>
	<g>
		<g>
			<polyline fill="none" stroke="#000000" stroke-miterlimit="10" points="461.2,173.3 461.2,283 464.8,283 			"/>
			<g>
				<polygon points="464.5,281.2 464.5,284.8 466.3,283 				"/>
			</g>
		</g>
	</g>
	<g>
		<g>
			<line fill="none" stroke="#000000" stroke-miterlimit="10" x1="441.4" y1="173.3" x2="447.1" y2="173.3"/>
			<g>
				<polygon points="446.8,171.5 446.8,175.1 448.7,173.3 				"/>
			</g>
		</g>
	</g>
	<g>
		<g>
			<line fill="none" stroke="#000000" stroke-miterlimit="10" x1="409.7" y1="173.3" x2="423.4" y2="173.3"/>
			<g>
				<polygon points="423.1,171.5 423.1,175.1 424.9,173.3 				"/>
			</g>
		</g>
	</g>
	<g>
		<g>
			<polyline fill="none" stroke="#000000" stroke-miterlimit="10" points="409.8,199.5 417.7,199.5 417.7,183.7 			"/>
			<g>
				<polygon points="415.9,184 419.5,184 417.7,182.1 				"/>
			</g>
		</g>
	</g>
	<g>
		<g>
			<polyline fill="none" stroke="#000000" stroke-miterlimit="10" points="383.7,173.3 383.7,199.5 388.6,199.5 			"/>
			<g>
				<polygon points="388.4,197.7 388.4,201.3 390.2,199.5 				"/>
			</g>
		</g>
	</g>
	<g>
		<g>
			<line fill="none" stroke="#000000" stroke-miterlimit="10" x1="357.8" y1="173.3" x2="363.3" y2="173.3"/>
			<g>
				<polygon points="363,171.4 363,175.1 364.9,173.3 				"/>
			</g>
		</g>
	</g>
	<g>
		<g>
			<polyline fill="none" stroke="#000000" stroke-miterlimit="10" points="351,200.5 356.7,200.5 356.7,184.2 			"/>
			<g>
				<polygon points="354.9,184.4 358.5,184.4 356.7,182.6 				"/>
			</g>
		</g>
	</g>
	<g>
		<g>
			<line fill="none" stroke="#000000" stroke-miterlimit="10" x1="333.2" y1="200.5" x2="337.8" y2="200.5"/>
			<g>
				<polygon points="337.6,198.7 337.6,202.3 339.4,200.5 				"/>
			</g>
		</g>
	</g>
	<g>
		<g>
			<polyline fill="none" stroke="#000000" stroke-miterlimit="10" points="321.2,281.5 332.2,281.5 332.2,207.2 			"/>
			<g>
				<polygon points="330.4,207.4 334,207.4 332.2,205.6 				"/>
			</g>
		</g>
	</g>
	<circle fill="#FFFFFF" stroke="#FF4200" stroke-miterlimit="10" cx="509.9" cy="201" r="6.5"/>
	
		<rect x="329.9" y="198.2" transform="matrix(0.7071 -0.7071 0.7071 0.7071 -44.4972 293.7351)" fill="#FFFFFF" stroke="#000000" stroke-miterlimit="10" width="4.8" height="4.8"/>
	
		<rect x="458.8" y="170.8" transform="matrix(0.7071 -0.7071 0.7071 0.7071 12.5983 376.8652)" fill="#FFFFFF" stroke="#000000" stroke-miterlimit="10" width="4.8" height="4.8"/>
	
		<rect x="489.3" y="170.8" transform="matrix(0.7071 -0.7071 0.7071 0.7071 21.5316 398.4319)" fill="#FFFFFF" stroke="#000000" stroke-miterlimit="10" width="4.8" height="4.8"/>
	<path fill="#FFFFFF" stroke="#1776BF" stroke-miterlimit="10" d="M351.3,206.1h-9.1c-0.8,0-1.4-0.6-1.4-1.4v-8.9
		c0-0.8,0.6-1.4,1.4-1.4h9.1c0.8,0,1.4,0.6,1.4,1.4v8.9C352.7,205.5,352.1,206.1,351.3,206.1z"/>
	<path fill="#FFFFFF" stroke="#1776BF" stroke-miterlimit="10" d="M410.3,207.5h-17.5c-0.8,0-1.4-0.6-1.4-1.4v-11.8
		c0-0.8,0.6-1.4,1.4-1.4h17.5c0.8,0,1.4,0.6,1.4,1.4v11.8C411.7,206.9,411.1,207.5,410.3,207.5z"/>
	<path fill="#FFFFFF" stroke="#1776BF" stroke-miterlimit="10" d="M366.1,181h-17.5c-0.8,0-1.4-0.6-1.4-1.4v-11.8
		c0-0.8,0.6-1.4,1.4-1.4h17.5c0.8,0,1.4,0.6,1.4,1.4v11.8C367.5,180.4,366.9,181,366.1,181z"/>
	<path fill="#FFFFFF" stroke="#1776BF" stroke-miterlimit="10" d="M393.1,181h-17.5c-0.8,0-1.4-0.6-1.4-1.4v-11.8
		c0-0.8,0.6-1.4,1.4-1.4h17.5c0.8,0,1.4,0.6,1.4,1.4v11.8C394.4,180.4,393.8,181,393.1,181z"/>
	<path fill="#FFFFFF" stroke="#1776BF" stroke-miterlimit="10" d="M426.3,181h-17.5c-0.8,0-1.4-0.6-1.4-1.4v-11.8
		c0-0.8,0.6-1.4,1.4-1.4h17.5c0.8,0,1.4,0.6,1.4,1.4v11.8C427.7,180.4,427.1,181,426.3,181z"/>
	<path fill="#FFFFFF" stroke="#1776BF" stroke-miterlimit="10" d="M450.5,181h-14.6c-0.8,0-1.4-0.6-1.4-1.4v-11.8
		c0-0.8,0.6-1.4,1.4-1.4h14.6c0.8,0,1.4,0.6,1.4,1.4v11.8C451.8,180.4,451.2,181,450.5,181z"/>
	<path fill="#FFFFFF" stroke="#1776BF" stroke-miterlimit="10" d="M517.6,181h-15.7c-0.8,0-1.4-0.6-1.4-1.4v-11.8
		c0-0.8,0.6-1.4,1.4-1.4h15.7c0.8,0,1.4,0.6,1.4,1.4v11.8C519,180.4,518.4,181,517.6,181z"/>
	<line fill="none" stroke="#000000" stroke-miterlimit="10" x1="321.1" y1="227.7" x2="332.1" y2="227.7"/>
	<line fill="none" stroke="#000000" stroke-miterlimit="10" x1="321.1" y1="253.9" x2="332.1" y2="253.9"/>
	<g>
		<g>
			<line fill="none" stroke="#000000" stroke-miterlimit="10" x1="461.1" y1="253.3" x2="464.7" y2="253.3"/>
			<g>
				<polygon points="464.4,251.5 464.4,255.2 466.2,253.3 				"/>
			</g>
		</g>
	</g>
	<line fill="none" stroke="#000000" stroke-miterlimit="10" x1="479.7" y1="253.3" x2="491.5" y2="253.3"/>
	<g>
		<g>
			<line fill="none" stroke="#000000" stroke-miterlimit="10" x1="461.1" y1="226.5" x2="464.7" y2="226.5"/>
			<g>
				<polygon points="464.4,224.7 464.4,228.3 466.2,226.5 				"/>
			</g>
		</g>
	</g>
	<line fill="none" stroke="#000000" stroke-miterlimit="10" x1="486" y1="226.5" x2="491.1" y2="226.5"/>
	<g>
		<g>
			<line fill="none" stroke="#000000" stroke-miterlimit="10" x1="461.1" y1="200.1" x2="464.7" y2="200.1"/>
			<g>
				<polygon points="464.4,198.3 464.4,201.9 466.2,200.1 				"/>
			</g>
		</g>
	</g>
	<line fill="none" stroke="#000000" stroke-miterlimit="10" x1="478.3" y1="200.1" x2="491.2" y2="200.1"/>
	<path fill="#FFFFFF" stroke="#1776BF" stroke-miterlimit="10" d="M484.1,207.5h-15.2c-0.8,0-1.4-0.6-1.4-1.4v-11.8
		c0-0.8,0.6-1.4,1.4-1.4h15.2c0.8,0,1.4,0.6,1.4,1.4v11.8C485.5,206.9,484.9,207.5,484.1,207.5z"/>
	<path fill="#FFFFFF" stroke="#1776BF" stroke-miterlimit="10" d="M484.1,234h-15.2c-0.8,0-1.4-0.6-1.4-1.4v-11.8
		c0-0.8,0.6-1.4,1.4-1.4h15.2c0.8,0,1.4,0.6,1.4,1.4v11.8C485.5,233.4,484.9,234,484.1,234z"/>
	<path fill="#FFFFFF" stroke="#1776BF" stroke-miterlimit="10" d="M484.1,261h-15.2c-0.8,0-1.4-0.6-1.4-1.4v-11.8
		c0-0.8,0.6-1.4,1.4-1.4h15.2c0.8,0,1.4,0.6,1.4,1.4v11.8C485.5,260.4,484.9,261,484.1,261z"/>
	<path fill="#FFFFFF" stroke="#1776BF" stroke-miterlimit="10" d="M484.1,288.5h-15.2c-0.8,0-1.4-0.6-1.4-1.4v-11.8
		c0-0.8,0.6-1.4,1.4-1.4h15.2c0.8,0,1.4,0.6,1.4,1.4v11.8C485.5,287.9,484.9,288.5,484.1,288.5z"/>
	<circle fill="#FFFFFF" stroke="#BAD80A" stroke-miterlimit="10" cx="321.2" cy="281.5" r="6.5"/>
	<circle fill="#FFFFFF" stroke="#BAD80A" stroke-miterlimit="10" cx="321.2" cy="254" r="6.5"/>
	<circle fill="#FFFFFF" stroke="#BAD80A" stroke-miterlimit="10" cx="321.2" cy="228" r="6.5"/>
	<rect x="295" y="160.5" fill="none" stroke="#A3A3A3" stroke-miterlimit="10" width="241" height="134.7"/>
	<line fill="none" stroke="#000000" stroke-miterlimit="10" x1="549.5" y1="217.1" x2="570.6" y2="217.1"/>
	<g>
		<line fill="none" stroke="#000000" stroke-miterlimit="10" x1="549.5" y1="172.8" x2="563" y2="172.8"/>
		<line fill="none" stroke="#000000" stroke-miterlimit="10" x1="575.2" y1="172.8" x2="585.5" y2="172.8"/>
		<line fill="none" stroke="#000000" stroke-miterlimit="10" x1="602" y1="172.8" x2="611.4" y2="172.8"/>
	</g>
	<g>
		<line fill="none" stroke="#000000" stroke-miterlimit="10" x1="549.5" y1="176.3" x2="553.5" y2="176.3"/>
		<line fill="none" stroke="#000000" stroke-miterlimit="10" x1="575.2" y1="176.3" x2="587.4" y2="176.3"/>
		<line fill="none" stroke="#000000" stroke-miterlimit="10" x1="602" y1="176.3" x2="608.4" y2="176.3"/>
	</g>
	<g>
		<line fill="none" stroke="#000000" stroke-miterlimit="10" x1="549.5" y1="179.7" x2="553.5" y2="179.7"/>
		<line fill="none" stroke="#000000" stroke-miterlimit="10" x1="575.2" y1="179.7" x2="585" y2="179.7"/>
		<line fill="none" stroke="#000000" stroke-miterlimit="10" x1="602" y1="179.7" x2="608.4" y2="179.7"/>
	</g>
	<g>
		<line fill="none" stroke="#000000" stroke-miterlimit="10" x1="549.5" y1="183.2" x2="553.5" y2="183.2"/>
		<line fill="none" stroke="#000000" stroke-miterlimit="10" x1="575.2" y1="183.2" x2="588.7" y2="183.2"/>
		<line fill="none" stroke="#000000" stroke-miterlimit="10" x1="602" y1="183.2" x2="608.4" y2="183.2"/>
	</g>
	<g>
		<line fill="none" stroke="#000000" stroke-miterlimit="10" x1="549.5" y1="186.6" x2="553.5" y2="186.6"/>
		<line fill="none" stroke="#000000" stroke-miterlimit="10" x1="575.2" y1="186.6" x2="583.5" y2="186.6"/>
		<line fill="none" stroke="#000000" stroke-miterlimit="10" x1="602" y1="186.6" x2="608.4" y2="186.6"/>
	</g>
	<g>
		<line fill="none" stroke="#000000" stroke-miterlimit="10" x1="549.5" y1="190" x2="553.5" y2="190"/>
		<line fill="none" stroke="#000000" stroke-miterlimit="10" x1="575.2" y1="190" x2="581.9" y2="190"/>
		<line fill="none" stroke="#000000" stroke-miterlimit="10" x1="602" y1="190" x2="608.4" y2="190"/>
	</g>
	<g>
		<line fill="none" stroke="#000000" stroke-miterlimit="10" x1="549.5" y1="193.5" x2="553.5" y2="193.5"/>
		<line fill="none" stroke="#000000" stroke-miterlimit="10" x1="575.2" y1="193.5" x2="586.7" y2="193.5"/>
		<line fill="none" stroke="#000000" stroke-miterlimit="10" x1="602" y1="193.5" x2="608.4" y2="193.5"/>
	</g>
	<g>
		<line fill="none" stroke="#000000" stroke-miterlimit="10" x1="549.5" y1="196.9" x2="553.5" y2="196.9"/>
		<line fill="none" stroke="#000000" stroke-miterlimit="10" x1="575.2" y1="196.9" x2="588.7" y2="196.9"/>
		<line fill="none" stroke="#000000" stroke-miterlimit="10" x1="602" y1="196.9" x2="608.4" y2="196.9"/>
	</g>
	<g>
		<line fill="none" stroke="#000000" stroke-miterlimit="10" x1="549.5" y1="200.4" x2="553.5" y2="200.4"/>
		<line fill="none" stroke="#000000" stroke-miterlimit="10" x1="575.2" y1="200.4" x2="585.5" y2="200.4"/>
		<line fill="none" stroke="#000000" stroke-miterlimit="10" x1="602" y1="200.4" x2="608.4" y2="200.4"/>
	</g>
	<g>
		<line fill="none" stroke="#000000" stroke-miterlimit="10" x1="549.5" y1="203.8" x2="553.5" y2="203.8"/>
		<line fill="none" stroke="#000000" stroke-miterlimit="10" x1="575.2" y1="203.8" x2="582.2" y2="203.8"/>
		<line fill="none" stroke="#000000" stroke-miterlimit="10" x1="602" y1="203.8" x2="608.4" y2="203.8"/>
	</g>
	<line fill="none" stroke="#000000" stroke-miterlimit="10" x1="549.5" y1="259.3" x2="588.2" y2="259.3"/>
	<g>
		<path fill="none" stroke="#FF4200" stroke-miterlimit="10" d="M585.4,221.4c-2.5,2.7-4,6.2-4,10.1c0,2.4,0.6,4.6,1.5,6.6"/>
		<path fill="none" stroke="#FF4200" stroke-miterlimit="10" d="M588.6,235.3c-0.6-1.1-0.9-2.4-0.9-3.8c0-2.3,0.9-4.3,2.3-5.9"/>
		<path fill="none" stroke="#BAD80A" stroke-miterlimit="10" d="M602.2,237.9c-1.5,1.4-3.6,2.3-5.8,2.3c-3.4,0-6.4-2-7.8-4.9"/>
		<path fill="none" stroke="#BAD80A" stroke-miterlimit="10" d="M582.9,238.1c2.4,5,7.5,8.4,13.5,8.4c3.9,0,7.4-1.5,10.1-3.9"/>
		<path fill="none" stroke="#1776BF" stroke-miterlimit="10" d="M606.5,242.6c3-2.7,4.9-6.7,4.9-11.1c0-8.3-6.7-15-15-15
			c-4.4,0-8.3,1.9-11,4.9"/>
		<path fill="none" stroke="#1776BF" stroke-miterlimit="10" d="M590,225.7c1.6-1.7,3.8-2.8,6.4-2.8c4.8,0,8.7,3.9,8.7,8.7
			c0,2.5-1.1,4.8-2.8,6.4"/>
	</g>
	<polyline fill="none" stroke="#A3A3A3" stroke-miterlimit="10" points="561.7,224.8 577.7,224.8 584.7,231.8 	"/>
	<line fill="none" stroke="#A3A3A3" stroke-miterlimit="10" x1="561.9" y1="243.3" x2="594.5" y2="243.3"/>
	<line fill="none" stroke="#A3A3A3" stroke-miterlimit="10" x1="617.4" y1="223.2" x2="605.4" y2="223.2"/>
	<line fill="none" stroke="#000000" stroke-miterlimit="10" x1="545.6" y1="159.3" x2="566.7" y2="159.3"/>
	<rect x="588.3" y="162.5" fill="none" stroke="#000000" stroke-miterlimit="10" width="30" height="3"/>
	<line fill="none" stroke="#000000" stroke-miterlimit="10" x1="587.9" y1="159.3" x2="609" y2="159.3"/>
	<rect x="555.6" y="276.9" fill="none" stroke="#1776BF" stroke-miterlimit="10" width="5.3" height="8.8"/>
	<rect x="563.8" y="274.3" fill="none" stroke="#FF4200" stroke-miterlimit="10" width="5.3" height="11.4"/>
	<rect x="572" y="268.3" fill="none" stroke="#BAD80A" stroke-miterlimit="10" width="5.3" height="17.4"/>
	
		<rect x="580.2" y="271.9" fill="none" stroke="#0899CC" stroke-linejoin="round" stroke-miterlimit="10" width="5.3" height="13.8"/>
	<rect x="588.4" y="275.6" fill="none" stroke="#1776BF" stroke-miterlimit="10" width="5.3" height="10"/>
	<rect x="596.6" y="270.3" fill="none" stroke="#7BCAEF" stroke-miterlimit="10" width="5.3" height="15.4"/>
	<rect x="604.8" y="265" fill="none" stroke="#354E5F" stroke-miterlimit="10" width="5.3" height="20.7"/>
	<line fill="none" stroke="#A3A3A3" stroke-miterlimit="10" x1="560.9" y1="289.2" x2="555.6" y2="289.2"/>
	<line fill="none" stroke="#A3A3A3" stroke-miterlimit="10" x1="569.1" y1="289.2" x2="563.8" y2="289.2"/>
	<line fill="none" stroke="#A3A3A3" stroke-miterlimit="10" x1="577.3" y1="289.2" x2="572" y2="289.2"/>
	<line fill="none" stroke="#A3A3A3" stroke-miterlimit="10" x1="585.5" y1="289.2" x2="580.2" y2="289.2"/>
	<line fill="none" stroke="#A3A3A3" stroke-miterlimit="10" x1="593.7" y1="289.2" x2="588.4" y2="289.2"/>
	<line fill="none" stroke="#A3A3A3" stroke-miterlimit="10" x1="601.9" y1="289.2" x2="596.6" y2="289.2"/>
	<line fill="none" stroke="#A3A3A3" stroke-miterlimit="10" x1="610" y1="289.2" x2="604.8" y2="289.2"/>
	<path fill="none" stroke="#000000" stroke-miterlimit="10" d="M619.2,300.5H295.5c-3.8,0-6.9-3.1-6.9-6.9V92.5
		c0-3.8,3.1-6.9,6.9-6.9h323.7c3.8,0,6.9,3.1,6.9,6.9v201.1C626,297.4,623,300.5,619.2,300.5z"/>
	<path fill="none" stroke="#000000" stroke-miterlimit="10" d="M301.9,85.7h-12c-3.8,0-6.9,3.1-6.9,6.9v201.1c0,3.8,3.1,6.9,6.9,6.9
		h12.2"/>
	<g>
		<circle fill="none" stroke="#000000" stroke-miterlimit="10" cx="298.9" cy="93.9" r="2.3"/>
		<circle fill="none" stroke="#000000" stroke-miterlimit="10" cx="307.7" cy="93.9" r="2.3"/>
		<circle fill="none" stroke="#000000" stroke-miterlimit="10" cx="316.4" cy="93.9" r="2.3"/>
	</g>
</g>
<g transform="matrix( 1, 0, 0, 1, -287.6,-198.6) ">
	<g>
		<g id="Layer8_7_FILL_4_">
			<path fill="#DEDEDD" d="M719.7,526.4c0-1-0.4-1.8-1-2.6c-0.7-0.6-1.6-1-2.6-1s-1.8,0.4-2.5,1c-0.6,0.7-1,1.6-1,2.6
				c0,1,0.4,1.8,1,2.5c0.7,0.6,1.6,1,2.5,1c1,0,1.8-0.4,2.6-1C719.3,528.2,719.7,527.4,719.7,526.4z"/>
		</g>
	</g>
</g>
<g transform="matrix( 1, 0, 0, 1, -287.6,-198.6) ">
	<g>
		<g id="Layer8_5_FILL_11_">
			<path fill="#F05923" d="M667.1,549.1c0-0.5-0.2-0.9-0.6-1.2c-0.4-0.4-0.7-0.6-1.3-0.6s-0.9,0.2-1.2,0.6c-0.4,0.4-0.5,0.7-0.5,1.2
				s0.2,0.9,0.5,1.3c0.4,0.4,0.7,0.6,1.2,0.6s0.9-0.2,1.3-0.6C666.9,550,667.1,549.5,667.1,549.1z"/>
		</g>
	</g>
</g>
<g transform="matrix( 1, 0, 0, 1, -287.6,-198.6) ">
	<g>
		<g id="Layer8_8_FILL_27_">
			<path fill="#DEDEDD" d="M955,355.3c-0.4-0.4-0.7-0.5-1.3-0.5c-0.5,0-0.9,0.2-1.3,0.5c-0.4,0.4-0.5,0.8-0.5,1.3s0.2,0.9,0.5,1.3
				c0.4,0.4,0.7,0.6,1.3,0.6c0.5,0,0.9-0.2,1.3-0.6s0.6-0.7,0.6-1.3C955.6,356.1,955.4,355.8,955,355.3z"/>
		</g>
	</g>
</g>
<g transform="matrix( 1, 0, 0, 1, -287.6,-198.6) ">
	<g>
		<g id="Layer8_8_FILL_28_">
			<path fill="#DEDEDD" d="M587.4,230.9c-0.4-0.4-0.7-0.5-1.3-0.5c-0.5,0-0.9,0.2-1.3,0.5c-0.4,0.4-0.5,0.8-0.5,1.3
				c0,0.5,0.2,0.9,0.5,1.3c0.4,0.4,0.7,0.6,1.3,0.6c0.5,0,0.9-0.2,1.3-0.6c0.4-0.4,0.6-0.7,0.6-1.3
				C588,231.7,587.8,231.4,587.4,230.9z"/>
		</g>
	</g>
</g>
<g transform="matrix( 1, 0, 0, 1, -287.6,-198.6) ">
	<g>
		<path id="Layer8_12_1_STROKES_18_" fill="none" stroke="#BFBEBE" stroke-width="2" stroke-miterlimit="10" d="M1003.5,384.4
			c0,0.8-0.3,1.6-0.9,2.1c-0.6,0.6-1.3,0.8-2.1,0.8s-1.5-0.3-2.1-0.8c-0.6-0.6-0.9-1.3-0.9-2.1c0-0.8,0.3-1.5,0.9-2.1
			c0.6-0.6,1.3-0.8,2.1-0.8c0.8,0,1.6,0.3,2.1,0.8C1003.2,382.8,1003.5,383.5,1003.5,384.4z"/>
	</g>
</g>
<g>
	<g transform="matrix( 1, 0, 0, 1, -287.6,-198.6) ">
		<g>
			<g id="Layer8_16_MEMBER_0_FILL_19_">
				<path fill="#83C2EA" d="M669.8,247.6c0.2,0.2,0.4,0.3,0.6,0.3h6.5c0.3,0,0.5-0.1,0.6-0.3c0.2-0.2,0.3-0.4,0.3-0.6
					c0-0.3-0.1-0.5-0.3-0.6c-0.2-0.2-0.4-0.3-0.6-0.3h-6.5c-0.3,0-0.5,0.1-0.6,0.3s-0.3,0.4-0.3,0.6
					C669.5,247.1,669.6,247.5,669.8,247.6z"/>
			</g>
		</g>
	</g>
	<g transform="matrix( 1, 0, 0, 1, -287.6,-198.6) ">
		<g>
			<g id="Layer8_16_MEMBER_1_FILL_19_">
				<path fill="#83C2EA" d="M673.7,251.1c0.3,0,0.5-0.1,0.6-0.3c0.2-0.2,0.3-0.4,0.3-0.6v-6.6c0-0.6-0.3-0.8-0.9-0.8
					c-0.6,0-0.9,0.3-0.9,0.8v6.6c0,0.3,0.1,0.5,0.3,0.6C673.2,251.1,673.5,251.1,673.7,251.1z"/>
			</g>
		</g>
	</g>
</g>
<g transform="matrix( 1, 0, 0, 1, -287.6,-198.6) ">
	<g>
		<g id="Layer8_3_FILL_11_">
			<path fill="#B9D432" d="M503.6,457.1c0-0.5-0.2-0.9-0.6-1.2c-0.4-0.4-0.7-0.6-1.2-0.6c-0.5,0-0.9,0.2-1.3,0.6
				c-0.4,0.4-0.6,0.7-0.6,1.2s0.2,0.9,0.6,1.3c0.4,0.4,0.7,0.5,1.3,0.5c0.5,0,0.9-0.2,1.2-0.5C503.4,458,503.6,457.5,503.6,457.1z"
				/>
		</g>
	</g>
</g>
<g transform="matrix( 1, 0, 0, 1, -287.6,-198.6) ">
	<g>
		<g id="Layer8_3_FILL_10_">
			<path fill="#B9D432" d="M765.1,260.6c0-0.5-0.2-0.9-0.6-1.2c-0.4-0.4-0.7-0.6-1.2-0.6s-0.9,0.2-1.3,0.6c-0.4,0.4-0.6,0.7-0.6,1.2
				c0,0.5,0.2,0.9,0.6,1.3s0.7,0.5,1.3,0.5c0.5,0,0.9-0.2,1.2-0.5C764.9,261.5,765.1,261,765.1,260.6z"/>
		</g>
	</g>
</g>
<g transform="matrix( 1, 0, 0, 1, -287.6,-198.6) ">
	<g>
		<g id="Layer8_5_FILL_10_">
			<path fill="#F05923" d="M450,457.4c0-0.5-0.2-0.9-0.6-1.2c-0.4-0.4-0.7-0.6-1.3-0.6c-0.6,0-0.9,0.2-1.2,0.6
				c-0.4,0.4-0.5,0.7-0.5,1.2c0,0.5,0.2,0.9,0.5,1.3c0.4,0.4,0.7,0.6,1.2,0.6c0.5,0,0.9-0.2,1.3-0.6
				C449.8,458.3,450,457.9,450,457.4z"/>
		</g>
	</g>
</g>
<g transform="matrix( 1, 0, 0, 1, -287.6,-198.6) ">
	<g>
		<g id="Layer8_5_FILL_9_">
			<path fill="#F05923" d="M966.4,331.5c0-0.5-0.2-0.9-0.6-1.2c-0.4-0.4-0.7-0.6-1.3-0.6c-0.6,0-0.9,0.2-1.2,0.6
				c-0.4,0.4-0.5,0.7-0.5,1.2s0.2,0.9,0.5,1.3c0.4,0.4,0.7,0.6,1.2,0.6c0.5,0,0.9-0.2,1.3-0.6C966.2,332.4,966.4,332,966.4,331.5z"
				/>
		</g>
	</g>
</g>
<g transform="matrix( 1, 0, 0, 1, -287.6,-198.6) ">
	<g>
		<g id="Layer8_8_FILL_26_">
			<path fill="#DEDEDD" d="M363,442.6c-0.4-0.4-0.7-0.5-1.3-0.5c-0.5,0-0.9,0.2-1.3,0.5c-0.4,0.4-0.5,0.8-0.5,1.3s0.2,0.9,0.5,1.3
				c0.4,0.4,0.7,0.6,1.3,0.6c0.5,0,0.9-0.2,1.3-0.6s0.6-0.7,0.6-1.3C363.5,443.4,363.4,443,363,442.6z"/>
		</g>
	</g>
</g>
<g transform="matrix( 1, 0, 0, 1, -287.6,-198.6) ">
	<g>
		<g id="Layer8_8_FILL_25_">
			<path fill="#DEDEDD" d="M515.9,271.2c-0.4-0.4-0.7-0.5-1.3-0.5c-0.5,0-0.9,0.2-1.3,0.5c-0.4,0.4-0.5,0.8-0.5,1.3s0.2,0.9,0.5,1.3
				c0.4,0.4,0.7,0.6,1.3,0.6c0.5,0,0.9-0.2,1.3-0.6c0.4-0.4,0.6-0.7,0.6-1.3C516.5,272,516.3,271.7,515.9,271.2z"/>
		</g>
	</g>
</g>
<g transform="matrix( 1, 0, 0, 1, -287.6,-198.6) ">
	<g>
		<g id="Layer8_8_FILL_24_">
			<path fill="#DEDEDD" d="M1004.7,540.4c-0.4-0.4-0.7-0.5-1.3-0.5c-0.5,0-0.9,0.2-1.3,0.5c-0.4,0.4-0.5,0.8-0.5,1.3
				s0.2,0.9,0.5,1.3c0.4,0.4,0.7,0.6,1.3,0.6c0.5,0,0.9-0.2,1.3-0.6c0.4-0.4,0.6-0.7,0.6-1.3
				C1005.3,541.2,1005.1,540.8,1004.7,540.4z"/>
		</g>
	</g>
</g>
<g transform="matrix( 1, 0, 0, 1, -287.6,-198.6) ">
	<g>
		<g id="Layer8_8_FILL_23_">
			<path fill="#DEDEDD" d="M708.5,227.2c-0.4-0.4-0.7-0.5-1.3-0.5c-0.5,0-0.9,0.2-1.3,0.5c-0.4,0.4-0.5,0.8-0.5,1.3s0.2,0.9,0.5,1.3
				c0.4,0.4,0.7,0.6,1.3,0.6c0.5,0,0.9-0.2,1.3-0.6s0.6-0.7,0.6-1.3C709.1,228,708.9,227.7,708.5,227.2z"/>
		</g>
	</g>
</g>
<g transform="matrix( 1, 0, 0, 1, -287.6,-198.6) ">
	<g>
		<path id="Layer8_12_1_STROKES_17_" fill="none" stroke="#BFBEBE" stroke-width="2" stroke-miterlimit="10" d="M462.5,358.4
			c0,0.8-0.3,1.6-0.9,2.1c-0.6,0.6-1.3,0.8-2.1,0.8c-0.8,0-1.5-0.3-2.1-0.8c-0.6-0.6-0.9-1.3-0.9-2.1s0.3-1.5,0.9-2.1
			c0.6-0.6,1.3-0.8,2.1-0.8c0.8,0,1.6,0.3,2.1,0.8C462.2,356.8,462.5,357.5,462.5,358.4z"/>
	</g>
</g>
<g>
	<g transform="matrix( 1, 0, 0, 1, -287.6,-198.6) ">
		<g>
			<g id="Layer8_16_MEMBER_0_FILL_18_">
				<path fill="#83C2EA" d="M827.7,571.7c0.2,0.2,0.4,0.3,0.6,0.3h6.5c0.3,0,0.5-0.1,0.6-0.3s0.3-0.4,0.3-0.6c0-0.3-0.1-0.5-0.3-0.6
					c-0.2-0.2-0.4-0.3-0.6-0.3h-6.5c-0.3,0-0.5,0.1-0.6,0.3s-0.3,0.4-0.3,0.6C827.5,571.2,827.6,571.6,827.7,571.7z"/>
			</g>
		</g>
	</g>
	<g transform="matrix( 1, 0, 0, 1, -287.6,-198.6) ">
		<g>
			<g id="Layer8_16_MEMBER_1_FILL_18_">
				<path fill="#83C2EA" d="M831.6,575.2c0.3,0,0.5-0.1,0.6-0.3s0.3-0.4,0.3-0.6v-6.6c0-0.6-0.3-0.8-0.9-0.8c-0.6,0-0.9,0.3-0.9,0.8
					v6.6c0,0.3,0.1,0.5,0.3,0.6C831.2,575.2,831.4,575.2,831.6,575.2z"/>
			</g>
		</g>
	</g>
</g>
<g>
	<g transform="matrix( 1, 0, 0, 1, -287.6,-198.6) ">
		<g>
			<g id="Layer8_16_MEMBER_0_FILL_17_">
				<path fill="#83C2EA" d="M522.6,351.7c0.2,0.2,0.4,0.3,0.6,0.3h6.5c0.3,0,0.5-0.1,0.6-0.3c0.2-0.2,0.3-0.4,0.3-0.6
					s-0.1-0.5-0.3-0.6c-0.2-0.2-0.4-0.3-0.6-0.3h-6.5c-0.3,0-0.5,0.1-0.6,0.3c-0.2,0.2-0.3,0.4-0.3,0.6S522.4,351.6,522.6,351.7z"/>
			</g>
		</g>
	</g>
	<g transform="matrix( 1, 0, 0, 1, -287.6,-198.6) ">
		<g>
			<g id="Layer8_16_MEMBER_1_FILL_17_">
				<path fill="#83C2EA" d="M526.5,355.2c0.3,0,0.5-0.1,0.6-0.3s0.3-0.4,0.3-0.6v-6.6c0-0.6-0.3-0.8-0.9-0.8c-0.6,0-0.9,0.3-0.9,0.8
					v6.6c0,0.3,0.1,0.5,0.3,0.6C526,355.2,526.3,355.2,526.5,355.2z"/>
			</g>
		</g>
	</g>
</g>
<g transform="matrix( 1, 0, 0, 1, -287.6,-198.6) ">
	<g>
		<g id="Layer8_19_FILL_13_">
			<path fill="#BFBEBE" d="M759.5,220.6l-2.8,4.8l2.8,4.8h5.5l2.8-4.8l-2.8-4.8H759.5 M760.4,228.9l-2-3.5l2-3.5h4l2,3.5l-2,3.5
				H760.4z"/>
		</g>
	</g>
</g>
<g transform="matrix( 1, 0, 0, 1, -287.6,-198.6) ">
	<g>
		<g id="Layer8_19_FILL_12_">
			<path fill="#BFBEBE" d="M403.7,437.6l-2.8,4.8l2.8,4.8h5.5l2.8-4.8l-2.8-4.8H403.7 M404.5,445.9l-2-3.5l2-3.5h4l2,3.5l-2,3.5
				H404.5z"/>
		</g>
	</g>
</g>
<g transform="matrix( 1, 0, 0, 1, -287.6,-198.6) ">
	<g>
		<g id="Layer8_3_FILL_9_">
			<path fill="#B9D432" d="M473,237.4c0-0.5-0.2-0.9-0.6-1.2c-0.4-0.4-0.7-0.6-1.2-0.6c-0.5,0-0.9,0.2-1.3,0.6
				c-0.4,0.4-0.6,0.7-0.6,1.2s0.2,0.9,0.6,1.3c0.4,0.4,0.7,0.5,1.3,0.5c0.5,0,0.9-0.2,1.2-0.5C472.8,238.3,473,237.8,473,237.4z"/>
		</g>
	</g>
</g>
<g transform="matrix( 1, 0, 0, 1, -287.6,-198.6) ">
	<g>
		<g id="Layer8_3_FILL_12_">
			<path fill="#B9D432" d="M1006.2,468.4c0-0.5-0.2-0.9-0.6-1.2c-0.4-0.4-0.7-0.6-1.2-0.6s-0.9,0.2-1.3,0.6
				c-0.4,0.4-0.6,0.7-0.6,1.2c0,0.5,0.2,0.9,0.6,1.3c0.4,0.4,0.7,0.5,1.3,0.5c0.5,0,0.9-0.2,1.2-0.5
				C1006,469.3,1006.2,468.8,1006.2,468.4z"/>
		</g>
	</g>
</g>
<g transform="matrix( 1, 0, 0, 1, -287.6,-198.6) ">
	<g>
		<g id="Layer8_8_FILL_22_">
			<path fill="#DEDEDD" d="M911,520.2c-0.4-0.4-0.7-0.5-1.3-0.5c-0.5,0-0.9,0.2-1.3,0.5c-0.4,0.4-0.5,0.8-0.5,1.3s0.2,0.9,0.5,1.3
				c0.4,0.4,0.7,0.6,1.3,0.6c0.5,0,0.9-0.2,1.3-0.6s0.6-0.7,0.6-1.3C911.5,521,911.4,520.7,911,520.2z"/>
		</g>
	</g>
</g>
<g transform="matrix( 1, 0, 0, 1, -287.6,-198.6) ">
	<g>
		<path id="Layer8_12_1_STROKES_16_" fill="none" stroke="#BFBEBE" stroke-width="2" stroke-miterlimit="10" d="M615.6,574.3
			c0,0.8-0.3,1.6-0.9,2.1c-0.6,0.6-1.3,0.8-2.1,0.8s-1.5-0.3-2.1-0.8c-0.6-0.6-0.9-1.3-0.9-2.1c0-0.8,0.3-1.5,0.9-2.1
			c0.6-0.6,1.3-0.8,2.1-0.8c0.8,0,1.6,0.3,2.1,0.8C615.2,572.7,615.6,573.5,615.6,574.3z"/>
	</g>
</g>
<g>
	<g transform="matrix( 1, 0, 0, 1, -287.6,-198.6) ">
		<g>
			<g id="Layer8_16_MEMBER_0_FILL_20_">
				<path fill="#83C2EA" d="M374.5,527c0.2,0.2,0.4,0.3,0.6,0.3h6.5c0.3,0,0.5-0.1,0.6-0.3s0.3-0.4,0.3-0.6s-0.1-0.5-0.3-0.6
					c-0.2-0.2-0.4-0.3-0.6-0.3h-6.5c-0.3,0-0.5,0.1-0.6,0.3c-0.2,0.2-0.3,0.4-0.3,0.6S374.3,526.9,374.5,527z"/>
			</g>
		</g>
	</g>
	<g transform="matrix( 1, 0, 0, 1, -287.6,-198.6) ">
		<g>
			<g id="Layer8_16_MEMBER_1_FILL_20_">
				<path fill="#83C2EA" d="M378.4,530.5c0.3,0,0.5-0.1,0.6-0.3s0.3-0.4,0.3-0.6v-6.6c0-0.6-0.3-0.8-0.9-0.8c-0.6,0-0.9,0.3-0.9,0.8
					v6.6c0,0.3,0.1,0.5,0.3,0.6C377.9,530.5,378.2,530.5,378.4,530.5z"/>
			</g>
		</g>
	</g>
</g>
<g transform="matrix( 1, 0, 0, 1, -287.6,-198.6) ">
	<g>
		<g id="Layer8_19_FILL_11_">
			<path fill="#BFBEBE" d="M897.8,547.3l-2.8,4.8l2.8,4.8h5.5l2.8-4.8l-2.8-4.8H897.8 M898.6,555.6l-2-3.5l2-3.5h4l2,3.5l-2,3.5
				H898.6z"/>
		</g>
	</g>
</g>
<g>
	<circle fill="none" stroke="#A3A3A3" stroke-miterlimit="10" cx="107.4" cy="94.1" r="60.6"/>
	<circle fill="#F05923" cx="107.4" cy="94.1" r="51.6"/>
	<g>
		<g>
			<path fill="#FFFFFF" d="M84.3,97v3.7h-5.5v15.4h-4.2v-15.4h-5.5V97H84.3z"/>
			<path fill="#FFFFFF" d="M94,97c3.5,0,7.1,1.2,7.1,5.8c0,2.8-1.5,4.8-4.1,5.2l4.9,8.1h-5.1l-4-7.6h-2.1v7.6h-4.2V97H94z
				 M93.3,104.9c1.9,0,3.4-0.3,3.4-2.1c0-1.6-1.2-2.2-3.2-2.2h-2.9v4.4H93.3z"/>
			<path fill="#FFFFFF" d="M108.1,97v19.1h-4.2V97H108.1z"/>
			<path fill="#FFFFFF" d="M121.7,97l8.3,19.1h-4.8l-1.6-4.1h-7.4l-1.6,4.1H110l8.3-19.1H121.7z M117.5,108.5h4.7l-2.4-5.9
				L117.5,108.5z"/>
			<path fill="#FFFFFF" d="M136.4,97v15.2h7.8v3.9h-12V97H136.4z"/>
		</g>
	</g>
	<g>
		<g>
			<path fill="#FFFFFF" d="M87.9,68.3v3.9h-8.6V76h8v3.9h-8v7.5h-4.2V68.3H87.9z"/>
			<path fill="#FFFFFF" d="M98.5,68.3c3.5,0,7.1,1.2,7.1,5.8c0,2.8-1.5,4.8-4.1,5.2l4.9,8.1h-5.1l-4-7.6h-2.1v7.6h-4.2V68.3H98.5z
				 M97.8,76.2c1.9,0,3.4-0.3,3.4-2.1c0-1.6-1.2-2.2-3.2-2.2h-2.9v4.4H97.8z"/>
			<path fill="#FFFFFF" d="M121.6,68.3v3.9h-8.8v3.6h8.3v3.9h-8.3v3.9h9.3v3.9h-13.5V68.3H121.6z"/>
			<path fill="#FFFFFF" d="M138.6,68.3v3.9h-8.8v3.6h8.3v3.9h-8.3v3.9h9.3v3.9h-13.5V68.3H138.6z"/>
		</g>
	</g>
</g>
<line fill="none" stroke="#A3A3A3" stroke-miterlimit="10" x1="269.1" y1="94.1" x2="167.5" y2="94.1"/>
<circle fill="#FFFFFF" stroke="#A3A3A3" stroke-miterlimit="10" cx="168.2" cy="94.1" r="2"/>
<circle fill="#FFFFFF" stroke="#A3A3A3" stroke-miterlimit="10" cx="268.7" cy="94.1" r="2"/>
</svg>
