<?xml version="1.0" encoding="utf-8"?>
<!-- Generator: Adobe Illustrator 23.0.1, SVG Export Plug-In . SVG Version: 6.00 Build 0)  -->
<svg version="1.1" id="Layer_sad1" xmlns="http://www.w3.org/2000/svg" xmlns:xlink="http://www.w3.org/1999/xlink" x="0px" y="0px"
	 viewBox="0 0 750 400" enable-background="new 0 0 750 400" xml:space="preserve">
<g id="clouds_bits">
	<g transform="matrix( 1, 0, 0, 1, 0,0) ">
		<g>
			<g id="Layer6_0_FILL">
				<path fill="#3D3D3D" fill-opacity="0.1686" d="M671,272.4c-0.1-4.7-1.9-8.8-5.3-12c-3.4-3.3-7.5-5-12.2-5
					c-2.7,0-5.3,0.6-7.7,1.8c-2.3,1.1-4.3,2.7-5.9,4.8c-0.7-1.2-1.6-2.2-2.8-2.9c-1.2-0.8-2.6-1.1-4-1.1c-1.8,0-3.3,0.5-4.8,1.6
					c-1.4,1.1-2.3,2.5-2.7,4.2c-1.2-0.5-2.4-0.7-3.7-0.7c-1.9,0-3.7,0.5-5.4,1.6c-2.4-2.4-5.3-3.6-8.6-3.6c-2.6,0-4.9,0.7-7,2.2
					c-2.1,1.4-3.5,3.3-4.5,5.6c-1.2-1.3-2.6-1.9-4.3-1.9c-1.6,0-2.9,0.5-4.1,1.6c-1.1,1.1-1.8,2.4-1.9,3.9H671 M146.1,330.3
					c-4.3,0-8.3,1.2-11.9,3.7c-3.5,2.4-6,5.5-7.6,9.4c-2-2.1-4.4-3.1-7.3-3.1c-2.6,0-4.9,0.9-6.9,2.8c-1.9,1.8-3,4-3.1,6.6h144.1
					c-0.2-8-3.2-14.9-9-20.5c-5.8-5.7-12.7-8.5-20.7-8.5c-4.6,0-9,1-13.1,3c-4,1.9-7.3,4.6-10.1,8.1c-1.1-2.1-2.7-3.7-4.7-5
					c-2.1-1.3-4.4-1.9-6.8-1.9c-3,0-5.8,0.9-8.1,2.8c-2.3,1.9-3.9,4.2-4.6,7.1c-2-0.8-4.1-1.2-6.3-1.2c-3.4,0-6.4,0.9-9.2,2.8
					c-1.9-1.9-4.1-3.4-6.7-4.5C151.6,330.8,148.9,330.3,146.1,330.3 M429,86.7c-2.5-2.6-5.5-3.8-9-3.8c-1.8,0-3.6,0.4-5.3,1.2
					c-1.6,0.8-3,1.9-4.3,3.3c-2-5.6-5.3-10.1-9.9-13.4c-4.6-3.5-9.8-5.3-15.4-5.3c-3.7,0-7.2,0.8-10.6,2.3c-3.2,1.5-6.1,3.6-8.6,6.4
					c-3.7-2.6-7.6-3.9-12-3.9c-2.8,0-5.5,0.6-8.2,1.8c-0.9-4.1-2.9-7.5-6-10.1c-3.1-2.7-6.6-4-10.6-4c-3.2,0-6.1,0.9-8.8,2.7
					c-2.6,1.8-4.7,4.1-6.1,7.1c-3.6-4.9-8-8.7-13.2-11.5c-5.4-2.9-11-4.3-17-4.3c-10.5,0-19.5,4-27.1,12.1
					c-7.5,8-11.4,17.7-11.6,29.1h187.8C432.9,92.4,431.5,89.3,429,86.7z"/>
				<path fill="#F7571A" d="M669.2,155.6c-0.4,0.4-0.6,0.8-0.6,1.3c0,0.5,0.2,1,0.6,1.4c0.4,0.4,0.8,0.5,1.3,0.5s1-0.2,1.3-0.5
					c0.4-0.4,0.6-0.9,0.6-1.4c0-0.5-0.2-1-0.6-1.3c-0.4-0.4-0.8-0.6-1.3-0.6S669.5,155.2,669.2,155.6 M461.1,160.7
					c0,0.5,0.2,1,0.6,1.4c0.4,0.4,0.8,0.6,1.3,0.6c0.5,0,1-0.2,1.4-0.6c0.4-0.4,0.6-0.8,0.6-1.4c0-0.5-0.2-1-0.6-1.3
					c-0.4-0.4-0.8-0.6-1.4-0.6c-0.5,0-1,0.2-1.3,0.6C461.3,159.7,461.1,160.2,461.1,160.7z"/>
				<path fill="#BAD727" d="M654.4,125.7c-0.4,0.4-0.6,0.8-0.6,1.3s0.2,1,0.6,1.4c0.4,0.4,0.8,0.5,1.3,0.5s1-0.2,1.3-0.5
					c0.4-0.4,0.6-0.8,0.6-1.4s-0.2-1-0.6-1.3c-0.4-0.4-0.8-0.6-1.3-0.6S654.8,125.3,654.4,125.7 M596.9,298.1
					c-0.4,0.4-0.6,0.8-0.6,1.4s0.2,1,0.6,1.4c0.4,0.4,0.8,0.6,1.3,0.6s1-0.2,1.3-0.6c0.4-0.4,0.6-0.9,0.6-1.4s-0.2-1-0.6-1.4
					c-0.4-0.4-0.8-0.5-1.3-0.5S597.3,297.8,596.9,298.1z"/>
				<path fill="#BFBFBF" d="M300,339.2l3,5.2h6l3-5.2l-3-5.2h-6L300,339.2 M308.1,335.4l2.2,3.8l-2.2,3.8h-4.4l-2.2-3.8l2.2-3.8
					H308.1 M206.6,88.6l-3,5.2l3,5.2h6l3.1-5.2l-3.1-5.2H206.6 M205.3,93.8l2.2-3.8h4.4l2.1,3.8l-2.1,3.8h-4.4L205.3,93.8z"/>
				<path fill="#D1D1D1" d="M112.8,239.4c0,1.1,0.4,2,1.1,2.8c0.8,0.7,1.7,1.1,2.8,1.1s2-0.4,2.7-1.1c0.8-0.8,1.1-1.7,1.1-2.8
					c0-1-0.4-1.9-1.1-2.7c-0.7-0.7-1.6-1.1-2.7-1.1c-1.1,0-2,0.4-2.8,1.1C113.1,237.5,112.8,238.4,112.8,239.4z"/>
				<path fill="#83C4EC" d="M183.9,60.9c-0.6,0-1,0.3-1,0.9v2.6h-2.5c-0.3,0-0.5,0.1-0.7,0.3c-0.2,0.2-0.3,0.4-0.3,0.7
					c0,0.3,0.1,0.5,0.3,0.7c0.2,0.2,0.4,0.3,0.7,0.3h2.5v2.6c0,0.3,0.1,0.5,0.3,0.7c0.2,0.2,0.4,0.3,0.7,0.3c0.3,0,0.5-0.1,0.7-0.3
					c0.2-0.2,0.3-0.4,0.3-0.7v-2.6h2.6c0.3,0,0.5-0.1,0.7-0.3c0.2-0.2,0.3-0.4,0.3-0.7c0-0.3-0.1-0.5-0.3-0.7
					c-0.2-0.2-0.4-0.3-0.7-0.3h-2.6v-2.6C184.8,61.2,184.5,60.9,183.9,60.9 M452.4,244.6c-0.2,0.2-0.3,0.4-0.3,0.6v2.6h-2.5
					c-0.6,0-1,0.3-1,0.9c0,0.3,0.1,0.5,0.3,0.6c0.2,0.2,0.4,0.3,0.7,0.3h2.5v2.6c0,0.3,0.1,0.5,0.3,0.7c0.2,0.2,0.4,0.3,0.6,0.3
					s0.5-0.1,0.7-0.3c0.2-0.2,0.3-0.4,0.3-0.7v-2.6h2.5c0.2,0,0.5-0.1,0.7-0.3c0.2-0.2,0.3-0.4,0.3-0.6c0-0.3-0.1-0.5-0.3-0.7
					c-0.2-0.2-0.4-0.2-0.7-0.3H454v-2.6c0-0.3-0.1-0.5-0.3-0.6c-0.2-0.2-0.4-0.3-0.7-0.3S452.5,244.4,452.4,244.6 M571.2,59.5
					c0-0.6-0.3-1-1-1h-2.5V56c0-0.2-0.1-0.5-0.3-0.7c-0.2-0.2-0.4-0.3-0.7-0.3c-0.3,0-0.5,0.1-0.7,0.3c-0.2,0.2-0.3,0.4-0.3,0.7v2.6
					h-2.6c-0.3,0-0.5,0.1-0.7,0.3c-0.2,0.2-0.3,0.4-0.3,0.7s0.1,0.5,0.3,0.7c0.2,0.2,0.4,0.3,0.7,0.3h2.6V63c0,0.6,0.3,1,1,1
					c0.3,0,0.5-0.1,0.7-0.3c0.2-0.2,0.3-0.4,0.3-0.7v-2.5h2.5c0.3,0,0.5-0.1,0.7-0.3C571.1,60,571.2,59.8,571.2,59.5 M652,333
					c-0.2-0.2-0.4-0.3-0.7-0.3h-2.5v-2.6c0-0.3-0.1-0.5-0.3-0.7c-0.2-0.2-0.4-0.3-0.7-0.3c-0.3,0-0.5,0.1-0.6,0.3
					c-0.2,0.2-0.3,0.4-0.3,0.7v2.6h-2.5c-0.6,0-1,0.3-1,1c0,0.3,0.1,0.5,0.3,0.6c0.2,0.2,0.4,0.3,0.7,0.3h2.5v2.5
					c0,0.3,0.1,0.5,0.3,0.7c0.2,0.2,0.4,0.3,0.6,0.3c0.3,0,0.5-0.1,0.7-0.3c0.2-0.2,0.3-0.4,0.3-0.7v-2.5h2.5c0.2,0,0.5-0.1,0.7-0.3
					c0.2-0.2,0.3-0.4,0.3-0.6S652.2,333.3,652,333z"/>
				<path fill="#DEDEDE" d="M574.9,316.8c0,1.1,0.4,2,1.1,2.7c0.8,0.7,1.7,1.1,2.8,1.1c1,0,1.9-0.4,2.7-1.1c0.7-0.7,1.1-1.6,1.1-2.7
					c0-1.1-0.4-2-1.1-2.8c-0.7-0.7-1.6-1.1-2.7-1.1s-2,0.4-2.8,1.1C575.3,314.8,574.9,315.7,574.9,316.8z"/>
			</g>
		</g>
		<g>
			<path id="Layer6_0_1_STROKES" fill="none" stroke="#BFBFBF" stroke-width="2" stroke-miterlimit="10" d="M591.8,46.5
				c0,0.9,0.3,1.7,1,2.3c0.6,0.6,1.4,1,2.3,1c0.9,0,1.6-0.3,2.3-1c0.6-0.6,1-1.4,1-2.3c0-0.9-0.3-1.6-1-2.3s-1.4-1-2.3-1
				c-0.9,0-1.7,0.3-2.3,1C592.1,44.9,591.8,45.6,591.8,46.5z M335.5,323.9c0,0.9,0.3,1.7,1,2.3c0.6,0.6,1.4,1,2.3,1
				c0.9,0,1.7-0.3,2.3-1c0.6-0.6,1-1.4,1-2.3c0-0.9-0.3-1.7-1-2.3c-0.6-0.6-1.4-0.9-2.3-0.9c-0.9,0-1.6,0.3-2.3,0.9
				S335.5,322.9,335.5,323.9z M87,152.3c0,0.9,0.3,1.7,0.9,2.3c0.6,0.6,1.4,0.9,2.3,0.9c0.9,0,1.7-0.3,2.3-0.9s0.9-1.4,0.9-2.3
				c0-0.9-0.3-1.6-0.9-2.3s-1.4-0.9-2.3-0.9c-0.9,0-1.6,0.3-2.3,0.9C87.3,150.6,87,151.4,87,152.3z"/>
		</g>
	</g>
</g>
<g id="laptop">
	<g transform="matrix( 1, 0, 0, 1, 0,0) ">
		<g>
			<g id="Layer5_0_FILL">
				<path fill="#CACACA" d="M440.1,293.2c1.1-1.1,1.8-2.4,2-3.8H109.3c0.3,1.4,0.9,2.7,2,3.8c1.5,1.5,3.2,2.2,5.3,2.2h318.1
					C436.9,295.4,438.6,294.7,440.1,293.2 M442.3,281h-25.6H134.8h-25.6v7c0,0.5,0.1,1,0.2,1.5h332.8c0.1-0.5,0.1-1,0.1-1.6V281
					 M414.9,114.4c-1.2-1.2-2.7-1.8-4.4-1.8h-269c-1.9,0-3.4,0.7-4.8,1.9c-1.3,1.3-1.9,2.9-1.9,4.8V281h281.9V118.8
					C416.7,117,416.1,115.6,414.9,114.4 M405.5,125.1v143.6H146.1V125.1H405.5z"/>
				<path fill="#FFFFFF" d="M405.5,268.8V125.1H146.1v143.6H405.5z"/>
			</g>
		</g>
		<g>
			<path id="Layer5_0_1_STROKES" fill="none" stroke="#000000" stroke-miterlimit="10" d="M416.7,281V118.8c0-1.7-0.6-3.2-1.8-4.3
				c-1.2-1.2-2.7-1.8-4.4-1.8h-269c-1.9,0-3.4,0.7-4.8,1.9c-1.3,1.3-1.9,2.9-1.9,4.8V281H416.7h25.6v6.9c0,0.6,0,1.1-0.1,1.6
				c-0.3,1.4-1,2.6-2,3.8c-1.5,1.5-3.3,2.2-5.4,2.2H116.6c-2,0-3.8-0.7-5.3-2.2c-1.1-1.1-1.7-2.3-2-3.8c-0.1-0.5-0.2-1-0.2-1.5v-7
				h25.6 M146.1,268.8h259.4V125.1H146.1V268.8z M109.3,289.5h332.8"/>
		</g>
	</g>
</g>
<g id="screen">
	<g transform="matrix( 1, 0, 0, 1, 0,0) ">
		<g>
			<g id="Layer4_0_FILL">
				<path fill="#FFFFFF" d="M393,158.2v-23.6H157.2v23.6H393 M169.2,149h211.2H169.2 M169.2,144.2h211.2H169.2 M196.6,179.6H158
					v38.6h38.6V179.6 M245.6,179.6H207v38.6h38.6V179.6 M294.6,179.6H256v38.6h38.6V179.6 M343.6,218.2v-38.6H305v38.6H343.6
					 M392.6,179.6H354v38.6h38.6V179.6z"/>
				<path fill="#BAD727" d="M245.6,229.1v-6.6H207v6.6H245.6 M294.6,229.1v-6.6H256v6.6H294.6 M158,222.4v6.6h38.6v-6.6H158
					 M343.6,229.1v-6.6H305v6.6H343.6 M392.6,229.1v-6.6H354v6.6H392.6z"/>
			</g>
		</g>
		<g>
			<path id="Layer4_0_1_STROKES" fill="none" stroke="#2C538A" stroke-miterlimit="3" d="M157.2,134.6H393v23.6H157.2V134.6z
				 M354,179.6h38.6v38.6H354V179.6z M354,222.4h38.6v6.6H354V222.4z M305,222.4h38.6v6.6H305V222.4z M386.6,233.4H354 M387.2,241.4
				H354 M389.2,249.4H354 M392.6,245.4H354 M392.6,237.4H354 M305,179.6h38.6v38.6H305V179.6z M256,179.6h38.6v38.6H256V179.6z
				 M207,179.6h38.6v38.6H207V179.6z M158,222.4h38.6v6.6H158V222.4z M256,222.4h38.6v6.6H256V222.4z M207,222.4h38.6v6.6H207V222.4
				z M292.4,249.4H256 M289,245.4h-33 M292.2,237.4H256 M294.6,241.4H256 M294.6,233.4H256 M240.8,241.4H207 M234.2,249.4H207
				 M243,233.4h-36 M245.6,237.4H207 M245.6,245.4H207 M176,249.4h-18 M185.8,245.4H158 M194.8,241.4H158 M192.6,237.4H158
				 M196.6,233.4H158 M158,179.6h38.6v38.6H158V179.6z M339.2,249.4H305 M341,245.4h-36 M342,241.4h-37 M339.6,237.4H305
				 M343.6,233.4H305 M152.4,164h247.2"/>
		</g>
		<g>
			<path id="Layer4_0_2_STROKES" fill="none" stroke="#000000" stroke-miterlimit="3" d="M169.2,149h211.2 M169.2,144.2h211.2"/>
		</g>
	</g>
</g>
<g id="circles">
	<g transform="matrix( 1, 0, 0, 1, 0,0) ">
		<g>
			<g id="Layer3_0_FILL">
				<path fill="#BAD727" d="M478.3,271.4c-5.2,10.2-6,20.7-2.5,31.5c3.5,10.8,10.3,18.8,20.4,24c10.2,5.2,20.7,6.1,31.5,2.6
					c10.8-3.5,18.9-10.3,24.1-20.5c5.2-10.1,6-20.6,2.5-31.5s-10.3-18.9-20.5-24c-10.1-5.2-20.6-6.1-31.4-2.6
					C491.5,254.4,483.5,261.2,478.3,271.4z"/>
				<path fill="#F7571A" d="M553.5,135.9c-13,6.7-21.8,17-26.3,30.9s-3.4,27.4,3.3,40.5c6.7,13,17,21.8,30.9,26.3
					c14,4.5,27.5,3.4,40.6-3.3c13-6.7,21.8-17,26.3-30.9c4.5-14,3.4-27.5-3.3-40.6c-6.7-13-17.1-21.8-31-26.3
					C580,128.1,566.5,129.2,553.5,135.9z"/>
				<path fill="#2C538A" d="M527.3,73.1c-3.5-11-10.5-19.2-20.8-24.4c-10.3-5.3-21-6.2-32-2.6c-11,3.6-19.2,10.5-24.5,20.8
					c-5.3,10.3-6.2,21-2.6,32.1c3.6,11,10.5,19.1,20.8,24.4c10.3,5.3,21,6.2,32.1,2.6c11-3.6,19.2-10.5,24.5-20.8
					C530,94.8,530.8,84.1,527.3,73.1z"/>
			</g>
		</g>
		<g>
			<path id="Layer3_0_1_STROKES" fill="none" stroke="#A3A3A3" stroke-miterlimit="10" d="M596.3,124.9c-16-5.2-31.6-3.9-46.6,3.8
				c-15,7.6-25.1,19.5-30.3,35.6c-3.4,10.5-4,20.8-1.9,30.9 M532.8,71.3c4,12.6,3.1,24.8-2.9,36.5c-6,11.8-15.3,19.7-27.9,23.8
				c-12.6,4-24.8,3-36.5-3c-11.7-6-19.6-15.3-23.7-27.9c-4-12.6-3-24.7,3-36.5c6-11.7,15.3-19.6,27.9-23.7 M469.5,304.8
				c-4-12.5-3-24.5,3-36.2c5.9-11.7,15.1-19.5,27.6-23.6c12.5-4,24.5-3.1,36.2,2.9c11.7,6,19.5,15.2,23.5,27.6
				c4,12.5,3,24.6-2.9,36.3c-6,11.7-15.2,19.5-27.7,23.5 M518.2,197.6c1.2,4.4,2.9,8.9,5.1,13.3c7.6,15,19.5,25.1,35.5,30.3
				c16.1,5.2,31.6,3.9,46.6-3.8c15-7.7,25.1-19.6,30.3-35.6"/>
		</g>
	</g>
</g>
<g id="connectors">
	<g transform="matrix( 1, 0, 0, 1, 0,0) ">
		<g>
			<g id="Layer2_0_FILL">
				<path fill="#FEFEFE" d="M449.1,112.6c-0.3-0.3-0.6-0.5-1-0.5c-0.4,0-0.8,0.2-1.1,0.5c-0.3,0.3-0.4,0.6-0.4,1
					c0,0.4,0.1,0.8,0.4,1.1c0.2,0.2,0.5,0.4,0.9,0.4c0,0,0.1,0,0.1,0c0.4,0,0.7-0.1,1-0.4c0.3-0.3,0.4-0.7,0.4-1.1
					C449.5,113.2,449.4,112.8,449.1,112.6 M468.3,274.4c0,0.1,0,0.1,0,0.1c0,0.4,0.2,0.7,0.4,0.9c0.3,0.3,0.6,0.4,1,0.4
					c0.4,0,0.8-0.1,1-0.4c0.3-0.3,0.5-0.6,0.5-1.1c0-0.4-0.1-0.7-0.5-1c-0.3-0.3-0.6-0.4-1-0.4c-0.4,0-0.8,0.1-1,0.4
					C468.4,273.7,468.3,274,468.3,274.4 M402.9,194.3c-0.6,0.6-1,1.4-1,2.2s0.3,1.6,1,2.2c0.6,0.6,1.4,0.9,2.2,0.9
					c0.8,0,1.6-0.3,2.2-0.9c0.6-0.6,0.9-1.4,0.9-2.2c0-0.1,0-0.1,0-0.2c0-0.8-0.3-1.4-0.9-2c-0.6-0.6-1.4-0.9-2.2-0.9
					C404.2,193.4,403.5,193.7,402.9,194.3 M516.3,196.1c0,0.1,0,0.1,0,0.2c0,0.1,0,0.3,0.1,0.4l0.1,0.3c0,0,0,0.1,0,0.1
					c0,0,0.1,0.1,0.2,0.1c0.3,0.3,0.7,0.5,1.2,0.5c0.3,0,0.5-0.1,0.7-0.1c0.2-0.1,0.4-0.2,0.5-0.4c0.3-0.3,0.5-0.6,0.5-1.1
					c0-0.4-0.2-0.8-0.5-1.1c-0.3-0.3-0.7-0.5-1.2-0.5c-0.4,0-0.8,0.2-1.2,0.5C516.5,195.3,516.3,195.7,516.3,196.1L516.3,196.1z"/>
			</g>
		</g>
		<g>
			<path id="Layer2_0_1_STROKES" fill="none" stroke="#A3A3A3" stroke-miterlimit="10" d="M517.9,194.5c-0.4,0-0.8,0.2-1.2,0.5
				c-0.3,0.3-0.4,0.7-0.4,1.1v0c0,0.1,0,0.1,0,0.2c0,0.1,0,0.3,0.1,0.4l0.1,0.3c0,0,0,0.1,0,0.1c0,0,0.1,0.1,0.2,0.1
				c0.3,0.3,0.7,0.5,1.2,0.5c0.3,0,0.5-0.1,0.7-0.1c0.2-0.1,0.4-0.2,0.5-0.4c0.3-0.3,0.5-0.6,0.5-1.1c0-0.4-0.2-0.8-0.5-1.1
				C518.8,194.7,518.4,194.5,517.9,194.5z M408.1,196.3c0-0.8-0.3-1.4-0.9-2c-0.6-0.6-1.4-0.9-2.2-0.9c-0.8,0-1.6,0.3-2.2,0.9
				c-0.6,0.6-1,1.4-1,2.2s0.3,1.6,1,2.2c0.6,0.6,1.4,0.9,2.2,0.9c0.8,0,1.6-0.3,2.2-0.9c0.6-0.6,0.9-1.4,0.9-2.2
				C408.1,196.4,408.1,196.4,408.1,196.3h31.6c2.2-0.1,4.1-1,5.7-2.6c0.3-0.3,0.6-0.7,1-1.1c0.5-0.7,0.9-1.4,1.1-2.3
				c0.1-0.2,0.1-0.4,0.2-0.6c0.1-0.6,0.2-1.3,0.2-2v-72.8c-0.4,0-0.7-0.2-0.9-0.4c-0.3-0.3-0.4-0.7-0.4-1.1c0-0.4,0.1-0.8,0.4-1
				c0.3-0.3,0.6-0.5,1.1-0.5c0.4,0,0.7,0.2,1,0.5c0.3,0.3,0.4,0.6,0.4,1c0,0.4-0.1,0.8-0.4,1.1c-0.3,0.3-0.6,0.4-1,0.4
				c-0.1,0-0.1,0-0.1,0 M468.3,274.5h-11.9c-2.3,0-4.3-0.8-6-2.4c-1.6-1.6-2.4-3.6-2.4-6v-61.3c0-0.7-0.1-1.4-0.2-2
				c-0.1-0.2-0.1-0.4-0.1-0.6c-0.3-0.8-0.7-1.5-1.1-2.3c-0.3-0.4-0.6-0.8-1-1.1c-1.6-1.6-3.5-2.4-5.7-2.6h76.5 M468.3,274.5
				c0,0.4,0.2,0.7,0.4,0.9c0.3,0.3,0.6,0.4,1,0.4c0.4,0,0.8-0.1,1-0.4c0.3-0.3,0.5-0.6,0.5-1.1c0-0.4-0.1-0.7-0.5-1
				c-0.3-0.3-0.6-0.4-1-0.4c-0.4,0-0.8,0.1-1,0.4c-0.3,0.3-0.4,0.6-0.4,1C468.3,274.5,468.3,274.5,468.3,274.5z"/>
		</g>
	</g>
</g>
<g id="icons">
	<g transform="matrix( 1, 0, 0, 1, 0,0) ">
		<g>
			<path id="Layer1_0_1_STROKES" fill="none" stroke="#FFFFFF" stroke-linecap="round" stroke-linejoin="round" d="M550.7,161.2
				c0-1.3,1.8-2.5,5.3-3.4c3.5-0.9,7.7-1.4,12.6-1.4c5,0,9.2,0.5,12.7,1.4c3.4,0.9,5.2,2.1,5.2,3.4v0.1v7.1v7.2v7.1v4.8
				c0.4,0,0.8,0,1.3,0c4.9,0,9.1,0.5,12.6,1.4c3.5,0.9,5.3,2.1,5.3,3.4v0.1v7.2v7.1c0,1.3-1.8,2.4-5.3,3.4c-3.5,1-7.7,1.4-12.6,1.4
				c-5,0-9.2-0.5-12.7-1.4c-3.5-0.9-5.3-2-5.3-3.4v-4.7h-1.2c-5,0-9.2-0.5-12.6-1.4c-3.5-0.9-5.3-2.1-5.3-3.4v-7.1v-7.2v-7.1v-7.2
				V161.2L550.7,161.2z M586.5,161.3c0,1.3-1.8,2.3-5.2,3.3c-3.5,0.9-7.7,1.4-12.7,1.4c-5,0-9.2-0.5-12.6-1.4
				c-3.5-0.9-5.2-2-5.3-3.3 M586.5,168.4c0,1.3-1.8,2.4-5.2,3.3c-3.5,1-7.7,1.4-12.7,1.4c-5,0-9.2-0.5-12.6-1.4
				c-3.5-0.9-5.2-2-5.3-3.3 M586.5,182.7c0,1.3-1.8,2.4-5.2,3.4c-3.5,0.9-7.7,1.4-12.7,1.4c-5,0-9.2-0.5-12.6-1.4
				c-3.5-0.9-5.2-2.1-5.3-3.4 M550.7,189.9c0,1.2,1.8,2.3,5.3,3.3c3.5,0.9,7.7,1.4,12.6,1.4h1.2v-2.3v-0.1c0-1.3,1.8-2.5,5.3-3.4
				c3.3-0.8,7.1-1.3,11.5-1.4 M586.5,175.6c0,1.3-1.8,2.4-5.2,3.3c-3.5,0.9-7.7,1.4-12.7,1.4c-5,0-9.2-0.5-12.6-1.4
				c-3.5-0.9-5.2-2-5.3-3.3 M605.6,192.3c-0.1,1.3-1.8,2.4-5.3,3.3c-3.5,0.9-7.7,1.4-12.6,1.4c-5,0-9.2-0.5-12.7-1.4
				c-3.4-0.9-5.2-2-5.3-3.3 M605.6,199.4c-0.1,1.2-1.8,2.3-5.3,3.3c-3.5,0.9-7.7,1.4-12.6,1.4c-5,0-9.2-0.5-12.7-1.4
				c-3.4-0.9-5.2-2-5.3-3.3v2.4 M569.8,199.4v-4.9 M472.2,71.3c-0.7,0.7-1.5,1-2.5,1c-1,0-1.8-0.3-2.5-1c-0.7-0.7-1.1-1.5-1.1-2.5
				c0-1,0.4-1.8,1.1-2.6c0.7-0.7,1.5-1.1,2.5-1.1c1,0,1.9,0.3,2.5,1.1s1,1.6,1,2.6C473.3,69.8,472.9,70.6,472.2,71.3L472.2,71.3
				l4.9,4.8v-3h19.5v2.8l4.6-4.6l0,0c-0.7-0.7-1.1-1.5-1.1-2.5c0-1,0.4-1.8,1.1-2.6c0.7-0.7,1.5-1.1,2.5-1.1c1,0,1.8,0.3,2.5,1.1
				s1,1.6,1,2.6c0,1-0.4,1.8-1,2.5c-0.7,0.7-1.5,1-2.5,1s-1.8-0.3-2.5-1 M496.6,75.9v3.3h-19.5v-3 M473.3,84.9c0,1-0.4,1.8-1,2.5
				s-1.5,1-2.5,1c-1,0-1.8-0.3-2.5-1c-0.7-0.7-1.1-1.5-1.1-2.5c0-1,0.4-1.9,1.1-2.6c0.7-0.7,1.5-1,2.5-1c1,0,1.9,0.3,2.5,1
				S473.3,83.9,473.3,84.9h3.8v-2h19.5v2h3.5c0-1,0.4-1.9,1.1-2.6c0.7-0.7,1.5-1,2.5-1c1,0,1.8,0.3,2.5,1s1,1.6,1,2.6
				c0,1-0.4,1.8-1,2.5s-1.5,1-2.5,1c-1,0-1.9-0.3-2.5-1c-0.7-0.7-1.1-1.5-1.1-2.5 M496.6,95.6v3h-19.5v-3.2 M476,96.6l-3.7,3.8
				c0.7,0.7,1,1.5,1,2.5c0,1-0.4,1.8-1,2.5s-1.5,1.1-2.5,1.1c-1,0-1.8-0.4-2.5-1.1c-0.7-0.7-1.1-1.5-1.1-2.5c0-1,0.4-1.8,1.1-2.6
				c0.7-0.7,1.5-1.1,2.5-1.1c1,0,1.9,0.3,2.5,1.1l0,0.1 M477.1,95.4v-2.9h19.5v3 M497.5,96.6l3.7,3.8v-0.1c0.7-0.7,1.5-1.1,2.5-1.1
				c1,0,1.8,0.3,2.5,1.1s1,1.6,1,2.6c0,1-0.4,1.8-1,2.5s-1.5,1.1-2.5,1.1c-1,0-1.9-0.4-2.5-1.1c-0.7-0.7-1.1-1.5-1.1-2.5
				c0-1,0.4-1.8,1.1-2.5 M496.6,84.9v4h-19.5v-4"/>
		</g>
		<g>
			<path id="Layer1_0_2_STROKES" fill="none" stroke="#FFFFFF" stroke-miterlimit="10" d="M476,96.6l1.1-1.1 M497.5,96.6l-0.9-1"/>
		</g>
		<g>
			<path id="Layer1_0_3_STROKES" fill="none" stroke="#3A6FBB" stroke-linecap="round" stroke-linejoin="round" d="M528.5,267.4
				l-10.5-3.1l-10.5,3.1l10.5,3.2L528.5,267.4v13.8l-10.5,4.3l-10.5-4.3v-13.8 M518,291.7l-12.7-4.2l-12.6,4.2l12.6,4.2L518,291.7
				v16.9l-12.7,4.1l-12.6-4.1v-16.9 M518,270.6v14.8 M539.1,289.5l-8.4,3.2v10.5l8.4-4.2V289.5l-8.4-3.1l-8.5,3.1l8.5,3.2
				 M522.2,289.5v9.6l8.5,4.2 M505.4,295.9v16.9"/>
		</g>
	</g>
</g>
</svg>
