<?xml version="1.0" encoding="utf-8"?>
<!-- Generator: Adobe Illustrator 23.0.1, SVG Export Plug-In . SVG Version: 6.00 Build 0)  -->
<svg version="1.1" id="Layer_q	we1" xmlns="http://www.w3.org/2000/svg" xmlns:xlink="http://www.w3.org/1999/xlink" x="0px" y="0px"
	 viewBox="0 0 750 400" enable-background="new 0 0 750 400" xml:space="preserve">
<g id="clouds_bits_copy_4">
	<g transform="matrix( 1, 0, 0, 1, 0,0) ">
		<g>
			<g id="Layer5_0_FILL">
				<path fill="#BFBFBF" d="M70.1,279l-3-5.2H61l-3,5.2l3,5.2h6.1L70.1,279 M66.2,275.3l2.2,3.8l-2.2,3.8h-4.3l-2.2-3.8l2.2-3.8
					H66.2 M677,84.7h-6l-3,5.2l3,5.2h6l3-5.2L677,84.7 M671.8,86.2h4.3l2.2,3.8l-2.2,3.8h-4.3l-2.2-3.8L671.8,86.2z"/>
				<path fill="#F7571A" d="M618.5,100.6c0-0.5-0.2-1-0.6-1.3c-0.4-0.4-0.8-0.6-1.4-0.6c-0.5,0-1,0.2-1.3,0.6
					c-0.4,0.4-0.5,0.8-0.5,1.3c0,0.5,0.2,1,0.5,1.3c0.4,0.4,0.8,0.6,1.3,0.6c0.5,0,1-0.2,1.4-0.6
					C618.3,101.6,618.5,101.1,618.5,100.6 M509.9,165.1c0.4-0.4,0.6-0.9,0.6-1.4s-0.2-1-0.6-1.4c-0.4-0.4-0.8-0.5-1.4-0.5
					c-0.5,0-1,0.2-1.3,0.5c-0.4,0.4-0.6,0.8-0.6,1.4s0.2,1,0.6,1.4c0.4,0.4,0.8,0.6,1.3,0.6C509.1,165.7,509.5,165.5,509.9,165.1z"
					/>
				<path fill="#DEDEDE" d="M681.5,282.5c-0.4-0.4-0.8-0.5-1.4-0.5c-0.5,0-1,0.2-1.3,0.5c-0.4,0.4-0.5,0.9-0.5,1.4
					c0,0.5,0.2,1,0.5,1.4s0.8,0.5,1.3,0.5c0.5,0,1-0.2,1.4-0.5c0.4-0.4,0.5-0.8,0.5-1.4C682,283.4,681.9,282.9,681.5,282.5
					 M227.8,267.3c-0.8-0.7-1.7-1.1-2.8-1.1c-1.1,0-2,0.4-2.7,1.1c-0.7,0.8-1.1,1.7-1.1,2.8c0,1.1,0.4,2,1.1,2.7
					c0.8,0.7,1.7,1.1,2.7,1.1c1.1,0,2-0.4,2.8-1.1c0.7-0.7,1.1-1.6,1.1-2.7C228.9,269,228.5,268.1,227.8,267.3 M485,215.3
					c-0.5,0-1,0.2-1.4,0.6c-0.4,0.4-0.6,0.9-0.6,1.4c0,0.5,0.2,1,0.6,1.4c0.4,0.4,0.8,0.5,1.4,0.5c0.5,0,1-0.2,1.4-0.5
					c0.4-0.4,0.5-0.8,0.5-1.4s-0.2-1-0.5-1.4C486,215.5,485.5,215.3,485,215.3z"/>
				<path fill="#BAD727" d="M201.1,93.2c0-0.5-0.2-1-0.5-1.3c-0.4-0.4-0.8-0.6-1.4-0.6s-1,0.2-1.4,0.6c-0.4,0.4-0.6,0.8-0.6,1.3
					c0,0.5,0.2,1,0.6,1.4c0.4,0.4,0.8,0.5,1.4,0.5s1-0.2,1.4-0.5C201,94.2,201.1,93.7,201.1,93.2 M256.9,264c0-0.5-0.2-1-0.6-1.3
					c-0.4-0.4-0.8-0.6-1.4-0.6s-1,0.2-1.3,0.6s-0.6,0.8-0.6,1.3c0,0.5,0.2,1,0.6,1.4c0.4,0.4,0.8,0.6,1.3,0.6s1-0.2,1.4-0.6
					C256.6,265,256.9,264.6,256.9,264z"/>
				<path fill="#3D3D3D" fill-opacity="0.1686" d="M147.4,301.9c-1.6-2-3.6-3.6-5.9-4.8c-2.4-1.2-5-1.8-7.7-1.8
					c-4.7,0-8.8,1.7-12.2,5c-3.4,3.3-5.1,7.3-5.3,12.1h84.8c-0.1-1.5-0.8-2.8-1.9-3.9c-1.1-1.1-2.5-1.6-4.1-1.6
					c-1.7,0-3.1,0.6-4.3,1.9c-0.9-2.3-2.4-4.2-4.4-5.6c-2.1-1.4-4.4-2.1-7-2.1c-3.4,0-6.3,1.2-8.6,3.5c-1.7-1.1-3.5-1.6-5.4-1.6
					c-1.3,0-2.5,0.2-3.7,0.7c-0.4-1.7-1.3-3.1-2.7-4.2c-1.4-1.1-3-1.7-4.8-1.7c-1.4,0-2.8,0.4-4,1.2
					C149.1,299.6,148.1,300.6,147.4,301.9 M473.4,286.4c-4.1-2-8.5-3-13.1-3c-8,0-14.9,2.8-20.7,8.5c-5.8,5.6-8.8,12.5-9,20.5h144.1
					c-0.2-2.6-1.2-4.8-3.2-6.6c-2-1.8-4.3-2.8-6.9-2.8c-2.9,0-5.4,1.1-7.4,3.1c-1.5-3.9-4-7-7.5-9.4c-3.6-2.5-7.5-3.7-11.8-3.7
					c-2.8,0-5.5,0.6-8.1,1.6c-2.5,1-4.8,2.5-6.6,4.5c-2.8-1.8-5.8-2.8-9.2-2.8c-2.1,0-4.2,0.4-6.3,1.2c-0.7-2.9-2.2-5.2-4.6-7.1
					c-2.4-1.9-5.1-2.8-8.1-2.8c-2.4,0-4.7,0.6-6.8,1.9c-2,1.2-3.6,2.9-4.7,5C480.7,291,477.4,288.3,473.4,286.4 M498.8,124.3
					c-0.2-11.4-4.1-21.1-11.6-29.1c-7.5-8-16.6-12.1-27.1-12.1c-6,0-11.7,1.4-17,4.3c-5.2,2.8-9.6,6.6-13.2,11.5
					c-1.4-2.9-3.5-5.3-6.1-7.1c-2.7-1.8-5.7-2.7-8.9-2.7c-4,0-7.5,1.3-10.6,4c-3,2.6-5,6-6,10.1c-2.7-1.2-5.4-1.8-8.2-1.8
					c-4.3,0-8.3,1.3-12,3.9c-2.5-2.7-5.4-4.8-8.6-6.3c-3.4-1.5-6.9-2.3-10.6-2.3c-5.7,0-10.8,1.8-15.5,5.3
					c-4.5,3.4-7.8,7.9-9.9,13.5c-1.2-1.4-2.6-2.5-4.3-3.3c-1.7-0.8-3.5-1.2-5.3-1.2c-3.5,0-6.5,1.3-9,3.8c-2.5,2.6-3.9,5.7-4.1,9.4
					H498.8z"/>
				<path fill="#83C4EC" d="M510.2,255.1c-0.2-0.2-0.4-0.3-0.7-0.3H507v-2.6c0-0.6-0.3-0.9-1-0.9s-1,0.3-1,0.9v2.6h-2.5
					c-0.3,0-0.5,0.1-0.7,0.3c-0.2,0.2-0.3,0.4-0.3,0.6s0.1,0.5,0.3,0.7c0.2,0.2,0.4,0.3,0.7,0.3h2.5v2.6c0,0.3,0.1,0.5,0.3,0.7
					c0.2,0.2,0.4,0.3,0.7,0.3s0.5-0.1,0.7-0.3c0.2-0.2,0.3-0.4,0.3-0.7v-2.6h2.5c0.3,0,0.5-0.1,0.7-0.3c0.2-0.2,0.3-0.4,0.3-0.7
					S510.4,255.3,510.2,255.1 M507.5,72.6c0.2-0.2,0.3-0.4,0.3-0.7c0-0.6-0.3-0.9-1-0.9h-2.5v-2.6c0-0.2-0.1-0.4-0.3-0.7
					c-0.2-0.2-0.4-0.3-0.6-0.3s-0.5,0.1-0.7,0.3c-0.2,0.2-0.3,0.4-0.3,0.7V71h-2.5c-0.3,0-0.5,0.1-0.7,0.3c-0.2,0.2-0.3,0.4-0.3,0.7
					c0,0.3,0.1,0.5,0.3,0.7c0.2,0.2,0.4,0.3,0.7,0.3h2.5v2.5c0,0.3,0.1,0.5,0.3,0.7c0.2,0.2,0.4,0.3,0.7,0.3s0.5-0.1,0.6-0.3
					c0.2-0.2,0.3-0.4,0.3-0.7v-2.5h2.5C507,72.9,507.3,72.8,507.5,72.6 M302.3,336.1c0.2,0.2,0.4,0.3,0.7,0.3h2.5v2.5
					c0,0.3,0.1,0.5,0.3,0.6c0.2,0.2,0.4,0.3,0.7,0.3c0.3,0,0.5-0.1,0.7-0.3c0.2-0.2,0.3-0.4,0.3-0.6v-2.5h2.5c0.3,0,0.5-0.1,0.6-0.3
					c0.2-0.2,0.3-0.4,0.3-0.7c0-0.2-0.1-0.5-0.3-0.7c-0.2-0.2-0.4-0.3-0.6-0.3h-2.5V332c0-0.3-0.1-0.5-0.3-0.7
					c-0.2-0.2-0.4-0.3-0.7-0.3c-0.3,0-0.5,0.1-0.7,0.3c-0.2,0.2-0.3,0.4-0.3,0.7v2.5H303c-0.3,0-0.5,0.1-0.7,0.3
					c-0.2,0.2-0.3,0.4-0.3,0.7C302,335.7,302.1,335.9,302.3,336.1 M223.4,72.9h2.6c0.3,0,0.5-0.1,0.6-0.3c0.2-0.2,0.3-0.4,0.3-0.7
					c0-0.3-0.1-0.5-0.3-0.7c-0.2-0.2-0.4-0.3-0.6-0.3h-2.6v-2.6c0-0.3-0.1-0.5-0.3-0.7c-0.2-0.2-0.4-0.3-0.7-0.3
					c-0.2,0-0.4,0.1-0.6,0.3c-0.2,0.2-0.3,0.4-0.3,0.7V71h-2.6c-0.6,0-0.9,0.3-0.9,0.9c0,0.3,0.1,0.5,0.3,0.7
					c0.2,0.2,0.4,0.3,0.7,0.3h2.6v2.5c0,0.3,0.1,0.5,0.3,0.7c0.2,0.2,0.4,0.3,0.6,0.3c0.6,0,0.9-0.3,0.9-1V72.9z"/>
				<path fill="#D1D1D1" d="M565.6,342.9c-1.1,0-2,0.4-2.7,1.1c-0.8,0.8-1.2,1.7-1.2,2.7c0,1.1,0.4,2,1.2,2.8
					c0.7,0.7,1.6,1.1,2.7,1.1c1.1,0,2-0.4,2.8-1.1c0.7-0.8,1.1-1.7,1.1-2.8s-0.4-2-1.1-2.7C567.6,343.3,566.7,342.9,565.6,342.9z"/>
			</g>
		</g>
		<g>
			<path id="Layer5_0_1_STROKES" fill="none" stroke="#BFBFBF" stroke-width="2" stroke-miterlimit="10" d="M373.3,320.9
				c0,0.9-0.3,1.7-1,2.3c-0.6,0.6-1.4,1-2.3,1c-0.9,0-1.7-0.3-2.3-1c-0.6-0.6-1-1.4-1-2.3c0-0.9,0.3-1.7,1-2.3s1.4-0.9,2.3-0.9
				c0.9,0,1.6,0.3,2.3,0.9C372.9,319.2,373.3,319.9,373.3,320.9z M252.5,109.1c0,0.9-0.3,1.7-0.9,2.3c-0.6,0.6-1.4,0.9-2.3,0.9
				c-0.9,0-1.7-0.3-2.3-0.9c-0.6-0.6-0.9-1.4-0.9-2.3c0-0.9,0.3-1.6,0.9-2.3c0.6-0.6,1.4-0.9,2.3-0.9c0.9,0,1.6,0.3,2.3,0.9
				C252.2,107.5,252.5,108.2,252.5,109.1z M102.3,89.3c0,0.9-0.3,1.7-0.9,2.3c-0.6,0.6-1.4,0.9-2.3,0.9c-0.9,0-1.6-0.3-2.3-0.9
				c-0.6-0.6-0.9-1.4-0.9-2.3c0-0.9,0.3-1.6,0.9-2.3c0.6-0.6,1.4-0.9,2.3-0.9c0.9,0,1.7,0.3,2.3,0.9
				C101.9,87.7,102.3,88.5,102.3,89.3z"/>
		</g>
	</g>
</g>
<g id="circles">
	<g transform="matrix( 1, 0, 0, 1, 0,0) ">
		<g>
			<g id="Layer4_0_FILL">
				<path fill="#BAD727" d="M687,176.3c-6.5-20-19-34.8-37.7-44.4c-18.8-9.6-38.1-11.1-58.1-4.7c-20,6.5-34.8,19-44.5,37.7
					c-9.6,18.8-11.1,38.1-4.7,58.1c6.4,20,19,34.8,37.7,44.4c18.7,9.6,38.1,11.1,58.1,4.6c20-6.5,34.8-19,44.4-37.7
					C691.9,215.6,693.4,196.3,687,176.3z"/>
				<path fill="#2C538A" d="M218.1,189.1c0-21.2-7.5-39.3-22.4-54.2c-15-15-33.1-22.5-54.3-22.5c-21.1,0-39.2,7.5-54.3,22.5
					c-14.9,14.9-22.4,33-22.4,54.2c0,21.2,7.5,39.3,22.4,54.3c15,14.9,33.1,22.4,54.3,22.4c21.2,0,39.3-7.5,54.3-22.4
					C210.6,228.4,218.1,210.3,218.1,189.1z"/>
			</g>
		</g>
	</g>
</g>
<g id="icons">
	<g transform="matrix( 1, 0, 0, 1, 0,0) ">
		<g>
			
				<path id="Layer3_0_1_STROKES" fill="none" stroke="#FFFFFF" stroke-width="1.5" stroke-linecap="round" stroke-linejoin="round" d="
				M145.4,174.9c0.1-0.5,0.4-0.9,0.8-1.3c0.6-0.7,1.4-1,2.3-1c0.8,0,1.5,0.3,2.2,0.8l15.6-18.2c-0.1-0.1-0.1-0.1-0.2-0.2
				c-0.7-0.7-1-1.5-1-2.4s0.3-1.7,1-2.3c0.6-0.7,1.4-1.1,2.3-1.1s1.7,0.3,2.4,1.1c0.6,0.6,0.9,1.4,0.9,2.3s-0.3,1.7-0.9,2.4
				c-0.7,0.6-1.5,0.9-2.4,0.9c-0.9,0-1.6-0.3-2.1-0.8 M173.4,175.9h-10v49.8h10V175.9z M131.8,170.2c-0.2,0.5-0.4,1-0.8,1.4
				c-0.7,0.6-1.5,0.9-2.4,0.9c-0.8,0-1.6-0.3-2.3-0.9c-0.1-0.1-0.1-0.2-0.2-0.3l-14.8,12.3c0.5,0.6,0.8,1.4,0.8,2.2
				c0,0.9-0.3,1.7-0.9,2.4c-0.7,0.6-1.5,0.9-2.4,0.9c-0.9,0-1.6-0.3-2.3-0.9c-0.6-0.7-0.9-1.5-0.9-2.4c0-0.9,0.3-1.7,0.9-2.4
				c0.7-0.7,1.4-1,2.3-1c0.9,0,1.7,0.3,2.4,1c0.1,0.1,0.1,0.1,0.2,0.2 M126.1,171.4c-0.5-0.6-0.7-1.4-0.7-2.2c0-0.9,0.3-1.7,0.9-2.3
				c0.7-0.7,1.5-1,2.3-1c0.9,0,1.8,0.3,2.4,1c0.6,0.6,0.9,1.4,0.9,2.3c0,0.4,0,0.7-0.1,1 M145.4,174.9c-0.1,0.3-0.2,0.6-0.2,1
				c0,0.9,0.4,1.6,1.1,2.3c0.6,0.6,1.4,0.9,2.3,0.9c0.9,0,1.7-0.3,2.4-0.9c0.6-0.7,1-1.5,1-2.3c0-0.9-0.3-1.7-1-2.3
				c-0.1-0.1-0.1-0.1-0.2-0.2 M133.6,192.4h-10v33.2h10V192.4z M153.5,199.1h-9.9v26.6h9.9V199.1z M133.6,225.6h10 M113.7,209.1
				h-9.9v16.6h9.9V209.1z M100.4,225.6h3.3 M113.7,225.6h10 M173.4,225.6h3.4 M153.5,225.6h9.9"/>
		</g>
		<g>
			<path id="Layer3_0_2_STROKES" fill="none" stroke="#FFFFFF" stroke-width="1.5" stroke-linejoin="round" d="M131.8,170.2
				l13.6,4.7"/>
		</g>
		<g>
			
				<path id="Layer3_0_3_STROKES" fill="none" stroke="#3A6FBB" stroke-width="1.5" stroke-linecap="round" stroke-linejoin="round" d="
				M629,236.1c1.5,0,2.8-0.5,4-1.4c1.1-1,1.8-2.2,2.1-3.7l2.4-13.4c0.5-2.7,2.1-4.1,4.8-4.1s4.4,1.3,4.9,4.1l2.5,13.4
				c0.3,1.5,1,2.7,2.1,3.7c1.1,1,2.5,1.4,4,1.4 M585.9,154.5c-5.7,0-10.5,2-14.6,6.1c-4,4-6,8.9-6,14.6c0,4.4,1.2,8.4,3.7,11.8
				c2.3,3.2,5.3,5.6,9.1,7.1c3.7,1.5,7.5,2,11.5,1.3c4.2-0.7,7.8-2.6,10.9-5.7l-14.5-14.5V154.5z M606.6,187.6c4-4,6.1-8.8,6.1-14.5
				h-20.6L606.6,187.6z M592.1,168.9h20.6c0-5.7-2-10.5-6.1-14.5c-4-4-8.8-6-14.5-6V168.9z M618.7,236.1c1.5,0,2.8-0.5,4-1.4
				c1.1-1,1.8-2.2,2-3.7l2.5-13.4c0.4-1.8,1.4-3,3-3.7c1.7-0.7,3.3-0.5,4.8,0.6 M639,228.9c0.4,2.1,0.8,3.5,1.3,4.4
				c1.1,1.9,2.8,2.8,5.1,2.8 M660.8,242.3h-47.3v-41.1"/>
		</g>
	</g>
</g>
<g id="connectors">
	<g transform="matrix( 1, 0, 0, 1, 0,0) ">
		<g>
			<g id="Layer2_0_FILL">
				<path fill="#FEFEFE" d="M230.3,192.8L230.3,192.8c-0.7,0-1.3,0.3-1.8,0.8c-0.5,0.5-0.8,1.1-0.8,1.8c0,0.7,0.3,1.3,0.8,1.8
					c0.4,0.4,0.8,0.6,1.4,0.7c0.1,0,0.3,0.1,0.4,0.1c0.7,0,1.3-0.3,1.8-0.8c0.4-0.4,0.6-0.9,0.6-1.4c0-0.1,0.1-0.3,0.1-0.4
					c0-0.7-0.3-1.3-0.8-1.8C231.6,193.1,231,192.8,230.3,192.8 M526,191.4c-0.1,0-0.2,0-0.3,0c-0.7,0-1.3,0.2-1.8,0.8l-0.5,0.8
					c-0.1,0.2-0.1,0.4-0.1,0.6c0,0.1,0,0.1,0,0.2v0.3c0,0.7,0.3,1.3,0.8,1.8c0.4,0.5,1,0.8,1.7,0.8c0,0,0.1,0,0.1,0
					c0.7,0,1.3-0.3,1.7-0.8c0.5-0.5,0.8-1.1,0.8-1.8c0-0.7-0.3-1.3-0.8-1.8c0,0-0.1-0.1-0.1-0.1c-0.1-0.1-0.1-0.1-0.2-0.2
					c0,0-0.1,0-0.1-0.1c0,0-0.1,0-0.1-0.1c0,0-0.1,0-0.1-0.1c0,0,0,0,0-0.1c0,0,0,0,0,0C526.5,191.5,526.3,191.4,526,191.4z"/>
			</g>
		</g>
		<g>
			<path id="Layer2_0_1_STROKES" fill="none" stroke="#A3A3A3" stroke-miterlimit="10" d="M453.9,193.5h69.4 M230.2,192.8
				L230.2,192.8c0.8,0,1.4,0.3,1.9,0.8c0.5,0.5,0.8,1.1,0.8,1.8c0,0.1,0,0.3,0,0.4H302 M229.9,197.9c-0.6-0.1-1-0.3-1.4-0.7
				c-0.5-0.5-0.8-1.1-0.8-1.8c0-0.7,0.3-1.3,0.8-1.8c0.5-0.5,1-0.8,1.7-0.8c0-1.1,0.1-2.2,0.1-3.3c0-24.3-8.6-45.1-25.8-62.3
				c-17.1-17.2-37.9-25.8-62.1-25.8 M232.8,195.8c-0.1,0.5-0.3,1-0.7,1.4c-0.5,0.5-1.1,0.8-1.8,0.8c-0.1,0-0.3,0-0.4,0
				c-1.8,20.7-10.3,38.6-25.4,53.7c-17.1,17.2-37.9,25.8-62.1,25.8c-24.3,0-45-8.6-62.2-25.8c-17.2-17.1-25.8-37.8-25.8-62.1"/>
		</g>
		<g>
			<path id="Layer2_0_2_STROKES" fill="none" stroke="#A3A3A3" stroke-linecap="round" stroke-linejoin="round" d="M526,191.4
				c1.8-20.8,10.3-38.7,25.5-53.8c17.1-17.2,37.8-25.8,62.1-25.8c24.3,0,45,8.6,62.2,25.8c15.4,15.3,23.8,33.5,25.5,54.6 M523.4,193
				l0.5-0.8c0.5-0.5,1.1-0.8,1.8-0.8c0.1,0,0.2,0,0.3,0c0.3,0,0.6,0.1,0.8,0.2c0,0,0,0,0,0c0,0,0,0,0,0c0,0,0,0,0.1,0.1
				c0,0,0.1,0,0.1,0.1c0,0,0.1,0.1,0.1,0.1c0.1,0.1,0.2,0.1,0.2,0.2c0,0,0.1,0,0.1,0.1c0.5,0.5,0.8,1.1,0.8,1.8
				c0,0.7-0.3,1.3-0.8,1.8c-0.4,0.5-1,0.8-1.7,0.8c0,0-0.1,0-0.1,0c0,1.1-0.1,2.2-0.1,3.3c0,24.3,8.6,45,25.8,62.2
				c15.6,15.6,34.1,24.1,55.6,25.5 M525.7,196.6c-0.7,0-1.3-0.3-1.7-0.8c-0.5-0.5-0.8-1.1-0.8-1.8v-0.3"/>
		</g>
		<g>
			<path id="Layer2_0_3_STROKES" fill="none" stroke="#A3A3A3" stroke-linecap="square" stroke-miterlimit="10" d="M701.2,192.2
				c0.2,2.5,0.3,5,0.3,7.6 M613.5,287.8c-2.2,0-4.4-0.1-6.5-0.2"/>
		</g>
	</g>
</g>
<g id="monitor">
	<g transform="matrix( 1, 0, 0, 1, 0,0) ">
		<g>
			<g id="Layer1_0_FILL">
				<path fill="#828282" d="M281.5,143.3c0-1.1,0.4-2.1,1.2-2.9c0.8-0.8,1.7-1.2,2.8-1.2h-4.9c-1.2,0-2.1,0.4-2.9,1.2
					c-0.8,0.8-1.2,1.8-1.2,2.9v104.1c0,1.1,0.4,2,1.2,2.8c0.8,0.8,1.7,1.2,2.8,1.2h5c-1.1,0-2.1-0.4-2.8-1.2
					c-0.8-0.8-1.2-1.7-1.2-2.8V143.3 M343.3,272.3h-4.9c-1.3,0-2.5,0.5-3.5,1.5c-0.7,0.7-1.2,1.6-1.4,2.5h5.1
					c0.2-0.9,0.6-1.8,1.3-2.5C340.9,272.8,342,272.3,343.3,272.3 M338.5,282v-4.7c0-0.3,0-0.7,0.1-1h-5.1v5.7H338.5 M358.3,251.3h-5
					v21h5V251.3z"/>
				<path fill="#CACACA" d="M358.3,251.3v21h33.6v-21H358.3 M411.6,277.4c0-0.4,0-0.7-0.1-1.1h-72.9c-0.1,0.3-0.1,0.7-0.1,1v4.7
					h73.1V277.4 M410.1,273.8c-1-1-2.2-1.5-3.6-1.5h-14.6h-33.6h-5h-10c-1.3,0-2.4,0.5-3.4,1.5c-0.7,0.7-1.1,1.6-1.3,2.5h72.9
					C411.3,275.3,410.9,274.5,410.1,273.8 M469.3,143.6c0-1.2-0.4-2.3-1.3-3.2s-1.9-1.3-3.1-1.3H285.5c-1.1,0-2.1,0.4-2.8,1.2
					c-0.8,0.8-1.2,1.8-1.2,2.9v104.1c0,1.1,0.4,2,1.2,2.8c0.8,0.8,1.7,1.2,2.8,1.2h67.7h5h33.6H465c1.2,0,2.2-0.5,3-1.3
					s1.3-1.8,1.3-3V143.6 M461.8,147.5v22.2v73.5h-65H289v-73.5v-22.2H461.8 M338.5,220.9v-13.2h-17.8v13.2H338.5 M364.6,220.9
					v-13.2h-17.8v13.2H364.6 M390.5,207.7h-17.8v13.2h17.8V207.7 M390.5,174.7h-17.8v13.2h17.8V174.7 M338.5,187.9v-13.2h-17.8v13.2
					H338.5 M346.9,174.7v13.2h17.8v-13.2H346.9z"/>
				<path fill="#FFFFFF" d="M396.8,243.2v-73.5H289v73.5H396.8 M346.9,187.9v-13.2h17.8v13.2H346.9 M338.5,174.7v13.2h-17.8v-13.2
					H338.5 M372.6,174.7h17.8v13.2h-17.8V174.7 M390.5,192.3h-17.8H390.5 M364.6,192.3h-17.8H364.6 M372.6,207.7h17.8v13.2h-17.8
					V207.7 M364.6,207.7v13.2h-17.8v-13.2H364.6 M390.5,225.3h-17.8H390.5 M338.5,207.7v13.2h-17.8v-13.2H338.5 M364.6,225.3h-17.8
					H364.6 M338.5,192.3h-17.8H338.5 M338.5,225.3h-17.8H338.5 M461.8,169.7h-65v73.5h65V169.7 M402.6,191.5H426H402.6 M402.6,187.3
					H426H402.6 M402.6,183.1H426H402.6 M402.6,178.9H426H402.6 M402.6,174.7H426H402.6 M402.6,195.7H426H402.6 M402.6,199.9H426
					H402.6 M402.6,204.1H426H402.6 M402.6,208.3H426H402.6 M402.6,212.5H426H402.6 M402.6,216.7H426H402.6 M402.6,220.9H426H402.6
					 M402.6,225.3H426H402.6z"/>
				<path fill="#5EB9E7" d="M461.8,169.7v-22.2H289v22.2h107.8H461.8 M402.6,160.6H426H402.6 M320.4,160.6h70.2H320.4z"/>
			</g>
		</g>
		<g>
			<path id="Layer1_0_1_STROKES" fill="none" stroke="#000000" stroke-miterlimit="10" d="M346.9,174.7h17.8v13.2h-17.8V174.7z
				 M320.6,174.7h17.8v13.2h-17.8V174.7z M372.6,174.7h17.8v13.2h-17.8V174.7z M390.5,192.3h-17.8 M364.6,192.3h-17.8 M285.5,139.1
				h179.3c1.2,0,2.3,0.4,3.1,1.3s1.3,1.9,1.3,3.2V247c0,1.2-0.5,2.2-1.3,3s-1.8,1.3-3,1.3h-73.1v21h14.6c1.4,0,2.6,0.5,3.6,1.5
				c0.7,0.7,1.2,1.6,1.4,2.5c0.1,0.4,0.1,0.7,0.1,1.1v4.6h-73.1h-5v-5.7c0.2-0.9,0.7-1.8,1.4-2.5c1-1,2.2-1.5,3.5-1.5h4.9h10v-21
				h-67.7h-5c-1.1,0-2.1-0.4-2.8-1.2c-0.8-0.8-1.2-1.7-1.2-2.8V143.3c0-1.1,0.4-2.1,1.2-2.9c0.8-0.8,1.8-1.2,2.9-1.2H285.5
				c-1.1,0-2.1,0.4-2.8,1.2c-0.8,0.8-1.2,1.8-1.2,2.9v104.1c0,1.1,0.4,2,1.2,2.8c0.8,0.8,1.7,1.2,2.8,1.2 M289,169.7v-22.2h172.8
				v22.2v73.5h-65H289V169.7h107.8h65 M402.6,191.5H426 M402.6,187.3H426 M402.6,183.1H426 M402.6,178.9H426 M402.6,174.7H426
				 M402.6,195.7H426 M372.6,207.7h17.8v13.2h-17.8V207.7z M346.9,207.7h17.8v13.2h-17.8V207.7z M390.5,225.3h-17.8 M320.6,207.7
				h17.8v13.2h-17.8V207.7z M353.3,272.3h5v-21h-5 M338.6,276.3c-0.1,0.3-0.1,0.7-0.1,1v4.7 M343.3,272.3c-1.3,0-2.4,0.5-3.4,1.5
				c-0.7,0.7-1.1,1.6-1.3,2.5h72.9 M338.6,276.3h-5.1 M364.6,225.3h-17.8 M391.9,272.3h-33.6 M391.9,251.3h-33.6 M402.6,199.9H426
				 M402.6,204.1H426 M402.6,208.3H426 M402.6,212.5H426 M402.6,216.7H426 M402.6,220.9H426 M402.6,225.3H426 M396.8,169.7v73.5
				 M338.5,192.3h-17.8 M338.5,225.3h-17.8"/>
		</g>
		<g>
			<path id="Layer1_0_2_STROKES" fill="none" stroke="#FFFFFF" stroke-miterlimit="10" d="M402.6,160.6H426 M320.4,160.6h70.2"/>
		</g>
	</g>
</g>
</svg>
