<?xml version="1.0" encoding="utf-8"?>
<!-- Generator: Adobe Illustrator 23.0.1, SVG Export Plug-In . SVG Version: 6.00 Build 0)  -->
<svg version="1.1" id="Layer_as1" xmlns="http://www.w3.org/2000/svg" xmlns:xlink="http://www.w3.org/1999/xlink" x="0px" y="0px"
	 viewBox="0 0 750 400" enable-background="new 0 0 750 400" xml:space="preserve">
<g id="clouds_bits">
	<g transform="matrix( 1, 0, 0, 1, 0,0) ">
		<g>
			<g id="Layer6_0_FILL">
				<path fill="#DEDEDE" d="M56.5,207.8c0-1.1-0.4-2-1.2-2.8c-0.7-0.7-1.6-1.1-2.7-1.1c-1.1,0-2,0.4-2.7,1.1
					c-0.8,0.8-1.2,1.7-1.2,2.8c0,1,0.4,1.9,1.2,2.7c0.7,0.7,1.6,1.1,2.7,1.1c1.1,0,2-0.4,2.7-1.1C56.1,209.7,56.5,208.8,56.5,207.8
					 M60.3,189.6c0-0.5-0.2-1-0.6-1.3c-0.4-0.4-0.8-0.6-1.3-0.6s-1,0.2-1.4,0.6c-0.4,0.4-0.5,0.8-0.5,1.3s0.2,1,0.5,1.4
					c0.4,0.4,0.8,0.6,1.4,0.6c0.5,0,1-0.2,1.3-0.6C60.1,190.7,60.3,190.2,60.3,189.6z"/>
				<path fill="#BFBFBF" d="M693.3,222.4l-3-5.2h-6l-3,5.2l3,5.2h6L693.3,222.4 M689.4,218.6l2.2,3.8l-2.2,3.8H685l-2.2-3.8l2.2-3.8
					H689.4 M440.4,110.3l-3-5.2h-6l-3,5.2l3,5.3h6L440.4,110.3 M436.5,106.5l2.2,3.8l-2.2,3.8h-4.3l-2.2-3.8l2.2-3.8H436.5z"/>
				<path fill="#BAD727" d="M699.3,164.4c0-0.5-0.2-1-0.5-1.4c-0.4-0.4-0.8-0.6-1.4-0.6s-1,0.2-1.4,0.6c-0.4,0.4-0.5,0.9-0.5,1.4
					c0,0.5,0.2,1,0.5,1.4c0.4,0.4,0.9,0.6,1.4,0.6s1-0.2,1.4-0.6C699.1,165.4,699.3,164.9,699.3,164.4 M494.9,258.1
					c0.5,0,1-0.2,1.4-0.5c0.4-0.4,0.5-0.8,0.5-1.4c0-0.5-0.2-1-0.5-1.4c-0.4-0.4-0.8-0.6-1.4-0.6c-0.5,0-1,0.2-1.4,0.6
					c-0.4,0.4-0.5,0.9-0.5,1.4c0,0.5,0.2,1,0.5,1.4C493.9,258,494.4,258.1,494.9,258.1 M248.7,294.8c0.4-0.4,0.6-0.8,0.6-1.3
					c0-0.5-0.2-1-0.6-1.4c-0.4-0.4-0.8-0.6-1.3-0.6s-1,0.2-1.4,0.6c-0.4,0.4-0.6,0.8-0.6,1.4c0,0.5,0.2,1,0.6,1.3
					c0.4,0.4,0.8,0.6,1.4,0.6S248.3,295.2,248.7,294.8z"/>
				<path fill="#F7571A" d="M658,139.8c0.4-0.4,0.6-0.9,0.6-1.4c0-0.5-0.2-1-0.6-1.4c-0.4-0.4-0.8-0.6-1.3-0.6s-1,0.2-1.4,0.6
					c-0.4,0.4-0.5,0.8-0.5,1.4c0,0.5,0.2,1,0.5,1.4c0.4,0.4,0.8,0.6,1.4,0.6S657.7,140.1,658,139.8 M386.7,54c0-0.5-0.2-1-0.6-1.4
					c-0.4-0.4-0.8-0.5-1.4-0.5c-0.5,0-1,0.2-1.4,0.5c-0.4,0.4-0.5,0.8-0.5,1.4s0.2,1,0.5,1.3c0.4,0.4,0.9,0.5,1.4,0.5
					c0.5,0,1-0.2,1.4-0.5C386.5,54.9,386.7,54.5,386.7,54z"/>
				<path fill="#83C4EC" d="M328.1,316.3c-0.2-0.2-0.4-0.3-0.7-0.3h-2.5v-2.5c0-0.6-0.3-1-1-1c-0.6,0-0.9,0.3-0.9,1v2.5h-2.6
					c-0.3,0-0.5,0.1-0.7,0.3c-0.2,0.2-0.3,0.4-0.3,0.7c0,0.3,0.1,0.5,0.3,0.7c0.2,0.2,0.4,0.3,0.7,0.3h2.6v2.6
					c0,0.3,0.1,0.5,0.3,0.6c0.2,0.2,0.4,0.3,0.7,0.3s0.5-0.1,0.7-0.3c0.2-0.2,0.3-0.4,0.3-0.6v-2.6h2.5c0.3,0,0.5-0.1,0.7-0.3
					c0.2-0.2,0.3-0.4,0.3-0.7C328.4,316.7,328.3,316.5,328.1,316.3 M512.5,92.6c-0.3,0-0.5,0.1-0.6,0.3c-0.2,0.2-0.3,0.4-0.3,0.7
					c0,0.3,0.1,0.5,0.3,0.7c0.2,0.2,0.4,0.2,0.6,0.3h2.5V97c0,0.3,0.1,0.5,0.3,0.7c0.2,0.2,0.4,0.3,0.7,0.3c0.3,0,0.5-0.1,0.7-0.3
					c0.2-0.2,0.3-0.4,0.3-0.7v-2.6h2.5c0.6,0,1-0.3,1-0.9s-0.3-0.9-1-0.9H517V90c0-0.3-0.1-0.5-0.3-0.7c-0.2-0.2-0.4-0.3-0.7-0.3
					c-0.3,0-0.5,0.1-0.7,0.3c-0.2,0.2-0.3,0.4-0.3,0.7v2.6H512.5 M584.4,277.4c-0.2,0.2-0.3,0.4-0.3,0.6c0,0.3,0.1,0.5,0.3,0.7
					c0.2,0.2,0.4,0.3,0.6,0.3h2.6v2.6c0,0.3,0.1,0.5,0.3,0.7c0.2,0.2,0.4,0.3,0.7,0.3s0.5-0.1,0.7-0.3c0.2-0.2,0.3-0.4,0.3-0.7V279
					h2.5c0.6,0,1-0.3,1-1c0-0.3-0.1-0.5-0.3-0.6c-0.2-0.2-0.4-0.3-0.7-0.3h-2.5v-2.5c0-0.3-0.1-0.5-0.3-0.7
					c-0.2-0.2-0.4-0.3-0.7-0.3c-0.6,0-0.9,0.3-0.9,1v2.5H585C584.8,277,584.6,277.1,584.4,277.4 M180.3,70.6
					c-0.2-0.2-0.4-0.3-0.6-0.3c-0.3,0-0.5,0.1-0.7,0.3c-0.2,0.2-0.3,0.4-0.3,0.7v2.6h-2.6c-0.3,0-0.5,0.1-0.7,0.3
					c-0.2,0.2-0.3,0.4-0.3,0.7c0,0.3,0.1,0.5,0.3,0.7c0.2,0.2,0.4,0.3,0.7,0.3h2.6v2.6c0,0.6,0.3,0.9,1,0.9c0.3,0,0.5-0.1,0.6-0.3
					c0.2-0.2,0.3-0.4,0.3-0.7v-2.6h2.6c0.3,0,0.5-0.1,0.7-0.3c0.2-0.2,0.3-0.4,0.3-0.7c0-0.6-0.3-0.9-0.9-0.9h-2.6v-2.6
					C180.6,71,180.4,70.8,180.3,70.6 M224.9,171.5c0.2-0.2,0.3-0.4,0.3-0.7c0-0.3-0.1-0.5-0.3-0.7c-0.2-0.2-0.4-0.3-0.7-0.3h-2.6
					v-2.6c0-0.3-0.1-0.5-0.3-0.7c-0.2-0.2-0.4-0.3-0.7-0.3s-0.5,0.1-0.7,0.3c-0.2,0.2-0.3,0.4-0.3,0.7v2.6h-2.6
					c-0.3,0-0.5,0.1-0.7,0.3c-0.2,0.2-0.3,0.4-0.3,0.7c0,0.3,0.1,0.5,0.3,0.7c0.2,0.2,0.4,0.3,0.7,0.3h2.6v2.6
					c0,0.3,0.1,0.5,0.3,0.7c0.2,0.2,0.4,0.3,0.7,0.3s0.5-0.1,0.7-0.3c0.2-0.2,0.3-0.4,0.3-0.7v-2.6h2.6
					C224.5,171.8,224.8,171.7,224.9,171.5z"/>
				<path fill="#3D3D3D" fill-opacity="0.1686" d="M232.3,96.7c-3.6-1.8-7.5-2.7-11.6-2.7c-7.2,0-13.3,2.5-18.4,7.5
					c-5.1,5-7.7,11.1-7.9,18.2h127.8c-0.2-2.3-1.1-4.2-2.9-5.8c0,0-0.1-0.1-0.1-0.2c-1.7-1.5-3.7-2.3-6-2.3c-1.2,0-2.4,0.3-3.6,0.8
					c-1.1,0.5-2.1,1.2-2.9,2c-1.4-3.5-3.6-6.2-6.7-8.3c-3.2-2.2-6.7-3.3-10.5-3.3c-2.5,0-4.9,0.5-7.2,1.4c-2.2,0.9-4.2,2.3-5.9,3.9
					c-2.5-1.6-5.2-2.4-8.1-2.4c-1.9,0-3.8,0.4-5.6,1.1c-0.6-2.5-2-4.6-4-6.3c-2.1-1.7-4.5-2.5-7.2-2.5c-2.2,0-4.2,0.5-6,1.6
					c-1.8,1.1-3.2,2.6-4.2,4.4C238.8,100.8,235.8,98.4,232.3,96.7 M556,115.5c-6,0-11.8,1.3-17.2,3.9c-5.2,2.6-9.6,6.1-13.3,10.7
					c-1.5-2.7-3.5-4.9-6.2-6.5c-2.7-1.7-5.7-2.5-8.9-2.5c-4,0-7.6,1.2-10.6,3.7c-3.1,2.4-5.1,5.5-6,9.3c-2.7-1.1-5.4-1.6-8.3-1.6
					c-4.4,0-8.4,1.2-12.1,3.6c-2.5-2.5-5.4-4.4-8.7-5.9c-3.4-1.4-7-2.1-10.6-2.1c-5.7,0-10.9,1.6-15.6,4.8
					c-4.6,3.2-7.9,7.3-9.9,12.4c-2.7-2.8-5.9-4.1-9.6-4.1c-3.5,0-6.5,1.2-9,3.6c-2.5,2.4-3.9,5.3-4.2,8.7H595
					c-0.2-10.6-4.1-19.6-11.7-27C575.7,119.2,566.6,115.5,556,115.5 M434.5,291.3c-1.6,0-3,0.6-4.2,1.6c-1.2,1.1-1.8,2.5-1.9,4.1
					h87.9c-0.1-4.9-1.9-9.1-5.4-12.5c-2.2-2.2-4.6-3.6-7.4-4.5c-1.7-0.5-3.4-0.8-5.3-0.8c-1.8,0-3.5,0.3-5.2,0.8
					c-1,0.3-1.9,0.7-2.8,1.1c-2.4,1.2-4.5,2.8-6.2,4.9c-0.7-1.3-1.7-2.3-2.9-3c-1.3-0.8-2.6-1.1-4.1-1.1c-1.8,0-3.5,0.6-5,1.8
					c-1.4,1.1-2.3,2.5-2.8,4.3c-1.3-0.5-2.5-0.8-3.8-0.8c-2,0-3.9,0.6-5.6,1.7c-2.5-2.5-5.5-3.7-9-3.7c-2.7,0-5.1,0.8-7.3,2.3
					c-2.1,1.5-3.7,3.4-4.6,5.8C437.7,291.9,436.2,291.3,434.5,291.3z"/>
				<path fill="#FEFEFE" d="M489.8,69.7c0.4-0.4,0.6-0.8,0.6-1.4s-0.2-1-0.6-1.4c-0.4-0.4-0.8-0.6-1.4-0.6c-0.6,0-1,0.2-1.4,0.6
					c-0.4,0.4-0.6,0.9-0.6,1.4s0.2,1,0.6,1.4c0.4,0.4,0.9,0.6,1.4,0.6C488.9,70.3,489.4,70,489.8,69.7z"/>
				<path fill="#D1D1D1" d="M408.1,293.1c0-1.1-0.4-2-1.1-2.7c-0.8-0.7-1.7-1.1-2.8-1.1s-2,0.4-2.7,1.1c-0.8,0.8-1.1,1.7-1.1,2.7
					c0,1.1,0.4,2,1.1,2.8c0.7,0.7,1.6,1.1,2.7,1.1s2-0.4,2.8-1.1C407.7,295.1,408.1,294.2,408.1,293.1z"/>
			</g>
		</g>
		<g>
			<path id="Layer6_0_1_STROKES" fill="none" stroke="#BFBFBF" stroke-width="2" stroke-miterlimit="10" d="M367.2,80.7
				c0,0.9-0.3,1.6-1,2.3c-0.6,0.6-1.4,0.9-2.3,0.9c-0.9,0-1.7-0.3-2.3-0.9c-0.6-0.6-1-1.4-1-2.3c0-0.9,0.3-1.7,1-2.3
				c0.6-0.6,1.4-0.9,2.3-0.9c0.9,0,1.6,0.3,2.3,0.9C366.9,79,367.2,79.8,367.2,80.7z M522.8,233.6c0,0.9-0.3,1.7-1,2.3
				c-0.6,0.6-1.4,0.9-2.3,0.9c-0.9,0-1.7-0.3-2.3-0.9c-0.6-0.6-1-1.4-1-2.3c0-0.9,0.3-1.6,1-2.3c0.6-0.6,1.4-0.9,2.3-0.9
				c0.9,0,1.6,0.3,2.3,0.9C522.5,232,522.8,232.8,522.8,233.6z M98.9,239.8c0,0.9-0.3,1.6-1,2.3c-0.3,0.3-0.7,0.6-1.1,0.8
				c-0.4,0.1-0.7,0.2-1.2,0.2c-0.9,0-1.6-0.3-2.3-0.9c-0.6-0.6-1-1.4-1-2.3c0-0.9,0.3-1.7,1-2.3c0.6-0.6,1.4-0.9,2.3-0.9
				c0.4,0,0.8,0.1,1.2,0.2c0.4,0.2,0.8,0.4,1.1,0.8C98.6,238.1,98.9,238.8,98.9,239.8z"/>
		</g>
		<g>
			<path id="Layer6_0_2_STROKES" fill="none" stroke="#A3A3A3" stroke-miterlimit="10" d="M490.4,68.3c0,0.6-0.2,1-0.6,1.4
				c-0.4,0.4-0.8,0.6-1.4,0.6c-0.5,0-1-0.2-1.4-0.6c-0.4-0.4-0.6-0.8-0.6-1.4s0.2-1,0.6-1.4c0.4-0.4,0.8-0.6,1.4-0.6
				c0.6,0,1,0.2,1.4,0.6C490.1,67.2,490.4,67.7,490.4,68.3z"/>
		</g>
	</g>
</g>
<g id="circles">
	<g transform="matrix( 1, 0, 0, 1, 0,0) ">
		<g>
			<path id="Layer5_0_1_STROKES" fill="none" stroke="#A3A3A3" stroke-miterlimit="10" d="M573.5,234.4c-4-12.5-3-24.5,3-36.2
				c5.9-11.7,15.1-19.5,27.6-23.6c12.5-4,24.5-3.1,36.2,2.9c11.7,6,19.5,15.2,23.5,27.7c4,12.5,3,24.6-2.9,36.3
				c-6,11.7-15.2,19.5-27.7,23.5 M92.9,186.6c-9.4-9.4-14.1-20.7-14.1-34c0-13.3,4.7-24.6,14.1-34c9.4-9.4,20.8-14.1,34-14.2
				c13.3,0,24.7,4.7,34.1,14.1c9.4,9.4,14.1,20.8,14.1,34.1c0,13.3-4.7,24.6-14.1,34 M137.6,264.4c-4-12.6-3-24.8,3-36.5
				c6-11.8,15.3-19.7,27.9-23.8c12.6-4,24.8-3,36.6,3c11.7,6,19.6,15.3,23.6,27.9c4,12.6,3.1,24.7-2.9,36.5
				c-6,11.7-15.3,19.6-27.9,23.7"/>
		</g>
	</g>
	<g transform="matrix( 1, 0, 0, 1, -800.35,-324.8) ">
		<g>
			<g id="Layer5_1_FILL">
				<path fill="#F7571A" d="M966,477.4c0-10.7-3.8-19.8-11.3-27.4c-7.6-7.6-16.7-11.4-27.4-11.4c-10.7,0-19.8,3.8-27.3,11.4
					c-7.5,7.5-11.3,16.6-11.3,27.4c0,10.7,3.8,19.8,11.3,27.4c7.6,7.5,16.7,11.3,27.3,11.3c10.7,0,19.8-3.8,27.4-11.3
					C962.2,497.1,966,488,966,477.4z"/>
			</g>
		</g>
	</g>
	<g transform="matrix( 0.7498016357421875, 0, 0, 0.7498016357421875, -383.9,47.15) ">
		<g>
			<g id="Layer5_2_FILL">
				<path fill="#2C538A" d="M809.6,252.9c-4.7-14.7-14-25.6-27.8-32.6c-13.8-7.1-28-8.2-42.7-3.5c-14.7,4.8-25.6,14-32.7,27.7
					c-7,13.8-8.2,28-3.5,42.7c4.7,14.7,14,25.6,27.8,32.6c13.8,7.1,28,8.2,42.7,3.5c14.7-4.7,25.6-14,32.6-27.8
					C813.1,281.9,814.3,267.6,809.6,252.9z"/>
			</g>
		</g>
	</g>
	<g transform="matrix( 0.920623779296875, 0, 0, 0.920623779296875, 478,31.8) ">
		<g>
			<g id="Layer5_3_FILL">
				<path fill="#BAD727" d="M195.8,190.5c-3.8-11.8-11.2-20.5-22.2-26.1c-11-5.6-22.4-6.6-34.2-2.8c-11.8,3.8-20.5,11.2-26.1,22.2
					c-5.6,11-6.5,22.4-2.7,34.2c3.8,11.8,11.2,20.5,22.2,26.1c11,5.6,22.4,6.6,34.2,2.8c11.8-3.8,20.5-11.2,26.2-22.2
					C198.7,213.7,199.6,202.3,195.8,190.5z"/>
			</g>
		</g>
	</g>
</g>
<g id="monitor">
	<g transform="matrix( 1, 0, 0, 1, 0,0) ">
		<g>
			<g id="Layer4_0_FILL">
				<path fill="#828282" d="M285.2,137.6c0.8-0.8,1.7-1.2,2.8-1.2h-4.9c-1.2,0-2.1,0.4-2.9,1.2c-0.8,0.8-1.2,1.8-1.2,2.9v104.1
					c0,1.1,0.4,2,1.2,2.8c0.8,0.8,1.7,1.2,2.8,1.2h5c-1.1,0-2.1-0.4-2.8-1.2c-0.8-0.8-1.2-1.7-1.2-2.8V140.6
					C284,139.4,284.4,138.4,285.2,137.6 M336,279.3h5v-4.7c0-0.3,0-0.7,0.1-1H336V279.3 M340.9,269.6c-1.3,0-2.5,0.5-3.5,1.4
					c-0.7,0.7-1.2,1.6-1.4,2.5h5.1c0.2-0.9,0.6-1.8,1.3-2.5c1-0.9,2.1-1.4,3.4-1.4H340.9 M360.8,248.6h-5v21h5V248.6z"/>
				<path fill="#CACACA" d="M360.8,248.6v21h33.6v-21H360.8 M412.6,271c-1-1-2.2-1.4-3.6-1.4h-14.6h-33.6h-5h-10
					c-1.3,0-2.4,0.5-3.4,1.4c-0.7,0.7-1.1,1.6-1.3,2.5H414C413.8,272.6,413.4,271.8,412.6,271 M414.1,274.6c0-0.4,0-0.7-0.1-1.1
					h-72.9c-0.1,0.3-0.1,0.7-0.1,1v4.7h73.1V274.6 M471.8,140.9c0-1.2-0.4-2.3-1.3-3.1s-1.9-1.3-3.1-1.3H288c-1.1,0-2.1,0.4-2.8,1.2
					c-0.8,0.8-1.2,1.8-1.2,2.9v104.1c0,1.1,0.4,2,1.2,2.8c0.8,0.8,1.7,1.2,2.8,1.2h67.7h5h33.6h73.1c1.2,0,2.2-0.5,3-1.3
					c0.8-0.8,1.3-1.8,1.3-3V140.9 M464.3,144.8v95.7H291.5v-95.7H464.3z"/>
				<path fill="#FFFFFF" d="M464.3,240.5v-95.7H291.5v95.7H464.3z"/>
			</g>
		</g>
		<g>
			<path id="Layer4_0_1_STROKES" fill="none" stroke="#000000" stroke-miterlimit="10" d="M288,136.4h179.3c1.2,0,2.3,0.4,3.1,1.3
				s1.3,1.9,1.3,3.1v103.4c0,1.2-0.5,2.2-1.3,3c-0.8,0.8-1.8,1.3-3,1.3h-73.1v21H409c1.4,0,2.6,0.5,3.6,1.4c0.7,0.7,1.2,1.6,1.4,2.5
				c0.1,0.4,0.1,0.7,0.1,1.1v4.6H341h-5v-5.7c0.2-0.9,0.7-1.8,1.4-2.5c1-1,2.2-1.4,3.5-1.4h4.9h10v-21H288h-5
				c-1.1,0-2.1-0.4-2.8-1.2c-0.8-0.8-1.2-1.7-1.2-2.8V140.6c0-1.1,0.4-2.1,1.2-2.9c0.8-0.8,1.8-1.2,2.9-1.2H288
				c-1.1,0-2.1,0.4-2.8,1.2c-0.8,0.8-1.2,1.8-1.2,2.9v104.1c0,1.1,0.4,2,1.2,2.8c0.8,0.8,1.7,1.2,2.8,1.2 M355.8,269.6h5v-21h-5
				 M336,273.5h5.1c-0.1,0.3-0.1,0.7-0.1,1v4.7 M345.8,269.6c-1.3,0-2.4,0.5-3.4,1.4c-0.7,0.7-1.1,1.6-1.3,2.5H414 M394.4,248.6
				h-33.6 M394.4,269.6h-33.6 M464.3,240.5H291.5v-95.7h172.8V240.5z"/>
		</g>
	</g>
</g>
<g id="screen">
	<g transform="matrix( 1, 0, 0, 1, 0,0) ">
		<g>
			<path id="Layer3_0_1_STROKES" fill="none" stroke="#000000" stroke-miterlimit="10" d="M416.7,185.1c-0.4-0.3-0.8-0.7-1.1-1.1
				c-3.7-3.7-5.5-8.2-5.5-13.4c0-5.2,1.9-9.7,5.5-13.4c3.7-3.7,8.2-5.6,13.5-5.6s9.7,1.9,13.4,5.6c3.7,3.7,5.6,8.2,5.6,13.4
				c0,5.2-1.9,9.7-5.6,13.4c-0.4,0.4-0.7,0.7-1.1,1.1 M412.6,207.2H428 M412.6,212.3H428 M412.6,217.4H428 M370.2,217.4h15.3
				 M370.2,212.3h15.3 M370.2,207.2h15.3 M328.1,206.9h15.4 M328.1,212.1h15.4 M328.1,217.1h15.4 M307,166.3h69.3"/>
		</g>
		<g>
			<path id="Layer3_0_2_STROKES" fill="none" stroke="#A3A3A3" stroke-miterlimit="10" d="M300.1,160.1h84v12.5h-84V160.1z
				 M361.3,195.4h33.5v33.5h-33.5V195.4z M437.9,175.3c0.6,0,1.2,0.3,1.6,0.7c0.5,0.5,0.7,1,0.7,1.7c0,0.7-0.2,1.2-0.7,1.7
				s-1,0.7-1.7,0.7c-0.7,0-1.2-0.2-1.7-0.7c-0.5-0.5-0.7-1-0.7-1.7c0-0.7,0.2-1.2,0.7-1.7c0.5-0.5,1-0.7,1.7-0.7
				C437.8,175.3,437.9,175.3,437.9,175.3v-9.9h-3.1v5.4h-5.3v4.4c0.7,0,1.2,0.2,1.7,0.7c0.5,0.5,0.7,1,0.7,1.7
				c0,0.7-0.2,1.2-0.7,1.7s-1,0.7-1.7,0.7c-0.7,0-1.2-0.2-1.7-0.7c-0.5-0.5-0.7-1-0.7-1.7c0-0.7,0.2-1.2,0.7-1.7
				c0.5-0.5,1-0.7,1.7-0.7 M421.3,175.3c0.7,0,1.2,0.2,1.7,0.7c0.5,0.5,0.7,1,0.7,1.7c0,0.7-0.2,1.2-0.7,1.7s-1,0.7-1.7,0.7
				c-0.7,0-1.2-0.2-1.7-0.7c-0.5-0.5-0.7-1-0.7-1.7c0-0.7,0.2-1.2,0.7-1.7C420.1,175.5,420.6,175.3,421.3,175.3v-9.9h3v-5.1h10.5
				v5.1 M441.3,185.1h15.4 M429.5,170.8h-5.3v-5.4 M416.7,185.1h24.6 M403.7,195.4h33.5v33.5h-33.5V195.4z M319.2,195.1h33.5v33.5
				h-33.5V195.1z M299.5,185.1h117.2"/>
		</g>
	</g>
</g>
<g id="icons">
	<g transform="matrix( 1, 0, 0, 1, 0,0) ">
		<g>
			<path id="Layer2_0_1_STROKES" fill="none" stroke="#FFFFFF" stroke-linecap="round" stroke-linejoin="round" d="M126.8,147.6h7
				l7.1-7.4l-7.1-7.4h-7l7,7.4L126.8,147.6z M114.6,147.6h7l7-7.4l-7-7.4h-7l7,7.4L114.6,147.6z M168.3,234.1h4.6l4.6-4.7l-4.6-4.6
				h-4.6l4.6,4.6L168.3,234.1z M161.4,234.1h3.5l4.6-4.7l-4.6-4.6h-3.5l4.6,4.6L161.4,234.1z M174.4,245.1c0,1-0.1,1.8-0.3,2.3
				c-0.3,0.6-0.7,0.9-1.3,0.9c-1.1,0-1.7-1.1-1.7-3.2c0-2.1,0.6-3.2,1.7-3.2C173.9,241.9,174.4,243,174.4,245.1z M179.4,248.3v-6.3
				l-0.8,0.8 M191.9,248.3v-6.3l-0.8,0.8 M186.9,245.1c0,1-0.1,1.8-0.3,2.3c-0.3,0.6-0.7,0.9-1.4,0.9s-1.1-0.3-1.4-0.9
				c-0.2-0.5-0.3-1.3-0.3-2.3c0-2.1,0.6-3.2,1.6-3.2C186.3,241.9,186.9,243,186.9,245.1z M197.3,248.3v-6.3l-0.8,0.8 M197.3,258.1
				v-6.3l-0.8,0.8 M184.8,258.1v-6.3l-0.8,0.8 M192.1,254.9c0,1-0.1,1.8-0.3,2.3c-0.3,0.6-0.7,0.9-1.4,0.9c-1.1,0-1.6-1.1-1.6-3.2
				c0-2.1,0.5-3.2,1.6-3.2C191.6,251.8,192.1,252.8,192.1,254.9z M179.7,254.9c0,1-0.1,1.8-0.3,2.3c-0.2,0.6-0.7,0.9-1.3,0.9
				c-1.1,0-1.7-1.1-1.7-3.2c0-2.1,0.6-3.2,1.7-3.2C179.2,251.8,179.7,252.8,179.7,254.9z M172.3,258.1v-6.3l-0.8,0.8 M157.9,234.1
				l4.7-4.8l-4.7-4.6"/>
		</g>
		<g>
			<path id="Layer2_0_2_STROKES" fill="none" stroke="#3A6FBB" stroke-linecap="round" stroke-linejoin="round" d="M632.7,217.9
				v-6.3l-0.8,0.8 M632.7,227.8v-6.3l-0.8,0.8 M614.8,217.9v-6.3l-0.8,0.8 M609.8,214.8c0,1-0.1,1.8-0.3,2.3
				c-0.3,0.6-0.7,0.9-1.3,0.9c-1.1,0-1.7-1.1-1.7-3.2s0.5-3.2,1.7-3.2C609.3,211.6,609.8,212.7,609.8,214.8z M627.3,217.9v-6.3
				l-0.8,0.8 M622.3,214.8c0,1-0.1,1.8-0.3,2.3c-0.3,0.6-0.7,0.9-1.4,0.9c-0.6,0-1.1-0.3-1.3-0.9c-0.2-0.5-0.3-1.3-0.3-2.3
				c0-2.1,0.5-3.2,1.6-3.2C621.7,211.6,622.3,212.7,622.3,214.8z M620.1,227.8v-6.3l-0.8,0.8 M615,224.6c0,1-0.1,1.8-0.3,2.3
				c-0.2,0.6-0.7,0.9-1.3,0.9c-1.1,0-1.7-1.1-1.7-3.2s0.6-3.2,1.7-3.2C614.5,221.4,615,222.5,615,224.6z M627.5,224.6
				c0,1-0.1,1.8-0.3,2.3c-0.3,0.6-0.7,0.9-1.4,0.9c-1.1,0-1.6-1.1-1.6-3.2s0.5-3.2,1.6-3.2C627,221.4,627.5,222.5,627.5,224.6z
				 M607.6,227.8v-6.3l-0.8,0.8"/>
		</g>
		<g>
			<path id="Layer2_0_3_STROKES" fill="none" stroke="#FFFFFF" stroke-linecap="round" stroke-linejoin="round" d="M117.2,156.8
				c0,1-0.1,1.8-0.3,2.3c-0.3,0.6-0.7,0.9-1.3,0.9c-1.1,0-1.7-1.1-1.7-3.2s0.6-3.2,1.7-3.2S117.2,154.6,117.2,156.8z M122.4,166.6
				c0,1-0.1,1.8-0.3,2.3c-0.2,0.6-0.7,0.9-1.3,0.9c-1.1,0-1.7-1.1-1.7-3.2c0-2.1,0.6-3.2,1.7-3.2
				C121.9,163.4,122.4,164.5,122.4,166.6z M115,169.8v-6.3l-0.8,0.8 M134.7,159.9v-6.3l-0.8,0.8 M140.1,159.9v-6.3l-0.8,0.8
				 M129.6,156.8c0,1-0.1,1.8-0.3,2.3c-0.3,0.6-0.7,0.9-1.4,0.9s-1.1-0.3-1.3-0.9c-0.2-0.5-0.3-1.3-0.3-2.3c0-2.1,0.6-3.2,1.7-3.2
				C129.1,153.6,129.6,154.6,129.6,156.8z M122.2,159.9v-6.3l-0.8,0.8 M127.5,169.8v-6.3l-0.8,0.8 M134.9,166.6c0,1-0.1,1.8-0.3,2.3
				c-0.3,0.6-0.7,0.9-1.4,0.9c-1.1,0-1.6-1.1-1.6-3.2c0-2.1,0.5-3.2,1.6-3.2C134.3,163.4,134.9,164.5,134.9,166.6z M140.1,169.8
				v-6.3l-0.8,0.8"/>
		</g>
		<g>
			<path id="Layer2_0_4_STROKES" fill="none" stroke="#3A6FBB" stroke-miterlimit="3" d="M639.8,199.9l2-2l-2-2 M621.2,197.9h15.9
				 M621.2,193.1h18.6 M618.6,191.2l-1.9,2l1.9,1.9 M615.7,202.1h26.1v17.8 M616.2,247.6l2-2l-2-1.9 M595,239l-2,2l2,1.9
				 M623.8,236.8h-26.2v-17.8 M597.5,245.7h16 M597.5,240.9h18.7"/>
		</g>
		<g>
			<path id="Layer2_0_5_STROKES" fill="none" stroke="#FFFFFF" stroke-miterlimit="3" d="M185.4,264.9l-2,2l2,2 M206.6,273.5l1.9-2
				l-1.9-1.9 M187.9,266.9h18.7 M187.9,271.6h16"/>
		</g>
	</g>
</g>
<g id="connectors">
	<g transform="matrix( 1, 0, 0, 1, 0,0) ">
		<g>
			<g id="Layer1_0_FILL">
				<path fill="#FEFEFE" d="M282.3,152.6c0-0.8-0.3-1.4-0.9-2c-0.5-0.6-1.2-0.8-2-0.8c-0.8,0-1.4,0.3-2,0.8c-0.5,0.6-0.8,1.2-0.8,2
					v0c0,0.8,0.3,1.4,0.8,2c0.6,0.5,1.2,0.8,2,0.8c0.8,0,1.5-0.3,2-0.8C282,154.1,282.3,153.4,282.3,152.6 M177.6,152.6
					c0,0,0-0.1,0-0.2c0-0.6-0.2-1.1-0.6-1.4c-0.4-0.4-0.8-0.6-1.4-0.6c-0.6,0-1,0.2-1.4,0.6c-0.4,0.4-0.6,0.9-0.6,1.4
					c0,0.5,0.2,1,0.6,1.4c0.4,0.4,0.8,0.6,1.4,0.6c0.5,0,1-0.2,1.4-0.6C177.3,153.4,177.5,153,177.6,152.6 M228.9,233.9
					c-0.4,0-0.8,0.1-1.1,0.4c-0.3,0.3-0.4,0.6-0.4,1c0,0.4,0.1,0.8,0.4,1.1c0.3,0.3,0.6,0.4,1.1,0.4c0.4,0,0.7-0.1,1-0.4
					c0.2-0.2,0.4-0.5,0.4-0.9c0,0,0-0.1,0-0.2c0-0.4-0.1-0.7-0.4-1C229.6,234.1,229.3,233.9,228.9,233.9 M573.2,210.4
					c-0.4-0.4-0.8-0.6-1.4-0.6c-0.5,0-1,0.2-1.4,0.6c-0.4,0.4-0.6,0.8-0.6,1.3c0,0,0,0.1,0,0.1c0,0.6,0.2,1.1,0.6,1.4
					c0.4,0.4,0.8,0.6,1.4,0.6c0.6,0,1-0.2,1.4-0.6c0.4-0.4,0.6-0.9,0.6-1.4C573.8,211.2,573.6,210.8,573.2,210.4 M473.8,209.5
					c-0.6-0.5-1.2-0.8-2-0.8c-0.8,0-1.5,0.3-2,0.8c-0.6,0.6-0.9,1.2-0.9,2s0.3,1.4,0.9,2c0.5,0.6,1.2,0.9,2,0.9c0.8,0,1.4-0.3,2-0.9
					c0.5-0.6,0.8-1.2,0.8-1.9v-0.1C474.5,210.7,474.3,210.1,473.8,209.5z"/>
			</g>
		</g>
		<g>
			<path id="Layer1_0_1_STROKES" fill="none" stroke="#A3A3A3" stroke-miterlimit="10" d="M474.5,211.6c0,0.7-0.3,1.4-0.8,1.9
				c-0.6,0.6-1.2,0.9-2,0.9c-0.8,0-1.5-0.3-2-0.9c-0.6-0.6-0.9-1.2-0.9-2s0.3-1.4,0.9-2c0.5-0.5,1.2-0.8,2-0.8c0.8,0,1.4,0.3,2,0.8
				C474.3,210.1,474.5,210.7,474.5,211.6L474.5,211.6l95.3,0.1c0-0.5,0.2-0.9,0.6-1.3c0.4-0.4,0.9-0.6,1.4-0.6c0.6,0,1,0.2,1.4,0.6
				c0.4,0.4,0.6,0.9,0.6,1.4c0,0.6-0.2,1.1-0.6,1.4c-0.4,0.4-0.8,0.6-1.4,0.6c-0.6,0-1-0.2-1.4-0.6c-0.4-0.4-0.6-0.9-0.6-1.4
				c0-0.1,0-0.1,0-0.1 M177.6,152.6c0,0.5-0.2,0.9-0.6,1.3c-0.4,0.4-0.9,0.6-1.4,0.6c-0.6,0-1-0.2-1.4-0.6c-0.4-0.4-0.6-0.9-0.6-1.4
				c0-0.6,0.2-1.1,0.6-1.4c0.4-0.4,0.8-0.6,1.4-0.6c0.6,0,1,0.2,1.4,0.6c0.4,0.4,0.6,0.9,0.6,1.4
				C177.6,152.5,177.6,152.5,177.6,152.6l82.6,0.1l16.2,0h0.3c0-0.7,0.3-1.4,0.8-2c0.6-0.6,1.2-0.8,2-0.8c0.8,0,1.5,0.3,2,0.8
				c0.6,0.6,0.9,1.2,0.9,2c0,0.8-0.3,1.4-0.9,2c-0.5,0.5-1.2,0.8-2,0.8c-0.8,0-1.4-0.3-2-0.8c-0.5-0.6-0.8-1.2-0.8-2v0 M230.3,235.6
				h11.9c2.3,0,4.3-0.8,5.9-2.4s2.5-3.6,2.5-6v-66.1c0-2.3,0.8-4.3,2.4-5.9c1.6-1.6,3.6-2.5,5.9-2.5l1.1,0 M230.3,235.6
				c0,0.4-0.2,0.7-0.4,0.9c-0.3,0.3-0.6,0.4-1,0.4c-0.4,0-0.8-0.1-1.1-0.4c-0.3-0.3-0.4-0.6-0.4-1.1c0-0.4,0.1-0.7,0.4-1
				c0.3-0.3,0.6-0.4,1.1-0.4c0.4,0,0.7,0.1,1,0.4c0.3,0.3,0.4,0.6,0.4,1C230.3,235.5,230.3,235.5,230.3,235.6z"/>
		</g>
	</g>
</g>
</svg>
