<?xml version="1.0" encoding="utf-8"?>
<!-- Generator: Adobe Illustrator 23.0.1, SVG Export Plug-In . SVG Version: 6.00 Build 0)  -->
<svg version="1.1" id="Layer_ddd" xmlns="http://www.w3.org/2000/svg" xmlns:xlink="http://www.w3.org/1999/xlink" x="0px" y="0px"
	 viewBox="0 0 750 400" enable-background="new 0 0 750 400" xml:space="preserve">
<g id="clouds_bits">
	<g transform="matrix( 1, 0, 0, 1, 0,0) ">
		<g>
			<g id="Layer3_0_FILL">
				<path fill="#BAD727" d="M181.5,358c0-0.5-0.2-1-0.6-1.4c-0.4-0.4-0.8-0.5-1.3-0.5s-1,0.2-1.4,0.5c-0.4,0.4-0.6,0.8-0.6,1.4
					c0,0.5,0.2,1,0.6,1.4c0.4,0.4,0.8,0.6,1.4,0.6c0.5,0,1-0.2,1.3-0.6C181.3,359,181.5,358.5,181.5,358 M607.1,157.6
					c-0.4,0.4-0.5,0.8-0.5,1.3c0,0.5,0.2,1,0.5,1.4c0.4,0.4,0.8,0.6,1.4,0.6s1-0.2,1.3-0.6c0.4-0.4,0.6-0.8,0.6-1.4
					c0-0.5-0.2-1-0.6-1.3c-0.4-0.4-0.8-0.6-1.3-0.6S607.5,157.2,607.1,157.6z"/>
				<path fill="#83C4EC" d="M141.9,319.5c0.2-0.2,0.3-0.4,0.3-0.7s-0.1-0.5-0.3-0.6c-0.2-0.2-0.4-0.3-0.7-0.3h-2.6v-2.5
					c0-0.6-0.3-1-0.9-1s-0.9,0.3-0.9,1v2.5h-2.6c-0.3,0-0.5,0.1-0.7,0.3c-0.2,0.2-0.3,0.4-0.3,0.6s0.1,0.5,0.3,0.7
					c0.2,0.2,0.4,0.3,0.7,0.3h2.6v2.6c0,0.3,0.1,0.5,0.3,0.6c0.2,0.2,0.4,0.3,0.7,0.3c0.3,0,0.5-0.1,0.7-0.3
					c0.2-0.2,0.3-0.4,0.3-0.6v-2.6h2.6C141.5,319.8,141.7,319.7,141.9,319.5 M103.7,156c-0.2-0.2-0.4-0.3-0.7-0.3s-0.5,0.1-0.7,0.3
					c-0.2,0.2-0.3,0.4-0.3,0.7v2.6h-2.6c-0.3,0-0.5,0.1-0.7,0.3c-0.2,0.2-0.2,0.4-0.3,0.6c0,0.3,0.1,0.5,0.3,0.7
					c0.2,0.2,0.4,0.3,0.7,0.3h2.6v2.6c0,0.3,0.1,0.5,0.3,0.6c0.2,0.2,0.4,0.3,0.7,0.3c0.3,0,0.5-0.1,0.7-0.3
					c0.2-0.2,0.3-0.4,0.3-0.6v-2.6h2.6c0.3,0,0.5-0.1,0.6-0.3c0.2-0.2,0.3-0.4,0.3-0.7c0-0.2-0.1-0.4-0.3-0.6
					c-0.2-0.2-0.4-0.3-0.6-0.3H104v-2.6C104,156.4,103.9,156.2,103.7,156 M252.9,47c0-0.3-0.1-0.5-0.3-0.7c-0.2-0.2-0.4-0.3-0.7-0.3
					c-0.2,0-0.4,0.1-0.6,0.3s-0.3,0.4-0.3,0.7v2.6h-2.6c-0.6,0-0.9,0.3-0.9,1c0,0.3,0.1,0.5,0.3,0.7c0.2,0.2,0.4,0.3,0.7,0.3h2.6V54
					c0,0.3,0.1,0.5,0.3,0.7c0.2,0.2,0.4,0.3,0.6,0.3c0.6,0,1-0.3,1-1v-2.5h2.6c0.3,0,0.5-0.1,0.7-0.3c0.2-0.2,0.3-0.4,0.3-0.7
					c0-0.3-0.1-0.5-0.3-0.7c-0.2-0.2-0.4-0.3-0.7-0.3h-2.6V47 M624.8,285.3v2.6h-2.5c-0.3,0-0.5,0.1-0.6,0.3
					c-0.2,0.2-0.3,0.4-0.3,0.7s0.1,0.5,0.3,0.6c0.2,0.2,0.4,0.3,0.6,0.3h2.5v2.6c0,0.3,0.1,0.5,0.3,0.7c0.2,0.2,0.4,0.3,0.7,0.3
					s0.5-0.1,0.7-0.3c0.2-0.2,0.3-0.4,0.3-0.7v-2.6h2.5c0.3,0,0.5-0.1,0.7-0.3c0.2-0.2,0.3-0.4,0.3-0.6c0-0.6-0.3-1-1-1h-2.5v-2.6
					c0-0.2-0.1-0.4-0.3-0.6c-0.2-0.2-0.4-0.3-0.7-0.3s-0.5,0.1-0.7,0.3C625,284.8,624.8,285,624.8,285.3 M632.5,120.5
					c0-0.6-0.3-0.9-1-0.9H629v-2.6c0-0.2-0.1-0.4-0.3-0.6c-0.2-0.2-0.4-0.3-0.7-0.3s-0.5,0.1-0.7,0.3c-0.2,0.2-0.3,0.4-0.3,0.6v2.6
					h-2.5c-0.3,0-0.5,0.1-0.7,0.3c-0.2,0.2-0.3,0.4-0.3,0.7s0.1,0.5,0.3,0.7c0.2,0.2,0.4,0.3,0.7,0.3h2.5v2.6c0,0.3,0.1,0.5,0.3,0.7
					c0.2,0.2,0.4,0.2,0.7,0.3c0.3,0,0.5-0.1,0.7-0.3c0.2-0.2,0.3-0.4,0.3-0.7v-2.6h2.5c0.3,0,0.5-0.1,0.7-0.3
					C632.4,121,632.5,120.8,632.5,120.5z"/>
				<path fill="#DEDEDE" d="M72.3,228.1c0-0.5-0.2-1-0.6-1.4c-0.4-0.4-0.8-0.6-1.4-0.6c-0.5,0-1,0.2-1.3,0.6
					c-0.4,0.4-0.6,0.9-0.6,1.4s0.2,1,0.6,1.3s0.8,0.6,1.3,0.6c0.5,0,1-0.2,1.4-0.6C72.1,229.1,72.3,228.6,72.3,228.1 M679,190.9
					c0-1.1-0.4-2-1.1-2.8c-0.8-0.7-1.7-1.1-2.8-1.1c-1.1,0-2,0.4-2.7,1.1c-0.7,0.8-1.1,1.7-1.1,2.8c0,1.1,0.4,2,1.1,2.7
					c0.8,0.7,1.7,1.1,2.7,1.1c1.1,0,2-0.4,2.8-1.1C678.6,192.8,679,191.9,679,190.9z"/>
				<path fill="#3D3D3D" fill-opacity="0.1686" d="M138.6,241.4c-1.6-2-3.6-3.6-6-4.8c-2.4-1.2-5-1.8-7.7-1.8c-4.7,0-8.8,1.7-12.2,5
					c-3.4,3.3-5.1,7.3-5.3,12.1h84.8c-0.1-1.5-0.8-2.8-1.9-3.9c-1.1-1.1-2.5-1.6-4-1.6c-1.7,0-3.1,0.6-4.3,1.9
					c-0.9-2.3-2.4-4.2-4.4-5.6c-2.1-1.4-4.4-2.1-7-2.1c-3.4,0-6.3,1.2-8.7,3.6c-1.7-1.1-3.5-1.6-5.4-1.6c-1.3,0-2.5,0.2-3.7,0.7
					c-0.4-1.7-1.3-3.1-2.7-4.2c-1.4-1.1-3-1.6-4.8-1.6c-1.4,0-2.8,0.4-4,1.1C140.2,239.2,139.3,240.1,138.6,241.4 M511.5,40
					c-6,0-11.7,1.4-17.1,4.3c-5.2,2.8-9.6,6.6-13.2,11.5c-1.4-2.9-3.5-5.3-6.1-7c-2.7-1.8-5.7-2.7-8.9-2.7c-4,0-7.5,1.3-10.6,4
					c-3,2.6-5,6-5.9,10.1c-2.7-1.2-5.4-1.8-8.2-1.8c-4.3,0-8.3,1.3-12,3.9c-2.5-2.7-5.4-4.8-8.6-6.3c-3.4-1.5-6.9-2.3-10.6-2.3
					c-5.7,0-10.8,1.8-15.5,5.3c-4.5,3.4-7.8,7.9-9.9,13.5c-1.2-1.4-2.6-2.5-4.3-3.3c-1.7-0.8-3.5-1.2-5.3-1.2c-3.5,0-6.5,1.3-9,3.8
					c-2.5,2.6-3.9,5.7-4.1,9.4h187.8c-0.2-11.4-4.1-21.1-11.7-29.1C531,44.1,522,40,511.5,40 M657.8,346c-0.2-2.6-1.2-4.8-3.1-6.6
					c-2-1.8-4.3-2.8-6.9-2.8c-2.9,0-5.3,1-7.3,3.1c-1.5-3.9-4.1-7-7.6-9.4c-3.6-2.5-7.5-3.7-11.8-3.7c-2.8,0-5.5,0.5-8.1,1.6
					c-2.5,1-4.8,2.5-6.7,4.5c-2.8-1.8-5.8-2.8-9.2-2.8c-2.1,0-4.2,0.4-6.3,1.2c-0.7-2.9-2.2-5.2-4.5-7.1c-2.4-1.9-5.1-2.8-8.2-2.8
					c-2.4,0-4.7,0.6-6.8,1.9c-2,1.2-3.6,2.9-4.7,4.9c-2.8-3.5-6.1-6.2-10.1-8.1c-4.1-2-8.5-3-13.1-3c-8,0-14.9,2.8-20.7,8.5
					c-5.8,5.6-8.8,12.5-9,20.5H657.8z"/>
				<path fill="#F7571A" d="M133.2,173.6c0-0.5-0.2-1-0.6-1.4c-0.4-0.4-0.8-0.6-1.4-0.6s-1,0.2-1.4,0.6c-0.4,0.4-0.5,0.8-0.5,1.4
					s0.2,1,0.5,1.4c0.4,0.4,0.8,0.6,1.4,0.6s1-0.2,1.4-0.6C133,174.6,133.2,174.1,133.2,173.6 M643.9,265.5c0.4-0.4,0.6-0.8,0.6-1.4
					c0-0.5-0.2-1-0.6-1.4c-0.4-0.4-0.8-0.5-1.4-0.5s-1,0.2-1.3,0.5c-0.4,0.4-0.5,0.8-0.5,1.4c0,0.5,0.2,1,0.5,1.4
					c0.4,0.4,0.8,0.6,1.3,0.6S643.5,265.9,643.9,265.5z"/>
				<path fill="#D1D1D1" d="M272.5,59.7c-1.1,0-2,0.4-2.7,1.1c-0.8,0.8-1.1,1.7-1.1,2.7c0,1.1,0.4,2,1.1,2.8
					c0.7,0.7,1.6,1.1,2.7,1.1c1.1,0,2-0.4,2.8-1.1c0.7-0.8,1.1-1.7,1.1-2.8s-0.4-2-1.1-2.7C274.4,60.1,273.5,59.7,272.5,59.7z"/>
				<path fill="#BFBFBF" d="M371.4,341.9h-6l-3,5.2l3,5.2h6l3-5.2L371.4,341.9 M366.2,343.3h4.3l2.2,3.8l-2.2,3.8h-4.3l-2.2-3.8
					L366.2,343.3 M612.3,66.4l-3,5.2l3,5.2h6l3-5.2l-3-5.2H612.3 M617.5,67.8l2.2,3.8l-2.2,3.8h-4.3l-2.2-3.8l2.2-3.8H617.5z"/>
			</g>
		</g>
		<g>
			<path id="Layer3_0_1_STROKES" fill="none" stroke="#BFBFBF" stroke-width="2" stroke-miterlimit="10" d="M427.9,363.2
				c0,0.9-0.3,1.7-1,2.3c-0.6,0.6-1.4,1-2.3,1c-0.9,0-1.7-0.3-2.3-1c-0.6-0.6-1-1.4-1-2.3s0.3-1.7,1-2.3c0.6-0.6,1.4-0.9,2.3-0.9
				c0.9,0,1.6,0.3,2.3,0.9C427.5,361.5,427.9,362.3,427.9,363.2z M127.8,124.4c0,0.9-0.3,1.7-1,2.3c-0.6,0.6-1.4,1-2.3,1
				c-0.9,0-1.6-0.3-2.3-1c-0.6-0.6-1-1.4-1-2.3c0-0.9,0.3-1.6,1-2.3c0.6-0.6,1.4-1,2.3-1c0.9,0,1.7,0.3,2.3,1
				C127.5,122.8,127.8,123.5,127.8,124.4z M103.1,300.6c0,0.3-0.1,0.7-0.2,1c-0.1,0.5-0.4,1-0.8,1.4c-0.6,0.6-1.4,0.9-2.3,0.9
				c-0.9,0-1.7-0.3-2.3-0.9c-0.6-0.6-1-1.4-1-2.3c0-0.9,0.3-1.6,1-2.3c0.4-0.4,0.9-0.7,1.5-0.9c0.3-0.1,0.5-0.1,0.8-0.1
				c0.9,0,1.6,0.3,2.3,0.9C102.7,299,103.1,299.8,103.1,300.6z"/>
		</g>
	</g>
</g>
<g id="browser">
	<g transform="matrix( 1, 0, 0, 1, 0,0) ">
		<g>
			<g id="Layer2_0_FILL">
				<path fill="#595959" d="M175.4,93.2h-0.3v230.5c0,1.1,0.2,2.1,0.7,3c-0.3-0.7-0.4-1.5-0.4-2.3V111.7V93.2 M248,93.2L248,93.2
					l-72.8,0v0h0.3H248 M538.5,93.2L538.5,93.2l-290.5,0v0H538.5 M538.5,93.2h1.1v0L538.5,93.2L538.5,93.2 M184.9,72.9l-2.6,0
					c-2,0-3.7,0.7-5.1,2.1c-1.1,1.1-1.7,2.3-1.9,3.7c0.3-1.4,0.9-2.6,2-3.6c1.4-1.4,3.1-2.2,5.1-2.2H184.9 M532.8,72.9
					c-0.2-0.1-0.4-0.1-0.6-0.1H175.4c-2,0-3.7,0.7-5.1,2.1c-1.4,1.4-2.1,3.1-2.1,5.1v243.6c0,2,0.7,3.6,2.1,5
					c1.4,1.4,3.1,2.1,5.1,2.1h5c-1.2-0.3-2.3-0.9-3.1-1.8c-0.7-0.7-1.1-1.5-1.4-2.3c-0.4-0.9-0.7-1.9-0.7-3V93.2h-0.3h0.3v0v-13
					c0,0,0-0.1,0-0.1l0.2-1.4c0.2-1.4,0.9-2.6,1.9-3.7c1.4-1.4,3.1-2.1,5.1-2.1l2.6,0H532.8 M539.6,72.9v-0.1h-7.3
					c0.2,0,0.4,0.1,0.6,0.1H539.6z"/>
				<path fill="#FEFEFE" d="M573.7,330.9c1.9-0.1,3.5-0.8,4.8-2.1c1.3-1.4,2-3,2.1-4.8c0-0.1,0-0.2,0-0.3V111.7H175.4v212.8
					c0,0.8,0.1,1.5,0.4,2.3c0.3,0.7,0.8,1.4,1.4,2.1c1,1,2.2,1.7,3.6,2c0.3,0.1,0.6,0.1,1,0.1h0.1H573.7 M180.4,330.8
					c0.4,0.1,0.9,0.1,1.4,0.1c-0.3,0-0.7-0.1-1-0.1c-1.4-0.3-2.6-0.9-3.6-2c-0.6-0.7-1.1-1.4-1.4-2.1c0.3,0.8,0.8,1.6,1.4,2.3
					C178.2,329.9,179.3,330.5,180.4,330.8 M578.5,328.8c-1.3,1.3-2.9,2-4.8,2.1c1.9,0,3.5-0.7,4.9-2c1.3-1.4,2-3,2-4.9
					C580.5,325.8,579.8,327.4,578.5,328.8z"/>
				<path fill="#CACACA" d="M580.6,93.2h-0.3h-40.7h-1.1H248h-72.6v18.5h405.1V93.2 M515,102h31H515 M553.4,102h21.3H553.4
					 M450.8,102h56H450.8 M183.7,102h72H183.7 M573.4,72.9h-2.5h-31.3h-6.8H184.9h-2.5c-2,0-3.7,0.7-5.1,2.2c-1.1,1-1.7,2.2-2,3.6
					l-0.2,1.4c0,0,0,0.1,0,0.1v13H248h290.5h1.1h41v-13c0,0,0-0.1,0-0.1c0-1-0.2-1.9-0.5-2.7c-0.1-0.2-0.2-0.4-0.3-0.6
					c-0.3-0.6-0.8-1.2-1.3-1.7C577.1,73.7,575.4,72.9,573.4,72.9 M200.6,82.4c0,0.8-0.3,1.4-0.8,2c-0.6,0.5-1.2,0.8-2,0.8
					c-0.8,0-1.4-0.3-2-0.8c-0.5-0.5-0.8-1.2-0.8-2c0-0.8,0.3-1.4,0.8-2c0.5-0.5,1.2-0.8,2-0.8c0.8,0,1.4,0.3,2,0.8
					C200.4,81,200.6,81.7,200.6,82.4 M189.4,80.4c0.5,0.6,0.8,1.2,0.8,2c0,0.8-0.3,1.4-0.8,2c-0.5,0.5-1.2,0.8-2,0.8
					c-0.8,0-1.4-0.3-2-0.8c-0.5-0.5-0.8-1.2-0.8-2c0-0.8,0.3-1.4,0.8-2c0.6-0.5,1.2-0.8,2-0.8C188.2,79.7,188.8,79.9,189.4,80.4
					 M210.4,80.4c0.5,0.6,0.8,1.2,0.8,2c0,0.8-0.3,1.4-0.8,2c-0.6,0.5-1.2,0.8-2,0.8c-0.8,0-1.4-0.3-2-0.8c-0.5-0.5-0.8-1.2-0.8-2
					c0-0.8,0.3-1.4,0.8-2c0.5-0.5,1.2-0.8,2-0.8C209.1,79.7,209.8,79.9,210.4,80.4 M211.1,82.4c0-0.8-0.3-1.4-0.8-2
					c-0.6-0.5-1.2-0.8-2-0.8c-0.8,0-1.4,0.3-2,0.8c-0.5,0.6-0.8,1.2-0.8,2c0,0.8,0.3,1.4,0.8,2c0.5,0.5,1.2,0.8,2,0.8
					c0.8,0,1.4-0.3,2-0.8C210.9,83.9,211.1,83.2,211.1,82.4 M190.1,82.4c0-0.8-0.3-1.4-0.8-2c-0.5-0.5-1.2-0.8-2-0.8
					c-0.8,0-1.4,0.3-2,0.8c-0.5,0.6-0.8,1.2-0.8,2c0,0.8,0.3,1.4,0.8,2c0.6,0.5,1.2,0.8,2,0.8c0.8,0,1.4-0.3,2-0.8
					C189.9,83.9,190.1,83.2,190.1,82.4 M199.9,84.4c0.5-0.5,0.8-1.2,0.8-2c0-0.8-0.3-1.4-0.8-2c-0.6-0.5-1.2-0.8-2-0.8
					c-0.8,0-1.4,0.3-2,0.8c-0.5,0.6-0.8,1.2-0.8,2c0,0.8,0.3,1.4,0.8,2c0.5,0.5,1.2,0.8,2,0.8C198.6,85.2,199.3,84.9,199.9,84.4z"/>
			</g>
		</g>
		<g>
			<path id="Layer2_0_1_STROKES" fill="none" stroke="#000000" stroke-miterlimit="10" d="M579.8,76.8c-0.3-0.6-0.8-1.2-1.3-1.8
				c-1.4-1.4-3.1-2.1-5.1-2.1l-2.5,0h-31.3h-6.8H184.9 M175.2,80.1l0.2-1.4 M175.2,93.2v-13 M580.6,93.2v-13c0,0,0-0.1,0-0.1
				c0-1-0.2-1.9-0.5-2.7c-0.1-0.2-0.2-0.4-0.3-0.6 M580.6,93.2L580.6,93.2 M539.6,72.8h-7.3c0.2,0,0.3,0.1,0.6,0.1 M539.6,93.2h-1.1
				v0 M515,102h31 M553.4,102h21.3 M580.6,93.2v18.5v212.1c0,0.1,0,0.2,0,0.3 M573.7,330.9H182 M180.4,330.8h-5
				c-2,0-3.7-0.7-5.1-2.1c-1.4-1.4-2.1-3.1-2.1-5V80c0-2,0.7-3.7,2.1-5.1c1.4-1.4,3.1-2.1,5.1-2.1h356.8 M539.6,93.2h40.7
				 M580.6,324c-0.1,1.8-0.8,3.4-2.1,4.8c-1.3,1.3-2.9,2-4.8,2.1 M450.8,102h56 M248,93.2L248,93.2l290.5,0 M175.4,78.7
				c0.2-1.4,0.9-2.6,1.9-3.7c1.4-1.4,3.1-2.1,5.1-2.1l2.6,0 M174.9,93.2h0.3v0 M175.2,93.2h0.3H248 M200.6,82.4c0,0.8-0.3,1.4-0.8,2
				c-0.6,0.5-1.2,0.8-2,0.8c-0.8,0-1.4-0.3-2-0.8c-0.5-0.5-0.8-1.2-0.8-2c0-0.8,0.3-1.4,0.8-2c0.5-0.5,1.2-0.8,2-0.8
				c0.8,0,1.4,0.3,2,0.8C200.4,81,200.6,81.7,200.6,82.4z M190.1,82.4c0,0.8-0.3,1.4-0.8,2c-0.5,0.5-1.2,0.8-2,0.8
				c-0.8,0-1.4-0.3-2-0.8c-0.5-0.5-0.8-1.2-0.8-2c0-0.8,0.3-1.4,0.8-2c0.6-0.5,1.2-0.8,2-0.8c0.8,0,1.4,0.3,2,0.8
				C189.9,81,190.1,81.7,190.1,82.4z M211.1,82.4c0,0.8-0.3,1.4-0.8,2c-0.6,0.5-1.2,0.8-2,0.8c-0.8,0-1.4-0.3-2-0.8
				c-0.5-0.5-0.8-1.2-0.8-2c0-0.8,0.3-1.4,0.8-2c0.5-0.5,1.2-0.8,2-0.8c0.8,0,1.4,0.3,2,0.8C210.9,81,211.1,81.7,211.1,82.4z
				 M183.7,102h72 M175.9,326.7c-0.4-0.9-0.7-1.9-0.7-3V93.2 M175.4,111.7h405.1 M175.9,326.7c0.3,0.7,0.8,1.4,1.4,2.1
				c1,1,2.2,1.7,3.6,2c0.3,0.1,0.6,0.1,1,0.1"/>
		</g>
	</g>
</g>
<g id="content">
	<g transform="matrix( 1, 0, 0, 1, 0,0) ">
		<g>
			<g id="Layer1_0_FILL">
				<path fill="#F7571A" d="M482,127.2h-14.9V168H482V127.2 M499.3,168v-21.4h-14.8V168H499.3 M554,163v5h14.8v-5H554 M551.3,168
					v-7.2h-14.8v7.2H551.3 M519.2,156.8V168H534v-11.2H519.2 M501.9,168h14.8v-14.2h-14.8V168z"/>
				<path fill="#BAD727" d="M283.5,163v5h8.4v-5H283.5 M304.2,168v-3.6h-8.4v3.6H304.2 M255.8,160.8h-8.4v7.2h8.4V160.8 M267.9,168
					v-5h-8.4v5H267.9 M271.5,163v5h8.4v-5H271.5 M199.2,127.2V168h8.4v-40.8H199.2 M235.4,156.8V168h8.4v-11.2H235.4 M231.7,135.6
					h-8.4V168h8.4V135.6 M219.6,131.4h-8.4V168h8.4V131.4 M377.5,126.4L377.5,126.4c-9.4,0-17.4,3.3-24,9.9
					c-5.5,5.5-8.7,11.9-9.6,19.2l33.6,4.8V126.4z"/>
				<path fill="#2C538A" d="M401.3,136.3c-6.6-6.6-14.5-9.9-23.8-9.9v33.8l-33.6-4.8c-0.2,1.5-0.3,3.1-0.3,4.7
					c0,9.3,3.3,17.3,9.9,23.9c6.6,6.6,14.6,9.9,23.9,9.9c9.3,0,17.3-3.3,23.9-9.9c6.6-6.6,9.9-14.6,9.9-23.9
					C411.2,150.9,407.9,142.9,401.3,136.3z"/>
			</g>
		</g>
		<g>
			<path id="Layer1_0_1_STROKES" fill="none" stroke="#A3A3A3" stroke-linejoin="round" d="M315.2,120v90h128v-90.4 M443.2,210h128
				 M183.6,210h131.6v110.4"/>
		</g>
		<g>
			<path id="Layer1_0_2_STROKES" fill="none" stroke="#000000" stroke-linejoin="round" d="M492.5,173.2v8.4 M509.8,173.2V185
				 M544.3,173.2v17.2 M561.6,173.2v10.2 M527,173.2v15 M377.5,126.4c9.3,0,17.3,3.3,23.8,9.9c6.6,6.6,9.9,14.6,9.9,23.9
				c0,9.3-3.3,17.3-9.9,23.9c-6.6,6.6-14.6,9.9-23.9,9.9c-9.3,0-17.3-3.3-23.9-9.9c-6.6-6.6-9.9-14.6-9.9-23.9
				c0-1.6,0.1-3.2,0.3-4.7c0.9-7.3,4.1-13.7,9.6-19.2C360.1,129.7,368.1,126.4,377.5,126.4L377.5,126.4v33.8l-33.6-4.8 M463.4,124.9
				h-4.2 M463.4,139.1h-4.2 M475.3,173.2v8.4 M463.4,153.1h-4.2 M463.4,167.4h-4.2 M454.4,160.4v-25.6 M330.3,226.1h-4.2
				 M330.3,253.9h-4.2 M330.3,281.8h-4.2 M368.8,315.6h22.8 M335.1,315.6H358 M330.3,309.8h-4.2 M436,315.6h22.8 M402.4,315.6h22.8
				 M335.1,225.8v84h225.6 M537,315.6h22.8 M503.1,315.6H526 M469.5,315.6h22.8 M195.4,146.1h-4.2 M195.4,139.1h-4.2 M195.4,132
				h-4.2 M195.4,124.9h-4.2 M195.4,167.4h-4.2 M195.4,160.2h-4.2 M195.4,153.1h-4.2 M239.8,173.2v15 M227.8,173.2v5.6 M215.8,173.2
				v8.4 M203.8,173.2v8.4 M186.4,160.4v-25.6 M251.8,173.2v17.2 M275.8,173.2v7.8 M287.8,173.2v7.8 M299.9,173.2v11.2 M321.3,278.8
				v-21 M192.3,226.1h-4.2 M192.3,240.1h-4.2 M192.3,253.9h-4.2 M192.3,267.9h-4.2 M192.3,281.8h-4.2 M192.3,295.6h-4.2
				 M183.3,280.5v-25.6 M222.9,315.6h18.4 M192.3,309.8h-4.2 M196.4,315.6h18.4 M249.3,315.6h18.4 M275.8,315.6h18.4 M196.3,225.8
				v84h98 M263.8,173.2v26.2"/>
		</g>
		<g>
			<path id="Layer1_0_3_STROKES" fill="none" stroke="#BAD727" stroke-linejoin="round" d="M342.6,302.2l0.6-1.2
				c0.5-0.9,1.2-1.6,1.9-2.2c2.3-1.9,5.1-2,8.3-0.3c3.6,1.9,8.3,2.4,14.1,1.4c5-0.9,9.1-2.4,12.3-4.4c3.1-2,7.4-3.1,12.9-3.1
				c6.4-0.1,12.6,1.4,18.6,4.3c3.2,1.6,7.1,2.2,11.5,1.7c4.4-0.5,8.8-1.9,13.3-4.3c10.2-5.5,17.3-13.9,21.3-25
				c3.5-9.9,8.7-14.4,15.4-13.7c2.2,0.3,4.6,1.1,7.1,2.5c1.4,0.8,2.8,1.7,4.4,2.8c5.9,3.3,11.4,4.1,16.5,2.4
				c10.9-3.7,20.2-17.3,28-40.8"/>
		</g>
		<g>
			<path id="Layer1_0_4_STROKES" fill="none" stroke="#2C538A" stroke-linejoin="round" d="M202.2,281.6c0.8-8.6,1.6-15,2.6-19.4
				c1.9-8.6,3.3-2.3,4.2,19.1c0.9,21,5.4,27.3,13.5,18.8c2-2.1,5.1-6.3,9.1-12.4c3.3-5,5.4-7.5,6.2-7.5c0.9,0,2.5,0.5,4.8,1.8
				c1.3,0.7,3.4,1.8,6.3,3.4c5.4,2.6,8.6,2.1,9.7-1.4c1.2-3.7,3.5-11.9,7-24.7l5-18.1c0.7-3.7,1.8-6.7,3.1-9.1
				c2.7-4.9,5.5-4.2,8.5,1.9c3.1,6.4,5.5,13.4,7.1,21.1c1,4.6,1.7,9.2,2,13.7"/>
		</g>
	</g>
</g>
</svg>
