<?xml version="1.0" encoding="utf-8"?>
<!-- Generator: Adobe Illustrator 23.0.1, SVG Export Plug-In . SVG Version: 6.00 Build 0)  -->
<svg version="1.1" id="Layer_ccc1" xmlns="http://www.w3.org/2000/svg" xmlns:xlink="http://www.w3.org/1999/xlink" x="0px" y="0px"
	 viewBox="0 0 750 400" enable-background="new 0 0 750 400" xml:space="preserve">
<g id="clouds_bits">
	<g transform="matrix( 1, 0, 0, 1, 0,0) ">
		<g>
			<g id="Layer6_0_FILL">
				<path fill="#BAD727" d="M234.8,348.1c0-0.5-0.2-1-0.6-1.4s-0.8-0.5-1.4-0.5c-0.5,0-1,0.2-1.3,0.5c-0.4,0.4-0.6,0.8-0.6,1.4
					c0,0.5,0.2,1,0.6,1.4c0.4,0.4,0.8,0.5,1.3,0.5c0.5,0,1-0.2,1.4-0.5C234.6,349.1,234.8,348.6,234.8,348.1 M601.9,101.2
					c-0.4,0.4-0.6,0.8-0.6,1.3s0.2,1,0.6,1.3c0.4,0.4,0.8,0.6,1.3,0.6s1-0.2,1.3-0.6c0.4-0.4,0.6-0.8,0.6-1.3s-0.2-1-0.6-1.3
					c-0.4-0.4-0.8-0.6-1.3-0.6S602.3,100.8,601.9,101.2z"/>
				<path fill="#DEDEDE" d="M72.3,216.4c0-0.5-0.2-1-0.6-1.3c-0.4-0.4-0.9-0.6-1.4-0.6c-0.5,0-1,0.2-1.3,0.6s-0.6,0.8-0.6,1.3
					s0.2,1,0.6,1.4c0.4,0.4,0.8,0.6,1.3,0.6c0.6,0,1-0.2,1.4-0.6C72.1,217.4,72.3,216.9,72.3,216.4 M440.8,55.9c0-1.1-0.4-2-1.1-2.8
					c-0.8-0.7-1.7-1.1-2.8-1.1s-2,0.4-2.7,1.1c-0.7,0.8-1.1,1.7-1.1,2.8c0,1.1,0.4,2,1.1,2.7c0.8,0.7,1.7,1.1,2.7,1.1
					c1.1,0,2-0.4,2.8-1.1C440.4,57.9,440.8,57,440.8,55.9z"/>
				<path fill="#F7571A" d="M133.2,270.9c0-0.5-0.2-1-0.6-1.4c-0.4-0.4-0.8-0.5-1.4-0.5s-1,0.2-1.4,0.5c-0.4,0.4-0.5,0.9-0.5,1.4
					c0,0.5,0.2,1,0.5,1.4c0.4,0.4,0.8,0.5,1.4,0.5s1-0.2,1.4-0.5C133,271.9,133.2,271.4,133.2,270.9 M643.9,265.5
					c0.4-0.4,0.6-0.8,0.6-1.4c0-0.5-0.2-1-0.6-1.4c-0.4-0.4-0.8-0.5-1.4-0.5s-1,0.2-1.3,0.5c-0.4,0.4-0.5,0.8-0.5,1.4
					c0,0.5,0.2,1,0.5,1.4c0.4,0.4,0.8,0.6,1.3,0.6S643.5,265.9,643.9,265.5z"/>
				<path fill="#83C4EC" d="M99.5,283.3c-0.3,0-0.5,0.1-0.7,0.3c-0.2,0.2-0.2,0.4-0.3,0.7c0,0.3,0.1,0.5,0.3,0.7
					c0.2,0.2,0.4,0.3,0.7,0.3h2.6v2.5c0,0.3,0.1,0.5,0.3,0.7c0.2,0.2,0.4,0.3,0.7,0.3s0.5-0.1,0.7-0.3c0.2-0.2,0.3-0.4,0.3-0.7v-2.5
					h2.6c0.3,0,0.5-0.1,0.6-0.3c0.2-0.2,0.3-0.4,0.3-0.7c0-0.3-0.1-0.5-0.3-0.7c-0.2-0.2-0.4-0.3-0.6-0.3H104v-2.5
					c0-0.3-0.1-0.5-0.3-0.6c-0.2-0.2-0.4-0.3-0.7-0.3c-0.2,0-0.5,0.1-0.7,0.3c-0.2,0.2-0.3,0.4-0.3,0.6v2.5H99.5 M137,121.4
					c-0.2,0.2-0.3,0.4-0.3,0.7v2.6h-2.6c-0.3,0-0.5,0.1-0.7,0.3c-0.2,0.2-0.3,0.4-0.3,0.7c0,0.3,0.1,0.5,0.3,0.7
					c0.2,0.2,0.4,0.3,0.7,0.3h2.6v2.5c0,0.6,0.3,1,0.9,1s0.9-0.3,0.9-1v-2.5h2.6c0.3,0,0.5-0.1,0.7-0.3c0.2-0.2,0.3-0.4,0.3-0.7
					c0-0.3-0.1-0.5-0.3-0.7c-0.2-0.2-0.4-0.3-0.7-0.3h-2.6v-2.6c0-0.3-0.1-0.5-0.3-0.7c-0.2-0.2-0.4-0.3-0.7-0.3
					C137.4,121.2,137.2,121.3,137,121.4 M317,28.5h-2.6V26c0-0.3-0.1-0.5-0.3-0.7c-0.2-0.2-0.4-0.3-0.7-0.3c-0.2,0-0.5,0.1-0.6,0.3
					c-0.2,0.2-0.3,0.4-0.3,0.7v2.6h-2.6c-0.6,0-0.9,0.3-0.9,1c0,0.3,0.1,0.5,0.3,0.6c0.2,0.2,0.4,0.3,0.7,0.3h2.6V33
					c0,0.3,0.1,0.5,0.3,0.7c0.2,0.2,0.4,0.3,0.6,0.3c0.6,0,1-0.3,1-1v-2.5h2.6c0.3,0,0.5-0.1,0.6-0.3c0.2-0.2,0.3-0.4,0.3-0.6
					s-0.1-0.5-0.3-0.7C317.4,28.6,317.2,28.5,317,28.5 M587,37.8c-0.2,0.2-0.3,0.4-0.3,0.7c0,0.3,0.1,0.5,0.3,0.6
					c0.2,0.2,0.4,0.3,0.7,0.3h2.5V42c0,0.3,0.1,0.5,0.3,0.7c0.2,0.2,0.4,0.3,0.7,0.3c0.3,0,0.5-0.1,0.6-0.3c0.2-0.2,0.3-0.4,0.3-0.7
					v-2.5h2.5c0.3,0,0.5-0.1,0.7-0.3c0.2-0.2,0.3-0.4,0.3-0.6c0-0.6-0.3-1-1-1h-2.5v-2.6c0-0.2-0.1-0.5-0.3-0.7
					c-0.2-0.2-0.4-0.3-0.6-0.3c-0.3,0-0.5,0.1-0.7,0.3c-0.2,0.2-0.3,0.4-0.3,0.7v2.6h-2.5C587.4,37.5,587.2,37.6,587,37.8
					 M624.8,285.3v2.6h-2.5c-0.3,0-0.5,0.1-0.6,0.3c-0.2,0.2-0.3,0.4-0.3,0.7s0.1,0.5,0.3,0.6c0.2,0.2,0.4,0.3,0.6,0.3h2.5v2.6
					c0,0.3,0.1,0.5,0.3,0.7c0.2,0.2,0.4,0.3,0.7,0.3s0.5-0.1,0.7-0.3c0.2-0.2,0.3-0.4,0.3-0.7v-2.6h2.5c0.3,0,0.5-0.1,0.7-0.3
					c0.2-0.2,0.3-0.4,0.3-0.6c0-0.6-0.3-1-1-1h-2.5v-2.6c0-0.2-0.1-0.4-0.3-0.6c-0.2-0.2-0.4-0.3-0.7-0.3s-0.5,0.1-0.7,0.3
					C625,284.8,624.8,285,624.8,285.3z"/>
				<path fill="#D1D1D1" d="M292.6,56.7c0.7-0.8,1.1-1.7,1.1-2.8c0-1.1-0.4-2-1.1-2.7c-0.8-0.7-1.7-1.1-2.8-1.1
					c-1.1,0-2,0.4-2.7,1.1c-0.8,0.8-1.1,1.7-1.1,2.7c0,1.1,0.4,2,1.1,2.8c0.7,0.7,1.6,1.1,2.7,1.1C290.9,57.8,291.8,57.4,292.6,56.7
					z"/>
				<path fill="#BFBFBF" d="M618.3,190.6l3,5.2h6l3-5.2l-3-5.2h-6L618.3,190.6 M620,190.6l2.1-3.8h4.4l2.2,3.8l-2.2,3.8h-4.4
					L620,190.6 M515.8,335.8h-6l-3,5.2l3,5.2h6l3-5.2L515.8,335.8 M510.6,337.2h4.4l2.2,3.8l-2.2,3.8h-4.4l-2.2-3.8L510.6,337.2z"/>
				<path fill="#3D3D3D" fill-opacity="0.1686" d="M348.8,355.3c-2.1,0-4.2,0.4-6.3,1.2c-0.7-2.9-2.2-5.2-4.5-7.1
					c-2.4-1.9-5.1-2.8-8.1-2.8c-2.4,0-4.7,0.6-6.8,1.9c-2,1.2-3.6,2.9-4.7,4.9c-2.8-3.5-6.1-6.2-10.1-8.1c-4.1-2-8.5-3-13.1-3
					c-8,0-14.9,2.8-20.7,8.5c-5.8,5.6-8.8,12.5-9,20.5h144c-0.2-2.6-1.2-4.8-3.1-6.6c-2-1.8-4.3-2.8-6.9-2.8c-2.9,0-5.4,1-7.4,3.1
					c-1.5-3.9-4-7-7.5-9.4c-3.6-2.5-7.5-3.7-11.9-3.7c-2.8,0-5.5,0.5-8.1,1.6c-2.5,1-4.8,2.5-6.6,4.5
					C355.2,356.2,352.2,355.3,348.8,355.3 M187.6,59.5c-1.7-1.1-3.5-1.6-5.4-1.6c-1.3,0-2.5,0.2-3.7,0.7c-0.4-1.7-1.3-3.1-2.7-4.2
					c-1.4-1.1-3-1.7-4.8-1.7c-1.4,0-2.8,0.4-4,1.2c-1.2,0.7-2.1,1.7-2.8,2.9c-1.6-2-3.6-3.6-5.9-4.8c-2.4-1.2-5-1.8-7.7-1.8
					c-4.7,0-8.8,1.7-12.2,5c-3.4,3.3-5.1,7.3-5.3,12H218c-0.1-1.5-0.8-2.8-1.9-3.9s-2.5-1.6-4.1-1.6c-1.7,0-3.1,0.6-4.3,1.9
					c-0.9-2.3-2.4-4.2-4.4-5.6c-2.1-1.4-4.4-2.2-7-2.2C192.9,56,190,57.2,187.6,59.5 M670.7,121.2c-6,0-11.7,1.4-17.1,4.3
					c-5.2,2.8-9.6,6.6-13.2,11.5c-1.4-2.9-3.5-5.3-6.1-7.1c-2.7-1.8-5.7-2.7-8.8-2.7c-4,0-7.5,1.3-10.6,4c-3,2.6-5,6-5.9,10.1
					c-2.7-1.2-5.4-1.8-8.2-1.8c-4.3,0-8.3,1.3-12,3.9c-2.5-2.7-5.4-4.9-8.6-6.4c-3.4-1.5-6.9-2.3-10.6-2.3c-5.7,0-10.8,1.8-15.5,5.3
					c-4.5,3.4-7.8,7.9-9.8,13.4c-1.2-1.4-2.6-2.5-4.3-3.3c-1.7-0.8-3.5-1.2-5.3-1.2c-3.5,0-6.5,1.3-9,3.8c-2.5,2.6-3.9,5.7-4.2,9.5
					h187.8c-0.2-11.4-4.1-21.1-11.6-29.1C690.2,125.2,681.2,121.2,670.7,121.2z"/>
			</g>
		</g>
		<g>
			<path id="Layer6_0_1_STROKES" fill="none" stroke="#BFBFBF" stroke-width="2" stroke-miterlimit="10" d="M548.8,368
				c0,0.9-0.3,1.7-1,2.3c-0.6,0.6-1.4,1-2.3,1c-0.9,0-1.7-0.3-2.3-1c-0.6-0.6-1-1.4-1-2.3s0.3-1.7,1-2.3c0.6-0.6,1.4-1,2.3-1
				c0.9,0,1.6,0.3,2.3,1C548.4,366.3,548.8,367.1,548.8,368z M103.1,143.9c0-0.3-0.1-0.7-0.2-1c-0.1-0.5-0.4-0.9-0.8-1.3
				c-0.6-0.6-1.4-0.9-2.3-0.9c-0.9,0-1.7,0.3-2.3,0.9c-0.6,0.6-1,1.4-1,2.3c0,0.9,0.3,1.6,1,2.3c0.4,0.4,0.9,0.7,1.5,0.8
				c0.3,0.1,0.5,0.1,0.8,0.1c0.9,0,1.6-0.3,2.3-0.9C102.7,145.5,103.1,144.7,103.1,143.9z M127.8,320.1c0-0.9-0.3-1.7-1-2.3
				c-0.6-0.6-1.4-0.9-2.3-0.9c-0.9,0-1.6,0.3-2.3,0.9c-0.6,0.6-1,1.4-1,2.3c0,0.9,0.3,1.6,1,2.3c0.6,0.6,1.4,0.9,2.3,0.9
				c0.9,0,1.7-0.3,2.3-0.9C127.5,321.7,127.8,321,127.8,320.1z"/>
		</g>
	</g>
</g>
<g id="browser">
	<g transform="matrix( 1, 0, 0, 1, 0,0) ">
		<g>
			<g id="Layer5_0_FILL">
				<path fill="#595959" d="M175.4,93.2h-0.3v230.5c0,1.1,0.2,2.1,0.7,3c-0.3-0.7-0.4-1.5-0.4-2.3V93.2 M248,93.2L248,93.2l-72.8,0
					v0h0.3H248 M184.9,72.9l-2.6,0c-2,0-3.7,0.7-5.1,2.1c-1.1,1.1-1.7,2.3-1.9,3.7c0.3-1.4,0.9-2.6,2-3.6c1.4-1.4,3.1-2.2,5.1-2.2
					H184.9 M532.8,72.9c-0.2-0.1-0.4-0.1-0.6-0.1H175.4c-2,0-3.7,0.7-5.1,2.1c-1.4,1.4-2.1,3.1-2.1,5.1v243.6c0,2,0.7,3.6,2.1,5
					c1.4,1.4,3.1,2.1,5.1,2.1h5c-1.2-0.3-2.3-0.9-3.1-1.8c-0.7-0.7-1.1-1.5-1.4-2.3c-0.4-0.9-0.7-1.9-0.7-3V93.2h-0.3h0.3v0v-13
					c0,0,0-0.1,0-0.1l0.2-1.4c0.2-1.4,0.9-2.6,1.9-3.7c1.4-1.4,3.1-2.1,5.1-2.1l2.6,0H532.8 M538.5,93.2L538.5,93.2l-290.5,0v0
					H538.5 M539.6,93.2L539.6,93.2l-1.1,0v0H539.6 M532.8,72.9h6.8v-0.1h-7.3C532.4,72.8,532.6,72.9,532.8,72.9z"/>
				<path fill="#FEFEFE" d="M580.6,93.2h-0.3h-40.7h-1.1H248h-72.6v231.3c0,0.8,0.1,1.5,0.4,2.3c0.3,0.7,0.8,1.4,1.4,2.1
					c1,1,2.2,1.7,3.6,2c0.3,0.1,0.6,0.1,1,0.1h0.1h391.7c1.9-0.1,3.5-0.8,4.8-2.1c1.3-1.4,2-3,2.1-4.8c0-0.1,0-0.2,0-0.3V93.2
					 M180.4,330.8c0.4,0.1,0.9,0.1,1.4,0.1c-0.3,0-0.7-0.1-1-0.1c-1.4-0.3-2.6-0.9-3.6-2c-0.6-0.7-1.1-1.4-1.4-2.1
					c0.3,0.8,0.8,1.6,1.4,2.3C178.2,329.9,179.3,330.5,180.4,330.8 M578.6,328.9c1.3-1.4,2-3,2-4.9c-0.1,1.8-0.8,3.4-2.1,4.8
					c-1.3,1.3-2.9,2-4.8,2.1C575.6,330.9,577.2,330.2,578.6,328.9z"/>
				<path fill="#CACACA" d="M573.4,72.9h-2.5h-31.3h-6.8H184.9h-2.5c-2,0-3.7,0.7-5.1,2.2c-1.1,1-1.7,2.2-2,3.6l-0.2,1.4
					c0,0,0,0.1,0,0.1v13H248h290.5h1.1h41v-13c0,0,0-0.1,0-0.1c0-1-0.2-1.9-0.5-2.7c-0.1-0.2-0.2-0.4-0.3-0.6
					c-0.3-0.6-0.8-1.2-1.3-1.7C577.1,73.7,575.4,72.9,573.4,72.9 M200.6,82.4c0,0.8-0.3,1.4-0.8,2c-0.6,0.5-1.2,0.8-2,0.8
					c-0.8,0-1.4-0.3-2-0.8c-0.5-0.5-0.8-1.2-0.8-2c0-0.8,0.3-1.4,0.8-2c0.5-0.5,1.2-0.8,2-0.8c0.8,0,1.4,0.3,2,0.8
					C200.4,81,200.6,81.7,200.6,82.4 M190.1,82.4c0,0.8-0.3,1.4-0.8,2c-0.5,0.5-1.2,0.8-2,0.8c-0.8,0-1.4-0.3-2-0.8
					c-0.5-0.5-0.8-1.2-0.8-2c0-0.8,0.3-1.4,0.8-2c0.6-0.5,1.2-0.8,2-0.8c0.8,0,1.4,0.3,2,0.8C189.9,81,190.1,81.7,190.1,82.4
					 M211.1,82.4c0,0.8-0.3,1.4-0.8,2c-0.6,0.5-1.2,0.8-2,0.8c-0.8,0-1.4-0.3-2-0.8c-0.5-0.5-0.8-1.2-0.8-2c0-0.8,0.3-1.4,0.8-2
					c0.5-0.5,1.2-0.8,2-0.8c0.8,0,1.4,0.3,2,0.8C210.9,81,211.1,81.7,211.1,82.4 M210.4,84.4c0.5-0.5,0.8-1.2,0.8-2
					c0-0.8-0.3-1.4-0.8-2c-0.6-0.5-1.2-0.8-2-0.8c-0.8,0-1.4,0.3-2,0.8c-0.5,0.6-0.8,1.2-0.8,2c0,0.8,0.3,1.4,0.8,2
					c0.5,0.5,1.2,0.8,2,0.8C209.1,85.2,209.8,84.9,210.4,84.4 M189.4,84.4c0.5-0.5,0.8-1.2,0.8-2c0-0.8-0.3-1.4-0.8-2
					c-0.5-0.5-1.2-0.8-2-0.8c-0.8,0-1.4,0.3-2,0.8c-0.5,0.6-0.8,1.2-0.8,2c0,0.8,0.3,1.4,0.8,2c0.6,0.5,1.2,0.8,2,0.8
					C188.2,85.2,188.8,84.9,189.4,84.4 M199.9,84.4c0.5-0.5,0.8-1.2,0.8-2c0-0.8-0.3-1.4-0.8-2c-0.6-0.5-1.2-0.8-2-0.8
					c-0.8,0-1.4,0.3-2,0.8c-0.5,0.6-0.8,1.2-0.8,2c0,0.8,0.3,1.4,0.8,2c0.5,0.5,1.2,0.8,2,0.8C198.6,85.2,199.3,84.9,199.9,84.4z"/>
			</g>
		</g>
		<g>
			<path id="Layer5_0_1_STROKES" fill="none" stroke="#000000" stroke-miterlimit="10" d="M579.8,76.8c-0.3-0.6-0.8-1.2-1.3-1.8
				c-1.4-1.4-3.1-2.1-5.1-2.1l-2.5,0h-31.3h-6.8H184.9 M175.2,80.1l0.2-1.4 M175.2,93.2v-13 M580.6,93.2v-13c0,0,0-0.1,0-0.1
				c0-1-0.2-1.9-0.5-2.7c-0.1-0.2-0.2-0.4-0.3-0.6 M580.6,93.2L580.6,93.2 M538.5,93.2L538.5,93.2l1.1,0h40.7 M539.6,72.8h-7.3
				c0.2,0,0.3,0.1,0.6,0.1 M573.7,330.9H182 M180.4,330.8h-5c-2,0-3.7-0.7-5.1-2.1c-1.4-1.4-2.1-3.1-2.1-5V80c0-2,0.7-3.7,2.1-5.1
				c1.4-1.4,3.1-2.1,5.1-2.1h356.8 M580.6,93.2v230.5c0,0.1,0,0.2,0,0.3c-0.1,1.8-0.8,3.4-2.1,4.8c-1.3,1.3-2.9,2-4.8,2.1 M248,93.2
				L248,93.2l290.5,0 M175.4,78.7c0.2-1.4,0.9-2.6,1.9-3.7c1.4-1.4,3.1-2.1,5.1-2.1l2.6,0 M174.9,93.2h0.3v0 M175.2,93.2h0.3H248
				 M200.6,82.4c0,0.8-0.3,1.4-0.8,2c-0.6,0.5-1.2,0.8-2,0.8c-0.8,0-1.4-0.3-2-0.8c-0.5-0.5-0.8-1.2-0.8-2c0-0.8,0.3-1.4,0.8-2
				c0.5-0.5,1.2-0.8,2-0.8c0.8,0,1.4,0.3,2,0.8C200.4,81,200.6,81.7,200.6,82.4z M190.1,82.4c0,0.8-0.3,1.4-0.8,2
				c-0.5,0.5-1.2,0.8-2,0.8c-0.8,0-1.4-0.3-2-0.8c-0.5-0.5-0.8-1.2-0.8-2c0-0.8,0.3-1.4,0.8-2c0.6-0.5,1.2-0.8,2-0.8
				c0.8,0,1.4,0.3,2,0.8C189.9,81,190.1,81.7,190.1,82.4z M211.1,82.4c0,0.8-0.3,1.4-0.8,2c-0.6,0.5-1.2,0.8-2,0.8
				c-0.8,0-1.4-0.3-2-0.8c-0.5-0.5-0.8-1.2-0.8-2c0-0.8,0.3-1.4,0.8-2c0.5-0.5,1.2-0.8,2-0.8c0.8,0,1.4,0.3,2,0.8
				C210.9,81,211.1,81.7,211.1,82.4z M175.9,326.7c-0.4-0.9-0.7-1.9-0.7-3V93.2 M175.9,326.7c0.3,0.7,0.8,1.4,1.4,2.1
				c1,1,2.2,1.7,3.6,2c0.3,0.1,0.6,0.1,1,0.1"/>
		</g>
	</g>
</g>
<g id="bg_circles">
	<g transform="matrix( 1, 0, 0, 1, 0,0) ">
		<g>
			<g id="Layer4_0_FILL">
				<path fill="#BAD727" d="M540.8,147.6c-0.4,0-0.7,0.1-1,0.4c-0.3,0.3-0.4,0.7-0.4,1.1s0.1,0.7,0.4,1c0.3,0.3,0.7,0.4,1,0.4
					c0.4,0,0.7-0.2,1-0.4c0.3-0.3,0.5-0.6,0.5-1s-0.2-0.8-0.5-1.1C541.6,147.7,541.3,147.6,540.8,147.6 M404,149.9
					c0,0.5,0.2,0.9,0.5,1.2c0.4,0.4,0.8,0.6,1.3,0.6s0.9-0.2,1.2-0.6c0.4-0.3,0.5-0.7,0.5-1.2c0-0.5-0.2-0.9-0.5-1.3
					c-0.3-0.3-0.7-0.5-1.2-0.5s-0.9,0.2-1.3,0.5C404.2,149.1,404,149.5,404,149.9 M433.1,182.4c0.9-0.9,1.4-1.9,1.4-3.2
					c0-1.3-0.4-2.3-1.4-3.3c-0.9-0.9-1.9-1.3-3.2-1.3c-1.3,0-2.4,0.4-3.3,1.3c-0.9,0.9-1.3,2-1.3,3.3c0,1.3,0.4,2.3,1.3,3.2
					c0.9,0.9,2,1.3,3.3,1.3S432.3,183.3,433.1,182.4 M534.2,176.6c0.1-0.1,0.1-0.2,0.1-0.4c0-0.2,0-0.3-0.1-0.4
					c-0.1-0.1-0.2-0.1-0.4-0.1c-0.2,0-0.3,0.1-0.4,0.1c-0.1,0.1-0.1,0.2-0.1,0.4c0,0.2,0,0.3,0.1,0.4c0.1,0.1,0.2,0.1,0.4,0.1
					S534,176.7,534.2,176.6 M536.5,130.9c1.1-1.1,1.7-2.4,1.7-3.9c0-1.5-0.6-2.8-1.7-3.9s-2.4-1.7-4-1.7c-1.5,0-2.8,0.6-3.9,1.7
					c-1.1,1.1-1.7,2.4-1.7,3.9c0,1.5,0.5,2.8,1.7,3.9c1.1,1.1,2.4,1.7,3.9,1.7C534.1,132.6,535.5,132.1,536.5,130.9 M217.9,109.5
					c0.3-0.3,0.5-0.7,0.5-1.1c0-0.4-0.2-0.8-0.5-1.2c-0.3-0.3-0.7-0.4-1.1-0.4c-0.4,0-0.8,0.2-1.2,0.4c-0.3,0.3-0.4,0.7-0.4,1.2
					s0.1,0.8,0.4,1.1c0.3,0.3,0.7,0.5,1.2,0.5C217.2,110,217.6,109.8,217.9,109.5 M259.6,110.8c-0.5,0-0.9,0.2-1.2,0.4
					c-0.3,0.3-0.5,0.7-0.5,1.2c0,0.5,0.1,0.8,0.5,1.2c0.3,0.3,0.7,0.5,1.2,0.5c0.5,0,0.9-0.2,1.1-0.5c0.3-0.3,0.5-0.7,0.5-1.2
					c0-0.5-0.2-0.9-0.5-1.2C260.5,111,260.1,110.8,259.6,110.8 M241.4,123.3c0,0.9,0.3,1.7,1,2.3c0.7,0.7,1.5,1,2.4,1
					c0.9,0,1.7-0.3,2.4-1c0.7-0.6,1-1.4,1-2.3c0-0.9-0.3-1.7-1-2.4c-0.6-0.6-1.4-0.9-2.4-0.9s-1.7,0.3-2.4,0.9
					C241.7,121.6,241.4,122.4,241.4,123.3 M342,119.4c1.7-1.7,2.6-3.8,2.6-6.2s-0.9-4.5-2.6-6.3c-1.7-1.7-3.8-2.5-6.2-2.5
					c-2.4,0-4.5,0.8-6.3,2.5c-1.7,1.7-2.5,3.8-2.5,6.3s0.9,4.5,2.5,6.2c1.7,1.7,3.8,2.6,6.3,2.6C338.2,122,340.3,121.1,342,119.4
					 M428.6,138.2c1.5-1.5,2.3-3.4,2.3-5.6s-0.8-4-2.3-5.5c-1.5-1.5-3.4-2.3-5.6-2.3c-2.2,0-4,0.8-5.5,2.3c-1.5,1.5-2.3,3.4-2.3,5.5
					c0,2.2,0.8,4,2.3,5.6c1.5,1.5,3.4,2.3,5.5,2.3C425.2,140.5,427.1,139.7,428.6,138.2 M297.9,181.5c0.3-0.3,0.5-0.7,0.5-1.2
					c0-0.5-0.2-0.9-0.5-1.2c-0.3-0.3-0.7-0.5-1.2-0.5c-0.5,0-0.9,0.2-1.2,0.5c-0.3,0.3-0.5,0.7-0.5,1.2c0,0.5,0.2,0.9,0.5,1.2
					s0.7,0.5,1.2,0.5C297.2,182,297.6,181.8,297.9,181.5 M275.8,185.9c0.8-0.8,1.3-1.8,1.3-2.9s-0.4-2.2-1.3-3
					c-0.8-0.8-1.8-1.2-3-1.2s-2.2,0.4-3,1.2c-0.8,0.8-1.2,1.8-1.2,3s0.4,2.2,1.2,2.9c0.8,0.8,1.8,1.3,3,1.3S274.9,186.8,275.8,185.9
					 M354.3,182.9c0.4-0.4,0.6-0.9,0.6-1.4c0-0.6-0.2-1-0.6-1.4s-0.9-0.6-1.4-0.6c-0.6,0-1,0.2-1.5,0.6c-0.4,0.4-0.6,0.9-0.6,1.4
					c0,0.6,0.2,1.1,0.6,1.4c0.4,0.4,0.9,0.6,1.5,0.6C353.4,183.5,353.9,183.3,354.3,182.9 M386.2,193.4c1.1-1.1,1.6-2.4,1.6-3.9
					c0-1.5-0.5-2.8-1.6-3.9c-1.1-1.1-2.4-1.6-3.9-1.6c-1.5,0-2.8,0.5-3.9,1.6c-1.1,1.1-1.6,2.4-1.6,3.9c0,1.5,0.5,2.8,1.6,3.9
					c1.1,1.1,2.4,1.6,3.9,1.6C383.8,195,385.1,194.5,386.2,193.4z"/>
			</g>
		</g>
		<g>
			<path id="Layer4_0_1_STROKES" fill="none" stroke="#BAD727" stroke-linecap="round" stroke-linejoin="round" d="M538.2,127
				c0,1.5-0.6,2.8-1.7,3.9s-2.4,1.7-4,1.7c-1.5,0-2.8-0.6-3.9-1.7c-1.1-1.1-1.7-2.4-1.7-3.9c0-1.5,0.5-2.8,1.7-3.9
				c1.1-1.1,2.4-1.7,3.9-1.7c1.5,0,2.9,0.6,4,1.7S538.2,125.5,538.2,127z M542.3,149.1c0,0.4-0.2,0.7-0.5,1c-0.3,0.3-0.6,0.4-1,0.4
				c-0.4,0-0.7-0.2-1-0.4c-0.3-0.3-0.4-0.6-0.4-1s0.1-0.8,0.4-1.1c0.3-0.3,0.7-0.4,1-0.4c0.4,0,0.7,0.1,1,0.4
				C542.1,148.3,542.3,148.7,542.3,149.1z M516.8,130.6c0,1.8-0.7,3.4-2,4.6c-1.3,1.3-2.8,1.9-4.6,1.9c-1.8,0-3.4-0.6-4.7-1.9
				c-1.3-1.3-1.9-2.8-1.9-4.6c0-1.8,0.6-3.4,1.9-4.7c1.3-1.3,2.9-1.9,4.7-1.9c1.8,0,3.4,0.6,4.6,1.9
				C516.1,127.2,516.8,128.8,516.8,130.6z M535.9,161.4c0,1.5-0.5,2.8-1.7,3.9c-1.1,1.1-2.4,1.6-3.9,1.6c-1.5,0-2.8-0.6-3.9-1.6
				c-1.1-1.1-1.6-2.4-1.6-3.9c0-1.5,0.5-2.9,1.6-4c1.1-1.1,2.4-1.6,3.9-1.6c1.5,0,2.8,0.5,3.9,1.6
				C535.4,158.5,535.9,159.8,535.9,161.4z M534.3,176.1c0,0.2,0,0.3-0.1,0.4c-0.1,0.1-0.2,0.1-0.4,0.1s-0.3,0-0.4-0.1
				c-0.1-0.1-0.1-0.2-0.1-0.4c0-0.2,0-0.3,0.1-0.4c0.1-0.1,0.2-0.1,0.4-0.1c0.2,0,0.3,0.1,0.4,0.1
				C534.3,175.8,534.3,176,534.3,176.1z M538.8,188.1c0,0.7-0.3,1.4-0.8,1.9s-1.2,0.8-1.9,0.8s-1.4-0.3-1.9-0.8s-0.8-1.2-0.8-1.9
				c0-0.7,0.3-1.4,0.8-1.9c0.5-0.5,1.2-0.8,1.9-0.8c0.7,0,1.4,0.3,1.9,0.8C538.5,186.7,538.8,187.4,538.8,188.1z M405,125.6
				c0,3.8-1.4,7.1-4,9.8c-2.7,2.7-6,4-9.8,4c-3.8,0-7.1-1.3-9.8-4c-2.7-2.7-4.1-5.9-4.1-9.8c0-3.8,1.4-7.1,4.1-9.8
				c2.7-2.7,5.9-4,9.8-4c3.8,0,7,1.3,9.8,4C403.6,118.5,405,121.8,405,125.6z M357.2,121.2c0,0.7-0.2,1.2-0.7,1.7
				c-0.5,0.5-1,0.7-1.7,0.7c-0.7,0-1.2-0.2-1.7-0.7c-0.5-0.5-0.7-1-0.7-1.7c0-0.7,0.2-1.2,0.7-1.7c0.5-0.5,1-0.7,1.7-0.7
				c0.7,0,1.2,0.2,1.7,0.7S357.2,120.5,357.2,121.2z M344.6,113.2c0,2.4-0.9,4.5-2.6,6.2c-1.7,1.7-3.8,2.6-6.2,2.6
				c-2.4,0-4.5-0.9-6.3-2.6c-1.7-1.7-2.5-3.8-2.5-6.2s0.9-4.5,2.5-6.3c1.7-1.7,3.8-2.5,6.3-2.5c2.4,0,4.5,0.8,6.2,2.5
				C343.7,108.7,344.6,110.8,344.6,113.2z M371.1,168.6c0,1.2-0.4,2.2-1.3,3.1c-0.8,0.9-1.9,1.3-3,1.3c-1.2,0-2.2-0.4-3.1-1.3
				c-0.8-0.8-1.3-1.9-1.3-3.1c0-1.2,0.4-2.2,1.3-3.1c0.9-0.8,1.9-1.3,3.1-1.3s2.2,0.4,3,1.3C370.7,166.3,371.1,167.3,371.1,168.6z
				 M329.4,175.4c0,3.1-1.1,5.8-3.4,8.1c-2.2,2.2-4.9,3.4-8,3.4s-5.8-1.1-8-3.4c-2.2-2.2-3.4-4.9-3.4-8.1s1.1-5.8,3.4-8
				c2.2-2.2,4.9-3.4,8-3.4s5.8,1.1,8,3.4C328.3,169.6,329.4,172.3,329.4,175.4z M354.9,181.4c0,0.6-0.2,1.1-0.6,1.4
				c-0.4,0.4-0.9,0.6-1.4,0.6c-0.6,0-1-0.2-1.5-0.6c-0.4-0.4-0.6-0.9-0.6-1.4c0-0.6,0.2-1,0.6-1.4c0.4-0.4,0.9-0.6,1.5-0.6
				c0.6,0,1,0.2,1.4,0.6S354.9,180.9,354.9,181.4z M407.5,149.9c0,0.5-0.2,0.9-0.5,1.2c-0.3,0.4-0.7,0.6-1.2,0.6s-0.9-0.2-1.3-0.6
				c-0.3-0.3-0.5-0.7-0.5-1.2c0-0.5,0.2-0.9,0.5-1.3c0.4-0.3,0.8-0.5,1.3-0.5s0.9,0.2,1.2,0.5C407.3,149.1,407.5,149.5,407.5,149.9z
				 M387.8,189.5c0,1.5-0.5,2.8-1.6,3.9c-1.1,1.1-2.4,1.6-3.9,1.6c-1.5,0-2.8-0.5-3.9-1.6c-1.1-1.1-1.6-2.4-1.6-3.9
				c0-1.5,0.5-2.8,1.6-3.9c1.1-1.1,2.4-1.6,3.9-1.6c1.5,0,2.8,0.5,3.9,1.6C387.3,186.7,387.8,188,387.8,189.5z M485.1,120.3
				c0,0.6-0.2,1.2-0.6,1.6s-1,0.7-1.6,0.7c-0.6,0-1.2-0.2-1.6-0.7s-0.6-1-0.6-1.6s0.2-1.2,0.6-1.6s1-0.7,1.6-0.7
				c0.6,0,1.2,0.2,1.6,0.7S485.1,119.6,485.1,120.3z M470.1,133.4c0,2.8-1,5.3-3,7.3s-4.4,3-7.3,3c-2.8,0-5.3-1-7.3-3s-3-4.4-3-7.3
				c0-2.8,1-5.3,3-7.3c2-2,4.4-3,7.3-3c2.8,0,5.3,1,7.3,3C469.1,128.2,470.1,130.6,470.1,133.4z M430.9,132.6c0,2.2-0.8,4-2.3,5.6
				c-1.5,1.5-3.4,2.3-5.6,2.3c-2.2,0-4-0.8-5.5-2.3c-1.5-1.5-2.3-3.4-2.3-5.6c0-2.2,0.8-4,2.3-5.5c1.5-1.5,3.4-2.3,5.5-2.3
				c2.2,0,4,0.8,5.6,2.3C430.1,128.6,430.9,130.5,430.9,132.6z M432.1,153.9c0,0.6-0.2,1.1-0.6,1.5c-0.4,0.4-0.9,0.7-1.5,0.7
				s-1.1-0.2-1.6-0.7c-0.4-0.4-0.6-0.9-0.6-1.5c0-0.6,0.2-1.1,0.6-1.6c0.4-0.4,1-0.6,1.6-0.6s1.1,0.2,1.5,0.6
				C431.9,152.8,432.1,153.3,432.1,153.9z M419.9,173.9c0,2.3-0.8,4.3-2.4,5.9c-1.6,1.6-3.6,2.4-5.9,2.4c-2.3,0-4.3-0.8-5.9-2.4
				c-1.6-1.6-2.4-3.6-2.4-5.9c0-2.3,0.8-4.3,2.4-5.9c1.6-1.6,3.6-2.4,5.9-2.4c2.3,0,4.3,0.8,5.9,2.4
				C419.1,169.7,419.9,171.7,419.9,173.9z M434.5,179.1c0,1.3-0.4,2.3-1.4,3.2c-0.9,0.9-1.9,1.3-3.2,1.3s-2.4-0.4-3.3-1.3
				c-0.9-0.9-1.3-1.9-1.3-3.2c0-1.3,0.4-2.3,1.3-3.3c0.9-0.9,2-1.3,3.3-1.3c1.3,0,2.3,0.4,3.2,1.3
				C434.1,176.8,434.5,177.9,434.5,179.1z M244,109.2c0,1.3-0.4,2.3-1.4,3.3c-0.9,0.9-2,1.4-3.3,1.4c-1.3,0-2.3-0.5-3.3-1.4
				c-0.9-0.9-1.3-2-1.3-3.3s0.4-2.3,1.3-3.3c0.9-0.9,2-1.3,3.3-1.3c1.3,0,2.4,0.4,3.3,1.3C243.6,106.8,244,107.9,244,109.2z
				 M248.1,123.3c0,0.9-0.3,1.7-1,2.3c-0.6,0.7-1.4,1-2.4,1c-0.9,0-1.7-0.3-2.4-1c-0.6-0.6-1-1.4-1-2.3c0-0.9,0.3-1.7,1-2.4
				c0.7-0.6,1.5-0.9,2.4-0.9s1.7,0.3,2.4,0.9C247.8,121.6,248.1,122.4,248.1,123.3z M218.4,108.4c0,0.4-0.2,0.8-0.5,1.1
				c-0.3,0.3-0.7,0.5-1.1,0.5c-0.4,0-0.8-0.2-1.2-0.5c-0.3-0.3-0.4-0.7-0.4-1.1s0.1-0.8,0.4-1.2c0.3-0.3,0.7-0.4,1.2-0.4
				c0.4,0,0.8,0.2,1.1,0.4C218.2,107.6,218.4,108,218.4,108.4z M239.5,174.6c0,1-0.4,1.9-1.1,2.6c-0.7,0.7-1.5,1.1-2.5,1.1
				c-1,0-1.9-0.4-2.6-1.1c-0.7-0.7-1.1-1.6-1.1-2.6s0.4-1.9,1.1-2.6c0.7-0.7,1.6-1.1,2.6-1.1c1,0,1.8,0.4,2.5,1.1
				C239.1,172.7,239.5,173.6,239.5,174.6z M227.8,184.3c0,1.6-0.6,3-1.8,4.1c-1.1,1.2-2.5,1.8-4.2,1.8s-3-0.6-4.2-1.8
				c-1.1-1.1-1.7-2.5-1.7-4.1s0.6-3,1.7-4.2c1.2-1.1,2.6-1.7,4.2-1.7c1.6,0,3,0.6,4.2,1.7C227.2,181.3,227.8,182.7,227.8,184.3z
				 M290.2,117.9c0,0.5-0.2,0.9-0.5,1.2c-0.3,0.3-0.7,0.5-1.2,0.5s-0.9-0.2-1.2-0.5c-0.3-0.3-0.5-0.7-0.5-1.2c0-0.5,0.2-0.9,0.5-1.2
				c0.3-0.3,0.7-0.5,1.2-0.5c0.5,0,0.9,0.2,1.2,0.5C290,117,290.2,117.4,290.2,117.9z M316.7,134.6c0,2-0.7,3.8-2.2,5.2
				c-1.4,1.4-3.2,2.1-5.2,2.1c-2,0-3.8-0.7-5.2-2.1c-1.4-1.4-2.1-3.2-2.1-5.2c0-2,0.7-3.8,2.1-5.2c1.4-1.4,3.2-2.2,5.2-2.2
				c2,0,3.8,0.7,5.2,2.2C316,130.8,316.7,132.5,316.7,134.6z M284.5,124.8c0,1.3-0.5,2.4-1.4,3.4c-0.9,0.9-2,1.4-3.4,1.4
				s-2.4-0.5-3.4-1.4c-0.9-0.9-1.4-2.1-1.4-3.4s0.5-2.4,1.4-3.3c0.9-0.9,2-1.4,3.4-1.4s2.4,0.5,3.4,1.4
				C284,122.3,284.5,123.5,284.5,124.8z M261.3,112.4c0,0.5-0.2,0.8-0.5,1.2c-0.3,0.3-0.7,0.5-1.1,0.5c-0.5,0-0.9-0.2-1.2-0.5
				c-0.3-0.3-0.5-0.7-0.5-1.2c0-0.5,0.1-0.9,0.5-1.2c0.3-0.3,0.7-0.4,1.2-0.4c0.5,0,0.9,0.2,1.1,0.4
				C261.1,111.6,261.3,112,261.3,112.4z M277,183c0,1.2-0.4,2.2-1.3,2.9c-0.8,0.8-1.8,1.3-3,1.3s-2.2-0.4-3-1.3
				c-0.8-0.8-1.2-1.8-1.2-2.9s0.4-2.2,1.2-3c0.8-0.8,1.8-1.2,3-1.2s2.1,0.4,3,1.2C276.6,180.8,277,181.8,277,183z M298.4,180.3
				c0,0.5-0.2,0.9-0.5,1.2c-0.3,0.3-0.7,0.5-1.2,0.5c-0.5,0-0.9-0.2-1.2-0.5s-0.5-0.7-0.5-1.2c0-0.5,0.2-0.9,0.5-1.2
				c0.3-0.3,0.7-0.5,1.2-0.5c0.5,0,0.9,0.2,1.2,0.5C298.2,179.4,298.4,179.8,298.4,180.3z"/>
		</g>
	</g>
</g>
<g id="bg_connections">
	<g transform="matrix( 1, 0, 0, 1, 0,0) ">
		<g>
			<path id="Layer3_0_1_STROKES" fill="none" stroke="#BAD727" stroke-linecap="round" stroke-linejoin="round" d="M485,119.6h23.9
				c0.5,0,1,0.2,1.5,0.6c0.3,0.3,0.5,0.7,0.5,1.1c0,0.1,0.1,0.3,0.1,0.4c0,0.2,0,0.3-0.1,0.5v1.9 M510.9,121.3v0.9 M405.7,149.7
				v-13.3c0-0.5,0.2-1,0.6-1.4c0.3-0.3,0.6-0.5,1.1-0.6c0.1,0,0.3,0,0.4,0c0.2,0,0.3,0,0.5,0h8.5 M407.4,134.4h0.9 M430,156.1v19.7
				 M288.6,119.7v4.1c0,0.5-0.2,1-0.6,1.4c-0.3,0.3-0.6,0.5-1,0.6c-0.1,0-0.3,0.1-0.5,0.1c-0.2,0-0.3,0-0.5-0.1h-1.4 M287,125.8h-1
				 M272.7,180.9v-4.3c0-0.5,0.2-1,0.6-1.4c0.3-0.3,0.6-0.5,1.1-0.6c0.1,0,0.3,0,0.4,0c0.2,0,0.3,0,0.5,0h31.2 M274.4,174.6h0.9"/>
		</g>
	</g>
</g>
<g id="screen">
	<g transform="matrix( 1, 0, 0, 1, 0,0) ">
		<g>
			<g id="Layer2_0_FILL">
				<path fill="#CACACA" d="M433.1,219.8v72h72v-72H433.1 M443.5,283.8v-6.4h20.4v6.4H443.5 M443.5,272.3h10.6H443.5 M443.5,256.2
					h50.8H443.5 M443.5,266.9h50.8H443.5 M443.5,261.5h43H443.5 M454.1,244h31.6H454.1 M323.6,219.2h-72v71.9h72V219.2 M262.2,277.4
					h20.4v6.4h-20.4V277.4 M261.5,255.9h47.7H261.5 M261.5,266.6H290H261.5 M261.5,261.3h51.6H261.5 M271.4,244H303H271.4
					 M414,291.7v-72h-71.9v72H414 M351.9,283.8v-6.4h20.4v6.4H351.9 M351.9,266.9h10.7H351.9 M351.9,256.2h51.6H351.9 M351.9,261.5
					h51.6H351.9 M361.8,244h31.6H361.8z"/>
				<path fill="#2C538A" d="M443.5,277.4v6.4h20.4v-6.4H443.5 M446.8,280.7h13.8H446.8 M391.1,170.9v-36.3H210.8v36.3H391.1
					 M225.4,147.6h148.8H225.4 M248.1,158.4h103.6H248.1 M262.2,277.4v6.4h20.4v-6.4H262.2 M265.5,280.7h13.8H265.5 M351.9,277.4
					v6.4h20.4v-6.4H351.9 M355.2,280.7H369H355.2 M474.6,178c-1-1-2.2-1.6-3.6-1.6s-2.7,0.5-3.7,1.6c-1,1-1.5,2.2-1.5,3.6
					c0,1.4,0.5,2.7,1.5,3.7c1,1,2.2,1.5,3.7,1.5s2.6-0.5,3.6-1.5s1.5-2.2,1.5-3.7C476.1,180.2,475.6,179,474.6,178 M500,166.9v-11.7
					v-10.8h-22.6v10.8v11.7h11.3H500z"/>
				<path fill="#FFFFFF" d="M516.3,137.7c-8-7.9-17.6-11.9-28.8-11.9c-11.2,0-20.9,4-28.9,11.9c-7.9,8-11.9,17.7-11.9,28.9
					c0,11.2,4,20.8,11.9,28.8c0.8,0.8,1.6,1.6,2.5,2.3H514c0.8-0.7,1.5-1.5,2.3-2.3c8-7.9,12-17.5,12-28.8
					C528.3,155.4,524.3,145.7,516.3,137.7 M500,155.2v11.7h-11.3v9.6c1.4,0,2.6,0.5,3.6,1.6c1,1,1.5,2.2,1.5,3.6
					c0,1.4-0.5,2.7-1.5,3.7s-2.2,1.5-3.6,1.5s-2.7-0.5-3.7-1.5c-1-1-1.5-2.2-1.5-3.7c0-1.4,0.5-2.6,1.5-3.6c1-1,2.2-1.6,3.7-1.6
					v-9.6h-11.3v-11.7H471v21.3c1.4,0,2.6,0.5,3.6,1.6c1,1,1.5,2.2,1.5,3.6c0,1.4-0.5,2.7-1.5,3.7s-2.2,1.5-3.6,1.5
					s-2.7-0.5-3.7-1.5c-1-1-1.5-2.2-1.5-3.7c0-1.4,0.5-2.6,1.5-3.6c1-1,2.2-1.6,3.7-1.6v-21.3h6.4v-10.8H500V155.2h6.6v21.3
					c1.4,0.1,2.5,0.6,3.4,1.6c1,1,1.5,2.2,1.5,3.6c0,1.4-0.5,2.7-1.5,3.7c-1,1-2.2,1.5-3.6,1.5c-1.4,0-2.6-0.5-3.6-1.5
					s-1.5-2.2-1.5-3.7c0-1.4,0.5-2.6,1.5-3.6c1-1,2.2-1.6,3.6-1.6c0.1,0,0.1,0,0.2,0v-21.3H500z"/>
				<path fill="#BAD727" d="M492.4,178c-1-1-2.2-1.6-3.6-1.6S486,177,485,178c-1,1-1.5,2.2-1.5,3.6c0,1.4,0.5,2.7,1.5,3.7
					c1,1,2.2,1.5,3.7,1.5s2.6-0.5,3.6-1.5s1.5-2.2,1.5-3.7C493.9,180.2,493.4,179,492.4,178z"/>
				<path fill="#F7571A" d="M502.8,178c-1,1-1.5,2.2-1.5,3.6c0,1.4,0.5,2.7,1.5,3.7s2.2,1.5,3.6,1.5c1.4,0,2.6-0.5,3.6-1.5
					c1-1,1.5-2.2,1.5-3.7c0-1.4-0.5-2.6-1.5-3.6c-0.9-0.9-2.1-1.4-3.4-1.6c-0.1,0-0.1,0-0.2,0C505,176.4,503.8,177,502.8,178z"/>
			</g>
		</g>
		<g>
			<path id="Layer2_0_1_STROKES" fill="none" stroke="#A3A3A3" stroke-miterlimit="10" d="M514,197.6h33 M210.8,134.6h180.4v36.3
				H210.8V134.6z M433.1,219.8h72v72h-72V219.8z M342.1,219.8H414v72h-71.9V219.8z M461.1,197.6H514 M251.6,219.2h72v71.9h-72V219.2
				z M209.3,197.6h251.9"/>
		</g>
		<g>
			<path id="Layer2_0_2_STROKES" fill="none" stroke="#000000" stroke-miterlimit="10" d="M461.1,197.6c-0.9-0.7-1.7-1.5-2.5-2.3
				c-7.9-7.9-11.9-17.5-11.9-28.8c0-11.2,4-20.9,11.9-28.9c8-7.9,17.7-11.9,28.9-11.9c11.2,0,20.8,4,28.8,11.9c8,8,12,17.7,12,28.9
				c0,11.2-4,20.8-12,28.8c-0.8,0.8-1.6,1.6-2.3,2.3 M500,155.2v11.7h-11.3v9.6c1.4,0,2.6,0.5,3.6,1.6c1,1,1.5,2.2,1.5,3.6
				c0,1.4-0.5,2.7-1.5,3.7s-2.2,1.5-3.6,1.5s-2.7-0.5-3.7-1.5c-1-1-1.5-2.2-1.5-3.7c0-1.4,0.5-2.6,1.5-3.6c1-1,2.2-1.6,3.7-1.6
				 M506.6,176.4c1.4,0.1,2.5,0.6,3.4,1.6c1,1,1.5,2.2,1.5,3.6c0,1.4-0.5,2.7-1.5,3.7c-1,1-2.2,1.5-3.6,1.5c-1.4,0-2.6-0.5-3.6-1.5
				s-1.5-2.2-1.5-3.7c0-1.4,0.5-2.6,1.5-3.6c1-1,2.2-1.6,3.6-1.6C506.5,176.4,506.5,176.4,506.6,176.4v-21.3H500v-10.8h-22.6v10.8
				v11.7h11.3 M556.2,147.4l6.2,5.8l-6.2,6.2 M471,176.4v-21.3h6.4 M471,176.4c1.4,0,2.6,0.5,3.6,1.6c1,1,1.5,2.2,1.5,3.6
				c0,1.4-0.5,2.7-1.5,3.7s-2.2,1.5-3.6,1.5s-2.7-0.5-3.7-1.5c-1-1-1.5-2.2-1.5-3.7c0-1.4,0.5-2.6,1.5-3.6
				C468.3,177,469.5,176.4,471,176.4z M454.1,244h31.6 M443.5,277.4h20.4v6.4h-20.4V277.4z M443.5,272.3h10.6 M351.9,266.9h10.7
				 M351.9,277.4h20.4v6.4h-20.4V277.4z M361.8,244h31.6 M351.9,256.2h51.6 M351.9,261.5h51.6 M443.5,256.2h50.8 M443.5,266.9h50.8
				 M443.5,261.5h43 M198.4,147.4l-6.2,5.8l6.2,6.2 M262.2,277.4h20.4v6.4h-20.4V277.4z M271.4,244H303 M261.5,255.9h47.7
				 M261.5,266.6H290 M261.5,261.3h51.6"/>
		</g>
		<g>
			<path id="Layer2_0_3_STROKES" fill="none" stroke="#FFFFFF" stroke-miterlimit="10" d="M248.1,158.4h103.6 M225.4,147.6h148.8"/>
		</g>
		<g>
			<path id="Layer2_0_4_STROKES" fill="none" stroke="#FEFEFE" stroke-miterlimit="10" d="M446.8,280.7h13.8 M355.2,280.7H369
				 M265.5,280.7h13.8"/>
		</g>
	</g>
</g>
<g id="icons">
	<g transform="matrix( 1, 0, 0, 1, 0,0) ">
		<g>
			<path id="Layer1_0_1_STROKES" fill="none" stroke="#000000" stroke-linejoin="round" d="M288.5,234c-1,0.9-2.1,1.4-3.5,1.4
				c-1.4,0-2.5-0.5-3.4-1.4c-1-1-1.5-2.1-1.5-3.5c0-1.3,0.5-2.5,1.5-3.4c0.9-1,2.1-1.5,3.4-1.5c1.3,0,2.5,0.5,3.5,1.5
				c1,0.9,1.5,2.1,1.5,3.4C290,231.9,289.5,233,288.5,234z"/>
		</g>
		<g>
			<path id="Layer1_0_2_STROKES" fill="none" stroke="#000000" stroke-linecap="round" stroke-linejoin="round" d="M288.5,234
				l4.2,4.2 M471.9,224.6H465c-0.8,0-1.4,0.3-2,0.8c-0.6,0.5-0.9,1.2-0.9,2v2.8c0,0.8,0.3,1.4,0.9,2c0.5,0.5,1.2,0.8,2,0.8h0.7v2.8
				l3.1-2.8h3.1c0.8,0,1.5-0.3,2-0.8c0.5-0.5,0.8-1.2,0.8-2v-2.8c0-0.8-0.3-1.4-0.8-2C473.4,224.8,472.7,224.6,471.9,224.6z
				 M469.8,235.4c0,0.5,0.2,0.9,0.6,1.2c0.3,0.3,0.7,0.5,1.2,0.5h1.8l2.1,2.1v-2.1h1.1c0.5,0,0.9-0.2,1.2-0.5
				c0.3-0.3,0.5-0.7,0.5-1.2V234c0-0.5-0.2-0.9-0.5-1.3c-0.3-0.3-0.7-0.5-1.2-0.5 M378,232.6c-1,0-1.9-0.4-2.5-1.1
				c-0.7-0.7-1.1-1.6-1.1-2.6c0-1,0.4-1.9,1.1-2.6c0.7-0.7,1.5-1.1,2.5-1.1c1,0,1.9,0.4,2.6,1.1c0.7,0.7,1.1,1.6,1.1,2.6
				c0,1-0.4,1.9-1.1,2.6C380,232.2,379.1,232.5,378,232.6c1.5,0,2.8,0.5,3.9,1.4c0.8-1.1,1.9-1.6,3.2-1.6c-0.7,0-1.2-0.2-1.7-0.7
				c-0.5-0.5-0.7-1.2-0.7-1.9s0.2-1.3,0.7-1.8c0.5-0.5,1.1-0.7,1.9-0.7c0.7,0,1.3,0.2,1.8,0.7c0.5,0.5,0.7,1.1,0.7,1.8
				c0,0.7-0.2,1.3-0.7,1.9c-0.5,0.5-1.1,0.7-1.7,0.7c1.1,0,2,0.4,2.8,1.2c0.8,0.8,1.2,1.8,1.2,2.9h-5.6c0.2,0.6,0.3,1.3,0.3,2h-11.7
				c0-0.7,0.1-1.4,0.4-2h-5.7c0-1.1,0.4-2.1,1.2-2.9c0.8-0.8,1.7-1.2,2.8-1.2c-0.7,0-1.2-0.2-1.7-0.7c-0.5-0.5-0.8-1.2-0.8-1.9
				s0.3-1.3,0.8-1.8c0.5-0.5,1.1-0.7,1.9-0.7c0.7,0,1.3,0.2,1.8,0.7c0.5,0.5,0.7,1.1,0.7,1.8s-0.2,1.3-0.7,1.9
				c-0.5,0.5-1.1,0.7-1.7,0.7c1.3,0,2.3,0.6,3.2,1.6C375.3,233,376.6,232.6,378,232.6L378,232.6 M381.9,233.9
				c0.1,0.1,0.2,0.2,0.3,0.3c0.6,0.6,1.1,1.3,1.4,2.1 M372.6,236.4c0.3-0.8,0.7-1.5,1.4-2.1c0.1-0.1,0.2-0.2,0.3-0.3 M370.9,232.3
				h0.2 M385.1,232.3h0.2"/>
		</g>
	</g>
</g>
</svg>
