<?xml version="1.0" encoding="utf-8"?>
<!-- Generator: Adobe Illustrator 23.0.1, SVG Export Plug-In . SVG Version: 6.00 Build 0)  -->
<svg version="1.1" id="Layer_asda1" xmlns="http://www.w3.org/2000/svg" xmlns:xlink="http://www.w3.org/1999/xlink" x="0px" y="0px"
	 viewBox="0 0 750 400" enable-background="new 0 0 750 400" xml:space="preserve">
<g id="clouds_bits">
	<g transform="matrix( 1, 0, 0, 1, 0,0) ">
		<g>
			<g id="Layer6_0_FILL">
				<path fill="#83C4EC" d="M71.9,175.6c-0.2-0.2-0.4-0.3-0.7-0.3s-0.5,0.1-0.7,0.3c-0.2,0.2-0.3,0.4-0.3,0.7v2.6h-2.6
					c-0.3,0-0.5,0.1-0.7,0.3c-0.2,0.2-0.3,0.4-0.3,0.7s0.1,0.5,0.3,0.7c0.2,0.2,0.4,0.3,0.7,0.3h2.6v2.6c0,0.3,0.1,0.5,0.3,0.7
					c0.2,0.2,0.4,0.3,0.7,0.3s0.5-0.1,0.7-0.3c0.2-0.2,0.3-0.4,0.3-0.7v-2.6h2.6c0.3,0,0.5-0.1,0.7-0.3c0.2-0.2,0.3-0.4,0.3-0.7
					s-0.1-0.5-0.3-0.7c-0.2-0.2-0.4-0.3-0.7-0.3h-2.6v-2.6C72.2,176,72.1,175.8,71.9,175.6 M553.9,317.9c0.2,0.2,0.4,0.3,0.6,0.3
					h2.6v2.5c0,0.6,0.3,1,0.9,1c0.3,0,0.5-0.1,0.7-0.3c0.2-0.2,0.3-0.4,0.3-0.7v-2.5h2.5c0.3,0,0.5-0.1,0.7-0.3
					c0.2-0.2,0.3-0.4,0.3-0.6s-0.1-0.5-0.3-0.7c-0.2-0.2-0.4-0.3-0.7-0.3H559v-2.5c0-0.2-0.1-0.5-0.3-0.7c-0.2-0.2-0.4-0.3-0.7-0.3
					c-0.3,0-0.5,0.1-0.7,0.3c-0.2,0.2-0.3,0.4-0.3,0.7v2.5h-2.6c-0.3,0-0.5,0.1-0.6,0.3c-0.2,0.2-0.3,0.4-0.3,0.7
					S553.7,317.7,553.9,317.9 M256.3,279.4c-0.2,0.2-0.3,0.4-0.3,0.7v2.5h-2.6c-0.3,0-0.5,0.1-0.7,0.3c-0.2,0.2-0.3,0.4-0.3,0.6
					c0,0.6,0.3,0.9,0.9,0.9h2.6v2.6c0,0.3,0.1,0.5,0.3,0.6c0.2,0.2,0.4,0.3,0.7,0.3c0.3,0,0.5-0.1,0.7-0.3c0.2-0.2,0.3-0.4,0.3-0.6
					v-2.6h2.6c0.3,0,0.5-0.1,0.6-0.3c0.2-0.2,0.3-0.4,0.3-0.7c0-0.2-0.1-0.5-0.3-0.6c-0.2-0.2-0.4-0.3-0.6-0.3h-2.6v-2.5
					c0-0.6-0.3-1-0.9-1C256.7,279.1,256.5,279.2,256.3,279.4 M237.1,98.2c-0.3,0-0.5,0.1-0.7,0.3c-0.2,0.2-0.3,0.4-0.3,0.7v2.6h-2.5
					c-0.6,0-1,0.3-1,0.9c0,0.6,0.3,1,1,1h2.5v2.5c0,0.3,0.1,0.5,0.3,0.7c0.2,0.2,0.4,0.3,0.7,0.3c0.3,0,0.5-0.1,0.7-0.3
					c0.2-0.2,0.3-0.4,0.3-0.7v-2.5h2.5c0.3,0,0.5-0.1,0.7-0.3c0.2-0.2,0.3-0.4,0.3-0.7c0-0.3-0.1-0.5-0.3-0.7
					c-0.2-0.2-0.4-0.3-0.7-0.3h-2.5v-2.6c0-0.3-0.1-0.5-0.3-0.7C237.6,98.3,237.4,98.2,237.1,98.2 M630.1,113.7
					c0-0.3-0.1-0.5-0.3-0.7c-0.2-0.2-0.4-0.3-0.6-0.3h-2.6v-2.6c0-0.3-0.1-0.5-0.3-0.7c-0.2-0.2-0.4-0.3-0.7-0.3
					c-0.3,0-0.5,0.1-0.6,0.3c-0.2,0.2-0.3,0.4-0.3,0.7v2.6h-2.6c-0.6,0-0.9,0.3-0.9,0.9c0,0.3,0.1,0.5,0.3,0.7
					c0.2,0.2,0.4,0.3,0.7,0.3h2.6v2.5c0,0.3,0.1,0.5,0.3,0.7c0.2,0.2,0.4,0.3,0.6,0.3c0.6,0,1-0.3,1-1v-2.5h2.6
					c0.2,0,0.5-0.1,0.6-0.3C630,114.2,630.1,114,630.1,113.7z"/>
				<path fill="#BAD727" d="M248.9,221.6c0.4,0.4,0.8,0.6,1.3,0.6c0.5,0,1-0.2,1.4-0.6c0.4-0.4,0.5-0.8,0.5-1.3c0-0.5-0.2-1-0.5-1.4
					c-0.4-0.4-0.9-0.5-1.4-0.5c-0.5,0-1,0.2-1.3,0.5c-0.4,0.4-0.6,0.9-0.6,1.4C248.3,220.8,248.5,221.3,248.9,221.6 M489.8,177.4
					c-0.4,0.4-0.6,0.8-0.6,1.4c0,0.5,0.2,1,0.6,1.4c0.4,0.4,0.8,0.6,1.4,0.6c0.5,0,1-0.2,1.4-0.6c0.4-0.4,0.5-0.8,0.5-1.4
					c0-0.5-0.2-1-0.5-1.4s-0.8-0.5-1.4-0.5C490.6,176.9,490.2,177,489.8,177.4 M90.9,244.4c0,0.5,0.2,1,0.6,1.4s0.8,0.6,1.3,0.6
					c0.5,0,1-0.2,1.3-0.6c0.4-0.4,0.6-0.8,0.6-1.4c0-0.5-0.2-1-0.6-1.4c-0.4-0.4-0.8-0.6-1.3-0.6c-0.5,0-1,0.2-1.3,0.6
					C91.1,243.4,90.9,243.9,90.9,244.4z"/>
				<path fill="#D1D1D1" d="M655.5,56c-0.7-0.7-1.6-1.1-2.7-1.1c-1.1,0-2,0.4-2.8,1.1c-0.7,0.7-1.1,1.6-1.1,2.7c0,1.1,0.4,2,1.1,2.8
					c0.8,0.7,1.7,1.1,2.8,1.1s2-0.4,2.7-1.1c0.8-0.8,1.1-1.7,1.1-2.8C656.6,57.6,656.2,56.7,655.5,56z"/>
				<path fill="#F7571A" d="M287.7,40.9c-0.4,0.4-0.6,0.8-0.6,1.3c0,0.5,0.2,1,0.6,1.3s0.8,0.6,1.3,0.6c0.5,0,1-0.2,1.4-0.6
					c0.4-0.4,0.5-0.8,0.5-1.3c0-0.5-0.2-1-0.5-1.3c-0.4-0.4-0.9-0.6-1.4-0.6C288.5,40.3,288.1,40.5,287.7,40.9 M429.9,201
					c-0.4,0.4-0.6,0.8-0.6,1.4s0.2,1,0.6,1.4c0.4,0.4,0.8,0.6,1.4,0.6c0.5,0,1-0.2,1.3-0.6c0.4-0.4,0.6-0.9,0.6-1.4s-0.2-1-0.6-1.4
					c-0.4-0.4-0.8-0.6-1.3-0.6C430.7,200.4,430.2,200.6,429.9,201z"/>
				<path fill="#DEDEDE" d="M659.1,179.5c-0.8,0.8-1.1,1.7-1.1,2.8c0,1,0.4,1.9,1.1,2.7c0.7,0.7,1.6,1.1,2.7,1.1
					c1.1,0,2-0.4,2.7-1.1c0.8-0.8,1.2-1.7,1.2-2.7c0-1.1-0.4-2-1.2-2.8c-0.7-0.7-1.6-1.1-2.7-1.1
					C660.7,178.4,659.8,178.8,659.1,179.5 M503.8,115.2c0,0.5,0.2,1,0.6,1.4c0.4,0.4,0.8,0.6,1.4,0.6s1-0.2,1.4-0.6
					c0.4-0.4,0.5-0.9,0.5-1.4c0-0.5-0.2-1-0.5-1.3c-0.4-0.4-0.8-0.5-1.4-0.5c-0.5,0-1,0.2-1.4,0.5
					C504,114.2,503.8,114.7,503.8,115.2z"/>
				<path fill="#BFBFBF" d="M567.2,246.4l3-5.2l-3-5.2h-6.1l-3,5.2l3,5.2H567.2 M559.8,241.1l2.2-3.8h4.3l2.2,3.8l-2.2,3.8H562
					L559.8,241.1 M219.6,118.2h-6l-3,5.2l3,5.3h6l3-5.3L219.6,118.2 M214.4,119.6h4.4l2.1,3.8l-2.1,3.8h-4.4l-2.2-3.8L214.4,119.6z"
					/>
				<path fill="#3D3D3D" fill-opacity="0.1686" d="M670.2,291.5c-0.1-1.6-0.8-3-2-4.1c-1.2-1.1-2.6-1.6-4.2-1.6
					c-1.7,0-3.2,0.6-4.5,1.9c-0.9-2.4-2.5-4.3-4.6-5.8c-2.2-1.5-4.6-2.3-7.3-2.3c-3.5,0-6.5,1.2-9,3.7c-1.7-1.1-3.6-1.7-5.6-1.7
					c-1.3,0-2.5,0.3-3.8,0.8c-0.5-1.8-1.4-3.2-2.8-4.3c-1.5-1.2-3.1-1.8-5-1.8c-1.5,0-2.9,0.4-4.1,1.1c-1.2,0.8-2.2,1.8-2.9,3
					c-1.7-2.1-3.7-3.7-6.2-4.9c-2.5-1.2-5.2-1.9-8-1.9c-4.9,0-9.1,1.7-12.6,5.2c-3.5,3.4-5.3,7.6-5.5,12.5H670.2 M175.9,71.4
					c-2.5-1.2-5.2-1.8-8-1.8c-4.9,0-9.1,1.7-12.6,5.2c-3.5,3.4-5.3,7.6-5.4,12.5h87.9c-0.1-1.6-0.8-3-1.9-4.1
					c-1.2-1.1-2.6-1.7-4.2-1.7c-1.7,0-3.2,0.6-4.5,1.9c-0.9-2.4-2.5-4.3-4.6-5.8c-2.2-1.5-4.6-2.3-7.3-2.3c-3.5,0-6.5,1.2-9,3.7
					c-1.7-1.1-3.6-1.7-5.6-1.7c-1.3,0-2.5,0.3-3.8,0.8c-0.5-1.8-1.4-3.2-2.8-4.3c-1.5-1.2-3.1-1.8-4.9-1.8c-1.5,0-2.9,0.4-4.2,1.2
					c-1.2,0.8-2.2,1.8-2.9,3.1C180.4,74.3,178.3,72.7,175.9,71.4 M587.8,64c-1.9,0-3.6,0.5-5.2,1.5c-1.6,0.9-2.8,2.2-3.6,3.8
					c-2.1-2.6-4.7-4.7-7.7-6.2c-3.2-1.5-6.5-2.3-10-2.3c-6.2,0-11.5,2.2-16,6.5c-4.4,4.3-6.7,9.6-6.8,15.8h110.5
					c-0.2-2-1-3.7-2.5-5.1c-1.5-1.4-3.2-2.2-5.3-2.2c-2.2,0-4.1,0.8-5.7,2.5c-1.2-3-3.1-5.4-5.8-7.3c-2.7-1.9-5.7-2.8-9-2.8
					c-2.2,0-4.3,0.4-6.3,1.3c-1.9,0.8-3.6,1.9-5,3.4c-2.2-1.4-4.5-2.1-7.1-2.1c-1.7,0-3.3,0.3-4.8,1c-0.5-2.2-1.7-4-3.5-5.5
					S590.1,64,587.8,64 M146.4,290.9c-2.7,0-5.1,0.8-7.2,2.5c-2.1,1.7-3.4,3.8-4.1,6.3c-1.8-0.7-3.7-1.1-5.6-1.1
					c-2.9,0-5.6,0.8-8.1,2.5c-1.7-1.7-3.7-3-5.9-4c-2.3-1-4.7-1.4-7.2-1.4c-3.8,0-7.3,1.1-10.5,3.3c-3.1,2.1-5.3,4.9-6.7,8.4
					c-0.8-0.9-1.8-1.5-2.9-2c-1.2-0.5-2.4-0.8-3.6-0.8c-2.4,0-4.4,0.8-6.1,2.4c-1.7,1.6-2.6,3.5-2.8,5.9h127.8
					c-0.2-7.1-2.8-13.2-7.9-18.2c-5.1-5-11.3-7.5-18.4-7.5c-4.1,0-7.9,0.9-11.6,2.7c-3.5,1.7-6.5,4.1-9,7.1c-1-1.8-2.4-3.3-4.2-4.4
					C150.6,291.4,148.6,290.9,146.4,290.9z"/>
				<path fill="#FEFEFE" d="M134.2,56.9c0,0.6,0.2,1,0.6,1.4c0.4,0.4,0.8,0.6,1.4,0.6c0.5,0,1-0.2,1.4-0.6c0.4-0.4,0.6-0.8,0.6-1.4
					c0-0.6-0.2-1-0.6-1.5c-0.4-0.4-0.8-0.6-1.4-0.6c-0.6,0-1,0.2-1.4,0.6C134.4,55.9,134.2,56.3,134.2,56.9z"/>
			</g>
		</g>
		<g>
			<path id="Layer6_0_1_STROKES" fill="none" stroke="#BFBFBF" stroke-width="2" stroke-miterlimit="10" d="M326.4,71.4
				c0,0.9,0.3,1.6,1,2.3c0.6,0.6,1.4,0.9,2.3,0.9c0.9,0,1.7-0.3,2.3-0.9c0.6-0.6,1-1.4,1-2.3c0-0.9-0.3-1.7-1-2.3
				c-0.6-0.6-1.4-0.9-2.3-0.9c-0.9,0-1.6,0.3-2.3,0.9C326.7,69.7,326.4,70.5,326.4,71.4z M354.5,172.6c0,0.9,0.3,1.6,0.9,2.3
				c0.6,0.6,1.4,0.9,2.3,0.9c0.9,0,1.6-0.3,2.3-0.9c0.6-0.6,0.9-1.4,0.9-2.3c0-0.9-0.3-1.7-0.9-2.3c-0.6-0.6-1.4-0.9-2.3-0.9
				c-0.9,0-1.7,0.3-2.3,0.9C354.8,170.9,354.5,171.7,354.5,172.6z M229.4,316c0,0.9,0.3,1.7,0.9,2.3s1.4,1,2.3,1
				c0.9,0,1.7-0.3,2.3-1s0.9-1.4,0.9-2.3c0-0.9-0.3-1.6-0.9-2.3s-1.4-1-2.3-1c-0.9,0-1.6,0.3-2.3,1S229.4,315.1,229.4,316z"/>
		</g>
		<g>
			<path id="Layer6_0_2_STROKES" fill="none" stroke="#A3A3A3" stroke-miterlimit="10" d="M119.8,67.6c0,0.6,0.2,1,0.6,1.4
				c0.4,0.4,0.8,0.6,1.4,0.6c0.5,0,1-0.2,1.4-0.6c0.4-0.4,0.6-0.8,0.6-1.4c0-0.6-0.2-1.1-0.6-1.4c-0.4-0.4-0.8-0.6-1.4-0.6
				s-1,0.2-1.4,0.6C120,66.5,119.8,67,119.8,67.6z"/>
		</g>
	</g>
</g>
<g id="circles">
	<g transform="matrix( 1, 0, 0, 1, 0,0) ">
		<g>
			<g id="Layer5_0_FILL">
				<path fill="#F7571A" d="M206.3,179.4c0-13.4-4.7-24.7-14.2-34.1c-9.4-9.5-20.8-14.2-34.1-14.2s-24.7,4.7-34.2,14.2
					c-9.4,9.4-14.2,20.8-14.2,34.1c0,13.3,4.7,24.7,14.2,34.2c9.4,9.4,20.8,14.1,34.2,14.1s24.7-4.7,34.1-14.1
					C201.6,204.1,206.3,192.7,206.3,179.4z"/>
				<path fill="#2C538A" d="M298.4,93.1c-11-3.5-21.7-2.7-32.1,2.6c-10.3,5.3-17.2,13.4-20.8,24.4c-3.5,11.1-2.7,21.7,2.6,32
					c5.3,10.3,13.4,17.2,24.5,20.8c11,3.6,21.7,2.7,32-2.6c10.3-5.3,17.3-13.4,20.8-24.5c3.6-11,2.7-21.7-2.6-32
					C317.5,103.5,309.4,96.6,298.4,93.1 M552.7,123.9c-10.3,5.3-17.2,13.4-20.8,24.4c-3.5,11.1-2.6,21.7,2.7,32
					c5.3,10.3,13.4,17.2,24.5,20.8c11,3.6,21.7,2.7,32-2.6c10.3-5.3,17.3-13.4,20.8-24.5c3.6-11,2.7-21.7-2.6-32
					c-5.3-10.3-13.5-17.2-24.5-20.8C573.7,117.8,563,118.7,552.7,123.9z"/>
				<path fill="#BAD727" d="M480.9,77.7C473.8,64,462.9,54.7,448.3,50c-14.7-4.7-28.9-3.5-42.6,3.5c-13.7,7-22.9,17.8-27.6,32.5
					s-3.6,28.9,3.4,42.6c7.1,13.7,17.9,22.9,32.6,27.7c14.7,4.7,28.9,3.6,42.6-3.4c13.7-7.1,22.9-17.9,27.6-32.6
					C489,105.6,487.9,91.4,480.9,77.7z"/>
			</g>
		</g>
		<g>
			<path id="Layer5_0_1_STROKES" fill="none" stroke="#A3A3A3" stroke-miterlimit="10" d="M617.3,175.9c4-12.6,3.1-24.8-2.9-36.5
				c-6-11.8-15.3-19.7-27.9-23.8c-12.6-4-24.8-3-36.5,3c-11.7,6-19.6,15.3-23.7,27.9c-4,12.6-3,24.7,3,36.5
				c6,11.7,15.3,19.6,27.9,23.7 M450.8,42c-16.9-5.5-33.2-4.2-49,4C386,54.1,375.4,66.5,370,83.4c-5.4,16.9-4.1,33.2,4,49.1
				c8,15.8,20.5,26.4,37.4,31.9c16.9,5.4,33.3,4.1,49-4c15.8-8.1,26.4-20.6,31.9-37.5 M243.4,154.7c6,11.7,15.3,19.6,27.9,23.7
				c12.6,4.1,24.7,3.1,36.5-2.9c11.8-6,19.7-15.3,23.8-27.9c4.1-12.6,3.1-24.8-3-36.5c-6-11.8-15.3-19.7-27.9-23.8
				c-12.6-4-24.7-3-36.5,3 M158,239.6c16.6,0,30.8-5.9,42.6-17.6c11.7-11.7,17.6-25.9,17.6-42.6c0-16.6-5.9-30.8-17.6-42.5
				c-11.8-11.8-26-17.7-42.6-17.7c-16.6,0-30.8,5.9-42.6,17.7c-11.7,11.8-17.6,25.9-17.6,42.5"/>
		</g>
	</g>
</g>
<g id="laptop">
	<g transform="matrix( 1, 0, 0, 1, 0,0) ">
		<g>
			<g id="Layer4_0_FILL">
				<path fill="#CACACA" d="M487.7,356.4c0.7-0.7,1.2-1.6,1.4-2.5h-227c0.2,0.9,0.7,1.8,1.4,2.5c1,1,2.2,1.5,3.7,1.5h216.9
					C485.5,357.9,486.7,357.4,487.7,356.4 M489.2,352.8V348H262v4.7c0,0.4,0,0.7,0.1,1.1h227C489.2,353.5,489.2,353.2,489.2,352.8
					 M470.4,234.4c-0.9-0.9-2-1.3-3.3-1.3H283.7c-1.2,0-2.2,0.4-3,1.3c-0.8,0.8-1.3,1.8-1.3,3V348h192.2V237.7
					C471.6,236.5,471.2,235.4,470.4,234.4 M464,241.7v97.9H287.1v-97.9H464z"/>
				<path fill="#FFFFFF" d="M464,339.6v-97.9H287.1v97.9H464z"/>
			</g>
		</g>
		<g>
			<path id="Layer4_0_1_STROKES" fill="none" stroke="#000000" stroke-miterlimit="10" d="M471.6,348H279.5V237.4
				c0-1.1,0.4-2.1,1.3-3c0.8-0.8,1.8-1.3,3-1.3h183.4c1.3,0,2.3,0.4,3.3,1.3c0.9,0.9,1.3,2,1.3,3.3V348z M464,339.6H287.1v-97.9H464
				V339.6z M489.1,353.9c0.1-0.3,0.1-0.7,0.1-1.1V348H262v4.7c0,0.4,0,0.7,0.1,1.1H489.1c-0.2,1-0.7,1.8-1.4,2.5
				c-1,1-2.2,1.5-3.6,1.5H267.2c-1.4,0-2.7-0.5-3.7-1.5c-0.7-0.8-1.2-1.6-1.4-2.5"/>
		</g>
	</g>
</g>
<g id="screen">
	<g transform="matrix( 1, 0, 0, 1, 0,0) ">
		<g>
			<g id="Layer3_0_FILL">
				<path fill="#CACACA" d="M325.1,309.8v-7.4h-7.4v7.4H325.1 M334.3,302.4v7.4h98.8v-7.4H334.3 M325.1,279.1v-7.4h-7.4v7.4H325.1
					 M325.1,294.5V287h-7.4v7.4H325.1 M433.1,279.1v-7.4h-98.8v7.4H433.1 M433.1,294.5V287h-98.8v7.4H433.1z"/>
			</g>
		</g>
		<g>
			<path id="Layer3_0_1_STROKES" fill="none" stroke="#000000" stroke-miterlimit="10" d="M334.3,287h98.8v7.4h-98.8V287z
				 M334.3,271.8h98.8v7.4h-98.8V271.8z M317.7,287h7.4v7.4h-7.4V287z M317.7,271.8h7.4v7.4h-7.4V271.8z M334.3,302.4h98.8v7.4
				h-98.8V302.4z M317.7,302.4h7.4v7.4h-7.4V302.4z"/>
		</g>
	</g>
</g>
<g id="icons">
	<g transform="matrix( 1, 0, 0, 1, 0,0) ">
		<g>
			<path id="Layer2_0_1_STROKES" fill="none" stroke="#FFFFFF" stroke-linecap="round" stroke-linejoin="round" d="M579,142.9h-21.2
				c-2.9,0-5.1,1.2-6.6,3.6c-1.2,1.9-1.9,4.3-1.9,7.1c0,1.9,0.5,3.9,1.6,6c0.6,1,1.1,1.8,1.6,2.5v-5.4c0-1.1,0.3-1.9,1-2.3
				c0.8-0.5,2.2-0.8,4.3-0.8H579v6.3l10.6-11.7L579,136.6V142.9z M564.2,178.9h21.2c2.9,0,5.1-1.2,6.6-3.6c1.2-1.9,1.9-4.2,1.9-7
				c0-1.9-0.5-3.9-1.6-6l-1.6-2.5v5.3c0,1.2-0.3,2-1,2.4c-0.8,0.5-2.2,0.8-4.3,0.8h-21.2v-6.3l-10.6,11.6l10.6,11.7V178.9z"/>
		</g>
		<g>
			<path id="Layer2_0_2_STROKES" fill="none" stroke="#3A6FBB" stroke-linecap="round" stroke-linejoin="round" d="M424.9,95.3V79.9
				h-10.3H407v15.3H424.9h5.1v35.9h-12.8h-5.1h-10.3V95.3h5.2 M412.1,90.1h7.7 M412.1,85h7.7 M414.6,79.9v-7.7 M442.9,95.3h12.8
				 M448,131.2h-10.3V85h23.1v46.2h-7.7H448V126h5.1v5.2 M442.9,90.1h12.8 M417.2,131.2V126h-5.1v5.2 M407,102.9h17.9 M407,110.6
				h17.9 M407,118.3h17.9 M442.9,120.9h12.8 M442.9,105.5h12.8 M442.9,100.4h12.8 M442.9,115.8h12.8 M442.9,110.6h12.8"/>
		</g>
		<g>
			<path id="Layer2_0_3_STROKES" fill="none" stroke="#FFFFFF" stroke-width="1.5" stroke-linejoin="round" d="M144.1,169.2v-8.8
				c0-3.8,1.3-7,4-9.7c2.7-2.7,5.9-4.1,9.7-4.1s7,1.4,9.7,4.1c2.7,2.7,4.1,5.9,4.1,9.7v8.8h7.6v35.1h-42.6v-35.1H144.1h27.5
				 M157.9,184.3c-0.4,0-0.7-0.1-0.9-0.4c-0.2-0.3-0.4-0.6-0.4-0.9c0-0.3,0.1-0.7,0.4-0.9c0.2-0.2,0.5-0.4,0.9-0.4
				c0.4,0,0.7,0.1,0.9,0.4c0.2,0.3,0.3,0.6,0.3,0.9c0,0.4-0.1,0.7-0.3,0.9C158.5,184.1,158.2,184.3,157.9,184.3z"/>
		</g>
		<g>
			
				<path id="Layer2_0_4_STROKES" fill="none" stroke="#FFFFFF" stroke-width="1.5" stroke-linecap="round" stroke-linejoin="round" d="
				M157.9,184.3v7.5"/>
		</g>
		<g>
			<path id="Layer2_0_5_STROKES" fill="none" stroke="#FEFEFE" stroke-linecap="round" stroke-linejoin="round" d="M292.6,128.8
				l4.2,4.1l7.3-7.3 M288.5,133.9h-20.8v-8.3h20.8V133.9z M276,112.1c0,0.3-0.1,0.5-0.3,0.8c-0.2,0.2-0.5,0.3-0.8,0.3
				c-0.3,0-0.6-0.1-0.8-0.3c-0.2-0.2-0.4-0.5-0.4-0.8s0.1-0.5,0.4-0.8c0.2-0.2,0.4-0.2,0.8-0.3c0.3,0,0.5,0.1,0.8,0.3
				C275.9,111.5,276,111.8,276,112.1z M282.3,112.1c0,0.3-0.1,0.5-0.3,0.8c-0.2,0.2-0.5,0.3-0.8,0.3c-0.3,0-0.5-0.1-0.7-0.3
				c-0.2-0.2-0.3-0.5-0.3-0.8s0.1-0.5,0.3-0.8c0.2-0.2,0.4-0.2,0.7-0.3c0.3,0,0.6,0.1,0.8,0.3C282.2,111.5,282.3,111.8,282.3,112.1z
				 M269.8,112.1c0,0.3-0.1,0.5-0.3,0.8c-0.2,0.2-0.4,0.3-0.7,0.3s-0.6-0.1-0.8-0.3c-0.2-0.2-0.3-0.5-0.3-0.8s0.1-0.5,0.3-0.8
				c0.2-0.2,0.4-0.2,0.8-0.3c0.3,0,0.5,0.1,0.7,0.3C269.6,111.5,269.8,111.8,269.8,112.1z M280.2,129.8c0,0.3-0.1,0.5-0.3,0.7
				c-0.2,0.2-0.5,0.3-0.8,0.3c-0.3,0-0.5-0.1-0.7-0.3s-0.3-0.4-0.3-0.7c0-0.3,0.1-0.6,0.3-0.8c0.2-0.2,0.4-0.3,0.7-0.3
				c0.3,0,0.6,0.1,0.8,0.3C280.1,129.3,280.2,129.5,280.2,129.8z M273.9,129.8c0,0.3-0.1,0.5-0.3,0.7c-0.2,0.2-0.5,0.3-0.8,0.3
				s-0.5-0.1-0.7-0.3c-0.2-0.2-0.4-0.4-0.4-0.7c0-0.3,0.1-0.6,0.4-0.8c0.2-0.2,0.4-0.3,0.7-0.3s0.5,0.1,0.8,0.3
				C273.8,129.3,273.9,129.5,273.9,129.8z M273.8,145.1h-6.3v-4.2h6.3V145.1z M273.8,155.5h-6.3v-4.1h6.3V155.5z M261.5,117.3h47.9
				 M280,153.4H303 M280,143H303"/>
		</g>
	</g>
</g>
<g id="connectors">
	<g transform="matrix( 1, 0, 0, 1, 0,0) ">
		<g>
			<g id="Layer1_0_FILL">
				<path fill="#FEFEFE" d="M207.4,216.4c0-0.5-0.2-1-0.6-1.3s-0.8-0.6-1.4-0.6c-0.5,0-1,0.2-1.3,0.6s-0.6,0.8-0.6,1.3
					c0,0.5,0.2,1,0.6,1.4c0.3,0.3,0.8,0.5,1.3,0.6c0,0,0.1,0,0.1,0c0.5,0,1-0.2,1.4-0.6S207.4,217,207.4,216.4 M281.6,247.1
					c-0.6-0.5-1.2-0.8-2-0.8c-0.8,0-1.4,0.3-2,0.8c-0.6,0.6-0.9,1.2-0.9,2c0,0.8,0.3,1.4,0.9,2c0.6,0.6,1.2,0.9,2,0.9s1.4-0.3,2-0.9
					c0.5-0.6,0.8-1.2,0.8-2C282.4,248.4,282.1,247.7,281.6,247.1 M297.1,178.6c-0.3-0.3-0.6-0.5-1-0.5c-0.4,0-0.8,0.2-1.1,0.5
					c-0.3,0.3-0.4,0.6-0.4,1c0,0.4,0.1,0.8,0.4,1.1c0.2,0.2,0.5,0.4,0.9,0.4c0,0,0.1,0,0.1,0c0.4,0,0.7-0.1,1-0.4
					c0.3-0.3,0.4-0.6,0.4-1.1C297.5,179.2,297.4,178.9,297.1,178.6 M361.2,230.9c-0.5-0.5-1.1-0.8-1.9-0.8c0,0-0.1,0-0.1,0
					c-0.8,0-1.4,0.3-2,0.8c-0.6,0.6-0.9,1.2-0.9,2c0,0.8,0.3,1.4,0.9,2c0.6,0.6,1.2,0.9,2,0.9s1.4-0.3,2-0.9c0.5-0.6,0.8-1.2,0.8-2
					C362,232.2,361.7,231.5,361.2,230.9 M406.3,232.9c0-0.8-0.3-1.4-0.8-2c-0.6-0.5-1.2-0.8-2-0.8h-0.1c-0.7,0-1.4,0.3-1.9,0.8
					c-0.6,0.6-0.9,1.2-0.9,2c0,0.8,0.3,1.5,0.9,2c0.6,0.6,1.2,0.9,2,0.9s1.4-0.3,2-0.9C406,234.4,406.3,233.8,406.3,232.9
					 M401.8,162c0.4,0.4,0.9,0.6,1.5,0.6c0.1,0,0.1,0,0.1,0c0.5,0,0.9-0.2,1.3-0.6c0.4-0.4,0.6-0.9,0.6-1.4c0-0.6-0.2-1-0.6-1.4
					c-0.4-0.4-0.9-0.6-1.4-0.6c-0.6,0-1.1,0.2-1.5,0.6c-0.4,0.4-0.6,0.8-0.6,1.4S401.4,161.6,401.8,162 M474.7,274.5
					c0-0.7-0.3-1.4-0.8-1.9c-0.6-0.6-1.2-0.9-2-0.9c-0.8,0-1.5,0.3-2,0.9c-0.6,0.6-0.9,1.2-0.9,2c0,0.8,0.3,1.4,0.9,2
					c0.5,0.5,1.2,0.8,2,0.8c0.8,0,1.4-0.3,2-0.8C474.4,276,474.7,275.4,474.7,274.5L474.7,274.5 M527.7,181.1c0.4,0,0.7-0.2,0.9-0.4
					c0.3-0.3,0.5-0.6,0.5-1.1c0-0.4-0.2-0.8-0.5-1c-0.3-0.3-0.6-0.5-1-0.5c-0.4,0-0.7,0.2-1,0.5c-0.3,0.3-0.5,0.6-0.5,1
					c0,0.4,0.2,0.8,0.5,1.1c0.3,0.3,0.6,0.4,1,0.4C527.6,181.1,527.7,181.1,527.7,181.1z"/>
			</g>
		</g>
		<g>
			<path id="Layer1_0_1_STROKES" fill="none" stroke="#A3A3A3" stroke-miterlimit="10" d="M527.7,181.1c0.4,0,0.7-0.2,0.9-0.4
				c0.3-0.3,0.5-0.6,0.5-1.1c0-0.4-0.2-0.8-0.5-1c-0.3-0.3-0.6-0.5-1-0.5c-0.4,0-0.7,0.2-1,0.5c-0.3,0.3-0.5,0.6-0.5,1
				c0,0.4,0.2,0.8,0.5,1.1c0.3,0.3,0.6,0.4,1,0.4C527.6,181.1,527.7,181.1,527.7,181.1v85c0,2.3-0.8,4.3-2.5,6
				c-1.5,1.5-3.2,2.3-5.3,2.4h-45.3v0.1c0,0.8-0.3,1.4-0.8,2c-0.6,0.5-1.2,0.8-2,0.8c-0.8,0-1.5-0.3-2-0.8c-0.6-0.6-0.9-1.2-0.9-2
				c0-0.8,0.3-1.4,0.9-2c0.5-0.6,1.2-0.9,2-0.9c0.8,0,1.4,0.3,2,0.9c0.5,0.6,0.8,1.2,0.8,1.9 M403.4,162.6c0.5,0,0.9-0.2,1.3-0.6
				c0.4-0.4,0.6-0.9,0.6-1.4c0-0.6-0.2-1-0.6-1.4c-0.4-0.4-0.9-0.6-1.4-0.6c-0.6,0-1.1,0.2-1.5,0.6c-0.4,0.4-0.6,0.8-0.6,1.4
				s0.2,1,0.6,1.4c0.4,0.4,0.9,0.6,1.5,0.6C403.3,162.6,403.3,162.6,403.4,162.6l0,67.5h0.1c0.8,0,1.4,0.3,2,0.8
				c0.5,0.6,0.8,1.2,0.8,2c0,0.8-0.3,1.5-0.8,2c-0.6,0.6-1.2,0.9-2,0.9s-1.4-0.3-2-0.9c-0.6-0.5-0.9-1.2-0.9-2c0-0.8,0.3-1.4,0.9-2
				c0.6-0.5,1.2-0.8,1.9-0.8 M296,181.1V193c0,2.3,0.8,4.3,2.4,5.9c1.6,1.6,3.6,2.4,6,2.4H351c2.3,0,4.3,0.8,5.9,2.5
				c1.6,1.6,2.5,3.6,2.5,5.9v20.3c0.7,0,1.3,0.3,1.9,0.8c0.5,0.6,0.8,1.2,0.8,2c0,0.8-0.3,1.4-0.8,2c-0.6,0.6-1.2,0.9-2,0.9
				s-1.4-0.3-2-0.9c-0.6-0.6-0.9-1.2-0.9-2c0-0.8,0.3-1.4,0.9-2c0.6-0.5,1.2-0.8,2-0.8c0.1,0,0.1,0,0.1,0 M296,181.1
				c-0.4,0-0.7-0.2-0.9-0.4c-0.3-0.3-0.4-0.6-0.4-1.1c0-0.4,0.1-0.8,0.4-1c0.3-0.3,0.6-0.5,1.1-0.5c0.4,0,0.7,0.2,1,0.5
				c0.3,0.3,0.4,0.6,0.4,1c0,0.4-0.1,0.8-0.4,1.1c-0.3,0.3-0.6,0.4-1,0.4C296,181.1,296,181.1,296,181.1z M276.8,249.1
				c0-0.8,0.3-1.4,0.9-2c0.6-0.5,1.2-0.8,2-0.8c0.8,0,1.4,0.3,2,0.8c0.5,0.6,0.8,1.2,0.8,2c0,0.8-0.3,1.4-0.8,2
				c-0.6,0.6-1.2,0.9-2,0.9s-1.4-0.3-2-0.9C277,250.6,276.8,249.9,276.8,249.1h-63c-2.3,0-4.3-0.8-5.9-2.4s-2.4-3.6-2.4-5.9v-22.4
				c-0.5,0-0.9-0.2-1.3-0.6c-0.4-0.4-0.6-0.8-0.6-1.4c0-0.5,0.2-1,0.6-1.3s0.8-0.6,1.3-0.6c0.5,0,1,0.2,1.4,0.6s0.6,0.8,0.6,1.3
				c0,0.5-0.2,1-0.6,1.4s-0.8,0.6-1.4,0.6c0,0-0.1,0-0.1,0"/>
		</g>
	</g>
</g>
</svg>
