<?xml version="1.0" encoding="utf-8"?>
<!-- Generator: Adobe Illustrator 23.0.1, SVG Export Plug-In . SVG Version: 6.00 Build 0)  -->
<svg version="1.1" id="Layer_aS1" xmlns="http://www.w3.org/2000/svg" xmlns:xlink="http://www.w3.org/1999/xlink" x="0px" y="0px"
	 viewBox="0 0 750 400" enable-background="new 0 0 750 400" xml:space="preserve">
<g id="clouds_bits">
	<g transform="matrix( 1, 0, 0, 1, 0,0) ">
		<g>
			<g id="Layer6_0_FILL">
				<path fill="#DEDEDE" d="M295.2,324.5c-0.7,0.8-1.1,1.7-1.1,2.8c0,1.1,0.4,2,1.1,2.7c0.8,0.7,1.7,1.1,2.8,1.1
					c1,0,1.9-0.4,2.7-1.1c0.7-0.7,1.1-1.6,1.1-2.7c0-1.1-0.4-2-1.1-2.8c-0.7-0.7-1.6-1.1-2.7-1.1C296.9,323.4,296,323.7,295.2,324.5
					 M211.9,289.5c-0.4,0.4-0.6,0.9-0.6,1.4c0,0.5,0.2,1,0.6,1.4c0.4,0.4,0.9,0.5,1.4,0.5s1-0.2,1.3-0.5s0.6-0.8,0.6-1.4
					c0-0.5-0.2-1-0.6-1.4c-0.4-0.4-0.8-0.5-1.3-0.5C212.8,289,212.3,289.1,211.9,289.5z"/>
				<path fill="#F7571A" d="M182.8,247.5c-0.4,0.4-0.6,0.8-0.6,1.4s0.2,1,0.6,1.3c0.4,0.4,0.8,0.6,1.3,0.6s1-0.2,1.4-0.6
					c0.4-0.4,0.6-0.8,0.6-1.3s-0.2-1-0.6-1.4s-0.8-0.6-1.4-0.6S183.2,247.1,182.8,247.5 M568.7,220.8c0-0.5-0.2-1-0.6-1.4
					c-0.4-0.4-0.8-0.5-1.3-0.5c-0.5,0-1,0.2-1.3,0.5c-0.4,0.4-0.6,0.8-0.6,1.4s0.2,1,0.6,1.4c0.4,0.4,0.8,0.6,1.3,0.6s1-0.2,1.3-0.6
					C568.5,221.8,568.7,221.3,568.7,220.8z"/>
				<path fill="#3D3D3D" fill-opacity="0.1686" d="M135.1,326.6c-4.3,0-8.3,1.2-11.9,3.7c-3.5,2.4-6,5.5-7.6,9.4
					c-2-2.1-4.4-3.1-7.3-3.1c-2.6,0-4.9,0.9-6.9,2.8c-1.9,1.8-3,4-3.1,6.6h144.1c-0.2-8-3.2-14.9-9-20.5c-5.8-5.7-12.7-8.5-20.7-8.5
					c-4.6,0-9,1-13.1,3c-4,1.9-7.3,4.6-10.1,8.1c-1.1-2.1-2.7-3.7-4.7-4.9c-2.1-1.3-4.4-1.9-6.8-1.9c-3,0-5.8,0.9-8.1,2.8
					c-2.3,1.9-3.9,4.2-4.6,7.1c-2-0.8-4.1-1.2-6.3-1.2c-3.4,0-6.4,0.9-9.2,2.8c-1.9-1.9-4.1-3.4-6.7-4.5
					C140.6,327.2,137.9,326.6,135.1,326.6 M361.2,59c-4.6-3.5-9.8-5.3-15.5-5.3c-3.7,0-7.2,0.8-10.6,2.3c-3.2,1.5-6.1,3.6-8.6,6.3
					c-3.7-2.6-7.6-3.9-11.9-3.9c-2.8,0-5.5,0.6-8.2,1.8c-0.9-4.1-2.9-7.5-5.9-10.1c-3.1-2.7-6.6-4-10.6-4c-3.2,0-6.1,0.9-8.9,2.7
					c-2.6,1.8-4.7,4.1-6.1,7c-3.6-4.9-8-8.7-13.2-11.5c-5.4-2.9-11.1-4.3-17.1-4.3c-10.5,0-19.5,4-27,12c-7.5,8-11.4,17.7-11.7,29.1
					h187.8c-0.3-3.7-1.6-6.9-4.1-9.4c-2.5-2.6-5.5-3.8-9-3.8c-1.8,0-3.6,0.4-5.3,1.2c-1.6,0.8-3,1.9-4.3,3.3
					C369,66.8,365.7,62.4,361.2,59 M699.3,215c-0.1-4.7-1.9-8.8-5.3-12.1c-3.4-3.3-7.5-5-12.2-5c-2.7,0-5.3,0.6-7.7,1.8
					c-2.3,1.1-4.3,2.7-6,4.8c-0.7-1.2-1.6-2.2-2.8-2.9c-1.2-0.8-2.6-1.2-4-1.2c-1.8,0-3.4,0.6-4.8,1.7c-1.4,1.1-2.3,2.5-2.7,4.2
					c-1.2-0.5-2.4-0.7-3.7-0.7c-1.9,0-3.7,0.5-5.4,1.6c-2.4-2.4-5.2-3.6-8.6-3.6c-2.6,0-4.9,0.7-7,2.2c-2.1,1.4-3.6,3.3-4.5,5.6
					c-1.2-1.3-2.6-1.9-4.3-1.9c-1.6,0-2.9,0.5-4,1.6c-1.1,1.1-1.8,2.4-1.9,3.9H699.3z"/>
				<path fill="#83C4EC" d="M50.8,308.5c0.2,0.2,0.4,0.3,0.7,0.3H54v2.5c0,0.3,0.1,0.5,0.3,0.7c0.2,0.2,0.4,0.3,0.7,0.3
					c0.3,0,0.5-0.1,0.7-0.3c0.2-0.2,0.3-0.4,0.3-0.7v-2.5h2.5c0.2,0,0.5-0.1,0.7-0.3c0.2-0.2,0.3-0.4,0.3-0.6s-0.1-0.5-0.3-0.7
					c-0.2-0.2-0.4-0.3-0.7-0.3H56v-2.6c0-0.3-0.1-0.5-0.3-0.6c-0.2-0.2-0.4-0.3-0.7-0.3c-0.3,0-0.5,0.1-0.7,0.3
					c-0.2,0.2-0.3,0.4-0.3,0.6v2.6h-2.5c-0.6,0-1,0.3-1,0.9C50.5,308.2,50.6,308.4,50.8,308.5 M206.3,184.6
					c-0.2,0.2-0.3,0.4-0.3,0.6v2.6h-2.6c-0.6,0-0.9,0.3-0.9,0.9c0,0.3,0.1,0.5,0.3,0.6c0.2,0.2,0.4,0.3,0.7,0.3h2.6v2.6
					c0,0.3,0.1,0.5,0.3,0.7c0.2,0.2,0.4,0.3,0.6,0.3c0.3,0,0.5-0.1,0.7-0.3c0.2-0.2,0.3-0.4,0.3-0.7v-2.6h2.6c0.2,0,0.5-0.1,0.7-0.3
					c0.2-0.2,0.3-0.4,0.3-0.6c0-0.3-0.1-0.5-0.3-0.7c-0.2-0.2-0.4-0.2-0.7-0.3h-2.6v-2.6c0-0.3-0.1-0.5-0.3-0.6
					c-0.2-0.2-0.4-0.3-0.7-0.3C206.6,184.3,206.4,184.4,206.3,184.6 M424.7,326.2c0,0.3,0.1,0.5,0.3,0.7c0.2,0.2,0.4,0.3,0.7,0.3
					h2.5v2.6c0,0.3,0.1,0.5,0.3,0.6c0.2,0.2,0.4,0.3,0.7,0.3s0.5-0.1,0.7-0.3c0.2-0.2,0.3-0.4,0.3-0.6v-2.6h2.6
					c0.3,0,0.5-0.1,0.7-0.3c0.2-0.2,0.3-0.4,0.3-0.7c0-0.3-0.1-0.5-0.3-0.7c-0.2-0.2-0.4-0.3-0.7-0.3h-2.6v-2.5c0-0.6-0.3-1-0.9-1
					c-0.6,0-1,0.3-1,1v2.5h-2.5c-0.3,0-0.5,0.1-0.7,0.3C424.8,325.7,424.7,325.9,424.7,326.2 M603,190.8c-0.2,0.2-0.3,0.4-0.3,0.6
					c0,0.3,0.1,0.5,0.3,0.7c0.2,0.2,0.4,0.3,0.6,0.3h2.6v2.6c0,0.3,0.1,0.5,0.3,0.6c0.2,0.2,0.4,0.3,0.7,0.3c0.2,0,0.5-0.1,0.6-0.3
					c0.2-0.2,0.3-0.4,0.3-0.6v-2.6h2.6c0.3,0,0.5-0.1,0.7-0.3c0.2-0.2,0.3-0.4,0.3-0.7c0-0.3-0.1-0.5-0.3-0.6
					c-0.2-0.2-0.4-0.3-0.7-0.3h-2.6v-2.6c0-0.3-0.1-0.5-0.3-0.7c-0.2-0.2-0.4-0.3-0.6-0.3s-0.5,0.1-0.7,0.3
					c-0.2,0.2-0.3,0.4-0.3,0.7v2.6h-2.6C603.3,190.5,603.1,190.6,603,190.8 M503.5,46.3c-0.2,0.2-0.3,0.4-0.3,0.7v2.6h-2.6
					c-0.3,0-0.5,0.1-0.6,0.3c-0.2,0.2-0.3,0.4-0.3,0.7c0,0.3,0.1,0.5,0.3,0.7c0.2,0.2,0.4,0.3,0.6,0.3h2.6V54c0,0.6,0.3,1,1,1
					c0.3,0,0.5-0.1,0.6-0.3c0.2-0.2,0.3-0.4,0.3-0.7v-2.5h2.6c0.3,0,0.5-0.1,0.7-0.3c0.2-0.2,0.3-0.4,0.3-0.7c0-0.6-0.3-1-0.9-1
					h-2.6V47c0-0.2-0.1-0.5-0.3-0.7s-0.4-0.3-0.6-0.3C503.9,46,503.7,46.1,503.5,46.3z"/>
				<path fill="#BFBFBF" d="M115.4,67.3l3,5.2h6l3.1-5.2l-3.1-5.2h-6L115.4,67.3 M117.1,67.3l2.2-3.8h4.3l2.2,3.8l-2.2,3.8h-4.3
					L117.1,67.3 M481.3,347.1l3,5.2h6l3-5.2l-3-5.2h-6L481.3,347.1 M485.1,350.9l-2.2-3.8l2.2-3.8h4.4l2.2,3.8l-2.2,3.8H485.1z"/>
				<path fill="#BAD727" d="M82.3,98.7c0-0.5-0.2-1-0.5-1.3c-0.4-0.4-0.8-0.5-1.4-0.5c-0.5,0-1,0.2-1.3,0.5
					c-0.4,0.4-0.6,0.8-0.6,1.3c0,0.5,0.2,1,0.6,1.4c0.4,0.4,0.8,0.5,1.3,0.5s1-0.2,1.4-0.5C82.2,99.7,82.3,99.2,82.3,98.7 M539,334
					c-0.4,0.4-0.5,0.8-0.5,1.4c0,0.5,0.2,1,0.5,1.4c0.4,0.4,0.8,0.6,1.4,0.6c0.5,0,1-0.2,1.3-0.6c0.4-0.4,0.6-0.9,0.6-1.4
					c0-0.5-0.2-1-0.6-1.4c-0.4-0.4-0.8-0.5-1.3-0.5C539.9,333.5,539.4,333.7,539,334z"/>
				<path fill="#D1D1D1" d="M417.3,60.8c-0.7,0.7-1.1,1.6-1.1,2.7c0,1.1,0.4,2,1.1,2.8c0.8,0.7,1.7,1.1,2.8,1.1s2-0.4,2.7-1.1
					c0.8-0.8,1.1-1.7,1.1-2.8c0-1-0.4-1.9-1.1-2.7c-0.7-0.7-1.6-1.1-2.7-1.1S418.1,60.1,417.3,60.8z"/>
			</g>
		</g>
		<g>
			<path id="Layer6_0_1_STROKES" fill="none" stroke="#BFBFBF" stroke-width="2" stroke-miterlimit="10" d="M562.2,153.6
				c0,0.9,0.3,1.7,1,2.3c0.6,0.6,1.4,0.9,2.3,0.9c0.9,0,1.6-0.3,2.3-0.9c0.6-0.6,1-1.4,1-2.3c0-0.9-0.3-1.6-1-2.3
				c-0.6-0.6-1.4-0.9-2.3-0.9c-0.9,0-1.7,0.3-2.3,0.9C562.5,151.9,562.2,152.7,562.2,153.6z M359,352.9c0,0.9,0.3,1.7,0.9,2.3
				c0.6,0.6,1.4,1,2.3,1c0.9,0,1.7-0.3,2.3-1c0.6-0.6,0.9-1.4,0.9-2.3c0-0.9-0.3-1.7-0.9-2.3c-0.6-0.6-1.4-0.9-2.3-0.9
				c-0.9,0-1.6,0.3-2.3,0.9C359.3,351.2,359,351.9,359,352.9z M168.4,108.8c0,0.3,0.1,0.7,0.2,0.9c0.1,0.5,0.4,1,0.8,1.3
				c0.6,0.6,1.4,1,2.3,1c0.9,0,1.7-0.3,2.3-1c0.6-0.6,0.9-1.4,0.9-2.3c0-0.9-0.3-1.6-0.9-2.3c-0.4-0.4-0.9-0.7-1.5-0.9
				c-0.3-0.1-0.5-0.1-0.8-0.1c-0.9,0-1.6,0.3-2.3,1C168.8,107.2,168.4,107.9,168.4,108.8z"/>
		</g>
	</g>
</g>
<g id="browser">
	<g transform="matrix( 1, 0, 0, 1, 0,0) ">
		<g>
			<g id="Layer5_0_FILL">
				<path fill="#FEFEFE" d="M246.5,300c-0.6-0.7-1.1-1.4-1.4-2.1c0.3,0.8,0.8,1.6,1.4,2.3c0.9,0.9,1.9,1.5,3.1,1.8
					c0.4,0.1,0.9,0.1,1.4,0.1c-0.3,0-0.6-0.1-0.9-0.1C248.7,301.7,247.5,301,246.5,300 M504.5,302.1c1.9,0,3.5-0.7,4.9-2
					c1.3-1.4,2-3,2-4.9c-0.1,1.8-0.8,3.4-2.1,4.8C508,301.3,506.4,302,504.5,302.1 M511.4,113.6H511h-40.6h-1.1H244.6v182
					c0,0.8,0.1,1.5,0.4,2.3c0.3,0.7,0.8,1.4,1.4,2.1c1,1,2.2,1.7,3.6,2c0.3,0.1,0.6,0.1,0.9,0.1h0.1h253.3c1.9-0.1,3.5-0.8,4.8-2.1
					c1.3-1.4,2-3,2.1-4.8c0-0.1,0-0.2,0-0.3V113.6z"/>
				<path fill="#595959" d="M244.6,113.6h-0.3v181.3c0,1.1,0.2,2.1,0.7,3c-0.3-0.7-0.4-1.5-0.4-2.3V113.6 M251.6,93.3h2.5H251.6
					c-2,0-3.7,0.7-5.1,2.1c-1.1,1.1-1.7,2.3-1.9,3.7c0.3-1.4,0.9-2.6,2-3.6C247.9,94.1,249.6,93.3,251.6,93.3 M469.3,113.6
					L469.3,113.6l-224.9,0v0h0.3H469.3 M470.4,113.6L470.4,113.6l-1.1,0v0H470.4 M463.6,93.3c-0.2-0.1-0.5-0.1-0.8-0.2H244.6
					c-2,0-3.7,0.7-5.1,2.1s-2.1,3.1-2.1,5.1v194.4c0,2,0.7,3.6,2.1,5.1c1.4,1.4,3.1,2.1,5.1,2.1h5c-1.2-0.3-2.2-0.9-3.1-1.8
					c-0.7-0.7-1.2-1.5-1.4-2.3c-0.4-0.9-0.7-1.9-0.7-3V113.6h-0.3h0.3v0v-13c0,0,0-0.1,0-0.1l0.2-1.4c0.2-1.4,0.9-2.6,1.9-3.7
					c1.4-1.4,3.1-2.1,5.1-2.1l2.5,0H463.6 M470.4,93.3v-0.2h-7.5c0.3,0,0.5,0.1,0.8,0.2H470.4z"/>
				<path fill="#CACACA" d="M510.9,97.8c-0.1-0.2-0.2-0.4-0.3-0.6c-0.3-0.6-0.8-1.2-1.3-1.7c-1.4-1.4-3.1-2.2-5.1-2.2h-2.5h-31.3
					h-6.8H254.1h-2.5c-2,0-3.7,0.7-5.1,2.2c-1.1,1-1.7,2.2-2,3.6l-0.2,1.4c0,0,0,0.1,0,0.1v13h224.9h1.1h41v-13c0,0,0-0.1,0-0.1
					C511.4,99.5,511.2,98.6,510.9,97.8 M279.5,100.8c0.5,0.6,0.8,1.2,0.8,2c0,0.8-0.3,1.4-0.8,2c-0.6,0.5-1.2,0.8-2,0.8
					c-0.8,0-1.4-0.3-1.9-0.8c-0.5-0.5-0.8-1.2-0.8-2c0-0.8,0.3-1.4,0.8-2c0.5-0.5,1.2-0.8,1.9-0.8
					C278.3,100.1,279,100.3,279.5,100.8 M269,100.8c0.5,0.6,0.8,1.2,0.8,2c0,0.8-0.3,1.4-0.8,2c-0.6,0.5-1.2,0.8-2,0.8
					c-0.8,0-1.4-0.3-1.9-0.8c-0.5-0.5-0.8-1.2-0.8-2c0-0.8,0.3-1.4,0.8-2c0.5-0.5,1.2-0.8,1.9-0.8
					C267.8,100.1,268.5,100.3,269,100.8 M259.4,102.8c0,0.8-0.3,1.4-0.8,2c-0.5,0.5-1.2,0.8-1.9,0.8c-0.8,0-1.4-0.3-2-0.8
					c-0.5-0.5-0.8-1.2-0.8-2c0-0.8,0.3-1.4,0.8-2c0.6-0.5,1.2-0.8,2-0.8c0.8,0,1.4,0.3,1.9,0.8C259.1,101.4,259.4,102.1,259.4,102.8
					 M258.5,104.8c0.5-0.5,0.8-1.2,0.8-2c0-0.8-0.3-1.4-0.8-2c-0.5-0.5-1.2-0.8-1.9-0.8c-0.8,0-1.4,0.3-2,0.8
					c-0.5,0.6-0.8,1.2-0.8,2c0,0.8,0.3,1.4,0.8,2c0.6,0.5,1.2,0.8,2,0.8C257.4,105.6,258,105.3,258.5,104.8 M269.9,102.8
					c0-0.8-0.3-1.4-0.8-2c-0.6-0.5-1.2-0.8-2-0.8c-0.8,0-1.4,0.3-1.9,0.8c-0.5,0.6-0.8,1.2-0.8,2c0,0.8,0.3,1.4,0.8,2
					c0.5,0.5,1.2,0.8,1.9,0.8c0.8,0,1.4-0.3,2-0.8C269.6,104.3,269.9,103.6,269.9,102.8 M280.4,102.8c0-0.8-0.3-1.4-0.8-2
					c-0.6-0.5-1.2-0.8-2-0.8c-0.8,0-1.4,0.3-1.9,0.8c-0.5,0.6-0.8,1.2-0.8,2c0,0.8,0.3,1.4,0.8,2c0.5,0.5,1.2,0.8,1.9,0.8
					c0.8,0,1.4-0.3,2-0.8C280.1,104.3,280.4,103.6,280.4,102.8z"/>
			</g>
		</g>
		<g>
			<path id="Layer5_0_1_STROKES" fill="none" stroke="#000000" stroke-miterlimit="10" d="M510.6,97.2c0.1,0.2,0.2,0.4,0.3,0.6
				c0.3,0.8,0.5,1.7,0.5,2.7c0,0,0,0.1,0,0.1v13v0v181.3c0,0.1,0,0.2,0,0.3 M504.5,302.1H251.2 M249.6,302h-5c-2,0-3.7-0.7-5.1-2.1
				c-1.4-1.4-2.1-3.1-2.1-5.1V100.4c0-2,0.7-3.7,2.1-5.1s3.1-2.1,5.1-2.1h218.3h7.5 M470.4,93.3h31.3l2.5,0c2,0,3.7,0.7,5.1,2.1
				c0.5,0.6,1,1.2,1.3,1.8 M462.9,93.2c0.3,0,0.5,0.1,0.8,0.2h6.8 M469.3,113.6L469.3,113.6l1.1,0H511 M511.4,295.2
				c-0.1,1.8-0.8,3.4-2.1,4.8c-1.3,1.3-2.9,2-4.8,2.1 M254.1,93.3l-2.5,0c-2,0-3.7,0.7-5.1,2.1c-1.1,1.1-1.7,2.3-1.9,3.7l-0.2,1.4
				 M244.4,113.6v-13 M280.4,102.8c0,0.8-0.3,1.4-0.8,2c-0.6,0.5-1.2,0.8-2,0.8c-0.8,0-1.4-0.3-1.9-0.8c-0.5-0.5-0.8-1.2-0.8-2
				c0-0.8,0.3-1.4,0.8-2c0.5-0.5,1.2-0.8,1.9-0.8c0.8,0,1.4,0.3,2,0.8C280.1,101.4,280.4,102.1,280.4,102.8z M269.9,102.8
				c0,0.8-0.3,1.4-0.8,2c-0.6,0.5-1.2,0.8-2,0.8c-0.8,0-1.4-0.3-1.9-0.8c-0.5-0.5-0.8-1.2-0.8-2c0-0.8,0.3-1.4,0.8-2
				c0.5-0.5,1.2-0.8,1.9-0.8c0.8,0,1.4,0.3,2,0.8C269.6,101.4,269.9,102.1,269.9,102.8z M259.4,102.8c0,0.8-0.3,1.4-0.8,2
				c-0.5,0.5-1.2,0.8-1.9,0.8c-0.8,0-1.4-0.3-2-0.8c-0.5-0.5-0.8-1.2-0.8-2c0-0.8,0.3-1.4,0.8-2c0.6-0.5,1.2-0.8,2-0.8
				c0.8,0,1.4,0.3,1.9,0.8C259.1,101.4,259.4,102.1,259.4,102.8z M244.4,113.6L244.4,113.6l0.3,0h224.6 M244.1,113.6h0.3v181.3
				c0,1.1,0.2,2.1,0.7,3 M251.1,302.1c-0.3,0-0.6-0.1-0.9-0.1c-1.4-0.3-2.6-0.9-3.6-2c-0.6-0.7-1.1-1.4-1.4-2.1 M254.1,93.3h209.5"
				/>
		</g>
	</g>
</g>
<g id="stuff">
	<g transform="matrix( 1, 0, 0, 1, 0,0) ">
		<g>
			<path id="Layer4_0_1_STROKES" fill="none" stroke="#A3A3A3" stroke-miterlimit="10" d="M491,202.8h-61.4v66.4 M327.9,140.8v62.1
				v66.4 M429.6,140.8v62.1 M255.9,133.8H500v143.1H255.9V133.8z M264.2,202.8h63.6"/>
		</g>
		<g>
			<path id="Layer4_0_2_STROKES" fill="none" stroke="#000000" stroke-miterlimit="10" d="M395.8,156.8h-32 M479.4,141.8h-32.1
				 M347.3,122.1h66 M479.4,231.3h-32.1 M479.4,211.1h-32.1 M479.4,252.9h-32.1 M481.3,242.1h-35.8 M482.4,247.4h-38 M486.5,236.6
				h-46.4 M307.9,141.8h-32 M307.9,211.1h-32"/>
		</g>
	</g>
</g>
<g id="circles">
	<g transform="matrix( 1, 0, 0, 1, 0,0) ">
		<g>
			<g id="Layer3_0_FILL">
				<path fill="#F7571A" d="M148.5,160.1c-12.4-12.4-27.4-18.6-44.8-18.6s-32.4,6.2-44.9,18.6c-12.4,12.4-18.5,27.3-18.5,44.8
					c0,17.5,6.2,32.5,18.5,44.9c12.4,12.3,27.4,18.5,44.9,18.5s32.4-6.2,44.8-18.5c12.4-12.4,18.6-27.4,18.6-44.9
					C167.1,187.4,160.9,172.5,148.5,160.1z"/>
				<path fill="#BAD727" d="M655,359.9c15-7.7,25.2-19.7,30.3-35.8c5.2-16.1,4-31.7-3.8-46.8c-7.8-15.1-19.7-25.2-35.8-30.4
					c-16.1-5.1-31.7-3.9-46.8,3.9c-15,7.7-25.1,19.6-30.3,35.7s-4,31.7,3.8,46.8c7.8,15,19.7,25.1,35.8,30.4
					C624.3,368.8,639.9,367.6,655,359.9z"/>
				<path fill="#2C538A" d="M703.8,92.7c-7.1-13.7-18-23-32.7-27.8c-14.7-4.7-28.9-3.6-42.7,3.5c-13.8,7-23,17.9-27.8,32.6
					c-4.7,14.7-3.5,29,3.5,42.7c7,13.8,17.9,23,32.6,27.8c14.7,4.8,28.9,3.6,42.7-3.4c13.8-7,23-17.9,27.8-32.6
					C711.9,120.7,710.8,106.4,703.8,92.7z"/>
			</g>
		</g>
		<g>
			<path id="Layer3_0_1_STROKES" fill="none" stroke="#A3A3A3" stroke-miterlimit="10" d="M683.3,175.1c15.6-8,26.2-20.4,31.6-37.2
				c5.4-16.8,4.1-33-3.9-48.6c-8-15.7-20.4-26.3-37.2-31.7c-16.8-5.4-33-4.1-48.7,4c-13.4,6.8-23,16.8-29,30c0,0.1-0.1,0.3-0.1,0.4
				l-1.5,3.9c-0.3,0.9-0.7,1.8-1,2.8c-5.4,16.8-4.1,33,3.9,48.6 M648.5,238.2c-18.5-6-36.4-4.5-53.8,4.4c-17.3,8.9-29,22.6-35,41.1
				c-6,18.5-4.5,36.4,4.4,53.8c8.8,17.3,22.5,29,41.1,34.9c18.5,6,36.5,4.5,53.8-4.4c17.3-8.9,29-22.6,35-41.1 M104.2,277.1
				c19.9,0,37-7,51.1-21.2c14.1-14.1,21.1-31.1,21.1-51c0-19.9-7-36.9-21.1-51.1c-14.1-14.1-31.1-21.2-51.1-21.2s-36.9,7.1-51,21.2
				C39.1,168,32,185,32,204.9"/>
		</g>
	</g>
</g>
<g id="connectors">
	<g transform="matrix( 1, 0, 0, 1, 0,0) ">
		<g>
			<g id="Layer2_0_FILL">
				<path fill="#FEFEFE" d="M513.5,207.2c-0.6-0.5-1.2-0.8-2-0.8c-0.8,0-1.4,0.3-2,0.8c-0.6,0.6-0.9,1.2-0.9,2c0,0.8,0.3,1.4,0.9,2
					c0.6,0.6,1.2,0.9,2,0.9c0.8,0,1.4-0.3,2-0.9c0.5-0.6,0.8-1.2,0.8-2c0-0.1,0-0.1,0-0.1C514.3,208.3,514,207.7,513.5,207.2
					 M560.2,287.5c0-0.4-0.2-0.7-0.5-1c-0.3-0.3-0.6-0.5-1-0.5c-0.4,0-0.8,0.1-1.1,0.5c-0.3,0.3-0.4,0.6-0.4,1c0,0.1,0,0.1,0,0.1
					c0,0.4,0.2,0.7,0.4,0.9c0.3,0.3,0.7,0.5,1.1,0.5c0.4,0,0.8-0.1,1-0.5C560,288.2,560.2,287.9,560.2,287.5 M514.3,150.6
					c0,0,0-0.1,0-0.1c0-0.8-0.3-1.4-0.8-2c-0.6-0.6-1.2-0.9-2-0.9c-0.8,0-1.4,0.3-2,0.9s-0.9,1.2-0.9,2s0.3,1.4,0.9,2
					c0.6,0.5,1.2,0.8,2,0.8c0.8,0,1.4-0.3,2-0.8C514,152,514.3,151.3,514.3,150.6 M589.8,117.1c-0.4,0-0.7,0.2-1,0.4
					c-0.2,0.2-0.4,0.5-0.4,0.9c0,0,0,0.1,0,0.2c0,0.4,0.1,0.7,0.4,1c0.3,0.3,0.7,0.4,1,0.4c0.4,0,0.8-0.2,1.1-0.4
					c0.3-0.3,0.4-0.6,0.4-1c0-0.4-0.1-0.8-0.4-1.1C590.6,117.2,590.3,117.1,589.8,117.1 M176.4,209.6c-0.4,0-0.8,0.2-1,0.5
					c-0.3,0.3-0.5,0.6-0.5,1c0,0.4,0.2,0.7,0.5,1c0.3,0.3,0.6,0.5,1,0.5c0.4,0,0.8-0.2,1.1-0.5c0.3-0.3,0.4-0.6,0.4-1
					c0-0.1,0-0.1,0-0.1c0-0.4-0.2-0.7-0.4-0.9C177.2,209.8,176.8,209.6,176.4,209.6 M246.6,208.9c-0.6-0.6-1.2-0.9-2-0.9
					c-0.8,0-1.4,0.3-2,0.9c-0.5,0.6-0.8,1.2-0.8,2c0,0.1,0,0.1,0,0.1c0,0.7,0.3,1.3,0.8,1.9c0.6,0.5,1.2,0.8,2,0.8
					c0.8,0,1.4-0.3,2-0.8c0.6-0.6,0.8-1.2,0.8-2C247.4,210.1,247.1,209.4,246.6,208.9z"/>
			</g>
		</g>
		<g>
			<path id="Layer2_0_1_STROKES" fill="none" stroke="#A3A3A3" stroke-miterlimit="10" d="M588.4,118.4h-47.1c-2.3,0-4.3,0.8-6,2.4
				c-1.6,1.6-2.4,3.6-2.4,6v15.5c-0.1,2.2-0.9,4.1-2.5,5.7c-1.3,1.3-2.8,2-4.5,2.3c-0.5,0.1-1,0.1-1.5,0.1l-4,0.1l-6.2,0.1
				c0,0.7-0.3,1.3-0.8,1.9c-0.6,0.5-1.2,0.8-2,0.8c-0.8,0-1.4-0.3-2-0.8c-0.6-0.6-0.9-1.2-0.9-2s0.3-1.4,0.9-2s1.2-0.9,2-0.9
				c0.8,0,1.4,0.3,2,0.9c0.5,0.6,0.8,1.2,0.8,2c0,0.1,0,0.1,0,0.1 M526,150.4l-5.5,0.2 M588.4,118.4c0-0.4,0.2-0.7,0.4-0.9
				c0.3-0.3,0.7-0.4,1-0.4c0.4,0,0.8,0.2,1.1,0.4c0.3,0.3,0.4,0.6,0.4,1.1c0,0.4-0.1,0.7-0.4,1c-0.3,0.3-0.6,0.4-1.1,0.4
				c-0.4,0-0.7-0.2-1-0.4c-0.3-0.3-0.4-0.6-0.4-1C588.4,118.5,588.4,118.4,588.4,118.4z M557.2,287.6h-15.9c-2.3,0-4.3-0.8-6-2.5
				c-1.6-1.6-2.4-3.6-2.4-5.9v-61.6c0-2.3-0.8-4.3-2.5-6c-1.3-1.3-2.8-2-4.5-2.3l-6.7-0.1l-5-0.1c0,0,0,0.1,0,0.1
				c0,0.8-0.3,1.4-0.8,2c-0.6,0.6-1.2,0.9-2,0.9c-0.8,0-1.4-0.3-2-0.9c-0.6-0.6-0.9-1.2-0.9-2c0-0.8,0.3-1.4,0.9-2
				c0.6-0.5,1.2-0.8,2-0.8c0.8,0,1.4,0.3,2,0.8c0.5,0.5,0.8,1.1,0.8,1.9 M526,209.3c-0.5-0.1-1-0.1-1.5-0.1l-5.2,0 M557.2,287.6
				c0,0.4,0.2,0.7,0.4,0.9c0.3,0.3,0.7,0.5,1.1,0.5c0.4,0,0.8-0.1,1-0.5c0.3-0.3,0.5-0.6,0.5-1c0-0.4-0.2-0.7-0.5-1
				c-0.3-0.3-0.6-0.5-1-0.5c-0.4,0-0.8,0.1-1.1,0.5c-0.3,0.3-0.4,0.6-0.4,1C557.2,287.5,557.2,287.6,557.2,287.6z M241.8,211
				c0,0.7,0.3,1.3,0.8,1.9c0.6,0.5,1.2,0.8,2,0.8c0.8,0,1.4-0.3,2-0.8c0.6-0.6,0.8-1.2,0.8-2c0-0.8-0.3-1.4-0.8-2
				c-0.6-0.6-1.2-0.9-2-0.9c-0.8,0-1.4,0.3-2,0.9c-0.5,0.6-0.8,1.2-0.8,2C241.8,210.9,241.8,211,241.8,211h-63.9c0,0,0,0.1,0,0.1
				c0,0.4-0.1,0.7-0.4,1c-0.3,0.3-0.6,0.5-1.1,0.5c-0.4,0-0.8-0.2-1-0.5c-0.3-0.3-0.5-0.6-0.5-1c0-0.4,0.2-0.8,0.5-1
				c0.3-0.3,0.6-0.5,1-0.5c0.4,0,0.8,0.2,1.1,0.5c0.2,0.2,0.4,0.5,0.4,0.9"/>
		</g>
	</g>
</g>
<g id="icons">
	<g transform="matrix( 1, 0, 0, 1, 0,0) ">
		<g>
			<g id="Layer1_0_FILL">
				<path fill="#3A6FBB" d="M592,331.5c-0.4,0.4-0.5,0.8-0.5,1.3c0,0.5,0.2,1,0.5,1.4c0.4,0.4,0.8,0.6,1.3,0.6s1-0.2,1.4-0.6
					c0.4-0.4,0.5-0.8,0.5-1.4c0-0.5-0.2-1-0.5-1.3c-0.4-0.4-0.8-0.6-1.4-0.6S592.3,331.1,592,331.5 M594.7,323.2
					c-0.4-0.4-0.8-0.6-1.4-0.6s-1,0.2-1.3,0.6c-0.4,0.4-0.5,0.8-0.5,1.3c0,0.5,0.2,1,0.5,1.4c0.4,0.4,0.8,0.6,1.3,0.6s1-0.2,1.4-0.6
					c0.4-0.4,0.5-0.8,0.5-1.4C595.2,324,595,323.6,594.7,323.2 M594.7,315.2c-0.4-0.4-0.8-0.6-1.4-0.6s-1,0.2-1.3,0.6
					c-0.4,0.4-0.5,0.8-0.5,1.3c0,0.5,0.2,1,0.5,1.4c0.4,0.4,0.8,0.6,1.3,0.6s1-0.2,1.4-0.6c0.4-0.4,0.5-0.8,0.5-1.4
					C595.2,316,595,315.6,594.7,315.2 M592,307.2c-0.4,0.4-0.5,0.8-0.5,1.3c0,0.5,0.2,1,0.5,1.4c0.4,0.4,0.8,0.6,1.3,0.6
					s1-0.2,1.4-0.6c0.4-0.4,0.5-0.8,0.5-1.4c0-0.5-0.2-1-0.5-1.3c-0.4-0.4-0.8-0.6-1.4-0.6S592.3,306.8,592,307.2 M594.7,299.2
					c-0.4-0.4-0.8-0.6-1.4-0.6s-1,0.2-1.3,0.6c-0.4,0.4-0.5,0.8-0.5,1.3c0,0.5,0.2,1,0.5,1.4c0.4,0.4,0.8,0.6,1.3,0.6s1-0.2,1.4-0.6
					c0.4-0.4,0.5-0.8,0.5-1.4C595.2,300,595,299.6,594.7,299.2 M591.4,292.5c0,0.5,0.2,1,0.5,1.4c0.4,0.4,0.8,0.6,1.3,0.6
					s1-0.2,1.4-0.6c0.4-0.4,0.5-0.8,0.5-1.4c0-0.5-0.2-1-0.5-1.3c-0.4-0.4-0.8-0.6-1.4-0.6s-1,0.2-1.3,0.6
					C591.6,291.6,591.4,292,591.4,292.5 M592,283.2c-0.4,0.4-0.5,0.8-0.5,1.3c0,0.5,0.2,1,0.5,1.4c0.4,0.4,0.8,0.6,1.3,0.6
					s1-0.2,1.4-0.6c0.4-0.4,0.5-0.8,0.5-1.4c0-0.5-0.2-1-0.5-1.3c-0.4-0.4-0.8-0.6-1.4-0.6S592.3,282.8,592,283.2 M594.7,275.2
					c-0.4-0.4-0.8-0.6-1.4-0.6s-1,0.2-1.3,0.6c-0.4,0.4-0.5,0.8-0.5,1.3c0,0.5,0.2,1,0.5,1.4c0.4,0.4,0.8,0.6,1.3,0.6s1-0.2,1.4-0.6
					c0.4-0.4,0.5-0.8,0.5-1.4C595.2,276,595,275.6,594.7,275.2z"/>
			</g>
		</g>
		<g>
			<path id="Layer1_0_1_STROKES" fill="none" stroke="#83C4EC" stroke-linecap="round" stroke-linejoin="round" d="M459.6,155.7
				c-4.9,0-9.1,1.8-12.6,5.3c-3.5,3.5-5.2,7.8-5.3,12.7c0,3.9,1.1,7.3,3.2,10.3c2,2.8,4.6,4.9,7.9,6.2c3.3,1.3,6.6,1.7,10,1.2
				c3.6-0.6,6.8-2.3,9.5-5l-12.7-12.7V155.7z M465,168.3h17.9c0-4.9-1.8-9.1-5.3-12.6c-3.5-3.5-7.7-5.3-12.6-5.3V168.3z
				 M477.6,184.5c3.5-3.5,5.3-7.7,5.3-12.6H465L477.6,184.5z"/>
		</g>
		<g>
			<path id="Layer1_0_2_STROKES" fill="none" stroke="#2C538A" stroke-linecap="round" stroke-linejoin="round" d="M355,209.1
				c0.3,0.4,0.5,0.9,0.5,1.5c0,0.7-0.2,1.2-0.6,1.7c-0.5,0.5-1.1,0.7-1.7,0.7c-0.6,0-1.2-0.2-1.6-0.7s-0.7-1-0.7-1.7
				c0-0.7,0.2-1.2,0.7-1.7c0.5-0.5,1-0.8,1.6-0.8c0.6,0,1.2,0.2,1.7,0.8C354.9,208.9,354.9,209,355,209.1l10.5-8.8
				c-0.3-0.5-0.5-1-0.5-1.6c0-0.7,0.2-1.2,0.7-1.6c0.5-0.5,1-0.7,1.6-0.7c0.7,0,1.2,0.2,1.7,0.7c0.5,0.4,0.7,1,0.7,1.6
				c0,0.3,0,0.5-0.1,0.8 M379.3,202.8c0.1-0.4,0.3-0.7,0.6-0.9c0.4-0.5,1-0.7,1.6-0.7c0.6,0,1.1,0.2,1.6,0.6l11.1-12.9
				c0-0.1-0.1-0.1-0.1-0.1c-0.5-0.5-0.7-1.1-0.7-1.7c0-0.7,0.2-1.2,0.7-1.6c0.5-0.5,1-0.8,1.7-0.8c0.6,0,1.2,0.3,1.7,0.8
				c0.4,0.4,0.6,1,0.6,1.6c0,0.6-0.2,1.2-0.6,1.7c-0.5,0.4-1.1,0.6-1.7,0.6c-0.6,0-1.1-0.2-1.5-0.5 M399.4,239v-35.6h-7.1V239H399.4
				h2.4 M383.1,201.7c0,0,0.1,0.1,0.1,0.1c0.4,0.5,0.7,1,0.7,1.6c0,0.6-0.2,1.2-0.7,1.7c-0.5,0.4-1.1,0.7-1.8,0.7
				c-0.7,0-1.2-0.2-1.6-0.7c-0.5-0.5-0.7-1.1-0.7-1.7c0-0.2,0-0.5,0.1-0.7 M369.6,199.4c-0.1,0.3-0.3,0.7-0.6,1
				c-0.5,0.4-1,0.7-1.7,0.7c-0.6,0-1.2-0.2-1.6-0.7c0-0.1-0.1-0.1-0.2-0.2 M347.3,239h2.4v-11.9h7.1V239h7.1v-23.7h7V239h7.1v-19
				h7.1v19h7.1 M378,239h7.1 M349.6,239h7.1 M363.9,239h7"/>
		</g>
		<g>
			<path id="Layer1_0_3_STROKES" fill="none" stroke="#2C538A" stroke-linejoin="round" d="M369.6,199.4l9.6,3.3"/>
		</g>
		<g>
			<path id="Layer1_0_4_STROKES" fill="none" stroke="#BAD727" stroke-linecap="round" stroke-linejoin="round" d="M274.4,257.6
				c1.3,0,2.4-0.4,3.4-1.3c1-0.9,1.6-1.9,1.8-3.2l2.1-11.8c0.3-1.6,1.2-2.6,2.6-3.2c1.5-0.6,2.9-0.4,4.1,0.6 M283.3,257.6
				c1.3,0,2.5-0.4,3.5-1.3c1-0.8,1.6-1.9,1.9-3.2l2.1-11.8c0.4-2.3,1.9-3.5,4.3-3.5c2.4,0,3.8,1.2,4.2,3.5l2.1,11.8
				c0.2,1.3,0.9,2.3,1.9,3.2c1,0.8,2.2,1.3,3.5,1.3 M292,251.4c0.4,1.8,0.8,3.1,1.1,3.8c0.9,1.6,2.4,2.5,4.5,2.5 M311,263h-41.2
				v-35.8"/>
		</g>
		<g>
			<path id="Layer1_0_5_STROKES" fill="none" stroke="#F7571A" stroke-linecap="round" stroke-linejoin="round" d="M270.8,170.6
				l16.1-8.9l13.4,4.4l11.6-13.4v14.3v10.8v13.4h-41.1v-0.9v-9V170.6v-19.7 M270.8,190.4l14.3-9.9l11.7,0.9l15.2-3.6 M270.8,181.4
				l14.3-8h11.7l15.2-6.3"/>
		</g>
		<g>
			<path id="Layer1_0_6_STROKES" fill="none" stroke="#FFFFFF" stroke-linejoin="round" d="M87.2,194.8c2.7,0,5.1-1,6.9-2.9
				c1.9-1.9,2.9-4.3,2.9-7c0-2.7-1-5-2.9-6.9c-1.9-1.9-4.2-2.9-6.9-2.9c-2.7,0-5.1,1-7,2.9c-1.9,1.9-2.9,4.2-2.9,6.9
				c0,2.7,1,5.1,2.9,7C82.1,193.8,84.4,194.8,87.2,194.8z M108.3,208.8h7.1v-25.4h8.4v-5.6h11.3v11.3h-11.3v-5.7 M115.3,208.8h8.4
				v-5.7h11.3v11.3h-11.3v-5.6 M115.3,208.8v22.5h8.4v-5.7h11.3V237h-11.3v-5.7 M84.3,217.3l1.4-16.9H71.7c0,5.4,1,10,3,13.8
				c1.7,3.2,3.9,5.7,6.8,7.4v18.3h11.3v-18.3c2.9-1.6,5.2-4.1,6.9-7.4c2-3.8,3-8.4,3-13.8H88.6l1.4,16.9l-2.8,2.8L84.3,217.3z
				 M88.6,200.3h-2.8"/>
		</g>
		<g>
			<path id="Layer1_0_7_STROKES" fill="none" stroke="#FFFFFF" stroke-linecap="round" stroke-linejoin="round" d="M657,108.8
				l13.1-13.1l-5-5.1l17.9,0.8l0.8,17.9l-5-5.1l-13.2,13.1 M659.8,155.4v-37.2l-22.4-22.4l5.1-5.1l-17.9,0.8l-0.8,17.9l5-5.1
				l19,18.9v32.2"/>
		</g>
		<g>
			<path id="Layer1_0_8_STROKES" fill="none" stroke="#3A6FBB" stroke-linecap="round" stroke-linejoin="round" d="M602.4,284.3
				h42.7 M602.4,316.4h42.7 M602.4,292.4h48.1 M602.4,276.4h53.3 M602.4,308.4h50.8 M602.4,324.3h50.8 M602.4,332.4h61.4
				 M602.4,300.4h61.4"/>
		</g>
	</g>
</g>
</svg>
