<?xml version="1.0" encoding="utf-8"?>
<!-- Generator: Adobe Illustrator 23.0.1, SVG Export Plug-In . SVG Version: 6.00 Build 0)  -->
<svg version="1.1" id="Layer_GDSFB1" xmlns="http://www.w3.org/2000/svg" xmlns:xlink="http://www.w3.org/1999/xlink" x="0px" y="0px"
	 viewBox="0 0 750 400" enable-background="new 0 0 750 400" xml:space="preserve">
<g id="clouds_bits">
	<g transform="matrix( 1, 0, 0, 1, 0,10.85) ">
		<g>
			<g id="Layer7_0_FILL">
				<path fill="#BAD727" d="M263.2,342.5c0,0.5,0.2,1,0.6,1.4c0.4,0.4,0.8,0.5,1.4,0.5c0.5,0,1-0.2,1.4-0.5c0.4-0.4,0.5-0.9,0.5-1.4
					c0-0.5-0.2-1-0.5-1.3c-0.4-0.4-0.8-0.6-1.4-0.6c-0.5,0-1,0.2-1.4,0.6C263.4,341.6,263.2,342,263.2,342.5 M463.5,209.9
					c0-0.5-0.2-1-0.6-1.4c-0.4-0.4-0.8-0.6-1.4-0.6c-0.5,0-1,0.2-1.3,0.6c-0.4,0.4-0.6,0.8-0.6,1.4s0.2,1,0.6,1.3
					c0.4,0.4,0.8,0.6,1.3,0.6c0.5,0,1-0.2,1.4-0.6C463.3,210.8,463.5,210.4,463.5,209.9z"/>
				<path fill="#F7571A" d="M245,204.4c0.4,0.4,0.8,0.6,1.4,0.6s1-0.2,1.3-0.6c0.4-0.4,0.6-0.8,0.6-1.4s-0.2-1-0.6-1.4
					c-0.4-0.4-0.8-0.5-1.3-0.5c-0.5,0-1,0.2-1.4,0.5s-0.6,0.8-0.6,1.4S244.6,204,245,204.4 M603.3,127.8c0.4,0.4,0.8,0.6,1.3,0.6
					c0.5,0,1-0.2,1.4-0.6c0.4-0.4,0.6-0.9,0.6-1.4c0-0.5-0.2-1-0.6-1.3c-0.4-0.4-0.8-0.6-1.4-0.6c-0.5,0-1,0.2-1.3,0.6
					s-0.5,0.8-0.5,1.3C602.7,126.9,602.9,127.3,603.3,127.8z"/>
				<path fill="#83C4EC" d="M308,213.8c-0.6,0-0.9,0.3-0.9,0.9v2.6h-2.6c-0.3,0-0.5,0.1-0.7,0.3c-0.2,0.2-0.3,0.4-0.3,0.6
					c0,0.3,0.1,0.5,0.3,0.7c0.2,0.2,0.4,0.2,0.7,0.3h2.6v2.6c0,0.3,0.1,0.5,0.3,0.6c0.2,0.2,0.4,0.3,0.7,0.3c0.3,0,0.5-0.1,0.7-0.3
					c0.2-0.2,0.3-0.4,0.3-0.6v-2.6h2.5c0.3,0,0.5-0.1,0.7-0.3c0.2-0.2,0.3-0.4,0.3-0.7c0-0.3-0.1-0.5-0.3-0.6
					c-0.2-0.2-0.4-0.3-0.7-0.3H309v-2.6C309,214.1,308.7,213.8,308,213.8 M64.5,266c-0.2-0.2-0.4-0.3-0.7-0.3
					c-0.3,0-0.5,0.1-0.7,0.3c-0.2,0.2-0.3,0.4-0.3,0.6v2.6h-2.5c-0.3,0-0.5,0.1-0.6,0.3c-0.2,0.2-0.3,0.4-0.3,0.7
					c0,0.3,0.1,0.5,0.3,0.6c0.2,0.2,0.4,0.3,0.6,0.3h2.5v2.5c0,0.3,0.1,0.5,0.3,0.7c0.2,0.2,0.4,0.3,0.7,0.3c0.3,0,0.5-0.1,0.7-0.3
					c0.2-0.2,0.3-0.4,0.3-0.7v-2.5h2.5c0.3,0,0.5-0.1,0.7-0.3c0.2-0.2,0.3-0.4,0.3-0.6c0-0.6-0.3-0.9-1-0.9h-2.5v-2.6
					C64.8,266.4,64.7,266.1,64.5,266 M89.8,122.9c-0.2,0-0.4,0.1-0.7,0.3c-0.2,0.2-0.3,0.4-0.3,0.7v2.6h-2.6c-0.6,0-0.9,0.3-0.9,0.9
					c0,0.3,0.1,0.5,0.3,0.7c0.2,0.2,0.4,0.3,0.7,0.3h2.6v2.6c0,0.3,0.1,0.5,0.3,0.7c0.2,0.2,0.4,0.3,0.7,0.3c0.6,0,1-0.3,1-0.9v-2.6
					h2.6c0.3,0,0.5-0.1,0.7-0.3c0.2-0.2,0.3-0.4,0.3-0.7s-0.1-0.5-0.3-0.7c-0.2-0.2-0.4-0.3-0.7-0.3h-2.6v-2.6
					c0-0.3-0.1-0.5-0.3-0.7C90.3,123,90.1,122.9,89.8,122.9 M361.3,73.2c0.2,0.2,0.4,0.3,0.7,0.3h2.5V76c0,0.3,0.1,0.5,0.3,0.7
					c0.2,0.2,0.4,0.3,0.6,0.3c0.3,0,0.5-0.1,0.7-0.3c0.2-0.2,0.3-0.4,0.3-0.7v-2.6h2.5c0.3,0,0.5-0.1,0.7-0.3
					c0.2-0.2,0.3-0.4,0.3-0.7c0-0.2-0.1-0.4-0.3-0.6c-0.2-0.2-0.4-0.3-0.7-0.3h-2.5v-2.6c0-0.3-0.1-0.5-0.3-0.7
					c-0.2-0.2-0.4-0.3-0.7-0.3s-0.5,0.1-0.6,0.3c-0.2,0.2-0.3,0.4-0.3,0.7v2.6H362c-0.3,0-0.5,0.1-0.7,0.3c-0.2,0.2-0.3,0.4-0.3,0.6
					C361,72.7,361.1,73,361.3,73.2 M667,246c-0.3,0-0.5,0.1-0.7,0.3c-0.2,0.2-0.3,0.4-0.3,0.6v2.6h-2.5c-0.3,0-0.5,0.1-0.7,0.3
					c-0.2,0.2-0.3,0.4-0.3,0.7s0.1,0.5,0.3,0.6c0.2,0.2,0.4,0.3,0.7,0.3h2.5v2.6c0,0.3,0.1,0.5,0.3,0.7c0.2,0.2,0.4,0.3,0.7,0.3
					c0.3,0,0.5-0.1,0.6-0.3c0.2-0.2,0.3-0.4,0.3-0.7v-2.6h2.5c0.3,0,0.5-0.1,0.7-0.3c0.2-0.2,0.3-0.4,0.3-0.6c0-0.6-0.3-0.9-1-0.9
					h-2.5v-2.6c0-0.2-0.1-0.4-0.3-0.6C667.4,246.1,667.2,246,667,246z"/>
				<path fill="#BFBFBF" d="M66.8,165.8l3-5.2l-3-5.2h-6l-3,5.2l3,5.2H66.8 M65.9,156.8l2.2,3.8l-2.2,3.8h-4.4l-2.2-3.8l2.2-3.8
					H65.9 M656,85.2l-3-5.2h-6l-3,5.2l3,5.2h6L656,85.2 M652.2,81.4l2.2,3.8l-2.2,3.8h-4.4l-2.1-3.8l2.1-3.8H652.2z"/>
				<path fill="#3D3D3D" fill-opacity="0.1686" d="M175.6,191.9c-0.7-0.7-1.5-1-2.5-1c-1.1,0-1.9,0.4-2.6,1.1
					c-0.6-1.4-1.5-2.6-2.8-3.4c-1.3-0.9-2.7-1.3-4.3-1.3c-2.1,0-3.9,0.7-5.4,2.1c-1-0.6-2.2-0.9-3.4-0.9c-0.8,0-1.6,0.1-2.3,0.4
					c-0.3-1-0.8-1.9-1.7-2.6c-0.9-0.7-1.9-1-2.9-1c-0.9,0-1.7,0.2-2.5,0.7c-0.7,0.4-1.3,1-1.8,1.8c-1-1.3-2.2-2.3-3.7-2.9
					c-1.5-0.7-3.1-1.1-4.8-1.1c-2.9,0-5.5,1-7.6,3.1c-2.1,2-3.2,4.5-3.3,7.4h52.7C176.8,193.3,176.4,192.5,175.6,191.9 M232.8,35.5
					c-7.5-8-16.6-12-27.1-12c-6,0-11.7,1.4-17.1,4.3c-5.2,2.8-9.6,6.6-13.2,11.5c-1.4-2.9-3.5-5.3-6.1-7c-2.7-1.8-5.7-2.7-8.8-2.7
					c-4,0-7.5,1.3-10.6,4c-3,2.6-5,6-5.9,10.1c-2.7-1.2-5.4-1.8-8.2-1.8c-4.3,0-8.3,1.3-12,3.9c-2.5-2.7-5.4-4.8-8.6-6.3
					c-3.4-1.5-6.9-2.3-10.6-2.3c-5.7,0-10.8,1.8-15.5,5.3c-4.5,3.4-7.8,7.9-9.8,13.4c-1.2-1.4-2.6-2.5-4.3-3.3
					c-1.7-0.8-3.5-1.2-5.3-1.2c-3.5,0-6.5,1.3-9,3.9c-2.5,2.6-3.9,5.7-4.1,9.5h187.8C244.2,53.3,240.3,43.5,232.8,35.5 M591.8,66.8
					c-2.1-1.4-4.4-2.2-7-2.2c-3.4,0-6.3,1.2-8.6,3.5c-1.7-1.1-3.5-1.6-5.4-1.6c-1.3,0-2.5,0.2-3.7,0.7c-0.4-1.7-1.3-3.1-2.7-4.2
					c-1.4-1.1-3-1.6-4.8-1.6c-1.4,0-2.8,0.4-4,1.1c-1.2,0.7-2.1,1.7-2.8,2.9c-1.6-2-3.6-3.6-5.9-4.8c-2.4-1.2-5-1.8-7.7-1.8
					c-4.7,0-8.8,1.7-12.2,5c-3.4,3.3-5.1,7.3-5.3,12h84.8c-0.1-1.5-0.8-2.8-1.9-3.9c-1.1-1.1-2.5-1.6-4.1-1.6
					c-1.7,0-3.1,0.6-4.3,1.9C595.4,70.1,593.9,68.2,591.8,66.8 M675.1,185.6c-2.8,0-5.5,0.6-8.1,1.6c-2.5,1-4.8,2.5-6.7,4.4
					c-2.8-1.8-5.8-2.8-9.2-2.8c-2.1,0-4.2,0.4-6.3,1.2c-0.7-2.9-2.2-5.2-4.6-7.1c-2.4-1.9-5.1-2.8-8.1-2.8c-2.4,0-4.7,0.6-6.8,1.9
					c-2,1.2-3.6,2.9-4.7,5c-2.8-3.5-6.1-6.2-10.1-8.1c-4.1-2-8.5-3.1-13.1-3.1c-8,0-14.9,2.8-20.7,8.5c-5.8,5.6-8.8,12.5-9,20.5
					h144.1c-0.2-2.6-1.2-4.8-3.2-6.6c-2-1.8-4.3-2.7-6.9-2.8c-2.9,0-5.3,1.1-7.3,3.1c-1.5-3.9-4-7.1-7.5-9.4
					C683.4,186.8,679.4,185.6,675.1,185.6z"/>
				<path fill="#DEDEDE" d="M174.1,99.8c-0.4,0.4-0.6,0.9-0.6,1.4s0.2,1,0.6,1.3c0.4,0.4,0.8,0.6,1.3,0.6s1-0.2,1.4-0.6
					c0.4-0.4,0.6-0.8,0.6-1.3c0-0.5-0.2-1-0.6-1.4c-0.4-0.4-0.8-0.5-1.4-0.5C174.9,99.3,174.4,99.5,174.1,99.8 M424.9,51
					c-0.4,0.4-0.5,0.9-0.5,1.4s0.2,1,0.5,1.4c0.4,0.4,0.8,0.5,1.4,0.5s1-0.2,1.4-0.5c0.4-0.4,0.6-0.8,0.6-1.4c0-0.5-0.2-1-0.6-1.4
					c-0.4-0.4-0.8-0.5-1.4-0.5C425.7,50.4,425.3,50.6,424.9,51 M624.9,138.8c-1.1,0-2,0.4-2.7,1.1c-0.7,0.8-1.1,1.7-1.1,2.8
					s0.4,2,1.1,2.7c0.8,0.7,1.7,1.1,2.7,1.1c1.1,0,2-0.4,2.8-1.1c0.7-0.7,1.1-1.6,1.1-2.7s-0.4-2-1.1-2.8
					C626.9,139.2,626,138.8,624.9,138.8z"/>
				<path fill="#D1D1D1" d="M448.3,339.5c0.7-0.8,1.1-1.7,1.1-2.8c0-1.1-0.4-2-1.1-2.7c-0.8-0.7-1.7-1.1-2.8-1.1s-2,0.4-2.7,1.1
					c-0.8,0.8-1.1,1.7-1.1,2.7c0,1.1,0.4,2,1.1,2.8c0.7,0.7,1.6,1.1,2.7,1.1S447.5,340.3,448.3,339.5z"/>
			</g>
		</g>
		<g>
			<path id="Layer7_0_1_STROKES" fill="none" stroke="#BFBFBF" stroke-width="2" stroke-miterlimit="10" d="M656,228.6
				c0,0.9-0.3,1.7-1,2.3c-0.6,0.6-1.4,0.9-2.3,0.9c-0.9,0-1.7-0.3-2.3-0.9c-0.6-0.6-1-1.4-1-2.3s0.3-1.7,1-2.3
				c0.6-0.6,1.4-0.9,2.3-0.9c0.9,0,1.6,0.3,2.3,0.9C655.7,226.9,656,227.7,656,228.6z M470,41.1c0,0.9-0.3,1.7-1,2.3
				s-1.4,0.9-2.3,0.9c-0.9,0-1.7-0.3-2.3-0.9c-0.6-0.6-1-1.4-1-2.3c0-0.9,0.3-1.6,1-2.3c0.6-0.6,1.4-0.9,2.3-0.9
				c0.9,0,1.6,0.3,2.3,0.9C469.6,39.5,470,40.2,470,41.1z M105.7,219.4c0,0.9-0.3,1.7-1,2.3c-0.6,0.6-1.4,0.9-2.3,0.9
				c-0.9,0-1.6-0.3-2.3-0.9c-0.6-0.6-1-1.4-1-2.3c0-0.9,0.3-1.6,1-2.3c0.6-0.6,1.4-0.9,2.3-0.9c0.9,0,1.7,0.3,2.3,0.9
				C105.3,217.8,105.7,218.6,105.7,219.4z"/>
		</g>
	</g>
</g>
<g id="circles">
	<g transform="matrix( 1, 0, 0, 1, 0,10.85) ">
		<g>
			<g id="Layer6_0_FILL">
				<path fill="#BAD727" d="M343.5,146.3c4.7-14.7,3.6-28.9-3.4-42.6C333,90,322.2,80.7,307.5,76c-14.6-4.7-28.8-3.6-42.5,3.3
					c0,0-0.1,0-0.1,0.1c-13.7,7.1-22.9,17.9-27.6,32.6c-4.7,14.7-3.5,28.9,3.5,42.6c5.6,11,13.7,19.1,24.3,24.3
					c2.6,1.3,5.3,2.4,8.2,3.3c14.7,4.7,28.9,3.6,42.6-3.4C329.6,171.8,338.8,160.9,343.5,146.3z"/>
				<path fill="#F7571A" d="M506.3,133.4c0-9.2-2.2-17.5-6.7-24.8c-2-3.3-4.5-6.4-7.4-9.3c-9.4-9.4-20.8-14.2-34.2-14.2
					c-13.4,0-24.8,4.7-34.2,14.1c-9.4,9.4-14.1,20.8-14,34.2c0,13.3,4.7,24.7,14.1,34.2c9.4,9.4,20.8,14.1,34.2,14.1
					c13.3,0,24.7-4.8,34.1-14.1c2.9-2.9,5.4-6.1,7.4-9.4C504,150.8,506.3,142.6,506.3,133.4z"/>
			</g>
		</g>
		<g>
			<path id="Layer6_0_1_STROKES" fill="none" stroke="#A3A3A3" stroke-miterlimit="10" d="M500.5,175.9
				c11.8-11.8,17.7-25.9,17.7-42.6s-5.9-30.8-17.7-42.5c-0.3-0.3-0.6-0.6-1-0.9C488,78.8,474.1,73.2,458,73.2
				c-16.6,0-30.8,5.9-42.6,17.7c-11.7,11.7-17.6,25.9-17.6,42.5c0,16.6,5.9,30.8,17.7,42.5 M229.3,109.4c-5.5,16.9-4.1,33.2,3.9,49
				c7.1,14,17.7,23.9,31.8,29.8c1.8,0.7,3.7,1.4,5.7,2.1c16.9,5.4,33.2,4.1,49-4c15.8-8,26.4-20.5,31.9-37.4c5.4-16.9,4.1-33.3-4-49
				C339.5,84,327,73.4,310.1,68"/>
		</g>
	</g>
</g>
<g id="arrows">
	<g transform="matrix( 1, 0, 0, 1, 0,10.85) ">
		<g>
			<path id="Layer5_0_1_STROKES" fill="none" stroke="#A3A3A3" stroke-linecap="round" stroke-linejoin="round" d="M430.2,313.3
				h66.6l-4.8-4.9 M492,318.1l4.8-4.9 M492.2,281.8h-55.5 M309.2,281.8h-52l4.8,4.9 M262,276.9l-4.8,4.9 M244.4,313.3h71.1"/>
		</g>
	</g>
</g>
<g id="laptops">
	<g transform="matrix( 1, 0, 0, 1, 0,10.85) ">
		<g>
			<g id="Layer4_0_FILL">
				<path fill="#CACACA" d="M50.8,340.6c0.1,0.8,0.5,1.5,1,2.1c0.7,0.9,1.6,1.3,2.6,1.3h128.8c1,0,1.8-0.5,2.5-1.3
					c0.5-0.6,0.9-1.3,1-2.1H50.8 M50.7,335.7v4c0,0.3,0,0.6,0.1,0.9h135.9c0-0.3,0-0.6,0-0.9v-4H98.3H50.7 M694.7,339.7v-4H647
					h-88.4v4c0,0.3,0,0.6,0,0.9h135.8C694.6,340.4,694.7,340,694.7,339.7 M693.6,342.8c0.5-0.6,0.8-1.4,1-2.1H558.7
					c0.1,0.8,0.5,1.5,1,2.1c0.7,0.8,1.5,1.3,2.5,1.3H691C692,344.1,692.9,343.7,693.6,342.8z"/>
				<path fill="#FFFFFF" d="M125.8,238.9c-0.8,0.7-1.3,1.5-1.6,2.5l-25.9,94.3h88.4h47.6l25.8-94c0.3-1,0.3-1.9-0.1-2.7l0-0.1
					c-0.1-0.3-0.3-0.5-0.5-0.7c-0.1-0.1-0.3-0.2-0.4-0.2c-0.1-0.1-0.1-0.1-0.3-0.1c-0.2-0.1-0.5-0.1-0.8-0.1H128.1
					C127.3,237.9,126.5,238.2,125.8,238.9 M105.7,328.6l23-83.5h125.1l-22.9,83.5H105.7 M486,238.3c-0.2,0.2-0.4,0.4-0.5,0.7
					l-0.1,0.1c-0.4,0.8-0.5,1.7-0.1,2.7l25.8,94h47.6H647l-25.9-94.3c-0.3-1-0.8-1.8-1.6-2.5c-0.8-0.7-1.6-1.1-2.4-1.1H487.4
					c-0.3,0-0.6,0.1-0.8,0.1c-0.1,0-0.2,0-0.3,0.1C486.2,238.1,486.1,238.2,486,238.3 M491.6,245.1h125.1l23,83.5H514.5L491.6,245.1
					z"/>
				<path fill="#F7571A" d="M128.6,245.1l-23,83.5h125.1l22.9-83.5H128.6 M132.9,265.5h92.3H132.9 M127.1,286.5h82.8H127.1
					 M121.3,307.5h96.3H121.3 M118.4,318.1h105.2H118.4 M124.2,297h105.2H124.2 M129.9,276h105.2H129.9 M135.8,254.9h105.1H135.8z"
					/>
				<path fill="#BAD727" d="M616.7,245.1H491.6l22.9,83.5h125.1L616.7,245.1 M504.4,254.9h105.1H504.4 M510.2,276.1h105.1H510.2
					 M507.4,265.6h96.4H507.4 M513.1,286.6H596H513.1 M521.8,318.1h105.2H521.8 M516,297.1h105.1H516 M518.8,307.6h92.4H518.8z"/>
			</g>
		</g>
		<g>
			<path id="Layer4_0_1_STROKES" fill="none" stroke="#000000" stroke-miterlimit="10" d="M647,335.7h47.6v4c0,0.3,0,0.6-0.1,0.9
				c-0.1,0.8-0.5,1.5-1,2.1c-0.7,0.9-1.6,1.3-2.6,1.3H562.2h-47.5c-1,0-1.9-0.4-2.6-1.3c-0.5-0.6-0.9-1.3-1-2.1
				c0-0.3-0.1-0.6-0.1-0.9v-1.6h-3.4l-25.8-94c-0.3-1.1-0.2-2,0.2-2.8c0.1-0.2,0.1-0.3,0.3-0.4c0.1-0.1,0.1-0.2,0.3-0.3
				c0.1-0.1,0.1-0.1,0.2-0.1l3.3-2.3c0.1-0.1,0.3-0.2,0.4-0.2c0.1-0.1,0.1-0.1,0.3-0.1c0.2-0.1,0.5-0.1,0.8-0.1h129.8
				c0.8,0,1.6,0.4,2.4,1.1c0.8,0.7,1.3,1.5,1.6,2.5L647,335.7h-88.4v4c0,0.3,0,0.6,0,0.9h135.8 M486,238.3c-0.2,0.2-0.4,0.4-0.5,0.7
				l-0.1,0.1c-0.4,0.8-0.5,1.7-0.1,2.7l25.8,94h47.6 M562.2,344.1c-1,0-1.8-0.5-2.5-1.3c-0.5-0.6-0.9-1.3-1-2.1h-47.6 M511,338.1
				v-2.4l-3.4,2.4 M511,338.1h0.5 M514.5,328.6h125.1l-23-83.5H491.6L514.5,328.6z M98.3,335.7l25.9-94.3c0.3-1,0.8-1.8,1.6-2.5
				c0.8-0.7,1.6-1.1,2.4-1.1h129.8c0.3,0,0.6,0.1,0.8,0.1c0.1,0,0.2,0,0.3,0.1c0.1,0,0.3,0.1,0.4,0.2l3.3,2.3c0,0,0.1,0,0.1,0.1
				c0.1,0.1,0.2,0.2,0.3,0.3c0.1,0.1,0.2,0.2,0.3,0.4c0.4,0.8,0.5,1.7,0.2,2.8l-25.8,94h-3.4v1.6c0,0.3,0,0.6-0.1,0.9
				c-0.1,0.8-0.5,1.5-1,2.1c-0.7,0.9-1.6,1.3-2.6,1.3h-47.5H54.3c-1,0-1.9-0.4-2.6-1.3c-0.5-0.6-0.8-1.4-1-2.1
				c-0.1-0.3-0.1-0.6-0.1-0.9v-4H98.3h88.4h47.6l25.8-94c0.3-1,0.3-1.9-0.1-2.7l0-0.1c-0.1-0.3-0.3-0.5-0.5-0.7 M230.8,328.6H105.7
				l23-83.5h125.1L230.8,328.6z M237.6,338.1l-3.4-2.4v2.4h-0.5 M183.1,344.1c1,0,1.8-0.5,2.5-1.3c0.5-0.6,0.9-1.3,1-2.1H50.8
				 M186.6,340.6c0-0.3,0-0.6,0-0.9v-4 M234.2,340.6h-47.6"/>
		</g>
		<g>
			<path id="Layer4_0_2_STROKES" fill="none" stroke="#3A6FBB" stroke-miterlimit="10" d="M504.4,254.9h105.1 M510.2,276.1h105.1
				 M507.4,265.6h96.4 M513.1,286.6H596 M521.8,318.1h105.2 M516,297.1h105.1 M518.8,307.6h92.4"/>
		</g>
		<g>
			<path id="Layer4_0_3_STROKES" fill="none" stroke="#FFFFFF" stroke-miterlimit="10" d="M132.9,265.5h92.3 M127.1,286.5h82.8
				 M121.3,307.5h96.3 M118.4,318.1h105.2 M124.2,297h105.2 M129.9,276h105.2 M135.8,254.9h105.1"/>
		</g>
	</g>
</g>
<g id="middle">
	<g transform="matrix( 1, 0, 0, 1, 0,10.85) ">
		<g>
			<g id="Layer3_0_FILL">
				<path fill="#2C538A" d="M397.6,235.3c-13.8-7.1-28-8.2-42.7-3.5c-14.7,4.8-25.6,14-32.7,27.7c-7,13.8-8.2,28-3.4,42.7
					c4.7,14.7,14,25.6,27.8,32.6c13.8,7.1,28,8.2,42.7,3.5c14.7-4.7,25.6-14,32.6-27.8c7-13.7,8.2-28,3.5-42.7
					C420.7,253.2,411.4,242.3,397.6,235.3z"/>
			</g>
		</g>
		<g>
			<path id="Layer3_0_1_STROKES" fill="none" stroke="#A3A3A3" stroke-miterlimit="10" d="M327.5,329.6
				c-12.3-12.5-18.4-27.6-18.3-45.3c0.1-17.6,6.4-32.6,19-45c12.6-12.3,27.7-18.4,45.3-18.3c17.6,0.1,32.5,6.5,44.8,19.1
				c12.4,12.5,18.5,27.6,18.5,45.3c-0.2,17.6-6.5,32.6-19,44.9"/>
		</g>
	</g>
</g>
<g id="icon">
	<g transform="matrix( 1, 0, 0, 1, 0,10.85) ">
		<g>
			<path id="Layer2_0_1_STROKES" fill="none" stroke="#FFFFFF" stroke-linecap="round" stroke-linejoin="round" d="M478.4,133.4H489
				v-7.8h-10.6 M478.4,141.4H489v-8 M489,125.6v-7.9h-10.6 M478.4,149.3H489v-7.9 M444.1,122.9v-10.5h29v10.5v10.5V144v10.6h-29V144
				v-10.6V122.9h29 M457.4,117.7h2.6 M449.4,117.7h2.6 M457.4,128.3h2.6 M457.4,138.8h2.6 M449.4,138.8h2.6 M449.4,128.3h2.6
				 M438.9,149.3h-10.6v-7.9v-8v-7.8v-7.9h10.6 M438.9,125.6h-10.6 M438.9,141.4h-10.6 M438.9,133.4h-10.6 M449.4,149.3h2.6
				 M457.4,149.3h2.6 M444.1,133.4h29 M473.1,144h-29 M398.9,264.2l-1.5-1.5l-5.3,5.3c2.7,2.7,4.7,5.6,6,8.9c1.4,3.4,2.1,7,2.1,10.9
				c0,7.7-2.7,14.3-8.1,19.8c-5.5,5.4-12.1,8.1-19.9,8.1c-7.7,0-14.3-2.7-19.7-8.1c-5.5-5.5-8.3-12.1-8.3-19.8
				c0-3.9,0.7-7.6,2.1-10.9c1.4-3.2,3.4-6.2,6.1-8.9c4.4-4.5,9.5-7.1,15.4-7.9L368,248h-4.5 M395.9,261.3l1.5,1.5 M368,260.1
				c1.4-0.2,2.8-0.4,4.3-0.4c1.5,0,3,0.1,4.5,0.4V248H368 M376.8,248h4.5 M376.8,260.1c5.9,0.9,11,3.5,15.4,7.9 M372.3,287.8
				l-13.2-13.3"/>
		</g>
		<g>
			<path id="Layer2_0_2_STROKES" fill="none" stroke="#3A6FBB" stroke-linecap="round" stroke-linejoin="round" d="M297.9,117.8h5.6
				v-5.3h-5.6c-0.7-2.5-1.3-4.2-1.8-5.1l4-4.1l-4.9-4.9l-4.1,3.9c-0.9-0.5-2.6-1.1-5.1-1.7v-5.7h-5.3v5.7c-2.5,0.6-4.2,1.2-5.1,1.7
				l-4-3.9l-5,4.9l4.1,4.1c-0.6,0.9-1.2,2.6-1.8,5.1h-5.8v5.3h5.8c0.6,2.5,1.1,4.2,1.8,5.1l-4.1,4.1l5,4.9l4-4
				c0.9,0.5,2.6,1.1,5.1,1.8v5.7h5.3v-5.7c2.6-0.6,4.3-1.2,5.1-1.8l4.1,4l4.9-4.9l-4-4.1C296.6,122.1,297.2,120.4,297.9,117.8z
				 M291.3,115.2c0,2.2-0.8,4.1-2.3,5.6c-1.5,1.5-3.4,2.3-5.6,2.3c-2.2,0-4-0.8-5.6-2.3c-1.5-1.5-2.3-3.4-2.3-5.6
				c0-2.2,0.8-4.1,2.3-5.6c1.5-1.5,3.4-2.3,5.6-2.3c2.2,0,4.1,0.8,5.6,2.3C290.5,111.1,291.3,113,291.3,115.2z"/>
		</g>
		<g>
			<path id="Layer2_0_3_STROKES" fill="none" stroke="#3A6FBB" stroke-linejoin="round" d="M297.4,151.7c0,1.5-0.5,2.7-1.5,3.8
				c-1,1-2.3,1.5-3.7,1.5c-1.5,0-2.7-0.5-3.8-1.5c-1-1.1-1.5-2.3-1.5-3.8c0-1.4,0.5-2.7,1.5-3.7c1-1,2.3-1.6,3.8-1.6
				c1.4,0,2.7,0.5,3.7,1.6C296.9,149,297.4,150.3,297.4,151.7z M303.3,149.4l2.8-1.6l-3.5-6.1l-2.8,1.6c-1.3-1.1-2.6-1.9-4.1-2.4
				v-3.2h-7v3.2c-1.6,0.5-2.9,1.3-4.1,2.4l-2.8-1.6l-3.5,6.1l2.8,1.6c-0.3,1.7-0.3,3.3,0,4.8l-2.8,1.6l3.5,6.1l2.8-1.6
				c1.1,1,2.5,1.8,4.1,2.4v3.2h7v-3.2c1.6-0.5,3-1.3,4.1-2.4l2.8,1.6l3.5-6.1l-2.8-1.6C303.6,152.6,303.6,151,303.3,149.4z
				 M316.5,131.9l1.8-1.1l-1.8-3l-1.8,1c-0.8-0.7-1.6-1.2-2.4-1.4v-2.1h-3.5v2.1c-0.9,0.2-1.7,0.7-2.5,1.4l-1.8-1l-1.7,3l1.7,1
				c-0.2,0.9-0.2,1.8,0,2.8l-1.7,1.1l1.7,3l1.8-1.1c0.8,0.7,1.6,1.2,2.5,1.4v2.1h3.5v-2.1c1-0.3,1.8-0.8,2.4-1.4l1.8,1.1l1.8-3
				l-1.8-1.1C316.7,133.9,316.7,132.9,316.5,131.9z M313.1,133.3c0,0.7-0.3,1.3-0.8,1.8c-0.5,0.5-1.1,0.8-1.8,0.8
				c-0.7,0-1.3-0.3-1.8-0.8c-0.5-0.5-0.8-1.1-0.8-1.8c0-0.7,0.3-1.3,0.8-1.8c0.5-0.5,1.1-0.8,1.8-0.8c0.7,0,1.3,0.3,1.8,0.8
				C312.9,132,313.1,132.6,313.1,133.3z"/>
		</g>
	</g>
</g>
<g id="connectors">
	<g transform="matrix( 1, 0, 0, 1, 0,10.85) ">
		<g>
			<g id="Layer1_0_FILL">
				<path fill="#FEFEFE" d="M204,239.6c0.6-0.6,0.9-1.2,0.9-2c0-0.8-0.3-1.4-0.9-2c-0.6-0.5-1.2-0.8-2-0.8c-0.1,0-0.1,0-0.1,0
					c-0.7,0-1.3,0.3-1.9,0.8c-0.5,0.6-0.8,1.2-0.8,2c0,0.8,0.3,1.4,0.8,2c0.6,0.6,1.2,0.8,2,0.8C202.8,240.4,203.4,240.1,204,239.6
					 M225.8,133c0.4,0,0.8-0.2,1.1-0.4c0.3-0.3,0.4-0.6,0.4-1.1c0-0.4-0.1-0.7-0.4-1c-0.3-0.3-0.6-0.4-1.1-0.4
					c-0.4,0-0.8,0.1-1.1,0.4c-0.3,0.3-0.4,0.6-0.4,1c0,0.1,0,0.1,0,0.1c0,0.4,0.2,0.7,0.4,0.9C225.1,132.8,225.4,133,225.8,133
					 M356.6,129.8c0-0.1,0-0.1,0-0.2c0-0.4-0.2-0.7-0.4-0.9c-0.3-0.3-0.6-0.4-1.1-0.4c-0.4,0-0.8,0.1-1,0.4
					c-0.3,0.3-0.5,0.6-0.5,1.1c0,0.4,0.2,0.7,0.5,1c0.3,0.3,0.6,0.4,1,0.4c0.4,0,0.8-0.2,1.1-0.4
					C356.5,130.5,356.6,130.2,356.6,129.8 M397.8,128.3c-0.4,0-0.7,0.2-1,0.4c-0.3,0.3-0.4,0.6-0.4,1c0,0.1,0,0.1,0,0.2
					c0,0.4,0.2,0.7,0.4,0.9c0.3,0.3,0.6,0.4,1,0.4c0.4,0,0.8-0.1,1.1-0.4c0.3-0.3,0.4-0.6,0.4-1.1c0-0.4-0.1-0.7-0.4-1
					C398.6,128.4,398.2,128.3,397.8,128.3 M542,234.8c0,0-0.1,0-0.1,0c-0.8,0-1.4,0.3-2,0.8c-0.6,0.6-0.9,1.2-0.9,2
					c0,0.8,0.3,1.4,0.9,2c0.6,0.6,1.2,0.8,2,0.8c0.8,0,1.4-0.3,2-0.8c0.5-0.6,0.8-1.2,0.8-2c0-0.8-0.3-1.4-0.8-2
					C543.4,235.1,542.8,234.8,542,234.8 M519.5,131.6c0,0,0-0.1,0-0.1c0-0.4-0.1-0.7-0.4-1c-0.3-0.3-0.7-0.4-1.1-0.4
					c-0.4,0-0.8,0.1-1,0.4c-0.3,0.3-0.5,0.6-0.5,1c0,0.4,0.2,0.8,0.5,1.1c0.3,0.3,0.6,0.4,1,0.4c0.4,0,0.8-0.2,1.1-0.4
					C519.4,132.3,519.5,132,519.5,131.6z"/>
			</g>
		</g>
		<g>
			<path id="Layer1_0_1_STROKES" fill="none" stroke="#A3A3A3" stroke-miterlimit="10" d="M519.5,131.6h14.2
				c2.2,0.1,4.1,0.9,5.7,2.5c1.6,1.6,2.5,3.6,2.5,5.9l0.1,94.7c0.7,0,1.3,0.3,1.9,0.8c0.5,0.6,0.8,1.2,0.8,2c0,0.8-0.3,1.4-0.8,2
				c-0.6,0.6-1.2,0.8-2,0.8c-0.8,0-1.4-0.3-2-0.8c-0.6-0.6-0.9-1.2-0.9-2c0-0.8,0.3-1.4,0.9-2c0.6-0.5,1.2-0.8,2-0.8
				c0.1,0,0.1,0,0.1,0 M519.5,131.6c0,0.4-0.2,0.7-0.4,0.9c-0.3,0.3-0.7,0.4-1.1,0.4c-0.4,0-0.8-0.2-1-0.4c-0.3-0.3-0.5-0.6-0.5-1.1
				c0-0.4,0.2-0.7,0.5-1c0.3-0.3,0.6-0.4,1-0.4c0.4,0,0.8,0.1,1.1,0.4c0.3,0.3,0.4,0.6,0.4,1C519.5,131.6,519.5,131.6,519.5,131.6z
				 M396.4,129.9c0,0.4,0.2,0.7,0.4,0.9c0.3,0.3,0.6,0.4,1,0.4c0.4,0,0.8-0.1,1.1-0.4c0.3-0.3,0.4-0.6,0.4-1.1c0-0.4-0.1-0.7-0.4-1
				c-0.3-0.3-0.6-0.4-1.1-0.4c-0.4,0-0.7,0.2-1,0.4c-0.3,0.3-0.4,0.6-0.4,1C396.4,129.8,396.4,129.8,396.4,129.9l-39.8-0.2
				c0,0,0,0.1,0,0.2c0,0.4-0.1,0.7-0.4,1c-0.3,0.3-0.6,0.4-1.1,0.4c-0.4,0-0.8-0.2-1-0.4c-0.3-0.3-0.5-0.6-0.5-1
				c0-0.4,0.2-0.8,0.5-1.1c0.3-0.3,0.6-0.4,1-0.4c0.4,0,0.8,0.1,1.1,0.4c0.2,0.2,0.4,0.5,0.4,0.9 M224.4,131.6h-14.2
				c-2.2,0.1-4.1,0.9-5.7,2.5c-1.6,1.6-2.4,3.6-2.4,5.9l-0.1,94.7c0,0,0.1,0,0.1,0c0.8,0,1.4,0.3,2,0.8c0.6,0.6,0.9,1.2,0.9,2
				c0,0.8-0.3,1.4-0.9,2c-0.6,0.6-1.2,0.8-2,0.8c-0.8,0-1.4-0.3-2-0.8c-0.5-0.6-0.8-1.2-0.8-2c0-0.8,0.3-1.4,0.8-2
				c0.5-0.5,1.2-0.8,1.9-0.8 M224.4,131.6c0,0.4,0.2,0.7,0.4,0.9c0.3,0.3,0.7,0.4,1.1,0.4c0.4,0,0.8-0.2,1.1-0.4
				c0.3-0.3,0.4-0.6,0.4-1.1c0-0.4-0.1-0.7-0.4-1c-0.3-0.3-0.6-0.4-1.1-0.4c-0.4,0-0.8,0.1-1.1,0.4c-0.3,0.3-0.4,0.6-0.4,1
				C224.4,131.6,224.4,131.6,224.4,131.6z"/>
		</g>
	</g>
</g>
</svg>
