<?xml version="1.0" encoding="utf-8"?>
<!-- Generator: Adobe Illustrator 23.0.1, SVG Export Plug-In . SVG Version: 6.00 Build 0)  -->
<svg version="1.1" id="Layer_d1" xmlns="http://www.w3.org/2000/svg" xmlns:xlink="http://www.w3.org/1999/xlink" x="0px" y="0px"
	 viewBox="0 0 750 400" enable-background="new 0 0 750 400" xml:space="preserve">
<g id="bits_clouds">
	<g transform="matrix( 1, 0, 0, 1, 0,0) ">
		<g>
			<g id="Layer8_0_FILL">
				<path fill="#83C4EC" d="M546.3,325.6c-0.2-0.2-0.4-0.3-0.7-0.3s-0.5,0.1-0.7,0.3c-0.2,0.2-0.3,0.4-0.3,0.6v2.6H542
					c-0.3,0-0.5,0.1-0.6,0.3c-0.2,0.2-0.3,0.4-0.3,0.7c0,0.3,0.1,0.5,0.3,0.7c0.2,0.2,0.4,0.3,0.6,0.3h2.5v2.5
					c0,0.3,0.1,0.5,0.3,0.7c0.2,0.2,0.4,0.3,0.7,0.3s0.5-0.1,0.7-0.3c0.2-0.2,0.3-0.4,0.3-0.7v-2.5h2.5c0.3,0,0.5-0.1,0.7-0.3
					c0.2-0.2,0.3-0.4,0.3-0.7c0-0.6-0.3-0.9-1-0.9h-2.5v-2.6C546.5,326,546.5,325.8,546.3,325.6 M679.6,125.8
					c-0.3,0-0.5,0.1-0.7,0.3c-0.2,0.2-0.3,0.4-0.3,0.7v2.6H676c-0.3,0-0.5,0.1-0.6,0.3c-0.2,0.2-0.3,0.4-0.3,0.7
					c0,0.3,0.1,0.5,0.3,0.6c0.2,0.2,0.4,0.3,0.6,0.3h2.5v2.6c0,0.3,0.1,0.5,0.3,0.7c0.2,0.2,0.4,0.3,0.7,0.3s0.5-0.1,0.7-0.3
					c0.2-0.2,0.3-0.4,0.3-0.7v-2.6h2.5c0.3,0,0.5-0.1,0.7-0.3c0.2-0.2,0.3-0.4,0.3-0.6c0-0.6-0.3-0.9-1-0.9h-2.5v-2.6
					c0-0.2-0.1-0.5-0.3-0.7C680.1,125.9,679.9,125.8,679.6,125.8 M75.5,109.5c-0.2,0.2-0.3,0.4-0.3,0.7v2.6h-2.5c-0.6,0-1,0.3-1,0.9
					c0,0.3,0.1,0.5,0.3,0.7c0.2,0.2,0.4,0.3,0.7,0.3h2.5v2.5c0,0.3,0.1,0.5,0.3,0.7c0.2,0.2,0.4,0.3,0.7,0.3c0.6,0,0.9-0.3,0.9-1
					v-2.5h2.6c0.3,0,0.5-0.1,0.7-0.3c0.2-0.2,0.3-0.4,0.3-0.7s-0.1-0.5-0.3-0.7c-0.2-0.2-0.4-0.3-0.7-0.3h-2.6v-2.6
					c0-0.3-0.1-0.5-0.3-0.7c-0.2-0.2-0.4-0.3-0.7-0.3C75.9,109.2,75.7,109.3,75.5,109.5 M352.9,60c0-0.3-0.1-0.5-0.3-0.7
					c-0.2-0.2-0.4-0.3-0.7-0.3s-0.5,0.1-0.6,0.3c-0.2,0.2-0.3,0.4-0.3,0.7v2.5h-2.6c-0.3,0-0.5,0.1-0.7,0.3
					c-0.2,0.2-0.2,0.4-0.3,0.7c0,0.3,0.1,0.5,0.3,0.7c0.2,0.2,0.4,0.3,0.7,0.3h2.6V67c0,0.3,0.1,0.5,0.3,0.7
					c0.2,0.2,0.4,0.3,0.6,0.3c0.3,0,0.5-0.1,0.7-0.3c0.2-0.2,0.3-0.4,0.3-0.7v-2.6h2.6c0.3,0,0.5-0.1,0.6-0.3
					c0.2-0.2,0.3-0.4,0.3-0.7c0-0.2-0.1-0.5-0.3-0.7c-0.2-0.2-0.4-0.3-0.6-0.3h-2.6V60 M299.7,265.9c0-0.6-0.3-0.9-1-0.9
					s-1,0.3-1,0.9v2.6h-2.5c-0.3,0-0.5,0.1-0.7,0.3c-0.2,0.2-0.3,0.4-0.3,0.6s0.1,0.5,0.3,0.7c0.2,0.2,0.4,0.3,0.7,0.3h2.5v2.6
					c0,0.3,0.1,0.5,0.3,0.6c0.2,0.2,0.4,0.3,0.7,0.3s0.5-0.1,0.7-0.3c0.2-0.2,0.3-0.4,0.3-0.6v-2.6h2.5c0.3,0,0.5-0.1,0.7-0.3
					c0.2-0.2,0.3-0.4,0.3-0.7s-0.1-0.5-0.3-0.6c-0.2-0.2-0.4-0.3-0.7-0.3h-2.5V265.9z"/>
				<path fill="#BFBFBF" d="M639.3,193.1l-3-5.2h-6l-3,5.2l3,5.2h6L639.3,193.1 M637.6,193.1l-2.2,3.8H631l-2.1-3.8l2.1-3.8h4.4
					L637.6,193.1 M135.9,43.8l-3,5.2l3,5.2h6l3-5.2l-3-5.2H135.9 M141.1,45.3l2.2,3.8l-2.2,3.8h-4.4l-2.2-3.8l2.2-3.8H141.1z"/>
				<path fill="#DEDEDE" d="M621.1,44.4c0-1.1-0.4-2-1.1-2.8c-0.8-0.7-1.7-1.1-2.8-1.1s-2,0.4-2.7,1.1c-0.7,0.8-1.1,1.7-1.1,2.8
					c0,1.1,0.4,2,1.1,2.7c0.8,0.7,1.7,1.1,2.7,1.1c1.1,0,2-0.4,2.8-1.1C620.7,46.4,621.1,45.5,621.1,44.4 M416.1,175.4
					c-0.4-0.4-0.8-0.6-1.4-0.6c-0.5,0-1,0.2-1.4,0.6c-0.4,0.4-0.6,0.9-0.6,1.4c0,0.5,0.2,1,0.6,1.3c0.4,0.4,0.8,0.6,1.4,0.6
					c0.5,0,1-0.2,1.4-0.6c0.4-0.4,0.5-0.8,0.5-1.3S416.5,175.8,416.1,175.4 M427.6,51c-0.4-0.4-0.8-0.5-1.4-0.5
					c-0.5,0-1,0.2-1.4,0.5c-0.4,0.4-0.5,0.9-0.5,1.4s0.2,1,0.5,1.4c0.4,0.4,0.8,0.5,1.4,0.5s1-0.2,1.4-0.5c0.4-0.4,0.6-0.8,0.6-1.4
					C428.2,51.8,428,51.4,427.6,51z"/>
				<path fill="#BAD727" d="M463.5,238.6c0-0.5-0.2-1-0.6-1.3c-0.4-0.4-0.8-0.6-1.4-0.6c-0.5,0-1,0.2-1.3,0.6
					c-0.4,0.4-0.6,0.8-0.6,1.3s0.2,1,0.6,1.4c0.4,0.4,0.8,0.6,1.3,0.6c0.5,0,1-0.2,1.4-0.6C463.3,239.6,463.5,239.2,463.5,238.6
					 M257,316.3c0.4-0.4,0.5-0.9,0.5-1.4c0-0.5-0.2-1-0.5-1.4s-0.8-0.5-1.4-0.5c-0.5,0-1,0.2-1.3,0.5c-0.4,0.4-0.6,0.8-0.6,1.4
					c0,0.5,0.2,1,0.6,1.4c0.4,0.4,0.8,0.6,1.3,0.6C256.2,316.9,256.6,316.7,257,316.3z"/>
				<path fill="#F7571A" d="M347.5,168.1c0-0.5-0.2-1-0.6-1.4c-0.4-0.4-0.8-0.6-1.4-0.6s-1,0.2-1.4,0.6c-0.4,0.4-0.5,0.8-0.5,1.4
					c0,0.5,0.2,1,0.5,1.3c0.4,0.4,0.8,0.6,1.4,0.6s1-0.2,1.4-0.6C347.3,169.1,347.5,168.6,347.5,168.1 M650.3,64.1
					c0.4-0.4,0.6-0.9,0.6-1.4s-0.2-1-0.6-1.4c-0.4-0.4-0.8-0.5-1.3-0.5s-1,0.2-1.4,0.5c-0.4,0.4-0.5,0.8-0.5,1.4s0.2,1,0.5,1.4
					c0.4,0.4,0.8,0.6,1.4,0.6S649.9,64.5,650.3,64.1z"/>
				<path fill="#3D3D3D" fill-opacity="0.1686" d="M661.2,90.9c-1.6-2-3.6-3.6-6-4.8c-2.4-1.2-5-1.8-7.7-1.8c-4.7,0-8.8,1.7-12.2,5
					c-3.4,3.3-5.1,7.3-5.3,12.1h84.8c-0.1-1.5-0.8-2.8-1.9-3.9c-1.1-1.1-2.5-1.6-4-1.6c-1.7,0-3.1,0.6-4.3,1.9
					c-0.9-2.3-2.4-4.2-4.4-5.6c-2.1-1.4-4.4-2.1-7-2.1c-3.4,0-6.3,1.2-8.7,3.5c-1.7-1.1-3.5-1.6-5.4-1.6c-1.3,0-2.5,0.2-3.7,0.7
					c-0.4-1.7-1.3-3.1-2.7-4.2c-1.4-1.1-3-1.7-4.8-1.7c-1.4,0-2.8,0.4-4,1.2C662.8,88.7,661.8,89.7,661.2,90.9 M437.3,269.1
					c-8,0-14.9,2.8-20.7,8.5c-5.8,5.6-8.8,12.5-9,20.5h144.1c-0.2-2.6-1.2-4.8-3.2-6.6c-2-1.8-4.3-2.8-6.9-2.8
					c-2.9,0-5.4,1.1-7.4,3.1c-1.5-3.9-4-7-7.5-9.4c-3.6-2.5-7.5-3.7-11.8-3.7c-2.8,0-5.5,0.6-8.1,1.6c-2.5,1-4.7,2.5-6.6,4.5
					c-2.8-1.8-5.8-2.8-9.2-2.8c-2.1,0-4.2,0.4-6.3,1.2c-0.7-2.9-2.2-5.2-4.6-7.1c-2.4-1.9-5.1-2.8-8.1-2.8c-2.4,0-4.7,0.6-6.8,1.9
					c-2,1.2-3.6,2.9-4.7,5c-2.8-3.5-6.1-6.2-10.1-8.1C446.3,270.1,441.9,269.1,437.3,269.1 M104.3,73.4c-0.9-0.7-1.8-1-3-1
					c-0.9,0-1.7,0.2-2.5,0.7c-0.7,0.4-1.3,1-1.8,1.8c-1-1.3-2.2-2.3-3.7-3c-1.5-0.7-3.1-1.1-4.8-1.1c-2.9,0-5.5,1-7.6,3.1
					c-2.1,2-3.2,4.5-3.3,7.5h52.6c-0.1-0.9-0.5-1.7-1.2-2.4c-0.7-0.7-1.5-1-2.5-1c-1.1,0-2,0.4-2.7,1.2c-0.6-1.4-1.5-2.6-2.8-3.5
					c-1.3-0.9-2.7-1.3-4.3-1.3c-2.1,0-3.9,0.7-5.4,2.2c-1-0.6-2.1-1-3.3-1c-0.8,0-1.6,0.1-2.3,0.4C105.7,75,105.1,74.1,104.3,73.4
					 M385.6,193.1c-6,0-11.7,1.4-17,4.3c-5.2,2.8-9.6,6.6-13.2,11.5c-1.4-2.9-3.5-5.3-6.1-7.1c-2.7-1.8-5.7-2.7-8.8-2.7
					c-4,0-7.5,1.3-10.6,4c-3,2.6-5,6-6,10.1c-2.7-1.2-5.4-1.8-8.2-1.8c-4.3,0-8.3,1.3-12,3.9c-2.5-2.7-5.4-4.9-8.6-6.4
					c-3.4-1.5-6.9-2.3-10.6-2.3c-5.7,0-10.8,1.8-15.4,5.3c-4.5,3.4-7.8,7.9-9.9,13.4c-1.2-1.4-2.6-2.5-4.3-3.3
					c-1.7-0.8-3.5-1.2-5.3-1.2c-3.5,0-6.5,1.3-9,3.9c-2.5,2.6-3.9,5.7-4.1,9.4h187.8c-0.2-11.4-4.1-21.1-11.6-29.1
					C405.2,197.1,396.1,193.1,385.6,193.1z"/>
				<path fill="#D1D1D1" d="M395.6,328.9c0.7-0.8,1.1-1.7,1.1-2.8c0-1.1-0.4-2-1.1-2.7c-0.8-0.7-1.7-1.1-2.8-1.1
					c-1.1,0-2,0.4-2.7,1.1c-0.8,0.8-1.2,1.7-1.2,2.7c0,1.1,0.4,2,1.2,2.8c0.7,0.7,1.6,1.1,2.7,1.1C394,330,394.9,329.6,395.6,328.9z
					"/>
			</g>
		</g>
		<g>
			<path id="Layer8_0_1_STROKES" fill="none" stroke="#BFBFBF" stroke-width="2" stroke-miterlimit="10" d="M389,87.6
				c0,0.9-0.3,1.7-0.9,2.3c-0.6,0.6-1.4,1-2.3,1c-0.9,0-1.7-0.3-2.3-1c-0.6-0.6-0.9-1.4-0.9-2.3c0-0.9,0.3-1.6,0.9-2.3
				c0.6-0.6,1.4-1,2.3-1c0.9,0,1.6,0.3,2.3,1C388.7,85.9,389,86.7,389,87.6z M136.9,209.8c0,0.9-0.3,1.7-0.9,2.3s-1.4,0.9-2.3,0.9
				c-0.9,0-1.7-0.3-2.3-0.9c-0.6-0.6-0.9-1.4-0.9-2.3s0.3-1.7,0.9-2.3c0.6-0.6,1.4-0.9,2.3-0.9c0.9,0,1.6,0.3,2.3,0.9
				S136.9,208.8,136.9,209.8z"/>
		</g>
	</g>
	<g transform="matrix( 1, 0, 0, 1, -13.6,-6.85) ">
		<g>
			<path id="Layer8_1_1_STROKES" fill="none" stroke="#BFBFBF" stroke-width="2" stroke-miterlimit="10" d="M329.5,340
				c0,0.9-0.3,1.7-0.9,2.3c-0.6,0.6-1.4,0.9-2.3,0.9c-0.9,0-1.6-0.3-2.3-0.9c-0.6-0.6-0.9-1.4-0.9-2.3c0-0.9,0.3-1.6,0.9-2.3
				s1.4-0.9,2.3-0.9c0.9,0,1.7,0.3,2.3,0.9C329.2,338.4,329.5,339.2,329.5,340z"/>
		</g>
	</g>
</g>
<g id="laptop">
	<g transform="matrix( 1, 0, 0, 1, 0,0) ">
		<g>
			<g id="Layer7_0_FILL">
				<path fill="#FFFFFF" d="M61.5,241.8c-0.7,0.6-1,1.4-1,2.3v85.4h148.5v-85.2c0-1-0.4-1.8-1.1-2.5c-0.7-0.7-1.5-1.1-2.5-1.1H63.8
					C63,240.8,62.2,241.1,61.5,241.8 M66.5,262.8v-15.4h136.6v15.4V323H92.7H66.5V262.8 M92.7,262.8V323h110.4v-60.3H92.7
					 M104.5,296.9h8.2H104.5 M104.5,292.7h6.8H104.5 M104.5,288.5h9.8H104.5 M104.5,284.3h6.2H104.5 M104.5,280.1h8.7H104.5
					 M104.5,275.9h5.7H104.5 M104.5,271.7h9H104.5 M139.4,292.7h16.3H139.4 M139.4,296.9h14.2H139.4 M139.4,275.9h19H139.4
					 M139.4,271.7h19H139.4 M139.4,284.3h21.7H139.4 M139.4,280.1h21.7H139.4 M139.4,313.9h15.7H139.4 M139.4,301.1h20.3H139.4
					 M139.4,309.5h21H139.4 M104.5,313.9h11.8H104.5 M104.5,309.5h6H104.5 M104.5,301.1h9H104.5 M104.5,305.3h9H104.5 M175.1,288.5
					h11.1H175.1 M175.1,296.9h11.1H175.1 M175.1,292.7h15.9H175.1 M175.1,271.7h15.9H175.1 M175.1,275.9h10.3H175.1 M175.1,280.1
					h13.6H175.1 M175.1,284.3h11.1H175.1 M175.1,313.9h10.4H175.1 M175.1,309.5h7.4H175.1 M175.1,305.3h7.4H175.1 M175.1,301.1h15.9
					H175.1 M139.4,305.3h23.4H139.4 M139.4,288.5h23.4H139.4z"/>
				<path fill="#CACACA" d="M66.5,323h26.2v-60.3H66.5V323 M73.8,305.3h11H73.8 M73.8,313.9h11H73.8 M73.8,309.5h11H73.8
					 M73.8,288.5h11H73.8 M73.8,292.7h11H73.8 M73.8,296.9h11H73.8 M73.8,301.1h11H73.8 M73.8,275.9h11H73.8 M73.8,284.3h11H73.8
					 M73.8,280.1h11H73.8 M73.8,271.7h11H73.8z"/>
				<path fill="#5EB9E7" d="M66.5,247.4v15.4h26.2h110.4v-15.4H66.5 M101,254.9h42.4H101 M73.2,254.9h17H73.2 M167.6,254.9h29.1
					H167.6z"/>
			</g>
		</g>
		<g>
			<path id="Layer7_0_1_STROKES" fill="none" stroke="#000000" stroke-miterlimit="10" d="M104.5,296.9h8.2 M104.5,292.7h6.8
				 M104.5,288.5h9.8 M104.5,284.3h6.2 M104.5,280.1h8.7 M104.5,275.9h5.7 M104.5,271.7h9 M139.4,292.7h16.3 M139.4,296.9h14.2
				 M139.4,275.9h19 M139.4,271.7h19 M139.4,284.3h21.7 M139.4,280.1h21.7 M209.1,329.5H60.5v-85.4c0-0.9,0.3-1.7,1-2.3
				c0.6-0.7,1.4-1,2.3-1h141.6c1,0,1.8,0.3,2.5,1.1c0.7,0.7,1.1,1.5,1.1,2.5V329.5z M66.5,262.8v-15.4h136.6v15.4V323H92.7H66.5
				V262.8h26.2h110.4 M139.4,313.9h15.7 M139.4,301.1h20.3 M139.4,309.5h21 M104.5,313.9h11.8 M104.5,309.5h6 M104.5,301.1h9
				 M104.5,305.3h9 M73.8,305.3h11 M73.8,313.9h11 M73.8,309.5h11 M73.8,288.5h11 M73.8,292.7h11 M73.8,296.9h11 M73.8,301.1h11
				 M73.8,275.9h11 M73.8,284.3h11 M73.8,280.1h11 M73.8,271.7h11 M92.7,262.8V323 M175.1,288.5h11.1 M175.1,296.9h11.1
				 M175.1,292.7h15.9 M175.1,271.7h15.9 M175.1,275.9h10.3 M175.1,280.1h13.6 M175.1,284.3h11.1 M175.1,313.9h10.4 M175.1,309.5
				h7.4 M175.1,305.3h7.4 M175.1,301.1h15.9 M139.4,305.3h23.4 M139.4,288.5h23.4"/>
		</g>
		<g>
			<path id="Layer7_0_2_STROKES" fill="none" stroke="#FFFFFF" stroke-miterlimit="10" d="M101,254.9h42.4 M73.2,254.9h17
				 M167.6,254.9h29.1"/>
		</g>
	</g>
	<g transform="matrix( 0.5266571044921875, 0, 0, 0.5266571044921875, -227.15,56.25) ">
		<g>
			<g id="Layer7_1_FILL">
				<path fill="#CACACA" d="M854,525.8v-7H520.9v6.9c0,2.1,0.7,3.8,2.2,5.3c1.5,1.5,3.3,2.2,5.4,2.2h318.2c2,0,3.8-0.7,5.3-2.2
					C853.3,529.6,854,527.8,854,525.8z"/>
			</g>
		</g>
		<g transform="matrix( 1.8987579345703125, 0, 0, 1.8987579345703125, 431.3,-106.8) ">
			<path id="Layer7_1_1_STROKES" fill="none" stroke="#000000" stroke-miterlimit="10" d="M854,518.8H520.9v6.9
				c0,2.1,0.7,3.8,2.2,5.3c1.5,1.5,3.2,2.2,5.3,2.2h318.1c2,0,3.8-0.7,5.2-2.2c1.4-1.4,2.2-3.2,2.2-5.2V518.8z"/>
		</g>
	</g>
	<g transform="matrix( 0.5266571044921875, 0, 0, 0.5266571044921875, -227.15,56.25) ">
		<g transform="matrix( 1.8987579345703125, 0, 0, 1.8987579345703125, 431.3,-106.8) ">
			<path id="Layer7_2_1_STROKES" fill="none" stroke="#000000" stroke-miterlimit="10" d="M853.9,527.3H521"/>
		</g>
	</g>
</g>
<g id="conn_circ">
	<g transform="matrix( 1, 0, 0, 1, 0,16.45) ">
		<g>
			<path id="Layer6_0_1_STROKES" fill="none" stroke="#A3A3A3" stroke-miterlimit="10" d="M590.5,57c0.9,0.9,1.8,1.8,2.6,2.8
				c8,8.6,13.7,18,17.3,28.4c3.2,8.8,4.8,18.3,4.8,28.3c0,0.1,0,0.1,0,0.2c0,10-1.5,19.4-4.6,28.2c-3.6,10.4-9.4,19.9-17.3,28.6
				c-1,1.1-1.9,2.1-2.9,3.1c-16.6,16.5-36.5,24.7-59.8,24.6c-23.3,0-43.3-8.3-59.8-24.8c-16.4-16.5-24.6-36.4-24.6-59.7
				c0-23.3,8.2-43.2,24.7-59.7 M164.4,176.7c-0.9-0.9-1.8-1.8-2.6-2.8c-8-8.6-13.7-18-17.3-28.4c-3.2-8.8-4.8-18.3-4.8-28.3
				c0-0.1,0-0.2,0-0.2c0-10,1.5-19.4,4.6-28.2c3.6-10.4,9.3-20,17.3-28.7c0.9-1.1,1.9-2.1,2.9-3.1c16.5-16.5,36.5-24.7,59.8-24.7
				c23.3,0,43.3,8.3,59.8,24.8c16.4,16.5,24.6,36.4,24.6,59.8c0.1,23.3-8.1,43.2-24.6,59.7"/>
		</g>
	</g>
</g>
<g id="server">
	<g transform="matrix( 1, 0, 0, 1, 0,0) ">
		<g>
			<g id="Layer5_0_FILL">
				<path fill="#CACACA" d="M653.4,329.8c13.1,0,24.3-2,33.6-5.9c9.2-3.9,13.8-8.6,13.8-14.1v-22.1c-0.2,5.4-4.8,10-13.8,13.8
					c-9.3,3.9-20.5,5.8-33.6,5.8c-13.1,0-24.3-1.9-33.5-5.8c-9.1-3.8-13.8-8.4-14-13.8v22.1c0,5.5,4.7,10.2,14,14.1
					C629.1,327.8,640.3,329.8,653.4,329.8 M687,279c-9.3,3.9-20.5,5.9-33.6,5.9c-13.1,0-24.3-2-33.5-5.9
					c-8.3-3.5-12.9-7.7-13.8-12.5c-0.1-0.4-0.1-0.9-0.1-1.4v22.5c0.2,5.4,4.8,10,14,13.8c9.2,3.9,20.4,5.8,33.5,5.8
					c13.1,0,24.3-1.9,33.6-5.8c9-3.8,13.6-8.4,13.8-13.8v-22.5C700.7,270.6,696.1,275.2,687,279 M687,259
					c-9.3,3.9-20.5,5.9-33.6,5.9c-13.1,0-24.3-2-33.5-5.9c-2.5-1-4.7-2.1-6.5-3.3c-4.8-3.1-7.3-6.6-7.5-10.5v19.9
					c0,0.5,0.1,0.9,0.1,1.4c0.9,4.8,5.5,9,13.8,12.5c9.2,3.9,20.4,5.9,33.5,5.9c13.1,0,24.3-2,33.6-5.9c9-3.8,13.6-8.4,13.8-13.9
					v-19.9C700.7,250.6,696.1,255.2,687,259z"/>
			</g>
		</g>
		<g>
			<path id="Layer5_0_1_STROKES" fill="none" stroke="#000000" stroke-linecap="round" stroke-linejoin="round" d="M606,245.2v-0.4
				c0-4,2.5-7.6,7.5-10.8c1.8-1.2,4-2.3,6.5-3.4c9.2-3.9,20.4-5.8,33.5-5.8c13.1,0,24.3,1.9,33.6,5.8c9.2,3.9,13.8,8.6,13.8,14.1
				v0.4v19.9v22.5v22.1c0,5.5-4.6,10.2-13.8,14.1c-9.3,3.9-20.5,5.9-33.6,5.9c-13.1,0-24.3-2-33.5-5.9c-9.3-3.9-14-8.6-14-14.1
				v-22.1v-22.5V245.2c0.1,3.9,2.6,7.4,7.5,10.5c1.8,1.2,4,2.3,6.5,3.3c9.2,3.9,20.4,5.9,33.5,5.9c13.1,0,24.3-2,33.6-5.9
				c9-3.8,13.6-8.4,13.8-13.8 M700.8,265.1c-0.2,5.4-4.8,10-13.8,13.9c-9.3,3.9-20.5,5.9-33.6,5.9c-13.1,0-24.3-2-33.5-5.9
				c-8.3-3.5-12.9-7.7-13.8-12.5c-0.1-0.4-0.1-0.9-0.1-1.4 M700.8,287.6c-0.2,5.4-4.8,10-13.8,13.8c-9.3,3.9-20.5,5.8-33.6,5.8
				c-13.1,0-24.3-1.9-33.5-5.8c-9.1-3.8-13.8-8.4-14-13.8"/>
		</g>
	</g>
</g>
<g id="tomcat">
	<g transform="matrix( 1, 0, 0, 1, 0,16.45) ">
		<g>
			<g id="Layer4_0_FILL">
				<path fill="#040707" d="M272.8,64.1c-2.3,0.9-4.6,2.3-6.9,4.2c-2.8,2.3-4.5,4.5-5.1,6.7c-7.6-1.2-15.3-1.1-23.1,0.3
					c-1-4.2-4.9-7.9-11.9-11.3c-0.9,1.6-1.6,4.1-2.1,7.5c-0.5,3.1-0.7,6-0.6,8.9c0.2,4.8,0.9,9.4,1.9,13.6
					c-7.7,1.9-15.6,5.2-23.6,9.8c-7.9,4.6-14.4,9.5-19.4,14.7c-3.9-5.4-6.2-10.4-6.8-15c-0.7-4.9,0.4-9.2,3.3-12.9
					c3.7-4.5,9.4-6.2,17.4-4.9c-0.1,1.2,0.1,2.1,0.4,2.7c0.9,1.4,3.2,2.2,6.9,2.5c3.7,0.2,7-0.3,9.8-1.5c-1.9-2.7-4.5-4.8-8-6.4
					c-3.2-1.4-5.4-1.7-6.7-1c-0.6,0.2-1.2,0.8-1.8,1.8c-3-0.4-5-0.6-6.1-0.6c-5.8,0-10.3,2-13.5,6.1c-3.4,4.1-4.6,8.9-3.8,14.4
					c0.7,5.2,3.2,10.6,7.4,16.3l-1.9,2.2c-4.8,5.3-9.2,10.9-13.1,16.6c-3.4,5.2-5.1,8.4-5.1,9.7v1h13.8l-0.3-1.3
					c-0.4-2.1-0.3-4.2,0.4-6.5c0.8-2.4,2-4.5,3.6-6.4c2.5-3.2,5.9-5.3,10.4-6.5c4.5,4.5,10.2,9.2,16.9,13.9h10.3v-1
					c0-1.3-0.6-2.4-1.6-3.2c-1.8-1.2-3.9-1.3-6.4-0.3c-2.2-2.5-3.4-5.7-3.8-9.8c10.3,0.9,21.3,3.4,32.9,7.7
					c9.6,3.6,21,8.8,34.1,15.7H284l0.1-0.9c0.2-1.3-0.4-2.8-1.8-4.4c-1.2-1.2-2.8-2.1-4.9-2.8c-2-0.7-4-1-6-0.9l-18.1-19.4
					c5.5-3.8,10.1-8.7,13.8-14.7h7.1v-1.4H268c0.4-0.7,0.8-1.4,1.2-2.1h5.1v-1.7H270c3.4-7.3,5.1-15.2,5-23.8c0-1.7-0.2-4.2-0.6-7.6
					C273.9,68,273.4,65.4,272.8,64.1 M250.2,84.6l2.3-8.2c4.7,0.1,9,0.7,12.9,1.8c3.1-2.2,5.2-5.8,6.4-10.9c0.7,3,1,7.6,0.9,13.9
					c0.1,3.6-0.2,7-0.8,10.3l-4.3,1.8l3.8,0.5c-0.2,0.6-0.3,1.3-0.5,1.9c-0.2,0.6-0.4,1.2-0.6,1.8l-3.6,0.9l3,1.2
					c-0.5,1.3-1,2.5-1.6,3.8h-6.1v1.7h5.3c-0.2,0.4-0.4,0.8-0.6,1.2c-0.2,0.3-0.3,0.6-0.5,0.9h-4.1v1.4h3.1h0.1
					c-0.5,0.7-1,1.5-1.6,2.2c-4.5,4-9.1,8-13.6,12c-6.6-3.3-11.9-8.1-15.9-14.3h2.3v-1.4h-3.1c-0.2-0.3-0.4-0.7-0.6-1
					c-0.2-0.4-0.4-0.7-0.6-1.1h4.4v-1.7h-5.2c-0.9-1.8-1.6-3.6-2.4-5.6l2.7-0.8l-3.4-1.5c-0.2-0.6-0.3-1.1-0.5-1.7
					c-0.2-0.6-0.3-1.1-0.4-1.6l5.2-0.3l-5.9-3.2l-0.1,0c-0.4-1.9-0.7-3.8-0.8-5.7c0.4-5.4,0.8-10.7,1.2-16.1c1.1,6,3.5,9.8,7.3,11.4
					c3.8-1.1,8-1.8,12.6-2L250.2,84.6 M225.6,95.9L225.6,95.9c0.8,2.6,1.8,5.1,2.9,7.5h-4.6v1.7h5.5c0.4,0.7,0.8,1.4,1.1,2.1h-6.6
					v1.4h7.6c0.3,0.5,0.6,0.9,0.9,1.4c1,1.3,2.1,2.6,3.1,3.9c2.7,2.6,5.5,5.2,8.3,7.8c1.9,1.4,3.9,2.7,6,4c0.8-0.4,1.6-0.9,2.3-1.3
					l0.1,0l1.9,2l-0.1,0l-3.2,4.8l5.4-2.4h0.1l3.1,3.4h-0.1l-5.3,3.9l7.2-1.9l9.9,10.6l0.9-0.2c0.3,0,0.5,0,0.9,0h0.3
					c2.6,1.1,5.2,2.2,7.8,3.3c0.5,0.5,0.9,1.1,1,1.8h-10.4c-13.3-7-24.8-12.3-34.5-15.8c-11.6-4.2-22.6-6.8-33.2-7.7
					c0.2-3.2,0.7-6.7,1.8-10.5l-2-0.6c-1.2,4-1.8,7.7-1.8,10.9l-7.1-0.3c-1.5,0-3.3,0.2-5.5,0.6l-5.6-6.2c3-2.7,6-5.3,9.1-8
					c0.2-0.2,0.5-0.3,0.7-0.5l4.9,3.5l-1.6-5.8c1.5-1,3.1-2,4.7-3l7.4,3.8l-3.4-6c0.5-0.3,1-0.6,1.5-0.8c0.5-0.3,1-0.5,1.6-0.8
					l10.3,7.1l-3.3-10.2v0C218.6,97.9,222.1,96.8,225.6,95.9 M171.6,146.1c0,0.4,0,0.7,0,1.1h-8.5H163c1.2-2.5,3.2-5.8,6.2-10
					c1.9-2.7,4-5.3,6.1-7.9c2.2-2.5,4.3-5,6.5-7.5l4.8,5.2c0,0-0.1,0-0.1,0.1c-4,1.3-7.4,3.5-10.3,6.7c-1.2,1.5-2.1,3-2.8,4.5
					C172.8,140.8,172.2,143.4,171.6,146.1 M257.5,92.9c0.7-1.7,1.5-2.9,2.5-3.6c1.3-1,3.2-1.5,5.8-1.5v-1.3c-5,0-8.3,2.1-9.8,6.4
					h-11c0.9-4.1,0.8-7-0.3-8.9c-0.6-1.1-1.6-1.7-2.9-1.7c-1.9,0-3.5,0.8-4.9,2.4c-1,1.6-1.6,2.4-1.7,2.5l1.4,0.4
					c0-0.4,0.4-1.1,1.2-2.1c1.1-1.3,2.4-1.9,4-1.9c0.8,0,1.4,0.3,1.8,1.1c0.9,1.6,0.9,4.3,0,8.2h-6.4v1.3l6.1,0.1
					c-0.8,2.6-1.7,4.7-2.7,6.3l-0.3,0.6l8,4.9l-4.6,3l0.9,1.2l4.9-3.3l5.5,3.4l0.8-1.1l-5.1-3.1l7.7-5.1c-1.5-2.3-2-4.6-1.5-6.9
					l6.7,0v-1.4H257.5 M244.6,94.3l11,0.1c-0.6,2.1-0.3,4.1,0.9,6h-14.1C243.2,98.6,243.9,96.6,244.6,94.3 M249.4,105.3l-5.9-3.7
					h11.6L249.4,105.3z"/>
				<path fill="#C9A62C" d="M171.6,147.1c0-0.4,0-0.7,0-1.1c0.6-2.6,1.2-5.3,1.8-7.9c0.7-1.5,1.6-3,2.8-4.5
					c2.8-3.2,6.3-5.4,10.3-6.7c-1.2-1.2-2.7-2.9-4.6-5.3c-2.2,2.5-4.3,5-6.5,7.5c-2.1,2.6-4.1,5.3-6.1,8.1c-2.9,4.1-4.9,7.4-6.1,9.9
					H171.6 M223.8,105.1v-1.7h4.6c-1.1-2.4-2.1-4.8-2.8-7.4c-3.5,0.8-7,2-10.5,3.3l3.3,10.2l-10.3-7.1c-0.5,0.3-1,0.5-1.6,0.8
					c-0.5,0.3-1,0.5-1.5,0.8l3.4,6l-7.4-3.8c-1.6,1-3.2,2-4.7,3l1.6,5.8l-4.9-3.5c-0.2,0.2-0.5,0.3-0.7,0.5c-3,2.7-6,5.3-9.1,8
					l5.6,6.2c2.2-0.4,4-0.6,5.5-0.6l7.1,0.3c0-3.3,0.6-6.9,1.8-10.9l2,0.6c-1,3.8-1.6,7.3-1.8,10.5c10.6,0.9,21.6,3.5,33.2,7.7
					c9.7,3.5,21.2,8.7,34.5,15.8h10.4c-0.2-0.7-0.5-1.3-1-1.8c-2.6-1.1-5.2-2.2-7.8-3.3h-0.3c-0.3,0-0.6,0-0.9,0l-0.9,0.2l-9.9-10.6
					l-7.2,1.9l5.3-3.9h0.1l-3.1-3.4H256l-5.4,2.4l3.2-4.8l0.1,0l-1.9-2l-2.4,1.5c-2.1-1.3-4.1-2.7-6-4.1c-2.8-2.6-5.5-5.2-8.3-7.8
					c-1-1.3-2.1-2.6-3.1-3.9c-0.3-0.5-0.6-0.9-0.9-1.4h-7.6v-1.4h6.6c-0.4-0.7-0.8-1.4-1.1-2.1H223.8z"/>
				<path fill="#F8DE79" d="M252.5,76.4l-2.3,8.2l-3.7-8.1c-4.6,0.2-8.8,0.9-12.6,2c-3.8-1.6-6.2-5.4-7.3-11.4
					c-0.4,5.4-0.8,10.7-1.2,16.1c0.2,1.9,0.5,3.8,0.9,5.7l5.9,3.2l-5.2,0.3c0.1,0.5,0.3,1.1,0.4,1.6c0.2,0.6,0.3,1.1,0.5,1.7
					l3.4,1.5l-2.7,0.8c0.7,2,1.5,3.8,2.4,5.6h5.2v1.7h-4.4c0.2,0.4,0.4,0.7,0.6,1.1c0.2,0.3,0.4,0.7,0.6,1h3.1v1.4H234
					c4,6.2,9.3,10.9,15.9,14.3c4.6-4,9.1-8,13.6-12c0.5-0.7,1-1.5,1.5-2.2h-3.1v-1.4h4.1c0.2-0.3,0.3-0.6,0.5-0.9
					c0.2-0.4,0.4-0.8,0.6-1.2h-5.3v-1.7h6.1c0.6-1.2,1.1-2.5,1.6-3.8l-3-1.2l3.6-0.9c0.2-0.6,0.4-1.3,0.6-1.8
					c0.2-0.6,0.3-1.3,0.5-1.9l-3.8-0.5l4.3-1.8c0.6-3.3,0.9-6.8,0.8-10.3c0.1-6.3-0.2-10.9-0.9-13.9c-1.2,5.1-3.3,8.8-6.4,10.9
					C261.5,77.1,257.2,76.5,252.5,76.4 M260,89.3c-1,0.7-1.9,1.9-2.5,3.6h6.1v1.4l-6.7,0c-0.5,2.3,0,4.6,1.5,6.9l-7.7,5.1l5.1,3.1
					l-0.8,1.1l-5.5-3.4l-4.9,3.3l-0.9-1.2l4.6-3l-8-4.9l0.3-0.6c1-1.7,1.9-3.8,2.7-6.3l-6.1-0.1v-1.3h6.4c0.9-3.9,0.9-6.6,0-8.2
					c-0.4-0.7-0.9-1.1-1.8-1.1c-1.6,0-2.9,0.6-4,1.9c-0.8,1-1.2,1.7-1.2,2.1l-1.4-0.4c0.1-0.1,0.7-0.9,1.7-2.5
					c1.4-1.6,3-2.4,4.9-2.4c1.4,0,2.3,0.6,2.9,1.7c1.1,1.9,1.2,4.8,0.3,8.9h11c1.5-4.3,4.7-6.4,9.8-6.4v1.3
					C263.2,87.8,261.3,88.3,260,89.3 M243.5,101.7l5.9,3.7l5.7-3.7H243.5 M255.6,94.3l-11-0.1c-0.6,2.4-1.3,4.4-2.2,6.1h14.1
					C255.3,98.4,255,96.4,255.6,94.3z"/>
			</g>
		</g>
	</g>
</g>
<g id="mysql">
	<g transform="matrix( 1, 0, 0, 1, 0,16.45) ">
		<g>
			<g id="Layer3_0_FILL">
				<path fill="#255D87" d="M503.3,84.2v0.2h0.1c0.2,0.4,0.5,0.9,1,1.4c0.6,0.6,0.9,1,1.1,1.3l1.5,3.1l0.1-0.2
					c0.9-0.6,1.3-1.7,1.3-3.3c-0.1-0.1-0.3-0.3-0.4-0.6c-0.2-0.3-0.3-0.6-0.3-0.7c-0.2-0.2-0.5-0.5-0.9-0.8c-0.5-0.4-0.8-0.6-1-0.8
					C505.2,83.9,504.3,84,503.3,84.2 M502,73.2c-0.7-0.6-1.2-1-1.4-1.2c-3.1-1.9-5.9-3.2-8.3-3.7c-3.9-0.9-6.4,0.1-7.6,3
					c-0.7,1.8-0.5,3.8,0.8,6c0.7,1.2,1.8,2.7,3.3,4.4c0.4,0.5,1,1.3,1.8,2.4c0.7,1,1.2,1.8,1.5,2.5c0.2,0.4,0.4,1,0.6,1.7
					c0.2,0.8,0.4,1.3,0.5,1.7c0.4,1,0.9,2.5,1.5,4.5c0.6,1.7,1.3,3.1,1.9,4.3c1,1.9,1.8,3.2,2.4,4l0.9,0.9c0.4,0.4,0.6,0.8,0.7,1.3
					c-0.4,0.5-0.6,1.3-0.9,2.3c-0.4,1.6-0.6,2.4-0.6,2.5c-1.1,3.6-1.5,7.5-1.1,11.6c0.4,4.1,1.4,7.4,3,10.1c2.2,3.5,4.5,4.7,6.8,3.8
					c1.2-0.5,2-1.5,2.3-3.3c0.3-2.1,0.5-3.8,0.8-4.8c0.1-0.5,0.1-0.8,0.2-0.9c0-0.3,0.1-0.6,0.3-0.8v0.2l2.6,5.3
					c1.9,3,4.7,5.9,8.4,8.7c0.2,0.2,0.9,0.9,2.2,2.1c0.9,0.9,1.8,1.5,2.5,1.8v-0.2h-0.2c-0.2-0.2-0.4-0.5-0.7-0.7
					c-0.4-0.3-0.7-0.6-0.8-0.6c-1.3-1.3-2.5-2.6-3.3-3.9c-2.6-3.5-5-7.5-7.3-11.8c-0.1-0.2-1.1-2.3-2.8-6.1l-0.4-1.4
					c-0.2-0.5-0.4-0.9-0.6-1c-0.2,0.3-0.7,1-1.6,2.2c-0.7,0.9-1.2,1.6-1.4,2.3c-0.5,1.2-0.9,2.7-1.2,4.6c-0.1,1.1-0.3,2.8-0.6,5.2
					c-0.1,0-0.2,0.1-0.3,0.1c-0.9-0.2-1.6-0.8-2.3-1.7c-0.2-0.4-0.6-1.3-1.3-2.7c-1-2.3-1.6-5.1-1.6-8.4c-0.1-3.3,0.2-6.3,1-8.9
					c0.5-1.4,1-2.6,1.3-3.5c0.6-1.7,0.7-2.9,0.4-3.4c-0.2-0.5-0.5-1-1-1.6c-0.8-0.8-1.2-1.3-1.3-1.4c-0.8-1.1-1.6-2.5-2.4-4.1
					c-0.5-1.2-1.2-3-2-5.6c-0.8-2.5-1.4-4.4-2-5.6c-0.5-1-1.5-2.7-3.3-5c-0.8-1.1-1.4-1.8-1.8-2.3c-0.7-1-1.3-1.9-1.7-2.7
					c-0.6-1.2-0.7-2.1-0.3-2.7c0.1-0.4,0.4-0.7,0.9-0.8c0.6-0.5,2-0.3,4.1,0.5c2.6,1.1,4.7,2.2,6.4,3.3c0.1,0.1,0.5,0.5,1.4,1.3
					c0.6,0.5,1.2,0.9,1.7,1h1.3c0.6,0.1,1.7,0.2,3.3,0.3c1.4,0.1,2.4,0.2,3.1,0.4c2.9,0.9,6,2.4,9.3,4.4
					c8.6,5.4,15.3,12.8,20.2,22.1c0.5,1,1.1,2.4,1.8,4.4c0.9,2.1,2.4,5.3,4.4,9.4c1.8,4.1,3.4,7,4.6,8.7c0.4,0.5,1.4,1.1,3,1.7
					c0.9,0.3,2.1,0.6,3.6,1.1c0.3,0.1,1,0.4,2.3,0.8c1,0.4,1.8,0.7,2.2,0.9c1.1,0.7,3.3,2.1,6.5,4.4c0.4,0.3,1.2,0.8,2.5,1.7
					c1.2,0.8,1.8,1.5,1.8,2.1c-5.3-0.2-9.5,0.4-12.5,1.8c-0.7,0.2-1.3,0.4-1.6,0.5c-0.6,0.2-1,0.6-1.1,1.1c0.4,0.4,0.7,1.1,1.1,2.1
					c1.1,1.7,2.2,3,3.4,3.9c1.9,1.5,3.3,2.4,4.1,2.9s2.1,1.2,3.9,2c1.8,0.8,3.1,1.5,3.9,2c0.5,0.4,2,1.4,4.3,3.1
					c0.1,0.1,0.4,0.4,1,0.9c0.4,0.4,0.7,0.6,1.1,0.7V161c-0.2-0.2-0.3-0.5-0.5-1c-0.2-0.5-0.4-0.8-0.5-1.1l-2-1.9
					c-1.7-2.3-4-4.5-6.8-6.5c-1.8-1-3.1-1.9-4.1-2.6c-1.8-1.2-2.9-2.2-3.3-3.2l-0.1-0.2c0.6-0.1,2-0.4,4.4-1
					c0.7-0.2,1.8-0.3,3.2-0.5c1.4-0.1,2.5-0.3,3.3-0.5l3.1-0.9v-0.6c-0.4-0.3-0.9-1-1.6-2c-0.7-0.9-1.2-1.5-1.7-1.8
					c-3.7-3.2-7.3-5.9-10.6-8c-0.8-0.5-1.9-1.1-3.4-1.7c-1.8-0.8-2.9-1.3-3.4-1.6c-1.4-0.4-2.2-0.8-2.5-1.2c-0.5-0.6-1-1.4-1.5-2.4
					c-0.5-1.2-0.9-2-1.2-2.6c-2-4-3.8-7.7-5.3-11.2c-0.1-0.3-0.6-1.6-1.5-3.8c-0.6-1.5-1.1-2.7-1.7-3.6c-3.3-5.4-6.9-10-10.8-13.8
					c-3.8-3.6-8.5-7.1-14.3-10.4c-1-0.6-2.3-1.1-3.9-1.6c-0.6-0.2-2.1-0.5-4.4-1.1l-4.9-0.3C503.2,74,502.7,73.7,502,73.2z"/>
			</g>
		</g>
	</g>
</g>
<g id="connectors">
	<g transform="matrix( 1, 0, 0, 1, 0,0) ">
		<g>
			<g id="Layer2_0_FILL">
				<path fill="#FEFEFE" d="M98.3,240.8c0-0.8-0.3-1.4-0.8-2c-0.6-0.5-1.2-0.8-2-0.8h0c-0.8,0-1.4,0.3-2,0.8c-0.6,0.6-0.9,1.2-0.9,2
					c0,0.8,0.3,1.4,0.9,2s1.2,0.9,2,0.9c0.8,0,1.4-0.3,2-0.9C98.1,242.2,98.3,241.5,98.3,240.8 M139.5,131.9c-0.4,0-0.8,0.1-1.1,0.4
					c-0.3,0.3-0.4,0.6-0.4,1.1c0,0.4,0.1,0.7,0.4,1c0.3,0.3,0.6,0.4,1.1,0.4c0.4,0,0.8-0.1,1.1-0.4c0.3-0.3,0.4-0.6,0.4-1
					c0-0.4-0.2-0.8-0.4-1.1C140.3,132.1,139.9,131.9,139.5,131.9 M661.3,222.6c-0.6-0.5-1.2-0.8-2-0.8h0c-0.7,0-1.4,0.3-2,0.8
					c-0.5,0.6-0.8,1.2-0.8,2c0,0.8,0.3,1.4,0.8,2c0.6,0.6,1.2,0.9,2,0.9c0.8,0,1.4-0.3,2-0.9c0.6-0.6,0.9-1.2,0.9-2
					C662.2,223.9,661.9,223.2,661.3,222.6 M616.8,133.4c0-0.4-0.1-0.8-0.4-1.1c-0.3-0.3-0.7-0.4-1.1-0.4c-0.4,0-0.8,0.1-1,0.4
					c-0.3,0.3-0.5,0.6-0.5,1.1c0,0.4,0.2,0.7,0.5,1c0.3,0.3,0.6,0.4,1,0.4c0.4,0,0.8-0.1,1.1-0.4
					C616.7,134.2,616.8,133.8,616.8,133.4z"/>
			</g>
		</g>
		<g>
			<path id="Layer2_0_1_STROKES" fill="none" stroke="#A3A3A3" stroke-miterlimit="10" d="M616.8,133.4c0-0.4-0.1-0.8-0.4-1.1
				c-0.3-0.3-0.7-0.4-1.1-0.4c-0.4,0-0.8,0.1-1,0.4c-0.3,0.3-0.5,0.6-0.5,1.1c0,0.4,0.2,0.7,0.5,1c0.3,0.3,0.6,0.4,1,0.4
				c0.4,0,0.8-0.1,1.1-0.4C616.7,134.2,616.8,133.8,616.8,133.4h33.9c2.3,0,4.3,0.8,6,2.4c1.6,1.6,2.4,3.6,2.4,6l0.2,80h0
				c0.8,0,1.4,0.3,2,0.8c0.6,0.6,0.9,1.2,0.9,2c0,0.8-0.3,1.4-0.9,2c-0.6,0.6-1.2,0.9-2,0.9c-0.8,0-1.4-0.3-2-0.9
				c-0.5-0.6-0.8-1.2-0.8-2c0-0.8,0.3-1.4,0.8-2c0.6-0.5,1.2-0.8,2-0.8 M138.1,133.4c0-0.4,0.1-0.8,0.4-1.1c0.3-0.3,0.6-0.4,1.1-0.4
				c0.4,0,0.8,0.1,1.1,0.4c0.3,0.3,0.4,0.6,0.4,1.1c0,0.4-0.2,0.7-0.4,1c-0.3,0.3-0.6,0.4-1.1,0.4c-0.4,0-0.8-0.1-1.1-0.4
				C138.2,134.2,138.1,133.8,138.1,133.4h-15.5h-18.4c-2.3,0-4.3,0.8-6,2.4c-1.6,1.6-2.4,3.6-2.4,6l0,16.1l-0.1,79.9
				c0.7,0,1.4,0.3,2,0.8c0.5,0.6,0.8,1.2,0.8,2s-0.3,1.4-0.8,2c-0.6,0.6-1.2,0.9-2,0.9c-0.8,0-1.4-0.3-2-0.9s-0.9-1.2-0.9-2
				c0-0.8,0.3-1.4,0.9-2c0.6-0.5,1.2-0.8,2-0.8h0"/>
		</g>
	</g>
</g>
<g id="arrows">
	<g transform="matrix( 1, 0, 0, 1, 0,0) ">
		<g>
			<path id="Layer1_0_1_STROKES" fill="none" stroke="#A3A3A3" stroke-linecap="round" stroke-linejoin="round" d="M437.5,155
				l4.9-4.9H307.1 M442.4,150.1l-4.9-4.9 M317.5,113.7l-4.8,4.9h134.5 M312.7,118.6l4.8,4.9"/>
		</g>
	</g>
</g>
</svg>
