<?xml version="1.0" encoding="utf-8"?>
<!-- Generator: Adobe Illustrator 23.0.1, SVG Export Plug-In . SVG Version: 6.00 Build 0)  -->
<svg version="1.1" id="Layer_s1" xmlns="http://www.w3.org/2000/svg" xmlns:xlink="http://www.w3.org/1999/xlink" x="0px" y="0px"
	 viewBox="0 0 750 400" enable-background="new 0 0 750 400" xml:space="preserve">
<g id="clouds_bits">
	<g transform="matrix( 1, 0, 0, 1, 0,0) ">
		<g>
			<g id="Layer7_0_FILL">
				<path fill="#F7571A" d="M568.7,220.8c0-0.5-0.2-1-0.6-1.4c-0.4-0.4-0.8-0.5-1.3-0.5c-0.5,0-1,0.2-1.3,0.5
					c-0.4,0.4-0.6,0.8-0.6,1.4s0.2,1,0.6,1.4c0.4,0.4,0.8,0.6,1.3,0.6s1-0.2,1.3-0.6C568.5,221.8,568.7,221.3,568.7,220.8
					 M182.8,247.5c-0.4,0.4-0.6,0.8-0.6,1.4s0.2,1,0.6,1.3c0.4,0.4,0.8,0.6,1.3,0.6s1-0.2,1.4-0.6c0.4-0.4,0.6-0.8,0.6-1.3
					s-0.2-1-0.6-1.4s-0.8-0.6-1.4-0.6S183.2,247.1,182.8,247.5z"/>
				<path fill="#BAD727" d="M538.5,335.4c0,0.5,0.2,1,0.5,1.4c0.4,0.4,0.8,0.6,1.4,0.6c0.5,0,1-0.2,1.3-0.6c0.4-0.4,0.6-0.9,0.6-1.4
					c0-0.5-0.2-1-0.6-1.4c-0.4-0.4-0.8-0.5-1.3-0.5c-0.5,0-1,0.2-1.4,0.5C538.7,334.4,538.5,334.9,538.5,335.4 M82.3,98.7
					c0-0.5-0.2-1-0.5-1.3c-0.4-0.4-0.8-0.5-1.4-0.5c-0.5,0-1,0.2-1.3,0.5c-0.4,0.4-0.6,0.8-0.6,1.3c0,0.5,0.2,1,0.6,1.4
					c0.4,0.4,0.8,0.5,1.3,0.5s1-0.2,1.4-0.5C82.2,99.7,82.3,99.2,82.3,98.7z"/>
				<path fill="#BFBFBF" d="M481.3,347.1l3,5.2h6l3-5.2l-3-5.2h-6L481.3,347.1 M485.1,350.9l-2.2-3.8l2.2-3.8h4.4l2.2,3.8l-2.2,3.8
					H485.1 M118.4,62.2l-3,5.2l3,5.2h6l3.1-5.2l-3.1-5.2H118.4 M117.1,67.3l2.2-3.8h4.3l2.2,3.8l-2.2,3.8h-4.3L117.1,67.3z"/>
				<path fill="#83C4EC" d="M425,325.5c-0.2,0.2-0.3,0.4-0.3,0.7c0,0.3,0.1,0.5,0.3,0.7c0.2,0.2,0.4,0.3,0.7,0.3h2.5v2.6
					c0,0.3,0.1,0.5,0.3,0.6c0.2,0.2,0.4,0.3,0.7,0.3s0.5-0.1,0.7-0.3c0.2-0.2,0.3-0.4,0.3-0.6v-2.6h2.6c0.3,0,0.5-0.1,0.7-0.3
					c0.2-0.2,0.3-0.4,0.3-0.7c0-0.3-0.1-0.5-0.3-0.7c-0.2-0.2-0.4-0.3-0.7-0.3h-2.6v-2.5c0-0.6-0.3-1-0.9-1c-0.6,0-1,0.3-1,1v2.5
					h-2.5C425.4,325.3,425.2,325.4,425,325.5 M606.2,187.9v2.6h-2.6c-0.3,0-0.5,0.1-0.6,0.3c-0.2,0.2-0.3,0.4-0.3,0.6
					c0,0.3,0.1,0.5,0.3,0.7c0.2,0.2,0.4,0.3,0.6,0.3h2.6v2.6c0,0.3,0.1,0.5,0.3,0.6c0.2,0.2,0.4,0.3,0.7,0.3c0.2,0,0.5-0.1,0.6-0.3
					c0.2-0.2,0.3-0.4,0.3-0.6v-2.6h2.6c0.3,0,0.5-0.1,0.7-0.3c0.2-0.2,0.3-0.4,0.3-0.7c0-0.3-0.1-0.5-0.3-0.6
					c-0.2-0.2-0.4-0.3-0.7-0.3h-2.6v-2.6c0-0.3-0.1-0.5-0.3-0.7c-0.2-0.2-0.4-0.3-0.6-0.3s-0.5,0.1-0.7,0.3
					C606.3,187.4,606.2,187.7,606.2,187.9 M206.3,184.6c-0.2,0.2-0.3,0.4-0.3,0.6v2.6h-2.6c-0.6,0-0.9,0.3-0.9,0.9
					c0,0.3,0.1,0.5,0.3,0.6c0.2,0.2,0.4,0.3,0.7,0.3h2.6v2.6c0,0.3,0.1,0.5,0.3,0.7c0.2,0.2,0.4,0.3,0.6,0.3c0.3,0,0.5-0.1,0.7-0.3
					c0.2-0.2,0.3-0.4,0.3-0.7v-2.6h2.6c0.2,0,0.5-0.1,0.7-0.3c0.2-0.2,0.3-0.4,0.3-0.6c0-0.3-0.1-0.5-0.3-0.7
					c-0.2-0.2-0.4-0.2-0.7-0.3h-2.6v-2.6c0-0.3-0.1-0.5-0.3-0.6c-0.2-0.2-0.4-0.3-0.7-0.3C206.6,184.3,206.4,184.4,206.3,184.6
					 M54,304.4v2.6h-2.5c-0.6,0-1,0.3-1,0.9c0,0.3,0.1,0.5,0.3,0.6c0.2,0.2,0.4,0.3,0.7,0.3H54v2.5c0,0.3,0.1,0.5,0.3,0.7
					c0.2,0.2,0.4,0.3,0.7,0.3c0.3,0,0.5-0.1,0.7-0.3c0.2-0.2,0.3-0.4,0.3-0.7v-2.5h2.5c0.2,0,0.5-0.1,0.7-0.3
					c0.2-0.2,0.3-0.4,0.3-0.6s-0.1-0.5-0.3-0.7c-0.2-0.2-0.4-0.3-0.7-0.3H56v-2.6c0-0.3-0.1-0.5-0.3-0.6c-0.2-0.2-0.4-0.3-0.7-0.3
					c-0.3,0-0.5,0.1-0.7,0.3C54.1,303.9,54,304.1,54,304.4 M505.1,47c0-0.2-0.1-0.5-0.3-0.7s-0.4-0.3-0.6-0.3
					c-0.3,0-0.5,0.1-0.7,0.3c-0.2,0.2-0.3,0.4-0.3,0.7v2.6h-2.6c-0.3,0-0.5,0.1-0.6,0.3c-0.2,0.2-0.3,0.4-0.3,0.7
					c0,0.3,0.1,0.5,0.3,0.7c0.2,0.2,0.4,0.3,0.6,0.3h2.6V54c0,0.6,0.3,1,1,1c0.3,0,0.5-0.1,0.6-0.3c0.2-0.2,0.3-0.4,0.3-0.7v-2.5
					h2.6c0.3,0,0.5-0.1,0.7-0.3c0.2-0.2,0.3-0.4,0.3-0.7c0-0.6-0.3-1-0.9-1h-2.6V47z"/>
				<path fill="#DEDEDE" d="M214.7,289.5c-0.4-0.4-0.8-0.5-1.3-0.5c-0.6,0-1,0.2-1.4,0.5c-0.4,0.4-0.6,0.9-0.6,1.4
					c0,0.5,0.2,1,0.6,1.4c0.4,0.4,0.9,0.5,1.4,0.5s1-0.2,1.3-0.5s0.6-0.8,0.6-1.4C215.3,290.4,215.1,289.9,214.7,289.5 M295.2,324.5
					c-0.7,0.8-1.1,1.7-1.1,2.8c0,1.1,0.4,2,1.1,2.7c0.8,0.7,1.7,1.1,2.8,1.1c1,0,1.9-0.4,2.7-1.1c0.7-0.7,1.1-1.6,1.1-2.7
					c0-1.1-0.4-2-1.1-2.8c-0.7-0.7-1.6-1.1-2.7-1.1C296.9,323.4,296,323.7,295.2,324.5z"/>
				<path fill="#D1D1D1" d="M417.3,60.8c-0.7,0.7-1.1,1.6-1.1,2.7c0,1.1,0.4,2,1.1,2.8c0.8,0.7,1.7,1.1,2.8,1.1s2-0.4,2.7-1.1
					c0.8-0.8,1.1-1.7,1.1-2.8c0-1-0.4-1.9-1.1-2.7c-0.7-0.7-1.6-1.1-2.7-1.1S418.1,60.1,417.3,60.8z"/>
				<path fill="#3D3D3D" fill-opacity="0.1686" d="M135.1,326.6c-4.3,0-8.3,1.2-11.9,3.7c-3.5,2.4-6,5.5-7.6,9.4
					c-2-2.1-4.4-3.1-7.3-3.1c-2.6,0-4.9,0.9-6.9,2.8c-1.9,1.8-3,4-3.1,6.6h144.1c-0.2-8-3.2-14.9-9-20.5c-5.8-5.7-12.7-8.5-20.7-8.5
					c-4.6,0-9,1-13.1,3c-4,1.9-7.3,4.6-10.1,8.1c-1.1-2.1-2.7-3.7-4.7-4.9c-2.1-1.3-4.4-1.9-6.8-1.9c-3,0-5.8,0.9-8.1,2.8
					c-2.3,1.9-3.9,4.2-4.6,7.1c-2-0.8-4.1-1.2-6.3-1.2c-3.4,0-6.4,0.9-9.2,2.8c-1.9-1.9-4.1-3.4-6.7-4.5
					C140.6,327.2,137.9,326.6,135.1,326.6 M335.1,56c-3.2,1.5-6.1,3.6-8.6,6.3c-3.7-2.6-7.6-3.9-11.9-3.9c-2.8,0-5.5,0.6-8.2,1.8
					c-0.9-4.1-2.9-7.5-5.9-10.1c-3.1-2.7-6.6-4-10.6-4c-3.2,0-6.1,0.9-8.9,2.7c-2.6,1.8-4.7,4.1-6.1,7c-3.6-4.9-8-8.7-13.2-11.5
					c-5.4-2.9-11.1-4.3-17.1-4.3c-10.5,0-19.5,4-27,12c-7.5,8-11.4,17.7-11.7,29.1h187.8c-0.3-3.7-1.6-6.9-4.1-9.4
					c-2.5-2.6-5.5-3.8-9-3.8c-1.8,0-3.6,0.4-5.3,1.2c-1.6,0.8-3,1.9-4.3,3.3c-2-5.6-5.3-10-9.8-13.5c-4.6-3.5-9.8-5.3-15.5-5.3
					C342.1,53.7,338.5,54.5,335.1,56 M699.3,215c-0.1-4.7-1.9-8.8-5.3-12.1c-3.4-3.3-7.5-5-12.2-5c-2.7,0-5.3,0.6-7.7,1.8
					c-2.3,1.1-4.3,2.7-6,4.8c-0.7-1.2-1.6-2.2-2.8-2.9c-1.2-0.8-2.6-1.2-4-1.2c-1.8,0-3.4,0.6-4.8,1.7c-1.4,1.1-2.3,2.5-2.7,4.2
					c-1.2-0.5-2.4-0.7-3.7-0.7c-1.9,0-3.7,0.5-5.4,1.6c-2.4-2.4-5.2-3.6-8.6-3.6c-2.6,0-4.9,0.7-7,2.2c-2.1,1.4-3.6,3.3-4.5,5.6
					c-1.2-1.3-2.6-1.9-4.3-1.9c-1.6,0-2.9,0.5-4,1.6c-1.1,1.1-1.8,2.4-1.9,3.9H699.3z"/>
			</g>
		</g>
		<g>
			<path id="Layer7_0_1_STROKES" fill="none" stroke="#BFBFBF" stroke-width="2" stroke-miterlimit="10" d="M562.2,153.6
				c0,0.9,0.3,1.7,1,2.3c0.6,0.6,1.4,0.9,2.3,0.9c0.9,0,1.6-0.3,2.3-0.9c0.6-0.6,1-1.4,1-2.3c0-0.9-0.3-1.6-1-2.3
				c-0.6-0.6-1.4-0.9-2.3-0.9c-0.9,0-1.7,0.3-2.3,0.9C562.5,151.9,562.2,152.7,562.2,153.6z M359,352.9c0,0.9,0.3,1.7,0.9,2.3
				c0.6,0.6,1.4,1,2.3,1c0.9,0,1.7-0.3,2.3-1c0.6-0.6,0.9-1.4,0.9-2.3c0-0.9-0.3-1.7-0.9-2.3c-0.6-0.6-1.4-0.9-2.3-0.9
				c-0.9,0-1.6,0.3-2.3,0.9C359.3,351.2,359,351.9,359,352.9z M168.4,108.8c0,0.3,0.1,0.7,0.2,0.9c0.1,0.5,0.4,1,0.8,1.3
				c0.6,0.6,1.4,1,2.3,1c0.9,0,1.7-0.3,2.3-1c0.6-0.6,0.9-1.4,0.9-2.3c0-0.9-0.3-1.6-0.9-2.3c-0.4-0.4-0.9-0.7-1.5-0.9
				c-0.3-0.1-0.5-0.1-0.8-0.1c-0.9,0-1.6,0.3-2.3,1C168.8,107.2,168.4,107.9,168.4,108.8z"/>
		</g>
	</g>
</g>
<g id="browser">
	<g transform="matrix( 1, 0, 0, 1, 0,0) ">
		<g>
			<g id="Layer6_0_FILL">
				<path fill="#FEFEFE" d="M250.1,302c-1.4-0.3-2.6-0.9-3.6-2c-0.6-0.7-1.1-1.4-1.4-2.1c0.3,0.8,0.8,1.6,1.4,2.3
					c0.9,0.9,1.9,1.5,3.1,1.8c0.4,0.1,0.9,0.1,1.4,0.1C250.7,302.1,250.4,302,250.1,302 M504.5,302.1c1.9,0,3.5-0.7,4.9-2
					c1.3-1.4,2-3,2-4.9c-0.1,1.8-0.8,3.4-2.1,4.8C508,301.3,506.4,302,504.5,302.1 M511.4,113.6H511h-40.6h-1.1H244.6v182
					c0,0.8,0.1,1.5,0.4,2.3c0.3,0.7,0.8,1.4,1.4,2.1c1,1,2.2,1.7,3.6,2c0.3,0.1,0.6,0.1,0.9,0.1h0.1h253.3c1.9-0.1,3.5-0.8,4.8-2.1
					c1.3-1.4,2-3,2.1-4.8c0-0.1,0-0.2,0-0.3V113.6z"/>
				<path fill="#595959" d="M244.6,113.6h-0.3v181.3c0,1.1,0.2,2.1,0.7,3c-0.3-0.7-0.4-1.5-0.4-2.3V113.6 M251.6,93.3h2.5H251.6
					c-2,0-3.7,0.7-5.1,2.1c-1.1,1.1-1.7,2.3-1.9,3.7c0.3-1.4,0.9-2.6,2-3.6C247.9,94.1,249.6,93.3,251.6,93.3 M469.3,113.6
					L469.3,113.6l-224.9,0v0h0.3H469.3 M470.4,113.6L470.4,113.6l-1.1,0v0H470.4 M463.6,93.3c-0.2-0.1-0.5-0.1-0.8-0.2H244.6
					c-2,0-3.7,0.7-5.1,2.1s-2.1,3.1-2.1,5.1v194.4c0,2,0.7,3.6,2.1,5.1c1.4,1.4,3.1,2.1,5.1,2.1h5c-1.2-0.3-2.2-0.9-3.1-1.8
					c-0.7-0.7-1.2-1.5-1.4-2.3c-0.4-0.9-0.7-1.9-0.7-3V113.6h-0.3h0.3v0v-13c0,0,0-0.1,0-0.1l0.2-1.4c0.2-1.4,0.9-2.6,1.9-3.7
					c1.4-1.4,3.1-2.1,5.1-2.1l2.5,0H463.6 M463.6,93.3h6.8v-0.2h-7.5C463.2,93.2,463.4,93.3,463.6,93.3z"/>
				<path fill="#CACACA" d="M510.6,97.2c-0.3-0.6-0.8-1.2-1.3-1.7c-1.4-1.4-3.1-2.2-5.1-2.2h-2.5h-31.3h-6.8H254.1h-2.5
					c-2,0-3.7,0.7-5.1,2.2c-1.1,1-1.7,2.2-2,3.6l-0.2,1.4c0,0,0,0.1,0,0.1v13h224.9h1.1h41v-13c0,0,0-0.1,0-0.1c0-1-0.2-1.9-0.5-2.7
					C510.8,97.6,510.7,97.4,510.6,97.2 M279.5,104.8c-0.6,0.5-1.2,0.8-2,0.8c-0.8,0-1.4-0.3-1.9-0.8c-0.5-0.5-0.8-1.2-0.8-2
					c0-0.8,0.3-1.4,0.8-2c0.5-0.5,1.2-0.8,1.9-0.8c0.8,0,1.4,0.3,2,0.8c0.5,0.6,0.8,1.2,0.8,2C280.4,103.6,280.1,104.3,279.5,104.8
					 M267,105.6c-0.8,0-1.4-0.3-1.9-0.8c-0.5-0.5-0.8-1.2-0.8-2c0-0.8,0.3-1.4,0.8-2c0.5-0.5,1.2-0.8,1.9-0.8c0.8,0,1.4,0.3,2,0.8
					c0.5,0.6,0.8,1.2,0.8,2c0,0.8-0.3,1.4-0.8,2C268.5,105.3,267.8,105.6,267,105.6 M259.4,102.8c0,0.8-0.3,1.4-0.8,2
					c-0.5,0.5-1.2,0.8-1.9,0.8c-0.8,0-1.4-0.3-2-0.8c-0.5-0.5-0.8-1.2-0.8-2c0-0.8,0.3-1.4,0.8-2c0.6-0.5,1.2-0.8,2-0.8
					c0.8,0,1.4,0.3,1.9,0.8C259.1,101.4,259.4,102.1,259.4,102.8 M258.5,104.8c0.5-0.5,0.8-1.2,0.8-2c0-0.8-0.3-1.4-0.8-2
					c-0.5-0.5-1.2-0.8-1.9-0.8c-0.8,0-1.4,0.3-2,0.8c-0.5,0.6-0.8,1.2-0.8,2c0,0.8,0.3,1.4,0.8,2c0.6,0.5,1.2,0.8,2,0.8
					C257.4,105.6,258,105.3,258.5,104.8 M265.1,104.8c0.5,0.5,1.2,0.8,1.9,0.8c0.8,0,1.4-0.3,2-0.8c0.5-0.5,0.8-1.2,0.8-2
					c0-0.8-0.3-1.4-0.8-2c-0.6-0.5-1.2-0.8-2-0.8c-0.8,0-1.4,0.3-1.9,0.8c-0.5,0.6-0.8,1.2-0.8,2
					C264.3,103.6,264.6,104.3,265.1,104.8 M277.5,105.6c0.8,0,1.4-0.3,2-0.8c0.5-0.5,0.8-1.2,0.8-2c0-0.8-0.3-1.4-0.8-2
					c-0.6-0.5-1.2-0.8-2-0.8c-0.8,0-1.4,0.3-1.9,0.8c-0.5,0.6-0.8,1.2-0.8,2c0,0.8,0.3,1.4,0.8,2
					C276.1,105.3,276.8,105.6,277.5,105.6z"/>
			</g>
		</g>
		<g>
			<path id="Layer6_0_1_STROKES" fill="none" stroke="#000000" stroke-miterlimit="10" d="M501.7,93.3l2.5,0c2,0,3.7,0.7,5.1,2.1
				c0.5,0.6,1,1.2,1.3,1.8c0.1,0.2,0.2,0.4,0.3,0.6c0.3,0.8,0.5,1.7,0.5,2.7c0,0,0,0.1,0,0.1v13v0v181.3c0,0.1,0,0.2,0,0.3
				 M504.5,302.1H251.2 M249.6,302h-5c-2,0-3.7-0.7-5.1-2.1c-1.4-1.4-2.1-3.1-2.1-5.1V100.4c0-2,0.7-3.7,2.1-5.1s3.1-2.1,5.1-2.1
				h218.3h7.5 M501.7,93.3h-31.3h-6.8c-0.2-0.1-0.5-0.1-0.8-0.2 M469.3,113.6L469.3,113.6l1.1,0H511 M511.4,295.2
				c-0.1,1.8-0.8,3.4-2.1,4.8c-1.3,1.3-2.9,2-4.8,2.1 M254.1,93.3l-2.5,0c-2,0-3.7,0.7-5.1,2.1c-1.1,1.1-1.7,2.3-1.9,3.7l-0.2,1.4
				 M244.4,113.6v-13 M280.4,102.8c0,0.8-0.3,1.4-0.8,2c-0.6,0.5-1.2,0.8-2,0.8c-0.8,0-1.4-0.3-1.9-0.8c-0.5-0.5-0.8-1.2-0.8-2
				c0-0.8,0.3-1.4,0.8-2c0.5-0.5,1.2-0.8,1.9-0.8c0.8,0,1.4,0.3,2,0.8C280.1,101.4,280.4,102.1,280.4,102.8z M269.9,102.8
				c0,0.8-0.3,1.4-0.8,2c-0.6,0.5-1.2,0.8-2,0.8c-0.8,0-1.4-0.3-1.9-0.8c-0.5-0.5-0.8-1.2-0.8-2c0-0.8,0.3-1.4,0.8-2
				c0.5-0.5,1.2-0.8,1.9-0.8c0.8,0,1.4,0.3,2,0.8C269.6,101.4,269.9,102.1,269.9,102.8z M259.4,102.8c0,0.8-0.3,1.4-0.8,2
				c-0.5,0.5-1.2,0.8-1.9,0.8c-0.8,0-1.4-0.3-2-0.8c-0.5-0.5-0.8-1.2-0.8-2c0-0.8,0.3-1.4,0.8-2c0.6-0.5,1.2-0.8,2-0.8
				c0.8,0,1.4,0.3,1.9,0.8C259.1,101.4,259.4,102.1,259.4,102.8z M244.4,113.6L244.4,113.6l0.3,0h224.6 M244.1,113.6h0.3v181.3
				c0,1.1,0.2,2.1,0.7,3 M251.1,302.1c-0.3,0-0.6-0.1-0.9-0.1c-1.4-0.3-2.6-0.9-3.6-2c-0.6-0.7-1.1-1.4-1.4-2.1 M254.1,93.3h209.5"
				/>
		</g>
	</g>
</g>
<g id="arrows">
	<g transform="matrix( 1, 0, 0, 1, 0,0) ">
		<g>
			<path id="Layer5_0_1_STROKES" fill="none" stroke="#A3A3A3" stroke-linecap="round" stroke-linejoin="round" d="M344.3,164.1V187
				l4.9-4.9 M339.4,182.1l4.9,4.9 M408.3,164.3v20l4.9-4.9 M470.7,164.3v20l4.9-4.9 M465.8,179.4l4.9,4.9 M403.4,179.4l4.9,4.9
				 M465.8,237.9l4.9,4.8v-20 M470.7,242.7l4.9-4.8 M408.3,222.7v20l4.9-4.8 M378.2,215.3l4.8-4.9h-20 M383,210.4l-4.8-4.9
				 M403.4,237.9l4.9,4.8 M282.9,167v20l4.9-4.9 M278,182.1l4.9,4.9 M300.8,210.4h20l-4.9-4.9 M315.9,215.3l4.9-4.9 M278,238.2
				l4.9-4.8l4.9,4.8 M282.9,252.9v-19.5"/>
		</g>
		<g>
			<path id="Layer5_0_2_STROKES" fill="none" stroke="#A3A3A3" stroke-miterlimit="10" d="M391.1,150.4h-38.5
				c-2.3,0-4.3,0.8-5.9,2.4c-1.6,1.6-2.5,3.6-2.5,5.9v5.4 M393.8,266.6H291.3c-2.3,0-4.3-0.8-6-2.5c-1.6-1.6-2.4-3.6-2.4-5.9v-5.4"
				/>
		</g>
	</g>
</g>
<g id="cells">
	<g transform="matrix( 1, 0, 0, 1, 0,0) ">
		<g>
			<g id="Layer4_0_FILL">
				<path fill="#CACACA" d="M282.6,191.1c-5.3,0-9.8,1.9-13.6,5.6c-3.7,3.7-5.5,8.3-5.5,13.6c0,5.3,1.9,9.8,5.5,13.5
					c3.8,3.8,8.3,5.6,13.6,5.6c5.3,0,9.8-1.9,13.5-5.6c3.7-3.7,5.6-8.2,5.6-13.5c0-5.3-1.9-9.8-5.6-13.6S287.9,191.1,282.6,191.1
					 M282.6,135.8c-5.3,0-9.8,1.8-13.6,5.6c-3.7,3.7-5.5,8.3-5.5,13.6s1.9,9.8,5.5,13.5c3.8,3.7,8.3,5.6,13.6,5.6
					c5.3,0,9.8-1.9,13.5-5.6c3.7-3.7,5.6-8.2,5.6-13.5s-1.9-9.8-5.6-13.6C292.4,137.6,287.9,135.8,282.6,135.8 M451.1,265.8
					c0,5.3,1.8,9.8,5.5,13.5c3.8,3.7,8.3,5.6,13.6,5.6c5.3,0,9.8-1.9,13.5-5.6c3.7-3.7,5.6-8.2,5.6-13.5c0-5.3-1.9-9.8-5.6-13.6
					c-3.7-3.7-8.2-5.6-13.5-5.6c-5.3,0-9.8,1.9-13.6,5.6C452.9,256,451.1,260.5,451.1,265.8 M408,284.9c5.3,0,9.8-1.9,13.5-5.6
					c3.7-3.7,5.6-8.2,5.6-13.5c0-5.3-1.9-9.8-5.6-13.6c-3.7-3.7-8.3-5.6-13.5-5.6c-5.3,0-9.8,1.9-13.6,5.6
					c-3.7,3.8-5.5,8.3-5.5,13.6c0,5.3,1.8,9.8,5.5,13.5C398.2,283,402.7,284.9,408,284.9 M423.9,228.6c-0.1,0-0.2,0-0.4,0h-31.1
					c-0.1,0-0.2,0-0.3,0H423.9 M424.2,228.6c0.2,0,0.3,0,0.5,0h-1.2c0.1,0,0.2,0,0.4,0H424.2 M391.3,188.7c-0.8,0.1-1.5,0.5-2.1,1.1
					c-0.7,0.7-1.1,1.6-1.1,2.6v32.5c0,1,0.4,1.9,1.1,2.7c0.6,0.6,1.3,0.9,2.1,1.1c0.1,0,0.3,0,0.5,0h0.4c0.1,0,0.2,0,0.3,0h31.1h1.2
					c0.8-0.1,1.5-0.4,2.1-1.1c0.7-0.7,1.1-1.6,1.1-2.7v-32.5c0-1-0.4-1.9-1.1-2.6c-0.6-0.6-1.4-0.9-2.1-1.1h-1.2h-31.1
					c-0.2,0-0.4-0.1-0.6-0.1C391.6,188.6,391.4,188.7,391.3,188.7 M343.9,191.1c-5.3,0-9.8,1.9-13.5,5.6c-3.7,3.7-5.6,8.3-5.6,13.6
					c0,5.3,1.9,9.8,5.6,13.5c3.8,3.8,8.3,5.6,13.5,5.6c5.3,0,9.8-1.9,13.6-5.6c3.7-3.7,5.6-8.2,5.6-13.5c0-5.3-1.9-9.8-5.6-13.6
					S349.2,191.1,343.9,191.1 M423.9,170.1h0.4c0.2,0,0.3,0,0.5-0.1h-1.2C423.6,170.1,423.7,170.1,423.9,170.1 M392.4,170.1
					c-0.1,0-0.2,0-0.3,0.1h31.7c-0.1,0-0.2,0-0.3-0.1H392.4 M392.4,130.1c-0.2,0-0.4-0.1-0.6-0.1c-0.2,0-0.4,0-0.5,0.1
					c-0.8,0.1-1.5,0.5-2.1,1.1c-0.7,0.7-1.1,1.6-1.1,2.7v32.5c0,1,0.4,1.9,1.1,2.6c0.6,0.6,1.3,1,2.1,1.1c0.1,0,0.3,0.1,0.5,0.1h0.4
					c0.1,0,0.2,0,0.3-0.1h31.1h1.2c0.8-0.1,1.5-0.5,2.1-1.1c0.7-0.7,1.1-1.6,1.1-2.6v-32.5c0-1-0.4-1.9-1.1-2.7
					c-0.6-0.6-1.4-1-2.1-1.1h-1.2H392.4 M490.2,192.4c0-1-0.4-1.9-1.1-2.6c-0.6-0.6-1.4-0.9-2.1-1.1h-32.3c-0.2,0-0.3-0.1-0.5-0.1
					c-0.2,0-0.4,0-0.6,0.1c-0.8,0.1-1.5,0.5-2.1,1.1c-0.7,0.7-1.1,1.6-1.1,2.6v32.5c0,1,0.4,1.9,1.1,2.7c0.6,0.6,1.3,0.9,2.1,1.1
					c0.2,0,0.3,0,0.5,0h0.1c0.2,0,0.4,0,0.5,0H487c0.8-0.1,1.5-0.4,2.1-1.1c0.7-0.7,1.1-1.6,1.1-2.7V192.4 M490.2,133.9
					c0-1-0.4-1.9-1.1-2.7c-0.6-0.6-1.4-1-2.1-1.1h-32.3c-0.2,0-0.3-0.1-0.5-0.1c-0.2,0-0.4,0-0.6,0.1c-0.8,0.1-1.5,0.5-2.1,1.1
					c-0.7,0.7-1.1,1.6-1.1,2.7v32.5c0,1,0.4,1.9,1.1,2.6c0.6,0.6,1.3,1,2.1,1.1c0.2,0,0.3,0.1,0.5,0.1h0.1c0.2,0,0.4,0,0.5-0.1H487
					c0.8-0.1,1.5-0.5,2.1-1.1c0.7-0.7,1.1-1.6,1.1-2.6V133.9z"/>
			</g>
		</g>
		<g>
			<path id="Layer4_0_1_STROKES" fill="none" stroke="#000000" stroke-linecap="round" stroke-linejoin="round" d="M450.3,133.9
				c0-1,0.4-1.9,1.1-2.7c0.6-0.6,1.3-1,2.1-1.1c0.2,0,0.4-0.1,0.6-0.1c0.2,0,0.4,0,0.5,0.1H487c0.8,0.1,1.5,0.5,2.1,1.1
				c0.7,0.7,1.1,1.6,1.1,2.7v32.5c0,1-0.4,1.9-1.1,2.6c-0.6,0.6-1.4,1-2.1,1.1h-32.3c-0.1,0-0.3,0.1-0.5,0.1H454
				c-0.2,0-0.3,0-0.5-0.1c-0.8-0.1-1.5-0.5-2.1-1.1c-0.7-0.7-1.1-1.6-1.1-2.6V133.9z M450.3,192.4c0-1,0.4-1.9,1.1-2.6
				c0.6-0.6,1.3-0.9,2.1-1.1c0.2,0,0.4-0.1,0.6-0.1c0.2,0,0.4,0,0.5,0.1H487c0.8,0.1,1.5,0.5,2.1,1.1c0.7,0.7,1.1,1.6,1.1,2.6v32.5
				c0,1-0.4,1.9-1.1,2.7c-0.6,0.6-1.4,0.9-2.1,1.1h-32.3c-0.1,0-0.3,0-0.5,0H454c-0.2,0-0.3,0-0.5,0c-0.8-0.1-1.5-0.4-2.1-1.1
				c-0.7-0.7-1.1-1.6-1.1-2.7V192.4z M424.7,130.1c0.8,0.1,1.5,0.5,2.1,1.1c0.7,0.7,1.1,1.6,1.1,2.7v32.5c0,1-0.4,1.9-1.1,2.6
				c-0.6,0.6-1.4,1-2.1,1.1c-0.2,0-0.3,0.1-0.5,0.1h-0.3h-31.7h-0.4c-0.2,0-0.4,0-0.5-0.1c-0.8-0.1-1.5-0.5-2.1-1.1
				c-0.7-0.7-1.1-1.6-1.1-2.6v-32.5c0-1,0.4-1.9,1.1-2.7c0.6-0.6,1.3-1,2.1-1.1c0.2,0,0.4-0.1,0.5-0.1c0.2,0,0.4,0,0.6,0.1h31.1
				c0.2,0,0.4-0.1,0.6-0.1C424.3,130.1,424.5,130.1,424.7,130.1h-1.2 M363,210.3c0,5.3-1.9,9.8-5.6,13.5c-3.7,3.8-8.3,5.6-13.6,5.6
				c-5.3,0-9.8-1.9-13.5-5.6c-3.7-3.7-5.6-8.2-5.6-13.5c0-5.3,1.9-9.8,5.6-13.6c3.8-3.7,8.3-5.6,13.5-5.6c5.3,0,9.8,1.9,13.6,5.6
				S363,205,363,210.3z M392.1,170.1c0.1,0,0.2,0,0.3-0.1h31.1h1.2 M424.7,188.7c0.8,0.1,1.5,0.5,2.1,1.1c0.7,0.7,1.1,1.6,1.1,2.6
				v32.5c0,1-0.4,1.9-1.1,2.7c-0.6,0.6-1.4,0.9-2.1,1.1c-0.2,0-0.3,0-0.5,0h-0.3h-31.8h-0.4c-0.2,0-0.4,0-0.5,0
				c-0.8-0.1-1.5-0.4-2.1-1.1c-0.7-0.7-1.1-1.6-1.1-2.7v-32.5c0-1,0.4-1.9,1.1-2.6c0.6-0.6,1.3-0.9,2.1-1.1c0.2,0,0.4-0.1,0.5-0.1
				c0.2,0,0.4,0,0.6,0.1h31.1c0.2,0,0.4-0.1,0.6-0.1C424.3,188.6,424.5,188.7,424.7,188.7h-1.2 M423.9,170.1c-0.1,0-0.2,0-0.3-0.1
				 M392.1,228.6c0.1,0,0.2,0,0.3,0h31.1h1.2 M423.9,228.6c-0.1,0-0.3,0-0.4,0 M427.1,265.8c0,5.3-1.9,9.8-5.6,13.5
				c-3.7,3.7-8.3,5.6-13.5,5.6c-5.3,0-9.8-1.9-13.6-5.6c-3.7-3.7-5.5-8.2-5.5-13.5c0-5.3,1.8-9.8,5.5-13.6c3.8-3.7,8.3-5.6,13.6-5.6
				c5.3,0,9.8,1.9,13.5,5.6C425.2,256,427.1,260.5,427.1,265.8z M489.4,265.8c0,5.3-1.9,9.8-5.6,13.5c-3.7,3.7-8.2,5.6-13.5,5.6
				c-5.3,0-9.8-1.9-13.6-5.6c-3.7-3.7-5.5-8.2-5.5-13.5c0-5.3,1.8-9.8,5.5-13.6c3.8-3.7,8.3-5.6,13.6-5.6c5.3,0,9.8,1.9,13.5,5.6
				C487.5,256,489.4,260.5,489.4,265.8z M301.8,154.9c0,5.3-1.9,9.8-5.6,13.5c-3.7,3.7-8.2,5.6-13.5,5.6c-5.3,0-9.8-1.9-13.6-5.6
				c-3.7-3.7-5.5-8.2-5.5-13.5s1.9-9.8,5.5-13.6c3.8-3.7,8.3-5.6,13.6-5.6c5.3,0,9.8,1.8,13.5,5.6
				C299.9,145,301.8,149.6,301.8,154.9z M301.8,210.3c0,5.3-1.9,9.8-5.6,13.5c-3.7,3.8-8.2,5.6-13.5,5.6c-5.3,0-9.8-1.9-13.6-5.6
				c-3.7-3.7-5.5-8.2-5.5-13.5c0-5.3,1.9-9.8,5.5-13.6c3.8-3.7,8.3-5.6,13.6-5.6c5.3,0,9.8,1.9,13.5,5.6S301.8,205,301.8,210.3z"/>
		</g>
	</g>
</g>
<g id="circles">
	<g transform="matrix( 1, 0, 0, 1, 0,0) ">
		<g>
			<g id="Layer3_0_FILL">
				<path fill="#F7571A" d="M148.5,160.1c-12.4-12.4-27.4-18.6-44.8-18.6s-32.4,6.2-44.9,18.6c-12.4,12.4-18.5,27.3-18.5,44.8
					c0,17.5,6.2,32.5,18.5,44.9c12.4,12.3,27.4,18.5,44.9,18.5s32.4-6.2,44.8-18.5c12.4-12.4,18.6-27.4,18.6-44.9
					C167.1,187.4,160.9,172.5,148.5,160.1z"/>
				<path fill="#BAD727" d="M655,359.9c15-7.7,25.2-19.7,30.3-35.8c5.2-16.1,4-31.7-3.8-46.8c-7.8-15.1-19.7-25.2-35.8-30.4
					c-16.1-5.1-31.7-3.9-46.8,3.9c-15,7.7-25.1,19.6-30.3,35.7s-4,31.7,3.8,46.8c7.8,15,19.7,25.1,35.8,30.4
					C624.3,368.8,639.9,367.6,655,359.9z"/>
				<path fill="#2C538A" d="M703.8,92.7c-7.1-13.7-18-23-32.7-27.8c-14.7-4.7-28.9-3.6-42.7,3.5c-13.8,7-23,17.9-27.8,32.6
					c-4.7,14.7-3.5,29,3.5,42.7c7,13.8,17.9,23,32.6,27.8c14.7,4.8,28.9,3.6,42.7-3.4c13.8-7,23-17.9,27.8-32.6
					C711.9,120.7,710.8,106.4,703.8,92.7z"/>
			</g>
		</g>
		<g>
			<path id="Layer3_0_1_STROKES" fill="none" stroke="#A3A3A3" stroke-miterlimit="10" d="M683.3,175.1c15.6-8,26.2-20.4,31.6-37.2
				c5.4-16.8,4.1-33-3.9-48.6c-8-15.7-20.4-26.3-37.2-31.7c-16.8-5.4-33-4.1-48.7,4c-13.4,6.8-23,16.8-29,30c0,0.1-0.1,0.3-0.1,0.4
				l-1.5,3.9c-0.3,0.9-0.7,1.8-1,2.8c-5.4,16.8-4.1,33,3.9,48.6 M648.5,238.2c-18.5-6-36.4-4.5-53.8,4.4c-17.3,8.9-29,22.6-35,41.1
				c-6,18.5-4.5,36.4,4.4,53.8c8.8,17.3,22.5,29,41.1,34.9c18.5,6,36.5,4.5,53.8-4.4c17.3-8.9,29-22.6,35-41.1 M104.2,277.1
				c19.9,0,37-7,51.1-21.2c14.1-14.1,21.1-31.1,21.1-51c0-19.9-7-36.9-21.1-51.1c-14.1-14.1-31.1-21.2-51.1-21.2s-36.9,7.1-51,21.2
				C39.1,168,32,185,32,204.9"/>
		</g>
	</g>
</g>
<g id="connectors">
	<g transform="matrix( 1, 0, 0, 1, 0,0) ">
		<g>
			<g id="Layer2_0_FILL">
				<path fill="#FEFEFE" d="M590.9,117.5c-0.3-0.3-0.6-0.4-1.1-0.4c-0.4,0-0.7,0.2-1,0.4c-0.2,0.2-0.4,0.5-0.4,0.9c0,0,0,0.1,0,0.2
					c0,0.4,0.1,0.7,0.4,1c0.3,0.3,0.7,0.4,1,0.4c0.4,0,0.8-0.2,1.1-0.4c0.3-0.3,0.4-0.6,0.4-1C591.3,118.1,591.2,117.8,590.9,117.5
					 M488.5,148.5c-0.6,0.6-0.9,1.2-0.9,2s0.3,1.4,0.9,2c0.6,0.5,1.2,0.8,2,0.8s1.4-0.3,2-0.8c0.5-0.5,0.8-1.2,0.8-1.9
					c0,0,0-0.1,0-0.1c0-0.8-0.3-1.4-0.8-2c-0.6-0.6-1.2-0.9-2-0.9S489.1,147.9,488.5,148.5 M560.2,287.5c0-0.4-0.2-0.7-0.5-1
					c-0.3-0.3-0.6-0.5-1-0.5c-0.4,0-0.8,0.1-1.1,0.5c-0.3,0.3-0.4,0.6-0.4,1c0,0.1,0,0.1,0,0.1c0,0.4,0.2,0.7,0.4,0.9
					c0.3,0.3,0.7,0.5,1.1,0.5c0.4,0,0.8-0.1,1-0.5C560,288.2,560.2,287.9,560.2,287.5 M492.5,207.2c-0.6-0.5-1.2-0.8-2-0.8
					c-0.8,0-1.4,0.3-2,0.8c-0.6,0.6-0.9,1.2-0.9,2c0,0.8,0.3,1.4,0.9,2c0.6,0.6,1.2,0.9,2,0.9s1.4-0.3,2-0.9c0.5-0.6,0.8-1.2,0.8-2
					c0-0.1,0-0.1,0-0.1C493.3,208.3,493,207.7,492.5,207.2 M177.4,210.1c-0.3-0.3-0.6-0.5-1.1-0.5c-0.4,0-0.8,0.2-1,0.5
					c-0.3,0.3-0.5,0.6-0.5,1c0,0.4,0.2,0.7,0.5,1c0.3,0.3,0.6,0.5,1,0.5c0.4,0,0.8-0.2,1.1-0.5c0.3-0.3,0.4-0.6,0.4-1
					c0-0.1,0-0.1,0-0.1C177.8,210.6,177.7,210.3,177.4,210.1 M266.6,210.9c0-0.8-0.3-1.4-0.9-2c-0.6-0.6-1.2-0.9-2-0.9
					c-0.8,0-1.4,0.3-2,0.9c-0.5,0.6-0.8,1.2-0.8,2c0,0.1,0,0.1,0,0.1c0,0.7,0.3,1.3,0.8,1.9c0.6,0.5,1.2,0.8,2,0.8
					c0.8,0,1.4-0.3,2-0.8C266.4,212.3,266.6,211.6,266.6,210.9z"/>
			</g>
		</g>
		<g>
			<path id="Layer2_0_1_STROKES" fill="none" stroke="#A3A3A3" stroke-miterlimit="10" d="M588.4,118.4h-47.1c-2.3,0-4.3,0.8-6,2.4
				c-1.6,1.6-2.4,3.6-2.4,6v15.5c-0.1,2.2-0.9,4.1-2.5,5.7c-1.6,1.6-3.6,2.4-6,2.4l-31.2,0.1c0,0.7-0.3,1.3-0.8,1.9
				c-0.6,0.5-1.2,0.8-2,0.8s-1.4-0.3-2-0.8c-0.6-0.6-0.9-1.2-0.9-2s0.3-1.4,0.9-2s1.2-0.9,2-0.9s1.4,0.3,2,0.9
				c0.5,0.6,0.8,1.2,0.8,2c0,0.1,0,0.1,0,0.1 M588.4,118.4c0-0.4,0.2-0.7,0.4-0.9c0.3-0.3,0.7-0.4,1-0.4c0.4,0,0.8,0.2,1.1,0.4
				c0.3,0.3,0.4,0.6,0.4,1.1c0,0.4-0.1,0.7-0.4,1c-0.3,0.3-0.6,0.4-1.1,0.4c-0.4,0-0.7-0.2-1-0.4c-0.3-0.3-0.4-0.6-0.4-1
				C588.4,118.5,588.4,118.4,588.4,118.4z M557.2,287.6h-15.9c-2.3,0-4.3-0.8-6-2.5c-1.6-1.6-2.4-3.6-2.4-5.9v-61.6
				c0-2.3-0.8-4.3-2.5-6c-1.6-1.6-3.6-2.4-6-2.4l-31.2-0.1c0,0,0,0.1,0,0.1c0,0.8-0.3,1.4-0.8,2c-0.6,0.6-1.2,0.9-2,0.9
				s-1.4-0.3-2-0.9c-0.6-0.6-0.9-1.2-0.9-2c0-0.8,0.3-1.4,0.9-2c0.6-0.5,1.2-0.8,2-0.8c0.8,0,1.4,0.3,2,0.8c0.5,0.5,0.8,1.1,0.8,1.9
				 M557.2,287.5c0,0.1,0,0.1,0,0.1c0,0.4,0.2,0.7,0.4,0.9c0.3,0.3,0.7,0.5,1.1,0.5c0.4,0,0.8-0.1,1-0.5c0.3-0.3,0.5-0.6,0.5-1
				c0-0.4-0.2-0.7-0.5-1c-0.3-0.3-0.6-0.5-1-0.5c-0.4,0-0.8,0.1-1.1,0.5C557.3,286.7,557.2,287.1,557.2,287.5z M261,211
				c0,0.7,0.3,1.3,0.8,1.9c0.6,0.5,1.2,0.8,2,0.8c0.8,0,1.4-0.3,2-0.8c0.6-0.6,0.9-1.2,0.9-2c0-0.8-0.3-1.4-0.9-2
				c-0.6-0.6-1.2-0.9-2-0.9c-0.8,0-1.4,0.3-2,0.9c-0.5,0.6-0.8,1.2-0.8,2C261,210.9,261,211,261,211h-83.1c0,0,0,0.1,0,0.1
				c0,0.4-0.1,0.7-0.4,1c-0.3,0.3-0.6,0.5-1.1,0.5c-0.4,0-0.8-0.2-1-0.5c-0.3-0.3-0.5-0.6-0.5-1c0-0.4,0.2-0.8,0.5-1
				c0.3-0.3,0.6-0.5,1-0.5c0.4,0,0.8,0.2,1.1,0.5c0.2,0.2,0.4,0.5,0.4,0.9"/>
		</g>
	</g>
</g>
<g id="icons">
	<g transform="matrix( 1, 0, 0, 1, 0,0) ">
		<g>
			<g id="Layer1_0_FILL">
				<path fill="#3993C8" d="M634,333.5c0.4,0,0.8-0.1,1-0.4c0.3-0.3,0.4-0.6,0.4-1c0-0.4-0.1-0.7-0.4-1c-0.2-0.3-0.6-0.4-1-0.4
					c-0.4,0-0.7,0.1-1,0.4c-0.3,0.3-0.4,0.6-0.4,1c0,0.4,0.1,0.8,0.4,1C633.4,333.4,633.7,333.5,634,333.5z"/>
			</g>
		</g>
		<g>
			<path id="Layer1_0_1_STROKES" fill="none" stroke="#FFFFFF" stroke-linecap="round" stroke-linejoin="round" d="M103.8,215.3h-31
				v-6.9c0.9-0.8,2-1.7,3.5-2.6c2.9-1.7,5.7-2.6,8.6-2.6v-3.4c-0.6-0.3-1.1-0.8-1.7-1.6c-1.2-1.4-1.8-3.1-1.8-5.3
				c0-2.3,0.3-3.9,0.9-4.7c1-1.5,2.9-2.3,5.9-2.3c3.1,0,5.1,0.8,6.1,2.3c0.6,0.8,0.8,2.4,0.8,4.7c0,2.1-0.6,3.9-1.7,5.3
				c-0.6,0.8-1.2,1.3-1.8,1.6v3.4c2.9,0,5.8,0.9,8.7,2.6c1.5,0.9,2.6,1.8,3.5,2.6V215.3z"/>
		</g>
		<g>
			<path id="Layer1_0_2_STROKES" fill="none" stroke="#FFFFFF" stroke-linejoin="round" d="M108.8,191.2h13.8 M66,177.5v58.3h13.8
				v-5.1c0-1.7,0.6-3.1,1.7-4.3c1.2-1.2,2.7-1.8,4.3-1.8c1.7,0,3.1,0.6,4.3,1.8c1.1,1.2,1.7,2.6,1.7,4.3v5.1h27.5v-5.1
				c0-1.7,0.6-3.1,1.8-4.3c1.1-1.2,2.5-1.8,4.2-1.8c1.7,0,3.1,0.6,4.3,1.8c1.1,1.2,1.7,2.6,1.7,4.3v5.1h13.7v-58.3H66z M108.8,211.8
				h27.5 M108.8,204.9h27.5 M108.8,198h27.5"/>
		</g>
		<g>
			<path id="Layer1_0_3_STROKES" fill="none" stroke="#FFFFFF" stroke-linecap="round" stroke-linejoin="round" d="M674.8,96.9v-5.3
				h-5.3h-37.4v46.5v5.3h5.3V96.9H674.8h5.3v51.8h-42.6v-5.3 M669.6,91.7v-5.3h-42.7v51.8h5.3 M650.8,134.1l-2,2.1l2,2 M655.2,136.1
				c3.6-5.3,4.9-5.3,3.8,0c-0.3,1.9,1.2,1.9,4.5,0c2.7-1.6,5.5-1.6,8.4,0 M646.8,138.2l2-2l-2-2.1 M646.6,114.2H671 M646.6,126.3
				h24.3 M646.6,108.1H671 M646.6,120.2h24.3"/>
		</g>
		<g>
			<path id="Layer1_0_4_STROKES" fill="none" stroke="#3A6FBB" stroke-linecap="round" stroke-linejoin="round" d="M622.8,341.9H634
				v-5.6h-18c-1.2,0-2.2-0.5-3.1-1.4c-0.9-1-1.4-2.2-1.4-3.6v-23.6c0-1.4,0.5-2.5,1.4-3.5s1.9-1.5,3.1-1.5h36c1.2,0,2.3,0.5,3.2,1.5
				c0.9,1,1.3,2.2,1.3,3.5v20.2v3.4c0,1.4-0.4,2.6-1.3,3.6c-0.9,0.9-2,1.4-3.2,1.4h-18 M606,302.6h-11.5c-0.7,0-1.3-0.3-1.8-0.8
				c-0.5-0.6-0.8-1.3-0.8-2.1V297v-16.9c0-0.7,0.3-1.4,0.8-2c0.5-0.6,1.1-0.9,1.8-0.9H623c0.7,0,1.3,0.3,1.9,0.9
				c0.5,0.6,0.8,1.2,0.8,2V297H592 M634,341.9h11.3 M597.6,308.2h8.4 M613,327.9h43.5"/>
		</g>
	</g>
</g>
</svg>
