<svg version="1.1" id="Layer_04" xmlns="http://www.w3.org/2000/svg" xmlns:xlink="http://www.w3.org/1999/xlink" x="0px" y="0px"
	 width="840px" height="560px" viewBox="0 0 840 560" enable-background="new 0 0 840 560" xml:space="preserve">
<g>
	
		<linearGradient id="SVGID_1_" gradientUnits="userSpaceOnUse" x1="-4991.3188" y1="868.8513" x2="-4363.2939" y2="868.8513" gradientTransform="matrix(0.6582 0.6093 0.6125 -0.6499 2962.5027 3723.4849)">
		<stop  offset="0" style="stop-color:#1776BF"/>
		<stop  offset="0.7351" style="stop-color:#11578D"/>
	</linearGradient>
	<path fill="url(#SVGID_1_)" d="M266.143,95.488l68.636-21.674c45.016-14.265,94.387-3.428,129.122,28.529
		c14.079,12.875,27.14,26.306,38.811,36.68l45.388,40.663c39.551,35.384,90.496,55.298,143.57,55.947l26.492,0.37
		c29.455,0.371,55.298,20.008,63.356,48.259l0,0c12.412,43.071-20.471,85.772-65.395,84.938l-69.007-1.296
		c-45.017-0.834-86.051,25.379-104.021,66.599l-2.13,4.908c-16.58,37.978-52.611,63.913-94.017,67.804l0,0
		c-45.202,4.168-90.404-7.688-127.733-33.531l-38.625-26.677c-30.382-21.026-67.803-29.641-104.298-23.897l0,0
		c-40.386,6.299-78.733-20.008-87.347-59.929l0,0c-8.43-38.996,11.115-78.642,47.239-95.777l11.764-5.558
		c31.215-14.82,48.443-48.907,41.774-82.809l0,0c-7.41-37.514,18.155-72.711,54.835-78.547
		C251.786,99.287,259.104,97.804,266.143,95.488z"/>
	<path opacity="0.17" enable-background="new    " d="M514.66,409.679c0.277-10.375,8.707-18.618,19.082-18.618
		c6.02,0,11.393,2.778,14.912,7.132c1.39-2.593,4.168-4.445,7.411-4.445c3.982,0,7.225,2.686,8.15,6.391
		c1.204-0.463,2.594-0.834,4.075-0.834c2.224,0,4.169,0.649,5.929,1.761c2.408-2.408,5.743-3.891,9.448-3.891
		c5.649,0,10.467,3.521,12.505,8.429c1.203-1.204,2.871-2.037,4.724-2.037c3.427,0,6.206,2.686,6.483,6.021h-92.72V409.679z"/>
	<g>
		<g>
			
				<line fill="none" stroke="#B3B3B3" stroke-width="1.0298" stroke-miterlimit="10" x1="515.402" y1="329.465" x2="553.194" y2="329.465"/>
			<g>
				<polygon fill="#B3B3B3" points="516.143,323.814 516.143,335.022 510.585,329.465 				"/>
			</g>
		</g>
	</g>
	<circle fill="none" stroke="#B3B3B3" stroke-width="1.0298" stroke-miterlimit="10" cx="589.874" cy="328.446" r="37.05"/>
	<g>
		
			<line fill="none" stroke="#1C76BC" stroke-width="1.0298" stroke-miterlimit="10" x1="39.485" y1="340.21" x2="88.392" y2="340.21"/>
		
			<line fill="none" stroke="#1C76BC" stroke-width="1.0298" stroke-miterlimit="10" x1="39.485" y1="370.776" x2="130.074" y2="370.776"/>
		<g>
			
				<line fill="none" stroke="#1C76BC" stroke-width="1.0298" stroke-miterlimit="10" x1="39.485" y1="360.588" x2="64.587" y2="360.588"/>
			
				<line fill="none" stroke="#1C76BC" stroke-width="1.0298" stroke-miterlimit="10" x1="72.645" y1="360.588" x2="166.106" y2="360.588"/>
		</g>
		<polyline fill="none" stroke="#1C76BC" stroke-width="1.0298" stroke-miterlimit="10" points="32.909,345.025 30.223,340.302 
			32.909,335.485 		"/>
		<g>
			
				<line fill="none" stroke="#1C76BC" stroke-width="1.0298" stroke-miterlimit="10" x1="39.485" y1="350.398" x2="109.233" y2="350.398"/>
			
				<line fill="none" stroke="#1C76BC" stroke-width="1.0298" stroke-miterlimit="10" x1="118.219" y1="350.398" x2="142.857" y2="350.398"/>
		</g>
		<polyline fill="none" stroke="#1C76BC" stroke-width="1.0298" stroke-miterlimit="10" points="140.634,365.867 143.32,370.591 
			140.634,375.314 		"/>
		
			<line fill="none" stroke="#1C76BC" stroke-width="1.0298" stroke-miterlimit="10" x1="138.225" y1="366.237" x2="135.075" y2="374.851"/>
	</g>
	<circle fill="none" stroke="#B3B3B3" stroke-width="1.0298" stroke-miterlimit="10" cx="754.195" cy="381.242" r="28.9"/>
	<path fill="none" stroke="#B3B3B3" stroke-width="1.0298" stroke-miterlimit="10" d="M759.196,156.16
		c12.876,5.927,21.768,18.896,21.768,33.994c0,20.656-16.766,37.421-37.421,37.421c-20.656,0-37.422-16.766-37.422-37.421
		s16.766-37.421,37.422-37.421c3.612,0,7.132,0.556,10.466,1.482"/>
	<circle fill="none" stroke="#B3B3B3" stroke-width="1.0298" stroke-miterlimit="10" cx="756.695" cy="155.14" r="2.779"/>
	<path fill="none" stroke="#B3B3B3" stroke-width="1.0298" stroke-miterlimit="10" d="M102.934,235.633
		c-11.115,6.021-18.711,17.877-18.711,31.4v0.093c0,19.637,16.025,35.661,35.662,35.661h0.093c19.637,0,35.661-16.024,35.661-35.661
		v-0.093c0-19.637-16.024-35.661-35.661-35.661h-0.093c-4.075,0-8.059,0.741-11.764,2.039"/>
	<circle fill="none" stroke="#B3B3B3" stroke-width="1.0298" stroke-miterlimit="10" cx="105.528" cy="234.337" r="2.779"/>
	<g>
		<g>
			<path fill="none" stroke="#B3B3B3" stroke-width="1.0298" stroke-miterlimit="10" d="M105.528,231.558v-72.62
				c0-14.172,11.485-25.658,25.658-25.658h522.138c13.615,0,24.731,11.022,24.731,24.731v27.418"/>
			<g>
				<polygon fill="#B3B3B3" points="682.593,184.874 673.609,184.874 678.055,189.32 				"/>
			</g>
		</g>
	</g>
	<g>
		<g>
			<g>
				<path fill="none" stroke="#B3B3B3" stroke-width="1.0298" stroke-miterlimit="10" d="M316.346,195.99h228.881
					c7.317,0,14.45,2.964,19.638,8.151L586.725,226"/>
				<g>
					<polygon fill="#B3B3B3" points="589.503,222.295 583.112,228.686 589.503,228.686 					"/>
				</g>
			</g>
		</g>
		<path fill="none" stroke="#B3B3B3" stroke-width="1.0298" stroke-miterlimit="10" d="M312.642,198.582
			c-3.613,12.783-13.431,23.62-27.047,28.066c-21.675,6.947-44.924-4.909-51.872-26.584c-6.946-21.674,4.91-44.923,26.584-51.871
			c21.675-6.947,44.924,4.909,51.871,26.584c1.946,6.114,2.409,12.319,1.575,18.247"/>
		<circle fill="none" stroke="#B3B3B3" stroke-width="1.0298" stroke-miterlimit="10" cx="313.29" cy="195.896" r="2.872"/>
	</g>
	<g>
		<path fill="none" stroke="#B3B3B3" stroke-width="1.0298" stroke-miterlimit="10" d="M323.943,382.818l94.294-0.187
			c6.576,0,11.948-5.372,11.948-11.948v-41.683"/>
		<g>
			<g>
				
					<line fill="none" stroke="#B3B3B3" stroke-width="1.0298" stroke-miterlimit="10" x1="207.325" y1="382.632" x2="237.707" y2="382.632"/>
				<g>
					<polygon fill="#B3B3B3" points="207.973,378.094 207.973,387.078 203.434,382.632 					"/>
				</g>
			</g>
		</g>
		<path fill="none" stroke="#B3B3B3" stroke-width="1.0298" stroke-miterlimit="10" d="M319.589,378.927
			c-2.131-20.655-19.637-36.772-40.756-36.772h-0.092c-22.601,0-40.941,18.434-40.941,40.941v0.093
			c0,22.601,18.433,40.94,40.941,40.94h0.092c21.397,0,39.089-16.58,40.849-37.606"/>
		<circle fill="none" stroke="#B3B3B3" stroke-width="1.0298" stroke-miterlimit="10" cx="319.959" cy="382.818" r="3.983"/>
	</g>
	<g id="builts_copy_4_">
		<g transform="matrix( 1, 0, 0, 1, 43.05,148.05) ">
			<g transform="matrix( 1, 0, 0, 1, 0,0) ">
				<g>
					<g id="builts_0_Layer0_0_FILL_4_">
						<path fill="#595A5A" d="M562.895,315.029h-12.319v21.026h12.319V315.029 M550.482,315.029h12.319v-10.375h-12.319V315.029
							 M562.895,287.888h-12.319v16.766h12.319V287.888 M562.895,254.821h-12.319v16.488h12.319V254.821 M550.482,271.309v16.766
							h12.319v-16.766H550.482 M562.895,254.821v-16.487h-12.319v16.487H562.895 M562.895,221.568h-12.319v16.766h12.319V221.568
							 M562.895,204.988h-12.319v16.488h12.319V204.988 M550.482,204.988h12.319v-16.766h-12.319V204.988 M550.482,154.969h12.319
							v-18.896h-9.17h-3.241v18.896 M562.895,171.735h-12.319v16.766h12.319V171.735 M550.482,171.735h12.319v-16.766h-12.319
							V171.735 M565.951,52.895h-12.319v83.086h9.17h3.242V52.895"/>
						<path fill="#C8C8C8" d="M593.554,336.055v-21.026h-5.465v21.026H593.554 M568.175,336.055h19.914v-21.026h-19.914V336.055
							 M585.311,52.895h-19.267v83.086h6.947v-8.985h-2.872v-17.043h9.819v-7.78h-2.687V80.22h10.93v-8.522h-2.964V52.895
							 M708.041,304.654v-16.766H562.895v16.766H708.041 M613.377,336.055v-21.026h-19.823v21.026H613.377 M618.842,315.029h-5.465
							v21.026h5.465V315.029 M652.094,315.029h-33.252v21.026h33.252V315.029 M677.196,315.029v21.026h5.465v-21.026H677.196
							 M657.374,336.055v-21.026h-5.465v21.026H657.374 M657.374,336.055h19.822v-21.026h-19.822V336.055 M702.483,336.055v-21.026
							h-19.822v21.026H702.483 M702.483,336.055h5.558v-21.026h-5.558V336.055 M708.041,315.029v-10.375H562.895v10.375v21.026
							h5.465v-21.026h19.915h5.466h19.821h5.465h33.254h5.465h19.637h5.465h19.822H708.041 M708.041,188.501v-16.766H562.895v16.766
							H708.041 M708.041,221.568v-16.487H562.895v16.487H708.041 M708.041,204.988v-16.766H562.895v16.766H708.041 M708.041,287.888
							v-16.765H562.895v16.765H708.041 M708.041,254.821v-16.487H562.895v16.487H708.041 M708.041,271.309v-16.488H562.895v16.488
							H708.041 M708.041,238.334v-16.766H562.895v16.766H708.041 M708.041,171.735v-16.766H562.895v16.766H708.041 M708.041,154.969
							v-18.896h-3.242h-6.854H572.991h-6.947h-3.242v18.896H708.041 M700.816,127.089v-17.044h-9.818H579.846h-9.818v17.044h2.871
							h124.954H700.816 M682.661,80.312V71.79h-94.479v8.522H682.661 M693.591,80.312h-10.93h-94.479h-10.93v21.953h2.687H691.09
							h2.687V80.312 M690.998,110.323v-7.781H579.846v7.781H690.998 M697.853,127.089v8.985h6.854V52.987H685.44v18.896h-2.871
							v8.522h10.93v21.953h-2.687v7.78h9.911v17.044h-2.871 M697.853,136.074v-8.985H572.991v8.985H697.853 M685.533,52.895V46.04
							H585.311v6.855V71.79h2.871h94.479h2.872V52.895"/>
					</g>
				</g>
				<g>
					
						<path id="builts_0_Layer0_0_1_STROKES_4_" fill="none" stroke="#000000" stroke-width="1.0298" stroke-linecap="round" stroke-linejoin="round" d="
						M565.951,52.895h19.267V46.04H685.44v6.855h19.266v83.086h3.242v18.896v16.766v16.766v16.857v16.488v16.766v16.487v16.487
						v16.766v16.766v10.467v21.026h-5.558h-19.822h-5.465h-19.822h-5.465h-33.253h-5.465h-19.822h-5.465h-19.916h-5.186h-12.319
						v-21.026v-10.374v-16.766v-16.766v-16.488v-16.486v-16.766v-16.581v-16.765v-16.766v-16.766v-18.896h3.241V52.987h12.319
						v83.087h6.947v-8.985h-2.779v-17.044h9.819v-7.78h-2.687V80.312h10.93V71.79h-2.964V52.895 M572.991,136.074h124.954v-8.985
						H572.991 M579.846,110.323h111.152v-7.781H579.846 M690.998,102.265h2.686V80.312h-10.93h-94.479 M588.182,71.79h94.479h2.872
						V52.895 M682.661,80.312V71.79 M697.853,127.089h2.871v-17.044h-9.818 M704.799,136.074h-6.854 M708.041,315.029h-5.558v21.026
						 M677.196,336.055v-21.026h-19.822v21.026 M702.483,315.029h-19.822v21.026 M682.661,315.029h-5.465 M568.175,336.055v-21.026
						h19.914h5.465h19.823h5.465h33.252h5.465 M613.377,315.029v21.026 M618.842,315.029v21.026 M652.094,315.029v21.026
						 M550.482,171.735h12.319v-16.766h-12.319 M553.724,136.074h9.171h3.241 M562.895,136.074v18.896h145.146 M550.482,204.988
						h12.319v-16.766h-12.319 M550.482,221.568h12.319v-16.487h145.146 M562.895,238.334v16.487h145.146 M562.895,271.309v16.766
						h145.146 M550.482,238.334h12.319v-16.766h145.146 M550.482,254.821h12.319v16.488h145.146 M550.482,271.309h12.319
						 M550.482,287.888h12.319v16.766h145.146 M562.895,171.735v16.766h145.146 M593.554,315.029v21.026 M588.182,315.029v21.026
						 M550.482,315.029h12.319v-10.375h-12.319 M562.895,315.029v21.026 M562.895,171.735h145.146 M562.895,238.334h145.146"/>
				</g>
			</g>
		</g>
	</g>
	<g id="builts_copy_2_">
		<g transform="matrix( 1, 0, 0, 1, 43.05,148.05) ">
			<g transform="matrix( 1, 0, 0, 1, 0,0) ">
				<g>
					<g id="builts_0_Layer0_0_FILL_2_">
						<path fill="#595A5A" d="M100.965,315.492H87.812v21.026h13.153V315.492 M100.965,308.452H87.812v7.04h13.153V308.452
							 M100.965,283.906H87.812v24.546h13.153V283.906 M87.719,283.906h13.152v-7.039H87.719V283.906 M100.965,276.867V252.32
							H87.812v24.547H100.965 M100.965,245.28H87.812v7.04h13.153V245.28 M100.965,220.919H87.812v24.36h13.153V220.919
							 M100.965,213.879H87.812v7.04h13.153V213.879 M100.965,189.335H87.812v24.545h13.153V189.335 M100.965,157.749H87.812v24.546
							h13.153V157.749 M87.719,182.109v7.318h13.152v-7.318H87.719 M100.965,157.749v-7.317H87.812v7.317H100.965 M100.965,126.163
							H87.812v24.546h13.153V126.163 M100.965,118.937H87.812v7.318h13.153V118.937 M87.719,118.937h13.152V94.392H87.719V118.937
							 M93.184,46.318v16.395h7.781h5.279V46.318H93.184 M100.965,87.537H87.812v7.04h13.153V87.537 M87.719,62.99v24.546h13.152
							V62.99h-7.78H87.719"/>
						<path fill="#C8C8C8" d="M106.151,336.333v-21.026h-5.187v21.026H106.151 M131.809,315.492v21.026h6.021v-21.026H131.809
							 M125.882,336.333v-21.026h-19.73v21.026H125.882 M125.882,315.492v21.026h6.02v-21.026H125.882 M210.171,315.492h-5.928
							v21.026h6.02v-21.026 M198.223,336.333v-21.026H137.83v21.026H198.223 M204.336,315.492h-6.021v21.026h6.021V315.492
							 M229.901,336.333v-21.026h-19.73v21.026H229.901 M229.901,315.492v21.026h5.187v-21.026H229.901 M235.088,308.452h-19.173
							H196.74h-19.173h-19.267H139.22h-19.174h-19.174v7.04h5.187h19.729h6.021h6.021h60.393h6.021h6.02h19.73h5.186
							L235.088,308.452 M158.301,283.906H139.22v24.546h19.173v-24.546 M196.74,283.906h-19.173v24.546h19.173V283.906
							 M177.567,189.335v24.545h19.173v-24.545H177.567 M215.915,283.906H196.74v24.546h19.174V283.906 M235.088,283.906h-19.173
							v24.546h19.173V283.906 M215.915,276.867h19.173V252.32h-19.173V276.867 M196.74,252.32v24.547h19.174V252.32H196.74
							 M215.915,245.28v-24.545H196.74v24.545H215.915 M215.915,245.28h19.173v-24.545h-19.173V245.28 M177.567,283.906h-19.267
							v24.546h19.174v-24.546 M177.567,252.32v24.547h19.173V252.32H177.567 M158.301,252.32v24.547h19.174V252.32H158.301
							 M177.567,245.28v-24.545h-19.267v24.545H177.567 M177.567,220.919v24.36h19.173v-24.545h-19.173 M177.567,189.335h-19.267
							v24.545h19.174v-24.545 M158.301,126.163v24.546h19.174v-24.546H158.301 M158.301,157.749v24.546h19.174v-24.546H158.301
							 M177.567,118.937V94.392h-19.267v24.545H177.567 M196.74,150.523v-24.546h-19.173v24.546H196.74 M215.915,126.163H196.74
							v24.546h19.174V126.163 M215.915,189.335H196.74v24.545h19.174V189.335 M235.088,189.335h-19.173v24.545h19.173V189.335
							 M235.088,157.749h-19.173v24.546h19.173V157.749 M196.74,182.109v-24.546h-19.173v24.546H196.74 M196.74,157.749v24.546
							h19.174v-24.546H196.74 M196.74,118.937V94.392h-19.173v24.545H196.74 M215.915,118.937V94.392H196.74v24.545H215.915
							 M235.088,94.392h-19.173v24.545h19.173V94.392 M235.088,126.163h-19.173v24.546h19.173V126.163 M139.313,189.335v24.545
							h19.173v-24.545H139.313 M120.138,283.906h-19.173v24.546h19.173V283.906 M120.138,189.335h-19.173v24.545h19.173V189.335
							 M139.313,283.906h-19.174v24.546h19.174V283.906 M139.313,252.32v24.547h19.173V252.32H139.313 M120.138,252.32v24.547
							h19.174V252.32H120.138 M139.313,245.28v-24.545h-19.174v24.545H139.313 M139.313,220.919v24.36h19.173v-24.545h-19.173
							 M100.965,245.28v7.04h19.173h19.174h19.173h19.174h19.173h19.174h19.173v-7.04h-19.173h-19.174H177.66h-19.267h-19.081
							h-19.174H100.965 M100.965,276.867v7.039h19.173h19.174h19.173h19.174h19.173h19.174h19.173v-7.039h-19.173h-19.174H177.66
							h-19.267h-19.081h-19.174H100.965 M100.965,252.32v24.547h19.173V252.32H100.965 M100.965,213.879v7.04h19.173h19.174h19.173
							h19.174h19.173h19.174h19.173v-7.04h-19.173h-19.174H177.66h-19.267h-19.081h-19.174H100.965 M100.965,220.919v24.36h19.173
							v-24.545h-19.173 M139.313,126.163v24.546h19.173v-24.546H139.313 M120.138,150.523v-24.546h-19.173v24.546H120.138
							 M139.313,126.163h-19.174v24.546h19.174V126.163 M120.138,126.163h19.174h19.173h19.174h19.173h19.174h19.173v-7.318h-19.173
							h-19.174H177.66h-19.267h-19.081h-19.174h-19.173v7.318H120.138 M139.313,189.335h-19.174v24.545h19.174V189.335
							 M120.138,189.335h19.174h19.173h19.174h19.173h19.174h19.173v-7.226h-19.173h-19.174H177.66h-19.267h-19.081h-19.174h-19.173
							v7.318h19.173 M120.138,157.749h19.174h19.173h19.174h19.173h19.174h19.173v-7.317h-19.173h-19.174H177.66h-19.267h-19.081
							h-19.174h-19.173v7.317H120.138 M139.313,157.749v24.546h19.173v-24.546H139.313 M120.138,182.109v-24.546h-19.173v24.546
							H120.138 M120.138,157.749v24.546h19.174v-24.546H120.138 M120.138,118.937V94.392h-19.173v24.545H120.138 M139.313,118.937
							V94.392h-19.174v24.545H139.313 M139.313,94.392v24.545h19.173V94.392H139.313 M139.313,62.99h-19.174v24.546h19.174V62.99
							 M100.965,62.99v24.546h19.173V62.99h-13.895H100.965 M215.915,62.99v24.546h19.173V62.99h-5.28H215.915 M196.74,62.99v24.546
							h19.174V62.99H196.74 M158.301,87.537V62.99H139.22v24.546H158.301 M177.567,62.99v24.546h19.173V62.99H177.567
							 M177.567,87.537h-19.267H139.22h-19.174h-19.174v7.04h19.174h19.174h19.173h19.174h19.173h19.174h19.173v-7.04h-19.173
							H196.74H177.567 M158.301,62.99h19.174h19.266h19.174h13.987V46.596H106.244V62.99h13.895h19.174H158.301 M177.567,62.99
							h-19.267v24.546h19.174V62.99"/>
					</g>
				</g>
				<g>
					
						<path id="builts_0_Layer0_0_1_STROKES_2_" fill="none" stroke="#000000" stroke-width="1.0298" stroke-linecap="round" stroke-linejoin="round" d="
						M158.301,62.99v24.546h19.174V62.99H158.301H139.22v24.546h19.173 M196.74,62.99v24.546h19.174V62.99H196.74h-19.173
						 M229.901,62.99h-13.987 M106.244,46.318h123.658v16.395h5.28v24.546v7.04v24.546v7.318v24.546v7.317v24.546v7.317v24.547v7.04
						v23.897v7.039v24.546v7.04v24.547v7.038v21.027h-5.188h-19.73h-6.02h-6.021h-60.485h-6.021h-6.021h-19.729h-5.188H87.627
						v-21.119v-7.04v-24.546v-7.039V252.32v-7.04v-24.545v-7.04v-24.547v-7.317v-24.546v-7.317v-24.546v-7.318V94.207v-7.04V62.805
						h5.278V46.411h13.153v16.395h13.895h19.173 M215.915,87.537h19.173 M177.567,87.537h19.173 M87.719,87.537h13.152V62.99h-7.78
						 M120.138,62.99v24.546h19.174 M100.965,87.537h19.173 M106.244,62.99h-5.279 M139.313,94.392v24.545h19.173V94.392H139.313
						h-19.174v24.545h19.174 M120.138,157.749v24.546h19.174v-24.546H120.138h-19.173v24.546h19.173 M100.965,189.335h19.173h19.174
						h19.173h19.174h19.173h19.174h19.173 M100.965,126.163h19.173h19.174h19.173h19.174h19.173h19.174h19.173 M120.138,126.163
						v24.546h19.174v-24.546 M87.719,118.937h13.152V94.392H87.719 M87.719,126.163h13.152v-7.318h19.174 M100.965,150.523v7.317
						H87.812 M100.965,182.109v7.318v24.545h19.173v-24.545 M87.719,150.523h13.152v-24.546 M87.719,189.335h13.152 M87.719,182.109
						h13.152 M87.719,213.879h13.152v7.04h19.174h19.174h19.173h19.174h19.173h19.174h19.173 M87.719,220.919h13.152v24.36h19.174
						v-24.545 M87.719,245.28h13.152v7.04h19.174h19.174h19.173h19.174h19.173h19.174h19.173 M100.965,252.32v24.547h19.173V252.32
						 M87.719,252.32h13.152 M87.719,283.906h13.152v-7.039H87.719 M139.313,220.919v24.36h19.173v-24.545 M139.313,252.32v24.547
						h19.173V252.32 M100.965,283.906h19.173h19.174h19.173h19.174h19.173h19.174h19.173 M120.138,213.879h19.174v-24.545
						 M120.138,276.867h19.174 M120.138,245.28h19.174 M100.965,94.392h19.173 M100.965,150.523h19.173 M158.301,94.392h19.174
						h19.266h19.174h19.173 M215.915,94.392v24.545h19.173 M196.74,94.392v24.545h19.174 M196.74,157.749v24.546h19.174v-24.546
						H196.74h-19.173v24.546h19.173 M215.915,126.163v24.546h19.173 M215.915,157.749h19.173 M215.915,182.109h19.173
						 M196.74,126.163v24.546h19.174 M177.567,94.392v24.545h19.173 M177.567,157.749h-19.267v24.546h19.174 M158.301,126.163
						v24.546h19.174v-24.546 M158.301,118.937h19.174 M177.567,220.919v24.36h19.173v-24.545 M177.567,252.32v24.547h19.173V252.32
						 M158.301,276.867h19.174 M158.301,245.28h19.174 M158.301,189.335v24.545h19.174v-24.545 M215.915,220.919v24.36h19.173
						 M215.915,189.335v24.545h19.173 M215.915,252.32v24.547h19.173 M196.74,245.28h19.174 M196.74,276.867h19.174 M196.74,189.335
						v24.545h19.174 M177.567,213.879h19.173 M177.567,150.523h19.173 M139.313,157.749h19.173 M139.313,182.109h19.173
						 M139.313,213.879h19.173 M139.313,150.523h19.173 M100.965,87.537v7.04 M215.915,283.906v24.546h19.173 M235.088,315.492
						h-5.187v21.026 M100.965,315.492h5.187h19.73h6.02h6.021h60.393h6.021h6.021h19.729 M198.223,315.492v21.026 M210.171,315.492
						v21.026 M204.336,315.492v21.026 M196.74,283.906v24.546h19.174 M158.301,283.906v24.546h19.174v-24.546 M177.567,308.452
						h19.173 M125.882,315.492v21.026 M131.809,315.492v21.026 M137.83,315.492v21.026 M106.151,315.492v21.026 M120.138,283.906
						v24.546h19.174v-24.546 M87.719,308.452h13.152v-24.546 M87.719,315.492h13.152v-7.04h19.174 M100.965,315.492v21.026
						 M139.313,308.452h19.173"/>
				</g>
			</g>
		</g>
	</g>
	<path opacity="0.17" enable-background="new    " d="M349.507,30.649c0.371-15.283,12.876-27.603,28.251-27.603
		c8.892,0,16.858,4.168,22.045,10.652c2.13-3.89,6.206-6.576,10.93-6.576c5.836,0,10.745,4.075,12.042,9.448
		c1.852-0.741,3.89-1.205,6.021-1.205c3.241,0,6.206,0.926,8.706,2.594c3.612-3.612,8.522-5.835,14.079-5.835
		c8.43,0,15.562,5.187,18.526,12.505c1.76-1.854,4.261-2.965,6.947-2.965c5.095,0,9.262,3.891,9.633,8.892H349.507V30.649z"/>
	<path opacity="0.17" enable-background="new    " d="M642.578,117.905c0.277-12.783,10.745-23.064,23.713-23.064
		c7.502,0,14.172,3.427,18.525,8.892c1.76-3.242,5.187-5.465,9.17-5.465c4.909,0,8.984,3.334,10.096,7.966
		c1.575-0.649,3.242-1.02,5.003-1.02c2.686,0,5.187,0.833,7.317,2.224c3.056-2.964,7.132-4.817,11.763-4.817
		c7.04,0,13.061,4.354,15.47,10.467c1.481-1.575,3.52-2.5,5.835-2.5c4.261,0,7.688,3.333,8.059,7.502h-114.95V117.905z"/>
	<path opacity="0.17" enable-background="new    " d="M394.154,175.333c0.278-11.115,9.355-20.099,20.563-20.099
		c6.484,0,12.32,3.056,16.117,7.687c1.482-2.871,4.539-4.724,7.967-4.724c4.261,0,7.78,2.964,8.799,6.855
		c1.39-0.556,2.779-0.834,4.354-0.834c2.315,0,4.539,0.741,6.392,1.945c2.594-2.594,6.206-4.261,10.188-4.261
		c6.113,0,11.301,3.797,13.431,9.17c1.297-1.389,3.058-2.223,5.095-2.223c3.705,0,6.763,2.871,6.947,6.483H394.154L394.154,175.333z
		"/>
	<path fill="#FF4D00" d="M311.438,383.188C311.438,383.095,311.438,383.095,311.438,383.188c0-18.062-14.636-32.698-32.605-32.698
		h-0.092c-17.97,0-32.605,14.636-32.605,32.605v0.093c0,17.969,14.635,32.604,32.605,32.604h0.092
		C296.802,415.793,311.438,401.157,311.438,383.188z"/>
	<path fill="#C2D500" d="M149.155,267.033L149.155,267.033c0-16.117-13.152-29.27-29.177-29.27h-0.093
		c-16.117,0-29.177,13.153-29.177,29.177v0.093c0,16.118,13.152,29.177,29.177,29.177h0.093
		C136.095,296.303,149.155,283.151,149.155,267.033z"/>
	<g>
		<g>
			
				<path fill="none" stroke="#0B98CC" stroke-width="1.0298" stroke-linecap="round" stroke-linejoin="round" stroke-miterlimit="10" d="
				M136.095,274.073l1.481-0.833l-2.038-3.612l-1.482,0.833c-0.74-0.647-1.574-1.204-2.594-1.481v-1.76h-4.167v1.76
				c-0.926,0.278-1.853,0.834-2.594,1.481l-1.482-0.833l-2.037,3.612l1.482,0.833c-0.186,1.019-0.186,1.946,0,2.965l-1.482,0.833
				l2.037,3.613l1.482-0.834c0.741,0.647,1.575,1.204,2.594,1.481v1.76h4.167v-1.76c0.926-0.277,1.854-0.834,2.594-1.481
				l1.482,0.834l2.038-3.613l-1.481-0.833C136.373,276.019,136.373,275.092,136.095,274.073z"/>
			
				<circle fill="none" stroke="#0B98CC" stroke-width="1.0298" stroke-linecap="round" stroke-linejoin="round" stroke-miterlimit="10" cx="129.426" cy="275.555" r="2.779"/>
		</g>
		
			<polyline fill="none" stroke="#0B98CC" stroke-width="1.0298" stroke-linecap="round" stroke-linejoin="round" stroke-miterlimit="10" points="
			119.145,279.724 106.733,279.724 106.733,252.214 132.853,252.214 132.853,264.626 		"/>
		<g>
			
				<polygon fill="none" stroke="#0B98CC" stroke-width="1.0298" stroke-linecap="round" stroke-linejoin="round" stroke-miterlimit="10" points="
				112.939,252.214 110.159,252.214 110.159,257.03 112.939,257.03 			"/>
		</g>
		<g>
			
				<polygon fill="none" stroke="#0B98CC" stroke-width="1.0298" stroke-linecap="round" stroke-linejoin="round" stroke-miterlimit="10" points="
				118.404,252.214 115.718,252.214 115.718,257.03 118.404,257.03 			"/>
		</g>
		<g>
			
				<polygon fill="none" stroke="#0B98CC" stroke-width="1.0298" stroke-linecap="round" stroke-linejoin="round" stroke-miterlimit="10" points="
				129.426,252.214 126.647,252.214 126.647,257.03 129.426,257.03 			"/>
		</g>
		<g>
			
				<polygon fill="none" stroke="#0B98CC" stroke-width="1.0298" stroke-linecap="round" stroke-linejoin="round" stroke-miterlimit="10" points="
				123.961,252.214 121.182,252.214 121.182,257.03 123.961,257.03 			"/>
		</g>
	</g>
	<circle fill="#FF4D00" cx="743.448" cy="190.246" r="31.03"/>
	<g>
		<g>
			
				<rect x="749.193" y="194.877" fill="none" stroke="#FFFFFF" stroke-width="1.0298" stroke-linecap="round" stroke-linejoin="round" stroke-miterlimit="10" width="15.932" height="12.783"/>
			
				<line fill="none" stroke="#FFFFFF" stroke-width="1.0298" stroke-linecap="round" stroke-linejoin="round" stroke-miterlimit="10" x1="757.25" y1="203.677" x2="757.25" y2="200.434"/>
			
				<path fill="none" stroke="#FFFFFF" stroke-width="1.0298" stroke-linecap="round" stroke-linejoin="round" stroke-miterlimit="10" d="
				M752.435,194.877v-1.575c0-2.687,2.13-4.816,4.815-4.816c2.687,0,4.816,2.13,4.816,4.816v1.575"/>
			
				<circle fill="none" stroke="#FFFFFF" stroke-width="1.0298" stroke-linecap="round" stroke-linejoin="round" stroke-miterlimit="10" cx="757.25" cy="199.601" r="0.833"/>
		</g>
		<g>
			
				<line fill="none" stroke="#FFFFFF" stroke-width="1.0298" stroke-linecap="round" stroke-linejoin="round" stroke-miterlimit="10" x1="733.26" y1="180.52" x2="740.485" y2="180.52"/>
			
				<line fill="none" stroke="#FFFFFF" stroke-width="1.0298" stroke-linecap="round" stroke-linejoin="round" stroke-miterlimit="10" x1="733.26" y1="185.244" x2="746.042" y2="185.244"/>
			
				<line fill="none" stroke="#FFFFFF" stroke-width="1.0298" stroke-linecap="round" stroke-linejoin="round" stroke-miterlimit="10" x1="733.26" y1="190.061" x2="742.801" y2="190.061"/>
			
				<line fill="none" stroke="#FFFFFF" stroke-width="1.0298" stroke-linecap="round" stroke-linejoin="round" stroke-miterlimit="10" x1="733.26" y1="194.877" x2="741.226" y2="194.877"/>
			<g>
				
					<polyline fill="none" stroke="#FFFFFF" stroke-width="1.0298" stroke-linecap="round" stroke-linejoin="round" stroke-miterlimit="10" points="
					744.469,204.418 728.444,204.418 728.444,170.887 746.042,170.887 754.008,178.853 754.008,185.244 				"/>
				
					<polyline fill="none" stroke="#FFFFFF" stroke-width="1.0298" stroke-linecap="round" stroke-linejoin="round" stroke-miterlimit="10" points="
					746.042,170.887 746.042,178.853 754.008,178.853 				"/>
			</g>
		</g>
	</g>
	<g>
		<circle fill="#3986C6" cx="754.195" cy="381.243" r="22.879"/>
		<g>
			<g>
				
					<polygon fill="none" stroke="#FFFFFF" stroke-width="1.0298" stroke-linecap="round" stroke-linejoin="round" stroke-miterlimit="10" points="
					763.919,395.044 759.474,396.342 760.771,391.895 770.312,382.354 773.46,385.504 				"/>
				
					<line fill="none" stroke="#FFFFFF" stroke-width="1.0298" stroke-linecap="round" stroke-linejoin="round" stroke-miterlimit="10" x1="767.718" y1="384.948" x2="770.866" y2="388.097"/>
				
					<line fill="none" stroke="#FFFFFF" stroke-width="1.0298" stroke-linecap="round" stroke-linejoin="round" stroke-miterlimit="10" x1="760.771" y1="391.895" x2="763.919" y2="395.044"/>
			</g>
			
				<polyline fill="none" stroke="#FFFFFF" stroke-width="1.0298" stroke-linecap="round" stroke-linejoin="round" stroke-miterlimit="10" points="
				755.028,393.84 744.282,393.84 744.282,367.164 758.177,367.164 764.568,373.462 764.568,383.003 			"/>
			
				<polyline fill="none" stroke="#FFFFFF" stroke-width="1.0298" stroke-linecap="round" stroke-linejoin="round" stroke-miterlimit="10" points="
				758.177,367.164 758.177,373.462 764.568,373.462 			"/>
			
				<rect x="751.878" y="376.055" fill="none" stroke="#FFFFFF" stroke-width="1.0298" stroke-linecap="round" stroke-linejoin="round" stroke-miterlimit="10" width="3.798" height="3.798"/>
			
				<rect x="748.081" y="382.354" fill="none" stroke="#FFFFFF" stroke-width="1.0298" stroke-linecap="round" stroke-linejoin="round" stroke-miterlimit="10" width="3.797" height="3.797"/>
			
				<rect x="755.676" y="382.354" fill="none" stroke="#FFFFFF" stroke-width="1.0298" stroke-linecap="round" stroke-linejoin="round" stroke-miterlimit="10" width="3.798" height="3.797"/>
		</g>
	</g>
	<path fill="#C2D500" d="M619.978,328.539C619.978,328.539,619.978,328.445,619.978,328.539c0-16.674-13.524-30.197-30.104-30.197
		h-0.093c-16.58,0-30.104,13.523-30.104,30.104v0.094c0,16.579,13.523,30.103,30.104,30.103h0.093
		C606.453,358.641,619.978,345.118,619.978,328.539z"/>
	<g>
		<g>
			
				<polyline fill="none" stroke="#0B98CC" stroke-width="1.0298" stroke-linecap="round" stroke-linejoin="round" stroke-miterlimit="10" points="
				600.247,333.17 596.358,337.152 600.247,341.043 			"/>
			
				<circle fill="none" stroke="#0B98CC" stroke-width="1.0298" stroke-linecap="round" stroke-linejoin="round" stroke-miterlimit="10" cx="601.081" cy="337.153" r="9.448"/>
			
				<line fill="none" stroke="#0B98CC" stroke-width="1.0298" stroke-linecap="round" stroke-linejoin="round" stroke-miterlimit="10" x1="605.806" y1="337.152" x2="596.358" y2="337.152"/>
		</g>
		<g>
			<g>
				
					<polyline fill="none" stroke="#0B98CC" stroke-width="1.0298" stroke-linecap="round" stroke-linejoin="round" stroke-miterlimit="10" points="
					589.967,343.451 574.22,343.451 574.22,310.291 591.541,310.291 599.507,318.164 599.507,324.463 				"/>
				
					<polyline fill="none" stroke="#0B98CC" stroke-width="1.0298" stroke-linecap="round" stroke-linejoin="round" stroke-miterlimit="10" points="
					591.541,310.291 591.541,318.164 599.507,318.164 				"/>
			</g>
			<g>
				
					<rect x="578.944" y="329.186" fill="none" stroke="#0B98CC" stroke-width="1.0298" stroke-linecap="round" stroke-linejoin="round" stroke-miterlimit="10" width="3.149" height="6.299"/>
				
					<rect x="585.243" y="326.037" fill="none" stroke="#0B98CC" stroke-width="1.0298" stroke-linecap="round" stroke-linejoin="round" stroke-miterlimit="10" width="3.148" height="9.448"/>
				
					<rect x="582.093" y="321.312" fill="none" stroke="#0B98CC" stroke-width="1.0298" stroke-linecap="round" stroke-linejoin="round" stroke-miterlimit="10" width="3.15" height="14.173"/>
				
					<line fill="none" stroke="#0B98CC" stroke-width="1.0298" stroke-linecap="round" stroke-linejoin="round" stroke-miterlimit="10" x1="577.369" y1="335.577" x2="588.392" y2="335.577"/>
			</g>
		</g>
	</g>
	<g>
		<g>
			<polygon fill="none" stroke="#FFFFFF" stroke-width="1.0298" stroke-miterlimit="10" points="294.765,404.028 262.716,404.028 
				262.716,360.679 283.464,360.679 294.765,371.979 			"/>
			<polyline fill="none" stroke="#FFFFFF" stroke-width="1.0298" stroke-miterlimit="10" points="283.464,360.679 283.464,371.979 
				294.765,371.979 			"/>
			
				<line fill="none" stroke="#FFFFFF" stroke-width="1.0298" stroke-miterlimit="10" x1="269.385" y1="373.926" x2="278.74" y2="373.926"/>
			
				<line fill="none" stroke="#FFFFFF" stroke-width="1.0298" stroke-miterlimit="10" x1="269.385" y1="379.576" x2="286.336" y2="379.576"/>
			
				<line fill="none" stroke="#FFFFFF" stroke-width="1.0298" stroke-miterlimit="10" x1="269.385" y1="385.225" x2="273.091" y2="385.225"/>
			
				<line fill="none" stroke="#FFFFFF" stroke-width="1.0298" stroke-miterlimit="10" x1="269.385" y1="390.877" x2="273.091" y2="390.877"/>
			
				<line fill="none" stroke="#FFFFFF" stroke-width="1.0298" stroke-miterlimit="10" x1="269.385" y1="396.526" x2="273.091" y2="396.526"/>
		</g>
		<circle fill="none" stroke="#FFFFFF" stroke-width="1.0298" stroke-miterlimit="10" cx="283.464" cy="390.876" r="5.65"/>
		<polyline fill="none" stroke="#FFFFFF" stroke-width="1.0298" stroke-miterlimit="10" points="283.464,385.225 283.464,390.877 
			279.297,394.581 		"/>
	</g>
	<path fill="#FEFEFE" d="M531.612,89.839C531.612,89.839,531.612,89.746,531.612,89.839c0-12.505-10.188-22.694-22.693-22.694
		c0,0,0,0-0.093,0c-12.504,0-22.693,10.189-22.693,22.694c0,0,0,0,0,0.092c0,12.504,10.189,22.694,22.693,22.694c0,0,0,0,0.093,0
		C521.423,112.44,531.612,102.343,531.612,89.839z"/>
	<g>
		<g>
			<polygon fill="none" stroke="#0E97CC" stroke-width="1.0298" stroke-miterlimit="10" points="517.903,102.899 513.272,104.288 
				514.569,99.657 524.387,89.839 527.721,93.081 			"/>
			
				<line fill="none" stroke="#0E97CC" stroke-width="1.0298" stroke-miterlimit="10" x1="521.793" y1="92.432" x2="525.035" y2="95.767"/>
			
				<line fill="none" stroke="#0E97CC" stroke-width="1.0298" stroke-miterlimit="10" x1="514.569" y1="99.657" x2="517.903" y2="102.899"/>
		</g>
		
			<line fill="none" stroke="#0E97CC" stroke-width="1.0298" stroke-miterlimit="10" x1="508.734" y1="87.245" x2="513.919" y2="87.245"/>
		
			<line fill="none" stroke="#0E97CC" stroke-width="1.0298" stroke-miterlimit="10" x1="508.734" y1="92.432" x2="513.919" y2="92.432"/>
		<polyline fill="none" stroke="#0E97CC" stroke-width="1.0298" stroke-miterlimit="10" points="506.695,84.651 503.453,87.893 
			501.507,85.948 		"/>
		<polyline fill="none" stroke="#0E97CC" stroke-width="1.0298" stroke-miterlimit="10" points="506.695,89.839 503.453,93.173 
			501.507,91.135 		"/>
		<g>
			<polyline fill="none" stroke="#0E97CC" stroke-width="1.0298" stroke-miterlimit="10" points="508.734,101.602 497.617,101.602 
				497.617,74.184 511.975,74.184 518.552,80.669 518.552,90.487 			"/>
			<polyline fill="none" stroke="#0E97CC" stroke-width="1.0298" stroke-miterlimit="10" points="511.975,74.184 511.975,80.669 
				518.552,80.669 			"/>
		</g>
	</g>
	<path opacity="0.17" enable-background="new    " d="M9.289,216.738c0.277-10.375,8.707-18.618,19.082-18.618
		c6.02,0,11.393,2.779,14.912,7.132c1.39-2.594,4.168-4.446,7.411-4.446c3.982,0,7.225,2.687,8.151,6.391
		c1.204-0.462,2.594-0.833,4.075-0.833c2.224,0,4.169,0.648,5.929,1.76c2.409-2.409,5.742-3.89,9.448-3.89
		c5.65,0,10.466,3.52,12.504,8.428c1.204-1.204,2.872-2.038,4.724-2.038c3.428,0,6.206,2.687,6.484,6.021H9.289V216.738z"/>
	<path fill="#FFFFFF" d="M67.458,439.505c0.464-18.896,15.84-33.994,34.829-33.994c11.022,0,20.841,5.095,27.232,13.062
		c2.594-4.817,7.688-8.059,13.523-8.059c7.226,0,13.246,5.001,14.913,11.671c2.316-0.927,4.725-1.482,7.411-1.482
		c3.982,0,7.688,1.204,10.745,3.242c4.446-4.446,10.56-7.133,17.321-7.133c10.375,0,19.174,6.392,22.787,15.469
		c2.13-2.315,5.187-3.705,8.614-3.705c6.206,0,11.393,4.816,11.764,11.022H67.458V439.505z"/>
	<g>
		<path fill="none" stroke="#B3B3B3" stroke-width="1.0298" stroke-miterlimit="10" d="M537.539,89.561h61.227
			c9.634,0,17.321,7.781,17.321,17.321v93.646"/>
		<g>
			<g>
				<path fill="none" stroke="#B3B3B3" stroke-width="1.0298" stroke-miterlimit="10" d="M477.61,89.561
					c-10.281,0-18.711,8.336-18.711,18.71v130.882"/>
				<g>
					<polygon fill="#B3B3B3" points="463.439,238.505 454.453,238.505 458.899,243.043 					"/>
				</g>
			</g>
		</g>
		<path fill="none" stroke="#B3B3B3" stroke-width="1.0298" stroke-miterlimit="10" d="M480.389,92.34
			c1.297,14.542,13.616,26.12,28.529,26.12h0.093c15.747,0,28.621-12.875,28.621-28.621v-0.093
			c0-15.747-12.874-28.622-28.621-28.622h-0.093c-14.729,0-26.955,11.3-28.437,25.658"/>
		<path opacity="0.4" fill="none" stroke="#B3B3B3" stroke-width="1.0298" stroke-miterlimit="10" enable-background="new    " d="
			M480.297,89.746"/>
		<circle fill="none" stroke="#B3B3B3" stroke-width="1.0298" stroke-miterlimit="10" cx="480.389" cy="89.561" r="2.779"/>
	</g>
	<g>
		<g>
			<path fill="none" stroke="#B3B3B3" stroke-width="1.0298" stroke-miterlimit="10" d="M756.695,152.361V56.586
				c0-7.503-6.112-13.617-13.616-13.617h-515.19c-7.132,0-12.875,5.743-12.875,12.875v129.771"/>
			<g>
				<polygon fill="#B3B3B3" points="219.552,184.966 210.567,184.966 215.013,189.505 				"/>
			</g>
		</g>
	</g>
	<path fill="#FFFFFF" d="M321.997,277.871c-0.278-11.023-9.263-19.823-20.285-19.823c-6.391,0-12.135,2.965-15.839,7.596
		c-1.482-2.778-4.446-4.724-7.874-4.724c-4.167,0-7.688,2.872-8.707,6.761c-1.296-0.555-2.779-0.833-4.26-0.833
		c-2.316,0-4.446,0.648-6.298,1.853c-2.594-2.594-6.114-4.167-10.097-4.167c-6.021,0-11.208,3.705-13.246,8.984
		c-1.296-1.297-3.057-2.131-5.001-2.131c-3.612,0-6.577,2.779-6.854,6.392h98.462V277.871z"/>
	<circle fill="none" stroke="#7BCAEF" stroke-width="1.0298" stroke-miterlimit="10" cx="51.248" cy="133.373" r="1.945"/>
	<circle fill="none" stroke="#7BCAEF" stroke-width="1.0298" stroke-miterlimit="10" cx="152.49" cy="511.291" r="1.945"/>
	<circle fill="none" stroke="#7BCAEF" stroke-width="1.0298" stroke-miterlimit="10" cx="309.029" cy="65.94" r="1.945"/>
	<circle fill="none" stroke="#FFFFFF" stroke-width="1.0298" stroke-miterlimit="10" cx="201.582" cy="352.806" r="1.945"/>
	<circle fill="none" stroke="#FFFFFF" stroke-width="1.0298" stroke-miterlimit="10" cx="544.208" cy="278.519" r="1.945"/>
	<circle fill="none" stroke="#FFFFFF" stroke-width="1.0298" stroke-miterlimit="10" cx="341.541" cy="327.704" r="1.946"/>
	<circle fill="none" stroke="#FFFFFF" stroke-width="1.0298" stroke-miterlimit="10" cx="428.425" cy="225.815" r="1.945"/>
	<circle fill="none" stroke="#FFFFFF" stroke-width="1.0298" stroke-miterlimit="10" cx="596.173" cy="67.608" r="1.945"/>
	<circle fill="none" stroke="#FFFFFF" stroke-width="1.0298" stroke-miterlimit="10" cx="275.498" cy="112.718" r="1.945"/>
	<circle fill="none" stroke="#FFFFFF" stroke-width="1.0298" stroke-miterlimit="10" cx="719.829" cy="460.531" r="1.945"/>
	<circle fill="#FF4D00" cx="44.95" cy="413.014" r="2.872"/>
	<circle fill="#FFFFFF" cx="201.304" cy="198.675" r="1.297"/>
	<circle fill="#FF4D00" cx="770.866" cy="416.164" r="1.297"/>
	<circle fill="#FF4D00" cx="360.622" cy="520.276" r="1.297"/>
	<circle fill="#FFFFFF" cx="493.171" cy="454.603" r="1.945"/>
	<circle fill="#FFFFFF" cx="321.349" cy="305.937" r="1.945"/>
	<circle fill="#C2D500" cx="251.23" cy="515.922" r="1.945"/>
	<g>
		<path fill="#7BCAEF" d="M157.862,168.757h-5.835c-0.463,0-0.833-0.371-0.833-0.833c0-0.464,0.37-0.833,0.833-0.833h5.835
			c0.464,0,0.834,0.37,0.834,0.833C158.696,168.479,158.326,168.757,157.862,168.757z"/>
		<path fill="#7BCAEF" d="M154.991,171.72c-0.463,0-0.833-0.37-0.833-0.833v-5.835c0-0.464,0.37-0.834,0.833-0.834
			c0.462,0,0.833,0.37,0.833,0.834v5.835C155.732,171.35,155.361,171.72,154.991,171.72z"/>
	</g>
	<g>
		<path fill="#7BCAEF" d="M328.573,428.575h-5.836c-0.462,0-0.833-0.37-0.833-0.834c0-0.462,0.371-0.833,0.833-0.833h5.836
			c0.463,0,0.834,0.371,0.834,0.833C329.407,428.205,329.036,428.575,328.573,428.575z"/>
		<path fill="#7BCAEF" d="M325.702,431.446c-0.464,0-0.834-0.37-0.834-0.834v-5.835c0-0.463,0.37-0.833,0.834-0.833
			c0.462,0,0.833,0.37,0.833,0.833v5.835C326.443,431.169,326.165,431.446,325.702,431.446z"/>
	</g>
	<g>
		<path fill="#7BCAEF" d="M780.5,117.997h-5.835c-0.464,0-0.834-0.371-0.834-0.833c0-0.464,0.37-0.834,0.834-0.834h5.835
			c0.463,0,0.833,0.37,0.833,0.834C781.333,117.626,780.963,117.997,780.5,117.997z"/>
		<path fill="#7BCAEF" d="M777.629,120.961c-0.464,0-0.834-0.37-0.834-0.834v-5.835c0-0.463,0.37-0.833,0.834-0.833
			c0.462,0,0.833,0.37,0.833,0.833v5.835C778.369,120.591,777.998,120.961,777.629,120.961z"/>
	</g>
	<g>
		<path fill="#7BCAEF" d="M571.163,472.387h-5.836c-0.462,0-0.833-0.37-0.833-0.834c0-0.463,0.371-0.834,0.833-0.834h5.836
			c0.463,0,0.834,0.371,0.834,0.834C571.997,472.11,571.626,472.387,571.163,472.387z"/>
		<path fill="#7BCAEF" d="M568.291,475.352c-0.463,0-0.833-0.371-0.833-0.834v-5.836c0-0.463,0.37-0.834,0.833-0.834
			c0.464,0,0.834,0.371,0.834,0.834v5.836C569.125,474.981,568.755,475.352,568.291,475.352z"/>
	</g>
	<g>
		<path fill="#7BCAEF" d="M336.354,212.754h-5.836c-0.462,0-0.833-0.37-0.833-0.834c0-0.462,0.371-0.833,0.833-0.833h5.836
			c0.463,0,0.834,0.371,0.834,0.833C337.188,212.384,336.817,212.754,336.354,212.754z"/>
		<path fill="#7BCAEF" d="M333.482,215.626c-0.462,0-0.833-0.371-0.833-0.833v-5.836c0-0.463,0.371-0.834,0.833-0.834
			c0.464,0,0.834,0.371,0.834,0.834v5.836C334.223,215.348,333.853,215.626,333.482,215.626z"/>
	</g>
	<g>
		<path fill="#7BCAEF" d="M48.285,297.416h-5.836c-0.463,0-0.834-0.371-0.834-0.834s0.371-0.833,0.834-0.833h5.836
			c0.462,0,0.833,0.37,0.833,0.833S48.655,297.416,48.285,297.416z"/>
		<path fill="#7BCAEF" d="M45.321,300.287c-0.463,0-0.833-0.371-0.833-0.834v-5.836c0-0.462,0.37-0.833,0.833-0.833
			c0.462,0,0.833,0.371,0.833,0.833v5.836C46.155,300.009,45.783,300.287,45.321,300.287z"/>
	</g>
	<g>
		<path fill="#7BCAEF" d="M435.65,107.16h-5.835c-0.464,0-0.834-0.371-0.834-0.833c0-0.463,0.37-0.833,0.834-0.833h5.835
			c0.464,0,0.834,0.37,0.834,0.833C436.484,106.789,436.021,107.16,435.65,107.16z"/>
		<path fill="#7BCAEF" d="M432.686,110.031c-0.462,0-0.833-0.371-0.833-0.834v-5.836c0-0.462,0.371-0.833,0.833-0.833
			c0.463,0,0.834,0.371,0.834,0.833v5.836C433.52,109.753,433.149,110.031,432.686,110.031z"/>
	</g>
	<path fill="#C2C2C2" d="M400.73,403.566h-4.075l-2.038-3.521l2.038-3.52h4.075l2.038,3.52L400.73,403.566z M397.21,402.639h2.964
		l1.482-2.501l-1.482-2.501h-2.964l-1.482,2.501L397.21,402.639z"/>
	<path fill="#C2C2C2" d="M350.712,158.475h-4.076l-2.038-3.52l2.038-3.52h4.076l2.037,3.52L350.712,158.475z M347.284,157.549h2.964
		l1.482-2.5l-1.482-2.501h-2.964l-1.482,2.501L347.284,157.549z"/>
	<path fill="#C2C2C2" d="M81.26,396.342h-5.002l-2.5-4.354l2.5-4.354h5.002l2.501,4.354L81.26,396.342z M76.999,395.136h3.612
		l1.76-3.149l-1.76-3.149h-3.612l-1.76,3.149L76.999,395.136z"/>
	<path fill="#C2C2C2" d="M799.026,352.621h-5.002l-2.501-4.354l2.501-4.354h5.002l2.501,4.354L799.026,352.621z M794.672,351.51
		h3.612l1.76-3.149l-1.76-3.149h-3.612l-1.76,3.149L794.672,351.51z"/>
	<path fill="#C2C2C2" d="M483.538,542.506h-5.002l-2.501-4.354l2.501-4.354h5.002l2.501,4.354L483.538,542.506z M479.277,541.302
		h3.612l1.761-3.15l-1.761-3.148h-3.612l-1.76,3.148L479.277,541.302z"/>
	<circle fill="#C2D500" cx="570.515" cy="162.088" r="4.168"/>
	<circle fill="#FEFEFE" cx="528.648" cy="242.117" r="4.168"/>
	<g>
		<path id="XMLID_22_" fill="#7BCAEF" stroke="#000000" stroke-width="1.0298" stroke-miterlimit="10" d="M429.536,249.156
			L429.536,249.156c-5.742-8.059-15.098-12.875-25.102-12.875h-31.215c-2.501,0-4.446,2.037-4.446,4.446v113.19
			c0.278,0.093,4.631,1.019,4.91,1.111l7.966-23.619v-56.411v-5.186v-9.818c0-6.021,4.816-10.838,10.837-10.838H429.536z"/>
		<path id="XMLID_19_" fill="#FEFEFE" stroke="#000000" stroke-width="1.0298" stroke-miterlimit="10" d="M379.796,253.602v24.177
			c0,5.001,6.854,6.299,8.707,1.667l0.556-1.389c0.649-1.76,2.316-2.871,4.168-2.871h100.871c2.501,0,4.446-2.039,4.446-4.446
			v-17.137c0-2.501-2.038-4.446-4.446-4.446H384.335C381.834,249.156,379.796,251.195,379.796,253.602z"/>
		<path id="XMLID_16_" fill="#FF4D00" stroke="#221F1F" stroke-width="1.0298" stroke-miterlimit="10" d="M386.835,258.512v24.175
			c0,5.003,6.855,12.412,8.707,7.781l0.556,0.463c0.649-1.76,2.315-2.871,4.169-2.871h100.778c2.501,0,4.445-2.038,4.445-4.446
			v-25.102c0-2.501-2.037-4.446-4.445-4.446H391.281C388.781,253.974,386.835,256.011,386.835,258.512z"/>
		<path id="XMLID_13_" fill="#C2D500" stroke="#221F1F" stroke-width="1.0298" stroke-miterlimit="10" d="M395.08,280.557
			c0.462-1.76,2.038-2.964,3.89-2.964h99.759v-18.062H391.93l-15.468,15.468v56.688L395.08,280.557z"/>
		
			<rect id="XMLID_12_" x="441.022" y="271.202" fill="#FFFFFF" stroke="#221F1F" stroke-width="1.0298" stroke-linecap="round" stroke-miterlimit="10" width="5.188" height="6.113"/>
		
			<rect id="XMLID_11_" x="459.085" y="271.202" fill="#FFFFFF" stroke="#221F1F" stroke-width="1.0298" stroke-linecap="round" stroke-miterlimit="10" width="5.188" height="6.113"/>
		
			<rect id="XMLID_10_" x="477.147" y="271.202" fill="#FFFFFF" stroke="#221F1F" stroke-width="1.0298" stroke-linecap="round" stroke-miterlimit="10" width="5.188" height="6.113"/>
		
			<rect id="XMLID_9_" x="404.898" y="271.202" fill="#FFFFFF" stroke="#221F1F" stroke-width="1.0298" stroke-linecap="round" stroke-miterlimit="10" width="5.188" height="6.113"/>
		
			<rect id="XMLID_8_" x="422.96" y="271.202" fill="#FFFFFF" stroke="#221F1F" stroke-width="1.0298" stroke-linecap="round" stroke-miterlimit="10" width="5.188" height="6.113"/>
		<path id="XMLID_5_" fill="#E3E88A" stroke="#221F1F" stroke-width="1.0298" stroke-linejoin="round" stroke-miterlimit="10" d="
			M391.93,274.999v-15.468l-15.468,15.468H391.93z"/>
		<g id="XMLID_1_">
			<path id="XMLID_2_" fill="#7BCAEF" stroke="#000000" stroke-width="1.0298" stroke-miterlimit="10" d="M488.356,357.623H372.757
				c-2.687,0-4.632-2.501-3.891-5.094l26.214-71.972c0.462-1.76,2.038-2.964,3.89-2.964h115.506c2.686,0,3.89,2.501,3.89,5.094
				l-26.213,71.972C491.781,356.326,490.115,357.623,488.356,357.623L488.356,357.623z"/>
		</g>
	</g>
	<g>
		
			<line fill="none" stroke="#1C76BC" stroke-width="1.0298" stroke-miterlimit="10" x1="65.884" y1="59.178" x2="114.976" y2="59.178"/>
		
			<line fill="none" stroke="#1C76BC" stroke-width="1.0298" stroke-miterlimit="10" x1="65.884" y1="89.283" x2="156.751" y2="89.283"/>
		<g>
			
				<line fill="none" stroke="#1C76BC" stroke-width="1.0298" stroke-miterlimit="10" x1="65.884" y1="79.279" x2="91.078" y2="79.279"/>
			
				<line fill="none" stroke="#1C76BC" stroke-width="1.0298" stroke-miterlimit="10" x1="99.229" y1="79.279" x2="192.876" y2="79.279"/>
		</g>
		<polyline fill="none" stroke="#1C76BC" stroke-width="1.0298" stroke-miterlimit="10" points="59.4,63.903 56.621,59.178 
			59.4,54.547 		"/>
		<g>
			
				<line fill="none" stroke="#1C76BC" stroke-width="1.0298" stroke-miterlimit="10" x1="65.884" y1="69.183" x2="135.909" y2="69.183"/>
			
				<line fill="none" stroke="#1C76BC" stroke-width="1.0298" stroke-miterlimit="10" x1="144.802" y1="69.183" x2="169.626" y2="69.183"/>
		</g>
		<polyline fill="none" stroke="#1C76BC" stroke-width="1.0298" stroke-miterlimit="10" points="167.31,84.466 170.089,89.097 
			167.31,93.822 		"/>
		
			<line fill="none" stroke="#1C76BC" stroke-width="1.0298" stroke-miterlimit="10" x1="164.902" y1="84.836" x2="161.752" y2="93.358"/>
	</g>
	<g>
		<g>
			
				<line fill="none" stroke="#1C76BC" stroke-width="1.0298" stroke-miterlimit="10" x1="779.296" y1="232.113" x2="830.24" y2="232.113"/>
			
				<line fill="none" stroke="#1C76BC" stroke-width="1.0298" stroke-miterlimit="10" x1="779.296" y1="262.587" x2="815.512" y2="262.587"/>
			<g>
				
					<line fill="none" stroke="#1C76BC" stroke-width="1.0298" stroke-miterlimit="10" x1="779.296" y1="252.399" x2="805.416" y2="252.399"/>
				
					<line fill="none" stroke="#1C76BC" stroke-width="1.0298" stroke-miterlimit="10" x1="813.846" y1="252.399" x2="830.426" y2="252.399"/>
			</g>
			<polyline fill="none" stroke="#1C76BC" stroke-width="1.0298" stroke-miterlimit="10" points="772.442,236.93 769.571,232.113 
				772.442,227.389 			"/>
			<g>
				
					<line fill="none" stroke="#1C76BC" stroke-width="1.0298" stroke-miterlimit="10" x1="779.296" y1="242.21" x2="830.24" y2="242.21"/>
			</g>
		</g>
		<g>
			
				<line fill="none" stroke="#1C76BC" stroke-width="1.0298" stroke-miterlimit="10" x1="779.296" y1="272.406" x2="830.24" y2="272.406"/>
			
				<line fill="none" stroke="#1C76BC" stroke-width="1.0298" stroke-miterlimit="10" x1="779.296" y1="302.881" x2="796.155" y2="302.881"/>
			<g>
				
					<line fill="none" stroke="#1C76BC" stroke-width="1.0298" stroke-miterlimit="10" x1="779.296" y1="292.691" x2="805.416" y2="292.691"/>
				
					<line fill="none" stroke="#1C76BC" stroke-width="1.0298" stroke-miterlimit="10" x1="813.846" y1="292.691" x2="830.426" y2="292.691"/>
			</g>
			<g>
				
					<line fill="none" stroke="#1C76BC" stroke-width="1.0298" stroke-miterlimit="10" x1="779.296" y1="282.595" x2="818.847" y2="282.595"/>
			</g>
			<polyline fill="none" stroke="#1C76BC" stroke-width="1.0298" stroke-miterlimit="10" points="805.509,297.97 808.38,302.696 
				805.509,307.42 			"/>
			
				<line fill="none" stroke="#1C76BC" stroke-width="1.0298" stroke-miterlimit="10" x1="803.008" y1="298.434" x2="799.767" y2="307.049"/>
		</g>
	</g>
	<g>
		
			<line fill="none" stroke="#000000" stroke-width="1.0298" stroke-miterlimit="10" x1="817.273" y1="484.521" x2="58.659" y2="484.521"/>
		
			<line fill="none" stroke="#000000" stroke-width="1.0298" stroke-miterlimit="10" x1="229" y1="498.879" x2="278.833" y2="498.879"/>
		
			<line fill="none" stroke="#000000" stroke-width="1.0298" stroke-miterlimit="10" x1="356.269" y1="498.879" x2="428.981" y2="498.879"/>
		
			<line fill="none" stroke="#000000" stroke-width="1.0298" stroke-miterlimit="10" x1="449.729" y1="498.879" x2="592.19" y2="498.879"/>
		
			<line fill="none" stroke="#000000" stroke-width="1.0298" stroke-miterlimit="10" x1="612.382" y1="498.879" x2="738.91" y2="498.879"/>
		
			<line fill="none" stroke="#000000" stroke-width="1.0298" stroke-miterlimit="10" x1="383.964" y1="514.255" x2="526.981" y2="514.255"/>
		
			<line fill="none" stroke="#000000" stroke-width="1.0298" stroke-miterlimit="10" x1="547.173" y1="514.255" x2="631.557" y2="514.255"/>
		
			<line fill="none" stroke="#000000" stroke-width="1.0298" stroke-miterlimit="10" x1="291.43" y1="498.879" x2="341.263" y2="498.879"/>
	</g>
	
		<line fill="none" stroke="#B3B3B3" stroke-width="1.0298" stroke-miterlimit="10" x1="490.577" y1="433.762" x2="660.826" y2="433.762"/>
	<g>
		<g>
			
				<line fill="none" stroke="#B3B3B3" stroke-width="1.0298" stroke-miterlimit="10" x1="376.277" y1="434.225" x2="406.287" y2="434.225"/>
			<g>
				<polygon fill="#B3B3B3" points="377.017,428.575 377.017,439.783 371.367,434.225 				"/>
			</g>
		</g>
	</g>
	<g>
		<path fill="#FEFEFE" d="M481.593,433.855L481.593,433.855c0-19.081-15.468-34.643-34.55-34.643h-0.093
			c-18.988,0-34.55,15.468-34.55,34.55v0.093c0,18.987,15.47,34.55,34.55,34.55h0.093
			C466.032,468.405,481.593,452.935,481.593,433.855z"/>
		<g>
			
				<rect x="432.224" y="413.847" fill="none" stroke="#0E97CC" stroke-width="1.0298" stroke-linecap="round" stroke-linejoin="round" stroke-miterlimit="10" width="34.827" height="34.828"/>
			
				<polyline fill="none" stroke="#0E97CC" stroke-width="1.0298" stroke-linecap="round" stroke-linejoin="round" stroke-miterlimit="10" points="
				432.224,420.794 426.944,420.794 426.944,453.863 460.104,453.863 460.104,448.676 			"/>
			<g>
				
					<circle fill="none" stroke="#0E97CC" stroke-width="1.0298" stroke-linecap="round" stroke-linejoin="round" stroke-miterlimit="10" cx="449.729" cy="431.076" r="3.612"/>
				
					<path fill="none" stroke="#0E97CC" stroke-width="1.0298" stroke-linecap="round" stroke-linejoin="round" stroke-miterlimit="10" d="
					M457.973,429.132l2.408-1.391l-2.408-4.168l-2.408,1.39c-0.926-0.926-2.038-1.575-3.334-1.945v-2.778h-4.817v2.778
					c-1.297,0.37-2.407,1.02-3.427,1.945l-2.408-1.39l-2.408,4.168l2.408,1.391c-0.277,1.296-0.277,2.686,0,3.89l-2.408,1.39
					l2.408,4.168l2.408-1.39c0.927,0.927,2.038,1.575,3.334,1.945v2.778h4.817v-2.778c1.296-0.371,2.407-1.019,3.427-1.945
					l2.408,1.39l2.408-4.168l-2.408-1.39C458.251,431.724,458.251,430.335,457.973,429.132z"/>
			</g>
		</g>
	</g>
	<circle fill="#7BCAEF" cx="273.368" cy="187.467" r="33.624"/>
	<g>
		
			<polygon fill="none" stroke="#0E97CC" stroke-width="1.0298" stroke-linecap="round" stroke-linejoin="round" stroke-miterlimit="10" points="
			291.06,183.855 276.054,183.855 276.054,165.052 285.41,165.052 291.06,170.702 		"/>
		
			<polyline fill="none" stroke="#0E97CC" stroke-width="1.0298" stroke-linecap="round" stroke-linejoin="round" stroke-miterlimit="10" points="
			285.41,165.052 285.41,170.702 291.06,170.702 		"/>
		
			<polygon fill="none" stroke="#0E97CC" stroke-width="1.0298" stroke-linecap="round" stroke-linejoin="round" stroke-miterlimit="10" points="
			270.405,183.855 255.306,183.855 255.306,165.052 264.753,165.052 270.405,170.702 		"/>
		
			<polyline fill="none" stroke="#0E97CC" stroke-width="1.0298" stroke-linecap="round" stroke-linejoin="round" stroke-miterlimit="10" points="
			264.753,165.052 264.753,170.702 270.405,170.702 		"/>
		
			<polygon fill="none" stroke="#0E97CC" stroke-width="1.0298" stroke-linecap="round" stroke-linejoin="round" stroke-miterlimit="10" points="
			291.06,208.308 276.054,208.308 276.054,189.505 285.41,189.505 291.06,195.156 		"/>
		
			<polyline fill="none" stroke="#0E97CC" stroke-width="1.0298" stroke-linecap="round" stroke-linejoin="round" stroke-miterlimit="10" points="
			285.41,189.505 285.41,195.156 291.06,195.156 		"/>
		
			<polygon fill="none" stroke="#0E97CC" stroke-width="1.0298" stroke-linecap="round" stroke-linejoin="round" stroke-miterlimit="10" points="
			270.405,208.308 255.306,208.308 255.306,189.505 264.753,189.505 270.405,195.156 		"/>
		
			<polyline fill="none" stroke="#0E97CC" stroke-width="1.0298" stroke-linecap="round" stroke-linejoin="round" stroke-miterlimit="10" points="
			264.753,189.505 264.753,195.156 270.405,195.156 		"/>
	</g>
	<path fill="none" stroke="#B3B3B3" stroke-width="1.0298" stroke-miterlimit="10" d="M487.615,436.818
		c-1.575,21.119-19.175,37.7-40.664,37.7c-22.508,0-40.756-18.248-40.756-40.756s18.248-40.756,40.756-40.756
		c21.489,0,39.182,16.673,40.664,37.792"/>
	<circle fill="none" stroke="#B3B3B3" stroke-width="1.0298" stroke-miterlimit="10" cx="487.706" cy="433.855" r="2.779"/>
	<g>
		<g>
			<path fill="none" stroke="#B3B3B3" stroke-width="1.0298" stroke-miterlimit="10" d="M214.087,493.321v48.073
				c0,7.874,6.392,14.357,14.358,14.357h584.753c7.873,0,14.357-6.391,14.357-14.357V395.97c0-7.873-6.392-14.357-14.357-14.357
				h-30.012"/>
			<g>
				<polygon fill="#B3B3B3" points="218.625,493.97 209.548,493.97 214.087,489.431 				"/>
			</g>
		</g>
	</g>
	<path fill="#FFFFFF" d="M639.8,338.819c0.462-17.413,14.727-31.492,32.233-31.492c10.189,0,19.268,4.724,25.194,12.041
		c2.409-4.446,7.04-7.503,12.506-7.503c6.669,0,12.226,4.632,13.801,10.745c2.13-0.834,4.446-1.298,6.854-1.298
		c3.705,0,7.133,1.112,9.911,2.965c4.076-4.076,9.726-6.577,16.024-6.577c9.541,0,17.691,5.929,21.026,14.265
		c2.038-2.13,4.816-3.426,7.966-3.426c5.743,0,10.559,4.445,10.93,10.188H639.8V338.819z"/>
</g>
</svg>