<?xml version="1.0" encoding="utf-8"?>
<!-- Generator: Adobe Illustrator 23.0.1, SVG Export Plug-In . SVG Version: 6.00 Build 0)  -->
<svg version="1.1" id="Layer_g1" xmlns="http://www.w3.org/2000/svg" xmlns:xlink="http://www.w3.org/1999/xlink" x="0px" y="0px"
	 viewBox="0 0 750 400" enable-background="new 0 0 750 400" xml:space="preserve">
<g id="clouds_bits">
	<g transform="matrix( 1, 0, 0, 1, 0,0) ">
		<g>
			<g id="Layer6_0_FILL">
				<path fill="#83C4EC" d="M346.4,366.9c-0.6,0-0.9,0.3-0.9,0.9v2.6h-2.6c-0.3,0-0.5,0.1-0.7,0.3c-0.2,0.2-0.3,0.4-0.3,0.6
					s0.1,0.5,0.3,0.7c0.2,0.2,0.4,0.3,0.7,0.3h2.6v2.6c0,0.3,0.1,0.5,0.3,0.6c0.2,0.2,0.4,0.3,0.7,0.3c0.3,0,0.5-0.1,0.7-0.3
					c0.2-0.2,0.3-0.4,0.3-0.6v-2.6h2.5c0.3,0,0.5-0.1,0.7-0.3c0.2-0.2,0.3-0.4,0.3-0.7s-0.1-0.5-0.3-0.6c-0.2-0.2-0.4-0.3-0.7-0.3
					h-2.5v-2.6C347.4,367.2,347,366.9,346.4,366.9 M196.5,71.7c-0.3,0-0.5,0.1-0.6,0.3c-0.2,0.2-0.3,0.4-0.3,0.7
					c0,0.3,0.1,0.5,0.3,0.7c0.2,0.2,0.4,0.3,0.6,0.3h2.6v2.6c0,0.6,0.3,0.9,0.9,0.9c0.3,0,0.5-0.1,0.6-0.3c0.2-0.2,0.3-0.4,0.3-0.7
					v-2.6h2.6c0.3,0,0.5-0.1,0.7-0.3c0.2-0.2,0.3-0.4,0.3-0.7c0-0.6-0.3-1-0.9-1H201v-2.5c0-0.3-0.1-0.5-0.3-0.7
					c-0.2-0.2-0.4-0.3-0.6-0.3c-0.3,0-0.5,0.1-0.7,0.3c-0.2,0.2-0.2,0.4-0.3,0.7v2.5H196.5 M651.3,168.4c0-0.6-0.3-0.9-1-0.9h-2.5
					v-2.6c0-0.3-0.1-0.5-0.3-0.7c-0.2-0.2-0.4-0.3-0.7-0.3c-0.3,0-0.5,0.1-0.7,0.3c-0.2,0.2-0.3,0.4-0.3,0.7v2.6h-2.5
					c-0.3,0-0.5,0.1-0.7,0.3c-0.2,0.2-0.3,0.4-0.3,0.7c0,0.3,0.1,0.5,0.3,0.7c0.2,0.2,0.4,0.3,0.7,0.3h2.5v2.5
					c0,0.3,0.1,0.5,0.3,0.7s0.4,0.3,0.7,0.3c0.3,0,0.5-0.1,0.7-0.3c0.2-0.2,0.3-0.4,0.3-0.7v-2.5h2.5
					C650.9,169.4,651.3,169,651.3,168.4 M545.7,42c0,0.3,0.1,0.5,0.3,0.7c0.2,0.2,0.4,0.3,0.7,0.3h2.5v2.5c0,0.3,0.1,0.5,0.3,0.7
					c0.2,0.2,0.4,0.3,0.7,0.3c0.3,0,0.5-0.1,0.7-0.3c0.2-0.2,0.3-0.4,0.3-0.7V43h2.5c0.3,0,0.5-0.1,0.7-0.3c0.2-0.2,0.3-0.4,0.3-0.7
					c0-0.3-0.1-0.5-0.3-0.7c-0.2-0.2-0.4-0.3-0.7-0.3h-2.5v-2.5c0-0.3-0.1-0.5-0.3-0.7c-0.2-0.2-0.4-0.3-0.7-0.3
					c-0.3,0-0.5,0.1-0.7,0.3c-0.2,0.2-0.3,0.4-0.3,0.7v2.5h-2.5c-0.3,0-0.5,0.1-0.7,0.3C545.8,41.5,545.7,41.8,545.7,42
					 M155.4,226.6c-0.2,0-0.4,0.1-0.6,0.3s-0.3,0.4-0.3,0.6v2.6h-2.6c-0.3,0-0.5,0.1-0.7,0.3c-0.2,0.2-0.3,0.4-0.3,0.7
					c0,0.3,0.1,0.5,0.3,0.6c0.2,0.2,0.4,0.3,0.7,0.3h2.6v2.6c0,0.3,0.1,0.5,0.3,0.7c0.2,0.2,0.4,0.3,0.6,0.3c0.6,0,1-0.3,1-0.9V232
					h2.6c0.3,0,0.5-0.1,0.7-0.3c0.2-0.2,0.3-0.4,0.3-0.6c0-0.3-0.1-0.5-0.3-0.7c-0.2-0.2-0.4-0.3-0.7-0.3h-2.6v-2.6
					c0-0.3-0.1-0.5-0.3-0.6C155.9,226.7,155.7,226.6,155.4,226.6 M622.2,345.1c0,0.3,0.1,0.5,0.3,0.7c0.2,0.2,0.4,0.2,0.6,0.3h2.6
					v2.6c0,0.3,0.1,0.5,0.3,0.6c0.2,0.2,0.4,0.3,0.7,0.3s0.5-0.1,0.6-0.3c0.2-0.2,0.3-0.4,0.3-0.6V346h2.6c0.6,0,0.9-0.3,0.9-0.9
					c0-0.3-0.1-0.5-0.3-0.6c-0.2-0.2-0.4-0.3-0.7-0.3h-2.6v-2.5c0-0.3-0.1-0.5-0.3-0.7c-0.2-0.2-0.4-0.3-0.6-0.3c-0.6,0-1,0.3-1,1
					v2.5h-2.6c-0.2,0-0.5,0.1-0.6,0.3C622.3,344.6,622.2,344.9,622.2,345.1z"/>
				<path fill="#BAD727" d="M440,70.7c0.4-0.4,0.6-0.8,0.6-1.3c0-0.5-0.2-1-0.6-1.3c-0.4-0.4-0.8-0.6-1.3-0.6c-0.5,0-1,0.2-1.4,0.6
					c-0.4,0.4-0.6,0.8-0.6,1.3c0,0.5,0.2,1,0.6,1.3c0.4,0.4,0.8,0.6,1.4,0.6C439.2,71.3,439.7,71.1,440,70.7 M110.8,314.8
					c0.5,0,1-0.2,1.3-0.5c0.4-0.4,0.5-0.8,0.5-1.4c0-0.5-0.2-1-0.5-1.4c-0.4-0.4-0.8-0.5-1.3-0.5c-0.5,0-1,0.2-1.4,0.5
					c-0.4,0.4-0.6,0.9-0.6,1.4c0,0.5,0.2,1,0.6,1.4C109.8,314.6,110.3,314.8,110.8,314.8 M600.3,160.5c0.4-0.4,0.6-0.8,0.6-1.4
					c0-0.5-0.2-1-0.6-1.4c-0.4-0.4-0.8-0.6-1.3-0.6s-1,0.2-1.3,0.6c-0.4,0.4-0.6,0.9-0.6,1.4c0,0.5,0.2,1,0.6,1.4
					c0.4,0.4,0.8,0.6,1.3,0.6S600,160.9,600.3,160.5z"/>
				<path fill="#F7571A" d="M257.4,255.5c0-0.5-0.2-1-0.6-1.4c-0.4-0.4-0.8-0.5-1.3-0.5c-0.5,0-1,0.2-1.3,0.5s-0.6,0.8-0.6,1.4
					s0.2,1,0.6,1.4c0.4,0.4,0.8,0.6,1.3,0.6c0.5,0,1-0.2,1.3-0.6C257.2,256.5,257.4,256,257.4,255.5 M483.3,59.5
					c0-0.5-0.2-1-0.5-1.3c-0.4-0.4-0.8-0.5-1.4-0.5c-0.5,0-1,0.2-1.4,0.5c-0.4,0.4-0.6,0.8-0.6,1.3s0.2,1,0.6,1.4
					c0.4,0.4,0.9,0.5,1.4,0.5c0.5,0,1-0.2,1.4-0.5C483.1,60.5,483.3,60.1,483.3,59.5z"/>
				<path fill="#BFBFBF" d="M585.3,53.7h-6l-3,5.2l3,5.3h6l3-5.3L585.3,53.7 M584.5,55.2l2.2,3.8l-2.2,3.8h-4.3l-2.2-3.8l2.2-3.8
					H584.5 M147.9,165.9h-6.1l-3,5.2l3,5.2h6.1l3-5.2L147.9,165.9 M142.8,167.3h4.4l2.2,3.8l-2.2,3.8h-4.4l-2.2-3.8L142.8,167.3z"/>
				<path fill="#DEDEDE" d="M97.2,273.7c0-1.1-0.4-2-1.2-2.8c-0.7-0.7-1.6-1.1-2.7-1.1s-2,0.4-2.7,1.1c-0.8,0.8-1.2,1.7-1.2,2.8
					c0,1,0.4,1.9,1.2,2.7c0.7,0.7,1.6,1.1,2.7,1.1s2-0.4,2.7-1.1C96.8,275.6,97.2,274.7,97.2,273.7 M55.8,52.7
					c-0.4-0.4-0.8-0.6-1.3-0.6c-0.5,0-1,0.2-1.4,0.6c-0.4,0.4-0.5,0.8-0.5,1.3s0.2,1,0.5,1.4c0.4,0.4,0.8,0.5,1.4,0.5s1-0.2,1.3-0.5
					c0.4-0.4,0.6-0.9,0.6-1.4C56.3,53.5,56.1,53,55.8,52.7z"/>
				<path fill="#3D3D3D" fill-opacity="0.1686" d="M395.9,331c-1.2-4.9-3.8-8.9-7.8-12c-4-3.2-8.6-4.8-13.8-4.8
					c-4.1,0-7.9,1.1-11.5,3.2c-3.4,2.1-6.1,4.9-8,8.4c-4.7-5.9-10.4-10.5-17.1-13.8c-7-3.4-14.4-5.1-22.1-5.1
					c-13.7,0-25.4,4.8-35.2,14.4c-9.7,9.6-14.8,21.2-15.1,34.8h244.1c-0.3-4.5-2.1-8.2-5.4-11.3c-3.3-3.1-7.1-4.6-11.6-4.6
					c-2.4,0-4.7,0.5-6.9,1.5c-2.1,0.9-4,2.2-5.6,3.9c-2.7-6.6-6.9-11.9-12.8-16c-6-4.2-12.7-6.3-20.1-6.3c-4.8,0-9.4,0.9-13.7,2.8
					c-4.2,1.8-8,4.3-11.3,7.5c-4.7-3.1-9.9-4.6-15.5-4.6C402.8,329,399.3,329.7,395.9,331 M499.9,84.1c-2.5-2.5-5.5-3.7-9-3.7
					c-2.7,0-5.1,0.8-7.3,2.3c-2.1,1.5-3.7,3.4-4.6,5.8c-1.3-1.3-2.8-1.9-4.5-1.9c-1.6,0-3,0.6-4.2,1.7c-1.2,1.1-1.8,2.4-1.9,4.1
					h87.9c-0.1-4.9-1.9-9.1-5.5-12.5c-3.5-3.5-7.7-5.2-12.6-5.2c-2.8,0-5.5,0.6-8,1.9c-2.4,1.2-4.5,2.8-6.2,4.9
					c-0.7-1.3-1.7-2.3-2.9-3.1c-1.3-0.8-2.7-1.1-4.2-1.1c-1.8,0-3.5,0.6-5,1.8c-1.4,1.1-2.3,2.5-2.8,4.3c-1.3-0.5-2.5-0.8-3.8-0.8
					C503.5,82.3,501.6,82.9,499.9,84.1 M348.5,11.4c-6,0-11.8,1.3-17.1,3.9c-5.2,2.6-9.6,6.1-13.3,10.6c-1.5-2.7-3.5-4.9-6.2-6.5
					c-2.7-1.7-5.7-2.5-8.9-2.5c-4,0-7.6,1.2-10.6,3.7c-3.1,2.4-5.1,5.6-6,9.4c-2.7-1.1-5.4-1.6-8.3-1.6c-4.4,0-8.4,1.2-12.1,3.6
					c-2.5-2.5-5.4-4.4-8.7-5.8c-3.4-1.4-6.9-2.2-10.7-2.2c-5.7,0-10.9,1.6-15.6,4.9c-4.6,3.2-7.9,7.3-9.9,12.4
					c-2.7-2.8-5.9-4.1-9.6-4.1c-3.5,0-6.5,1.2-9,3.6c-2.5,2.4-3.9,5.3-4.2,8.7h189.1c-0.2-10.6-4.1-19.5-11.7-27
					C368.2,15.1,359.1,11.4,348.5,11.4z"/>
				<path fill="#D1D1D1" d="M656.5,297c-0.8-0.7-1.7-1.1-2.8-1.1s-2,0.4-2.7,1.1c-0.8,0.8-1.1,1.7-1.1,2.7c0,1.1,0.4,2,1.1,2.8
					c0.7,0.7,1.6,1.1,2.7,1.1s2-0.4,2.8-1.1c0.7-0.8,1.1-1.7,1.1-2.8C657.6,298.6,657.2,297.7,656.5,297z"/>
				<path fill="#FEFEFE" d="M594.7,322.5c0-0.6-0.2-1.1-0.6-1.5c-0.4-0.4-0.8-0.6-1.4-0.6c-0.6,0-1,0.2-1.4,0.6
					c-0.4,0.4-0.6,0.9-0.6,1.5s0.2,1,0.6,1.4c0.4,0.4,0.9,0.6,1.4,0.6c0.6,0,1-0.2,1.4-0.6C594.5,323.5,594.7,323.1,594.7,322.5z"/>
			</g>
		</g>
		<g>
			<path id="Layer6_0_1_STROKES" fill="none" stroke="#BFBFBF" stroke-width="2" stroke-miterlimit="10" d="M450.3,36
				c0,0.9-0.3,1.6-1,2.3c-0.6,0.6-1.4,1-2.3,1c-0.9,0-1.7-0.3-2.3-1s-1-1.4-1-2.3c0-0.9,0.3-1.7,1-2.3c0.6-0.6,1.4-1,2.3-1
				c0.9,0,1.6,0.3,2.3,1C449.9,34.3,450.3,35.1,450.3,36z M616.1,243.1c0,0.9-0.3,1.7-0.9,2.3c-0.6,0.6-1.4,1-2.3,1
				c-0.9,0-1.7-0.3-2.3-1c-0.6-0.6-0.9-1.4-0.9-2.3c0-0.9,0.3-1.6,0.9-2.3c0.6-0.6,1.4-1,2.3-1c0.9,0,1.6,0.3,2.3,1
				C615.8,241.5,616.1,242.2,616.1,243.1z M99.8,25c0,0.9-0.3,1.6-0.9,2.3c-0.6,0.6-1.4,1-2.3,1c-0.9,0-1.6-0.3-2.3-1
				c-0.6-0.6-0.9-1.4-0.9-2.3c0-0.9,0.3-1.7,0.9-2.3c0.6-0.6,1.4-1,2.3-1c0.9,0,1.7,0.3,2.3,1C99.5,23.3,99.8,24.1,99.8,25z"/>
		</g>
		<g>
			<path id="Layer6_0_2_STROKES" fill="none" stroke="#A3A3A3" stroke-miterlimit="10" d="M589,206.4c0,0.6-0.2,1-0.6,1.4
				c-0.4,0.4-0.8,0.6-1.4,0.6c-0.5,0-1-0.2-1.4-0.6c-0.4-0.4-0.6-0.8-0.6-1.4c0-0.6,0.2-1,0.6-1.4c0.4-0.4,0.8-0.6,1.4-0.6
				c0.6,0,1,0.2,1.4,0.6C588.8,205.4,589,205.9,589,206.4z"/>
		</g>
	</g>
</g>
<g id="browsers">
	<g transform="matrix( 1, 0, 0, 1, 0,0) ">
		<g>
			<g id="Layer5_0_FILL">
				<path fill="#FEFEFE" d="M308,339.5c0.4,0.1,0.9,0.1,1.4,0.1c-0.3,0-0.7-0.1-1-0.1c-1.4-0.3-2.6-0.9-3.6-2
					c-0.6-0.7-1.1-1.4-1.4-2.1c0.3,0.8,0.8,1.6,1.4,2.3C305.7,338.6,306.8,339.2,308,339.5 M441.6,337.5c-1.3,1.3-2.9,2-4.8,2.1
					c1.9,0,3.5-0.7,4.9-2c1.3-1.4,2-3,2-4.9C443.6,334.6,442.9,336.2,441.6,337.5 M443.7,246.4h-0.4h-40.6h-1.1H303v86.9
					c0,0.8,0.1,1.5,0.4,2.3c0.3,0.7,0.8,1.4,1.4,2.1c1,1,2.2,1.7,3.6,2c0.3,0.1,0.6,0.1,1,0.1h0.1h127.3c1.9-0.1,3.5-0.8,4.8-2.1
					c1.3-1.4,2-3,2.1-4.8c0-0.1,0-0.2,0-0.3V246.4 M229.1,201.8c-0.6-0.7-1.1-1.4-1.5-2.1c0.3,0.8,0.8,1.6,1.5,2.3
					c0.9,0.9,1.9,1.5,3.1,1.8c0.4,0.1,0.9,0.2,1.4,0.2c-0.3,0-0.6-0.1-0.9-0.2C231.3,203.4,230.1,202.8,229.1,201.8 M392.3,201.8
					c-1.3,1.3-2.9,2-4.8,2.1c1.9,0,3.5-0.7,4.9-2c1.3-1.4,2-3,2-4.9C394.3,198.8,393.6,200.4,392.3,201.8 M353.4,84.6h-1.1h-125
					v112.8c0,0.8,0.1,1.6,0.4,2.3c0.3,0.7,0.8,1.4,1.5,2.1c1,1,2.2,1.7,3.6,1.9c0.3,0.1,0.6,0.1,0.9,0.2h0.2h153.7
					c1.9-0.1,3.5-0.8,4.8-2.1c1.3-1.4,2-3,2.1-4.8c0-0.1,0-0.2,0-0.3V84.6H394H353.4 M546.5,201.8c-1.3,1.3-2.9,2-4.8,2.1
					c1.9,0,3.5-0.7,4.9-2c1.3-1.4,2-3,2-4.9C548.5,198.8,547.8,200.4,546.5,201.8 M432.6,203.9c-0.3,0-0.6-0.1-0.9-0.2
					c-1.4-0.3-2.6-0.9-3.6-1.9c-0.6-0.7-1.1-1.4-1.5-2.1c0.3,0.8,0.8,1.6,1.5,2.3c0.9,0.9,2,1.5,3.1,1.8
					C431.7,203.8,432.1,203.9,432.6,203.9 M548.6,120.9h-0.3h-40.6h-1.1h-80.3v76.4c0,0.8,0.1,1.6,0.4,2.3c0.3,0.7,0.8,1.4,1.5,2.1
					c1,1,2.2,1.7,3.6,1.9c0.3,0.1,0.6,0.1,0.9,0.2h0.1h108.9c1.9-0.1,3.5-0.8,4.8-2.1c1.3-1.4,2-3,2.1-4.8c0-0.1,0-0.2,0-0.3V120.9z
					"/>
				<path fill="#595959" d="M309,226.1c-1.6,0.2-3,0.8-4.2,2c-1.1,1.1-1.7,2.3-1.9,3.7c0.3-1.4,0.9-2.6,2-3.6c1.3-1.4,3-2.1,4.9-2.1
					H309 M309.8,226.1h2.7l-2.6-0.1c-0.3,0-0.6,0-0.9,0.1H309.8 M303,246.4h-0.3v86.1c0,1.1,0.2,2.1,0.6,3c-0.3-0.7-0.4-1.5-0.4-2.3
					V246.4 M302.7,233.4c0,0,0-0.1,0-0.1l0.1-1.4c0.2-1.4,0.9-2.6,1.9-3.7c1.2-1.2,2.6-1.9,4.2-2h-6c-2,0-3.7,0.7-5.1,2.1
					c-1.4,1.4-2.1,3.1-2.1,5.1v99.2c0,1.9,0.7,3.5,2.1,4.9c1.4,1.4,3.1,2.1,5.1,2.1h5c-1.2-0.3-2.3-0.9-3.2-1.8
					c-0.7-0.7-1.1-1.5-1.4-2.3c-0.4-0.9-0.6-1.9-0.6-3v-86.1h-0.4h0.4v-0.1V233.4 M401.6,246.4L401.6,246.4l-98.9-0.1v0.1h0.3H401.6
					 M402.7,225.9h-7.3c0.1,0,0.3,0.1,0.5,0.2h6.8V225.9 M401.6,246.4h1.1v-0.1L401.6,246.4L401.6,246.4 M227.3,84.6H227v112.1
					c0,1.1,0.2,2.1,0.6,3c-0.3-0.7-0.4-1.4-0.4-2.3V84.6 M234.1,64.3h2.7l-2.6-0.1c-0.3,0-0.6,0-0.9,0.1H234.1 M229.1,66.3
					c-1.1,1.1-1.7,2.3-2,3.7C227.4,68.7,228.1,67.5,229.1,66.3c1.4-1.3,3-2,4.9-2h-0.8C231.7,64.5,230.3,65.2,229.1,66.3 M227,71.4
					l0.1-1.4c0.2-1.4,0.9-2.6,2-3.7c1.2-1.2,2.6-1.9,4.2-2h-6.1c-2,0-3.7,0.7-5.1,2.1c-1.4,1.4-2.1,3.1-2.1,5.1v125.2
					c0,1.9,0.7,3.5,2.1,4.9c1.4,1.4,3.1,2.1,5.1,2.1h5c-1.2-0.3-2.3-0.9-3.1-1.8c-0.7-0.7-1.2-1.5-1.5-2.3c-0.4-0.9-0.6-1.9-0.6-3
					V84.6h-0.4h0.4v-0.1V71.6C227,71.5,227,71.5,227,71.4 M353.4,64.3v-0.2h-7.3c0.1,0,0.3,0.1,0.5,0.2H353.4 M352.3,84.5
					L352.3,84.5l1.1,0.1v-0.1H352.3 M352.3,84.6L352.3,84.6L227,84.5v0.1h0.3H352.3 M426.3,120.9H426v75.7c0,1.1,0.2,2.1,0.6,3
					c-0.3-0.7-0.4-1.4-0.4-2.3V120.9 M426,107.8l0.1-1.4c0.2-1.4,0.9-2.6,2-3.7c1.2-1.2,2.6-1.9,4.2-2.1h-6c-2,0-3.7,0.7-5.1,2.1
					c-1.4,1.4-2.1,3.1-2.1,5.1v88.8c0,1.9,0.7,3.5,2.1,4.9c1.4,1.4,3.1,2.1,5.1,2.1h5c-1.2-0.3-2.3-0.9-3.1-1.8
					c-0.7-0.7-1.2-1.5-1.5-2.3c-0.4-0.9-0.6-1.9-0.6-3v-75.7h-0.4h0.4v0V107.8C426,107.9,426,107.9,426,107.8 M433,100.7h-0.8
					c-1.6,0.2-3,0.8-4.2,2.1c-1.1,1.1-1.7,2.3-2,3.7c0.3-1.4,0.9-2.6,2-3.6C429.5,101.5,431.1,100.8,433,100.7 M433.2,100.7
					c-0.3,0-0.6,0-0.9,0h0.8h2.7L433.2,100.7 M506.5,120.9L506.5,120.9l-80.5,0v0h0.3H506.5 M506.5,120.9h1.1v0L506.5,120.9
					L506.5,120.9 M500.9,100.7h6.8v-0.1h-7.3C500.5,100.6,500.6,100.6,500.9,100.7z"/>
				<path fill="#CACACA" d="M443.2,230.6c-0.1-0.2-0.2-0.4-0.3-0.6c-0.3-0.6-0.8-1.2-1.3-1.7c-1.4-1.4-3.1-2.1-5.1-2.1H434h-31.3
					H396h-83.5h-2.7c-1.9,0.1-3.6,0.8-4.9,2.1c-1.1,1-1.7,2.2-2,3.6l-0.1,1.4c0,0,0,0.1,0,0.1v12.9h98.9h1.1h41v-12.9
					c0,0,0-0.1,0-0.1C443.7,232.3,443.5,231.4,443.2,230.6 M335.9,232.8c0.8,0,1.4,0.3,2,0.8c0.5,0.6,0.8,1.2,0.8,2
					c0,0.8-0.3,1.4-0.8,1.9c-0.6,0.5-1.2,0.8-2,0.8c-0.8,0-1.4-0.3-2-0.8c-0.5-0.5-0.8-1.2-0.8-1.9c0-0.8,0.3-1.4,0.8-2
					C334.4,233.1,335.1,232.8,335.9,232.8 M325.4,232.8c0.8,0,1.4,0.3,2,0.8c0.5,0.6,0.8,1.2,0.8,2c0,0.8-0.3,1.4-0.8,1.9
					c-0.6,0.5-1.2,0.8-2,0.8c-0.8,0-1.4-0.3-2-0.8c-0.5-0.5-0.8-1.2-0.8-1.9c0-0.8,0.3-1.4,0.8-2
					C323.9,233.1,324.6,232.8,325.4,232.8 M314.9,232.8c0.8,0,1.4,0.3,2,0.8c0.5,0.6,0.8,1.2,0.8,2c0,0.8-0.3,1.4-0.8,1.9
					c-0.5,0.5-1.2,0.8-2,0.8c-0.8,0-1.4-0.3-2-0.8c-0.5-0.5-0.8-1.2-0.8-1.9c0-0.8,0.3-1.4,0.8-2
					C313.5,233.1,314.1,232.8,314.9,232.8 M316.9,233.6c-0.5-0.5-1.2-0.8-2-0.8s-1.4,0.3-2,0.8c-0.5,0.6-0.8,1.2-0.8,2
					c0,0.8,0.3,1.4,0.8,1.9c0.6,0.5,1.2,0.8,2,0.8c0.8,0,1.4-0.3,2-0.8c0.5-0.5,0.8-1.2,0.8-1.9
					C317.6,234.8,317.4,234.2,316.9,233.6 M327.4,233.6c-0.6-0.5-1.2-0.8-2-0.8s-1.4,0.3-2,0.8c-0.5,0.6-0.8,1.2-0.8,2
					c0,0.8,0.3,1.4,0.8,1.9c0.5,0.5,1.2,0.8,2,0.8c0.8,0,1.4-0.3,2-0.8c0.5-0.5,0.8-1.2,0.8-1.9
					C328.1,234.8,327.9,234.2,327.4,233.6 M337.9,233.6c-0.6-0.5-1.2-0.8-2-0.8s-1.4,0.3-2,0.8c-0.5,0.6-0.8,1.2-0.8,2
					c0,0.8,0.3,1.4,0.8,1.9c0.5,0.5,1.2,0.8,2,0.8c0.8,0,1.4-0.3,2-0.8c0.5-0.5,0.8-1.2,0.8-1.9
					C338.6,234.8,338.4,234.2,337.9,233.6 M352.3,84.5h1.1h41V71.6c0,0,0-0.1,0-0.1c0-1-0.2-1.9-0.5-2.7c-0.1-0.2-0.2-0.4-0.3-0.6
					c-0.3-0.6-0.8-1.2-1.3-1.7c-1.4-1.4-3.1-2.1-5.1-2.1h-2.5h-31.3h-6.8H236.8h-2.7c-1.9,0.1-3.6,0.8-4.9,2.1c-1.1,1-1.7,2.2-2,3.6
					l-0.1,1.4c0,0,0,0.1,0,0.1v12.9H352.3 M257.4,73.8c0-0.8,0.3-1.4,0.8-2c0.5-0.5,1.2-0.8,1.9-0.8s1.4,0.3,2,0.8
					c0.5,0.6,0.8,1.2,0.8,2c0,0.8-0.3,1.4-0.8,1.9c-0.6,0.5-1.2,0.8-2,0.8s-1.4-0.3-1.9-0.8C257.7,75.2,257.4,74.6,257.4,73.8
					 M247.7,71.8c0.5-0.5,1.2-0.8,1.9-0.8c0.8,0,1.4,0.3,2,0.8c0.5,0.6,0.8,1.2,0.8,2c0,0.8-0.3,1.4-0.8,1.9c-0.6,0.5-1.2,0.8-2,0.8
					c-0.8,0-1.4-0.3-1.9-0.8c-0.5-0.5-0.8-1.2-0.8-1.9C246.9,73,247.2,72.4,247.7,71.8 M241.1,71.8c0.5,0.6,0.8,1.2,0.8,2
					c0,0.8-0.3,1.4-0.8,1.9s-1.2,0.8-1.9,0.8c-0.8,0-1.4-0.3-2-0.8c-0.5-0.5-0.8-1.2-0.8-1.9c0-0.8,0.3-1.4,0.8-2
					c0.6-0.5,1.2-0.8,2-0.8C240,71,240.6,71.3,241.1,71.8 M241.9,73.8c0-0.8-0.3-1.4-0.8-2c-0.5-0.5-1.2-0.8-1.9-0.8
					c-0.8,0-1.4,0.3-2,0.8c-0.5,0.6-0.8,1.2-0.8,2c0,0.8,0.3,1.4,0.8,1.9c0.6,0.5,1.2,0.8,2,0.8c0.8,0,1.4-0.3,1.9-0.8
					S241.9,74.6,241.9,73.8 M249.6,71c-0.8,0-1.4,0.3-1.9,0.8c-0.5,0.6-0.8,1.2-0.8,2c0,0.8,0.3,1.4,0.8,1.9
					c0.5,0.5,1.2,0.8,1.9,0.8c0.8,0,1.4-0.3,2-0.8c0.5-0.5,0.8-1.2,0.8-1.9c0-0.8-0.3-1.4-0.8-2C251.1,71.3,250.4,71,249.6,71
					 M258.2,71.8c-0.5,0.6-0.8,1.2-0.8,2c0,0.8,0.3,1.4,0.8,1.9c0.5,0.5,1.2,0.8,1.9,0.8s1.4-0.3,2-0.8c0.5-0.5,0.8-1.2,0.8-1.9
					c0-0.8-0.3-1.4-0.8-2c-0.6-0.5-1.2-0.8-2-0.8S258.7,71.3,258.2,71.8 M548.6,107.9C548.6,107.9,548.6,107.9,548.6,107.9
					c0-1.1-0.2-2-0.5-2.8c-0.1-0.2-0.2-0.4-0.3-0.6c-0.3-0.6-0.8-1.2-1.3-1.7c-1.4-1.4-3.1-2.2-5.1-2.2h-2.5h-31.3h-6.8h-65.1H433
					c-1.9,0.1-3.6,0.8-4.9,2.2c-1.1,1-1.7,2.2-2,3.6l-0.1,1.4c0,0,0,0.1,0,0.1v13h80.5h1.1h41V107.9 M457.2,108.2
					c0.5-0.5,1.2-0.8,1.9-0.8s1.4,0.3,2,0.8c0.5,0.6,0.8,1.2,0.8,2c0,0.8-0.3,1.4-0.8,2c-0.6,0.5-1.2,0.8-2,0.8
					c-0.8,0-1.4-0.3-1.9-0.8c-0.5-0.5-0.8-1.2-0.8-2S456.7,108.8,457.2,108.2 M448.6,107.4c0.8,0,1.4,0.3,2,0.8
					c0.5,0.6,0.8,1.2,0.8,2c0,0.8-0.3,1.4-0.8,2c-0.6,0.5-1.2,0.8-2,0.8c-0.8,0-1.4-0.3-1.9-0.8c-0.5-0.5-0.8-1.2-0.8-2
					s0.3-1.4,0.8-2C447.2,107.7,447.9,107.4,448.6,107.4 M436.2,108.2c0.6-0.5,1.2-0.8,2-0.8s1.4,0.3,1.9,0.8c0.5,0.6,0.8,1.2,0.8,2
					c0,0.8-0.3,1.4-0.8,2c-0.5,0.5-1.2,0.8-1.9,0.8c-0.8,0-1.4-0.3-2-0.8c-0.5-0.5-0.8-1.2-0.8-2S435.7,108.8,436.2,108.2
					 M438.2,107.4c-0.8,0-1.4,0.3-2,0.8c-0.5,0.6-0.8,1.2-0.8,2s0.3,1.4,0.8,2c0.6,0.5,1.2,0.8,2,0.8c0.8,0,1.4-0.3,1.9-0.8
					c0.5-0.5,0.8-1.2,0.8-2c0-0.8-0.3-1.4-0.8-2C439.6,107.7,439,107.4,438.2,107.4 M450.6,108.2c-0.6-0.5-1.2-0.8-2-0.8
					s-1.4,0.3-1.9,0.8c-0.5,0.6-0.8,1.2-0.8,2s0.3,1.4,0.8,2c0.5,0.5,1.2,0.8,1.9,0.8c0.8,0,1.4-0.3,2-0.8c0.5-0.5,0.8-1.2,0.8-2
					C451.5,109.4,451.2,108.8,450.6,108.2 M459.1,107.4c-0.8,0-1.4,0.3-1.9,0.8c-0.5,0.6-0.8,1.2-0.8,2s0.3,1.4,0.8,2
					c0.5,0.5,1.2,0.8,1.9,0.8c0.8,0,1.4-0.3,2-0.8c0.5-0.5,0.8-1.2,0.8-2c0-0.8-0.3-1.4-0.8-2C460.6,107.7,459.9,107.4,459.1,107.4z
					"/>
			</g>
		</g>
		<g>
			<path id="Layer5_0_1_STROKES" fill="none" stroke="#000000" stroke-miterlimit="10" d="M547.8,104.6c0.1,0.2,0.2,0.4,0.3,0.6
				c0.3,0.8,0.5,1.7,0.5,2.7c0,0,0,0.1,0,0.1v13v0v75.7c0,0.1,0,0.2,0,0.3 M541.7,203.9H432.8 M431.3,203.7h-5c-2,0-3.7-0.7-5.1-2.1
				c-1.4-1.4-2.1-3-2.1-4.9v-88.8c0-2,0.7-3.7,2.1-5.1c1.4-1.4,3.1-2.1,5.1-2.1h6c0.3,0,0.6,0,0.9,0l2.5,0h65.1 M507.6,100.7h31.3
				l2.5,0c2,0,3.7,0.7,5.1,2.1c0.5,0.6,1,1.2,1.3,1.8 M500.9,100.7h6.8 M507.6,120.9h-1.1v0 M426.3,120.9h80.3 M426.6,199.6
				c0.3,0.7,0.8,1.4,1.5,2.1c1,1,2.2,1.7,3.6,1.9c0.3,0.1,0.6,0.1,0.9,0.2 M507.6,120.9h40.6 M352.3,84.6L352.3,84.6 M227,84.5
				L227,84.5l0.3,0.1h125h1.1 M346.6,64.3h6.8h31.3l2.5-0.1c2,0,3.7,0.7,5.1,2.1c0.5,0.6,1,1.2,1.3,1.8c0.1,0.2,0.2,0.4,0.3,0.6
				c0.3,0.8,0.5,1.7,0.5,2.7c0,0,0,0.1,0,0.1v12.9v0.1v112.1c0,0.1,0,0.2,0,0.3 M387.5,203.9H233.8 M232.3,203.7h-5
				c-2,0-3.7-0.7-5.1-2.1c-1.4-1.4-2.1-3-2.1-4.9V71.5c0-2,0.7-3.7,2.1-5.1c1.4-1.4,3.1-2.1,5.1-2.1h6.1c0.3,0,0.6-0.1,0.9-0.1
				l2.6,0.1h109.9 M353.4,84.6H394 M462,110.2c0,0.8-0.3,1.4-0.8,2c-0.6,0.5-1.2,0.8-2,0.8c-0.8,0-1.4-0.3-1.9-0.8
				c-0.5-0.5-0.8-1.2-0.8-2s0.3-1.4,0.8-2c0.5-0.5,1.2-0.8,1.9-0.8s1.4,0.3,2,0.8C461.7,108.8,462,109.4,462,110.2z M451.5,110.2
				c0,0.8-0.3,1.4-0.8,2c-0.6,0.5-1.2,0.8-2,0.8c-0.8,0-1.4-0.3-1.9-0.8c-0.5-0.5-0.8-1.2-0.8-2s0.3-1.4,0.8-2
				c0.5-0.5,1.2-0.8,1.9-0.8s1.4,0.3,2,0.8C451.2,108.8,451.5,109.4,451.5,110.2z M441,110.2c0,0.8-0.3,1.4-0.8,2
				c-0.5,0.5-1.2,0.8-1.9,0.8c-0.8,0-1.4-0.3-2-0.8c-0.5-0.5-0.8-1.2-0.8-2s0.3-1.4,0.8-2c0.6-0.5,1.2-0.8,2-0.8s1.4,0.3,1.9,0.8
				C440.7,108.8,441,109.4,441,110.2z M433,100.7h-0.8c-1.6,0.2-3,0.8-4.2,2.1c-1.1,1.1-1.7,2.3-2,3.7 M435.8,100.7H433 M426,120.9
				v-13c0,0,0-0.1,0-0.1l0.1-1.4 M425.6,120.9h0.4v0 M426,120.9h0.3 M426.6,199.6c-0.4-0.9-0.6-1.9-0.6-3v-75.7 M442.9,229.9
				c0.1,0.2,0.2,0.4,0.3,0.6c0.3,0.8,0.5,1.7,0.5,2.7c0,0,0,0.1,0,0.1v12.9v0.1v86.1c0,0.1,0,0.2,0,0.3 M436.8,339.6H309.5
				 M308,339.5h-5c-2,0-3.7-0.7-5.1-2.1c-1.4-1.4-2.1-3-2.1-4.9v-99.2c0-2,0.7-3.7,2.1-5.1c1.4-1.4,3.1-2.1,5.1-2.1h6
				c0.3,0,0.6-0.1,0.9-0.1l2.6,0.1H396 M402.7,226.1H434l2.5-0.1c2,0,3.7,0.7,5.1,2.1c0.5,0.6,1,1.2,1.3,1.8 M394.4,196.9
				c-0.1,1.8-0.8,3.4-2.1,4.8c-1.3,1.3-2.9,2-4.8,2.1 M402.7,246.4h-1.1v-0.1 M303,246.4h98.6 M303.4,335.5c0.3,0.7,0.8,1.4,1.4,2.1
				c1,1,2.2,1.7,3.6,2c0.3,0.1,0.6,0.1,1,0.1 M396,226.1h6.8 M338.6,235.6c0,0.8-0.3,1.4-0.8,1.9c-0.6,0.5-1.2,0.8-2,0.8
				c-0.8,0-1.4-0.3-2-0.8c-0.5-0.5-0.8-1.2-0.8-1.9c0-0.8,0.3-1.4,0.8-2c0.5-0.5,1.2-0.8,2-0.8s1.4,0.3,2,0.8
				C338.4,234.2,338.6,234.8,338.6,235.6z M328.1,235.6c0,0.8-0.3,1.4-0.8,1.9c-0.6,0.5-1.2,0.8-2,0.8c-0.8,0-1.4-0.3-2-0.8
				c-0.5-0.5-0.8-1.2-0.8-1.9c0-0.8,0.3-1.4,0.8-2c0.5-0.5,1.2-0.8,2-0.8s1.4,0.3,2,0.8C327.9,234.2,328.1,234.8,328.1,235.6z
				 M443.7,332.8c-0.1,1.8-0.8,3.4-2.1,4.8c-1.3,1.3-2.9,2-4.8,2.1 M402.7,246.4h40.6 M548.6,196.9c-0.1,1.8-0.8,3.4-2.1,4.8
				c-1.3,1.3-2.9,2-4.8,2.1 M263,73.8c0,0.8-0.3,1.4-0.8,1.9c-0.6,0.5-1.2,0.8-2,0.8s-1.4-0.3-1.9-0.8c-0.5-0.5-0.8-1.2-0.8-1.9
				c0-0.8,0.3-1.4,0.8-2c0.5-0.5,1.2-0.8,1.9-0.8s1.4,0.3,2,0.8C262.7,72.4,263,73,263,73.8z M252.4,73.8c0,0.8-0.3,1.4-0.8,1.9
				c-0.6,0.5-1.2,0.8-2,0.8c-0.8,0-1.4-0.3-1.9-0.8c-0.5-0.5-0.8-1.2-0.8-1.9c0-0.8,0.3-1.4,0.8-2c0.5-0.5,1.2-0.8,1.9-0.8
				c0.8,0,1.4,0.3,2,0.8C252.2,72.4,252.4,73,252.4,73.8z M227,84.5V71.6c0,0,0-0.1,0-0.1l0.1-1.4c0.2-1.4,0.9-2.6,2-3.7
				c1.2-1.2,2.6-1.9,4.2-2h0.8h2.7 M241.9,73.8c0,0.8-0.3,1.4-0.8,1.9s-1.2,0.8-1.9,0.8c-0.8,0-1.4-0.3-2-0.8
				c-0.5-0.5-0.8-1.2-0.8-1.9c0-0.8,0.3-1.4,0.8-2c0.6-0.5,1.2-0.8,2-0.8c0.8,0,1.4,0.3,1.9,0.8C241.7,72.4,241.9,73,241.9,73.8z
				 M226.6,84.6h0.4v112.1c0,1.1,0.2,2.1,0.6,3 M302.7,246.3v-12.9c0,0,0-0.1,0-0.1l0.1-1.4c0.2-1.4,0.9-2.6,1.9-3.7
				c1.2-1.2,2.6-1.9,4.2-2h0.8h2.7 M302.4,246.4h0.4v-0.1 M302.7,246.4h0.3 M317.6,235.6c0,0.8-0.3,1.4-0.8,1.9
				c-0.5,0.5-1.2,0.8-2,0.8c-0.8,0-1.4-0.3-2-0.8c-0.5-0.5-0.8-1.2-0.8-1.9c0-0.8,0.3-1.4,0.8-2c0.6-0.5,1.2-0.8,2-0.8
				s1.4,0.3,2,0.8C317.4,234.2,317.6,234.8,317.6,235.6z M233.6,203.9c-0.3,0-0.6-0.1-0.9-0.2c-1.4-0.3-2.6-0.9-3.6-1.9
				c-0.6-0.7-1.1-1.4-1.5-2.1 M303.4,335.5c-0.4-0.9-0.6-1.9-0.6-3v-86.1"/>
		</g>
	</g>
</g>
<g id="circles">
	<g transform="matrix( 1, 0, 0, 1, 0,0) ">
		<g>
			<g id="Layer4_0_FILL">
				<path fill="#2C538A" d="M145.9,291.8c-4.5,14-3.4,27.5,3.3,40.5c6.7,13.1,17,21.9,31,26.4c14,4.5,27.5,3.4,40.6-3.3
					c13.1-6.7,21.9-17,26.4-31c4.5-14,3.4-27.5-3.3-40.6c-6.7-13-17.1-21.8-31.1-26.3c-14-4.5-27.5-3.4-40.5,3.3
					C159.1,267.5,150.3,277.8,145.9,291.8 M680.1,81.4c-5.1-9.9-12.9-16.6-23.5-20C646,58,635.7,58.9,625.8,64
					c-9.9,5.1-16.6,13-20,23.5c-3.4,10.6-2.5,20.8,2.5,30.8c5.1,9.9,12.9,16.6,23.5,20s20.8,2.6,30.8-2.5c9.9-5.1,16.6-12.9,20-23.5
					C686,101.7,685.2,91.4,680.1,81.4z"/>
				<path fill="#BAD727" d="M88.5,181.1c-8.9-2.9-17.6-2.2-26,2.1c-8.3,4.2-13.9,10.8-16.8,19.8c-2.9,8.9-2.2,17.5,2,25.9
					c4.3,8.3,11,13.9,19.8,16.9c8.9,2.9,17.6,2.2,26-2.1c8.3-4.3,13.9-10.9,16.8-19.9c2.9-8.9,2.2-17.6-2.1-25.9
					C104,189.7,97.4,184.1,88.5,181.1 M603.4,290.2c-6-11.6-15.2-19.4-27.7-23.5c-12.4-4-24.5-3-36.2,2.9
					c-11.6,6-19.5,15.2-23.5,27.6c-3.9,12.4-2.9,24.5,3,36.1c5.9,11.7,15.2,19.5,27.7,23.5c12.4,4,24.4,3,36.1-2.9
					c11.6-5.9,19.5-15.1,23.5-27.6C610.3,313.9,609.3,301.8,603.4,290.2z"/>
				<path fill="#F7571A" d="M706.8,225.8c0-8.9-3.2-16.6-9.5-22.9c-6.3-6.3-13.9-9.4-22.8-9.5c-8.9,0-16.5,3.2-22.8,9.5
					c-6.3,6.3-9.4,14-9.4,22.9c0,8.9,3.1,16.5,9.4,22.8c6.3,6.3,13.9,9.4,22.8,9.4c8.9,0,16.5-3.2,22.8-9.4
					C703.6,242.3,706.8,234.7,706.8,225.8 M95.3,62.3c-8.6,8.6-12.9,18.9-12.9,31.1c0,12.1,4.3,22.4,12.8,30.9
					c8.6,8.6,18.9,12.9,31,12.9c12.1-0.1,22.5-4.4,31.1-12.9c8.6-8.6,12.9-18.9,12.9-31c0-12.1-4.3-22.5-12.9-31
					c-8.5-8.6-18.9-12.8-31-12.8C114.2,49.5,103.8,53.7,95.3,62.3z"/>
			</g>
		</g>
		<g>
			<path id="Layer4_0_1_STROKES" fill="none" stroke="#A3A3A3" stroke-miterlimit="10" d="M685.2,78.7
				c-5.8-11.3-14.7-18.8-26.8-22.7c-12.1-3.9-23.8-3-35.1,2.8c-11.3,5.8-18.9,14.7-22.8,26.8s-2.9,23.8,2.9,35.1
				c4.9,9.6,12.1,16.6,21.6,20.9c0.1,0,0.2,0.1,0.3,0.1l2.9,1.2c0.6,0.2,1.3,0.5,2,0.7c12.1,3.9,23.8,2.9,35.1-2.9 M674.3,189
				c-10.1,0-18.8,3.6-26,10.8c-7.1,7.1-10.7,15.8-10.7,25.9s3.6,18.8,10.7,26c7.2,7.2,15.9,10.8,26,10.8c10.2,0,18.8-3.6,26-10.8
				c7.2-7.2,10.8-15.9,10.8-26 M609.7,287c-6.9-13.4-17.5-22.4-31.8-27.1c-14.3-4.6-28.2-3.5-41.6,3.4c-13.4,6.9-22.4,17.5-27,31.8
				c-4.7,14.3-3.6,28.2,3.3,41.6c6.9,13.4,17.5,22.4,31.8,27c14.3,4.6,28.2,3.5,41.5-3.4 M91.3,128.9c9.7,9.7,21.5,14.6,35.3,14.6
				c13.7,0,25.5-4.9,35.3-14.6c9.7-9.7,14.6-21.5,14.6-35.3c0-13.8-4.9-25.6-14.6-35.3c-9.8-9.8-21.5-14.6-35.3-14.6
				c-13.8,0-25.6,4.9-35.3,14.6 M66.1,250.7c10.3,3.3,20.2,2.5,29.8-2.4s16.1-12.5,19.4-22.8c3.3-10.3,2.5-20.3-2.5-29.9
				c-4.9-9.6-12.5-16.1-22.8-19.4c-10.3-3.3-20.3-2.5-29.8,2.4c-9.6,4.9-16.1,12.5-19.4,22.8 M224.3,362.1
				c14.8-7.7,24.8-19.5,30-35.4c5.1-15.9,3.9-31.4-3.8-46.3c-7.6-14.9-19.4-24.9-35.4-30c-15.9-5.2-31.4-3.9-46.3,3.8
				c-12.7,6.5-21.8,15.9-27.4,28.4c0,0.1-0.1,0.3-0.1,0.4l-1.5,3.8c-0.3,0.8-0.6,1.7-1,2.6c-5.1,16-3.9,31.4,3.8,46.3"/>
		</g>
	</g>
</g>
<g id="gears">
	<g transform="matrix( 1, 0, 0, 1, 0,0) ">
		<g>
			<g id="Layer3_0_FILL">
				<path fill="#83C4EC" d="M342.2,148.1l-11.1-2.7l6.3-10.1l-8.8-8.8l-9.6,6l-2.8-11.6h-12.4l-2.6,11.1l-10.1-6.3l-8.8,8.8l6,9.7
					l-11.6,2.7v12.4l11.1,2.6l-6.3,10.1l8.8,8.8l9.7-6l2.8,11.6h12.4l2.6-11.1l10.1,6.3l8.8-8.8l-6-9.7l11.6-2.7V148.1 M302.6,146.9
					c1.9-1.9,4.2-2.9,6.9-2.9s4.9,0.9,6.9,2.9c1.9,1.9,2.9,4.2,2.9,6.8c0,2.7-1,5-2.9,6.9c-1.9,1.9-4.2,2.8-6.9,2.8
					s-4.9-0.9-6.9-2.8c-1.9-1.9-2.9-4.2-2.9-6.9C299.8,151,300.8,148.8,302.6,146.9z"/>
				<path fill="#BAD727" d="M398.3,275.3l-0.5-2.1L398.3,275.3L398.3,275.3 M381.8,271.2l-1.4-0.9L381.8,271.2L381.8,271.2
					 M367.8,257l0.7-2c-0.7-0.6-1.3-1.1-2-1.8c0.6,0.6,1.3,1.2,1.9,1.8L367.8,257 M348.6,220.4l-0.6-0.1L348.6,220.4
					c0.5,3,1.2,6,2.2,8.9l-6.1,5.4l1,1.6l-0.9-1.6l6-5.4C349.9,226.4,349.1,223.5,348.6,220.4 M396.8,142.3L396.8,142.3l-0.5,2.1
					L396.8,142.3 M380.5,147.1l-1.4,0.8l-14.3,8.3l2.5,7.7l0.9,2.6c-1.9,1.7-3.7,3.4-5.2,5.1h0l-9.8-3.2l-9.1,15.8l7.3,6.6
					c-1.1,2.9-1.9,5.6-2.4,7.9l-8.9,1.9v18.2l7.9,1.7l0.6,0.1c0.5,3,1.3,6,2.3,8.9l-6,5.4l0.9,1.6l8.1,14.1l7.6-2.4l5,5.2
					c0.7,0.6,1.3,1.2,2,1.8l-0.7,2l-1.6,5.2l14.3,8.1l1.4,0.9l1.3-1.4l3.9-4.3c3.1,1.1,6.4,1.9,9.6,2.4l1.1,5.2l0.5,2.1l18.1,0
					l1.7-7.9c3.1-0.6,6.1-1.6,9.2-2.8l0,0h0l5.3,5.9l1.5-0.9l14.3-8.2l-2.8-8.5c0.3-0.3,0.7-0.7,1-1l2.6-2.6
					c0.8-0.9,1.6-1.8,2.3-2.8h0l0,0l8.5,2.7l1.3-2.2l7.8-13.5l-6-5.4l-1.4-1.3c0.7-2.2,1.2-4.7,1.6-7.6l0.5-0.1l9.3-2V199l-10.1-2.2
					l-0.1-0.1l-0.5-0.1c-0.3-1.1-0.5-2.1-0.9-3.1l-1.1-3.1c0-0.1-0.1-0.2-0.1-0.4l6.9-6.3l1.1-1.1l-0.9-1.7l-8.1-14.1l-11.2,3.6h0
					c-0.8-0.9-1.6-1.6-2.3-2.3l-2.2-2l3.5-11l-14.3-8.3l-1.5-0.8l-7.9,8.8h-0.1c-0.8-0.2-1.5-0.5-2.3-0.6c-1.2-0.3-2.5-0.6-3.7-0.9
					l-2-9.2l-0.5-2.1h-18.1l-0.5,2.1l-1.9,9.2c-1.4,0.3-3,0.7-4.9,1.2c-0.4,0.1-0.9,0.3-1.4,0.4h0L380.5,147.1 M405.8,168.4
					c11.7,0,21.7,4.1,30,12.4s12.4,18.2,12.4,29.9c0,11.7-4.1,21.7-12.4,30c-8.3,8.2-18.3,12.3-30,12.3c-11.7,0-21.6-4.1-29.9-12.3
					c-8.3-8.3-12.4-18.3-12.4-30c0-11.7,4.1-21.6,12.4-29.9S394.1,168.4,405.8,168.4 M435.8,180.8c-8.3-8.3-18.3-12.4-30-12.4
					c-11.7,0-21.6,4.1-29.9,12.4s-12.4,18.2-12.4,29.9c0,11.7,4.1,21.7,12.4,30c8.3,8.2,18.2,12.3,29.9,12.3
					c11.7,0,21.7-4.1,30-12.3c8.3-8.3,12.4-18.3,12.4-30C448.1,199,444,189,435.8,180.8 M405.9,185.7c6.9,0,12.7,2.4,17.6,7.3
					c4.9,4.9,7.3,10.7,7.3,17.6s-2.4,12.7-7.3,17.6c-4.9,4.9-10.7,7.3-17.6,7.3c-6.9,0-12.7-2.4-17.6-7.3s-7.3-10.7-7.3-17.6
					c0-6.9,2.4-12.7,7.3-17.6S399,185.7,405.9,185.7 M380.5,147.1L380.5,147.1l-1.4,0.8L380.5,147.1 M427.3,264.6L427.3,264.6
					l5.3,5.9v0L427.3,264.6 M451.5,246.6L451.5,246.6l8.5,2.8v-0.1L451.5,246.6 M431.3,146.3L431.3,146.3l-8,8.8h0.1L431.3,146.3
					 M363,171.5L363,171.5c1.6-1.7,3.3-3.4,5.3-5.1l-0.9-2.6l0.8,2.6C366.4,167.9,364.7,169.6,363,171.5z"/>
				<path fill="#FFFFFF" d="M423.5,193c-4.9-4.9-10.7-7.3-17.6-7.3c-6.9,0-12.7,2.4-17.6,7.3s-7.3,10.7-7.3,17.6
					c0,6.9,2.4,12.7,7.3,17.6s10.7,7.3,17.6,7.3c6.9,0,12.7-2.4,17.6-7.3c4.9-4.9,7.3-10.7,7.3-17.6S428.3,197.9,423.5,193z"/>
			</g>
		</g>
		<g>
			<path id="Layer3_0_1_STROKES" fill="none" stroke="#000000" stroke-miterlimit="10" d="M380.6,147.1l-1.5,0.9l-14.3,8.2l2.5,7.7
				l0.9,2.6c-1.9,1.7-3.7,3.4-5.2,5.1h0l-9.8-3.2l-9.1,15.8l7.3,6.6c-1.1,2.9-1.9,5.6-2.4,7.9l-8.9,1.9v18.2l8,1.7l0.6,0.1
				c0.5,3,1.3,6,2.3,8.9l-6,5.4l0.9,1.7l8.1,14l7.6-2.4l5,5.2c0.7,0.6,1.3,1.2,2,1.7l-0.7,2l-1.7,5.2l14.3,8.2l1.5,0.9 M383.1,269.8
				l3.9-4.3c3.1,1.1,6.4,1.9,9.6,2.4l1.1,5.2l0.5,2.1l18.1,0 M427.2,264.6L427.2,264.6l5.4,5.9 M434,269.7l14.3-8.2l-2.8-8.5
				c0.3-0.3,0.7-0.6,1-1l2.6-2.7 M451.5,246.6L451.5,246.6l8.5,2.7 M461.3,247.1l7.8-13.5l-6-5.4 M463.8,219.1l9.3-2V199l-10.1-2.2
				l-0.2,0 M461.4,193.6l-1-3.1c0-0.1-0.1-0.2-0.1-0.4l6.9-6.3 M467.4,181.1l-8.1-14.1l-11.2,3.6 M445.7,168.4l-2.2-2l3.5-11
				l-14.3-8.2 M431.3,146.3l-8,8.8h-0.1c-0.8-0.2-1.5-0.5-2.3-0.6c-1.2-0.3-2.5-0.6-3.7-0.9l-2-9.2 M414.9,142.3h-18.1l-0.5,2.1
				l-2,9.2c-1.4,0.3-3,0.7-4.9,1.2c-0.5,0.1-0.9,0.3-1.4,0.4l-7.4-8.3l0,0 M342.2,160.4v-12.3l-11.1-2.7l6.3-10.1l-8.8-8.8l-9.6,6
				l-2.8-11.6h-12.4l-2.6,11.1l-10.1-6.3l-8.8,8.8l6,9.7l-11.6,2.7v12.4l11.1,2.6l-6.3,10.1l8.8,8.8l9.7-6l2.8,11.6h12.4l2.6-11.1
				l10.1,6.3l8.8-8.8l-6-9.7L342.2,160.4z M415.4,144.4l-0.4-2.1h-0.1 M432.8,147.2l-1.4-0.9l0,0 M430.8,210.6
				c0,6.9-2.4,12.7-7.3,17.6c-4.9,4.9-10.7,7.3-17.6,7.3c-6.9,0-12.7-2.4-17.6-7.3s-7.3-10.7-7.3-17.6c0-6.9,2.4-12.7,7.3-17.6
				s10.7-7.3,17.6-7.3c6.9,0,12.7,2.4,17.6,7.3C428.3,197.9,430.8,203.7,430.8,210.6z M448,170.7c-0.8-0.8-1.6-1.6-2.3-2.3
				 M462.8,196.8l-0.5-0.1c-0.3-1-0.5-2.1-0.9-3.1 M467.1,183.9l1.2-1.1l-1-1.7 M463,228.1l-1.4-1.3c0.7-2.5,1.3-5.1,1.6-7.6
				l0.5-0.1 M432.6,270.5L432.6,270.5l1.5-0.9 M416.4,275.3L416.4,275.3l1.8-7.9c3.1-0.6,6.1-1.6,9.1-2.8 M460,249.3L460,249.3
				l1.3-2.2 M449.1,249.3c0.8-0.9,1.6-1.8,2.4-2.8 M381.8,271.2L381.8,271.2l1.3-1.4 M309.5,163.4c-2.7,0-4.9-0.9-6.9-2.8
				c-1.9-1.9-2.9-4.2-2.9-6.9c0-2.7,1-4.9,2.9-6.8c1.9-1.9,4.2-2.9,6.9-2.9s4.9,0.9,6.9,2.9c1.9,1.9,2.9,4.2,2.9,6.8
				c0,2.7-1,5-2.9,6.9C314.4,162.4,312.2,163.4,309.5,163.4z"/>
		</g>
		<g>
			<path id="Layer3_0_2_STROKES" fill="none" stroke="#FEFEFE" stroke-miterlimit="10" d="M405.8,168.4c-11.7,0-21.6,4.1-29.9,12.4
				s-12.4,18.2-12.4,29.9c0,11.7,4.1,21.7,12.4,30c8.3,8.2,18.2,12.3,29.9,12.3c11.7,0,21.7-4.1,30-12.3c8.3-8.3,12.4-18.3,12.4-30
				c0-11.7-4.1-21.6-12.4-29.9S417.5,168.4,405.8,168.4z"/>
		</g>
		<g>
			<path id="Layer3_0_3_STROKES" fill="none" stroke="#203A5F" d="M515.5,162.1h-5.8c-0.7-1.9-1.8-3.7-3.1-5.2l2.9-5.1
				c-2.7-2.6-5.9-4.4-9.5-5.4l-2.9,5.1c-0.9-0.2-1.9-0.3-2.9-0.3c-0.7,0-1.8,0.1-3.1,0.3l-2.9-5.1c-3.6,1.1-6.8,2.9-9.5,5.6l2.9,5.1
				c-1.2,1.5-2.2,3.2-2.9,5h-5.9c-0.5,1.9-0.7,3.7-0.7,5.6c0,1.8,0.2,3.6,0.7,5.4h5.9c0.7,1.9,1.6,3.6,2.9,5.1l-2.9,5.1
				c2.7,2.7,5.9,4.6,9.5,5.6l2.9-5.1c1,0.2,2,0.3,3.1,0.3c1.1,0,2.1-0.1,2.9-0.3l2.9,5.1c3.6-1,6.8-2.8,9.6-5.4l-3-5.1
				c1.3-1.5,2.4-3.3,3.1-5.3h5.8c0.4-1.9,0.7-3.7,0.7-5.4C516.3,165.9,516,164,515.5,162.1z M494.3,172.9c-1.5,0-2.7-0.5-3.7-1.5
				c-1-1-1.5-2.3-1.5-3.7c0-1.4,0.5-2.7,1.5-3.7c1-1,2.2-1.5,3.7-1.5c1.4,0,2.6,0.5,3.6,1.5c1,1,1.6,2.3,1.6,3.7
				c0,1.4-0.5,2.7-1.6,3.7C496.9,172.4,495.7,172.9,494.3,172.9z M400.9,294.8H395c-0.7-1.9-1.7-3.7-3-5.2l2.9-5.1
				c-2.7-2.6-5.8-4.4-9.5-5.4l-2.9,5.1c-0.9-0.2-1.9-0.3-2.9-0.3c-0.7,0-1.8,0.1-3.1,0.3l-3-5.1c-3.6,1.1-6.7,2.9-9.4,5.6l2.9,5.1
				c-1.2,1.5-2.2,3.2-2.9,5h-5.9c-0.5,1.9-0.7,3.7-0.7,5.6c0,1.8,0.2,3.6,0.7,5.4h5.9c0.7,1.9,1.6,3.6,2.9,5.1l-3,5.1
				c2.7,2.7,5.9,4.5,9.5,5.5l2.9-5c1,0.2,2,0.3,3.1,0.3c1.1,0,2.1-0.1,2.9-0.3l2.9,5.1c3.6-1,6.8-2.8,9.6-5.5l-3-5.1
				c1.3-1.5,2.4-3.3,3.1-5.3h5.9c0.4-1.9,0.6-3.7,0.6-5.4C401.6,298.5,401.4,296.7,400.9,294.8z M379.6,305.5
				c-1.5,0-2.7-0.5-3.7-1.5c-1-1-1.5-2.3-1.5-3.7c0-1.4,0.5-2.7,1.5-3.7c1-1,2.2-1.5,3.7-1.5c1.4,0,2.6,0.5,3.6,1.5
				c1,1,1.5,2.3,1.5,3.7c0,1.4-0.5,2.7-1.5,3.7C382.3,305,381,305.5,379.6,305.5z"/>
		</g>
		<g>
			<path id="Layer3_0_4_STROKES" fill="none" stroke="#3A6FBB" d="M378.6,123.1h-4c-0.5-1.3-1.2-2.5-2.1-3.5l2-3.5
				c-1.9-1.8-4-3-6.5-3.7l-2,3.4l-2-0.2c-0.8,0-1.5,0.1-2.1,0.2l-2-3.5c-2.5,0.7-4.7,2-6.5,3.8l2,3.4c-0.8,1-1.5,2.1-2,3.4h-4
				c-0.3,1.3-0.5,2.5-0.5,3.8c0,1.3,0.1,2.5,0.5,3.7h4c0.4,1.3,1.1,2.4,2,3.5l-2,3.4c1.9,1.8,4,3.1,6.4,3.8l2-3.5
				c0.9,0.1,1.6,0.2,2.1,0.2c0.7,0,1.4-0.1,2-0.2l2,3.5c2.5-0.7,4.7-1.9,6.5-3.8l-2-3.4c1-1,1.7-2.2,2.1-3.6h4
				c0.3-1.2,0.4-2.4,0.4-3.7C379,125.6,378.9,124.4,378.6,123.1z M364,130.4c-1,0-1.8-0.4-2.5-1.1c-0.7-0.7-1-1.5-1-2.5
				c0-1,0.4-1.8,1-2.5c0.7-0.7,1.5-1.1,2.5-1.1c1,0,1.8,0.4,2.5,1.1c0.7,0.7,1.1,1.5,1.1,2.5c0,1-0.4,1.8-1.1,2.5
				C365.9,130.1,365,130.4,364,130.4z M357.7,268.1h-4c-0.5-1.3-1.2-2.5-2.1-3.5l2-3.5c-1.9-1.8-4-3-6.5-3.7l-2,3.4l-2-0.1
				c-0.8,0-1.5,0.1-2.1,0.2l-2-3.5c-2.5,0.7-4.7,2-6.5,3.8l2,3.5c-0.8,1-1.5,2.1-1.9,3.4h-4c-0.3,1.3-0.5,2.5-0.5,3.8
				c0,1.3,0.2,2.5,0.5,3.7h4c0.4,1.3,1.1,2.4,1.9,3.5l-2,3.5c1.9,1.8,4.1,3.1,6.5,3.8l2-3.4c0.9,0.1,1.6,0.2,2.1,0.2
				c0.7,0,1.4-0.1,2-0.2l2,3.5c2.5-0.7,4.7-2,6.5-3.8l-2-3.5c1-1,1.7-2.2,2.1-3.6h4c0.3-1.2,0.4-2.4,0.4-3.7
				C358.1,270.7,358,269.4,357.7,268.1z M343.1,275.5c-1,0-1.8-0.4-2.5-1c-0.7-0.7-1-1.5-1-2.5c0-1,0.3-1.8,1-2.5
				c0.7-0.7,1.5-1.1,2.5-1.1c1,0,1.8,0.4,2.5,1.1c0.7,0.7,1.1,1.5,1.1,2.5c0,1-0.4,1.8-1.1,2.5C344.9,275.1,344.1,275.5,343.1,275.5
				z"/>
		</g>
		<g>
			<path id="Layer3_0_5_STROKES" fill="none" stroke="#F7571A" stroke-miterlimit="10" d="M471.2,140.3h-2.8
				c-0.4-0.9-0.9-1.8-1.5-2.5l1.4-2.4c-1.3-1.3-2.8-2.1-4.6-2.6l-1.4,2.4c-0.4-0.1-0.9-0.1-1.4-0.1s-1,0.1-1.5,0.1l-1.4-2.4
				c-1.7,0.5-3.2,1.4-4.6,2.7l1.5,2.5c-0.6,0.7-1.1,1.5-1.4,2.4h-2.9c-0.2,1.1-0.4,2-0.4,2.7c0,0.8,0.1,1.7,0.4,2.7h2.8
				c0.4,0.9,0.9,1.7,1.5,2.4l-1.5,2.4c1.3,1.3,2.8,2.2,4.6,2.7l1.4-2.4c0.5,0.1,1,0.1,1.5,0.1s1-0.1,1.4-0.1l1.5,2.4
				c1.7-0.4,3.2-1.3,4.6-2.6l-1.5-2.4c0.7-0.7,1.2-1.6,1.5-2.5h2.8c0.2-0.8,0.3-1.7,0.3-2.7C471.5,142,471.4,141.1,471.2,140.3z
				 M460.9,145.4c-0.7,0-1.3-0.2-1.8-0.7c-0.5-0.5-0.8-1.1-0.8-1.8c0-0.7,0.3-1.3,0.8-1.8c0.5-0.5,1-0.8,1.8-0.8s1.3,0.3,1.8,0.8
				c0.5,0.5,0.8,1.1,0.8,1.8c0,0.7-0.2,1.3-0.8,1.8C462.2,145.2,461.6,145.4,460.9,145.4z"/>
		</g>
	</g>
</g>
<g id="connectors">
	<g transform="matrix( 1, 0, 0, 1, 0,0) ">
		<g>
			<g id="Layer2_0_FILL">
				<path fill="#FEFEFE" d="M235.5,259.5L235.5,259.5c-0.5,0-0.9,0.2-1.2,0.5c-0.4,0.4-0.6,0.8-0.6,1.2v0c0,0.4,0.2,0.8,0.6,1.1
					c0.3,0.3,0.7,0.5,1.2,0.5c0.4,0,0.8-0.2,1.1-0.5c0.3-0.3,0.5-0.7,0.5-1.1v-0.1c0-0.4-0.2-0.8-0.5-1.2
					C236.3,259.7,235.9,259.5,235.5,259.5 M342,215.9c0.6-0.6,0.9-1.2,0.9-2c0-0.8-0.3-1.4-0.9-2c-0.6-0.6-1.2-0.8-2-0.8
					c-0.8,0-1.4,0.3-2,0.8c-0.5,0.6-0.8,1.2-0.8,2c0,0.1,0,0.1,0,0.2c0,0.7,0.3,1.3,0.8,1.8c0.6,0.5,1.2,0.8,2,0.8
					C340.8,216.8,341.5,216.5,342,215.9 M178.4,91.2L178.4,91.2L178.4,91.2c0-0.5-0.2-0.9-0.5-1.2c-0.3-0.3-0.7-0.5-1.2-0.5
					c-0.5,0-0.9,0.2-1.2,0.5c-0.4,0.3-0.6,0.7-0.6,1.2v0.1c0,0.4,0.2,0.8,0.6,1.2c0.3,0.3,0.7,0.5,1.2,0.5c0.4,0,0.8-0.2,1.2-0.5
					C178.2,92,178.4,91.6,178.4,91.2 M117.4,215.7c0.4,0,0.8-0.1,1.1-0.4c0.3-0.3,0.4-0.6,0.4-1c0-0.1,0-0.1,0-0.1
					c0-0.4-0.2-0.7-0.4-0.9c-0.3-0.3-0.7-0.4-1.1-0.4c-0.4,0-0.8,0.2-1,0.4c-0.3,0.3-0.5,0.6-0.5,1.1c0,0.4,0.2,0.7,0.5,1
					C116.7,215.6,117,215.7,117.4,215.7 M531,265L531,265c-0.5,0-0.9,0.2-1.2,0.5c-0.3,0.4-0.5,0.8-0.5,1.2v0.1
					c0,0.4,0.2,0.8,0.5,1.1c0.3,0.3,0.7,0.5,1.2,0.5c0.5,0,0.9-0.2,1.2-0.5c0.4-0.3,0.5-0.7,0.5-1.1v0c0-0.4-0.2-0.8-0.5-1.2
					C531.8,265.2,531.4,265,531,265 M601.7,116.8c-0.4,0-0.8,0.2-1.2,0.5c-0.3,0.3-0.5,0.7-0.5,1.1v0.1v0c0,0.4,0.2,0.8,0.5,1.2
					c0.3,0.3,0.7,0.5,1.2,0.5c0.5,0,0.9-0.2,1.2-0.5c0.4-0.4,0.5-0.8,0.5-1.2v0c0-0.4-0.2-0.8-0.5-1.2
					C602.6,116.9,602.2,116.8,601.7,116.8 M464.6,225.1c-0.6-0.5-1.2-0.8-2-0.8s-1.4,0.3-2,0.8c-0.6,0.6-0.9,1.2-0.9,2
					c0,0.8,0.3,1.4,0.9,2c0.6,0.6,1.2,0.8,2,0.8s1.4-0.3,2-0.8c0.5-0.6,0.8-1.2,0.8-2c0-0.1,0-0.1,0-0.2
					C465.4,226.3,465.1,225.6,464.6,225.1 M639,226.8c0-0.4-0.2-0.7-0.5-1c-0.3-0.3-0.6-0.4-1-0.4c-0.4,0-0.8,0.1-1,0.4
					c-0.3,0.3-0.4,0.6-0.4,1c0,0.1,0,0.1,0,0.1c0,0.4,0.2,0.7,0.4,0.9c0.3,0.3,0.6,0.4,1,0.4c0.4,0,0.8-0.1,1-0.4
					C638.8,227.6,639,227.2,639,226.8z"/>
			</g>
		</g>
		<g>
			<path id="Layer2_0_1_STROKES" fill="none" stroke="#A3A3A3" stroke-miterlimit="10" d="M600,118.4L600,118.4
				c0-0.5,0.2-0.9,0.5-1.2c0.3-0.3,0.7-0.5,1.2-0.5c0.5,0,0.9,0.2,1.2,0.5c0.4,0.3,0.5,0.7,0.5,1.2v0c0,0.4-0.2,0.8-0.5,1.2
				c-0.3,0.3-0.7,0.5-1.2,0.5c-0.4,0-0.8-0.2-1.2-0.5C600.2,119.3,600,118.9,600,118.4L600,118.4h-15c-2.3,0-4.3,0.8-5.9,2.4
				c-1.6,1.6-2.5,3.6-2.5,6v91.8c0,1-0.2,2-0.5,2.8c-0.2,0.5-0.4,1-0.6,1.4c-0.4,0.6-0.8,1.2-1.3,1.7c-1.6,1.6-3.5,2.4-5.7,2.4H636
				c0,0,0-0.1,0-0.1c0-0.4,0.1-0.7,0.4-1c0.3-0.3,0.6-0.4,1-0.4c0.4,0,0.8,0.1,1,0.4c0.3,0.3,0.5,0.6,0.5,1c0,0.4-0.2,0.8-0.5,1.1
				c-0.3,0.3-0.6,0.4-1,0.4c-0.4,0-0.8-0.1-1-0.4c-0.2-0.2-0.4-0.5-0.4-0.9 M465.5,226.9c0-0.7-0.3-1.3-0.8-1.8
				c-0.6-0.5-1.2-0.8-2-0.8s-1.4,0.3-2,0.8c-0.6,0.6-0.9,1.2-0.9,2c0,0.8,0.3,1.4,0.9,2c0.6,0.6,1.2,0.8,2,0.8s1.4-0.3,2-0.8
				c0.5-0.6,0.8-1.2,0.8-2C465.5,227,465.5,227,465.5,226.9h57.4h45.7 M337.3,214.1c0,0.7,0.3,1.3,0.8,1.8c0.6,0.5,1.2,0.8,2,0.8
				c0.8,0,1.4-0.3,2-0.8c0.6-0.6,0.9-1.2,0.9-2c0-0.8-0.3-1.4-0.9-2c-0.6-0.6-1.2-0.8-2-0.8c-0.8,0-1.4,0.3-2,0.8
				c-0.5,0.6-0.8,1.2-0.8,2C337.3,214,337.3,214.1,337.3,214.1h-93.6c-2.2,0.1-4.1,0.9-5.7,2.5c-0.7,0.7-1.2,1.4-1.6,2.1
				c-0.2,0.3-0.3,0.6-0.4,0.9c-0.3,0.9-0.4,1.9-0.4,2.9v36.9h0.1c0.4,0,0.8,0.2,1.1,0.5c0.3,0.4,0.5,0.8,0.5,1.2v0.1
				c0,0.4-0.2,0.8-0.5,1.1c-0.3,0.3-0.7,0.5-1.1,0.5c-0.5,0-0.9-0.2-1.2-0.5c-0.4-0.3-0.6-0.7-0.6-1.1v0c0-0.4,0.2-0.8,0.6-1.2
				c0.3-0.3,0.7-0.5,1.1-0.5 M522.8,226.9c2.2,0.1,4.1,0.9,5.7,2.5c0.7,0.7,1.2,1.4,1.6,2.2c0.2,0.3,0.3,0.6,0.4,0.9
				c0.3,0.9,0.5,1.8,0.5,2.8V265c0.4,0,0.8,0.2,1.2,0.5c0.4,0.4,0.5,0.8,0.5,1.2v0c0,0.4-0.2,0.8-0.5,1.1c-0.3,0.3-0.7,0.5-1.2,0.5
				c-0.4,0-0.8-0.2-1.2-0.5c-0.3-0.3-0.5-0.7-0.5-1.1v-0.1c0-0.4,0.2-0.8,0.5-1.2c0.3-0.3,0.7-0.5,1.2-0.5h0 M178.4,91.1L178.4,91.1
				c0-0.5-0.2-0.8-0.5-1.2c-0.3-0.3-0.7-0.5-1.2-0.5c-0.5,0-0.9,0.2-1.2,0.5c-0.4,0.3-0.6,0.7-0.6,1.2v0.1c0,0.4,0.2,0.8,0.6,1.2
				c0.3,0.3,0.7,0.5,1.2,0.5c0.4,0,0.8-0.2,1.2-0.5C178.2,92,178.4,91.6,178.4,91.1L178.4,91.1h8.8h1.1c2.3,0,4.3,0.8,5.9,2.5
				c1.6,1.6,2.4,3.6,2.4,5.9v106.2c0,1,0.1,2,0.4,2.9c0.2,0.5,0.4,1,0.7,1.4c0.4,0.6,0.8,1.2,1.3,1.7c1.6,1.6,3.5,2.4,5.7,2.5h38.8
				 M118.9,214.1c0-0.4-0.2-0.7-0.4-0.9c-0.3-0.3-0.7-0.4-1.1-0.4c-0.4,0-0.8,0.2-1,0.4c-0.3,0.3-0.5,0.6-0.5,1.1
				c0,0.4,0.2,0.7,0.5,1c0.3,0.3,0.6,0.4,1,0.4c0.4,0,0.8-0.1,1.1-0.4c0.3-0.3,0.4-0.6,0.4-1C118.9,214.2,118.9,214.1,118.9,214.1
				h86"/>
		</g>
	</g>
</g>
<g id="icons">
	<g transform="matrix( 1, 0, 0, 1, 0,0) ">
		<g>
			<path id="Layer1_0_1_STROKES" fill="none" stroke="#3A6FBB" stroke-linecap="round" stroke-linejoin="round" d="M75.7,212.4h-16
				v-15.9h16V212.4z M75.7,233h-16v-15.9h16V233z"/>
		</g>
		<g>
			<path id="Layer1_0_2_STROKES" fill="none" stroke="#3A6FBB" stroke-linejoin="round" d="M79.7,231.4h17.5 M79.7,228.3h17.5
				 M79.7,225.1h17.5 M79.7,221.9h17.5 M79.7,218.7h17.5 M79.7,210.8h17.5 M79.7,207.6h17.5 M79.7,204.4h17.5 M79.7,201.2h17.5
				 M79.7,198h17.5"/>
		</g>
		<g>
			<path id="Layer1_0_3_STROKES" fill="none" stroke="#FFFFFF" stroke-linecap="round" stroke-linejoin="round" d="M659.4,78.2H629
				c-1,0-1.8,0.3-2.5,1c-0.7,0.7-1,1.6-1,2.6v0.1c0,0.9,0.4,1.7,1,2.4c0.7,0.7,1.5,1.1,2.5,1.1h30.5v8 M656,114.5
				c0.4-0.9,1-1.6,1.9-2c0.9-0.4,1.8-0.4,2.8-0.1c0.9,0.4,1.6,1,2,1.8c0.4,0.9,0.5,1.8,0.1,2.8c-0.3,0.9-1,1.6-1.8,2
				c-0.9,0.4-1.8,0.5-2.8,0.1c-0.9-0.3-1.6-0.9-2-1.8C655.8,116.3,655.7,115.4,656,114.5l-7.6-2.8c-0.2,0.5-0.5,0.9-0.9,1.3
				c-0.7,0.7-1.5,1-2.5,1c-1,0-1.8-0.3-2.5-1c-0.7-0.7-1-1.5-1-2.5c0-1,0.4-1.9,1-2.6c0.7-0.7,1.5-1,2.5-1c1,0,1.8,0.3,2.5,1
				c0.3,0.3,0.5,0.6,0.7,1l7.9-4c-0.4-0.9-0.5-1.8-0.2-2.7c0.3-0.9,0.9-1.6,1.8-2.1c0.9-0.4,1.8-0.5,2.7-0.2c1,0.3,1.7,0.9,2.1,1.8
				c0.4,0.9,0.5,1.8,0.2,2.8c-0.3,0.9-0.9,1.6-1.8,2.1c-0.9,0.5-1.8,0.5-2.7,0.2c-1-0.3-1.7-0.9-2.1-1.8 M648.3,108.8
				c0.2,0.5,0.4,1,0.4,1.6c0,0.4-0.1,0.8-0.2,1.3 M694.8,210.4h-40v31.3h40V210.4z M691.4,220.9h-33.1v-5.2h33.1V220.9z
				 M661.8,226.1h10.5 M660,229.6h12.2 M660,233.1h12.2 M660,236.6h12.2 M677.5,236.6h10.5 M677.5,226.1h12.2 M677.5,229.6h12.2
				 M677.5,233.1h12.2 M639.7,119.3H629c-1,0-1.8-0.3-2.5-1c-0.7-0.7-1-1.6-1-2.6V81.8 M191,294.4c-0.1,0.3-0.3,0.6-0.6,0.9
				c-0.4,0.4-1,0.6-1.6,0.6c-0.6,0-1.1-0.2-1.6-0.6c-0.1-0.1-0.1-0.1-0.2-0.2l-9.9,8.3c0.3,0.4,0.5,0.9,0.5,1.4
				c0,0.6-0.2,1.1-0.6,1.6c-0.5,0.4-1,0.6-1.6,0.6s-1.1-0.2-1.6-0.6c-0.4-0.5-0.6-1-0.6-1.6c0-0.6,0.2-1.2,0.6-1.6
				c0.5-0.4,1-0.7,1.6-0.7s1.1,0.2,1.6,0.7c0.1,0.1,0.1,0.1,0.1,0.1 M187.1,295c-0.3-0.4-0.5-0.9-0.5-1.4c0-0.6,0.2-1.2,0.7-1.6
				c0.4-0.5,0.9-0.7,1.6-0.7c0.6,0,1.2,0.2,1.6,0.7c0.4,0.4,0.7,0.9,0.7,1.6c0,0.3,0,0.5-0.1,0.8 M200.1,297.4
				c0.1-0.3,0.3-0.6,0.6-0.9c0.4-0.5,0.9-0.7,1.6-0.7c0.6,0,1.1,0.2,1.5,0.5l10.5-12.2c-0.1-0.1-0.1-0.1-0.1-0.2
				c-0.5-0.4-0.7-1-0.7-1.6c0-0.6,0.2-1.1,0.7-1.6c0.4-0.5,0.9-0.7,1.5-0.7c0.6,0,1.2,0.2,1.7,0.7c0.4,0.4,0.6,0.9,0.6,1.6
				c0,0.6-0.2,1.2-0.6,1.6c-0.5,0.4-1,0.7-1.7,0.7c-0.5,0-1-0.2-1.4-0.5 M203.8,296.4c0,0,0.1,0.1,0.1,0.1c0.4,0.4,0.6,0.9,0.6,1.6
				c0,0.6-0.2,1.1-0.6,1.5c-0.5,0.4-1,0.6-1.6,0.6s-1.2-0.2-1.6-0.6c-0.5-0.5-0.7-1-0.7-1.5c0-0.3,0.1-0.5,0.1-0.7 M219.1,331.6
				v-33.5h-6.8v33.5H219.1h2.3 M169.9,331.6h2.3v-11.1h6.7v11.1h6.8v-22.4h6.6v22.4h6.8v-17.9h6.7v17.9h6.7 M172.1,331.6h6.7
				 M185.6,331.6h6.6 M198.9,331.6h6.7 M629,81.8h28.6"/>
		</g>
		<g>
			<path id="Layer1_0_4_STROKES" fill="none" stroke="#3A6FBB" stroke-linecap="round" stroke-linejoin="round" d="M551.7,313.3
				c0,0.7-0.2,1.3-0.7,1.8c-0.5,0.4-1.1,0.7-1.7,0.7c-0.7,0-1.2-0.2-1.6-0.7c-0.5-0.5-0.8-1.1-0.8-1.8s0.3-1.2,0.8-1.6
				c0.4-0.5,1-0.7,1.6-0.7c0.6,0,1.2,0.2,1.7,0.7C551.4,312.1,551.7,312.6,551.7,313.3z M563.5,313.3c0,0.7-0.2,1.3-0.7,1.8
				c-0.5,0.4-1.1,0.7-1.8,0.7s-1.2-0.2-1.6-0.7c-0.5-0.5-0.7-1.1-0.7-1.8s0.2-1.2,0.7-1.6c0.4-0.5,1-0.7,1.6-0.7s1.3,0.2,1.8,0.7
				C563.3,312.1,563.5,312.6,563.5,313.3z M545.7,301.5l-11.8,11.8l11.8,11.9 M575.3,313.3c0,0.7-0.2,1.3-0.7,1.8
				c-0.5,0.4-1,0.7-1.7,0.7c-0.7,0-1.2-0.2-1.7-0.7c-0.5-0.5-0.8-1.1-0.8-1.8s0.3-1.2,0.8-1.6c0.4-0.5,1-0.7,1.7-0.7
				c0.7,0,1.2,0.2,1.7,0.7C575.1,312.1,575.3,312.6,575.3,313.3z M576.5,301.5l11.8,11.8l-11.8,11.9"/>
		</g>
		<g>
			<path id="Layer1_0_5_STROKES" fill="none" stroke="#FFFFFF" stroke-linejoin="round" d="M134.9,98.2v4.5h-29.6v-9.1h29.6V98.2
				h13.6V82.3h-13.6v4.6h-29.6v-9.2h29.6v4.6 M148.5,67.4v14.8 M148.5,98.2v15.9h-13.6v4.6h-29.6v-9.1h29.6v4.5 M191,294.4l9.1,3"/>
		</g>
	</g>
</g>
</svg>
