<?xml version="1.0" encoding="utf-8"?>
<!-- Generator: Adobe Illustrator 23.0.1, SVG Export Plug-In . SVG Version: 6.00 Build 0)  -->
<svg version="1.1" id="Layer_vx1" xmlns="http://www.w3.org/2000/svg" xmlns:xlink="http://www.w3.org/1999/xlink" x="0px" y="0px"
	 viewBox="0 0 750 400" enable-background="new 0 0 750 400" xml:space="preserve">
<g id="clouds_bits">
	<g transform="matrix( 1, 0, 0, 1, 0,0) ">
		<g>
			<g id="Layer8_0_FILL">
				<path fill="#DEDEDE" d="M426.5,212.4c-0.4-0.4-0.8-0.5-1.4-0.5c-0.5,0-1,0.2-1.3,0.5c-0.4,0.4-0.6,0.9-0.6,1.4
					c0,0.5,0.2,1,0.6,1.3c0.4,0.4,0.8,0.6,1.3,0.6c0.5,0,1-0.2,1.4-0.6c0.4-0.4,0.5-0.8,0.5-1.3C427,213.3,426.8,212.8,426.5,212.4
					 M168.1,230.6c-1.1,0-2,0.4-2.7,1.1c-0.7,0.8-1.1,1.7-1.1,2.8c0,1.1,0.4,2,1.1,2.7c0.8,0.7,1.7,1.1,2.7,1.1c1.1,0,2-0.4,2.8-1.1
					c0.7-0.7,1.1-1.6,1.1-2.7c0-1.1-0.4-2-1.1-2.8C170.1,230.9,169.2,230.6,168.1,230.6z"/>
				<path fill="#BFBFBF" d="M236.4,281.5l-3-5.2h-6.1l-3,5.2l3,5.2h6.1L236.4,281.5 M228.3,277.8h4.4l2.2,3.8l-2.2,3.8h-4.4
					l-2.2-3.8L228.3,277.8 M563.8,98.9l3-5.2l-3-5.2h-6l-3,5.2l3,5.2H563.8 M562.9,97.6h-4.4l-2.1-3.8l2.1-3.8h4.4l2.2,3.8
					L562.9,97.6z"/>
				<path fill="#83C4EC" d="M180.4,189.1c-0.2,0.2-0.3,0.4-0.3,0.7c0,0.3,0.1,0.5,0.3,0.7c0.2,0.2,0.4,0.3,0.7,0.3h2.6v2.6
					c0,0.3,0.1,0.5,0.3,0.6c0.2,0.2,0.4,0.3,0.7,0.3c0.3,0,0.5-0.1,0.7-0.3c0.2-0.2,0.3-0.4,0.3-0.6v-2.6h2.5c0.3,0,0.5-0.1,0.7-0.3
					c0.2-0.2,0.3-0.4,0.3-0.7c0-0.3-0.1-0.5-0.3-0.7c-0.2-0.2-0.4-0.3-0.7-0.3h-2.5v-2.6c0-0.6-0.3-0.9-1-0.9
					c-0.6,0-0.9,0.3-0.9,0.9v2.6h-2.6C180.9,188.9,180.7,188.9,180.4,189.1 M292.4,306.4c-0.3,0-0.5,0.1-0.7,0.3
					c-0.2,0.2-0.3,0.4-0.3,0.6v2.6h-2.6c-0.3,0-0.5,0.1-0.6,0.3c-0.2,0.2-0.3,0.4-0.3,0.7s0.1,0.5,0.3,0.6c0.2,0.2,0.4,0.3,0.6,0.3
					h2.6v2.6c0,0.3,0.1,0.5,0.3,0.7c0.2,0.2,0.4,0.3,0.7,0.3s0.5-0.1,0.6-0.3c0.2-0.2,0.3-0.4,0.3-0.7v-2.6h2.6
					c0.3,0,0.5-0.1,0.7-0.3c0.2-0.2,0.3-0.4,0.3-0.6c0-0.6-0.3-1-0.9-1h-2.6v-2.6c0-0.2-0.1-0.4-0.3-0.6
					C292.8,306.4,292.6,306.4,292.4,306.4 M613.7,191.7c-0.2-0.2-0.4-0.3-0.7-0.3s-0.5,0.1-0.7,0.3c-0.2,0.2-0.3,0.4-0.3,0.7v2.6
					h-2.5c-0.3,0-0.5,0.1-0.7,0.3c-0.2,0.2-0.3,0.4-0.3,0.6c0,0.3,0.1,0.5,0.3,0.7c0.2,0.2,0.4,0.3,0.7,0.3h2.5v2.6
					c0,0.3,0.1,0.5,0.3,0.7c0.2,0.2,0.4,0.3,0.7,0.3c0.3,0,0.5-0.1,0.7-0.3c0.2-0.2,0.3-0.4,0.3-0.7v-2.6h2.5c0.3,0,0.5-0.1,0.7-0.3
					c0.2-0.2,0.3-0.4,0.3-0.7c0-0.2-0.1-0.4-0.3-0.6c-0.2-0.2-0.4-0.3-0.7-0.3H614v-2.6C614,192.1,613.9,191.9,613.7,191.7
					 M316.8,83.3c-0.2-0.2-0.4-0.3-0.6-0.3h-2.6v-2.6c0-0.3-0.1-0.5-0.3-0.7c-0.2-0.2-0.4-0.3-0.7-0.3c-0.2,0-0.5,0.1-0.6,0.3
					c-0.2,0.2-0.3,0.4-0.3,0.7V83h-2.5c-0.6,0-1,0.3-1,0.9c0,0.3,0.1,0.5,0.3,0.7c0.2,0.2,0.4,0.3,0.7,0.3h2.5v2.5
					c0,0.3,0.1,0.5,0.3,0.7c0.2,0.2,0.4,0.3,0.6,0.3c0.6,0,0.9-0.3,0.9-1v-2.5h2.6c0.3,0,0.5-0.1,0.6-0.3c0.2-0.2,0.3-0.4,0.3-0.7
					C317.1,83.7,317,83.5,316.8,83.3 M466.6,109.3c0.3,0,0.5-0.1,0.7-0.3c0.2-0.2,0.2-0.4,0.3-0.7c0-0.6-0.3-0.9-0.9-0.9H464v-2.6
					c0-0.2-0.1-0.5-0.3-0.7c-0.2-0.2-0.4-0.3-0.6-0.3s-0.5,0.1-0.7,0.3c-0.2,0.2-0.3,0.4-0.3,0.7v2.6h-2.6c-0.3,0-0.5,0.1-0.6,0.3
					c-0.2,0.2-0.3,0.4-0.3,0.7c0,0.3,0.1,0.5,0.3,0.7c0.2,0.2,0.4,0.3,0.6,0.3h2.6v2.5c0,0.3,0.1,0.5,0.3,0.7
					c0.2,0.2,0.4,0.3,0.7,0.3c0.3,0,0.5-0.1,0.6-0.3c0.2-0.2,0.3-0.4,0.3-0.7v-2.5H466.6z"/>
				<path fill="#BAD727" d="M259.2,47.3c0.5,0,1-0.2,1.3-0.5c0.4-0.4,0.6-0.8,0.6-1.3s-0.2-1-0.6-1.4c-0.4-0.4-0.8-0.5-1.3-0.5
					c-0.5,0-1,0.2-1.4,0.5c-0.4,0.4-0.6,0.8-0.6,1.4s0.2,1,0.6,1.3C258.2,47.1,258.7,47.3,259.2,47.3 M278.9,340.5
					c0.4-0.4,0.6-0.9,0.6-1.4c0-0.5-0.2-1-0.6-1.4c-0.4-0.4-0.8-0.5-1.4-0.5c-0.5,0-1,0.2-1.3,0.5c-0.4,0.4-0.6,0.8-0.6,1.4
					c0,0.5,0.2,1,0.6,1.4c0.4,0.4,0.8,0.5,1.3,0.5C278.1,341,278.5,340.9,278.9,340.5z"/>
				<path fill="#F7571A" d="M323.8,170.7c0-0.5-0.2-1-0.6-1.3c-0.4-0.4-0.8-0.6-1.4-0.6c-0.5,0-1,0.2-1.4,0.6
					c-0.4,0.4-0.5,0.8-0.5,1.3c0,0.5,0.2,1,0.5,1.4c0.4,0.4,0.8,0.6,1.4,0.6c0.5,0,1-0.2,1.4-0.6
					C323.6,171.7,323.8,171.2,323.8,170.7 M449.5,241.7c0-0.5-0.2-1-0.6-1.3c-0.4-0.4-0.8-0.6-1.4-0.6s-1,0.2-1.4,0.6
					c-0.4,0.4-0.5,0.8-0.5,1.3c0,0.5,0.2,1,0.5,1.4c0.4,0.4,0.8,0.5,1.4,0.5c0.5,0,1-0.2,1.4-0.5
					C449.3,242.7,449.5,242.2,449.5,241.7z"/>
				<path fill="#3D3D3D" fill-opacity="0.1686" d="M504.1,36.5c-1.1-1.1-2.5-1.6-4-1.6c-1.7,0-3.1,0.6-4.3,1.9
					c-0.9-2.3-2.4-4.2-4.4-5.6c-2.1-1.4-4.4-2.2-7-2.2c-3.4,0-6.3,1.2-8.6,3.5c-1.7-1.1-3.5-1.6-5.4-1.6c-1.3,0-2.5,0.2-3.7,0.7
					c-0.4-1.7-1.3-3.1-2.7-4.2c-1.4-1.1-3-1.6-4.8-1.6c-1.4,0-2.8,0.4-4,1.1c-1.2,0.7-2.1,1.7-2.8,2.9c-1.6-2-3.6-3.6-6-4.8
					c-2.4-1.2-5-1.8-7.7-1.8c-4.7,0-8.8,1.7-12.2,5c-3.4,3.3-5.1,7.3-5.3,12.1H506C505.9,38.9,505.3,37.6,504.1,36.5 M661.3,243.8
					c-3.6-2.5-7.5-3.7-11.8-3.7c-2.8,0-5.5,0.5-8.1,1.6c-2.5,1-4.8,2.5-6.6,4.4c-2.8-1.8-5.8-2.8-9.2-2.8c-2.1,0-4.2,0.4-6.3,1.2
					c-0.7-2.9-2.2-5.2-4.5-7.1c-2.4-1.9-5.1-2.8-8.2-2.8c-2.4,0-4.7,0.6-6.8,1.9c-2,1.2-3.6,2.9-4.7,4.9c-2.8-3.5-6.1-6.2-10.1-8.1
					c-4.1-2-8.5-3.1-13.1-3.1c-8,0-14.9,2.8-20.7,8.5c-5.8,5.6-8.7,12.5-8.9,20.5h144c-0.2-2.6-1.2-4.8-3.2-6.6
					c-2-1.8-4.3-2.8-6.9-2.8c-2.9,0-5.4,1-7.4,3.1C667.3,249.3,664.8,246.2,661.3,243.8 M233.4,128.8c-7.5-8-16.6-12.1-27.1-12.1
					c-6,0-11.7,1.4-17,4.3c-5.2,2.8-9.6,6.6-13.2,11.5c-1.4-2.9-3.5-5.3-6.1-7.1c-2.7-1.8-5.7-2.7-8.9-2.7c-4,0-7.5,1.3-10.6,4
					c-3,2.6-5,6-6,10.1c-2.7-1.2-5.4-1.8-8.2-1.8c-4.3,0-8.3,1.3-11.9,3.9c-2.5-2.7-5.4-4.9-8.6-6.4c-3.4-1.5-6.9-2.3-10.6-2.3
					c-5.7,0-10.8,1.8-15.5,5.3c-4.5,3.4-7.8,7.9-9.8,13.5c-1.2-1.4-2.7-2.5-4.3-3.3c-1.7-0.8-3.5-1.2-5.3-1.2c-3.5,0-6.5,1.3-9,3.8
					c-2.5,2.6-3.9,5.7-4.2,9.4h187.8C244.9,146.5,241,136.8,233.4,128.8z"/>
				<path fill="#D1D1D1" d="M523.3,287c1.1,0,2-0.4,2.8-1.1c0.7-0.8,1.1-1.7,1.1-2.8c0-1.1-0.4-2-1.1-2.7c-0.8-0.7-1.7-1.1-2.8-1.1
					c-1.1,0-2,0.4-2.7,1.1c-0.8,0.8-1.1,1.7-1.1,2.7c0,1.1,0.4,2,1.1,2.8C521.3,286.6,522.2,287,523.3,287z"/>
			</g>
		</g>
		<g>
			<path id="Layer8_0_1_STROKES" fill="none" stroke="#BFBFBF" stroke-width="2" stroke-miterlimit="10" d="M550.2,146.4
				c0,0.9-0.3,1.7-1,2.3c-0.6,0.6-1.4,1-2.3,1c0,0-0.1,0-0.1,0c-0.9,0-1.6-0.4-2.2-1c-0.2-0.2-0.4-0.5-0.6-0.8
				c-0.2-0.5-0.3-1-0.3-1.5c0-0.9,0.3-1.6,1-2.3c0.6-0.6,1.4-1,2.3-1c0.9,0,1.6,0.3,2.3,1C549.8,144.7,550.2,145.5,550.2,146.4z
				 M479,352.9c0,0.9-0.3,1.7-1,2.3c-0.6,0.6-1.4,1-2.3,1c-0.9,0-1.7-0.3-2.3-1c-0.6-0.6-1-1.4-1-2.3c0-0.9,0.3-1.7,1-2.3
				c0.6-0.6,1.4-0.9,2.3-0.9c0.9,0,1.6,0.3,2.3,0.9C478.6,351.2,479,351.9,479,352.9z M305.9,143.6c0,0.9-0.3,1.7-0.9,2.3
				s-1.4,0.9-2.3,0.9c-0.9,0-1.6-0.3-2.3-0.9c-0.6-0.6-0.9-1.4-0.9-2.3c0-0.9,0.3-1.6,0.9-2.3c0.6-0.6,1.4-0.9,2.3-0.9
				c0.9,0,1.7,0.3,2.3,0.9C305.6,142,305.9,142.8,305.9,143.6z"/>
		</g>
	</g>
</g>
<g id="database">
	<g transform="matrix( 1, 0, 0, 1, 0,0) ">
		<g>
			<g id="Layer7_0_FILL">
				<path fill="#CACACA" d="M279.3,206.4c-5.8,2.4-12.9,3.7-21,3.7c-8.2,0-15.2-1.2-20.9-3.7c-5.2-2.2-8.1-4.8-8.7-7.8
					c0-0.1,0-0.3,0-0.5v13.7c0.1,3.4,3,6.3,8.7,8.6c5.7,2.4,12.7,3.6,20.9,3.6c8.2,0,15.2-1.2,21-3.6c5.6-2.4,8.5-5.3,8.6-8.6v-14.1
					C287.8,201.2,284.9,204.1,279.3,206.4 M287.9,225.7v-13.8c-0.1,3.4-3,6.3-8.6,8.6c-5.8,2.4-12.9,3.6-21,3.6
					c-8.2,0-15.2-1.2-20.9-3.6c-5.7-2.4-8.6-5.3-8.7-8.6v13.8c0,3.4,2.9,6.4,8.7,8.8c5.7,2.5,12.7,3.7,20.9,3.7
					c8.2,0,15.2-1.2,21-3.7C285,232.1,287.9,229.1,287.9,225.7 M237.3,193.9c-1.6-0.6-2.9-1.3-4.1-2.1c-3-1.9-4.6-4.1-4.6-6.5v12.8
					c0,0.2,0,0.4,0,0.5c0.6,3,3.4,5.6,8.7,7.8c5.7,2.4,12.7,3.7,20.9,3.7c8.2,0,15.2-1.2,21-3.7c5.6-2.4,8.5-5.3,8.6-8.6v-12.4
					c-0.1,3.4-3,6.2-8.6,8.6c-5.8,2.5-12.9,3.7-21,3.7C250,197.6,243,196.4,237.3,193.9 M400.3,206.4c-5.8,2.4-12.9,3.7-21,3.7
					c-8.2,0-15.2-1.2-20.9-3.7c-5.2-2.2-8.1-4.8-8.6-7.8c0-0.1,0-0.2,0-0.4v13.6c0.1,3.4,3,6.3,8.7,8.6c5.7,2.4,12.7,3.6,20.9,3.6
					c8.2,0,15.2-1.2,21-3.6c5.6-2.4,8.5-5.3,8.6-8.6v-14.1C408.8,201.2,405.9,204.1,400.3,206.4 M408.9,225.7v-13.8
					c-0.1,3.4-3,6.3-8.6,8.6c-5.8,2.4-12.9,3.6-21,3.6c-8.2,0-15.2-1.2-20.9-3.6c-5.7-2.4-8.6-5.3-8.7-8.6v13.8
					c0,3.4,2.9,6.4,8.7,8.8c5.7,2.5,12.7,3.7,20.9,3.7c8.2,0,15.2-1.2,21-3.7C406,232.1,408.9,229.1,408.9,225.7 M358.3,193.9
					c-1.6-0.6-2.9-1.3-4-2.1c-3-1.9-4.6-4.1-4.6-6.5v12.9c0,0.2,0,0.3,0,0.4c0.6,3,3.5,5.6,8.6,7.8c5.7,2.4,12.7,3.7,20.9,3.7
					c8.2,0,15.2-1.2,21-3.7c5.6-2.4,8.5-5.3,8.6-8.6v-12.4c-0.1,3.4-3,6.2-8.6,8.6c-5.8,2.5-12.9,3.7-21,3.7
					C371,197.6,364,196.4,358.3,193.9 M470.6,225.7c0,3.4,2.9,6.4,8.7,8.8c5.7,2.5,12.7,3.7,20.9,3.7c8.2,0,15.2-1.2,21-3.7
					c5.7-2.4,8.6-5.4,8.6-8.8v-13.8c-0.1,3.4-3,6.3-8.6,8.6c-5.8,2.4-12.9,3.6-21,3.6c-8.2,0-15.2-1.2-20.9-3.6
					c-5.7-2.4-8.6-5.3-8.7-8.6V225.7 M479.3,206.4c-5.2-2.2-8.1-4.8-8.6-7.8c0-0.1,0-0.3,0-0.5v13.7c0.1,3.4,3,6.3,8.7,8.6
					c5.7,2.4,12.7,3.6,20.9,3.6c8.2,0,15.2-1.2,21-3.6c5.6-2.4,8.5-5.3,8.6-8.6v-14.1c-0.1,3.4-3,6.3-8.6,8.6
					c-5.8,2.4-12.9,3.7-21,3.7C492,210.1,485,208.9,479.3,206.4 M521.3,193.9c-5.8,2.5-12.9,3.7-21,3.7c-8.2,0-15.2-1.2-20.9-3.7
					c-1.6-0.6-2.9-1.3-4-2.1c-3-1.9-4.6-4.1-4.6-6.5v12.8c0,0.2,0,0.4,0,0.5c0.6,3,3.5,5.6,8.6,7.8c5.7,2.4,12.7,3.7,20.9,3.7
					c8.2,0,15.2-1.2,21-3.7c5.6-2.4,8.5-5.3,8.6-8.6v-12.4C529.8,188.7,526.9,191.6,521.3,193.9z"/>
			</g>
		</g>
		<g>
			<path id="Layer7_0_1_STROKES" fill="none" stroke="#000000" stroke-linecap="round" stroke-linejoin="round" d="M470.6,185.4
				v-0.3c0-2.5,1.5-4.8,4.6-6.7c1.1-0.8,2.5-1.5,4-2.1c5.7-2.4,12.7-3.7,20.9-3.7c8.2,0,15.2,1.2,21,3.7c5.7,2.4,8.6,5.4,8.6,8.8
				v0.3v12.4v14.1v13.8c0,3.4-2.9,6.4-8.6,8.8c-5.8,2.5-12.9,3.7-21,3.7c-8.2,0-15.2-1.2-20.9-3.7c-5.8-2.4-8.7-5.4-8.7-8.8v-13.8
				v-13.7V185.4c0.1,2.4,1.6,4.6,4.6,6.5c1.1,0.7,2.5,1.4,4,2.1c5.7,2.5,12.7,3.7,20.9,3.7c8.2,0,15.2-1.2,21-3.7
				c5.6-2.4,8.5-5.2,8.6-8.6 M349.6,185.4v-0.3c0-2.5,1.5-4.8,4.6-6.7c1.1-0.8,2.5-1.5,4-2.1c5.7-2.4,12.7-3.7,20.9-3.7
				c8.2,0,15.2,1.2,21,3.7c5.7,2.4,8.6,5.4,8.6,8.8v0.3v12.4v14.1v13.8c0,3.4-2.9,6.4-8.6,8.8c-5.8,2.5-12.9,3.7-21,3.7
				c-8.2,0-15.2-1.2-20.9-3.7c-5.8-2.4-8.7-5.4-8.7-8.8v-13.8v-13.6V185.4c0.1,2.4,1.6,4.6,4.6,6.5c1.1,0.7,2.5,1.4,4,2.1
				c5.7,2.5,12.7,3.7,20.9,3.7c8.2,0,15.2-1.2,21-3.7c5.6-2.4,8.5-5.2,8.6-8.6 M529.8,197.8c-0.1,3.4-3,6.3-8.6,8.6
				c-5.8,2.4-12.9,3.7-21,3.7c-8.2,0-15.2-1.2-20.9-3.7c-5.2-2.2-8.1-4.8-8.6-7.8c0-0.1,0-0.3,0-0.5 M529.8,211.9
				c-0.1,3.4-3,6.3-8.6,8.6c-5.8,2.4-12.9,3.6-21,3.6c-8.2,0-15.2-1.2-20.9-3.6c-5.7-2.4-8.6-5.3-8.7-8.6 M408.9,197.8
				c-0.1,3.4-3,6.3-8.6,8.6c-5.8,2.4-12.9,3.7-21,3.7c-8.2,0-15.2-1.2-20.9-3.7c-5.2-2.2-8.1-4.8-8.6-7.8c0-0.1,0-0.2,0-0.4
				 M408.9,211.9c-0.1,3.4-3,6.3-8.6,8.6c-5.8,2.4-12.9,3.6-21,3.6c-8.2,0-15.2-1.2-20.9-3.6c-5.7-2.4-8.6-5.3-8.7-8.6 M228.6,185.4
				v-0.3c0-2.5,1.6-4.8,4.6-6.7c1.1-0.8,2.5-1.5,4.1-2.1c5.7-2.4,12.7-3.7,20.9-3.7c8.2,0,15.2,1.2,21,3.7c5.7,2.4,8.6,5.4,8.6,8.8
				v0.3v12.4v14.1v13.8c0,3.4-2.9,6.4-8.6,8.8c-5.8,2.5-12.9,3.7-21,3.7c-8.2,0-15.2-1.2-20.9-3.7c-5.8-2.4-8.7-5.4-8.7-8.8v-13.8
				v-13.7V185.4c0.1,2.4,1.6,4.6,4.6,6.5c1.1,0.7,2.5,1.4,4.1,2.1c5.7,2.5,12.7,3.7,20.9,3.7c8.2,0,15.2-1.2,21-3.7
				c5.6-2.4,8.5-5.2,8.6-8.6 M287.9,197.8c-0.1,3.4-3,6.3-8.6,8.6c-5.8,2.4-12.9,3.7-21,3.7c-8.2,0-15.2-1.2-20.9-3.7
				c-5.2-2.2-8.1-4.8-8.7-7.8c0-0.1,0-0.3,0-0.5 M287.9,211.9c-0.1,3.4-3,6.3-8.6,8.6c-5.8,2.4-12.9,3.6-21,3.6
				c-8.2,0-15.2-1.2-20.9-3.6c-5.7-2.4-8.6-5.3-8.7-8.6"/>
		</g>
	</g>
</g>
<g id="server">
	<g transform="matrix( 1, 0, 0, 1, 0,0) ">
		<g>
			<g id="Layer6_0_FILL">
				<path fill="#CBE15C" d="M414.3,83.5h-72.8v18.9h72.8V83.5 M351.1,89.8c0.9,0,1.6,0.3,2.3,0.9c0.1,0.1,0.2,0.2,0.3,0.4
					c0.3,0.5,0.5,1.1,0.5,1.8V93c0,0.8-0.3,1.6-0.8,2.3c-0.7,0.6-1.4,0.9-2.3,0.9c-0.9,0-1.7-0.3-2.3-0.9c-0.6-0.7-1-1.4-1-2.3v-0.1
					c0-0.8,0.3-1.6,1-2.2C349.4,90.1,350.2,89.8,351.1,89.8 M383.1,91.8c0.4-0.3,0.8-0.4,1.1-0.4c0.4,0,0.8,0.1,1.1,0.4
					c0.3,0.4,0.4,0.7,0.5,1.1V93c0,0.5-0.2,0.9-0.5,1.2c-0.3,0.3-0.7,0.5-1.1,0.5c-0.4,0-0.8-0.2-1.1-0.5c-0.2-0.3-0.4-0.6-0.4-0.9
					c0,0,0-0.1,0-0.1v-0.3C382.7,92.6,382.9,92.2,383.1,91.8 M392.6,91.8c0.3-0.3,0.7-0.4,1.1-0.4c0.5,0,0.9,0.1,1.1,0.4
					c0.3,0.4,0.4,0.7,0.5,1.1V93c0,0.5-0.2,0.9-0.5,1.2c-0.3,0.3-0.7,0.5-1.1,0.5c-0.4,0-0.8-0.2-1.1-0.5c-0.3-0.4-0.5-0.8-0.5-1.2
					v-0.1C392.3,92.6,392.4,92.2,392.6,91.8 M403.3,91.4c0.5,0,0.9,0.1,1.1,0.4c0.2,0.4,0.4,0.7,0.4,1.1V93c0,0.5-0.1,0.9-0.4,1.2
					c-0.3,0.3-0.7,0.5-1.1,0.5c-0.4,0-0.8-0.2-1.1-0.5c-0.2-0.3-0.4-0.6-0.5-0.9c0,0,0-0.1,0-0.1v-0.3c0-0.4,0.2-0.7,0.5-1.1
					C402.5,91.5,402.9,91.4,403.3,91.4 M404.4,91.8c-0.3-0.3-0.7-0.4-1.1-0.4c-0.4,0-0.8,0.1-1.1,0.4c-0.3,0.4-0.5,0.7-0.5,1.1v0.3
					c0,0,0,0.1,0,0.1c0.1,0.3,0.2,0.5,0.5,0.7c0.4,0.3,0.8,0.5,1.1,0.5c0.5,0,0.9-0.2,1.1-0.5c0.2-0.2,0.4-0.6,0.4-1v-0.1
					C404.8,92.6,404.6,92.2,404.4,91.8 M393.7,91.4c-0.4,0-0.8,0.1-1.1,0.4c-0.2,0.4-0.4,0.7-0.5,1.1V93c0.1,0.4,0.3,0.7,0.5,1
					c0.3,0.3,0.7,0.5,1.1,0.5c0.5,0,0.9-0.2,1.1-0.5c0.3-0.2,0.4-0.6,0.5-1v-0.1c-0.1-0.4-0.2-0.7-0.5-1.1
					C394.6,91.5,394.2,91.4,393.7,91.4 M384.3,91.4c-0.4,0-0.8,0.1-1.1,0.4c-0.3,0.4-0.4,0.7-0.4,1.1v0.3c0,0,0,0.1,0,0.1
					c0.1,0.3,0.2,0.5,0.4,0.7c0.4,0.3,0.8,0.5,1.1,0.5c0.4,0,0.8-0.2,1.1-0.5c0.3-0.2,0.4-0.6,0.5-1v-0.1c0-0.4-0.2-0.7-0.5-1.1
					C385.1,91.5,384.7,91.4,384.3,91.4 M353.4,90.8c-0.7-0.6-1.4-1-2.3-1c-0.9,0-1.7,0.3-2.3,1c-0.6,0.5-0.9,1.2-1,2.1V93
					c0,0.8,0.3,1.6,1,2.3c0.6,0.5,1.3,0.8,2.3,0.8c0.9,0,1.6-0.3,2.3-0.8c0.5-0.7,0.8-1.4,0.8-2.3v-0.1c0-0.7-0.2-1.3-0.5-1.8
					C353.6,91,353.5,90.9,353.4,90.8 M341.5,134.1c0,1.7,0.6,3.2,2,4.5c1.2,1.2,2.7,1.8,4.4,1.8H408c1.7,0,3.1-0.6,4.3-1.8
					c1.3-1.3,1.9-2.8,1.9-4.5v-12.7h-72.8V134.1 M384.3,132.6c-0.4,0-0.8-0.2-1.1-0.6c-0.3-0.3-0.4-0.7-0.4-1.1
					c0-0.4,0.1-0.8,0.4-1.1c0.4-0.3,0.8-0.4,1.1-0.4c0.3,0,0.7,0.1,1.1,0.4c0.3,0.3,0.5,0.6,0.5,1.1c0,0.4-0.2,0.8-0.5,1.1
					C385.1,132.4,384.7,132.6,384.3,132.6 M401.6,130.9c0-0.4,0.2-0.8,0.5-1.1c0.4-0.3,0.8-0.4,1.1-0.4c0.4,0,0.8,0.1,1.1,0.4
					c0.3,0.3,0.4,0.6,0.4,1.1c0,0.4-0.1,0.8-0.4,1.1c-0.3,0.4-0.7,0.6-1.1,0.6c-0.4,0-0.8-0.2-1.1-0.6
					C401.8,131.7,401.6,131.3,401.6,130.9 M392.6,132c-0.3-0.3-0.5-0.7-0.5-1.1c0-0.4,0.2-0.8,0.5-1.1c0.3-0.3,0.7-0.4,1.1-0.4
					c0.4,0,0.8,0.1,1.1,0.4c0.3,0.3,0.5,0.6,0.5,1.1c0,0.4-0.2,0.8-0.5,1.1c-0.3,0.4-0.7,0.6-1.1,0.6
					C393.3,132.6,392.9,132.4,392.6,132 M353.4,133.3c-0.7,0.6-1.4,0.9-2.3,0.9c-0.9,0-1.7-0.3-2.3-0.9c-0.6-0.7-1-1.5-1-2.3
					c0-0.8,0.3-1.6,1-2.3c0.6-0.6,1.3-0.9,2.3-0.9c0.9,0,1.6,0.3,2.3,0.9c0.5,0.7,0.8,1.4,0.8,2.3
					C354.2,131.8,353.9,132.5,353.4,133.3 M351.1,134.1c0.9,0,1.6-0.3,2.3-0.9c0.5-0.7,0.8-1.5,0.8-2.3c0-0.8-0.3-1.6-0.8-2.3
					c-0.7-0.6-1.4-0.9-2.3-0.9c-0.9,0-1.7,0.3-2.3,0.9c-0.6,0.7-1,1.4-1,2.3c0,0.8,0.3,1.6,1,2.3
					C349.4,133.8,350.2,134.1,351.1,134.1 M392.1,130.9c0,0.4,0.2,0.8,0.5,1.1c0.3,0.4,0.7,0.6,1.1,0.6c0.5,0,0.9-0.2,1.1-0.6
					c0.3-0.3,0.5-0.7,0.5-1.1c0-0.4-0.2-0.8-0.5-1.1c-0.3-0.3-0.7-0.4-1.1-0.4c-0.4,0-0.8,0.1-1.1,0.4
					C392.3,130.2,392.1,130.5,392.1,130.9 M402.1,129.9c-0.3,0.3-0.5,0.6-0.5,1.1c0,0.4,0.2,0.8,0.5,1.1c0.4,0.4,0.8,0.6,1.1,0.6
					c0.5,0,0.9-0.2,1.1-0.6c0.3-0.3,0.4-0.7,0.4-1.1c0-0.4-0.1-0.8-0.4-1.1c-0.3-0.3-0.7-0.4-1.1-0.4
					C402.9,129.4,402.5,129.6,402.1,129.9 M383.1,132c0.4,0.4,0.8,0.6,1.1,0.6c0.4,0,0.8-0.2,1.1-0.6c0.3-0.3,0.5-0.7,0.5-1.1
					c0-0.4-0.2-0.8-0.5-1.1c-0.4-0.3-0.8-0.4-1.1-0.4c-0.4,0-0.8,0.1-1.1,0.4c-0.3,0.3-0.4,0.6-0.4,1.1
					C382.7,131.3,382.9,131.7,383.1,132 M341.5,102.4v19h72.8v-19H341.5 M402.1,110.9c0.4-0.4,0.8-0.6,1.1-0.6
					c0.5,0,0.9,0.2,1.1,0.6c0.3,0.3,0.4,0.6,0.4,1.1c0,0.4-0.1,0.8-0.4,1.1c-0.3,0.3-0.7,0.4-1.1,0.4c-0.4,0-0.8-0.1-1.1-0.4
					c-0.3-0.3-0.5-0.7-0.5-1.1C401.6,111.6,401.8,111.2,402.1,110.9 M392.6,110.9c0.3-0.4,0.7-0.6,1.1-0.6c0.5,0,0.9,0.2,1.1,0.6
					c0.3,0.3,0.5,0.6,0.5,1.1c0,0.4-0.2,0.8-0.5,1.1c-0.3,0.3-0.7,0.4-1.1,0.4c-0.4,0-0.8-0.1-1.1-0.4c-0.3-0.3-0.5-0.7-0.5-1.1
					C392.1,111.6,392.3,111.2,392.6,110.9 M385.9,112c0,0.4-0.2,0.8-0.5,1.1c-0.4,0.3-0.8,0.4-1.1,0.4c-0.4,0-0.8-0.1-1.1-0.4
					c-0.3-0.3-0.4-0.7-0.4-1.1c0-0.4,0.1-0.8,0.4-1.1c0.4-0.4,0.8-0.6,1.1-0.6c0.4,0,0.8,0.2,1.1,0.6
					C385.7,111.2,385.9,111.6,385.9,112 M348.9,109.8c0.6-0.6,1.3-0.9,2.3-0.9c0.9,0,1.6,0.3,2.3,0.9c0.5,0.7,0.8,1.4,0.8,2.3
					c0,0.8-0.3,1.5-0.8,2.2c-0.7,0.6-1.4,1-2.3,1c-0.9,0-1.7-0.3-2.3-1c-0.6-0.7-1-1.4-1-2.2C347.9,111.2,348.2,110.4,348.9,109.8
					 M351.1,108.8c-0.9,0-1.7,0.3-2.3,0.9c-0.6,0.7-1,1.4-1,2.3c0,0.8,0.3,1.5,1,2.2c0.6,0.6,1.3,1,2.3,1c0.9,0,1.6-0.3,2.3-1
					c0.5-0.7,0.8-1.4,0.8-2.2c0-0.8-0.3-1.6-0.8-2.3C352.7,109.1,352,108.8,351.1,108.8 M385.4,113.1c0.3-0.3,0.5-0.7,0.5-1.1
					c0-0.4-0.2-0.8-0.5-1.1c-0.3-0.4-0.7-0.6-1.1-0.6c-0.4,0-0.8,0.2-1.1,0.6c-0.3,0.3-0.4,0.6-0.4,1.1c0,0.4,0.1,0.8,0.4,1.1
					c0.4,0.3,0.8,0.4,1.1,0.4C384.6,113.4,385,113.3,385.4,113.1 M393.7,110.3c-0.4,0-0.8,0.2-1.1,0.6c-0.3,0.3-0.5,0.6-0.5,1.1
					c0,0.4,0.2,0.8,0.5,1.1c0.3,0.3,0.7,0.4,1.1,0.4c0.4,0,0.8-0.1,1.1-0.4c0.3-0.3,0.5-0.7,0.5-1.1c0-0.4-0.2-0.8-0.5-1.1
					C394.6,110.5,394.2,110.3,393.7,110.3 M403.3,110.3c-0.4,0-0.8,0.2-1.1,0.6c-0.3,0.3-0.5,0.6-0.5,1.1c0,0.4,0.2,0.8,0.5,1.1
					c0.4,0.3,0.8,0.4,1.1,0.4c0.4,0,0.8-0.1,1.1-0.4c0.3-0.3,0.4-0.7,0.4-1.1c0-0.4-0.1-0.8-0.4-1.1
					C404.1,110.5,403.7,110.3,403.3,110.3 M360.5,29.7l-18.9,15.8h72.8l-18.9-15.8H360.5 M414.3,64.4V45.5h-72.8v18.9H414.3
					 M351.1,51.9c0.9,0,1.6,0.3,2.3,0.9c0.5,0.6,0.8,1.3,0.8,2.3c0,0.8-0.3,1.6-0.8,2.2c-0.7,0.7-1.4,1-2.3,1c-0.9,0-1.7-0.3-2.3-1
					c-0.6-0.6-1-1.3-1-2.2c0-0.9,0.3-1.7,1-2.3C349.4,52.2,350.2,51.9,351.1,51.9 M403.3,56.6c-0.4,0-0.8-0.1-1.1-0.4
					c-0.3-0.3-0.5-0.6-0.5-1.1c0-0.4,0.2-0.8,0.5-1.2c0.4-0.3,0.8-0.4,1.1-0.4c0.5,0,0.9,0.1,1.1,0.4c0.3,0.4,0.4,0.8,0.4,1.2
					c0,0.5-0.1,0.8-0.4,1.1C404.1,56.5,403.7,56.6,403.3,56.6 M385.9,55c0,0.5-0.2,0.8-0.5,1.1c-0.3,0.3-0.7,0.4-1.1,0.4
					c-0.4,0-0.8-0.1-1.1-0.4c-0.3-0.3-0.4-0.6-0.4-1.1c0-0.4,0.1-0.8,0.4-1.2c0.4-0.3,0.8-0.4,1.1-0.4c0.4,0,0.8,0.1,1.1,0.4
					C385.7,54.3,385.9,54.6,385.9,55 M392.6,56.2c-0.3-0.3-0.5-0.7-0.5-1.1s0.2-0.8,0.5-1.2c0.3-0.3,0.7-0.4,1.1-0.4
					c0.5,0,0.9,0.1,1.1,0.4c0.3,0.4,0.5,0.8,0.5,1.2c0,0.5-0.2,0.8-0.5,1.1c-0.3,0.3-0.7,0.4-1.1,0.4
					C393.3,56.6,392.9,56.5,392.6,56.2 M392.1,55c0,0.4,0.2,0.8,0.5,1.1c0.3,0.3,0.7,0.4,1.1,0.4c0.5,0,0.9-0.1,1.1-0.4
					c0.3-0.3,0.5-0.6,0.5-1.1c0-0.4-0.2-0.8-0.5-1.2c-0.3-0.3-0.7-0.4-1.1-0.4c-0.4,0-0.8,0.1-1.1,0.4
					C392.3,54.3,392.1,54.6,392.1,55 M385.4,56.2c0.3-0.3,0.5-0.6,0.5-1.1c0-0.4-0.2-0.8-0.5-1.2c-0.3-0.3-0.7-0.4-1.1-0.4
					c-0.4,0-0.8,0.1-1.1,0.4c-0.3,0.4-0.4,0.8-0.4,1.2c0,0.5,0.1,0.8,0.4,1.1c0.4,0.3,0.8,0.4,1.1,0.4
					C384.7,56.6,385.1,56.5,385.4,56.2 M402.1,56.2c0.4,0.3,0.8,0.4,1.1,0.4c0.5,0,0.9-0.1,1.1-0.4c0.3-0.3,0.4-0.6,0.4-1.1
					c0-0.4-0.1-0.8-0.4-1.2c-0.3-0.3-0.7-0.4-1.1-0.4c-0.4,0-0.8,0.1-1.1,0.4c-0.3,0.4-0.5,0.8-0.5,1.2
					C401.6,55.5,401.8,55.9,402.1,56.2 M353.4,52.8c-0.7-0.6-1.4-0.9-2.3-0.9c-0.9,0-1.7,0.3-2.3,0.9c-0.6,0.6-1,1.3-1,2.3
					c0,0.8,0.3,1.6,1,2.2c0.6,0.7,1.3,1,2.3,1c0.9,0,1.6-0.3,2.3-1c0.5-0.6,0.8-1.3,0.8-2.2C354.2,54.1,353.9,53.4,353.4,52.8
					 M414.3,83.4v-19h-72.8v19h0.2l-0.2,0.1L414.3,83.4L414.3,83.4L414.3,83.4 M351.1,70.8c0.9,0,1.6,0.3,2.3,1
					c0.3,0.4,0.6,0.8,0.7,1.2c0.1,0.3,0.1,0.7,0.1,1c0,0.8-0.3,1.6-0.8,2.3c-0.7,0.6-1.4,0.8-2.3,0.8c-0.5,0-1-0.1-1.4-0.3
					c-0.3-0.2-0.6-0.3-0.9-0.6c-0.6-0.7-1-1.4-1-2.3c0-0.9,0.3-1.6,1-2.2C349.4,71.2,350.2,70.8,351.1,70.8 M385.4,72.9
					c0.3,0.3,0.5,0.7,0.5,1.1s-0.2,0.8-0.5,1.1c-0.4,0.3-0.8,0.4-1.1,0.4c-0.4,0-0.8-0.2-1.1-0.4c-0.3-0.3-0.4-0.7-0.4-1.1
					c0-0.4,0.1-0.8,0.4-1.1c0.4-0.3,0.8-0.5,1.1-0.5C384.7,72.4,385.1,72.6,385.4,72.9 M392.1,74c0-0.4,0.2-0.8,0.5-1.1
					c0.3-0.3,0.7-0.5,1.1-0.5c0.5,0,0.9,0.2,1.1,0.5c0.3,0.3,0.5,0.7,0.5,1.1s-0.2,0.8-0.5,1.1c-0.3,0.3-0.7,0.4-1.1,0.4
					c-0.4,0-0.8-0.2-1.1-0.4C392.3,74.8,392.1,74.4,392.1,74 M402.1,72.9c0.4-0.3,0.8-0.5,1.1-0.5c0.5,0,0.9,0.2,1.1,0.5
					c0.3,0.3,0.4,0.7,0.4,1.1c0,0.4-0.1,0.8-0.4,1.1c-0.1,0-0.1,0.1-0.1,0.1c-0.3,0.2-0.7,0.3-1,0.3c-0.4,0-0.8-0.2-1.1-0.4
					c-0.3-0.3-0.5-0.7-0.5-1.1c0-0.3,0.1-0.6,0.3-0.8C401.9,73.1,402,73,402.1,72.9 M403.3,72.4c-0.4,0-0.8,0.2-1.1,0.5
					c-0.1,0.1-0.2,0.2-0.2,0.3c-0.2,0.2-0.3,0.5-0.3,0.8c0,0.4,0.2,0.8,0.5,1.1c0.4,0.3,0.8,0.4,1.1,0.4c0.4,0,0.7-0.1,1-0.3
					c0-0.1,0-0.1,0.1-0.1c0.3-0.3,0.4-0.7,0.4-1.1c0-0.4-0.1-0.8-0.4-1.1C404.1,72.6,403.7,72.4,403.3,72.4 M392.6,72.9
					c-0.3,0.3-0.5,0.7-0.5,1.1s0.2,0.8,0.5,1.1c0.3,0.3,0.7,0.4,1.1,0.4c0.4,0,0.8-0.2,1.1-0.4c0.3-0.3,0.5-0.7,0.5-1.1
					s-0.2-0.8-0.5-1.1c-0.3-0.3-0.7-0.5-1.1-0.5C393.3,72.4,392.9,72.6,392.6,72.9 M385.9,74c0-0.4-0.2-0.8-0.5-1.1
					c-0.3-0.3-0.7-0.5-1.1-0.5c-0.4,0-0.8,0.2-1.1,0.5c-0.3,0.3-0.4,0.7-0.4,1.1c0,0.4,0.1,0.8,0.4,1.1c0.4,0.3,0.8,0.4,1.1,0.4
					c0.3,0,0.7-0.2,1.1-0.4C385.7,74.8,385.9,74.4,385.9,74 M353.4,71.8c-0.7-0.6-1.4-1-2.3-1c-0.9,0-1.7,0.3-2.3,1
					c-0.6,0.6-1,1.3-1,2.2c0,0.8,0.3,1.6,1,2.3c0.2,0.2,0.5,0.4,0.9,0.6c0.4,0.2,0.9,0.3,1.4,0.3c0.9,0,1.6-0.3,2.3-0.8
					c0.5-0.7,0.8-1.4,0.8-2.3c0-0.3,0-0.7-0.1-1C354,72.6,353.7,72.2,353.4,71.8z"/>
			</g>
		</g>
		<g>
			<path id="Layer6_0_1_STROKES" fill="none" stroke="#000000" stroke-linecap="round" stroke-linejoin="round" d="M414.3,83.5
				L414.3,83.5L414.3,83.5V64.4h-72.8v19h0.2l-0.2,0.1H414.3L414.3,83.5 M341.5,64.4V45.5l18.9-15.8h34.9l18.9,15.8v18.9 M354.2,55
				c0,0.8-0.3,1.6-0.8,2.2c-0.7,0.7-1.4,1-2.3,1c-0.9,0-1.7-0.3-2.3-1c-0.6-0.6-1-1.3-1-2.2c0-0.9,0.3-1.7,1-2.3
				c0.6-0.6,1.3-0.9,2.3-0.9c0.9,0,1.6,0.3,2.3,0.9C353.9,53.4,354.2,54.1,354.2,55z M354.2,74c0,0.8-0.3,1.6-0.8,2.3
				c-0.7,0.6-1.4,0.8-2.3,0.8c-0.5,0-1-0.1-1.4-0.3c-0.3-0.2-0.6-0.3-0.9-0.6c-0.6-0.7-1-1.4-1-2.3c0-0.9,0.3-1.6,1-2.2
				c0.6-0.6,1.3-1,2.3-1c0.9,0,1.6,0.3,2.3,1c0.3,0.4,0.6,0.8,0.7,1.2C354.2,73.3,354.2,73.7,354.2,74z M341.5,83.5L341.5,83.5
				 M348.9,90.8c-0.6,0.6-1,1.4-1,2.2C347.9,92,348.3,91.3,348.9,90.8c0.6-0.6,1.3-0.9,2.3-0.9c0.9,0,1.6,0.3,2.3,1
				c0.1,0.1,0.2,0.2,0.3,0.3c-0.1-0.2-0.2-0.3-0.3-0.4c-0.7-0.6-1.4-0.9-2.3-0.9C350.2,89.8,349.4,90.1,348.9,90.8z M348.9,95.3
				c-0.6-0.7-1-1.4-1-2.3v-0.1 M353.4,95.3c-0.7,0.6-1.4,0.9-2.3,0.9c-0.9,0-1.7-0.3-2.3-0.9c0.6,0.5,1.3,0.8,2.3,0.8
				C352,96.1,352.7,95.8,353.4,95.3c0.5-0.7,0.8-1.4,0.8-2.3v-0.1c0-0.7-0.2-1.3-0.5-1.8 M404.8,55c0,0.5-0.1,0.8-0.4,1.1
				c-0.3,0.3-0.7,0.4-1.1,0.4c-0.4,0-0.8-0.1-1.1-0.4c-0.3-0.3-0.5-0.6-0.5-1.1c0-0.4,0.2-0.8,0.5-1.2c0.4-0.3,0.8-0.4,1.1-0.4
				c0.5,0,0.9,0.1,1.1,0.4C404.7,54.3,404.8,54.6,404.8,55z M385.9,55c0,0.5-0.2,0.8-0.5,1.1c-0.3,0.3-0.7,0.4-1.1,0.4
				c-0.4,0-0.8-0.1-1.1-0.4c-0.3-0.3-0.4-0.6-0.4-1.1c0-0.4,0.1-0.8,0.4-1.2c0.4-0.3,0.8-0.4,1.1-0.4c0.4,0,0.8,0.1,1.1,0.4
				C385.7,54.3,385.9,54.6,385.9,55z M395.4,55c0,0.5-0.2,0.8-0.5,1.1c-0.3,0.3-0.7,0.4-1.1,0.4c-0.4,0-0.8-0.1-1.1-0.4
				c-0.3-0.3-0.5-0.7-0.5-1.1s0.2-0.8,0.5-1.2c0.3-0.3,0.7-0.4,1.1-0.4c0.5,0,0.9,0.1,1.1,0.4C395.2,54.3,395.4,54.6,395.4,55z
				 M385.9,74c0,0.4-0.2,0.8-0.5,1.1c-0.4,0.3-0.8,0.4-1.1,0.4c-0.4,0-0.8-0.2-1.1-0.4c-0.3-0.3-0.4-0.7-0.4-1.1
				c0-0.4,0.1-0.8,0.4-1.1c0.4-0.3,0.8-0.5,1.1-0.5c0.4,0,0.8,0.2,1.1,0.5C385.7,73.2,385.9,73.6,385.9,74z M395.4,74
				c0,0.4-0.2,0.8-0.5,1.1c-0.3,0.3-0.7,0.4-1.1,0.4c-0.4,0-0.8-0.2-1.1-0.4c-0.3-0.3-0.5-0.7-0.5-1.1s0.2-0.8,0.5-1.1
				c0.3-0.3,0.7-0.5,1.1-0.5c0.5,0,0.9,0.2,1.1,0.5C395.2,73.2,395.4,73.6,395.4,74z M404.8,74c0,0.4-0.1,0.8-0.4,1.1
				c-0.1,0-0.1,0.1-0.1,0.1c-0.3,0.2-0.7,0.3-1,0.3c-0.4,0-0.8-0.2-1.1-0.4c-0.3-0.3-0.5-0.7-0.5-1.1c0-0.3,0.1-0.6,0.3-0.8
				c0-0.1,0.1-0.2,0.2-0.3c0.4-0.3,0.8-0.5,1.1-0.5c0.5,0,0.9,0.2,1.1,0.5C404.7,73.2,404.8,73.6,404.8,74z M382.7,93.3
				c0,0,0-0.1,0-0.1v-0.3c0-0.4,0.1-0.7,0.4-1.1c0.4-0.3,0.8-0.4,1.1-0.4c0.4,0,0.8,0.1,1.1,0.4c0.3,0.4,0.4,0.7,0.5,1.1V93
				c0,0.5-0.2,0.9-0.5,1.2c-0.3,0.3-0.7,0.5-1.1,0.5c-0.4,0-0.8-0.2-1.1-0.5C382.9,93.9,382.8,93.6,382.7,93.3
				c0,0.3,0.2,0.5,0.4,0.7c0.4,0.3,0.8,0.5,1.1,0.5c0.4,0,0.8-0.2,1.1-0.5c0.3-0.2,0.4-0.6,0.5-1 M392.1,93L392.1,93
				c0.1-0.4,0.3-0.8,0.5-1.2c0.3-0.3,0.7-0.4,1.1-0.4c0.5,0,0.9,0.1,1.1,0.4c0.3,0.4,0.4,0.7,0.5,1.1V93c0,0.5-0.2,0.9-0.5,1.2
				c-0.3,0.3-0.7,0.5-1.1,0.5c-0.4,0-0.8-0.2-1.1-0.5C392.3,93.8,392.1,93.4,392.1,93c0.1,0.4,0.3,0.7,0.5,1
				c0.3,0.3,0.7,0.5,1.1,0.5c0.5,0,0.9-0.2,1.1-0.5c0.3-0.2,0.4-0.6,0.5-1 M401.7,93.3c0,0,0-0.1,0-0.1v-0.3c0-0.4,0.2-0.7,0.5-1.1
				c0.4-0.3,0.8-0.4,1.1-0.4c0.5,0,0.9,0.1,1.1,0.4c0.2,0.4,0.4,0.7,0.4,1.1V93c0,0.5-0.1,0.9-0.4,1.2c-0.3,0.3-0.7,0.5-1.1,0.5
				c-0.4,0-0.8-0.2-1.1-0.5C401.9,93.9,401.7,93.6,401.7,93.3c0.1,0.3,0.2,0.5,0.4,0.7c0.4,0.3,0.8,0.5,1.1,0.5
				c0.5,0,0.9-0.2,1.1-0.5c0.2-0.2,0.4-0.6,0.4-1 M404.8,112c0,0.4-0.1,0.8-0.4,1.1c-0.3,0.3-0.7,0.4-1.1,0.4
				c-0.4,0-0.8-0.1-1.1-0.4c-0.3-0.3-0.5-0.7-0.5-1.1c0-0.4,0.2-0.8,0.5-1.1c0.4-0.4,0.8-0.6,1.1-0.6c0.5,0,0.9,0.2,1.1,0.6
				C404.7,111.2,404.8,111.6,404.8,112z M395.4,112c0,0.4-0.2,0.8-0.5,1.1c-0.3,0.3-0.7,0.4-1.1,0.4c-0.4,0-0.8-0.1-1.1-0.4
				c-0.3-0.3-0.5-0.7-0.5-1.1c0-0.4,0.2-0.8,0.5-1.1c0.3-0.4,0.7-0.6,1.1-0.6c0.5,0,0.9,0.2,1.1,0.6
				C395.2,111.2,395.4,111.6,395.4,112z M385.9,112c0,0.4-0.2,0.8-0.5,1.1c-0.4,0.3-0.8,0.4-1.1,0.4c-0.4,0-0.8-0.1-1.1-0.4
				c-0.3-0.3-0.4-0.7-0.4-1.1c0-0.4,0.1-0.8,0.4-1.1c0.4-0.4,0.8-0.6,1.1-0.6c0.4,0,0.8,0.2,1.1,0.6
				C385.7,111.2,385.9,111.6,385.9,112z M385.9,130.9c0,0.4-0.2,0.8-0.5,1.1c-0.3,0.4-0.7,0.6-1.1,0.6c-0.4,0-0.8-0.2-1.1-0.6
				c-0.3-0.3-0.4-0.7-0.4-1.1c0-0.4,0.1-0.8,0.4-1.1c0.4-0.3,0.8-0.4,1.1-0.4c0.3,0,0.7,0.1,1.1,0.4
				C385.7,130.2,385.9,130.5,385.9,130.9z M404.8,130.9c0,0.4-0.1,0.8-0.4,1.1c-0.3,0.4-0.7,0.6-1.1,0.6c-0.4,0-0.8-0.2-1.1-0.6
				c-0.3-0.3-0.5-0.7-0.5-1.1c0-0.4,0.2-0.8,0.5-1.1c0.4-0.3,0.8-0.4,1.1-0.4c0.4,0,0.8,0.1,1.1,0.4
				C404.7,130.2,404.8,130.5,404.8,130.9z M395.4,130.9c0,0.4-0.2,0.8-0.5,1.1c-0.3,0.4-0.7,0.6-1.1,0.6c-0.4,0-0.8-0.2-1.1-0.6
				c-0.3-0.3-0.5-0.7-0.5-1.1c0-0.4,0.2-0.8,0.5-1.1c0.3-0.3,0.7-0.4,1.1-0.4c0.4,0,0.8,0.1,1.1,0.4
				C395.2,130.2,395.4,130.5,395.4,130.9z M354.2,112c0,0.8-0.3,1.5-0.8,2.2c-0.7,0.6-1.4,1-2.3,1c-0.9,0-1.7-0.3-2.3-1
				c-0.6-0.7-1-1.4-1-2.2c0-0.8,0.3-1.6,1-2.3c0.6-0.6,1.3-0.9,2.3-0.9c0.9,0,1.6,0.3,2.3,0.9C353.9,110.4,354.2,111.2,354.2,112z
				 M341.5,102.4v19h72.8v-19H341.5V83.5 M414.3,121.4v12.7c0,1.7-0.6,3.2-1.9,4.5c-1.2,1.2-2.6,1.8-4.3,1.8h-60.1
				c-1.7,0-3.2-0.6-4.4-1.8c-1.3-1.3-2-2.8-2-4.5v-12.7 M354.2,130.9c0,0.8-0.3,1.6-0.8,2.3c-0.7,0.6-1.4,0.9-2.3,0.9
				c-0.9,0-1.7-0.3-2.3-0.9c-0.6-0.7-1-1.5-1-2.3c0-0.8,0.3-1.6,1-2.3c0.6-0.6,1.3-0.9,2.3-0.9c0.9,0,1.6,0.3,2.3,0.9
				C353.9,129.4,354.2,130.1,354.2,130.9z M341.5,45.5h72.8 M414.3,83.5v18.9"/>
		</g>
	</g>
</g>
<g id="shield">
	<g transform="matrix( 1, 0, 0, 1, 0,0) ">
		<g>
			<g id="Layer5_0_FILL">
				<path fill="#FFFFFF" d="M413.2,72.4L413.2,72.4c-1.9,1.9-5.4,3.8-10.6,5.7l-7.3,2.3c0,8.8,0.8,15.3,2.5,19.4
					c2.6,6.2,7.7,10.7,15.3,13.5c7.6-2.8,12.7-7.3,15.3-13.5c1.7-4.2,2.5-10.7,2.5-19.4c-2.2-0.6-4.6-1.4-7.3-2.3
					C418.6,76.2,415.1,74.3,413.2,72.4z"/>
			</g>
		</g>
		<g>
			<path id="Layer5_0_1_STROKES" fill="none" stroke="#000000" stroke-linecap="round" stroke-linejoin="round" d="M413.2,72.4
				L413.2,72.4c-1.9,1.9-5.4,3.8-10.6,5.7l-7.3,2.3c0,8.8,0.8,15.3,2.5,19.4c2.6,6.2,7.7,10.7,15.3,13.5c7.6-2.8,12.7-7.3,15.3-13.5
				c1.7-4.2,2.5-10.7,2.5-19.4c-2.2-0.6-4.6-1.4-7.3-2.3C418.6,76.2,415.1,74.3,413.2,72.4z"/>
		</g>
	</g>
</g>
<g id="lock">
	<g transform="matrix( 1, 0, 0, 1, 0,0) ">
		<g>
			<path id="Layer4_0_1_STROKES" fill="none" stroke="#F7571A" stroke-linejoin="round" d="M408.3,90.3v-3.3c0-1.4,0.5-2.6,1.5-3.6
				s2.2-1.5,3.6-1.5c1.4,0,2.6,0.5,3.6,1.5c1,1,1.5,2.2,1.5,3.6v3.3h2.8v13h-15.8v-13H408.3h10.2 M413.4,95.9
				c-0.1,0-0.2-0.1-0.3-0.2c-0.1-0.1-0.1-0.2-0.1-0.3c0-0.1,0-0.2,0.1-0.3c0.1-0.1,0.2-0.2,0.3-0.2c0.1,0,0.3,0.1,0.4,0.2
				c0.1,0.1,0.1,0.2,0.1,0.3c0,0.1,0,0.2-0.1,0.3C413.6,95.8,413.5,95.9,413.4,95.9z"/>
		</g>
		<g>
			<path id="Layer4_0_2_STROKES" fill="none" stroke="#F7571A" stroke-linecap="round" stroke-linejoin="round" d="M413.4,95.9v2.8"
				/>
		</g>
	</g>
</g>
<g id="machines">
	<g transform="matrix( 1, 0, 0, 1, 0,0) ">
		<g>
			<g id="Layer3_0_FILL">
				<path fill="#CACACA" d="M671.7,287.6c-0.6-0.6-1.3-0.9-2.1-0.9H550.3c-0.7,0-1.4,0.3-1.9,0.9c-0.6,0.5-0.8,1.2-0.8,1.9v71.9h125
					v-71.7C672.5,288.9,672.3,288.2,671.7,287.6 M667.6,292.4V356H552.5v-63.7H667.6 M94.6,285.8c-1.2,0-2.3,0.3-3.4,0.7
					c-1.1,0.5-2.2,1.2-3.2,2.1c-0.1,0.1-0.3,0.3-0.4,0.5c-0.8,0.9-1.4,1.8-1.8,2.8c-0.5,1.1-0.8,2.4-0.8,3.7v62.8c0,0.5,0,1,0.1,1.5
					c0.3,2,1.2,3.7,2.8,5.2c1,1,2.1,1.7,3.2,2.1c1,0.4,2.2,0.7,3.4,0.7h92.3c1.3,0,2.5-0.3,3.5-0.7c1.1-0.5,2.2-1.2,3.2-2.1
					c1.6-1.5,2.5-3.2,2.8-5.2c0.1-0.5,0.2-1,0.2-1.5v-62.8c0-1.3-0.3-2.5-0.8-3.7c-0.4-1-1-1.9-1.8-2.8c-0.1-0.2-0.3-0.3-0.4-0.5
					c-1-0.9-2.1-1.6-3.2-2.1c-1-0.4-2.2-0.7-3.5-0.7H94.6 M90.3,324.4c0.8,0,1.4,0.3,1.8,0.8c0.5,0.5,0.8,1.1,0.8,1.8
					c0,0.7-0.3,1.3-0.8,1.7c-0.4,0.4-1,0.6-1.8,0.6c-0.5,0-1.1-0.2-1.7-0.6c-0.4-0.5-0.7-1-0.7-1.7c0-0.6,0.2-1.2,0.7-1.8
					C89.3,324.6,89.8,324.4,90.3,324.4 M95.9,361v-68.3h93.2V361H95.9 M193.7,327.9c-0.3,0.3-0.6,0.4-1.1,0.4c-0.3,0-0.6-0.1-1-0.4
					c-0.2-0.3-0.3-0.6-0.3-1c0-0.4,0.1-0.7,0.3-1c0.4-0.3,0.7-0.4,1-0.4c0.5,0,0.8,0.1,1.1,0.4c0.3,0.3,0.4,0.6,0.4,1
					C194.1,327.3,194,327.6,193.7,327.9 M192.6,328.3c0.4,0,0.8-0.1,1.1-0.4c0.3-0.2,0.4-0.5,0.4-1c0-0.4-0.1-0.7-0.4-1
					c-0.2-0.3-0.6-0.4-1.1-0.4c-0.3,0-0.6,0.1-1,0.4c-0.2,0.3-0.3,0.6-0.3,1c0,0.4,0.1,0.7,0.3,1C192,328.1,192.3,328.3,192.6,328.3
					 M92.2,325.1c-0.4-0.5-1-0.8-1.8-0.8c-0.5,0-1.1,0.3-1.7,0.8c-0.4,0.5-0.7,1.1-0.7,1.8c0,0.7,0.2,1.2,0.7,1.7
					c0.6,0.4,1.2,0.6,1.7,0.6c0.8,0,1.4-0.2,1.8-0.6c0.5-0.4,0.8-1,0.8-1.7C92.9,326.3,92.7,325.7,92.2,325.1 M369.7,362.6h24.1
					v-15.1h-24.1V362.6 M355.6,365.5c-0.1,0.2-0.1,0.5-0.1,0.7v3.4H408v-3.3c0-0.3,0-0.5,0-0.8H355.6 M359,362.6
					c-0.9,0-1.7,0.4-2.4,1c-0.5,0.5-0.9,1.1-0.9,1.8H408c-0.1-0.7-0.5-1.3-1-1.8c-0.7-0.7-1.6-1-2.6-1h-10.5h-24.1h-3.6H359
					 M448.5,267.9c-0.6-0.6-1.4-0.9-2.3-0.9H317.4c-0.8,0-1.4,0.3-1.9,0.9c-0.6,0.6-0.9,1.3-0.9,2v74.8c0,0.8,0.3,1.5,0.9,2
					c0.5,0.5,1.2,0.8,1.9,0.9h48.7h3.6h24.1h52.5c0.9,0,1.6-0.3,2.2-0.9c0.6-0.6,0.9-1.3,0.9-2.1v-74.3
					C449.5,269.3,449.1,268.5,448.5,267.9 M444,273v68.8H320V273H444z"/>
				<path fill="#FFFFFF" d="M667.6,356v-63.7H552.5V356H667.6 M95.9,292.7V361h93.2v-68.3H95.9 M444,341.7V273H320v68.8H444z"/>
				<path fill="#828282" d="M314,267c-0.9,0-1.6,0.3-2.1,0.9c-0.6,0.6-0.9,1.3-0.9,2v74.8c0,0.8,0.3,1.5,0.9,2
					c0.6,0.6,1.3,0.9,2,0.9h3.5c-0.8,0-1.4-0.3-1.9-0.9c-0.6-0.5-0.9-1.2-0.9-2v-74.8c0-0.8,0.3-1.5,0.9-2c0.5-0.5,1.2-0.8,1.9-0.9
					H314 M366.1,362.6h3.6v-15.1h-3.6V362.6 M353,363.6c-0.5,0.5-0.8,1.1-1,1.8h3.6c0.1-0.7,0.4-1.3,0.9-1.8c0.7-0.7,1.5-1,2.4-1
					h-3.5C354.5,362.6,353.6,362.9,353,363.6 M352,365.5v4.1h3.5v-3.4c0-0.2,0-0.5,0.1-0.7H352z"/>
			</g>
		</g>
		<g>
			<path id="Layer3_0_1_STROKES" fill="none" stroke="#000000" stroke-miterlimit="10" d="M672.5,361.5h-125v-71.9
				c0-0.8,0.3-1.4,0.8-1.9c0.5-0.6,1.2-0.9,1.9-0.9h119.3c0.8,0,1.5,0.3,2.1,0.9c0.6,0.6,0.9,1.3,0.9,2.1V361.5z M552.5,356v-63.7
				h115.1V356H552.5z M317.4,267h128.8c0.9,0,1.7,0.3,2.3,0.9c0.6,0.6,0.9,1.4,0.9,2.3v74.3c0,0.8-0.3,1.5-0.9,2.1
				c-0.6,0.6-1.3,0.9-2.2,0.9h-52.5v15.1h10.5c1,0,1.9,0.3,2.6,1c0.5,0.5,0.8,1.1,1,1.8c0,0.3,0,0.5,0,0.8v3.3h-52.5H352v-4.1
				c0.2-0.7,0.5-1.3,1-1.8c0.7-0.7,1.5-1,2.5-1h3.5h7.1v-15.1h-48.7h-3.5c-0.8,0-1.5-0.3-2-0.9c-0.5-0.5-0.8-1.2-0.9-2v-74.8
				c0-0.8,0.3-1.5,0.9-2c0.6-0.6,1.3-0.9,2.1-0.9H317.4c-0.8,0-1.4,0.3-2,0.9c-0.6,0.6-0.9,1.3-0.9,2v74.8c0,0.8,0.3,1.5,0.9,2
				c0.5,0.5,1.2,0.8,2,0.9 M359,362.6c-0.9,0-1.7,0.4-2.4,1c-0.5,0.5-0.9,1.1-0.9,1.8H408 M355.6,365.5c-0.1,0.2-0.1,0.5-0.1,0.7
				v3.4 M355.6,365.5H352 M393.9,362.6h-24.1h-3.6 M393.9,347.5h-24.1v15.1 M369.7,347.5h-3.6 M444,341.7H320V273H444V341.7z"/>
		</g>
		<g>
			<path id="Layer3_0_2_STROKES" fill="none" stroke="#000000" stroke-linejoin="round" d="M92.9,326.9c0,0.7-0.3,1.3-0.8,1.7
				c-0.4,0.4-1,0.6-1.8,0.6c-0.5,0-1.1-0.2-1.7-0.6c-0.4-0.5-0.7-1-0.7-1.7c0-0.6,0.2-1.2,0.7-1.8c0.6-0.5,1.2-0.8,1.7-0.8
				c0.8,0,1.4,0.3,1.8,0.8C92.7,325.7,92.9,326.3,92.9,326.9z M194.1,326.9c0,0.4-0.1,0.7-0.4,1c-0.3,0.3-0.6,0.4-1.1,0.4
				c-0.3,0-0.6-0.1-1-0.4c-0.2-0.3-0.3-0.6-0.3-1c0-0.4,0.1-0.7,0.3-1c0.4-0.3,0.7-0.4,1-0.4c0.5,0,0.8,0.1,1.1,0.4
				C194,326.2,194.1,326.5,194.1,326.9z"/>
		</g>
		<g>
			<path id="Layer3_0_3_STROKES" fill="none" stroke="#000000" stroke-linecap="round" stroke-linejoin="round" d="M94.6,367.9
				c-1.2,0-2.3-0.3-3.4-0.7c-1.1-0.5-2.2-1.2-3.2-2.1c-1.6-1.5-2.5-3.2-2.8-5.2c-0.1-0.5-0.1-1-0.1-1.5v-62.8c0-1.3,0.3-2.5,0.8-3.7
				c0.4-1,1-1.9,1.8-2.8c0.1-0.2,0.3-0.3,0.4-0.5c1-0.9,2.1-1.6,3.2-2.1c1-0.4,2.2-0.7,3.4-0.7h92.3c1.3,0,2.5,0.3,3.5,0.7
				c1.1,0.5,2.2,1.2,3.2,2.1c0.1,0.1,0.3,0.3,0.4,0.5c0.8,0.9,1.4,1.8,1.8,2.8c0.5,1.1,0.8,2.4,0.8,3.7v62.8c0,0.5-0.1,1-0.2,1.5
				c-0.3,2-1.2,3.7-2.8,5.2c-1,1-2.1,1.7-3.2,2.1c-1,0.4-2.2,0.7-3.5,0.7H94.6z M95.9,361v-68.3h93.2V361H95.9z"/>
		</g>
	</g>
	<g transform="matrix( 0.4435272216796875, 0, 0, 0.4435272216796875, 305.15,131.35) ">
		<g>
			<g id="Layer3_1_FILL">
				<path fill="#CACACA" d="M854,525.8v-7H520.9v6.9c0,2.1,0.7,3.8,2.2,5.3c1.5,1.5,3.3,2.2,5.4,2.2h318.2c2,0,3.8-0.7,5.3-2.2
					C853.3,529.6,854,527.8,854,525.8z"/>
			</g>
		</g>
		<g transform="matrix( 2.254638671875, 0, 0, 2.254638671875, -688,-296.1) ">
			<path id="Layer3_1_1_STROKES" fill="none" stroke="#000000" stroke-miterlimit="10" d="M854,518.8H520.9v6.9
				c0,2.1,0.7,3.8,2.2,5.3c1.5,1.5,3.2,2.2,5.3,2.2h318.1c2,0,3.8-0.7,5.3-2.2c1.4-1.4,2.1-3.2,2.1-5.3V518.8z"/>
		</g>
	</g>
	<g transform="matrix( 0.4435272216796875, 0, 0, 0.4435272216796875, 305.15,131.35) ">
		<g transform="matrix( 2.254638671875, 0, 0, 2.254638671875, -688,-296.1) ">
			<path id="Layer3_2_1_STROKES" fill="none" stroke="#000000" stroke-miterlimit="10" d="M853.9,527.3H521"/>
		</g>
	</g>
</g>
<g id="key">
	<g transform="matrix( 1, 0, 0, 1, 0,0) ">
		<g>
			<path id="Layer2_0_1_STROKES" fill="none" stroke="#3A6FBB" stroke-linecap="round" stroke-linejoin="round" d="M402.5,308.5
				c0,0.8-0.3,1.4-0.8,2c-0.6,0.6-1.2,0.9-2,0.9s-1.4-0.3-2-0.9c-0.6-0.5-0.9-1.2-0.9-2c0-0.8,0.3-1.4,0.9-1.9
				c0.5-0.6,1.2-0.9,2-0.9s1.4,0.3,2,0.9C402.2,307.1,402.5,307.8,402.5,308.5z M360.9,313.9l-5.1-5.1v-0.3c0-1.4,0.5-2.6,1.5-3.6
				c0.8-0.8,1.8-1.2,2.9-1.4c0.2-0.1,0.5-0.1,0.8-0.1l20.6,0.1c0.6-1.4,1.5-2.6,2.7-3.8c2.5-2.5,5.4-3.7,8.9-3.7
				c3.5,0,6.4,1.2,8.9,3.7c2.5,2.5,3.7,5.4,3.7,8.9c0,3.5-1.2,6.4-3.7,8.9c-2.5,2.5-5.4,3.7-8.9,3.7c-3.5,0-6.4-1.2-8.9-3.7
				c-1.1-1.1-2-2.3-2.6-3.7l-7.1,0.1l-3.4-3.4l-3.4,3.4l-3.4-3.4l-3.4,3.3l0,0L360.9,313.9c0.1,0,0.1,0,0.1,0 M634.8,324.3
				c0,3-0.9,5.6-2.8,7.9c-0.3,0.3-0.6,0.7-0.9,1c-2.5,2.5-5.4,3.7-8.9,3.7s-6.4-1.2-8.9-3.7c-1.1-1.1-2-2.3-2.6-3.7l-7.2,0.1
				l-3.3-3.4l-3.4,3.4l-3.3-3.4l-3.4,3.3l0,0l-0.1,0l-5-5.1v-0.3c0-1.4,0.5-2.6,1.4-3.6c0.8-0.8,1.8-1.2,2.9-1.4
				c0.2-0.1,0.5-0.1,0.8-0.1l20.6,0.1c0.6-1.4,1.5-2.6,2.6-3.8c2.5-2.5,5.4-3.7,8.9-3.7s6.4,1.2,8.9,3.7c0.3,0.3,0.6,0.7,0.9,1
				C633.9,318.7,634.8,321.3,634.8,324.3z M631.6,324.3c0,0.8-0.3,1.4-0.8,2c-0.6,0.6-1.2,0.9-2,0.9c-0.8,0-1.4-0.3-2-0.9
				c-0.6-0.5-0.8-1.2-0.8-2c0-0.8,0.3-1.4,0.8-1.9c0.5-0.6,1.2-0.9,2-0.9c0.8,0,1.4,0.3,2,0.9C631.3,322.9,631.6,323.5,631.6,324.3z
				 M590.1,329.6c0,0-0.1,0-0.1,0 M122.7,331.6l-5-5.1v-0.3c0-1.4,0.5-2.6,1.4-3.6c0.8-0.8,1.8-1.2,2.9-1.4c0.2-0.1,0.5-0.1,0.8-0.1
				l20.6,0.1c0.6-1.4,1.5-2.6,2.7-3.8c2.5-2.5,5.4-3.7,8.9-3.7c3.5,0,6.4,1.2,8.9,3.7c2.5,2.5,3.7,5.4,3.7,8.9
				c0,3.5-1.2,6.4-3.7,8.9c-2.5,2.5-5.4,3.7-8.9,3.7c-3.5,0-6.4-1.2-8.9-3.7c-1.1-1.1-2-2.3-2.6-3.7l-7.1,0.1l-3.4-3.4l-3.4,3.4
				l-3.4-3.4l-3.3,3.3l0,0L122.7,331.6c0.1,0,0.1,0,0.2,0 M164.4,326.3c0,0.8-0.3,1.4-0.8,2c-0.6,0.6-1.2,0.9-2,0.9
				c-0.8,0-1.4-0.3-1.9-0.9c-0.6-0.5-0.9-1.2-0.9-2c0-0.8,0.3-1.4,0.9-1.9c0.5-0.6,1.2-0.9,1.9-0.9c0.8,0,1.4,0.3,2,0.9
				C164.1,324.9,164.4,325.5,164.4,326.3z"/>
		</g>
	</g>
</g>
<g id="connectors">
	<g transform="matrix( 1, 0, 0, 1, 0,0) ">
		<g>
			<g id="Layer1_0_FILL">
				<path fill="#FEFEFE" d="M380.7,171.7c-0.2-0.2-0.5-0.4-0.9-0.4c0,0-0.1,0-0.1,0c-0.4,0-0.7,0.1-1,0.4c-0.3,0.3-0.4,0.6-0.4,1.1
					c0,0.4,0.1,0.8,0.4,1.1c0.3,0.3,0.6,0.4,1,0.4c0.4,0,0.8-0.2,1.1-0.4c0.3-0.3,0.4-0.6,0.4-1.1C381.1,172.3,381,172,380.7,171.7
					 M382.7,140.4c0-0.8-0.3-1.4-0.9-2c-0.6-0.6-1.2-0.9-2-0.9s-1.4,0.3-2,0.9c-0.5,0.6-0.8,1.2-0.8,2c0,0.8,0.3,1.4,0.8,2
					c0.5,0.5,1.1,0.8,1.9,0.8c0,0,0.1,0,0.1,0c0.8,0,1.4-0.3,2-0.8C382.4,141.8,382.7,141.1,382.7,140.4 M380.1,264c0,0-0.1,0-0.1,0
					c-0.8,0-1.4,0.3-2,0.8c-0.6,0.6-0.9,1.2-0.9,2s0.3,1.4,0.9,2s1.2,0.9,2,0.9s1.4-0.3,2-0.9c0.5-0.6,0.8-1.2,0.8-2s-0.3-1.4-0.8-2
					C381.4,264.3,380.8,264,380.1,264 M381.6,238.4c0-0.4-0.2-0.8-0.5-1.1c-0.3-0.3-0.6-0.4-1-0.4c-0.4,0-0.8,0.1-1,0.4
					c-0.3,0.3-0.5,0.6-0.5,1.1c0,0.4,0.2,0.7,0.5,1c0.2,0.2,0.5,0.4,0.9,0.4c0,0,0.1,0,0.1,0c0.4,0,0.7-0.1,1-0.4
					C381.4,239.1,381.6,238.8,381.6,238.4 M501,170.9c-0.1,0-0.1,0-0.1,0c-0.4,0-0.7,0.2-0.9,0.4c-0.3,0.3-0.5,0.7-0.5,1.1
					c0,0.4,0.1,0.8,0.5,1.1c0.3,0.3,0.6,0.4,1,0.4c0.4,0,0.7-0.1,1-0.4c0.3-0.3,0.5-0.6,0.5-1.1c0-0.4-0.1-0.8-0.5-1.1
					C501.7,171,501.4,170.9,501,170.9 M417.2,55c0-0.1,0-0.1,0-0.2c0-0.7-0.3-1.3-0.8-1.8c-0.6-0.5-1.2-0.8-2-0.8s-1.4,0.3-2,0.8
					c-0.6,0.6-0.9,1.2-0.9,2c0,0.8,0.3,1.4,0.9,2c0.6,0.6,1.2,0.8,2,0.8c0.8,0,1.4-0.3,2-0.8C416.9,56.4,417.2,55.8,417.2,55
					 M502,238.7c0-0.4-0.1-0.8-0.5-1.1c-0.3-0.3-0.6-0.4-1-0.4c-0.4,0-0.7,0.1-1,0.4c-0.3,0.3-0.5,0.6-0.5,1.1
					c0,0.4,0.1,0.8,0.5,1.1c0.3,0.3,0.6,0.4,1,0.4c0.1,0,0.1,0,0.1,0c0.4,0,0.7-0.2,0.9-0.4C501.9,239.4,502,239.1,502,238.7
					 M549.3,311.2c0.6-0.6,0.9-1.2,0.9-2c0-0.8-0.3-1.4-0.9-2c-0.6-0.6-1.2-0.9-2-0.9c-0.8,0-1.4,0.3-2,0.9c-0.5,0.6-0.8,1.2-0.8,2
					c0,0.1,0,0.1,0,0.1c0,0.7,0.3,1.3,0.8,1.9c0.6,0.5,1.2,0.8,2,0.8C548.1,312,548.7,311.7,549.3,311.2 M339.9,92.1
					c-0.5,0.5-0.8,1.2-0.8,1.8c0,0,0,0.1,0,0.2c0,0.8,0.3,1.4,0.8,2c0.6,0.6,1.2,0.8,2,0.8s1.4-0.3,2-0.8c0.6-0.6,0.9-1.2,0.9-2
					s-0.3-1.4-0.9-2c-0.6-0.5-1.2-0.8-2-0.8S340.5,91.5,339.9,92.1 M259.5,171.3c-0.2-0.2-0.5-0.4-0.9-0.4c0,0-0.1,0-0.1,0
					c-0.4,0-0.7,0.1-1,0.4c-0.3,0.3-0.5,0.6-0.5,1.1c0,0.4,0.1,0.8,0.5,1c0.3,0.3,0.6,0.5,1,0.5c0.4,0,0.8-0.2,1-0.5
					c0.3-0.3,0.5-0.6,0.5-1C260,171.9,259.9,171.6,259.5,171.3 M259.8,237.4c-0.3-0.3-0.6-0.5-1-0.5c-0.4,0-0.8,0.2-1,0.5
					c-0.3,0.3-0.5,0.6-0.5,1c0,0.4,0.1,0.8,0.5,1.1c0.2,0.2,0.5,0.4,0.9,0.4c0,0,0.1,0,0.1,0c0.4,0,0.7-0.1,1-0.4
					c0.3-0.3,0.5-0.6,0.5-1.1C260.3,238,260.1,237.6,259.8,237.4 M194.6,306.9c-0.6,0.6-0.9,1.2-0.9,2s0.3,1.4,0.9,2
					c0.6,0.5,1.2,0.8,2,0.8c0.8,0,1.4-0.3,2-0.8c0.5-0.5,0.8-1.1,0.8-1.9c0,0,0-0.1,0-0.1c0-0.8-0.3-1.4-0.8-2
					c-0.6-0.6-1.2-0.9-2-0.9C195.8,306,195.2,306.3,194.6,306.9z"/>
			</g>
		</g>
		<g>
			<path id="Layer1_0_1_STROKES" fill="none" stroke="#A3A3A3" stroke-miterlimit="10" d="M500.9,170.9V63.4c0-2.3-0.8-4.3-2.5-6
				l0,0c-1.6-1.6-3.6-2.4-5.9-2.4l-75.3-0.2c0,0,0,0.1,0,0.2c0,0.8-0.3,1.4-0.8,2c-0.6,0.6-1.2,0.8-2,0.8c-0.8,0-1.4-0.3-2-0.8
				c-0.6-0.6-0.9-1.2-0.9-2c0-0.8,0.3-1.4,0.9-2c0.6-0.5,1.2-0.8,2-0.8s1.4,0.3,2,0.8c0.5,0.5,0.8,1.1,0.8,1.8 M500.9,170.9
				c-0.4,0-0.7,0.2-0.9,0.4c-0.3,0.3-0.5,0.7-0.5,1.1c0,0.4,0.1,0.8,0.5,1.1c0.3,0.3,0.6,0.4,1,0.4c0.4,0,0.7-0.1,1-0.4
				c0.3-0.3,0.5-0.6,0.5-1.1c0-0.4-0.1-0.8-0.5-1.1c-0.3-0.3-0.6-0.4-1-0.4C500.9,170.9,500.9,170.9,500.9,170.9z M339.1,93.9
				c0-0.7,0.3-1.3,0.8-1.8c0.6-0.5,1.2-0.8,2-0.8s1.4,0.3,2,0.8c0.6,0.6,0.9,1.2,0.9,2s-0.3,1.4-0.9,2c-0.6,0.6-1.2,0.8-2,0.8
				s-1.4-0.3-2-0.8c-0.5-0.6-0.8-1.2-0.8-2C339.1,94,339.1,93.9,339.1,93.9L267,94.1c-2.3,0-4.3,0.8-5.9,2.4
				c-1.6,1.6-2.5,3.6-2.5,5.9v68.4c0.4,0,0.7,0.2,0.9,0.4c0.3,0.3,0.5,0.6,0.5,1.1c0,0.4-0.1,0.8-0.5,1c-0.3,0.3-0.6,0.5-1,0.5
				c-0.4,0-0.7-0.2-1-0.5c-0.3-0.3-0.5-0.6-0.5-1c0-0.4,0.1-0.8,0.5-1.1c0.3-0.3,0.6-0.4,1-0.4c0.1,0,0.1,0,0.1,0 M379.7,143.1
				c-0.7,0-1.3-0.3-1.9-0.8c-0.5-0.6-0.8-1.2-0.8-2c0-0.8,0.3-1.4,0.8-2c0.6-0.6,1.2-0.9,2-0.9s1.4,0.3,2,0.9c0.6,0.6,0.9,1.2,0.9,2
				c0,0.8-0.3,1.4-0.9,2c-0.6,0.5-1.2,0.8-2,0.8C379.8,143.1,379.7,143.1,379.7,143.1l0.1,28.2c0.4,0,0.7,0.2,0.9,0.4
				c0.3,0.3,0.4,0.6,0.4,1.1c0,0.4-0.1,0.8-0.4,1.1c-0.3,0.3-0.6,0.4-1.1,0.4c-0.4,0-0.7-0.2-1-0.4c-0.3-0.3-0.4-0.6-0.4-1.1
				c0-0.4,0.1-0.8,0.4-1.1c0.3-0.3,0.6-0.4,1-0.4c0.1,0,0.1,0,0.1,0 M380,239.8c-0.4,0-0.7-0.2-0.9-0.4c-0.3-0.3-0.5-0.6-0.5-1
				c0-0.4,0.2-0.8,0.5-1.1c0.3-0.3,0.6-0.4,1-0.4c0.4,0,0.7,0.1,1,0.4c0.3,0.3,0.5,0.6,0.5,1.1c0,0.4-0.2,0.7-0.5,1
				c-0.3,0.3-0.6,0.4-1,0.4C380.1,239.8,380,239.8,380,239.8l0.1,24.2c0.7,0,1.3,0.3,1.9,0.8c0.5,0.6,0.8,1.2,0.8,2s-0.3,1.4-0.8,2
				c-0.6,0.6-1.2,0.9-2,0.9s-1.4-0.3-2-0.9s-0.9-1.2-0.9-2s0.3-1.4,0.9-2c0.6-0.5,1.2-0.8,2-0.8c0.1,0,0.1,0,0.1,0 M500.6,240.1
				c0.4,0,0.7-0.2,0.9-0.4c0.3-0.3,0.5-0.7,0.5-1.1c0-0.4-0.1-0.8-0.5-1.1c-0.3-0.3-0.6-0.4-1-0.4c-0.4,0-0.7,0.1-1,0.4
				c-0.3,0.3-0.5,0.6-0.5,1.1c0,0.4,0.1,0.8,0.5,1.1c0.3,0.3,0.6,0.4,1,0.4C500.6,240.1,500.6,240.1,500.6,240.1v60.6
				c0,2.3,0.8,4.3,2.5,6c1.6,1.6,3.6,2.5,5.9,2.5l35.5,0.1c0,0,0-0.1,0-0.1c0-0.8,0.3-1.4,0.8-2c0.6-0.6,1.2-0.9,2-0.9
				c0.8,0,1.4,0.3,2,0.9c0.6,0.6,0.9,1.2,0.9,2c0,0.8-0.3,1.4-0.9,2c-0.6,0.5-1.2,0.8-2,0.8c-0.8,0-1.4-0.3-2-0.8
				c-0.5-0.5-0.8-1.1-0.8-1.9 M258.6,239.9c-0.4,0-0.7-0.2-0.9-0.4c-0.3-0.3-0.5-0.6-0.5-1.1c0-0.4,0.1-0.8,0.5-1
				c0.3-0.3,0.6-0.5,1-0.5c0.4,0,0.7,0.2,1,0.5c0.3,0.3,0.5,0.6,0.5,1c0,0.4-0.1,0.8-0.5,1.1c-0.3,0.3-0.6,0.4-1,0.4
				C258.7,239.9,258.7,239.9,258.6,239.9v60.6c0,2.3-0.8,4.3-2.4,6c-1.6,1.6-3.6,2.4-6,2.4l-50.9,0.1c0,0.7-0.3,1.3-0.8,1.9
				c-0.6,0.5-1.2,0.8-2,0.8c-0.8,0-1.4-0.3-2-0.8c-0.6-0.6-0.9-1.2-0.9-2s0.3-1.4,0.9-2c0.6-0.6,1.2-0.9,2-0.9c0.8,0,1.4,0.3,2,0.9
				c0.5,0.6,0.8,1.2,0.8,2c0,0.1,0,0.1,0,0.1"/>
		</g>
	</g>
</g>
</svg>
