<?xml version="1.0" encoding="utf-8"?>
<!-- Generator: Adobe Illustrator 23.0.1, SVG Export Plug-In . SVG Version: 6.00 Build 0)  -->
<svg version="1.1" id="Layer_asdasdas1" xmlns="http://www.w3.org/2000/svg" xmlns:xlink="http://www.w3.org/1999/xlink" x="0px" y="0px"
	 viewBox="0 0 750 400" enable-background="new 0 0 750 400" xml:space="preserve">
<g id="clouds_bits">
	<g transform="matrix( 1, 0, 0, 1, 0,0) ">
		<g>
			<g id="Layer4_0_FILL">
				<path fill="#83C4EC" d="M628.7,263.8c-0.2-0.2-0.4-0.3-0.7-0.3c-0.3,0-0.5,0.1-0.7,0.3c-0.2,0.2-0.3,0.4-0.3,0.7v2.6h-2.6
					c-0.3,0-0.5,0.1-0.7,0.3c-0.2,0.2-0.3,0.4-0.3,0.7s0.1,0.5,0.3,0.6c0.2,0.2,0.4,0.3,0.7,0.3h2.6v2.5c0,0.6,0.3,1,1,1
					c0.3,0,0.5-0.1,0.7-0.3c0.2-0.2,0.3-0.4,0.3-0.7V269h2.5c0.3,0,0.5-0.1,0.7-0.3c0.2-0.2,0.3-0.4,0.3-0.6c0-0.6-0.3-1-1-1H629
					v-2.6C629,264.2,628.9,264,628.7,263.8 M378.8,54.5c0-0.3-0.1-0.5-0.3-0.7c-0.2-0.2-0.4-0.3-0.7-0.3s-0.5,0.1-0.6,0.3
					c-0.2,0.2-0.3,0.4-0.3,0.7v2.6h-2.6c-0.6,0-0.9,0.3-0.9,1c0,0.3,0.1,0.5,0.3,0.7c0.2,0.2,0.4,0.3,0.7,0.3h2.6v2.5
					c0,0.3,0.1,0.5,0.3,0.7c0.2,0.2,0.4,0.3,0.6,0.3s0.5-0.1,0.7-0.3c0.2-0.2,0.3-0.4,0.3-0.7V59h2.6c0.2,0,0.5-0.1,0.6-0.3
					c0.2-0.2,0.3-0.4,0.3-0.7c0-0.3-0.1-0.5-0.3-0.7c-0.2-0.2-0.4-0.3-0.6-0.3h-2.6V54.5 M242.3,306.4c-0.2-0.2-0.4-0.3-0.7-0.3
					c-0.3,0-0.5,0.1-0.7,0.3c-0.2,0.2-0.3,0.4-0.3,0.7v2.5h-2.5c-0.3,0-0.5,0.1-0.7,0.3c-0.2,0.2-0.3,0.4-0.3,0.6
					c0,0.3,0.1,0.5,0.3,0.7c0.2,0.2,0.4,0.3,0.7,0.3h2.5v2.5c0,0.3,0.1,0.5,0.3,0.6c0.2,0.2,0.4,0.3,0.7,0.3c0.2,0,0.4-0.1,0.7-0.3
					c0.2-0.2,0.3-0.4,0.3-0.6v-2.5h2.5c0.3,0,0.5-0.1,0.7-0.3c0.2-0.2,0.3-0.4,0.3-0.7c0-0.3-0.1-0.5-0.3-0.6
					c-0.2-0.2-0.4-0.3-0.7-0.3h-2.5v-2.5C242.6,306.8,242.5,306.6,242.3,306.4 M396.3,355c0.3,0,0.5-0.1,0.7-0.3
					c0.2-0.2,0.3-0.4,0.3-0.7c0-0.3-0.1-0.5-0.3-0.6c-0.2-0.2-0.4-0.3-0.7-0.3h-2.5v-2.6c0-0.6-0.3-0.9-1-0.9
					c-0.6,0-0.9,0.3-0.9,0.9v2.6h-2.6c-0.3,0-0.5,0.1-0.7,0.3c-0.2,0.2-0.3,0.4-0.3,0.6c0,0.3,0.1,0.5,0.3,0.7
					c0.2,0.2,0.4,0.3,0.7,0.3h2.6v2.6c0,0.3,0.1,0.5,0.3,0.6c0.2,0.2,0.4,0.3,0.7,0.3c0.3,0,0.5-0.1,0.7-0.3
					c0.2-0.2,0.3-0.4,0.3-0.6V355H396.3 M92.4,185.1c0-0.3-0.1-0.5-0.3-0.7c-0.2-0.2-0.4-0.3-0.7-0.3h-2.5v-2.6
					c0-0.3-0.1-0.5-0.3-0.7c-0.2-0.2-0.4-0.3-0.7-0.3c-0.3,0-0.5,0.1-0.7,0.3c-0.2,0.2-0.3,0.4-0.3,0.7v2.6h-2.5c-0.6,0-1,0.3-1,1
					c0,0.3,0.1,0.5,0.3,0.6c0.2,0.2,0.4,0.3,0.7,0.3h2.5v2.6c0,0.3,0.1,0.5,0.3,0.7c0.2,0.2,0.4,0.3,0.7,0.3c0.3,0,0.5-0.1,0.7-0.3
					c0.2-0.2,0.3-0.4,0.3-0.7v-2.6h2.5c0.2,0,0.5-0.1,0.7-0.3C92.3,185.6,92.4,185.4,92.4,185.1z"/>
				<path fill="#DEDEDE" d="M626.7,109.1c0,1.1,0.4,2,1.1,2.7c0.8,0.7,1.7,1.1,2.8,1.1c1,0,1.9-0.4,2.7-1.1c0.7-0.7,1.1-1.6,1.1-2.7
					s-0.4-2-1.1-2.8c-0.7-0.7-1.6-1.1-2.7-1.1s-2,0.4-2.8,1.1C627,107.1,626.7,108,626.7,109.1 M77.5,304.3c0,0.5,0.2,1,0.6,1.4
					c0.4,0.4,0.9,0.5,1.4,0.5s1-0.2,1.4-0.5c0.4-0.4,0.5-0.8,0.5-1.4s-0.2-1-0.5-1.4c-0.4-0.4-0.8-0.6-1.4-0.6c-0.6,0-1,0.2-1.4,0.6
					C77.7,303.3,77.5,303.7,77.5,304.3z"/>
				<path fill="#D1D1D1" d="M187.5,346c1.1,0,2-0.4,2.7-1.1c0.8-0.8,1.2-1.7,1.2-2.8c0-1-0.4-1.9-1.2-2.7c-0.7-0.7-1.6-1.1-2.7-1.1
					s-2,0.4-2.8,1.1c-0.7,0.7-1.1,1.6-1.1,2.7c0,1.1,0.4,2,1.1,2.8C185.5,345.6,186.4,346,187.5,346z"/>
				<path fill="#BAD727" d="M207.3,190.1c-0.4,0.4-0.6,0.8-0.6,1.3c0,0.5,0.2,1,0.6,1.4c0.4,0.4,0.8,0.6,1.3,0.6
					c0.5,0,1-0.2,1.4-0.6s0.6-0.8,0.6-1.4c0-0.5-0.2-1-0.6-1.3s-0.8-0.6-1.4-0.6S207.7,189.7,207.3,190.1 M514.9,326
					c-0.4,0.4-0.6,0.8-0.6,1.4c0,0.5,0.2,1,0.6,1.4c0.4,0.4,0.8,0.6,1.3,0.6s1-0.2,1.3-0.6c0.4-0.4,0.6-0.9,0.6-1.4
					c0-0.5-0.2-1-0.6-1.4c-0.4-0.4-0.8-0.5-1.3-0.5S515.3,325.7,514.9,326z"/>
				<path fill="#BFBFBF" d="M485.3,155.5l-3-5.2h-6l-3,5.2l3,5.2h6L485.3,155.5 M481.5,151.7l2.2,3.8l-2.2,3.8h-4.4l-2.2-3.8
					l2.2-3.8H481.5 M103.9,267.6l3.1-5.2l-3.1-5.2h-6l-3,5.2l3,5.2H103.9 M103.2,258.7l2.2,3.8l-2.2,3.8h-4.3l-2.2-3.8l2.2-3.8
					H103.2z"/>
				<path fill="#3D3D3D" fill-opacity="0.1686" d="M356.9,308.7c-3.4-3.3-7.5-5-12.2-5c-2.7,0-5.3,0.6-7.7,1.8
					c-2.3,1.1-4.3,2.7-6,4.8c-0.7-1.2-1.6-2.2-2.8-2.9c-1.2-0.8-2.6-1.1-4-1.1c-1.8,0-3.4,0.5-4.8,1.6c-1.4,1.1-2.3,2.5-2.7,4.2
					c-1.2-0.5-2.4-0.7-3.7-0.7c-1.9,0-3.7,0.5-5.4,1.6c-2.4-2.4-5.3-3.6-8.7-3.6c-2.6,0-4.9,0.7-7,2.1c-2.1,1.4-3.5,3.3-4.4,5.6
					c-1.2-1.3-2.6-1.9-4.3-1.9c-1.6,0-2.9,0.5-4,1.6c-1.1,1.1-1.8,2.4-1.9,3.9h84.8C362,316,360.3,312,356.9,308.7 M195.8,111.2
					c-5.8-5.7-12.7-8.5-20.7-8.5c-4.6,0-9,1-13.1,3c-4,1.9-7.3,4.6-10.1,8.1c-1.1-2.1-2.7-3.7-4.7-5c-2.1-1.3-4.4-1.9-6.8-1.9
					c-3,0-5.7,0.9-8.1,2.8c-2.3,1.9-3.8,4.2-4.6,7.1c-2-0.8-4.1-1.2-6.3-1.2c-3.4,0-6.4,0.9-9.2,2.8c-1.9-1.9-4.1-3.4-6.7-4.5
					c-2.6-1.1-5.3-1.6-8.1-1.6c-4.3,0-8.3,1.2-11.8,3.7c-3.5,2.4-6,5.5-7.6,9.4c-2-2.1-4.4-3.1-7.3-3.1c-2.6,0-4.9,0.9-6.9,2.8
					c-1.9,1.8-3,4-3.1,6.6h144.1C204.6,123.6,201.6,116.8,195.8,111.2 M584.4,85.9c-2-5.6-5.3-10.1-9.9-13.5
					c-4.6-3.5-9.8-5.3-15.5-5.3c-3.7,0-7.2,0.8-10.6,2.3c-3.2,1.5-6.1,3.6-8.6,6.3c-3.7-2.6-7.7-3.9-12-3.9c-2.8,0-5.5,0.6-8.2,1.8
					c-0.9-4.1-2.9-7.5-6-10.1c-3.1-2.7-6.6-4-10.6-4c-3.2,0-6.1,0.9-8.9,2.7c-2.6,1.8-4.7,4.1-6.1,7c-3.6-4.9-8-8.7-13.2-11.5
					c-5.4-2.9-11-4.3-17-4.3c-10.5,0-19.5,4-27,12c-7.5,8-11.4,17.7-11.7,29.1h187.8c-0.3-3.7-1.6-6.9-4.1-9.4
					c-2.5-2.6-5.5-3.8-9-3.8c-1.8,0-3.6,0.4-5.3,1.2C587,83.4,585.6,84.5,584.4,85.9z"/>
				<path fill="#F7571A" d="M538.3,251.3c0,0.5,0.2,1,0.6,1.4c0.4,0.4,0.8,0.6,1.3,0.6s1-0.2,1.3-0.6c0.4-0.4,0.6-0.9,0.6-1.4
					s-0.2-1-0.6-1.4c-0.4-0.4-0.8-0.5-1.3-0.5c-0.5,0-1,0.2-1.3,0.5C538.5,250.3,538.3,250.7,538.3,251.3 M403.3,122.7
					c0,0.5,0.2,1,0.6,1.4c0.4,0.4,0.8,0.6,1.4,0.6s1-0.2,1.4-0.6c0.4-0.4,0.5-0.8,0.5-1.4c0-0.5-0.2-1-0.5-1.3
					c-0.4-0.4-0.8-0.5-1.4-0.5c-0.5,0-1,0.2-1.4,0.5C403.5,121.7,403.3,122.2,403.3,122.7z"/>
			</g>
		</g>
		<g>
			<path id="Layer4_0_1_STROKES" fill="none" stroke="#BFBFBF" stroke-width="2" stroke-miterlimit="10" d="M531.8,33.3
				c0,0.9,0.3,1.7,1,2.3c0.6,0.6,1.4,1,2.3,1c0.9,0,1.6-0.3,2.3-1c0.6-0.6,1-1.4,1-2.3c0-0.9-0.3-1.6-1-2.3
				c-0.6-0.6-1.4-0.9-2.3-0.9c-0.9,0-1.7,0.3-2.3,0.9C532.2,31.7,531.8,32.4,531.8,33.3z M325.3,240.8c0,0.9,0.3,1.7,1,2.3
				s1.4,0.9,2.3,0.9c0.9,0,1.7-0.3,2.3-0.9s1-1.4,1-2.3s-0.3-1.7-1-2.3s-1.4-0.9-2.3-0.9c-0.9,0-1.6,0.3-2.3,0.9
				S325.3,239.9,325.3,240.8z M196.7,63.2c0,0.9,0.3,1.7,0.9,2.3s1.4,0.9,2.3,0.9c0.9,0,1.7-0.3,2.3-0.9s0.9-1.4,0.9-2.3
				c0-0.9-0.3-1.6-0.9-2.3c-0.6-0.6-1.4-1-2.3-1c-0.9,0-1.6,0.3-2.3,1C197,61.6,196.7,62.3,196.7,63.2z M312,367.3
				c0,0.9,0.3,1.7,0.9,2.3c0.6,0.6,1.4,1,2.3,1c0.9,0,1.7-0.3,2.3-1c0.6-0.6,0.9-1.4,0.9-2.3s-0.3-1.7-0.9-2.3c-0.6-0.6-1.4-1-2.3-1
				c-0.9,0-1.6,0.3-2.3,1C312.3,365.6,312,366.4,312,367.3z"/>
		</g>
	</g>
</g>
<g id="circles">
	<g transform="matrix( 1, 0, 0, 1, 0,0) ">
		<g>
			<g id="Layer3_0_FILL">
				<path fill="#BAD727" d="M138.9,251.4c-3.5,10.9-2.7,21.5,2.5,31.8c5.3,10.2,13.4,17.1,24.3,20.6c10.9,3.5,21.5,2.6,31.8-2.6
					c10.2-5.3,17.1-13.4,20.6-24.3c3.5-10.9,2.6-21.5-2.6-31.7c-5.3-10.2-13.4-17.1-24.3-20.6c-10.9-3.6-21.6-2.7-31.9,2.6
					C149.3,232.3,142.4,240.4,138.9,251.4z"/>
				<path fill="#F7571A" d="M478,244.5c-10.4-10.5-23.1-15.7-37.9-15.7c-14.8,0-27.4,5.2-37.9,15.7c-10.5,10.5-15.8,23.1-15.8,38
					c0,14.8,5.3,27.4,15.7,37.9c10.5,10.5,23.1,15.8,37.9,15.8c14.9-0.1,27.5-5.4,38-15.9c10.5-10.5,15.7-23.1,15.7-37.9
					C493.8,267.6,488.5,255,478,244.5z"/>
				<path fill="#2C538A" d="M326.6,187.6c16-8.2,26.8-20.8,32.3-37.9c5.5-17.1,4.1-33.7-4-49.7c-8.3-15.9-20.9-26.7-38-32.2
					c-17.1-5.5-33.6-4.1-49.6,4.1c-16,8.1-26.7,20.8-32.2,37.8c-5.5,17.1-4.2,33.6,4,49.6c8.2,16,20.8,26.8,37.9,32.3
					C294.1,197.2,310.6,195.9,326.6,187.6 M549.2,127.6c-12.1,6.3-20.3,15.9-24.5,28.8c-4.1,13-3.1,25.5,3.1,37.6
					c6.2,12.2,15.8,20.3,28.8,24.5c13,4.2,25.5,3.1,37.7-3.1c12.1-6.2,20.3-15.8,24.5-28.8c4.2-13,3.2-25.5-3-37.6
					c-6.2-12.2-15.8-20.3-28.8-24.5C573.9,120.4,561.3,121.4,549.2,127.6z"/>
			</g>
		</g>
		<g>
			<path id="Layer3_0_1_STROKES" fill="none" stroke="#A3A3A3" stroke-miterlimit="10" d="M621.9,145.6c-7.1-13.8-18-23-32.8-27.8
				c-14.8-4.8-29.1-3.6-42.9,3.5c-13.8,7.1-23.1,18-27.9,32.8s-3.6,29.1,3.5,42.9c6,11.8,14.8,20.3,26.5,25.5
				c0.1,0.1,0.2,0.1,0.3,0.1l3.5,1.4c0.8,0.3,1.6,0.6,2.5,0.8c14.8,4.8,29.2,3.6,43-3.5 M331,195.9c18.1-9.4,30.4-23.8,36.7-43.3
				c6.3-19.5,4.7-38.4-4.6-56.6c-9.3-18.2-23.7-30.4-43.3-36.7c-19.5-6.3-38.4-4.8-56.6,4.7c-15.5,7.9-26.7,19.5-33.6,34.8
				c0,0.2-0.1,0.3-0.2,0.5l-1.8,4.6c-0.4,1-0.8,2.1-1.1,3.2c-6.3,19.6-4.8,38.5,4.6,56.6 M397.3,326c11.9,11.9,26.3,17.9,43.2,17.9
				c16.8,0,31.2-6,43.1-18c11.9-11.9,17.9-26.3,17.9-43.1c0-16.9-5.9-31.3-17.8-43.2c-12-12-26.4-17.9-43.2-17.9
				c-16.9,0-31.3,6-43.2,17.9 M163.8,309.6c12.6,4,24.8,3.1,36.6-2.9c11.7-6,19.6-15.3,23.8-27.9c4-12.6,3-24.8-3-36.5
				c-6-11.8-15.3-19.7-27.9-23.8c-12.6-4-24.8-3-36.6,3c-11.7,6-19.6,15.3-23.7,27.9"/>
		</g>
	</g>
</g>
<g id="connectors">
	<g transform="matrix( 1, 0, 0, 1, 0,0) ">
		<g>
			<g id="Layer2_0_FILL">
				<path fill="#FEFEFE" d="M521.2,193.1c0-0.4-0.2-0.7-0.5-1c-0.3-0.3-0.6-0.4-1-0.4c-0.4,0-0.8,0.1-1.1,0.4
					c-0.3,0.3-0.4,0.6-0.4,1c0,0.1,0,0.1,0,0.2c0,0.4,0.2,0.7,0.4,0.9c0.3,0.3,0.7,0.4,1.1,0.4c0.4,0,0.8-0.1,1-0.4
					C521,193.9,521.2,193.6,521.2,193.1 M221.9,279.1c-0.6,0.6-0.8,1.2-0.8,2s0.3,1.4,0.8,2c0.6,0.6,1.2,0.9,2,0.9
					c0.8,0,1.4-0.3,2-0.9c0.5-0.6,0.8-1.2,0.8-2c0-0.1,0-0.1,0-0.1c0-0.7-0.3-1.3-0.8-1.9c-0.6-0.5-1.2-0.8-2-0.8
					C223.1,278.3,222.5,278.6,221.9,279.1 M422.1,221.4c-0.8,0-1.4,0.3-2,0.8c-0.6,0.6-0.9,1.2-0.9,2c0,0.8,0.3,1.4,0.9,2
					c0.6,0.6,1.2,0.9,2,0.9c0.8,0,1.4-0.3,2-0.9c0.5-0.6,0.8-1.2,0.8-2c0-0.8-0.3-1.4-0.8-2c-0.5-0.5-1.1-0.8-1.9-0.8
					C422.3,221.4,422.2,221.4,422.1,221.4 M367.1,109.7c0,0.4,0.2,0.8,0.5,1c0.3,0.3,0.6,0.5,1,0.5c0.4,0,0.8-0.2,1.1-0.5
					c0.2-0.2,0.4-0.5,0.4-0.9c0,0,0-0.1,0-0.2c0-0.4-0.1-0.7-0.4-1c-0.3-0.3-0.6-0.5-1.1-0.5c-0.4,0-0.8,0.2-1,0.5
					C367.3,108.9,367.1,109.3,367.1,109.7 M574.3,226.2c-0.6-0.6-1.2-0.8-2-0.8c-0.8,0-1.4,0.3-2,0.8c-0.6,0.6-0.8,1.2-0.8,2
					c0,0.8,0.3,1.4,0.8,2c0.6,0.5,1.2,0.8,2,0.8c0.1,0,0.1,0,0.2,0c0.7,0,1.3-0.3,1.8-0.8c0.5-0.6,0.8-1.2,0.8-2
					C575,227.4,574.8,226.8,574.3,226.2 M500.7,283c-0.3,0.3-0.5,0.6-0.5,1c0,0.4,0.1,0.7,0.5,1c0.3,0.3,0.6,0.5,1,0.5
					c0.4,0,0.8-0.1,1-0.5c0.3-0.3,0.4-0.6,0.4-1c0-0.1,0-0.1,0-0.1c0-0.4-0.2-0.7-0.4-0.9c-0.3-0.3-0.6-0.5-1-0.5
					C501.3,282.5,501,282.6,500.7,283 M226.4,145.3c-0.6-0.5-1.2-0.8-2-0.8c-0.8,0-1.4,0.3-2,0.8c-0.5,0.5-0.8,1.1-0.8,1.8
					c0,0,0,0.1,0,0.2c0,0.8,0.3,1.4,0.8,2c0.6,0.6,1.2,0.8,2,0.8c0.8,0,1.4-0.3,2-0.8c0.6-0.6,0.9-1.2,0.9-2
					C227.3,146.5,227,145.9,226.4,145.3 M165.6,216.4c0,0-0.1,0-0.2,0c-0.4,0-0.7,0.1-1,0.4c-0.3,0.3-0.4,0.7-0.4,1.1
					c0,0.4,0.2,0.8,0.4,1.1c0.3,0.3,0.6,0.4,1,0.4c0.4,0,0.8-0.1,1.1-0.4c0.3-0.3,0.4-0.6,0.4-1.1c0-0.4-0.1-0.8-0.4-1.1
					C166.3,216.5,166,216.4,165.6,216.4z"/>
			</g>
		</g>
		<g>
			<path id="Layer2_0_1_STROKES" fill="none" stroke="#A3A3A3" stroke-miterlimit="10" d="M518.2,193.3c0,0.4,0.2,0.7,0.4,0.9
				c0.3,0.3,0.7,0.4,1.1,0.4c0.4,0,0.8-0.1,1-0.4c0.3-0.3,0.5-0.6,0.5-1.1c0-0.4-0.2-0.7-0.5-1c-0.3-0.3-0.6-0.4-1-0.4
				c-0.4,0-0.8,0.1-1.1,0.4c-0.3,0.3-0.4,0.6-0.4,1C518.2,193.2,518.2,193.3,518.2,193.3h-95.9l0,28.1c0.7,0,1.3,0.3,1.9,0.8
				c0.5,0.6,0.8,1.2,0.8,2c0,0.8-0.3,1.4-0.8,2c-0.6,0.6-1.2,0.9-2,0.9c-0.8,0-1.4-0.3-2-0.9c-0.6-0.6-0.9-1.2-0.9-2
				c0-0.8,0.3-1.4,0.9-2c0.6-0.5,1.2-0.8,2-0.8c0.1,0,0.1,0,0.1,0 M370.1,109.8c0,0.4-0.2,0.7-0.4,0.9c-0.3,0.3-0.6,0.5-1.1,0.5
				c-0.4,0-0.8-0.2-1-0.5c-0.3-0.3-0.5-0.6-0.5-1c0-0.4,0.2-0.7,0.5-1c0.3-0.3,0.6-0.5,1-0.5c0.4,0,0.8,0.2,1.1,0.5
				c0.3,0.3,0.4,0.6,0.4,1C370.1,109.7,370.1,109.8,370.1,109.8h43.6c2.3,0,4.3,0.8,6,2.4c1.6,1.6,2.4,3.6,2.4,5.9l0.1,75.1h-48.6
				c-2.3,0-4.3,0.8-5.9,2.4l-0.1,0.1c-1.6,1.6-2.4,3.6-2.4,5.9l-0.2,70.8c0,2.3-0.8,4.3-2.4,5.9l0,0c-1.6,1.6-3.5,2.4-5.7,2.5H226.7
				c0,0,0,0.1,0,0.1c0,0.8-0.3,1.4-0.8,2c-0.6,0.6-1.2,0.9-2,0.9c-0.8,0-1.4-0.3-2-0.9c-0.6-0.6-0.8-1.2-0.8-2s0.3-1.4,0.8-2
				c0.6-0.5,1.2-0.8,2-0.8c0.8,0,1.4,0.3,2,0.8c0.5,0.5,0.8,1.1,0.8,1.9 M572.4,231c0.7,0,1.3-0.3,1.8-0.8c0.5-0.6,0.8-1.2,0.8-2
				c0-0.8-0.3-1.4-0.8-2c-0.6-0.6-1.2-0.8-2-0.8c-0.8,0-1.4,0.3-2,0.8c-0.6,0.6-0.8,1.2-0.8,2c0,0.8,0.3,1.4,0.8,2
				c0.6,0.5,1.2,0.8,2,0.8C572.3,231,572.4,231,572.4,231l-0.2,44.5c0,2.3-0.8,4.3-2.5,5.9c-1.6,1.6-3.6,2.5-6,2.5h-60.6
				c0,0,0,0.1,0,0.1c0,0.4-0.1,0.7-0.4,1c-0.3,0.3-0.6,0.5-1,0.5c-0.4,0-0.8-0.1-1-0.5c-0.3-0.3-0.5-0.6-0.5-1c0-0.4,0.1-0.8,0.5-1
				c0.3-0.3,0.6-0.5,1-0.5c0.4,0,0.8,0.1,1,0.5c0.2,0.2,0.4,0.5,0.4,0.9 M221.6,147.1c0-0.7,0.3-1.3,0.8-1.8c0.6-0.5,1.2-0.8,2-0.8
				c0.8,0,1.4,0.3,2,0.8c0.6,0.6,0.9,1.2,0.9,2c0,0.8-0.3,1.4-0.9,2c-0.6,0.6-1.2,0.8-2,0.8c-0.8,0-1.4-0.3-2-0.8
				c-0.5-0.6-0.8-1.2-0.8-2C221.6,147.2,221.6,147.2,221.6,147.1l-47.6,0.2c-2.3,0-4.3,0.8-5.9,2.4s-2.4,3.6-2.4,5.9v60.7
				c0.4,0,0.7,0.2,0.9,0.4c0.3,0.3,0.4,0.7,0.4,1.1c0,0.4-0.1,0.8-0.4,1.1c-0.3,0.3-0.6,0.4-1.1,0.4c-0.4,0-0.7-0.1-1-0.4
				c-0.3-0.3-0.4-0.6-0.4-1.1c0-0.4,0.2-0.8,0.4-1.1c0.3-0.3,0.6-0.4,1-0.4c0.1,0,0.1,0,0.2,0"/>
		</g>
	</g>
</g>
<g id="icons">
	<g transform="matrix( 1, 0, 0, 1, 0,0) ">
		<g>
			<path id="Layer1_0_1_STROKES" fill="none" stroke="#3A6FBB" stroke-linecap="round" stroke-linejoin="round" d="M194.9,264.9
				c0,4.4-1.5,8.1-4.6,11.3c-3.1,3.1-6.9,4.7-11.3,4.7s-8.1-1.6-11.3-4.7c-2.5-2.5-4-5.5-4.5-8.9c-0.1-0.8-0.2-1.5-0.2-2.4
				c0-4.4,1.6-8.1,4.7-11.3c2.4-2.4,5.1-3.8,8.2-4.4c1-0.2,2-0.3,3.1-0.3c4.4,0,8.1,1.6,11.3,4.7
				C193.4,256.7,194.9,260.5,194.9,264.9z M178.4,257.3v7.6l8.3,7.6 M170.2,238.9c1.9-0.6,3.8-1,5.8-1.2c0.9-0.1,1.9-0.1,2.8-0.1
				c7.7,0,14.3,2.7,19.8,8.1c5.4,5.4,8.1,11.9,8.1,19.7c0,7.7-2.7,14.3-8.1,19.8c-5.5,5.4-12.1,8.1-19.8,8.1
				c-7.7,0-14.2-2.7-19.7-8.1c-5-5-7.7-11-8.1-17.9c0-0.6-0.1-1.2-0.1-1.9c0-7.6,2.7-14.2,8.2-19.7c1.3-1.3,2.6-2.4,4-3.3v-0.2
				h-10.7 M163.1,252.4v-10.1"/>
		</g>
		<g>
			<path id="Layer1_0_2_STROKES" fill="none" stroke="#FFFFFF" stroke-linecap="round" stroke-linejoin="round" d="M567.8,194.1
				c-5.9,0-11-0.9-15.2-2.7c-4.2-1.8-6.3-3.9-6.3-6.3V175v-10.1v-9.1v-0.1c0-2.5,2.1-4.6,6.3-6.4c4.2-1.8,9.3-2.6,15.2-2.6
				s11,0.9,15.3,2.6c4.2,1.8,6.3,3.9,6.3,6.4v0.1v12.3 M571.2,173.6l-3.4,0.1c-5.9,0-11-0.9-15.2-2.6c-4.1-1.7-6.2-3.8-6.3-6.3
				 M589.3,155.8c-0.1,2.4-2.1,4.5-6.3,6.3c-4.2,1.8-9.3,2.6-15.3,2.6s-11-0.9-15.2-2.6c-4.1-1.8-6.2-3.9-6.3-6.3 M567.8,183.9
				c-5.9,0-11-0.9-15.2-2.6c-4.1-1.7-6.2-3.8-6.3-6.3 M578,185.1c0.7-2,2-3.7,4-5c1.9-1.3,4-1.9,6.2-1.9s4.3,0.6,6.3,1.9
				c1.9,1.3,3.2,3,3.9,5v-5.7 M598.3,191.9c-0.7,2-2,3.6-3.9,4.9c-2,1.3-4.1,1.9-6.3,1.9s-4.3-0.6-6.2-1.9c-2-1.3-3.3-2.9-4-4.9v5.7
				 M578,191.9h5.7 M598.3,185.1h-5.6 M335.2,99.6h-10v-9.9h10V99.6z M335.2,102.9v10h-10v-10H335.2z M335.2,126.2h-10v-9.9h10
				V126.2z M335.2,129.6v9.9h-10v-9.9v-0.1L335.2,129.6L335.2,129.6h-10 M441.3,289.7v7.9 M295.3,89.7L295.3,89.7l0,9.9h0h-9.9v-9.9
				H295.3v9.9 M321.9,89.7L321.9,89.7l0,9.9h0H312v-9.9H321.9v9.9 M308.6,99.6h-10v-9.9h10V99.6z M321.9,112.9v-10h0L321.9,112.9
				L321.9,112.9l0,10.8l0,2.5h0h-23.3v-23.3h23.3 M295.3,102.9L295.3,102.9l0,10v10.8v2.4h0H272v-23.3H295.3v10h0 M298.6,129.6
				L298.6,129.6h2.5H312v-0.1h9.9h0v0.1v9.9l0,10.8l0,2.5h0h-23.3V129.6h2.5 M295.3,129.5L295.3,129.5L295.3,129.5L295.3,129.5
				L295.3,129.5h-9.9v0.1L295.3,129.5l0,2.1L295.3,129.5 M295.3,123.8l0,2.4 M289,146.8V136l-24,23.8 M321.9,129.5L321.9,129.5
				L321.9,129.5 M321.9,129.6v9.9h0 M312,129.6h9.9 M321.9,126.2l0-2.5 M295.3,131.6l0,24.5h0v10h0h-36.5v-36.6v-0.1l2.1,0.1h24.5
				 M258.8,129.6h2.1 M321.9,152.8l0-2.5 M295.3,156.1v10 M289,136h-10.8"/>
		</g>
		<g>
			<path id="Layer1_0_3_STROKES" fill="none" stroke="#FFFFFF" stroke-linejoin="round" d="M426.5,273.6v-9.5
				c0-4.1,1.4-7.5,4.4-10.4c2.9-2.9,6.4-4.3,10.4-4.3c4.1,0,7.6,1.4,10.5,4.3c2.9,2.9,4.3,6.4,4.3,10.4v9.5h8.2v37.5h-45.7v-37.5
				H426.5H456 M441.3,289.7c-0.4,0-0.6-0.1-0.9-0.5c-0.3-0.3-0.4-0.6-0.4-0.9c0-0.4,0.1-0.8,0.4-1c0.2-0.3,0.5-0.4,0.9-0.4
				c0.4,0,0.8,0.1,1,0.4c0.2,0.3,0.3,0.6,0.3,1c0,0.4-0.1,0.7-0.3,0.9C442,289.6,441.6,289.7,441.3,289.7z"/>
		</g>
	</g>
</g>
</svg>
