<?xml version="1.0" encoding="utf-8"?>
<!-- Generator: Adobe Illustrator 23.0.1, SVG Export Plug-In . SVG Version: 6.00 Build 0)  -->
<svg version="1.1" id="Layer_sssss1" xmlns="http://www.w3.org/2000/svg" xmlns:xlink="http://www.w3.org/1999/xlink" x="0px" y="0px"
	 viewBox="0 0 750 400" enable-background="new 0 0 750 400" xml:space="preserve">
<g id="clouds_bits">
	<g transform="matrix( 1, 0, 0, 1, 0,0) ">
		<g>
			<g id="Layer4_0_FILL">
				<path fill="#D1D1D1" d="M270,63.5c0-1.1-0.4-2-1.1-2.7c-0.8-0.7-1.7-1.1-2.8-1.1c-1.1,0-2,0.4-2.7,1.1c-0.8,0.8-1.2,1.7-1.2,2.7
					c0,1.1,0.4,2,1.2,2.8c0.7,0.7,1.6,1.1,2.7,1.1c1.1,0,2-0.4,2.8-1.1C269.6,65.5,270,64.6,270,63.5z"/>
				<path fill="#F7571A" d="M126.3,172.3c-0.4-0.4-0.8-0.6-1.4-0.6c-0.5,0-1,0.2-1.3,0.6c-0.4,0.4-0.5,0.8-0.5,1.4
					c0,0.5,0.2,1,0.5,1.4c0.4,0.4,0.8,0.6,1.3,0.6c0.5,0,1-0.2,1.4-0.6c0.4-0.4,0.6-0.9,0.6-1.4S126.7,172.6,126.3,172.3
					 M638.2,264.1c0-0.5-0.2-1-0.6-1.4c-0.4-0.4-0.8-0.5-1.3-0.5s-1,0.2-1.3,0.5c-0.4,0.4-0.6,0.8-0.6,1.4c0,0.5,0.2,1,0.6,1.4
					c0.4,0.4,0.8,0.6,1.3,0.6s1-0.2,1.3-0.6C638,265.1,638.2,264.7,638.2,264.1z"/>
				<path fill="#BFBFBF" d="M356,347.1l3,5.2h6.1l3-5.2l-3-5.2H359L356,347.1 M359.9,343.3h4.4l2.2,3.8l-2.2,3.8h-4.4l-2.2-3.8
					L359.9,343.3 M631.3,72.6l3-5.2l-3-5.2h-6l-3,5.2l3,5.2H631.3 M630.5,63.6l2.2,3.8l-2.2,3.8h-4.3l-2.2-3.8l2.2-3.8H630.5z"/>
				<path fill="#83C4EC" d="M616,287.9c-0.3,0-0.5,0.1-0.7,0.3c-0.2,0.2-0.3,0.4-0.3,0.7s0.1,0.5,0.3,0.6c0.2,0.2,0.4,0.3,0.7,0.3
					h2.5v2.6c0,0.3,0.1,0.5,0.3,0.7c0.2,0.2,0.4,0.3,0.7,0.3c0.3,0,0.5-0.1,0.7-0.3c0.2-0.2,0.3-0.4,0.3-0.7v-2.6h2.5
					c0.3,0,0.5-0.1,0.7-0.3c0.2-0.2,0.3-0.4,0.3-0.6c0-0.6-0.3-1-1-1h-2.5v-2.6c0-0.2-0.1-0.4-0.3-0.6c-0.2-0.2-0.4-0.3-0.7-0.3
					c-0.3,0-0.5,0.1-0.7,0.3c-0.2,0.2-0.3,0.4-0.3,0.6v2.6H616 M617.2,120.5c0,0.3,0.1,0.5,0.3,0.7c0.2,0.2,0.4,0.3,0.7,0.3h2.5v2.6
					c0,0.3,0.1,0.5,0.3,0.7c0.2,0.2,0.4,0.2,0.7,0.3c0.3,0,0.5-0.1,0.6-0.3c0.2-0.2,0.3-0.4,0.3-0.7v-2.6h2.5c0.3,0,0.5-0.1,0.7-0.3
					c0.2-0.2,0.3-0.4,0.3-0.7c0-0.6-0.3-0.9-1-0.9h-2.5v-2.6c0-0.2-0.1-0.4-0.3-0.6c-0.2-0.2-0.4-0.3-0.6-0.3
					c-0.3,0-0.5,0.1-0.7,0.3c-0.2,0.2-0.3,0.4-0.3,0.6v2.6h-2.5c-0.3,0-0.5,0.1-0.7,0.3C617.3,120,617.2,120.2,617.2,120.5
					 M130.4,315.4v2.5h-2.5c-0.3,0-0.5,0.1-0.7,0.3c-0.2,0.2-0.3,0.4-0.3,0.6s0.1,0.5,0.3,0.7c0.2,0.2,0.4,0.3,0.7,0.3h2.5v2.6
					c0,0.3,0.1,0.5,0.3,0.6c0.2,0.2,0.4,0.3,0.7,0.3c0.3,0,0.5-0.1,0.7-0.3c0.2-0.2,0.3-0.4,0.3-0.6v-2.6h2.5c0.3,0,0.5-0.1,0.7-0.3
					c0.2-0.2,0.3-0.4,0.3-0.7s-0.1-0.5-0.3-0.6c-0.2-0.2-0.4-0.3-0.7-0.3h-2.5v-2.5c0-0.6-0.3-1-1-1
					C130.8,314.4,130.4,314.7,130.4,315.4 M138.4,190.8c-0.2,0.2-0.3,0.4-0.3,0.6c0,0.3,0.1,0.5,0.3,0.7c0.2,0.2,0.4,0.3,0.7,0.3
					h2.6v2.6c0,0.3,0.1,0.5,0.3,0.6c0.2,0.2,0.4,0.3,0.6,0.3c0.3,0,0.5-0.1,0.7-0.3c0.2-0.2,0.3-0.4,0.3-0.6v-2.6h2.6
					c0.3,0,0.5-0.1,0.7-0.3c0.2-0.2,0.3-0.4,0.3-0.7c0-0.2-0.1-0.4-0.3-0.6c-0.2-0.2-0.4-0.3-0.7-0.3h-2.6v-2.6
					c0-0.3-0.1-0.5-0.3-0.7c-0.2-0.2-0.4-0.3-0.7-0.3c-0.3,0-0.5,0.1-0.6,0.3c-0.2,0.2-0.3,0.4-0.3,0.7v2.6h-2.6
					C138.9,190.5,138.7,190.6,138.4,190.8 M244.9,46.3c-0.2,0.2-0.3,0.4-0.3,0.7v2.6h-2.5c-0.6,0-1,0.3-1,1c0,0.3,0.1,0.5,0.3,0.7
					c0.2,0.2,0.4,0.3,0.7,0.3h2.5V54c0,0.3,0.1,0.5,0.3,0.7c0.2,0.2,0.4,0.3,0.7,0.3c0.6,0,0.9-0.3,0.9-1v-2.5h2.6
					c0.3,0,0.5-0.1,0.7-0.3c0.2-0.2,0.3-0.4,0.3-0.7c0-0.3-0.1-0.5-0.3-0.7c-0.2-0.2-0.4-0.3-0.7-0.3h-2.6V47c0-0.3-0.1-0.5-0.3-0.7
					c-0.2-0.2-0.4-0.3-0.7-0.3C245.4,46,245.2,46.1,244.9,46.3z"/>
				<path fill="#DEDEDE" d="M671.6,193.6c0.7-0.7,1.1-1.6,1.1-2.7c0-1.1-0.4-2-1.1-2.8c-0.8-0.7-1.7-1.1-2.8-1.1
					c-1.1,0-2,0.4-2.7,1.1c-0.7,0.8-1.1,1.7-1.1,2.8c0,1.1,0.4,2,1.1,2.7c0.8,0.7,1.7,1.1,2.7,1.1
					C669.9,194.6,670.8,194.3,671.6,193.6 M66,228.1c0-0.5-0.2-1-0.6-1.4c-0.4-0.4-0.8-0.6-1.4-0.6c-0.5,0-1,0.2-1.4,0.6
					c-0.4,0.4-0.5,0.9-0.5,1.4c0,0.5,0.2,1,0.5,1.3c0.4,0.4,0.8,0.6,1.4,0.6c0.5,0,1-0.2,1.4-0.6C65.8,229.1,66,228.6,66,228.1z"/>
				<path fill="#BAD727" d="M602.2,157c-0.5,0-1,0.2-1.4,0.6c-0.4,0.4-0.5,0.8-0.5,1.3c0,0.5,0.2,1,0.5,1.4c0.4,0.4,0.8,0.6,1.4,0.6
					c0.5,0,1-0.2,1.3-0.6c0.4-0.4,0.6-0.8,0.6-1.4c0-0.5-0.2-1-0.6-1.3C603.1,157.2,602.7,157,602.2,157 M175.2,358
					c0-0.5-0.2-1-0.6-1.4c-0.4-0.4-0.8-0.5-1.3-0.5c-0.5,0-1,0.2-1.4,0.5c-0.4,0.4-0.6,0.8-0.6,1.4c0,0.5,0.2,1,0.6,1.4
					c0.4,0.4,0.8,0.6,1.4,0.6c0.5,0,1-0.2,1.3-0.6C175,359,175.2,358.5,175.2,358z"/>
				<path fill="#3D3D3D" fill-opacity="0.1686" d="M150.3,242.4c-1.3,0-2.5,0.2-3.7,0.7c-0.4-1.7-1.3-3.1-2.7-4.2
					c-1.4-1.1-3-1.6-4.8-1.6c-1.4,0-2.8,0.4-4,1.1c-1.2,0.7-2.1,1.7-2.8,2.9c-1.6-2-3.6-3.6-6-4.8c-2.4-1.2-5-1.8-7.7-1.8
					c-4.7,0-8.8,1.7-12.2,5c-3.4,3.3-5.1,7.3-5.3,12.1H186c-0.1-1.5-0.8-2.8-1.9-3.9c-1.1-1.1-2.5-1.6-4.1-1.6
					c-1.7,0-3.1,0.6-4.3,1.9c-0.9-2.3-2.4-4.2-4.4-5.6c-2.1-1.4-4.4-2.1-7-2.1c-3.4,0-6.3,1.2-8.7,3.6
					C154,243,152.2,242.4,150.3,242.4 M505.1,40c-6,0-11.7,1.4-17,4.3c-5.2,2.8-9.6,6.6-13.2,11.5c-1.4-2.9-3.5-5.3-6.1-7
					c-2.7-1.8-5.7-2.7-8.8-2.7c-4,0-7.5,1.3-10.6,4c-3,2.6-5,6-6,10.1c-2.7-1.2-5.4-1.8-8.2-1.8c-4.3,0-8.3,1.3-12,3.9
					c-2.5-2.7-5.4-4.8-8.6-6.3c-3.4-1.5-6.9-2.3-10.6-2.3c-5.7,0-10.8,1.8-15.4,5.3c-4.5,3.4-7.8,7.9-9.9,13.5
					c-1.2-1.4-2.6-2.5-4.3-3.3c-1.7-0.8-3.5-1.2-5.3-1.2c-3.5,0-6.5,1.3-9,3.8c-2.5,2.6-3.9,5.7-4.2,9.4h187.8
					c-0.2-11.4-4.1-21.1-11.6-29.1C524.7,44.1,515.7,40,505.1,40 M651.5,346c-0.2-2.6-1.2-4.8-3.2-6.6c-2-1.8-4.3-2.8-6.9-2.8
					c-2.9,0-5.4,1-7.4,3.1c-1.5-3.9-4-7-7.5-9.4c-3.6-2.5-7.5-3.7-11.8-3.7c-2.8,0-5.5,0.5-8.1,1.6c-2.5,1-4.7,2.5-6.6,4.5
					c-2.8-1.8-5.8-2.8-9.2-2.8c-2.1,0-4.2,0.4-6.3,1.2c-0.7-2.9-2.2-5.2-4.5-7.1c-2.4-1.9-5.1-2.8-8.2-2.8c-2.4,0-4.7,0.6-6.8,1.9
					c-2,1.2-3.6,2.9-4.7,4.9c-2.8-3.5-6.1-6.2-10.1-8.1c-4.1-2-8.5-3-13.1-3c-8,0-14.9,2.8-20.7,8.5c-5.8,5.6-8.8,12.5-9,20.5H651.5
					z"/>
			</g>
		</g>
		<g>
			<path id="Layer4_0_1_STROKES" fill="none" stroke="#BFBFBF" stroke-width="2" stroke-miterlimit="10" d="M421.5,363.2
				c0,0.9-0.3,1.7-0.9,2.3c-0.6,0.6-1.4,1-2.3,1c-0.9,0-1.7-0.3-2.3-1c-0.6-0.6-0.9-1.4-0.9-2.3s0.3-1.7,0.9-2.3
				c0.6-0.6,1.4-0.9,2.3-0.9c0.9,0,1.6,0.3,2.3,0.9C421.2,361.5,421.5,362.3,421.5,363.2z M121.5,124.4c0,0.9-0.3,1.7-0.9,2.3
				c-0.6,0.6-1.4,1-2.3,1c-0.9,0-1.6-0.3-2.3-1c-0.6-0.6-0.9-1.4-0.9-2.3c0-0.9,0.3-1.6,0.9-2.3c0.6-0.6,1.4-1,2.3-1
				c0.9,0,1.7,0.3,2.3,1C121.2,122.8,121.5,123.5,121.5,124.4z M151.8,300.2c0,0.3-0.1,0.6-0.1,0.9c-0.1,0.5-0.4,1-0.8,1.4
				c-0.6,0.6-1.4,1-2.3,1c-0.9,0-1.7-0.3-2.3-1s-0.9-1.4-0.9-2.3c0-0.9,0.3-1.6,0.9-2.3c0.4-0.4,0.9-0.7,1.5-0.9
				c0.3-0.1,0.5-0.1,0.8-0.1c0.9,0,1.6,0.3,2.3,1S151.8,299.3,151.8,300.2z"/>
		</g>
	</g>
</g>
<g id="browser">
	<g transform="matrix( 1, 0, 0, 1, 0,0) ">
		<g>
			<g id="Layer3_0_FILL">
				<path fill="#2C538A" d="M248,93.2h-72.6v231.3c0,0.8,0.1,1.5,0.4,2.3c0.3,0.7,0.8,1.4,1.4,2.1c1,1,2.2,1.7,3.6,2
					c0.3,0.1,0.6,0.1,1,0.1h0.1h66V93.2z"/>
				<path fill="#595959" d="M175.4,93.2h-0.3v230.5c0,1.1,0.2,2.1,0.7,3c-0.3-0.7-0.4-1.5-0.4-2.3V93.2 M248,93.2L248,93.2l-72.8,0
					v0h0.3H248 M532.8,72.9c-0.2-0.1-0.4-0.1-0.6-0.1H175.4c-2,0-3.7,0.7-5.1,2.1c-1.4,1.4-2.1,3.1-2.1,5.1v243.6c0,2,0.7,3.6,2.1,5
					c1.4,1.4,3.1,2.1,5.1,2.1h5c-1.2-0.3-2.3-0.9-3.1-1.8c-0.7-0.7-1.1-1.5-1.4-2.3c-0.4-0.9-0.7-1.9-0.7-3V93.2h-0.3h0.3v0v-13
					c0,0,0-0.1,0-0.1l0.2-1.4c0.2-1.4,0.9-2.6,1.9-3.7c1.4-1.4,3.1-2.1,5.1-2.1l2.6,0H532.8 M538.5,93.2L538.5,93.2l-290.5,0v0
					H538.5 M539.6,93.2L539.6,93.2l-1.1,0v0H539.6 M184.9,72.9l-2.6,0c-2,0-3.7,0.7-5.1,2.1c-1.1,1.1-1.7,2.3-1.9,3.7
					c0.3-1.4,0.9-2.6,2-3.6c1.4-1.4,3.1-2.2,5.1-2.2H184.9 M532.8,72.9h6.8v-0.1h-7.3C532.4,72.8,532.6,72.9,532.8,72.9z"/>
				<path fill="#FEFEFE" d="M578.5,328.8c-1.3,1.3-2.9,2-4.8,2.1c1.9,0,3.5-0.7,4.9-2c1.3-1.4,2-3,2-4.9
					C580.5,325.8,579.8,327.4,578.5,328.8 M580.6,93.2h-0.3h-40.7h-1.1H248v237.7h325.7c1.9-0.1,3.5-0.8,4.8-2.1
					c1.3-1.4,2-3,2.1-4.8c0-0.1,0-0.2,0-0.3V93.2 M181.9,330.9c-0.3,0-0.7-0.1-1-0.1c-1.4-0.3-2.6-0.9-3.6-2
					c-0.6-0.7-1.1-1.4-1.4-2.1c0.3,0.8,0.8,1.6,1.4,2.3c0.9,0.9,1.9,1.5,3.1,1.8C180.9,330.9,181.4,330.9,181.9,330.9z"/>
				<path fill="#CACACA" d="M573.4,72.9h-2.5h-31.3h-6.8H184.9h-2.5c-2,0-3.7,0.7-5.1,2.2c-1.1,1-1.7,2.2-2,3.6l-0.2,1.4
					c0,0,0,0.1,0,0.1v13H248h290.5h1.1h41v-13c0,0,0-0.1,0-0.1c0-1-0.2-1.9-0.5-2.7c-0.1-0.2-0.2-0.4-0.3-0.6
					c-0.3-0.6-0.8-1.2-1.3-1.7C577.1,73.7,575.4,72.9,573.4,72.9 M195.1,82.4c0-0.8,0.3-1.4,0.8-2c0.5-0.5,1.2-0.8,2-0.8
					c0.8,0,1.4,0.3,2,0.8c0.5,0.6,0.8,1.2,0.8,2c0,0.8-0.3,1.4-0.8,2c-0.6,0.5-1.2,0.8-2,0.8c-0.8,0-1.4-0.3-2-0.8
					C195.4,83.9,195.1,83.2,195.1,82.4 M187.4,79.7c0.8,0,1.4,0.3,2,0.8c0.5,0.6,0.8,1.2,0.8,2c0,0.8-0.3,1.4-0.8,2
					c-0.5,0.5-1.2,0.8-2,0.8c-0.8,0-1.4-0.3-2-0.8c-0.5-0.5-0.8-1.2-0.8-2c0-0.8,0.3-1.4,0.8-2C186,79.9,186.6,79.7,187.4,79.7
					 M211.1,82.4c0,0.8-0.3,1.4-0.8,2c-0.6,0.5-1.2,0.8-2,0.8c-0.8,0-1.4-0.3-2-0.8c-0.5-0.5-0.8-1.2-0.8-2c0-0.8,0.3-1.4,0.8-2
					c0.5-0.5,1.2-0.8,2-0.8c0.8,0,1.4,0.3,2,0.8C210.9,81,211.1,81.7,211.1,82.4 M210.4,84.4c0.5-0.5,0.8-1.2,0.8-2
					c0-0.8-0.3-1.4-0.8-2c-0.6-0.5-1.2-0.8-2-0.8c-0.8,0-1.4,0.3-2,0.8c-0.5,0.6-0.8,1.2-0.8,2c0,0.8,0.3,1.4,0.8,2
					c0.5,0.5,1.2,0.8,2,0.8C209.1,85.2,209.8,84.9,210.4,84.4 M189.4,80.4c-0.5-0.5-1.2-0.8-2-0.8c-0.8,0-1.4,0.3-2,0.8
					c-0.5,0.6-0.8,1.2-0.8,2c0,0.8,0.3,1.4,0.8,2c0.6,0.5,1.2,0.8,2,0.8c0.8,0,1.4-0.3,2-0.8c0.5-0.5,0.8-1.2,0.8-2
					C190.1,81.7,189.9,81,189.4,80.4 M195.9,80.4c-0.5,0.6-0.8,1.2-0.8,2c0,0.8,0.3,1.4,0.8,2c0.5,0.5,1.2,0.8,2,0.8
					c0.8,0,1.4-0.3,2-0.8c0.5-0.5,0.8-1.2,0.8-2c0-0.8-0.3-1.4-0.8-2c-0.6-0.5-1.2-0.8-2-0.8C197.1,79.7,196.4,79.9,195.9,80.4z"/>
			</g>
		</g>
		<g>
			<path id="Layer3_0_1_STROKES" fill="none" stroke="#000000" stroke-miterlimit="10" d="M579.8,76.8c-0.3-0.6-0.8-1.2-1.3-1.8
				c-1.4-1.4-3.1-2.1-5.1-2.1l-2.5,0h-31.3h-6.8H184.9 M175.2,80.1l0.2-1.4 M175.2,93.2v-13 M580.6,93.2v-13c0,0,0-0.1,0-0.1
				c0-1-0.2-1.9-0.5-2.7c-0.1-0.2-0.2-0.4-0.3-0.6 M580.6,93.2L580.6,93.2v230.6c0,0.1,0,0.2,0,0.3 M573.7,330.9H248h-66
				 M180.4,330.8h-5c-2,0-3.7-0.7-5.1-2.1c-1.4-1.4-2.1-3.1-2.1-5V80c0-2,0.7-3.7,2.1-5.1c1.4-1.4,3.1-2.1,5.1-2.1h356.8h7.3
				 M538.5,93.2h1.1h40.7 M538.5,93.2L538.5,93.2 M532.8,72.9c-0.2-0.1-0.4-0.1-0.6-0.1 M580.6,324c-0.1,1.8-0.8,3.4-2.1,4.8
				c-1.3,1.3-2.9,2-4.8,2.1 M248,93.2L248,93.2l290.5,0 M175.4,78.7c0.2-1.4,0.9-2.6,1.9-3.7c1.4-1.4,3.1-2.1,5.1-2.1l2.6,0
				 M174.9,93.2h0.3v0 M175.2,93.2h0.3H248v237.7 M200.6,82.4c0,0.8-0.3,1.4-0.8,2c-0.6,0.5-1.2,0.8-2,0.8c-0.8,0-1.4-0.3-2-0.8
				c-0.5-0.5-0.8-1.2-0.8-2c0-0.8,0.3-1.4,0.8-2c0.5-0.5,1.2-0.8,2-0.8c0.8,0,1.4,0.3,2,0.8C200.4,81,200.6,81.7,200.6,82.4z
				 M190.1,82.4c0,0.8-0.3,1.4-0.8,2c-0.5,0.5-1.2,0.8-2,0.8c-0.8,0-1.4-0.3-2-0.8c-0.5-0.5-0.8-1.2-0.8-2c0-0.8,0.3-1.4,0.8-2
				c0.6-0.5,1.2-0.8,2-0.8c0.8,0,1.4,0.3,2,0.8C189.9,81,190.1,81.7,190.1,82.4z M211.1,82.4c0,0.8-0.3,1.4-0.8,2
				c-0.6,0.5-1.2,0.8-2,0.8c-0.8,0-1.4-0.3-2-0.8c-0.5-0.5-0.8-1.2-0.8-2c0-0.8,0.3-1.4,0.8-2c0.5-0.5,1.2-0.8,2-0.8
				c0.8,0,1.4,0.3,2,0.8C210.9,81,211.1,81.7,211.1,82.4z M175.9,326.7c-0.4-0.9-0.7-1.9-0.7-3V93.2 M181.9,330.9
				c-0.3,0-0.7-0.1-1-0.1c-1.4-0.3-2.6-0.9-3.6-2c-0.6-0.7-1.1-1.4-1.4-2.1"/>
		</g>
	</g>
</g>
<g id="arrows">
	<g transform="matrix( 1, 0, 0, 1, 0,0) ">
		<g>
			<path id="Layer2_0_1_STROKES" fill="none" stroke="#A3A3A3" stroke-linecap="round" stroke-linejoin="round" d="M501.6,128.9
				l4.9,4.9l-4.9,4.9 M489,170.5l4.9,4.9l-4.9,4.9 M527,147.8l-4.9,4.8l-4.9-4.8 M522,137.8v14.9 M340.8,133.8H361l-4.9-4.9
				 M340.8,175.4H361l-4.9-4.9 M361,133.8l-4.9,4.9 M361,175.4l-4.9,4.9 M407,133.8h40.8l-4.8-4.9 M447.8,133.8l-4.8,4.9 M420,211.1
				l-4.9,4.9h20.2 M415.1,215.9l4.9,4.9 M442.3,278h10l-4.8-4.9 M447.5,283l4.8-4.9 M345.3,216.9H361l-4.9-4.9 M356.1,221.8l4.9-4.9
				 M340.8,258H361l-4.9-4.9 M356.1,262.9l4.9-4.9 M356.1,304l4.9-4.9h-20.2 M361,299.1l-4.9-4.9 M523.3,258.1v-20.2l-4.9,4.9
				 M528.2,242.8l-4.9-4.9 M466.8,133.8h39.7 M473.6,175.4h20.2 M297.5,203.8l4.9,4.9l-4.9,4.9 M282.2,208.7h20.2"/>
		</g>
		<g>
			<path id="Layer2_0_2_STROKES" fill="none" stroke="#A3A3A3" stroke-miterlimit="10" d="M340.8,133.8h-16.1
				c-2.3,0-4.3,0.8-5.9,2.4s-2.5,3.6-2.5,5.9v33.3h24.5 M473.6,175.4h-71.8 M435.3,215.9h73 M406.3,257.1h18.1
				c2.3,0,4.3,0.8,5.9,2.5c1.6,1.6,2.4,3.5,2.5,5.7v4.5c0.1,2.2,0.9,4.1,2.5,5.7c1.5,1.5,3.2,2.3,5.2,2.4c0.2,0,0.4,0,0.6,0h1.3
				 M326.5,208.7h13c0.8,0,1.4,0.3,2,0.9c0.6,0.6,0.9,1.3,0.9,2v2.4c0,0.8,0.3,1.4,0.9,2c0.6,0.6,1.3,0.9,2,0.9 M340.8,299.1h-16.1
				c-2.3,0-4.3-0.8-5.9-2.5c-1.6-1.6-2.5-3.6-2.5-5.9V258v-82.6 M523.3,258.1v31.8c0,2.3-0.8,4.3-2.5,5.9c-1.6,1.6-3.6,2.5-6,2.5
				H406 M282.2,208.7h-1.6 M340.8,258h-24.5"/>
		</g>
	</g>
</g>
<g id="stuff">
	<g transform="matrix( 1, 0, 0, 1, 0,0) ">
		<g>
			<g id="Layer1_0_FILL">
				<path fill="#F7571A" d="M369.5,116c-1.3,0-2.4,0.5-3.3,1.4c-0.9,0.9-1.4,2-1.4,3.3v25.4c0,1.3,0.5,2.4,1.4,3.3
					c0.9,0.9,2,1.4,3.3,1.4h37c1.3,0,2.4-0.5,3.3-1.4c0.9-0.9,1.4-2,1.4-3.3v-25.4c0-1.3-0.5-2.4-1.4-3.3c-0.9-0.9-2-1.4-3.3-1.4
					H369.5 M378.5,141.1H397H378.5 M373,130.7h29.4H373 M373,135.9h29.4H373 M376.1,125.5h23.3H376.1 M543.3,199.8
					c-0.9-0.9-2-1.4-3.3-1.4h-37c-1.3,0-2.4,0.5-3.3,1.4s-1.4,2-1.4,3.3v25.4c0,1.3,0.5,2.3,1.4,3.3s2,1.4,3.3,1.4h37
					c1.3,0,2.3-0.5,3.3-1.4s1.4-2,1.4-3.3v-25.4C544.7,201.8,544.2,200.7,543.3,199.8 M506.5,220.6h29.4H506.5 M506.5,210.3h29.4
					H506.5 M510,215.4h22.4H510 M498.3,161.7v25.4c0,1.3,0.5,2.4,1.4,3.3c0.9,0.9,2,1.4,3.3,1.4h37c1.3,0,2.3-0.5,3.3-1.4
					c0.9-0.9,1.4-2,1.4-3.3v-25.4c0-1.3-0.5-2.4-1.4-3.3c-0.9-0.9-2-1.4-3.3-1.4h-37c-1.3,0-2.4,0.5-3.3,1.4
					C498.8,159.3,498.3,160.4,498.3,161.7 M506.5,176.9h29.4H506.5 M511.4,171.7H531H511.4 M409.8,231.8c0.9-0.9,1.4-2,1.4-3.3
					v-25.4c0-1.3-0.5-2.4-1.4-3.3s-2-1.4-3.3-1.4h-37c-1.3,0-2.4,0.5-3.3,1.4s-1.4,2-1.4,3.3v25.4c0,1.3,0.5,2.3,1.4,3.3
					s2,1.4,3.3,1.4h37C407.8,233.1,408.9,232.7,409.8,231.8 M373,210.6h29.4H373 M373,221.1h29.4H373 M376.3,215.9h22.9H376.3
					 M366.2,158.4c-0.9,0.9-1.4,2-1.4,3.3v25.4c0,1.3,0.5,2.4,1.4,3.3c0.9,0.9,2,1.4,3.3,1.4h37c1.3,0,2.4-0.5,3.3-1.4
					c0.9-0.9,1.4-2,1.4-3.3v-25.4c0-1.3-0.5-2.4-1.4-3.3c-0.9-0.9-2-1.4-3.3-1.4h-37C368.2,157,367.1,157.5,366.2,158.4 M373,172.3
					h29.4H373 M376,177.5h23.6H376 M456.8,264v25.4c0,1.3,0.5,2.4,1.4,3.3c0.9,0.9,2,1.4,3.3,1.4h37c1.3,0,2.4-0.5,3.3-1.4
					c0.9-0.9,1.4-2,1.4-3.3V264c0-1.3-0.5-2.4-1.4-3.3c-0.9-0.9-2-1.4-3.3-1.4h-37c-1.3,0-2.4,0.5-3.3,1.4
					C457.3,261.6,456.8,262.6,456.8,264 M465,279.1h29.4H465 M465,268.8h29.4H465 M466.5,274h26.3H466.5 M468.9,284.4h21.6H468.9
					 M409.8,281.8c-0.9-0.9-2-1.4-3.3-1.4h-37c-1.3,0-2.4,0.5-3.3,1.4s-1.4,2-1.4,3.3v25.5c0,1.3,0.5,2.4,1.4,3.3s2,1.4,3.3,1.4h37
					c1.3,0,2.4-0.5,3.3-1.4s1.4-2,1.4-3.3V285C411.2,283.8,410.7,282.6,409.8,281.8 M373,293h29.4H373 M377.9,298.3h19.8H377.9
					 M375.1,303.5h25.1H375.1 M409.8,240.8c-0.9-0.9-2-1.4-3.3-1.4h-37c-1.3,0-2.4,0.5-3.3,1.4s-1.4,2-1.4,3.3v25.4
					c0,1.3,0.5,2.4,1.4,3.3s2,1.4,3.3,1.4h37c1.3,0,2.4-0.5,3.3-1.4s1.4-2,1.4-3.3v-25.4C411.2,242.8,410.7,241.7,409.8,240.8
					 M373,257h29.4H373 M376.5,262.3H399H376.5 M376.7,251.9h22H376.7z"/>
				<path fill="#FFFFFF" d="M522,123.3l-10.3,10.3l10.4,10.4l10.3-10.4L522,123.3 M522,127.7v6.1h6.1H522v6.1v-6.1H516h6.1V127.7
					 M305.9,208.7l10.4,10.4l10.3-10.4l-10.4-10.3L305.9,208.7 M316.2,208.8v6.1V208.8h-6.1H316.2v-6.1V208.8h6.1H316.2
					 M288.8,208.7c0-2-0.7-3.8-2.2-5.3c-1.4-1.4-3.2-2.1-5.2-2.1c-2,0-3.8,0.7-5.3,2.1c-1.4,1.5-2.1,3.2-2.1,5.3
					c0,2,0.7,3.8,2.1,5.2c1.5,1.5,3.2,2.2,5.3,2.2c2,0,3.8-0.7,5.2-2.2C288.1,212.5,288.8,210.7,288.8,208.7z"/>
			</g>
		</g>
		<g>
			<path id="Layer1_0_1_STROKES" fill="none" stroke="#000000" stroke-miterlimit="10" d="M522,127.7v6.1h6.1 M522,139.9v-6.1H516
				 M498.3,161.7c0-1.3,0.5-2.4,1.4-3.3c0.9-0.9,2-1.4,3.3-1.4h37c1.3,0,2.3,0.5,3.3,1.4c0.9,0.9,1.4,2,1.4,3.3v25.4
				c0,1.3-0.5,2.4-1.4,3.3c-0.9,0.9-2,1.4-3.3,1.4h-37c-1.3,0-2.4-0.5-3.3-1.4c-0.9-0.9-1.4-2-1.4-3.3V161.7z M364.8,120.7
				c0-1.3,0.5-2.4,1.4-3.3c0.9-0.9,2-1.4,3.3-1.4h37c1.3,0,2.4,0.5,3.3,1.4c0.9,0.9,1.4,2,1.4,3.3v25.4c0,1.3-0.5,2.4-1.4,3.3
				c-0.9,0.9-2,1.4-3.3,1.4h-37c-1.3,0-2.4-0.5-3.3-1.4c-0.9-0.9-1.4-2-1.4-3.3V120.7z M364.8,161.7c0-1.3,0.5-2.4,1.4-3.3
				c0.9-0.9,2-1.4,3.3-1.4h37c1.3,0,2.4,0.5,3.3,1.4c0.9,0.9,1.4,2,1.4,3.3v25.4c0,1.3-0.5,2.4-1.4,3.3c-0.9,0.9-2,1.4-3.3,1.4h-37
				c-1.3,0-2.4-0.5-3.3-1.4c-0.9-0.9-1.4-2-1.4-3.3V161.7z M466.9,133.7c0,2-0.7,3.8-2.2,5.2c-1.4,1.5-3.2,2.2-5.2,2.2
				s-3.8-0.7-5.3-2.2c-1.4-1.4-2.1-3.2-2.1-5.2c0-2,0.7-3.8,2.1-5.3c1.5-1.4,3.2-2.1,5.3-2.1c2,0,3.8,0.7,5.2,2.1
				C466.2,129.9,466.9,131.7,466.9,133.7z M364.8,203.1c0-1.3,0.5-2.4,1.4-3.3s2-1.4,3.3-1.4h37c1.3,0,2.4,0.5,3.3,1.4
				s1.4,2,1.4,3.3v25.4c0,1.3-0.5,2.3-1.4,3.3s-2,1.4-3.3,1.4h-37c-1.3,0-2.4-0.5-3.3-1.4s-1.4-2-1.4-3.3V203.1z M364.8,244.1
				c0-1.3,0.5-2.4,1.4-3.3s2-1.4,3.3-1.4h37c1.3,0,2.4,0.5,3.3,1.4s1.4,2,1.4,3.3v25.4c0,1.3-0.5,2.4-1.4,3.3s-2,1.4-3.3,1.4h-37
				c-1.3,0-2.4-0.5-3.3-1.4s-1.4-2-1.4-3.3V244.1z M364.8,285c0-1.3,0.5-2.4,1.4-3.3s2-1.4,3.3-1.4h37c1.3,0,2.4,0.5,3.3,1.4
				s1.4,2,1.4,3.3v25.5c0,1.3-0.5,2.4-1.4,3.3s-2,1.4-3.3,1.4h-37c-1.3,0-2.4-0.5-3.3-1.4s-1.4-2-1.4-3.3V285z M456.8,264
				c0-1.3,0.5-2.4,1.4-3.3c0.9-0.9,2-1.4,3.3-1.4h37c1.3,0,2.4,0.5,3.3,1.4c0.9,0.9,1.4,2,1.4,3.3v25.4c0,1.3-0.5,2.4-1.4,3.3
				c-0.9,0.9-2,1.4-3.3,1.4h-37c-1.3,0-2.4-0.5-3.3-1.4c-0.9-0.9-1.4-2-1.4-3.3V264z M498.3,203.1c0-1.3,0.5-2.4,1.4-3.3
				s2-1.4,3.3-1.4h37c1.3,0,2.3,0.5,3.3,1.4s1.4,2,1.4,3.3v25.4c0,1.3-0.5,2.3-1.4,3.3s-2,1.4-3.3,1.4h-37c-1.3,0-2.4-0.5-3.3-1.4
				s-1.4-2-1.4-3.3V203.1z M322.3,208.8h-6.1v6.1 M310.1,208.8h6.1v-6.1 M288.8,208.7c0,2-0.7,3.8-2.2,5.2c-1.4,1.5-3.2,2.2-5.2,2.2
				c-2,0-3.8-0.7-5.3-2.2c-1.4-1.4-2.1-3.2-2.1-5.2c0-2,0.7-3.8,2.1-5.3c1.5-1.4,3.2-2.1,5.3-2.1c2,0,3.8,0.7,5.2,2.1
				C288.1,204.9,288.8,206.7,288.8,208.7z"/>
		</g>
		<g>
			<path id="Layer1_0_2_STROKES" fill="none" stroke="#FFFFFF" stroke-miterlimit="10" d="M511.4,171.7H531 M506.5,176.9h29.4
				 M378.5,141.1H397 M373,130.7h29.4 M373,135.9h29.4 M376.1,125.5h23.3 M373,172.3h29.4 M376,177.5h23.6 M373,210.6h29.4
				 M373,221.1h29.4 M376.3,215.9h22.9 M373,293h29.4 M373,257h29.4 M376.5,262.3H399 M376.7,251.9h22 M377.9,298.3h19.8
				 M375.1,303.5h25.1 M506.5,220.6h29.4 M506.5,210.3h29.4 M510,215.4h22.4 M468.9,284.4h21.6 M466.5,274h26.3 M465,279.1h29.4
				 M465,268.8h29.4 M186,162.4h50.8 M186,173.6h50.8 M186,196h50.8 M186,184.8h50.8 M186,140h50.8 M186,151.2h50.8 M186,128.8h50.8
				 M186,117.6h50.8 M186,106.4h50.8 M186,207.2h50.8"/>
		</g>
		<g>
			<path id="Layer1_0_3_STROKES" fill="none" stroke="#A3A3A3" stroke-miterlimit="10" d="M511.6,133.7l10.3-10.3l10.3,10.3
				L522,144.1L511.6,133.7z M305.9,208.7l10.3-10.3l10.4,10.3l-10.3,10.4L305.9,208.7z"/>
		</g>
	</g>
</g>
</svg>
