<?xml version="1.0" encoding="utf-8"?>
<!-- Generator: Adobe Illustrator 23.0.1, SVG Export Plug-In . SVG Version: 6.00 Build 0)  -->
<svg version="1.1" xmlns="http://www.w3.org/2000/svg" xmlns:xlink="http://www.w3.org/1999/xlink" x="0px" y="0px"
	 viewBox="0 0 750 400" enable-background="new 0 0 750 400" xml:space="preserve">
<g id="Layer_d1">
	<g id="clouds_bits">
		<g transform="matrix( 1, 0, 0, 1, 0,0) ">
			<g>
				<g id="Layer9_0_FILL">
					<path fill="#F7571A" d="M402.9,180.1c-0.4,0.4-0.6,0.8-0.6,1.4s0.2,1,0.6,1.4c0.4,0.4,0.8,0.6,1.4,0.6c0.5,0,1-0.2,1.3-0.6
						c0.4-0.4,0.6-0.8,0.6-1.4s-0.2-1-0.6-1.4c-0.4-0.4-0.8-0.5-1.3-0.5C403.7,179.6,403.2,179.8,402.9,180.1 M294,241.7
						c0,0.5,0.2,1,0.6,1.4c0.4,0.4,0.8,0.5,1.4,0.5c0.5,0,1-0.2,1.4-0.5c0.4-0.4,0.5-0.9,0.5-1.4c0-0.5-0.2-1-0.5-1.3
						c-0.4-0.4-0.8-0.6-1.4-0.6s-1,0.2-1.4,0.6C294.3,240.7,294,241.2,294,241.7z"/>
					<path fill="#BAD727" d="M489.7,282.6c0.4,0.4,0.8,0.5,1.3,0.5c0.5,0,1-0.2,1.4-0.5c0.4-0.4,0.6-0.9,0.6-1.4
						c0-0.5-0.2-1-0.6-1.4c-0.4-0.4-0.8-0.6-1.4-0.6c-0.5,0-1,0.2-1.3,0.6c-0.4,0.4-0.6,0.8-0.6,1.4
						C489.1,281.7,489.3,282.2,489.7,282.6 M482.4,45.4c0,0.5,0.2,1,0.6,1.3c0.4,0.4,0.8,0.5,1.3,0.5c0.5,0,1-0.2,1.4-0.5
						c0.4-0.4,0.6-0.8,0.6-1.3c0-0.5-0.2-1-0.6-1.4c-0.4-0.4-0.8-0.5-1.4-0.5c-0.5,0-1,0.2-1.3,0.5
						C482.6,44.4,482.4,44.9,482.4,45.4z"/>
					<path fill="#83C4EC" d="M549.4,353.4h-2.6v-2.6c0-0.3-0.1-0.5-0.3-0.6c-0.2-0.2-0.4-0.3-0.7-0.3s-0.5,0.1-0.6,0.3
						c-0.2,0.2-0.3,0.4-0.3,0.6v2.6h-2.6c-0.6,0-0.9,0.3-0.9,1c0,0.3,0.1,0.5,0.3,0.6c0.2,0.2,0.4,0.3,0.7,0.3h2.6v2.6
						c0,0.3,0.1,0.5,0.3,0.7c0.2,0.2,0.4,0.2,0.6,0.3c0.3,0,0.5-0.1,0.7-0.3c0.2-0.2,0.3-0.4,0.3-0.7v-2.6h2.6
						c0.2,0,0.5-0.1,0.6-0.3c0.2-0.2,0.3-0.4,0.3-0.6s-0.1-0.5-0.3-0.7C549.9,353.5,549.7,353.4,549.4,353.4 M646.7,201.1
						c-0.2-0.2-0.4-0.3-0.7-0.3h-2.5v-2.6c0-0.6-0.3-0.9-1-0.9c-0.6,0-1,0.3-1,0.9v2.6H639c-0.3,0-0.5,0.1-0.7,0.3
						c-0.2,0.2-0.3,0.4-0.3,0.7c0,0.3,0.1,0.5,0.3,0.7c0.2,0.2,0.4,0.3,0.7,0.3h2.5v2.6c0,0.3,0.1,0.5,0.3,0.6
						c0.2,0.2,0.4,0.3,0.7,0.3c0.3,0,0.5-0.1,0.7-0.3c0.2-0.2,0.3-0.4,0.3-0.6v-2.6h2.5c0.3,0,0.5-0.1,0.7-0.3
						c0.2-0.2,0.3-0.4,0.3-0.7C647,201.5,646.9,201.3,646.7,201.1 M445,55.4c-0.3,0-0.5,0.1-0.6,0.3c-0.2,0.2-0.3,0.4-0.3,0.7
						c0,0.3,0.1,0.5,0.3,0.7c0.2,0.2,0.4,0.3,0.6,0.3h2.6v2.5c0,0.6,0.3,1,0.9,1c0.3,0,0.5-0.1,0.7-0.3c0.2-0.2,0.3-0.4,0.3-0.7
						v-2.5h2.5c0.3,0,0.5-0.1,0.7-0.3c0.2-0.2,0.3-0.4,0.3-0.7c0-0.6-0.3-0.9-1-0.9h-2.5v-2.6c0-0.2-0.1-0.4-0.3-0.6
						c-0.2-0.2-0.4-0.3-0.7-0.3c-0.3,0-0.5,0.1-0.7,0.3c-0.2,0.2-0.3,0.4-0.3,0.6v2.6H445 M130.5,191.4c-0.3,0-0.5,0.1-0.7,0.3
						c-0.2,0.2-0.3,0.4-0.3,0.7v2.6h-2.6c-0.3,0-0.5,0.1-0.6,0.3c-0.2,0.2-0.3,0.4-0.3,0.6c0,0.3,0.1,0.5,0.3,0.7
						c0.2,0.2,0.4,0.3,0.6,0.3h2.6v2.6c0,0.3,0.1,0.5,0.3,0.7c0.2,0.2,0.4,0.3,0.7,0.3c0.2,0,0.4-0.1,0.6-0.3
						c0.2-0.2,0.3-0.4,0.3-0.7v-2.6h2.6c0.3,0,0.5-0.1,0.7-0.3c0.2-0.2,0.3-0.4,0.3-0.7c0-0.3-0.1-0.5-0.3-0.6
						c-0.2-0.2-0.4-0.3-0.7-0.3h-2.6v-2.6c0-0.3-0.1-0.5-0.3-0.7C131,191.5,130.8,191.4,130.5,191.4 M284.6,107.7
						c-0.2-0.2-0.4-0.3-0.6-0.3h-2.6v-2.6c0-0.3-0.1-0.5-0.3-0.7c-0.2-0.2-0.4-0.3-0.7-0.3s-0.5,0.1-0.6,0.3
						c-0.2,0.2-0.3,0.4-0.3,0.7v2.6h-2.6c-0.6,0-0.9,0.3-0.9,0.9c0,0.3,0.1,0.5,0.3,0.7c0.2,0.2,0.4,0.3,0.7,0.3h2.6v2.5
						c0,0.3,0.1,0.5,0.3,0.7c0.2,0.2,0.4,0.3,0.6,0.3c0.3,0,0.5-0.1,0.7-0.3c0.2-0.2,0.3-0.4,0.3-0.7v-2.5h2.6
						c0.2,0,0.4-0.1,0.6-0.3c0.2-0.2,0.3-0.4,0.3-0.7C284.9,108.1,284.8,107.8,284.6,107.7z"/>
					<path fill="#BFBFBF" d="M516.6,243.6h-6l-3,5.2l3,5.2h6l3-5.2L516.6,243.6 M511.4,245.1h4.4l2.2,3.8l-2.2,3.8h-4.4l-2.2-3.8
						L511.4,245.1 M176.8,93.8l3,5.2h6l3.1-5.2l-3.1-5.2h-6L176.8,93.8 M180.6,97.6l-2.2-3.8l2.2-3.8h4.3l2.2,3.8l-2.2,3.8H180.6z"
						/>
					<path fill="#DEDEDE" d="M248.7,222.8c-0.4,0.4-0.6,0.9-0.6,1.4c0,0.5,0.2,1,0.6,1.4c0.4,0.4,0.9,0.6,1.4,0.6
						c0.5,0,1-0.2,1.3-0.6s0.6-0.8,0.6-1.4c0-0.5-0.2-1-0.6-1.4c-0.4-0.4-0.8-0.6-1.3-0.6C249.5,222.3,249.1,222.4,248.7,222.8
						 M571.5,234.4c0,1.1,0.4,2,1.1,2.7c0.8,0.7,1.7,1.1,2.8,1.1c1,0,1.9-0.4,2.7-1.1c0.7-0.7,1.1-1.6,1.1-2.7c0-1.1-0.4-2-1.1-2.8
						c-0.7-0.7-1.6-1.1-2.7-1.1c-1.1,0-2,0.4-2.8,1.1C571.9,232.4,571.5,233.3,571.5,234.4z"/>
					<path fill="#3D3D3D" fill-opacity="0.1686" d="M159.6,212.3c-4,1.9-7.3,4.6-10.1,8.1c-1.1-2.1-2.7-3.7-4.7-5
						c-2.1-1.3-4.4-1.9-6.8-1.9c-3,0-5.8,0.9-8.1,2.8c-2.3,1.9-3.9,4.2-4.6,7.1c-2-0.8-4.1-1.2-6.3-1.2c-3.4,0-6.4,0.9-9.2,2.8
						c-1.9-1.9-4.1-3.4-6.7-4.4c-2.6-1.1-5.3-1.6-8.1-1.6c-4.3,0-8.3,1.2-11.8,3.7c-3.5,2.4-6,5.5-7.6,9.4c-2-2.1-4.4-3.1-7.3-3.1
						c-2.6,0-4.9,0.9-6.9,2.8c-1.9,1.8-3,4-3.2,6.6h144.1c-0.2-8-3.2-14.9-9-20.5c-5.8-5.7-12.7-8.5-20.7-8.5
						C168.1,209.2,163.7,210.2,159.6,212.3 M483.8,314.9c-3.4,3.3-5.1,7.3-5.3,12h84.8c-0.1-1.5-0.8-2.8-1.9-3.9
						c-1.1-1.1-2.5-1.6-4-1.6c-1.7,0-3.1,0.6-4.3,1.9c-0.9-2.3-2.4-4.2-4.4-5.6c-2.1-1.4-4.4-2.2-7-2.2c-3.4,0-6.3,1.2-8.7,3.6
						c-1.7-1.1-3.5-1.6-5.4-1.6c-1.3,0-2.5,0.2-3.7,0.7c-0.4-1.7-1.3-3.1-2.7-4.2c-1.4-1.1-3-1.6-4.8-1.6c-1.4,0-2.8,0.4-4,1.1
						c-1.2,0.7-2.1,1.7-2.8,2.9c-1.6-2-3.6-3.6-5.9-4.8c-2.4-1.2-5-1.8-7.7-1.8C491.3,309.9,487.2,311.5,483.8,314.9 M682,94.4
						c-2.5-2.6-5.5-3.8-9-3.8c-1.8,0-3.6,0.4-5.3,1.2c-1.6,0.8-3,1.9-4.3,3.3c-2-5.6-5.3-10.1-9.8-13.5c-4.6-3.5-9.8-5.3-15.5-5.3
						c-3.7,0-7.2,0.8-10.6,2.3c-3.2,1.5-6.1,3.6-8.6,6.3c-3.7-2.6-7.6-3.9-12-3.9c-2.8,0-5.5,0.6-8.2,1.8c-0.9-4.1-2.9-7.5-5.9-10.1
						c-3.1-2.7-6.6-4-10.6-4c-3.2,0-6.1,0.9-8.8,2.7c-2.6,1.8-4.7,4.1-6.1,7.1c-3.6-4.9-8-8.7-13.2-11.5c-5.4-2.9-11.1-4.3-17.1-4.3
						c-10.5,0-19.5,4-27,12c-7.5,8-11.4,17.7-11.6,29.1h187.8C685.9,100.1,684.5,97,682,94.4 M304.8,23.4c-2.7,0-5.3,0.6-7.7,1.8
						c-2.3,1.1-4.3,2.7-6,4.8c-0.7-1.2-1.6-2.2-2.8-2.9c-1.2-0.8-2.6-1.1-4-1.1c-1.8,0-3.4,0.5-4.8,1.6c-1.4,1.1-2.3,2.5-2.7,4.2
						c-1.2-0.5-2.4-0.7-3.7-0.7c-1.9,0-3.7,0.5-5.4,1.6c-2.4-2.4-5.2-3.6-8.6-3.5c-2.6,0-4.9,0.7-7,2.2c-2.1,1.4-3.6,3.3-4.4,5.6
						c-1.2-1.3-2.6-1.9-4.3-1.9c-1.6,0-2.9,0.5-4,1.6s-1.8,2.4-1.9,3.9h84.8c-0.1-4.7-1.9-8.8-5.3-12.1
						C313.6,25,309.5,23.4,304.8,23.4z"/>
					<path fill="#D1D1D1" d="M220.2,287c1.1,0,2-0.4,2.7-1.1c0.8-0.8,1.2-1.7,1.2-2.8c0-1-0.4-1.9-1.2-2.7c-0.7-0.7-1.6-1.1-2.7-1.1
						c-1.1,0-2,0.4-2.8,1.1c-0.7,0.7-1.1,1.6-1.1,2.7c0,1.1,0.4,2,1.1,2.8C218.2,286.6,219.1,287,220.2,287z"/>
				</g>
			</g>
			<g>
				<path id="Layer9_0_1_STROKES" fill="none" stroke="#BFBFBF" stroke-width="2" stroke-miterlimit="10" d="M475.9,111.3
					c0,0.9,0.3,1.7,1,2.3c0.6,0.6,1.4,0.9,2.3,0.9c0.9,0,1.6-0.3,2.3-0.9c0.6-0.6,1-1.4,1-2.3c0-0.9-0.3-1.6-1-2.3
					c-0.6-0.6-1.4-0.9-2.3-0.9c-0.9,0-1.7,0.3-2.3,0.9C476.2,109.6,475.9,110.4,475.9,111.3z M86.9,156.2c0,0.9,0.3,1.7,1,2.3
					c0.6,0.6,1.4,0.9,2.3,0.9c0,0,0.1,0,0.1,0c0.9,0,1.6-0.4,2.2-0.9c0.2-0.2,0.4-0.5,0.6-0.8c0.2-0.5,0.3-1,0.3-1.5
					c0-0.9-0.3-1.6-1-2.3c-0.6-0.6-1.4-0.9-2.3-0.9c-0.9,0-1.6,0.3-2.3,0.9C87.3,154.6,86.9,155.3,86.9,156.2z M239.5,321.9
					c0,0.9,0.3,1.7,0.9,2.3s1.4,0.9,2.3,0.9c0.9,0,1.7-0.3,2.3-0.9s0.9-1.4,0.9-2.3c0-0.9-0.3-1.7-0.9-2.3c-0.6-0.6-1.4-1-2.3-1
					c-0.9,0-1.6,0.3-2.3,1C239.8,320.2,239.5,321,239.5,321.9z"/>
			</g>
		</g>
	</g>
	<g id="laptop">
		<g transform="matrix( 1, 0, 0, 1, 0,0) ">
			<g>
				<g id="Layer8_0_FILL">
					<path fill="#CACACA" d="M477.3,363.3h-15.6H289.2h-15.7v4.3c0,1.3,0.5,2.4,1.4,3.3c0.9,0.9,2,1.4,3.3,1.4h194.6
						c1.2,0,2.3-0.5,3.2-1.4c0.9-0.9,1.3-1.9,1.3-3.2V363.3z"/>
					<path fill="#FFFFFF" d="M460.4,261.5c-0.8-0.8-1.7-1.3-2.9-1.3H293c-1,0-1.9,0.4-2.6,1.2c-0.8,0.7-1.1,1.6-1.1,2.7v99h172.4
						v-98.8C461.6,263.3,461.2,262.4,460.4,261.5 M454.8,268v87.9H296.1V268H454.8z"/>
					<path fill="#2C538A" d="M454.8,355.9V268H296.1v87.9H454.8z"/>
				</g>
			</g>
			<g>
				<path id="Layer8_0_1_STROKES" fill="none" stroke="#000000" stroke-miterlimit="10" d="M289.2,363.3v-99c0-1.1,0.4-2,1.1-2.7
					c0.7-0.8,1.6-1.2,2.6-1.2h164.5c1.2,0,2.1,0.4,2.9,1.3c0.8,0.8,1.3,1.8,1.3,2.9v98.8h15.6v4.3c0,1.3-0.4,2.3-1.3,3.2
					c-0.9,0.9-2,1.4-3.2,1.4H278.2c-1.3,0-2.4-0.5-3.3-1.4c-0.9-0.9-1.4-2-1.4-3.3v-4.3H289.2h172.4 M296.1,355.9V268h158.7v87.9
					H296.1z"/>
			</g>
		</g>
		<g transform="matrix( 0.6116790771484375, 0, 0, 0.6116790771484375, -45.05,45.95) ">
			<g transform="matrix( 1.6348419189453125, 0, 0, 1.6348419189453125, 73.6,-75.1) ">
				<path id="Layer8_1_1_STROKES" fill="none" stroke="#000000" stroke-miterlimit="10" d="M853.9,527.3H521"/>
			</g>
		</g>
	</g>
	<g id="screen">
		<g transform="matrix( 1, 0, 0, 1, 0,0) ">
			<g>
				<path id="Layer7_0_1_STROKES" fill="none" stroke="#FFFFFF" stroke-miterlimit="10" d="M324.9,277.6h6.8 M332,275.3l2.4,2.3
					L332,280 M360.6,290h-33.8 M332,343.3l2.4,2.3L332,348 M327,348l2.7-4.6 M402.9,311.6h-76 M423,333.2h-96.2 M413.5,327.8h-86.6
					 M441.6,306.2H326.9 M417.3,300.8h-90.4 M435,295.4H326.9 M311.2,295.4H302 M311.2,290H302 M311.2,279.2H302 M311.2,284.6H302
					 M311.2,344H302 M311.2,327.8H302 M311.2,333.2H302 M311.2,338.6H302 M311.2,300.8H302 M311.2,317H302 M311.2,311.6H302
					 M311.2,306.2H302 M311.2,322.4H302 M317.2,275.2V348 M324.6,348l-2.4-2.3l2.3-2.4 M324.6,280l-2.4-2.3l2.3-2.4 M331.5,338.6
					h-9.2 M331.5,322.4h-9.2 M331.5,317h-9.2 M331.5,284.6h-9.2"/>
			</g>
		</g>
	</g>
	<g id="circles">
		<g transform="matrix( 1, 0, 0, 1, 0,0) ">
			<g>
				<path id="Layer6_0_1_STROKES" fill="none" stroke="#A3A3A3" stroke-miterlimit="10" d="M581.5,149.1
					c-5.8-11.3-14.7-18.9-26.8-22.8c-12.1-3.9-23.8-3-35.1,2.8c-11.3,5.8-18.9,14.7-22.8,26.8s-2.9,23.8,2.9,35.1
					c4.9,9.6,12.1,16.6,21.6,20.8c0.1,0,0.2,0.1,0.3,0.1l2.9,1.1c0.6,0.2,1.3,0.5,2,0.7c12.1,3.9,23.8,2.9,35.1-2.9 M313.1,123.9
					c7.7,14.8,19.5,24.8,35.4,30c15.9,5.1,31.4,3.9,46.3-3.8c14.9-7.6,24.9-19.4,30-35.3c5.2-15.9,3.9-31.3-3.8-46.3
					c-6.5-12.7-16-21.8-28.5-27.5c-0.1,0-0.3-0.1-0.4-0.1l-3.8-1.5c-0.8-0.3-1.7-0.6-2.6-1c-16-5.1-31.4-3.9-46.3,3.8 M672.3,270.4
					c-6.9-13.4-17.5-22.4-31.8-27.1c-14.3-4.6-28.1-3.4-41.5,3.4c-13.4,6.9-22.4,17.5-27,31.9c-4.7,14.3-3.6,28.2,3.3,41.6
					c6.9,13.4,17.5,22.4,31.8,27c14.3,4.6,28.2,3.5,41.5-3.3 M202.8,203.4c10.3,3.3,20.3,2.5,29.9-2.4c9.6-4.9,16.1-12.5,19.4-22.8
					c3.3-10.3,2.5-20.3-2.4-29.9c-4.9-9.6-12.5-16.1-22.8-19.4c-10.3-3.3-20.3-2.5-29.9,2.4c-9.6,4.9-16.1,12.5-19.4,22.8
					 M99.2,335.3c9.7,9.7,21.5,14.6,35.3,14.6c13.7,0,25.5-4.9,35.3-14.6c9.7-9.7,14.6-21.5,14.7-35.3c0-13.8-4.9-25.6-14.6-35.3
					c-9.8-9.8-21.5-14.6-35.3-14.6c-13.8,0-25.6,4.9-35.3,14.6"/>
			</g>
		</g>
	</g>
	<g id="c">
		<g transform="matrix( 1, 0, 0, 1, 0,0) ">
			<g>
				<g id="Layer5_0_FILL">
					<path fill="#392E8F" d="M214.5,167.1l0.4-0.3l-8.1,4.6c0.4,0.8,1,1.6,1.6,2.3c0.9,0.8,1.8,1.5,2.9,1.9c1.1,0.5,2.3,0.7,3.6,0.8
						c1.2,0,2.4-0.3,3.6-0.8c1.1-0.5,2.1-1.1,3-1.9c0.6-0.6,1.1-1.2,1.4-1.8L214.5,167.1 M201.9,180.3c-1.2-1.3-2.3-2.7-3.1-4.2
						l-8.5,4.8c-0.1-0.2-0.2-0.4-0.3-0.5c0.1,0.2,0.2,0.5,0.3,0.7c0.2,0.4,0.6,0.8,1.1,1l22.3,12.5c0.4,0.2,0.9,0.3,1.4,0.3
						c0.5,0,1-0.1,1.4-0.3l22.3-12.5c0.4-0.2,0.8-0.6,1.1-1c0.3-0.5,0.4-0.9,0.4-1.4c0,0.2-0.1,0.4-0.1,0.7
						c-0.1,0.3-0.2,0.5-0.3,0.8l-8.6-4.8c-0.8,1.4-1.8,2.8-3,3.9c-1.7,1.7-3.7,3-5.9,3.9c-2.3,1-4.7,1.4-7.2,1.4
						c-2.5,0-4.9-0.5-7.2-1.4C205.6,183.3,203.7,181.9,201.9,180.3 M239.5,152.9c0,0,0.1,0.1,0.1,0.1
						C239.6,152.9,239.5,152.9,239.5,152.9L239.5,152.9 M240,153.7c0,0.1,0.1,0.2,0.1,0.3c0,0.3,0,0.7,0,1.2c0,1.7,0,5.7,0,12.2
						c0,0.8,0,1.5,0,2.1l0.1-14.9C240.2,154.3,240.1,154,240,153.7z"/>
					<path fill="#6564BC" d="M221.6,160.6c-0.9-0.9-1.9-1.5-3-2c-1.2-0.5-2.4-0.8-3.6-0.8c-1.3,0-2.5,0.3-3.6,0.8
						c-1.1,0.5-2.1,1.1-2.9,2c-0.9,0.8-1.5,1.8-2,2.9s-0.7,2.3-0.7,3.6c0,1.2,0.2,2.4,0.7,3.6c0.1,0.2,0.2,0.5,0.4,0.7l8.1-4.6
						l8-4.6C222.6,161.7,222.1,161.1,221.6,160.6 M215,139.4c-0.5,0-1,0.1-1.5,0.3l-22.1,12.4c-0.5,0.2-0.8,0.6-1.1,1
						c-0.3,0.4-0.4,0.9-0.4,1.4v25.3v0.2c0,0.1,0,0.1,0.1,0.1c0,0.1,0,0.1,0.1,0.2c0.1,0.2,0.2,0.4,0.3,0.5l8.5-4.8
						c-0.3-0.5-0.6-1.1-0.9-1.7c-1-2.3-1.4-4.7-1.4-7.2c0-2.5,0.5-4.9,1.4-7.2c1-2.2,2.3-4.2,4-5.9c1.7-1.7,3.7-3.1,5.9-4
						c2.3-1,4.7-1.4,7.2-1.4s4.9,0.5,7.2,1.4c2.2,0.9,4.2,2.3,5.9,4c1.1,1.1,2.1,2.3,2.9,3.6l8.5-4.8v-0.1c-0.2-0.3-0.5-0.6-0.9-0.8
						c-11.8-6.6-19.2-10.7-22.1-12.3c-0.1-0.1-0.2-0.1-0.3-0.1l-0.2-0.1C215.7,139.4,215.4,139.4,215,139.4L215,139.4z"/>
					<path fill="#FEFEFE" d="M197.9,159.9c-1,2.3-1.4,4.7-1.4,7.2c0,2.5,0.5,4.9,1.4,7.2c0.3,0.6,0.5,1.2,0.9,1.7
						c0.9,1.5,1.9,2.9,3.1,4.2c1.7,1.7,3.7,3,5.9,3.9c2.3,1,4.7,1.4,7.2,1.4c2.5,0,4.9-0.5,7.2-1.4c2.2-0.9,4.2-2.3,5.9-3.9
						c1.2-1.2,2.2-2.5,3-3.9l-8.1-4.4c-0.4,0.7-0.9,1.3-1.4,1.8c-0.9,0.8-1.9,1.5-3,1.9c-1.2,0.5-2.4,0.7-3.6,0.8
						c-1.3,0-2.5-0.3-3.6-0.8c-1.1-0.5-2.1-1.1-2.9-1.9c-0.7-0.7-1.2-1.4-1.6-2.3c-0.1-0.2-0.2-0.5-0.4-0.7
						c-0.5-1.2-0.7-2.4-0.7-3.6c0-1.3,0.2-2.5,0.7-3.6s1.1-2.1,2-2.9c0.9-0.9,1.8-1.5,2.9-2c1.1-0.5,2.3-0.8,3.6-0.8
						c1.2,0,2.4,0.3,3.6,0.8c1.1,0.5,2.1,1.1,3,2c0.5,0.5,1,1.1,1.3,1.7l8.1-4.6c-0.8-1.3-1.8-2.5-2.9-3.6c-1.7-1.7-3.7-3.1-5.9-4
						c-2.3-1-4.7-1.4-7.2-1.4s-4.9,0.5-7.2,1.4c-2.2,0.9-4.2,2.3-5.9,4C200.3,155.8,198.9,157.7,197.9,159.9z"/>
					<path fill="#4841A7" d="M239.6,152.9c0,0-0.1-0.1-0.1-0.1l-8.5,4.8l-8.1,4.6l-8,4.6l-0.4,0.3l8.6,4.7l8.1,4.4l8.6,4.8
						c0.1-0.2,0.2-0.5,0.3-0.8c0.1-0.3,0.1-0.5,0.1-0.7l-0.1-10.1c0-0.7,0-1.4,0-2.1c0-6.4,0-10.5,0-12.2c0-0.5,0-0.9,0-1.2
						c0-0.1-0.1-0.2-0.1-0.3C239.9,153.4,239.8,153.2,239.6,152.9z"/>
				</g>
			</g>
		</g>
	</g>
	<g id="java">
		<g transform="matrix( 1, 0, 0, 1, 0,0) ">
			<g>
				<g id="Layer4_0_FILL">
					<path fill="#5B7C99" d="M157.3,326.8c0-0.3-0.1-0.6-0.3-0.9c-0.2-0.3-0.4-0.4-0.6-0.5c0.3,0.5,0.4,1,0.1,1.5
						c-0.2,0.3-0.6,0.6-1.1,0.9c-1.9,1-6,1.8-12.2,2.4c-3.9,0.3-8,0.5-12.4,0.6c-5.5,0.1-10.4-0.3-14.6-1.1
						c-2.7-0.5-4.2-1.1-4.3-1.8c0-0.4,0.3-0.9,0.8-1.3c0.8-0.6,2.3-1.2,4.4-1.6c0.1,0,0.4-0.1,0.9-0.1c0.4-0.1,0.7-0.1,0.8-0.2
						c-1.4-0.2-3.3,0-5.8,0.8c-2.8,0.7-4.6,1.6-5.3,2.8c-0.4,0.7-0.4,1.3,0.1,1.8c0.3,0.3,0.9,0.6,1.7,1c3.1,1.1,8.9,1.8,17.5,1.9
						c5.7,0.1,10.7-0.1,14.9-0.6c7-0.7,11.8-2,14.4-4C156.8,327.7,157.2,327.2,157.3,326.8 M128.4,336.8c3.7,0.4,7.9,0.4,12.6,0
						c3.4-0.3,6.2-0.6,8.4-1c3.2-0.6,5.8-1.6,7.9-2.8c0.7-0.4,1.4-0.9,2-1.5c0.8-0.7,1.2-1.4,1.3-2.1c-0.1,0.1-0.3,0.2-0.4,0.4
						c-0.3,0.3-0.4,0.4-0.4,0.5c-3.6,2.8-9.6,4.5-17.8,5.1c-5.6,0.5-11.9,0.4-18.9-0.2l-5.6-0.5c1.1,0.5,2.9,1,5.4,1.4
						C124.5,336.4,126.4,336.6,128.4,336.8 M142.6,314.9c2-0.5,3.3-0.9,3.8-1.2c-0.8-0.2-1.6-0.7-2.5-1.5c-0.2-0.3-0.4-0.4-0.5-0.4
						c-0.3,0-0.6,0.1-0.9,0.2c-2.9,0.6-6.2,0.9-10.1,1.1c-4.9,0.3-8.1,0.1-9.6-0.6c-0.7-0.3-1-0.7-1-1.1c0-0.3,0.1-0.5,0.3-0.9
						c0.1-0.1,0.3-0.4,0.4-0.6c-1.5,0.3-2.6,1-3.3,2.1c-0.7,1.2-0.2,2.1,1.5,2.8c2,0.7,4.9,1.2,8.9,1.4c3.4,0.2,6.4,0.1,9-0.3
						C139.5,315.6,140.8,315.3,142.6,314.9 M143.4,321.5c-0.4-0.2-0.9-0.5-1.6-1c-0.3-0.3-0.5-0.4-0.6-0.4s-0.3,0.1-0.7,0.2
						c-2.7,0.7-7,1-12.8,0.8c-2.3-0.1-3.7-0.4-4.1-1c-0.2-0.3-0.2-0.6-0.1-0.9c0.2-0.3,0.3-0.5,0.3-0.6c-1.4,0.3-2.3,0.9-2.8,1.8
						c-0.6,1-0.1,1.9,1.4,2.8c1.7,1,4.3,1.6,7.7,1.8c3,0.1,5.7,0,8-0.5c0.8-0.2,2-0.5,3.7-0.9c1.9-0.6,3-1,3.3-1.1
						C144.7,322.2,144.1,321.9,143.4,321.5 M148,304.3c0.5-0.4,0.9-0.6,1.1-0.8c-0.2,0-0.5,0-0.9,0.1c-0.4,0-0.7,0.1-0.9,0.1
						l-1.9,0.3c-3.9,0.6-7.8,1.1-11.6,1.3c-2.7,0.2-5.4,0.3-8.2,0.2c-4.2-0.1-6.7-0.6-7.3-1.3c0-0.4,0.1-0.7,0.3-1
						c0.2-0.2,0.4-0.4,0.8-0.6c0.8-0.4,1.7-0.8,2.9-1.3c0.6-0.2,1.6-0.5,2.8-0.9c-1.3-0.1-3.2,0.3-5.8,1c-2.6,0.8-4.4,1.6-5.6,2.5
						c-1.1,0.8-1.1,1.4,0.1,1.9c0.6,0.3,1.7,0.5,3.2,0.8c4.3,0.7,8.8,0.9,13.5,0.6c3.8-0.1,8.3-0.6,13.4-1.4c0.5-0.1,1-0.2,1.6-0.3
						c0.4-0.1,0.8-0.3,1.3-0.6C147,304.9,147.4,304.7,148,304.3 M157.9,300.6c-1.1-0.7-2.3-1-3.6-0.9c-0.6,0-1.2,0.1-1.9,0.3
						c-0.7,0.2-1.2,0.5-1.5,0.9c1-0.4,2.1-0.4,3.1-0.2c1,0.2,1.9,0.6,2.5,1.2c0.7,0.7,1,1.6,1.1,2.8c0,1.1-0.2,2.2-0.7,3.3
						c-1.1,2.2-3.3,4.5-6.4,6.8c-0.5,0.4-0.9,0.6-1.1,0.8c0.7-0.1,1.8-0.5,3.2-1.3c1.3-0.6,2.4-1.2,3.1-1.7c2.3-1.5,3.8-3.2,4.4-5.1
						c0.5-1.5,0.5-2.9-0.1-4.3C159.7,302.2,158.9,301.3,157.9,300.6z"/>
					<path fill="#E89D2F" d="M141.1,276.5c-2.5,1.6-4.3,3.3-5.4,5.2c-1.5,2.3-1.9,4.9-1.1,7.5c0.3,1.2,1.2,2.8,2.6,5
						c1.2,1.8,1.7,3.2,1.6,4.3c-0.1,0.7-0.4,1.6-1,2.6c-0.6,1-1,1.6-1.2,1.9c0.3-0.1,0.9-0.5,1.8-1.3c0.8-0.7,1.3-1.2,1.6-1.6
						c1.4-1.6,2.1-3,2.2-4.4c0-0.8-0.1-1.7-0.5-2.8c-0.3-0.8-0.7-1.6-1.1-2.3c-1.4-2.3-2.1-3.8-2.3-4.5c-0.3-1.4,0.1-3,1.3-4.8
						c0.7-1,1.8-2.1,3.1-3.4c0.7-0.6,1.6-1.4,2.6-2.2c1-0.8,1.9-1.5,2.8-2l1.8-1.3c-0.4,0-1.2,0.3-2.3,0.7c-1.2,0.5-2,0.9-2.3,1
						C143.9,274.8,142.5,275.6,141.1,276.5 M142.7,263c0.1-1.2,0.1-2.5-0.1-3.9c-0.3-1.7-0.7-2.7-1.3-3c0.2,1.7,0.3,3,0.3,4
						c-0.1,1.3-0.3,2.6-0.8,3.9c-0.6,1.6-1.4,3.1-2.4,4.4c-0.7,1-1.8,2-3.2,3.3c-0.9,0.8-2.1,1.9-3.5,3.2c-1.3,1.2-2.3,2.3-3.2,3.1
						c-1.9,2-3.1,3.8-3.6,5.3c-0.5,1.3-0.6,2.5-0.3,3.8c0.2,0.7,0.6,1.7,1.4,3.1c0.3,0.5,0.9,1.4,1.8,2.7c0.3,0.4,0.6,0.8,0.9,1.3
						c0.4,0.5,0.7,0.9,0.9,1.2c0.4,0.6,1.1,1.4,2,2.4c0.3,0.3,0.6,0.8,1,1.3c0.5,0.6,0.8,1,1,1.1l-1.5-2.4c-0.5-0.8-0.9-1.7-1.4-2.7
						c-1.2-2.4-2-4.3-2.3-5.9c-0.4-1.7-0.2-3.3,0.5-4.9c0.3-0.8,1.2-2.1,2.6-3.9c0.2-0.2,0.5-0.6,0.9-1.1c0.8-1,1.9-2.2,3.3-3.8
						c0.8-0.8,1.9-2,3.4-3.6c1.1-1.3,1.9-2.5,2.5-3.8C142.3,266.5,142.6,264.9,142.7,263z"/>
				</g>
			</g>
		</g>
	</g>
	<g id="perl">
		<g transform="matrix( 1, 0, 0, 1, 0,0) ">
			<g>
				<g id="Layer3_0_FILL">
					<path fill="#1C3F64" d="M345.2,59.2c-0.4-0.2-0.7-0.4-0.9-0.5c-0.3-0.2-0.6-0.3-0.8-0.3c-0.3-0.1-0.6,0-1,0.1
						c-0.2,0.2-0.4,0.4-0.6,0.5c0,0-0.3,0.2-0.8,0.4c-0.3,0.2-0.5,0.3-0.7,0.5c-0.2,0.2-0.4,0.4-0.5,0.7c-0.1,0.4-0.2,0.6-0.5,0.8
						c-0.2,0.1-0.4,0.3-0.8,0.3c-0.2,0-0.5,0.1-0.9,0.1c-0.4,0.1-0.7,0.1-1,0.2c-0.3,0.1-0.7,0.2-1.1,0.3c-0.5,0-0.9,0.1-1.1,0.1
						c-0.5,0-0.9,0.1-1.1,0.2c-0.4,0.1-0.7,0.3-1,0.5c-0.6,0.5-0.9,0.8-0.9,0.9c-0.4,0.4-0.7,0.8-1,1.1c-0.6,0.9-0.8,1.8-0.6,2.6
						c0.3,0.6,0.8,1,1.4,1.3c0.4,0.2,1,0.4,1.8,0.5c0.2,0,0.5,0.1,1,0.2c0.4,0,0.7,0.1,0.9,0.2c0.7,0.2,1.2,0.4,1.6,0.8
						c-0.6,1.8-1.2,3.5-2,5.1c-0.3,2.3-0.4,4.6-0.1,6.9c0.1,0.4,0.1,1,0.1,1.8c0,0.9,0.1,1.5,0.1,1.8c0.1,0.7,0.2,1.3,0.4,1.8
						c0.2,0.6,0.6,1,1,1.4c0.2,0.1,0.4,0.3,0.6,0.4c0.1,0.2,0.3,0.4,0.4,0.7c0,0.1,0.1,0.4,0.3,0.8c0.1,0.3,0.1,0.5,0.3,0.8
						c0.1,0.2,0.2,0.3,0.4,0.3c0.1,0,0.3,0,0.4-0.1c0.2-0.1,0.3-0.1,0.4-0.1c0.2,0,0.3,0.2,0.3,0.3c0.2,0.1,0.3,0.3,0.4,0.5
						c0.1,0.2,0.1,0.4,0,0.7c0,0.4,0,0.6,0,0.7c0,0.2,0.1,0.4,0.2,0.5c0.4,0.1,0.9,0.3,1.3,0.5c0.4,0.2,0.8,0.5,1.1,0.8
						c1,0.7,2,1.6,2.9,2.5c0.2,0.3,0.4,0.4,0.6,0.4c0.1,0,0.3-0.2,0.6-0.5c0.3-0.3,0.5-0.4,0.6-0.4c0.2-0.1,0.4,0,0.6,0.2
						c0.2,0.4,0.5,0.7,0.9,0.9c0.4,0.2,0.9,0.2,1.3,0c0,0,0.1-0.1,0.1-0.1c0.7-0.1,1.4-0.3,2-0.6c0.6-0.3,1.2-0.6,1.8-1
						c0.2,0.6,0.3,1.2,0.4,1.9c0,0.5,0.1,1.2,0.1,2c0,0.5,0,1.2,0,2.1c0,0.8,0,1.4,0.1,2c0.5,1.9,0.8,3.9,0.9,5.9c0.5,2,0.8,4,0.9,6
						c0.3,2.1,0.3,4.2-0.1,6.3c-0.3,2.1-1,4.1-1.9,6c-0.1,0.6-0.4,1.1-0.8,1.5c-0.4,0.4-0.9,0.7-1.5,0.9c-0.4,0.2-0.7,0.3-0.8,0.3
						c-0.3,0.2-0.6,0.3-0.8,0.5c-0.6,0.5-0.7,0.9-0.5,1.4c0.9,0.8,2.1,1.2,3.5,1.3c1.3,0,2.5-0.2,3.8-0.7c0.3-0.2,0.6-0.4,0.7-0.7
						c0.1-0.2,0.1-0.6,0-0.9c0-0.2,0-0.4,0-0.6c0-0.2,0-0.4,0-0.5c0-0.4,0.1-0.7,0.3-0.9c0.2-0.8,0.4-1.8,0.5-2.9
						c0.1-0.6,0.2-1.6,0.3-3c0.1-1.3,0.2-2.2,0.3-2.9c0.1-1.1,0.3-2.1,0.6-2.9c0.5-1,0.8-2,1-3s0.2-2.1,0-3.2c0-0.3,0.1-0.6,0.1-1.1
						s0-0.8,0-1c0-0.4,0-0.7,0-1c0.1-0.3,0.3-0.6,0.5-0.9c0-0.6,0.1-1.2,0.4-1.8c0.2-0.6,0.6-1.2,1-1.7c0.3-2,0.4-4,0.4-5.9
						c0.6-0.2,1.2-0.3,1.8-0.4c0.6-0.1,1.3-0.1,1.9,0c0,0.2,0,0.5-0.1,0.8c0,0-0.1,0.3-0.3,0.9c-0.1,0.4-0.2,0.7-0.2,1
						c0,0.3,0,0.7,0,0.9c0.1,0.7,0.1,1.4,0,2.1c-0.1,0.7-0.4,1.4-0.8,2c-0.3,1.3-0.5,2.5-0.5,3.4c0,1.3,0.4,2.4,1,3.3
						c0.5,0.5,1.1,1.1,1.8,1.8c0.3,0.3,0.9,0.8,1.9,1.6c0.8,0.7,1.4,1.2,1.9,1.7c0.7,0.6,1.2,1.3,1.7,1.8c0.3,0.3,0.5,0.6,0.6,1.1
						c0,0.4-0.1,0.8-0.4,1.2c0,0-0.1,0.1-0.1,0.1c-0.2,0.7-0.5,1.3-1.1,1.9c-0.5,0.5-1.1,0.9-1.8,1.1c-0.2,0.1-0.5,0.3-0.7,0.5
						c-0.3,0.2-0.5,0.4-0.6,0.7c-0.2,0.3-0.3,0.5-0.3,0.8c0,0.3,0.1,0.5,0.4,0.8c1,0.3,2.1,0.4,3.1,0.3c1.1-0.1,2.1-0.3,3.1-0.7
						c0.3-0.1,0.5-0.3,0.7-0.5c0.1-0.2,0.2-0.5,0.3-0.9c0.1-0.4,0.1-0.8,0.2-0.9c0.1-0.4,0.1-0.7,0.3-0.9c0.7,1,1.4,2.1,2,3.2
						c0.4,0.5,0.9,0.7,1.6,0.5c0.3,0,0.6-0.1,0.9-0.3c0.5-0.2,0.8-0.4,0.8-0.4c0.1-0.9,0-1.9-0.2-2.8c-0.2-0.9-0.5-1.8-0.9-2.6
						c-0.1-0.2-0.3-0.5-0.5-0.7c-0.1,0-0.3-0.2-0.8-0.5c-0.3-0.2-0.5-0.4-0.7-0.5c-0.2-0.2-0.3-0.5-0.3-0.8c0.4-1.4,1.1-2.9,2.2-4.6
						c0.3-0.5,0.8-1.2,1.4-2.2c0.6-0.9,1.1-1.6,1.4-2.1c0.3-0.3,0.6-0.7,0.6-1.2c0.1-0.4,0.1-0.8,0.1-1.3c0-0.1-0.1-0.6-0.2-1.4
						c-0.1-0.6-0.1-1-0.1-1.3c-0.2-2.3-0.1-4.6,0.4-6.8c0.5-2.2,1.4-4.3,2.7-6.3c0.5,2.1,1.2,4.2,2,6.3c0.3,1.2,0.7,2.3,1.2,3.4
						c0.5,1.1,1.2,2.2,1.9,3.2c0.2,0.5,0.3,1.1,0.4,1.8c0.1,0.5,0.1,1.1,0.2,1.9c0.1,1.2,0.1,1.9,0.1,1.9c0.1,0.7,0.2,1.4,0.3,1.9
						c0.3,2.1,0.5,4.3,0.4,6.4c-0.1,2.1-0.5,4.3-1,6.3c0,0.3,0,0.7-0.2,1.1c-0.1,0.2-0.2,0.6-0.4,1c-0.2,0.4-0.4,0.8-0.5,1
						c-0.1,0.4-0.1,0.7-0.1,1.1c0.1,0.3,0.3,0.5,0.5,0.6c0.2,0.1,0.5,0.1,0.8,0.1c0,0,0.2-0.1,0.4-0.1c0.2,0,0.3-0.1,0.4-0.1
						c0.3,0,0.5,0.1,0.8,0.2c0.7,0.2,1.5,0.2,2.2-0.1c0.7-0.3,1.3-0.8,1.6-1.6c-0.3-1.2-0.6-2.4-0.7-3.6c-0.6-1.8-0.9-3.6-1-5.4
						c-0.1-1.8,0-3.7,0.3-5.5c0-0.4,0.1-0.9,0.3-1.6c0.2-0.8,0.3-1.3,0.3-1.6c0.1-0.6,0.1-1.1,0-1.6c-0.1-0.5-0.3-1-0.7-1.4
						c-0.1-0.4-0.1-0.9-0.1-1.4c0-0.3,0-0.8,0.1-1.4c0-0.6,0-1.1,0-1.4c0-0.5,0-1-0.1-1.4c-0.5-2.4-0.8-4.8-0.9-7.3s0.1-4.9,0.5-7.3
						c0.1-0.1,0.1-0.3,0.2-0.5c0-0.3,0-0.5,0-0.7c0-0.2,0.1-0.4,0.1-0.6c0.1-0.2,0.2-0.3,0.4-0.4c0.3,0.5,0.6,1.1,0.8,1.7
						c0.2,0.6,0.2,1.3,0.2,1.9c0.3,1,0.5,2,0.5,3.1c0,1.1-0.1,2.1-0.4,3.1c-0.3,0.4-0.5,0.8-0.5,1.3c-0.1,0.4-0.1,0.9-0.1,1.4
						c0,0.3,0.1,0.8,0.1,1.4c0.1,0.7,0.2,1.1,0.2,1.4c0,0.3,0.1,0.5,0.3,0.5c0.2,0.1,0.4,0.1,0.6,0c0.2-0.1,0.4-0.2,0.5-0.4
						c0.2-0.2,0.3-0.4,0.3-0.6c1.1-2.1,2-4.3,2.7-6.6c0.2-0.2,0.3-0.5,0.4-0.8c0-0.2,0-0.5-0.1-0.8l-0.2-0.8
						c-0.1-0.3-0.1-0.6-0.1-0.8c0.3,0,0.5-0.1,0.6-0.3c0.1-0.1,0.2-0.3,0.1-0.5s-0.1-0.5-0.2-0.7c-0.1-0.2-0.3-0.4-0.4-0.6
						c-0.1-0.4-0.3-1-0.4-1.7c-0.2-1.1-0.3-1.7-0.3-1.7c-0.1-0.6-0.3-1.2-0.5-1.6c-0.2-0.6-0.5-1.1-0.9-1.5
						c-1.1-1.2-2.2-2.4-3.1-3.8c-0.9-1.3-1.8-2.7-2.5-4.2c-0.3-1.1-0.9-2.2-1.6-3.4c-0.4-0.7-1.1-1.7-2.1-3c-1-1.3-1.7-2.4-2.1-3.1
						c-0.7-1.2-1.2-2.3-1.5-3.4c-0.3-1.4-0.9-2.7-1.7-3.9c-0.8-1.2-1.8-2.1-3-2.9c-1.1-0.5-2.2-0.9-3.4-1.3c-1,0.2-2,0.3-3,0.4
						c-0.6-0.1-1.3,0.1-2.1,0.5c-0.2,0.1-0.5,0.3-1,0.5c-0.4,0.2-0.8,0.4-1,0.5c-1.1,0.4-2.2,0.7-3.3,0.9c-0.2,0.4-0.4,0.7-0.8,1.1
						c-0.2,0.3-0.6,0.6-1,1c-0.5,0.5-0.9,0.8-1,1c-0.4,0.4-0.7,0.8-0.9,1.1c-0.5,1.6-1.3,3-2.2,4.4c-1,1.3-2.1,2.5-3.4,3.5
						c-1.7,0.9-3.2,2.3-4.4,4.3c-0.9,1.5-1.8,3.5-2.5,5.8c-0.1,0.2-0.2,0.4-0.3,0.8c0,0.1-0.1,0.4-0.1,0.8c0,0.3-0.1,0.6-0.1,0.8
						c-0.1,0.3-0.1,0.5-0.3,0.7c-0.3,0.1-0.6,0.1-0.8,0c-0.1-0.1-0.2-0.3-0.2-0.7c0-0.1,0-0.4,0.1-0.9c0-0.4,0-0.6,0-0.8
						c-0.1-0.3,0-0.7,0-1c0.1-0.2,0.2-0.5,0.4-0.8c0.2-0.4,0.4-0.7,0.5-0.8c0.1-0.3,0.2-0.7,0.2-0.9c0.3-0.5,0.5-1,0.6-1.5
						s0.1-1.1,0.1-1.6c0-0.4,0-1,0-1.8c0-0.9,0-1.6,0-1.9c0-0.7-0.1-1.3-0.3-1.8c-0.2-0.6-0.5-1.2-0.9-1.7c-0.2-0.1-0.4-0.3-0.5-0.6
						c-0.1-0.2-0.2-0.4-0.3-0.7c0-0.3-0.1-0.6-0.1-0.8c0-0.3-0.1-0.6-0.1-0.8c-0.5-0.7-1.1-1.3-1.7-1.9c-0.6-0.6-1.3-1.1-2-1.5
						C345.8,59.5,345.5,59.4,345.2,59.2 M376,98.6c0.1-0.3,0.1-0.5,0.2-0.7c0.1-0.2,0.3-0.4,0.5-0.5l0.1,0.1c0,0,0,0.1,0,0.2h0.1
						c0.7,4.2,1.2,8.4,1.4,12.7c0,1.3-0.1,2.6-0.5,3.9c-0.4,1.3-0.9,2.5-1.6,3.6c-0.1,0.3-0.2,0.4-0.4,0.5c-0.1,0.1-0.3,0-0.6-0.1
						c-0.3-0.1-0.5-0.2-0.6-0.3c-0.2-0.1-0.4-0.2-0.6-0.2c-0.4,0-0.8-0.1-1.2-0.3c-0.3-0.2-0.6-0.5-0.9-0.8
						c-0.2-0.2-0.4-0.6-0.7-1.1c-0.3-0.5-0.6-0.8-0.8-1.1c-0.4-0.5-0.6-1.1-0.5-1.8c0.1-0.3,0.2-0.5,0.4-0.8
						c0.1-0.2,0.3-0.5,0.5-0.8c0.1-0.1,0.3-0.3,0.5-0.4c0.2-0.3,0.4-0.4,0.4-0.6c0.2-0.2,0.3-0.4,0.5-0.5c0.2-0.1,0.4-0.2,0.6-0.2
						c0.5,0,0.7-0.3,0.8-0.8c0.1-0.4,0-0.8-0.1-1.3c0.2-0.2,0.3-0.5,0.4-0.8c0-0.2,0.1-0.6,0.1-1c0.1-0.5,0.1-0.8,0.1-1
						c0.1-0.4,0.2-0.7,0.4-1c0.3-0.1,0.5-0.3,0.6-0.6c0.1-0.2,0.2-0.6,0.3-0.9c0.1-0.4,0.1-0.8,0.1-1c0.1-0.4,0.1-0.7,0.2-0.9
						c0.1-0.2,0.1-0.4,0.1-0.7C375.9,99,376,98.7,376,98.6z"/>
				</g>
			</g>
		</g>
	</g>
	<g id="php">
		<g transform="matrix( 1, 0, 0, 1, 0,0) ">
			<g>
				<g id="Layer2_0_FILL">
					<path fill="#292934" d="M550.3,186.3h6.1l1.3-6.7h5.8c1.4,0.1,2.8-0.1,4.1-0.6c1.4-0.5,2.6-1.3,3.7-2.3
						c1.2-1.1,2.1-2.3,2.7-3.8c0.7-1.6,1-3.3,1-5.2c0-2.2-0.6-4-1.9-5.2c-1.3-1.3-3.2-2-5.8-2.2h-11.8L550.3,186.3 M560.6,165.2h4.2
						c1.2,0,2.1,0.3,2.8,0.8c0.7,0.5,1.1,1.2,1.1,2.2c-0.1,2.5-0.8,4.3-1.9,5.3c-0.5,0.4-1.1,0.8-1.8,1c-0.6,0.2-1.3,0.3-2.1,0.4
						H559L560.6,165.2 M553,166.5c0.2-0.8,0.2-1.6,0-2.3c-0.2-0.7-0.5-1.3-1-1.9c-1.1-1.2-2.9-1.8-5.3-2h-5.8l1.3-6.7H536l-5.1,25.9
						h6l2.9-14.4h4.8c0.6,0,1,0.1,1.3,0.2c0.3,0.1,0.6,0.3,0.7,0.5c0.1,0.2,0.1,0.5,0.1,0.8c0,0.3,0,0.6-0.1,1.1l-2.3,11.9h6.3
						L553,166.5 M524.5,160.4h-11.8l-5.1,25.9h6l1.3-6.7h5.7c1.4,0.1,2.8-0.1,4.2-0.6c1.4-0.5,2.6-1.3,3.7-2.3
						c1.2-1.1,2.1-2.3,2.7-3.8c0.7-1.6,1.1-3.3,1.1-5.2c0-2.2-0.7-4-2-5.2C528.9,161.3,527,160.6,524.5,160.4 M517.8,165.2h4.2
						c1.2,0,2.1,0.3,2.8,0.8c0.7,0.5,1,1.2,1,2.2c-0.1,2.5-0.7,4.3-1.9,5.3c-0.5,0.4-1,0.8-1.8,1c-0.6,0.2-1.3,0.3-2,0.4h-3.8
						L517.8,165.2z"/>
				</g>
			</g>
		</g>
	</g>
	<g id="connectors">
		<g transform="matrix( 1, 0, 0, 1, 0,0) ">
			<g>
				<g id="Layer1_0_FILL">
					<path fill="#FEFEFE" d="M463.6,299.4c-0.6-0.5-1.2-0.8-2-0.8s-1.4,0.3-2,0.8c-0.6,0.6-0.9,1.2-0.9,2s0.3,1.4,0.9,2
						c0.6,0.6,1.2,0.9,2,0.9s1.4-0.3,2-0.9c0.5-0.6,0.8-1.2,0.8-2c0-0.1,0-0.1,0-0.1C464.4,300.5,464.1,299.9,463.6,299.4
						 M568.3,302.3c0.3,0.3,0.7,0.5,1,0.5c0.4,0,0.8-0.1,1.1-0.5c0.3-0.3,0.4-0.6,0.4-1c0-0.4-0.1-0.7-0.4-1
						c-0.3-0.3-0.6-0.5-1.1-0.5c-0.4,0-0.7,0.1-1,0.5c-0.3,0.3-0.4,0.6-0.4,1c0,0.1,0,0.1,0,0.1C567.9,301.7,568.1,302,568.3,302.3
						 M292,301.4c0-0.8-0.3-1.4-0.8-2c-0.6-0.6-1.2-0.9-2-0.9c-0.8,0-1.4,0.3-2,0.9c-0.5,0.6-0.8,1.2-0.8,2c0,0.1,0,0.1,0,0.1
						c0,0.7,0.3,1.3,0.8,1.9c0.6,0.5,1.2,0.8,2,0.8c0.8,0,1.4-0.3,2-0.8C291.8,302.8,292,302.2,292,301.4 M182.9,301.5
						c0,0.4,0.1,0.7,0.4,1c0.3,0.3,0.6,0.5,1.1,0.5c0.4,0,0.8-0.1,1.1-0.5c0.3-0.3,0.4-0.6,0.4-1c0-0.1,0-0.1,0-0.1
						c0-0.4-0.2-0.7-0.4-0.9c-0.3-0.3-0.7-0.5-1.1-0.5c-0.4,0-0.8,0.1-1.1,0.5C183.1,300.8,182.9,301.1,182.9,301.5 M377.3,258.3
						c-0.6-0.5-1.2-0.8-2-0.8c-0.1,0-0.1,0-0.1,0c-0.7,0-1.3,0.3-1.9,0.8c-0.5,0.6-0.8,1.2-0.8,2c0,0.8,0.3,1.4,0.8,2
						c0.6,0.6,1.2,0.9,2,0.9s1.4-0.3,2-0.9c0.6-0.6,0.9-1.2,0.9-2C378.1,259.5,377.8,258.9,377.3,258.3 M375.3,158.4
						c0.4,0,0.7-0.2,0.9-0.4c0.3-0.3,0.5-0.7,0.5-1.1c0-0.4-0.2-0.8-0.5-1.1c-0.3-0.3-0.6-0.4-1-0.4c-0.4,0-0.7,0.1-1,0.4
						c-0.3,0.3-0.5,0.6-0.5,1.1c0,0.4,0.2,0.8,0.5,1.1c0.3,0.3,0.6,0.4,1,0.4C375.2,158.4,375.2,158.4,375.3,158.4 M318.8,258.3
						c-0.5-0.5-1.1-0.8-1.8-0.8c0,0-0.1,0-0.2,0c-0.8,0-1.4,0.3-2,0.8c-0.6,0.6-0.8,1.2-0.8,2c0,0.8,0.3,1.4,0.8,2
						c0.6,0.6,1.2,0.9,2,0.9c0.8,0,1.4-0.3,2-0.9c0.5-0.6,0.8-1.2,0.8-2C319.6,259.5,319.3,258.9,318.8,258.3 M253.1,170
						c-0.3,0.3-0.4,0.6-0.4,1c0,0.4,0.1,0.8,0.4,1.1c0.3,0.3,0.6,0.4,1.1,0.4c0.4,0,0.7-0.2,1-0.4c0.2-0.2,0.4-0.5,0.4-0.9
						c0,0,0-0.1,0-0.1c0-0.4-0.1-0.7-0.4-1c-0.3-0.3-0.6-0.4-1-0.4C253.7,169.6,253.3,169.7,253.1,170 M431.8,257.5
						c-0.1,0-0.1,0-0.1,0c-0.7,0-1.3,0.3-1.9,0.8c-0.5,0.6-0.8,1.2-0.8,2c0,0.8,0.3,1.4,0.8,2c0.6,0.6,1.2,0.9,2,0.9s1.4-0.3,2-0.9
						c0.6-0.6,0.9-1.2,0.9-2c0-0.8-0.3-1.4-0.9-2C433.2,257.8,432.5,257.5,431.8,257.5 M495.5,170c-0.3-0.3-0.6-0.4-1-0.4
						c-0.4,0-0.8,0.1-1.1,0.4c-0.3,0.3-0.4,0.6-0.4,1c0,0.1,0,0.1,0,0.1c0,0.4,0.2,0.7,0.4,0.9c0.3,0.3,0.7,0.4,1.1,0.4
						c0.4,0,0.8-0.2,1-0.4c0.3-0.3,0.5-0.6,0.5-1.1C496,170.6,495.8,170.3,495.5,170z"/>
				</g>
			</g>
			<g>
				<path id="Layer1_0_1_STROKES" fill="none" stroke="#A3A3A3" stroke-miterlimit="10" d="M493,171.1c0,0.4,0.2,0.7,0.4,0.9
					c0.3,0.3,0.7,0.4,1.1,0.4c0.4,0,0.8-0.2,1-0.4c0.3-0.3,0.5-0.6,0.5-1.1c0-0.4-0.1-0.7-0.5-1c-0.3-0.3-0.6-0.4-1-0.4
					c-0.4,0-0.8,0.1-1.1,0.4c-0.3,0.3-0.4,0.6-0.4,1C493,171.1,493,171.1,493,171.1h-52.9c-2.3,0-4.3,0.8-5.9,2.5
					c-1.6,1.6-2.5,3.6-2.5,5.9l-0.1,77.9c0,0,0.1,0,0.1,0c0.8,0,1.4,0.3,2,0.8c0.6,0.6,0.9,1.2,0.9,2c0,0.8-0.3,1.4-0.9,2
					c-0.6,0.6-1.2,0.9-2,0.9s-1.4-0.3-2-0.9c-0.5-0.6-0.8-1.2-0.8-2c0-0.8,0.3-1.4,0.8-2c0.5-0.5,1.1-0.8,1.9-0.8 M375.3,158.4
					c0.4,0,0.7-0.2,0.9-0.4c0.3-0.3,0.5-0.7,0.5-1.1c0-0.4-0.2-0.8-0.5-1.1c-0.3-0.3-0.6-0.4-1-0.4c-0.4,0-0.7,0.1-1,0.4
					c-0.3,0.3-0.5,0.6-0.5,1.1c0,0.4,0.2,0.8,0.5,1.1c0.3,0.3,0.6,0.4,1,0.4C375.2,158.4,375.2,158.4,375.3,158.4v99.1
					c0.8,0,1.4,0.3,2,0.8c0.6,0.6,0.9,1.2,0.9,2c0,0.8-0.3,1.4-0.9,2c-0.6,0.6-1.2,0.9-2,0.9s-1.4-0.3-2-0.9c-0.5-0.6-0.8-1.2-0.8-2
					c0-0.8,0.3-1.4,0.8-2c0.5-0.5,1.1-0.8,1.9-0.8c0,0,0.1,0,0.1,0 M464.4,301.4c0-0.1,0-0.1,0-0.1c0-0.7-0.3-1.3-0.8-1.9
					c-0.6-0.5-1.2-0.8-2-0.8s-1.4,0.3-2,0.8c-0.6,0.6-0.9,1.2-0.9,2s0.3,1.4,0.9,2c0.6,0.6,1.2,0.9,2,0.9s1.4-0.3,2-0.9
					C464.1,302.8,464.4,302.1,464.4,301.4h74h29.5c0,0,0-0.1,0-0.1c0-0.4,0.1-0.7,0.4-1c0.3-0.3,0.7-0.5,1-0.5
					c0.4,0,0.8,0.1,1.1,0.5c0.3,0.3,0.4,0.6,0.4,1c0,0.4-0.1,0.8-0.4,1c-0.3,0.3-0.6,0.5-1.1,0.5c-0.4,0-0.7-0.1-1-0.5
					c-0.2-0.2-0.4-0.5-0.4-0.9 M255.6,171.1c0,0.4-0.2,0.7-0.4,0.9c-0.3,0.3-0.6,0.4-1,0.4c-0.4,0-0.8-0.2-1.1-0.4
					c-0.3-0.3-0.4-0.6-0.4-1.1c0-0.4,0.1-0.7,0.4-1c0.3-0.3,0.6-0.4,1.1-0.4c0.4,0,0.7,0.1,1,0.4c0.3,0.3,0.4,0.6,0.4,1
					C255.6,171.1,255.6,171.1,255.6,171.1h52.8c2.3,0,4.3,0.8,6,2.5c1.6,1.6,2.4,3.6,2.4,5.9l0.2,77.9c0.7,0,1.3,0.3,1.8,0.8
					c0.5,0.6,0.8,1.2,0.8,2c0,0.8-0.3,1.4-0.8,2c-0.6,0.6-1.2,0.9-2,0.9c-0.8,0-1.4-0.3-2-0.9c-0.6-0.6-0.8-1.2-0.8-2
					c0-0.8,0.3-1.4,0.8-2c0.6-0.5,1.2-0.8,2-0.8c0.1,0,0.1,0,0.2,0 M185.9,301.4c0-0.4-0.2-0.7-0.4-0.9c-0.3-0.3-0.7-0.5-1.1-0.5
					c-0.4,0-0.8,0.1-1.1,0.5c-0.3,0.3-0.4,0.6-0.4,1c0,0.4,0.1,0.7,0.4,1c0.3,0.3,0.6,0.5,1.1,0.5c0.4,0,0.8-0.1,1.1-0.5
					c0.3-0.3,0.4-0.6,0.4-1C185.9,301.5,185.9,301.4,185.9,301.4h100.5c0-0.8,0.3-1.4,0.8-2c0.6-0.6,1.2-0.9,2-0.9
					c0.8,0,1.4,0.3,2,0.9c0.6,0.6,0.8,1.2,0.8,2s-0.3,1.4-0.8,2c-0.6,0.5-1.2,0.8-2,0.8c-0.8,0-1.4-0.3-2-0.8
					c-0.5-0.5-0.8-1.1-0.8-1.9c0,0,0-0.1,0-0.1"/>
			</g>
		</g>
	</g>
</g>
<g id="Layer_2">
	<g>
		<g>
			<g>
				<defs>
					<path id="SVGID_1_" d="M610.7,284.7c3.2,9.7,4.4,26.9,13.6,26.9l0,0c0.7,0,1.4-0.1,2.1-0.2l0,0c-8.4-2-9.4-19-14.5-27.8l0,0
						C611.5,283.9,611.1,284.3,610.7,284.7"/>
				</defs>
				<clipPath id="SVGID_2_">
					<use xlink:href="#SVGID_1_"  overflow="visible"/>
				</clipPath>
				<g clip-path="url(#SVGID_2_)">
					
						<linearGradient id="SVGID_3_" gradientUnits="userSpaceOnUse" x1="0" y1="400" x2="1" y2="400" gradientTransform="matrix(0 41.8013 41.8013 0 -16101.8457 278.2166)">
						<stop  offset="0" style="stop-color:#0095DA"/>
						<stop  offset="0.1099" style="stop-color:#0095DA"/>
						<stop  offset="0.1755" style="stop-color:#0397DB"/>
						<stop  offset="0.2303" style="stop-color:#0E9FDF"/>
						<stop  offset="0.2812" style="stop-color:#1FACE6"/>
						<stop  offset="0.3295" style="stop-color:#37BEF0"/>
						<stop  offset="0.35" style="stop-color:#44C8F5"/>
						<stop  offset="0.45" style="stop-color:#44C8F5"/>
						<stop  offset="0.4666" style="stop-color:#40C4F2"/>
						<stop  offset="0.6317" style="stop-color:#1D9DDA"/>
						<stop  offset="0.764" style="stop-color:#0886CB"/>
						<stop  offset="0.8462" style="stop-color:#007DC5"/>
						<stop  offset="1" style="stop-color:#007DC5"/>
					</linearGradient>
					<rect x="501.2" y="283.7" fill="url(#SVGID_3_)" width="125.4" height="125.4"/>
				</g>
			</g>
			<g>
				<defs>
					<path id="SVGID_4_" d="M611.9,283.6c5.1,8.8,6.1,25.9,14.5,27.8l0,0c0.7-0.1,1.3-0.3,2-0.5l0,0c-7.5-3.7-9.6-20.2-15.4-28.2
						l0,0C612.6,283,612.3,283.3,611.9,283.6"/>
				</defs>
				<clipPath id="SVGID_5_">
					<use xlink:href="#SVGID_4_"  overflow="visible"/>
				</clipPath>
				<g clip-path="url(#SVGID_5_)">
					
						<linearGradient id="SVGID_6_" gradientUnits="userSpaceOnUse" x1="0" y1="400" x2="1" y2="400" gradientTransform="matrix(0 42.8666 42.8666 0 -16526.6563 276.9734)">
						<stop  offset="0" style="stop-color:#0078B9"/>
						<stop  offset="0.1758" style="stop-color:#0078B9"/>
						<stop  offset="0.2436" style="stop-color:#0087C7"/>
						<stop  offset="0.36" style="stop-color:#00ABE6"/>
						<stop  offset="0.52" style="stop-color:#00ABE6"/>
						<stop  offset="0.7321" style="stop-color:#00ACE9"/>
						<stop  offset="0.8462" style="stop-color:#00AEEF"/>
						<stop  offset="1" style="stop-color:#00AEEF"/>
					</linearGradient>
					<rect x="499.6" y="282.6" fill="url(#SVGID_6_)" width="128.6" height="128.6"/>
				</g>
			</g>
			<path fill="#005999" d="M619.3,278.3c-0.7,0-1.4,0.1-2.1,0.2c-1.9,0.4-3.8,1.2-5.7,2.4c0.5,0.5,1,1.1,1.5,1.8
				c1.9-1.6,3.9-2.8,5.8-3.5c0.7-0.3,1.4-0.5,2.2-0.6C620.4,278.4,619.9,278.3,619.3,278.3"/>
			<defs>
				<filter id="Adobe_OpacityMaskFilter" filterUnits="userSpaceOnUse" x="620.9" y="278.3" width="15.7" height="29.2">
					<feFlood  style="flood-color:white;flood-opacity:1" result="back"/>
					<feBlend  in="SourceGraphic" in2="back" mode="normal"/>
				</filter>
			</defs>
			<mask maskUnits="userSpaceOnUse" x="620.9" y="278.3" width="15.7" height="29.2" id="SVGID_7_">
				<g filter="url(#Adobe_OpacityMaskFilter)">
					<g>
						<g>
							<defs>
								<rect id="SVGID_8_" x="595.3" y="277.4" width="49" height="17.2"/>
							</defs>
							<clipPath id="SVGID_9_">
								<use xlink:href="#SVGID_8_"  overflow="visible"/>
							</clipPath>
							<g enable-background="new    ">
								<g>
									<defs>
										<rect id="SVGID_10_" x="595.3" y="277.4" width="49" height="17.2"/>
									</defs>
									<clipPath id="SVGID_11_" clip-path="url(#SVGID_9_)">
										<use xlink:href="#SVGID_10_"  overflow="visible"/>
									</clipPath>
									<g>
										<defs>
											<rect id="SVGID_12_" x="595.3" y="277.4" width="49" height="17.2"/>
										</defs>
										<clipPath id="SVGID_13_" clip-path="url(#SVGID_11_)">
											<use xlink:href="#SVGID_12_"  overflow="visible"/>
										</clipPath>
										<g>
											
												<linearGradient id="SVGID_14_" gradientUnits="userSpaceOnUse" x1="0" y1="400" x2="1" y2="400" gradientTransform="matrix(0 17.1702 17.1702 0 -6248.2886 277.4795)">
												<stop  offset="0" style="stop-color:#231F20"/>
												<stop  offset="0.1531" style="stop-color:#464344"/>
												<stop  offset="0.742" style="stop-color:#CAC9C9"/>
												<stop  offset="1" style="stop-color:#FFFFFF"/>
											</linearGradient>
											<rect x="592.8" y="277.5" clip-path="url(#SVGID_13_)" fill="url(#SVGID_14_)" width="51.5" height="51.5"/>
										</g>
									</g>
								</g>
							</g>
						</g>
					</g>
				</g>
			</mask>
			<g mask="url(#SVGID_7_)">
				<g>
					<defs>
						<rect id="SVGID_15_" x="620.9" y="278.3" width="15.7" height="29.1"/>
					</defs>
					<clipPath id="SVGID_16_">
						<use xlink:href="#SVGID_15_"  overflow="visible"/>
					</clipPath>
					<g clip-path="url(#SVGID_16_)">
						<defs>
							<path id="SVGID_17_" d="M634.3,307.5c0.8-0.6,1.5-1.3,2.3-2c-3.2-9.6-4.4-27.1-13.7-27.1c-0.7,0-1.3,0.1-2,0.2
								C629.4,280.6,630.5,299.1,634.3,307.5"/>
						</defs>
						<clipPath id="SVGID_18_">
							<use xlink:href="#SVGID_17_"  overflow="visible"/>
						</clipPath>
						<g clip-path="url(#SVGID_18_)">
							
								<linearGradient id="SVGID_19_" gradientUnits="userSpaceOnUse" x1="0" y1="400" x2="1" y2="400" gradientTransform="matrix(0 -34.1084 -34.1084 0 14272.1484 310.7062)">
								<stop  offset="0" style="stop-color:#0066B3"/>
								<stop  offset="0.1386" style="stop-color:#0079C1"/>
								<stop  offset="0.418" style="stop-color:#00A9E6"/>
								<stop  offset="0.5" style="stop-color:#00B9F2"/>
								<stop  offset="1" style="stop-color:#00B9F2"/>
							</linearGradient>
							<rect x="621" y="205.2" fill="url(#SVGID_19_)" width="102.3" height="102.3"/>
						</g>
					</g>
				</g>
			</g>
			<defs>
				<filter id="Adobe_OpacityMaskFilter_1_" filterUnits="userSpaceOnUse" x="619.3" y="278.3" width="3.7" height="0.2">
					<feFlood  style="flood-color:white;flood-opacity:1" result="back"/>
					<feBlend  in="SourceGraphic" in2="back" mode="normal"/>
				</filter>
			</defs>
			<mask maskUnits="userSpaceOnUse" x="619.3" y="278.3" width="3.7" height="0.2" id="SVGID_20_">
				<g filter="url(#Adobe_OpacityMaskFilter_1_)">
					<g>
						<g>
							<defs>
								<rect id="SVGID_21_" x="595.3" y="277.4" width="49" height="17.2"/>
							</defs>
							<clipPath id="SVGID_22_">
								<use xlink:href="#SVGID_21_"  overflow="visible"/>
							</clipPath>
							<g enable-background="new    ">
								<g>
									<defs>
										<rect id="SVGID_23_" x="595.3" y="277.4" width="49" height="17.2"/>
									</defs>
									<clipPath id="SVGID_24_" clip-path="url(#SVGID_22_)">
										<use xlink:href="#SVGID_23_"  overflow="visible"/>
									</clipPath>
									<g>
										<defs>
											<rect id="SVGID_25_" x="595.3" y="277.4" width="49" height="17.2"/>
										</defs>
										<clipPath id="SVGID_26_" clip-path="url(#SVGID_24_)">
											<use xlink:href="#SVGID_25_"  overflow="visible"/>
										</clipPath>
										<g>
											
												<linearGradient id="SVGID_27_" gradientUnits="userSpaceOnUse" x1="0" y1="400" x2="1" y2="400" gradientTransform="matrix(0 17.1702 17.1702 0 -6248.2886 277.4795)">
												<stop  offset="0" style="stop-color:#231F20"/>
												<stop  offset="0.1531" style="stop-color:#464344"/>
												<stop  offset="0.742" style="stop-color:#CAC9C9"/>
												<stop  offset="1" style="stop-color:#FFFFFF"/>
											</linearGradient>
											<rect x="592.8" y="277.5" clip-path="url(#SVGID_26_)" fill="url(#SVGID_27_)" width="51.5" height="51.5"/>
										</g>
									</g>
								</g>
							</g>
						</g>
					</g>
				</g>
			</mask>
			<g mask="url(#SVGID_20_)">
				<g>
					<defs>
						<rect id="SVGID_28_" x="619.3" y="278.3" width="3.6" height="0.2"/>
					</defs>
					<clipPath id="SVGID_29_">
						<use xlink:href="#SVGID_28_"  overflow="visible"/>
					</clipPath>
					<path clip-path="url(#SVGID_29_)" fill="#0091BE" d="M620.9,278.5c-0.5-0.1-1.1-0.2-1.7-0.2l3.7,0
						C622.3,278.3,621.6,278.4,620.9,278.5"/>
				</g>
			</g>
			<path fill="#006CB6" d="M634.1,309.5c-0.4-0.3-0.7-0.7-1-1.1c-1.6,1.1-3.1,1.9-4.7,2.5c0.6,0.3,1.1,0.5,1.7,0.6
				c0.5,0.1,1,0.1,1.5,0.1c1.7,0,3.1-0.2,4.3-0.8C635.3,310.5,634.7,310,634.1,309.5"/>
			<g>
				<defs>
					<path id="SVGID_30_" d="M618.8,279.1c7.6,4,8.2,21.9,14.3,29.2l0,0c0.4-0.3,0.8-0.6,1.2-0.9l0,0c-3.8-8.4-4.9-26.8-13.3-28.9
						l0,0C620.2,278.7,619.5,278.9,618.8,279.1"/>
				</defs>
				<clipPath id="SVGID_31_">
					<use xlink:href="#SVGID_30_"  overflow="visible"/>
				</clipPath>
				<g clip-path="url(#SVGID_31_)">
					
						<linearGradient id="SVGID_32_" gradientUnits="userSpaceOnUse" x1="0" y1="400" x2="1" y2="400" gradientTransform="matrix(0 44.5067 44.5067 0 -17176.0039 272.8446)">
						<stop  offset="0" style="stop-color:#006CB3"/>
						<stop  offset="9.890750e-02" style="stop-color:#006CB3"/>
						<stop  offset="0.2001" style="stop-color:#007EC1"/>
						<stop  offset="0.4" style="stop-color:#00ABE6"/>
						<stop  offset="0.5165" style="stop-color:#00ABE6"/>
						<stop  offset="0.8462" style="stop-color:#0097D9"/>
						<stop  offset="1" style="stop-color:#0097D9"/>
					</linearGradient>
					<rect x="500.9" y="278.7" fill="url(#SVGID_32_)" width="133.5" height="133.5"/>
				</g>
			</g>
			<g>
				<defs>
					<path id="SVGID_33_" d="M613,282.7c5.8,8,7.9,24.5,15.4,28.2l0,0c1.5-0.5,3.1-1.4,4.7-2.5l0,0c-6.1-7.3-6.7-25.3-14.3-29.2l0,0
						C616.8,279.9,614.9,281,613,282.7"/>
				</defs>
				<clipPath id="SVGID_34_">
					<use xlink:href="#SVGID_33_"  overflow="visible"/>
				</clipPath>
				<g clip-path="url(#SVGID_34_)">
					
						<linearGradient id="SVGID_35_" gradientUnits="userSpaceOnUse" x1="0" y1="400" x2="1" y2="400" gradientTransform="matrix(0 47.3269 47.3269 0 -18307.6484 273.0341)">
						<stop  offset="0" style="stop-color:#00487E"/>
						<stop  offset="0.1099" style="stop-color:#00487E"/>
						<stop  offset="0.39" style="stop-color:#0087C7"/>
						<stop  offset="0.52" style="stop-color:#0087C7"/>
						<stop  offset="0.545" style="stop-color:#0082C2"/>
						<stop  offset="0.7802" style="stop-color:#005598"/>
						<stop  offset="1" style="stop-color:#005598"/>
					</linearGradient>
					<rect x="613.1" y="279.2" fill="url(#SVGID_35_)" width="20.1" height="31.7"/>
				</g>
			</g>
			<defs>
				<filter id="Adobe_OpacityMaskFilter_2_" filterUnits="userSpaceOnUse" x="604" y="282.1" width="6.7" height="10.7">
					<feFlood  style="flood-color:white;flood-opacity:1" result="back"/>
					<feBlend  in="SourceGraphic" in2="back" mode="normal"/>
				</filter>
			</defs>
			<mask maskUnits="userSpaceOnUse" x="604" y="282.1" width="6.7" height="10.7" id="SVGID_36_">
				<g filter="url(#Adobe_OpacityMaskFilter_2_)">
					<g>
						<g>
							<defs>
								<rect id="SVGID_37_" x="576.6" y="276.4" width="49" height="41.7"/>
							</defs>
							<clipPath id="SVGID_38_">
								<use xlink:href="#SVGID_37_"  overflow="visible"/>
							</clipPath>
							<g enable-background="new    ">
								<g>
									<defs>
										<rect id="SVGID_39_" x="576.6" y="276.4" width="49" height="41.7"/>
									</defs>
									<clipPath id="SVGID_40_" clip-path="url(#SVGID_38_)">
										<use xlink:href="#SVGID_39_"  overflow="visible"/>
									</clipPath>
									<g>
										<defs>
											<rect id="SVGID_41_" x="576.6" y="276.4" width="49" height="41.7"/>
										</defs>
										<clipPath id="SVGID_42_" clip-path="url(#SVGID_40_)">
											<use xlink:href="#SVGID_41_"  overflow="visible"/>
										</clipPath>
										<g>
											
												<linearGradient id="SVGID_43_" gradientUnits="userSpaceOnUse" x1="0" y1="400" x2="1" y2="400" gradientTransform="matrix(0 -41.6607 -41.6607 0 17265.4238 318.0898)">
												<stop  offset="0" style="stop-color:#231F20"/>
												<stop  offset="0.4615" style="stop-color:#231F20"/>
												<stop  offset="0.544" style="stop-color:#464344"/>
												<stop  offset="0.8611" style="stop-color:#CAC9C9"/>
												<stop  offset="1" style="stop-color:#FFFFFF"/>
											</linearGradient>
											<rect x="576.7" y="276.4" clip-path="url(#SVGID_42_)" fill="url(#SVGID_43_)" width="49" height="41.7"/>
										</g>
									</g>
								</g>
							</g>
						</g>
					</g>
				</g>
			</mask>
			<g mask="url(#SVGID_36_)">
				<g>
					<defs>
						<rect id="SVGID_44_" x="604" y="282.1" width="6.7" height="10.7"/>
					</defs>
					<clipPath id="SVGID_45_">
						<use xlink:href="#SVGID_44_"  overflow="visible"/>
					</clipPath>
					<path clip-path="url(#SVGID_45_)" fill="#00B8F1" d="M607,284.5c-0.9,2.1-1.8,4.8-3,8.3c2.2-3.2,4.5-5.9,6.7-8.1
						c-0.3-0.9-0.6-1.8-1-2.6C608.8,282.8,607.9,283.6,607,284.5"/>
				</g>
			</g>
			<path fill="#0078AE" d="M610.5,281.6c-0.3,0.2-0.5,0.4-0.8,0.6c0.4,0.8,0.7,1.6,1,2.6c0.4-0.4,0.8-0.8,1.2-1.1
				C611.5,282.8,611,282.2,610.5,281.6"/>
			<path fill="#005E9C" d="M611.5,280.9c-0.3,0.2-0.6,0.4-1,0.6c0.5,0.6,1,1.3,1.4,2c0.4-0.3,0.7-0.6,1.1-0.9
				C612.5,282,612,281.4,611.5,280.9"/>
			<defs>
				<filter id="Adobe_OpacityMaskFilter_3_" filterUnits="userSpaceOnUse" x="640.6" y="277.6" width="27.3" height="34">
					<feFlood  style="flood-color:white;flood-opacity:1" result="back"/>
					<feBlend  in="SourceGraphic" in2="back" mode="normal"/>
				</filter>
			</defs>
			<mask maskUnits="userSpaceOnUse" x="640.6" y="277.6" width="27.3" height="34" id="SVGID_46_">
				<g filter="url(#Adobe_OpacityMaskFilter_3_)">
					<g>
						<g>
							<defs>
								<rect id="SVGID_47_" x="630.1" y="276.9" width="49" height="29.9"/>
							</defs>
							<clipPath id="SVGID_48_">
								<use xlink:href="#SVGID_47_"  overflow="visible"/>
							</clipPath>
							<g enable-background="new    ">
								<g>
									<defs>
										<rect id="SVGID_49_" x="630.1" y="276.9" width="49" height="29.9"/>
									</defs>
									<clipPath id="SVGID_50_" clip-path="url(#SVGID_48_)">
										<use xlink:href="#SVGID_49_"  overflow="visible"/>
									</clipPath>
									<g>
										<defs>
											<rect id="SVGID_51_" x="630.1" y="276.9" width="49" height="29.9"/>
										</defs>
										<clipPath id="SVGID_52_" clip-path="url(#SVGID_50_)">
											<use xlink:href="#SVGID_51_"  overflow="visible"/>
										</clipPath>
										<g>
											
												<linearGradient id="SVGID_53_" gradientUnits="userSpaceOnUse" x1="0" y1="400" x2="1" y2="400" gradientTransform="matrix(0 29.9088 29.9088 0 -11309.1289 276.7715)">
												<stop  offset="0" style="stop-color:#333132"/>
												<stop  offset="0.7308" style="stop-color:#FFFFFF"/>
												<stop  offset="1" style="stop-color:#FFFFFF"/>
											</linearGradient>
											<rect x="589.1" y="276.8" clip-path="url(#SVGID_52_)" fill="url(#SVGID_53_)" width="89.7" height="89.7"/>
										</g>
									</g>
								</g>
							</g>
						</g>
					</g>
				</g>
			</mask>
			<g mask="url(#SVGID_46_)">
				<g>
					<defs>
						<rect id="SVGID_54_" x="640.6" y="277.6" width="27.3" height="34"/>
					</defs>
					<clipPath id="SVGID_55_">
						<use xlink:href="#SVGID_54_"  overflow="visible"/>
					</clipPath>
					<g clip-path="url(#SVGID_55_)">
						<defs>
							<path id="SVGID_56_" d="M663.2,277.6c-4.3,16.5-13.3,29.8-20.8,33.2c0,0,0,0,0,0c-0.1,0.1-0.3,0.1-0.4,0.2c0,0,0,0,0,0
								c0,0-0.1,0-0.1,0c0,0,0,0-0.1,0c-0.1,0-0.1,0-0.2,0.1c0,0-0.1,0-0.1,0c0,0-0.1,0-0.1,0c0,0-0.1,0-0.1,0c0,0-0.1,0-0.1,0
								c-0.1,0-0.1,0-0.2,0c0,0,0,0-0.1,0c0,0-0.1,0-0.1,0c0,0,0,0-0.1,0c0,0-0.1,0-0.1,0c-0.1,0-0.1,0-0.1,0
								c0.3,0.1,0.7,0.2,1.1,0.2c7.1,0,14.3-12.8,26.2-34H663.2z"/>
						</defs>
						<clipPath id="SVGID_57_">
							<use xlink:href="#SVGID_56_"  overflow="visible"/>
						</clipPath>
						<g clip-path="url(#SVGID_57_)">
							
								<linearGradient id="SVGID_58_" gradientUnits="userSpaceOnUse" x1="0" y1="400" x2="1" y2="400" gradientTransform="matrix(0 -33.2263 -33.2263 0 13944.7793 309.816)">
								<stop  offset="0" style="stop-color:#006DB0"/>
								<stop  offset="0.1296" style="stop-color:#0A87C4"/>
								<stop  offset="0.3268" style="stop-color:#16A8DE"/>
								<stop  offset="0.4906" style="stop-color:#1DBDEE"/>
								<stop  offset="0.6" style="stop-color:#20C4F4"/>
								<stop  offset="1" style="stop-color:#20C4F4"/>
							</linearGradient>
							<rect x="640.6" y="212" fill="url(#SVGID_58_)" width="99.7" height="99.7"/>
						</g>
					</g>
				</g>
			</g>
			<defs>
				<filter id="Adobe_OpacityMaskFilter_4_" filterUnits="userSpaceOnUse" x="580.3" y="278.3" width="24.8" height="34.2">
					<feFlood  style="flood-color:white;flood-opacity:1" result="back"/>
					<feBlend  in="SourceGraphic" in2="back" mode="normal"/>
				</filter>
			</defs>
			<mask maskUnits="userSpaceOnUse" x="580.3" y="278.3" width="24.8" height="34.2" id="SVGID_59_">
				<g filter="url(#Adobe_OpacityMaskFilter_4_)">
					<g>
						<g>
							<defs>
								<rect id="SVGID_60_" x="565.1" y="274.8" width="49" height="41.7"/>
							</defs>
							<clipPath id="SVGID_61_">
								<use xlink:href="#SVGID_60_"  overflow="visible"/>
							</clipPath>
							<g enable-background="new    ">
								<g>
									<defs>
										<rect id="SVGID_62_" x="565.1" y="274.8" width="49" height="41.7"/>
									</defs>
									<clipPath id="SVGID_63_" clip-path="url(#SVGID_61_)">
										<use xlink:href="#SVGID_62_"  overflow="visible"/>
									</clipPath>
									<g>
										<defs>
											<rect id="SVGID_64_" x="565.1" y="274.8" width="49" height="41.7"/>
										</defs>
										<clipPath id="SVGID_65_" clip-path="url(#SVGID_63_)">
											<use xlink:href="#SVGID_64_"  overflow="visible"/>
										</clipPath>
										<g>
											
												<linearGradient id="SVGID_66_" gradientUnits="userSpaceOnUse" x1="0" y1="400" x2="1" y2="400" gradientTransform="matrix(0 -41.6579 -41.6579 0 17252.8984 316.6025)">
												<stop  offset="0" style="stop-color:#231F20"/>
												<stop  offset="0.1531" style="stop-color:#464344"/>
												<stop  offset="0.742" style="stop-color:#CAC9C9"/>
												<stop  offset="1" style="stop-color:#FFFFFF"/>
											</linearGradient>
											<rect x="565.3" y="274.9" clip-path="url(#SVGID_65_)" fill="url(#SVGID_66_)" width="49" height="41.7"/>
										</g>
									</g>
								</g>
							</g>
						</g>
					</g>
				</g>
			</mask>
			<g mask="url(#SVGID_59_)">
				<g>
					<defs>
						<rect id="SVGID_67_" x="580.3" y="278.3" width="24.8" height="34.2"/>
					</defs>
					<clipPath id="SVGID_68_">
						<use xlink:href="#SVGID_67_"  overflow="visible"/>
					</clipPath>
					<path clip-path="url(#SVGID_68_)" fill="#00A0E3" d="M602.5,279C602.5,279,602.5,279,602.5,279C602.5,279,602.5,279,602.5,279
						C602.5,279,602.5,279,602.5,279c0.1,0,0.1,0,0.2-0.1c0,0,0,0,0,0c0,0,0,0,0,0c0,0,0.1,0,0.1,0c0,0,0,0,0,0
						c0.1,0,0.2-0.1,0.3-0.1c0,0,0,0,0,0c0,0,0.1,0,0.1,0c0,0,0,0,0.1,0c0,0,0.1,0,0.1,0c0,0,0,0,0,0c0.1,0,0.3-0.1,0.4-0.1
						c0,0,0,0,0.1,0c0,0,0.1,0,0.1,0c0,0,0,0,0.1,0c0,0,0.1,0,0.1,0c0,0,0,0,0,0c0.1,0,0.2,0,0.2,0c0,0,0,0,0,0c0,0,0.1,0,0.1,0
						c0,0,0,0,0.1,0c0,0,0.1,0,0.1,0c0,0,0,0,0.1,0c0.1,0,0.2,0,0.3,0c-0.2,0-0.5,0-0.8,0c-8,0-19.1,14.9-24.1,34.2c0,0,0.4,0,1,0
						c1.6-2.8,3-5.5,4.3-8.1C589,290.8,596.1,281.5,602.5,279"/>
				</g>
			</g>
			<path fill="#0082C5" d="M607,284.5c0.9-0.9,1.8-1.7,2.7-2.3c-0.2-0.5-0.4-0.9-0.7-1.3C608.3,281.8,607.7,283,607,284.5"/>
			<path fill="#0082C5" d="M607.6,279.1c0.5,0.4,1,1,1.4,1.8c0.1-0.2,0.3-0.3,0.4-0.5c-0.6-0.6-1.2-1-1.9-1.4
				C607.6,279.1,607.6,279.1,607.6,279.1C607.6,279.1,607.6,279.1,607.6,279.1"/>
			<g>
				<defs>
					<path id="SVGID_69_" d="M585.6,304.4c7.3-14.1,10.8-23,16.9-25.4l0,0C596.1,281.5,589,290.8,585.6,304.4"/>
				</defs>
				<clipPath id="SVGID_70_">
					<use xlink:href="#SVGID_69_"  overflow="visible"/>
				</clipPath>
				<g clip-path="url(#SVGID_70_)">
					
						<linearGradient id="SVGID_71_" gradientUnits="userSpaceOnUse" x1="0" y1="400" x2="1" y2="400" gradientTransform="matrix(0 -34.021 -34.021 0 14202.2588 310.5366)">
						<stop  offset="0" style="stop-color:#008FD0"/>
						<stop  offset="0.5364" style="stop-color:#009DDB"/>
						<stop  offset="1" style="stop-color:#00A4E0"/>
					</linearGradient>
					<rect x="585.4" y="202.3" fill="url(#SVGID_71_)" width="102.1" height="102.1"/>
				</g>
			</g>
			<path fill="#007DC4" d="M609.5,280.4c-0.1,0.1-0.3,0.3-0.4,0.5c0.2,0.4,0.4,0.8,0.7,1.3c0.3-0.2,0.5-0.4,0.8-0.6
				C610.2,281.1,609.8,280.8,609.5,280.4"/>
			<defs>
				<filter id="Adobe_OpacityMaskFilter_5_" filterUnits="userSpaceOnUse" x="588.3" y="292.8" width="15.8" height="19.7">
					<feFlood  style="flood-color:white;flood-opacity:1" result="back"/>
					<feBlend  in="SourceGraphic" in2="back" mode="normal"/>
				</filter>
			</defs>
			<mask maskUnits="userSpaceOnUse" x="588.3" y="292.8" width="15.8" height="19.7" id="SVGID_72_">
				<g filter="url(#Adobe_OpacityMaskFilter_5_)">
					<g>
						<g>
							<defs>
								<rect id="SVGID_73_" x="571.8" y="281.3" width="37.1" height="43.6"/>
							</defs>
							<clipPath id="SVGID_74_">
								<use xlink:href="#SVGID_73_"  overflow="visible"/>
							</clipPath>
							<g enable-background="new    ">
								<g>
									<defs>
										<rect id="SVGID_75_" x="571.8" y="281.3" width="37.1" height="43.6"/>
									</defs>
									<clipPath id="SVGID_76_" clip-path="url(#SVGID_74_)">
										<use xlink:href="#SVGID_75_"  overflow="visible"/>
									</clipPath>
									<g>
										<defs>
											<polygon id="SVGID_77_" points="571.8,315 589.6,325 608.9,291.2 591.1,281.3 											"/>
										</defs>
										<clipPath id="SVGID_78_" clip-path="url(#SVGID_76_)">
											<use xlink:href="#SVGID_77_"  overflow="visible"/>
										</clipPath>
										<g>
											
												<linearGradient id="SVGID_79_" gradientUnits="userSpaceOnUse" x1="0" y1="400" x2="1" y2="400" gradientTransform="matrix(-31.8595 56.9698 56.9698 31.8595 -22189.5977 -12454.2529)">
												<stop  offset="0" style="stop-color:#231F20"/>
												<stop  offset="2.471732e-02" style="stop-color:#4C494A"/>
												<stop  offset="5.426459e-02" style="stop-color:#767374"/>
												<stop  offset="8.626083e-02" style="stop-color:#9B9999"/>
												<stop  offset="0.1204" style="stop-color:#BAB9B9"/>
												<stop  offset="0.1572" style="stop-color:#D3D2D3"/>
												<stop  offset="0.1977" style="stop-color:#E7E6E6"/>
												<stop  offset="0.244" style="stop-color:#F5F4F4"/>
												<stop  offset="0.3009" style="stop-color:#FDFDFD"/>
												<stop  offset="0.4" style="stop-color:#FFFFFF"/>
												<stop  offset="1" style="stop-color:#FFFFFF"/>
											</linearGradient>
											<polygon clip-path="url(#SVGID_78_)" fill="url(#SVGID_79_)" points="627.7,292.1 532.1,463 361.2,367.4 456.7,196.5 
																							"/>
										</g>
									</g>
								</g>
							</g>
						</g>
					</g>
				</g>
			</mask>
			<g mask="url(#SVGID_72_)">
				<g>
					<defs>
						<rect id="SVGID_80_" x="588.3" y="292.8" width="15.7" height="19.7"/>
					</defs>
					<clipPath id="SVGID_81_">
						<use xlink:href="#SVGID_80_"  overflow="visible"/>
					</clipPath>
					<g clip-path="url(#SVGID_81_)">
						<defs>
							<path id="SVGID_82_" d="M588.9,312.4L588.9,312.4c0,0-0.1,0-0.1,0c0,0,0,0,0,0c0,0-0.1,0-0.1,0c0,0,0,0,0,0
								c-0.1,0-0.2,0-0.3,0h0c7.4-0.2,10.8-3.9,12.5-9.3c1.3-4.1,2.3-7.5,3.2-10.4c-3.1,4.4-6.2,9.6-9.4,15.4
								C593.1,311,590.8,312.2,588.9,312.4"/>
						</defs>
						<clipPath id="SVGID_83_">
							<use xlink:href="#SVGID_82_"  overflow="visible"/>
						</clipPath>
						<g clip-path="url(#SVGID_83_)">
							
								<linearGradient id="SVGID_84_" gradientUnits="userSpaceOnUse" x1="0" y1="400" x2="1" y2="400" gradientTransform="matrix(0 -33.0703 -33.0703 0 13824.3066 310.7661)">
								<stop  offset="0" style="stop-color:#00A1E4"/>
								<stop  offset="1" style="stop-color:#00A1E4"/>
							</linearGradient>
							<rect x="588.3" y="213.3" fill="url(#SVGID_84_)" width="99.2" height="99.2"/>
						</g>
					</g>
				</g>
			</g>
			<g>
				<defs>
					<path id="SVGID_85_" d="M588.9,312.4L588.9,312.4c2-0.2,4.3-1.4,5.8-4.2l0,0c3.1-5.8,6.3-11,9.3-15.4l0,0
						c1.1-3.5,2.1-6.2,3-8.3l0,0C600.8,290.4,594.6,300.1,588.9,312.4"/>
				</defs>
				<clipPath id="SVGID_86_">
					<use xlink:href="#SVGID_85_"  overflow="visible"/>
				</clipPath>
				<g clip-path="url(#SVGID_86_)">
					
						<linearGradient id="SVGID_87_" gradientUnits="userSpaceOnUse" x1="0" y1="400" x2="1" y2="400" gradientTransform="matrix(0 -27.9449 -27.9449 0 11775.7012 312.2676)">
						<stop  offset="0" style="stop-color:#005DA4"/>
						<stop  offset="0.1538" style="stop-color:#005DA4"/>
						<stop  offset="0.3179" style="stop-color:#007BC0"/>
						<stop  offset="0.5" style="stop-color:#00A1E4"/>
						<stop  offset="0.5685" style="stop-color:#05A2E4"/>
						<stop  offset="0.6508" style="stop-color:#14A6E4"/>
						<stop  offset="0.7403" style="stop-color:#2CACE4"/>
						<stop  offset="0.8343" style="stop-color:#4EB5E4"/>
						<stop  offset="0.9176" style="stop-color:#72BEE4"/>
						<stop  offset="1" style="stop-color:#72BEE4"/>
					</linearGradient>
					<rect x="588.7" y="284.3" fill="url(#SVGID_87_)" width="18.1" height="27.9"/>
				</g>
			</g>
			<path fill="#00A0E3" d="M585.6,304.4c-1.3,2.5-2.7,5.2-4.3,8.1c0.7,0,1.7,0,2.8,0C584.4,309.7,584.9,307,585.6,304.4"/>
			<g>
				<defs>
					<path id="SVGID_88_" d="M604.8,278.4C604.8,278.4,604.8,278.4,604.8,278.4L604.8,278.4c-0.1,0-0.1,0-0.2,0l0,0c0,0,0,0-0.1,0
						l0,0c0,0-0.1,0-0.1,0l0,0c0,0,0,0,0,0l0,0c-0.1,0-0.2,0-0.2,0l0,0c0,0,0,0,0,0l0,0c0,0-0.1,0-0.1,0l0,0c0,0,0,0-0.1,0l0,0
						c0,0-0.1,0-0.1,0l0,0c0,0,0,0-0.1,0l0,0c-0.1,0-0.3,0.1-0.4,0.1l0,0c0,0,0,0,0,0l0,0c0,0-0.1,0-0.1,0l0,0c0,0,0,0-0.1,0l0,0
						c0,0-0.1,0-0.1,0l0,0c0,0,0,0,0,0l0,0c-0.1,0-0.2,0.1-0.3,0.1l0,0c0,0,0,0,0,0l0,0c0,0-0.1,0-0.1,0l0,0c0,0,0,0-0.1,0l0,0
						c0,0-0.1,0-0.1,0l0,0c0,0,0,0,0,0l0,0c-6.1,2.4-9.6,11.3-16.9,25.4l0,0c-0.6,2.5-1.2,5.2-1.5,8.1l0,0h0.4c1.1,0,1.4,0,2.7,0
						l0,0h0.1h0.2h0.1h0h0.1h0h0h0.1h0.2h0.2h0.1h0c0.1,0,0.2,0,0.2,0l0,0c0.1,0,0.2,0,0.3,0l0,0c0,0,0,0,0,0l0,0c0,0,0.1,0,0.1,0
						l0,0c0,0,0,0,0,0l0,0c0,0,0.1,0,0.1,0l0,0v0c5.7-12.3,11.9-22.1,18.1-27.9l0,0c0.7-1.5,1.3-2.7,2.1-3.6l0,0
						c-0.4-0.7-0.9-1.3-1.4-1.8l0,0c0,0,0,0,0,0l0,0c0,0-0.1,0-0.1,0l0,0c0,0-0.1,0-0.1,0l0,0c0,0-0.1,0-0.1,0l0,0c0,0-0.1,0-0.1,0
						l0,0c0,0-0.1,0-0.1,0l0,0c-0.1,0-0.1,0-0.2-0.1l0,0c0,0,0,0-0.1,0l0,0c0,0-0.1,0-0.1,0l0,0c0,0,0,0-0.1,0l0,0
						c-0.1,0-0.1,0-0.2-0.1l0,0c0,0,0,0,0,0l0,0c-0.1,0-0.1,0-0.2-0.1l0,0c0,0,0,0,0,0l0,0c-0.1,0-0.1,0-0.2,0l0,0c0,0,0,0,0,0l0,0
						c-0.1,0-0.3-0.1-0.4-0.1l0,0c0,0,0,0,0,0l0,0c-0.1,0-0.1,0-0.2,0l0,0c0,0,0,0,0,0l0,0c-0.1,0-0.1,0-0.2,0l0,0c0,0,0,0,0,0l0,0
						c-0.1,0-0.1,0-0.2,0l0,0C605,278.4,604.9,278.4,604.8,278.4"/>
				</defs>
				<clipPath id="SVGID_89_">
					<use xlink:href="#SVGID_88_"  overflow="visible"/>
				</clipPath>
				<g clip-path="url(#SVGID_89_)">
					
						<linearGradient id="SVGID_90_" gradientUnits="userSpaceOnUse" x1="0" y1="400" x2="1" y2="400" gradientTransform="matrix(-5.3428 -30.3002 -30.3002 5.3428 12718.6602 -1826.4678)">
						<stop  offset="0" style="stop-color:#005496"/>
						<stop  offset="0.1044" style="stop-color:#005496"/>
						<stop  offset="1" style="stop-color:#0083C5"/>
					</linearGradient>
					<polygon fill="url(#SVGID_90_)" points="584.3,316.8 568.3,225.9 659.2,209.8 675.2,300.7 					"/>
				</g>
			</g>
			<g>
				<defs>
					<path id="SVGID_91_" d="M646.5,286.8c-1.4,4.5-2.5,8.2-3.5,11.3l0,0c3.9-5.3,7.7-12,11.3-19.7l0,0
						C650,279.7,647.7,282.7,646.5,286.8"/>
				</defs>
				<clipPath id="SVGID_92_">
					<use xlink:href="#SVGID_91_"  overflow="visible"/>
				</clipPath>
				<g clip-path="url(#SVGID_92_)">
					
						<linearGradient id="SVGID_93_" gradientUnits="userSpaceOnUse" x1="0" y1="400" x2="1" y2="400" gradientTransform="matrix(0 -15.8347 -15.8347 0 6982.3159 293.4102)">
						<stop  offset="0" style="stop-color:#00A1E4"/>
						<stop  offset="0.4655" style="stop-color:#009FE1"/>
						<stop  offset="0.7814" style="stop-color:#0098D8"/>
						<stop  offset="0.8736" style="stop-color:#0095D4"/>
						<stop  offset="1" style="stop-color:#0095D4"/>
					</linearGradient>
					<rect x="642.8" y="250.4" fill="url(#SVGID_93_)" width="47.5" height="47.5"/>
				</g>
			</g>
			<defs>
				<filter id="Adobe_OpacityMaskFilter_6_" filterUnits="userSpaceOnUse" x="636.9" y="274.4" width="32.1" height="40.3">
					<feFlood  style="flood-color:white;flood-opacity:1" result="back"/>
					<feBlend  in="SourceGraphic" in2="back" mode="normal"/>
				</filter>
			</defs>
			<mask maskUnits="userSpaceOnUse" x="636.9" y="274.4" width="32.1" height="40.3" id="SVGID_94_">
				<g filter="url(#Adobe_OpacityMaskFilter_6_)">
					<g>
						<g>
							<defs>
								<rect id="SVGID_95_" x="631.4" y="274.7" width="49" height="17.1"/>
							</defs>
							<clipPath id="SVGID_96_">
								<use xlink:href="#SVGID_95_"  overflow="visible"/>
							</clipPath>
							<g enable-background="new    ">
								<g>
									<defs>
										<rect id="SVGID_97_" x="631.4" y="274.7" width="49" height="17.1"/>
									</defs>
									<clipPath id="SVGID_98_" clip-path="url(#SVGID_96_)">
										<use xlink:href="#SVGID_97_"  overflow="visible"/>
									</clipPath>
									<g>
										<defs>
											<rect id="SVGID_99_" x="631.4" y="274.7" width="49" height="17.1"/>
										</defs>
										<clipPath id="SVGID_100_" clip-path="url(#SVGID_98_)">
											<use xlink:href="#SVGID_99_"  overflow="visible"/>
										</clipPath>
										<g>
											
												<linearGradient id="SVGID_101_" gradientUnits="userSpaceOnUse" x1="0" y1="400" x2="1" y2="400" gradientTransform="matrix(0 17.0628 17.0628 0 -6169.1982 274.709)">
												<stop  offset="0" style="stop-color:#231F20"/>
												<stop  offset="0.1531" style="stop-color:#464344"/>
												<stop  offset="0.742" style="stop-color:#CAC9C9"/>
												<stop  offset="1" style="stop-color:#FFFFFF"/>
											</linearGradient>
											<rect x="629.2" y="274.7" clip-path="url(#SVGID_100_)" fill="url(#SVGID_101_)" width="51.2" height="51.2"/>
										</g>
									</g>
								</g>
							</g>
						</g>
					</g>
				</g>
			</mask>
			<g mask="url(#SVGID_94_)">
				<g>
					<defs>
						<rect id="SVGID_102_" x="642.5" y="277.6" width="20.8" height="33.2"/>
					</defs>
					<clipPath id="SVGID_103_">
						<use xlink:href="#SVGID_102_"  overflow="visible"/>
					</clipPath>
					<g clip-path="url(#SVGID_103_)">
						<defs>
							<path id="SVGID_104_" d="M643,310.5c-0.2,0.1-0.4,0.2-0.6,0.3c7.5-3.4,16.5-16.6,20.8-33.2h-0.9
								C652.5,295.2,649.3,307,643,310.5"/>
						</defs>
						<clipPath id="SVGID_105_">
							<use xlink:href="#SVGID_104_"  overflow="visible"/>
						</clipPath>
						<g clip-path="url(#SVGID_105_)">
							
								<linearGradient id="SVGID_106_" gradientUnits="userSpaceOnUse" x1="0" y1="400" x2="1" y2="400" gradientTransform="matrix(-6.4384 36.5139 36.5139 6.4384 -13949.4502 -2298.8362)">
								<stop  offset="0" style="stop-color:#00A4E0"/>
								<stop  offset="0.3571" style="stop-color:#00A4E0"/>
								<stop  offset="0.9615" style="stop-color:#0089CF"/>
								<stop  offset="1" style="stop-color:#0089CF"/>
							</linearGradient>
							<polygon fill="url(#SVGID_106_)" points="669,278.9 649.7,388.5 540.1,369.1 559.5,259.6 							"/>
						</g>
					</g>
				</g>
			</g>
			<path fill="#009ADE" d="M638.1,309c1.6-2,3-5.4,4.8-11c-2.1,2.9-4.2,5.4-6.3,7.4c0,0,0,0,0,0C637.1,306.8,637.6,308,638.1,309"/>
			<path fill="#006CB6" d="M638.1,309c-0.6,0.7-1.1,1.2-1.8,1.6c-0.1,0.1-0.3,0.2-0.4,0.2c0.7,0.4,1.4,0.6,2.3,0.7h0h0
				c0.1,0,0.2,0,0.4,0h0c0.1,0,0.1,0,0.2,0h0c0.1,0,0.1,0,0.2,0c0.1,0,0.1,0,0.2,0c0,0,0,0,0.1,0c0,0,0.1,0,0.1,0c0,0,0,0,0.1,0
				c0,0,0.1,0,0.1,0c0,0,0,0,0,0c0,0,0,0,0.1,0c0,0,0.1,0,0.1,0c0,0,0,0,0,0c0,0,0,0,0,0c0.1,0,0.1,0,0.2,0c0,0,0,0,0,0
				c0.1,0,0.1,0,0.2,0h0c0,0,0,0,0,0c0.1,0,0.2,0,0.4-0.1C639.7,311.1,638.8,310.2,638.1,309"/>
			<path fill="#0060AE" d="M624.3,311.6c0.7,0,1.4-0.1,2.1-0.2c0.7-0.1,1.3-0.3,2-0.5c0.6,0.3,1.1,0.5,1.7,0.6
				c0.5,0.1,1,0.1,1.5,0.1H624.3z"/>
			<path fill="#0060AE" d="M631.6,311.6c1.7,0,3.1-0.2,4.3-0.8c0.7,0.4,1.4,0.6,2.3,0.7h0h0c0.1,0,0.2,0,0.4,0h0c0.1,0,0.1,0,0.2,0
				h0c0.1,0,0.1,0,0.2,0H631.6z"/>
			<path fill="#0064B0" d="M639,311.6c0.1,0,0.1,0,0.2,0c0,0,0,0,0.1,0c0,0,0.1,0,0.1,0c0,0,0,0,0.1,0c0,0,0.1,0,0.1,0c0,0,0,0,0,0
				c0,0,0,0,0.1,0c0,0,0.1,0,0.1,0c0,0,0,0,0,0c0,0,0,0,0,0c0.1,0,0.1,0,0.2,0c0,0,0,0,0,0c0.1,0,0.1,0,0.2,0h0c0,0,0,0,0,0
				c0.1,0,0.2,0,0.4-0.1h0c0.3,0.1,0.7,0.2,1.1,0.2L639,311.6z"/>
			<path fill="#0062A7" d="M636.6,305.4C636.6,305.4,636.6,305.4,636.6,305.4c-0.8,0.7-1.5,1.4-2.3,2c-0.4,0.3-0.8,0.6-1.2,0.9
				c0.3,0.4,0.7,0.8,1,1.1c0.6,0.5,1.1,1,1.8,1.3c0.1-0.1,0.3-0.2,0.4-0.2c0.7-0.4,1.2-0.9,1.8-1.6
				C637.6,308,637.1,306.8,636.6,305.4"/>
			<g>
				<defs>
					<path id="SVGID_107_" d="M659.6,277.6h-3.7c-0.1,0-0.2,0-0.4,0l0,0c-0.1,0-0.2,0-0.3,0l0,0h0c-0.2,0-0.5,0-0.7,0l0,0
						c-0.1,0.2-0.2,0.5-0.3,0.7l0,0c-3.6,7.7-7.4,14.4-11.3,19.7l0,0c-1.8,5.6-3.1,9-4.8,11l0,0c0.7,1.2,1.5,2,2.5,2.4l0,0
						c0,0,0.1,0,0.1,0l0,0c0,0,0,0,0,0l0,0c0,0,0,0,0.1,0l0,0c0,0,0.1,0,0.1,0l0,0c0,0,0,0,0.1,0l0,0c0,0,0.1,0,0.1,0l0,0
						c0,0,0,0,0.1,0l0,0c0.1,0,0.1,0,0.2,0l0,0c0,0,0.1,0,0.1,0l0,0c0,0,0.1,0,0.1,0l0,0c0,0,0.1,0,0.1,0l0,0c0,0,0.1,0,0.1,0l0,0
						c0.1,0,0.1,0,0.2-0.1l0,0c0,0,0,0,0.1,0l0,0c0,0,0.1,0,0.1,0l0,0c0,0,0,0,0,0l0,0c0.1-0.1,0.3-0.1,0.4-0.2l0,0c0,0,0,0,0,0l0,0
						c0.2-0.1,0.4-0.2,0.6-0.3l0,0c6.3-3.5,9.5-15.3,19.3-32.9l0,0H659.6z"/>
				</defs>
				<clipPath id="SVGID_108_">
					<use xlink:href="#SVGID_107_"  overflow="visible"/>
				</clipPath>
				<g clip-path="url(#SVGID_108_)">
					
						<linearGradient id="SVGID_109_" gradientUnits="userSpaceOnUse" x1="0" y1="400" x2="1" y2="400" gradientTransform="matrix(0 34.5451 34.5451 0 -13167.917 277.413)">
						<stop  offset="0" style="stop-color:#008DCF"/>
						<stop  offset="0.5" style="stop-color:#0087C8"/>
						<stop  offset="0.6298" style="stop-color:#0078B8"/>
						<stop  offset="1" style="stop-color:#00508F"/>
					</linearGradient>
					<rect x="558.6" y="277.5" fill="url(#SVGID_109_)" width="103.6" height="103.6"/>
				</g>
			</g>
			<defs>
				<filter id="Adobe_OpacityMaskFilter_7_" filterUnits="userSpaceOnUse" x="603.6" y="274.1" width="16.5" height="10.5">
					<feFlood  style="flood-color:white;flood-opacity:1" result="back"/>
					<feBlend  in="SourceGraphic" in2="back" mode="normal"/>
				</filter>
			</defs>
			<mask maskUnits="userSpaceOnUse" x="603.6" y="274.1" width="16.5" height="10.5" id="SVGID_110_">
				<g filter="url(#Adobe_OpacityMaskFilter_7_)">
					<g>
						<g>
							<defs>
								<rect id="SVGID_111_" x="596.6" y="277.1" width="20.8" height="4.8"/>
							</defs>
							<clipPath id="SVGID_112_">
								<use xlink:href="#SVGID_111_"  overflow="visible"/>
							</clipPath>
							<g enable-background="new    ">
								<g>
									<defs>
										<rect id="SVGID_113_" x="596.6" y="277.1" width="20.8" height="4.8"/>
									</defs>
									<clipPath id="SVGID_114_" clip-path="url(#SVGID_112_)">
										<use xlink:href="#SVGID_113_"  overflow="visible"/>
									</clipPath>
									<g>
										<defs>
											<rect id="SVGID_115_" x="596.6" y="277.1" width="20.8" height="4.8"/>
										</defs>
										<clipPath id="SVGID_116_" clip-path="url(#SVGID_114_)">
											<use xlink:href="#SVGID_115_"  overflow="visible"/>
										</clipPath>
										<g>
											
												<linearGradient id="SVGID_117_" gradientUnits="userSpaceOnUse" x1="0" y1="400" x2="1" y2="400" gradientTransform="matrix(0 -4.7908 -4.7908 0 2523.1462 281.707)">
												<stop  offset="0" style="stop-color:#FFFFFF"/>
												<stop  offset="0.157" style="stop-color:#F8F8F8"/>
												<stop  offset="0.3915" style="stop-color:#E3E4E5"/>
												<stop  offset="0.6745" style="stop-color:#C2C3C5"/>
												<stop  offset="0.993" style="stop-color:#949699"/>
												<stop  offset="1" style="stop-color:#939598"/>
											</linearGradient>
											<rect x="596.4" y="267.3" clip-path="url(#SVGID_116_)" fill="url(#SVGID_117_)" width="20.8" height="14.4"/>
										</g>
									</g>
								</g>
							</g>
						</g>
					</g>
				</g>
			</mask>
			<g mask="url(#SVGID_110_)">
				<g>
					<defs>
						<rect id="SVGID_118_" x="604.3" y="278.3" width="15" height="3.2"/>
					</defs>
					<clipPath id="SVGID_119_">
						<use xlink:href="#SVGID_118_"  overflow="visible"/>
					</clipPath>
					<path clip-path="url(#SVGID_119_)" fill="#6DC3E8" d="M605.1,278.4C605.1,278.4,605.1,278.4,605.1,278.4c0.1,0,0.1,0,0.2,0
						c0,0,0,0,0,0c0.1,0,0.1,0,0.2,0c0,0,0,0,0,0c0.1,0,0.1,0,0.2,0c0,0,0,0,0,0c0.1,0,0.3,0.1,0.4,0.1c0,0,0,0,0,0
						c0.1,0,0.1,0,0.2,0c0,0,0,0,0,0c0.1,0,0.1,0,0.2,0.1c0,0,0,0,0,0c0.1,0,0.1,0,0.2,0.1c0,0,0,0,0.1,0c0,0,0.1,0,0.1,0
						c0,0,0,0,0.1,0c0.1,0,0.1,0,0.2,0.1c0,0,0.1,0,0.1,0c0,0,0.1,0,0.1,0c0,0,0.1,0,0.1,0c0,0,0.1,0,0.1,0c0.7,0.3,1.3,0.8,1.9,1.4
						c0.2-0.2,0.4-0.4,0.7-0.6c-1.3-0.9-2.8-1.5-4.5-1.5C605.5,278.3,605.3,278.4,605.1,278.4"/>
					<path clip-path="url(#SVGID_119_)" fill="#37BDE9" d="M609.5,280.4c0.4,0.3,0.7,0.7,1,1.1c0.3-0.2,0.6-0.4,1-0.6
						c-0.4-0.4-0.9-0.8-1.3-1.1C609.9,280,609.7,280.2,609.5,280.4"/>
					<g clip-path="url(#SVGID_119_)">
						<defs>
							<path id="SVGID_120_" d="M605.1,278.4c0.2,0,0.4,0,0.6,0c1.7,0,3.2,0.5,4.5,1.5c1.4-1.1,3-1.5,5.3-1.5h-11.2
								C604.6,278.3,604.8,278.3,605.1,278.4"/>
						</defs>
						<clipPath id="SVGID_121_">
							<use xlink:href="#SVGID_120_"  overflow="visible"/>
						</clipPath>
						<g clip-path="url(#SVGID_121_)">
							
								<linearGradient id="SVGID_122_" gradientUnits="userSpaceOnUse" x1="0" y1="400" x2="1" y2="400" gradientTransform="matrix(7.9572 3.3004 3.3004 -7.9572 -714.1655 3459.4629)">
								<stop  offset="0" style="stop-color:#8CCFEC"/>
								<stop  offset="0.1109" style="stop-color:#84CDEC"/>
								<stop  offset="0.2842" style="stop-color:#6EC9EB"/>
								<stop  offset="0.4971" style="stop-color:#4AC2EA"/>
								<stop  offset="0.7033" style="stop-color:#20BAE8"/>
								<stop  offset="1" style="stop-color:#20BAE8"/>
							</linearGradient>
							<polygon fill="url(#SVGID_122_)" points="605.8,274.2 615.8,278.3 613.7,283.5 603.6,279.4 							"/>
						</g>
					</g>
					<g clip-path="url(#SVGID_119_)">
						<defs>
							<path id="SVGID_123_" d="M615.5,278.3c-2.3,0-4,0.4-5.3,1.5c0.5,0.3,0.9,0.7,1.3,1.1c1.9-1.2,3.8-2,5.7-2.4
								c0.7-0.1,1.4-0.2,2.1-0.2H615.5z"/>
						</defs>
						<clipPath id="SVGID_124_">
							<use xlink:href="#SVGID_123_"  overflow="visible"/>
						</clipPath>
						<g clip-path="url(#SVGID_124_)">
							
								<linearGradient id="SVGID_125_" gradientUnits="userSpaceOnUse" x1="0" y1="400" x2="1" y2="400" gradientTransform="matrix(6.2846 -2.849 -2.849 -6.2846 1750.2585 2794.9326)">
								<stop  offset="0" style="stop-color:#68C5EA"/>
								<stop  offset="0.3352" style="stop-color:#68C5EA"/>
								<stop  offset="0.3582" style="stop-color:#64C4EA"/>
								<stop  offset="0.6557" style="stop-color:#2EBAEA"/>
								<stop  offset="0.8785" style="stop-color:#0DB4EA"/>
								<stop  offset="1" style="stop-color:#00B2EA"/>
							</linearGradient>
							<polygon fill="url(#SVGID_125_)" points="609.1,279.1 627.9,270.6 636.5,289.4 617.6,298 							"/>
						</g>
					</g>
				</g>
			</g>
			<defs>
				<filter id="Adobe_OpacityMaskFilter_8_" filterUnits="userSpaceOnUse" x="636.4" y="277.5" width="18.1" height="28">
					<feFlood  style="flood-color:white;flood-opacity:1" result="back"/>
					<feBlend  in="SourceGraphic" in2="back" mode="normal"/>
				</filter>
			</defs>
			<mask maskUnits="userSpaceOnUse" x="636.4" y="277.5" width="18.1" height="28" id="SVGID_126_">
				<g filter="url(#Adobe_OpacityMaskFilter_8_)">
					<g>
						<g>
							<defs>
								<rect id="SVGID_127_" x="620.2" y="280.3" width="49" height="26.9"/>
							</defs>
							<clipPath id="SVGID_128_">
								<use xlink:href="#SVGID_127_"  overflow="visible"/>
							</clipPath>
							<g enable-background="new    ">
								<g>
									<defs>
										<rect id="SVGID_129_" x="620.2" y="280.3" width="49" height="26.9"/>
									</defs>
									<clipPath id="SVGID_130_" clip-path="url(#SVGID_128_)">
										<use xlink:href="#SVGID_129_"  overflow="visible"/>
									</clipPath>
									<g>
										<defs>
											<rect id="SVGID_131_" x="620.2" y="280.3" width="49" height="26.9"/>
										</defs>
										<clipPath id="SVGID_132_" clip-path="url(#SVGID_130_)">
											<use xlink:href="#SVGID_131_"  overflow="visible"/>
										</clipPath>
										<g>
											
												<linearGradient id="SVGID_133_" gradientUnits="userSpaceOnUse" x1="0" y1="400" x2="1" y2="400" gradientTransform="matrix(0 -26.8701 -26.8701 0 11392.6768 307.1787)">
												<stop  offset="0" style="stop-color:#231F20"/>
												<stop  offset="0.1531" style="stop-color:#464344"/>
												<stop  offset="0.742" style="stop-color:#CAC9C9"/>
												<stop  offset="1" style="stop-color:#FFFFFF"/>
											</linearGradient>
											<rect x="620.2" y="226.6" clip-path="url(#SVGID_132_)" fill="url(#SVGID_133_)" width="80.6" height="80.6"/>
										</g>
									</g>
								</g>
							</g>
						</g>
					</g>
				</g>
			</mask>
			<g mask="url(#SVGID_126_)">
				<g>
					<defs>
						<rect id="SVGID_134_" x="636.6" y="277.6" width="17.9" height="27.8"/>
					</defs>
					<clipPath id="SVGID_135_">
						<use xlink:href="#SVGID_134_"  overflow="visible"/>
					</clipPath>
					<g clip-path="url(#SVGID_135_)">
						<defs>
							<path id="SVGID_136_" d="M642.9,298.1c1-3.1,2.1-6.8,3.5-11.3c1.3-4.1,3.5-7.1,7.7-8.4c0.1-0.2,0.2-0.5,0.3-0.7
								c-6.9,0.4-10.1,3.9-11.7,9.1c-2.8,9.1-4.6,14.9-6.2,18.7C638.7,303.4,640.8,300.9,642.9,298.1"/>
						</defs>
						<clipPath id="SVGID_137_">
							<use xlink:href="#SVGID_136_"  overflow="visible"/>
						</clipPath>
						<g clip-path="url(#SVGID_137_)">
							
								<linearGradient id="SVGID_138_" gradientUnits="userSpaceOnUse" x1="0" y1="400" x2="1" y2="400" gradientTransform="matrix(0 33.7885 33.7885 0 -12870.0518 279.2355)">
								<stop  offset="0" style="stop-color:#00A5E5"/>
								<stop  offset="1" style="stop-color:#00A8E3"/>
							</linearGradient>
							<rect x="553" y="277.5" fill="url(#SVGID_138_)" width="101.4" height="101.4"/>
						</g>
					</g>
				</g>
			</g>
		</g>
		<path fill="#231F20" d="M651.9,311.6h0.3v-2.4h0.8v-0.3h-1.9v0.3h0.8V311.6z M655.8,308.9l-0.8,1.9c0,0.1-0.1,0.2-0.1,0.3h0
			c0-0.1-0.1-0.2-0.1-0.3l-0.8-1.9h-0.4v2.7h0.3v-1.8c0-0.2,0-0.4,0-0.5h0c0,0.1,0.1,0.2,0.1,0.3l0.9,2.1h0.2l0.9-2.1
			c0-0.1,0.1-0.1,0.1-0.3h0c0,0.2,0,0.4,0,0.5v1.8h0.3v-2.7H655.8z"/>
	</g>
</g>
</svg>
