<?xml version="1.0" encoding="utf-8"?>
<!-- Generator: Adobe Illustrator 22.1.0, SVG Export Plug-In . SVG Version: 6.00 Build 0)  -->
<svg version="1.1" id="Layer_gdvxcv1" xmlns="http://www.w3.org/2000/svg" xmlns:xlink="http://www.w3.org/1999/xlink" x="0px" y="0px"
	 viewBox="0 0 750 400" enable-background="new 0 0 750 400" xml:space="preserve">
<path fill="#83C4EC" d="M77.1,169h-2.8c-0.3,0-0.6,0.1-0.8,0.3c-0.2,0.1-0.3,0.3-0.3,0.7c0,0.3,0.1,0.6,0.3,0.8
	c0.2,0.2,0.4,0.3,0.8,0.3h2.8v2.9c0,0.2,0.1,0.4,0.3,0.7c0.2,0.2,0.6,0.3,0.8,0.3c0.3,0,0.6-0.1,0.8-0.3c0.2-0.1,0.3-0.3,0.3-0.7
	v-2.9h2.8c0.2,0,0.4-0.1,0.7-0.3c0.2-0.2,0.3-0.4,0.3-0.8c0-0.2-0.1-0.4-0.3-0.7c-0.1-0.2-0.3-0.3-0.7-0.3h-2.8v-2.9
	c0-0.3-0.1-0.6-0.3-0.8c-0.2-0.2-0.4-0.3-0.8-0.3s-0.6,0.1-0.8,0.3c-0.2,0.2-0.3,0.4-0.3,0.8V169"/>
<path fill="#83C4EC" d="M662.9,307c0-0.8-0.3-1.1-1.1-1.1h-2.9V303c0-0.2-0.1-0.4-0.3-0.7c-0.2-0.2-0.4-0.3-0.8-0.3
	s-0.6,0.1-0.8,0.3c-0.2,0.1-0.3,0.3-0.3,0.7v2.9h-2.9c-0.2,0-0.4,0.1-0.7,0.3c-0.2,0.2-0.3,0.6-0.3,0.8s0.1,0.4,0.3,0.7
	c0.2,0.2,0.4,0.3,0.7,0.3h2.9v2.9c0,0.3,0.1,0.6,0.3,0.8c0.2,0.2,0.4,0.3,0.8,0.3s0.6-0.1,0.8-0.3s0.3-0.4,0.3-0.8V308h2.9
	c0.3,0,0.6-0.1,0.8-0.3C662.8,307.6,662.9,307.4,662.9,307"/>
<path fill="#83C4EC" d="M665,120.7c0.2-0.2,0.2-0.4,0.2-0.9c0-0.7-0.3-1-1-1h-2.9v-2.9c0-0.2-0.1-0.4-0.3-0.7
	c-0.2-0.2-0.4-0.3-0.8-0.3s-0.6,0.1-0.8,0.3c-0.2,0.1-0.3,0.3-0.3,0.7v2.9h-2.9c-0.3,0.1-0.6,0.1-0.8,0.3c-0.2,0.2-0.3,0.4-0.3,0.8
	c0,0.3,0.1,0.6,0.3,0.8c0.3,0.2,0.6,0.3,0.8,0.3h2.9v2.9c0,0.3,0.1,0.6,0.3,0.8c0.2,0.2,0.4,0.3,0.8,0.3c0.3-0.1,0.6-0.1,0.8-0.3
	c0.2-0.2,0.3-0.4,0.3-0.8V121h2.9C664.6,121,664.8,120.9,665,120.7"/>
<path fill="#83C4EC" d="M81.1,360c0,0.2,0.1,0.6,0.2,0.8c0.2,0.2,0.4,0.3,0.8,0.3H85v2.9c0,0.2,0.1,0.4,0.3,0.7
	c0.2,0.2,0.4,0.3,0.8,0.3c0.3,0,0.6-0.1,0.8-0.3c0.2-0.1,0.3-0.3,0.3-0.7v-2.9H90c0.3,0,0.6-0.1,0.8-0.3c0.2-0.2,0.3-0.6,0.3-0.8
	c0-0.2-0.1-0.4-0.3-0.7c-0.2-0.2-0.4-0.3-0.8-0.3h-2.8v-2.8c0-0.8-0.4-1.1-1.1-1.1c-0.7,0-1,0.4-1,1.1v2.8h-2.9
	c-0.3,0-0.6,0.1-0.8,0.3C81.2,359.4,81.1,359.7,81.1,360"/>
<path fill="#83C4EC" d="M182.9,35.1v2.8H180c-0.7,0-1,0.4-1,1.1c0,0.3,0.1,0.6,0.3,0.8c0.2,0.2,0.4,0.3,0.8,0.3h2.9v2.8
	c0,0.3,0.1,0.6,0.3,0.8c0.1,0.2,0.3,0.3,0.7,0.3c0.8,0,1.1-0.4,1.1-1.1v-2.7h2.9c0.2,0,0.4-0.1,0.7-0.3c0.2-0.2,0.3-0.4,0.3-0.8
	c0-0.3-0.1-0.6-0.3-0.8c-0.1-0.2-0.3-0.3-0.7-0.3h-2.9v-2.9c0-0.3-0.1-0.6-0.3-0.8c-0.2-0.2-0.4-0.3-0.8-0.3c-0.2,0-0.4,0.1-0.7,0.3
	c-0.2,0.2-0.3,0.6-0.3,0.8H182.9z"/>
<path fill="#BFBFBF" d="M624.2,62.4l3.3-5.8l-3.3-5.8h-6.7l-3.4,5.8l3.4,5.8H624.2 M616.1,56.6l2.4-4.2h4.8l2.4,4.2l-2.4,4.2h-4.8
	L616.1,56.6 M343.1,357l-3.3,5.8l3.3,5.8h6.7l3.3-5.8l-3.3-5.8H343.1 M351.4,362.8L349,367h-4.9l-2.4-4.2l2.4-4.2h4.9L351.4,362.8z"
	/>
<path fill="#3D3D3D" fill-opacity="0.1686" d="M616.7,331.7c-3,0-6,0.6-9,1.8c-1-4.1-3.3-7.4-6.5-10.1s-7.2-4-11.5-4
	c-3.4,0-6.7,0.9-9.7,2.7c-2.8,1.7-5.1,4-6.7,7c-4-5-8.7-8.8-14.4-11.5c-5.8-2.8-12.1-4.3-18.6-4.3c-11.4,0-21.2,4-29.4,12.1
	c-8.2,8-12.5,17.8-12.8,29.1H703c-0.1-3.7-1.7-6.8-4.4-9.4c-2.8-2.7-6.1-4-9.8-4c-4.1,0-7.5,1.4-10.4,4.4
	c-2.3-5.5-5.8-9.9-10.8-13.4c-5-3.6-10.7-5.3-16.8-5.3c-4,0-7.8,0.7-11.5,2.3s-6.8,3.7-9.5,6.4C625.8,333,621.6,331.7,616.7,331.7"
	/>
<path fill="#3D3D3D" fill-opacity="0.1686" d="M64.3,258.9c-6.3,0-11.8,2.3-16.1,6.6c-4.6,4.4-7,9.9-7.1,16.3H155
	c-0.1-2-1.1-3.8-2.6-5.2c-1.5-1.5-3.2-2.1-5.4-2.1c-2.3,0-4.2,0.8-5.8,2.6c-1.3-3.1-3.2-5.6-6-7.5c-2.8-1.9-5.9-2.8-9.4-2.8
	c-4.6,0-8.5,1.6-11.7,4.8c-2.3-1.5-4.7-2.1-7.3-2.1c-1.7,0-3.4,0.3-5,0.9c-0.5-2.3-1.7-4.2-3.6-5.6c-2-1.5-4-2.1-6.4-2.1
	c-1.9,0-3.8,0.4-5.4,1.5c-1.6,0.9-2.8,2.3-3.8,3.9c-2.3-2.8-5-5-8.1-6.4C71.4,259.7,68,258.9,64.3,258.9"/>
<path fill="#3D3D3D" fill-opacity="0.1686" d="M643.3,155.3c-4.3,0-8.1,1.6-11,4.5c-3.1,3-4.8,6.8-4.9,11.1h77.9
	c-0.1-1.4-0.7-2.6-1.7-3.6c-1-1-2.2-1.5-3.7-1.5c-1.6,0-2.8,0.6-4,1.7c-0.9-2.1-2.2-3.9-4.1-5.1c-1.9-1.3-4-1.9-6.4-1.9
	c-3.1,0-5.8,1.1-8,3.3c-1.6-1-3.2-1.5-5-1.5c-1.2,0-2.3,0.2-3.4,0.6c-0.4-1.6-1.2-2.8-2.5-3.9c-1.4-1-2.8-1.5-4.4-1.5
	c-1.3,0-2.6,0.3-3.7,1c-1.1,0.6-1.9,1.6-2.6,2.7c-1.6-1.9-3.4-3.4-5.5-4.4C648.1,155.8,645.8,155.3,643.3,155.3"/>
<path fill="#3D3D3D" fill-opacity="0.1686" d="M262.2,64.5c-1.4-1.6-3-2.8-4.8-3.7c-1.9-0.9-3.9-1.3-5.9-1.3c-3.9,0-7.2,1.3-10,4.2
	c-2.8,2.8-4.2,6.3-4.6,10.4h208.7c-0.3-12.7-4.7-23.4-13-32.3c-8.3-8.9-18.3-13.3-30-13.3c-6.7,0-13,1.6-19,4.8
	C377.9,36.4,373,40.6,369,46c-1.6-3.2-3.9-5.8-6.8-7.8c-3.1-2-6.3-3-9.9-3c-4.4,0-8.3,1.4-11.8,4.4c-3.3,2.9-5.6,6.7-6.6,11.2
	c-3-1.3-6-2-9.1-2c-4.8,0-9.1,1.4-13.2,4.3c-2.8-3-6-5.3-9.6-7c-3.8-1.7-7.7-2.6-11.8-2.6c-6.3,0-12.1,2-17.2,5.9
	C268.1,53.4,264.4,58.2,262.2,64.5z"/>
<path fill="#F7571A" d="M678.7,279.5c0-0.6-0.2-1-0.7-1.6c-0.4-0.3-1-0.6-1.6-0.6s-1,0.1-1.4,0.6c-0.3,0.4-0.6,1-0.6,1.6
	c0,0.7,0.1,1.1,0.6,1.6c0.3,0.4,0.9,0.7,1.4,0.7c0.7,0,1.1-0.2,1.6-0.7C678.5,280.6,678.7,280,678.7,279.5"/>
<path fill="#F7571A" d="M314,385c0-0.6-0.2-1-0.7-1.6c-0.4-0.3-1-0.6-1.6-0.6s-1,0.1-1.4,0.6c-0.3,0.4-0.6,1-0.6,1.6
	c0,0.7,0.1,1.1,0.6,1.6c0.3,0.4,0.9,0.7,1.4,0.7c0.7,0,1.1-0.2,1.6-0.7C313.8,386.1,314,385.6,314,385"/>
<path fill="#F7571A" d="M108.4,176.8c-0.7,0-1.1,0.2-1.6,0.7c-0.3,0.4-0.6,1-0.6,1.6c0,0.6,0.1,1.1,0.6,1.6c0.4,0.4,1,0.7,1.6,0.7
	c0.6,0,1-0.2,1.4-0.7c0.4-0.4,0.7-0.9,0.7-1.6c0-0.7-0.2-1.1-0.7-1.6C109.4,177,109,176.8,108.4,176.8z"/>
<path fill="#BAD727" d="M244.7,365.4c0-0.6-0.2-1.1-0.7-1.4c-0.3-0.4-0.9-0.7-1.4-0.7c-0.7,0-1.1,0.3-1.6,0.7s-0.7,0.9-0.7,1.4
	c0,0.7,0.2,1.1,0.7,1.6c0.4,0.4,1,0.7,1.6,0.7s1-0.2,1.4-0.7C244.4,366.6,244.7,366,244.7,365.4"/>
<path fill="#BAD727" d="M648.4,203.2c-0.3-0.3-0.9-0.6-1.4-0.6s-1,0.1-1.4,0.6c-0.4,0.4-0.7,1-0.7,1.6s0.2,1.1,0.7,1.6
	c0.3,0.4,0.9,0.7,1.4,0.7s1-0.2,1.4-0.7c0.4-0.4,0.7-1,0.7-1.6S648.9,203.7,648.4,203.2z"/>
<path fill="#BAD727" d="M317,30c-0.3-0.3-0.9-0.6-1.4-0.6s-1,0.1-1.4,0.6c-0.4,0.4-0.7,1-0.7,1.6s0.2,1.1,0.7,1.6
	c0.3,0.4,0.9,0.7,1.4,0.7s1-0.2,1.4-0.7c0.4-0.4,0.7-1,0.7-1.6S317.4,30.4,317,30z"/>
<path fill="#DEDEDE" d="M717,198.1c0-1.2-0.4-2.2-1.2-3.1c-0.8-0.8-1.8-1.2-3-1.2c-1.2,0-2.2,0.4-3,1.2c-0.8,0.9-1.2,1.9-1.2,3.1
	c0,1.2,0.4,2.2,1.2,3c0.9,0.8,1.9,1.2,3,1.2s2.1-0.4,3-1.2C716.6,200.4,717,199.4,717,198.1"/>
<path fill="#DEDEDE" d="M63.4,60c0-1.2-0.4-2.2-1.2-3.1c-0.8-0.8-1.8-1.2-3-1.2s-2.2,0.4-3,1.2C55.4,57.8,55,58.8,55,60
	c0,1.2,0.4,2.2,1.2,3c0.9,0.8,1.9,1.2,3,1.2c1.1,0,2.1-0.4,3-1.2C63,62.2,63.4,61.2,63.4,60"/>
<path fill="#DEDEDE" d="M42.3,237.9c-0.4-0.4-0.9-0.7-1.6-0.7c-0.6,0-1,0.2-1.4,0.7c-0.4,0.4-0.7,1-0.7,1.6s0.2,1,0.7,1.4
	c0.3,0.4,0.9,0.7,1.4,0.7s1.1-0.2,1.6-0.7c0.3-0.3,0.6-0.9,0.6-1.4S42.6,238.4,42.3,237.9z"/>
<path fill="#DEDEDE" d="M460.6,53.7c-0.4-0.4-0.9-0.7-1.6-0.7c-0.6,0-1,0.2-1.4,0.7c-0.4,0.4-0.7,1-0.7,1.6s0.2,1,0.7,1.4
	c0.3,0.4,0.9,0.7,1.4,0.7s1.1-0.2,1.6-0.7c0.3-0.3,0.6-0.9,0.6-1.4S460.9,54.1,460.6,53.7z"/>
<path fill="#D1D1D1" d="M518.8,27c0,1.2,0.3,2.2,1.2,3.1c0.8,0.8,1.8,1.2,3,1.2c1.2,0,2.2-0.4,3.1-1.2c0.8-0.9,1.2-1.9,1.2-3.1
	c0-1.2-0.4-2.2-1.2-3c-0.9-0.8-1.9-1.2-3.1-1.2c-1.2,0-2.2,0.4-3,1.2C519.2,24.9,518.8,25.9,518.8,27z"/>
<path id="Layer4_0_1_STROKES_1_" fill="none" stroke="#BFBFBF" stroke-width="2" stroke-miterlimit="10" d="M103.5,108.1
	c-0.7-0.8-1.6-1.1-2.6-1.1c-1,0-1.9,0.4-2.6,1.1c-0.8,0.8-1.1,1.6-1.1,2.6c0,1,0.4,1.9,1.1,2.6c0.8,0.8,1.6,1.1,2.6,1.1
	c1,0,1.9-0.4,2.6-1.1c0.8-0.7,1.1-1.6,1.1-2.6C104.6,109.6,104.3,108.9,103.5,108.1z M76.1,303.9c-0.8-0.7-1.6-1-2.6-1
	c-0.3,0-0.6,0-0.9,0.1c-0.7,0.2-1.2,0.6-1.7,1c-0.8,0.8-1.1,1.6-1.1,2.6c0,1,0.4,1.9,1.1,2.6c0.7,0.7,1.6,1,2.6,1c1,0,1.9-0.3,2.6-1
	c0.4-0.4,0.8-1,0.9-1.6c0.1-0.3,0.2-0.8,0.2-1.1C77.2,305.5,76.7,304.7,76.1,303.9z M436.9,373.4c-0.8-0.7-1.6-1-2.6-1
	c-1,0-1.9,0.3-2.6,1c-0.8,0.7-1.1,1.6-1.1,2.6s0.4,1.8,1.1,2.6c0.7,0.8,1.6,1.1,2.6,1.1c1,0,1.8-0.4,2.6-1.1
	c0.8-0.7,1.1-1.6,1.1-2.6C438,375,437.7,374.1,436.9,373.4z"/>
<path fill="#FEFEFE" d="M601,342.1H147c-3.7,0-6.7-3-6.7-6.7v-225h467.5v225C607.8,339.1,604.8,342.1,601,342.1z"/>
<path fill="#E6E6E6" d="M213.7,126.4h-73.6v207.3c0,4.7,2.8,8.5,6.3,8.5h67.3V126.4z"/>
<path fill="#E6E6E6" d="M476.7,342h124.7c3.3,0,6-2.7,6-6V126.3H476.7V342z"/>
<path fill="#595959" d="M140.3,333.4V77.9c0-4.8,3.9-8.7,8.7-8.7h-7.1c-4.8,0-8.7,3.9-8.7,8.7v255.5c0,4.8,3.9,8.7,8.7,8.7h7.1
	C144.2,342.1,140.3,338.2,140.3,333.4z"/>
<polyline fill="#1776BF" points="608,90.5 607.7,90.5 140.8,90.5 140.8,110.1 607.9,110.1 607.9,90.5 "/>
<path fill="#CACACA" d="M149.6,68.9c-5.2,0-9.3,4.2-9.3,9.3v12.4h467.6V78.2c0-5.1-4.1-9.2-9.2-9.2H149.6z"/>
<polyline fill="#1776BF" points="579.3,100.2 601.8,100.2 579.3,100.2 "/>
<polyline fill="#1776BF" points="538.7,100.2 571.4,100.2 538.7,100.2 "/>
<path fill="#1776BF" d="M447.8,100.2H530H447.8z"/>
<line fill="none" stroke="#000000" stroke-miterlimit="10" x1="608" y1="90.9" x2="608" y2="90.9"/>
<line fill="none" stroke="#000000" stroke-miterlimit="10" x1="140.4" y1="90.9" x2="607.7" y2="90.9"/>
<line fill="none" stroke="#000000" stroke-miterlimit="10" x1="563.5" y1="90.9" x2="563.5" y2="90.9"/>
<path fill="none" stroke="#000000" stroke-miterlimit="10" d="M563.5,90.9"/>
<polyline fill="none" stroke="#000000" stroke-miterlimit="10" points="140.2,90.9 140.6,90.9 140.6,90.9 "/>
<line fill="none" stroke="#000000" stroke-miterlimit="10" x1="140.8" y1="110.4" x2="607.9" y2="110.4"/>
<line fill="none" stroke="#A3A3A3" stroke-miterlimit="10" x1="140.8" y1="126.3" x2="607.9" y2="126.3"/>
<path id="Layer3_0_2_STROKES_3_" fill="none" stroke="#FFFFFF" stroke-miterlimit="10" d="M536.1,100.2h32.8 M576.7,100.2h22.5
	 M149.5,100.2h43.8 M260.9,100.2h14.2 M283.8,100.2H298 M306.4,100.2h14.2 M329.2,100.2h14.2 M352.1,100.2h14.2"/>
<line fill="none" stroke="#000000" stroke-miterlimit="10" x1="552.9" y1="118.6" x2="579.7" y2="118.6"/>
<line fill="none" stroke="#000000" stroke-miterlimit="10" x1="587.6" y1="118.6" x2="598.7" y2="118.6"/>
<line fill="none" stroke="#000000" stroke-miterlimit="10" x1="161.5" y1="118.6" x2="175.7" y2="118.6"/>
<line fill="none" stroke="#1776BF" stroke-miterlimit="10" x1="184.3" y1="118.6" x2="198.6" y2="118.6"/>
<line fill="none" stroke="#000000" stroke-miterlimit="10" x1="206.9" y1="118.6" x2="221.1" y2="118.6"/>
<line fill="none" stroke="#000000" stroke-miterlimit="10" x1="229.7" y1="118.6" x2="260" y2="118.6"/>
<line fill="none" stroke="#000000" stroke-miterlimit="10" x1="268.6" y1="118.6" x2="282.8" y2="118.6"/>
<g>
	<rect x="488.6" y="158.3" fill="#FFFFFF" width="102.4" height="54.7"/>
	<rect x="488.6" y="216.7" fill="#FFFFFF" width="102.4" height="54.7"/>
	<rect x="488.6" y="275" fill="#FFFFFF" width="102.4" height="54.7"/>
</g>
<rect x="489.7" y="149.8" fill="none" stroke="#000000" stroke-miterlimit="10" width="40.7" height="4.1"/>
<line fill="none" stroke="#000000" stroke-miterlimit="10" x1="494.4" y1="223.8" x2="523" y2="223.8"/>
<g>
	<line fill="none" stroke="#000000" stroke-miterlimit="10" x1="494.4" y1="163.8" x2="512.7" y2="163.8"/>
	<line fill="none" stroke="#000000" stroke-miterlimit="10" x1="529.3" y1="163.8" x2="543.3" y2="163.8"/>
	<line fill="none" stroke="#000000" stroke-miterlimit="10" x1="565.6" y1="163.8" x2="578.3" y2="163.8"/>
</g>
<g>
	<line fill="none" stroke="#000000" stroke-miterlimit="10" x1="494.4" y1="168.5" x2="499.9" y2="168.5"/>
	<line fill="none" stroke="#000000" stroke-miterlimit="10" x1="529.3" y1="168.5" x2="545.8" y2="168.5"/>
	<line fill="none" stroke="#000000" stroke-miterlimit="10" x1="565.6" y1="168.5" x2="574.3" y2="168.5"/>
</g>
<g>
	<line fill="none" stroke="#000000" stroke-miterlimit="10" x1="494.4" y1="173.1" x2="499.9" y2="173.1"/>
	<line fill="none" stroke="#000000" stroke-miterlimit="10" x1="529.3" y1="173.1" x2="542.6" y2="173.1"/>
	<line fill="none" stroke="#000000" stroke-miterlimit="10" x1="565.6" y1="173.1" x2="574.3" y2="173.1"/>
</g>
<g>
	<line fill="none" stroke="#000000" stroke-miterlimit="10" x1="494.4" y1="177.8" x2="499.9" y2="177.8"/>
	<line fill="none" stroke="#000000" stroke-miterlimit="10" x1="529.3" y1="177.8" x2="547.6" y2="177.8"/>
	<line fill="none" stroke="#000000" stroke-miterlimit="10" x1="565.6" y1="177.8" x2="574.3" y2="177.8"/>
</g>
<g>
	<line fill="none" stroke="#000000" stroke-miterlimit="10" x1="494.4" y1="182.5" x2="499.9" y2="182.5"/>
	<line fill="none" stroke="#000000" stroke-miterlimit="10" x1="529.3" y1="182.5" x2="540.6" y2="182.5"/>
	<line fill="none" stroke="#000000" stroke-miterlimit="10" x1="565.6" y1="182.5" x2="574.3" y2="182.5"/>
</g>
<g>
	<line fill="none" stroke="#000000" stroke-miterlimit="10" x1="494.4" y1="187.1" x2="499.9" y2="187.1"/>
	<line fill="none" stroke="#000000" stroke-miterlimit="10" x1="529.3" y1="187.1" x2="538.3" y2="187.1"/>
	<line fill="none" stroke="#000000" stroke-miterlimit="10" x1="565.6" y1="187.1" x2="574.3" y2="187.1"/>
</g>
<g>
	<line fill="none" stroke="#000000" stroke-miterlimit="10" x1="494.4" y1="191.8" x2="499.9" y2="191.8"/>
	<line fill="none" stroke="#000000" stroke-miterlimit="10" x1="529.3" y1="191.8" x2="544.9" y2="191.8"/>
	<line fill="none" stroke="#000000" stroke-miterlimit="10" x1="565.6" y1="191.8" x2="574.3" y2="191.8"/>
</g>
<g>
	<line fill="none" stroke="#000000" stroke-miterlimit="10" x1="494.4" y1="196.5" x2="499.9" y2="196.5"/>
	<line fill="none" stroke="#000000" stroke-miterlimit="10" x1="529.3" y1="196.5" x2="547.6" y2="196.5"/>
	<line fill="none" stroke="#000000" stroke-miterlimit="10" x1="565.6" y1="196.5" x2="574.3" y2="196.5"/>
</g>
<g>
	<line fill="none" stroke="#000000" stroke-miterlimit="10" x1="494.4" y1="201.2" x2="499.9" y2="201.2"/>
	<line fill="none" stroke="#000000" stroke-miterlimit="10" x1="529.3" y1="201.2" x2="543.3" y2="201.2"/>
	<line fill="none" stroke="#000000" stroke-miterlimit="10" x1="565.6" y1="201.2" x2="574.3" y2="201.2"/>
</g>
<g>
	<line fill="none" stroke="#000000" stroke-miterlimit="10" x1="494.4" y1="205.8" x2="499.9" y2="205.8"/>
	<line fill="none" stroke="#000000" stroke-miterlimit="10" x1="529.3" y1="205.8" x2="538.8" y2="205.8"/>
	<line fill="none" stroke="#000000" stroke-miterlimit="10" x1="565.6" y1="205.8" x2="574.3" y2="205.8"/>
</g>
<line fill="none" stroke="#000000" stroke-miterlimit="10" x1="494.4" y1="281.1" x2="546.9" y2="281.1"/>
<g>
	<path fill="none" stroke="#FF4200" stroke-miterlimit="10" d="M543,229.6c-3.3,3.6-5.4,8.4-5.4,13.8c0,3.2,0.8,6.2,2.1,8.9"/>
	<path fill="none" stroke="#FF4200" stroke-miterlimit="10" d="M547.4,248.5c-0.8-1.6-1.2-3.3-1.2-5.1c0-3.1,1.2-5.9,3.1-7.9"/>
	<path fill="none" stroke="#BAD80A" stroke-miterlimit="10" d="M565.9,252c-2.1,1.9-4.9,3.1-7.9,3.1c-4.6,0-8.6-2.7-10.6-6.6"/>
	<path fill="none" stroke="#BAD80A" stroke-miterlimit="10" d="M539.7,252.3c3.3,6.8,10.2,11.4,18.3,11.4c5.3,0,10.1-2,13.7-5.3"/>
	<path fill="none" stroke="#1776BF" stroke-miterlimit="10" d="M571.7,258.4c4.1-3.7,6.6-9.1,6.6-15c0-11.2-9.1-20.3-20.3-20.3
		c-5.9,0-11.2,2.5-15,6.6"/>
	<path fill="none" stroke="#1776BF" stroke-miterlimit="10" d="M549.4,235.4c2.1-2.3,5.2-3.8,8.6-3.8c6.5,0,11.8,5.3,11.8,11.8
		c0,3.4-1.5,6.5-3.8,8.7"/>
</g>
<polyline fill="none" stroke="#A3A3A3" stroke-miterlimit="10" points="511,234.3 532.7,234.3 542.2,243.8 "/>
<line fill="none" stroke="#A3A3A3" stroke-miterlimit="10" x1="511.2" y1="259.4" x2="555.5" y2="259.4"/>
<line fill="none" stroke="#A3A3A3" stroke-miterlimit="10" x1="586.5" y1="232.1" x2="570.2" y2="232.1"/>
<line fill="none" stroke="#000000" stroke-miterlimit="10" x1="489.2" y1="145.5" x2="517.8" y2="145.5"/>
<rect x="547" y="149.8" fill="none" stroke="#000000" stroke-miterlimit="10" width="40.7" height="4.1"/>
<line fill="none" stroke="#000000" stroke-miterlimit="10" x1="546.5" y1="145.5" x2="575.1" y2="145.5"/>
<rect x="502.7" y="305" fill="none" stroke="#1776BF" stroke-miterlimit="10" width="7.1" height="11.9"/>
<rect x="513.9" y="301.4" fill="none" stroke="#FF4200" stroke-miterlimit="10" width="7.1" height="15.5"/>
<rect x="525" y="293.3" fill="none" stroke="#BAD80A" stroke-miterlimit="10" width="7.1" height="23.6"/>
<rect x="536.1" y="298.1" fill="none" stroke="#0899CC" stroke-linejoin="round" stroke-miterlimit="10" width="7.1" height="18.7"/>
<rect x="547.2" y="303.2" fill="none" stroke="#1776BF" stroke-miterlimit="10" width="7.1" height="13.6"/>
<rect x="558.3" y="296" fill="none" stroke="#7BCAEF" stroke-miterlimit="10" width="7.1" height="20.8"/>
<rect x="569.4" y="288.8" fill="none" stroke="#354E5F" stroke-miterlimit="10" width="7.1" height="28"/>
<line fill="none" stroke="#A3A3A3" stroke-miterlimit="10" x1="509.9" y1="321.6" x2="502.7" y2="321.6"/>
<line fill="none" stroke="#A3A3A3" stroke-miterlimit="10" x1="521" y1="321.6" x2="513.9" y2="321.6"/>
<line fill="none" stroke="#A3A3A3" stroke-miterlimit="10" x1="532.1" y1="321.6" x2="525" y2="321.6"/>
<line fill="none" stroke="#A3A3A3" stroke-miterlimit="10" x1="543.2" y1="321.6" x2="536.1" y2="321.6"/>
<line fill="none" stroke="#A3A3A3" stroke-miterlimit="10" x1="554.3" y1="321.6" x2="547.2" y2="321.6"/>
<line fill="none" stroke="#A3A3A3" stroke-miterlimit="10" x1="565.4" y1="321.6" x2="558.3" y2="321.6"/>
<line fill="none" stroke="#A3A3A3" stroke-miterlimit="10" x1="576.5" y1="321.6" x2="569.4" y2="321.6"/>
<path fill="none" stroke="#000000" stroke-miterlimit="10" d="M601.1,342.1H147.2c-3.8,0-6.9-3.1-6.9-6.9V76c0-3.8,3.1-6.9,6.9-6.9
	h453.9c3.8,0,6.9,3.1,6.9,6.9v259.2C607.9,339,604.8,342.1,601.1,342.1z"/>
<path fill="none" stroke="#000000" stroke-miterlimit="10" d="M157.1,69.2h-15.3c-4.8,0-8.7,3.9-8.7,8.7v255.5
	c0,4.8,3.9,8.7,8.7,8.7h15.6"/>
<g>
	<circle fill="none" stroke="#000000" stroke-miterlimit="10" cx="153.3" cy="79.6" r="2.9"/>
	<circle fill="none" stroke="#000000" stroke-miterlimit="10" cx="164.5" cy="79.6" r="2.9"/>
	<circle fill="none" stroke="#000000" stroke-miterlimit="10" cx="175.6" cy="79.6" r="2.9"/>
</g>
<line fill="none" stroke="#000000" stroke-miterlimit="10" x1="164.7" y1="140.2" x2="182.2" y2="140.2"/>
<line fill="none" stroke="#000000" stroke-miterlimit="10" x1="164.7" y1="155.9" x2="182.2" y2="155.9"/>
<line fill="none" stroke="#1776BF" stroke-miterlimit="10" x1="164.7" y1="171.6" x2="182.2" y2="171.6"/>
<line fill="none" stroke="#000000" stroke-miterlimit="10" x1="164.7" y1="187.3" x2="182.2" y2="187.3"/>
<line fill="none" stroke="#000000" stroke-miterlimit="10" x1="164.7" y1="203" x2="182.2" y2="203"/>
<line fill="none" stroke="#000000" stroke-miterlimit="10" x1="164.7" y1="218.7" x2="182.2" y2="218.7"/>
<line fill="none" stroke="#000000" stroke-miterlimit="10" x1="164.7" y1="234.3" x2="182.2" y2="234.3"/>
<circle fill="none" stroke="#000000" stroke-miterlimit="10" cx="155.8" cy="140" r="3.3"/>
<rect x="152.5" y="152.6" fill="none" stroke="#000000" stroke-miterlimit="10" width="6.5" height="6.5"/>
<path fill="none" stroke="#1776BF" stroke-miterlimit="10" d="M156.8,174.9h-2c-1.2,0-2.3-1-2.3-2.3v-2c0-1.2,1-2.3,2.3-2.3h2
	c1.2,0,2.3,1,2.3,2.3v2C159.1,173.9,158.1,174.9,156.8,174.9z"/>
<polygon fill="none" stroke="#000000" stroke-miterlimit="10" points="157.6,184.2 153.9,184.2 152.1,187.5 153.9,190.7 
	157.6,190.7 159.5,187.5 "/>
<circle fill="none" stroke="#000000" stroke-miterlimit="10" cx="155.8" cy="203.3" r="3.3"/>
<rect x="152.5" y="215.8" fill="none" stroke="#000000" stroke-miterlimit="10" width="6.5" height="6.5"/>
<path fill="none" stroke="#000000" stroke-miterlimit="10" d="M156.8,238.2h-2c-1.2,0-2.3-1-2.3-2.3v-2c0-1.2,1-2.3,2.3-2.3h2
	c1.2,0,2.3,1,2.3,2.3v2C159.1,237.2,158.1,238.2,156.8,238.2z"/>
<line fill="none" stroke="#A3A3A3" stroke-miterlimit="10" x1="231.3" y1="181.4" x2="457.8" y2="181.4"/>
<line fill="none" stroke="#000000" stroke-miterlimit="10" x1="233.6" y1="147" x2="269.5" y2="147"/>
<line fill="none" stroke="#000000" stroke-miterlimit="10" x1="231.6" y1="170.4" x2="276" y2="170.4"/>
<line fill="none" stroke="#000000" stroke-miterlimit="10" x1="231.6" y1="175.7" x2="290.6" y2="175.7"/>
<path fill="none" stroke="#A3A3A3" stroke-miterlimit="10" d="M466.7,331.7V157.1c0-2.1-1.7-3.8-3.8-3.8H283c-2.1,0-3.8-1.7-3.8-3.8
	v-7.8c0-2.1-1.7-3.8-3.8-3.8h-47.7c-2.1,0-3.8,1.7-3.8,3.8v190"/>
<g>
	<line fill="none" stroke="#000000" stroke-miterlimit="10" x1="283.8" y1="149" x2="310.4" y2="149"/>
	<path fill="none" stroke="#A3A3A3" stroke-miterlimit="10" d="M279.3,148.7l0-0.7c0-1.9,1.5-3.4,3.4-3.4l29.3,0
		c1.9,0,3.4,1.5,3.4,3.4l0,5.3"/>
</g>
<g>
	<line fill="none" stroke="#000000" stroke-miterlimit="10" x1="320" y1="149" x2="346.6" y2="149"/>
	<path fill="none" stroke="#A3A3A3" stroke-miterlimit="10" d="M315.5,153.3l0-5.3c0-1.9,1.5-3.4,3.4-3.4l29.3,0
		c1.9,0,3.4,1.5,3.4,3.4l0,5.3"/>
</g>
<g>
	<line fill="none" stroke="#000000" stroke-miterlimit="10" x1="356.2" y1="149" x2="382.7" y2="149"/>
	<path fill="none" stroke="#A3A3A3" stroke-miterlimit="10" d="M351.6,153.3l0-5.3c0-1.9,1.5-3.4,3.4-3.4l29.3,0
		c1.9,0,3.4,1.5,3.4,3.4l0,5.3"/>
</g>
<g>
	<line fill="none" stroke="#000000" stroke-miterlimit="10" x1="392.3" y1="149" x2="418.9" y2="149"/>
	<path fill="none" stroke="#A3A3A3" stroke-miterlimit="10" d="M387.8,153.3l0-5.3c0-1.9,1.5-3.4,3.4-3.4l29.3,0
		c1.9,0,3.4,1.5,3.4,3.4l0,5.3"/>
</g>
<g>
	<line fill="none" stroke="#000000" stroke-miterlimit="10" x1="428.4" y1="149" x2="455" y2="149"/>
	<path fill="none" stroke="#A3A3A3" stroke-miterlimit="10" d="M423.9,153.3l0-5.3c0-1.9,1.5-3.4,3.4-3.4l29.3,0
		c1.9,0,3.4,1.5,3.4,3.4l0,5.3"/>
</g>
<g>
	<rect x="349.1" y="191.3" fill="none" stroke="#A3A3A3" stroke-miterlimit="10" width="107.3" height="65.8"/>
	<g>
		<g>
			<line fill="none" stroke="#000000" stroke-miterlimit="10" x1="364.9" y1="227.6" x2="409.4" y2="227.6"/>
			<line fill="none" stroke="#A3A3A3" stroke-miterlimit="10" x1="361.5" y1="232.3" x2="412.8" y2="232.3"/>
			<line fill="none" stroke="#A3A3A3" stroke-miterlimit="10" x1="366.5" y1="236.9" x2="407.8" y2="236.9"/>
		</g>
		<g>
			<g>
				<g>
					<line fill="none" stroke="#000000" stroke-miterlimit="10" x1="360.2" y1="210.5" x2="388" y2="210.5"/>
					<g>
						<polygon points="387.6,207.4 387.6,213.5 390.6,210.5 						"/>
					</g>
				</g>
			</g>
			<circle fill="#FF4200" cx="370.5" cy="210.5" r="11"/>
			<circle fill="#BAD80A" cx="403.8" cy="210.5" r="11"/>
		</g>
		<g>
			<line fill="none" stroke="#A3A3A3" stroke-miterlimit="10" x1="385.1" y1="246.9" x2="399.3" y2="246.9"/>
			<circle fill="#1776BF" cx="378.6" cy="246.9" r="3.6"/>
		</g>
	</g>
	<g>
		<line fill="none" stroke="#000000" stroke-miterlimit="10" x1="427.2" y1="206.8" x2="441.2" y2="206.8"/>
		<line fill="none" stroke="#A3A3A3" stroke-miterlimit="10" x1="427.2" y1="211.5" x2="443.7" y2="211.5"/>
		<line fill="none" stroke="#A3A3A3" stroke-miterlimit="10" x1="427.2" y1="216.1" x2="440.5" y2="216.1"/>
		<line fill="none" stroke="#A3A3A3" stroke-miterlimit="10" x1="427.2" y1="220.8" x2="445.5" y2="220.8"/>
		<line fill="none" stroke="#A3A3A3" stroke-miterlimit="10" x1="427.2" y1="225.5" x2="438.5" y2="225.5"/>
		<line fill="none" stroke="#A3A3A3" stroke-miterlimit="10" x1="427.2" y1="230.1" x2="436.2" y2="230.1"/>
		<line fill="none" stroke="#A3A3A3" stroke-miterlimit="10" x1="427.2" y1="234.8" x2="442.8" y2="234.8"/>
		<line fill="none" stroke="#A3A3A3" stroke-miterlimit="10" x1="427.2" y1="239.5" x2="445.5" y2="239.5"/>
		<line fill="none" stroke="#A3A3A3" stroke-miterlimit="10" x1="427.2" y1="244.2" x2="441.2" y2="244.2"/>
	</g>
</g>
<g>
	<rect x="349.1" y="264.7" fill="none" stroke="#A3A3A3" stroke-miterlimit="10" width="107.3" height="65.8"/>
	<g>
		<g>
			<line fill="none" stroke="#000000" stroke-miterlimit="10" x1="364.9" y1="301" x2="409.4" y2="301"/>
			<line fill="none" stroke="#A3A3A3" stroke-miterlimit="10" x1="361.5" y1="305.6" x2="412.8" y2="305.6"/>
			<line fill="none" stroke="#A3A3A3" stroke-miterlimit="10" x1="366.5" y1="310.3" x2="407.8" y2="310.3"/>
		</g>
		<g>
			<g>
				<g>
					<line fill="none" stroke="#000000" stroke-miterlimit="10" x1="360.2" y1="283.8" x2="388" y2="283.8"/>
					<g>
						<polygon points="387.6,280.8 387.6,286.8 390.6,283.8 						"/>
					</g>
				</g>
			</g>
			<circle fill="#FF4200" cx="370.5" cy="283.8" r="11"/>
			<circle fill="#0899CC" cx="403.8" cy="283.8" r="11"/>
		</g>
		<g>
			<line fill="none" stroke="#A3A3A3" stroke-miterlimit="10" x1="385.1" y1="320.2" x2="399.3" y2="320.2"/>
			<circle fill="#1776BF" cx="378.6" cy="320.2" r="3.6"/>
		</g>
	</g>
	<g>
		<line fill="none" stroke="#000000" stroke-miterlimit="10" x1="427.2" y1="280.1" x2="441.2" y2="280.1"/>
		<line fill="none" stroke="#A3A3A3" stroke-miterlimit="10" x1="427.2" y1="284.8" x2="443.7" y2="284.8"/>
		<line fill="none" stroke="#A3A3A3" stroke-miterlimit="10" x1="427.2" y1="289.5" x2="440.5" y2="289.5"/>
		<line fill="none" stroke="#A3A3A3" stroke-miterlimit="10" x1="427.2" y1="294.1" x2="445.5" y2="294.1"/>
		<line fill="none" stroke="#A3A3A3" stroke-miterlimit="10" x1="427.2" y1="298.8" x2="438.5" y2="298.8"/>
		<line fill="none" stroke="#A3A3A3" stroke-miterlimit="10" x1="427.2" y1="303.5" x2="436.2" y2="303.5"/>
		<line fill="none" stroke="#A3A3A3" stroke-miterlimit="10" x1="427.2" y1="308.2" x2="442.8" y2="308.2"/>
		<line fill="none" stroke="#A3A3A3" stroke-miterlimit="10" x1="427.2" y1="312.8" x2="445.5" y2="312.8"/>
		<line fill="none" stroke="#A3A3A3" stroke-miterlimit="10" x1="427.2" y1="317.5" x2="441.2" y2="317.5"/>
	</g>
</g>
<g>
	<rect x="234.1" y="191.3" fill="none" stroke="#A3A3A3" stroke-miterlimit="10" width="107.3" height="65.8"/>
	<g>
		<g>
			<line fill="none" stroke="#000000" stroke-miterlimit="10" x1="249.9" y1="227.6" x2="294.4" y2="227.6"/>
			<line fill="none" stroke="#A3A3A3" stroke-miterlimit="10" x1="246.5" y1="232.3" x2="297.8" y2="232.3"/>
			<line fill="none" stroke="#A3A3A3" stroke-miterlimit="10" x1="251.5" y1="236.9" x2="292.8" y2="236.9"/>
		</g>
		<g>
			<g>
				<g>
					<line fill="none" stroke="#000000" stroke-miterlimit="10" x1="245.2" y1="210.5" x2="273" y2="210.5"/>
					<g>
						<polygon points="272.6,207.4 272.6,213.5 275.6,210.5 						"/>
					</g>
				</g>
			</g>
			<circle fill="#0C3B60" cx="255.5" cy="210.5" r="11"/>
			<circle fill="#7BCAEF" cx="288.8" cy="210.5" r="11"/>
		</g>
		<g>
			<line fill="none" stroke="#A3A3A3" stroke-miterlimit="10" x1="270.1" y1="246.9" x2="284.3" y2="246.9"/>
			<circle fill="#1776BF" cx="263.6" cy="246.9" r="3.6"/>
		</g>
	</g>
	<g>
		<line fill="none" stroke="#000000" stroke-miterlimit="10" x1="312.2" y1="206.8" x2="326.2" y2="206.8"/>
		<line fill="none" stroke="#A3A3A3" stroke-miterlimit="10" x1="312.2" y1="211.5" x2="328.7" y2="211.5"/>
		<line fill="none" stroke="#A3A3A3" stroke-miterlimit="10" x1="312.2" y1="216.1" x2="325.5" y2="216.1"/>
		<line fill="none" stroke="#A3A3A3" stroke-miterlimit="10" x1="312.2" y1="220.8" x2="330.5" y2="220.8"/>
		<line fill="none" stroke="#A3A3A3" stroke-miterlimit="10" x1="312.2" y1="225.5" x2="323.5" y2="225.5"/>
		<line fill="none" stroke="#A3A3A3" stroke-miterlimit="10" x1="312.2" y1="230.1" x2="321.2" y2="230.1"/>
		<line fill="none" stroke="#A3A3A3" stroke-miterlimit="10" x1="312.2" y1="234.8" x2="327.8" y2="234.8"/>
		<line fill="none" stroke="#A3A3A3" stroke-miterlimit="10" x1="312.2" y1="239.5" x2="330.5" y2="239.5"/>
		<line fill="none" stroke="#A3A3A3" stroke-miterlimit="10" x1="312.2" y1="244.2" x2="326.2" y2="244.2"/>
	</g>
</g>
<g>
	<rect x="234.1" y="264.7" fill="none" stroke="#A3A3A3" stroke-miterlimit="10" width="107.3" height="65.8"/>
	<g>
		<g>
			<line fill="none" stroke="#000000" stroke-miterlimit="10" x1="249.9" y1="301" x2="294.4" y2="301"/>
			<line fill="none" stroke="#A3A3A3" stroke-miterlimit="10" x1="246.5" y1="305.6" x2="297.8" y2="305.6"/>
			<line fill="none" stroke="#A3A3A3" stroke-miterlimit="10" x1="251.5" y1="310.3" x2="292.8" y2="310.3"/>
		</g>
		<g>
			<g>
				<g>
					<line fill="none" stroke="#000000" stroke-miterlimit="10" x1="245.2" y1="283.8" x2="273" y2="283.8"/>
					<g>
						<polygon points="272.6,280.8 272.6,286.8 275.6,283.8 						"/>
					</g>
				</g>
			</g>
			<circle fill="#FF4200" cx="255.5" cy="283.8" r="11"/>
			<circle fill="#BAD80A" cx="288.8" cy="283.8" r="11"/>
		</g>
		<g>
			<line fill="none" stroke="#A3A3A3" stroke-miterlimit="10" x1="270.1" y1="320.2" x2="284.3" y2="320.2"/>
			<circle fill="#1776BF" cx="263.6" cy="320.2" r="3.6"/>
		</g>
	</g>
	<g>
		<line fill="none" stroke="#000000" stroke-miterlimit="10" x1="312.2" y1="280.1" x2="326.2" y2="280.1"/>
		<line fill="none" stroke="#A3A3A3" stroke-miterlimit="10" x1="312.2" y1="284.8" x2="328.7" y2="284.8"/>
		<line fill="none" stroke="#A3A3A3" stroke-miterlimit="10" x1="312.2" y1="289.5" x2="325.5" y2="289.5"/>
		<line fill="none" stroke="#A3A3A3" stroke-miterlimit="10" x1="312.2" y1="294.1" x2="330.5" y2="294.1"/>
		<line fill="none" stroke="#A3A3A3" stroke-miterlimit="10" x1="312.2" y1="298.8" x2="323.5" y2="298.8"/>
		<line fill="none" stroke="#A3A3A3" stroke-miterlimit="10" x1="312.2" y1="303.5" x2="321.2" y2="303.5"/>
		<line fill="none" stroke="#A3A3A3" stroke-miterlimit="10" x1="312.2" y1="308.2" x2="327.8" y2="308.2"/>
		<line fill="none" stroke="#A3A3A3" stroke-miterlimit="10" x1="312.2" y1="312.8" x2="330.5" y2="312.8"/>
		<line fill="none" stroke="#A3A3A3" stroke-miterlimit="10" x1="312.2" y1="317.5" x2="326.2" y2="317.5"/>
	</g>
</g>
</svg>
