<?xml version="1.0" encoding="utf-8"?>
<!-- Generator: Adobe Illustrator 22.1.0, SVG Export Plug-In . SVG Version: 6.00 Build 0)  -->
<svg version="1.1" id="Layer_asdasdas1" xmlns="http://www.w3.org/2000/svg" xmlns:xlink="http://www.w3.org/1999/xlink" x="0px" y="0px"
	 viewBox="0 0 750 400" enable-background="new 0 0 750 400" xml:space="preserve">
<path opacity="0.14" d="M152.3,48.6c-0.2-9.8-8.2-17.7-18.1-17.7c-5.7,0-10.8,2.7-14.1,6.8c-1.3-2.5-4-4.2-7-4.2
	c-3.7,0-6.9,2.6-7.7,6.1c-1.2-0.5-2.5-0.7-3.8-0.7c-2.1,0-4,0.6-5.6,1.7c-2.3-2.3-5.5-3.7-9-3.7c-5.4,0-10,3.3-11.8,8
	c-1.1-1.2-2.7-1.9-4.5-1.9c-3.2,0-5.9,2.5-6.1,5.7H152.3z"/>
<path opacity="0.14" d="M321.9,190.8c-0.5-20-16.8-36-36.9-36c-11.7,0-22,5.4-28.8,13.8c-2.7-5.1-8.1-8.5-14.3-8.5
	c-7.6,0-14,5.3-15.8,12.3c-2.4-1-5-1.5-7.8-1.5c-4.2,0-8.1,1.3-11.4,3.4c-4.7-4.7-11.2-7.6-18.3-7.6c-10.9,0-20.3,6.8-24.1,16.4
	c-2.3-2.4-5.5-3.9-9.1-3.9c-6.6,0-12,5.1-12.5,11.6H321.9z"/>
<path opacity="0.14" d="M94.1,256c-0.2-8.1-6.8-14.6-15-14.6c-4.7,0-8.9,2.2-11.7,5.6c-1.1-2.1-3.3-3.5-5.8-3.5
	c-3.1,0-5.7,2.1-6.4,5c-1-0.4-2-0.6-3.2-0.6c-1.7,0-3.3,0.5-4.6,1.4c-1.9-1.9-4.5-3.1-7.4-3.1c-4.4,0-8.2,2.7-9.8,6.6
	c-0.9-1-2.2-1.6-3.7-1.6c-2.7,0-4.9,2.1-5.1,4.7H94.1z"/>
<g transform="matrix( 1, 0, 0, 1, 62.35,283.35) " opacity="0.17">
	<g transform="matrix( 1, 0, 0, 1, 0,0) ">
		<g>
			<g id="flash0_ai_Layer_1__Path__47_0_Layer0_0_FILL">
				<path fill="#3D3D3D" d="M498.4,88.6c0.1-1.4,0.7-2.6,1.8-3.6c1-1,2.3-1.5,3.8-1.5c1.6,0,2.9,0.6,4,1.8c0.8-2.1,2.2-3.9,4.2-5.2
					c1.9-1.3,4.1-2,6.5-2c3.1,0,5.8,1.1,7.9,3.3c1.5-0.9,3.1-1.4,5-1.4c1.2,0,2.3,0.2,3.4,0.6c0.4-1.6,1.2-2.9,2.5-3.9
					s2.8-1.6,4.4-1.6c1.3,0,2.6,0.4,3.7,1.1c1.1,0.6,1.9,1.6,2.6,2.7c1.5-1.8,3.3-3.3,5.5-4.4c2.2-1.1,4.6-1.7,7.1-1.7
					c4.3,0,7.9,1.6,11.1,4.6s4.8,6.7,4.9,11.1H498.4z"/>
			</g>
		</g>
	</g>
</g>
<g transform="matrix( 1, 0, 0, 1, -287.6,-198.6) ">
	<g>
		<g id="Layer8_3_FILL">
			<path fill="#BAD727" d="M842.2,484.9c0-0.5,0.2-0.9,0.6-1.2c0.4-0.4,0.7-0.6,1.2-0.6c0.5,0,0.9,0.2,1.3,0.6
				c0.4,0.4,0.6,0.7,0.6,1.2c0,0.5-0.2,0.9-0.6,1.3c-0.4,0.4-0.7,0.5-1.3,0.5c-0.5,0-0.9-0.2-1.2-0.5
				C842.4,485.8,842.2,485.3,842.2,484.9z"/>
		</g>
	</g>
</g>
<g transform="matrix( 1, 0, 0, 1, -287.6,-198.6) ">
	<g>
		<g id="Layer8_3_FILL_5_">
			<path fill="#BAD727" d="M972.9,255.8c0-0.5,0.2-0.9,0.6-1.2c0.4-0.4,0.7-0.6,1.2-0.6s0.9,0.2,1.3,0.6c0.4,0.4,0.6,0.7,0.6,1.2
				s-0.2,0.9-0.6,1.3c-0.4,0.4-0.7,0.5-1.3,0.5c-0.5,0-0.9-0.2-1.2-0.5C973.1,256.7,972.9,256.3,972.9,255.8z"/>
		</g>
	</g>
</g>
<g transform="matrix( 1, 0, 0, 1, -287.6,-198.6) ">
	<g>
		<g id="Layer8_4_FILL">
			<path fill="#BAD727" d="M488.1,401.6c0-0.5,0.2-0.9,0.6-1.2c0.4-0.4,0.7-0.6,1.2-0.6c0.5,0,0.9,0.2,1.3,0.6
				c0.4,0.4,0.5,0.7,0.5,1.2s-0.2,0.9-0.5,1.3c-0.4,0.4-0.7,0.6-1.3,0.6c-0.5,0-0.9-0.2-1.2-0.6
				C488.3,402.5,488.1,402.1,488.1,401.6z"/>
		</g>
	</g>
</g>
<g transform="matrix( 1, 0, 0, 1, -287.6,-198.6) ">
	<g>
		<g id="Layer8_5_FILL">
			<path fill="#F7571A" d="M724.5,317.1c0-0.5,0.2-0.9,0.6-1.2c0.4-0.4,0.7-0.6,1.3-0.6s0.9,0.2,1.2,0.6c0.4,0.4,0.5,0.7,0.5,1.2
				c0,0.5-0.2,0.9-0.5,1.3c-0.4,0.4-0.7,0.6-1.2,0.6s-0.9-0.2-1.3-0.6C724.7,318,724.5,317.6,724.5,317.1z"/>
		</g>
	</g>
</g>
<g transform="matrix( 1, 0, 0, 1, -287.6,-198.6) ">
	<g>
		<g id="Layer8_5_FILL_3_">
			<path fill="#F7571A" d="M944.5,552.8c0-0.5,0.2-0.9,0.6-1.2c0.4-0.4,0.7-0.6,1.3-0.6s0.9,0.2,1.2,0.6c0.4,0.4,0.5,0.7,0.5,1.2
				s-0.2,0.9-0.5,1.3c-0.4,0.4-0.7,0.6-1.2,0.6s-0.9-0.2-1.3-0.6S944.5,553.3,944.5,552.8z"/>
		</g>
	</g>
</g>
<g transform="matrix( 1, 0, 0, 1, -287.6,-198.6) ">
	<g>
		<g id="Layer8_5_FILL_1_">
			<path fill="#F7571A" d="M512.5,429.8c0-0.5,0.2-0.9,0.6-1.2c0.4-0.4,0.7-0.6,1.3-0.6s0.9,0.2,1.2,0.6c0.4,0.4,0.5,0.7,0.5,1.2
				s-0.2,0.9-0.5,1.3c-0.4,0.4-0.7,0.6-1.2,0.6s-0.9-0.2-1.3-0.6S512.5,430.3,512.5,429.8z"/>
		</g>
	</g>
</g>
<g transform="matrix( 1, 0, 0, 1, -287.6,-198.6) ">
	<g>
		<g id="Layer8_5_FILL_2_">
			<path fill="#F7571A" d="M339.2,546.9c0-0.5,0.2-0.9,0.6-1.2c0.4-0.4,0.7-0.6,1.3-0.6c0.6,0,0.9,0.2,1.2,0.6
				c0.4,0.4,0.5,0.7,0.5,1.2s-0.2,0.9-0.5,1.3c-0.4,0.4-0.7,0.6-1.2,0.6c-0.5,0-0.9-0.2-1.3-0.6
				C339.3,547.9,339.2,547.4,339.2,546.9z"/>
		</g>
	</g>
</g>
<g transform="matrix( 1, 0, 0, 1, -287.6,-198.6) ">
	<g>
		<g id="Layer8_6_FILL">
			<path fill="#F7571A" d="M790.4,445.4c0-0.5,0.2-0.9,0.6-1.3c0.4-0.4,0.7-0.5,1.2-0.5s0.9,0.2,1.3,0.5c0.4,0.4,0.5,0.7,0.5,1.3
				c0,0.5-0.2,0.9-0.5,1.3c-0.4,0.4-0.7,0.6-1.3,0.6s-0.9-0.2-1.2-0.6C790.6,446.3,790.4,445.9,790.4,445.4z"/>
		</g>
	</g>
</g>
<g transform="matrix( 1, 0, 0, 1, -287.6,-198.6) ">
	<g>
		<g id="Layer8_7_FILL">
			<path fill="#DEDEDE" d="M817.2,449.7c0-1,0.4-1.8,1-2.6c0.7-0.6,1.6-1,2.6-1c1,0,1.8,0.4,2.5,1c0.6,0.7,1,1.6,1,2.6
				s-0.4,1.8-1,2.5c-0.7,0.6-1.6,1-2.5,1c-1,0-1.8-0.4-2.6-1C817.6,451.6,817.2,450.7,817.2,449.7z"/>
		</g>
	</g>
</g>
<g transform="matrix( 1, 0, 0, 1, -287.6,-198.6) ">
	<g>
		<g id="Layer8_8_FILL">
			<path fill="#DEDEDE" d="M487.3,485.8c0.4-0.4,0.7-0.5,1.3-0.5c0.5,0,0.9,0.2,1.3,0.5c0.4,0.4,0.5,0.8,0.5,1.3s-0.2,0.9-0.5,1.3
				c-0.4,0.4-0.7,0.6-1.3,0.6c-0.5,0-0.9-0.2-1.3-0.6s-0.6-0.7-0.6-1.3C486.8,486.6,486.9,486.2,487.3,485.8z"/>
		</g>
	</g>
</g>
<g transform="matrix( 1, 0, 0, 1, -287.6,-198.6) ">
	<g>
		<g id="Layer8_8_FILL_2_">
			<path fill="#DEDEDE" d="M753.8,561.6c0.4-0.4,0.7-0.5,1.3-0.5c0.5,0,0.9,0.2,1.3,0.5c0.4,0.4,0.5,0.8,0.5,1.3s-0.2,0.9-0.5,1.3
				c-0.4,0.4-0.7,0.6-1.3,0.6c-0.5,0-0.9-0.2-1.3-0.6c-0.4-0.4-0.6-0.7-0.6-1.3C753.3,562.4,753.5,562.1,753.8,561.6z"/>
		</g>
	</g>
</g>
<g transform="matrix( 1, 0, 0, 1, -287.6,-198.6) ">
	<g>
		<g id="Layer8_8_FILL_3_">
			<path fill="#DEDEDE" d="M803.2,356.7c0.4-0.4,0.7-0.5,1.3-0.5c0.5,0,0.9,0.2,1.3,0.5c0.4,0.4,0.5,0.8,0.5,1.3
				c0,0.5-0.2,0.9-0.5,1.3c-0.4,0.4-0.7,0.6-1.3,0.6c-0.5,0-0.9-0.2-1.3-0.6c-0.4-0.4-0.6-0.7-0.6-1.3
				C802.6,357.6,802.8,357.2,803.2,356.7z"/>
		</g>
	</g>
</g>
<g transform="matrix( 1, 0, 0, 1, -287.6,-198.6) ">
	<g>
		<g id="Layer8_8_FILL_4_">
			<path fill="#DEDEDE" d="M613.2,335.9c0.4-0.4,0.7-0.5,1.3-0.5c0.5,0,0.9,0.2,1.3,0.5c0.4,0.4,0.5,0.8,0.5,1.3
				c0,0.5-0.2,0.9-0.5,1.3c-0.4,0.4-0.7,0.6-1.3,0.6c-0.5,0-0.9-0.2-1.3-0.6c-0.4-0.4-0.6-0.7-0.6-1.3
				C612.6,336.8,612.8,336.4,613.2,335.9z"/>
		</g>
	</g>
</g>
<g transform="matrix( 1, 0, 0, 1, -287.6,-198.6) ">
	<g>
		<g id="Layer8_8_FILL_5_">
			<path fill="#DEDEDE" d="M343.8,380.4c0.4-0.4,0.7-0.5,1.3-0.5c0.5,0,0.9,0.2,1.3,0.5c0.4,0.4,0.5,0.8,0.5,1.3
				c0,0.5-0.2,0.9-0.5,1.3c-0.4,0.4-0.7,0.6-1.3,0.6c-0.5,0-0.9-0.2-1.3-0.6c-0.4-0.4-0.6-0.7-0.6-1.3
				C343.3,381.2,343.5,380.8,343.8,380.4z"/>
		</g>
	</g>
</g>
<g transform="matrix( 1, 0, 0, 1, -287.6,-198.6) ">
	<g>
		<g id="Layer8_8_FILL_6_">
			<path fill="#DEDEDE" d="M894,300.3c0.4-0.4,0.7-0.5,1.3-0.5c0.5,0,0.9,0.2,1.3,0.5c0.4,0.4,0.5,0.8,0.5,1.3
				c0,0.5-0.2,0.9-0.5,1.3c-0.4,0.4-0.7,0.6-1.3,0.6c-0.5,0-0.9-0.2-1.3-0.6c-0.4-0.4-0.6-0.7-0.6-1.3
				C893.5,301.1,893.7,300.8,894,300.3z"/>
		</g>
	</g>
</g>
<g transform="matrix( 1, 0, 0, 1, -287.6,-198.6) ">
	<g>
		<g id="Layer8_9_FILL">
			<path fill="#D1D1D1" d="M491.3,569.1c0-1,0.4-1.8,1-2.5c0.7-0.6,1.6-1,2.6-1s1.8,0.4,2.5,1c0.7,0.7,1.1,1.6,1.1,2.5
				c0,1-0.4,1.8-1.1,2.6c-0.6,0.6-1.5,1-2.5,1c-1,0-1.8-0.4-2.6-1C491.7,570.9,491.3,570.1,491.3,569.1z"/>
		</g>
	</g>
</g>
<g transform="matrix( 1, 0, 0, 1, -287.6,-198.6) ">
	<g>
		<path id="Layer8_10_1_STROKES" fill="none" stroke="#BFBFBF" stroke-width="2" stroke-miterlimit="10" d="M481.6,353.9
			c0,0.8,0.3,1.6,0.9,2.1c0.6,0.6,1.3,0.9,2.1,0.9c0.8,0,1.6-0.3,2.1-0.9c0.6-0.6,0.9-1.3,0.9-2.1s-0.3-1.5-0.9-2.1
			c-0.6-0.6-1.3-0.9-2.1-0.9c-0.8,0-1.5,0.3-2.1,0.9C481.9,352.3,481.6,353,481.6,353.9z"/>
	</g>
</g>
<g transform="matrix( 1, 0, 0, 1, -287.6,-198.6) ">
	<g>
		<path id="Layer8_11_1_STROKES" fill="none" stroke="#BFBFBF" stroke-width="2" stroke-miterlimit="10" d="M583.6,567.6
			c0,0.8,0.3,1.6,0.9,2.1c0.6,0.6,1.3,0.9,2.1,0.9s1.6-0.3,2.1-0.9c0.6-0.6,0.9-1.3,0.9-2.1c0-0.8-0.3-1.6-0.9-2.1
			c-0.6-0.6-1.3-0.9-2.1-0.9c-0.8,0-1.5,0.3-2.1,0.9C584,566,583.6,566.7,583.6,567.6z"/>
	</g>
</g>
<g transform="matrix( 1, 0, 0, 1, -287.6,-198.6) ">
	<g>
		<path id="Layer8_12_1_STROKES" fill="none" stroke="#BFBFBF" stroke-width="2" stroke-miterlimit="10" d="M699.3,273.8
			c0,0.8,0.3,1.6,0.9,2.1c0.6,0.6,1.3,0.8,2.1,0.8c0.8,0,1.5-0.3,2.1-0.8c0.6-0.6,0.9-1.3,0.9-2.1s-0.3-1.5-0.9-2.1
			c-0.6-0.6-1.3-0.8-2.1-0.8c-0.8,0-1.6,0.3-2.1,0.8C699.6,272.3,699.3,273,699.3,273.8z"/>
	</g>
</g>
<g transform="matrix( 1, 0, 0, 1, -287.6,-198.6) ">
	<g>
		<path id="Layer8_12_1_STROKES_2_" fill="none" stroke="#BFBFBF" stroke-width="2" stroke-miterlimit="10" d="M848.9,526.2
			c0,0.8,0.3,1.6,0.9,2.1c0.6,0.6,1.3,0.8,2.1,0.8s1.5-0.3,2.1-0.8c0.6-0.6,0.9-1.3,0.9-2.1c0-0.8-0.3-1.5-0.9-2.1
			c-0.6-0.6-1.3-0.8-2.1-0.8c-0.8,0-1.6,0.3-2.1,0.8S848.9,525.3,848.9,526.2z"/>
	</g>
</g>
<g transform="matrix( 1, 0, 0, 1, -287.6,-198.6) ">
	<g>
		<path id="Layer8_12_1_STROKES_3_" fill="none" stroke="#BFBFBF" stroke-width="2" stroke-miterlimit="10" d="M912.2,284.2
			c0,0.8,0.3,1.6,0.9,2.1c0.6,0.6,1.3,0.8,2.1,0.8c0.8,0,1.5-0.3,2.1-0.8c0.6-0.6,0.9-1.3,0.9-2.1c0-0.8-0.3-1.5-0.9-2.1
			c-0.6-0.6-1.3-0.8-2.1-0.8c-0.8,0-1.6,0.3-2.1,0.8C912.6,282.6,912.2,283.3,912.2,284.2z"/>
	</g>
</g>
<g>
	<g transform="matrix( 1, 0, 0, 1, -287.6,-198.6) ">
		<g>
			<g id="Layer8_13_MEMBER_0_FILL">
				<path fill="#83C4EC" d="M775.7,239.5h-6.5c-0.3,0-0.5-0.1-0.6-0.3c-0.2-0.2-0.3-0.4-0.3-0.6c0-0.3,0.1-0.5,0.3-0.6
					c0.2-0.2,0.4-0.3,0.6-0.3h6.5c0.6,0,0.8,0.3,0.8,0.8c0,0.3-0.1,0.5-0.3,0.6C776.1,239.4,775.9,239.5,775.7,239.5z"/>
			</g>
		</g>
	</g>
	<g transform="matrix( 1, 0, 0, 1, -287.6,-198.6) ">
		<g>
			<g id="Layer8_13_MEMBER_1_FILL">
				<path fill="#83C4EC" d="M773,234.8c0.2,0.2,0.3,0.4,0.3,0.6v6.5c0,0.3-0.1,0.5-0.3,0.6c-0.2,0.2-0.4,0.3-0.6,0.3
					c-0.6,0-0.9-0.3-0.9-0.9v-6.5c0-0.3,0.1-0.5,0.3-0.6c0.2-0.2,0.4-0.3,0.6-0.3C772.7,234.4,772.8,234.5,773,234.8z"/>
			</g>
		</g>
	</g>
</g>
<g>
	<g transform="matrix( 1, 0, 0, 1, -287.6,-198.6) ">
		<g>
			<g id="Layer8_14_MEMBER_0_FILL">
				<path fill="#83C4EC" d="M465.5,496.8c-0.2,0.2-0.4,0.3-0.6,0.3h-6.6c-0.3,0-0.5-0.1-0.6-0.3c-0.2-0.2-0.2-0.4-0.3-0.6
					c0-0.6,0.3-0.9,0.8-0.9h6.6c0.3,0,0.5,0.1,0.6,0.3c0.2,0.2,0.3,0.4,0.3,0.6C465.8,496.5,465.7,496.7,465.5,496.8z"/>
			</g>
		</g>
	</g>
	<g transform="matrix( 1, 0, 0, 1, -287.6,-198.6) ">
		<g>
			<g id="Layer8_14_MEMBER_1_FILL">
				<path fill="#83C4EC" d="M460.8,492.9c0-0.2,0.1-0.5,0.3-0.6c0.2-0.2,0.4-0.3,0.6-0.3c0.3,0,0.5,0.1,0.6,0.3
					c0.2,0.2,0.3,0.4,0.3,0.6v6.6c0,0.3-0.1,0.5-0.3,0.6c-0.2,0.2-0.4,0.3-0.6,0.3s-0.5-0.1-0.6-0.3c-0.2-0.2-0.3-0.4-0.3-0.6V492.9
					z"/>
			</g>
		</g>
	</g>
</g>
<g>
	<g transform="matrix( 1, 0, 0, 1, -287.6,-198.6) ">
		<g>
			<g id="Layer8_15_MEMBER_0_FILL">
				<path fill="#83C4EC" d="M913.5,371.8c0.3,0,0.5,0.1,0.6,0.3c0.2,0.2,0.3,0.4,0.3,0.6s-0.1,0.5-0.3,0.6s-0.4,0.3-0.6,0.3H907
					c-0.3,0-0.5-0.1-0.6-0.3s-0.3-0.4-0.3-0.6c0-0.6,0.3-0.9,0.9-0.9H913.5z"/>
			</g>
		</g>
	</g>
	<g transform="matrix( 1, 0, 0, 1, -287.6,-198.6) ">
		<g>
			<g id="Layer8_15_MEMBER_1_FILL">
				<path fill="#83C4EC" d="M909.3,369.4c0-0.2,0.1-0.5,0.3-0.6c0.2-0.2,0.4-0.3,0.6-0.3s0.5,0.1,0.6,0.3s0.3,0.4,0.3,0.6v6.5
					c0,0.3-0.1,0.5-0.3,0.6s-0.4,0.3-0.6,0.3c-0.3,0-0.5-0.1-0.6-0.3c-0.2-0.2-0.3-0.4-0.3-0.6V369.4z"/>
			</g>
		</g>
	</g>
</g>
<g>
	<g transform="matrix( 1, 0, 0, 1, -287.6,-198.6) ">
		<g>
			<g id="Layer8_16_MEMBER_0_FILL">
				<path fill="#83C4EC" d="M561.1,292.1c-0.2,0.2-0.4,0.3-0.6,0.3H554c-0.3,0-0.5-0.1-0.6-0.3s-0.3-0.4-0.3-0.6
					c0-0.3,0.1-0.5,0.3-0.6c0.2-0.2,0.4-0.3,0.6-0.3h6.5c0.3,0,0.5,0.1,0.6,0.3c0.2,0.2,0.3,0.4,0.3,0.6
					C561.4,291.7,561.3,292,561.1,292.1z"/>
			</g>
		</g>
	</g>
	<g transform="matrix( 1, 0, 0, 1, -287.6,-198.6) ">
		<g>
			<g id="Layer8_16_MEMBER_1_FILL">
				<path fill="#83C4EC" d="M557.3,295.6c-0.3,0-0.5-0.1-0.6-0.3s-0.3-0.4-0.3-0.6v-6.6c0-0.6,0.3-0.8,0.9-0.8
					c0.6,0,0.9,0.3,0.9,0.8v6.6c0,0.3-0.1,0.5-0.3,0.6C557.7,295.6,557.4,295.6,557.3,295.6z"/>
			</g>
		</g>
	</g>
</g>
<g>
	<g transform="matrix( 1, 0, 0, 1, -287.6,-198.6) ">
		<g>
			<g id="Layer8_16_MEMBER_0_FILL_1_">
				<path fill="#83C4EC" d="M411.2,268.7c-0.2,0.2-0.4,0.3-0.6,0.3h-6.5c-0.3,0-0.5-0.1-0.6-0.3c-0.2-0.2-0.3-0.4-0.3-0.6
					s0.1-0.5,0.3-0.6c0.2-0.2,0.4-0.3,0.6-0.3h6.5c0.3,0,0.5,0.1,0.6,0.3c0.2,0.2,0.3,0.4,0.3,0.6S411.4,268.6,411.2,268.7z"/>
			</g>
		</g>
	</g>
	<g transform="matrix( 1, 0, 0, 1, -287.6,-198.6) ">
		<g>
			<g id="Layer8_16_MEMBER_1_FILL_1_">
				<path fill="#83C4EC" d="M407.4,272.2c-0.3,0-0.5-0.1-0.6-0.3s-0.3-0.4-0.3-0.6v-6.6c0-0.6,0.3-0.8,0.9-0.8
					c0.6,0,0.9,0.3,0.9,0.8v6.6c0,0.3-0.1,0.5-0.3,0.6C407.8,272.2,407.5,272.2,407.4,272.2z"/>
			</g>
		</g>
	</g>
</g>
<g>
	<g transform="matrix( 1, 0, 0, 1, -287.6,-198.6) ">
		<g>
			<g id="Layer8_17_MEMBER_0_FILL">
				<path fill="#83C4EC" d="M651.9,570.2c-0.3,0-0.5-0.1-0.6-0.3c-0.2-0.2-0.3-0.4-0.3-0.6c0-0.2,0.1-0.5,0.3-0.6s0.4-0.3,0.6-0.3
					h6.5c0.3,0,0.5,0.1,0.6,0.3s0.3,0.4,0.3,0.6s-0.1,0.5-0.3,0.6s-0.4,0.3-0.6,0.3H651.9z"/>
			</g>
		</g>
	</g>
	<g transform="matrix( 1, 0, 0, 1, -287.6,-198.6) ">
		<g>
			<g id="Layer8_17_MEMBER_1_FILL">
				<path fill="#83C4EC" d="M655.8,565.4c0.2,0.2,0.3,0.4,0.3,0.6v6.5c0,0.3-0.1,0.5-0.3,0.6s-0.4,0.3-0.6,0.3s-0.5-0.1-0.6-0.3
					s-0.3-0.4-0.3-0.6V566c0-0.3,0.1-0.5,0.3-0.6s0.4-0.3,0.6-0.3C655.5,565.2,655.7,565.2,655.8,565.4z"/>
			</g>
		</g>
	</g>
</g>
<g transform="matrix( 1, 0, 0, 1, -287.6,-198.6) ">
	<g>
		<g id="Layer8_18_FILL">
			<path fill="#BFBFBF" d="M812.1,486l-2.8,4.8l2.8,4.8h5.5l2.8-4.8l-2.8-4.8H812.1 M819,490.8l-2,3.5h-4.1l-2-3.5l2-3.5h4.1
				L819,490.8z"/>
		</g>
	</g>
</g>
<g transform="matrix( 1, 0, 0, 1, -287.6,-198.6) ">
	<g>
		<g id="Layer8_19_FILL">
			<path fill="#BFBFBF" d="M532.7,308.6h-5.5l-2.8,4.8l2.8,4.8h5.5l2.8-4.8L532.7,308.6 M527.9,316.9l-2-3.5l2-3.5h4l2,3.5l-2,3.5
				H527.9z"/>
		</g>
	</g>
</g>
<g transform="matrix( 1, 0, 0, 1, -287.6,-198.6) ">
	<g>
		<g id="Layer8_19_FILL_2_">
			<path fill="#BFBFBF" d="M1010,516h-5.5l-2.8,4.8l2.8,4.8h5.5l2.8-4.8L1010,516 M1005.2,524.3l-2-3.5l2-3.5h4l2,3.5l-2,3.5H1005.2
				z"/>
		</g>
	</g>
</g>
<g transform="matrix( 1, 0, 0, 1, -287.6,-198.6) ">
	<g>
		<g id="Layer8_19_FILL_1_">
			<path fill="#BFBFBF" d="M824.4,580.8h-5.5l-2.8,4.8l2.8,4.8h5.5l2.8-4.8L824.4,580.8 M819.6,589.1l-2-3.5l2-3.5h4l2,3.5l-2,3.5
				H819.6z"/>
		</g>
	</g>
</g>
<circle fill="#1776BF" cx="161.6" cy="254.9" r="20.7"/>
<circle fill="#BAD80A" cx="194.9" cy="64.4" r="20.7"/>
<circle fill="#FF4200" cx="579.6" cy="212.7" r="20.7"/>
<circle fill="#0C3B60" cx="476.4" cy="133.8" r="20.7"/>
<path fill="none" stroke="#A6A6A6" stroke-miterlimit="10" d="M179.8,273.1c10-10,10-26.3,0-36.4"/>
<path fill="none" stroke="#A6A6A6" stroke-miterlimit="10" d="M143.4,236.8c-10,10-10,26.3,0,36.4"/>
<path fill="none" stroke="#A6A6A6" stroke-miterlimit="10" d="M169.4,64.4c0,14.1,11.4,25.6,25.6,25.6c14.1,0,25.6-11.4,25.6-25.6
	s-11.4-25.6-25.6-25.6"/>
<path fill="none" stroke="#A6A6A6" stroke-miterlimit="10" d="M561.2,231.1c10.2,10.2,26.6,10.2,36.8,0"/>
<path fill="none" stroke="#A6A6A6" stroke-miterlimit="10" d="M597.9,194.3c-10.2-10.2-26.6-10.2-36.8,0"/>
<path fill="none" stroke="#A6A6A6" stroke-miterlimit="10" d="M494.9,152.2c10.2-10.2,10.2-26.7,0-36.8"/>
<path fill="none" stroke="#A6A6A6" stroke-miterlimit="10" d="M458,115.3c-10.2,10.2-10.2,26.7,0,36.8"/>
<rect x="258.5" y="190" fill="#7BCAEF" width="239.8" height="132.8"/>
<g>
	
		<line fill="none" stroke="#FFFFFF" stroke-linecap="round" stroke-linejoin="round" stroke-miterlimit="10" x1="284" y1="214.9" x2="288.2" y2="214.9"/>
	
		<line fill="none" stroke="#FFFFFF" stroke-linecap="round" stroke-linejoin="round" stroke-miterlimit="10" x1="284" y1="267.3" x2="288.2" y2="267.3"/>
	
		<line fill="none" stroke="#FFFFFF" stroke-linecap="round" stroke-linejoin="round" stroke-miterlimit="10" x1="302.5" y1="267.3" x2="326.9" y2="267.3"/>
	
		<line fill="none" stroke="#FFFFFF" stroke-linecap="round" stroke-linejoin="round" stroke-miterlimit="10" x1="284" y1="297.2" x2="288.2" y2="297.2"/>
	
		<line fill="none" stroke="#FFFFFF" stroke-linecap="round" stroke-linejoin="round" stroke-miterlimit="10" x1="302.5" y1="297.2" x2="326.9" y2="297.2"/>
	
		<line fill="none" stroke="#FFFFFF" stroke-linecap="round" stroke-linejoin="round" stroke-miterlimit="10" x1="302.5" y1="222.3" x2="326.9" y2="222.3"/>
	
		<line fill="none" stroke="#FFFFFF" stroke-linecap="round" stroke-linejoin="round" stroke-miterlimit="10" x1="284" y1="222.3" x2="288.2" y2="222.3"/>
	
		<line fill="none" stroke="#FFFFFF" stroke-linecap="round" stroke-linejoin="round" stroke-miterlimit="10" x1="331.8" y1="222.3" x2="356.3" y2="222.3"/>
	
		<line fill="none" stroke="#FFFFFF" stroke-linecap="round" stroke-linejoin="round" stroke-miterlimit="10" x1="284" y1="289.8" x2="288.2" y2="289.8"/>
	
		<line fill="none" stroke="#FFFFFF" stroke-linecap="round" stroke-linejoin="round" stroke-miterlimit="10" x1="309.7" y1="289.8" x2="325.6" y2="289.8"/>
	
		<line fill="none" stroke="#FFFFFF" stroke-linecap="round" stroke-linejoin="round" stroke-miterlimit="10" x1="330.6" y1="289.8" x2="464" y2="289.8"/>
	
		<line fill="none" stroke="#FFFFFF" stroke-linecap="round" stroke-linejoin="round" stroke-miterlimit="10" x1="284" y1="282.3" x2="288.2" y2="282.3"/>
	
		<line fill="none" stroke="#FFFFFF" stroke-linecap="round" stroke-linejoin="round" stroke-miterlimit="10" x1="309.7" y1="282.3" x2="342.4" y2="282.3"/>
	
		<line fill="none" stroke="#FFFFFF" stroke-linecap="round" stroke-linejoin="round" stroke-miterlimit="10" x1="348" y1="282.3" x2="408.9" y2="282.3"/>
	
		<line fill="none" stroke="#FFFFFF" stroke-linecap="round" stroke-linejoin="round" stroke-miterlimit="10" x1="414.2" y1="282.3" x2="450.5" y2="282.3"/>
	
		<line fill="none" stroke="#FFFFFF" stroke-linecap="round" stroke-linejoin="round" stroke-miterlimit="10" x1="284" y1="244.8" x2="288.2" y2="244.8"/>
	
		<line fill="none" stroke="#FFFFFF" stroke-linecap="round" stroke-linejoin="round" stroke-miterlimit="10" x1="309.7" y1="244.8" x2="333.6" y2="244.8"/>
	
		<line fill="none" stroke="#FFFFFF" stroke-linecap="round" stroke-linejoin="round" stroke-miterlimit="10" x1="338.4" y1="244.8" x2="385.1" y2="244.8"/>
	
		<line fill="none" stroke="#FFFFFF" stroke-linecap="round" stroke-linejoin="round" stroke-miterlimit="10" x1="284" y1="259.8" x2="288.2" y2="259.8"/>
	
		<line fill="none" stroke="#FFFFFF" stroke-linecap="round" stroke-linejoin="round" stroke-miterlimit="10" x1="309.7" y1="259.8" x2="375.7" y2="259.8"/>
	
		<line fill="none" stroke="#FFFFFF" stroke-linecap="round" stroke-linejoin="round" stroke-miterlimit="10" x1="380.3" y1="259.8" x2="457" y2="259.8"/>
	
		<line fill="none" stroke="#FFFFFF" stroke-linecap="round" stroke-linejoin="round" stroke-miterlimit="10" x1="284" y1="229.8" x2="288.2" y2="229.8"/>
	
		<line fill="none" stroke="#FFFFFF" stroke-linecap="round" stroke-linejoin="round" stroke-miterlimit="10" x1="309.7" y1="229.8" x2="347.5" y2="229.8"/>
	
		<line fill="none" stroke="#FFFFFF" stroke-linecap="round" stroke-linejoin="round" stroke-miterlimit="10" x1="351.9" y1="229.8" x2="373" y2="229.8"/>
	
		<line fill="none" stroke="#FFFFFF" stroke-linecap="round" stroke-linejoin="round" stroke-miterlimit="10" x1="377.5" y1="229.8" x2="449.9" y2="229.8"/>
	
		<line fill="none" stroke="#FFFFFF" stroke-linecap="round" stroke-linejoin="round" stroke-miterlimit="10" x1="284" y1="252.3" x2="288.2" y2="252.3"/>
	
		<line fill="none" stroke="#FFFFFF" stroke-linecap="round" stroke-linejoin="round" stroke-miterlimit="10" x1="309.7" y1="252.3" x2="362" y2="252.3"/>
	
		<line fill="none" stroke="#FFFFFF" stroke-linecap="round" stroke-linejoin="round" stroke-miterlimit="10" x1="366.8" y1="252.3" x2="391.8" y2="252.3"/>
	
		<line fill="none" stroke="#FFFFFF" stroke-linecap="round" stroke-linejoin="round" stroke-miterlimit="10" x1="396.6" y1="252.3" x2="462.7" y2="252.3"/>
	
		<line fill="none" stroke="#FFFFFF" stroke-linecap="round" stroke-linejoin="round" stroke-miterlimit="10" x1="284" y1="237.3" x2="288.2" y2="237.3"/>
	
		<line fill="none" stroke="#FFFFFF" stroke-linecap="round" stroke-linejoin="round" stroke-miterlimit="10" x1="309.7" y1="237.3" x2="376.2" y2="237.3"/>
	
		<line fill="none" stroke="#FFFFFF" stroke-linecap="round" stroke-linejoin="round" stroke-miterlimit="10" x1="381.5" y1="237.3" x2="399.7" y2="237.3"/>
	
		<line fill="none" stroke="#FFFFFF" stroke-linecap="round" stroke-linejoin="round" stroke-miterlimit="10" x1="404.3" y1="237.3" x2="463.1" y2="237.3"/>
	
		<line fill="none" stroke="#FFFFFF" stroke-linecap="round" stroke-linejoin="round" stroke-miterlimit="10" x1="284" y1="274.8" x2="288.2" y2="274.8"/>
	
		<line fill="none" stroke="#FFFFFF" stroke-linecap="round" stroke-linejoin="round" stroke-miterlimit="10" x1="309.7" y1="274.8" x2="376.4" y2="274.8"/>
	
		<line fill="none" stroke="#FFFFFF" stroke-linecap="round" stroke-linejoin="round" stroke-miterlimit="10" x1="380.6" y1="274.8" x2="408.6" y2="274.8"/>
	
		<line fill="none" stroke="#FFFFFF" stroke-linecap="round" stroke-linejoin="round" stroke-miterlimit="10" x1="413.3" y1="274.8" x2="463.5" y2="274.8"/>
	<g>
		<polyline fill="none" stroke="#FFFFFF" stroke-linecap="round" stroke-linejoin="round" stroke-miterlimit="10" points="
			324,212.3 327.6,215.5 324,218.7 		"/>
		<polyline fill="none" stroke="#FFFFFF" stroke-linecap="round" stroke-linejoin="round" stroke-miterlimit="10" points="
			310.8,212.3 307.3,215.5 310.8,218.7 		"/>
		
			<line fill="none" stroke="#FFFFFF" stroke-linecap="round" stroke-linejoin="round" stroke-miterlimit="10" x1="320.6" y1="212.6" x2="314.1" y2="218.5"/>
	</g>
	<g>
		<polyline fill="none" stroke="#FFFFFF" stroke-linecap="round" stroke-linejoin="round" stroke-miterlimit="10" points="324,304 
			327.6,307.2 324,310.4 		"/>
		<polyline fill="none" stroke="#FFFFFF" stroke-linecap="round" stroke-linejoin="round" stroke-miterlimit="10" points="
			310.8,304 307.3,307.2 310.8,310.4 		"/>
		
			<line fill="none" stroke="#FFFFFF" stroke-linecap="round" stroke-linejoin="round" stroke-miterlimit="10" x1="320.6" y1="304.2" x2="314.1" y2="310.1"/>
	</g>
	
		<line fill="none" stroke="#FFFFFF" stroke-linecap="round" stroke-linejoin="round" stroke-miterlimit="10" x1="295.2" y1="211.6" x2="295.2" y2="311"/>
</g>
<rect x="258.6" y="190.3" fill="#CACACA" width="239.9" height="13.2"/>
<g>
	<g id="Layer6_0_FILL">
		<path fill="#FFFFFF" stroke="#000000" stroke-miterlimit="10" d="M508.8,184.5c0-1.7-0.6-3.1-1.8-4.4c-1.2-1.2-2.7-1.8-4.4-1.8
			H253.9c-1.6,0-3,0.6-4.1,1.8c-1.1,1.1-1.7,2.4-1.7,4v150.4h260.6L508.8,184.5 M498.4,190v132.8H258.6V190H498.4z"/>
	</g>
</g>
<path fill="none" stroke="#000000" stroke-miterlimit="10" d="M508.8,334.4H248.2V184.5c0-1.6,0.6-2.9,1.7-4
	c1.1-1.1,2.5-1.8,4.1-1.8h248.6c1.8,0,3.2,0.6,4.4,1.8c1.2,1.2,1.8,2.7,1.8,4.4L508.8,334.4L508.8,334.4z"/>
<rect x="258.6" y="190.4" fill="none" stroke="#000000" stroke-miterlimit="10" width="239.8" height="132.8"/>
<line fill="none" stroke="#000000" stroke-miterlimit="10" x1="258.7" y1="203.5" x2="498.5" y2="203.5"/>
<g>
	<circle fill="#FFFFFF" stroke="#000000" stroke-miterlimit="10" cx="464.4" cy="197.1" r="2.6"/>
	<circle fill="#FFFFFF" stroke="#000000" stroke-miterlimit="10" cx="486.1" cy="197.1" r="2.6"/>
	<circle fill="#FFFFFF" stroke="#000000" stroke-miterlimit="10" cx="475.3" cy="197.1" r="2.6"/>
</g>
<line fill="none" stroke="#000000" stroke-miterlimit="10" x1="295.8" y1="196.9" x2="355.5" y2="196.9"/>
<line fill="none" stroke="#000000" stroke-miterlimit="10" x1="279.8" y1="196.9" x2="289.6" y2="196.9"/>
<line fill="none" stroke="#000000" stroke-miterlimit="10" x1="265.3" y1="196.9" x2="274.4" y2="196.9"/>
<path fill="#FFFFFF" stroke="#A3A3A3" stroke-miterlimit="10" d="M508.6,194h20.9c5.3,0,9.6-4.3,9.6-9.6v-25.6
	c0-5.3,4.3-9.6,9.6-9.6h88.1"/>
<circle fill="#FFFFFF" stroke="#A3A3A3" stroke-miterlimit="10" cx="508.8" cy="194" r="2"/>
<path fill="none" stroke="#A3A3A3" stroke-miterlimit="10" d="M509,308h52.7c10,0,18.1-8.1,18.1-18.1v-52"/>
<circle fill="#FFFFFF" stroke="#A3A3A3" stroke-miterlimit="10" cx="508.9" cy="308" r="2"/>
<line fill="none" stroke="#A3A3A3" stroke-miterlimit="10" x1="508.8" y1="270.1" x2="611.4" y2="270.1"/>
<circle fill="#FFFFFF" stroke="#A3A3A3" stroke-miterlimit="10" cx="508.8" cy="270.1" r="2"/>
<circle fill="#FFFFFF" stroke="#A3A3A3" stroke-miterlimit="10" cx="579.8" cy="238.8" r="2"/>
<path fill="none" stroke="#A3A3A3" stroke-miterlimit="10" d="M248.3,310.1h-39.4c-3.3,0-6,2.7-6,6v10.5c0,3.3-2.7,6-6,6h-42l0,0"/>
<circle fill="#FFFFFF" stroke="#A3A3A3" stroke-miterlimit="10" cx="248.2" cy="310.2" r="2"/>
<line fill="#FFFFFF" stroke="#A3A3A3" stroke-miterlimit="10" x1="248.3" y1="263.8" x2="186.4" y2="263.8"/>
<circle fill="#FFFFFF" stroke="#A3A3A3" stroke-miterlimit="10" cx="248.2" cy="263.8" r="2"/>
<path fill="none" stroke="#A3A3A3" stroke-miterlimit="10" d="M248.2,211.7H110.5c-7.5,0-13.6-6.1-13.6-13.6v-10"/>
<circle fill="#FFFFFF" stroke="#A3A3A3" stroke-miterlimit="10" cx="248.2" cy="211.6" r="2"/>
<line fill="#FFFFFF" stroke="#A3A3A3" stroke-miterlimit="10" x1="354.6" y1="178.7" x2="354.6" y2="118.3"/>
<circle fill="#FFFFFF" stroke="#A3A3A3" stroke-miterlimit="10" cx="354.6" cy="178.5" r="2"/>
<path fill="none" stroke="#A3A3A3" stroke-miterlimit="10" d="M289.1,178.4V145c0-4.2-3.4-7.6-7.6-7.6h-78.1c-4.2,0-7.6-3.4-7.6-7.6
	V90"/>
<circle fill="#FFFFFF" stroke="#A3A3A3" stroke-miterlimit="10" cx="289.1" cy="178.6" r="2"/>
<path fill="#FFFFFF" stroke="#A3A3A3" stroke-miterlimit="10" d="M381.4,178.4v-38.1c0-3.6,2.9-6.5,6.5-6.5h62.4"/>
<circle fill="#FFFFFF" stroke="#A3A3A3" stroke-miterlimit="10" cx="381.4" cy="178.6" r="2"/>
<path fill="none" stroke="#A3A3A3" stroke-miterlimit="10" d="M424.3,178.3V85.4c0-10.4,8.5-18.9,18.9-18.9h65.2"/>
<circle fill="#FFFFFF" stroke="#A3A3A3" stroke-miterlimit="10" cx="424.3" cy="178.6" r="2"/>
<g transform="matrix( 1, 0, 0, 1, -287.6,-198.6) ">
	<g>
		<g id="Layer6_1_FILL">
			<path fill="#CACACA" d="M820.1,539.5v-6.5H512.2v6.4c0,1.9,0.6,3.5,2,4.9c1.4,1.4,3.1,2,5,2h294c1.8,0,3.5-0.6,4.9-2
				C819.4,543.1,820.1,541.4,820.1,539.5z"/>
		</g>
	</g>
	<g>
		<path id="Layer6_1_1_STROKES" fill="none" stroke="#000000" stroke-miterlimit="10" d="M820.1,533.1H512.2v6.4
			c0,1.9,0.6,3.5,2,4.9c1.4,1.4,3.1,2,5,2h294c1.8,0,3.5-0.6,4.9-2c1.3-1.3,2-3,2-4.9L820.1,533.1L820.1,533.1z"/>
	</g>
</g>
<g transform="matrix( 1, 0, 0, 1, -287.6,-198.6) ">
	<g>
		<path id="Layer6_2_1_STROKES" fill="none" stroke="#000000" stroke-miterlimit="10" d="M820,540.9H512.3"/>
	</g>
</g>
<path fill="none" stroke="#A6A6A6" stroke-miterlimit="10" d="M553,24.5c-24.3,0-44,19.7-44,44s19.7,44,44,44c24.3,0,44-19.7,44-44"
	/>
<path fill="none" stroke="#A6A6A6" stroke-miterlimit="10" d="M723.4,139.5c0-24.3-19.7-44-44-44c-24.3,0-44,19.7-44,44
	s19.7,44,44,44"/>
<path fill="none" stroke="#A6A6A6" stroke-miterlimit="10" d="M68.4,321c0,24.3,19.7,44,44,44s44-19.7,44-44c0-24.3-19.7-44-44-44"
	/>
<path fill="none" stroke="#A6A6A6" stroke-miterlimit="10" d="M95.2,78.9c-30.1,0-54.6,24.4-54.6,54.6S65,188,95.2,188
	s54.6-24.4,54.6-54.6"/>
<path fill="none" stroke="#A6A6A6" stroke-miterlimit="10" d="M661.6,228.8c-28.6,0-51.7,23.2-51.7,51.7s23.2,51.7,51.7,51.7
	s51.7-23.2,51.7-51.7"/>
<circle fill="#FFFFFF" stroke="#A3A3A3" stroke-miterlimit="10" cx="636.3" cy="149" r="2"/>
<circle fill="#FFFFFF" stroke="#A3A3A3" stroke-miterlimit="10" cx="508.8" cy="66.5" r="2"/>
<circle fill="#FFFFFF" stroke="#A3A3A3" stroke-miterlimit="10" cx="450.3" cy="133.8" r="2"/>
<circle fill="#FFFFFF" stroke="#A3A3A3" stroke-miterlimit="10" cx="97" cy="188.2" r="2"/>
<circle fill="#FFFFFF" stroke="#A3A3A3" stroke-miterlimit="10" cx="186" cy="263.7" r="2"/>
<circle fill="#FFFFFF" stroke="#A3A3A3" stroke-miterlimit="10" cx="155.1" cy="332.5" r="2"/>
<circle fill="#FFFFFF" stroke="#A3A3A3" stroke-miterlimit="10" cx="195.9" cy="90.1" r="2"/>
<circle fill="#FFFFFF" stroke="#A3A3A3" stroke-miterlimit="10" cx="354.6" cy="118.5" r="2"/>
<circle fill="#FFFFFF" stroke="#A3A3A3" stroke-miterlimit="10" cx="610.8" cy="270.1" r="2"/>
<path opacity="0.14" d="M609.2,134c-0.2-9.8-8.2-17.7-18.1-17.7c-5.7,0-10.8,2.7-14.1,6.8c-1.3-2.5-4-4.2-7-4.2
	c-3.7,0-6.9,2.6-7.7,6.1c-1.2-0.5-2.5-0.7-3.8-0.7c-2.1,0-4,0.6-5.6,1.7c-2.3-2.3-5.5-3.7-9-3.7c-5.4,0-10,3.3-11.8,8
	c-1.1-1.2-2.7-1.9-4.5-1.9c-3.2,0-5.9,2.5-6.1,5.7H609.2z"/>
<g>
	<polyline fill="none" stroke="#FFFFFF" stroke-linecap="round" stroke-linejoin="round" stroke-miterlimit="10" points="
		572.2,219.6 568,216.3 563.8,212.9 568,209.6 572.2,206.3 	"/>
	<polyline fill="none" stroke="#FFFFFF" stroke-linecap="round" stroke-linejoin="round" stroke-miterlimit="10" points="
		586.5,219.6 590.7,216.3 594.9,212.9 590.7,209.6 586.5,206.3 	"/>
	
		<line fill="none" stroke="#FFFFFF" stroke-linecap="round" stroke-linejoin="round" stroke-miterlimit="10" x1="582.6" y1="202.5" x2="576.6" y2="223.3"/>
</g>
<g>
	<polyline fill="none" stroke="#0899CC" stroke-miterlimit="10" points="187.7,70.1 183.5,66.8 179.3,63.4 183.5,60.1 187.7,56.8 	
		"/>
	<polyline fill="none" stroke="#0899CC" stroke-miterlimit="10" points="202,70.1 206.2,66.8 210.4,63.4 206.2,60.1 202,56.8 	"/>
	<line fill="none" stroke="#0899CC" stroke-miterlimit="10" x1="198.1" y1="53" x2="192.1" y2="73.8"/>
</g>
<g>
	<polyline fill="none" stroke="#2C538A" stroke-miterlimit="10" points="523.5,79.9 521.3,83.7 523.5,87.4 	"/>
	<polyline fill="none" stroke="#2C538A" stroke-miterlimit="10" points="585.8,51 588,54.8 585.8,58.5 	"/>
	<path fill="none" stroke="#2C538A" stroke-miterlimit="10" d="M544.3,82.1h-15.4c-0.9,0-1.6,0.7-1.6,1.6v0c0,0.9,0.7,1.6,1.6,1.6
		h15.4c0.9,0,1.6-0.7,1.6-1.6v0C545.8,82.8,545.1,82.1,544.3,82.1z"/>
	<path fill="none" stroke="#2C538A" stroke-miterlimit="10" d="M561.4,74.6h-27.2c-0.9,0-1.6,0.7-1.6,1.6v0c0,0.9,0.7,1.6,1.6,1.6
		h27.2c0.9,0,1.6-0.7,1.6-1.6v0C562.9,75.3,562.2,74.6,561.4,74.6z"/>
	<path fill="none" stroke="#2C538A" stroke-miterlimit="10" d="M575.7,74.6h-8.5c-0.9,0-1.6,0.7-1.6,1.6l0,0c0,0.9,0.7,1.6,1.6,1.6
		h8.5c0.9,0,1.6-0.7,1.6-1.6l0,0C577.3,75.3,576.6,74.6,575.7,74.6z"/>
	<path fill="none" stroke="#2C538A" stroke-miterlimit="10" d="M532.1,67.9H529c-0.9,0-1.6,0.7-1.6,1.6l0,0c0,0.9,0.7,1.6,1.6,1.6
		h3.1c0.9,0,1.6-0.7,1.6-1.6l0,0C533.7,68.6,533,67.9,532.1,67.9z"/>
	<path fill="none" stroke="#2C538A" stroke-miterlimit="10" d="M567,67.9h-28.6c-0.9,0-1.6,0.7-1.6,1.6l0,0c0,0.9,0.7,1.6,1.6,1.6
		H567c0.9,0,1.6-0.7,1.6-1.6l0,0C568.6,68.6,567.9,67.9,567,67.9z"/>
	<path fill="none" stroke="#2C538A" stroke-miterlimit="10" d="M560.8,60.2h-23.4c-0.9,0-1.6,0.7-1.6,1.6v0c0,0.9,0.7,1.6,1.6,1.6
		h23.4c0.9,0,1.6-0.7,1.6-1.6v0C562.4,60.9,561.7,60.2,560.8,60.2z"/>
	<path fill="none" stroke="#2C538A" stroke-miterlimit="10" d="M541.1,53.2H529c-0.9,0-1.6,0.7-1.6,1.6v0c0,0.9,0.7,1.6,1.6,1.6
		h12.1c0.9,0,1.6-0.7,1.6-1.6v0C542.7,53.9,542,53.2,541.1,53.2z"/>
	<path fill="none" stroke="#2C538A" stroke-miterlimit="10" d="M580.3,53.2H548c-0.9,0-1.6,0.7-1.6,1.6v0c0,0.9,0.7,1.6,1.6,1.6
		h32.4c0.9,0,1.6-0.7,1.6-1.6v0C581.9,53.9,581.2,53.2,580.3,53.2z"/>
	<path fill="none" stroke="#2C538A" stroke-miterlimit="10" d="M576.3,60.2h-8.8c-0.9,0-1.6,0.7-1.6,1.6v0c0,0.9,0.7,1.6,1.6,1.6
		h8.8c0.9,0,1.6-0.7,1.6-1.6v0C577.8,60.9,577.1,60.2,576.3,60.2z"/>
	<path fill="none" stroke="#2C538A" stroke-miterlimit="10" d="M571.8,82.1h-19c-0.9,0-1.6,0.7-1.6,1.6v0c0,0.9,0.7,1.6,1.6,1.6h19
		c0.9,0,1.6-0.7,1.6-1.6v0C573.4,82.8,572.7,82.1,571.8,82.1z"/>
</g>
<g>
	<polyline fill="none" stroke="#FF4200" stroke-miterlimit="10" points="134.3,110.2 136.8,106.4 134.3,102.7 	"/>
	<polyline fill="none" stroke="#FF4200" stroke-miterlimit="10" points="63.1,161 60.6,157.2 63.1,153.4 	"/>
	<path fill="none" stroke="#FF4200" stroke-miterlimit="10" d="M110.9,108h17.7c0.9,0,1.6-0.7,1.6-1.6v0c0-0.9-0.7-1.6-1.6-1.6
		h-17.7c-0.9,0-1.6,0.7-1.6,1.6l0,0C109.3,107.3,110,108,110.9,108z"/>
	<path fill="none" stroke="#FF4200" stroke-miterlimit="10" d="M72.4,115.5h50.1c0.9,0,1.6-0.7,1.6-1.6l0,0c0-0.9-0.7-1.6-1.6-1.6
		H72.4c-0.9,0-1.6,0.7-1.6,1.6l0,0C70.8,114.8,71.5,115.5,72.4,115.5z"/>
	<path fill="none" stroke="#FF4200" stroke-miterlimit="10" d="M120.3,122.3h8.1c0.9,0,1.6-0.7,1.6-1.6v0c0-0.9-0.7-1.6-1.6-1.6
		h-8.1c-0.9,0-1.6,0.7-1.6,1.6v0C118.7,121.6,119.4,122.3,120.3,122.3z"/>
	<path fill="none" stroke="#FF4200" stroke-miterlimit="10" d="M85.3,122.3h28.2c0.9,0,1.6-0.7,1.6-1.6v0c0-0.9-0.7-1.6-1.6-1.6
		H85.3c-0.9,0-1.6,0.7-1.6,1.6v0C83.7,121.6,84.4,122.3,85.3,122.3z"/>
	<path fill="none" stroke="#FF4200" stroke-miterlimit="10" d="M92.3,130.1h26.6c0.9,0,1.6-0.7,1.6-1.6l0,0c0-0.9-0.7-1.6-1.6-1.6
		H92.3c-0.9,0-1.6,0.7-1.6,1.6l0,0C90.7,129.3,91.4,130.1,92.3,130.1z"/>
	<path fill="none" stroke="#FF4200" stroke-miterlimit="10" d="M96.7,137.1H113c0.9,0,1.6-0.7,1.6-1.6v0c0-0.9-0.7-1.6-1.6-1.6H96.7
		c-0.9,0-1.6,0.7-1.6,1.6v0C95.1,136.4,95.8,137.1,96.7,137.1z"/>
	<path fill="none" stroke="#FF4200" stroke-miterlimit="10" d="M66.2,137.1h19c0.9,0,1.6-0.7,1.6-1.6v0c0-0.9-0.7-1.6-1.6-1.6h-19
		c-0.9,0-1.6,0.7-1.6,1.6v0C64.6,136.4,65.3,137.1,66.2,137.1z"/>
	<path fill="none" stroke="#FF4200" stroke-miterlimit="10" d="M66.2,144.3h10.6c0.9,0,1.6-0.7,1.6-1.6l0,0c0-0.9-0.7-1.6-1.6-1.6
		H66.2c-0.9,0-1.6,0.7-1.6,1.6l0,0C64.6,143.6,65.3,144.3,66.2,144.3z"/>
	<path fill="none" stroke="#FF4200" stroke-miterlimit="10" d="M84,144.3h16c0.9,0,1.6-0.7,1.6-1.6l0,0c0-0.9-0.7-1.6-1.6-1.6H84
		c-0.9,0-1.6,0.7-1.6,1.6l0,0C82.4,143.6,83.1,144.3,84,144.3z"/>
	<g>
		<path fill="none" stroke="#FF4200" stroke-miterlimit="10" d="M89,158.8h20.9c0.9,0,1.6-0.7,1.6-1.6l0,0c0-0.9-0.7-1.6-1.6-1.6H89
			c-0.9,0-1.6,0.7-1.6,1.6l0,0C87.4,158.1,88.1,158.8,89,158.8z"/>
		<path fill="none" stroke="#FF4200" stroke-miterlimit="10" d="M69.3,158.8h12c0.9,0,1.6-0.7,1.6-1.6l0,0c0-0.9-0.7-1.6-1.6-1.6
			h-12c-0.9,0-1.6,0.7-1.6,1.6l0,0C67.7,158.1,68.4,158.8,69.3,158.8z"/>
	</g>
	<path fill="none" stroke="#FF4200" stroke-miterlimit="10" d="M107,144.3h21.2c0.9,0,1.6-0.7,1.6-1.6l0,0c0-0.9-0.7-1.6-1.6-1.6
		H107c-0.9,0-1.6,0.7-1.6,1.6l0,0C105.4,143.6,106.1,144.3,107,144.3z"/>
	<path fill="none" stroke="#FF4200" stroke-miterlimit="10" d="M127,151.9h0.6c0.9,0,1.6-0.7,1.6-1.6l0,0c0-0.9-0.7-1.6-1.6-1.6H127
		c-0.9,0-1.6,0.7-1.6,1.6l0,0C125.4,151.2,126.2,151.9,127,151.9z"/>
	<path fill="none" stroke="#FF4200" stroke-miterlimit="10" d="M82.5,151.9h0.6c0.9,0,1.6-0.7,1.6-1.6l0,0c0-0.9-0.7-1.6-1.6-1.6
		h-0.6c-0.9,0-1.6,0.7-1.6,1.6l0,0C80.9,151.2,81.6,151.9,82.5,151.9z"/>
	<path fill="none" stroke="#FF4200" stroke-miterlimit="10" d="M93.7,151.9h27c0.9,0,1.6-0.7,1.6-1.6l0,0c0-0.9-0.7-1.6-1.6-1.6h-27
		c-0.9,0-1.6,0.7-1.6,1.6l0,0C92.1,151.2,92.8,151.9,93.7,151.9z"/>
	<path fill="none" stroke="#FF4200" stroke-miterlimit="10" d="M60.8,130.1h19.1c0.9,0,1.6-0.7,1.6-1.6l0,0c0-0.9-0.7-1.6-1.6-1.6
		H60.8c-0.9,0-1.6,0.7-1.6,1.6l0,0C59.2,129.3,59.9,130.1,60.8,130.1z"/>
	<path fill="none" stroke="#FF4200" stroke-miterlimit="10" d="M79.9,108h21.7c0.9,0,1.6-0.7,1.6-1.6l0,0c0-0.9-0.7-1.6-1.6-1.6
		H79.9c-0.9,0-1.6,0.7-1.6,1.6v0C78.3,107.3,79.1,108,79.9,108z"/>
</g>
<g>
	<g>
		<line fill="none" stroke="#1776BF" stroke-miterlimit="10" x1="85.4" y1="318.7" x2="138" y2="318.7"/>
		<line fill="none" stroke="#1776BF" stroke-miterlimit="10" x1="85.4" y1="312.1" x2="138" y2="312.1"/>
		<g>
			<line fill="none" stroke="#1776BF" stroke-miterlimit="10" x1="98.5" y1="325.3" x2="138" y2="325.3"/>
			<line fill="none" stroke="#1776BF" stroke-miterlimit="10" x1="85.4" y1="325.3" x2="90.5" y2="325.3"/>
		</g>
	</g>
	<g>
		<line fill="none" stroke="#1776BF" stroke-miterlimit="10" x1="85.4" y1="337.7" x2="138" y2="337.7"/>
		<line fill="none" stroke="#1776BF" stroke-miterlimit="10" x1="85.4" y1="331.2" x2="138" y2="331.2"/>
		<g>
			<line fill="none" stroke="#1776BF" stroke-miterlimit="10" x1="98.5" y1="344.3" x2="138" y2="344.3"/>
			<line fill="none" stroke="#1776BF" stroke-miterlimit="10" x1="85.4" y1="344.3" x2="90.5" y2="344.3"/>
		</g>
	</g>
	<g>
		<line fill="none" stroke="#1776BF" stroke-miterlimit="10" x1="113.5" y1="289.7" x2="107.6" y2="307.2"/>
		<polyline fill="none" stroke="#1776BF" stroke-miterlimit="10" points="116.5,294.7 126,298.6 116.5,302.5 		"/>
		<polyline fill="none" stroke="#1776BF" stroke-miterlimit="10" points="105.5,294.7 95.9,298.6 105.5,302.5 		"/>
	</g>
</g>
<g>
	<g>
		<line fill="none" stroke="#BAD727" stroke-miterlimit="10" x1="651.3" y1="128.5" x2="707.7" y2="128.5"/>
		<line fill="none" stroke="#BAD727" stroke-miterlimit="10" x1="651.3" y1="122.1" x2="707.7" y2="122.1"/>
		<g>
			<line fill="none" stroke="#BAD727" stroke-miterlimit="10" x1="667" y1="135" x2="707.7" y2="135"/>
			<line fill="none" stroke="#BAD727" stroke-miterlimit="10" x1="651.3" y1="135" x2="659.2" y2="135"/>
		</g>
	</g>
	<g>
		<line fill="none" stroke="#BAD727" stroke-miterlimit="10" x1="651.3" y1="147.2" x2="707.7" y2="147.2"/>
		<line fill="none" stroke="#BAD727" stroke-miterlimit="10" x1="651.3" y1="140.7" x2="707.7" y2="140.7"/>
		<g>
			<line fill="none" stroke="#BAD727" stroke-miterlimit="10" x1="667" y1="153.7" x2="707.7" y2="153.7"/>
			<line fill="none" stroke="#BAD727" stroke-miterlimit="10" x1="651.3" y1="153.7" x2="659.2" y2="153.7"/>
		</g>
	</g>
	<g>
		<polyline fill="none" stroke="#BAD727" stroke-miterlimit="10" points="684.5,107.9 676.2,111.3 684.5,114.7 		"/>
	</g>
	<g>
		<line fill="none" stroke="#BAD727" stroke-miterlimit="10" x1="681.5" y1="159.7" x2="676.3" y2="175"/>
		<polyline fill="none" stroke="#BAD727" stroke-miterlimit="10" points="684,164.1 692.4,167.6 684,171 		"/>
	</g>
</g>
<g>
	<line fill="none" stroke="#FF4200" stroke-miterlimit="10" x1="644.3" y1="286.5" x2="677.8" y2="286.5"/>
	<line fill="none" stroke="#FF4200" stroke-miterlimit="10" x1="644.3" y1="281.6" x2="677.8" y2="281.6"/>
	<line fill="none" stroke="#FF4200" stroke-miterlimit="10" x1="653.7" y1="291.7" x2="677.8" y2="291.7"/>
	<line fill="none" stroke="#FF4200" stroke-miterlimit="10" x1="644.3" y1="291.7" x2="649" y2="291.7"/>
	<g>
		<line fill="none" stroke="#FF4200" stroke-miterlimit="10" x1="663.2" y1="262.1" x2="658.5" y2="276"/>
		<polyline fill="none" stroke="#FF4200" stroke-miterlimit="10" points="665.5,266.1 673.1,269.2 665.5,272.3 		"/>
		<polyline fill="none" stroke="#FF4200" stroke-miterlimit="10" points="656.8,266.1 649.2,269.2 656.8,272.3 		"/>
	</g>
	<line fill="none" stroke="#FF4200" stroke-miterlimit="10" x1="638.7" y1="256.8" x2="685.3" y2="256.8"/>
	<g>
		<circle fill="none" stroke="#FF4200" stroke-miterlimit="10" cx="643.1" cy="253.3" r="0.9"/>
		<circle fill="none" stroke="#FF4200" stroke-miterlimit="10" cx="646.7" cy="253.3" r="0.9"/>
		<circle fill="none" stroke="#FF4200" stroke-miterlimit="10" cx="650.4" cy="253.3" r="0.9"/>
	</g>
	<path fill="none" stroke="#FF4200" stroke-miterlimit="10" d="M638.3,298.5v-46.2c0-1.5,1.3-2.8,2.8-2.8h41.6
		c1.5,0,2.8,1.3,2.8,2.8v46.2"/>
	<path fill="none" stroke="#FF4200" stroke-miterlimit="10" d="M685.5,261.7h6.8c1.2,0,2.2,1,2.2,2.2v34.6"/>
	<path fill="none" stroke="#FF4200" stroke-miterlimit="10" d="M629,298.5v-34.6c0-1.2,1-2.2,2.2-2.2h7.2"/>
	<path fill="none" stroke="#FF4200" stroke-miterlimit="10" d="M685.5,265.7h4.1c0.5,0,1,0.4,1,1v32"/>
	<path fill="none" stroke="#FF4200" stroke-miterlimit="10" d="M632.9,298.6v-32c0-0.5,0.4-1,1-1h4.5"/>
	<path fill="none" stroke="#FF4200" stroke-miterlimit="10" d="M695.7,302.5h-67.8c-2,0-3.6-1.6-3.6-3.6v-0.3h75v0.3
		C699.2,300.9,697.6,302.5,695.7,302.5z"/>
	<g>
		<line fill="none" stroke="#FF4200" stroke-miterlimit="10" x1="682.9" y1="306.3" x2="688.5" y2="306.3"/>
		<line fill="none" stroke="#FF4200" stroke-miterlimit="10" x1="679" y1="306.3" x2="680" y2="306.3"/>
		<line fill="none" stroke="#FF4200" stroke-miterlimit="10" x1="662.5" y1="306.3" x2="675.1" y2="306.3"/>
		<line fill="none" stroke="#FF4200" stroke-miterlimit="10" x1="635.3" y1="306.3" x2="658.1" y2="306.3"/>
	</g>
</g>
<g>
	<g>
		<polyline fill="none" stroke="#0899CC" stroke-miterlimit="10" points="393.7,109.1 396.1,111.9 393.7,114.7 		"/>
		<polyline fill="none" stroke="#0899CC" stroke-miterlimit="10" points="327.4,70.8 325,73.6 327.4,76.4 		"/>
		<g>
			<path fill="none" stroke="#0899CC" stroke-miterlimit="10" d="M353.6,104.4H386c0.5,0,0.8,0.4,0.8,0.8v0.7c0,0.5-0.4,0.8-0.8,0.8
				h-32.4c-0.5,0-0.8-0.4-0.8-0.8v-0.7C352.8,104.8,353.2,104.4,353.6,104.4z"/>
			<path fill="none" stroke="#0899CC" stroke-miterlimit="10" d="M331.7,104.4h17.5c0.5,0,0.8,0.4,0.8,0.8v0.7
				c0,0.5-0.4,0.8-0.8,0.8h-17.5c-0.5,0-0.8-0.4-0.8-0.8v-0.7C330.9,104.8,331.2,104.4,331.7,104.4z"/>
		</g>
		<g>
			<path fill="none" stroke="#0899CC" stroke-miterlimit="10" d="M386.9,98.1h3.1c0.5,0,0.8,0.4,0.8,0.8v0.7c0,0.5-0.4,0.8-0.8,0.8
				h-3.1c-0.5,0-0.8-0.4-0.8-0.8v-0.7C386,98.5,386.4,98.1,386.9,98.1z"/>
			<path fill="none" stroke="#0899CC" stroke-miterlimit="10" d="M331.4,98.1h34.5c0.5,0,0.8,0.4,0.8,0.8v0.7c0,0.5-0.4,0.8-0.8,0.8
				h-34.5c-0.5,0-0.8-0.4-0.8-0.8v-0.7C330.5,98.5,330.9,98.1,331.4,98.1z"/>
			<path fill="none" stroke="#0899CC" stroke-miterlimit="10" d="M370.2,98.1h12.6c0.5,0,0.8,0.4,0.8,0.8v0.7c0,0.5-0.4,0.8-0.8,0.8
				h-12.6c-0.5,0-0.8-0.4-0.8-0.8v-0.7C369.4,98.5,369.8,98.1,370.2,98.1z"/>
		</g>
		<g>
			<path fill="none" stroke="#0899CC" stroke-miterlimit="10" d="M352.9,79.1H386c0.5,0,0.8,0.4,0.8,0.8v0.7c0,0.5-0.4,0.8-0.8,0.8
				h-33.2c-0.5,0-0.8-0.4-0.8-0.8v-0.7C352,79.4,352.4,79.1,352.9,79.1z"/>
			<path fill="none" stroke="#0899CC" stroke-miterlimit="10" d="M331.7,79.1h16.8c0.5,0,0.8,0.4,0.8,0.8v0.7c0,0.5-0.4,0.8-0.8,0.8
				h-16.8c-0.5,0-0.8-0.4-0.8-0.8v-0.7C330.9,79.4,331.2,79.1,331.7,79.1z"/>
		</g>
		<g>
			<path fill="none" stroke="#0899CC" stroke-miterlimit="10" d="M386.9,72.7h3.1c0.5,0,0.8,0.4,0.8,0.8v0.7c0,0.5-0.4,0.8-0.8,0.8
				h-3.1c-0.5,0-0.8-0.4-0.8-0.8v-0.7C386,73.1,386.4,72.7,386.9,72.7z"/>
			<path fill="none" stroke="#0899CC" stroke-miterlimit="10" d="M331.4,72.7h34.5c0.5,0,0.8,0.4,0.8,0.8v0.7c0,0.5-0.4,0.8-0.8,0.8
				h-34.5c-0.5,0-0.8-0.4-0.8-0.8v-0.7C330.5,73.1,330.9,72.7,331.4,72.7z"/>
			<path fill="none" stroke="#0899CC" stroke-miterlimit="10" d="M370.2,72.7h12.6c0.5,0,0.8,0.4,0.8,0.8v0.7c0,0.5-0.4,0.8-0.8,0.8
				h-12.6c-0.5,0-0.8-0.4-0.8-0.8v-0.7C369.4,73.1,369.8,72.7,370.2,72.7z"/>
		</g>
		<g>
			<path fill="none" stroke="#0899CC" stroke-miterlimit="10" d="M375.3,85.5h14.6c0.5,0,0.8,0.4,0.8,0.8V87c0,0.5-0.4,0.8-0.8,0.8
				h-14.6c-0.5,0-0.8-0.4-0.8-0.8v-0.7C374.5,85.8,374.8,85.5,375.3,85.5z"/>
			<path fill="none" stroke="#0899CC" stroke-miterlimit="10" d="M331.1,85.5h39.8c0.5,0,0.8,0.4,0.8,0.8V87c0,0.5-0.4,0.8-0.8,0.8
				h-39.8c-0.5,0-0.8-0.4-0.8-0.8v-0.7C330.3,85.8,330.6,85.5,331.1,85.5z"/>
		</g>
		<g>
			<path fill="none" stroke="#0899CC" stroke-miterlimit="10" d="M353.2,91.8h30.4c0.5,0,0.8,0.4,0.8,0.8v0.7c0,0.5-0.4,0.8-0.8,0.8
				h-30.4c-0.5,0-0.8-0.4-0.8-0.8v-0.7C352.4,92.1,352.8,91.8,353.2,91.8z"/>
			<path fill="none" stroke="#0899CC" stroke-miterlimit="10" d="M331.3,91.8H349c0.5,0,0.8,0.4,0.8,0.8v0.7c0,0.5-0.4,0.8-0.8,0.8
				h-17.7c-0.5,0-0.8-0.4-0.8-0.8v-0.7C330.4,92.1,330.8,91.8,331.3,91.8z"/>
		</g>
		<g>
			<path fill="none" stroke="#0899CC" stroke-miterlimit="10" d="M373,110.8h17.1c0.5,0,0.8,0.4,0.8,0.8v0.7c0,0.5-0.4,0.8-0.8,0.8
				H373c-0.5,0-0.8-0.4-0.8-0.8v-0.7C372.1,111.1,372.5,110.8,373,110.8z"/>
			<path fill="none" stroke="#0899CC" stroke-miterlimit="10" d="M331.5,110.8h35.7c0.5,0,0.8,0.4,0.8,0.8v0.7
				c0,0.5-0.4,0.8-0.8,0.8h-35.7c-0.5,0-0.8-0.4-0.8-0.8v-0.7C330.7,111.1,331.1,110.8,331.5,110.8z"/>
		</g>
	</g>
	<g>
		<path fill="none" stroke="#0899CC" stroke-miterlimit="10" d="M306.3,41.7h3.3c0.5,0,0.9,0.4,0.9,0.9v0.8c0,0.5-0.4,0.9-0.9,0.9
			h-3.3c-0.5,0-0.9-0.4-0.9-0.9v-0.8C305.4,42.1,305.8,41.7,306.3,41.7z"/>
		<path fill="none" stroke="#0899CC" stroke-miterlimit="10" d="M306.3,50h3.3c0.5,0,0.9,0.4,0.9,0.9v0.8c0,0.5-0.4,0.9-0.9,0.9
			h-3.3c-0.5,0-0.9-0.4-0.9-0.9v-0.8C305.4,50.4,305.8,50,306.3,50z"/>
		<path fill="none" stroke="#0899CC" stroke-miterlimit="10" d="M306.3,58.3h3.3c0.5,0,0.9,0.4,0.9,0.9V60c0,0.5-0.4,0.9-0.9,0.9
			h-3.3c-0.5,0-0.9-0.4-0.9-0.9v-0.8C305.4,58.7,305.8,58.3,306.3,58.3z"/>
	</g>
	<path fill="none" stroke="#0899CC" stroke-miterlimit="10" d="M306.3,74.9h3.3c0.5,0,0.9,0.4,0.9,0.9v0.8c0,0.5-0.4,0.9-0.9,0.9
		h-3.3c-0.5,0-0.9-0.4-0.9-0.9v-0.8C305.4,75.3,305.8,74.9,306.3,74.9z"/>
	<g>
		<path fill="none" stroke="#0899CC" stroke-miterlimit="10" d="M306.3,91.4h3.3c0.5,0,0.9,0.4,0.9,0.9v0.8c0,0.5-0.4,0.9-0.9,0.9
			h-3.3c-0.5,0-0.9-0.4-0.9-0.9v-0.8C305.4,91.8,305.8,91.4,306.3,91.4z"/>
		<path fill="none" stroke="#0899CC" stroke-miterlimit="10" d="M306.3,99.8h3.3c0.5,0,0.9,0.4,0.9,0.9v0.8c0,0.5-0.4,0.9-0.9,0.9
			h-3.3c-0.5,0-0.9-0.4-0.9-0.9v-0.8C305.4,100.2,305.8,99.8,306.3,99.8z"/>
		<path fill="none" stroke="#0899CC" stroke-miterlimit="10" d="M306.3,108.1h3.3c0.5,0,0.9,0.4,0.9,0.9v0.8c0,0.5-0.4,0.9-0.9,0.9
			h-3.3c-0.5,0-0.9-0.4-0.9-0.9V109C305.4,108.5,305.8,108.1,306.3,108.1z"/>
	</g>
	<line fill="none" stroke="#0899CC" stroke-miterlimit="10" x1="299.5" y1="34.3" x2="404" y2="34.3"/>
	<g>
		<circle fill="none" stroke="#0899CC" stroke-miterlimit="10" cx="307.2" cy="28.1" r="1.5"/>
		<circle fill="none" stroke="#0899CC" stroke-miterlimit="10" cx="313.6" cy="28.1" r="1.5"/>
		<circle fill="none" stroke="#0899CC" stroke-miterlimit="10" cx="319.9" cy="28.1" r="1.5"/>
	</g>
	<line fill="none" stroke="#0899CC" stroke-miterlimit="10" x1="316.3" y1="34.6" x2="316.3" y2="115.9"/>
	<g>
		<rect x="324.5" y="47.3" fill="none" stroke="#0899CC" stroke-miterlimit="10" width="8.1" height="16.4"/>
		<rect x="335.7" y="54.5" fill="none" stroke="#0899CC" stroke-miterlimit="10" width="8.1" height="9.2"/>
		<rect x="346.8" y="51" fill="none" stroke="#0899CC" stroke-miterlimit="10" width="8.1" height="12.7"/>
		<rect x="358" y="45.4" fill="none" stroke="#0899CC" stroke-miterlimit="10" width="8.1" height="18.3"/>
		<rect x="369.1" y="57" fill="none" stroke="#0899CC" stroke-miterlimit="10" width="8.1" height="6.7"/>
		<rect x="380.2" y="41.5" fill="none" stroke="#0899CC" stroke-miterlimit="10" width="8.1" height="22.1"/>
		<rect x="391.4" y="51.3" fill="none" stroke="#0899CC" stroke-miterlimit="10" width="8.1" height="12.4"/>
	</g>
	<line fill="none" stroke="#0899CC" stroke-miterlimit="10" x1="299" y1="67.9" x2="316.2" y2="67.9"/>
	<line fill="none" stroke="#0899CC" stroke-miterlimit="10" x1="299" y1="84.6" x2="316.2" y2="84.6"/>
</g>
<g>
	
		<line fill="none" stroke="#FFFFFF" stroke-linecap="round" stroke-linejoin="round" stroke-miterlimit="10" x1="148.5" y1="243.6" x2="148.5" y2="247.2"/>
	
		<line fill="none" stroke="#FFFFFF" stroke-linecap="round" stroke-linejoin="round" stroke-miterlimit="10" x1="159.2" y1="243.6" x2="159.2" y2="247.2"/>
	
		<line fill="none" stroke="#FFFFFF" stroke-linecap="round" stroke-linejoin="round" stroke-miterlimit="10" x1="155.6" y1="252.5" x2="155.6" y2="256.1"/>
	
		<line fill="none" stroke="#FFFFFF" stroke-linecap="round" stroke-linejoin="round" stroke-miterlimit="10" x1="159.2" y1="252.5" x2="159.2" y2="256.1"/>
	
		<rect x="152" y="243.6" fill="none" stroke="#FFFFFF" stroke-linecap="round" stroke-linejoin="round" stroke-miterlimit="10" width="3.6" height="3.6"/>
	
		<rect x="148.5" y="252.5" fill="none" stroke="#FFFFFF" stroke-linecap="round" stroke-linejoin="round" stroke-miterlimit="10" width="3.6" height="3.6"/>
	
		<rect x="155.6" y="261.5" fill="none" stroke="#FFFFFF" stroke-linecap="round" stroke-linejoin="round" stroke-miterlimit="10" width="3.6" height="3.6"/>
	
		<line fill="none" stroke="#FFFFFF" stroke-linecap="round" stroke-linejoin="round" stroke-miterlimit="10" x1="148.5" y1="261.5" x2="148.5" y2="265.1"/>
	
		<line fill="none" stroke="#FFFFFF" stroke-linecap="round" stroke-linejoin="round" stroke-miterlimit="10" x1="152" y1="261.5" x2="152" y2="265.1"/>
	
		<line fill="none" stroke="#FFFFFF" stroke-linecap="round" stroke-linejoin="round" stroke-miterlimit="10" x1="163.3" y1="243.6" x2="163.3" y2="247.2"/>
	
		<line fill="none" stroke="#FFFFFF" stroke-linecap="round" stroke-linejoin="round" stroke-miterlimit="10" x1="174.1" y1="243.6" x2="174.1" y2="247.2"/>
	
		<line fill="none" stroke="#FFFFFF" stroke-linecap="round" stroke-linejoin="round" stroke-miterlimit="10" x1="170.5" y1="252.5" x2="170.5" y2="256.1"/>
	
		<line fill="none" stroke="#FFFFFF" stroke-linecap="round" stroke-linejoin="round" stroke-miterlimit="10" x1="174.1" y1="252.5" x2="174.1" y2="256.1"/>
	
		<rect x="166.9" y="243.6" fill="none" stroke="#FFFFFF" stroke-linecap="round" stroke-linejoin="round" stroke-miterlimit="10" width="3.6" height="3.6"/>
	
		<rect x="163.3" y="252.5" fill="none" stroke="#FFFFFF" stroke-linecap="round" stroke-linejoin="round" stroke-miterlimit="10" width="3.6" height="3.6"/>
	
		<rect x="170.5" y="261.5" fill="none" stroke="#FFFFFF" stroke-linecap="round" stroke-linejoin="round" stroke-miterlimit="10" width="3.6" height="3.6"/>
	
		<line fill="none" stroke="#FFFFFF" stroke-linecap="round" stroke-linejoin="round" stroke-miterlimit="10" x1="163.3" y1="261.5" x2="163.3" y2="265.1"/>
	
		<line fill="none" stroke="#FFFFFF" stroke-linecap="round" stroke-linejoin="round" stroke-miterlimit="10" x1="166.9" y1="261.5" x2="166.9" y2="265.1"/>
</g>
<g>
	
		<line fill="none" stroke="#FFFFFF" stroke-linecap="round" stroke-linejoin="round" stroke-miterlimit="10" x1="463.6" y1="122.5" x2="463.6" y2="126"/>
	
		<line fill="none" stroke="#FFFFFF" stroke-linecap="round" stroke-linejoin="round" stroke-miterlimit="10" x1="474.4" y1="122.5" x2="474.4" y2="126"/>
	
		<line fill="none" stroke="#FFFFFF" stroke-linecap="round" stroke-linejoin="round" stroke-miterlimit="10" x1="470.8" y1="131.4" x2="470.8" y2="135"/>
	
		<line fill="none" stroke="#FFFFFF" stroke-linecap="round" stroke-linejoin="round" stroke-miterlimit="10" x1="474.4" y1="131.4" x2="474.4" y2="135"/>
	
		<rect x="467.2" y="122.5" fill="none" stroke="#FFFFFF" stroke-linecap="round" stroke-linejoin="round" stroke-miterlimit="10" width="3.6" height="3.6"/>
	
		<rect x="463.6" y="131.4" fill="none" stroke="#FFFFFF" stroke-linecap="round" stroke-linejoin="round" stroke-miterlimit="10" width="3.6" height="3.6"/>
	
		<rect x="470.8" y="140.4" fill="none" stroke="#FFFFFF" stroke-linecap="round" stroke-linejoin="round" stroke-miterlimit="10" width="3.6" height="3.6"/>
	
		<line fill="none" stroke="#FFFFFF" stroke-linecap="round" stroke-linejoin="round" stroke-miterlimit="10" x1="463.6" y1="140.4" x2="463.6" y2="144"/>
	
		<line fill="none" stroke="#FFFFFF" stroke-linecap="round" stroke-linejoin="round" stroke-miterlimit="10" x1="467.2" y1="140.4" x2="467.2" y2="144"/>
	
		<line fill="none" stroke="#FFFFFF" stroke-linecap="round" stroke-linejoin="round" stroke-miterlimit="10" x1="478.5" y1="122.5" x2="478.5" y2="126"/>
	
		<line fill="none" stroke="#FFFFFF" stroke-linecap="round" stroke-linejoin="round" stroke-miterlimit="10" x1="489.2" y1="122.5" x2="489.2" y2="126"/>
	
		<line fill="none" stroke="#FFFFFF" stroke-linecap="round" stroke-linejoin="round" stroke-miterlimit="10" x1="485.7" y1="131.4" x2="485.7" y2="135"/>
	
		<line fill="none" stroke="#FFFFFF" stroke-linecap="round" stroke-linejoin="round" stroke-miterlimit="10" x1="489.2" y1="131.4" x2="489.2" y2="135"/>
	
		<rect x="482.1" y="122.5" fill="none" stroke="#FFFFFF" stroke-linecap="round" stroke-linejoin="round" stroke-miterlimit="10" width="3.6" height="3.6"/>
	
		<rect x="478.5" y="131.4" fill="none" stroke="#FFFFFF" stroke-linecap="round" stroke-linejoin="round" stroke-miterlimit="10" width="3.6" height="3.6"/>
	
		<rect x="485.7" y="140.4" fill="none" stroke="#FFFFFF" stroke-linecap="round" stroke-linejoin="round" stroke-miterlimit="10" width="3.6" height="3.6"/>
	
		<line fill="none" stroke="#FFFFFF" stroke-linecap="round" stroke-linejoin="round" stroke-miterlimit="10" x1="478.5" y1="140.4" x2="478.5" y2="144"/>
	
		<line fill="none" stroke="#FFFFFF" stroke-linecap="round" stroke-linejoin="round" stroke-miterlimit="10" x1="482.1" y1="140.4" x2="482.1" y2="144"/>
</g>
</svg>
