<?xml version="1.0" encoding="utf-8"?>
<!-- Generator: Adobe Illustrator 22.1.0, SVG Export Plug-In . SVG Version: 6.00 Build 0)  -->
<svg version="1.1" id="Layer_q1" xmlns="http://www.w3.org/2000/svg" xmlns:xlink="http://www.w3.org/1999/xlink" x="0px" y="0px"
	 viewBox="0 0 750 400" enable-background="new 0 0 750 400" xml:space="preserve">
<path fill="#3D3D3D" fill-opacity="0.1686" d="M661.4,102.6c-4.3,0-8.1,1.6-11,4.5c-3.1,3-4.8,6.8-4.9,11.1h77.9
	c-0.1-1.4-0.7-2.6-1.7-3.6c-1-1-2.2-1.5-3.7-1.5c-1.6,0-2.8,0.6-4,1.7c-0.9-2.1-2.2-3.9-4.1-5.1c-1.9-1.3-4-1.9-6.4-1.9
	c-3.1,0-5.8,1.1-8,3.3c-1.6-1-3.2-1.5-5-1.5c-1.2,0-2.3,0.2-3.4,0.6c-0.4-1.6-1.2-2.8-2.5-3.9c-1.4-1-2.8-1.5-4.4-1.5
	c-1.3,0-2.6,0.3-3.7,1c-1.1,0.6-1.9,1.6-2.6,2.7c-1.6-1.9-3.4-3.4-5.5-4.4C666.3,103.2,663.9,102.6,661.4,102.6"/>
<path fill="#3D3D3D" fill-opacity="0.1686" d="M66.2,201.8c-7.6,0-14.2,2.7-19.4,7.9c-5.5,5.3-8.4,11.9-8.6,19.5h136.8
	c-0.2-2.4-1.3-4.5-3.1-6.3c-1.8-1.8-3.9-2.6-6.5-2.6c-2.7,0-5,1-6.9,3.1c-1.6-3.7-3.9-6.8-7.3-9c-3.4-2.3-7.1-3.4-11.3-3.4
	c-5.5,0-10.2,1.9-14,5.8c-2.7-1.8-5.6-2.6-8.7-2.6c-2.1,0-4,0.3-6,1.1c-0.6-2.7-2.1-5-4.4-6.8c-2.4-1.8-4.8-2.6-7.7-2.6
	c-2.3,0-4.5,0.5-6.5,1.8c-1.9,1.1-3.4,2.7-4.5,4.7c-2.7-3.4-6-6-9.7-7.7C74.7,202.7,70.5,201.8,66.2,201.8"/>
<circle fill="#0C3B60" cx="116.5" cy="320.5" r="40.5"/>
<circle fill="#FF4200" cx="617.9" cy="68.5" r="36.7"/>
<circle fill="#7BCAEF" cx="551.5" cy="258.5" r="49.5"/>
<circle fill="#BAD80A" cx="190.9" cy="150.3" r="49.3"/>
<path fill="none" stroke="#A6A6A6" stroke-miterlimit="10" d="M83.6,353.4c-18.2-18.2-18.2-47.7,0-65.9"/>
<path fill="none" stroke="#A6A6A6" stroke-miterlimit="10" d="M149.4,287.6c18.2,18.2,18.2,47.7,0,65.9"/>
<path fill="none" stroke="#A6A6A6" stroke-miterlimit="10" d="M659.8,68.5c0,23.2-18.8,42-42,42c-23.2,0-42-18.8-42-42
	s18.8-42,42-42"/>
<path fill="none" stroke="#A6A6A6" stroke-miterlimit="10" d="M551.5,314.2c-30.8,0-55.7-24.9-55.7-55.7"/>
<path fill="none" stroke="#A6A6A6" stroke-miterlimit="10" d="M551.5,202.8c30.8,0,55.7,24.9,55.7,55.7"/>
<path fill="none" stroke="#A6A6A6" stroke-miterlimit="10" d="M190.9,95c30.5,0,55.2,24.7,55.2,55.2s-24.7,55.2-55.2,55.2
	s-55.2-24.7-55.2-55.2"/>
<path fill="#83C4EC" d="M58.8,129.4H56c-0.3,0-0.6,0.1-0.8,0.3c-0.2,0.1-0.3,0.3-0.3,0.7c0,0.3,0.1,0.6,0.3,0.8
	c0.2,0.2,0.4,0.3,0.8,0.3h2.8v2.9c0,0.2,0.1,0.4,0.3,0.7c0.2,0.2,0.6,0.3,0.8,0.3c0.3,0,0.6-0.1,0.8-0.3c0.2-0.1,0.3-0.3,0.3-0.7
	v-2.9h2.8c0.2,0,0.4-0.1,0.7-0.3c0.2-0.2,0.3-0.4,0.3-0.8c0-0.2-0.1-0.4-0.3-0.7c-0.1-0.2-0.3-0.3-0.7-0.3H61v-2.9
	c0-0.3-0.1-0.6-0.3-0.8c-0.2-0.2-0.4-0.3-0.8-0.3c-0.3,0-0.6,0.1-0.8,0.3c-0.2,0.2-0.3,0.4-0.3,0.8V129.4"/>
<path fill="#83C4EC" d="M662.9,307c0-0.8-0.3-1.1-1.1-1.1h-2.9V303c0-0.2-0.1-0.4-0.3-0.7c-0.2-0.2-0.4-0.3-0.8-0.3
	s-0.6,0.1-0.8,0.3c-0.2,0.1-0.3,0.3-0.3,0.7v2.9h-2.9c-0.2,0-0.4,0.1-0.7,0.3c-0.2,0.2-0.3,0.6-0.3,0.8s0.1,0.4,0.3,0.7
	c0.2,0.2,0.4,0.3,0.7,0.3h2.9v2.9c0,0.3,0.1,0.6,0.3,0.8c0.2,0.2,0.4,0.3,0.8,0.3s0.6-0.1,0.8-0.3s0.3-0.4,0.3-0.8V308h2.9
	c0.3,0,0.6-0.1,0.8-0.3C662.8,307.6,662.9,307.4,662.9,307"/>
<path fill="#83C4EC" d="M701.9,69.9c0.2-0.2,0.2-0.4,0.2-0.9c0-0.7-0.3-1-1-1h-2.9v-2.9c0-0.2-0.1-0.4-0.3-0.7
	c-0.2-0.2-0.4-0.3-0.8-0.3s-0.6,0.1-0.8,0.3c-0.2,0.1-0.3,0.3-0.3,0.7V68h-2.9c-0.3,0.1-0.6,0.1-0.8,0.3s-0.3,0.4-0.3,0.8
	s0.1,0.6,0.3,0.8c0.3,0.2,0.6,0.3,0.8,0.3h2.9v2.9c0,0.3,0.1,0.6,0.3,0.8c0.2,0.2,0.4,0.3,0.8,0.3c0.3-0.1,0.6-0.1,0.8-0.3
	s0.3-0.4,0.3-0.8v-2.9h2.9C701.4,70.2,701.7,70.1,701.9,69.9"/>
<path fill="#83C4EC" d="M70.2,368.7c0,0.2,0.1,0.6,0.2,0.8c0.2,0.2,0.4,0.3,0.8,0.3h2.9v2.9c0,0.2,0.1,0.4,0.3,0.7
	c0.2,0.2,0.4,0.3,0.8,0.3c0.3,0,0.6-0.1,0.8-0.3c0.2-0.1,0.3-0.3,0.3-0.7v-2.9h2.8c0.3,0,0.6-0.1,0.8-0.3c0.2-0.2,0.3-0.6,0.3-0.8
	s-0.1-0.4-0.3-0.7c-0.2-0.2-0.4-0.3-0.8-0.3h-2.8v-2.8c0-0.8-0.4-1.1-1.1-1.1c-0.7,0-1,0.4-1,1.1v2.8h-2.9c-0.3,0-0.6,0.1-0.8,0.3
	C70.3,368.1,70.2,368.3,70.2,368.7"/>
<path fill="#83C4EC" d="M182.9,35.1v2.8H180c-0.7,0-1,0.4-1,1.1c0,0.3,0.1,0.6,0.3,0.8c0.2,0.2,0.4,0.3,0.8,0.3h2.9v2.8
	c0,0.3,0.1,0.6,0.3,0.8c0.1,0.2,0.3,0.3,0.7,0.3c0.8,0,1.1-0.4,1.1-1.1v-2.7h2.9c0.2,0,0.4-0.1,0.7-0.3c0.2-0.2,0.3-0.4,0.3-0.8
	c0-0.3-0.1-0.6-0.3-0.8c-0.1-0.2-0.3-0.3-0.7-0.3h-2.9v-2.9c0-0.3-0.1-0.6-0.3-0.8c-0.2-0.2-0.4-0.3-0.8-0.3c-0.2,0-0.4,0.1-0.7,0.3
	c-0.2,0.2-0.3,0.6-0.3,0.8H182.9z"/>
<path fill="#BFBFBF" d="M576.6,35.7l3.3-5.8l-3.3-5.8h-6.7l-3.4,5.8l3.4,5.8H576.6 M568.4,29.9l2.4-4.2h4.8l2.4,4.2l-2.4,4.2h-4.8
	L568.4,29.9 M101.6,160.3l-3.3,5.8l3.3,5.8h6.7l3.3-5.8l-3.3-5.8H101.6 M109.9,166.1l-2.4,4.2h-4.9l-2.4-4.2l2.4-4.2h4.9
	L109.9,166.1z"/>
<path fill="#3D3D3D" fill-opacity="0.1686" d="M623.8,337.9c-2.2,0-4.4,0.4-6.6,1.4c-0.7-3-2.4-5.4-4.8-7.4c-2.4-2-5.3-2.9-8.5-2.9
	c-2.5,0-4.9,0.6-7.1,2c-2.1,1.3-3.8,2.9-4.9,5.1c-2.9-3.7-6.4-6.5-10.6-8.5c-4.3-2.1-8.9-3.1-13.7-3.1c-8.4,0-15.6,2.9-21.7,8.9
	c-6.1,5.9-9.2,13.1-9.4,21.4h150.8c-0.1-2.7-1.3-5-3.2-6.9c-2.1-2-4.5-2.9-7.2-2.9c-3,0-5.5,1-7.6,3.2c-1.7-4.1-4.3-7.3-8-9.8
	c-3.7-2.6-7.8-3.9-12.3-3.9c-2.9,0-5.8,0.5-8.5,1.7c-2.7,1.2-5,2.7-7,4.7C630.5,338.8,627.4,337.9,623.8,337.9"/>
<path fill="#3D3D3D" fill-opacity="0.1686" d="M263.6,321.9c-4.3,0-8.1,1.6-11,4.5c-3.1,3-4.8,6.8-4.9,11.1h77.9
	c-0.1-1.4-0.7-2.6-1.7-3.6s-2.2-1.5-3.7-1.5c-1.6,0-2.8,0.6-4,1.7c-0.9-2.1-2.2-3.9-4.1-5.1c-1.9-1.3-4-1.9-6.4-1.9
	c-3.1,0-5.8,1.1-8,3.3c-1.6-1-3.2-1.5-5-1.5c-1.2,0-2.3,0.2-3.4,0.6c-0.4-1.6-1.2-2.8-2.5-3.9c-1.4-1-2.8-1.5-4.4-1.5
	c-1.3,0-2.6,0.3-3.7,1c-1.1,0.6-1.9,1.6-2.6,2.7c-1.6-1.9-3.4-3.4-5.5-4.4C268.4,322.5,266,321.9,263.6,321.9"/>
<path fill="#3D3D3D" fill-opacity="0.1686" d="M468.2,174.2c-6.8,0-12.7,2.5-17.4,7.1c-4.9,4.8-7.5,10.7-7.7,17.5H566
	c-0.1-2.2-1.2-4.1-2.8-5.6c-1.6-1.6-3.5-2.3-5.8-2.3c-2.5,0-4.5,0.9-6.2,2.8c-1.4-3.3-3.5-6.1-6.5-8.1c-3-2-6.4-3-10.1-3
	c-4.9,0-9.1,1.7-12.6,5.2c-2.5-1.6-5.1-2.3-7.8-2.3c-1.9,0-3.6,0.3-5.4,1c-0.6-2.5-1.9-4.5-3.9-6.1c-2.2-1.6-4.3-2.3-7-2.3
	c-2,0-4.1,0.4-5.8,1.6c-1.7,1-3,2.5-4.1,4.2c-2.5-3-5.4-5.4-8.7-7C475.9,175,472.2,174.2,468.2,174.2"/>
<path fill="#3D3D3D" fill-opacity="0.1686" d="M197.2,73.5c-1.4-1.6-3-2.8-4.8-3.7c-1.9-0.9-3.9-1.3-5.9-1.3c-3.9,0-7.2,1.3-10,4.2
	c-2.8,2.8-4.2,6.3-4.6,10.4h208.7c-0.3-12.7-4.7-23.4-13-32.3c-8.3-8.9-18.3-13.3-30-13.3c-6.7,0-13,1.6-19,4.8
	C312.9,45.4,308,49.6,304,55c-1.6-3.2-3.9-5.8-6.8-7.8c-3.1-2-6.3-3-9.9-3c-4.4,0-8.3,1.4-11.8,4.4c-3.3,2.9-5.6,6.7-6.6,11.2
	c-3-1.3-6-2-9.1-2c-4.8,0-9.1,1.4-13.2,4.3c-2.8-3-6-5.3-9.6-7c-3.8-1.7-7.7-2.6-11.8-2.6c-6.3,0-12.1,2-17.2,5.9
	C203.1,62.4,199.4,67.2,197.2,73.5z"/>
<path fill="#F7571A" d="M715.2,279.1c0-0.6-0.2-1-0.7-1.6c-0.4-0.3-1-0.6-1.6-0.6s-1,0.1-1.4,0.6c-0.3,0.4-0.6,1-0.6,1.6
	c0,0.7,0.1,1.1,0.6,1.6c0.3,0.4,0.9,0.7,1.4,0.7c0.7,0,1.1-0.2,1.6-0.7C715,280.2,715.2,279.7,715.2,279.1"/>
<path fill="#F7571A" d="M30.3,276.9c0-0.6-0.2-1-0.7-1.6c-0.4-0.3-1-0.6-1.6-0.6c-0.6,0-1,0.1-1.4,0.6c-0.3,0.4-0.6,1-0.6,1.6
	c0,0.7,0.1,1.1,0.6,1.6c0.3,0.4,0.9,0.7,1.4,0.7c0.7,0,1.1-0.2,1.6-0.7C30.1,278,30.3,277.4,30.3,276.9"/>
<path fill="#F7571A" d="M477.2,336.4c0-0.6-0.2-1-0.7-1.6c-0.4-0.3-1-0.6-1.6-0.6s-1,0.1-1.4,0.6c-0.3,0.4-0.6,1-0.6,1.6
	c0,0.7,0.1,1.1,0.6,1.6c0.3,0.4,0.9,0.7,1.4,0.7c0.7,0,1.1-0.2,1.6-0.7S477.2,337,477.2,336.4"/>
<path fill="#F7571A" d="M261.2,99.9c-0.7,0-1.1,0.2-1.6,0.7c-0.3,0.4-0.6,1-0.6,1.6s0.1,1.1,0.6,1.6c0.4,0.4,1,0.7,1.6,0.7
	s1-0.2,1.4-0.7c0.4-0.4,0.7-0.9,0.7-1.6c0-0.7-0.2-1.1-0.7-1.6C262.2,100.1,261.8,99.9,261.2,99.9z"/>
<path fill="#BAD727" d="M244.7,365.4c0-0.6-0.2-1.1-0.7-1.4c-0.3-0.4-0.9-0.7-1.4-0.7c-0.7,0-1.1,0.3-1.6,0.7s-0.7,0.9-0.7,1.4
	c0,0.7,0.2,1.1,0.7,1.6c0.4,0.4,1,0.7,1.6,0.7s1-0.2,1.4-0.7C244.4,366.6,244.7,366,244.7,365.4"/>
<path fill="#BAD727" d="M674.4,218.6c-0.3-0.3-0.9-0.6-1.4-0.6s-1,0.1-1.4,0.6c-0.4,0.4-0.7,1-0.7,1.6s0.2,1.1,0.7,1.6
	c0.3,0.4,0.9,0.7,1.4,0.7s1-0.2,1.4-0.7c0.4-0.4,0.7-1,0.7-1.6S674.9,219,674.4,218.6z"/>
<path fill="#BAD727" d="M483.9,116.6c-0.3-0.3-0.9-0.6-1.4-0.6s-1,0.1-1.4,0.6c-0.4,0.4-0.7,1-0.7,1.6s0.2,1.1,0.7,1.6
	c0.3,0.4,0.9,0.7,1.4,0.7s1-0.2,1.4-0.7c0.4-0.4,0.7-1,0.7-1.6S484.3,117,483.9,116.6z"/>
<path fill="#BAD727" d="M317,30c-0.3-0.3-0.9-0.6-1.4-0.6s-1,0.1-1.4,0.6c-0.4,0.4-0.7,1-0.7,1.6s0.2,1.1,0.7,1.6
	c0.3,0.4,0.9,0.7,1.4,0.7s1-0.2,1.4-0.7c0.4-0.4,0.7-1,0.7-1.6S317.4,30.4,317,30z"/>
<path fill="#DEDEDE" d="M717,198.1c0-1.2-0.4-2.2-1.2-3.1c-0.8-0.8-1.8-1.2-3-1.2c-1.2,0-2.2,0.4-3,1.2c-0.8,0.9-1.2,1.9-1.2,3.1
	c0,1.2,0.4,2.2,1.2,3c0.9,0.8,1.9,1.2,3,1.2s2.1-0.4,3-1.2C716.6,200.4,717,199.4,717,198.1"/>
<path fill="#DEDEDE" d="M668.3,377c0-1.2-0.4-2.2-1.2-3.1c-0.8-0.8-1.8-1.2-3-1.2c-1.2,0-2.2,0.4-3,1.2c-0.8,0.9-1.2,1.9-1.2,3.1
	s0.4,2.2,1.2,3c0.9,0.8,1.9,1.2,3,1.2c1.1,0,2.1-0.4,3-1.2C667.9,379.2,668.3,378.2,668.3,377"/>
<path fill="#DEDEDE" d="M131,245c-0.4-0.4-0.9-0.7-1.6-0.7c-0.6,0-1,0.2-1.4,0.7c-0.4,0.4-0.7,1-0.7,1.6s0.2,1,0.7,1.4
	c0.3,0.4,0.9,0.7,1.4,0.7c0.6,0,1.1-0.2,1.6-0.7c0.3-0.3,0.6-0.9,0.6-1.4S131.3,245.4,131,245z"/>
<path fill="#DEDEDE" d="M118.6,26.3c-0.4-0.4-0.9-0.7-1.6-0.7c-0.6,0-1,0.2-1.4,0.7c-0.4,0.4-0.7,1-0.7,1.6s0.2,1,0.7,1.4
	c0.3,0.4,0.9,0.7,1.4,0.7s1.1-0.2,1.6-0.7c0.3-0.3,0.6-0.9,0.6-1.4S118.9,26.8,118.6,26.3z"/>
<path fill="#DEDEDE" d="M315,378.3c-0.4-0.4-0.9-0.7-1.6-0.7c-0.6,0-1,0.2-1.4,0.7c-0.4,0.4-0.7,1-0.7,1.6s0.2,1,0.7,1.4
	c0.3,0.4,0.9,0.7,1.4,0.7s1.1-0.2,1.6-0.7c0.3-0.3,0.6-0.9,0.6-1.4S315.3,378.8,315,378.3z"/>
<path fill="#DEDEDE" d="M281.3,195.4c-0.4-0.4-0.9-0.7-1.6-0.7c-0.6,0-1,0.2-1.4,0.7c-0.4,0.4-0.7,1-0.7,1.6s0.2,1,0.7,1.4
	c0.3,0.4,0.9,0.7,1.4,0.7s1.1-0.2,1.6-0.7c0.3-0.3,0.6-0.9,0.6-1.4S281.7,195.9,281.3,195.4z"/>
<path fill="#DEDEDE" d="M485.6,214.7c-0.4-0.4-0.9-0.7-1.6-0.7c-0.6,0-1,0.2-1.4,0.7c-0.4,0.4-0.7,1-0.7,1.6s0.2,1,0.7,1.4
	c0.3,0.4,0.9,0.7,1.4,0.7s1.1-0.2,1.6-0.7c0.3-0.3,0.6-0.9,0.6-1.4S485.9,215.1,485.6,214.7z"/>
<path fill="#DEDEDE" d="M630.7,130.3c-0.4-0.4-0.9-0.7-1.6-0.7c-0.6,0-1,0.2-1.4,0.7c-0.4,0.4-0.7,1-0.7,1.6s0.2,1,0.7,1.4
	c0.3,0.4,0.9,0.7,1.4,0.7s1.1-0.2,1.6-0.7c0.3-0.3,0.6-0.9,0.6-1.4S631,130.8,630.7,130.3z"/>
<path fill="#D1D1D1" d="M518.8,27c0,1.2,0.3,2.2,1.2,3.1c0.8,0.8,1.8,1.2,3,1.2c1.2,0,2.2-0.4,3.1-1.2c0.8-0.9,1.2-1.9,1.2-3.1
	c0-1.2-0.4-2.2-1.2-3c-0.9-0.8-1.9-1.2-3.1-1.2c-1.2,0-2.2,0.4-3,1.2C519.2,24.9,518.8,25.9,518.8,27z"/>
<path id="Layer4_0_1_STROKES_1_" fill="none" stroke="#BFBFBF" stroke-width="2" stroke-miterlimit="10" d="M94.3,108.3
	c-0.7-0.8-1.6-1.1-2.6-1.1c-1,0-1.9,0.4-2.6,1.1c-0.8,0.8-1.1,1.6-1.1,2.6c0,1,0.4,1.9,1.1,2.6c0.8,0.8,1.6,1.1,2.6,1.1
	c1,0,1.9-0.4,2.6-1.1c0.8-0.7,1.1-1.6,1.1-2.6C95.4,109.9,95.1,109.1,94.3,108.3z M47.2,301.1c-0.8-0.7-1.6-1-2.6-1
	c-0.3,0-0.6,0-0.9,0.1c-0.7,0.2-1.2,0.6-1.7,1c-0.8,0.8-1.1,1.6-1.1,2.6s0.4,1.9,1.1,2.6c0.7,0.7,1.6,1,2.6,1c1,0,1.9-0.3,2.6-1
	c0.4-0.4,0.8-1,0.9-1.6c0.1-0.3,0.2-0.8,0.2-1.1C48.3,302.8,47.9,301.9,47.2,301.1z M427.7,373.7c-0.8-0.7-1.6-1-2.6-1
	s-1.9,0.3-2.6,1c-0.8,0.7-1.1,1.6-1.1,2.6s0.4,1.8,1.1,2.6c0.7,0.8,1.6,1.1,2.6,1.1s1.8-0.4,2.6-1.1c0.8-0.7,1.1-1.6,1.1-2.6
	C428.8,375.2,428.5,374.3,427.7,373.7z"/>
<g>
	<path fill="#595959" d="M439.8,349.2H325.1c-6.5,0-11.8-5.3-11.8-11.8V72.8c0-6.5,5.3-11.8,11.8-11.8h114.7
		c6.5,0,11.8,5.3,11.8,11.8v264.7C451.6,344,446.3,349.2,439.8,349.2z"/>
	<path fill="none" stroke="#000000" stroke-miterlimit="10" d="M440,349.2H325.2c-6.5,0-11.8-5.3-11.8-11.8V72.8
		c0-6.5,5.3-11.8,11.8-11.8H440c6.5,0,11.8,5.3,11.8,11.8v264.7C451.7,344,446.4,349.2,440,349.2z"/>
</g>
<path fill="#FEFEFE" d="M447.1,349.2H332.4c-6.5,0-11.8-5.3-11.8-11.8V72.8c0-6.5,5.3-11.8,11.8-11.8h114.7
	c6.5,0,11.8,5.3,11.8,11.8v264.7C458.9,344,453.6,349.2,447.1,349.2z"/>
<path fill="none" stroke="#000000" stroke-miterlimit="10" d="M447.3,349.2H332.5c-6.5,0-11.8-5.3-11.8-11.8V72.8
	c0-6.5,5.3-11.8,11.8-11.8h114.7c6.5,0,11.8,5.3,11.8,11.8v264.7C459,344,453.7,349.2,447.3,349.2z"/>
<rect x="326" y="181.9" fill="#E6E6E6" width="127.6" height="42.5"/>
<path fill="#1776BF" d="M409.1,80.3v3.5c0,1.4-1.1,2.5-2.5,2.5H373c-1.4,0-2.5-1.1-2.5-2.5v-3.5c0-1.4-1.1-2.5-2.5-2.5h-39.5
	c-1.4,0-2.5,1.1-2.5,2.5v101.6h127.6V80.3c0-1.4-1.1-2.5-2.5-2.5h-39.5C410.2,77.8,409.1,78.9,409.1,80.3z"/>
<g>
	<path fill="none" stroke="#FF4200" stroke-miterlimit="10" d="M389.9,103.4c-4.4,4.7-7,11-7,18c0,4.2,1,8.1,2.7,11.6"/>
	<path fill="none" stroke="#FF4200" stroke-miterlimit="10" d="M395.6,128c-1-2-1.6-4.3-1.6-6.7c0-4,1.5-7.6,4.1-10.4"/>
	<path fill="none" stroke="#BAD80A" stroke-miterlimit="10" d="M419.8,132.6c-2.7,2.5-6.4,4-10.3,4c-6.1,0-11.3-3.5-13.8-8.6"/>
	<path fill="none" stroke="#BAD80A" stroke-miterlimit="10" d="M385.5,132.9c4.3,8.8,13.4,15,23.9,15c6.9,0,13.2-2.7,17.9-7"/>
	<path fill="none" stroke="#FFFFFF" stroke-miterlimit="10" d="M427.3,140.9c5.3-4.9,8.7-11.8,8.7-19.6c0-14.7-11.9-26.6-26.6-26.6
		c-7.7,0-14.7,3.3-19.5,8.6"/>
	<path fill="none" stroke="#FFFFFF" stroke-miterlimit="10" d="M398.1,111c2.8-3,6.8-5,11.3-5c8.5,0,15.3,6.9,15.3,15.3
		c0,4.5-1.9,8.5-5,11.3"/>
</g>
<g>
	<line fill="none" stroke="#000000" stroke-miterlimit="10" x1="361.8" y1="234.1" x2="426" y2="234.1"/>
	<line fill="none" stroke="#A3A3A3" stroke-miterlimit="10" x1="361.8" y1="239.3" x2="435.8" y2="239.3"/>
</g>
<line fill="none" stroke="#A3A3A3" stroke-miterlimit="10" x1="389.7" y1="248.6" x2="389.7" y2="332.1"/>
<line fill="none" stroke="#A3A3A3" stroke-miterlimit="10" x1="352.2" y1="224.2" x2="352.2" y2="248.8"/>
<circle fill="#1776BF" cx="339.5" cy="236.6" r="4.1"/>
<g>
	<line fill="none" stroke="#000000" stroke-miterlimit="10" x1="336.9" y1="106" x2="362.6" y2="106"/>
	<line fill="none" stroke="#FFFFFF" stroke-miterlimit="10" x1="336.9" y1="112.4" x2="367.1" y2="112.4"/>
	<line fill="none" stroke="#FFFFFF" stroke-miterlimit="10" x1="336.9" y1="118.8" x2="361.3" y2="118.8"/>
	<line fill="none" stroke="#FFFFFF" stroke-miterlimit="10" x1="336.9" y1="125.1" x2="370.4" y2="125.1"/>
	<line fill="none" stroke="#FFFFFF" stroke-miterlimit="10" x1="336.9" y1="131.5" x2="357.6" y2="131.5"/>
	<line fill="none" stroke="#FFFFFF" stroke-miterlimit="10" x1="336.9" y1="137.9" x2="353.4" y2="137.9"/>
</g>
<g>
	<line fill="none" stroke="#FFFFFF" stroke-miterlimit="10" x1="440.4" y1="83.5" x2="447.9" y2="83.5"/>
	<line fill="none" stroke="#FFFFFF" stroke-miterlimit="10" x1="440.4" y1="86.2" x2="447.9" y2="86.2"/>
	<line fill="none" stroke="#FFFFFF" stroke-miterlimit="10" x1="440.4" y1="88.8" x2="447.9" y2="88.8"/>
</g>
<line fill="none" stroke="#A3A3A3" stroke-miterlimit="10" x1="326.4" y1="181.9" x2="453.6" y2="181.9"/>
<line fill="none" stroke="#A3A3A3" stroke-miterlimit="10" x1="326.4" y1="224.4" x2="453.6" y2="224.4"/>
<line fill="none" stroke="#A3A3A3" stroke-miterlimit="10" x1="326.4" y1="248.7" x2="453.6" y2="248.7"/>
<line fill="none" stroke="#A3A3A3" stroke-miterlimit="10" x1="326.4" y1="290.3" x2="453.6" y2="290.3"/>
<g>
	<line fill="none" stroke="#000000" stroke-miterlimit="10" x1="360.2" y1="192.5" x2="419.2" y2="192.5"/>
	<line fill="none" stroke="#A3A3A3" stroke-miterlimit="10" x1="345.2" y1="197.7" x2="434.2" y2="197.7"/>
	<line fill="none" stroke="#A3A3A3" stroke-miterlimit="10" x1="353.8" y1="202.9" x2="425.5" y2="202.9"/>
	<path fill="#FFFFFF" stroke="#A3A3A3" stroke-miterlimit="10" d="M402.1,215.5h-24.9c-1.4,0-2.5-1.1-2.5-2.5v-0.6
		c0-1.4,1.1-2.5,2.5-2.5h24.9c1.4,0,2.5,1.1,2.5,2.5v0.6C404.6,214.4,403.5,215.5,402.1,215.5z"/>
</g>
<circle fill="#0899CC" cx="357.8" cy="264.2" r="9"/>
<path fill="none" stroke="#A3A3A3" stroke-miterlimit="10" d="M370.2,283.6h-24.9c-1.4,0-2.5-1.1-2.5-2.5v-0.6
	c0-1.4,1.1-2.5,2.5-2.5h24.9c1.4,0,2.5,1.1,2.5,2.5v0.6C372.7,282.5,371.6,283.6,370.2,283.6z"/>
<g>
	<g>
		<line fill="none" stroke="#000000" stroke-miterlimit="10" x1="339.3" y1="172.9" x2="362.6" y2="172.9"/>
		<circle fill="#BAD80A" cx="350.9" cy="162.4" r="5.3"/>
	</g>
	<g>
		<line fill="none" stroke="#000000" stroke-miterlimit="10" x1="377.9" y1="172.9" x2="401.2" y2="172.9"/>
		<circle fill="#FF4200" cx="389.5" cy="162.4" r="5.3"/>
	</g>
	<g>
		<line fill="none" stroke="#000000" stroke-miterlimit="10" x1="416.5" y1="172.9" x2="439.8" y2="172.9"/>
		<circle fill="#FEFEFE" cx="428.2" cy="162.4" r="5.3"/>
	</g>
</g>
<circle fill="none" stroke="#FFFFFF" stroke-miterlimit="10" cx="333.9" cy="86.2" r="2.6"/>
<circle fill="#FF4200" cx="422.2" cy="264.2" r="9"/>
<path fill="none" stroke="#A3A3A3" stroke-miterlimit="10" d="M434.6,283.6h-24.9c-1.4,0-2.5-1.1-2.5-2.5v-0.6
	c0-1.4,1.1-2.5,2.5-2.5h24.9c1.4,0,2.5,1.1,2.5,2.5v0.6C437.1,282.5,436,283.6,434.6,283.6z"/>
<circle fill="#BAD80A" cx="357.8" cy="305.2" r="9"/>
<path fill="none" stroke="#A3A3A3" stroke-miterlimit="10" d="M370.2,324.6h-24.9c-1.4,0-2.5-1.1-2.5-2.5v-0.6
	c0-1.4,1.1-2.5,2.5-2.5h24.9c1.4,0,2.5,1.1,2.5,2.5v0.6C372.7,323.5,371.6,324.6,370.2,324.6z"/>
<circle fill="#0C3B60" cx="422.2" cy="305.2" r="9"/>
<path fill="none" stroke="#A3A3A3" stroke-miterlimit="10" d="M434.6,324.6h-24.9c-1.4,0-2.5-1.1-2.5-2.5v-0.6
	c0-1.4,1.1-2.5,2.5-2.5h24.9c1.4,0,2.5,1.1,2.5,2.5v0.6C437.1,323.5,436,324.6,434.6,324.6z"/>
<path fill="none" stroke="#000000" stroke-miterlimit="10" d="M409.2,80.3v3.5c0,1.4-1.1,2.5-2.5,2.5h-33.6c-1.4,0-2.5-1.1-2.5-2.5
	v-3.5c0-1.4-1.1-2.5-2.5-2.5h-39.5c-1.4,0-2.5,1.1-2.5,2.5v249.4c0,1.4,1.1,2.5,2.5,2.5h122.6c1.4,0,2.5-1.1,2.5-2.5V80.3
	c0-1.4-1.1-2.5-2.5-2.5h-39.5C410.3,77.8,409.2,78.9,409.2,80.3z"/>
<g>
	<polyline fill="none" stroke="#BAD80A" stroke-miterlimit="10" points="611,178.9 608.8,182.6 611,186.4 	"/>
	<polyline fill="none" stroke="#BAD80A" stroke-miterlimit="10" points="673.3,150 675.5,153.7 673.3,157.5 	"/>
	<path fill="none" stroke="#BAD80A" stroke-miterlimit="10" d="M631.8,181h-15.4c-0.9,0-1.6,0.7-1.6,1.6l0,0c0,0.9,0.7,1.6,1.6,1.6
		h15.4c0.9,0,1.6-0.7,1.6-1.6l0,0C633.3,181.8,632.6,181,631.8,181z"/>
	<path fill="none" stroke="#BAD80A" stroke-miterlimit="10" d="M648.9,173.6h-27.2c-0.9,0-1.6,0.7-1.6,1.6v0c0,0.9,0.7,1.6,1.6,1.6
		h27.2c0.9,0,1.6-0.7,1.6-1.6v0C650.4,174.3,649.7,173.6,648.9,173.6z"/>
	<path fill="none" stroke="#BAD80A" stroke-miterlimit="10" d="M663.2,173.6h-8.5c-0.9,0-1.6,0.7-1.6,1.6l0,0c0,0.9,0.7,1.6,1.6,1.6
		h8.5c0.9,0,1.6-0.7,1.6-1.6l0,0C664.8,174.3,664.1,173.6,663.2,173.6z"/>
	<path fill="none" stroke="#BAD80A" stroke-miterlimit="10" d="M619.6,166.8h-3.1c-0.9,0-1.6,0.7-1.6,1.6l0,0c0,0.9,0.7,1.6,1.6,1.6
		h3.1c0.9,0,1.6-0.7,1.6-1.6l0,0C621.2,167.5,620.5,166.8,619.6,166.8z"/>
	<path fill="none" stroke="#BAD80A" stroke-miterlimit="10" d="M654.5,166.8H626c-0.9,0-1.6,0.7-1.6,1.6l0,0c0,0.9,0.7,1.6,1.6,1.6
		h28.6c0.9,0,1.6-0.7,1.6-1.6l0,0C656.1,167.5,655.4,166.8,654.5,166.8z"/>
	<path fill="none" stroke="#BAD80A" stroke-miterlimit="10" d="M648.3,159.1h-23.4c-0.9,0-1.6,0.7-1.6,1.6l0,0
		c0,0.9,0.7,1.6,1.6,1.6h23.4c0.9,0,1.6-0.7,1.6-1.6l0,0C649.9,159.8,649.2,159.1,648.3,159.1z"/>
	<path fill="none" stroke="#BAD80A" stroke-miterlimit="10" d="M628.6,152.1h-12.1c-0.9,0-1.6,0.7-1.6,1.6l0,0
		c0,0.9,0.7,1.6,1.6,1.6h12.1c0.9,0,1.6-0.7,1.6-1.6l0,0C630.2,152.8,629.5,152.1,628.6,152.1z"/>
	<path fill="none" stroke="#BAD80A" stroke-miterlimit="10" d="M667.8,152.1h-32.4c-0.9,0-1.6,0.7-1.6,1.6l0,0
		c0,0.9,0.7,1.6,1.6,1.6h32.4c0.9,0,1.6-0.7,1.6-1.6l0,0C669.4,152.8,668.7,152.1,667.8,152.1z"/>
	<path fill="none" stroke="#BAD80A" stroke-miterlimit="10" d="M663.8,159.1H655c-0.9,0-1.6,0.7-1.6,1.6l0,0c0,0.9,0.7,1.6,1.6,1.6
		h8.8c0.9,0,1.6-0.7,1.6-1.6l0,0C665.3,159.8,664.6,159.1,663.8,159.1z"/>
	<path fill="none" stroke="#BAD80A" stroke-miterlimit="10" d="M659.3,181h-19c-0.9,0-1.6,0.7-1.6,1.6l0,0c0,0.9,0.7,1.6,1.6,1.6h19
		c0.9,0,1.6-0.7,1.6-1.6l0,0C660.9,181.8,660.2,181,659.3,181z"/>
</g>
<g>
	<polyline fill="none" stroke="#FF4200" stroke-miterlimit="10" points="254,240.4 256.2,237 254,233.7 	"/>
	<polyline fill="none" stroke="#FF4200" stroke-miterlimit="10" points="190,286 187.8,282.6 190,279.2 	"/>
	<path fill="none" stroke="#FF4200" stroke-miterlimit="10" d="M232.9,238.5h15.9c0.8,0,1.4-0.6,1.4-1.4v0c0-0.8-0.6-1.4-1.4-1.4
		h-15.9c-0.8,0-1.4,0.6-1.4,1.4v0C231.5,237.8,232.1,238.5,232.9,238.5z"/>
	<path fill="none" stroke="#FF4200" stroke-miterlimit="10" d="M198.4,245.2h44.9c0.8,0,1.4-0.6,1.4-1.4l0,0c0-0.8-0.6-1.4-1.4-1.4
		h-44.9c-0.8,0-1.4,0.6-1.4,1.4l0,0C197,244.6,197.6,245.2,198.4,245.2z"/>
	<path fill="none" stroke="#FF4200" stroke-miterlimit="10" d="M241.4,251.3h7.2c0.8,0,1.4-0.6,1.4-1.4l0,0c0-0.8-0.6-1.4-1.4-1.4
		h-7.2c-0.8,0-1.4,0.6-1.4,1.4l0,0C239.9,250.7,240.6,251.3,241.4,251.3z"/>
	<path fill="none" stroke="#FF4200" stroke-miterlimit="10" d="M210,251.3h25.3c0.8,0,1.4-0.6,1.4-1.4l0,0c0-0.8-0.6-1.4-1.4-1.4
		H210c-0.8,0-1.4,0.6-1.4,1.4l0,0C208.6,250.7,209.2,251.3,210,251.3z"/>
	<path fill="none" stroke="#FF4200" stroke-miterlimit="10" d="M216.2,258.2h23.9c0.8,0,1.4-0.6,1.4-1.4l0,0c0-0.8-0.6-1.4-1.4-1.4
		h-23.9c-0.8,0-1.4,0.6-1.4,1.4l0,0C214.8,257.6,215.4,258.2,216.2,258.2z"/>
	<path fill="none" stroke="#FF4200" stroke-miterlimit="10" d="M220.2,264.6h14.6c0.8,0,1.4-0.6,1.4-1.4l0,0c0-0.8-0.6-1.4-1.4-1.4
		h-14.6c-0.8,0-1.4,0.6-1.4,1.4l0,0C218.8,263.9,219.4,264.6,220.2,264.6z"/>
	<path fill="none" stroke="#FF4200" stroke-miterlimit="10" d="M192.9,264.6H210c0.8,0,1.4-0.6,1.4-1.4l0,0c0-0.8-0.6-1.4-1.4-1.4
		h-17.1c-0.8,0-1.4,0.6-1.4,1.4l0,0C191.4,263.9,192.1,264.6,192.9,264.6z"/>
	<path fill="none" stroke="#FF4200" stroke-miterlimit="10" d="M192.9,271h9.5c0.8,0,1.4-0.6,1.4-1.4l0,0c0-0.8-0.6-1.4-1.4-1.4
		h-9.5c-0.8,0-1.4,0.6-1.4,1.4l0,0C191.4,270.4,192.1,271,192.9,271z"/>
	<path fill="none" stroke="#FF4200" stroke-miterlimit="10" d="M208.8,271h14.4c0.8,0,1.4-0.6,1.4-1.4l0,0c0-0.8-0.6-1.4-1.4-1.4
		h-14.4c-0.8,0-1.4,0.6-1.4,1.4l0,0C207.4,270.4,208,271,208.8,271z"/>
	<g>
		<path fill="none" stroke="#FF4200" stroke-miterlimit="10" d="M213.3,284h18.7c0.8,0,1.4-0.6,1.4-1.4l0,0c0-0.8-0.6-1.4-1.4-1.4
			h-18.7c-0.8,0-1.4,0.6-1.4,1.4l0,0C211.9,283.4,212.5,284,213.3,284z"/>
		<path fill="none" stroke="#FF4200" stroke-miterlimit="10" d="M195.6,284h10.8c0.8,0,1.4-0.6,1.4-1.4l0,0c0-0.8-0.6-1.4-1.4-1.4
			h-10.8c-0.8,0-1.4,0.6-1.4,1.4l0,0C194.2,283.4,194.8,284,195.6,284z"/>
	</g>
	<path fill="none" stroke="#FF4200" stroke-miterlimit="10" d="M229.5,271h19.1c0.8,0,1.4-0.6,1.4-1.4l0,0c0-0.8-0.6-1.4-1.4-1.4
		h-19.1c-0.8,0-1.4,0.6-1.4,1.4l0,0C228,270.4,228.7,271,229.5,271z"/>
	<path fill="none" stroke="#FF4200" stroke-miterlimit="10" d="M247.4,277.9h0.5c0.8,0,1.4-0.6,1.4-1.4l0,0c0-0.8-0.6-1.4-1.4-1.4
		h-0.5c-0.8,0-1.4,0.6-1.4,1.4l0,0C246,277.2,246.7,277.9,247.4,277.9z"/>
	<path fill="none" stroke="#FF4200" stroke-miterlimit="10" d="M207.5,277.9h0.5c0.8,0,1.4-0.6,1.4-1.4l0,0c0-0.8-0.6-1.4-1.4-1.4
		h-0.5c-0.8,0-1.4,0.6-1.4,1.4l0,0C206.1,277.2,206.7,277.9,207.5,277.9z"/>
	<path fill="none" stroke="#FF4200" stroke-miterlimit="10" d="M217.5,277.9h24.2c0.8,0,1.4-0.6,1.4-1.4l0,0c0-0.8-0.6-1.4-1.4-1.4
		h-24.2c-0.8,0-1.4,0.6-1.4,1.4l0,0C216.1,277.2,216.7,277.9,217.5,277.9z"/>
	<path fill="none" stroke="#FF4200" stroke-miterlimit="10" d="M188,258.2h17.1c0.8,0,1.4-0.6,1.4-1.4l0,0c0-0.8-0.6-1.4-1.4-1.4
		H188c-0.8,0-1.4,0.6-1.4,1.4l0,0C186.6,257.6,187.2,258.2,188,258.2z"/>
	<path fill="none" stroke="#FF4200" stroke-miterlimit="10" d="M205.2,238.5h19.4c0.8,0,1.4-0.6,1.4-1.4v0c0-0.8-0.6-1.4-1.4-1.4
		h-19.4c-0.8,0-1.4,0.6-1.4,1.4v0C203.7,237.8,204.4,238.5,205.2,238.5z"/>
</g>
<g>
	<g>
		<path fill="none" stroke="#0899CC" stroke-linecap="round" stroke-linejoin="round" stroke-miterlimit="10" d="M507.1,74.3
			c0.4-1.1,1.4-1.8,2.5-1.8h26.9c1.5,0,2.7,1.3,2.7,2.8v21.2c0,1.6-1.2,2.8-2.7,2.8h-24.2"/>
		
			<line fill="none" stroke="#0899CC" stroke-linecap="round" stroke-linejoin="round" stroke-miterlimit="10" x1="515" y1="103" x2="531.1" y2="103"/>
		
			<line fill="none" stroke="#0899CC" stroke-linecap="round" stroke-linejoin="round" stroke-miterlimit="10" x1="523" y1="99.4" x2="523" y2="103"/>
		
			<line fill="none" stroke="#0899CC" stroke-linecap="round" stroke-linejoin="round" stroke-miterlimit="10" x1="521.2" y1="92.3" x2="539.2" y2="92.3"/>
	</g>
	<g>
		<path fill="none" stroke="#0899CC" stroke-linecap="round" stroke-linejoin="round" stroke-miterlimit="10" d="M503.3,83.3v-3.6
			c0-1,0.8-1.8,1.8-1.8h10.7c1,0,1.8,0.8,1.8,1.8V94c0,1-0.8,1.8-1.8,1.8h-3.6"/>
		
			<line fill="none" stroke="#0899CC" stroke-linecap="round" stroke-linejoin="round" stroke-miterlimit="10" x1="512.3" y1="92.3" x2="517.7" y2="92.3"/>
	</g>
	<g>
		<path fill="none" stroke="#0899CC" stroke-linecap="round" stroke-linejoin="round" stroke-miterlimit="10" d="M508.7,101.2
			c0,1-0.8,1.8-1.8,1.8h-7.2c-1,0-1.8-0.8-1.8-1.8V88.7c0-1,0.8-1.8,1.8-1.8h7.2c1,0,1.8,0.8,1.8,1.8V101.2z"/>
		
			<line fill="none" stroke="#0899CC" stroke-linecap="round" stroke-linejoin="round" stroke-miterlimit="10" x1="498" y1="99.4" x2="508.7" y2="99.4"/>
	</g>
	
		<line fill="none" stroke="#0899CC" stroke-linecap="round" stroke-linejoin="round" stroke-miterlimit="10" x1="498" y1="90.5" x2="508.7" y2="90.5"/>
	
		<line fill="none" stroke="#0899CC" stroke-linecap="round" stroke-linejoin="round" stroke-miterlimit="10" x1="503.3" y1="81.5" x2="517.7" y2="81.5"/>
</g>
<g>
	<g>
		<polygon fill="none" stroke="#FFFFFF" stroke-linecap="round" stroke-linejoin="round" stroke-miterlimit="10" points="637,89.4 
			603,89.4 603,48.3 626.3,48.3 637,59 		"/>
		<polyline fill="none" stroke="#FFFFFF" stroke-linecap="round" stroke-linejoin="round" stroke-miterlimit="10" points="
			626.3,48.3 626.3,59 637,59 		"/>
	</g>
	
		<line fill="none" stroke="#FFFFFF" stroke-linecap="round" stroke-linejoin="round" stroke-miterlimit="10" x1="610.1" y1="60.8" x2="619.1" y2="60.8"/>
	
		<line fill="none" stroke="#FFFFFF" stroke-linecap="round" stroke-linejoin="round" stroke-miterlimit="10" x1="610.1" y1="66.2" x2="626.3" y2="66.2"/>
	
		<line fill="none" stroke="#FFFFFF" stroke-linecap="round" stroke-linejoin="round" stroke-miterlimit="10" x1="610.1" y1="71.5" x2="613.7" y2="71.5"/>
	
		<line fill="none" stroke="#FFFFFF" stroke-linecap="round" stroke-linejoin="round" stroke-miterlimit="10" x1="610.1" y1="76.9" x2="613.7" y2="76.9"/>
	
		<line fill="none" stroke="#FFFFFF" stroke-linecap="round" stroke-linejoin="round" stroke-miterlimit="10" x1="610.1" y1="82.3" x2="613.7" y2="82.3"/>
	<polygon fill="none" stroke="#FFFFFF" stroke-linecap="round" stroke-linejoin="round" stroke-miterlimit="10" points="619.2,84.1 
		629.8,84.1 625.4,76.9 	"/>
	
		<rect x="619.1" y="71.5" fill="none" stroke="#FFFFFF" stroke-linecap="round" stroke-linejoin="round" stroke-miterlimit="10" width="10.7" height="12.5"/>
	<g>
		<path fill="#FFFFFF" d="M622.7,74.2c-0.5,0-0.9,0.4-0.9,0.9s0.4,0.9,0.9,0.9c0.5,0,0.9-0.4,0.9-0.9S623.2,74.2,622.7,74.2
			L622.7,74.2z"/>
	</g>
</g>
<g>
	<path fill="none" stroke="#0899CC" stroke-linecap="round" stroke-linejoin="round" stroke-miterlimit="10" d="M190.3,365.8h-4.7
		c-0.6,0-1-0.5-1-1l0,0c0-0.6,0.5-1,1-1h4.7"/>
	<path fill="none" stroke="#0899CC" stroke-linecap="round" stroke-linejoin="round" stroke-miterlimit="10" d="M192.4,363.7h29.9
		c0.6,0,1,0.5,1,1l0,0c0,0.6-0.5,1-1,1h-29.9"/>
	
		<line fill="none" stroke="#0899CC" stroke-linecap="round" stroke-linejoin="round" stroke-miterlimit="10" x1="227" y1="355.7" x2="180.9" y2="355.7"/>
	<path fill="none" stroke="#0899CC" stroke-linecap="round" stroke-linejoin="round" stroke-miterlimit="10" d="M191.5,367h-0.3
		c-0.5,0-0.9-0.4-0.9-0.9v-2.8c0-0.5,0.4-0.9,0.9-0.9h0.3c0.5,0,0.9,0.4,0.9,0.9v2.8C192.4,366.6,192,367,191.5,367z"/>
	<polygon fill="none" stroke="#0899CC" stroke-linecap="round" stroke-linejoin="round" stroke-miterlimit="10" points="
		200.1,340.8 200.1,334.1 205.9,337.4 211.6,340.8 205.9,344.1 200.1,347.4 	"/>
</g>
<g>
	<g>
		<path fill="none" stroke="#FFFFFF" stroke-linecap="round" stroke-linejoin="round" stroke-miterlimit="10" d="M136.8,325.1l2-1.2
			l-2.9-4.9l-2.1,1.2c-1-0.9-2.2-1.6-3.6-2v-2.4h-5.7v2.4c-1.3,0.4-2.5,1.1-3.6,2L119,319l-2.9,4.9l2,1.2c-0.3,1.4-0.3,2.7,0,4.1
			l-2,1.2l2.9,4.9l2.1-1.2c1,0.9,2.2,1.6,3.6,2v2.4h5.7v-2.4c1.3-0.4,2.5-1.1,3.6-2l2.1,1.2l2.9-4.9l-2-1.2
			C137.1,327.8,137.1,326.6,136.8,325.1z"/>
		
			<circle fill="none" stroke="#FFFFFF" stroke-linecap="round" stroke-linejoin="round" stroke-miterlimit="10" cx="127.5" cy="327.2" r="3.8"/>
	</g>
	<g>
		<path fill="none" stroke="#FFFFFF" stroke-linecap="round" stroke-linejoin="round" stroke-miterlimit="10" d="M112.2,328.1H97.9
			c-1.6,0-2.8-1.3-2.8-2.9v-21c0-1.6,1.2-2.9,2.8-2.9h34.3c1.6,0,2.9,1.3,2.9,2.9v8.6"/>
		<polyline fill="none" stroke="#FFFFFF" stroke-linecap="round" stroke-linejoin="round" stroke-miterlimit="10" points="
			134.2,302.3 115,317.7 95.9,302.3 		"/>
	</g>
</g>
<g>
	
		<line fill="none" stroke="#0899CC" stroke-linecap="round" stroke-linejoin="round" stroke-miterlimit="10" x1="45.2" y1="51.2" x2="86.4" y2="51.2"/>
	
		<circle fill="none" stroke="#0899CC" stroke-linecap="round" stroke-linejoin="round" stroke-miterlimit="10" cx="51.5" cy="46.7" r="0.9"/>
	
		<circle fill="none" stroke="#0899CC" stroke-linecap="round" stroke-linejoin="round" stroke-miterlimit="10" cx="56.9" cy="46.7" r="0.9"/>
	
		<circle fill="none" stroke="#0899CC" stroke-linecap="round" stroke-linejoin="round" stroke-miterlimit="10" cx="62.2" cy="46.7" r="0.9"/>
	
		<rect x="52.4" y="67.5" fill="none" stroke="#0899CC" stroke-linecap="round" stroke-linejoin="round" stroke-miterlimit="10" width="5.4" height="5.4"/>
	
		<rect x="63.1" y="56.8" fill="none" stroke="#0899CC" stroke-linecap="round" stroke-linejoin="round" stroke-miterlimit="10" width="5.4" height="5.4"/>
	
		<rect x="63.1" y="67.5" fill="none" stroke="#0899CC" stroke-linecap="round" stroke-linejoin="round" stroke-miterlimit="10" width="5.4" height="5.4"/>
	
		<rect x="73.9" y="67.5" fill="none" stroke="#0899CC" stroke-linecap="round" stroke-linejoin="round" stroke-miterlimit="10" width="5.4" height="5.4"/>
	<polyline fill="none" stroke="#0899CC" stroke-linecap="round" stroke-linejoin="round" stroke-miterlimit="10" points="68.5,60.3 
		75.7,60.3 75.7,67.5 	"/>
	<polyline fill="none" stroke="#0899CC" stroke-linecap="round" stroke-linejoin="round" stroke-miterlimit="10" points="63.1,60.3 
		56,60.3 56,67.5 	"/>
	<line fill="none" stroke="#0899CC" stroke-linejoin="round" stroke-miterlimit="10" x1="64.9" y1="62.1" x2="64.9" y2="67.5"/>
</g>
<g>
	
		<line fill="none" stroke="#0899CC" stroke-linecap="round" stroke-linejoin="round" stroke-miterlimit="10" x1="629.9" y1="250.3" x2="671.1" y2="250.3"/>
	
		<circle fill="none" stroke="#0899CC" stroke-linecap="round" stroke-linejoin="round" stroke-miterlimit="10" cx="636.2" cy="245.9" r="0.9"/>
	
		<circle fill="none" stroke="#0899CC" stroke-linecap="round" stroke-linejoin="round" stroke-miterlimit="10" cx="641.5" cy="245.9" r="0.9"/>
	
		<circle fill="none" stroke="#0899CC" stroke-linecap="round" stroke-linejoin="round" stroke-miterlimit="10" cx="646.9" cy="245.9" r="0.9"/>
	<line fill="none" stroke="#0899CC" stroke-linejoin="round" stroke-miterlimit="10" x1="646" y1="250.3" x2="646" y2="282.6"/>
	
		<line fill="none" stroke="#0899CC" stroke-linecap="round" stroke-linejoin="round" stroke-miterlimit="10" x1="635.3" y1="255.7" x2="640.7" y2="255.7"/>
	
		<line fill="none" stroke="#0899CC" stroke-linecap="round" stroke-linejoin="round" stroke-miterlimit="10" x1="635.3" y1="259.3" x2="640.7" y2="259.3"/>
	
		<line fill="none" stroke="#0899CC" stroke-linecap="round" stroke-linejoin="round" stroke-miterlimit="10" x1="635.3" y1="262.9" x2="640.7" y2="262.9"/>
	
		<line fill="none" stroke="#0899CC" stroke-linecap="round" stroke-linejoin="round" stroke-miterlimit="10" x1="635.3" y1="266.4" x2="640.7" y2="266.4"/>
	
		<line fill="none" stroke="#0899CC" stroke-linecap="round" stroke-linejoin="round" stroke-miterlimit="10" x1="635.3" y1="270" x2="640.7" y2="270"/>
	
		<line fill="none" stroke="#0899CC" stroke-linecap="round" stroke-linejoin="round" stroke-miterlimit="10" x1="635.3" y1="273.6" x2="640.7" y2="273.6"/>
	
		<line fill="none" stroke="#0899CC" stroke-linecap="round" stroke-linejoin="round" stroke-miterlimit="10" x1="635.3" y1="277.2" x2="640.7" y2="277.2"/>
	
		<rect x="651.4" y="255.7" fill="none" stroke="#0899CC" stroke-linecap="round" stroke-linejoin="round" stroke-miterlimit="10" width="14.3" height="9"/>
	
		<rect x="651.4" y="270" fill="none" stroke="#0899CC" stroke-linecap="round" stroke-linejoin="round" stroke-miterlimit="10" width="5.4" height="3.6"/>
	
		<rect x="660.3" y="270" fill="none" stroke="#0899CC" stroke-linecap="round" stroke-linejoin="round" stroke-miterlimit="10" width="5.4" height="3.6"/>
</g>
<g>
	<path fill="none" stroke="#0C3B60" stroke-miterlimit="10" d="M584,277.4h-62.6c-1.4,0-2.5-1.1-2.5-2.5v-3.3c0-1.4,1.1-2.5,2.5-2.5
		H584c1.4,0,2.5,1.1,2.5,2.5v3.3C586.5,276.3,585.4,277.4,584,277.4z"/>
	<path fill="none" stroke="#0C3B60" stroke-miterlimit="10" d="M563.3,291.1H542c-2.3,0-4.2-1.9-4.2-4.2v0c0-2.3,1.9-4.2,4.2-4.2
		h21.3c2.3,0,4.2,1.9,4.2,4.2v0C567.5,289.2,565.6,291.1,563.3,291.1z"/>
	<g>
		<rect x="540.7" y="233.1" fill="none" stroke="#0C3B60" stroke-miterlimit="10" width="23.8" height="18.1"/>
		<g>
			<path fill="none" stroke="#0C3B60" stroke-miterlimit="10" d="M560.9,233.1v-5.9c0-4.6-3.7-8.3-8.3-8.3h0c-4.6,0-8.3,3.7-8.3,8.3
				v5.8"/>
			<path fill="none" stroke="#0C3B60" stroke-miterlimit="10" d="M557.6,233.1v-5.7c0-2.7-2.2-4.9-4.9-4.9h0c-2.7,0-4.9,2.2-4.9,4.9
				v5.6"/>
		</g>
		<path fill="none" stroke="#0C3B60" stroke-miterlimit="10" d="M555.3,240.1c0-1.5-1.2-2.6-2.6-2.6c-1.5,0-2.6,1.2-2.6,2.6
			c0,1.1,0.7,2.2,1.7,2.5v4.6h1.9v-4.6C554.6,242.1,555.3,241.2,555.3,240.1z"/>
	</g>
	<g>
		<circle fill="none" stroke="#0C3B60" stroke-miterlimit="10" cx="531.8" cy="273.2" r="0.9"/>
		<circle fill="none" stroke="#0C3B60" stroke-miterlimit="10" cx="536.4" cy="273.2" r="0.9"/>
		<circle fill="none" stroke="#0C3B60" stroke-miterlimit="10" cx="541.1" cy="273.2" r="0.9"/>
		<circle fill="none" stroke="#0C3B60" stroke-miterlimit="10" cx="545.7" cy="273.2" r="0.9"/>
		<circle fill="none" stroke="#0C3B60" stroke-miterlimit="10" cx="550.3" cy="273.2" r="0.9"/>
		<circle fill="none" stroke="#0C3B60" stroke-miterlimit="10" cx="555" cy="273.2" r="0.9"/>
		<circle fill="none" stroke="#0C3B60" stroke-miterlimit="10" cx="559.6" cy="273.2" r="0.9"/>
		<circle fill="none" stroke="#0C3B60" stroke-miterlimit="10" cx="564.2" cy="273.2" r="0.9"/>
		<circle fill="none" stroke="#0C3B60" stroke-miterlimit="10" cx="568.8" cy="273.2" r="0.9"/>
		<circle fill="none" stroke="#0C3B60" stroke-miterlimit="10" cx="573.5" cy="273.2" r="0.9"/>
	</g>
	<path fill="none" stroke="#0C3B60" stroke-miterlimit="10" d="M584,266.1h-62.6c-1.4,0-2.5-1.1-2.5-2.5v-3.3c0-1.4,1.1-2.5,2.5-2.5
		H584c1.4,0,2.5,1.1,2.5,2.5v3.3C586.5,265,585.4,266.1,584,266.1z"/>
	<g>
		<circle fill="none" stroke="#0C3B60" stroke-miterlimit="10" cx="531.8" cy="261.9" r="0.9"/>
		<circle fill="none" stroke="#0C3B60" stroke-miterlimit="10" cx="536.4" cy="261.9" r="0.9"/>
		<circle fill="none" stroke="#0C3B60" stroke-miterlimit="10" cx="541.1" cy="261.9" r="0.9"/>
		<circle fill="none" stroke="#0C3B60" stroke-miterlimit="10" cx="545.7" cy="261.9" r="0.9"/>
		<circle fill="none" stroke="#0C3B60" stroke-miterlimit="10" cx="550.3" cy="261.9" r="0.9"/>
		<circle fill="none" stroke="#0C3B60" stroke-miterlimit="10" cx="555" cy="261.9" r="0.9"/>
		<circle fill="none" stroke="#0C3B60" stroke-miterlimit="10" cx="559.6" cy="261.9" r="0.9"/>
		<circle fill="none" stroke="#0C3B60" stroke-miterlimit="10" cx="564.2" cy="261.9" r="0.9"/>
		<circle fill="none" stroke="#0C3B60" stroke-miterlimit="10" cx="568.8" cy="261.9" r="0.9"/>
		<circle fill="none" stroke="#0C3B60" stroke-miterlimit="10" cx="573.5" cy="261.9" r="0.9"/>
	</g>
</g>
<g>
	<g>
		<g>
			
				<line fill="none" stroke="#0899CC" stroke-linecap="round" stroke-linejoin="round" stroke-miterlimit="10" x1="183.9" y1="122.2" x2="221.8" y2="122.2"/>
			
				<line fill="none" stroke="#0899CC" stroke-linecap="round" stroke-linejoin="round" stroke-miterlimit="10" x1="183.9" y1="125.7" x2="200.2" y2="125.7"/>
		</g>
		<path fill="none" stroke="#0899CC" stroke-linecap="round" stroke-linejoin="round" stroke-miterlimit="10" d="M174.4,127.2h-9.2
			c-1.8,0-3.2-1.4-3.2-3.2l0,0c0-1.8,1.4-3.2,3.2-3.2h9.2c1.8,0,3.2,1.4,3.2,3.2l0,0C177.6,125.7,176.1,127.2,174.4,127.2z"/>
		
			<circle fill="none" stroke="#0899CC" stroke-linecap="round" stroke-linejoin="round" stroke-miterlimit="10" cx="165.3" cy="123.9" r="1.2"/>
	</g>
	<g>
		<g>
			
				<line fill="none" stroke="#0899CC" stroke-linecap="round" stroke-linejoin="round" stroke-miterlimit="10" x1="183.9" y1="136.2" x2="205.1" y2="136.2"/>
			
				<line fill="none" stroke="#0899CC" stroke-linecap="round" stroke-linejoin="round" stroke-miterlimit="10" x1="183.9" y1="139.8" x2="212.3" y2="139.8"/>
		</g>
		<path fill="none" stroke="#0899CC" stroke-linecap="round" stroke-linejoin="round" stroke-miterlimit="10" d="M174.4,141.2h-9.2
			c-1.8,0-3.2-1.4-3.2-3.2v0c0-1.8,1.4-3.2,3.2-3.2h9.2c1.8,0,3.2,1.4,3.2,3.2v0C177.6,139.8,176.1,141.2,174.4,141.2z"/>
		
			<circle fill="none" stroke="#0899CC" stroke-linecap="round" stroke-linejoin="round" stroke-miterlimit="10" cx="174.2" cy="138" r="1.2"/>
	</g>
	<g>
		<g>
			
				<line fill="none" stroke="#0899CC" stroke-linecap="round" stroke-linejoin="round" stroke-miterlimit="10" x1="183.9" y1="150.3" x2="214.6" y2="150.3"/>
			
				<line fill="none" stroke="#0899CC" stroke-linecap="round" stroke-linejoin="round" stroke-miterlimit="10" x1="183.9" y1="153.9" x2="191" y2="153.9"/>
		</g>
		<path fill="none" stroke="#0899CC" stroke-linecap="round" stroke-linejoin="round" stroke-miterlimit="10" d="M174.4,155.3h-9.2
			c-1.8,0-3.2-1.4-3.2-3.2v0c0-1.8,1.4-3.2,3.2-3.2h9.2c1.8,0,3.2,1.4,3.2,3.2v0C177.6,153.9,176.1,155.3,174.4,155.3z"/>
		
			<circle fill="none" stroke="#0899CC" stroke-linecap="round" stroke-linejoin="round" stroke-miterlimit="10" cx="165.3" cy="152.1" r="1.2"/>
	</g>
	<g>
		<g>
			
				<line fill="none" stroke="#0899CC" stroke-linecap="round" stroke-linejoin="round" stroke-miterlimit="10" x1="183.9" y1="164.4" x2="204.5" y2="164.4"/>
			
				<line fill="none" stroke="#0899CC" stroke-linecap="round" stroke-linejoin="round" stroke-miterlimit="10" x1="183.9" y1="167.9" x2="221.8" y2="167.9"/>
		</g>
		<path fill="none" stroke="#0899CC" stroke-linecap="round" stroke-linejoin="round" stroke-miterlimit="10" d="M174.4,169.4h-9.2
			c-1.8,0-3.2-1.4-3.2-3.2l0,0c0-1.8,1.4-3.2,3.2-3.2h9.2c1.8,0,3.2,1.4,3.2,3.2l0,0C177.6,168,176.1,169.4,174.4,169.4z"/>
		
			<circle fill="none" stroke="#0899CC" stroke-linecap="round" stroke-linejoin="round" stroke-miterlimit="10" cx="174.2" cy="166.2" r="1.2"/>
	</g>
	<g>
		<g>
			
				<line fill="none" stroke="#0899CC" stroke-linecap="round" stroke-linejoin="round" stroke-miterlimit="10" x1="183.9" y1="177.9" x2="213.2" y2="177.9"/>
			
				<line fill="none" stroke="#0899CC" stroke-linecap="round" stroke-linejoin="round" stroke-miterlimit="10" x1="183.9" y1="181.5" x2="207.5" y2="181.5"/>
		</g>
		<path fill="none" stroke="#0899CC" stroke-linecap="round" stroke-linejoin="round" stroke-miterlimit="10" d="M174.4,182.9h-9.2
			c-1.8,0-3.2-1.4-3.2-3.2l0,0c0-1.8,1.4-3.2,3.2-3.2h9.2c1.8,0,3.2,1.4,3.2,3.2l0,0C177.6,181.5,176.1,182.9,174.4,182.9z"/>
		
			<circle fill="none" stroke="#0899CC" stroke-linecap="round" stroke-linejoin="round" stroke-miterlimit="10" cx="174.2" cy="179.7" r="1.2"/>
	</g>
</g>
<line fill="none" stroke="#A6A6A6" stroke-miterlimit="10" x1="514.3" y1="300.1" x2="445.6" y2="300.1"/>
<path fill="none" stroke="#A6A6A6" stroke-miterlimit="10" d="M162.5,312.5h100.8c5.4,0,9.8-4.4,9.8-9.8V277c0-5.4,4.4-9.8,9.8-9.8
	h56.8"/>
<path fill="none" stroke="#A6A6A6" stroke-miterlimit="10" d="M235.3,183.1v23.6c0,3.4,2.7,6.1,6.1,6.1h126.7"/>
<path fill="none" stroke="#A6A6A6" stroke-miterlimit="10" d="M588.5,98.5v40.2c0,5.1-4.2,9.3-9.3,9.3H442.7"/>
<circle fill="#FFFFFF" stroke="#A3A3A3" stroke-miterlimit="10" cx="162.5" cy="312.5" r="2"/>
<circle fill="#FFFFFF" stroke="#A3A3A3" stroke-miterlimit="10" cx="514.3" cy="300" r="2"/>
<circle fill="#FFFFFF" stroke="#A3A3A3" stroke-miterlimit="10" cx="446" cy="300" r="2"/>
<circle fill="#FFFFFF" stroke="#A3A3A3" stroke-miterlimit="10" cx="339.6" cy="267.2" r="2"/>
<circle fill="#FFFFFF" stroke="#A3A3A3" stroke-miterlimit="10" cx="588.5" cy="98.6" r="2"/>
<circle fill="#FFFFFF" stroke="#A3A3A3" stroke-miterlimit="10" cx="441.9" cy="148.1" r="2"/>
<circle fill="#FFFFFF" stroke="#A3A3A3" stroke-miterlimit="10" cx="235.3" cy="183.5" r="2"/>
<circle fill="#FFFFFF" stroke="#A3A3A3" stroke-miterlimit="10" cx="368.1" cy="212.7" r="2"/>
</svg>
