<?xml version="1.0" encoding="utf-8"?>
<!-- Generator: Adobe Illustrator 23.0.1, SVG Export Plug-In . SVG Version: 6.00 Build 0)  -->
<svg version="1.1" id="Layer_ffqw" xmlns="http://www.w3.org/2000/svg" xmlns:xlink="http://www.w3.org/1999/xlink" x="0px" y="0px"
	 viewBox="0 0 750 400" enable-background="new 0 0 750 400" xml:space="preserve">
<g id="clouds_bits">
	<g transform="matrix( 1, 0, 0, 1, 0,0) ">
		<g>
			<g id="Layer4_0_FILL">
				<path fill="#83C4EC" d="M639,159.3v-2.6c0-0.3-0.1-0.5-0.3-0.7c-0.2-0.2-0.4-0.3-0.7-0.3s-0.5,0.1-0.7,0.3
					c-0.2,0.2-0.3,0.4-0.3,0.7v2.6h-2.5c-0.3,0-0.5,0.1-0.6,0.3c-0.2,0.2-0.3,0.4-0.3,0.6c0,0.3,0.1,0.5,0.3,0.7
					c0.2,0.2,0.4,0.3,0.6,0.3h2.5v2.6c0,0.3,0.1,0.5,0.3,0.6c0.2,0.2,0.4,0.3,0.7,0.3c0.2,0,0.5-0.1,0.7-0.3
					c0.2-0.2,0.3-0.4,0.3-0.6v-2.6h2.5c0.3,0,0.5-0.1,0.7-0.3c0.2-0.2,0.3-0.4,0.3-0.7c0-0.3-0.1-0.5-0.3-0.6
					c-0.2-0.2-0.4-0.3-0.7-0.3H639 M110.8,288.9c0,0.3,0.1,0.5,0.3,0.6c0.2,0.2,0.4,0.3,0.7,0.3h2.6v2.6c0,0.3,0.1,0.5,0.3,0.7
					c0.2,0.2,0.4,0.3,0.7,0.3s0.5-0.1,0.7-0.3c0.2-0.2,0.3-0.4,0.3-0.7v-2.6h2.6c0.2,0,0.4-0.1,0.6-0.3c0.2-0.2,0.3-0.4,0.3-0.6
					s-0.1-0.5-0.3-0.7c-0.2-0.2-0.4-0.3-0.6-0.3h-2.6v-2.6c0-0.3-0.1-0.5-0.3-0.6c-0.2-0.2-0.4-0.3-0.7-0.3s-0.5,0.1-0.7,0.3
					c-0.2,0.2-0.3,0.4-0.3,0.6v2.6h-2.6C111.1,287.9,110.8,288.2,110.8,288.9 M108.9,121.2c0.2,0.2,0.4,0.3,0.7,0.3h2.6v2.6
					c0,0.3,0.1,0.5,0.3,0.7c0.2,0.2,0.4,0.2,0.7,0.3c0.3,0,0.5-0.1,0.7-0.3c0.2-0.2,0.3-0.4,0.3-0.7v-2.6h2.6c0.2,0,0.4-0.1,0.7-0.3
					c0.2-0.2,0.3-0.4,0.3-0.7s-0.1-0.5-0.3-0.7c-0.2-0.2-0.4-0.2-0.7-0.3h-2.6v-2.6c0-0.3-0.1-0.5-0.3-0.6c-0.2-0.2-0.4-0.3-0.7-0.3
					c-0.3,0-0.5,0.1-0.7,0.3c-0.2,0.2-0.3,0.4-0.3,0.6v2.6h-2.6c-0.6,0-0.9,0.3-0.9,0.9C108.7,120.8,108.7,121,108.9,121.2
					 M607.9,318.9c0-0.3-0.1-0.5-0.3-0.6c-0.2-0.2-0.4-0.3-0.7-0.3h-2.6v-2.5c0-0.6-0.3-1-0.9-1c-0.6,0-1,0.3-1,1v2.5h-2.5
					c-0.3,0-0.5,0.1-0.7,0.3c-0.2,0.2-0.3,0.4-0.3,0.6s0.1,0.5,0.3,0.7c0.2,0.2,0.4,0.3,0.7,0.3h2.5v2.6c0,0.3,0.1,0.5,0.3,0.6
					c0.2,0.2,0.4,0.3,0.7,0.3s0.5-0.1,0.7-0.3c0.2-0.2,0.3-0.4,0.3-0.6v-2.6h2.6c0.3,0,0.5-0.1,0.7-0.3
					C607.8,319.4,607.9,319.1,607.9,318.9 M490.1,47c0-0.2-0.1-0.5-0.3-0.7s-0.4-0.3-0.6-0.3c-0.3,0-0.5,0.1-0.7,0.3
					c-0.2,0.2-0.3,0.4-0.3,0.7v2.6h-2.6c-0.3,0-0.5,0.1-0.6,0.3c-0.2,0.2-0.3,0.4-0.3,0.7c0,0.3,0.1,0.5,0.3,0.7
					c0.2,0.2,0.4,0.3,0.6,0.3h2.6V54c0,0.6,0.3,1,1,1c0.3,0,0.5-0.1,0.6-0.3c0.2-0.2,0.3-0.4,0.3-0.7v-2.5h2.6
					c0.3,0,0.5-0.1,0.7-0.3c0.2-0.2,0.3-0.4,0.3-0.7c0-0.6-0.3-1-0.9-1h-2.6V47z"/>
				<path fill="#BFBFBF" d="M122.8,76.8h6l3.1-5.2l-3.1-5.2h-6l-3,5.2L122.8,76.8 M130.1,71.6l-2.2,3.8h-4.3l-2.2-3.8l2.2-3.8h4.3
					L130.1,71.6 M375.8,341.9h-6l-3,5.2l3,5.2h6l3-5.2L375.8,341.9 M370.5,343.3h4.4l2.2,3.8l-2.2,3.8h-4.4l-2.2-3.8L370.5,343.3z"
					/>
				<path fill="#3D3D3D" fill-opacity="0.1686" d="M144.1,330c-3.4,0-6.4,0.9-9.2,2.8c-1.9-1.9-4.1-3.4-6.7-4.5
					c-2.6-1.1-5.3-1.6-8.1-1.6c-4.3,0-8.3,1.2-11.8,3.7c-3.5,2.4-6,5.5-7.6,9.4c-2-2.1-4.4-3.1-7.3-3.1c-2.6,0-4.9,0.9-6.9,2.8
					c-1.9,1.8-3,4-3.1,6.6h144.1c-0.2-8-3.2-14.9-9-20.5c-5.8-5.7-12.7-8.5-20.7-8.5c-4.6,0-9,1-13.1,3c-4,1.9-7.3,4.6-10.1,8.1
					c-1.1-2.1-2.7-3.7-4.7-4.9c-2.1-1.3-4.4-1.9-6.8-1.9c-3,0-5.8,0.9-8.1,2.8c-2.3,1.9-3.9,4.2-4.6,7.1
					C148.3,330.4,146.2,330,144.1,330 M616.2,234.8c-2.7,0-5.3,0.6-7.7,1.8c-2.3,1.1-4.3,2.7-6,4.8c-0.7-1.2-1.6-2.2-2.8-2.9
					c-1.2-0.8-2.6-1.1-4-1.1c-1.8,0-3.3,0.5-4.8,1.6c-1.4,1.1-2.3,2.5-2.7,4.2c-1.2-0.5-2.4-0.7-3.7-0.7c-1.9,0-3.7,0.5-5.4,1.6
					c-2.4-2.4-5.3-3.6-8.7-3.6c-2.6,0-4.9,0.7-7,2.1c-2.1,1.4-3.5,3.3-4.5,5.6c-1.2-1.3-2.6-1.9-4.3-1.9c-1.6,0-2.9,0.5-4,1.6
					c-1.1,1.1-1.8,2.4-1.9,3.9h84.8c-0.1-4.7-1.9-8.8-5.3-12.1C625,236.5,620.9,234.8,616.2,234.8 M346.2,59
					c-4.6-3.5-9.8-5.3-15.5-5.3c-3.7,0-7.2,0.8-10.6,2.3c-3.2,1.5-6.1,3.6-8.6,6.3c-3.7-2.6-7.6-3.9-11.9-3.9
					c-2.8,0-5.5,0.6-8.2,1.8c-0.9-4.1-2.9-7.5-5.9-10.1c-3.1-2.7-6.6-4-10.6-4c-3.2,0-6.1,0.9-8.9,2.7c-2.6,1.8-4.7,4.1-6.1,7
					c-3.6-4.9-8-8.7-13.2-11.5c-5.4-2.9-11.1-4.3-17.1-4.3c-10.5,0-19.5,4-27,12c-7.5,8-11.4,17.7-11.7,29.1h187.8
					c-0.3-3.7-1.6-6.9-4.1-9.4c-2.5-2.6-5.5-3.8-9-3.8c-1.8,0-3.6,0.4-5.3,1.2c-1.6,0.8-3,1.9-4.3,3.3C354,66.8,350.7,62.4,346.2,59
					z"/>
				<path fill="#F7571A" d="M96.6,264.1c0,0.5,0.2,1,0.6,1.4c0.4,0.4,0.8,0.6,1.4,0.6c0.5,0,1-0.2,1.3-0.6c0.4-0.4,0.5-0.8,0.5-1.4
					c0-0.5-0.2-1-0.5-1.4c-0.4-0.4-0.8-0.5-1.3-0.5c-0.5,0-1,0.2-1.4,0.5C96.8,263.2,96.6,263.6,96.6,264.1 M608.5,172.3
					c-0.4,0.4-0.6,0.8-0.6,1.4s0.2,1,0.6,1.4c0.4,0.4,0.8,0.6,1.3,0.6c0.5,0,1-0.2,1.4-0.6c0.4-0.4,0.5-0.9,0.5-1.4s-0.2-1-0.5-1.4
					c-0.4-0.4-0.8-0.6-1.4-0.6C609.3,171.7,608.9,171.9,608.5,172.3z"/>
				<path fill="#BAD727" d="M130.7,158.9c0,0.5,0.2,1,0.6,1.4c0.4,0.4,0.8,0.6,1.3,0.6c0.5,0,1-0.2,1.4-0.6s0.6-0.8,0.6-1.4
					c0-0.5-0.2-1-0.6-1.3s-0.8-0.6-1.4-0.6c-0.5,0-1,0.2-1.3,0.6C130.9,157.9,130.7,158.4,130.7,158.9 M559.6,358
					c0,0.5,0.2,1,0.6,1.4c0.4,0.4,0.8,0.6,1.3,0.6c0.5,0,1-0.2,1.3-0.6c0.4-0.4,0.6-0.9,0.6-1.4s-0.2-1-0.6-1.4
					c-0.4-0.4-0.8-0.5-1.3-0.5s-1,0.2-1.3,0.5C559.8,357,559.6,357.5,559.6,358z"/>
				<path fill="#DEDEDE" d="M62.1,190.9c0,1.1,0.4,2,1.1,2.7c0.8,0.7,1.7,1.1,2.7,1.1c1,0,1.9-0.4,2.7-1.1c0.7-0.7,1.1-1.6,1.1-2.7
					c0-1.1-0.4-2-1.1-2.8c-0.7-0.7-1.6-1.1-2.7-1.1c-1.1,0-2,0.4-2.7,1.1C62.5,188.9,62.1,189.8,62.1,190.9 M668.8,228.1
					c0,0.5,0.2,1,0.5,1.3c0.4,0.4,0.9,0.6,1.4,0.6s1-0.2,1.3-0.6c0.4-0.4,0.6-0.8,0.6-1.3s-0.2-1-0.6-1.4c-0.4-0.4-0.8-0.6-1.3-0.6
					c-0.6,0-1,0.2-1.4,0.6C669,227.1,668.8,227.6,668.8,228.1z"/>
				<path fill="#D1D1D1" d="M471.4,60.8c-0.7-0.7-1.6-1.1-2.7-1.1c-1.1,0-2,0.4-2.8,1.1c-0.7,0.7-1.1,1.6-1.1,2.7
					c0,1.1,0.4,2,1.1,2.8c0.8,0.7,1.7,1.1,2.8,1.1c1.1,0,2-0.4,2.7-1.1c0.8-0.8,1.1-1.7,1.1-2.8C472.5,62.5,472.1,61.6,471.4,60.8z"
					/>
			</g>
		</g>
		<g>
			<path id="Layer4_0_1_STROKES" fill="none" stroke="#BFBFBF" stroke-width="2" stroke-miterlimit="10" d="M613.3,124.4
				c0,0.9,0.3,1.7,1,2.3c0.6,0.6,1.4,1,2.3,1c0.9,0,1.6-0.3,2.3-1c0.6-0.6,1-1.4,1-2.3c0-0.9-0.3-1.6-1-2.3c-0.6-0.6-1.4-1-2.3-1
				c-0.9,0-1.7,0.3-2.3,1C613.6,122.8,613.3,123.5,613.3,124.4z M638,300.6c0,0.3,0.1,0.7,0.2,1c0.1,0.5,0.4,1,0.8,1.4
				c0.6,0.6,1.4,0.9,2.3,0.9c0.9,0,1.7-0.3,2.3-0.9c0.6-0.6,1-1.4,1-2.3c0-0.9-0.3-1.6-1-2.3c-0.4-0.4-0.9-0.7-1.5-0.9
				c-0.3-0.1-0.5-0.1-0.8-0.1c-0.9,0-1.6,0.3-2.3,0.9C638.4,299,638,299.8,638,300.6z M313.3,363.2c0,0.9,0.3,1.7,1,2.3s1.4,1,2.3,1
				c0.9,0,1.7-0.3,2.3-1s1-1.4,1-2.3s-0.3-1.7-1-2.3c-0.6-0.6-1.4-0.9-2.3-0.9c-0.9,0-1.6,0.3-2.3,0.9
				C313.6,361.5,313.3,362.3,313.3,363.2z"/>
		</g>
	</g>
</g>
<g id="browser">
	<g transform="matrix( 1, 0, 0, 1, 0,0) ">
		<g>
			<g id="Layer3_0_FILL">
				<path fill="#595959" d="M175.4,93.2h-0.3v230.5c0,1.1,0.2,2.1,0.7,3c-0.3-0.7-0.4-1.5-0.4-2.3V111.7V93.2 M248,93.2L248,93.2
					l-72.8,0v0h0.3H248 M538.5,93.2L538.5,93.2l-290.5,0v0H538.5 M184.9,72.9l-2.6,0c-2,0-3.7,0.7-5.1,2.1c-1.1,1.1-1.7,2.3-1.9,3.7
					c0.3-1.4,0.9-2.6,2-3.6c1.4-1.4,3.1-2.2,5.1-2.2H184.9 M532.8,72.9c-0.2-0.1-0.4-0.1-0.6-0.1H175.4c-2,0-3.7,0.7-5.1,2.1
					c-1.4,1.4-2.1,3.1-2.1,5.1v243.6c0,2,0.7,3.6,2.1,5c1.4,1.4,3.1,2.1,5.1,2.1h5c-1.2-0.3-2.3-0.9-3.1-1.8
					c-0.7-0.7-1.1-1.5-1.4-2.3c-0.4-0.9-0.7-1.9-0.7-3V93.2h-0.3h0.3v0v-13c0,0,0-0.1,0-0.1l0.2-1.4c0.2-1.4,0.9-2.6,1.9-3.7
					c1.4-1.4,3.1-2.1,5.1-2.1l2.6,0H532.8 M539.6,93.2L539.6,93.2l-1.1,0v0H539.6 M532.8,72.9h6.8v-0.1h-7.3
					C532.4,72.8,532.6,72.9,532.8,72.9z"/>
				<path fill="#FEFEFE" d="M580.6,324c0-0.1,0-0.2,0-0.3V111.7H175.4v212.8c0,0.8,0.1,1.5,0.4,2.3c0.3,0.7,0.8,1.4,1.4,2.1
					c1,1,2.2,1.7,3.6,2c0.3,0.1,0.6,0.1,1,0.1h0.1h391.7c1.9-0.1,3.5-0.8,4.8-2.1C579.8,327.4,580.5,325.8,580.6,324 M580.6,324
					c-0.1,1.8-0.8,3.4-2.1,4.8c-1.3,1.3-2.9,2-4.8,2.1c1.9,0,3.5-0.7,4.9-2C579.9,327.5,580.6,325.9,580.6,324 M180.4,330.8
					c0.4,0.1,0.9,0.1,1.4,0.1c-0.3,0-0.7-0.1-1-0.1c-1.4-0.3-2.6-0.9-3.6-2c-0.6-0.7-1.1-1.4-1.4-2.1c0.3,0.8,0.8,1.6,1.4,2.3
					C178.2,329.9,179.3,330.5,180.4,330.8z"/>
				<path fill="#2C538A" d="M580.6,93.2h-0.3h-40.7h-1.1H248h-72.6v18.5h405.1V93.2 M183.7,102h72H183.7 M553.4,102h21.3H553.4
					 M515,102h31H515 M450.8,102h56H450.8z"/>
				<path fill="#CACACA" d="M573.4,72.9h-2.5h-31.3h-6.8H184.9h-2.5c-2,0-3.7,0.7-5.1,2.2c-1.1,1-1.7,2.2-2,3.6l-0.2,1.4
					c0,0,0,0.1,0,0.1v13H248h290.5h1.1h41v-13c0,0,0-0.1,0-0.1c0-1-0.2-1.9-0.5-2.7c-0.1-0.2-0.2-0.4-0.3-0.6
					c-0.3-0.6-0.8-1.2-1.3-1.7C577.1,73.7,575.4,72.9,573.4,72.9 M200.6,82.4c0,0.8-0.3,1.4-0.8,2c-0.6,0.5-1.2,0.8-2,0.8
					c-0.8,0-1.4-0.3-2-0.8c-0.5-0.5-0.8-1.2-0.8-2c0-0.8,0.3-1.4,0.8-2c0.5-0.5,1.2-0.8,2-0.8c0.8,0,1.4,0.3,2,0.8
					C200.4,81,200.6,81.7,200.6,82.4 M190.1,82.4c0,0.8-0.3,1.4-0.8,2c-0.5,0.5-1.2,0.8-2,0.8c-0.8,0-1.4-0.3-2-0.8
					c-0.5-0.5-0.8-1.2-0.8-2c0-0.8,0.3-1.4,0.8-2c0.6-0.5,1.2-0.8,2-0.8c0.8,0,1.4,0.3,2,0.8C189.9,81,190.1,81.7,190.1,82.4
					 M211.1,82.4c0,0.8-0.3,1.4-0.8,2c-0.6,0.5-1.2,0.8-2,0.8c-0.8,0-1.4-0.3-2-0.8c-0.5-0.5-0.8-1.2-0.8-2c0-0.8,0.3-1.4,0.8-2
					c0.5-0.5,1.2-0.8,2-0.8c0.8,0,1.4,0.3,2,0.8C210.9,81,211.1,81.7,211.1,82.4 M210.4,84.4c0.5-0.5,0.8-1.2,0.8-2
					c0-0.8-0.3-1.4-0.8-2c-0.6-0.5-1.2-0.8-2-0.8c-0.8,0-1.4,0.3-2,0.8c-0.5,0.6-0.8,1.2-0.8,2c0,0.8,0.3,1.4,0.8,2
					c0.5,0.5,1.2,0.8,2,0.8C209.1,85.2,209.8,84.9,210.4,84.4 M189.4,84.4c0.5-0.5,0.8-1.2,0.8-2c0-0.8-0.3-1.4-0.8-2
					c-0.5-0.5-1.2-0.8-2-0.8c-0.8,0-1.4,0.3-2,0.8c-0.5,0.6-0.8,1.2-0.8,2c0,0.8,0.3,1.4,0.8,2c0.6,0.5,1.2,0.8,2,0.8
					C188.2,85.2,188.8,84.9,189.4,84.4 M199.9,84.4c0.5-0.5,0.8-1.2,0.8-2c0-0.8-0.3-1.4-0.8-2c-0.6-0.5-1.2-0.8-2-0.8
					c-0.8,0-1.4,0.3-2,0.8c-0.5,0.6-0.8,1.2-0.8,2c0,0.8,0.3,1.4,0.8,2c0.5,0.5,1.2,0.8,2,0.8C198.6,85.2,199.3,84.9,199.9,84.4z"/>
			</g>
		</g>
		<g>
			<path id="Layer3_0_1_STROKES" fill="none" stroke="#000000" stroke-miterlimit="10" d="M579.8,76.8c-0.3-0.6-0.8-1.2-1.3-1.8
				c-1.4-1.4-3.1-2.1-5.1-2.1l-2.5,0h-31.3h-6.8H184.9 M175.2,80.1l0.2-1.4 M175.2,93.2v-13 M580.6,93.2v-13c0,0,0-0.1,0-0.1
				c0-1-0.2-1.9-0.5-2.7c-0.1-0.2-0.2-0.4-0.3-0.6 M580.6,93.2L580.6,93.2 M538.5,93.2h1.1h40.7 M538.5,93.2L538.5,93.2 M539.6,72.8
				h-7.3c0.2,0,0.3,0.1,0.6,0.1 M580.6,93.2v18.5v212.1c0,0.1,0,0.2,0,0.3 M573.7,330.9H182 M180.4,330.8h-5c-2,0-3.7-0.7-5.1-2.1
				c-1.4-1.4-2.1-3.1-2.1-5V80c0-2,0.7-3.7,2.1-5.1c1.4-1.4,3.1-2.1,5.1-2.1h356.8 M580.6,324c-0.1,1.8-0.8,3.4-2.1,4.8
				c-1.3,1.3-2.9,2-4.8,2.1 M248,93.2L248,93.2l290.5,0 M175.4,78.7c0.2-1.4,0.9-2.6,1.9-3.7c1.4-1.4,3.1-2.1,5.1-2.1l2.6,0
				 M174.9,93.2h0.3v0 M175.2,93.2h0.3H248 M200.6,82.4c0,0.8-0.3,1.4-0.8,2c-0.6,0.5-1.2,0.8-2,0.8c-0.8,0-1.4-0.3-2-0.8
				c-0.5-0.5-0.8-1.2-0.8-2c0-0.8,0.3-1.4,0.8-2c0.5-0.5,1.2-0.8,2-0.8c0.8,0,1.4,0.3,2,0.8C200.4,81,200.6,81.7,200.6,82.4z
				 M190.1,82.4c0,0.8-0.3,1.4-0.8,2c-0.5,0.5-1.2,0.8-2,0.8c-0.8,0-1.4-0.3-2-0.8c-0.5-0.5-0.8-1.2-0.8-2c0-0.8,0.3-1.4,0.8-2
				c0.6-0.5,1.2-0.8,2-0.8c0.8,0,1.4,0.3,2,0.8C189.9,81,190.1,81.7,190.1,82.4z M211.1,82.4c0,0.8-0.3,1.4-0.8,2
				c-0.6,0.5-1.2,0.8-2,0.8c-0.8,0-1.4-0.3-2-0.8c-0.5-0.5-0.8-1.2-0.8-2c0-0.8,0.3-1.4,0.8-2c0.5-0.5,1.2-0.8,2-0.8
				c0.8,0,1.4,0.3,2,0.8C210.9,81,211.1,81.7,211.1,82.4z M175.9,326.7c-0.4-0.9-0.7-1.9-0.7-3V93.2 M175.4,111.7h405.1
				 M175.9,326.7c0.3,0.7,0.8,1.4,1.4,2.1c1,1,2.2,1.7,3.6,2c0.3,0.1,0.6,0.1,1,0.1"/>
		</g>
		<g>
			<path id="Layer3_0_2_STROKES" fill="none" stroke="#FFFFFF" stroke-miterlimit="10" d="M515,102h31 M553.4,102h21.3 M450.8,102
				h56 M183.7,102h72"/>
		</g>
	</g>
</g>
<g id="content">
	<g transform="matrix( 1, 0, 0, 1, 0,0) ">
		<g>
			<g id="Layer2_0_FILL">
				<path fill="#BAD727" d="M391.8,138.6l-6.8,9.7l6.8,9.8h77.3v-19.5H391.8 M432.3,145.6h20.8H432.3 M432.3,151.2h30.9H432.3
					 M395.3,151.2h15H395.3 M395.3,145.6h23.2H395.3z"/>
				<path fill="#CACACA" d="M323.8,125.4c0-1-0.4-1.9-1.1-2.6c-0.6-0.6-1.3-0.9-2.1-1c-0.2,0-0.4-0.1-0.6-0.1s-0.4,0-0.6,0.1H282
					c-0.2,0-0.4-0.1-0.7-0.1c-0.2,0-0.4,0-0.6,0.1c-0.8,0.1-1.5,0.5-2,1c-0.7,0.7-1.1,1.6-1.1,2.6v7.7h46.3V125.4 M284.3,128h32.1
					H284.3 M240.6,121.8c-0.8,0.1-1.4,0.5-2,1.1c-0.6,0.6-0.9,1.3-1.1,2v4.6c0,1,0.4,1.8,1.1,2.6c0.6,0.6,1.3,0.9,2.1,1.1
					c0.2,0,0.4,0.1,0.7,0.1c0.2,0,0.4,0,0.6-0.1h35.5v-7.7c0-1-0.4-1.9-1.1-2.6c-0.6-0.6-1.3-0.9-2-1.1c-0.2,0-0.4-0.1-0.6-0.1
					c-0.2,0-0.5,0-0.7,0.1h-31.1c-0.2,0-0.4-0.1-0.6-0.1C241.1,121.7,240.8,121.7,240.6,121.8 M243.6,128h27H243.6 M461.1,125.4
					c0-1-0.4-1.9-1.1-2.6c-0.6-0.6-1.3-0.9-2-1c-0.2,0-0.4-0.1-0.6-0.1s-0.5,0-0.6,0.1h-46.3c-0.2,0-0.4-0.1-0.7-0.1s-0.4,0-0.6,0.1
					c-0.8,0.1-1.5,0.5-2,1c-0.7,0.7-1.1,1.6-1.1,2.6v7.6h55.1V125.4 M413,128h41.3H413 M365.1,125.4c0-0.1,0-0.2,0-0.3
					c-0.1-0.9-0.4-1.6-1.1-2.3c-0.6-0.6-1.3-0.9-2-1c-0.2,0-0.4-0.1-0.6-0.1s-0.5,0-0.6,0.1h-32.5c-0.2,0-0.4-0.1-0.6-0.1
					s-0.5,0-0.6,0.1c-0.8,0.1-1.5,0.5-2.1,1c-0.7,0.7-1.1,1.6-1.1,2.6v7.6h41.4v-5L365.1,125.4 M330.6,128h27H330.6 M402.2,121.8
					c-0.2,0-0.5,0-0.7,0.1h-32c-0.2,0-0.4-0.1-0.6-0.1s-0.5,0-0.6,0.1c-0.8,0.1-1.4,0.5-2,1c-0.6,0.6-1,1.4-1.1,2.3
					c0,0.1,0,0.2,0,0.3v2.6v5H406v-7.6c0-1-0.4-1.9-1.1-2.6c-0.6-0.6-1.3-0.9-2-1C402.6,121.8,402.4,121.8,402.2,121.8 M372.1,128
					h27H372.1z"/>
			</g>
		</g>
		<g>
			<path id="Layer2_0_1_STROKES" fill="none" stroke="#A3A3A3" stroke-miterlimit="10" d="M486.9,132.4c-1.7,0-3.1-0.6-4.3-1.8
				c-1.2-1.2-1.8-2.7-1.8-4.5c0-1.7,0.6-3.2,1.8-4.4c1.2-1.2,2.6-1.8,4.3-1.8h80.7c1.7,0,3.1,0.7,4.3,1.8c1.2,1.2,1.9,2.7,1.9,4.4
				c0,1.7-0.6,3.2-1.9,4.5c-1.2,1.2-2.6,1.8-4.3,1.8H486.9z M237.6,124.9c0.1-0.8,0.5-1.5,1.1-2.1c0.6-0.6,1.3-0.9,2-1.1
				c0.2,0,0.4-0.1,0.7-0.1c0.2,0,0.4,0,0.6,0.1H273c0.2,0,0.4-0.1,0.7-0.1c0.2,0,0.4,0,0.6,0.1c0.8,0.1,1.5,0.5,2,1.1
				c0.7,0.7,1.1,1.6,1.1,2.6c0-1,0.4-1.8,1.1-2.6c0.6-0.6,1.3-0.9,2-1c0.2,0,0.4-0.1,0.6-0.1c0.2,0,0.5,0,0.7,0.1h37.4
				c0.2,0,0.4-0.1,0.6-0.1s0.4,0,0.6,0.1c0.8,0.1,1.5,0.5,2.1,1c0.7,0.7,1.1,1.6,1.1,2.6c0-1,0.4-1.9,1.1-2.6c0.6-0.6,1.3-0.9,2.1-1
				c0.2,0,0.4-0.1,0.6-0.1s0.5,0,0.6,0.1h32.5c0.2,0,0.4-0.1,0.6-0.1s0.5,0,0.6,0.1c0.8,0.1,1.4,0.5,2,1c0.6,0.6,1,1.4,1.1,2.3
				c0.1-0.9,0.5-1.6,1.1-2.3c0.6-0.6,1.3-0.9,2-1c0.2,0,0.4-0.1,0.6-0.1s0.5,0,0.6,0.1h32c0.2,0,0.4-0.1,0.7-0.1s0.4,0,0.6,0.1
				c0.8,0.1,1.5,0.5,2,1c0.7,0.7,1.1,1.6,1.1,2.6c0-1,0.4-1.9,1.1-2.6c0.6-0.6,1.3-0.9,2-1c0.2,0,0.4-0.1,0.6-0.1s0.5,0,0.7,0.1
				h46.3c0.2,0,0.4-0.1,0.6-0.1s0.5,0,0.6,0.1c0.8,0.1,1.4,0.5,2,1c0.7,0.7,1.1,1.6,1.1,2.6v7.6h13.1v190.6 M365.1,128.1l0-2.6
				c0-0.1,0-0.2,0-0.3c0,0.1,0,0.2,0,0.3V128.1v5H406v-7.6 M406,133.1h55.1 M332.1,191.8h135.4v11.6H332.1V191.8z M332.1,218.2
				h135.4v11.7H332.1V218.2z M332.1,244.6h135.4v11.6H332.1V244.6z M189.3,218.2h135.4v77.3H189.3V218.2z M481.4,191.8H548v11.6
				h-66.7V191.8z M574.8,229.9h-93.4 M574.8,256.3h-93.4 M574.8,282.6h-93.4 M189.3,191.8h135.4v11.6H189.3V191.8z M237.6,124.9
				v-2.6c0-1-0.4-1.9-1.1-2.6c-0.6-0.6-1.3-0.9-2.1-1c-0.2,0-0.4-0.1-0.6-0.1s-0.4,0-0.6,0.1h-46.3c-0.2,0-0.4-0.1-0.7-0.1
				s-0.4,0-0.6,0.1c-0.8,0.1-1.4,0.5-2.1,1c-0.7,0.7-1.1,1.6-1.1,2.6v201.1 M237.6,124.9v4.6c0,1,0.4,1.8,1.1,2.6
				c0.6,0.6,1.3,0.9,2.1,1.1c0.2,0,0.4,0.1,0.7,0.1c0.2,0,0.4,0,0.6-0.1h35.5v-7.7 M323.8,125.4v7.6h41.4 M277.5,133.1h46.3
				 M188.8,162h279.3"/>
		</g>
		<g>
			<path id="Layer2_0_2_STROKES" fill="none" stroke="#000000" stroke-miterlimit="10" d="M487.7,126.4H522 M487.7,197.9h21.9
				 M505.4,144.9h34.2 M505.4,150.8h45.4 M505.4,171.3h45.4 M505.4,165.4h27.7 M385,148.4l6.8-9.7h77.3v19.5h-77.3L385,148.4z
				 M372.1,128h27 M330.6,128h27 M332.1,186.3h22.7 M338.6,197.9h16.5 M413,128h41.3 M332.1,238.9h30.5 M332.1,266H351 M332.1,212.6
				h41.5 M338.6,250.5h40 M338.6,273.3h40 M338.6,288.6h40 M338.6,281h46.5 M338.6,296.3h28.6 M338.6,311.5h24.3 M338.6,303.9h34.3
				 M338.6,224.3h90 M489.3,296.3h62.6 M489.3,311.5h24.3 M489.3,303.9h34.3 M481.3,250.1h34.3 M481.3,224.1h55.6 M481.3,276.4h43.5
				 M191.1,127h36.5 M189.1,186.3h45.1 M195.4,197.9h28.4 M189.1,150.8h45.1 M284.3,128h32.1 M243.6,128h27 M189.1,156.2h59.9
				 M189.1,212.6h35.2 M195.4,224.6h103.3 M195.4,246.2h103.3 M195.4,231.8h119.8 M195.4,239h109.5 M195.4,253.4h114.1 M195.4,260.6
				h106.8 M195.4,267.8h116.3 M195.4,275h111.4 M195.4,282.2h69.4"/>
		</g>
		<g>
			<path id="Layer2_0_3_STROKES" fill="none" stroke="#3A6FBB" stroke-miterlimit="10" d="M432.3,145.6h20.8 M432.3,151.2h30.9
				 M395.3,151.2h15 M395.3,145.6h23.2"/>
		</g>
	</g>
</g>
<g id="ICONS">
	<g transform="matrix( 1, 0, 0, 1, 0,0) ">
		<g>
			<path id="Layer1_0_1_STROKES" fill="none" stroke="#000000" stroke-linejoin="round" d="M484.1,150.2l3.4-1.2v-1.9
				c-0.2-0.2-0.5-0.4-0.7-0.7c-0.7-0.8-1-1.8-1-2.9c0-0.2,0-0.4,0.1-0.6c0.1-0.9,0.4-1.6,0.9-2.3c0.7-0.8,1.5-1.2,2.4-1.2
				s1.7,0.4,2.4,1.2c0.6,0.7,0.9,1.6,1,2.5c0,0.1,0,0.3,0,0.4c0,1.1-0.3,2.1-1,2.9c-0.2,0.3-0.5,0.5-0.7,0.7v1.9l3.4,1.2
				c0.4,0.2,0.7,0.4,1,0.8c0.2,0.4,0.4,0.8,0.4,1.2v1.3h-13v-1.3c0-0.4,0.1-0.8,0.4-1.2C483.3,150.6,483.7,150.4,484.1,150.2z
				 M492.6,143.1l-0.4,0.1c-0.6,0.1-1,0-1.4-0.2c-0.4-0.2-0.8-0.6-1.1-1.1c-0.2,0.4-0.5,0.7-1,0.9c-0.5,0.3-1.1,0.4-1.6,0.4
				c-0.5,0-0.9-0.1-1.3-0.3 M491,147.1c-0.5,0.3-1.1,0.5-1.8,0.5c-0.6,0-1.2-0.2-1.7-0.5 M485.9,164.4c0.1-0.9,0.4-1.6,0.9-2.3
				c0.7-0.8,1.5-1.2,2.4-1.2s1.7,0.4,2.4,1.2c0.6,0.7,0.9,1.6,1,2.5c0,0.1,0,0.3,0,0.4c0,1.1-0.3,2.1-1,2.9
				c-0.2,0.3-0.5,0.5-0.7,0.7v1.9l3.4,1.2c0.4,0.2,0.7,0.4,1,0.8c0.2,0.4,0.4,0.8,0.4,1.2v1.3h-13v-1.3c0-0.4,0.1-0.8,0.4-1.2
				c0.2-0.3,0.6-0.6,1-0.8l3.4-1.2v-1.9c-0.2-0.2-0.5-0.4-0.7-0.7c-0.7-0.8-1-1.8-1-2.9C485.8,164.8,485.8,164.6,485.9,164.4
				c0.4,0.2,0.8,0.3,1.3,0.3c0.5,0,1-0.1,1.6-0.4c0.5-0.3,0.9-0.6,1-0.9c0.3,0.6,0.7,0.9,1.1,1.1c0.4,0.2,0.9,0.3,1.4,0.2l0.4-0.1
				 M491,168.6c-0.5,0.3-1.1,0.5-1.8,0.5c-0.6,0-1.2-0.2-1.7-0.5"/>
		</g>
	</g>
</g>
</svg>
