<?xml version="1.0" encoding="utf-8"?>
<!-- Generator: Adobe Illustrator 23.0.1, SVG Export Plug-In . SVG Version: 6.00 Build 0)  -->
<svg version="1.1" id="Layer_asdas1" xmlns="http://www.w3.org/2000/svg" xmlns:xlink="http://www.w3.org/1999/xlink" x="0px" y="0px"
	 viewBox="0 0 750 400" enable-background="new 0 0 750 400" xml:space="preserve">
<g id="clouds_bits">
	<g transform="matrix( 1, 0, 0, 1, 0,0) ">
		<g>
			<g id="Layer7_0_FILL">
				<path fill="#BFBFBF" d="M584.8,79.7h-6l-3,5.2l3,5.3h6l3-5.3L584.8,79.7 M579.6,81.1h4.4l2.2,3.8l-2.2,3.8h-4.4l-2.1-3.8
					L579.6,81.1 M146.1,136.4l-3,5.2l3,5.2h6.1l3-5.2l-3-5.2H146.1 M146.9,137.9h4.4l2.2,3.8l-2.2,3.8h-4.4l-2.2-3.8L146.9,137.9z"
					/>
				<path fill="#3D3D3D" fill-opacity="0.1686" d="M656.8,139.4c-0.1-1.3-0.6-2.4-1.6-3.3c-0.9-0.9-2.1-1.4-3.4-1.4
					c-1.4,0-2.6,0.5-3.7,1.6c-0.7-1.9-2-3.5-3.7-4.7c-1.8-1.2-3.7-1.8-5.9-1.8c-2.9,0-5.3,1-7.3,3c-1.4-0.9-2.9-1.4-4.5-1.4
					c-1,0-2.1,0.2-3.1,0.7c-0.4-1.4-1.1-2.6-2.3-3.5c-1.2-0.9-2.5-1.4-4-1.4c-1.2,0-2.4,0.3-3.4,0.9c-1,0.6-1.8,1.5-2.3,2.5
					c-1.4-1.7-3-3-5-4c-2-1-4.2-1.5-6.5-1.5c-4,0-7.4,1.4-10.3,4.2c-2.9,2.8-4.3,6.1-4.4,10.1H656.8 M187.4,56.5
					c-2,1.6-3.2,3.6-3.8,6c-1.7-0.7-3.5-1.1-5.3-1.1c-2.8,0-5.4,0.8-7.7,2.3c-1.6-1.6-3.5-2.9-5.6-3.8c-2.2-0.9-4.5-1.4-6.8-1.4
					c-3.7,0-7,1-10,3.1c-2.9,2-5.1,4.7-6.4,8c-1.7-1.8-3.8-2.6-6.2-2.6c-2.2,0-4.1,0.8-5.8,2.3c-1.6,1.5-2.5,3.4-2.7,5.6h121.4
					c-0.1-6.8-2.6-12.6-7.5-17.3c-4.9-4.8-10.7-7.2-17.6-7.2c-3.9,0-7.5,0.9-11,2.5c-3.3,1.6-6.2,3.9-8.5,6.9
					c-0.9-1.8-2.3-3.2-4-4.2c-1.7-1.1-3.6-1.6-5.7-1.6C191.7,54.1,189.4,54.9,187.4,56.5 M247.6,292.5c-0.7-1.3-1.7-2.3-2.9-3
					c-1.3-0.8-2.6-1.1-4.1-1.1c-1.8,0-3.5,0.6-5,1.8c-1.4,1.1-2.3,2.5-2.8,4.3c-1.3-0.5-2.5-0.8-3.8-0.8c-2,0-3.9,0.6-5.6,1.7
					c-2.5-2.5-5.5-3.7-9-3.7c-2.7,0-5.1,0.8-7.3,2.3c-2.1,1.5-3.7,3.4-4.6,5.8c-1.3-1.3-2.8-1.9-4.5-1.9c-1.6,0-3,0.6-4.2,1.6
					c-1.2,1.1-1.8,2.5-1.9,4.1h87.9c-0.1-4.9-1.9-9.1-5.4-12.5c-3.5-3.5-7.7-5.2-12.7-5.2c-2.8,0-5.5,0.6-8,1.9
					C251.4,288.8,249.3,290.4,247.6,292.5 M475.7,292c-6.9,6.8-10.5,15-10.7,24.6h172.8c-0.2-3.2-1.5-5.8-3.8-8
					c-2.3-2.2-5-3.3-8.3-3.3c-1.7,0-3.3,0.3-4.8,1c-1.5,0.6-2.8,1.5-4,2.8c-1.9-4.7-4.9-8.5-9-11.4c-4.3-2.9-9-4.4-14.3-4.4
					c-3.4,0-6.6,0.7-9.7,2c-3,1.2-5.6,3-8,5.4c-3.4-2.2-7-3.3-11-3.3c-2.6,0-5.1,0.5-7.5,1.5c-0.8-3.5-2.7-6.3-5.5-8.5
					c-2.8-2.3-6.1-3.4-9.8-3.4c-2.9,0-5.6,0.8-8.1,2.3c-2.4,1.5-4.3,3.5-5.7,5.9c-3.3-4.2-7.4-7.4-12.2-9.8
					c-4.9-2.4-10.1-3.6-15.6-3.6C490.9,281.8,482.6,285.2,475.7,292z"/>
				<path fill="#83C4EC" d="M525.2,64.3c0.2,0.2,0.4,0.3,0.7,0.3h2.5v2.6c0,0.3,0.1,0.5,0.3,0.7c0.2,0.2,0.4,0.3,0.7,0.3
					s0.5-0.1,0.7-0.3c0.2-0.2,0.3-0.4,0.3-0.7v-2.6h2.6c0.3,0,0.5-0.1,0.7-0.3c0.2-0.2,0.3-0.4,0.3-0.7c0-0.3-0.1-0.5-0.3-0.7
					c-0.2-0.2-0.4-0.3-0.7-0.3h-2.6V60c0-0.3-0.1-0.5-0.3-0.7c-0.2-0.2-0.4-0.3-0.7-0.3s-0.5,0.1-0.7,0.3c-0.2,0.2-0.3,0.4-0.3,0.7
					v2.5h-2.5c-0.3,0-0.5,0.1-0.7,0.3c-0.2,0.2-0.3,0.4-0.3,0.7C524.9,63.8,525,64,525.2,64.3 M85.6,172.6c0,0.3,0.1,0.5,0.3,0.6
					c0.2,0.2,0.4,0.3,0.7,0.3h2.6v2.6c0,0.6,0.3,0.9,0.9,0.9c0.3,0,0.5-0.1,0.7-0.3c0.2-0.2,0.3-0.4,0.3-0.7v-2.6h2.5
					c0.3,0,0.5-0.1,0.7-0.3c0.2-0.2,0.3-0.4,0.3-0.6c0-0.6-0.3-0.9-1-0.9h-2.5v-2.6c0-0.3-0.1-0.5-0.3-0.7c-0.2-0.2-0.4-0.3-0.7-0.3
					c-0.3,0-0.5,0.1-0.7,0.3c-0.2,0.2-0.3,0.4-0.3,0.7v2.6h-2.6c-0.3,0-0.5,0.1-0.7,0.3C85.7,172.1,85.6,172.3,85.6,172.6
					 M264,215.5c-0.2-0.2-0.4-0.3-0.6-0.3h-2.6v-2.6c0-0.3-0.1-0.5-0.3-0.6c-0.2-0.2-0.4-0.3-0.7-0.3c-0.2,0-0.4,0.1-0.6,0.3
					s-0.3,0.4-0.3,0.6v2.6h-2.6c-0.3,0-0.5,0.1-0.7,0.3c-0.2,0.2-0.2,0.4-0.3,0.7c0,0.3,0.1,0.5,0.3,0.7c0.2,0.2,0.4,0.3,0.7,0.3
					h2.6v2.6c0,0.3,0.1,0.5,0.3,0.7c0.2,0.2,0.4,0.2,0.6,0.3c0.6,0,1-0.3,1-0.9v-2.6h2.6c0.3,0,0.5-0.1,0.6-0.3
					c0.2-0.2,0.3-0.4,0.3-0.7C264.3,215.9,264.2,215.7,264,215.5 M286.9,337.5c0-0.3-0.1-0.5-0.3-0.7c-0.2-0.2-0.4-0.3-0.7-0.3h-2.6
					V334c0-0.6-0.3-1-0.9-1c-0.6,0-1,0.3-1,1v2.5h-2.5c-0.3,0-0.5,0.1-0.7,0.3c-0.2,0.2-0.3,0.4-0.3,0.7c0,0.3,0.1,0.5,0.3,0.7
					c0.2,0.2,0.4,0.3,0.7,0.3h2.5v2.6c0,0.3,0.1,0.5,0.3,0.6c0.2,0.2,0.4,0.3,0.7,0.3c0.3,0,0.5-0.1,0.7-0.3
					c0.2-0.2,0.3-0.4,0.3-0.6v-2.6h2.6c0.3,0,0.5-0.1,0.7-0.3C286.8,337.9,286.9,337.7,286.9,337.5 M505.5,338.4
					c0-0.3-0.1-0.5-0.3-0.7c-0.2-0.2-0.4-0.3-0.6-0.3c-0.6,0-1,0.3-1,1v2.5H501c-0.2,0-0.4,0.1-0.6,0.3c-0.2,0.2-0.3,0.4-0.3,0.6
					c0,0.3,0.1,0.5,0.3,0.7c0.2,0.2,0.4,0.2,0.6,0.3h2.6v2.6c0,0.3,0.1,0.5,0.3,0.6c0.2,0.2,0.4,0.3,0.7,0.3s0.5-0.1,0.6-0.3
					c0.2-0.2,0.3-0.4,0.3-0.6v-2.6h2.6c0.6,0,0.9-0.3,0.9-0.9c0-0.3-0.1-0.5-0.3-0.6c-0.2-0.2-0.4-0.3-0.7-0.3h-2.6V338.4
					 M651.3,168.4c0-0.6-0.3-0.9-1-0.9h-2.5v-2.6c0-0.3-0.1-0.5-0.3-0.7c-0.2-0.2-0.4-0.3-0.7-0.3c-0.3,0-0.5,0.1-0.7,0.3
					c-0.2,0.2-0.3,0.4-0.3,0.7v2.6h-2.5c-0.3,0-0.5,0.1-0.7,0.3c-0.2,0.2-0.3,0.4-0.3,0.7c0,0.3,0.1,0.5,0.3,0.7
					c0.2,0.2,0.4,0.3,0.7,0.3h2.5v2.5c0,0.3,0.1,0.5,0.3,0.7s0.4,0.3,0.7,0.3c0.3,0,0.5-0.1,0.7-0.3c0.2-0.2,0.3-0.4,0.3-0.7v-2.5
					h2.5C650.9,169.4,651.3,169,651.3,168.4z"/>
				<path fill="#DEDEDE" d="M98,119.7c-0.4-0.4-0.8-0.5-1.3-0.5c-0.5,0-1,0.2-1.3,0.5c-0.4,0.4-0.6,0.8-0.6,1.4c0,0.5,0.2,1,0.6,1.4
					c0.4,0.4,0.8,0.6,1.3,0.6c0.5,0,1-0.2,1.3-0.6c0.4-0.4,0.6-0.9,0.6-1.4C98.6,120.5,98.4,120.1,98,119.7 M104.2,295
					c-0.7-0.7-1.6-1.1-2.7-1.1s-2,0.4-2.7,1.1c-0.8,0.8-1.2,1.7-1.2,2.8c0,1,0.4,1.9,1.2,2.7c0.7,0.7,1.6,1.1,2.7,1.1s2-0.4,2.7-1.1
					c0.8-0.8,1.2-1.7,1.2-2.7C105.3,296.7,105,295.8,104.2,295z"/>
				<path fill="#BAD727" d="M136.4,330.8c0.4-0.4,0.6-0.8,0.6-1.3c0-0.5-0.2-1-0.6-1.4c-0.4-0.4-0.8-0.5-1.3-0.5
					c-0.5,0-1,0.2-1.4,0.5c-0.4,0.4-0.5,0.9-0.5,1.4c0,0.5,0.2,1,0.5,1.3c0.4,0.4,0.9,0.6,1.4,0.6
					C135.6,331.4,136,331.2,136.4,330.8 M389,40.3c0-0.5-0.2-1-0.6-1.3c-0.4-0.4-0.8-0.5-1.4-0.5c-0.5,0-1,0.2-1.3,0.5
					c-0.4,0.4-0.6,0.8-0.6,1.3c0,0.5,0.2,1,0.6,1.4c0.4,0.4,0.8,0.6,1.3,0.6c0.5,0,1-0.2,1.4-0.6C388.8,41.3,389,40.9,389,40.3
					 M600.3,160.5c0.4-0.4,0.6-0.8,0.6-1.4c0-0.5-0.2-1-0.6-1.4c-0.4-0.4-0.8-0.6-1.3-0.6s-1,0.2-1.3,0.6c-0.4,0.4-0.6,0.9-0.6,1.4
					c0,0.5,0.2,1,0.6,1.4c0.4,0.4,0.8,0.6,1.3,0.6S600,160.9,600.3,160.5z"/>
				<path fill="#F7571A" d="M279.3,234.9c0.4-0.4,0.6-0.9,0.6-1.4c0-0.5-0.2-1-0.6-1.4c-0.4-0.4-0.8-0.6-1.3-0.6
					c-0.5,0-1,0.2-1.4,0.6c-0.4,0.4-0.6,0.8-0.6,1.4c0,0.5,0.2,1,0.6,1.4c0.4,0.4,0.8,0.6,1.4,0.6
					C278.5,235.5,278.9,235.3,279.3,234.9 M496.8,84.4c-0.4,0.4-0.5,0.8-0.5,1.3s0.2,1,0.5,1.3c0.4,0.4,0.9,0.6,1.4,0.6
					c0.5,0,1-0.2,1.3-0.6c0.4-0.4,0.6-0.8,0.6-1.3s-0.2-1-0.6-1.3c-0.4-0.4-0.8-0.6-1.3-0.6C497.7,83.8,497.2,84,496.8,84.4z"/>
				<path fill="#D1D1D1" d="M526,358.5c-0.8,0.8-1.1,1.7-1.1,2.7c0,1.1,0.4,2,1.1,2.8c0.7,0.7,1.6,1.1,2.7,1.1c1.1,0,2-0.4,2.8-1.1
					c0.7-0.8,1.1-1.7,1.1-2.8s-0.4-2-1.1-2.7c-0.8-0.7-1.7-1.1-2.8-1.1S526.8,357.8,526,358.5z"/>
			</g>
		</g>
		<g>
			<path id="Layer7_0_1_STROKES" fill="none" stroke="#BFBFBF" stroke-width="2" stroke-miterlimit="10" d="M389.1,144.4
				c0,0.9-0.3,1.6-1,2.3c-0.6,0.6-1.4,0.9-2.3,0.9c-0.9,0-1.7-0.3-2.3-0.9c-0.6-0.6-1-1.4-1-2.3c0-0.9,0.3-1.7,1-2.3
				c0.6-0.6,1.4-0.9,2.3-0.9c0.9,0,1.6,0.3,2.3,0.9C388.8,142.7,389.1,143.4,389.1,144.4z M524.9,223.1c0,0.9-0.3,1.7-1,2.3
				c-0.6,0.6-1.4,0.9-2.3,0.9c-0.9,0-1.7-0.3-2.3-0.9c-0.6-0.6-1-1.4-1-2.3c0-0.9,0.3-1.6,1-2.3c0.6-0.6,1.4-0.9,2.3-0.9
				c0.9,0,1.6,0.3,2.3,0.9C524.6,221.4,524.9,222.2,524.9,223.1z M127.1,99.4c0,0.9-0.3,1.6-0.9,2.3c-0.6,0.6-1.4,1-2.3,1
				c-0.9,0-1.6-0.3-2.3-1c-0.6-0.6-0.9-1.4-0.9-2.3c0-0.9,0.3-1.7,0.9-2.3c0.6-0.6,1.4-1,2.3-1c0.9,0,1.7,0.3,2.3,1
				C126.8,97.8,127.1,98.5,127.1,99.4z"/>
		</g>
		<g>
			<path id="Layer7_0_2_STROKES" fill="none" stroke="#A3A3A3" stroke-miterlimit="10" d="M651.3,291.9c0,0.6-0.2,1-0.6,1.4
				c-0.4,0.4-0.8,0.6-1.4,0.6c-0.5,0-1-0.2-1.4-0.6c-0.4-0.4-0.6-0.8-0.6-1.4c0-0.6,0.2-1,0.6-1.4c0.4-0.4,0.8-0.6,1.4-0.6
				s1,0.2,1.4,0.6C651,290.9,651.3,291.3,651.3,291.9z"/>
		</g>
	</g>
</g>
<g id="circles">
	<g transform="matrix( 1, 0, 0, 1, 0,0) ">
		<g>
			<g id="Layer6_0_FILL">
				<path fill="#2C538A" d="M119.8,252.2c5.4,10.7,13.8,17.9,25.2,21.6c11.4,3.7,22.4,2.8,33.1-2.7c10.6-5.4,17.8-13.9,21.5-25.2
					c3.6-11.4,2.7-22.4-2.7-33.1c-5.5-10.6-13.9-17.8-25.3-21.4c-11.4-3.7-22.4-2.8-33,2.7c-10.7,5.4-17.8,13.9-21.5,25.3
					C113.5,230.6,114.4,241.6,119.8,252.2 M471.1,98.4c3.4-10.6,2.6-20.9-2.5-30.8c-5.1-9.9-12.9-16.6-23.6-20
					c-10.6-3.4-20.9-2.6-30.8,2.5c-9.9,5.1-16.6,13-20,23.6c-3.4,10.6-2.6,20.8,2.5,30.8c5.1,9.9,12.9,16.6,23.5,20
					c10.6,3.4,20.9,2.6,30.8-2.5C461,116.8,467.7,109,471.1,98.4z"/>
				<path fill="#BAD727" d="M195.7,100.6c-8.3,4.2-13.9,10.8-16.8,19.8c-2.9,8.9-2.2,17.5,2.1,26c4.3,8.3,11,13.9,19.9,16.8
					c8.9,2.9,17.6,2.2,26-2.1c8.3-4.3,13.9-10.9,16.8-19.9c2.9-8.9,2.2-17.6-2.1-25.9c-4.3-8.3-11-13.9-19.9-16.8
					C212.8,95.6,204.1,96.3,195.7,100.6z"/>
				<path fill="#F7571A" d="M356.7,88.1c0-12.1-4.3-22.5-12.9-31c-8.5-8.6-18.9-12.8-31-12.8c-12.1,0-22.4,4.2-31,12.8
					C273.3,65.6,269,76,269,88.2c0,12.1,4.3,22.4,12.8,30.9c8.6,8.6,18.9,12.9,31,12.9c12.1-0.1,22.5-4.4,31.1-12.9
					C352.4,110.5,356.7,100.2,356.7,88.1 M556.5,112.3c-6.3-6.3-13.9-9.4-22.8-9.4c-8.9,0-16.5,3.1-22.8,9.4
					c-6.1,6.2-9.2,13.6-9.4,22.2c0,0.2,0,0.5,0,0.7c0,3,0.4,5.9,1,8.6c1.4,5.3,4.2,10,8.4,14.2c6.3,6.3,13.9,9.4,22.9,9.4
					c8.9,0,16.5-3.2,22.8-9.4c6.3-6.3,9.5-13.9,9.5-22.8C566,126.3,562.8,118.7,556.5,112.3z"/>
			</g>
		</g>
		<g>
			<path id="Layer6_0_1_STROKES" fill="none" stroke="#A3A3A3" stroke-miterlimit="10" d="M533.4,98.5c-10.1,0-18.8,3.6-26,10.8
				c-7,7-10.5,15.4-10.7,25.3c0,0.2,0,0.4,0,0.6c0,7.5,1.9,14.1,5.8,20c1.4,2.1,3,4.1,4.9,6c7.2,7.2,15.9,10.8,25.9,10.8
				c10.2,0,18.8-3.5,26-10.8c7.2-7.2,10.8-15.9,10.8-26 M641.3,207.3c-6.2-12.1-15.8-20.3-28.8-24.4c-13-4.2-25.6-3.2-37.7,3.1
				c-12.1,6.2-20.3,15.8-24.5,28.8c-4.2,13-3.2,25.5,3.1,37.7c5.3,10.3,13,17.8,23.2,22.4c0.1,0,0.2,0.1,0.3,0.1l3,1.3
				c0.7,0.2,1.4,0.5,2.2,0.8c13,4.2,25.6,3.2,37.6-3.1 M473.7,64.8C467.9,53.6,459,46,446.9,42.1c-12.1-3.9-23.8-3-35.1,2.9
				c-11.3,5.8-18.9,14.7-22.8,26.8s-2.9,23.8,2.9,35.1c4.9,9.6,12.1,16.6,21.6,20.8c0.1,0,0.2,0.1,0.3,0.1l2.9,1.1
				c0.6,0.2,1.3,0.5,2,0.7c12.1,3.9,23.8,2.9,35.1-2.8 M277.9,123.7c9.7,9.7,21.5,14.6,35.3,14.6c13.7,0,25.5-4.9,35.3-14.7
				c9.7-9.7,14.6-21.5,14.6-35.3c0-13.8-4.9-25.6-14.6-35.3c-9.8-9.8-21.5-14.6-35.3-14.6c-13.8,0-25.6,4.9-35.3,14.6 M199.3,168.1
				c10.3,3.3,20.3,2.5,29.9-2.4c9.6-4.9,16.1-12.5,19.4-22.8c3.3-10.3,2.5-20.2-2.4-29.8c-4.9-9.6-12.5-16.1-22.8-19.5
				c-10.3-3.3-20.3-2.5-29.9,2.5s-16.1,12.5-19.4,22.8 M181.1,276.5c12.1-6.2,20.3-15.8,24.4-28.8c4.2-13,3.2-25.6-3.1-37.7
				c-6.2-12.1-15.8-20.3-28.8-24.4c-13-4.2-25.5-3.2-37.7,3.1c-10.3,5.3-17.7,13-22.3,23.2c0,0.1-0.1,0.2-0.1,0.3l-1.3,3.1
				c-0.2,0.7-0.5,1.4-0.8,2.2c-4.2,13-3.2,25.6,3.1,37.7"/>
		</g>
	</g>
</g>
<g id="bottom_circle">
	<g transform="matrix( 1, 0, 0, 1, 0,0) ">
		<g>
			<g id="Layer5_0_FILL">
				<path fill="#BAD727" d="M390.8,228.6c-16.6-5.3-32.7-3.9-48.3,4c-15.6,7.9-26.1,20.3-31.5,37c-5.4,16.6-4.1,32.7,3.9,48.4
					c7.9,15.6,20.3,26.1,37,31.5c16.7,5.3,32.9,4,48.4-3.9c15.5-8,26-20.4,31.5-37.1c5.4-16.7,4-32.8-4-48.4
					S407.4,233.9,390.8,228.6z"/>
			</g>
		</g>
		<g>
			<path id="Layer5_0_1_STROKES" fill="none" stroke="#A3A3A3" stroke-miterlimit="10" d="M404.6,353.9c17.9-9.2,30-23.4,36.3-42.5
				c6.1-19.2,4.6-37.7-4.5-55.7c-9.2-17.9-23.5-30-42.6-36.1c-19.1-6.2-37.7-4.8-55.7,4.4c-17.9,9.3-29.9,23.5-36.1,42.6
				c-6.2,19.2-4.7,37.7,4.5,55.6"/>
		</g>
	</g>
</g>
<g id="icons">
	<g transform="matrix( 1, 0, 0, 1, 0,0) ">
		<g>
			<path id="Layer4_0_1_STROKES" fill="none" stroke="#3A6FBB" stroke-linejoin="round" d="M357.5,285.8h-3.4l-1.6,20.3l3.3,3.4
				l3.4-3.4L357.5,285.8h16.9c0,6.5-1.2,12-3.5,16.5c-2.1,4-4.8,6.9-8.3,8.8v22h-13.5v-22c-3.5-1.9-6.2-4.9-8.3-8.8
				c-2.4-4.5-3.6-10-3.6-16.5h16.9 M355.9,279c3.3,0,6-1.2,8.4-3.5c2.3-2.3,3.5-5.1,3.5-8.4c0-3.3-1.2-6-3.5-8.3
				c-2.3-2.3-5.1-3.5-8.4-3.5c-3.3,0-6,1.2-8.3,3.5c-2.3,2.2-3.5,5-3.5,8.3c0,3.3,1.2,6.1,3.5,8.4C349.8,277.9,352.6,279,355.9,279z
				"/>
		</g>
		<g>
			<path id="Layer4_0_2_STROKES" fill="none" stroke="#3A6FBB" stroke-linecap="round" stroke-linejoin="round" d="M382.6,293.9
				L389,277l10.3,5.4l5.1-15.2 M381.1,306h32.1v-47.2h-35.4"/>
		</g>
		<g>
			<path id="Layer4_0_3_STROKES" fill="none" stroke="#FFFFFF" stroke-linecap="round" stroke-linejoin="round" d="M550.8,123h-34
				v-7.8h34V123z M550.8,133.4H543v-7.8h7.8V133.4z M540.3,133.4h-7.8v-7.8h7.8V133.4z M540.3,143.9h-7.8v-7.8h7.8V143.9z
				 M550.8,143.9H543v-7.8h7.8V143.9z M529.8,138.8h-13.1v-13.1h13.1V138.8z M540.3,154.4h-7.8v-7.9h7.8V154.4z M550.8,154.4H543
				v-7.9h7.8V154.4z M529.8,154.5h-13.1v-13.1h13.1V154.5z M415.7,98.2h14 M415.7,94.1h14 M415.7,90.1h14 M417.7,86.1h12
				 M451.8,80.1h-38.1v-6h38.1V80.1z M435.8,98.2h12 M435.8,94.1h14 M435.8,90.1h14 M435.8,86.1h14 M455.8,68.1h-46.1v36.1h46.1
				V68.1z M338.5,97.2c0,1.2-0.4,2.3-1.3,3.2c-0.9,0.9-1.9,1.3-3.1,1.3h-42.3c-1.3,0-2.3-0.4-3.2-1.3c-0.9-0.9-1.3-2-1.3-3.2V79.4
				c0-1.2,0.4-2.2,1.3-3.1c0.9-0.9,1.9-1.4,3.2-1.4h42.3c1.2,0,2.3,0.5,3.1,1.4c0.9,0.9,1.3,1.9,1.3,3.1V97.2z M303,92.8l-4.5-4.4
				l-4.5,4.4 M303,83.8l-4.5,4.5l-4.5-4.5 M317.5,83.8l-4.5,4.5l4.5,4.4 M308.5,92.8l4.5-4.4l-4.5-4.5 M164.9,222.4h5.1v-4.7h-5.1
				c-0.6-2.2-1.1-3.7-1.5-4.5l3.5-3.6l-4.4-4.4l-3.6,3.6c-0.8-0.5-2.3-1-4.5-1.6v-5h-4.7v5c-2.2,0.6-3.7,1.1-4.5,1.6l-3.5-3.6
				l-4.5,4.4l3.6,3.6c-0.5,0.8-1.1,2.3-1.6,4.5h-5.1v4.7h5.1c0.5,2.2,1,3.7,1.6,4.5l-3.6,3.6l4.5,4.4l3.5-3.5c0.8,0.5,2.3,1,4.5,1.5
				v5.1h4.7v-5.1c2.3-0.6,3.8-1.1,4.5-1.5l3.6,3.5l4.4-4.4l-3.5-3.6C163.8,226.1,164.3,224.6,164.9,222.4z M159.1,220
				c0,2-0.7,3.6-2.1,5s-3,2.1-5,2.1c-1.9,0-3.6-0.7-4.9-2.1s-2.1-3-2.1-5c0-1.9,0.7-3.6,2.1-4.9s3-2.1,4.9-2.1c2,0,3.6,0.7,5,2.1
				S159.1,218.1,159.1,220z M323,92.8h8.9"/>
		</g>
		<g>
			<path id="Layer4_0_4_STROKES" fill="none" stroke="#FFFFFF" stroke-linejoin="round" d="M169.7,250.4l2.4-1.4l-3.1-5.4l-2.4,1.4
				c-1.1-1-2.4-1.7-3.7-2.1V240h-6.3v2.9c-1.4,0.4-2.6,1.1-3.6,2.1l-2.4-1.4l-3.1,5.4l2.4,1.4c-0.3,1.5-0.3,2.9,0,4.3l-2.4,1.4
				l3.1,5.4l2.4-1.4c1,0.9,2.2,1.6,3.6,2.1v2.9h6.3v-2.9c1.5-0.5,2.7-1.2,3.7-2.1l2.4,1.4l3.1-5.4l-2.4-1.4
				C170,253.2,170,251.8,169.7,250.4z M164.4,252.4c0,1.3-0.4,2.4-1.3,3.4c-0.9,0.9-2,1.3-3.3,1.3c-1.3,0-2.4-0.5-3.3-1.3
				c-0.9-0.9-1.4-2.1-1.4-3.4c0-1.3,0.5-2.4,1.4-3.3c0.9-0.9,2-1.3,3.3-1.3c1.3,0,2.4,0.4,3.3,1.3
				C164,250.1,164.4,251.2,164.4,252.4z M181.4,234.9l1.6-0.9l-1.6-2.7l-1.6,0.9c-0.7-0.7-1.4-1.1-2.2-1.3v-1.8h-3.1v1.8
				c-0.8,0.2-1.5,0.6-2.2,1.2l-1.5-0.9l-1.6,2.7l1.6,0.9c-0.2,0.8-0.2,1.6,0,2.5l-1.6,0.9l1.6,2.7l1.5-0.9c0.7,0.6,1.4,1,2.2,1.3
				v1.8h3.1v-1.8c0.9-0.3,1.6-0.7,2.2-1.3l1.6,0.9l1.6-2.7l-1.6-0.9C181.7,236.6,181.7,235.8,181.4,234.9z M178.4,236.1
				c0,0.6-0.2,1.2-0.7,1.6c-0.4,0.5-1,0.7-1.6,0.7s-1.2-0.2-1.6-0.7c-0.5-0.4-0.7-1-0.7-1.6c0-0.6,0.2-1.2,0.7-1.6
				c0.5-0.5,1-0.7,1.6-0.7s1.2,0.2,1.6,0.7C178.2,234.9,178.4,235.5,178.4,236.1z"/>
		</g>
		<g>
			<path id="Layer4_0_5_STROKES" fill="none" stroke="#3A6FBB" stroke-linecap="round" stroke-linejoin="round" d="M222.1,143.9
				c0.3-0.8,0.8-1.3,1.5-1.6c0.7-0.3,1.5-0.4,2.2-0.1c0.8,0.3,1.3,0.8,1.6,1.5c0.4,0.7,0.4,1.4,0.1,2.2c-0.3,0.7-0.8,1.3-1.5,1.6
				c-0.7,0.3-1.4,0.4-2.2,0.1c-0.7-0.3-1.3-0.8-1.6-1.5C221.9,145.3,221.8,144.6,222.1,143.9l-6.1-2.3c-0.1,0.4-0.4,0.7-0.7,1
				c-0.6,0.6-1.2,0.8-2,0.8c-0.8,0-1.5-0.3-2.1-0.8c-0.6-0.6-0.9-1.2-0.9-2c0-0.8,0.3-1.5,0.9-2.1c0.5-0.6,1.2-0.9,2.1-0.9
				c0.8,0,1.4,0.3,2,0.9c0.2,0.2,0.4,0.5,0.5,0.8l6.4-3.2c-0.4-0.7-0.4-1.4-0.1-2.2c0.3-0.8,0.7-1.3,1.4-1.7
				c0.7-0.4,1.4-0.4,2.1-0.1c0.8,0.3,1.3,0.8,1.7,1.4c0.3,0.7,0.4,1.4,0.2,2.2c-0.3,0.7-0.8,1.3-1.4,1.7c-0.7,0.4-1.4,0.4-2.2,0.1
				c-0.8-0.2-1.4-0.7-1.7-1.4 M215.9,139.3c0.2,0.4,0.3,0.8,0.3,1.3c0,0.4-0.1,0.7-0.2,1 M224.8,114.7h-24.4c-0.8,0-1.4,0.3-2,0.8
				c-0.6,0.6-0.9,1.3-0.9,2.1v0.1c0,0.7,0.3,1.4,0.9,1.9c0.6,0.6,1.2,0.8,2,0.8h24.4v6.4 M209,147.8h-8.6c-0.8,0-1.4-0.3-2-0.9
				c-0.6-0.6-0.9-1.2-0.9-2v-27.2 M200.4,117.6h23"/>
		</g>
	</g>
</g>
<g id="fb">
	<g transform="matrix( 1, 0, 0, 1, 0,0) ">
		<g>
			<g id="Layer3_0_FILL">
				<path fill="#FEFEFE" d="M585.6,219.4c-0.3,0-0.7-0.1-1.3-0.1c-0.8,0-1.5-0.1-2.3-0.1c-0.9,0-1.8,0.1-2.5,0.4
					c-0.8,0.3-1.4,0.7-2,1.2c-0.6,0.6-1,1.2-1.3,2c-0.3,0.8-0.4,1.7-0.4,2.7v3.6h-4.1v4.8h4.1v12.3h5v-12.3h4.1l0.7-4.8h-4.8V226
					c0-0.8,0.1-1.4,0.4-1.7c0.4-0.4,1-0.7,1.9-0.7h2.5V219.4z"/>
				<path fill="#5061AE" d="M590.5,216.1c0-0.5-0.2-0.9-0.5-1.3c-0.4-0.3-0.8-0.5-1.3-0.5h-28.2c-0.5,0-0.9,0.2-1.3,0.5
					c-0.3,0.3-0.5,0.7-0.5,1.3v28.2c0,0.5,0.2,0.9,0.5,1.3c0.3,0.3,0.8,0.5,1.3,0.5h15.2v-12.3h-4.1v-4.8h4.1v-3.6
					c0-1,0.1-1.9,0.4-2.7c0.3-0.8,0.7-1.4,1.3-2c0.5-0.5,1.2-0.9,2-1.2c0.7-0.3,1.6-0.4,2.5-0.4c0.8,0,1.5,0,2.3,0.1
					c0.6,0,1,0.1,1.3,0.1v4.3h-2.5c-0.9,0-1.6,0.2-1.9,0.7c-0.3,0.3-0.4,0.9-0.4,1.7v3.1h4.8l-0.7,4.8h-4.1v12.3h8
					c0.5,0,0.9-0.2,1.3-0.5c0.3-0.4,0.5-0.8,0.5-1.3V216.1z"/>
			</g>
		</g>
	</g>
</g>
<g id="twitter">
	<g transform="matrix( 1, 0, 0, 1, 0,0) ">
		<g>
			<g id="Layer2_0_FILL">
				<path fill="#4898EE" d="M638.5,215.1c-1.6,0.9-3.3,1.6-5.1,1.9c-1.5-1.6-3.3-2.5-5.5-2.6c-2.2-0.1-4.1,0.7-5.8,2.2
					c-1,1-1.8,2.1-2.2,3.5s-0.5,2.7-0.2,4.1c-3.2-0.2-6.2-1-9.1-2.4c-2.9-1.5-5.3-3.4-7.3-5.9c-1.1,1.8-1.4,3.7-0.9,5.8
					c0.5,2,1.6,3.6,3.4,4.8c-1.3-0.1-2.5-0.4-3.7-1v0.1c0,1.9,0.6,3.6,1.8,5.1c1.2,1.5,2.7,2.4,4.6,2.8c-1.2,0.3-2.5,0.4-3.7,0.1
					c0.5,1.6,1.5,2.9,2.9,3.9c1.4,1,2.9,1.6,4.6,1.6c-1.4,1.1-3,1.9-4.7,2.6c-1.7,0.6-3.5,0.8-5.3,0.8c-0.6,0-1.3,0-1.9-0.1
					c1.8,1.2,3.8,2,5.9,2.6c2.1,0.6,4.2,0.9,6.4,0.9c3.5,0,6.8-0.7,9.8-2.1c2.7-1.3,5.1-3.1,7.1-5.4c1.9-2.1,3.4-4.6,4.4-7.3
					c1-2.6,1.5-5.3,1.5-8c0-0.4,0-0.8,0-1c1.6-1.1,2.9-2.5,3.9-4.1c-1.5,0.7-3,1.1-4.6,1.3c0.9-0.5,1.6-1.1,2.2-1.9
					C637.8,216.9,638.3,216,638.5,215.1z"/>
			</g>
		</g>
	</g>
</g>
<g id="connectors">
	<g transform="matrix( 1, 0, 0, 1, 0,0) ">
		<g>
			<g id="Layer1_0_FILL">
				<path fill="#FEFEFE" d="M436.4,132.1c0-0.4-0.1-0.8-0.4-1.1c-0.3-0.3-0.6-0.4-1.1-0.4c-0.4,0-0.7,0.1-1,0.4
					c-0.3,0.3-0.4,0.6-0.4,1.1c0,0.4,0.1,0.7,0.4,1c0.3,0.3,0.6,0.4,1,0.4c0.1,0,0.1,0,0.1,0c0.4,0,0.7-0.2,0.9-0.4
					C436.3,132.8,436.4,132.5,436.4,132.1 M401,221.4c-0.5,0.6-0.8,1.2-0.8,2c0,0.8,0.3,1.4,0.8,2c0.6,0.6,1.2,0.9,2,0.9
					s1.4-0.3,2-0.9c0.6-0.6,0.8-1.2,0.8-2c0-0.8-0.3-1.4-0.8-2c-0.6-0.5-1.2-0.8-2-0.8c-0.1,0-0.1,0-0.2,0
					C402.1,220.7,401.5,220.9,401,221.4 M341.5,221.4c-0.5-0.5-1.1-0.8-1.9-0.8c0,0-0.1,0-0.1,0c-0.8,0-1.4,0.3-2,0.8
					c-0.6,0.6-0.9,1.2-0.9,2c0,0.8,0.3,1.4,0.9,2c0.6,0.6,1.2,0.9,2,0.9c0.8,0,1.4-0.3,2-0.9c0.5-0.6,0.8-1.2,0.8-2
					C342.3,222.7,342,222,341.5,221.4 M307.5,136.4c-0.4,0-0.8,0.2-1,0.5c-0.3,0.3-0.5,0.6-0.5,1c0,0.4,0.1,0.8,0.5,1.1
					c0.2,0.2,0.5,0.4,0.9,0.4c0,0,0.1,0,0.1,0c0.4,0,0.7-0.1,1-0.4c0.3-0.3,0.5-0.6,0.5-1.1c0-0.4-0.1-0.8-0.5-1
					C308.2,136.6,307.9,136.4,307.5,136.4 M241.6,156.3c-0.3-0.3-0.6-0.4-1-0.4c-0.4,0-0.8,0.1-1,0.4c-0.3,0.3-0.5,0.6-0.5,1.1
					c0,0.4,0.2,0.7,0.5,1c0.2,0.2,0.5,0.4,0.9,0.4c0,0,0.1,0,0.1,0c0.4,0,0.7-0.1,1-0.4c0.3-0.3,0.5-0.6,0.5-1
					C242.1,156.9,241.9,156.6,241.6,156.3 M319,234.9c0,0-0.1,0-0.1,0c-0.8,0-1.4,0.3-2,0.8c-0.6,0.6-0.9,1.2-0.9,2
					c0,0.8,0.3,1.4,0.9,2c0.6,0.6,1.2,0.9,2,0.9s1.4-0.3,2-0.9c0.5-0.6,0.8-1.2,0.8-2c0-0.8-0.3-1.4-0.8-2
					C320.4,235.2,319.8,234.9,319,234.9 M502.6,152.9c-0.3-0.3-0.6-0.4-1.1-0.4c-0.4,0-0.7,0.1-1,0.4c-0.3,0.3-0.4,0.6-0.4,1.1
					c0,0.4,0.1,0.8,0.4,1.1c0.3,0.3,0.6,0.4,1,0.4c0.1,0,0.1,0,0.2,0c0.4,0,0.7-0.2,0.9-0.4c0.3-0.3,0.4-0.7,0.4-1.1
					C503,153.5,502.9,153.2,502.6,152.9 M421.3,239.7c0.6,0.6,1.2,0.9,2,0.9s1.4-0.3,2-0.9c0.6-0.6,0.9-1.2,0.9-2
					c0-0.8-0.3-1.4-0.9-2c-0.6-0.5-1.2-0.8-2-0.8c-0.1,0-0.1,0-0.1,0c-0.7,0-1.3,0.3-1.9,0.8c-0.5,0.6-0.8,1.2-0.8,2
					C420.5,238.5,420.8,239.1,421.3,239.7 M555.5,254.8c-0.4,0-0.8,0.1-1,0.4c-0.2,0.2-0.4,0.5-0.4,0.9c0,0,0,0.1,0,0.1
					c0,0.4,0.1,0.7,0.4,1c0.3,0.3,0.6,0.5,1,0.5c0.4,0,0.8-0.1,1-0.5c0.3-0.3,0.5-0.6,0.5-1c0-0.4-0.2-0.8-0.5-1
					C556.3,254.9,556,254.8,555.5,254.8 M439.4,256c0-0.8-0.3-1.4-0.8-2c-0.6-0.6-1.2-0.9-2-0.9c-0.8,0-1.4,0.3-2,0.9
					s-0.8,1.2-0.8,2c0,0.8,0.3,1.4,0.8,2c0.6,0.5,1.2,0.8,2,0.8s1.4-0.3,2-0.8c0.5-0.5,0.8-1.1,0.8-1.9
					C439.4,256.1,439.4,256.1,439.4,256 M202.1,254.8c-0.4,0-0.8,0.1-1.1,0.4c-0.3,0.3-0.4,0.6-0.4,1c0,0.4,0.1,0.7,0.4,1
					c0.3,0.3,0.6,0.5,1.1,0.5c0.4,0,0.7-0.1,1-0.5c0.3-0.3,0.4-0.6,0.4-1c0-0.1,0-0.1,0-0.1c0-0.4-0.2-0.7-0.4-0.9
					C202.8,254.9,202.5,254.8,202.1,254.8 M306.1,258.8c0.8,0,1.4-0.3,2-0.8c0.6-0.6,0.9-1.2,0.9-2s-0.3-1.4-0.9-2
					c-0.6-0.6-1.2-0.9-2-0.9c-0.8,0-1.4,0.3-2,0.9c-0.5,0.6-0.8,1.2-0.8,2c0,0.1,0,0.1,0,0.1c0,0.7,0.3,1.3,0.8,1.9
					C304.7,258.5,305.3,258.8,306.1,258.8z"/>
			</g>
		</g>
		<g>
			<path id="Layer1_0_1_STROKES" fill="none" stroke="#A3A3A3" stroke-miterlimit="10" d="M501.7,155.4c0.4,0,0.7-0.2,0.9-0.4
				c0.3-0.3,0.4-0.7,0.4-1.1c0-0.4-0.1-0.8-0.4-1.1c-0.3-0.3-0.6-0.4-1.1-0.4c-0.4,0-0.7,0.1-1,0.4c-0.3,0.3-0.4,0.6-0.4,1.1
				c0,0.4,0.1,0.8,0.4,1.1c0.3,0.3,0.6,0.4,1,0.4C501.6,155.4,501.7,155.4,501.7,155.4v31.5c0,2.3-0.8,4.3-2.5,6s-3.6,2.4-6,2.4
				h-61.6c-2.3,0-4.3,0.8-6,2.4s-2.5,3.6-2.5,5.9l-0.1,31.2c0,0,0.1,0,0.1,0c0.8,0,1.4,0.3,2,0.8c0.6,0.6,0.9,1.2,0.9,2
				c0,0.8-0.3,1.4-0.9,2c-0.6,0.6-1.2,0.9-2,0.9s-1.4-0.3-2-0.9c-0.5-0.6-0.8-1.2-0.8-2c0-0.8,0.3-1.4,0.8-2
				c0.5-0.5,1.1-0.8,1.9-0.8 M307.4,139.4v25.3c0,2.3,0.8,4.3,2.4,6c1.6,1.6,3.6,2.4,6,2.4h15.5c2.2,0.1,4.1,0.9,5.7,2.4
				c1.6,1.6,2.5,3.6,2.5,5.9l0.1,39.2c0.7,0,1.3,0.3,1.9,0.8c0.5,0.6,0.8,1.2,0.8,2c0,0.8-0.3,1.4-0.8,2c-0.6,0.6-1.2,0.9-2,0.9
				c-0.8,0-1.4-0.3-2-0.9c-0.6-0.6-0.9-1.2-0.9-2c0-0.8,0.3-1.4,0.9-2c0.6-0.5,1.2-0.8,2-0.8c0.1,0,0.1,0,0.1,0 M435,133.6
				c0.4,0,0.7-0.2,0.9-0.4c0.3-0.3,0.4-0.6,0.4-1c0-0.4-0.1-0.8-0.4-1.1c-0.3-0.3-0.6-0.4-1.1-0.4c-0.4,0-0.7,0.1-1,0.4
				c-0.3,0.3-0.4,0.6-0.4,1.1c0,0.4,0.1,0.7,0.4,1c0.3,0.3,0.6,0.4,1,0.4C435,133.6,435,133.6,435,133.6v31.1c0,2.3-0.8,4.3-2.4,6
				c-1.6,1.6-3.6,2.4-6,2.4h-15.5c-2.2,0.1-4.1,0.9-5.7,2.4c-1.6,1.6-2.4,3.6-2.4,5.9l-0.2,39.2c0,0,0.1,0,0.2,0
				c0.8,0,1.4,0.3,2,0.8c0.6,0.6,0.8,1.2,0.8,2c0,0.8-0.3,1.4-0.8,2c-0.6,0.6-1.2,0.9-2,0.9s-1.4-0.3-2-0.9c-0.5-0.6-0.8-1.2-0.8-2
				c0-0.8,0.3-1.4,0.8-2c0.5-0.5,1.1-0.8,1.8-0.8 M439.4,256.1c0,0.7-0.3,1.3-0.8,1.9c-0.6,0.5-1.2,0.8-2,0.8s-1.4-0.3-2-0.8
				c-0.6-0.6-0.8-1.2-0.8-2c0-0.8,0.3-1.4,0.8-2s1.2-0.9,2-0.9c0.8,0,1.4,0.3,2,0.9c0.5,0.6,0.8,1.2,0.8,2
				C439.4,256.1,439.4,256.1,439.4,256.1h114.7c0-0.4,0.2-0.7,0.4-0.9c0.3-0.3,0.6-0.4,1-0.4c0.4,0,0.8,0.1,1,0.4
				c0.3,0.3,0.5,0.6,0.5,1c0,0.4-0.2,0.7-0.5,1c-0.3,0.3-0.6,0.5-1,0.5c-0.4,0-0.8-0.1-1-0.5c-0.3-0.3-0.4-0.6-0.4-1
				c0-0.1,0-0.1,0-0.1 M240.5,158.8c-0.4,0-0.7-0.2-0.9-0.4c-0.3-0.3-0.5-0.6-0.5-1c0-0.4,0.2-0.8,0.5-1.1c0.3-0.3,0.6-0.4,1-0.4
				c0.4,0,0.7,0.1,1,0.4c0.3,0.3,0.5,0.6,0.5,1.1c0,0.4-0.2,0.7-0.5,1c-0.3,0.3-0.6,0.4-1,0.4C240.6,158.8,240.5,158.8,240.5,158.8
				v28.1c0,2.3,0.8,4.3,2.4,6s3.6,2.4,5.9,2.4h61.6c2.3,0,4.3,0.8,6,2.4s2.4,3.6,2.4,5.9l0.1,31.2c0.7,0,1.3,0.3,1.9,0.8
				c0.5,0.6,0.8,1.2,0.8,2c0,0.8-0.3,1.4-0.8,2c-0.6,0.6-1.2,0.9-2,0.9s-1.4-0.3-2-0.9c-0.6-0.6-0.9-1.2-0.9-2c0-0.8,0.3-1.4,0.9-2
				c0.6-0.5,1.2-0.8,2-0.8c0.1,0,0.1,0,0.1,0 M307.4,139.4c-0.4,0-0.7-0.2-0.9-0.4c-0.3-0.3-0.5-0.6-0.5-1.1c0-0.4,0.1-0.8,0.5-1
				c0.3-0.3,0.6-0.5,1-0.5c0.4,0,0.7,0.2,1,0.5c0.3,0.3,0.5,0.6,0.5,1c0,0.4-0.1,0.8-0.5,1.1c-0.3,0.3-0.6,0.4-1,0.4
				C307.4,139.4,307.4,139.4,307.4,139.4z M303.3,256.1c0,0.7,0.3,1.3,0.8,1.9c0.6,0.5,1.2,0.8,2,0.8s1.4-0.3,2-0.8
				c0.6-0.6,0.9-1.2,0.9-2s-0.3-1.4-0.9-2c-0.6-0.6-1.2-0.9-2-0.9c-0.8,0-1.4,0.3-2,0.9c-0.5,0.6-0.8,1.2-0.8,2
				C303.3,256.1,303.3,256.1,303.3,256.1h-99.7c0,0,0,0.1,0,0.1c0,0.4-0.1,0.7-0.4,1c-0.3,0.3-0.6,0.5-1,0.5c-0.4,0-0.8-0.1-1.1-0.5
				c-0.3-0.3-0.4-0.6-0.4-1c0-0.4,0.1-0.8,0.4-1c0.3-0.3,0.6-0.4,1.1-0.4c0.4,0,0.7,0.1,1,0.4c0.2,0.2,0.4,0.5,0.4,0.9"/>
		</g>
	</g>
</g>
</svg>
