<?xml version="1.0" encoding="utf-8"?>
<!-- Generator: Adobe Illustrator 23.0.1, SVG Export Plug-In . SVG Version: 6.00 Build 0)  -->
<svg version="1.1" id="Layer_a1" xmlns="http://www.w3.org/2000/svg" xmlns:xlink="http://www.w3.org/1999/xlink" x="0px" y="0px"
	 viewBox="0 0 750 400" enable-background="new 0 0 750 400" xml:space="preserve">
<g id="clouds_bits_copy_4">
	<g transform="matrix( 1, 0, 0, 1, 0,0) ">
		<g>
			<g id="Layer6_0_FILL">
				<path fill="#BFBFBF" d="M469.3,335.3l3,5.2h6.1l3-5.2l-3-5.2h-6.1L469.3,335.3 M473.1,339l-2.2-3.8l2.2-3.8h4.4l2.2,3.8
					l-2.2,3.8H473.1 M206.6,90l-3,5.2l3,5.2h6l3.1-5.2l-3.1-5.2H206.6 M205.3,95.2l2.2-3.8h4.4l2.1,3.8l-2.1,3.8h-4.4L205.3,95.2z"
					/>
				<path fill="#83C4EC" d="M587.8,307.7c0-0.3-0.1-0.5-0.3-0.7c-0.2-0.2-0.4-0.3-0.7-0.3s-0.5,0.1-0.7,0.3
					c-0.2,0.2-0.3,0.4-0.3,0.7v2.6h-2.5c-0.6,0-1,0.3-1,1c0,0.3,0.1,0.5,0.3,0.6c0.2,0.2,0.4,0.3,0.7,0.3h2.5v2.5
					c0,0.3,0.1,0.5,0.3,0.7c0.2,0.2,0.4,0.3,0.7,0.3s0.5-0.1,0.7-0.3c0.2-0.2,0.3-0.4,0.3-0.7v-2.5h2.5c0.2,0,0.5-0.1,0.7-0.3
					c0.2-0.2,0.3-0.4,0.3-0.6s-0.1-0.5-0.3-0.7c-0.2-0.2-0.4-0.3-0.7-0.3h-2.5V307.7 M442,282.6c-0.2,0.2-0.3,0.4-0.3,0.7v2.5h-2.5
					c-0.3,0-0.5,0.1-0.6,0.3c-0.2,0.2-0.3,0.4-0.3,0.6c0,0.3,0.1,0.5,0.3,0.7c0.2,0.2,0.4,0.3,0.6,0.3h2.5v2.5
					c0,0.3,0.1,0.5,0.3,0.6c0.2,0.2,0.4,0.3,0.7,0.3c0.2,0,0.5-0.1,0.6-0.3c0.2-0.2,0.3-0.4,0.3-0.6v-2.5h2.5c0.3,0,0.5-0.1,0.7-0.3
					c0.2-0.2,0.3-0.4,0.3-0.7s-0.1-0.5-0.3-0.6c-0.2-0.2-0.4-0.3-0.7-0.3h-2.5v-2.5c0-0.3-0.1-0.5-0.3-0.7c-0.2-0.2-0.4-0.3-0.6-0.3
					S442.1,282.5,442,282.6 M244.4,272.3c-0.2-0.2-0.4-0.3-0.7-0.3h-2.6v-2.5c0-0.6-0.3-1-0.9-1s-0.9,0.3-0.9,1v2.5h-2.6
					c-0.3,0-0.5,0.1-0.7,0.3c-0.2,0.2-0.3,0.4-0.3,0.7c0,0.3,0.1,0.5,0.3,0.7c0.2,0.2,0.4,0.3,0.7,0.3h2.6v2.6
					c0,0.3,0.1,0.5,0.3,0.6c0.2,0.2,0.4,0.3,0.7,0.3s0.5-0.1,0.7-0.3c0.2-0.2,0.3-0.4,0.3-0.6v-2.6h2.6c0.3,0,0.5-0.1,0.7-0.3
					c0.2-0.2,0.3-0.4,0.3-0.7C244.8,272.7,244.7,272.5,244.4,272.3 M301,49.3h-2.6v-2.6c0-0.3-0.1-0.5-0.3-0.7
					c-0.2-0.2-0.4-0.3-0.7-0.3s-0.5,0.1-0.6,0.3c-0.2,0.2-0.3,0.4-0.3,0.7v2.6h-2.6c-0.6,0-0.9,0.3-0.9,1c0,0.3,0.1,0.5,0.3,0.7
					c0.2,0.2,0.4,0.3,0.7,0.3h2.6v2.5c0,0.3,0.1,0.5,0.3,0.7c0.2,0.2,0.4,0.3,0.6,0.3s0.5-0.1,0.7-0.3c0.2-0.2,0.3-0.4,0.3-0.7v-2.5
					h2.6c0.2,0,0.4-0.1,0.6-0.3c0.2-0.2,0.3-0.4,0.3-0.7c0-0.3-0.1-0.5-0.3-0.7C301.4,49.4,301.2,49.3,301,49.3 M512.2,67.8
					c-0.2-0.2-0.4-0.3-0.7-0.3c-0.3,0-0.5,0.1-0.7,0.3c-0.2,0.2-0.3,0.4-0.3,0.7V71H508c-0.3,0-0.5,0.1-0.6,0.3
					c-0.2,0.2-0.3,0.4-0.3,0.7c0,0.3,0.1,0.5,0.3,0.7c0.2,0.2,0.4,0.3,0.6,0.3h2.6v2.5c0,0.6,0.3,1,0.9,1c0.3,0,0.5-0.1,0.7-0.3
					c0.2-0.2,0.3-0.4,0.3-0.7v-2.5h2.5c0.3,0,0.5-0.1,0.7-0.3c0.2-0.2,0.3-0.4,0.3-0.7c0-0.6-0.3-0.9-1-0.9h-2.5v-2.6
					C512.5,68.2,512.4,68,512.2,67.8z"/>
				<path fill="#3D3D3D" fill-opacity="0.1686" d="M467.2,290.6c-1.1,1.1-1.8,2.4-1.9,3.9h84.8c-0.1-4.7-1.9-8.8-5.3-12
					c-3.4-3.3-7.5-5-12.2-5c-2.7,0-5.3,0.6-7.7,1.8c-2.3,1.1-4.3,2.7-6,4.8c-0.7-1.2-1.6-2.2-2.8-2.9c-1.2-0.8-2.6-1.1-4-1.1
					c-1.8,0-3.4,0.5-4.8,1.6c-1.4,1.1-2.3,2.5-2.7,4.2c-1.2-0.5-2.4-0.7-3.7-0.7c-1.9,0-3.7,0.5-5.4,1.6c-2.4-2.4-5.3-3.6-8.6-3.6
					c-2.6,0-4.9,0.7-7,2.1c-2.1,1.4-3.6,3.3-4.5,5.6c-1.2-1.3-2.6-1.9-4.3-1.9C469.7,289,468.3,289.5,467.2,290.6 M344.9,92.4
					c-3.1-2.7-6.6-4-10.6-4c-3.2,0-6.1,0.9-8.9,2.7c-2.6,1.8-4.7,4.1-6.1,7c-3.6-4.9-8-8.7-13.2-11.5c-5.4-2.9-11.1-4.3-17.1-4.3
					c-10.5,0-19.5,4-27,12c-7.5,8-11.4,17.7-11.6,29.1h187.8c-0.3-3.7-1.6-6.9-4.1-9.5c-2.5-2.6-5.5-3.8-9-3.8
					c-1.8,0-3.6,0.4-5.3,1.2c-1.6,0.8-3,1.9-4.3,3.3c-2-5.6-5.3-10-9.9-13.4c-4.6-3.5-9.8-5.2-15.5-5.3c-3.7,0-7.2,0.8-10.6,2.3
					c-3.2,1.5-6.1,3.6-8.6,6.3c-3.7-2.6-7.6-3.9-12-3.9c-2.8,0-5.5,0.6-8.2,1.8C349.9,98.5,347.9,95.1,344.9,92.4 M293.7,291.4
					c-4.6,0-9,1-13.1,3c-4,1.9-7.3,4.6-10.1,8.1c-1.1-2.1-2.7-3.7-4.7-5c-2.1-1.3-4.4-1.9-6.8-1.9c-3,0-5.8,0.9-8.1,2.8
					c-2.3,1.9-3.9,4.2-4.6,7.1c-2-0.8-4.1-1.2-6.3-1.2c-3.4,0-6.4,0.9-9.2,2.8c-1.9-1.9-4.1-3.4-6.7-4.5c-2.6-1.1-5.3-1.6-8.1-1.6
					c-4.3,0-8.3,1.2-11.9,3.7c-3.5,2.4-6,5.5-7.6,9.4c-2-2.1-4.4-3.1-7.3-3.1c-2.6,0-4.9,0.9-6.9,2.8c-1.9,1.8-3,4-3.1,6.6h144.1
					c-0.2-8-3.2-14.9-9-20.5C308.6,294.2,301.7,291.4,293.7,291.4z"/>
				<path fill="#BAD727" d="M515.5,257.9c-0.4-0.4-0.8-0.5-1.4-0.5c-0.5,0-1,0.2-1.3,0.5c-0.4,0.4-0.6,0.8-0.6,1.4s0.2,1,0.6,1.4
					c0.4,0.4,0.8,0.5,1.3,0.5c0.5,0,1-0.2,1.4-0.5c0.4-0.4,0.5-0.8,0.5-1.4S515.8,258.3,515.5,257.9 M605.7,86.7
					c-0.4,0.4-0.5,0.8-0.5,1.4c0,0.5,0.2,1,0.5,1.4c0.4,0.4,0.8,0.6,1.3,0.6s1-0.2,1.4-0.6c0.4-0.4,0.6-0.9,0.6-1.4
					c0-0.5-0.2-1-0.6-1.4c-0.4-0.4-0.8-0.5-1.4-0.5S606.1,86.3,605.7,86.7z"/>
				<path fill="#DEDEDE" d="M502,239.4c0-1.1-0.4-2-1.1-2.8c-0.7-0.7-1.6-1.1-2.7-1.1c-1.1,0-2,0.4-2.8,1.1
					c-0.7,0.8-1.1,1.7-1.1,2.8c0,1.1,0.4,2,1.1,2.7c0.8,0.7,1.7,1.1,2.8,1.1c1,0,1.9-0.4,2.7-1.1C501.6,241.4,502,240.5,502,239.4
					 M96.2,295.5c0-0.5-0.2-1-0.5-1.4c-0.4-0.4-0.8-0.5-1.3-0.5c-0.6,0-1,0.2-1.4,0.5c-0.4,0.4-0.6,0.9-0.6,1.4c0,0.5,0.2,1,0.6,1.4
					c0.4,0.4,0.9,0.6,1.4,0.6c0.5,0,1-0.2,1.3-0.6C96,296.5,96.2,296.1,96.2,295.5 M253.6,254.6c0.4-0.4,0.6-0.8,0.6-1.4
					s-0.2-1-0.6-1.4c-0.4-0.4-0.8-0.6-1.3-0.6c-0.6,0-1,0.2-1.4,0.6c-0.4,0.4-0.5,0.9-0.5,1.4c0,0.5,0.2,1,0.5,1.4
					c0.4,0.4,0.9,0.5,1.4,0.5C252.8,255.1,253.3,255,253.6,254.6z"/>
				<path fill="#F7571A" d="M164.5,68c-0.4,0.4-0.6,0.8-0.6,1.3c0,0.5,0.2,1,0.6,1.3c0.4,0.4,0.8,0.6,1.4,0.6c0.5,0,1-0.2,1.3-0.6
					c0.4-0.4,0.6-0.8,0.6-1.3c0-0.5-0.2-1-0.6-1.3s-0.8-0.6-1.3-0.6C165.3,67.4,164.9,67.6,164.5,68 M245.4,157.2
					c-0.4,0.4-0.6,0.8-0.6,1.4c0,0.5,0.2,1,0.6,1.4c0.4,0.4,0.8,0.6,1.3,0.6c0.5,0,1-0.2,1.4-0.6c0.4-0.4,0.6-0.9,0.6-1.4
					c0-0.5-0.2-1-0.6-1.4s-0.8-0.6-1.4-0.6C246.2,156.6,245.7,156.8,245.4,157.2z"/>
				<path fill="#D1D1D1" d="M150.9,335.6c-0.7,0.7-1.1,1.6-1.1,2.7c0,1.1,0.4,2,1.1,2.8c0.8,0.7,1.7,1.1,2.8,1.1s2-0.4,2.7-1.1
					c0.8-0.8,1.1-1.7,1.1-2.8c0-1-0.4-1.9-1.1-2.7c-0.7-0.7-1.6-1.1-2.7-1.1S151.6,334.9,150.9,335.6z"/>
			</g>
		</g>
		<g>
			<path id="Layer6_0_1_STROKES" fill="none" stroke="#BFBFBF" stroke-width="2" stroke-miterlimit="10" d="M526.3,104.7
				c0,0.9,0.3,1.7,1,2.3c0.6,0.6,1.4,1,2.3,1c0.9,0,1.7-0.3,2.3-1c0.6-0.6,1-1.4,1-2.3c0-0.9-0.3-1.6-1-2.3c-0.6-0.6-1.4-1-2.3-1
				c-0.9,0-1.6,0.3-2.3,1C526.6,103,526.3,103.8,526.3,104.7z M402.1,65.7c0,0.9,0.3,1.7,1,2.3c0.6,0.6,1.4,0.9,2.3,0.9
				c0.9,0,1.6-0.3,2.3-0.9c0.6-0.6,1-1.4,1-2.3c0-0.9-0.3-1.6-1-2.2c-0.6-0.6-1.4-1-2.3-1c-0.9,0-1.7,0.3-2.3,1
				C402.5,64.1,402.1,64.8,402.1,65.7z M360.8,320.9c0,0.9,0.3,1.7,1,2.3c0.6,0.6,1.4,1,2.3,1c0.9,0,1.7-0.3,2.3-1
				c0.6-0.6,1-1.4,1-2.3c0-0.9-0.3-1.7-1-2.3s-1.4-0.9-2.3-0.9c-0.9,0-1.6,0.3-2.3,0.9C361.1,319.2,360.8,319.9,360.8,320.9z"/>
		</g>
	</g>
</g>
<g id="circles">
	<g transform="matrix( 1, 0, 0, 1, 0,0) ">
		<g>
			<g id="Layer5_0_FILL">
				<path fill="#F7571A" d="M687,176.3c-6.5-20-19-34.8-37.7-44.4c-18.8-9.6-38.1-11.1-58.1-4.7c-20,6.5-34.8,19-44.5,37.7
					c-9.6,18.8-11.1,38.1-4.7,58.1c6.4,20,19,34.8,37.7,44.4c18.7,9.6,38.1,11.1,58.1,4.6c20-6.5,34.8-19,44.4-37.7
					C691.9,215.6,693.4,196.3,687,176.3z"/>
				<path fill="#BAD727" d="M218.1,189.1c0-21.2-7.5-39.3-22.4-54.2c-15-15-33.1-22.5-54.3-22.5c-21.1,0-39.2,7.5-54.3,22.5
					c-14.9,14.9-22.4,33-22.4,54.2c0,21.2,7.5,39.3,22.4,54.3c15,14.9,33.1,22.4,54.3,22.4c21.2,0,39.3-7.5,54.3-22.4
					C210.6,228.4,218.1,210.3,218.1,189.1z"/>
			</g>
		</g>
	</g>
</g>
<g id="icons">
	<g transform="matrix( 1, 0, 0, 1, 0,0) ">
		<g>
			
				<path id="Layer4_0_1_STROKES" fill="none" stroke="#3A6FBB" stroke-width="1.5" stroke-linecap="round" stroke-linejoin="round" d="
				M149.8,205.7c0,8.2-2.9,15.2-8.8,21.1c-5.8,5.8-12.9,8.8-21.1,8.8c-8.2,0-15.3-2.9-21.2-8.8c-5.8-5.9-8.8-12.9-8.8-21.1
				c0-8.2,2.9-15.3,8.8-21.1c5.9-5.9,13-8.8,21.2-8.8c8.2,0,15.3,2.9,21.1,8.8C146.8,190.4,149.8,197.5,149.8,205.7z M118.6,191.4
				v14.3l15.6,14.3"/>
		</g>
		<g>
			
				<path id="Layer4_0_2_STROKES" fill="none" stroke="#FFFFFF" stroke-width="1.5" stroke-linecap="round" stroke-linejoin="round" d="
				M645.7,227.4h3.1V218h-6.3v9.4H645.7v9.5h-6.4h-15.7h-6.4v-9.5h3.2V218h6.3h15.7 M581.2,164.4l25.1,25.2l15.8-12.6l26.8,28.3
				v-20.4 M607.9,208.5h3.1v9.5h-3.1v9.4h3.1v9.5h-6.3H589h-6.3v-9.5h-3.1V218h3.1v-9.5h-3.1v-9.4h6.3h15.8h6.3V208.5h-3.2v9.5h3.2
				 M620.5,227.4h3.2h3.1V218 M623.7,227.4v9.5 M626.8,227.4h12.5h3.2 M639.3,227.4v9.5 M604.8,208.5h-3.2H589v9.5h12.6h3.2
				 M601.6,199.1v9.4 M585.8,199.1v9.4h3.2 M585.8,208.5h-3.1 M582.7,227.4h3.1V218h-3.1 M604.8,236.9v-9.5h-3.2H589v9.5 M601.6,218
				v9.4 M589,218h-3.2 M589,227.4h-3.2 M607.9,227.4h-3.2 M626.8,205.3h22"/>
		</g>
		<g>
			
				<path id="Layer4_0_3_STROKES" fill="none" stroke="#3A6FBB" stroke-width="1.5" stroke-linecap="round" stroke-linejoin="round" d="
				M171.7,136.7h7.9v7.9 M169.7,180.1v-15.8h-5.9v15.8H169.7h5.9v-29.6h5.9v29.6h2 M175.6,180.1h5.9 M179.6,136.7l-12.9,13.9
				l-11.8-3.9l-11.9,9.8 M157.9,180.1v-19.8h-5.9v19.8H157.9h5.9 M145.6,180.1h6.3"/>
		</g>
	</g>
</g>
<g id="connectors">
	<g transform="matrix( 1, 0, 0, 1, 0,0) ">
		<g>
			<g id="Layer3_0_FILL">
				<path fill="#FEFEFE" d="M230.3,192.8L230.3,192.8c-0.7,0-1.3,0.3-1.8,0.8c-0.5,0.5-0.8,1.1-0.8,1.8c0,0.7,0.3,1.3,0.8,1.8
					c0.4,0.4,0.8,0.6,1.4,0.7c0.1,0,0.3,0.1,0.4,0.1c0.7,0,1.3-0.3,1.8-0.8c0.4-0.4,0.6-0.9,0.6-1.4c0-0.1,0.1-0.3,0.1-0.4
					c0-0.7-0.3-1.3-0.8-1.8C231.6,193.1,231,192.8,230.3,192.8 M526,191.4c-0.1,0-0.2,0-0.3,0c-0.7,0-1.3,0.2-1.8,0.8l-0.5,0.8
					c-0.1,0.2-0.1,0.4-0.1,0.6c0,0.1,0,0.1,0,0.2v0.3c0,0.7,0.3,1.3,0.8,1.8c0.4,0.5,1,0.8,1.7,0.8c0,0,0.1,0,0.1,0
					c0.7,0,1.3-0.3,1.7-0.8c0.5-0.5,0.8-1.1,0.8-1.8c0-0.7-0.3-1.3-0.8-1.8c0,0-0.1-0.1-0.1-0.1c-0.1-0.1-0.1-0.1-0.2-0.2
					c0,0-0.1,0-0.1-0.1c0,0-0.1,0-0.1-0.1c0,0-0.1,0-0.1-0.1c0,0,0,0,0-0.1c0,0,0,0,0,0C526.5,191.5,526.3,191.4,526,191.4z"/>
			</g>
		</g>
		<g>
			<path id="Layer3_0_1_STROKES" fill="none" stroke="#A3A3A3" stroke-miterlimit="10" d="M453.9,193.5h69.4 M230.2,192.8
				L230.2,192.8c0.8,0,1.4,0.3,1.9,0.8c0.5,0.5,0.8,1.1,0.8,1.8c0,0.1,0,0.3,0,0.4H302 M229.9,197.9c-0.6-0.1-1-0.3-1.4-0.7
				c-0.5-0.5-0.8-1.1-0.8-1.8c0-0.7,0.3-1.3,0.8-1.8c0.5-0.5,1-0.8,1.7-0.8c0-1.1,0.1-2.2,0.1-3.3c0-24.3-8.6-45.1-25.8-62.3
				c-17.1-17.2-37.9-25.8-62.1-25.8 M232.8,195.8c-0.1,0.5-0.3,1-0.7,1.4c-0.5,0.5-1.1,0.8-1.8,0.8c-0.1,0-0.3,0-0.4,0
				c-1.8,20.7-10.3,38.6-25.4,53.7c-17.1,17.2-37.9,25.8-62.1,25.8c-24.3,0-45-8.6-62.2-25.8c-17.2-17.1-25.8-37.8-25.8-62.1"/>
		</g>
		<g>
			<path id="Layer3_0_2_STROKES" fill="none" stroke="#A3A3A3" stroke-linecap="round" stroke-linejoin="round" d="M526,191.4
				c1.8-20.8,10.3-38.7,25.5-53.8c17.1-17.2,37.8-25.8,62.1-25.8c24.3,0,45,8.6,62.2,25.8c15.4,15.3,23.8,33.5,25.5,54.6 M523.4,193
				l0.5-0.8c0.5-0.5,1.1-0.8,1.8-0.8c0.1,0,0.2,0,0.3,0c0.3,0,0.6,0.1,0.8,0.2c0,0,0,0,0,0c0,0,0,0,0,0c0,0,0,0,0.1,0.1
				c0,0,0.1,0,0.1,0.1c0,0,0.1,0.1,0.1,0.1c0.1,0.1,0.2,0.1,0.2,0.2c0,0,0.1,0,0.1,0.1c0.5,0.5,0.8,1.1,0.8,1.8
				c0,0.7-0.3,1.3-0.8,1.8c-0.4,0.5-1,0.8-1.7,0.8c0,0-0.1,0-0.1,0c0,1.1-0.1,2.2-0.1,3.3c0,24.3,8.6,45,25.8,62.2
				c15.6,15.6,34.1,24.1,55.6,25.5 M525.7,196.6c-0.7,0-1.3-0.3-1.7-0.8c-0.5-0.5-0.8-1.1-0.8-1.8v-0.3"/>
		</g>
		<g>
			<path id="Layer3_0_3_STROKES" fill="none" stroke="#A3A3A3" stroke-linecap="square" stroke-miterlimit="10" d="M701.2,192.2
				c0.2,2.5,0.3,5,0.3,7.6 M613.5,287.8c-2.2,0-4.4-0.1-6.5-0.2"/>
		</g>
	</g>
</g>
<g id="monitor">
	<g transform="matrix( 1, 0, 0, 1, 0,0) ">
		<g>
			<g id="Layer2_0_FILL">
				<path fill="#828282" d="M281.5,143.3c0-1.1,0.4-2.1,1.2-2.9c0.8-0.8,1.7-1.2,2.8-1.2h-4.9c-1.2,0-2.1,0.4-2.9,1.2
					c-0.8,0.8-1.2,1.8-1.2,2.9v104.1c0,1.1,0.4,2,1.2,2.8c0.8,0.8,1.7,1.2,2.8,1.2h5c-1.1,0-2.1-0.4-2.8-1.2
					c-0.8-0.8-1.2-1.7-1.2-2.8V143.3 M343.3,272.3h-4.9c-1.3,0-2.5,0.5-3.5,1.5c-0.7,0.7-1.2,1.6-1.4,2.5h5.1
					c0.2-0.9,0.6-1.8,1.3-2.5C340.9,272.8,342,272.3,343.3,272.3 M338.5,282v-4.7c0-0.3,0-0.7,0.1-1h-5.1v5.7H338.5 M358.3,251.3h-5
					v21h5V251.3z"/>
				<path fill="#CACACA" d="M358.3,251.3v21h33.6v-21H358.3 M411.6,277.4c0-0.4,0-0.7-0.1-1.1h-72.9c-0.1,0.3-0.1,0.7-0.1,1v4.7
					h73.1V277.4 M410.1,273.8c-1-1-2.2-1.5-3.6-1.5h-14.6h-33.6h-5h-10c-1.3,0-2.4,0.5-3.4,1.5c-0.7,0.7-1.1,1.6-1.3,2.5h72.9
					C411.3,275.3,410.9,274.5,410.1,273.8 M469.3,143.6c0-1.2-0.4-2.3-1.3-3.2s-1.9-1.3-3.1-1.3H285.5c-1.1,0-2.1,0.4-2.8,1.2
					c-0.8,0.8-1.2,1.8-1.2,2.9v104.1c0,1.1,0.4,2,1.2,2.8c0.8,0.8,1.7,1.2,2.8,1.2h67.7h5h33.6H465c1.2,0,2.2-0.5,3-1.3
					s1.3-1.8,1.3-3V143.6 M461.8,147.5v95.7H289v-95.7H461.8z"/>
				<path fill="#FFFFFF" d="M461.8,243.2v-95.7H289v95.7H461.8z"/>
			</g>
		</g>
		<g>
			<path id="Layer2_0_1_STROKES" fill="none" stroke="#000000" stroke-miterlimit="10" d="M285.5,139.1h179.3c1.2,0,2.3,0.4,3.1,1.3
				s1.3,1.9,1.3,3.2V247c0,1.2-0.5,2.2-1.3,3s-1.8,1.3-3,1.3h-73.1v21h14.6c1.4,0,2.6,0.5,3.6,1.5c0.7,0.7,1.2,1.6,1.4,2.5
				c0.1,0.4,0.1,0.7,0.1,1.1v4.6h-73.1h-5v-5.7c0.2-0.9,0.7-1.8,1.4-2.5c1-1,2.2-1.5,3.5-1.5h4.9h10v-21h-67.7h-5
				c-1.1,0-2.1-0.4-2.8-1.2c-0.8-0.8-1.2-1.7-1.2-2.8V143.3c0-1.1,0.4-2.1,1.2-2.9c0.8-0.8,1.8-1.2,2.9-1.2H285.5
				c-1.1,0-2.1,0.4-2.8,1.2c-0.8,0.8-1.2,1.8-1.2,2.9v104.1c0,1.1,0.4,2,1.2,2.8c0.8,0.8,1.7,1.2,2.8,1.2 M353.3,272.3h5v-21h-5
				 M338.6,276.3c-0.1,0.3-0.1,0.7-0.1,1v4.7 M343.3,272.3c-1.3,0-2.4,0.5-3.4,1.5c-0.7,0.7-1.1,1.6-1.3,2.5h72.9 M338.6,276.3h-5.1
				 M391.9,272.3h-33.6 M391.9,251.3h-33.6 M461.8,243.2H289v-95.7h172.8V243.2z"/>
		</g>
	</g>
</g>
<g id="screen">
	<g transform="matrix( 1, 0, 0, 1, 0,0) ">
		<g>
			<path id="Layer1_0_1_STROKES" fill="none" stroke="#A3A3A3" stroke-linecap="round" stroke-linejoin="round" d="M416.4,238v-12
				v-10.4v-22.8v-26V159h-63.6H342h-15.8h-14.8h-15.2v-5.4h15.2h14.8H342h10.8v5.4 M342,153.6v5.4 M326.2,153.6v5.4 M336.6,171.8h74
				v24.6h-74V171.8z M416.4,192.8H455 M416.4,166.8H455 M336.6,201.9h74v15.6h-74V201.9z M410.6,237.4h-74v-14.6h74V237.4z
				 M416.4,226H455 M416.4,215.6H455 M301,171.8h30v42.6h-30V171.8z M311.4,153.6v5.4"/>
		</g>
		<g>
			<path id="Layer1_0_2_STROKES" fill="none" stroke="#000000" stroke-linecap="round" stroke-linejoin="round" d="M342.6,181.2
				h21.8 M342.6,192H363 M342.6,175.8h18 M342.6,186.6h18 M373.9,181.2h15.6 M373.9,186.6h24 M373.9,192h18 M373.9,175.8h18
				 M421.9,182.6h23 M421.9,177.2h15.6 M421.9,171.8h11.2 M421.9,162.2h18 M421.9,188h18 M421.9,198.8h11.2 M421.9,204.2h15.6
				 M421.9,209.6h13.2 M421.9,220.8h13.2 M373.9,212.4h18 M373.9,207h24 M373.9,227.2h14.2 M373.9,232.6h15.6 M342.6,207h18
				 M342.6,232.6H361 M342.6,227.2h14.8 M306.8,198.4h18 M306.8,203.8h18 M306.8,209.2h18 M306.8,193h18 M306.8,187.6h18
				 M306.8,182.2h18 M306.8,176.8h18 M301,166.2h29.4"/>
		</g>
	</g>
</g>
</svg>
