<?xml version="1.0" encoding="utf-8"?>
<!-- Generator: Adobe Illustrator 23.0.1, SVG Export Plug-In . SVG Version: 6.00 Build 0)  -->
<svg version="1.1" id="Layer_s1" xmlns="http://www.w3.org/2000/svg" xmlns:xlink="http://www.w3.org/1999/xlink" x="0px" y="0px"
	 viewBox="0 0 750 400" enable-background="new 0 0 750 400" xml:space="preserve">
<g id="clouds_bits">
	<g transform="matrix( 1, 0, 0, 1, 507.35,343.35) " opacity="0.17">
		<g>
			<g transform="matrix( 1, 0, 0, 1, 0,0) ">
				<g>
					<g id="flash0_ai_Layer_1__Path__48_0_Layer0_0_FILL">
						<path fill="#3D3D3D" d="M144.1,29c-0.2-2.6-1.2-4.8-3.2-6.6c-2-1.8-4.3-2.8-6.9-2.8c-2.9,0-5.4,1-7.3,3.1
							c-1.5-3.9-4.1-7-7.6-9.4c-3.6-2.5-7.5-3.7-11.8-3.7c-2.8,0-5.5,0.6-8.1,1.7c-2.5,1-4.8,2.5-6.7,4.4c-2.8-1.8-5.8-2.8-9.2-2.8
							c-2.1,0-4.2,0.4-6.3,1.2c-0.7-2.9-2.2-5.2-4.6-7.1c-2.4-1.9-5.1-2.8-8.2-2.8c-2.4,0-4.7,0.6-6.8,1.9c-2,1.2-3.6,2.9-4.7,4.9
							C50.1,7.7,46.7,5,42.8,3c-4.1-2-8.5-3-13.1-3c-8,0-14.9,2.8-20.7,8.5C3.2,14.1,0.2,21,0,29H144.1z"/>
					</g>
				</g>
			</g>
		</g>
	</g>
	<g transform="matrix( 1, 0, 0, 1, 62.35,283.35) " opacity="0.17">
		<g transform="matrix( 1, 0, 0, 1, 0,0) ">
			<g>
				<g id="flash0_ai_Layer_1__Path__47_0_Layer0_0_FILL">
					<path fill="#3D3D3D" d="M84.8,17c-0.1-1.5-0.8-2.8-1.9-3.9c-1.1-1.1-2.5-1.6-4.1-1.6c-1.7,0-3.1,0.6-4.3,1.9
						c-0.9-2.3-2.4-4.2-4.5-5.6c-2.1-1.4-4.4-2.2-7-2.2c-3.4,0-6.3,1.2-8.6,3.6C52.8,8.2,51,7.7,49,7.7c-1.3,0-2.5,0.2-3.7,0.7
						c-0.4-1.7-1.3-3.1-2.7-4.2c-1.4-1.1-3-1.7-4.8-1.7c-1.4,0-2.8,0.4-4,1.2c-1.2,0.7-2.1,1.7-2.8,2.9c-1.6-2-3.6-3.6-6-4.8
						c-2.4-1.2-5-1.8-7.7-1.8C12.7,0,8.7,1.7,5.3,5C1.9,8.3,0.1,12.3,0,17H84.8z"/>
				</g>
			</g>
		</g>
	</g>
	<g transform="matrix( 1, 0, 0, 1, 423,55) ">
		<g>
			
				<image overflow="visible" enable-background="new    " width="5" height="5" id="flash0_ai_Layer_1__Path__19" xlink:href="images/flash0_ai_Layer_1__Path__19.png" >
			</image>
		</g>
	</g>
	<g transform="matrix( 1, 0, 0, 1, -287.6,-198.6) ">
		<g>
			<g id="Layer8_3_FILL">
				<path fill="#BAD727" d="M458.9,578c0-0.5-0.2-1-0.6-1.3c-0.4-0.4-0.8-0.6-1.3-0.6c-0.5,0-1,0.2-1.4,0.6
					c-0.4,0.4-0.6,0.8-0.6,1.3s0.2,1,0.6,1.4c0.4,0.4,0.8,0.5,1.4,0.5c0.5,0,1-0.2,1.3-0.5C458.7,579,458.9,578.5,458.9,578z"/>
			</g>
		</g>
	</g>
	<g transform="matrix( 1, 0, 0, 1, -287.6,-198.6) ">
		<g>
			<g id="Layer8_4_FILL">
				<path fill="#BAD727" d="M851.7,428.8c0-0.5-0.2-1-0.6-1.3c-0.4-0.4-0.8-0.6-1.3-0.6s-1,0.2-1.4,0.6c-0.4,0.4-0.5,0.8-0.5,1.3
					c0,0.5,0.2,1,0.5,1.4c0.4,0.4,0.8,0.6,1.4,0.6c0.5,0,1-0.2,1.3-0.6C851.5,429.8,851.7,429.3,851.7,428.8z"/>
			</g>
		</g>
	</g>
	<g transform="matrix( 1, 0, 0, 1, -287.6,-198.6) ">
		<g>
			<g id="Layer8_5_FILL">
				<path fill="#F7571A" d="M598,321.3c0-0.5-0.2-1-0.6-1.3c-0.4-0.4-0.8-0.6-1.4-0.6s-1,0.2-1.3,0.6c-0.4,0.4-0.5,0.8-0.5,1.3
					c0,0.5,0.2,1,0.5,1.4c0.4,0.4,0.8,0.6,1.3,0.6s1-0.2,1.4-0.6C597.8,322.3,598,321.8,598,321.3z"/>
			</g>
		</g>
	</g>
	<g transform="matrix( 1, 0, 0, 1, -287.6,-198.6) ">
		<g>
			<g id="Layer8_6_FILL">
				<path fill="#F7571A" d="M520.9,449.9c0-0.5-0.2-1-0.6-1.4c-0.4-0.4-0.8-0.5-1.3-0.5s-1,0.2-1.4,0.5c-0.4,0.4-0.5,0.8-0.5,1.4
					c0,0.5,0.2,1,0.5,1.4c0.4,0.4,0.8,0.6,1.4,0.6s1-0.2,1.3-0.6C520.7,450.9,520.9,450.4,520.9,449.9z"/>
			</g>
		</g>
	</g>
	<g transform="matrix( 1, 0, 0, 1, -287.6,-198.6) ">
		<g>
			<g id="Layer8_7_FILL">
				<path fill="#DEDEDE" d="M454,529.6c0-1.1-0.4-2-1.1-2.8c-0.8-0.7-1.7-1.1-2.8-1.1c-1.1,0-2,0.4-2.7,1.1
					c-0.7,0.8-1.1,1.7-1.1,2.8c0,1.1,0.4,2,1.1,2.7c0.8,0.7,1.7,1.1,2.7,1.1c1.1,0,2-0.4,2.8-1.1C453.6,531.6,454,530.7,454,529.6z"
					/>
			</g>
		</g>
	</g>
	<g transform="matrix( 1, 0, 0, 1, -287.6,-198.6) ">
		<g>
			<g id="Layer8_8_FILL">
				<path fill="#DEDEDE" d="M848.8,493.6c-0.4-0.4-0.8-0.5-1.4-0.5c-0.5,0-1,0.2-1.4,0.5c-0.4,0.4-0.5,0.9-0.5,1.4
					c0,0.5,0.2,1,0.5,1.4c0.4,0.4,0.8,0.6,1.4,0.6c0.5,0,1-0.2,1.4-0.6c0.4-0.4,0.6-0.8,0.6-1.4
					C849.4,494.5,849.2,494.1,848.8,493.6z"/>
			</g>
		</g>
	</g>
	<g transform="matrix( 1, 0, 0, 1, -287.6,-198.6) ">
		<g>
			<g id="Layer8_9_FILL">
				<path fill="#D1D1D1" d="M844.5,583.7c0-1.1-0.4-2-1.1-2.7c-0.8-0.7-1.7-1.1-2.8-1.1c-1.1,0-2,0.4-2.7,1.1
					c-0.8,0.8-1.2,1.7-1.2,2.7c0,1.1,0.4,2,1.2,2.8c0.7,0.7,1.6,1.1,2.7,1.1c1.1,0,2-0.4,2.8-1.1
					C844.1,585.7,844.5,584.8,844.5,583.7z"/>
			</g>
		</g>
	</g>
	<g transform="matrix( 1, 0, 0, 1, -287.6,-198.6) ">
		<g>
			<path id="Layer8_10_1_STROKES" fill="none" stroke="#BFBFBF" stroke-width="2" stroke-miterlimit="10" d="M855,350.9
				c0,0.9-0.3,1.7-1,2.3c-0.6,0.6-1.4,1-2.3,1c-0.9,0-1.7-0.3-2.3-1c-0.6-0.6-1-1.4-1-2.3c0-0.9,0.3-1.6,1-2.3c0.6-0.6,1.4-1,2.3-1
				c0.9,0,1.6,0.3,2.3,1C854.7,349.2,855,350,855,350.9z"/>
		</g>
	</g>
	<g transform="matrix( 1, 0, 0, 1, -287.6,-198.6) ">
		<g>
			<path id="Layer8_11_1_STROKES" fill="none" stroke="#BFBFBF" stroke-width="2" stroke-miterlimit="10" d="M678.5,551.5
				c0,0.9-0.3,1.7-1,2.3s-1.4,1-2.3,1c-0.9,0-1.7-0.3-2.3-1c-0.6-0.6-1-1.4-1-2.3s0.3-1.7,1-2.3c0.6-0.6,1.4-1,2.3-1
				c0.9,0,1.6,0.3,2.3,1C678.1,549.8,678.5,550.5,678.5,551.5z"/>
		</g>
	</g>
	<g transform="matrix( 1, 0, 0, 1, -287.6,-198.6) ">
		<g>
			<path id="Layer8_12_1_STROKES" fill="none" stroke="#BFBFBF" stroke-width="2" stroke-miterlimit="10" d="M619.5,264.3
				c0,0.9-0.3,1.7-1,2.3c-0.6,0.6-1.4,0.9-2.3,0.9c-0.9,0-1.6-0.3-2.3-0.9c-0.6-0.6-1-1.4-1-2.3c0-0.9,0.3-1.6,1-2.3
				c0.6-0.6,1.4-0.9,2.3-0.9c0.9,0,1.7,0.3,2.3,0.9S619.5,263.4,619.5,264.3z"/>
		</g>
	</g>
	<g transform="matrix( 1, 0, 0, 1, -287.6,-198.6) ">
		<g>
			<g id="Layer8_13_MEMBER_0_FILL">
				<path fill="#83C4EC" d="M506.5,271.5h7c0.3,0,0.5-0.1,0.7-0.3c0.2-0.2,0.3-0.4,0.3-0.7c0-0.3-0.1-0.5-0.3-0.7
					c-0.2-0.2-0.4-0.3-0.7-0.3h-7c-0.6,0-0.9,0.3-0.9,0.9c0,0.3,0.1,0.5,0.3,0.7C506.1,271.4,506.3,271.5,506.5,271.5z"/>
			</g>
		</g>
	</g>
	<g transform="matrix( 1, 0, 0, 1, -287.6,-198.6) ">
		<g>
			<g id="Layer8_13_MEMBER_1_FILL">
				<path fill="#83C4EC" d="M509.4,266.4c-0.2,0.2-0.3,0.4-0.3,0.6v7c0,0.3,0.1,0.5,0.3,0.7c0.2,0.2,0.4,0.3,0.6,0.3
					c0.6,0,1-0.3,1-1v-7c0-0.3-0.1-0.5-0.3-0.6c-0.2-0.2-0.4-0.3-0.7-0.3C509.8,266,509.6,266.1,509.4,266.4z"/>
			</g>
		</g>
	</g>
	<g transform="matrix( 1, 0, 0, 1, -287.6,-198.6) ">
		<g>
			<g id="Layer8_14_MEMBER_0_FILL">
				<path fill="#83C4EC" d="M909.2,384.4c0.2,0.2,0.4,0.3,0.6,0.3h7.1c0.3,0,0.5-0.1,0.7-0.3c0.2-0.2,0.2-0.4,0.3-0.6
					c0-0.6-0.3-1-0.9-1h-7.1c-0.3,0-0.5,0.1-0.6,0.3c-0.2,0.2-0.3,0.4-0.3,0.7C908.9,384,909,384.2,909.2,384.4z"/>
			</g>
		</g>
	</g>
	<g transform="matrix( 1, 0, 0, 1, -287.6,-198.6) ">
		<g>
			<g id="Layer8_14_MEMBER_1_FILL">
				<path fill="#83C4EC" d="M914.3,380.1c0-0.2-0.1-0.5-0.3-0.6c-0.2-0.2-0.4-0.3-0.6-0.3c-0.3,0-0.5,0.1-0.7,0.3
					c-0.2,0.2-0.3,0.4-0.3,0.6v7.1c0,0.3,0.1,0.5,0.3,0.7c0.2,0.2,0.4,0.3,0.7,0.3c0.3,0,0.5-0.1,0.6-0.3c0.2-0.2,0.3-0.4,0.3-0.7
					V380.1z"/>
			</g>
		</g>
	</g>
	<g transform="matrix( 1, 0, 0, 1, -287.6,-198.6) ">
		<g>
			<g id="Layer8_15_MEMBER_0_FILL">
				<path fill="#83C4EC" d="M399.5,556.6c-0.3,0-0.5,0.1-0.7,0.3c-0.2,0.2-0.3,0.4-0.3,0.7c0,0.3,0.1,0.5,0.3,0.7
					c0.2,0.2,0.4,0.3,0.7,0.3h7c0.3,0,0.5-0.1,0.7-0.3c0.2-0.2,0.3-0.4,0.3-0.7c0-0.6-0.3-1-1-1H399.5z"/>
			</g>
		</g>
	</g>
	<g transform="matrix( 1, 0, 0, 1, -287.6,-198.6) ">
		<g>
			<g id="Layer8_15_MEMBER_1_FILL">
				<path fill="#83C4EC" d="M404,554c0-0.2-0.1-0.5-0.3-0.7c-0.2-0.2-0.4-0.3-0.6-0.3s-0.5,0.1-0.7,0.3c-0.2,0.2-0.3,0.4-0.3,0.7v7
					c0,0.3,0.1,0.5,0.3,0.7c0.2,0.2,0.4,0.3,0.7,0.3s0.5-0.1,0.6-0.3c0.2-0.2,0.3-0.4,0.3-0.7V554z"/>
			</g>
		</g>
	</g>
	<g transform="matrix( 1, 0, 0, 1, -287.6,-198.6) ">
		<g>
			<g id="Layer8_16_MEMBER_0_FILL">
				<path fill="#83C4EC" d="M584.3,587c0.2,0.2,0.4,0.3,0.7,0.3h7c0.3,0,0.5-0.1,0.7-0.3c0.2-0.2,0.3-0.4,0.3-0.7s-0.1-0.5-0.3-0.6
					c-0.2-0.2-0.4-0.3-0.7-0.3h-7c-0.3,0-0.5,0.1-0.7,0.3c-0.2,0.2-0.3,0.4-0.3,0.6S584.1,586.9,584.3,587z"/>
			</g>
		</g>
	</g>
	<g transform="matrix( 1, 0, 0, 1, -287.6,-198.6) ">
		<g>
			<g id="Layer8_16_MEMBER_1_FILL">
				<path fill="#83C4EC" d="M588.5,590.8c0.3,0,0.5-0.1,0.7-0.3c0.2-0.2,0.3-0.4,0.3-0.6v-7.1c0-0.6-0.3-0.9-1-0.9
					c-0.6,0-1,0.3-1,0.9v7.1c0,0.3,0.1,0.5,0.3,0.6C588,590.8,588.3,590.8,588.5,590.8z"/>
			</g>
		</g>
	</g>
	<g transform="matrix( 1, 0, 0, 1, -287.6,-198.6) ">
		<g>
			<g id="Layer8_17_MEMBER_0_FILL">
				<path fill="#83C4EC" d="M745,571.2c0.3,0,0.5-0.1,0.6-0.3c0.2-0.2,0.3-0.4,0.3-0.7c0-0.2-0.1-0.5-0.3-0.7
					c-0.2-0.2-0.4-0.3-0.6-0.3h-7c-0.3,0-0.5,0.1-0.7,0.3c-0.2,0.2-0.3,0.4-0.3,0.7c0,0.3,0.1,0.5,0.3,0.7c0.2,0.2,0.4,0.3,0.7,0.3
					H745z"/>
			</g>
		</g>
	</g>
	<g transform="matrix( 1, 0, 0, 1, -287.6,-198.6) ">
		<g>
			<g id="Layer8_17_MEMBER_1_FILL">
				<path fill="#83C4EC" d="M740.8,566c-0.2,0.2-0.3,0.4-0.3,0.7v7c0,0.3,0.1,0.5,0.3,0.7c0.2,0.2,0.4,0.3,0.7,0.3
					c0.3,0,0.5-0.1,0.7-0.3c0.2-0.2,0.3-0.4,0.3-0.7v-7c0-0.3-0.1-0.5-0.3-0.7c-0.2-0.2-0.4-0.3-0.7-0.3
					C741.1,565.8,740.9,565.8,740.8,566z"/>
			</g>
		</g>
	</g>
	<g transform="matrix( 1, 0, 0, 1, -287.6,-198.6) ">
		<g>
			<g id="Layer8_18_FILL">
				<path fill="#BFBFBF" d="M521,492.2h-6l-3,5.2l3,5.2h6l3-5.2L521,492.2 M515.8,493.6h4.4l2.2,3.8l-2.2,3.8h-4.4l-2.2-3.8
					L515.8,493.6z"/>
			</g>
		</g>
	</g>
	<g transform="matrix( 1, 0, 0, 1, -287.6,-198.6) ">
		<g>
			<g id="Layer8_19_FILL">
				<path fill="#BFBFBF" d="M845.3,287.1l-3,5.2l3,5.2h6l3-5.2l-3-5.2H845.3 M846.2,296.1l-2.2-3.8l2.2-3.8h4.3l2.2,3.8l-2.2,3.8
					H846.2z"/>
			</g>
		</g>
	</g>
	<g transform="matrix( 1, 0, 0, 1, 106.4,88.4) " opacity="0.17">
		<g transform="matrix( 1, 0, 0, 1, 0,0) ">
			<g>
				<g id="flash0_ai_Layer_1__Path__0_Layer0_0_FILL">
					<path fill="#3D3D3D" d="M187.8,41.2c-0.2-11.4-4.1-21.1-11.7-29.1C168.6,4,159.6,0,149.1,0c-6,0-11.7,1.4-17.1,4.3
						c-5.2,2.8-9.6,6.6-13.2,11.5c-1.4-2.9-3.5-5.3-6.1-7.1c-2.7-1.8-5.7-2.7-8.8-2.7c-4,0-7.5,1.3-10.6,4c-3,2.6-5,6-6,10.1
						c-2.7-1.2-5.4-1.8-8.2-1.8c-4.3,0-8.3,1.3-12,3.9c-2.5-2.7-5.4-4.8-8.6-6.3c-3.4-1.5-6.9-2.3-10.6-2.3
						c-5.7,0-10.8,1.7-15.5,5.3c-4.5,3.4-7.8,7.9-9.8,13.4c-1.2-1.4-2.6-2.5-4.3-3.3c-1.7-0.8-3.5-1.2-5.3-1.2c-3.5,0-6.5,1.3-9,3.9
						c-2.5,2.6-3.9,5.7-4.2,9.5H187.8z"/>
				</g>
			</g>
		</g>
	</g>
</g>
<g id="laptop_screen">
	<g transform="matrix( 1, 0, 0, 1, 270.15,164.3) ">
		<g transform="matrix( 1, 0, 0, 1, 0,0) ">
			<g>
				<g id="laptop_screen_0_Layer2_0_FILL">
					<path fill="#F9F9F9" d="M80.6,20.3H0v123.4h80.6V20.3z"/>
					<path fill="#FFFFFF" d="M259.4,143.6V20.4L80.6,20.3v123.4H259.4z"/>
					<path fill="#DFF1F1" d="M259.4,20.4V10.3h-203C55,10.1,53.9,9.5,53,8.6l-2.5-2.5c-0.5-0.5-0.9-0.9-1.4-1.3
						c-0.7-0.5-1.5-0.8-2.2-0.9H19.2C18.5,4,17.7,4.3,17,4.8c-0.4,0.3-0.9,0.7-1.4,1.3l-2.5,2.5c-0.9,1-2.1,1.5-3.4,1.7H0v10h80.6
						L259.4,20.4z"/>
					<path fill="#83C4EC" d="M259.4,10.3V0H0v10.3h9.7c1.4-0.2,2.5-0.7,3.4-1.7l2.5-2.5c0.5-0.5,0.9-0.9,1.4-1.3
						c0.7-0.5,1.5-0.8,2.2-0.9h27.7c0.7,0.1,1.5,0.4,2.2,0.9c0.4,0.3,0.9,0.8,1.4,1.3L53,8.6c0.9,1,2.1,1.5,3.5,1.7H259.4z"/>
				</g>
			</g>
		</g>
		<g id="Layer_2223">
			<g transform="matrix( 1, 0, 0, 1, 0,0) ">
				<g>
					<path id="laptop_screen_0_Layer1_0_1_STROKES" fill="none" stroke="#A8A9A9" stroke-width="2" stroke-miterlimit="10" d="
						M249.8,15.2h5 M224,15.2h20.6"/>
				</g>
			</g>
		</g>
		<g>
			<g transform="matrix( 1, 0, 0, 1, 0,0) ">
				<g>
					<g id="laptop_screen_0_Layer0_0_FILL">
						<path fill="#A8A9A9" d="M149.2,136.4v-3.7h-28.8v3.7H149.2 M149.2,128.6v-3.7h-43.5v3.7H149.2 M149.2,121.1v-3.7h-25v3.7
							H149.2 M149.2,113.4v-3.7h-34.5v3.7H149.2 M149.2,105.8v-3.7H96.3v3.7H149.2 M67.3,51.5v-3.7H11.8v3.7H67.3 M11.8,77.3v3.7H41
							v-3.7H11.8 M11.8,69.9v3.7h38.5v-3.7H11.8 M11.8,62.5v3.7h52.7v-3.7H11.8 M11.8,55.2v3.7H54v-3.7H11.8 M67.3,44v-3.7H11.8V44
							H67.3 M51.5,36.7V33H11.8v3.7H51.5 M67.3,29.3v-3.7H11.8v3.7H67.3 M128,86.9v3.7h21.2v-3.7H128 M149.2,67.8v-3.7h-12.6v3.7
							H149.2 M113.5,94.6v3.7h35.7v-3.7H113.5 M119.7,56.5v3.7h29.5v-3.7H119.7 M103.6,79.3v3.7h45.6v-3.7H103.6 M115.3,71.8v3.7
							h33.9v-3.7H115.3 M149.2,49h-15v3.7h15V49 M149.2,45v-3.7H93.7V45H149.2 M129.9,33.8v3.7h19.3v-3.7H129.9 M136.4,26.1v3.7
							h12.8v-3.7H136.4 M166.4,105.8v-3.7h-9.6v3.7H166.4 M168.8,113.4v-3.7h-12.1v3.7H168.8 M188.6,128.6v-3.7h-31.8v3.7H188.6
							 M172.7,67.7V64h-15.9v3.7H172.7 M168.1,60.3v-3.7h-11.4v3.7H168.1 M176,90.7v-3.7h-19.3v3.7H176 M176,37.5v-3.7h-19.3v3.7
							H176z"/>
					</g>
				</g>
			</g>
		</g>
	</g>
</g>
<g id="laptop">
	<g transform="matrix( 1, 0, 0, 1, 0,0) ">
		<g>
			<g id="Layer6_0_FILL">
				<path fill="#FFFFFF" d="M540.8,158.4c0-1.8-0.7-3.4-2-4.8c-1.3-1.3-2.9-1.9-4.8-1.9h-269c-1.7,0-3.2,0.6-4.4,1.9
					c-1.2,1.2-1.8,2.6-1.8,4.3v162.2h281.9V158.4 M529.5,164.3V308H270.1V164.3H529.5z"/>
			</g>
		</g>
		<g>
			<path id="Layer6_0_1_STROKES" fill="none" stroke="#000000" stroke-miterlimit="10" d="M540.8,320.1H258.9V157.9
				c0-1.7,0.6-3.1,1.8-4.3c1.2-1.2,2.7-1.9,4.4-1.9h269c1.9,0,3.5,0.7,4.8,1.9c1.3,1.3,2,2.9,2,4.8V320.1z M529.5,308H270.1V164.3
				h259.4V308z"/>
		</g>
	</g>
	<g transform="matrix( 1, 0, 0, 1, -287.6,-198.6) ">
		<g>
			<g id="Layer6_1_FILL">
				<path fill="#CACACA" d="M854,525.8v-7H520.9v6.9c0,2.1,0.7,3.8,2.2,5.3c1.5,1.5,3.3,2.2,5.4,2.2h318.1c2,0,3.8-0.7,5.3-2.2
					C853.3,529.6,854,527.8,854,525.8z"/>
			</g>
		</g>
		<g>
			<path id="Layer6_1_1_STROKES" fill="none" stroke="#000000" stroke-miterlimit="10" d="M854,518.8H520.9v6.9
				c0,2.1,0.7,3.8,2.2,5.3c1.5,1.5,3.3,2.2,5.4,2.2h318.1c2,0,3.8-0.7,5.3-2.2c1.4-1.4,2.2-3.2,2.2-5.3V518.8z"/>
		</g>
	</g>
	<g transform="matrix( 1, 0, 0, 1, -287.6,-198.6) ">
		<g>
			<path id="Layer6_2_1_STROKES" fill="none" stroke="#000000" stroke-miterlimit="10" d="M853.9,527.3H521"/>
		</g>
	</g>
</g>
<g id="circles">
	<g transform="matrix( 1, 0, 0, 1, -287.6,-198.6) ">
		<g>
			<g id="Layer5_0_FILL">
				<path fill="#BAD727" d="M483.4,389.1c-3.8-11.8-11.2-20.5-22.2-26.1c-11-5.6-22.4-6.6-34.2-2.8c-11.8,3.8-20.5,11.2-26.1,22.2
					c-5.6,11-6.5,22.4-2.8,34.2s11.2,20.5,22.2,26.1c11,5.6,22.4,6.6,34.2,2.8s20.5-11.2,26.1-22.2
					C486.3,412.3,487.2,400.9,483.4,389.1z"/>
			</g>
		</g>
	</g>
	<g transform="matrix( 1, 0, 0, 1, -287.6,-198.6) ">
		<g>
			<g id="Layer5_1_FILL">
				<path fill="#F7571A" d="M966,477.4c0-10.7-3.8-19.8-11.3-27.4c-7.6-7.6-16.7-11.4-27.4-11.4c-10.7,0-19.8,3.8-27.3,11.4
					c-7.5,7.5-11.3,16.6-11.3,27.4c0,10.7,3.8,19.8,11.3,27.4c7.6,7.5,16.7,11.3,27.3,11.3c10.7,0,19.8-3.8,27.4-11.3
					C962.2,497.1,966,488,966,477.4z"/>
			</g>
		</g>
	</g>
	<g transform="matrix( 1, 0, 0, 1, -287.6,-198.6) ">
		<g>
			<path id="Layer5_2_MEMBER_0_1_STROKES" fill="none" stroke="#FEFEFE" stroke-miterlimit="10" d="M904,461h52.8"/>
		</g>
	</g>
	<g transform="matrix( 1, 0, 0, 1, -287.6,-198.6) ">
		<g>
			<path id="Layer5_2_MEMBER_1_1_STROKES" fill="none" stroke="#FEFEFE" stroke-miterlimit="10" d="M913.2,455.3
				c0,0.3-0.1,0.6-0.4,0.8c-0.2,0.2-0.5,0.4-0.8,0.4c-0.3,0-0.6-0.1-0.8-0.4c-0.2-0.2-0.4-0.5-0.4-0.8c0-0.3,0.1-0.6,0.4-0.8
				c0.2-0.2,0.5-0.4,0.8-0.4s0.6,0.1,0.8,0.4C913,454.7,913.2,455,913.2,455.3z"/>
		</g>
	</g>
	<g transform="matrix( 1, 0, 0, 1, -287.6,-198.6) ">
		<g>
			<path id="Layer5_2_MEMBER_2_1_STROKES" fill="none" stroke="#FEFEFE" stroke-miterlimit="10" d="M920,455.3
				c0,0.3-0.1,0.6-0.3,0.8c-0.2,0.2-0.5,0.4-0.8,0.4c-0.3,0-0.6-0.1-0.8-0.4c-0.2-0.2-0.3-0.5-0.3-0.8c0-0.3,0.1-0.6,0.3-0.8
				c0.2-0.2,0.5-0.4,0.8-0.4c0.3,0,0.6,0.1,0.8,0.4C919.9,454.7,920,455,920,455.3z"/>
		</g>
	</g>
	<g transform="matrix( 1, 0, 0, 1, -287.6,-198.6) ">
		<g>
			<path id="Layer5_2_MEMBER_3_1_STROKES" fill="none" stroke="#FEFEFE" stroke-miterlimit="10" d="M927,455.3
				c0,0.3-0.1,0.6-0.4,0.8c-0.2,0.2-0.5,0.4-0.8,0.4c-0.3,0-0.6-0.1-0.8-0.4c-0.2-0.2-0.3-0.5-0.3-0.8c0-0.3,0.1-0.6,0.3-0.8
				c0.2-0.2,0.5-0.4,0.8-0.4c0.3,0,0.6,0.1,0.8,0.4C926.8,454.7,927,455,927,455.3z"/>
		</g>
	</g>
	<g transform="matrix( 1, 0, 0, 1, -287.6,-198.6) ">
		<g>
			<path id="Layer5_2_MEMBER_4_1_STROKES" fill="none" stroke="#FEFEFE" stroke-miterlimit="10" d="M922.3,461v39.9"/>
		</g>
	</g>
	<g transform="matrix( 1, 0, 0, 1, -287.6,-198.6) ">
		<g>
			<path id="Layer5_2_MEMBER_5_1_STROKES" fill="none" stroke="#FEFEFE" stroke-miterlimit="10" d="M949.9,477.1h-20.7v-11.5h20.7
				V477.1z"/>
		</g>
	</g>
	<g transform="matrix( 1, 0, 0, 1, -287.6,-198.6) ">
		<g>
			<path id="Layer5_2_MEMBER_6_1_STROKES" fill="none" stroke="#FEFEFE" stroke-miterlimit="10" d="M949.9,495.5h-20.7V484h20.7
				V495.5z"/>
		</g>
	</g>
	<g transform="matrix( 1, 0, 0, 1, -287.6,-198.6) ">
		<g>
			<path id="Layer5_2_MEMBER_7_1_STROKES" fill="none" stroke="#FEFEFE" stroke-miterlimit="10" d="M908.6,465.6h4.6"/>
		</g>
	</g>
	<g transform="matrix( 1, 0, 0, 1, -287.6,-198.6) ">
		<g>
			<path id="Layer5_2_MEMBER_8_1_STROKES" fill="none" stroke="#FEFEFE" stroke-miterlimit="10" d="M913.2,470.3h4.5"/>
		</g>
	</g>
	<g transform="matrix( 1, 0, 0, 1, -287.6,-198.6) ">
		<g>
			<path id="Layer5_2_MEMBER_9_1_STROKES" fill="none" stroke="#FEFEFE" stroke-miterlimit="10" d="M913.2,474.9h4.5"/>
		</g>
	</g>
	<g transform="matrix( 1, 0, 0, 1, -287.6,-198.6) ">
		<g>
			<path id="Layer5_2_MEMBER_10_1_STROKES" fill="none" stroke="#FEFEFE" stroke-miterlimit="10" d="M913.2,479.5h4.5"/>
		</g>
	</g>
	<g transform="matrix( 1, 0, 0, 1, -287.6,-198.6) ">
		<g>
			<path id="Layer5_2_MEMBER_11_1_STROKES" fill="none" stroke="#FEFEFE" stroke-miterlimit="10" d="M908.6,484h4.6"/>
		</g>
	</g>
	<g transform="matrix( 1, 0, 0, 1, -287.6,-198.6) ">
		<g>
			<path id="Layer5_2_MEMBER_12_1_STROKES" fill="none" stroke="#FEFEFE" stroke-miterlimit="10" d="M913.2,488.6h4.5"/>
		</g>
	</g>
	<g transform="matrix( 1, 0, 0, 1, -287.6,-198.6) ">
		<g>
			<path id="Layer5_2_MEMBER_13_1_STROKES" fill="none" stroke="#FEFEFE" stroke-miterlimit="10" d="M913.2,493.2h4.5"/>
		</g>
	</g>
	<g transform="matrix( 1, 0, 0, 1, -287.6,-198.6) ">
		<g>
			<g id="Layer5_3_FILL">
				<path fill="#2C538A" d="M809.6,252.9c-4.7-14.7-14-25.6-27.8-32.6c-13.8-7.1-28-8.2-42.7-3.5c-14.7,4.8-25.6,14-32.7,27.8
					c-7,13.8-8.2,28-3.5,42.7c4.7,14.7,14,25.6,27.8,32.6c13.8,7.1,28,8.2,42.7,3.5c14.7-4.7,25.6-14,32.6-27.8
					C813.1,281.9,814.3,267.6,809.6,252.9z"/>
			</g>
		</g>
	</g>
</g>
<g id="circle_browser">
	<g transform="matrix( 1, 0, 0, 1, 0,0) ">
		<g>
			<path id="Layer4_0_1_STROKES" fill="none" stroke="#FFFFFF" stroke-linecap="square" stroke-miterlimit="10" d="M492.8,92.8h11.9
				 M420.9,67.6H434c2.9-0.2,5.3-1.2,7.3-3l4.6-4.7c1.8-1.9,4.1-3,6.8-3.2h31.8c2.7,0.2,4.9,1.3,6.8,3.2l4.6,4.7
				c1.9,1.8,4.4,2.8,7.3,3h13.1 M492.8,102.8h11.9 M449.9,62.8h29.9V67h-29.9V62.8z M487.5,66.8l-1.9-1.9l-1.9,1.9 M483.8,63
				l1.9,1.9l1.9-1.9 M475,92.8h-29.7 M475,112.7h-26 M475,102.8h-39.9 M484,87.1v31.8 M422.9,81.4h91.4 M427.1,45.8h82.8"/>
		</g>
	</g>
</g>
<g id="click_hand_menu">
	<g transform="matrix( 1, 0, 0, 1, 0,0) ">
		<g>
			<path id="Layer3_0_1_STROKES" fill="none" stroke="#3A6FBB" stroke-linecap="square" stroke-miterlimit="10" d="M147.7,204.8H138
				v-11.6h9.7 M120.8,188.6l10.5,10.5l-10.6,10.5L120.8,188.6z M186.2,204.8h-10.3 M154.8,193.2h31.4"/>
		</g>
	</g>
</g>
<g id="click_hand">
	<g transform="matrix( 1, 0, 0, 1, 0,0) ">
		<g>
			<path id="Layer2_0_1_STROKES" fill="none" stroke="#3A6FBB" stroke-linecap="square" stroke-miterlimit="10" d="M147.7,213.1
				v-26.9c0-1,0.4-1.8,1.1-2.5s1.5-1.1,2.5-1.1c1,0,1.8,0.4,2.5,1.1c0.7,0.7,1.1,1.5,1.1,2.5v10.5h4.6c0.6,0,1.2,0.2,1.7,0.7
				c0.4,0.4,0.7,1,0.7,1.6h4.7c0.7,0,1.2,0.2,1.7,0.7c0.4,0.4,0.7,1,0.7,1.7h3.4c1,0,1.8,0.3,2.5,1c0.7,0.6,1.1,1.4,1.1,2.4v7.3
				c0,2.2-0.3,4.3-0.9,6.5l-3.8,13.2h-21.1c-1.5-1.9-4-5.9-7.7-11.9l-5-8.4c-0.4-0.6-0.6-1.2-0.5-1.9c0.1-0.7,0.4-1.3,0.8-1.7
				c0.5-0.5,1.2-0.8,1.9-0.8c0.7-0.1,1.3,0.1,1.9,0.6L147.7,213.1z"/>
		</g>
	</g>
	<g transform="matrix( 1.3085174560546875, 0, 0, 1.3085174560546875, -1580.05,-1029.45) ">
		<g transform="matrix( 0.76422119140625, 0, 0, 0.76422119140625, 1207.5,786.7) ">
			<path id="Layer2_1_1_STROKES" fill="none" stroke="#3A6FBB" stroke-linecap="square" stroke-miterlimit="10" d="M1331.1,938.8
				v3.6"/>
		</g>
	</g>
	<g transform="matrix( 1.3085174560546875, 0, 0, 1.3085174560546875, -1580.05,-1029.45) ">
		<g transform="matrix( 0.76422119140625, 0, 0, 0.76422119140625, 1207.5,786.7) ">
			<path id="Layer2_2_1_STROKES" fill="none" stroke="#3A6FBB" stroke-linecap="square" stroke-miterlimit="10" d="M1325.8,936.1
				v6.3"/>
		</g>
	</g>
	<g transform="matrix( 1, 0, 0, 1, -0.8,-7.1) ">
		<g>
			<path id="Layer2_3_1_STROKES" fill="none" stroke="#3A6FBB" stroke-linecap="square" stroke-miterlimit="10" d="M169.6,208.4v4.7
				"/>
		</g>
	</g>
</g>
<g id="connectors">
	<g transform="matrix( 1, 0, 0, 1, 0,0) ">
		<g>
			<path id="Layer1_0_1_STROKES" fill="none" stroke="#A3A3A3" stroke-miterlimit="10" d="M406.7,57.2h-9.2c-2.3,0-4.3,0.8-6,2.4
				c-1.6,1.6-2.4,3.6-2.4,6v109.8"/>
		</g>
	</g>
	<g transform="matrix( 1, 0, 0, 1, -287.6,-198.6) ">
		<g>
			<path id="Layer1_1_1_STROKES" fill="none" stroke="#A3A3A3" stroke-miterlimit="10" d="M483.6,430.3h90.7"/>
		</g>
	</g>
	<g transform="matrix( 1, 0, 0, 1, 0,0) ">
		<g>
			<path id="Layer1_2_1_STROKES" fill="none" stroke="#A3A3A3" stroke-miterlimit="10" d="M137.4,155.2c13.5-4.4,26.6-3.3,39.3,3.2
				c12.7,6.5,21.2,16.5,25.6,30.1c4.4,13.5,3.3,26.6-3.2,39.4c-6.5,12.7-16.5,21.2-30.1,25.6s-26.7,3.3-39.4-3.2
				c-12.7-6.5-21.2-16.5-25.5-30"/>
		</g>
	</g>
	<g transform="matrix( 1, 0, 0, 1, -287.6,-198.6) ">
		<g>
			<g id="Layer1_3_FILL">
				<path fill="#FEFEFE" d="M577.2,430.4c0-0.8-0.3-1.4-0.9-2c-0.6-0.5-1.2-0.8-2-0.8c-0.8,0-1.4,0.3-2,0.8c-0.5,0.6-0.8,1.2-0.8,2
					s0.3,1.4,0.8,2c0.6,0.6,1.2,0.9,2,0.9c0.8,0,1.4-0.3,2-0.9C576.9,431.8,577.2,431.1,577.2,430.4z"/>
			</g>
		</g>
		<g>
			<path id="Layer1_3_1_STROKES" fill="none" stroke="#A3A3A3" stroke-miterlimit="10" d="M577.2,430.4c0,0.8-0.3,1.4-0.9,2
				c-0.6,0.6-1.2,0.9-2,0.9c-0.8,0-1.4-0.3-2-0.9c-0.5-0.6-0.8-1.2-0.8-2s0.3-1.4,0.8-2c0.6-0.5,1.2-0.8,2-0.8c0.8,0,1.4,0.3,2,0.8
				C576.9,428.9,577.2,429.6,577.2,430.4z"/>
		</g>
	</g>
	<g transform="matrix( 1, 0, 0, 1, -287.6,-198.6) ">
		<g>
			<g id="Layer1_4_MEMBER_0_FILL">
				<path fill="#FEFEFE" d="M485.9,430.3c0-0.4-0.1-0.7-0.4-1c-0.3-0.3-0.6-0.4-1-0.4c-0.4,0-0.8,0.1-1.1,0.4
					c-0.3,0.3-0.4,0.6-0.4,1c0,0.4,0.1,0.8,0.4,1.1c0.3,0.3,0.6,0.4,1.1,0.4c0.4,0,0.7-0.1,1-0.4
					C485.8,431.1,485.9,430.7,485.9,430.3z"/>
			</g>
		</g>
	</g>
	<g transform="matrix( 1, 0, 0, 1, -287.6,-198.6) ">
		<g>
			<path id="Layer1_4_MEMBER_1_1_STROKES" fill="none" stroke="#A3A3A3" stroke-miterlimit="10" d="M485.9,430.3
				c0,0.4-0.1,0.8-0.4,1.1c-0.3,0.3-0.6,0.4-1,0.4c-0.4,0-0.8-0.1-1.1-0.4c-0.3-0.3-0.4-0.6-0.4-1.1c0-0.4,0.1-0.7,0.4-1
				c0.3-0.3,0.6-0.4,1.1-0.4c0.4,0,0.7,0.1,1,0.4C485.8,429.6,485.9,429.9,485.9,430.3z"/>
		</g>
	</g>
	<g transform="matrix( 1, 0, 0, 1, -287.6,-198.6) ">
		<g>
			<path id="Layer1_5_1_STROKES" fill="none" stroke="#A3A3A3" stroke-miterlimit="10" d="M927.3,525.5c-13.3,0-24.6-4.7-34-14.1
				s-14.1-20.8-14.1-34s4.7-24.7,14.1-34.1c9.4-9.4,20.8-14.1,34-14.1s24.7,4.7,34.1,14.1c9.4,9.4,14.1,20.8,14.1,34.1"/>
		</g>
	</g>
	<g transform="matrix( 1, 0, 0, 1, -287.6,-198.6) ">
		<g>
			<path id="Layer1_6_1_STROKES" fill="none" stroke="#A3A3A3" stroke-miterlimit="10" d="M800.5,474.3h78.1"/>
		</g>
	</g>
	<g transform="matrix( 1, 0, 0, 1, -287.6,-198.6) ">
		<g>
			<g id="Layer1_7_MEMBER_0_FILL">
				<path fill="#FEFEFE" d="M881.4,474.4c0-0.5-0.2-1-0.6-1.4c-0.4-0.4-0.8-0.6-1.4-0.6c-0.5,0-1,0.2-1.4,0.6s-0.6,0.9-0.6,1.4
					c0,0.6,0.2,1,0.6,1.5c0.4,0.4,0.8,0.6,1.4,0.6c0.6,0,1-0.2,1.4-0.6C881.2,475.4,881.4,475,881.4,474.4z"/>
			</g>
		</g>
	</g>
	<g transform="matrix( 1, 0, 0, 1, -287.6,-198.6) ">
		<g>
			<path id="Layer1_7_MEMBER_1_1_STROKES" fill="none" stroke="#A3A3A3" stroke-miterlimit="10" d="M881.4,474.4
				c0,0.6-0.2,1-0.6,1.5c-0.4,0.4-0.8,0.6-1.4,0.6c-0.6,0-1-0.2-1.4-0.6c-0.4-0.4-0.6-0.9-0.6-1.5c0-0.5,0.2-1,0.6-1.4
				s0.9-0.6,1.4-0.6c0.6,0,1,0.2,1.4,0.6C881.2,473.4,881.4,473.9,881.4,474.4z"/>
		</g>
	</g>
	<g transform="matrix( 1, 0, 0, 1, -287.6,-198.6) ">
		<g>
			<path id="Layer1_8_1_STROKES" fill="none" stroke="#A3A3A3" stroke-miterlimit="10" d="M695.6,289.6c-5.4-16.8-4.1-33,4-48.6
				c8-15.7,20.4-26.3,37.2-31.6c16.8-5.4,33-4.1,48.7,3.9c15.7,8,26.2,20.4,31.5,37.2c5.4,16.8,4.1,33-3.9,48.7
				c-8,15.7-20.4,26.2-37.2,31.6"/>
		</g>
	</g>
	<g transform="matrix( 1, 0, 0, 1, -287.6,-198.6) ">
		<g>
			<g id="Layer1_9_MEMBER_0_FILL">
				<path fill="#FEFEFE" d="M695.9,255.9c0-0.5-0.2-1-0.6-1.4s-0.8-0.6-1.3-0.6s-1,0.2-1.3,0.6s-0.6,0.8-0.6,1.4
					c0,0.5,0.2,1,0.6,1.4s0.8,0.5,1.3,0.5s1-0.2,1.3-0.5S695.9,256.4,695.9,255.9z"/>
			</g>
		</g>
	</g>
	<g transform="matrix( 1, 0, 0, 1, -287.6,-198.6) ">
		<g>
			<path id="Layer1_9_MEMBER_1_1_STROKES" fill="none" stroke="#A3A3A3" stroke-miterlimit="10" d="M695.9,255.9
				c0,0.5-0.2,1-0.6,1.4s-0.8,0.5-1.3,0.5s-1-0.2-1.3-0.5s-0.6-0.8-0.6-1.4c0-0.5,0.2-1,0.6-1.4s0.8-0.6,1.3-0.6s1,0.2,1.3,0.6
				S695.9,255.3,695.9,255.9z"/>
		</g>
	</g>
	<g transform="matrix( 1, 0, 0, 1, -287.6,-226.4) ">
		<g>
			<g id="Layer1_10_FILL">
				<path fill="#FEFEFE" d="M679.5,401.8c0-0.8-0.3-1.4-0.8-2c-0.6-0.6-1.2-0.8-2-0.8c-0.8,0-1.4,0.3-2,0.8c-0.6,0.6-0.9,1.2-0.9,2
					s0.3,1.4,0.9,2c0.6,0.5,1.2,0.8,2,0.8c0.8,0,1.4-0.3,2-0.8C679.2,403.2,679.5,402.6,679.5,401.8z"/>
			</g>
		</g>
		<g>
			<path id="Layer1_10_1_STROKES" fill="none" stroke="#A3A3A3" stroke-miterlimit="10" d="M679.5,401.8c0,0.8-0.3,1.4-0.8,2
				c-0.6,0.5-1.2,0.8-2,0.8c-0.8,0-1.4-0.3-2-0.8c-0.6-0.6-0.9-1.2-0.9-2s0.3-1.4,0.9-2c0.6-0.6,1.2-0.8,2-0.8c0.8,0,1.4,0.3,2,0.8
				C679.2,400.4,679.5,401,679.5,401.8z"/>
		</g>
	</g>
	<g transform="matrix( 1, 0, 0, 1, -287.6,-198.6) ">
		<g>
			<g id="Layer1_11_FILL">
				<path fill="#FEFEFE" d="M803.3,474.2c0-0.8-0.3-1.4-0.8-2c-0.6-0.5-1.2-0.8-2-0.8c-0.8,0-1.5,0.3-2,0.8c-0.6,0.6-0.8,1.2-0.8,2
					s0.3,1.4,0.8,2c0.5,0.6,1.2,0.8,2,0.8c0.8,0,1.4-0.3,2-0.8C803.1,475.6,803.3,475,803.3,474.2z"/>
			</g>
		</g>
		<g>
			<path id="Layer1_11_1_STROKES" fill="none" stroke="#A3A3A3" stroke-miterlimit="10" d="M803.3,474.2c0,0.8-0.3,1.4-0.8,2
				c-0.6,0.6-1.2,0.8-2,0.8c-0.8,0-1.5-0.3-2-0.8c-0.6-0.6-0.8-1.2-0.8-2s0.3-1.4,0.8-2c0.5-0.5,1.2-0.8,2-0.8c0.8,0,1.4,0.3,2,0.8
				C803.1,472.8,803.3,473.4,803.3,474.2z"/>
		</g>
	</g>
</g>
</svg>
