<?xml version="1.0" encoding="utf-8"?>
<!-- Generator: Adobe Illustrator 23.0.1, SVG Export Plug-In . SVG Version: 6.00 Build 0)  -->
<svg version="1.1" id="Layer_sdfsd1" xmlns="http://www.w3.org/2000/svg" xmlns:xlink="http://www.w3.org/1999/xlink" x="0px" y="0px"
	 viewBox="0 0 750 400" enable-background="new 0 0 750 400" xml:space="preserve">
<g id="clouds_bits">
	<g transform="matrix( 1, 0, 0, 1, 76.7,304.65) " opacity="0.17">
		<g>
			<g transform="matrix( 1, 0, 0, 1, 0,0) ">
				<g>
					<g id="flash0_ai_0_Layer_1__Path__32_0_Layer0_0_FILL">
						<path fill="#3D3D3D" d="M268.4,42.6c-3.7-3.5-8-5.2-13.1-5.2c-2.7,0-5.3,0.5-7.8,1.6c-2.4,1-4.5,2.5-6.3,4.4
							c-3-7.4-7.8-13.4-14.4-18c-6.8-4.7-14.3-7-22.5-7c-5.4,0-10.6,1-15.5,3.1c-4.8,2-9,4.8-12.6,8.5c-5.3-3.5-11.1-5.2-17.4-5.3
							c-4.1,0-8.1,0.8-12,2.3c-1.3-5.5-4.2-10-8.7-13.5c-4.5-3.6-9.7-5.4-15.5-5.4c-4.6,0-8.9,1.2-12.9,3.6c-3.9,2.4-6.9,5.5-9,9.5
							C95.5,14.6,89,9.4,81.4,5.8C73.6,1.9,65.3,0,56.5,0C41.2,0,28,5.4,17,16.1C6,26.9,0.4,39.9,0,55.3h274.5
							C274.1,50.3,272.1,46,268.4,42.6z"/>
					</g>
				</g>
			</g>
		</g>
	</g>
	<g transform="matrix( 1, 0, 0, 1, 127.55,110.2) " opacity="0.17">
		<g transform="matrix( 1, 0, 0, 1, 0,0) ">
			<g>
				<g id="flash0_ai_0_Layer_1__Path__31_0_Layer0_0_FILL">
					<path fill="#3D3D3D" d="M189.1,38c-0.2-10.6-4.1-19.5-11.7-26.9C169.8,3.7,160.7,0,150.1,0c-6,0-11.8,1.3-17.2,4
						c-5.2,2.6-9.6,6.1-13.3,10.7c-1.5-2.7-3.5-4.9-6.2-6.5c-2.7-1.7-5.7-2.5-8.9-2.5c-4,0-7.6,1.2-10.7,3.7c-3.1,2.4-5.1,5.5-6,9.3
						c-2.7-1.1-5.4-1.6-8.3-1.6c-4.4,0-8.4,1.2-12,3.6c-2.5-2.5-5.4-4.5-8.7-5.9c-3.4-1.4-7-2.1-10.7-2.1c-5.7,0-10.9,1.6-15.5,4.9
						c-4.6,3.2-7.9,7.3-9.9,12.4c-2.7-2.8-5.9-4.1-9.7-4.1c-3.5,0-6.5,1.2-9,3.6C1.7,31.7,0.3,34.6,0,38H189.1z"/>
				</g>
			</g>
		</g>
	</g>
	<g transform="matrix( 1, 0, 0, 1, 533.5,108.25) " opacity="0.17">
		<g transform="matrix( 1, 0, 0, 1, 0,0) ">
			<g>
				<g id="flash0_ai_0_Layer_1__Path__19_0_Layer0_0_FILL">
					<path fill="#3D3D3D" d="M87.9,17.7c-0.1-4.9-1.9-9.1-5.4-12.5C79,1.7,74.8,0,69.8,0c-2.8,0-5.5,0.6-8,1.9
						c-2.4,1.2-4.5,2.9-6.1,5C55,5.5,54,4.5,52.8,3.8c-1.3-0.8-2.6-1.2-4.1-1.2c-1.8,0-3.5,0.6-5,1.8c-1.4,1.1-2.3,2.5-2.8,4.3
						c-1.3-0.5-2.5-0.7-3.8-0.7c-2,0-3.9,0.6-5.6,1.7c-2.5-2.5-5.5-3.7-9-3.7c-2.7,0-5.1,0.8-7.3,2.2c-2.1,1.5-3.7,3.4-4.6,5.8
						C9.4,12.6,7.9,12,6.2,12c-1.6,0-3,0.6-4.2,1.6s-1.8,2.5-2,4.1H87.9z"/>
				</g>
			</g>
		</g>
	</g>
	<g transform="matrix( 1, 0, 0, 1, -915.65,-711.15) ">
		<g>
			<g id="Layer5_3_MEMBER_0_FILL">
				<path fill="#FEFEFE" d="M1510.3,1033.7c0-0.6-0.2-1.1-0.6-1.5c-0.4-0.4-0.8-0.6-1.4-0.6s-1,0.2-1.4,0.6
					c-0.4,0.4-0.6,0.9-0.6,1.5s0.2,1,0.6,1.4c0.4,0.4,0.9,0.6,1.4,0.6c0.6,0,1-0.2,1.4-0.6
					C1510.2,1034.7,1510.3,1034.2,1510.3,1033.7z"/>
			</g>
		</g>
	</g>
	<g transform="matrix( 1, 0, 0, 1, -915.65,-711.15) ">
		<g>
			<path id="Layer5_3_MEMBER_1_1_STROKES" fill="none" stroke="#A3A3A3" stroke-miterlimit="10" d="M1510.3,1033.7
				c0,0.6-0.2,1-0.6,1.4c-0.4,0.4-0.8,0.6-1.4,0.6c-0.5,0-1-0.2-1.4-0.6c-0.4-0.4-0.6-0.8-0.6-1.4s0.2-1.1,0.6-1.5
				c0.4-0.4,0.8-0.6,1.4-0.6s1,0.2,1.4,0.6C1510.2,1032.6,1510.3,1033.1,1510.3,1033.7z"/>
		</g>
	</g>
	<g transform="matrix( 1, 0, 0, 1, -915.65,-711.15) ">
		<g>
			<g id="Layer5_4_FILL">
				<path fill="#BAD727" d="M1214,1098.3c-0.5,0-1,0.2-1.4,0.6c-0.4,0.4-0.5,0.9-0.5,1.4s0.2,1,0.5,1.3c0.4,0.4,0.9,0.5,1.4,0.5
					s1-0.2,1.3-0.5c0.4-0.4,0.6-0.8,0.6-1.3s-0.2-1-0.6-1.4C1215,1098.5,1214.5,1098.3,1214,1098.3z"/>
			</g>
		</g>
	</g>
	<g transform="matrix( 1, 0, 0, 1, -915.65,-711.15) ">
		<g>
			<g id="Layer5_5_FILL">
				<path fill="#BAD727" d="M1516.6,870.3c0-0.5-0.2-1-0.6-1.4c-0.4-0.4-0.8-0.6-1.3-0.6c-0.5,0-1,0.2-1.3,0.6
					c-0.4,0.4-0.6,0.9-0.6,1.4c0,0.5,0.2,1,0.6,1.4c0.4,0.4,0.8,0.5,1.3,0.5c0.5,0,1-0.2,1.3-0.5S1516.6,870.8,1516.6,870.3z"/>
			</g>
		</g>
	</g>
	<g transform="matrix( 1, 0, 0, 1, -915.65,-711.15) ">
		<g>
			<g id="Layer5_6_FILL">
				<path fill="#BAD727" d="M1196.3,999c0-0.5-0.2-1-0.6-1.3c-0.4-0.4-0.8-0.5-1.3-0.5c-0.5,0-1,0.2-1.3,0.5
					c-0.4,0.4-0.6,0.8-0.6,1.3s0.2,1,0.6,1.4c0.4,0.4,0.8,0.6,1.3,0.6c0.5,0,1-0.2,1.3-0.6C1196.1,1000,1196.3,999.6,1196.3,999z"/>
			</g>
		</g>
	</g>
	<g transform="matrix( 1, 0, 0, 1, -868.05,-726.15) ">
		<g>
			<g id="Layer5_7_FILL">
				<path fill="#F7571A" d="M1179.7,836.3c0-0.5-0.2-1-0.6-1.3c-0.4-0.4-0.8-0.5-1.4-0.5c-0.5,0-1,0.2-1.3,0.5
					c-0.4,0.4-0.5,0.8-0.5,1.3s0.2,1,0.5,1.4c0.4,0.4,0.8,0.5,1.3,0.5s1-0.2,1.4-0.5C1179.5,837.3,1179.7,836.8,1179.7,836.3z"/>
			</g>
		</g>
	</g>
	<g transform="matrix( 1, 0, 0, 1, -915.65,-711.15) ">
		<g>
			<g id="Layer5_8_FILL">
				<path fill="#F7571A" d="M1415.7,755.8c0-0.5-0.2-1-0.5-1.3c-0.4-0.4-0.8-0.5-1.3-0.5c-0.5,0-1,0.2-1.4,0.5
					c-0.4,0.4-0.6,0.8-0.6,1.3s0.2,1,0.6,1.4c0.4,0.4,0.9,0.5,1.4,0.5c0.5,0,1-0.2,1.3-0.5C1415.5,756.8,1415.7,756.3,1415.7,755.8z
					"/>
			</g>
		</g>
	</g>
	<g transform="matrix( 1, 0, 0, 1, -915.65,-711.15) ">
		<g>
			<g id="Layer5_9_FILL">
				<path fill="#DEDEDE" d="M981.8,950.5c0-1.1-0.4-2-1.2-2.8c-0.7-0.7-1.6-1.1-2.7-1.1c-1.1,0-2,0.4-2.7,1.1
					c-0.8,0.8-1.2,1.7-1.2,2.8c0,1,0.4,1.9,1.2,2.7c0.7,0.7,1.6,1.1,2.7,1.1c1.1,0,2-0.4,2.7-1.1
					C981.4,952.4,981.8,951.5,981.8,950.5z"/>
			</g>
		</g>
	</g>
	<g transform="matrix( 1, 0, 0, 1, -915.65,-711.15) ">
		<g>
			<g id="Layer5_10_FILL">
				<path fill="#DEDEDE" d="M1168.8,805.2c0-0.5-0.2-1-0.6-1.4c-0.4-0.4-0.8-0.5-1.3-0.5c-0.5,0-1,0.2-1.3,0.5s-0.6,0.8-0.6,1.4
					s0.2,1,0.6,1.4c0.4,0.4,0.8,0.6,1.3,0.6c0.5,0,1-0.2,1.3-0.6C1168.6,806.2,1168.8,805.7,1168.8,805.2z"/>
			</g>
		</g>
	</g>
	<g transform="matrix( 1, 0, 0, 1, -915.65,-711.15) ">
		<g>
			<g id="Layer5_11_FILL">
				<path fill="#D1D1D1" d="M1426.2,1098.7c0-1.1-0.4-2-1.1-2.7c-0.8-0.7-1.7-1.1-2.8-1.1s-2,0.4-2.7,1.1c-0.8,0.8-1.2,1.7-1.2,2.7
					c0,1.1,0.4,2,1.2,2.8c0.7,0.7,1.6,1.1,2.7,1.1s2-0.4,2.8-1.1C1425.8,1100.7,1426.2,1099.8,1426.2,1098.7z"/>
			</g>
		</g>
	</g>
	<g transform="matrix( 1, 0, 0, 1, -915.65,-711.15) ">
		<g>
			<path id="Layer5_12_1_STROKES" fill="none" stroke="#BFBFBF" stroke-width="2" stroke-miterlimit="10" d="M1379.2,843.9
				c0,0.9-0.3,1.6-0.9,2.3s-1.4,0.9-2.3,0.9c-0.9,0-1.7-0.3-2.3-0.9c-0.6-0.6-0.9-1.4-0.9-2.3c0-0.9,0.3-1.7,0.9-2.3
				c0.6-0.6,1.4-0.9,2.3-0.9c0.9,0,1.6,0.3,2.3,0.9S1379.2,843,1379.2,843.9z"/>
		</g>
	</g>
	<g transform="matrix( 1, 0, 0, 1, -892.05,-703.35) ">
		<g>
			<path id="Layer5_13_1_STROKES" fill="none" stroke="#BFBFBF" stroke-width="2" stroke-miterlimit="10" d="M1260.1,1066.4
				c0,0.9-0.3,1.7-0.9,2.3c-0.6,0.6-1.4,0.9-2.3,0.9c-0.9,0-1.7-0.3-2.3-0.9c-0.6-0.6-0.9-1.4-0.9-2.3c0-0.9,0.3-1.6,0.9-2.3
				c0.6-0.6,1.4-0.9,2.3-0.9c0.9,0,1.6,0.3,2.3,0.9C1259.8,1064.8,1260.1,1065.6,1260.1,1066.4z"/>
		</g>
	</g>
	<g transform="matrix( 1, 0, 0, 1, -915.65,-711.15) ">
		<g>
			<path id="Layer5_14_1_STROKES" fill="none" stroke="#BFBFBF" stroke-width="2" stroke-miterlimit="10" d="M1201.1,779.3
				c0,0.9-0.3,1.6-0.9,2.3c-0.6,0.6-1.4,1-2.3,1c-0.9,0-1.6-0.3-2.3-1c-0.6-0.6-0.9-1.4-0.9-2.3c0-0.9,0.3-1.7,0.9-2.3
				c0.6-0.6,1.4-1,2.3-1c0.9,0,1.7,0.3,2.3,1C1200.8,777.7,1201.1,778.5,1201.1,779.3z"/>
		</g>
	</g>
	<g transform="matrix( 1, 0, 0, 1, -915.65,-711.15) ">
		<g>
			<g id="Layer5_15_MEMBER_0_FILL">
				<path fill="#83C4EC" d="M1112.8,821.6c0-0.6-0.3-0.9-0.9-0.9h-7.1c-0.3,0-0.5,0.1-0.7,0.3c-0.2,0.2-0.3,0.4-0.3,0.7
					c0,0.3,0.1,0.5,0.3,0.7c0.2,0.2,0.4,0.3,0.7,0.3h7.1c0.3,0,0.5-0.1,0.7-0.3C1112.7,822.1,1112.8,821.9,1112.8,821.6z"/>
			</g>
		</g>
	</g>
	<g transform="matrix( 1, 0, 0, 1, -915.65,-711.15) ">
		<g>
			<g id="Layer5_15_MEMBER_1_FILL">
				<path fill="#83C4EC" d="M1109.3,818.1c0-0.3-0.1-0.5-0.3-0.7c-0.2-0.2-0.4-0.3-0.6-0.3c-0.3,0-0.5,0.1-0.7,0.3
					c-0.2,0.2-0.3,0.4-0.3,0.7v7c0,0.6,0.3,1,1,1c0.3,0,0.5-0.1,0.6-0.3c0.2-0.2,0.3-0.4,0.3-0.7V818.1z"/>
			</g>
		</g>
	</g>
	<g transform="matrix( 1, 0, 0, 1, -915.65,-711.15) ">
		<g>
			<g id="Layer5_16_MEMBER_0_FILL">
				<path fill="#83C4EC" d="M1016.5,999.9c0.3,0,0.5-0.1,0.7-0.3c0.2-0.2,0.3-0.4,0.3-0.6c0-0.3-0.1-0.5-0.3-0.7
					c-0.2-0.2-0.4-0.3-0.7-0.3h-7c-0.3,0-0.5,0.1-0.7,0.3c-0.2,0.2-0.3,0.4-0.3,0.7c0,0.3,0.1,0.5,0.3,0.6c0.2,0.2,0.4,0.3,0.7,0.3
					H1016.5z"/>
			</g>
		</g>
	</g>
	<g transform="matrix( 1, 0, 0, 1, -915.65,-711.15) ">
		<g>
			<g id="Layer5_16_MEMBER_1_FILL">
				<path fill="#83C4EC" d="M1013,1003.4c0.6,0,1-0.3,1-1v-7c0-0.3-0.1-0.5-0.3-0.7c-0.2-0.2-0.4-0.3-0.7-0.3
					c-0.2,0-0.5,0.1-0.7,0.3c-0.2,0.2-0.3,0.4-0.3,0.7v7c0,0.3,0.1,0.5,0.3,0.7C1012.5,1003.3,1012.7,1003.4,1013,1003.4z"/>
			</g>
		</g>
	</g>
	<g transform="matrix( 1, 0, 0, 1, -915.65,-711.15) ">
		<g>
			<g id="Layer5_17_MEMBER_0_FILL">
				<path fill="#83C4EC" d="M1545.8,1057.2c0.6,0,0.9-0.3,0.9-0.9c0-0.3-0.1-0.5-0.3-0.7c-0.2-0.2-0.4-0.3-0.7-0.3h-7.1
					c-0.2,0-0.5,0.1-0.7,0.3s-0.3,0.4-0.3,0.7c0,0.3,0.1,0.5,0.3,0.7c0.2,0.2,0.4,0.3,0.7,0.3H1545.8z"/>
			</g>
		</g>
	</g>
	<g transform="matrix( 1, 0, 0, 1, -915.65,-711.15) ">
		<g>
			<g id="Layer5_17_MEMBER_1_FILL">
				<path fill="#83C4EC" d="M1542.3,1060.8c0.3,0,0.5-0.1,0.6-0.3c0.2-0.2,0.3-0.4,0.3-0.6v-7.1c0-0.3-0.1-0.5-0.3-0.7
					c-0.2-0.2-0.4-0.3-0.6-0.3c-0.6,0-1,0.3-1,0.9v7.1c0,0.3,0.1,0.5,0.3,0.6C1541.8,1060.7,1542,1060.8,1542.3,1060.8z"/>
			</g>
		</g>
	</g>
	<g transform="matrix( 1, 0, 0, 1, -915.65,-711.15) ">
		<g>
			<g id="Layer5_18_MEMBER_0_FILL">
				<path fill="#83C4EC" d="M1498.6,899.7c0.6,0,1-0.3,1-1c0-0.6-0.3-1-1-1h-7c-0.3,0-0.5,0.1-0.7,0.3c-0.2,0.2-0.3,0.4-0.3,0.7
					c0,0.3,0.1,0.5,0.3,0.7c0.2,0.2,0.4,0.3,0.7,0.3H1498.6z"/>
			</g>
		</g>
	</g>
	<g transform="matrix( 1, 0, 0, 1, -915.65,-711.15) ">
		<g>
			<g id="Layer5_18_MEMBER_1_FILL">
				<path fill="#83C4EC" d="M1494.4,894.5c-0.2,0.2-0.3,0.4-0.3,0.7v7c0,0.3,0.1,0.5,0.3,0.7s0.4,0.3,0.7,0.3c0.3,0,0.5-0.1,0.7-0.3
					c0.2-0.2,0.3-0.4,0.3-0.7v-7c0-0.3-0.1-0.5-0.3-0.7c-0.2-0.2-0.4-0.3-0.7-0.3C1494.8,894.2,1494.6,894.3,1494.4,894.5z"/>
			</g>
		</g>
	</g>
	<g transform="matrix( 1, 0, 0, 1, -915.65,-711.15) ">
		<g>
			<g id="Layer5_19_MEMBER_0_FILL">
				<path fill="#83C4EC" d="M1138.6,1079.2c-0.3,0-0.5,0.1-0.7,0.3c-0.2,0.2-0.3,0.4-0.3,0.7c0,0.3,0.1,0.5,0.3,0.7
					c0.2,0.2,0.4,0.3,0.7,0.3h7c0.3,0,0.5-0.1,0.7-0.3c0.2-0.2,0.3-0.4,0.3-0.7c0-0.3-0.1-0.5-0.3-0.7c-0.2-0.2-0.4-0.3-0.7-0.3
					H1138.6z"/>
			</g>
		</g>
	</g>
	<g transform="matrix( 1, 0, 0, 1, -915.65,-711.15) ">
		<g>
			<g id="Layer5_19_MEMBER_1_FILL">
				<path fill="#83C4EC" d="M1143,1076.6c0-0.3-0.1-0.5-0.3-0.7c-0.2-0.2-0.4-0.3-0.7-0.3c-0.3,0-0.5,0.1-0.7,0.3
					c-0.2,0.2-0.3,0.4-0.3,0.7v7c0,0.3,0.1,0.5,0.3,0.7c0.2,0.2,0.4,0.3,0.7,0.3c0.3,0,0.5-0.1,0.7-0.3c0.2-0.2,0.3-0.4,0.3-0.7
					V1076.6z"/>
			</g>
		</g>
	</g>
	<g transform="matrix( 1, 0, 0, 1, -915.65,-711.15) ">
		<g>
			<g id="Layer5_20_MEMBER_0_FILL">
				<path fill="#83C4EC" d="M1340.4,1098.6c0.3,0,0.5-0.1,0.7-0.3c0.2-0.2,0.3-0.4,0.3-0.7c0-0.3-0.1-0.5-0.3-0.7
					c-0.2-0.2-0.4-0.3-0.7-0.3h-7c-0.3,0-0.5,0.1-0.7,0.3c-0.2,0.2-0.3,0.4-0.3,0.7c0,0.3,0.1,0.5,0.3,0.7c0.2,0.2,0.4,0.3,0.7,0.3
					H1340.4z"/>
			</g>
		</g>
	</g>
	<g transform="matrix( 1, 0, 0, 1, -915.65,-711.15) ">
		<g>
			<g id="Layer5_20_MEMBER_1_FILL">
				<path fill="#83C4EC" d="M1336.9,1102.2c0.3,0,0.5-0.1,0.7-0.3c0.2-0.2,0.3-0.4,0.3-0.7v-7c0-0.6-0.3-1-0.9-1c-0.6,0-1,0.3-1,1v7
					c0,0.3,0.1,0.5,0.3,0.7C1336.4,1102,1336.6,1102.2,1336.9,1102.2z"/>
			</g>
		</g>
	</g>
	<g transform="matrix( 1, 0, 0, 1, -915.65,-711.15) ">
		<g>
			<g id="Layer5_21_FILL">
				<path fill="#BFBFBF" d="M1105.7,1012.4l-3-5.2h-6l-3,5.2l3,5.2h6L1105.7,1012.4 M1101.8,1008.7l2.2,3.8l-2.2,3.8h-4.3l-2.2-3.8
					l2.2-3.8H1101.8z"/>
			</g>
		</g>
	</g>
	<g transform="matrix( 1, 0, 0, 1, -915.65,-711.15) ">
		<g>
			<g id="Layer5_22_FILL">
				<path fill="#BFBFBF" d="M1424,807.3l3.1,5.3h6l3-5.3l-3-5.2h-6L1424,807.3 M1427.8,803.6h4.3l2.2,3.8l-2.2,3.8h-4.3l-2.2-3.8
					L1427.8,803.6z"/>
			</g>
		</g>
	</g>
</g>
<g id="browser">
	<g transform="matrix( 1, 0, 0, 1, -915.65,-711.15) ">
		<g>
			<g id="Layer4_0_FILL">
				<path fill="#595959" d="M1433.9,875.3c-1.4-1.4-3.1-2.1-5.1-2.1h-211.5c-2,0-3.7,0.7-5.1,2.1c-1.4,1.4-2.1,3.1-2.1,5.1v158.8
					c0,2,0.7,3.7,2.1,5.1s3.1,2.1,5.1,2.1h211.5c2,0,3.7-0.7,5.1-2.1s2.1-3.1,2.1-5.1V880.5C1436.1,878.5,1435.3,876.8,1433.9,875.3
					z"/>
			</g>
		</g>
		<g>
			<path id="Layer4_0_1_STROKES" fill="none" stroke="#000000" stroke-miterlimit="10" d="M1428.8,873.3h-211.5
				c-2,0-3.7,0.7-5.1,2.1c-1.4,1.4-2.1,3.1-2.1,5.1v158.8c0,2,0.7,3.7,2.1,5.1s3.1,2.1,5.1,2.1h211.5c2,0,3.7-0.7,5.1-2.1
				s2.1-3.1,2.1-5.1V880.5c0-2-0.7-3.7-2.1-5.1C1432.5,874,1430.8,873.3,1428.8,873.3z"/>
		</g>
	</g>
	<g transform="matrix( 1, 0, 0, 1, -915.65,-711.15) ">
		<g>
			<g id="Layer4_1_MEMBER_0_FILL">
				<path fill="#CACACA" d="M1443,880.7c0-2-0.7-3.7-2.1-5.1c-1.4-1.4-3.1-2.1-5.1-2.1h-211.5c-2,0-3.7,0.7-5.1,2.1
					c-1.4,1.4-2.2,3.1-2.2,5.1v12.9H1443V880.7z"/>
			</g>
		</g>
	</g>
	<g transform="matrix( 1, 0, 0, 1, -915.65,-711.15) ">
		<g>
			<g id="Layer4_1_MEMBER_1_FILL">
				<path fill="#FEFEFE" d="M1436.1,1046.6c1.9,0,3.5-0.7,4.9-2c1.3-1.4,2-3,2-4.9v-146h-225.7v146.4c0,1.8,0.6,3.3,1.8,4.6
					c1.3,1.3,2.8,1.9,4.6,1.9H1436.1z"/>
			</g>
		</g>
	</g>
	<g transform="matrix( 1, 0, 0, 1, -915.65,-711.15) ">
		<g>
			<path id="Layer4_1_MEMBER_2_1_STROKES" fill="none" stroke="#000000" stroke-miterlimit="10" d="M1435.8,1046.6h-211.5
				c-2,0-3.7-0.7-5.1-2.1c-1.4-1.4-2.1-3.1-2.1-5.1V880.5c0-2,0.7-3.7,2.1-5.1c1.4-1.4,3.1-2.1,5.1-2.1h211.5c2,0,3.7,0.7,5.1,2.1
				c1.4,1.4,2.1,3.1,2.1,5.1v158.8c0,2-0.7,3.7-2.1,5.1C1439.5,1045.8,1437.8,1046.6,1435.8,1046.6z"/>
		</g>
	</g>
	<g transform="matrix( 1, 0, 0, 1, -915.65,-711.15) ">
		<g>
			<g id="Layer4_1_MEMBER_3_FILL">
				<path fill="#BAD727" d="M1310.9,972.2l-9.8-3.2l-9.1,15.8l7.3,6.5c-1.1,2.9-1.9,5.6-2.3,8l-8.9,1.9v18.2l8.5,1.8
					c0.5,3,1.3,6,2.3,8.9l-6,5.4l9.1,15.7l7.5-2.4c2,2.3,4.3,4.7,7,6.9l-2.3,7.2l15.7,9.1l5.2-5.7c3.1,1.1,6.3,1.9,9.7,2.4l1.5,7.3
					l18.2,0l1.7-7.9c3.1-0.6,6.1-1.6,9.1-2.8l5.4,5.9l15.8-9.1l-2.8-8.5c2.2-2,4.2-4.2,5.9-6.4l8.5,2.8l9.1-15.8l-7.5-6.7
					c0.7-2.2,1.2-4.7,1.7-7.6l9.8-2.1v-18.1l-10.9-2.4c-0.6-2.4-1.3-4.6-2-6.5l8.1-7.3l-9.1-15.8l-11.3,3.6
					c-1.8-1.8-3.3-3.3-4.5-4.3l3.6-11l-15.8-9.1l-8,8.8c-2-0.6-4-1.1-6-1.5l-2.4-11.3h-18.2l-2.4,11.3c-1.7,0.3-3.8,0.9-6.3,1.7
					l-7.4-8.3l-15.7,9.1l3.3,10.3C1314.5,968.5,1312.7,970.2,1310.9,972.2 M1371.4,1028.8c-4.9,4.9-10.7,7.3-17.6,7.3
					c-6.9,0-12.7-2.4-17.6-7.3c-4.9-4.9-7.3-10.7-7.3-17.6s2.4-12.7,7.3-17.6s10.7-7.3,17.6-7.3c6.9,0,12.7,2.4,17.6,7.3
					c4.9,4.9,7.3,10.7,7.3,17.6S1376.3,1024,1371.4,1028.8z"/>
			</g>
		</g>
	</g>
	<g transform="matrix( 1, 0, 0, 1, -915.65,-711.15) ">
		<g>
			<path id="Layer4_1_MEMBER_4_1_STROKES" fill="none" stroke="#000000" stroke-miterlimit="10" d="M1421.1,1017.8v-18.1l-10.8-2.4
				c-0.5-2.2-1.2-4.3-2.1-6.5l8.2-7.3l-9.1-15.8l-11.2,3.6c-1.6-1.7-3.1-3.1-4.6-4.3l3.6-11l-15.7-9.1l-8,8.8
				c-1.9-0.6-3.9-1.1-6-1.5l-2.4-11.3h-18.1l-2.5,11.3c-1.8,0.3-3.9,0.9-6.3,1.7l-7.5-8.3l-15.8,9.1l3.3,10.3
				c-1.9,1.7-3.7,3.4-5.2,5.1l-9.8-3.2l-9.1,15.8l7.3,6.5c-1,2.7-1.8,5.3-2.3,8l-8.9,1.9v18.2l8.6,1.8c0.5,3,1.3,6,2.3,8.9l-6.1,5.4
				l9.1,15.7l7.5-2.4c2.2,2.5,4.5,4.8,7,6.9l-2.3,7.2l15.8,9.1l5.2-5.7c3.1,1,6.3,1.8,9.7,2.4l1.6,7.3l18.2,0l1.7-7.9
				c3.1-0.6,6.1-1.6,9.2-2.8l5.3,5.9l15.7-9.1l-2.8-8.5c2.3-2.1,4.3-4.3,5.9-6.4l8.5,2.8l9.1-15.8l-7.4-6.7c0.7-2.5,1.3-5.1,1.7-7.6
				L1421.1,1017.8z M1378.8,1011.3c0,6.9-2.4,12.7-7.3,17.6c-4.9,4.9-10.7,7.3-17.6,7.3c-6.9,0-12.7-2.4-17.6-7.3
				c-4.9-4.9-7.3-10.7-7.3-17.6s2.4-12.7,7.3-17.6s10.7-7.3,17.6-7.3c6.9,0,12.7,2.4,17.6,7.3
				C1376.3,998.5,1378.8,1004.4,1378.8,1011.3z"/>
		</g>
	</g>
	<g transform="matrix( 1, 0, 0, 1, -915.65,-711.15) ">
		<g>
			<path id="Layer4_1_MEMBER_5_1_STROKES" fill="none" stroke="#FEFEFE" stroke-miterlimit="10" d="M1353.8,969
				c-11.7,0-21.6,4.1-29.9,12.4c-8.3,8.3-12.4,18.2-12.4,29.9c0,11.7,4.1,21.7,12.4,30c8.3,8.2,18.2,12.3,29.9,12.3
				c11.7,0,21.7-4.1,29.9-12.3c8.3-8.3,12.4-18.3,12.4-30c0-11.7-4.1-21.6-12.4-29.9C1375.5,973.1,1365.5,969,1353.8,969z"/>
		</g>
	</g>
	<g transform="matrix( 1, 0, 0, 1, -915.65,-711.15) ">
		<g>
			<g id="Layer4_1_MEMBER_6_FILL">
				<path fill="#83C4EC" d="M1303,944.7v-12.4l-11.1-2.6l6.3-10.1l-8.8-8.8l-9.7,6l-2.8-11.6h-12.3l-2.6,11.1l-10.2-6.3l-8.8,8.8
					l6,9.7l-11.6,2.7v12.4l11.1,2.6l-6.3,10.1l8.8,8.8l9.7-6l2.8,11.6h12.3l2.6-11.1l10.1,6.3l8.8-8.8l-6-9.7L1303,944.7
					 M1277.2,931.1c1.9,1.9,2.8,4.2,2.8,6.9c0,2.7-1,4.9-2.8,6.8c-1.9,1.9-4.2,2.8-6.8,2.8c-2.7,0-5-0.9-6.9-2.8
					c-1.9-1.9-2.8-4.2-2.8-6.8c0-2.7,0.9-5,2.8-6.9c1.9-1.9,4.2-2.8,6.9-2.8S1275.3,929.2,1277.2,931.1z"/>
			</g>
		</g>
		<g>
			<path id="Layer4_1_MEMBER_6_1_STROKES" fill="none" stroke="#000000" stroke-miterlimit="10" d="M1303,944.7v-12.4l-11.1-2.6
				l6.3-10.1l-8.8-8.8l-9.7,6l-2.8-11.6h-12.3l-2.6,11.1l-10.2-6.3l-8.8,8.8l6,9.7l-11.6,2.7v12.4l11.1,2.6l-6.3,10.1l8.8,8.8l9.7-6
				l2.8,11.6h12.3l2.6-11.1l10.1,6.3l8.8-8.8l-6-9.7L1303,944.7z M1270.3,947.6c-2.7,0-5-0.9-6.9-2.8c-1.9-1.9-2.8-4.2-2.8-6.8
				c0-2.7,0.9-5,2.8-6.9c1.9-1.9,4.2-2.8,6.9-2.8s4.9,1,6.8,2.8c1.9,1.9,2.8,4.2,2.8,6.9c0,2.7-1,4.9-2.8,6.8
				C1275.3,946.7,1273,947.6,1270.3,947.6z"/>
		</g>
	</g>
	<g transform="matrix( 1, 0, 0, 1, -915.65,-711.15) ">
		<g>
			<path id="Layer4_1_MEMBER_7_1_STROKES" fill="none" stroke="#000000" stroke-miterlimit="10" d="M1216.8,893.7h225.9"/>
		</g>
	</g>
	<g transform="matrix( 1, 0, 0, 1, -915.65,-711.15) ">
		<g>
			<path id="Layer4_1_MEMBER_8_1_STROKES" fill="none" stroke="#000000" stroke-miterlimit="10" d="M1232.1,882.9
				c0,0.8-0.3,1.4-0.8,1.9s-1.2,0.8-1.9,0.8c-0.8,0-1.4-0.3-2-0.8c-0.5-0.5-0.8-1.2-0.8-1.9c0-0.8,0.3-1.4,0.8-2
				c0.6-0.5,1.2-0.8,2-0.8c0.8,0,1.4,0.3,1.9,0.8C1231.8,881.5,1232.1,882.1,1232.1,882.9z"/>
		</g>
	</g>
	<g transform="matrix( 1, 0, 0, 1, -915.65,-711.15) ">
		<g>
			<path id="Layer4_1_MEMBER_9_1_STROKES" fill="none" stroke="#000000" stroke-miterlimit="10" d="M1242.6,882.9
				c0,0.8-0.3,1.4-0.8,1.9c-0.6,0.5-1.2,0.8-2,0.8c-0.8,0-1.4-0.3-1.9-0.8s-0.8-1.2-0.8-1.9c0-0.8,0.3-1.4,0.8-2
				c0.5-0.5,1.2-0.8,1.9-0.8c0.8,0,1.4,0.3,2,0.8C1242.3,881.5,1242.6,882.1,1242.6,882.9z"/>
		</g>
	</g>
	<g transform="matrix( 1, 0, 0, 1, -915.65,-711.15) ">
		<g>
			<path id="Layer4_1_MEMBER_10_1_STROKES" fill="none" stroke="#000000" stroke-miterlimit="10" d="M1253.1,882.9
				c0,0.8-0.3,1.4-0.8,1.9c-0.6,0.5-1.2,0.8-2,0.8c-0.8,0-1.4-0.3-1.9-0.8s-0.8-1.2-0.8-1.9c0-0.8,0.3-1.4,0.8-2
				c0.5-0.5,1.2-0.8,1.9-0.8c0.8,0,1.4,0.3,2,0.8C1252.8,881.5,1253.1,882.1,1253.1,882.9z"/>
		</g>
	</g>
	<g transform="matrix( 1, 0, 0, 1, -915.65,-711.15) ">
		<g>
			<path id="Layer4_1_MEMBER_11_1_STROKES" fill="none" stroke="#203A5F" d="M1275.6,997h-5.9c-0.7-1.9-1.7-3.7-3-5.2l2.9-5
				c-2.7-2.6-5.8-4.5-9.6-5.5l-2.9,5.1c-0.9-0.2-1.9-0.3-2.8-0.3c-0.7,0-1.8,0.1-3.1,0.3l-3-5c-3.6,1.1-6.7,2.9-9.4,5.5l2.9,5.1
				c-1.2,1.5-2.2,3.2-2.9,5h-5.8c-0.5,1.9-0.7,3.7-0.7,5.5c0,1.8,0.2,3.7,0.7,5.5h5.8c0.7,1.9,1.6,3.6,2.9,5.1l-3,5
				c2.7,2.7,5.9,4.5,9.5,5.5l2.9-5c1,0.2,2.1,0.3,3.2,0.3c1.1,0,2.1-0.1,2.9-0.3l2.9,5.1c3.6-1,6.8-2.8,9.5-5.4l-2.9-5.1
				c1.3-1.5,2.4-3.3,3.1-5.3h5.8c0.4-1.9,0.7-3.7,0.7-5.5C1276.3,1000.8,1276,998.9,1275.6,997z M1254.3,1007.8
				c-1.5,0-2.7-0.5-3.7-1.5c-1-1-1.6-2.3-1.6-3.7c0-1.4,0.5-2.7,1.6-3.7c1-1,2.2-1.5,3.7-1.5c1.4,0,2.7,0.5,3.7,1.5
				c1,1,1.5,2.3,1.5,3.7c0,1.4-0.5,2.7-1.5,3.7C1256.9,1007.3,1255.7,1007.8,1254.3,1007.8z"/>
		</g>
	</g>
	<g transform="matrix( 1, 0, 0, 1, -915.65,-711.15) ">
		<g>
			<path id="Layer4_1_MEMBER_12_1_STROKES" fill="none" stroke="#3A6FBB" d="M1341.4,917.8h-4c-0.5-1.3-1.2-2.5-2.1-3.5l2-3.5
				c-1.9-1.8-4-3-6.5-3.7l-2,3.5l-2-0.2c-0.8,0-1.5,0.1-2.1,0.2l-2-3.5c-2.5,0.7-4.7,2-6.5,3.8l2,3.4c-0.8,1-1.5,2.1-1.9,3.4h-4
				c-0.3,1.3-0.5,2.5-0.5,3.8c0,1.3,0.2,2.5,0.5,3.7h4c0.4,1.3,1.1,2.4,1.9,3.5l-2,3.5c1.9,1.8,4,3.1,6.4,3.8l2-3.5
				c0.9,0.1,1.7,0.2,2.2,0.2c0.7,0,1.4-0.1,2-0.2l2,3.5c2.5-0.7,4.7-1.9,6.5-3.8l-2-3.5c1-1,1.7-2.2,2.1-3.6h4
				c0.3-1.2,0.4-2.4,0.4-3.7C1341.8,920.3,1341.7,919,1341.4,917.8z M1326.8,925.1c-1,0-1.8-0.3-2.5-1c-0.7-0.7-1-1.5-1-2.5
				s0.3-1.8,1-2.5c0.7-0.7,1.5-1,2.5-1c1,0,1.8,0.4,2.5,1c0.7,0.7,1.1,1.5,1.1,2.5s-0.4,1.8-1.1,2.5
				C1328.7,924.8,1327.8,925.1,1326.8,925.1z"/>
		</g>
	</g>
	<g transform="matrix( 1, 0, 0, 1, -915.65,-711.15) ">
		<g>
			<path id="Layer4_1_MEMBER_13_1_STROKES" fill="none" stroke="#F7571A" stroke-miterlimit="10" d="M1427.8,944.4h-2.8
				c-0.4-0.9-0.9-1.8-1.5-2.5l1.4-2.5c-1.3-1.3-2.8-2.1-4.6-2.6l-1.4,2.5c-0.4-0.1-0.9-0.1-1.4-0.1c-0.5,0-1,0-1.5,0.1l-1.4-2.5
				c-1.7,0.5-3.2,1.4-4.6,2.7l1.4,2.5c-0.6,0.7-1.1,1.5-1.4,2.4h-2.8c-0.2,1.1-0.3,2-0.3,2.7c0,0.8,0.1,1.7,0.3,2.7h2.8
				c0.4,0.9,0.8,1.8,1.4,2.5l-1.4,2.5c1.3,1.3,2.8,2.2,4.6,2.7l1.4-2.4c0.5,0.1,1,0.1,1.5,0.1c0.5,0,1,0,1.4-0.1l1.5,2.4
				c1.7-0.4,3.2-1.3,4.6-2.6l-1.4-2.4c0.7-0.7,1.2-1.6,1.5-2.5h2.8c0.2-0.8,0.3-1.7,0.3-2.7C1428.2,946.1,1428.1,945.2,1427.8,944.4
				z M1417.6,949.6c-0.7,0-1.3-0.2-1.8-0.7c-0.5-0.5-0.7-1.1-0.8-1.8c0-0.7,0.3-1.3,0.8-1.8c0.5-0.5,1-0.8,1.8-0.8
				c0.7,0,1.3,0.2,1.8,0.8c0.5,0.5,0.8,1,0.8,1.8s-0.3,1.3-0.8,1.8C1418.8,949.4,1418.3,949.6,1417.6,949.6z"/>
		</g>
	</g>
</g>
<g id="arrows">
	<g transform="matrix( 1, 0, 0, 1, -915.65,-711.15) ">
		<g>
			<path id="Layer3_0_MEMBER_0_MEMBER_0_1_STROKES" fill="none" stroke="#A3A3A3" stroke-width="2" stroke-miterlimit="10" d="
				M1151.1,845.5l37.3,37.3h9.1"/>
		</g>
	</g>
	<g transform="matrix( 1, 0, 0, 1, -915.65,-711.15) ">
		<g>
			<g id="Layer3_0_MEMBER_0_MEMBER_1_MEMBER_0_FILL">
				<path fill="#A3A3A3" d="M1155.9,841.8h-8.6v8.6L1155.9,841.8z"/>
			</g>
		</g>
	</g>
	<g transform="matrix( 1, 0, 0, 1, -915.65,-711.15) ">
		<g>
			<g id="Layer3_0_MEMBER_0_MEMBER_2_MEMBER_0_FILL">
				<path fill="#A3A3A3" d="M1202.7,882.8l-6.1-6.1v12.2L1202.7,882.8z"/>
			</g>
		</g>
	</g>
	<g transform="matrix( 1, 0, 0, 1, -915.65,-711.15) ">
		<g>
			<path id="Layer3_1_MEMBER_0_MEMBER_0_1_STROKES" fill="none" stroke="#A3A3A3" stroke-width="2" stroke-miterlimit="10" d="
				M1472.4,1025.8v32.8"/>
		</g>
	</g>
	<g transform="matrix( 1, 0, 0, 1, -915.65,-711.15) ">
		<g>
			<g id="Layer3_1_MEMBER_0_MEMBER_1_MEMBER_0_FILL">
				<path fill="#A3A3A3" d="M1478.5,1026.6l-6.1-6.1l-6.1,6.1H1478.5z"/>
			</g>
		</g>
	</g>
	<g transform="matrix( 1, 0, 0, 1, -915.65,-711.15) ">
		<g>
			<g id="Layer3_1_MEMBER_0_MEMBER_2_MEMBER_0_FILL">
				<path fill="#A3A3A3" d="M1472.4,1063.8l6.1-6.1h-12.2L1472.4,1063.8z"/>
			</g>
		</g>
	</g>
	<g transform="matrix( 1, 0, 0, 1, -915.65,-711.15) ">
		<g>
			<path id="Layer3_2_MEMBER_0_MEMBER_0_1_STROKES" fill="none" stroke="#A3A3A3" stroke-width="2" stroke-miterlimit="10" d="
				M1472.6,881.2l-37.6,37.6h-61.8"/>
		</g>
	</g>
	<g transform="matrix( 1, 0, 0, 1, -915.65,-711.15) ">
		<g>
			<g id="Layer3_2_MEMBER_0_MEMBER_1_MEMBER_0_FILL">
				<path fill="#A3A3A3" d="M1476.3,886.1v-8.6h-8.6L1476.3,886.1z"/>
			</g>
		</g>
	</g>
	<g transform="matrix( 1, 0, 0, 1, -915.65,-711.15) ">
		<g>
			<g id="Layer3_2_MEMBER_0_MEMBER_2_MEMBER_0_FILL">
				<path fill="#A3A3A3" d="M1368,918.8l6.1,6.1v-12.2L1368,918.8z"/>
			</g>
		</g>
	</g>
	<g transform="matrix( 1, 0, 0, 1, -915.65,-711.15) ">
		<g>
			<path id="Layer3_3_MEMBER_0_MEMBER_0_1_STROKES" fill="none" stroke="#A3A3A3" stroke-width="2" stroke-miterlimit="10" d="
				M1115.7,898v27.8c0,2.2,0.8,4,2.3,5.6c1.5,1.6,3.4,2.3,5.6,2.3l40.8,0c2.1,0,3.8,0.7,5.3,2.2c1.5,1.5,2.2,3.2,2.2,5.3v52.9"/>
		</g>
	</g>
	<g transform="matrix( 1, 0, 0, 1, -915.65,-711.15) ">
		<g>
			<g id="Layer3_3_MEMBER_0_MEMBER_1_MEMBER_0_FILL">
				<path fill="#A3A3A3" d="M1121.8,898.8l-6.1-6.1l-6.1,6.1H1121.8z"/>
			</g>
		</g>
	</g>
	<g transform="matrix( 1, 0, 0, 1, -915.65,-711.15) ">
		<g>
			<g id="Layer3_3_MEMBER_0_MEMBER_2_MEMBER_0_FILL">
				<path fill="#A3A3A3" d="M1165.8,993.4l6.1,6l6-6H1165.8z"/>
			</g>
		</g>
	</g>
</g>
<g id="icons">
	<g transform="matrix( 1, 0, 0, 1, -906.45,-704.75) ">
		<g>
			<path id="Layer2_0_MEMBER_0_MEMBER_0_1_STROKES" fill="none" stroke="#BAD727" d="M1064.9,942.6l2.4-1.3l-3.3-5.8l-2.3,1.4
				c-1.1-1-2.5-1.8-4.2-2.4v-2.8h-6.6v2.8c-1.7,0.5-3,1.3-4.1,2.4l-2.4-1.4l-3.3,5.8l2.4,1.3c-0.4,1.6-0.4,3.2,0,4.8l-2.4,1.4
				l3.3,5.7l2.4-1.4c1.2,1.1,2.5,1.9,4.1,2.4v2.8h6.6v-2.8c1.5-0.5,2.9-1.3,4.2-2.4l2.3,1.4l3.3-5.7l-2.4-1.4
				C1065.3,945.8,1065.3,944.2,1064.9,942.6z"/>
		</g>
	</g>
	<g transform="matrix( 1, 0, 0, 1, -906.45,-704.75) ">
		<g>
			<path id="Layer2_0_MEMBER_0_MEMBER_1_1_STROKES" fill="none" stroke="#BAD727" d="M1058.6,945c0,1.2-0.4,2.2-1.3,3.1
				c-0.8,0.9-1.9,1.3-3.1,1.3c-1.2,0-2.2-0.4-3.1-1.3c-0.9-0.9-1.3-1.9-1.3-3.1c0-1.2,0.4-2.3,1.3-3.1c0.9-0.9,1.9-1.3,3.1-1.3
				c1.2,0,2.3,0.4,3.1,1.3C1058.2,942.7,1058.6,943.8,1058.6,945z"/>
		</g>
	</g>
	<g transform="matrix( 1, 0, 0, 1, -906.45,-704.75) ">
		<g>
			<path id="Layer2_0_MEMBER_1_MEMBER_0_1_STROKES" fill="none" stroke="#BAD727" d="M1060.8,928.5V912h-8.8"/>
		</g>
	</g>
	<g transform="matrix( 1, 0, 0, 1, -906.45,-704.75) ">
		<g>
			<path id="Layer2_0_MEMBER_1_MEMBER_1_1_STROKES" fill="none" stroke="#BAD727" d="M1025.6,912h-8.8v35.3h19.8"/>
		</g>
	</g>
	<g transform="matrix( 1, 0, 0, 1, -906.45,-704.75) ">
		<g>
			<path id="Layer2_0_MEMBER_1_MEMBER_2_1_STROKES" fill="none" stroke="#BAD727" d="M1032.2,916.3h-6.6v-8.8h6.6V916.3z"/>
		</g>
	</g>
	<g transform="matrix( 1, 0, 0, 1, -906.45,-704.75) ">
		<g>
			<path id="Layer2_0_MEMBER_1_MEMBER_3_1_STROKES" fill="none" stroke="#BAD727" d="M1052,916.3h-6.6v-8.8h6.6V916.3z"/>
		</g>
	</g>
	<g transform="matrix( 1, 0, 0, 1, -906.45,-704.75) ">
		<g>
			<path id="Layer2_0_MEMBER_1_MEMBER_4_1_STROKES" fill="none" stroke="#BAD727" d="M1032.2,912h13.2"/>
		</g>
	</g>
	<g transform="matrix( 1, 0, 0, 1, -906.45,-704.75) ">
		<g>
			<path id="Layer2_0_MEMBER_1_MEMBER_5_1_STROKES" fill="none" stroke="#BAD727" d="M1016.8,923h44.1"/>
		</g>
	</g>
	<g transform="matrix( 1, 0, 0, 1, -915.65,-711.15) ">
		<g>
			<path id="Layer2_1_MEMBER_0_MEMBER_0_1_STROKES" fill="none" stroke="#F7571A" d="M1590.9,974l2.4-1.4l-3.4-5.9l-2.5,1.4
				c-1.2-1.1-2.7-1.9-4.3-2.4v-2.9h-6.8v2.9c-1.6,0.5-3,1.3-4.3,2.4l-2.4-1.4l-3.5,5.9l2.5,1.4c-0.4,1.8-0.4,3.4,0,5l-2.5,1.4l3.5,6
				l2.4-1.5c1.2,1.1,2.7,2,4.3,2.5v2.9h6.8v-2.9c1.6-0.5,3-1.3,4.3-2.5l2.5,1.5l3.4-6l-2.4-1.4
				C1591.3,977.3,1591.3,975.7,1590.9,974z"/>
		</g>
	</g>
	<g transform="matrix( 1, 0, 0, 1, -915.65,-711.15) ">
		<g>
			<path id="Layer2_1_MEMBER_0_MEMBER_1_1_STROKES" fill="none" stroke="#F7571A" d="M1584.3,976.5c0,1.3-0.4,2.3-1.3,3.2
				c-0.9,0.9-1.9,1.3-3.2,1.3s-2.3-0.4-3.3-1.3c-0.9-0.9-1.4-1.9-1.4-3.2c0-1.3,0.5-2.4,1.4-3.3s2-1.3,3.3-1.3
				c1.3,0,2.3,0.5,3.2,1.3C1583.9,974.1,1584.3,975.2,1584.3,976.5z"/>
		</g>
	</g>
	<g transform="matrix( 1, 0, 0, 1, -915.65,-711.15) ">
		<g>
			<path id="Layer2_1_MEMBER_1_MEMBER_0_1_STROKES" fill="none" stroke="#F7571A" d="M1561.5,977.6h-17.2c-0.9,0-1.7-0.3-2.4-1
				c-0.6-0.6-0.9-1.4-0.9-2.4v-25.1c0-1,0.3-1.8,0.9-2.4c0.7-0.7,1.5-1,2.4-1h41.1c1,0,1.8,0.3,2.4,1c0.7,0.7,1.1,1.5,1.1,2.4v10.3"
				/>
		</g>
	</g>
	<g transform="matrix( 1, 0, 0, 1, -915.65,-711.15) ">
		<g>
			<path id="Layer2_1_MEMBER_1_MEMBER_1_1_STROKES" fill="none" stroke="#F7571A" d="M1587.8,946.7l-22.9,18.3l-23-18.3"/>
		</g>
	</g>
	<g transform="matrix( 1, 0, 0, 1, -918.45,-704.75) ">
		<g>
			<path id="Layer2_2_MEMBER_0_MEMBER_0_1_STROKES" fill="none" stroke="#3993C8" stroke-miterlimit="10" d="M1323,789.3l2.8-1.6
				l-4-6.9l-2.8,1.7c-1.4-1.3-3.1-2.2-4.9-2.8v-3.4h-7.9v3.4c-1.9,0.6-3.5,1.5-5,2.8l-2.8-1.7l-4,6.9l2.8,1.6
				c-0.4,1.9-0.4,3.8,0,5.7l-2.8,1.7l4,6.8l2.8-1.6c1.4,1.3,3.1,2.2,5,2.8v3.3h7.9v-3.3c1.9-0.6,3.5-1.5,4.9-2.8l2.8,1.6l4-6.8
				l-2.8-1.7C1323.4,793.1,1323.4,791.2,1323,789.3z"/>
		</g>
	</g>
	<g transform="matrix( 1, 0, 0, 1, -918.45,-704.75) ">
		<g>
			<path id="Layer2_2_MEMBER_0_MEMBER_1_1_STROKES" fill="none" stroke="#3993C8" stroke-miterlimit="10" d="M1315.4,792.2
				c0,1.5-0.5,2.7-1.6,3.8c-1,1-2.3,1.5-3.8,1.5c-1.4,0-2.7-0.5-3.8-1.5c-1-1-1.5-2.3-1.5-3.8s0.5-2.7,1.5-3.8c1-1,2.3-1.5,3.8-1.5
				c1.5,0,2.7,0.5,3.8,1.5C1314.9,789.5,1315.4,790.7,1315.4,792.2z"/>
		</g>
	</g>
	<g transform="matrix( 1, 0, 0, 1, -918.45,-704.75) ">
		<g>
			<path id="Layer2_2_MEMBER_1_MEMBER_0_1_STROKES" fill="none" stroke="#3993C8" stroke-miterlimit="10" d="M1320.7,763.1
				c0,0.7-0.3,1.4-0.8,1.9c-0.5,0.5-1.1,0.8-1.8,0.8h-50.3c-0.7,0-1.3-0.3-1.8-0.8c-0.5-0.5-0.8-1.1-0.8-1.9v-13.3
				c0-0.7,0.3-1.3,0.8-1.8c0.5-0.5,1.1-0.8,1.8-0.8h50.3c0.7,0,1.3,0.3,1.8,0.8c0.5,0.5,0.8,1.1,0.8,1.8V763.1z"/>
		</g>
	</g>
	<g transform="matrix( 1, 0, 0, 1, -918.45,-704.75) ">
		<g>
			<path id="Layer2_2_MEMBER_1_MEMBER_1_1_STROKES" fill="none" stroke="#3993C8" stroke-miterlimit="10" d="M1284.9,760.5h26.5"/>
		</g>
	</g>
	<g transform="matrix( 1, 0, 0, 1, -918.45,-704.75) ">
		<g>
			<path id="Layer2_2_MEMBER_1_MEMBER_2_1_STROKES" fill="none" stroke="#3993C8" stroke-miterlimit="10" d="M1284.9,755.2h26.5"/>
		</g>
	</g>
	<g transform="matrix( 1, 0, 0, 1, -918.45,-704.75) ">
		<g>
			<path id="Layer2_2_MEMBER_1_MEMBER_3_1_STROKES" fill="none" stroke="#3993C8" stroke-miterlimit="10" d="M1277,756.5
				c0,0.7-0.3,1.4-0.8,1.9c-0.5,0.5-1.1,0.7-1.8,0.8c-0.7,0-1.4-0.3-1.9-0.8c-0.5-0.5-0.8-1.1-0.8-1.9c0-0.7,0.3-1.4,0.8-1.9
				c0.5-0.5,1.2-0.8,1.9-0.8c0.7,0,1.3,0.3,1.8,0.8C1276.8,755.1,1277,755.7,1277,756.5z"/>
		</g>
	</g>
	<g transform="matrix( 1, 0, 0, 1, -918.45,-704.75) ">
		<g>
			<path id="Layer2_2_MEMBER_1_MEMBER_4_1_STROKES" fill="none" stroke="#3993C8" stroke-miterlimit="10" d="M1287.6,784.3h-19.8
				c-0.7,0-1.3-0.3-1.8-0.8c-0.5-0.5-0.8-1.1-0.8-1.9v-13.2c0-0.7,0.3-1.4,0.8-1.9c0.5-0.5,1.1-0.8,1.8-0.8h50.3
				c0.7,0,1.3,0.3,1.8,0.8c0.5,0.5,0.8,1.2,0.8,1.9v3.9"/>
		</g>
	</g>
	<g transform="matrix( 1, 0, 0, 1, -918.45,-704.75) ">
		<g>
			<path id="Layer2_2_MEMBER_1_MEMBER_5_1_STROKES" fill="none" stroke="#3993C8" stroke-miterlimit="10" d="M1284.9,779h5.3"/>
		</g>
	</g>
	<g transform="matrix( 1, 0, 0, 1, -918.45,-704.75) ">
		<g>
			<path id="Layer2_2_MEMBER_1_MEMBER_6_1_STROKES" fill="none" stroke="#3993C8" stroke-miterlimit="10" d="M1284.9,773.7h8"/>
		</g>
	</g>
	<g transform="matrix( 1, 0, 0, 1, -918.45,-704.75) ">
		<g>
			<path id="Layer2_2_MEMBER_1_MEMBER_7_1_STROKES" fill="none" stroke="#3993C8" stroke-miterlimit="10" d="M1277,775
				c0,0.7-0.3,1.3-0.8,1.8c-0.5,0.5-1.1,0.8-1.8,0.8c-0.7,0-1.4-0.3-1.9-0.8c-0.5-0.5-0.8-1.1-0.8-1.8s0.3-1.3,0.8-1.8
				c0.5-0.5,1.2-0.8,1.9-0.8c0.7,0,1.3,0.3,1.8,0.8C1276.8,773.7,1277,774.3,1277,775z"/>
		</g>
	</g>
	<g transform="matrix( 1, 0, 0, 1, -918.45,-704.75) ">
		<g>
			<path id="Layer2_2_MEMBER_1_MEMBER_8_1_STROKES" fill="none" stroke="#3993C8" stroke-miterlimit="10" d="M1290.3,802.8h-22.5
				c-0.7,0-1.3-0.3-1.8-0.8c-0.5-0.5-0.8-1.1-0.8-1.8v-13.3c0-0.7,0.3-1.4,0.8-1.9c0.5-0.5,1.1-0.8,1.8-0.8h19.8"/>
		</g>
	</g>
	<g transform="matrix( 1, 0, 0, 1, -918.45,-704.75) ">
		<g>
			<path id="Layer2_2_MEMBER_1_MEMBER_9_1_STROKES" fill="none" stroke="#3993C8" stroke-miterlimit="10" d="M1277,793.5
				c0,0.7-0.3,1.4-0.8,1.9c-0.5,0.5-1.1,0.8-1.8,0.8c-0.7,0-1.4-0.2-1.9-0.8c-0.5-0.5-0.8-1.1-0.8-1.9c0-0.7,0.3-1.3,0.8-1.8
				c0.5-0.5,1.2-0.8,1.9-0.8c0.7,0,1.3,0.3,1.8,0.8C1276.8,792.2,1277,792.8,1277,793.5z"/>
		</g>
	</g>
</g>
<g id="connectors">
	<g transform="matrix( 1, 0, 0, 1, -915.65,-711.15) ">
		<g>
			<path id="Layer1_0_1_STROKES" fill="none" stroke="#A3A3A3" stroke-miterlimit="10" d="M1564.2,1006.5c-12.1,0-22.4-4.3-31-12.8
				c-8.6-8.6-12.8-18.9-12.8-31c0-12.1,4.3-22.5,12.8-31c8.6-8.6,18.9-12.9,31-12.9c12.1,0,22.5,4.3,31,12.9
				c8.6,8.5,12.9,18.9,12.9,31"/>
		</g>
	</g>
	<g transform="matrix( 1, 0, 0, 1, -915.65,-711.15) ">
		<g>
			<path id="Layer1_1_1_STROKES" fill="none" stroke="#A3A3A3" stroke-miterlimit="10" d="M1447.2,963.8h71.7"/>
		</g>
	</g>
	<g transform="matrix( 1, 0, 0, 1, -915.65,-711.15) ">
		<g>
			<g id="Layer1_2_FILL">
				<path fill="#FEFEFE" d="M1447.4,964c0-1.2-0.4-2.3-1.3-3.2c-0.9-0.9-1.9-1.3-3.2-1.3s-2.3,0.4-3.1,1.3c-0.9,0.9-1.3,1.9-1.3,3.2
					c0,1.2,0.4,2.3,1.3,3.1c0.9,0.9,1.9,1.3,3.1,1.3c1.2,0,2.3-0.4,3.2-1.3C1447,966.2,1447.4,965.2,1447.4,964z"/>
			</g>
		</g>
		<g>
			<path id="Layer1_2_1_STROKES" fill="none" stroke="#A3A3A3" stroke-miterlimit="10" d="M1447.4,964c0,1.2-0.4,2.3-1.3,3.1
				c-0.9,0.9-1.9,1.3-3.2,1.3c-1.2,0-2.3-0.4-3.1-1.3c-0.9-0.9-1.3-1.9-1.3-3.1c0-1.2,0.4-2.3,1.3-3.2c0.9-0.9,1.9-1.3,3.1-1.3
				s2.3,0.4,3.2,1.3C1447,961.7,1447.4,962.7,1447.4,964z"/>
		</g>
	</g>
	<g transform="matrix( 1, 0, 0, 1, -915.65,-711.15) ">
		<g>
			<g id="Layer1_3_MEMBER_0_FILL">
				<path fill="#FEFEFE" d="M1521.4,964c0-0.5-0.2-1-0.6-1.3c-0.3-0.4-0.8-0.5-1.3-0.5c-0.5,0-0.9,0.2-1.3,0.5
					c-0.4,0.3-0.6,0.8-0.6,1.3c0,0.5,0.2,0.9,0.6,1.3c0.3,0.3,0.8,0.5,1.3,0.5c0.5,0,1-0.2,1.3-0.5
					C1521.2,965,1521.4,964.5,1521.4,964z"/>
			</g>
		</g>
	</g>
	<g transform="matrix( 1, 0, 0, 1, -915.65,-711.15) ">
		<g>
			<path id="Layer1_3_MEMBER_1_1_STROKES" fill="none" stroke="#A3A3A3" stroke-miterlimit="10" d="M1521.4,964
				c0,0.5-0.2,0.9-0.6,1.3c-0.3,0.3-0.8,0.5-1.3,0.5c-0.5,0-0.9-0.2-1.3-0.5c-0.4-0.4-0.6-0.8-0.6-1.3c0-0.5,0.2-1,0.6-1.3
				c0.3-0.4,0.8-0.5,1.3-0.5c0.5,0,1,0.2,1.3,0.5C1521.2,963.1,1521.4,963.5,1521.4,964z"/>
		</g>
	</g>
	<g transform="matrix( 1, 0, 0, 1, -915.65,-711.15) ">
		<g>
			<path id="Layer1_4_1_STROKES" fill="none" stroke="#A3A3A3" stroke-miterlimit="10" d="M1396.3,893.2v-86.6
				c0-7-2.5-12.9-7.4-17.8s-10.9-7.4-17.8-7.4h-15.8"/>
		</g>
	</g>
	<g transform="matrix( 1, 0, 0, 1, -915.65,-711.15) ">
		<g>
			<path id="Layer1_5_1_STROKES" fill="none" stroke="#A3A3A3" stroke-miterlimit="10" d="M1227.3,783.7c0-17.6,6.2-32.7,18.7-45.2
				c12.5-12.5,27.5-18.7,45.2-18.7c17.7,0,32.7,6.2,45.2,18.7c12.5,12.5,18.7,27.6,18.7,45.2c0,17.7-6.2,32.7-18.7,45.2
				s-27.5,18.7-45.2,18.7"/>
		</g>
	</g>
	<g transform="matrix( 1, 0, 0, 1, -915.65,-711.15) ">
		<g>
			<g id="Layer1_6_MEMBER_0_FILL">
				<path fill="#FEFEFE" d="M1353.3,781.3c0,0.5,0.2,0.9,0.6,1.3c0.3,0.4,0.8,0.5,1.3,0.5c0.5,0,0.9-0.2,1.3-0.5
					c0.3-0.4,0.5-0.8,0.5-1.3c0-0.5-0.2-0.9-0.5-1.3c-0.4-0.4-0.8-0.5-1.3-0.5c-0.5,0-1,0.2-1.3,0.5
					C1353.4,780.4,1353.3,780.8,1353.3,781.3z"/>
			</g>
		</g>
	</g>
	<g transform="matrix( 1, 0, 0, 1, -915.65,-711.15) ">
		<g>
			<path id="Layer1_6_MEMBER_1_1_STROKES" fill="none" stroke="#A3A3A3" stroke-miterlimit="10" d="M1353.3,781.3
				c0-0.5,0.2-0.9,0.6-1.3c0.3-0.4,0.8-0.5,1.3-0.5c0.5,0,0.9,0.2,1.3,0.5c0.3,0.3,0.5,0.7,0.5,1.3c0,0.5-0.2,0.9-0.5,1.3
				c-0.4,0.4-0.8,0.5-1.3,0.5c-0.5,0-1-0.2-1.3-0.5C1353.4,782.3,1353.3,781.8,1353.3,781.3z"/>
		</g>
	</g>
	<g transform="matrix( 1, 0, 0, 1, 0,0) ">
		<g>
			<path id="Layer1_7_1_STROKES" fill="none" stroke="#A3A3A3" stroke-miterlimit="10" d="M135.1,180.5c13,0,24,4.6,33.2,13.8
				c9.2,9.2,13.8,20.2,13.8,33.2c0,13-4.6,24-13.8,33.2c-9.1,9.2-20.2,13.8-33.2,13.8c-12.9,0-24-4.6-33.1-13.8
				c-9.2-9.1-13.8-20.2-13.8-33.2"/>
		</g>
	</g>
	<g transform="matrix( 1, 0, 0, 1, -915.65,-711.15) ">
		<g>
			<path id="Layer1_8_1_STROKES" fill="none" stroke="#A3A3A3" stroke-miterlimit="10" d="M1209.8,961.5h-118.1"/>
		</g>
	</g>
	<g transform="matrix( 1, 0, 0, 1, -915.65,-711.15) ">
		<g>
			<g id="Layer1_9_MEMBER_0_FILL">
				<path fill="#FEFEFE" d="M1092,963.1c0.5,0,0.9-0.2,1.3-0.5c0.3-0.4,0.5-0.8,0.5-1.3s-0.2-0.9-0.6-1.3c-0.3-0.4-0.8-0.5-1.3-0.5
					c-0.5,0-0.9,0.2-1.3,0.5c-0.4,0.4-0.5,0.8-0.5,1.3s0.2,0.9,0.5,1.3C1091,962.9,1091.5,963.1,1092,963.1z"/>
			</g>
		</g>
	</g>
	<g transform="matrix( 1, 0, 0, 1, -915.65,-711.15) ">
		<g>
			<path id="Layer1_9_MEMBER_1_1_STROKES" fill="none" stroke="#A3A3A3" stroke-miterlimit="10" d="M1092,963.1
				c-0.5,0-1-0.2-1.3-0.5c-0.4-0.4-0.5-0.8-0.5-1.3s0.2-0.9,0.5-1.3c0.3-0.4,0.8-0.5,1.3-0.5c0.5,0,1,0.2,1.3,0.5
				c0.4,0.4,0.6,0.8,0.6,1.3s-0.2,0.9-0.5,1.3C1092.9,962.9,1092.5,963.1,1092,963.1z"/>
		</g>
	</g>
	<g transform="matrix( 1, 0, 0, 1, -915.65,-711.15) ">
		<g>
			<g id="Layer1_10_FILL">
				<path fill="#FEFEFE" d="M1399.7,890c-0.9-0.9-1.9-1.3-3.2-1.3s-2.3,0.4-3.2,1.3c-0.9,0.8-1.3,1.9-1.3,3.1c0,1.2,0.4,2.3,1.3,3.1
					c0.9,0.9,1.9,1.3,3.2,1.3c1.2,0,2.3-0.4,3.2-1.3c0.9-0.9,1.3-1.9,1.3-3.1C1400.9,891.9,1400.5,890.9,1399.7,890z"/>
			</g>
		</g>
		<g>
			<path id="Layer1_10_1_STROKES" fill="none" stroke="#A3A3A3" stroke-miterlimit="10" d="M1400.9,893.2c0,1.2-0.4,2.3-1.3,3.1
				c-0.9,0.9-1.9,1.3-3.2,1.3c-1.2,0-2.3-0.4-3.2-1.3c-0.9-0.9-1.3-1.9-1.3-3.1c0-1.2,0.4-2.3,1.3-3.1c0.9-0.9,1.9-1.3,3.2-1.3
				s2.3,0.4,3.2,1.3C1400.5,890.9,1400.9,891.9,1400.9,893.2z"/>
		</g>
	</g>
	<g transform="matrix( 1, 0, 0, 1, -915.65,-711.15) ">
		<g>
			<g id="Layer1_11_FILL">
				<path fill="#FEFEFE" d="M1214.3,961c0-1.2-0.4-2.3-1.3-3.2c-0.9-0.9-1.9-1.3-3.2-1.3c-1.2,0-2.3,0.4-3.2,1.3
					c-0.9,0.9-1.3,1.9-1.3,3.2c0,1.2,0.4,2.3,1.3,3.1c0.9,0.9,1.9,1.3,3.2,1.3c1.2,0,2.3-0.4,3.2-1.3S1214.3,962.2,1214.3,961z"/>
			</g>
		</g>
		<g>
			<path id="Layer1_11_1_STROKES" fill="none" stroke="#A3A3A3" stroke-miterlimit="10" d="M1214.3,961c0,1.2-0.4,2.3-1.3,3.1
				s-1.9,1.3-3.2,1.3c-1.2,0-2.3-0.4-3.2-1.3c-0.9-0.9-1.3-1.9-1.3-3.1c0-1.2,0.4-2.3,1.3-3.2c0.9-0.9,1.9-1.3,3.2-1.3
				c1.2,0,2.3,0.4,3.2,1.3C1213.9,958.7,1214.3,959.7,1214.3,961z"/>
		</g>
	</g>
	<g transform="matrix( 1, 0, 0, 1, -915.65,-711.15) ">
		<g>
			<g id="Layer1_12_FILL">
				<path fill="#FEFEFE" d="M1245.9,841.3c0-0.5-0.2-1-0.6-1.3c-0.4-0.4-0.9-0.5-1.4-0.5c-0.5,0-1,0.2-1.3,0.5
					c-0.4,0.4-0.5,0.8-0.5,1.3s0.2,1,0.5,1.4c0.4,0.4,0.8,0.5,1.3,0.5s1-0.2,1.4-0.5C1245.7,842.3,1245.9,841.8,1245.9,841.3z"/>
			</g>
		</g>
	</g>
</g>
</svg>
