<?xml version="1.0" encoding="utf-8"?>
<!-- Generator: Adobe Illustrator 23.0.1, SVG Export Plug-In . SVG Version: 6.00 Build 0)  -->
<svg version="1.1" id="Layer_dfgsd1" xmlns="http://www.w3.org/2000/svg" xmlns:xlink="http://www.w3.org/1999/xlink" x="0px" y="0px"
	 viewBox="0 0 750 400" enable-background="new 0 0 750 400" xml:space="preserve">
<g id="clouds_bits_copy">
	<g transform="matrix( 1, 0, 0, 1, 561.8,310.6) " opacity="0.17">
		<g>
			<g transform="matrix( 1, 0, 0, 1, 0,0) ">
				<g>
					<g id="flash0_ai_Layer_1__Path__48_0_Layer0_0_FILL">
						<path fill="#3D3D3D" d="M144.1,29c-0.2-2.6-1.2-4.8-3.2-6.6c-2-1.8-4.3-2.8-6.9-2.8c-2.9,0-5.4,1-7.3,3.1
							c-1.5-3.9-4.1-7-7.6-9.4c-3.6-2.5-7.5-3.7-11.8-3.7c-2.8,0-5.5,0.6-8.1,1.7c-2.5,1-4.8,2.5-6.7,4.4c-2.8-1.8-5.8-2.8-9.2-2.8
							c-2.1,0-4.2,0.4-6.3,1.2c-0.7-2.9-2.2-5.2-4.6-7.1c-2.4-1.9-5.1-2.8-8.2-2.8c-2.4,0-4.7,0.6-6.8,1.9c-2,1.2-3.6,2.9-4.7,4.9
							C50.1,7.7,46.7,5,42.8,3c-4.1-2-8.5-3-13.1-3c-8,0-14.9,2.8-20.7,8.5C3.2,14.1,0.2,21,0,29H144.1z"/>
					</g>
				</g>
			</g>
		</g>
	</g>
	<g transform="matrix( 1, 0, 0, 1, 62.35,283.35) " opacity="0.17">
		<g transform="matrix( 1, 0, 0, 1, 0,0) ">
			<g>
				<g id="flash0_ai_Layer_1__Path__47_0_Layer0_0_FILL">
					<path fill="#3D3D3D" d="M84.8,17c-0.1-1.5-0.8-2.8-1.9-3.9c-1.1-1.1-2.5-1.6-4.1-1.6c-1.7,0-3.1,0.6-4.3,1.9
						c-0.9-2.3-2.4-4.2-4.5-5.6c-2.1-1.4-4.4-2.2-7-2.2c-3.4,0-6.3,1.2-8.6,3.6C52.8,8.2,51,7.7,49,7.7c-1.3,0-2.5,0.2-3.7,0.7
						c-0.4-1.7-1.3-3.1-2.7-4.2c-1.4-1.1-3-1.7-4.8-1.7c-1.4,0-2.8,0.4-4,1.2c-1.2,0.7-2.1,1.7-2.8,2.9c-1.6-2-3.6-3.6-6-4.8
						c-2.4-1.2-5-1.8-7.7-1.8C12.7,0,8.7,1.7,5.3,5C1.9,8.3,0.1,12.3,0,17H84.8z"/>
				</g>
			</g>
		</g>
	</g>
	<g transform="matrix( 1, 0, 0, 1, 200,-414.8) ">
		<g>
			<g id="Layer8_2_FILL">
				<path fill="#BAD727" d="M458.9,578c0-0.5-0.2-1-0.6-1.3c-0.4-0.4-0.8-0.6-1.3-0.6c-0.5,0-1,0.2-1.4,0.6
					c-0.4,0.4-0.6,0.8-0.6,1.3s0.2,1,0.6,1.4c0.4,0.4,0.8,0.5,1.4,0.5c0.5,0,1-0.2,1.3-0.5C458.7,579,458.9,578.5,458.9,578z"/>
			</g>
		</g>
	</g>
	<g transform="matrix( 1, 0, 0, 1, -433.6,-192.05) ">
		<g>
			<g id="Layer8_3_FILL">
				<path fill="#BAD727" d="M851.7,428.8c0-0.5-0.2-1-0.6-1.3c-0.4-0.4-0.8-0.6-1.3-0.6s-1,0.2-1.4,0.6c-0.4,0.4-0.5,0.8-0.5,1.3
					c0,0.5,0.2,1,0.5,1.4c0.4,0.4,0.8,0.6,1.4,0.6c0.5,0,1-0.2,1.3-0.6C851.5,429.8,851.7,429.3,851.7,428.8z"/>
			</g>
		</g>
	</g>
	<g transform="matrix( 1, 0, 0, 1, -286.85,-273.9) ">
		<g>
			<g id="Layer8_4_FILL">
				<path fill="#F7571A" d="M598,321.3c0-0.5-0.2-1-0.6-1.3c-0.4-0.4-0.8-0.6-1.4-0.6s-1,0.2-1.3,0.6c-0.4,0.4-0.5,0.8-0.5,1.3
					c0,0.5,0.2,1,0.5,1.4c0.4,0.4,0.8,0.6,1.3,0.6s1-0.2,1.4-0.6C597.8,322.3,598,321.8,598,321.3z"/>
			</g>
		</g>
	</g>
	<g transform="matrix( 1, 0, 0, 1, -420.45,-326.7) ">
		<g>
			<g id="Layer8_5_FILL">
				<path fill="#F7571A" d="M520.9,449.9c0-0.5-0.2-1-0.6-1.4c-0.4-0.4-0.8-0.5-1.3-0.5s-1,0.2-1.4,0.5c-0.4,0.4-0.5,0.8-0.5,1.4
					c0,0.5,0.2,1,0.5,1.4c0.4,0.4,0.8,0.6,1.4,0.6s1-0.2,1.3-0.6C520.7,450.9,520.9,450.4,520.9,449.9z"/>
			</g>
		</g>
	</g>
	<g transform="matrix( 1, 0, 0, 1, 6.75,-250.05) ">
		<g>
			<g id="Layer8_6_FILL">
				<path fill="#DEDEDE" d="M454,529.6c0-1.1-0.4-2-1.1-2.8c-0.8-0.7-1.7-1.1-2.8-1.1c-1.1,0-2,0.4-2.7,1.1
					c-0.7,0.8-1.1,1.7-1.1,2.8c0,1.1,0.4,2,1.1,2.7c0.8,0.7,1.7,1.1,2.7,1.1c1.1,0,2-0.4,2.8-1.1C453.6,531.6,454,530.7,454,529.6z"
					/>
			</g>
		</g>
	</g>
	<g transform="matrix( 1, 0, 0, 1, -287.6,-198.6) ">
		<g>
			<g id="Layer8_7_FILL">
				<path fill="#DEDEDE" d="M848.8,493.6c-0.4-0.4-0.8-0.5-1.4-0.5c-0.5,0-1,0.2-1.4,0.5c-0.4,0.4-0.5,0.9-0.5,1.4
					c0,0.5,0.2,1,0.5,1.4c0.4,0.4,0.8,0.6,1.4,0.6c0.5,0,1-0.2,1.4-0.6c0.4-0.4,0.6-0.8,0.6-1.4
					C849.4,494.5,849.2,494.1,848.8,493.6z"/>
			</g>
		</g>
	</g>
	<g transform="matrix( 1, 0, 0, 1, -405.15,-409.25) ">
		<g>
			<g id="Layer8_8_FILL">
				<path fill="#D1D1D1" d="M844.5,583.7c0-1.1-0.4-2-1.1-2.7c-0.8-0.7-1.7-1.1-2.8-1.1c-1.1,0-2,0.4-2.7,1.1
					c-0.8,0.8-1.2,1.7-1.2,2.7c0,1.1,0.4,2,1.2,2.8c0.7,0.7,1.6,1.1,2.7,1.1c1.1,0,2-0.4,2.8-1.1
					C844.1,585.7,844.5,584.8,844.5,583.7z"/>
			</g>
		</g>
	</g>
	<g transform="matrix( 1, 0, 0, 1, -219.8,-215) ">
		<g>
			<path id="Layer8_9_1_STROKES" fill="none" stroke="#BFBFBF" stroke-width="2" stroke-miterlimit="10" d="M855,350.9
				c0,0.9-0.3,1.7-1,2.3c-0.6,0.6-1.4,1-2.3,1c-0.9,0-1.7-0.3-2.3-1c-0.6-0.6-1-1.4-1-2.3c0-0.9,0.3-1.6,1-2.3c0.6-0.6,1.4-1,2.3-1
				c0.9,0,1.6,0.3,2.3,1C854.7,349.2,855,350,855,350.9z"/>
		</g>
	</g>
	<g transform="matrix( 1, 0, 0, 1, -578.4,-322.6) ">
		<g>
			<path id="Layer8_10_1_STROKES" fill="none" stroke="#BFBFBF" stroke-width="2" stroke-miterlimit="10" d="M678.5,551.5
				c0,0.9-0.3,1.7-1,2.3s-1.4,1-2.3,1c-0.9,0-1.7-0.3-2.3-1c-0.6-0.6-1-1.4-1-2.3s0.3-1.7,1-2.3c0.6-0.6,1.4-1,2.3-1
				c0.9,0,1.6,0.3,2.3,1C678.1,549.8,678.5,550.5,678.5,551.5z"/>
		</g>
	</g>
	<g transform="matrix( 1, 0, 0, 1, -412.8,-222.05) ">
		<g>
			<path id="Layer8_11_1_STROKES" fill="none" stroke="#BFBFBF" stroke-width="2" stroke-miterlimit="10" d="M619.5,264.3
				c0,0.9-0.3,1.7-1,2.3c-0.6,0.6-1.4,0.9-2.3,0.9c-0.9,0-1.6-0.3-2.3-0.9c-0.6-0.6-1-1.4-1-2.3c0-0.9,0.3-1.6,1-2.3
				c0.6-0.6,1.4-0.9,2.3-0.9c0.9,0,1.7,0.3,2.3,0.9S619.5,263.4,619.5,264.3z"/>
		</g>
	</g>
	<g transform="matrix( 1, 0, 0, 1, -355.6,56.95) ">
		<g>
			<g id="Layer8_12_MEMBER_0_FILL">
				<path fill="#83C4EC" d="M506.5,271.5h7c0.3,0,0.5-0.1,0.7-0.3c0.2-0.2,0.3-0.4,0.3-0.7c0-0.3-0.1-0.5-0.3-0.7
					c-0.2-0.2-0.4-0.3-0.7-0.3h-7c-0.6,0-0.9,0.3-0.9,0.9c0,0.3,0.1,0.5,0.3,0.7C506.1,271.4,506.3,271.5,506.5,271.5z"/>
			</g>
		</g>
	</g>
	<g transform="matrix( 1, 0, 0, 1, -355.6,56.95) ">
		<g>
			<g id="Layer8_12_MEMBER_1_FILL">
				<path fill="#83C4EC" d="M509.4,266.4c-0.2,0.2-0.3,0.4-0.3,0.6v7c0,0.3,0.1,0.5,0.3,0.7c0.2,0.2,0.4,0.3,0.6,0.3
					c0.6,0,1-0.3,1-1v-7c0-0.3-0.1-0.5-0.3-0.6c-0.2-0.2-0.4-0.3-0.7-0.3C509.8,266,509.6,266.1,509.4,266.4z"/>
			</g>
		</g>
	</g>
	<g transform="matrix( 1, 0, 0, 1, -267.1,-122.9) ">
		<g>
			<g id="Layer8_13_MEMBER_0_FILL">
				<path fill="#83C4EC" d="M909.2,384.4c0.2,0.2,0.4,0.3,0.6,0.3h7.1c0.3,0,0.5-0.1,0.7-0.3c0.2-0.2,0.2-0.4,0.3-0.6
					c0-0.6-0.3-1-0.9-1h-7.1c-0.3,0-0.5,0.1-0.6,0.3c-0.2,0.2-0.3,0.4-0.3,0.7C908.9,384,909,384.2,909.2,384.4z"/>
			</g>
		</g>
	</g>
	<g transform="matrix( 1, 0, 0, 1, -267.1,-122.9) ">
		<g>
			<g id="Layer8_13_MEMBER_1_FILL">
				<path fill="#83C4EC" d="M914.3,380.1c0-0.2-0.1-0.5-0.3-0.6c-0.2-0.2-0.4-0.3-0.6-0.3c-0.3,0-0.5,0.1-0.7,0.3
					c-0.2,0.2-0.3,0.4-0.3,0.6v7.1c0,0.3,0.1,0.5,0.3,0.7c0.2,0.2,0.4,0.3,0.7,0.3c0.3,0,0.5-0.1,0.6-0.3c0.2-0.2,0.3-0.4,0.3-0.7
					V380.1z"/>
			</g>
		</g>
	</g>
	<g transform="matrix( 1, 0, 0, 1, 212,-476.15) ">
		<g>
			<g id="Layer8_14_MEMBER_0_FILL">
				<path fill="#83C4EC" d="M399.5,556.6c-0.3,0-0.5,0.1-0.7,0.3c-0.2,0.2-0.3,0.4-0.3,0.7c0,0.3,0.1,0.5,0.3,0.7
					c0.2,0.2,0.4,0.3,0.7,0.3h7c0.3,0,0.5-0.1,0.7-0.3c0.2-0.2,0.3-0.4,0.3-0.7c0-0.6-0.3-1-1-1H399.5z"/>
			</g>
		</g>
	</g>
	<g transform="matrix( 1, 0, 0, 1, 212,-476.15) ">
		<g>
			<g id="Layer8_14_MEMBER_1_FILL">
				<path fill="#83C4EC" d="M404,554c0-0.2-0.1-0.5-0.3-0.7c-0.2-0.2-0.4-0.3-0.6-0.3s-0.5,0.1-0.7,0.3c-0.2,0.2-0.3,0.4-0.3,0.7v7
					c0,0.3,0.1,0.5,0.3,0.7c0.2,0.2,0.4,0.3,0.7,0.3s0.5-0.1,0.6-0.3c0.2-0.2,0.3-0.4,0.3-0.7V554z"/>
			</g>
		</g>
	</g>
	<g transform="matrix( 1, 0, 0, 1, -89.45,-313.6) ">
		<g>
			<g id="Layer8_15_MEMBER_0_FILL">
				<path fill="#83C4EC" d="M584.3,587c0.2,0.2,0.4,0.3,0.7,0.3h7c0.3,0,0.5-0.1,0.7-0.3c0.2-0.2,0.3-0.4,0.3-0.7s-0.1-0.5-0.3-0.6
					c-0.2-0.2-0.4-0.3-0.7-0.3h-7c-0.3,0-0.5,0.1-0.7,0.3c-0.2,0.2-0.3,0.4-0.3,0.6S584.1,586.9,584.3,587z"/>
			</g>
		</g>
	</g>
	<g transform="matrix( 1, 0, 0, 1, -89.45,-313.6) ">
		<g>
			<g id="Layer8_15_MEMBER_1_FILL">
				<path fill="#83C4EC" d="M588.5,590.8c0.3,0,0.5-0.1,0.7-0.3c0.2-0.2,0.3-0.4,0.3-0.6v-7.1c0-0.6-0.3-0.9-1-0.9
					c-0.6,0-1,0.3-1,0.9v7.1c0,0.3,0.1,0.5,0.3,0.6C588,590.8,588.3,590.8,588.5,590.8z"/>
			</g>
		</g>
	</g>
	<g transform="matrix( 1, 0, 0, 1, -425.8,-360.3) ">
		<g>
			<g id="Layer8_16_MEMBER_0_FILL">
				<path fill="#83C4EC" d="M745,571.2c0.3,0,0.5-0.1,0.6-0.3c0.2-0.2,0.3-0.4,0.3-0.7c0-0.2-0.1-0.5-0.3-0.7
					c-0.2-0.2-0.4-0.3-0.6-0.3h-7c-0.3,0-0.5,0.1-0.7,0.3c-0.2,0.2-0.3,0.4-0.3,0.7c0,0.3,0.1,0.5,0.3,0.7c0.2,0.2,0.4,0.3,0.7,0.3
					H745z"/>
			</g>
		</g>
	</g>
	<g transform="matrix( 1, 0, 0, 1, -425.8,-360.3) ">
		<g>
			<g id="Layer8_16_MEMBER_1_FILL">
				<path fill="#83C4EC" d="M740.8,566c-0.2,0.2-0.3,0.4-0.3,0.7v7c0,0.3,0.1,0.5,0.3,0.7c0.2,0.2,0.4,0.3,0.7,0.3
					c0.3,0,0.5-0.1,0.7-0.3c0.2-0.2,0.3-0.4,0.3-0.7v-7c0-0.3-0.1-0.5-0.3-0.7c-0.2-0.2-0.4-0.3-0.7-0.3
					C741.1,565.8,740.9,565.8,740.8,566z"/>
			</g>
		</g>
	</g>
	<g transform="matrix( 1, 0, 0, 1, -251.05,-351.25) ">
		<g>
			<g id="Layer8_17_FILL">
				<path fill="#BFBFBF" d="M521,492.2h-6l-3,5.2l3,5.2h6l3-5.2L521,492.2 M515.8,493.6h4.4l2.2,3.8l-2.2,3.8h-4.4l-2.2-3.8
					L515.8,493.6z"/>
			</g>
		</g>
	</g>
	<g transform="matrix( 1, 0, 0, 1, -414.3,-258.5) ">
		<g>
			<g id="Layer8_18_FILL">
				<path fill="#BFBFBF" d="M845.3,287.1l-3,5.2l3,5.2h6l3-5.2l-3-5.2H845.3 M846.2,296.1l-2.2-3.8l2.2-3.8h4.3l2.2,3.8l-2.2,3.8
					H846.2z"/>
			</g>
		</g>
	</g>
	<g transform="matrix( 0.8199462890625, 0, 0, 0.8199462890625, 48.95,59.6) " opacity="0.17">
		<g transform="matrix( 1, 0, 0, 1, 0,0) ">
			<g>
				<g id="flash0_ai_Layer_1__Path__0_Layer0_0_FILL">
					<path fill="#3D3D3D" d="M187.8,41.2c-0.2-11.4-4.1-21.1-11.7-29.1C168.6,4,159.6,0,149.1,0c-6,0-11.7,1.4-17.1,4.3
						c-5.2,2.8-9.6,6.6-13.2,11.5c-1.4-2.9-3.5-5.3-6.1-7.1c-2.7-1.8-5.7-2.7-8.8-2.7c-4,0-7.5,1.3-10.6,4c-3,2.6-5,6-6,10.1
						c-2.7-1.2-5.4-1.8-8.2-1.8c-4.3,0-8.3,1.3-12,3.9c-2.5-2.7-5.4-4.8-8.6-6.4c-3.4-1.5-6.9-2.3-10.6-2.3
						c-5.7,0-10.8,1.7-15.5,5.3c-4.5,3.4-7.8,7.9-9.9,13.5c-1.2-1.4-2.6-2.5-4.3-3.3c-1.7-0.8-3.5-1.2-5.3-1.2c-3.5,0-6.5,1.3-9,3.9
						c-2.5,2.6-3.9,5.7-4.2,9.5H187.8z"/>
				</g>
			</g>
		</g>
	</g>
	<g transform="matrix( -1, 0, 0, 1, 662.6,98.95) " opacity="0.17">
		<g transform="matrix( 1, 0, 0, 1, 0,0) ">
			<g>
				<g>
					<path fill="#3D3D3D" d="M84.8,17c-0.1-1.5-0.8-2.8-1.9-3.9c-1.1-1.1-2.5-1.6-4.1-1.6c-1.7,0-3.1,0.6-4.3,1.9
						c-0.9-2.3-2.4-4.2-4.5-5.6c-2.1-1.4-4.4-2.2-7-2.2c-3.4,0-6.3,1.2-8.6,3.6C52.8,8.2,51,7.7,49,7.7c-1.3,0-2.5,0.2-3.7,0.7
						c-0.4-1.7-1.3-3.1-2.7-4.2c-1.4-1.1-3-1.7-4.8-1.7c-1.4,0-2.8,0.4-4,1.2c-1.2,0.7-2.1,1.7-2.8,2.9c-1.6-2-3.6-3.6-6-4.8
						c-2.4-1.2-5-1.8-7.7-1.8C12.7,0,8.7,1.7,5.3,5C1.9,8.3,0.1,12.3,0,17H84.8z"/>
				</g>
			</g>
		</g>
	</g>
</g>
<g id="circles">
	<g transform="matrix( 0.52783203125, 0, 0, 0.52783203125, 276.65,108.4) ">
		<g>
			<g id="Layer7_0_FILL">
				<path fill="#BAD727" d="M483.4,389.1c-3.8-11.8-11.2-20.5-22.2-26.1c-11-5.6-22.4-6.6-34.2-2.8c-11.8,3.8-20.5,11.2-26.1,22.2
					c-5.6,11-6.5,22.4-2.8,34.2s11.2,20.5,22.2,26.1c11,5.6,22.4,6.6,34.2,2.8s20.5-11.2,26.1-22.2
					C486.3,412.3,487.2,400.9,483.4,389.1z"/>
			</g>
		</g>
	</g>
	<g transform="matrix( 0.4514923095703125, 0, 0, 0.4514923095703125, 120.7,-161.9) ">
		<g>
			<g id="Layer7_1_FILL">
				<path fill="#F7571A" d="M966,477.4c0-10.7-3.8-19.8-11.3-27.4c-7.6-7.6-16.7-11.4-27.4-11.4s-19.8,3.8-27.3,11.4
					c-7.5,7.5-11.3,16.6-11.3,27.4c0,10.7,3.8,19.8,11.3,27.4c7.6,7.5,16.7,11.3,27.3,11.3s19.8-3.8,27.4-11.3
					C962.2,497.1,966,488,966,477.4z"/>
			</g>
		</g>
	</g>
	<g transform="matrix( 0.4153289794921875, 0, 0, 0.4153289794921875, 191,-11.95) ">
		<g>
			<g id="Layer7_2_FILL">
				<path fill="#2C538A" d="M809.6,252.9c-4.7-14.7-14-25.6-27.8-32.6c-13.8-7.1-28-8.2-42.7-3.5c-14.7,4.8-25.6,14-32.7,27.8
					c-7,13.8-8.2,28-3.5,42.7c4.7,14.7,14,25.6,27.8,32.6c13.8,7.1,28,8.2,42.7,3.5c14.7-4.7,25.6-14,32.6-27.7
					C813.1,281.9,814.3,267.6,809.6,252.9z"/>
			</g>
		</g>
	</g>
	<g transform="matrix( 0.5916595458984375, 0, 0, 0.5916595458984375, -346.05,17.7) ">
		<g>
			<g id="Layer7_3_FILL">
				<path fill="#F7571A" d="M966,477.3c0-10.7-3.8-19.8-11.3-27.3c-7.6-7.6-16.7-11.4-27.4-11.4c-10.7,0-19.8,3.8-27.3,11.4
					c-7.5,7.5-11.3,16.6-11.3,27.3c0,10.7,3.8,19.8,11.3,27.3c7.6,7.5,16.7,11.3,27.3,11.3c10.7,0,19.8-3.8,27.4-11.3
					C962.2,497.1,966,488,966,477.3z"/>
			</g>
		</g>
	</g>
	<g transform="matrix( 0.52783203125, 0, 0, 0.52783203125, 16.65,-145.75) ">
		<g>
			<g id="Layer7_4_FILL">
				<path fill="#BAD727" d="M483.4,389.1c-3.8-11.8-11.2-20.5-22.2-26.1c-11-5.6-22.4-6.6-34.2-2.8c-11.8,3.8-20.5,11.2-26.1,22.2
					c-5.6,11-6.5,22.4-2.8,34.2s11.2,20.5,22.2,26.1c11,5.6,22.4,6.6,34.2,2.8s20.5-11.2,26.1-22.2
					C486.3,412.3,487.2,400.9,483.4,389.1z"/>
			</g>
		</g>
	</g>
	<g transform="matrix( 0.2603607177734375, 0, 0, 0.2603607177734375, -41.65,192.75) ">
		<g>
			<g id="Layer7_5_FILL">
				<path fill="#2C538A" d="M809.6,252.9c-4.7-14.7-14-25.6-27.8-32.6c-13.8-7.1-28-8.2-42.7-3.5c-14.7,4.8-25.6,14-32.7,27.7
					c-7,13.8-8.2,28-3.4,42.7c4.7,14.7,14,25.6,27.7,32.6c13.8,7.1,28,8.2,42.7,3.5c14.7-4.7,25.6-14,32.6-27.7
					C813.1,281.9,814.3,267.6,809.6,252.9z"/>
			</g>
		</g>
	</g>
</g>
<g id="connectors">
	<g transform="matrix( 1, 0, 0, 1, 0,0) ">
		<g>
			<g id="Layer6_0_FILL">
				<path fill="#FEFEFE" d="M499.6,196.8c-0.3,0.3-0.5,0.7-0.6,1.1c0,0.1,0,0.1,0,0.2c0,0.5,0.2,0.9,0.6,1.3
					c0.2,0.2,0.4,0.3,0.5,0.3c0.2,0.1,0.5,0.2,0.7,0.2c0.5,0,1-0.2,1.3-0.5c0.4-0.4,0.6-0.8,0.6-1.3c0-0.5-0.2-1-0.6-1.3
					c-0.3-0.4-0.8-0.6-1.3-0.6c-0.1,0-0.2,0-0.4,0C500.2,196.3,499.9,196.5,499.6,196.8 M505.4,126.6c-0.5,0-0.9,0.2-1.3,0.5
					c-0.4,0.4-0.5,0.8-0.5,1.3v0c0,0.5,0.2,0.9,0.5,1.3c0.3,0.4,0.7,0.5,1.3,0.6h0.1c0.5,0,0.9-0.2,1.3-0.6c0.3-0.4,0.5-0.8,0.5-1.3
					c0,0,0-0.1,0-0.1c0-0.5-0.2-0.9-0.5-1.2C506.4,126.7,505.9,126.6,505.4,126.6 M517.8,52.5c-0.3-0.4-0.8-0.5-1.3-0.5h0
					c-0.5,0-0.9,0.2-1.2,0.5c-0.4,0.4-0.5,0.8-0.5,1.3s0.2,0.9,0.5,1.3c0.3,0.4,0.7,0.5,1.2,0.6c0,0,0.1,0,0.1,0
					c0.5,0,0.9-0.2,1.3-0.6c0.3-0.4,0.5-0.8,0.5-1.3S518.2,52.9,517.8,52.5 M482.3,319.9c-0.3-0.4-0.7-0.5-1.3-0.5h0
					c-0.5,0-0.9,0.2-1.3,0.5c-0.4,0.4-0.5,0.8-0.5,1.3c0,0.5,0.2,0.9,0.5,1.3c0.3,0.4,0.8,0.5,1.3,0.5l0,0c0.5,0,0.9-0.2,1.3-0.5
					c0.3-0.4,0.5-0.8,0.5-1.3S482.7,320.3,482.3,319.9 M232,298.9c-0.3-0.4-0.8-0.5-1.3-0.5c-0.1,0-0.1,0-0.1,0
					c-0.4,0-0.8,0.2-1.1,0.5c-0.4,0.4-0.6,0.8-0.6,1.3c0,0.5,0.2,0.9,0.6,1.3c0.3,0.3,0.7,0.5,1.1,0.5c0.1,0,0.1,0,0.2,0
					c0.5,0,0.9-0.2,1.3-0.5c0.3-0.4,0.5-0.8,0.5-1.3S232.4,299.3,232,298.9 M174.2,261.5L174.2,261.5c-0.5,0-0.9,0.2-1.3,0.6
					c-0.4,0.4-0.6,0.8-0.6,1.3c0,0.5,0.2,0.9,0.6,1.3c0.3,0.3,0.7,0.5,1.2,0.5c0,0,0.1,0,0.1,0c0.5,0,0.9-0.2,1.3-0.5
					c0.3-0.4,0.5-0.8,0.5-1.3s-0.2-0.9-0.6-1.3C175.2,261.7,174.7,261.5,174.2,261.5 M247.7,93.9c-0.4,0.4-0.5,0.8-0.6,1.3v0
					c0,0.5,0.2,0.9,0.6,1.3c0.3,0.4,0.8,0.6,1.3,0.6c0.1,0,0.1,0,0.2,0c0.4,0,0.8-0.2,1.1-0.6c0.3-0.4,0.5-0.8,0.5-1.3v0
					c0-0.5-0.2-0.9-0.6-1.3c-0.3-0.4-0.8-0.6-1.3-0.6C248.4,93.3,248,93.5,247.7,93.9 M247.1,173.8c-0.2,0-0.3,0.1-0.5,0.1
					c0.2-0.1,0.4-0.1,0.6-0.1C247.2,173.8,247.2,173.8,247.1,173.8 M249.1,175.7c0,0.2,0,0.4-0.1,0.6c0.1-0.1,0.1-0.2,0.1-0.4
					C249.1,175.8,249.1,175.8,249.1,175.7 M249.1,175.7L249.1,175.7c0-0.6-0.2-1-0.5-1.3c-0.3-0.4-0.8-0.6-1.3-0.6h-0.1
					c-0.2,0-0.5,0.1-0.6,0.1l-0.6,0.4c-0.4,0.4-0.6,0.8-0.6,1.3c0,0.5,0.2,0.9,0.6,1.3c0.2,0.3,0.5,0.4,0.8,0.5
					c0.2,0,0.3,0.1,0.5,0.1c0.5,0,0.9-0.2,1.3-0.6c0.1-0.1,0.1-0.2,0.2-0.3c0.1-0.1,0.2-0.3,0.3-0.4
					C249.1,176.1,249.1,175.9,249.1,175.7 M359.5,176.4c0-0.1,0-0.2,0-0.3v-0.1c0-0.5-0.2-1-0.5-1.3c-0.4-0.4-0.8-0.6-1.3-0.6
					c-0.5,0-1,0.2-1.3,0.6c-0.1,0-0.1,0.1-0.1,0.1h0c-0.1,0.2-0.2,0.4-0.3,0.6c0,0.2,0,0.4,0,0.6c0,0.5,0.2,0.9,0.5,1.3
					c0.3,0.4,0.7,0.5,1.3,0.6h0.1c0.5,0,0.9-0.2,1.3-0.6c0,0,0-0.1,0-0.1c0.1-0.1,0.1-0.1,0.2-0.2
					C359.3,176.8,359.4,176.7,359.5,176.4z"/>
			</g>
		</g>
		<g>
			<path id="Layer6_0_1_STROKES" fill="none" stroke="#A3A3A3" stroke-miterlimit="10" d="M516.5,52c0.3-5.7,2.6-10.7,6.8-14.9
				c4.5-4.6,10-6.8,16.5-6.8c6.4,0,11.9,2.3,16.5,6.8c4.6,4.5,6.8,10,6.8,16.5 M516.5,52L516.5,52c0.6,0,1,0.2,1.3,0.5
				c0.4,0.4,0.5,0.8,0.5,1.3s-0.2,0.9-0.5,1.3c-0.4,0.4-0.8,0.6-1.3,0.6c0,0,0,0-0.1,0c0.4,5.6,2.7,10.4,6.7,14.4
				c4.5,4.6,10,6.8,16.5,6.8 M514.7,53.8c0-0.5,0.2-0.9,0.5-1.3c0.3-0.4,0.7-0.5,1.2-0.5 M516.5,55.7c-0.5,0-0.9-0.2-1.2-0.6
				c-0.4-0.4-0.5-0.8-0.5-1.3h-46.4c-3.4,0.1-6.3,1.3-8.7,3.7c-2.4,2.4-3.6,5.3-3.7,8.7v131.7h19.9v-38.1c0.1-3.4,1.3-6.3,3.7-8.7
				c2.4-2.4,5.3-3.6,8.7-3.7h4.9c3.4-0.1,6.2-1.3,8.6-3.8c2.4-2.4,3.7-5.3,3.8-8.6v-4.8c-0.5,0-0.9-0.2-1.3-0.6
				c-0.4-0.4-0.5-0.8-0.5-1.3v0c-7.1-0.3-13.2-3.1-18.4-8.2c-5.5-5.5-8.3-12.1-8.3-19.8c0-7.7,2.8-14.4,8.3-19.9
				c5.5-5.5,12.1-8.2,19.9-8.2 M503.6,128.4c0-0.5,0.2-0.9,0.5-1.3c0.3-0.4,0.8-0.5,1.3-0.5c0.5,0,1,0.2,1.3,0.5
				c0.3,0.3,0.5,0.8,0.5,1.2c6.8-0.5,12.7-3.2,17.7-8.2c5.5-5.5,8.3-12.1,8.3-19.8 M507.3,128.3
				C507.3,128.4,507.3,128.4,507.3,128.3c0,0.6-0.2,1-0.5,1.4c-0.4,0.4-0.8,0.6-1.3,0.6h-0.1 M499,197.9c0-0.4,0.2-0.8,0.6-1.1
				c0.3-0.3,0.6-0.5,0.9-0.5c1.8-13.9,7.9-26.1,18.3-36.4c12.6-12.6,27.8-18.9,45.5-18.9c17.8,0,33,6.3,45.6,18.9
				c12.6,12.5,18.8,27.7,18.8,45.6 M500.5,196.2c0.1,0,0.2,0,0.3,0c0.5,0,1,0.2,1.3,0.6c0.4,0.3,0.6,0.8,0.6,1.3
				c0,0.5-0.2,0.9-0.6,1.3c-0.3,0.3-0.8,0.5-1.3,0.5c-0.2,0-0.5,0-0.7-0.1c-0.1,1.8-0.2,3.7-0.2,5.6c0,17.8,6.3,32.9,18.8,45.5
				c12.6,12.6,27.8,18.9,45.5,18.9 M337.6,271.5v-83.3c-0.1-3.4-1.3-6.3-3.8-8.7c-2.4-2.4-5.3-3.6-8.6-3.7h-35.3v49.3
				c0.1,3.4,1.3,6.2,3.7,8.6c2.4,2.4,5.3,3.7,8.7,3.8h2.9c3.4,0.1,6.2,1.3,8.6,3.7c2.4,2.4,3.7,5.3,3.8,8.7v21.6 M355.9,175.5
				c0.1-0.2,0.2-0.4,0.3-0.6l0,0c0-0.1,0.1-0.1,0.1-0.1c0.3-0.4,0.8-0.6,1.3-0.6c0.5,0,0.9,0.2,1.3,0.6c0.3,0.3,0.5,0.8,0.5,1.3v0.1
				c0,0.1,0,0.2,0,0.3c5.2,1.2,10.7,1.9,16.5,1.9c19,0,35.2-6.7,48.6-20.1c13.4-13.4,20.1-29.6,20.1-48.5s-6.7-35.2-20.1-48.6
				C411.1,47.7,394.9,41,376,41 M357.6,177.9c-0.5,0-0.9-0.2-1.3-0.6c-0.4-0.3-0.5-0.8-0.5-1.3c0-0.2,0-0.4,0.1-0.5
				c-10.6-3.1-20.1-8.9-28.5-17.3c-13.4-13.4-20.1-29.6-20.1-48.5 M359.5,176.4c0,0.2-0.1,0.4-0.2,0.6c0,0.1-0.1,0.1-0.1,0.2
				c0,0,0,0.1-0.1,0.1c-0.4,0.4-0.8,0.6-1.3,0.6h-0.1v93.6 M377.7,271.5v-61.3c0.1-3.4,1.3-6.3,3.7-8.7c2.4-2.4,5.3-3.6,8.7-3.7
				h65.8v7.5c-0.1,3.4-1.3,6.2-3.8,8.6c-2.4,2.4-5.3,3.7-8.6,3.8h-33.4c-3.4,0.1-6.3,1.3-8.7,3.7c-2.4,2.4-3.6,5.3-3.7,8.7v41.4
				 M481,319.4c0.5,0,0.9,0.2,1.3,0.5c0.4,0.4,0.6,0.8,0.6,1.3s-0.2,0.9-0.5,1.3c-0.4,0.4-0.8,0.5-1.3,0.5
				c0.4,6.9,3.2,12.8,8.2,17.8c5.5,5.5,12.1,8.3,19.9,8.3c7.8,0,14.4-2.8,19.9-8.3c5.5-5.5,8.3-12.1,8.3-19.9 M479.2,321.2
				c0-0.5,0.2-0.9,0.5-1.3c0.3-0.4,0.8-0.5,1.3-0.5h0c0.4-7,3.1-13.1,8.2-18.2c5.5-5.5,12.1-8.2,19.9-8.2 M481.1,323L481.1,323
				c-0.6,0-1-0.2-1.3-0.5c-0.4-0.4-0.5-0.8-0.5-1.3h-50 M499,197.9h-23.3v92.4c-0.1,3.4-1.3,6.2-3.8,8.6c-2.4,2.4-5.3,3.7-8.6,3.8
				h-38.6 M500.2,199.7c-0.2-0.1-0.4-0.2-0.6-0.4c-0.4-0.4-0.6-0.8-0.6-1.3c0-0.1,0-0.1,0-0.2 M247.1,95.2c0-0.5,0.2-0.9,0.6-1.3
				c0.3-0.4,0.8-0.6,1.3-0.6c0.5,0,1,0.2,1.3,0.6c0.4,0.4,0.5,0.8,0.6,1.3c7-0.4,13.1-3.1,18.2-8.2c5.5-5.5,8.3-12.1,8.3-19.8
				 M249.2,97.1c-0.1,0-0.1,0-0.2,0c-0.5,0-1-0.2-1.3-0.6c-0.4-0.4-0.6-0.8-0.6-1.3v0c-6.9-0.4-12.9-3.2-17.9-8.2
				c-5.5-5.5-8.3-12.1-8.3-19.8c0-7.7,2.8-14.3,8.3-19.8c5.5-5.5,12.1-8.2,19.9-8.2 M250.8,95.2L250.8,95.2c0,0.5-0.2,1-0.5,1.3
				c-0.3,0.3-0.7,0.5-1.1,0.6v9c0.1,3.4,1.3,6.2,3.7,8.6c2.4,2.4,5.3,3.7,8.7,3.8h16c3.3,0.1,6.2,1.3,8.6,3.7
				c2.4,2.4,3.7,5.3,3.8,8.7v45.1h-40.8 M249.1,176.3c-0.1,0.2-0.1,0.3-0.2,0.5c-0.1,0.1-0.1,0.2-0.2,0.2c-0.4,0.4-0.8,0.6-1.3,0.6
				c-0.2,0-0.3,0-0.5-0.1c-1.3,14.9-7.4,27.9-18.3,38.8c-12.4,12.4-27.3,18.7-44.9,18.7c-17.5,0-32.5-6.2-44.9-18.7
				c-12.4-12.4-18.6-27.3-18.6-44.9 M183.6,107.7c17.6,0,32.5,6.2,44.9,18.7c12.4,12.4,18.6,27.4,18.6,45c0,0.8,0,1.7,0,2.5
				 M247.3,173.8L247.3,173.8c0.6,0,1,0.2,1.4,0.6c0.4,0.4,0.5,0.8,0.5,1.3v0.1c0,0.2,0,0.4-0.1,0.6 M246.9,177.4
				c-0.3-0.1-0.6-0.2-0.8-0.5c-0.4-0.4-0.6-0.8-0.6-1.3c0-0.5,0.2-0.9,0.6-1.3l0.6-0.4c0.2-0.1,0.4-0.1,0.6-0.1 M174.1,265.3
				c-0.4,4.4-2.2,8.2-5.4,11.4c-3.7,3.7-8.2,5.6-13.4,5.6c-5.2,0-9.7-1.9-13.4-5.6c-3.7-3.7-5.6-8.2-5.6-13.4 M282.4,282.2h-18.2
				c-3.4-0.1-6.3-1.3-8.7-3.8c-2.4-2.4-3.6-5.3-3.7-8.6v-9.5c-0.1-3.4-1.3-6.3-3.8-8.7c-2.4-2.4-5.3-3.6-8.6-3.7h-44.9
				c-3.3,0.1-6.1,1.2-8.4,3.5l-10.6,10.6c0.4,0.4,0.6,0.8,0.6,1.3s-0.2,0.9-0.5,1.3c-0.4,0.4-0.8,0.5-1.3,0.5c0,0-0.1,0-0.1,0
				c-0.5,0-0.9-0.2-1.2-0.5c-0.4-0.4-0.6-0.8-0.6-1.3c0-0.5,0.2-0.9,0.6-1.3c0.3-0.4,0.7-0.5,1.2-0.6c-0.3-4.5-2.2-8.5-5.5-11.8
				c-3.7-3.7-8.2-5.6-13.4-5.6 M174.2,261.5L174.2,261.5c0.6,0,1,0.2,1.3,0.6 M174.4,300.2c0-7.8,2.7-14.4,8.3-19.9
				c5.5-5.5,12.1-8.3,19.9-8.3s14.4,2.8,19.9,8.3c5.1,5,7.8,11,8.2,18c0,0,0.1,0,0.1,0c0.5,0,1,0.2,1.3,0.5c0.4,0.4,0.6,0.8,0.6,1.3
				h47.2 M230.6,302c-0.4,0-0.8-0.2-1.1-0.5c-0.4-0.4-0.6-0.8-0.6-1.3c0-0.5,0.2-0.9,0.6-1.3c0.3-0.3,0.7-0.5,1.1-0.5 M232.6,300.2
				c0,0.5-0.2,0.9-0.5,1.3c-0.4,0.4-0.8,0.5-1.3,0.5c-0.1,0-0.1,0-0.2,0c-0.4,6.9-3.1,12.9-8.2,18c-5.5,5.5-12.1,8.2-19.9,8.2"/>
		</g>
	</g>
</g>
<g id="box">
	<g transform="matrix( 1, 0, 0, 1, 230.55,223.95) ">
		<g transform="matrix( 1, 0, 0, 1, 0,0) ">
			<g>
				<g id="box_0_Layer0_0_FILL">
					<path fill="#595959" d="M72.5,46.7L72.5,46.7L25.9,0H0l46.7,46.7H72.5 M72.5,46.8L72.5,46.8l-25.8-0.1v96h25.8V46.8z"/>
					<path fill="#CACACA" d="M180.2,46.6L180.2,46.6l25.9,0.1L252.7,0h-25.8L180.2,46.6 M180.2,46.8L180.2,46.8L72.6,46.7l-0.1,0.1
						v95.9h133.6v-96L180.2,46.8L180.2,46.8z"/>
				</g>
			</g>
			<g>
				<path id="box_0_Layer0_0_1_STROKES" fill="none" stroke="#000000" stroke-miterlimit="10" d="M180.2,46.8L180.2,46.8L180.2,46.8
					v-0.2L226.9,0h25.8l-46.6,46.7v96H72.5H46.7v-96L0,0h25.9l46.7,46.6l0.1,0.1L180.2,46.8 M180.2,46.6L180.2,46.6l25.9,0.1
					 M72.6,46.7L72.6,46.7l-0.1,96 M72.5,46.8L72.5,46.8L72.5,46.8 M72.5,46.6L72.5,46.6l-25.8,0.1"/>
			</g>
		</g>
	</g>
</g>
<g id="salesforce">
	<g transform="matrix( 1.1847991943359375, 0, 0, 1.1847991943359375, 140.6,142.2) ">
		<g transform="matrix( 0.17108154296875, 0, 0, 0.17108154296875, 0,0) ">
			<g>
				<g id="salesforce_0_Layer0_0_MEMBER_0_FILL">
					<path fill="#4A98D6" d="M387.2,49.9c-11.9-5.1-24.4-7.6-37.4-7.6c-13.6,0-26.6,2.8-38.9,8.3c-7-12.4-16.5-22.3-28.5-29.5
						C270,13.5,256.6,9.7,242.1,9.7c-10.9,0-21.3,2.2-31.2,6.5c-9.6,4.2-18,10.1-25.3,17.7c-8.1-10.6-18-18.8-29.8-24.8
						c-12.2-6.2-25.2-9.2-39-9.2c-11.8,0-23,2.3-33.7,6.8c-10.4,4.4-19.5,10.5-27.5,18.5c-8,8-14.2,17.1-18.5,27.4
						c-4.5,10.7-6.8,22-6.8,33.7c0,12,2.4,23.4,7.1,34.4c-11.3,6.6-20.3,15.6-26.9,27C3.4,159.6,0,172.3,0,186
						c0,10.2,1.9,20,5.8,29.3c3.8,9,9.1,17,15.9,23.9c6.9,6.9,14.7,12.3,23.6,16.1c9.2,3.9,18.8,5.9,28.9,5.9
						c5.2,0,10.3-0.5,15.3-1.6c5.7,15.5,15.4,28.1,28.9,37.7c13.8,9.8,29.3,14.7,46.3,14.7c16.3,0,31.2-4.5,44.7-13.6
						c13.2-8.9,22.8-20.6,29-35.2c9.7,4.7,19.9,7.1,30.7,7.1c13,0,25-3.3,36-9.9c10.7-6.4,19.2-15.1,25.3-26
						c6.3,1.2,12.6,1.8,18.9,1.8c13,0,25.5-2.5,37.4-7.6c11.5-4.9,21.7-11.9,30.5-20.8c8.9-8.9,15.7-19.2,20.6-30.8
						c5-12,7.5-24.6,7.5-37.7c0-13.2-2.5-25.7-7.5-37.7c-4.9-11.6-11.7-21.9-20.6-30.8C408.9,61.7,398.7,54.8,387.2,49.9z"/>
				</g>
			</g>
		</g>
	</g>
</g>
<g id="servicenow">
	<g transform="matrix( 1.44085693359375, 0, 0, 1.44085693359375, 330.15,63.3) ">
		<g transform="matrix( 1, 0, 0, 1, 0,0) ">
			<g>
				<g id="now_0_Layer0_0_FILL">
					<path fill="#81B5A1" d="M55.4,9.4c-1.8-1.8-3.7-3.2-5.6-4.4c-3.6-2.2-7.4-3.7-11.3-4.4c-0.4-0.1-0.9-0.1-1.6-0.2
						c-0.9-0.1-1.5-0.2-1.7-0.2c0,0-0.1,0-0.1,0L35,0h-5.2c-0.3,0.1-0.5,0.1-0.6,0.1c-0.3,0.1-0.5,0.1-0.6,0.1
						c-2.1,0.2-4.4,0.7-6.9,1.6c-3.6,1.3-6.7,3-9.4,5.3c-1.5,1.3-2.7,2.3-3.5,3.2C7,12.2,5.4,14.4,4,16.9c-1.4,2.5-2.4,5.1-3.1,7.9
						c-0.2,0.7-0.3,1.5-0.4,2.5c-0.1,0.6-0.2,1.4-0.4,2.6c0,0,0,0.1-0.1,0.2v5.3c0.1,0.8,0.2,1.3,0.2,1.4c0.1,0.6,0.3,1.5,0.5,2.7
						c0.2,1.1,0.4,2,0.6,2.7c0.5,2.1,1.3,4.1,2.4,5.9c0.8,1.2,1.9,2.9,3.3,5c0.5,0.7,1.2,1.5,2,2.3c0.7,0.7,1.4,1.3,2,1.7
						c0.8,0.5,1.6,0.8,2.4,0.9c0,0,0,0.1,0.1,0.1h2.2c0.3-0.1,0.7-0.3,1.3-0.5c0.5-0.2,1-0.4,1.3-0.6c0.4-0.2,1.1-0.7,2-1.3
						c0.9-0.6,1.6-1,2.1-1.3c2-1.1,4.1-1.7,6.2-2c1.7-0.2,3.2-0.3,4.4-0.3c1.7,0,3.6,0.3,5.6,0.9c2.5,0.7,4.8,1.8,6.8,3.3
						c0.6,0.4,1.1,0.7,1.4,0.9c0.6,0.3,1.1,0.5,1.6,0.7c0.1,0,0.3,0.1,0.6,0.2h2c0.3-0.1,0.7-0.2,1.2-0.4c0.4-0.2,0.8-0.3,1-0.5
						c0.9-0.5,1.7-1.2,2.5-1.9c0.8-0.9,1.7-2,2.7-3.3c1.3-1.8,2.5-3.8,3.5-6c0.9-2.1,1.6-4.2,2.1-6.2c0.1-0.6,0.3-1.9,0.6-3.9
						c0.1-0.3,0.2-0.9,0.3-2v-3L65,30.9c0-0.1-0.1-0.1-0.1-0.2c0-1.6-0.3-3.5-0.8-5.8c-0.7-3-1.8-5.7-3.3-8.3
						c-0.4-0.7-0.9-1.5-1.5-2.3c-0.3-0.5-0.9-1.2-1.6-2.2C57.1,11.1,56.3,10.3,55.4,9.4 M41.2,18.2c1.5,1,2.6,1.9,3.3,2.6
						c2,2.1,3.3,4.6,4,7.4c0.4,1.7,0.5,3.5,0.4,5.4c-0.2,3.4-1.3,6.4-3.3,9c-2.5,3.2-5.6,5.2-9.2,5.9c-1.5,0.3-3.1,0.4-4.8,0.4
						c-3.2-0.1-6.1-1.2-8.8-3.2c-1.8-1.4-3.2-3-4.3-4.9c-1-1.8-1.7-3.8-2-6c0-0.3-0.1-0.7-0.1-1.2c0-0.5,0-0.8,0-1
						c0-1.9,0.2-3.7,0.7-5.3c0.5-1.6,1.2-3.1,2.1-4.5c2.5-3.5,5.8-5.7,9.9-6.7c1.3-0.3,2.5-0.4,3.6-0.4C36,15.7,38.8,16.6,41.2,18.2
						z"/>
				</g>
			</g>
		</g>
	</g>
</g>
<g id="strikeiron">
	<g transform="matrix( 0.8029937744140625, 0, 0, 0.8029937744140625, 520.95,161.3) ">
		<g transform="matrix( 1, 0, 0, 1, 0,0) ">
			<g>
				<g id="strikeiron_0_Layer0_0_FILL">
					<path fill="#E32800" d="M42.4,98.8c-0.4-1-1.1-1.4-2.1-1.1L35,99.6c-1.4,0.7-1.9,1.6-1.6,2.4c0.3,0.9,1.3,1.2,2.8,0.8l5.3-1.9
						C42.5,100.6,42.8,99.8,42.4,98.8 M67,97.7c-1-0.3-1.7,0.1-2.1,1.1c-0.3,1,0,1.7,0.9,2.2l5.3,1.9c1.5,0.3,2.5,0.1,2.8-0.8
						c0.3-0.9-0.2-1.7-1.6-2.4L67,97.7 M20.7,94.5c0,1,0.8,1.5,2.3,1.7h16.4c1-0.1,1.6-0.7,1.6-1.7c0-1.1-0.6-1.7-1.6-1.8H23
						C21.5,93,20.7,93.6,20.7,94.5 M11,76.7c-2.6-0.8-4.1-0.7-4.4,0.2c-0.4,0.9,0.6,1.9,3.1,3.1l27.5,10.9c1.8,0.6,2.9,0.4,3.3-0.6
						c0.3-1-0.3-1.9-2-2.7L11,76.7 M6,52.4c-3.3-2.5-5.3-3.4-5.9-2.6c-0.6,0.7,0.6,2.5,3.6,5.3l34.5,28.7c2.3,1.8,3.8,2.3,4.5,1.5
						c0.7-0.8-0.1-2.2-2.3-4.2L6,52.4 M37.4,0c-1,0.1-1.1,3.2-0.3,9.3l11,65.8c0.8,4.3,1.7,6.3,2.8,6.2c1-0.2,1.3-2.5,0.6-6.8
						L40.6,8.7C39.4,2.7,38.3-0.2,37.4,0 M9.8,18.5c-0.8,0.4,0,3.1,2.6,7.9l29.9,51.9c2.1,3.3,3.6,4.8,4.5,4.3
						c0.9-0.6,0.4-2.6-1.4-6L15.4,24.7C12.5,20.1,10.6,18,9.8,18.5 M70.2,9.3C71,3.2,70.9,0.1,69.9,0c-0.9-0.2-2,2.7-3.2,8.7
						l-11,65.8c-0.6,4.3-0.4,6.5,0.7,6.8c1.1,0.1,2-1.9,2.8-6.2L70.2,9.3 M84.4,96.3c1.5-0.2,2.3-0.8,2.3-1.7c0-1-0.8-1.6-2.3-1.8
						H67.9c-1,0.1-1.6,0.7-1.6,1.8c0,1.1,0.6,1.6,1.6,1.7H84.4 M97.6,79.9c2.5-1.2,3.5-2.2,3.1-3.1c-0.3-0.9-1.8-0.9-4.4-0.2
						L68.8,87.5c-1.7,0.8-2.4,1.7-2,2.7c0.4,1,1.5,1.2,3.3,0.6L97.6,79.9 M103.6,55.1c3-2.8,4.3-4.6,3.7-5.3
						c-0.6-0.8-2.6,0.1-5.9,2.6L66.8,81.1c-2.2,2-2.9,3.4-2.3,4.2c0.7,0.8,2.2,0.3,4.5-1.5L103.6,55.1 M95,26.5
						c2.6-4.9,3.4-7.5,2.6-7.9c-0.8-0.5-2.7,1.5-5.6,6.2L62,76.6c-1.9,3.4-2.4,5.4-1.5,6c0.9,0.5,2.4-0.9,4.5-4.3L95,26.5z"/>
				</g>
			</g>
		</g>
	</g>
</g>
<g id="apps_graphics">
	<g transform="matrix( 1, 0, 0, 1, 0,0) ">
		<g>
			<path id="Layer1_0_1_STROKES" fill="none" stroke="#FFFFFF" stroke-miterlimit="10" d="M493.9,100.3l5.6-9.6h11.1l5.6,9.6
				l-5.6,9.7h-11.1L493.9,100.3z M497.4,320.8h12v-12 M521.3,320.8h-12v12 M261,67.3h-12v12 M248.9,55.3v12h-12 M147.5,263.1
				l3.8-6.6h7.6l3.8,6.6l-3.8,6.6h-7.6L147.5,263.1z"/>
		</g>
	</g>
	<g transform="matrix( 3.3882293701171875, 0, 0, 3.3882293701171875, -2085.1,-1568.45) ">
		<g transform="matrix( 0.295135498046875, 0, 0, 0.295135498046875, 615.35,462.9) ">
			<path id="Layer1_1_1_STROKES" fill="none" stroke="#FFFFFF" stroke-miterlimit="10" d="M678.4,551.4c0,0.9-0.3,1.7-1,2.3
				c-0.6,0.6-1.4,1-2.2,1c-0.9,0-1.7-0.3-2.3-1c-0.6-0.6-1-1.4-1-2.3c0-0.9,0.3-1.7,1-2.3s1.4-1,2.3-1c0.9,0,1.6,0.3,2.2,1
				C678.1,549.8,678.4,550.5,678.4,551.4z"/>
		</g>
	</g>
	<g transform="matrix( 2.8009033203125, 0, 0, 2.8009033203125, -1351.8,-1490.8) ">
		<g transform="matrix( 0.357025146484375, 0, 0, 0.357025146484375, 482.6,532.25) ">
			<path id="Layer1_2_1_STROKES" fill="none" stroke="#FFFFFF" stroke-miterlimit="10" d="M678.4,551.4c0,0.9-0.3,1.7-1,2.3
				c-0.6,0.6-1.4,1-2.3,1c-0.9,0-1.7-0.3-2.3-1c-0.6-0.6-0.9-1.4-0.9-2.3c0-0.9,0.3-1.7,0.9-2.3c0.6-0.6,1.4-0.9,2.3-0.9
				c0.9,0,1.6,0.3,2.3,0.9C678.1,549.8,678.4,550.5,678.4,551.4z"/>
		</g>
	</g>
</g>
</svg>
