<?xml version="1.0" encoding="utf-8"?>
<!-- Generator: Adobe Illustrator 23.0.1, SVG Export Plug-In . SVG Version: 6.00 Build 0)  -->
<svg version="1.1" id="Layer_asd1" xmlns="http://www.w3.org/2000/svg" xmlns:xlink="http://www.w3.org/1999/xlink" x="0px" y="0px"
	 viewBox="0 0 750 400" enable-background="new 0 0 750 400" xml:space="preserve">
<g id="clouds_bits_copy_5">
	<g transform="matrix( 1, 0, 0, 1, 423,55) ">
		<g>
			
				<image overflow="visible" enable-background="new    " width="5" height="5" id="flash0_ai_Layer_1__Path__19" xlink:href="images/flash0_ai_Layer_1__Path__19.png" >
			</image>
		</g>
	</g>
	<g transform="matrix( 1, 0, 0, 1, 32.45,-404.55) ">
		<g>
			<g id="Layer7_3_FILL">
				<path fill="#BAD727" d="M458.9,578c0-0.5-0.2-1-0.6-1.3c-0.4-0.4-0.8-0.6-1.3-0.6c-0.5,0-1,0.2-1.4,0.6
					c-0.4,0.4-0.6,0.8-0.6,1.3s0.2,1,0.6,1.4c0.4,0.4,0.8,0.5,1.4,0.5c0.5,0,1-0.2,1.3-0.5C458.7,579,458.9,578.5,458.9,578z"/>
			</g>
		</g>
	</g>
	<g transform="matrix( 1, 0, 0, 1, -563.8,-103.1) ">
		<g>
			<g id="Layer7_4_FILL">
				<path fill="#BAD727" d="M851.7,428.8c0-0.5-0.2-1-0.6-1.3c-0.4-0.4-0.8-0.6-1.3-0.6s-1,0.2-1.4,0.6c-0.4,0.4-0.5,0.8-0.5,1.3
					c0,0.5,0.2,1,0.5,1.4c0.4,0.4,0.8,0.6,1.4,0.6c0.5,0,1-0.2,1.3-0.6C851.5,429.8,851.7,429.3,851.7,428.8z"/>
			</g>
		</g>
	</g>
	<g transform="matrix( 1, 0, 0, 1, -332.4,-175.9) ">
		<g>
			<g id="Layer7_5_FILL">
				<path fill="#F7571A" d="M598,321.3c0-0.5-0.2-1-0.6-1.3c-0.4-0.4-0.8-0.6-1.4-0.6s-1,0.2-1.3,0.6c-0.4,0.4-0.5,0.8-0.5,1.3
					c0,0.5,0.2,1,0.5,1.4c0.4,0.4,0.8,0.6,1.3,0.6s1-0.2,1.4-0.6C597.8,322.3,598,321.8,598,321.3z"/>
			</g>
		</g>
	</g>
	<g transform="matrix( 1, 0, 0, 1, -287.6,-198.6) ">
		<g>
			<g id="Layer7_6_FILL">
				<path fill="#F7571A" d="M520.9,449.9c0-0.5-0.2-1-0.6-1.4c-0.4-0.4-0.8-0.5-1.3-0.5s-1,0.2-1.4,0.5c-0.4,0.4-0.5,0.8-0.5,1.4
					c0,0.5,0.2,1,0.5,1.4c0.4,0.4,0.8,0.6,1.4,0.6s1-0.2,1.3-0.6C520.7,450.9,520.9,450.4,520.9,449.9z"/>
			</g>
		</g>
	</g>
	<g transform="matrix( 1, 0, 0, 1, 81.9,-205.8) ">
		<g>
			<g id="Layer7_7_FILL">
				<path fill="#DEDEDE" d="M454,529.6c0-1.1-0.4-2-1.1-2.8c-0.8-0.7-1.7-1.1-2.8-1.1c-1.1,0-2,0.4-2.7,1.1
					c-0.7,0.8-1.1,1.7-1.1,2.8c0,1.1,0.4,2,1.1,2.7c0.8,0.7,1.7,1.1,2.7,1.1c1.1,0,2-0.4,2.8-1.1C453.6,531.6,454,530.7,454,529.6z"
					/>
			</g>
		</g>
	</g>
	<g transform="matrix( 1, 0, 0, 1, -358.1,-180.6) ">
		<g>
			<g id="Layer7_8_FILL">
				<path fill="#DEDEDE" d="M848.8,493.6c-0.4-0.4-0.8-0.5-1.4-0.5c-0.5,0-1,0.2-1.4,0.5c-0.4,0.4-0.5,0.9-0.5,1.4
					c0,0.5,0.2,1,0.5,1.4c0.4,0.4,0.8,0.6,1.4,0.6c0.5,0,1-0.2,1.4-0.6c0.4-0.4,0.6-0.8,0.6-1.4
					C849.4,494.5,849.2,494.1,848.8,493.6z"/>
			</g>
		</g>
	</g>
	<g transform="matrix( 1, 0, 0, 1, -235,-532.55) ">
		<g>
			<g id="Layer7_9_FILL">
				<path fill="#D1D1D1" d="M844.5,583.7c0-1.1-0.4-2-1.1-2.7c-0.8-0.7-1.7-1.1-2.8-1.1c-1.1,0-2,0.4-2.7,1.1
					c-0.8,0.8-1.2,1.7-1.2,2.7c0,1.1,0.4,2,1.2,2.8c0.7,0.7,1.6,1.1,2.7,1.1c1.1,0,2-0.4,2.8-1.1
					C844.1,585.7,844.5,584.8,844.5,583.7z"/>
			</g>
		</g>
	</g>
	<g transform="matrix( 1, 0, 0, 1, -287.6,-198.6) ">
		<g>
			<path id="Layer7_10_1_STROKES" fill="none" stroke="#BFBFBF" stroke-width="2" stroke-miterlimit="10" d="M855,350.9
				c0,0.9-0.3,1.7-1,2.3c-0.6,0.6-1.4,1-2.3,1c-0.9,0-1.7-0.3-2.3-1c-0.6-0.6-1-1.4-1-2.3c0-0.9,0.3-1.6,1-2.3c0.6-0.6,1.4-1,2.3-1
				c0.9,0,1.6,0.3,2.3,1C854.7,349.2,855,350,855,350.9z"/>
		</g>
	</g>
	<g transform="matrix( 1, 0, 0, 1, -402.4,-503.85) ">
		<g>
			<path id="Layer7_11_1_STROKES" fill="none" stroke="#BFBFBF" stroke-width="2" stroke-miterlimit="10" d="M678.5,551.5
				c0,0.9-0.3,1.7-1,2.3s-1.4,1-2.3,1c-0.9,0-1.7-0.3-2.3-1c-0.6-0.6-1-1.4-1-2.3s0.3-1.7,1-2.3c0.6-0.6,1.4-1,2.3-1
				c0.9,0,1.6,0.3,2.3,1C678.1,549.8,678.5,550.5,678.5,551.5z"/>
		</g>
	</g>
	<g transform="matrix( 1, 0, 0, 1, -128.15,-18.15) ">
		<g>
			<path id="Layer7_12_1_STROKES" fill="none" stroke="#BFBFBF" stroke-width="2" stroke-miterlimit="10" d="M619.5,264.3
				c0,0.9-0.3,1.7-1,2.3c-0.6,0.6-1.4,0.9-2.3,0.9c-0.9,0-1.6-0.3-2.3-0.9c-0.6-0.6-1-1.4-1-2.3c0-0.9,0.3-1.6,1-2.3
				c0.6-0.6,1.4-0.9,2.3-0.9c0.9,0,1.7,0.3,2.3,0.9S619.5,263.4,619.5,264.3z"/>
		</g>
	</g>
	<g transform="matrix( 1, 0, 0, 1, -287.6,-198.6) ">
		<g>
			<g id="Layer7_13_MEMBER_0_FILL">
				<path fill="#83C4EC" d="M506.5,271.5h7c0.3,0,0.5-0.1,0.7-0.3c0.2-0.2,0.3-0.4,0.3-0.7c0-0.3-0.1-0.5-0.3-0.7
					c-0.2-0.2-0.4-0.3-0.7-0.3h-7c-0.6,0-0.9,0.3-0.9,0.9c0,0.3,0.1,0.5,0.3,0.7C506.1,271.4,506.3,271.5,506.5,271.5z"/>
			</g>
		</g>
	</g>
	<g transform="matrix( 1, 0, 0, 1, -287.6,-198.6) ">
		<g>
			<g id="Layer7_13_MEMBER_1_FILL">
				<path fill="#83C4EC" d="M509.4,266.4c-0.2,0.2-0.3,0.4-0.3,0.6v7c0,0.3,0.1,0.5,0.3,0.7c0.2,0.2,0.4,0.3,0.6,0.3
					c0.6,0,1-0.3,1-1v-7c0-0.3-0.1-0.5-0.3-0.6c-0.2-0.2-0.4-0.3-0.7-0.3C509.8,266,509.6,266.1,509.4,266.4z"/>
			</g>
		</g>
	</g>
	<g transform="matrix( 1, 0, 0, 1, -500.5,-269.7) ">
		<g>
			<g id="Layer7_14_MEMBER_0_FILL">
				<path fill="#83C4EC" d="M909.2,384.4c0.2,0.2,0.4,0.3,0.6,0.3h7.1c0.3,0,0.5-0.1,0.7-0.3c0.2-0.2,0.2-0.4,0.3-0.6
					c0-0.6-0.3-1-0.9-1h-7.1c-0.3,0-0.5,0.1-0.6,0.3c-0.2,0.2-0.3,0.4-0.3,0.7C908.9,384,909,384.2,909.2,384.4z"/>
			</g>
		</g>
	</g>
	<g transform="matrix( 1, 0, 0, 1, -500.5,-269.7) ">
		<g>
			<g id="Layer7_14_MEMBER_1_FILL">
				<path fill="#83C4EC" d="M914.3,380.1c0-0.2-0.1-0.5-0.3-0.6c-0.2-0.2-0.4-0.3-0.6-0.3c-0.3,0-0.5,0.1-0.7,0.3
					c-0.2,0.2-0.3,0.4-0.3,0.6v7.1c0,0.3,0.1,0.5,0.3,0.7c0.2,0.2,0.4,0.3,0.7,0.3c0.3,0,0.5-0.1,0.6-0.3c0.2-0.2,0.3-0.4,0.3-0.7
					V380.1z"/>
			</g>
		</g>
	</g>
	<g transform="matrix( 1, 0, 0, 1, 120.8,-281.4) ">
		<g>
			<g id="Layer7_15_MEMBER_0_FILL">
				<path fill="#83C4EC" d="M399.5,556.6c-0.3,0-0.5,0.1-0.7,0.3c-0.2,0.2-0.3,0.4-0.3,0.7c0,0.3,0.1,0.5,0.3,0.7
					c0.2,0.2,0.4,0.3,0.7,0.3h7c0.3,0,0.5-0.1,0.7-0.3c0.2-0.2,0.3-0.4,0.3-0.7c0-0.6-0.3-1-1-1H399.5z"/>
			</g>
		</g>
	</g>
	<g transform="matrix( 1, 0, 0, 1, 120.8,-281.4) ">
		<g>
			<g id="Layer7_15_MEMBER_1_FILL">
				<path fill="#83C4EC" d="M404,554c0-0.2-0.1-0.5-0.3-0.7c-0.2-0.2-0.4-0.3-0.6-0.3s-0.5,0.1-0.7,0.3c-0.2,0.2-0.3,0.4-0.3,0.7v7
					c0,0.3,0.1,0.5,0.3,0.7c0.2,0.2,0.4,0.3,0.7,0.3s0.5-0.1,0.6-0.3c0.2-0.2,0.3-0.4,0.3-0.7V554z"/>
			</g>
		</g>
	</g>
	<g transform="matrix( 1, 0, 0, 1, -305.2,-337.6) ">
		<g>
			<g id="Layer7_16_MEMBER_0_FILL">
				<path fill="#83C4EC" d="M584.3,587c0.2,0.2,0.4,0.3,0.7,0.3h7c0.3,0,0.5-0.1,0.7-0.3c0.2-0.2,0.3-0.4,0.3-0.7s-0.1-0.5-0.3-0.6
					c-0.2-0.2-0.4-0.3-0.7-0.3h-7c-0.3,0-0.5,0.1-0.7,0.3c-0.2,0.2-0.3,0.4-0.3,0.6S584.1,586.9,584.3,587z"/>
			</g>
		</g>
	</g>
	<g transform="matrix( 1, 0, 0, 1, -305.2,-337.6) ">
		<g>
			<g id="Layer7_16_MEMBER_1_FILL">
				<path fill="#83C4EC" d="M588.5,590.8c0.3,0,0.5-0.1,0.7-0.3c0.2-0.2,0.3-0.4,0.3-0.6v-7.1c0-0.6-0.3-0.9-1-0.9
					c-0.6,0-1,0.3-1,0.9v7.1c0,0.3,0.1,0.5,0.3,0.6C588,590.8,588.3,590.8,588.5,590.8z"/>
			</g>
		</g>
	</g>
	<g transform="matrix( 1, 0, 0, 1, -210,-472.1) ">
		<g>
			<g id="Layer7_17_MEMBER_0_FILL">
				<path fill="#83C4EC" d="M745,571.2c0.3,0,0.5-0.1,0.6-0.3c0.2-0.2,0.3-0.4,0.3-0.7c0-0.2-0.1-0.5-0.3-0.7
					c-0.2-0.2-0.4-0.3-0.6-0.3h-7c-0.3,0-0.5,0.1-0.7,0.3c-0.2,0.2-0.3,0.4-0.3,0.7c0,0.3,0.1,0.5,0.3,0.7c0.2,0.2,0.4,0.3,0.7,0.3
					H745z"/>
			</g>
		</g>
	</g>
	<g transform="matrix( 1, 0, 0, 1, -210,-472.1) ">
		<g>
			<g id="Layer7_17_MEMBER_1_FILL">
				<path fill="#83C4EC" d="M740.8,566c-0.2,0.2-0.3,0.4-0.3,0.7v7c0,0.3,0.1,0.5,0.3,0.7c0.2,0.2,0.4,0.3,0.7,0.3
					c0.3,0,0.5-0.1,0.7-0.3c0.2-0.2,0.3-0.4,0.3-0.7v-7c0-0.3-0.1-0.5-0.3-0.7c-0.2-0.2-0.4-0.3-0.7-0.3
					C741.1,565.8,740.9,565.8,740.8,566z"/>
			</g>
		</g>
	</g>
	<g transform="matrix( 1, 0, 0, 1, -287.6,-198.6) ">
		<g>
			<g id="Layer7_18_FILL">
				<path fill="#BFBFBF" d="M521,492.2h-6l-3,5.2l3,5.2h6l3-5.2L521,492.2 M515.8,493.6h4.4l2.2,3.8l-2.2,3.8h-4.4l-2.2-3.8
					L515.8,493.6z"/>
			</g>
		</g>
	</g>
	<g transform="matrix( 1, 0, 0, 1, -759.2,-190.2) ">
		<g>
			<g id="Layer7_19_FILL">
				<path fill="#BFBFBF" d="M845.3,287.1l-3,5.2l3,5.2h6l3-5.2l-3-5.2H845.3 M846.2,296.1l-2.2-3.8l2.2-3.8h4.3l2.2,3.8l-2.2,3.8
					H846.2z"/>
			</g>
		</g>
	</g>
	<g transform="matrix( 0.7615509033203125, 0, 0, 0.7615509033203125, 194.05,177.95) " opacity="0.17">
		<g transform="matrix( 1, 0, 0, 1, 0,0) ">
			<g>
				<g id="flash0_ai_Layer_1__Path__0_Layer0_0_FILL_1_">
					<path fill="#3D3D3D" d="M187.8,41c-0.2-11.4-4.1-21.1-11.6-29.1c-7.5-8-16.6-12-27.1-12c-6,0-11.7,1.4-17.1,4.3
						c-5.2,2.8-9.6,6.6-13.2,11.5c-1.4-2.9-3.5-5.3-6.1-7c-2.8-1.9-5.7-2.8-8.9-2.8c-4,0-7.5,1.3-10.6,4c-3,2.6-5,6-5.9,10.1
						c-2.7-1.2-5.4-1.8-8.2-1.8c-4.3,0-8.3,1.3-12,3.9c-2.5-2.7-5.4-4.8-8.6-6.3c-3.4-1.5-6.9-2.3-10.6-2.3
						c-5.7,0-10.8,1.7-15.4,5.3c-4.5,3.4-7.8,7.9-9.8,13.4c-1.2-1.4-2.6-2.5-4.3-3.3c-1.7-0.8-3.5-1.2-5.3-1.2c-3.5,0-6.5,1.3-9,3.9
						c-2.5,2.6-3.9,5.7-4.1,9.5L187.8,41C187.8,41.1,187.8,41,187.8,41z"/>
				</g>
			</g>
		</g>
	</g>
	<g transform="matrix( 0.7615509033203125, 0, 0, 0.7615509033203125, 194.05,177.95) " opacity="0.17">
		<g transform="matrix( 1, 0, 0, 1, 0,0) ">
			<g>
				<g id="flash0_ai_Layer_1__Path__0_Layer0_0_FILL_2_">
					<path fill="#3D3D3D" d="M347.6,63.2h187.8c-0.2-3.3-1.6-5.9-4.1-8.1c-2.5-2.2-5.5-3.3-9-3.3c-1.8,0-3.6,0.3-5.3,1
						c-1.7,0.7-3.1,1.7-4.3,2.9c-2-4.7-5.3-8.5-9.8-11.5c-4.6-3.1-9.8-4.5-15.4-4.5c-3.7,0-7.2,0.7-10.6,2c-3.3,1.3-6.1,3.1-8.6,5.4
						c-3.7-2.2-7.7-3.3-12-3.3c-2.8,0-5.5,0.5-8.2,1.5c-0.8-3.5-2.9-6.4-5.9-8.7c-3.1-2.3-6.6-3.4-10.6-3.4c-3.3,0-6.1,0.8-8.9,2.4
						c-2.6,1.4-4.7,3.5-6.1,6c-3.6-4.2-8-7.5-13.2-9.9c-5.4-2.5-11.1-3.7-17.1-3.7c-10.5,0-19.5,3.4-27.1,10.3
						C351.7,45.1,347.8,53.3,347.6,63.2C347.6,63.1,347.6,63.2,347.6,63.2z"/>
				</g>
			</g>
		</g>
	</g>
	<g transform="matrix( 0.7615509033203125, 0, 0, 0.7615509033203125, 194.05,177.95) " opacity="0.17">
		<g transform="matrix( 1, 0, 0, 1, 0,0) ">
			<g>
				<g id="flash0_ai_Layer_1__Path__0_Layer0_0_FILL_3_">
					<path fill="#3D3D3D" d="M319.7-42.4h111.4c-0.1-2.2-0.9-4-2.4-5.4c-1.5-1.5-3.3-2.2-5.3-2.2c-1,0-2.1,0.2-3.1,0.7
						c-1,0.5-1.8,1.1-2.5,1.9c-1.2-3.2-3.1-5.7-5.8-7.7c-2.8-2.1-5.8-3-9.2-3c-2.2,0-4.2,0.5-6.3,1.3c-1.9,0.9-3.6,2.1-5.1,3.6
						c-2.2-1.5-4.6-2.2-7.1-2.2c-1.7,0-3.3,0.3-4.9,1c-0.5-2.3-1.7-4.3-3.5-5.8c-1.8-1.5-3.9-2.3-6.3-2.3c-1.9,0-3.6,0.5-5.3,1.6
						c-1.5,1-2.8,2.3-3.6,4c-2.1-2.8-4.7-5-7.8-6.6c-3.2-1.7-6.6-2.5-10.1-2.5c-6.2,0-11.6,2.3-16,6.9S319.9-49,319.7-42.4
						C319.7-42.4,319.7-42.4,319.7-42.4z"/>
				</g>
			</g>
		</g>
	</g>
</g>
<g id="builts_copy">
	<g transform="matrix( 1, 0, 0, 1, 43.05,148.05) ">
		<g transform="matrix( 1, 0, 0, 1, 0,0) ">
			<g>
				<g id="builts_0_Layer0_0_FILL">
					<path fill="#595959" d="M38.5,205.8H26.6v10.1h11.9V205.8 M38.5,202.4H26.6v3.4h11.9V202.4 M38.5,190.6H26.6v11.8h11.9V190.6
						 M26.6,190.6h11.9v-3.4H26.6V190.6 M38.5,187.2v-11.8H26.6v11.8H38.5 M38.5,172H26.6v3.4h11.9V172 M38.5,160.3H26.6V172h11.9
						V160.3 M38.5,156.9H26.6v3.4h11.9V156.9 M38.5,145.1H26.6v11.8h11.9V145.1 M38.5,129.9H26.6v11.8h11.9V129.9 M26.6,141.6v3.5
						h11.9v-3.5H26.6 M38.5,129.9v-3.5H26.6v3.5H38.5 M38.5,114.7H26.6v11.8h11.9V114.7 M38.5,111.2H26.6v3.5h11.9V111.2
						 M26.6,111.2h11.9V99.4H26.6V111.2 M31.5,76.3v7.9h7h4.8v-7.9H31.5 M38.5,96.1H26.6v3.4h11.9V96.1 M26.6,84.3v11.8h11.9V84.3
						h-7H26.6 M282.8,206.9h-11.1v8.9h11.1V206.9 M271.6,206.9h11.1v-4.4h-11.1V206.9 M282.8,195.4h-11.1v7.1h11.1V195.4
						 M282.8,181.4h-11.1v7h11.1V181.4 M271.6,188.4v7.1h11.1v-7.1H271.6 M282.8,181.4v-7h-11.1v7H282.8 M282.8,167.3h-11.1v7.1
						h11.1V167.3 M282.8,160.3h-11.1v7h11.1V160.3 M271.6,160.3h11.1v-7.1h-11.1V160.3 M271.6,139.1h11.1v-8h-8.3h-2.9V139.1
						 M282.8,146.2h-11.1v7.1h11.1V146.2 M271.6,146.2h11.1v-7.1h-11.1V146.2 M285.6,95.9h-11.1v35.2h8.3h2.9V95.9 M532.7,215.8
						v-10.2h-13.2v10.2H532.7 M532.7,142.8h-13.2v9h13.2V142.8 M532.7,196.6h-13.2v9h13.2V196.6 M519.5,151.8v8.9h13.2v-8.9H519.5
						 M519.5,160.8v9.1h13.2v-9.1H519.5 M519.5,187.7v8.9h13.2v-8.9H519.5 M519.5,178.8v8.9h13.2v-8.9H519.5 M519.5,169.8v8.9h13.2
						v-8.9H519.5 M532.7,124.9v-9h-13.2v9H532.7 M532.7,133.9v-9h-13.2v9H532.7 M532.7,142.8v-8.9h-13.2v8.9H532.7 M532.7,115.9v-9
						h-13.2v9H532.7 M532.7,97.9h-13.2v9h13.2V97.9 M532.7,46.8h-13.2V89h13.2V46.8 M519.5,89v8.9h13.2V89H519.5z"/>
					<path fill="#CACACA" d="M43.2,215.8v-10.1h-4.7v10.1H43.2 M66.4,205.8v10.1h5.4v-10.1H66.4 M61,215.8v-10.1H43.2v10.1H61
						 M61,205.8v10.1h5.4v-10.1H61 M137.1,205.8h-5.4v10.1h5.4V205.8 M126.3,215.8v-10.1H71.8v10.1H126.3 M131.8,205.8h-5.4v10.1
						h5.4V205.8 M154.9,215.8v-10.1h-17.8v10.1H154.9 M154.9,205.8v10.1h4.7v-10.1H154.9 M159.6,202.4h-17.3H125h-17.3H90.3H73.1
						H55.8H38.5v3.4h4.7H61h5.4h5.4h54.5h5.4h5.4h17.8h4.7V202.4 M90.3,190.6H73.1v11.8h17.3V190.6 M125,190.6h-17.3v11.8H125V190.6
						 M107.7,145.1v11.8H125v-11.8H107.7 M142.3,190.6H125v11.8h17.3V190.6 M159.6,190.6h-17.3v11.8h17.3V190.6 M142.3,187.2h17.3
						v-11.8h-17.3V187.2 M125,175.4v11.8h17.3v-11.8H125 M142.3,172v-11.8H125V172H142.3 M142.3,172h17.3v-11.8h-17.3V172
						 M107.7,190.6H90.3v11.8h17.3V190.6 M107.7,175.4v11.8H125v-11.8H107.7 M90.3,175.4v11.8h17.3v-11.8H90.3 M107.7,172v-11.8
						H90.3V172H107.7 M107.7,160.3V172H125v-11.8H107.7 M107.7,145.1H90.3v11.8h17.3V145.1 M90.3,114.7v11.8h17.3v-11.8H90.3
						 M90.3,129.9v11.8h17.3v-11.8H90.3 M107.7,111.2V99.4H90.3v11.8H107.7 M125,126.4v-11.8h-17.3v11.8H125 M142.3,114.7H125v11.8
						h17.3V114.7 M142.3,145.1H125v11.8h17.3V145.1 M159.6,145.1h-17.3v11.8h17.3V145.1 M159.6,129.9h-17.3v11.8h17.3V129.9
						 M125,141.6v-11.8h-17.3v11.8H125 M125,129.9v11.8h17.3v-11.8H125 M125,111.2V99.4h-17.3v11.8H125 M142.3,111.2V99.4H125v11.8
						H142.3 M159.6,99.4h-17.3v11.8h17.3V99.4 M159.6,114.7h-17.3v11.8h17.3V114.7 M73.1,145.1v11.8h17.3v-11.8H73.1 M55.8,190.6
						H38.5v11.8h17.3V190.6 M55.8,145.1H38.5v11.8h17.3V145.1 M73.1,190.6H55.8v11.8h17.3V190.6 M73.1,175.4v11.8h17.3v-11.8H73.1
						 M55.8,175.4v11.8h17.3v-11.8H55.8 M73.1,172v-11.8H55.8V172H73.1 M73.1,160.3V172h17.3v-11.8H73.1 M38.5,172v3.4h17.3h17.3
						h17.3h17.3H125h17.3h17.3V172h-17.3H125h-17.3H90.3H73.1H55.8H38.5 M38.5,187.2v3.4h17.3h17.3h17.3h17.3H125h17.3h17.3v-3.4
						h-17.3H125h-17.3H90.3H73.1H55.8H38.5 M38.5,175.4v11.8h17.3v-11.8H38.5 M38.5,156.9v3.4h17.3h17.3h17.3h17.3H125h17.3h17.3
						v-3.4h-17.3H125h-17.3H90.3H73.1H55.8H38.5 M38.5,160.3V172h17.3v-11.8H38.5 M73.1,114.7v11.8h17.3v-11.8H73.1 M55.8,126.4
						v-11.8H38.5v11.8H55.8 M73.1,114.7H55.8v11.8h17.3V114.7 M55.8,114.7h17.3h17.3h17.3H125h17.3h17.3v-3.5h-17.3H125h-17.3H90.3
						H73.1H55.8H38.5v3.5H55.8 M73.1,145.1H55.8v11.8h17.3V145.1 M55.8,145.1h17.3h17.3h17.3H125h17.3h17.3v-3.5h-17.3H125h-17.3
						H90.3H73.1H55.8H38.5v3.5H55.8 M55.8,129.9h17.3h17.3h17.3H125h17.3h17.3v-3.5h-17.3H125h-17.3H90.3H73.1H55.8H38.5v3.5H55.8
						 M73.1,129.9v11.8h17.3v-11.8H73.1 M55.8,141.6v-11.8H38.5v11.8H55.8 M55.8,129.9v11.8h17.3v-11.8H55.8 M55.8,111.2V99.4H38.5
						v11.8H55.8 M73.1,111.2V99.4H55.8v11.8H73.1 M73.1,99.4v11.8h17.3V99.4H73.1 M73.1,84.3H55.8v11.8h17.3V84.3 M38.5,84.3v11.8
						h17.3V84.3H43.3H38.5 M142.3,84.3v11.8h17.3V84.3h-4.8H142.3 M125,84.3v11.8h17.3V84.3H125 M90.3,96.1V84.3H73.1v11.8H90.3
						 M107.7,84.3v11.8H125V84.3H107.7 M107.7,96.1H90.3H73.1H55.8H38.5v3.4h17.3h17.3h17.3h17.3H125h17.3h17.3v-3.4h-17.3H125
						H107.7 M90.3,84.3h17.3H125h17.3h12.6v-7.9H43.3v7.9h12.5h17.3H90.3 M107.7,84.3H90.3v11.8h17.3V84.3 M310.5,215.8v-8.9h-4.9
						v8.9H310.5 M287.6,215.8h18v-8.9h-18V215.8 M303,95.9h-17.4v35.2h6.3v-3.8h-2.6v-7.2h8.9v-3.3h-2.4v-9.3h9.9v-3.6H303V95.9
						 M413.8,202.5v-7.1h-131v7.1H413.8 M328.4,215.8v-8.9h-17.9v8.9H328.4 M333.3,206.9h-4.9v8.9h4.9V206.9 M363.3,206.9h-30v8.9
						h30V206.9 M386,206.9v8.9h4.9v-8.9H386 M368.1,215.8v-8.9h-4.9v8.9H368.1 M368.1,215.8H386v-8.9h-17.9V215.8 M408.8,215.8v-8.9
						h-17.9v8.9H408.8 M408.8,215.8h5v-8.9h-5V215.8 M413.8,206.9v-4.4h-131v4.4v8.9h4.9v-8.9h18h4.9h17.9h4.9h30h4.9H386h4.9h17.9
						H413.8 M413.8,153.3v-7.1h-131v7.1H413.8 M413.8,167.3v-7h-131v7H413.8 M413.8,160.3v-7.1h-131v7.1H413.8 M413.8,195.4v-7.1
						h-131v7.1H413.8 M413.8,181.4v-7h-131v7H413.8 M413.8,188.4v-7h-131v7H413.8 M413.8,174.4v-7.1h-131v7.1H413.8 M413.8,146.2
						v-7.1h-131v7.1H413.8 M413.8,139.1v-8h-2.9h-6.2H291.9h-6.3h-2.9v8H413.8 M407.3,127.3v-7.2h-8.9H298.1h-8.9v7.2h2.6h112.8
						H407.3 M390.9,107.5v-3.6h-85.3v3.6H390.9 M400.8,107.5h-9.9h-85.3h-9.9v9.3h2.4h100.3h2.4V107.5 M398.4,120.2v-3.3H298.1v3.3
						H398.4 M404.6,127.3v3.8h6.2V95.9h-17.4v8h-2.6v3.6h9.9v9.3h-2.4v3.3h8.9v7.2H404.6 M404.6,131.1v-3.8H291.9v3.8H404.6
						 M393.5,95.9v-2.9H303v2.9v8h2.6h85.3h2.6V95.9 M553.8,205.6h-10.5h-10.6v10.2h21.1V205.6 M574.9,215.8v-10.2h-10.6h-10.5v10.2
						H574.9 M587.5,205.6h-12.5v10.2h12.5V205.6 M608.6,215.8v-10.2h-10.5h-10.6v10.2H608.6 M629.8,205.6h-10.6h-10.6v10.2h21.2
						V205.6 M574.9,97.9h-10.6v9h10.6V97.9 M574.9,196.6h-10.6v9h10.6V196.6 M608.6,142.8h-10.5v9h10.5V142.8 M608.6,196.6h-10.5v9
						h10.5V196.6 M619.2,178.8h10.6v-8.9h-10.6V178.8 M629.8,196.6h-10.6v9h10.6V196.6 M619.2,187.7v8.9h10.6v-8.9H619.2
						 M608.6,196.6h10.6v-8.9h-10.6V196.6 M619.2,196.6h-10.6v9h10.6V196.6 M619.2,187.7v-8.9h-10.6v8.9H619.2 M619.2,178.8v8.9
						h10.6v-8.9H619.2 M608.6,169.8h10.6v-9.1h-10.6V169.8 M619.2,169.8h-10.6v8.9h10.6V169.8 M619.2,160.8v-8.9h-10.6v8.9H619.2
						 M629.8,160.8v-8.9h-10.6v8.9H629.8 M629.8,169.8v-9.1h-10.6v9.1H629.8 M587.5,169.8h-12.5v8.9h12.5V169.8 M598.1,169.8v8.9
						h10.5v-8.9H598.1 M587.5,196.6h-12.5v9h12.5V196.6 M598.1,187.7v8.9h10.5v-8.9H598.1 M587.5,196.6h10.6v-8.9h-10.6V196.6
						 M598.1,196.6h-10.6v9h10.6V196.6 M598.1,187.7v-8.9h-10.6v8.9H598.1 M598.1,178.8v8.9h10.5v-8.9H598.1 M574.9,187.7v8.9h12.5
						v-8.9H574.9 M574.9,178.8v8.9h12.5v-8.9H574.9 M598.1,160.8v9.1h10.5v-9.1H598.1 M598.1,169.8h-10.6v8.9h10.6V169.8
						 M587.5,160.8v9.1h10.6v-9.1H587.5 M587.5,169.8v-9.1h-12.5v9.1H587.5 M587.5,160.8v-8.9h-12.5v8.9H587.5 M598.1,160.8v-8.9
						h-10.6v8.9H598.1 M598.1,151.8v8.9h10.5v-8.9H598.1 M574.9,124.9h12.5v-9h-12.5V124.9 M587.5,142.8h-12.5v9h12.5V142.8
						 M587.5,142.8h10.6v-8.9h-10.6V142.8 M598.1,142.8h-10.6v9h10.6V142.8 M598.1,124.9h-10.6v9h10.6V124.9 M574.9,133.9v8.9h12.5
						v-8.9H574.9 M574.9,124.9v9h12.5v-9H574.9 M587.5,115.9v-9h-12.5v9H587.5 M587.5,115.9h10.6v-9h-10.6V115.9 M598.1,115.9h-10.6
						v9h10.6V115.9 M608.6,124.9v-9h-10.5v9H608.6 M619.2,124.9h10.6v-9h-10.6V124.9 M629.8,142.8h-10.6v9h10.6V142.8 M608.6,133.9
						v-9h-10.5v9H608.6 M619.2,133.9v-9h-10.6v9H619.2 M619.2,124.9v9h10.6v-9H619.2 M619.2,142.8h-10.6v9h10.6V142.8 M619.2,133.9
						v8.9h10.6v-8.9H619.2 M608.6,142.8v-8.9h-10.5v8.9H608.6 M608.6,133.9v8.9h10.6v-8.9H608.6 M619.2,115.9h-10.6v9h10.6V115.9
						 M608.6,115.9v-9h-10.5v9H608.6 M619.2,106.9h-10.6v9h10.6V106.9 M629.8,115.9v-9h-10.6v9H629.8 M564.3,142.8v9h10.6v-9H564.3
						 M564.3,169.8v8.9h10.6v-8.9H564.3 M543.3,178.8h10.5v-8.9h-10.5V178.8 M553.8,196.6h-10.5v9h10.5V196.6 M564.3,187.7v8.9h10.6
						v-8.9H564.3 M564.3,178.8v8.9h10.6v-8.9H564.3 M553.8,187.7h10.5v-8.9h-10.5V187.7 M564.3,196.6h-10.5v9h10.5V196.6
						 M553.8,196.6h10.5v-8.9h-10.5V196.6 M543.3,187.7v8.9h10.5v-8.9H543.3 M543.3,178.8v8.9h10.5v-8.9H543.3 M532.7,187.7h10.6
						v-8.9h-10.6V187.7 M543.3,196.6h-10.6v9h10.6V196.6 M532.7,196.6h10.6v-8.9h-10.6V196.6 M543.3,151.8h-10.6v8.9h10.6V151.8
						 M543.3,169.8h-10.6v8.9h10.6V169.8 M532.7,169.8h10.6v-9.1h-10.6V169.8 M564.3,160.8v9.1h10.6v-9.1H564.3 M553.8,169.8v-9.1
						h-10.5v9.1H553.8 M564.3,169.8h-10.5v8.9h10.5V169.8 M564.3,160.8h-10.5v9.1h10.5V160.8 M553.8,160.8v-8.9h-10.5v8.9H553.8
						 M564.3,160.8v-8.9h-10.5v8.9H564.3 M564.3,151.8v8.9h10.6v-8.9H564.3 M564.3,115.9v9h10.6v-9H564.3 M553.8,115.9h-10.5v9h10.5
						V115.9 M553.8,142.8h-10.5v9h10.5V142.8 M564.3,124.9v9h10.6v-9H564.3 M553.8,133.9h10.5v-9h-10.5V133.9 M564.3,142.8h-10.5v9
						h10.5V142.8 M564.3,142.8v-8.9h-10.5v8.9H564.3 M564.3,133.9v8.9h10.6v-8.9H564.3 M543.3,124.9v9h10.5v-9H543.3 M543.3,133.9
						v8.9h10.5v-8.9H543.3 M543.3,142.8h-10.6v9h10.6V142.8 M543.3,133.9h-10.6v8.9h10.6V133.9 M532.7,133.9h10.6v-9h-10.6V133.9
						 M543.3,115.9h-10.6v9h10.6V115.9 M543.3,115.9v-9h-10.6v9H543.3 M553.8,115.9v-9h-10.5v9H553.8 M564.3,106.9v9h10.6v-9H564.3
						 M564.3,115.9h-10.5v9h10.5V115.9 M564.3,106.9h-10.5v9h10.5V106.9 M553.8,97.9h-10.5v9h10.5V97.9 M564.3,97.9h-10.5v9h10.5
						V97.9 M553.8,89v8.9h10.5V89H553.8 M543.3,97.9h-10.6v9h10.6V97.9 M532.7,89h10.6h10.5h10.5h10.6l-13.4-13.3l-13.3-13.3
						l-15.5-15.6V89 M543.3,89v8.9h10.5V89H543.3 M532.7,89v8.9h10.6V89H532.7 M574.9,62.3V46.8h-42.3l15.5,15.6H574.9 M629.8,46.8
						h-42.3v15.6h26.7L629.8,46.8 M608.6,97.9h-10.5v9h10.5V97.9 M619.2,97.9h-10.6v9h10.6V97.9 M619.2,89h-10.6v8.9h10.6V89
						 M629.8,97.9h-10.6v9h10.6V97.9 M629.8,89h-10.6v8.9h10.6V89 M574.9,75.7V62.3h-26.7l13.3,13.3H574.9 M587.5,97.9h-12.5v9h12.5
						V97.9 M587.5,75.7h13.3l13.4-13.3h-26.7V75.7 M598.1,89v8.9h10.5V89H598.1 M598.1,97.9h-10.6v9h10.6V97.9 M598.1,89h-10.6v8.9
						h10.6V89 M587.5,89V75.7V62.3h-3.7V89H587.5 M600.8,75.7L587.5,89h10.6h10.5h10.6h10.6V46.8l-15.6,15.6L600.8,75.7 M587.5,89
						l13.3-13.3h-13.3V89 M574.9,89v8.9h12.5V89h-3.7h-5.1H574.9 M574.9,97.9V89h-10.6v8.9H574.9 M574.9,89V75.7h-13.4L574.9,89
						 M583.8,62.3h-5.1V89h5.1V62.3 M578.7,62.3h-3.8v13.3V89h3.8V62.3 M587.5,46.8h-12.5v15.6h3.8h5.1h3.7V46.8z"/>
				</g>
			</g>
			<g>
				<path id="builts_0_Layer0_0_1_STROKES" fill="none" stroke="#000000" stroke-linecap="round" stroke-linejoin="round" d="
					M532.7,46.8h42.3h12.5h42.3V89v8.9v9v9v9v9v8.9v9v8.9v9.1v8.9v8.9v8.9v9v10.2h-21.2h-21.1h-12.5h-21.1h-21.1h-13.2v-10.2v-9
					v-8.9v-8.9v-8.9v-9.1v-8.9v-9v-8.9v-9v-9v-9v-9V89V46.8H532.7l15.5,15.6h26.7V46.8 M574.9,62.3h3.8h5.1h3.7V46.8 M574.9,62.3
					v13.3V89h3.8V62.3 M574.9,97.9V89h-10.6v8.9H574.9h12.5V89h-3.7h-5.1 M600.8,75.7h-13.3V89L600.8,75.7l13.4-13.3h-26.7v13.3
					 M587.5,97.9h10.6V89h-10.6 M583.8,62.3V89 M629.8,89h-10.6v8.9h10.6 M619.2,89h-10.6v8.9h10.6v9h10.6 M608.6,97.9h-10.5v9h10.5
					V97.9z M608.6,89h-10.5 M614.2,62.3l15.6-15.6 M532.7,97.9V89h-13.2 M543.3,89v8.9h10.5V89H543.3h-10.6V46.8 M532.7,97.9h10.6v9
					h10.5v-9h10.5v9h10.6v-9 M553.8,89h10.5 M574.9,89l-13.4-13.3l-13.3-13.3 M519.5,97.9h13.2v9h10.6v9h10.5v-9h10.5v9h10.6v-9
					h12.5v-9 M553.8,115.9h10.5v9h10.6v-9h12.5v-9h10.6v9h10.5v-9h10.6v9h10.6 M532.7,115.9v-9h-13.2 M532.7,115.9h10.6v9h10.5v-9
					 M532.7,133.9h10.6v-9h-10.6V133.9v8.9h10.6v-8.9h10.5v-9h10.5v9h10.6v-9h12.5v-9h10.6v9h10.5v-9h10.6v9h10.6 M564.3,133.9v8.9
					h10.6v-8.9h12.5v-9h10.6v9h10.5v-9h10.6v9h10.6 M564.3,133.9h-10.5v8.9h10.5v9h10.6v-9h12.5v-8.9h10.6v8.9h10.5v-8.9h10.6v8.9
					h10.6 M532.7,124.9v-9h-13.2 M553.8,142.8h-10.5v9h10.5V142.8z M564.3,151.8v8.9h10.6v-8.9h12.5v-9h10.6v9h10.5v-9h10.6v9h10.6
					 M564.3,151.8h-10.5v8.9h10.5v9.1h10.6v-9.1h12.5v-8.9h10.6v8.9h10.5v-8.9h10.6v8.9h10.6 M553.8,160.8v9.1h10.5v8.9h10.6v-8.9
					h12.5v-9.1h10.6v9.1h10.5v-9.1h10.6v9.1h10.6 M532.7,169.8h10.6v-9.1h-10.6V169.8v8.9h10.6v-8.9h10.5v8.9h10.5v8.9h10.6v-8.9
					h12.5v-8.9h10.6v8.9h10.5v-8.9h10.6v8.9h10.6 M532.7,151.8h10.6v8.9h10.5 M532.7,160.8v-8.9h-13.2 M532.7,196.6h10.6v-8.9h-10.6
					V196.6v9h10.6v-9h10.5v-8.9h-10.5v-8.9h10.5v8.9h10.5v8.9h10.6v-8.9h12.5v-8.9h10.6v8.9h10.5v-8.9h10.6v8.9h10.6 M532.7,187.7
					v-8.9h-13.2 M553.8,196.6h10.5v9h10.6v-9h12.5v-8.9h10.6v8.9h10.5v-8.9h10.6v8.9h10.6 M519.5,196.6h13.2 M519.5,142.8h13.2v9
					 M519.5,160.8h13.2 M519.5,169.8h13.2 M519.5,187.7h13.2 M519.5,133.9h13.2 M519.5,124.9h13.2 M598.1,196.6h-10.6v9h10.6V196.6z
					 M619.2,196.6h-10.6v9h10.6V196.6z M574.9,75.7h-13.4 M285.6,95.9H303v-2.9h90.5v2.9h17.4v35.2h2.9v8v7.1v7.1v7.1v7v7.1v7v7v7.1
					v7.1v4.4v8.9h-5h-17.9H386h-17.9h-4.9h-30h-4.9h-17.9h-4.9h-18h-4.9h-11.1v-8.9v-4.4v-7.1v-7.1v-7v-7v-7.1v-7v-7.1v-7.1v-7.1v-8
					h2.9V95.9H285.6v35.2h6.3v-3.8h-2.6v-7.2h8.9v-3.3h-2.4v-9.3h9.9v-3.6H303v-8 M291.9,131.1h112.8v-3.8H291.9 M298.1,120.2h100.3
					v-3.3H298.1 M398.4,116.8h2.4v-9.3h-9.9h-85.3 M305.6,103.9h85.3h2.6v-8 M390.9,107.5v-3.6 M404.6,127.3h2.6v-7.2h-8.9
					 M410.9,131.1h-6.2 M413.8,206.9h-5v8.9 M386,215.8v-8.9h-17.9v8.9 M408.8,206.9h-17.9v8.9 M390.9,206.9H386 M287.6,215.8v-8.9
					h18h4.9h17.9h4.9h30h4.9 M328.4,206.9v8.9 M333.3,206.9v8.9 M363.3,206.9v8.9 M629.8,205.6h-10.6 M608.6,205.6v10.2
					 M574.9,205.6h12.5v10.2 M574.9,215.8v-10.2 M608.6,205.6h-10.5 M543.3,205.6h10.5v-9 M532.7,215.8v-10.2h-13.2 M564.3,205.6
					h-10.5v10.2 M271.6,146.2h11.1v-7.1h-11.1 M274.5,131.1h8.3h2.9 M282.8,131.1v8h131 M271.6,160.3h11.1v-7.1h-11.1 M271.6,167.3
					h11.1v-7h131 M282.8,174.4v7h131 M282.8,188.4v7.1h131 M271.6,174.4h11.1v-7.1h131 M271.6,181.4h11.1v7h131 M271.6,188.4h11.1
					 M271.6,195.4h11.1v7.1h131 M282.8,146.2v7.1h131 M90.3,84.3v11.8h17.3V84.3H90.3H73.1v11.8h17.3 M125,84.3v11.8h17.3V84.3H125
					h-17.3 M154.9,84.3h-12.6 M43.3,76.3h111.6v7.9h4.8v11.8v3.4v11.8v3.5v11.8v3.5v11.8v3.5v11.8v3.4V172v3.4v11.8v3.4v11.8v3.4
					v10.1h-4.7h-17.8h-5.4h-5.4H71.8h-5.4H61H43.2h-4.7H26.6v-10.1v-3.4v-11.8v-3.4v-11.8V172v-11.8v-3.4v-11.8v-3.5v-11.8v-3.5
					v-11.8v-3.5V99.4v-3.4V84.3h4.8v-7.9H43.3v7.9h12.5h17.3 M142.3,96.1h17.3 M107.7,96.1H125 M26.6,96.1h11.9V84.3h-7 M55.8,84.3
					v11.8h17.3 M38.5,96.1h17.3 M43.3,84.3h-4.8 M73.1,99.4v11.8h17.3V99.4H73.1H55.8v11.8h17.3 M55.8,129.9v11.8h17.3v-11.8H55.8
					H38.5v11.8h17.3 M38.5,145.1h17.3h17.3h17.3h17.3H125h17.3h17.3 M38.5,114.7h17.3h17.3h17.3h17.3H125h17.3h17.3 M55.8,114.7
					v11.8h17.3v-11.8 M26.6,111.2h11.9V99.4H26.6 M26.6,114.7h11.9v-3.5h17.3 M38.5,126.4v3.5H26.6 M38.5,141.6v3.5v11.8h17.3v-11.8
					 M26.6,126.4h11.9v-11.8 M26.6,145.1h11.9 M26.6,141.6h11.9 M26.6,156.9h11.9v3.4h17.3h17.3h17.3h17.3H125h17.3h17.3
					 M26.6,160.3h11.9V172h17.3v-11.8 M26.6,172h11.9v3.4h17.3h17.3h17.3h17.3H125h17.3h17.3 M38.5,175.4v11.8h17.3v-11.8
					 M26.6,175.4h11.9 M26.6,190.6h11.9v-3.4H26.6 M73.1,160.3V172h17.3v-11.8 M73.1,175.4v11.8h17.3v-11.8 M38.5,190.6h17.3h17.3
					h17.3h17.3H125h17.3h17.3 M55.8,156.9h17.3v-11.8 M55.8,187.2h17.3 M55.8,172h17.3 M38.5,99.4h17.3 M38.5,126.4h17.3 M90.3,99.4
					h17.3H125h17.3h17.3 M142.3,99.4v11.8h17.3 M125,99.4v11.8h17.3 M125,129.9v11.8h17.3v-11.8H125h-17.3v11.8H125 M142.3,114.7
					v11.8h17.3 M142.3,129.9h17.3 M142.3,141.6h17.3 M125,114.7v11.8h17.3 M107.7,99.4v11.8H125 M107.7,129.9H90.3v11.8h17.3
					 M90.3,114.7v11.8h17.3v-11.8 M90.3,111.2h17.3 M107.7,160.3V172H125v-11.8 M107.7,175.4v11.8H125v-11.8 M90.3,187.2h17.3
					 M90.3,172h17.3 M90.3,145.1v11.8h17.3v-11.8 M142.3,160.3V172h17.3 M142.3,145.1v11.8h17.3 M142.3,175.4v11.8h17.3 M125,172
					h17.3 M125,187.2h17.3 M125,145.1v11.8h17.3 M107.7,156.9H125 M107.7,126.4H125 M73.1,129.9h17.3 M73.1,141.6h17.3 M73.1,156.9
					h17.3 M73.1,126.4h17.3 M38.5,96.1v3.4 M142.3,190.6v11.8h17.3 M159.6,205.8h-4.7v10.1 M38.5,205.8h4.7H61h5.4h5.4h54.5h5.4h5.4
					h17.8 M126.3,205.8v10.1 M137.1,205.8v10.1 M131.8,205.8v10.1 M125,190.6v11.8h17.3 M90.3,190.6v11.8h17.3v-11.8 M107.7,202.4
					H125 M61,205.8v10.1 M66.4,205.8v10.1 M71.8,205.8v10.1 M43.2,205.8v10.1 M55.8,190.6v11.8h17.3v-11.8 M26.6,202.4h11.9v-11.8
					 M26.6,205.8h11.9v-3.4h17.3 M38.5,205.8v10.1 M73.1,202.4h17.3 M310.5,206.9v8.9 M305.6,206.9v8.9 M271.6,206.9h11.1v-4.4
					h-11.1 M282.8,206.9v8.9 M282.8,146.2h131 M282.8,174.4h131"/>
			</g>
		</g>
	</g>
</g>
<g id="circles_copy">
	<g transform="matrix( 0.792205810546875, 0, 0, 0.791961669921875, -202.85,-146.55) ">
		<g>
			<g id="Layer5_0_FILL">
				<path fill="#BAD727" d="M483.4,389.1c-3.8-11.8-11.2-20.5-22.2-26.1c-11-5.6-22.4-6.6-34.2-2.8c-11.8,3.8-20.5,11.2-26.1,22.2
					c-5.6,11-6.5,22.4-2.8,34.2s11.2,20.5,22.2,26.1c11,5.6,22.4,6.6,34.2,2.8c11.8-3.8,20.5-11.2,26.1-22.2
					C486.3,412.3,487.2,400.9,483.4,389.1z"/>
			</g>
		</g>
	</g>
	<g transform="matrix( 0.792205810546875, 0, 0, 0.791961669921875, 32.6,-132.95) ">
		<g>
			<g id="Layer5_1_FILL">
				<path fill="#BAD727" d="M483.4,389.1c-3.8-11.8-11.2-20.5-22.2-26.1c-11-5.6-22.4-6.6-34.2-2.8c-11.8,3.8-20.5,11.2-26.1,22.2
					c-5.6,11-6.5,22.4-2.8,34.2s11.2,20.5,22.2,26.1c11,5.6,22.4,6.6,34.2,2.8c11.8-3.8,20.5-11.2,26.1-22.2
					C486.3,412.3,487.2,400.9,483.4,389.1z"/>
			</g>
		</g>
	</g>
	<g transform="matrix( 0.79241943359375, 0, 0, 0.792205810546875, 266.8,-183.2) ">
		<g>
			<g id="Layer5_2_FILL">
				<path fill="#BAD727" d="M483.4,389.1c-3.8-11.8-11.2-20.5-22.2-26.1c-11-5.6-22.4-6.6-34.2-2.8c-11.8,3.8-20.5,11.2-26.2,22.2
					c-5.6,11-6.5,22.4-2.8,34.2s11.2,20.5,22.2,26.1c11,5.6,22.4,6.5,34.2,2.8c11.8-3.8,20.5-11.2,26.2-22.2
					C486.3,412.3,487.2,400.9,483.4,389.1z"/>
			</g>
		</g>
	</g>
	<g transform="matrix( 1.0203704833984375, 0, 0, 1.0203704833984375, -486.05,-425.25) ">
		<g>
			<g id="Layer5_3_FILL">
				<path fill="#F7571A" d="M966,477.4c0-10.7-3.8-19.8-11.3-27.4c-7.6-7.6-16.7-11.4-27.4-11.4c-10.7,0-19.8,3.8-27.3,11.4
					c-7.5,7.5-11.3,16.6-11.3,27.4c0,10.7,3.8,19.8,11.3,27.4c7.6,7.5,16.7,11.3,27.3,11.3c10.7,0,19.8-3.8,27.4-11.3
					C962.2,497.1,966,488,966,477.4z"/>
			</g>
		</g>
	</g>
</g>
<g id="gears_copy">
	<g transform="matrix( 1, 0, 0, 1, 0,0) ">
		<g>
			<path id="Layer4_0_1_STROKES" fill="none" stroke="#3A6FBB" stroke-miterlimit="10" d="M638.6,141.4V133l-7.6-1.9l4.3-6.9l-6.1-6
				l-6.6,4.2l-1.9-8h-8.5l-1.8,7.6l-7-4.3l-6,6l4.1,6.7l-7.9,1.9v8.4l7.6,1.8l-4.3,6.9l6,6.1l6.6-4.1l1.9,8h8.5l1.8-7.7l7,4.3l6-6
				l-4.1-6.7L638.6,141.4z M616,143.5c-1.8,0-3.3-0.7-4.6-1.9c-1.3-1.3-2-2.9-2-4.8c0-1.8,0.7-3.4,2-4.7s2.8-1.9,4.6-1.9
				c1.9,0,3.5,0.6,4.8,1.9c1.3,1.3,2,2.9,2,4.7c0,1.9-0.6,3.4-2,4.8C619.5,142.8,617.9,143.5,616,143.5z M405.1,190.4v-8.5l-7.6-1.9
				l4.4-6.9l-6.1-6l-6.6,4.1l-1.9-8.1h-8.5l-1.8,7.7l-7-4.3l-6,6l4.1,6.6l-7.9,1.9v8.5l7.6,1.8l-4.4,6.9l6,6l6.7-4.1l1.8,7.9h8.5
				l1.8-7.6l6.9,4.3l6-6l-4.1-6.7L405.1,190.4z M382.6,192.4c-1.8,0-3.3-0.7-4.6-2s-2-2.9-2-4.7c0-1.8,0.6-3.4,2-4.7
				c1.3-1.3,2.9-1.9,4.6-1.9c1.8,0,3.4,0.6,4.7,1.9c1.3,1.3,1.9,2.9,1.9,4.7c0,1.8-0.6,3.4-1.9,4.7S384.5,192.4,382.6,192.4z
				 M169.4,177.7v-8.5l-7.6-1.8l4.4-6.9l-6.1-6l-6.6,4.1l-1.8-8h-8.5l-1.8,7.6l-7-4.3l-6,6l4.1,6.7l-7.9,1.8v8.5l7.7,1.8l-4.4,6.9
				l6,6l6.7-4l1.9,7.9h8.5l1.8-7.7l6.9,4.3l6-6.1l-4.1-6.6L169.4,177.7z M146.9,179.7c-1.8,0-3.3-0.6-4.6-1.9s-1.9-2.9-1.9-4.7
				c0-1.8,0.6-3.4,1.9-4.7s2.8-1.9,4.6-1.9c1.8,0,3.4,0.6,4.7,1.9s1.9,2.9,1.9,4.7c0,1.8-0.6,3.4-1.9,4.7S148.7,179.7,146.9,179.7z"
				/>
		</g>
	</g>
</g>
<g id="connectors_copy">
	<g transform="matrix( 1, 0, 0, 1, 0,0) ">
		<g>
			<g id="Layer3_0_FILL">
				<path fill="#FEFEFE" d="M415.8,44.3c-0.2-0.1-0.4-0.1-0.5-0.3c0.1,0.1,0.2,0.1,0.3,0.2C415.6,44.2,415.7,44.3,415.8,44.3
					 M414.5,42.5c0,0.5,0.2,0.9,0.5,1.3c0.1,0.1,0.2,0.2,0.3,0.3c0.2,0.1,0.4,0.2,0.5,0.3c0.2,0,0.3,0,0.5,0h0
					c0.5,0,0.9-0.2,1.3-0.5c0.3-0.4,0.5-0.8,0.5-1.3s-0.2-0.9-0.6-1.3c0,0,0,0,0,0c-0.1-0.1-0.2-0.2-0.4-0.3
					c-0.2-0.1-0.5-0.2-0.9-0.2c-0.5,0-0.9,0.2-1.3,0.5C414.6,41.6,414.5,42,414.5,42.5 M575.8,122.3c-0.3-0.1-0.6-0.2-1-0.2
					c-0.7,0-1.3,0.3-1.8,0.8c-0.6,0.5-0.9,1.2-0.9,2c0,0,0,0.1,0,0.1c0,0.7,0.3,1.3,0.9,1.8c0.4,0.4,0.9,0.7,1.5,0.8
					c0.2,0,0.3,0.1,0.4,0.1c0.7,0,1.4-0.3,2-0.8c0.5-0.6,0.8-1.2,0.8-1.9c0-0.8-0.3-1.4-0.8-2C576.4,122.7,576.1,122.4,575.8,122.3
					 M381.8,142.1c0,0-0.1,0-0.1,0c-0.5,0-0.8,0.2-1.1,0.6c-0.4,0.4-0.5,0.8-0.5,1.3c0,0,0,0.1,0,0.1c0,0.5,0.2,0.9,0.5,1.2
					c0.3,0.4,0.8,0.6,1.3,0.6c0.5,0,0.9-0.2,1.3-0.6c0.3-0.3,0.5-0.7,0.5-1.1c0-0.1,0-0.1,0-0.2c0-0.5-0.2-0.9-0.6-1.3
					C382.7,142.2,382.3,142.1,381.8,142.1 M148.8,129.1c-0.3-0.3-0.7-0.5-1.3-0.6c0,0,0,0-0.1,0c-0.5,0-0.9,0.2-1.3,0.6
					c-0.4,0.4-0.6,0.8-0.6,1.3s0.2,0.9,0.6,1.3c0.3,0.4,0.8,0.6,1.3,0.6c0.5,0,0.9-0.2,1.3-0.6c0.3-0.3,0.5-0.7,0.5-1.2
					c0,0,0-0.1,0-0.1C149.4,129.9,149.2,129.5,148.8,129.1z"/>
			</g>
		</g>
		<g>
			<path id="Layer3_0_1_STROKES" fill="none" stroke="#A3A3A3" stroke-miterlimit="10" d="M507.1,62c0,13.1-4.6,24.3-13.9,33.5
				c-9.3,9.3-20.5,13.9-33.6,13.9c-13.1,0-24.3-4.6-33.5-13.9c-9.3-9.2-13.9-20.4-13.9-33.5c0-6.4,1.1-12.3,3.3-17.8 M415.3,44
				c-0.1-0.1-0.2-0.2-0.3-0.3c-0.4-0.4-0.5-0.8-0.5-1.3h-36.1 M575.8,122.3c2-6,5.4-11.5,10.3-16.3c8.2-8.2,18.1-12.3,29.8-12.3
				c11.6,0,21.5,4.1,29.8,12.3c8.2,8.2,12.3,18.1,12.3,29.8 M572,125C572,125,572,124.9,572,125c0-0.9,0.3-1.5,0.9-2.1
				c0.5-0.6,1.1-0.8,1.8-0.8c0.4,0,0.7,0.1,1,0.2c0.4,0.1,0.7,0.4,0.9,0.6c0.6,0.5,0.8,1.2,0.8,2c0,0.7-0.3,1.4-0.8,1.9
				c-0.6,0.5-1.2,0.8-2,0.8c-0.1,0-0.3,0-0.4,0c-0.5,2.6-0.7,5.3-0.7,8.2c0,11.6,4.1,21.6,12.3,29.8c8.2,8.2,18.1,12.3,29.8,12.3
				 M574.4,127.6c-0.6-0.1-1.1-0.3-1.5-0.8c-0.5-0.5-0.8-1.2-0.9-1.8h-214c-1.7-0.2-3.2-0.9-4.5-2.2c-1.4-1.4-2.2-3.1-2.3-5.1v-10.4
				 M414.5,42.5c0-0.5,0.2-0.9,0.5-1.3c0.3-0.4,0.8-0.5,1.3-0.5c0.3,0,0.6,0.1,0.9,0.2c2.2-4.4,5.2-8.5,9-12.3
				c9.2-9.3,20.4-13.9,33.5-13.9 M417.1,40.8c0.1,0.1,0.3,0.2,0.4,0.3c0,0,0,0,0,0c0.4,0.4,0.6,0.8,0.6,1.3s-0.2,0.9-0.5,1.3
				c-0.4,0.4-0.8,0.5-1.3,0.5h0c-0.1,0-0.3,0-0.4,0c-0.2-0.1-0.4-0.1-0.6-0.3 M381.6,142.1c-0.2-1.6-0.7-3.2-1.5-4.6
				c-0.6-1-1.3-1.9-2.1-2.8c-1.5-1.5-3.2-2.5-5-3.1c-1.1-0.4-2.3-0.6-3.6-0.6h-12.1c-3.4-0.1-6.3-1.3-8.7-3.8
				c-2.4-2.4-3.6-5.3-3.7-8.6v-11.3 M381.6,142.1c0,0,0.1,0,0.1,0c0.5,0,1,0.2,1.3,0.6c0.4,0.4,0.6,0.8,0.6,1.3c0,0,0,0.1,0,0.2
				c10.8,0.5,20,4.6,27.8,12.3c8.2,8.2,12.4,18.1,12.4,29.8c0,11.6-4.1,21.6-12.4,29.8c-8.2,8.2-18.1,12.4-29.8,12.4 M383.6,144.1
				c0,0.4-0.2,0.8-0.5,1.1c-0.4,0.4-0.8,0.6-1.3,0.6c-0.5,0-1-0.2-1.3-0.6c-0.3-0.3-0.5-0.7-0.5-1.2c-10.9,0.4-20.3,4.5-28.2,12.3
				c-8.2,8.2-12.4,18.1-12.4,29.8 M380,144c0,0,0-0.1,0-0.1c0-0.5,0.2-0.9,0.5-1.3c0.3-0.3,0.7-0.5,1.1-0.6 M147.6,128.6
				c0.3-1.5,1-2.9,2.1-4c1.4-1.4,3.1-2.2,5.1-2.3H327c3.4-0.1,6.3-1.3,8.7-3.8c2.4-2.4,3.6-5.3,3.7-8.6v-2.6 M149.4,130.5
				c10.4,0.7,19.3,4.7,26.8,12.3c8.2,8.2,12.3,18.1,12.3,29.8c0,11.6-4.1,21.6-12.3,29.8c-8.2,8.2-18.1,12.3-29.8,12.3 M147.6,128.6
				c0.5,0,0.9,0.2,1.2,0.6c0.4,0.4,0.6,0.8,0.6,1.3c0,0,0,0.1,0,0.1c0,0.5-0.2,0.9-0.5,1.2c-0.4,0.4-0.8,0.6-1.3,0.6
				c-0.5,0-1-0.2-1.3-0.6c-0.4-0.4-0.6-0.8-0.6-1.3c-11.4,0.1-21.1,4.3-29.2,12.4c-8.2,8.2-12.3,18.1-12.3,29.8 M145.7,130.4
				c0-0.5,0.2-0.9,0.6-1.3c0.3-0.4,0.8-0.6,1.3-0.6c0,0,0,0,0.1,0"/>
		</g>
	</g>
</g>
<g id="server_copy">
	<g transform="matrix( 1, 0, 0, 1, 319.05,17.6) ">
		<g transform="matrix( 1, 0, 0, 1, 0,0) ">
			<g>
				<g id="server_0_Layer0_0_FILL">
					<path fill="#5EB9E7" d="M58.7,43.4H0v15.3h58.7V43.4 M7.7,48.5c0.7,0,1.3,0.2,1.8,0.7c0.5,0.5,0.7,1.1,0.7,1.8c0,0,0,0.1,0,0.1
						c0,0.7-0.2,1.2-0.7,1.8c-0.5,0.5-1.2,0.8-1.8,0.8c-0.7,0-1.3-0.3-1.8-0.8c-0.5-0.5-0.8-1.1-0.8-1.8c0,0,0-0.1,0-0.1
						c0-0.7,0.3-1.3,0.8-1.8C6.3,48.7,7,48.5,7.7,48.5 M35.7,51C35.7,51,35.7,51.1,35.7,51c0,0.5-0.1,0.8-0.4,1s-0.5,0.3-0.9,0.3
						c-0.3,0-0.7-0.1-1-0.3c-0.2-0.2-0.3-0.5-0.3-0.9c0,0,0-0.1,0-0.1c0-0.3,0.1-0.6,0.3-0.8c0.3-0.2,0.6-0.4,1-0.4
						c0.4,0,0.7,0.1,0.9,0.4C35.5,50.4,35.7,50.7,35.7,51 M51,51.1c0,0.4-0.1,0.7-0.3,0.9c-0.2,0.2-0.5,0.3-0.9,0.3
						c-0.3,0-0.6-0.1-1-0.3c-0.2-0.2-0.3-0.5-0.3-0.9c0,0,0-0.1,0-0.1c0-0.3,0.2-0.6,0.3-0.8c0.3-0.2,0.6-0.4,1-0.4
						c0.4,0,0.7,0.1,0.9,0.4C50.9,50.4,51,50.7,51,51.1C51,51,51,51.1,51,51.1 M43.3,51C43.3,51,43.3,51.1,43.3,51
						c0,0.5-0.1,0.8-0.4,1c-0.2,0.2-0.5,0.3-0.9,0.3c-0.3,0-0.6-0.1-0.8-0.3c-0.2-0.3-0.4-0.6-0.4-0.9c0,0,0-0.1,0-0.1
						c0-0.3,0.2-0.6,0.4-0.8c0.2-0.2,0.5-0.4,0.8-0.4c0.4,0,0.7,0.1,0.9,0.4C43.2,50.4,43.3,50.7,43.3,51 M43.3,51.1
						C43.3,51.1,43.3,51,43.3,51.1c0-0.4-0.2-0.7-0.4-0.9c-0.2-0.2-0.5-0.4-0.9-0.4c-0.3,0-0.6,0.1-0.8,0.4
						c-0.2,0.3-0.3,0.5-0.4,0.8c0,0,0,0.1,0,0.1c0,0.3,0.2,0.6,0.4,0.8c0.2,0.3,0.5,0.4,0.8,0.4c0.4,0,0.7-0.1,0.9-0.4
						C43.2,51.7,43.3,51.4,43.3,51.1 M51,51.1C51,51.1,51,51,51,51.1c0-0.4-0.1-0.7-0.3-0.9c-0.2-0.2-0.5-0.4-0.9-0.4
						c-0.3,0-0.6,0.1-1,0.4c-0.2,0.3-0.3,0.5-0.3,0.8c0,0,0,0.1,0,0.1c0,0.3,0.2,0.6,0.3,0.8c0.3,0.3,0.6,0.4,1,0.4
						c0.4,0,0.7-0.1,0.9-0.4C50.9,51.7,51,51.4,51,51.1 M35.7,51.1C35.7,51.1,35.7,51,35.7,51.1c0-0.4-0.2-0.7-0.4-0.9
						c-0.2-0.2-0.5-0.4-0.9-0.4c-0.3,0-0.7,0.1-1,0.4c-0.2,0.3-0.3,0.5-0.3,0.8c0,0,0,0.1,0,0.1c0,0.3,0.1,0.6,0.3,0.8
						c0.3,0.3,0.6,0.4,1,0.4c0.4,0,0.7-0.1,0.9-0.4C35.5,51.7,35.7,51.4,35.7,51.1 M7.7,48.5c-0.7,0-1.3,0.3-1.8,0.8
						c-0.5,0.4-0.7,1-0.8,1.7c0,0,0,0.1,0,0.1c0,0.7,0.3,1.2,0.8,1.8c0.5,0.5,1.1,0.7,1.8,0.7s1.3-0.2,1.8-0.7
						c0.5-0.5,0.7-1.1,0.7-1.8c0,0,0-0.1,0-0.1c0-0.7-0.3-1.3-0.7-1.7C9,48.8,8.3,48.5,7.7,48.5 M1.5,87.8c1,1,2.2,1.5,3.6,1.5h48.5
						c1.4,0,2.6-0.5,3.6-1.5c1-1,1.5-2.2,1.5-3.7V74H0v10.2C0,85.6,0.5,86.8,1.5,87.8 M9.5,83.5C9,84,8.3,84.2,7.7,84.2
						S6.3,84,5.8,83.5c-0.5-0.5-0.8-1.2-0.8-1.8c0-0.7,0.3-1.3,0.8-1.8c0.5-0.5,1.1-0.7,1.8-0.7s1.3,0.2,1.8,0.7
						c0.5,0.5,0.7,1.1,0.7,1.8C10.2,82.3,10,83,9.5,83.5 M35.3,80.8c0.2,0.2,0.4,0.5,0.4,0.8c0,0.4-0.1,0.7-0.4,0.9
						c-0.2,0.3-0.5,0.4-0.9,0.4c-0.3,0-0.7-0.1-1-0.4c-0.2-0.2-0.3-0.5-0.3-0.9c0-0.3,0.1-0.6,0.3-0.8c0.3-0.2,0.6-0.4,1-0.4
						C34.8,80.4,35,80.6,35.3,80.8 M50.7,80.8c0.2,0.2,0.3,0.5,0.3,0.8c0,0.4-0.1,0.7-0.3,0.9c-0.2,0.3-0.5,0.4-0.9,0.4
						c-0.3,0-0.6-0.1-1-0.4c-0.2-0.2-0.3-0.5-0.3-0.9c0-0.3,0.1-0.6,0.3-0.8c0.3-0.2,0.6-0.4,1-0.4S50.4,80.6,50.7,80.8 M43,80.8
						c0.3,0.2,0.4,0.5,0.4,0.8c0,0.4-0.1,0.7-0.4,0.9c-0.2,0.3-0.5,0.4-0.9,0.4c-0.3,0-0.6-0.1-0.8-0.4c-0.2-0.3-0.4-0.6-0.4-0.9
						c0-0.3,0.1-0.6,0.4-0.8c0.2-0.2,0.5-0.4,0.8-0.4C42.4,80.4,42.7,80.6,43,80.8 M43.3,81.7c0-0.3-0.1-0.6-0.4-0.8
						c-0.3-0.2-0.6-0.4-0.9-0.4c-0.3,0-0.6,0.1-0.8,0.4c-0.2,0.2-0.4,0.5-0.4,0.8c0,0.3,0.1,0.6,0.4,0.9c0.2,0.3,0.5,0.4,0.8,0.4
						c0.4,0,0.7-0.1,0.9-0.4C43.2,82.3,43.3,82,43.3,81.7 M51,81.7c0-0.3-0.1-0.6-0.3-0.8c-0.3-0.2-0.6-0.4-0.9-0.4s-0.6,0.1-1,0.4
						c-0.2,0.2-0.3,0.5-0.3,0.8c0,0.4,0.1,0.7,0.3,0.9c0.3,0.3,0.6,0.4,1,0.4c0.4,0,0.7-0.1,0.9-0.4C50.9,82.3,51,82,51,81.7
						 M35.7,81.7c0-0.3-0.1-0.6-0.4-0.8c-0.3-0.2-0.6-0.4-0.9-0.4c-0.3,0-0.7,0.1-1,0.4c-0.2,0.2-0.3,0.5-0.3,0.8
						c0,0.4,0.1,0.7,0.3,0.9c0.3,0.3,0.6,0.4,1,0.4c0.4,0,0.7-0.1,0.9-0.4C35.6,82.3,35.7,82,35.7,81.7 M7.7,84.2
						c0.7,0,1.3-0.2,1.8-0.7c0.5-0.5,0.7-1.2,0.7-1.8c0-0.7-0.2-1.3-0.7-1.8c-0.5-0.5-1.2-0.7-1.8-0.7s-1.3,0.2-1.8,0.7
						c-0.5,0.5-0.8,1.1-0.8,1.8c0,0.7,0.3,1.3,0.8,1.8C6.3,84,7,84.2,7.7,84.2 M0,58.7V74h58.7V58.7H0 M35.3,65.5
						c0.2,0.3,0.4,0.6,0.4,0.9c0,0.3-0.1,0.6-0.4,0.8c-0.3,0.2-0.6,0.3-0.9,0.3c-0.3,0-0.7-0.1-1-0.3c-0.2-0.2-0.3-0.5-0.3-0.8
						c0-0.3,0.1-0.6,0.3-0.9c0.3-0.3,0.6-0.4,1-0.4C34.8,65.1,35.1,65.2,35.3,65.5 M7.7,63.8c0.7,0,1.3,0.3,1.8,0.8
						c0.5,0.5,0.7,1.1,0.7,1.8c0,0.7-0.2,1.3-0.7,1.8c-0.5,0.5-1.2,0.7-1.8,0.7s-1.3-0.2-1.8-0.7c-0.5-0.5-0.8-1.1-0.8-1.8
						c0-0.7,0.3-1.3,0.8-1.8S7,63.8,7.7,63.8 M49.8,67.6c-0.3,0-0.6-0.1-1-0.3c-0.2-0.2-0.3-0.5-0.3-0.8c0-0.3,0.1-0.6,0.3-0.9
						c0.3-0.3,0.6-0.4,1-0.4c0.4,0,0.7,0.1,0.9,0.4c0.2,0.3,0.3,0.6,0.3,0.9c0,0.3-0.1,0.6-0.3,0.8C50.4,67.5,50.1,67.6,49.8,67.6
						 M43,65.5c0.3,0.3,0.4,0.6,0.4,0.9c0,0.3-0.1,0.6-0.4,0.8c-0.3,0.2-0.6,0.3-0.9,0.3c-0.3,0-0.6-0.1-0.8-0.3
						c-0.2-0.2-0.4-0.5-0.4-0.8c0-0.3,0.1-0.6,0.4-0.9c0.2-0.3,0.5-0.4,0.8-0.4C42.4,65.1,42.7,65.2,43,65.5 M43.3,66.4
						c0-0.3-0.1-0.6-0.4-0.9c-0.2-0.3-0.5-0.4-0.9-0.4c-0.3,0-0.6,0.1-0.8,0.4c-0.2,0.3-0.4,0.6-0.4,0.9c0,0.3,0.1,0.6,0.4,0.8
						c0.2,0.2,0.5,0.3,0.8,0.3c0.3,0,0.6-0.1,0.9-0.3C43.2,67,43.3,66.7,43.3,66.4 M48.8,67.3c0.3,0.2,0.6,0.3,1,0.3
						s0.6-0.1,0.9-0.3c0.2-0.2,0.3-0.5,0.3-0.8c0-0.3-0.1-0.6-0.3-0.9c-0.2-0.3-0.5-0.4-0.9-0.4c-0.3,0-0.6,0.1-1,0.4
						c-0.2,0.3-0.3,0.6-0.3,0.9C48.5,66.7,48.6,67,48.8,67.3 M9.5,64.6c-0.5-0.5-1.2-0.8-1.8-0.8c-0.7,0-1.3,0.3-1.8,0.8
						s-0.8,1.1-0.8,1.8c0,0.7,0.3,1.3,0.8,1.8c0.5,0.5,1.1,0.7,1.8,0.7s1.3-0.2,1.8-0.7c0.5-0.5,0.7-1.1,0.7-1.8
						C10.2,65.7,10,65.1,9.5,64.6 M35.7,66.4c0-0.3-0.1-0.6-0.4-0.9s-0.5-0.4-0.9-0.4c-0.3,0-0.7,0.1-1,0.4
						c-0.2,0.3-0.3,0.6-0.3,0.9c0,0.3,0.1,0.6,0.3,0.8c0.3,0.2,0.6,0.3,1,0.3c0.3,0,0.6-0.1,0.9-0.3C35.6,67,35.7,66.7,35.7,66.4
						 M58.7,28V12.8H0V28H58.7 M43.3,20.5c0,0.4-0.1,0.7-0.4,0.9c-0.2,0.2-0.5,0.4-0.9,0.4c-0.3,0-0.6-0.1-0.8-0.4
						c-0.2-0.3-0.4-0.6-0.4-0.9s0.1-0.6,0.4-1c0.2-0.2,0.5-0.4,0.8-0.4c0.4,0,0.7,0.1,0.9,0.4C43.2,19.8,43.3,20.1,43.3,20.5
						 M48.8,19.5c0.3-0.2,0.6-0.4,1-0.4c0.4,0,0.7,0.1,0.9,0.4c0.2,0.3,0.3,0.6,0.3,1c0,0.4-0.1,0.7-0.3,0.9
						c-0.2,0.2-0.5,0.4-0.9,0.4c-0.3,0-0.6-0.1-1-0.4c-0.2-0.2-0.3-0.5-0.3-0.9C48.5,20.1,48.6,19.8,48.8,19.5 M35.7,20.5
						c0,0.4-0.1,0.7-0.4,0.9s-0.5,0.4-0.9,0.4c-0.3,0-0.7-0.1-1-0.4c-0.2-0.2-0.3-0.5-0.3-0.9c0-0.3,0.1-0.6,0.3-1
						c0.3-0.2,0.6-0.4,1-0.4c0.4,0,0.7,0.1,0.9,0.4C35.6,19.8,35.7,20.1,35.7,20.5 M9.5,22.2C9,22.7,8.3,23,7.7,23s-1.3-0.3-1.8-0.8
						c-0.5-0.5-0.8-1.1-0.8-1.8c0-0.7,0.3-1.3,0.8-1.8c0.5-0.5,1.1-0.8,1.8-0.8s1.3,0.3,1.8,0.8c0.5,0.5,0.7,1.1,0.7,1.8
						C10.2,21.1,10,21.7,9.5,22.2 M7.7,23c0.7,0,1.3-0.3,1.8-0.8c0.5-0.5,0.7-1.1,0.7-1.8c0-0.7-0.2-1.3-0.7-1.8
						c-0.5-0.5-1.2-0.8-1.8-0.8s-1.3,0.3-1.8,0.8c-0.5,0.5-0.8,1.1-0.8,1.8c0,0.7,0.3,1.3,0.8,1.8C6.3,22.7,7,23,7.7,23 M35.3,21.4
						c0.2-0.2,0.4-0.5,0.4-0.9c0-0.3-0.1-0.6-0.4-1c-0.2-0.2-0.5-0.4-0.9-0.4c-0.3,0-0.7,0.1-1,0.4c-0.2,0.3-0.3,0.6-0.3,1
						c0,0.4,0.1,0.7,0.3,0.9c0.3,0.2,0.6,0.4,1,0.4C34.8,21.7,35.1,21.6,35.3,21.4 M49.8,19.1c-0.3,0-0.6,0.1-1,0.4
						c-0.2,0.3-0.3,0.6-0.3,1c0,0.4,0.1,0.7,0.3,0.9c0.3,0.2,0.6,0.4,1,0.4c0.4,0,0.7-0.1,0.9-0.4c0.2-0.2,0.3-0.5,0.3-0.9
						c0-0.3-0.1-0.6-0.3-1C50.4,19.3,50.1,19.1,49.8,19.1 M43,21.4c0.3-0.2,0.4-0.5,0.4-0.9c0-0.3-0.1-0.6-0.4-1
						c-0.2-0.2-0.5-0.4-0.9-0.4c-0.3,0-0.6,0.1-0.8,0.4c-0.2,0.3-0.4,0.6-0.4,1s0.1,0.6,0.4,0.9c0.2,0.2,0.5,0.4,0.8,0.4
						C42.4,21.7,42.7,21.6,43,21.4 M58.6,43.3L58.6,43.3L58.7,28H0v15.3H0L0,43.4L58.6,43.3L58.6,43.3 M50.7,34.8
						c0.2,0.3,0.3,0.6,0.3,0.9s-0.1,0.6-0.3,0.8c0,0-0.1,0.1-0.1,0.1C50.3,36.9,50,37,49.8,37c-0.3,0-0.6-0.1-1-0.4
						c-0.2-0.2-0.3-0.5-0.3-0.8c0-0.2,0.1-0.5,0.2-0.7c0-0.1,0.1-0.2,0.1-0.3c0.3-0.3,0.6-0.4,1-0.4C50.1,34.5,50.4,34.6,50.7,34.8
						 M43,34.8c0.3,0.3,0.4,0.6,0.4,0.9c0,0.3-0.1,0.6-0.4,0.8C42.7,36.8,42.4,37,42,37c-0.3,0-0.6-0.1-0.8-0.4
						c-0.2-0.2-0.4-0.5-0.4-0.8s0.1-0.6,0.4-0.9c0.2-0.3,0.5-0.4,0.8-0.4C42.4,34.5,42.7,34.6,43,34.8 M5.1,35.8
						c0-0.7,0.3-1.3,0.8-1.8s1.1-0.8,1.8-0.8S9,33.5,9.5,34c0.3,0.3,0.5,0.6,0.6,1c0.1,0.3,0.1,0.5,0.1,0.8c0,0.7-0.2,1.3-0.7,1.8
						C9,38,8.3,38.3,7.7,38.3c-0.4,0-0.8-0.1-1.2-0.3c-0.2-0.1-0.5-0.3-0.7-0.5C5.3,37,5.1,36.4,5.1,35.8 M35.3,34.8
						c0.2,0.3,0.4,0.6,0.4,0.9s-0.1,0.6-0.4,0.8C35,36.8,34.8,37,34.5,37c-0.3,0-0.7-0.1-1-0.4c-0.2-0.2-0.3-0.5-0.3-0.8
						s0.1-0.6,0.3-0.9c0.3-0.3,0.6-0.4,1-0.4C34.8,34.5,35.1,34.6,35.3,34.8 M35.7,35.8c0-0.3-0.1-0.6-0.4-0.9s-0.5-0.4-0.9-0.4
						c-0.3,0-0.7,0.1-1,0.4c-0.2,0.3-0.3,0.6-0.3,0.9s0.1,0.6,0.3,0.8c0.3,0.2,0.6,0.4,1,0.4c0.3,0,0.6-0.1,0.9-0.4
						C35.6,36.4,35.7,36.1,35.7,35.8 M5.8,34c-0.5,0.5-0.8,1.1-0.8,1.8c0,0.7,0.3,1.3,0.8,1.8C6,37.7,6.3,37.9,6.5,38
						c0.3,0.2,0.7,0.3,1.2,0.3c0.7,0,1.3-0.2,1.8-0.7c0.5-0.5,0.7-1.1,0.7-1.8c0-0.3,0-0.5-0.1-0.8c-0.1-0.4-0.3-0.7-0.6-1
						c-0.5-0.5-1.2-0.8-1.8-0.8S6.3,33.5,5.8,34 M43.3,35.8c0-0.3-0.1-0.6-0.4-0.9c-0.2-0.3-0.5-0.4-0.9-0.4c-0.3,0-0.6,0.1-0.8,0.4
						c-0.2,0.3-0.4,0.6-0.4,0.9s0.1,0.6,0.4,0.8c0.2,0.2,0.5,0.4,0.8,0.4c0.3,0,0.6-0.1,0.9-0.4C43.2,36.4,43.3,36.1,43.3,35.8
						 M51,35.8c0-0.3-0.1-0.6-0.3-0.9c-0.2-0.3-0.5-0.4-0.9-0.4c-0.3,0-0.6,0.1-1,0.4c-0.1,0.1-0.1,0.2-0.1,0.3
						c-0.1,0.2-0.2,0.4-0.2,0.7c0,0.3,0.1,0.6,0.3,0.8c0.3,0.2,0.6,0.4,1,0.4c0.3,0,0.6-0.1,0.8-0.3c0,0,0-0.1,0.1-0.1
						C50.9,36.4,51,36.1,51,35.8 M58.7,12.8L43.3,0H15.3L0,12.8H58.7z"/>
				</g>
			</g>
			<g>
				<path id="server_0_Layer0_0_1_STROKES" fill="none" stroke="#000000" stroke-linecap="round" stroke-linejoin="round" d="
					M43.3,20.5c0,0.4-0.1,0.7-0.4,0.9c-0.2,0.2-0.5,0.4-0.9,0.4c-0.3,0-0.6-0.1-0.8-0.4c-0.2-0.3-0.4-0.6-0.4-0.9s0.1-0.6,0.4-1
					c0.2-0.2,0.5-0.4,0.8-0.4c0.4,0,0.7,0.1,0.9,0.4C43.2,19.8,43.3,20.1,43.3,20.5z M51,20.5c0,0.4-0.1,0.7-0.3,0.9
					c-0.2,0.2-0.5,0.4-0.9,0.4c-0.3,0-0.6-0.1-1-0.4c-0.2-0.2-0.3-0.5-0.3-0.9c0-0.3,0.1-0.6,0.3-1c0.3-0.2,0.6-0.4,1-0.4
					c0.4,0,0.7,0.1,0.9,0.4C50.9,19.8,51,20.1,51,20.5z M0,43.3V28V12.8L15.3,0h28.1l15.3,12.8V28v15.3v0.1v15.3V74v10.2
					c0,1.4-0.5,2.7-1.5,3.7c-1,1-2.2,1.5-3.6,1.5H5.1c-1.4,0-2.6-0.5-3.6-1.5S0,85.6,0,84.2V74V58.7V43.3L0,43.3L0,43.3L0,43.3
					l58.7,0.1l-0.1-0.1h0.1 M51,35.8c0,0.3-0.1,0.6-0.3,0.8c0,0-0.1,0.1-0.1,0.1C50.3,36.9,50,37,49.8,37c-0.3,0-0.6-0.1-1-0.4
					c-0.2-0.2-0.3-0.5-0.3-0.8c0-0.2,0.1-0.5,0.2-0.7c0-0.1,0.1-0.2,0.1-0.3c0.3-0.3,0.6-0.4,1-0.4c0.4,0,0.7,0.1,0.9,0.4
					C50.9,35.1,51,35.4,51,35.8z M43.3,35.8c0,0.3-0.1,0.6-0.4,0.8C42.7,36.8,42.4,37,42,37c-0.3,0-0.6-0.1-0.8-0.4
					c-0.2-0.2-0.4-0.5-0.4-0.8s0.1-0.6,0.4-0.9c0.2-0.3,0.5-0.4,0.8-0.4c0.4,0,0.7,0.1,0.9,0.4C43.2,35.1,43.3,35.4,43.3,35.8z
					 M35.7,20.5c0,0.4-0.1,0.7-0.4,0.9s-0.5,0.4-0.9,0.4c-0.3,0-0.7-0.1-1-0.4c-0.2-0.2-0.3-0.5-0.3-0.9c0-0.3,0.1-0.6,0.3-1
					c0.3-0.2,0.6-0.4,1-0.4c0.4,0,0.7,0.1,0.9,0.4C35.6,19.8,35.7,20.1,35.7,20.5z M10.2,20.5c0,0.7-0.2,1.3-0.7,1.8
					C9,22.7,8.3,23,7.7,23s-1.3-0.3-1.8-0.8c-0.5-0.5-0.8-1.1-0.8-1.8c0-0.7,0.3-1.3,0.8-1.8c0.5-0.5,1.1-0.8,1.8-0.8
					s1.3,0.3,1.8,0.8C10,19.1,10.2,19.7,10.2,20.5z M10.2,35.8c0,0.7-0.2,1.3-0.7,1.8C9,38,8.3,38.3,7.7,38.3
					c-0.4,0-0.8-0.1-1.2-0.3c-0.2-0.1-0.5-0.3-0.7-0.5c-0.5-0.5-0.8-1.1-0.8-1.8c0-0.7,0.3-1.3,0.8-1.8s1.1-0.8,1.8-0.8
					S9,33.5,9.5,34c0.3,0.3,0.5,0.6,0.6,1C10.2,35.2,10.2,35.5,10.2,35.8z M5.1,51c0-0.7,0.3-1.3,0.8-1.8c0.5-0.5,1.1-0.7,1.8-0.7
					s1.3,0.2,1.8,0.7c0.5,0.5,0.7,1.1,0.7,1.8c0,0,0,0.1,0,0.1c0,0.7-0.2,1.2-0.7,1.8c-0.5,0.5-1.2,0.8-1.8,0.8
					c-0.7,0-1.3-0.3-1.8-0.8C5.3,52.3,5.1,51.8,5.1,51C5.1,51.1,5.1,51,5.1,51c0-0.7,0.3-1.3,0.8-1.7c0.5-0.5,1.1-0.8,1.8-0.8
					s1.3,0.3,1.8,0.8c0.4,0.4,0.7,1,0.7,1.7 M35.7,35.8c0,0.3-0.1,0.6-0.4,0.8C35,36.8,34.8,37,34.5,37c-0.3,0-0.7-0.1-1-0.4
					c-0.2-0.2-0.3-0.5-0.3-0.8s0.1-0.6,0.3-0.9c0.3-0.3,0.6-0.4,1-0.4c0.4,0,0.7,0.1,0.9,0.4S35.7,35.4,35.7,35.8z M33.2,51.1
					C33.2,51.1,33.2,51,33.2,51.1c0-0.4,0.1-0.7,0.3-0.9c0.3-0.2,0.6-0.4,1-0.4c0.4,0,0.7,0.1,0.9,0.4c0.2,0.3,0.3,0.5,0.4,0.8
					c0,0,0,0.1,0,0.1c0,0.4-0.1,0.7-0.4,0.9s-0.5,0.3-0.9,0.3c-0.3,0-0.7-0.1-1-0.3C33.3,51.8,33.2,51.5,33.2,51.1
					c0,0.3,0.1,0.6,0.3,0.8c0.3,0.3,0.6,0.4,1,0.4c0.4,0,0.7-0.1,0.9-0.4c0.2-0.2,0.3-0.5,0.4-0.8 M35.7,66.4c0,0.3-0.1,0.6-0.4,0.8
					c-0.3,0.2-0.6,0.3-0.9,0.3c-0.3,0-0.7-0.1-1-0.3c-0.2-0.2-0.3-0.5-0.3-0.8c0-0.3,0.1-0.6,0.3-0.9c0.3-0.3,0.6-0.4,1-0.4
					c0.4,0,0.7,0.1,0.9,0.4S35.7,66.1,35.7,66.4z M9.5,52.8c-0.5,0.5-1.2,0.7-1.8,0.7s-1.3-0.2-1.8-0.7 M10.2,66.4
					c0,0.7-0.2,1.3-0.7,1.8c-0.5,0.5-1.2,0.7-1.8,0.7s-1.3-0.2-1.8-0.7c-0.5-0.5-0.8-1.1-0.8-1.8c0-0.7,0.3-1.3,0.8-1.8
					s1.1-0.8,1.8-0.8c0.7,0,1.3,0.3,1.8,0.8C10,65.1,10.2,65.7,10.2,66.4z M10.2,81.7c0,0.7-0.2,1.3-0.7,1.8C9,84,8.3,84.2,7.7,84.2
					S6.3,84,5.8,83.5c-0.5-0.5-0.8-1.2-0.8-1.8c0-0.7,0.3-1.3,0.8-1.8c0.5-0.5,1.1-0.7,1.8-0.7s1.3,0.2,1.8,0.7
					C10,80.4,10.2,81,10.2,81.7z M35.7,81.7c0,0.4-0.1,0.7-0.4,0.9c-0.2,0.3-0.5,0.4-0.9,0.4c-0.3,0-0.7-0.1-1-0.4
					c-0.2-0.2-0.3-0.5-0.3-0.9c0-0.3,0.1-0.6,0.3-0.8c0.3-0.2,0.6-0.4,1-0.4c0.3,0,0.6,0.1,0.9,0.4C35.6,81,35.7,81.3,35.7,81.7z
					 M51,51.1c0,0.4-0.1,0.7-0.3,0.9c-0.2,0.2-0.5,0.3-0.9,0.3c-0.3,0-0.6-0.1-1-0.3c-0.2-0.2-0.3-0.5-0.3-0.9c0,0,0-0.1,0-0.1
					c0-0.3,0.2-0.6,0.3-0.8c0.3-0.2,0.6-0.4,1-0.4c0.4,0,0.7,0.1,0.9,0.4C50.9,50.4,51,50.7,51,51.1C51,51,51,51.1,51,51.1
					c0,0.3-0.1,0.6-0.3,0.8c-0.2,0.3-0.5,0.4-0.9,0.4c-0.3,0-0.6-0.1-1-0.4c-0.2-0.2-0.3-0.5-0.3-0.8 M40.8,51.1
					C40.8,51.1,40.8,51,40.8,51.1c0-0.4,0.2-0.7,0.4-0.9c0.2-0.2,0.5-0.4,0.8-0.4c0.4,0,0.7,0.1,0.9,0.4c0.2,0.3,0.4,0.5,0.4,0.8
					c0,0,0,0.1,0,0.1c0,0.4-0.1,0.7-0.4,0.9c-0.2,0.2-0.5,0.3-0.9,0.3c-0.3,0-0.6-0.1-0.8-0.3C41,51.7,40.8,51.4,40.8,51.1
					c0,0.3,0.2,0.6,0.4,0.8c0.2,0.3,0.5,0.4,0.8,0.4c0.4,0,0.7-0.1,0.9-0.4c0.2-0.2,0.4-0.5,0.4-0.8 M51,66.4c0,0.3-0.1,0.6-0.3,0.8
					c-0.3,0.2-0.6,0.3-0.9,0.3s-0.6-0.1-1-0.3c-0.2-0.2-0.3-0.5-0.3-0.8c0-0.3,0.1-0.6,0.3-0.9c0.3-0.3,0.6-0.4,1-0.4
					c0.4,0,0.7,0.1,0.9,0.4C50.9,65.8,51,66.1,51,66.4z M43.3,66.4c0,0.3-0.1,0.6-0.4,0.8c-0.3,0.2-0.6,0.3-0.9,0.3
					c-0.3,0-0.6-0.1-0.8-0.3c-0.2-0.2-0.4-0.5-0.4-0.8c0-0.3,0.1-0.6,0.4-0.9c0.2-0.3,0.5-0.4,0.8-0.4c0.4,0,0.7,0.1,0.9,0.4
					C43.2,65.8,43.3,66.1,43.3,66.4z M51,81.7c0,0.4-0.1,0.7-0.3,0.9c-0.2,0.3-0.5,0.4-0.9,0.4c-0.3,0-0.6-0.1-1-0.4
					c-0.2-0.2-0.3-0.5-0.3-0.9c0-0.3,0.1-0.6,0.3-0.8c0.3-0.2,0.6-0.4,1-0.4s0.6,0.1,0.9,0.4C50.9,81,51,81.3,51,81.7z M43.3,81.7
					c0,0.4-0.1,0.7-0.4,0.9c-0.2,0.3-0.5,0.4-0.9,0.4c-0.3,0-0.6-0.1-0.8-0.4c-0.2-0.3-0.4-0.6-0.4-0.9c0-0.3,0.1-0.6,0.4-0.8
					c0.2-0.2,0.5-0.4,0.8-0.4c0.3,0,0.6,0.1,0.9,0.4C43.2,81,43.3,81.3,43.3,81.7z M0,12.8h58.7 M58.7,28H0 M0,74h58.7 M58.7,58.7H0
					"/>
			</g>
		</g>
	</g>
</g>
<g id="interface_copy">
	<g transform="matrix( 1, 0, 0, 1, -469.35,-413.5) ">
		<g>
			<path id="Layer1_0_MEMBER_0_1_STROKES" fill="none" stroke="#FEFEFE" stroke-miterlimit="10" d="M904,461h52.8"/>
		</g>
	</g>
	<g transform="matrix( 1, 0, 0, 1, -469.35,-413.5) ">
		<g>
			<path id="Layer1_0_MEMBER_1_1_STROKES" fill="none" stroke="#FEFEFE" stroke-miterlimit="10" d="M913.2,455.3
				c0,0.3-0.1,0.6-0.4,0.8c-0.2,0.2-0.5,0.4-0.8,0.4c-0.3,0-0.6-0.1-0.8-0.4c-0.2-0.2-0.4-0.5-0.4-0.8c0-0.3,0.1-0.6,0.4-0.8
				c0.2-0.2,0.5-0.4,0.8-0.4s0.6,0.1,0.8,0.4C913,454.7,913.2,455,913.2,455.3z"/>
		</g>
	</g>
	<g transform="matrix( 1, 0, 0, 1, -469.35,-413.5) ">
		<g>
			<path id="Layer1_0_MEMBER_2_1_STROKES" fill="none" stroke="#FEFEFE" stroke-miterlimit="10" d="M920,455.3
				c0,0.3-0.1,0.6-0.3,0.8c-0.2,0.2-0.5,0.4-0.8,0.4c-0.3,0-0.6-0.1-0.8-0.4c-0.2-0.2-0.3-0.5-0.3-0.8c0-0.3,0.1-0.6,0.3-0.8
				c0.2-0.2,0.5-0.4,0.8-0.4c0.3,0,0.6,0.1,0.8,0.4C919.9,454.7,920,455,920,455.3z"/>
		</g>
	</g>
	<g transform="matrix( 1, 0, 0, 1, -469.35,-413.5) ">
		<g>
			<path id="Layer1_0_MEMBER_3_1_STROKES" fill="none" stroke="#FEFEFE" stroke-miterlimit="10" d="M927,455.3
				c0,0.3-0.1,0.6-0.4,0.8c-0.2,0.2-0.5,0.4-0.8,0.4c-0.3,0-0.6-0.1-0.8-0.4c-0.2-0.2-0.3-0.5-0.3-0.8c0-0.3,0.1-0.6,0.3-0.8
				c0.2-0.2,0.5-0.4,0.8-0.4c0.3,0,0.6,0.1,0.8,0.4C926.8,454.7,927,455,927,455.3z"/>
		</g>
	</g>
	<g transform="matrix( 1, 0, 0, 1, -469.35,-413.5) ">
		<g>
			<path id="Layer1_0_MEMBER_4_1_STROKES" fill="none" stroke="#FEFEFE" stroke-miterlimit="10" d="M922.3,461v39.9"/>
		</g>
	</g>
	<g transform="matrix( 1, 0, 0, 1, -469.35,-413.5) ">
		<g>
			<path id="Layer1_0_MEMBER_5_1_STROKES" fill="none" stroke="#FEFEFE" stroke-miterlimit="10" d="M949.9,477.1h-20.7v-11.5h20.7
				V477.1z"/>
		</g>
	</g>
	<g transform="matrix( 1, 0, 0, 1, -469.35,-413.5) ">
		<g>
			<path id="Layer1_0_MEMBER_6_1_STROKES" fill="none" stroke="#FEFEFE" stroke-miterlimit="10" d="M949.9,495.5h-20.7V484h20.7
				V495.5z"/>
		</g>
	</g>
	<g transform="matrix( 1, 0, 0, 1, -469.35,-413.5) ">
		<g>
			<path id="Layer1_0_MEMBER_7_1_STROKES" fill="none" stroke="#FEFEFE" stroke-miterlimit="10" d="M908.6,465.6h4.6"/>
		</g>
	</g>
	<g transform="matrix( 1, 0, 0, 1, -469.35,-413.5) ">
		<g>
			<path id="Layer1_0_MEMBER_8_1_STROKES" fill="none" stroke="#FEFEFE" stroke-miterlimit="10" d="M913.2,470.3h4.5"/>
		</g>
	</g>
	<g transform="matrix( 1, 0, 0, 1, -469.35,-413.5) ">
		<g>
			<path id="Layer1_0_MEMBER_9_1_STROKES" fill="none" stroke="#FEFEFE" stroke-miterlimit="10" d="M913.2,474.9h4.5"/>
		</g>
	</g>
	<g transform="matrix( 1, 0, 0, 1, -469.35,-413.5) ">
		<g>
			<path id="Layer1_0_MEMBER_10_1_STROKES" fill="none" stroke="#FEFEFE" stroke-miterlimit="10" d="M913.2,479.5h4.5"/>
		</g>
	</g>
	<g transform="matrix( 1, 0, 0, 1, -469.35,-413.5) ">
		<g>
			<path id="Layer1_0_MEMBER_11_1_STROKES" fill="none" stroke="#FEFEFE" stroke-miterlimit="10" d="M908.6,484h4.6"/>
		</g>
	</g>
	<g transform="matrix( 1, 0, 0, 1, -469.35,-413.5) ">
		<g>
			<path id="Layer1_0_MEMBER_12_1_STROKES" fill="none" stroke="#FEFEFE" stroke-miterlimit="10" d="M913.2,488.6h4.5"/>
		</g>
	</g>
	<g transform="matrix( 1, 0, 0, 1, -469.35,-413.5) ">
		<g>
			<path id="Layer1_0_MEMBER_13_1_STROKES" fill="none" stroke="#FEFEFE" stroke-miterlimit="10" d="M913.2,493.2h4.5"/>
		</g>
	</g>
</g>
</svg>
