<?xml version="1.0" encoding="utf-8"?>
<!-- Generator: Adobe Illustrator 23.0.1, SVG Export Plug-In . SVG Version: 6.00 Build 0)  -->
<svg version="1.1" id="Layer_assss1" xmlns="http://www.w3.org/2000/svg" xmlns:xlink="http://www.w3.org/1999/xlink" x="0px" y="0px"
	 viewBox="0 0 750 400" enable-background="new 0 0 750 400" xml:space="preserve">
<g id="clouds_bits_copy_4">
	<g transform="matrix( 1, 0, 0, 1, -358,-481) ">
		<g>
			<g id="Layer6_2_FILL">
				<path fill="#BAD727" d="M458.9,578c0-0.5-0.2-1-0.6-1.3c-0.4-0.4-0.8-0.6-1.3-0.6c-0.5,0-1,0.2-1.4,0.6
					c-0.4,0.4-0.6,0.8-0.6,1.3s0.2,1,0.6,1.4c0.4,0.4,0.8,0.5,1.4,0.5c0.5,0,1-0.2,1.3-0.5C458.7,579,458.9,578.5,458.9,578z"/>
			</g>
		</g>
	</g>
	<g transform="matrix( 1, 0, 0, 1, -605.6,-161.15) ">
		<g>
			<g id="Layer6_3_FILL">
				<path fill="#BAD727" d="M851.7,428.8c0-0.5-0.2-1-0.6-1.3c-0.4-0.4-0.8-0.6-1.3-0.6s-1,0.2-1.4,0.6c-0.4,0.4-0.5,0.8-0.5,1.3
					c0,0.5,0.2,1,0.5,1.4c0.4,0.4,0.8,0.6,1.4,0.6c0.5,0,1-0.2,1.3-0.6C851.5,429.8,851.7,429.3,851.7,428.8z"/>
			</g>
		</g>
	</g>
	<g transform="matrix( 1, 0, 0, 1, -4.7,-243) ">
		<g>
			<g id="Layer6_4_FILL">
				<path fill="#F7571A" d="M598,321.3c0-0.5-0.2-1-0.6-1.3c-0.4-0.4-0.8-0.6-1.4-0.6s-1,0.2-1.3,0.6c-0.4,0.4-0.5,0.8-0.5,1.3
					c0,0.5,0.2,1,0.5,1.4c0.4,0.4,0.8,0.6,1.3,0.6s1-0.2,1.4-0.6C597.8,322.3,598,321.8,598,321.3z"/>
			</g>
		</g>
	</g>
	<g transform="matrix( 1, 0, 0, 1, -10.4,-286.15) ">
		<g>
			<g id="Layer6_5_FILL">
				<path fill="#F7571A" d="M520.9,449.9c0-0.5-0.2-1-0.6-1.4c-0.4-0.4-0.8-0.5-1.3-0.5s-1,0.2-1.4,0.5c-0.4,0.4-0.5,0.8-0.5,1.4
					c0,0.5,0.2,1,0.5,1.4c0.4,0.4,0.8,0.6,1.4,0.6s1-0.2,1.3-0.6C520.7,450.9,520.9,450.4,520.9,449.9z"/>
			</g>
		</g>
	</g>
	<g transform="matrix( 1, 0, 0, 1, -235.9,-255.95) ">
		<g>
			<g id="Layer6_6_FILL">
				<path fill="#DEDEDE" d="M454,529.6c0-1.1-0.4-2-1.1-2.8c-0.8-0.7-1.7-1.1-2.8-1.1c-1.1,0-2,0.4-2.7,1.1
					c-0.7,0.8-1.1,1.7-1.1,2.8c0,1.1,0.4,2,1.1,2.7c0.8,0.7,1.7,1.1,2.7,1.1c1.1,0,2-0.4,2.8-1.1C453.6,531.6,454,530.7,454,529.6z"
					/>
			</g>
		</g>
	</g>
	<g transform="matrix( 1, 0, 0, 1, -347.3,-260.6) ">
		<g>
			<g id="Layer6_7_FILL">
				<path fill="#DEDEDE" d="M848.8,493.6c-0.4-0.4-0.8-0.5-1.4-0.5c-0.5,0-1,0.2-1.4,0.5c-0.4,0.4-0.5,0.9-0.5,1.4
					c0,0.5,0.2,1,0.5,1.4c0.4,0.4,0.8,0.6,1.4,0.6c0.5,0,1-0.2,1.4-0.6c0.4-0.4,0.6-0.8,0.6-1.4
					C849.4,494.5,849.2,494.1,848.8,493.6z"/>
			</g>
		</g>
	</g>
	<g transform="matrix( 1, 0, 0, 1, -238.6,-250.6) ">
		<g>
			<g id="Layer6_8_FILL">
				<path fill="#D1D1D1" d="M844.5,583.7c0-1.1-0.4-2-1.1-2.7c-0.8-0.7-1.7-1.1-2.8-1.1c-1.1,0-2,0.4-2.7,1.1
					c-0.8,0.8-1.2,1.7-1.2,2.7c0,1.1,0.4,2,1.2,2.8c0.7,0.7,1.6,1.1,2.7,1.1c1.1,0,2-0.4,2.8-1.1
					C844.1,585.7,844.5,584.8,844.5,583.7z"/>
			</g>
		</g>
	</g>
	<g transform="matrix( 1, 0, 0, 1, -602.5,-241.75) ">
		<g>
			<path id="Layer6_9_1_STROKES" fill="none" stroke="#BFBFBF" stroke-width="2" stroke-miterlimit="10" d="M855,350.9
				c0,0.9-0.3,1.7-1,2.3c-0.6,0.6-1.4,1-2.3,1c-0.9,0-1.7-0.3-2.3-1c-0.6-0.6-1-1.4-1-2.3c0-0.9,0.3-1.6,1-2.3c0.6-0.6,1.4-1,2.3-1
				c0.9,0,1.6,0.3,2.3,1C854.7,349.2,855,350,855,350.9z"/>
		</g>
	</g>
	<g transform="matrix( 1, 0, 0, 1, -305.2,-230.6) ">
		<g>
			<path id="Layer6_10_1_STROKES" fill="none" stroke="#BFBFBF" stroke-width="2" stroke-miterlimit="10" d="M678.5,551.5
				c0,0.9-0.3,1.7-1,2.3s-1.4,1-2.3,1c-0.9,0-1.7-0.3-2.3-1c-0.6-0.6-1-1.4-1-2.3s0.3-1.7,1-2.3c0.6-0.6,1.4-1,2.3-1
				c0.9,0,1.6,0.3,2.3,1C678.1,549.8,678.5,550.5,678.5,551.5z"/>
		</g>
	</g>
	<g transform="matrix( 1, 0, 0, 1, -287.6,-198.6) ">
		<g>
			<path id="Layer6_11_1_STROKES" fill="none" stroke="#BFBFBF" stroke-width="2" stroke-miterlimit="10" d="M619.5,264.3
				c0,0.9-0.3,1.7-1,2.3c-0.6,0.6-1.4,0.9-2.3,0.9c-0.9,0-1.6-0.3-2.3-0.9c-0.6-0.6-1-1.4-1-2.3c0-0.9,0.3-1.6,1-2.3
				c0.6-0.6,1.4-0.9,2.3-0.9c0.9,0,1.7,0.3,2.3,0.9S619.5,263.4,619.5,264.3z"/>
		</g>
	</g>
	<g transform="matrix( 1, 0, 0, 1, -287.6,-198.6) ">
		<g>
			<g id="Layer6_12_MEMBER_0_FILL">
				<path fill="#83C4EC" d="M506.5,271.5h7c0.3,0,0.5-0.1,0.7-0.3c0.2-0.2,0.3-0.4,0.3-0.7c0-0.3-0.1-0.5-0.3-0.7
					c-0.2-0.2-0.4-0.3-0.7-0.3h-7c-0.6,0-0.9,0.3-0.9,0.9c0,0.3,0.1,0.5,0.3,0.7C506.1,271.4,506.3,271.5,506.5,271.5z"/>
			</g>
		</g>
	</g>
	<g transform="matrix( 1, 0, 0, 1, -287.6,-198.6) ">
		<g>
			<g id="Layer6_12_MEMBER_1_FILL">
				<path fill="#83C4EC" d="M509.4,266.4c-0.2,0.2-0.3,0.4-0.3,0.6v7c0,0.3,0.1,0.5,0.3,0.7c0.2,0.2,0.4,0.3,0.6,0.3
					c0.6,0,1-0.3,1-1v-7c0-0.3-0.1-0.5-0.3-0.6c-0.2-0.2-0.4-0.3-0.7-0.3C509.8,266,509.6,266.1,509.4,266.4z"/>
			</g>
		</g>
	</g>
	<g transform="matrix( 1, 0, 0, 1, -476.8,-333.4) ">
		<g>
			<g id="Layer6_13_MEMBER_0_FILL">
				<path fill="#83C4EC" d="M909.2,384.4c0.2,0.2,0.4,0.3,0.6,0.3h7.1c0.3,0,0.5-0.1,0.7-0.3c0.2-0.2,0.2-0.4,0.3-0.6
					c0-0.6-0.3-1-0.9-1h-7.1c-0.3,0-0.5,0.1-0.6,0.3c-0.2,0.2-0.3,0.4-0.3,0.7C908.9,384,909,384.2,909.2,384.4z"/>
			</g>
		</g>
	</g>
	<g transform="matrix( 1, 0, 0, 1, -476.8,-333.4) ">
		<g>
			<g id="Layer6_13_MEMBER_1_FILL">
				<path fill="#83C4EC" d="M914.3,380.1c0-0.2-0.1-0.5-0.3-0.6c-0.2-0.2-0.4-0.3-0.6-0.3c-0.3,0-0.5,0.1-0.7,0.3
					c-0.2,0.2-0.3,0.4-0.3,0.6v7.1c0,0.3,0.1,0.5,0.3,0.7c0.2,0.2,0.4,0.3,0.7,0.3c0.3,0,0.5-0.1,0.6-0.3c0.2-0.2,0.3-0.4,0.3-0.7
					V380.1z"/>
			</g>
		</g>
	</g>
	<g transform="matrix( 1, 0, 0, 1, -258.15,-232.7) ">
		<g>
			<g id="Layer6_14_MEMBER_0_FILL">
				<path fill="#83C4EC" d="M399.5,556.6c-0.3,0-0.5,0.1-0.7,0.3c-0.2,0.2-0.3,0.4-0.3,0.7c0,0.3,0.1,0.5,0.3,0.7
					c0.2,0.2,0.4,0.3,0.7,0.3h7c0.3,0,0.5-0.1,0.7-0.3c0.2-0.2,0.3-0.4,0.3-0.7c0-0.6-0.3-1-1-1H399.5z"/>
			</g>
		</g>
	</g>
	<g transform="matrix( 1, 0, 0, 1, -258.15,-232.7) ">
		<g>
			<g id="Layer6_14_MEMBER_1_FILL">
				<path fill="#83C4EC" d="M404,554c0-0.2-0.1-0.5-0.3-0.7c-0.2-0.2-0.4-0.3-0.6-0.3s-0.5,0.1-0.7,0.3c-0.2,0.2-0.3,0.4-0.3,0.7v7
					c0,0.3,0.1,0.5,0.3,0.7c0.2,0.2,0.4,0.3,0.7,0.3s0.5-0.1,0.6-0.3c0.2-0.2,0.3-0.4,0.3-0.7V554z"/>
			</g>
		</g>
	</g>
	<g transform="matrix( 1, 0, 0, 1, -94.8,-313.4) ">
		<g>
			<g id="Layer6_15_MEMBER_0_FILL">
				<path fill="#83C4EC" d="M584.3,587c0.2,0.2,0.4,0.3,0.7,0.3h7c0.3,0,0.5-0.1,0.7-0.3c0.2-0.2,0.3-0.4,0.3-0.7s-0.1-0.5-0.3-0.6
					c-0.2-0.2-0.4-0.3-0.7-0.3h-7c-0.3,0-0.5,0.1-0.7,0.3c-0.2,0.2-0.3,0.4-0.3,0.6S584.1,586.9,584.3,587z"/>
			</g>
		</g>
	</g>
	<g transform="matrix( 1, 0, 0, 1, -94.8,-313.4) ">
		<g>
			<g id="Layer6_15_MEMBER_1_FILL">
				<path fill="#83C4EC" d="M588.5,590.8c0.3,0,0.5-0.1,0.7-0.3c0.2-0.2,0.3-0.4,0.3-0.6v-7.1c0-0.6-0.3-0.9-1-0.9
					c-0.6,0-1,0.3-1,0.9v7.1c0,0.3,0.1,0.5,0.3,0.6C588,590.8,588.3,590.8,588.5,590.8z"/>
			</g>
		</g>
	</g>
	<g transform="matrix( 1, 0, 0, 1, -434.95,-234.75) ">
		<g>
			<g id="Layer6_16_MEMBER_0_FILL">
				<path fill="#83C4EC" d="M745,571.2c0.3,0,0.5-0.1,0.6-0.3c0.2-0.2,0.3-0.4,0.3-0.7c0-0.2-0.1-0.5-0.3-0.7
					c-0.2-0.2-0.4-0.3-0.6-0.3h-7c-0.3,0-0.5,0.1-0.7,0.3c-0.2,0.2-0.3,0.4-0.3,0.7c0,0.3,0.1,0.5,0.3,0.7c0.2,0.2,0.4,0.3,0.7,0.3
					H745z"/>
			</g>
		</g>
	</g>
	<g transform="matrix( 1, 0, 0, 1, -434.95,-234.75) ">
		<g>
			<g id="Layer6_16_MEMBER_1_FILL">
				<path fill="#83C4EC" d="M740.8,566c-0.2,0.2-0.3,0.4-0.3,0.7v7c0,0.3,0.1,0.5,0.3,0.7c0.2,0.2,0.4,0.3,0.7,0.3
					c0.3,0,0.5-0.1,0.7-0.3c0.2-0.2,0.3-0.4,0.3-0.7v-7c0-0.3-0.1-0.5-0.3-0.7c-0.2-0.2-0.4-0.3-0.7-0.3
					C741.1,565.8,740.9,565.8,740.8,566z"/>
			</g>
		</g>
	</g>
	<g transform="matrix( 1, 0, 0, 1, -287.6,-198.6) ">
		<g>
			<g id="Layer6_17_FILL">
				<path fill="#BFBFBF" d="M521,492.2h-6l-3,5.2l3,5.2h6l3-5.2L521,492.2 M515.8,493.6h4.4l2.2,3.8l-2.2,3.8h-4.4l-2.2-3.8
					L515.8,493.6z"/>
			</g>
		</g>
	</g>
	<g transform="matrix( 1, 0, 0, 1, -287.6,-198.6) ">
		<g>
			<g id="Layer6_18_FILL">
				<path fill="#BFBFBF" d="M845.3,287.1l-3,5.2l3,5.2h6l3-5.2l-3-5.2H845.3 M846.2,296.1l-2.2-3.8l2.2-3.8h4.3l2.2,3.8l-2.2,3.8
					H846.2z"/>
			</g>
		</g>
	</g>
	<g transform="matrix( 1, 0, 0, 1, -177.75,-200.4) ">
		<g>
			<g id="Layer6_20_FILL">
				<path fill="#DEDEDE" d="M848.8,493.6c-0.4-0.4-0.8-0.5-1.4-0.5c-0.5,0-1,0.2-1.4,0.5c-0.4,0.4-0.5,0.9-0.5,1.4
					c0,0.5,0.2,1,0.5,1.4c0.4,0.4,0.8,0.6,1.4,0.6c0.5,0,1-0.2,1.4-0.6c0.4-0.4,0.6-0.8,0.6-1.4
					C849.4,494.5,849.2,494.1,848.8,493.6z"/>
			</g>
		</g>
	</g>
	<g transform="matrix( 0.7615509033203125, 0, 0, 0.7615509033203125, 194.05,177.95) " opacity="0.17">
		<g transform="matrix( 1, 0, 0, 1, 0,0) ">
			<g>
				<g id="flash0_ai_Layer_1__Path__0_Layer0_0_FILL_1_">
					<path fill="#3D3D3D" d="M427.5-78.4c-0.2-15-5.4-27.7-15.3-38.2c-9.9-10.5-21.7-15.7-35.5-15.7c-7.9,0-15.4,1.8-22.5,5.6
						c-6.8,3.7-12.6,8.7-17.3,15.1c-1.8-3.8-4.6-7-8.1-9.2c-3.7-2.4-7.4-3.7-11.7-3.7c-5.2,0-9.9,1.7-13.9,5.2
						c-3.9,3.4-6.6,7.9-7.7,13.3c-3.5-1.6-7.1-2.3-10.7-2.3c-5.6,0-10.9,1.7-15.7,5.1c-3.3-3.5-7.1-6.3-11.4-8.3
						c-4.5-2-9-3.1-13.9-3.1c-7.4,0-14.2,2.2-20.3,7c-5.9,4.5-10.3,10.4-12.8,17.6c-1.6-1.8-3.4-3.3-5.6-4.4s-4.6-1.6-7-1.6
						c-4.6,0-8.5,1.7-11.8,5.1s-5.1,7.4-5.4,12.5h246.6C427.5-78.3,427.5-78.4,427.5-78.4z"/>
				</g>
			</g>
		</g>
	</g>
	<g transform="matrix( 0.7615509033203125, 0, 0, 0.7615509033203125, 194.05,177.95) " opacity="0.17">
		<g transform="matrix( 1, 0, 0, 1, 0,0) ">
			<g>
				<g id="flash0_ai_Layer_1__Path__0_Layer0_0_FILL_2_">
					<path fill="#3D3D3D" d="M284.4,185.7h187.7c-0.2-3.4-1.6-6.1-4.1-8.5c-2.5-2.3-5.5-3.5-9-3.5c-1.8,0-3.6,0.3-5.3,1.1
						c-1.7,0.7-3.1,1.7-4.3,3c-2-4.9-5.3-8.9-9.8-12c-4.6-3.2-9.8-4.7-15.4-4.7c-3.7,0-7.2,0.7-10.6,2.1c-3.3,1.3-6.1,3.2-8.6,5.6
						c-3.7-2.3-7.7-3.5-12-3.5c-2.8,0-5.5,0.5-8.2,1.6c-0.8-3.7-2.9-6.7-5.9-9.1c-3.1-2.4-6.6-3.6-10.6-3.6c-3.3,0-6.1,0.8-8.9,2.5
						c-2.6,1.5-4.7,3.7-6.1,6.2c-3.6-4.4-8-7.8-13.2-10.3c-5.4-2.6-11.1-3.8-17.1-3.8c-10.5,0-19.5,3.6-27,10.7
						S284.6,175.4,284.4,185.7C284.4,185.6,284.4,185.7,284.4,185.7z"/>
				</g>
			</g>
		</g>
	</g>
	<g transform="matrix( 0.7615509033203125, 0, 0, 0.7615509033203125, 194.05,177.95) " opacity="0.17">
		<g transform="matrix( 1, 0, 0, 1, 0,0) ">
			<g>
				<g id="flash0_ai_Layer_1__Path__0_Layer0_0_FILL_3_">
					<path fill="#3D3D3D" d="M-174.2,160.3h110.9c-0.1-2-0.9-3.6-2.4-5c-1.5-1.4-3.2-2.1-5.3-2.1c-1,0-2.1,0.2-3.1,0.6
						c-1,0.4-1.8,1-2.5,1.8c-1.2-2.9-3.1-5.2-5.8-7.1c-2.7-1.9-5.8-2.8-9.1-2.8c-2.2,0-4.2,0.4-6.3,1.2c-1.9,0.8-3.6,1.9-5.1,3.3
						c-2.2-1.4-4.6-2.1-7.1-2.1c-1.6,0-3.2,0.3-4.8,0.9c-0.5-2.2-1.7-4-3.5-5.3c-1.8-1.4-3.9-2.1-6.3-2.1c-1.9,0-3.6,0.5-5.3,1.5
						c-1.5,0.9-2.8,2.2-3.6,3.7c-2.1-2.6-4.7-4.6-7.8-6.1c-3.2-1.5-6.5-2.3-10.1-2.3c-6.2,0-11.5,2.1-16,6.3
						C-171.8,149.1-174.1,154.2-174.2,160.3C-174.2,160.2-174.2,160.3-174.2,160.3z"/>
				</g>
			</g>
		</g>
	</g>
</g>
<g id="circles">
	<g transform="matrix( 1.69866943359375, 0, 0, 1.69866943359375, -134.15,-484.7) ">
		<g>
			<g id="Layer5_0_FILL">
				<path fill="#BAD727" d="M483.4,389.1c-3.8-11.8-11.2-20.5-22.2-26.1c-11-5.6-22.4-6.6-34.2-2.8c-11.8,3.8-20.5,11.2-26.2,22.2
					c-5.6,11-6.5,22.4-2.8,34.2c3.8,11.8,11.2,20.5,22.2,26.2c11,5.6,22.4,6.6,34.2,2.8s20.5-11.2,26.1-22.2
					C486.3,412.3,487.2,400.9,483.4,389.1z"/>
			</g>
		</g>
	</g>
	<g transform="matrix( 1.983184814453125, 0, 0, 1.983184814453125, -1697.65,-757.55) ">
		<g>
			<g id="Layer5_1_FILL">
				<path fill="#F7571A" d="M966,477.3c0-10.7-3.8-19.8-11.3-27.4c-7.6-7.6-16.7-11.4-27.4-11.4c-10.7,0-19.8,3.8-27.3,11.4
					c-7.5,7.5-11.3,16.6-11.3,27.4c0,10.7,3.8,19.8,11.3,27.3c7.6,7.5,16.7,11.3,27.3,11.3c10.7,0,19.8-3.8,27.4-11.3
					C962.2,497.1,966,488,966,477.3z"/>
			</g>
		</g>
	</g>
</g>
<g id="icons">
	<g transform="matrix( 1, 0, 0, 1, 0,0) ">
		<g>
			<path id="Layer4_0_1_STROKES" fill="none" stroke="#FFFFFF" stroke-width="2" stroke-linejoin="round" d="M127.6,193.6
				L127.6,193.6l3.6,3.5l35.3-35.3l-4.3-4.4l11.7-8.1l4.9,4.9l-8.4,11.4l-3.9-3.9 M140.4,180.1L128,167.8c1.1-2.5,1.4-5,0.9-7.6
				c-0.5-2.7-1.7-5-3.7-6.9c-1.9-1.9-4.2-3.1-6.8-3.6c-2.6-0.6-5.1-0.3-7.5,0.8l6.8,7.1v6.8h-7.1l-6.9-6.4c-1,2.5-1.3,5-0.8,7.5
				c0.5,2.6,1.7,4.9,3.7,6.9c1.9,1.9,4.2,3.1,6.8,3.6c2.6,0.5,5.1,0.2,7.6-0.8l12.4,12.3 M131.1,197.1L131.1,197.1l3.6,3.5v0
				 M127.6,193.6l-21.7,21.8c-1,1-1.5,2.1-1.5,3.5s0.5,2.5,1.5,3.4c0.9,1,2.1,1.4,3.5,1.4c1.3,0,2.5-0.5,3.5-1.4l21.8-21.7
				 M140.4,194.2l12.4,12.4c-1.1,2.5-1.4,5-0.9,7.6c0.5,2.7,1.7,5,3.6,6.9c2,2,4.3,3.2,6.9,3.7c2.6,0.5,5.1,0.2,7.6-0.9l-6.8-7.1
				v-6.6h6.7l7.1,6.6c1-2.5,1.2-5,0.8-7.6c-0.5-2.7-1.7-5-3.6-6.9c-1.9-2-4.3-3.3-6.9-3.8c-2.6-0.5-5.1-0.2-7.5,0.9l-12.5-12.4"/>
		</g>
		<g>
			
				<path id="Layer4_0_2_STROKES" fill="none" stroke="#FFFFFF" stroke-width="2" stroke-linecap="round" stroke-linejoin="round" d="
				M127.6,193.6l3.5,3.5 M134.6,200.6l3.4,3.5 M124,190.1l3.6,3.5 M131.1,197.1l3.6,3.5"/>
		</g>
		<g>
			<path id="Layer4_0_3_STROKES" fill="none" stroke="#3A6FBB" stroke-width="2" d="M618.6,203.9v-8.5l-7.6-1.8l4.3-6.9l-6-6
				l-6.7,4.1l-1.8-8h-8.5l-1.8,7.6l-7-4.3l-6,6l4.1,6.6l-7.9,1.9v8.5l7.6,1.8l-4.3,6.9l6,6l6.7-4.1l1.9,7.9h8.5l1.8-7.6l7,4.3l6-6
				l-4.2-6.7L618.6,203.9z M596.2,205.9c-1.8,0-3.4-0.6-4.7-1.9c-1.3-1.3-2-2.9-2-4.7s0.7-3.4,2-4.7c1.3-1.3,2.9-1.9,4.7-1.9
				c1.8,0,3.4,0.6,4.7,1.9c1.3,1.3,2,2.9,2,4.7s-0.7,3.4-2,4.7C599.5,205.3,598,205.9,596.2,205.9z M641.7,185.1h-2.8
				c-0.3-0.9-0.8-1.8-1.5-2.5l1.4-2.4c-1.3-1.2-2.8-2.1-4.4-2.5l-1.4,2.4l-1.3-0.1c-0.6,0-1,0.1-1.4,0.1l-1.4-2.4
				c-1.7,0.5-3.2,1.4-4.4,2.6l1.3,2.4c-0.6,0.7-1,1.4-1.3,2.4h-2.7c-0.2,0.9-0.4,1.7-0.4,2.6s0.1,1.7,0.4,2.6h2.7
				c0.3,0.9,0.7,1.7,1.3,2.4l-1.3,2.4c1.3,1.3,2.8,2.1,4.4,2.6l1.4-2.4c0.6,0.1,1.1,0.1,1.5,0.1c0.5,0,1-0.1,1.3-0.1l1.4,2.4
				c1.7-0.5,3.2-1.4,4.4-2.6l-1.4-2.4c0.7-0.7,1.2-1.5,1.5-2.4h2.8c0.2-0.8,0.3-1.7,0.3-2.6S641.9,186,641.7,185.1z M631.7,190.1
				c-0.7,0-1.2-0.3-1.7-0.8c-0.5-0.5-0.7-1-0.7-1.7c0-0.7,0.2-1.3,0.7-1.8c0.5-0.5,1-0.7,1.7-0.7s1.3,0.2,1.8,0.7
				c0.5,0.5,0.7,1.1,0.7,1.8c0,0.7-0.2,1.2-0.7,1.7C632.9,189.9,632.3,190.1,631.7,190.1z"/>
		</g>
	</g>
</g>
<g id="cloud">
	<g transform="matrix( 1, 0, 0, 1, 0,0) ">
		<g>
			<path id="Layer3_0_1_STROKES" fill="none" stroke="#3A6FBB" stroke-width="2" stroke-linejoin="round" d="M565.8,227.6
				c0-2.3,0.8-4.2,2.4-5.8c-2.3-1.3-4.4-2.9-6.4-4.9c-5.5-5.5-8.3-12.1-8.3-19.9s2.8-14.5,8.3-20c5.5-5.5,12.2-8.3,20-8.3
				c1.1,0,2.3,0.1,3.4,0.2c1.5-3.7,3.8-7.1,6.9-10.2c6.1-6.1,13.4-9.1,22-9.1c8.6,0,15.9,3,22,9.1c4.5,4.5,7.4,9.8,8.5,15.7
				c3.2,1.2,6.1,3.1,8.8,5.7c4.7,4.7,7.1,10.4,7.1,17.1c0,4.5-1.1,8.6-3.3,12.2c0.1,0,0.2,0,0.3,0c3.9,0,7.3,1.4,10.1,4.2
				s4.2,6.2,4.2,10.1c0,2.6-0.6,5-1.8,7.1H566.4C566,229.8,565.8,228.8,565.8,227.6z"/>
		</g>
	</g>
</g>
<g id="connectors">
	<g transform="matrix( 1, 0, 0, 1, 0,0) ">
		<g>
			<g id="Layer2_0_FILL">
				<path fill="#FEFEFE" d="M526,191.4c-0.1,0-0.2,0-0.3,0c-0.7,0-1.3,0.2-1.8,0.8c-0.2,0.3-0.3,0.5-0.5,0.8
					c-0.1,0.2-0.1,0.4-0.1,0.6c0,0.1,0,0.1,0,0.2v0.3c0,0.7,0.3,1.3,0.8,1.8c0.4,0.5,1,0.8,1.7,0.8c0,0,0.1,0,0.1,0
					c0.7,0,1.3-0.3,1.7-0.8c0.5-0.5,0.8-1.1,0.8-1.8c0-0.7-0.3-1.3-0.8-1.8c0,0-0.1-0.1-0.1-0.1c-0.1-0.1-0.1-0.1-0.2-0.2
					c0,0-0.1,0-0.1-0.1c0,0-0.1,0-0.1-0.1c0,0-0.1,0-0.1-0.1c0,0,0,0,0-0.1c0,0,0,0,0,0C526.5,191.5,526.3,191.4,526,191.4
					 M230.3,192.8L230.3,192.8c-0.7,0-1.3,0.3-1.8,0.8c-0.5,0.5-0.8,1.1-0.8,1.8c0,0.7,0.3,1.3,0.8,1.8c0.4,0.4,0.8,0.6,1.4,0.7
					c0.1,0,0.3,0.1,0.4,0.1c0.7,0,1.3-0.3,1.8-0.8c0.4-0.4,0.6-0.9,0.6-1.4c0-0.1,0.1-0.3,0.1-0.4c0-0.7-0.3-1.3-0.8-1.8
					C231.6,193.1,231,192.8,230.3,192.8z"/>
			</g>
		</g>
		<g>
			<path id="Layer2_0_1_STROKES" fill="none" stroke="#A3A3A3" stroke-miterlimit="10" d="M453.9,193.5h69.4 M230.2,192.8
				L230.2,192.8c0.8,0,1.4,0.3,1.9,0.8c0.5,0.5,0.8,1.1,0.8,1.8c0,0.1,0,0.3,0,0.4H302 M229.9,197.9c-0.6-0.1-1-0.3-1.4-0.7
				c-0.5-0.5-0.8-1.1-0.8-1.8c0-0.7,0.3-1.3,0.8-1.8c0.5-0.5,1-0.8,1.7-0.8c0-1.1,0.1-2.2,0.1-3.3c0-24.3-8.6-45.1-25.8-62.3
				c-17.1-17.2-37.9-25.8-62.1-25.8 M232.8,195.8c-0.1,0.5-0.3,1-0.7,1.4c-0.5,0.5-1.1,0.8-1.8,0.8c-0.1,0-0.3,0-0.4,0
				c-1.8,20.7-10.3,38.6-25.4,53.7c-17.1,17.2-37.9,25.8-62.1,25.8c-24.3,0-45-8.6-62.2-25.8c-17.2-17.1-25.8-37.8-25.8-62.1"/>
		</g>
		<g>
			<path id="Layer2_0_2_STROKES" fill="none" stroke="#A3A3A3" stroke-linecap="round" stroke-linejoin="round" d="M526,191.4
				c1.8-20.8,10.3-38.7,25.5-53.8c17.1-17.2,37.8-25.8,62.1-25.8c24.3,0,45,8.6,62.2,25.8c15.4,15.3,23.8,33.5,25.5,54.6 M523.4,193
				c0.2-0.3,0.3-0.6,0.5-0.8c0.5-0.5,1.1-0.8,1.8-0.8c0.1,0,0.2,0,0.3,0c0.3,0,0.6,0.1,0.8,0.2c0,0,0,0,0,0c0,0,0,0,0,0
				c0,0,0,0,0.1,0.1c0,0,0.1,0,0.1,0.1c0,0,0.1,0.1,0.1,0.1c0.1,0.1,0.2,0.1,0.2,0.2c0,0,0.1,0,0.1,0.1c0.5,0.5,0.8,1.1,0.8,1.8
				c0,0.7-0.3,1.3-0.8,1.8c-0.4,0.5-1,0.8-1.7,0.8c0,0-0.1,0-0.1,0c0,1.1-0.1,2.2-0.1,3.3c0,24.3,8.6,45,25.8,62.2
				c15.6,15.6,34.1,24.1,55.6,25.5 M525.7,196.6c-0.7,0-1.3-0.3-1.7-0.8c-0.5-0.5-0.8-1.1-0.8-1.8v-0.3"/>
		</g>
		<g>
			<path id="Layer2_0_3_STROKES" fill="none" stroke="#A3A3A3" stroke-linecap="square" stroke-miterlimit="10" d="M701.2,192.2
				c0.2,2.5,0.3,5,0.3,7.6 M613.5,287.8c-2.2,0-4.4-0.1-6.5-0.2"/>
		</g>
	</g>
</g>
<g id="monitor">
	<g transform="matrix( 1, 0, 0, 1, 276.5,139.15) ">
		<g transform="matrix( 1, 0, 0, 1, 0,0) ">
			<g>
				<g id="monitor_0_Layer0_0_FILL">
					<path fill="#CACACA" d="M81.8,112.2v21h33.7v-21H81.8 M62.1,137.1c-0.1,0.3-0.1,0.7-0.1,1v4.7h73.1v-4.6c0-0.4,0-0.7-0.1-1.1
						H62.1 M76.8,133.1h-9.9c-1.3,0-2.4,0.5-3.4,1.5c-0.7,0.7-1.1,1.6-1.3,2.5H135c-0.2-0.9-0.7-1.8-1.4-2.5c-1-1-2.2-1.5-3.6-1.5
						h-14.7H81.8H76.8 M192.8,4.4c0-1.2-0.4-2.3-1.3-3.2S189.6,0,188.4,0H9.1C7.9,0,7,0.4,6.2,1.2C5.4,2,5,3,5,4.1v104.1
						c0,1.1,0.4,2,1.2,2.8s1.7,1.2,2.9,1.2h67.7h5h33.7h73.1c1.2,0,2.2-0.5,3-1.3c0.8-0.8,1.3-1.8,1.3-3V4.4 M185.3,8.4v95.7H12.5
						V8.4H185.3z"/>
					<path fill="#828282" d="M76.8,112.2v21h5v-21H76.8 M57,137.1v5.7h5v-4.7c0-0.3,0-0.7,0.1-1H57 M58.4,134.6
						c-0.7,0.7-1.2,1.6-1.4,2.5h5.1c0.2-0.9,0.6-1.8,1.3-2.5c1-0.9,2.1-1.4,3.4-1.5h-4.9C60.6,133.1,59.4,133.6,58.4,134.6 M9.1,0
						H4.2C3,0,2,0.4,1.2,1.2S0,3,0,4.1v104.1c0,1.1,0.4,2,1.2,2.8s1.7,1.2,2.9,1.2h5c-1.1,0-2.1-0.4-2.9-1.2S5,109.3,5,108.2V4.1
						C5,3,5.4,2,6.2,1.2C7,0.4,7.9,0,9.1,0z"/>
					<path fill="#FFFFFF" d="M185.3,104.1V8.4H12.5v95.7H185.3 M166.9,23.8h5.6H166.9 M166.9,28.9h11.4H166.9 M166.9,18.6h11.4
						H166.9 M166.9,34h7H166.9 M166.9,13.4h9.6H166.9 M159.7,67.1V12.6V67.1 M52.3,67.1V12.6V67.1 M29.7,23.8h16H29.7 M29.7,34h16
						H29.7 M29.7,49.5h16H29.7 M29.7,54.7h16H29.7 M29.7,39.2h16H29.7 M24.7,44.3h16H24.7 M24.7,13.4h16H24.7 M24.7,18.6h16H24.7
						 M24.7,28.9h16H24.7 M29.7,65.1h16H29.7 M24.7,59.8h16H24.7 M24.7,97.4h21H24.7 M24.7,87h29.4H24.7 M24.7,76.7h23H24.7
						 M24.7,81.8h47.6H24.7 M24.7,92.2h47.6H24.7 M62.7,54.7h45.6H62.7 M62.7,44.3h29.8H62.7 M62.7,23.8h28.4H62.7 M62.7,34h61.8
						H62.7 M62.7,49.5h86.6H62.7 M62.7,28.9h86.6H62.7 M62.7,13.4h86.6H62.7 M62.7,18.6h73.8H62.7 M62.7,39.2h76.6H62.7 M62.7,65.1
						h35.2H62.7 M62.7,59.8h86.6H62.7 M19.1,71.3h159.2H19.1z"/>
				</g>
			</g>
			<g>
				<path id="monitor_0_Layer0_0_1_STROKES" fill="none" stroke="#000000" stroke-miterlimit="10" d="M9.1,0h179.3
					c1.2,0,2.3,0.4,3.1,1.3s1.3,1.9,1.3,3.2v103.4c0,1.2-0.5,2.2-1.3,3c-0.8,0.8-1.8,1.3-3,1.3h-73.1v21h14.7c1.4,0,2.6,0.5,3.6,1.5
					c0.7,0.7,1.2,1.6,1.4,2.5c0.1,0.4,0.1,0.7,0.1,1.1v4.6H62h-5v-5.7c0.2-0.9,0.7-1.8,1.4-2.5c1-1,2.2-1.5,3.5-1.5h4.9h9.9v-21H9.1
					h-5c-1.1,0-2.1-0.4-2.9-1.2S0,109.3,0,108.2V4.1C0,3,0.4,2,1.2,1.2S3,0,4.2,0H9.1C7.9,0,7,0.4,6.2,1.2C5.4,2,5,3,5,4.1v104.1
					c0,1.1,0.4,2,1.2,2.8s1.7,1.2,2.9,1.2 M185.3,104.1H12.5V8.4h172.8V104.1z M159.7,67.1V12.6 M52.3,67.1V12.6 M66.8,133.1
					c-1.3,0-2.4,0.5-3.4,1.5c-0.7,0.7-1.1,1.6-1.3,2.5H135 M62.1,137.1c-0.1,0.3-0.1,0.7-0.1,1v4.7 M62.1,137.1H57 M81.8,112.2v21
					h33.7 M115.4,112.2H81.8h-5 M81.8,133.1h-5 M19.1,71.3h159.2"/>
			</g>
			<g>
				<path id="monitor_0_Layer0_0_2_STROKES" fill="none" stroke="#3A6FBB" stroke-miterlimit="10" d="M166.9,23.8h5.6 M166.9,28.9
					h11.4 M166.9,18.6h11.4 M166.9,34h7 M166.9,13.4h9.6 M29.7,23.8h16 M29.7,34h16 M29.7,49.5h16 M29.7,54.7h16 M29.7,39.2h16
					 M24.7,44.3h16 M24.7,13.4h16 M24.7,18.6h16 M24.7,28.9h16 M29.7,65.1h16 M24.7,59.8h16 M24.7,97.4h21 M24.7,87h29.4 M24.7,76.7
					h23 M24.7,81.8h47.6 M24.7,92.2h47.6 M62.7,54.7h45.6 M62.7,44.3h29.8 M62.7,23.8h28.4 M62.7,34h61.8 M62.7,49.5h86.6
					 M62.7,28.9h86.6 M62.7,13.4h86.6 M62.7,18.6h73.8 M62.7,39.2h76.6 M62.7,65.1h35.2 M62.7,59.8h86.6"/>
			</g>
		</g>
	</g>
</g>
</svg>
