<?xml version="1.0" encoding="utf-8"?>
<!-- Generator: Adobe Illustrator 23.0.1, SVG Export Plug-In . SVG Version: 6.00 Build 0)  -->
<svg version="1.1" id="Layer_asdasd" xmlns="http://www.w3.org/2000/svg" xmlns:xlink="http://www.w3.org/1999/xlink" x="0px" y="0px"
	 viewBox="0 0 750 400" enable-background="new 0 0 750 400" xml:space="preserve">
<g id="clouds_bits_copy">
	<g transform="matrix( 1, 0, 0, 1, 0,0) ">
		<g>
			<g id="Layer11_0_FILL">
				<path fill="#83C4EC" d="M316.6,208.9v-2.6c0-0.3-0.1-0.5-0.3-0.7c-0.2-0.2-0.4-0.3-0.7-0.3s-0.5,0.1-0.6,0.3
					c-0.2,0.2-0.3,0.4-0.3,0.7v2.6h-2.5c-0.3,0-0.5,0.1-0.7,0.3c-0.2,0.2-0.3,0.4-0.3,0.6c0,0.3,0.1,0.5,0.3,0.7
					c0.2,0.2,0.4,0.3,0.7,0.3h2.5v2.6c0,0.3,0.1,0.5,0.3,0.7c0.2,0.2,0.4,0.3,0.6,0.3c0.3,0,0.5-0.1,0.7-0.3
					c0.2-0.2,0.3-0.4,0.3-0.7v-2.6h2.5c0.3,0,0.5-0.1,0.6-0.3c0.2-0.2,0.3-0.4,0.3-0.7c0-0.2-0.1-0.4-0.3-0.6
					c-0.2-0.2-0.4-0.3-0.6-0.3H316.6 M158.6,326.8c-0.2-0.2-0.4-0.3-0.6-0.3h-2.6V324c0-0.3-0.1-0.5-0.3-0.7
					c-0.2-0.2-0.4-0.3-0.7-0.3c-0.2,0-0.4,0.1-0.6,0.3c-0.2,0.2-0.3,0.4-0.3,0.7v2.6h-2.6c-0.6,0-0.9,0.3-0.9,1
					c0,0.3,0.1,0.5,0.3,0.6c0.2,0.2,0.4,0.3,0.7,0.3h2.6v2.5c0,0.3,0.1,0.5,0.3,0.7c0.2,0.2,0.4,0.3,0.6,0.3c0.6,0,0.9-0.3,0.9-1
					v-2.5h2.6c0.3,0,0.5-0.1,0.6-0.3c0.2-0.2,0.3-0.4,0.3-0.6S158.8,327,158.6,326.8 M495.6,271.8c-0.3,0-0.5,0.1-0.7,0.3
					c-0.2,0.2-0.3,0.4-0.3,0.6s0.1,0.5,0.3,0.7c0.2,0.2,0.4,0.3,0.7,0.3h2.5v2.6c0,0.3,0.1,0.5,0.3,0.7c0.2,0.2,0.4,0.3,0.7,0.3
					s0.5-0.1,0.7-0.3c0.2-0.2,0.2-0.4,0.3-0.7v-2.6h2.6c0.3,0,0.5-0.1,0.7-0.3c0.2-0.2,0.3-0.4,0.3-0.7s-0.1-0.5-0.3-0.6
					c-0.2-0.2-0.4-0.3-0.7-0.3H500v-2.5c0-0.6-0.3-1-0.9-1c-0.6,0-1,0.3-1,1v2.5H495.6 M598.5,57.5V55c0-0.2-0.1-0.5-0.3-0.7
					c-0.2-0.2-0.4-0.3-0.7-0.3s-0.5,0.1-0.7,0.3c-0.2,0.2-0.3,0.4-0.3,0.7v2.6H594c-0.3,0-0.5,0.1-0.7,0.3c-0.2,0.2-0.3,0.4-0.3,0.7
					s0.1,0.5,0.3,0.7c0.2,0.2,0.4,0.3,0.7,0.3h2.5V62c0,0.3,0.1,0.5,0.3,0.7c0.2,0.2,0.4,0.3,0.7,0.3s0.5-0.1,0.7-0.3
					c0.2-0.2,0.3-0.4,0.3-0.7v-2.5h2.5c0.3,0,0.5-0.1,0.7-0.3c0.2-0.2,0.3-0.4,0.3-0.7c0-0.6-0.3-1-1-1H598.5 M650.8,260.8
					c0-0.6-0.3-0.9-1-0.9h-2.5v-2.6c0-0.2-0.1-0.4-0.3-0.6c-0.2-0.2-0.4-0.3-0.7-0.3c-0.3,0-0.5,0.1-0.7,0.3
					c-0.2,0.2-0.3,0.4-0.3,0.6v2.6h-2.5c-0.3,0-0.5,0.1-0.7,0.3c-0.2,0.2-0.3,0.4-0.3,0.7c0,0.3,0.1,0.5,0.3,0.7
					c0.2,0.2,0.4,0.3,0.7,0.3h2.5v2.5c0,0.3,0.1,0.5,0.3,0.7c0.2,0.2,0.4,0.3,0.7,0.3c0.3,0,0.5-0.1,0.7-0.3
					c0.2-0.2,0.3-0.4,0.3-0.7v-2.5h2.5c0.3,0,0.5-0.1,0.7-0.3C650.7,261.3,650.8,261.1,650.8,260.8z"/>
				<path fill="#DEDEDE" d="M261.6,304.9c0.7-0.7,1.1-1.6,1.1-2.7c0-1.1-0.4-2-1.1-2.8c-0.8-0.7-1.7-1.1-2.8-1.1
					c-1.1,0-2,0.4-2.7,1.1c-0.7,0.8-1.1,1.7-1.1,2.8c0,1.1,0.4,2,1.1,2.7c0.8,0.7,1.7,1.1,2.7,1.1C260,306,260.9,305.6,261.6,304.9
					 M558.5,295c-0.4,0.4-0.5,0.9-0.5,1.4c0,0.5,0.2,1,0.5,1.3s0.8,0.6,1.3,0.6c0.5,0,1-0.2,1.4-0.6c0.4-0.4,0.5-0.8,0.5-1.3
					c0-0.5-0.2-1-0.5-1.4c-0.4-0.4-0.8-0.5-1.4-0.5C559.3,294.5,558.9,294.7,558.5,295z"/>
				<path fill="#3D3D3D" fill-opacity="0.1686" d="M105,287.5c-1.4-1.1-3-1.6-4.8-1.6c-1.4,0-2.8,0.4-4,1.1
					c-1.2,0.7-2.1,1.7-2.8,2.9c-1.6-2-3.6-3.6-5.9-4.8c-2.4-1.2-5-1.8-7.7-1.8c-4.7,0-8.8,1.7-12.2,5c-3.4,3.3-5.1,7.3-5.3,12h84.8
					c-0.1-1.5-0.8-2.8-1.9-3.9s-2.5-1.6-4.1-1.6c-1.7,0-3.1,0.6-4.3,1.9c-0.9-2.3-2.4-4.2-4.4-5.6c-2.1-1.4-4.4-2.2-7-2.2
					c-3.4,0-6.3,1.2-8.6,3.6c-1.7-1.1-3.5-1.6-5.4-1.6c-1.3,0-2.5,0.2-3.7,0.7C107.3,290,106.4,288.6,105,287.5 M193.4,69.5
					c-6.2-6.6-13.6-9.9-22.2-9.9c-4.9,0-9.6,1.2-14,3.6c-4.2,2.3-7.8,5.4-10.8,9.4c-1.2-2.4-2.8-4.3-5-5.8c-2.2-1.5-4.6-2.2-7.3-2.2
					c-3.3,0-6.2,1.1-8.7,3.3c-2.5,2.2-4.1,4.9-4.9,8.3c-2.2-0.9-4.4-1.4-6.7-1.4c-3.5,0-6.8,1.1-9.8,3.2c-2-2.3-4.4-4-7.1-5.2
					c-2.8-1.3-5.7-1.9-8.7-1.9c-4.6,0-8.8,1.4-12.7,4.3c-3.7,2.8-6.4,6.5-8.1,11.1c-1-1.2-2.2-2.1-3.5-2.8c-1.4-0.6-2.8-1-4.3-1
					c-2.9,0-5.3,1.1-7.4,3.2c-2,2.1-3.2,4.7-3.4,7.8h154C202.8,84,199.6,76,193.4,69.5 M705.8,339.6c-0.2-2.6-1.2-4.8-3.1-6.6
					c-2-1.8-4.3-2.8-6.9-2.8c-2.9,0-5.3,1.1-7.3,3.1c-1.5-3.9-4-7-7.5-9.4c-3.6-2.5-7.5-3.7-11.9-3.7c-2.8,0-5.5,0.6-8.1,1.6
					c-2.5,1-4.8,2.5-6.7,4.5c-2.8-1.8-5.8-2.8-9.2-2.8c-2.1,0-4.2,0.4-6.3,1.2c-0.7-2.9-2.2-5.2-4.5-7.1c-2.4-1.9-5.1-2.8-8.1-2.8
					c-2.4,0-4.7,0.6-6.8,1.9c-2,1.2-3.6,2.9-4.7,5c-2.8-3.5-6.1-6.2-10.1-8.1c-4.1-2-8.5-3-13.1-3c-8,0-14.9,2.8-20.7,8.5
					c-5.8,5.6-8.8,12.5-9,20.5H705.8 M662.2,90.8c-3.4-3.3-7.5-5-12.2-5c-2.7,0-5.3,0.6-7.7,1.8c-2.3,1.1-4.3,2.7-6,4.8
					c-0.7-1.2-1.6-2.2-2.8-2.9c-1.2-0.8-2.6-1.2-4-1.2c-1.8,0-3.4,0.6-4.8,1.7c-1.4,1.1-2.3,2.5-2.7,4.2c-1.2-0.5-2.4-0.7-3.7-0.7
					c-1.9,0-3.7,0.5-5.4,1.6c-2.4-2.4-5.3-3.5-8.7-3.5c-2.6,0-4.9,0.7-7,2.1c-2.1,1.4-3.5,3.3-4.5,5.6c-1.2-1.3-2.6-1.9-4.3-1.9
					c-1.6,0-2.9,0.5-4,1.6s-1.8,2.4-1.9,3.9h84.8C667.3,98.2,665.5,94.2,662.2,90.8z"/>
				<path fill="#F7571A" d="M78.3,119.3c0.4,0.4,0.8,0.5,1.3,0.5s1-0.2,1.4-0.5c0.4-0.4,0.6-0.9,0.6-1.4c0-0.5-0.2-1-0.6-1.3
					c-0.4-0.4-0.8-0.6-1.4-0.6s-1,0.2-1.3,0.6c-0.4,0.4-0.5,0.8-0.5,1.3C77.8,118.4,78,118.9,78.3,119.3 M377.1,89.7
					c0.5,0,1-0.2,1.4-0.6c0.4-0.4,0.6-0.8,0.6-1.3c0-0.5-0.2-1-0.6-1.3c-0.4-0.4-0.8-0.6-1.4-0.6c-0.5,0-1,0.2-1.4,0.6
					c-0.4,0.4-0.5,0.8-0.5,1.3c0,0.5,0.2,1,0.5,1.3C376.1,89.5,376.6,89.7,377.1,89.7z"/>
				<path fill="#BFBFBF" d="M202.6,144.8l3-5.2l-3-5.2h-6.1l-3,5.2l3,5.2H202.6 M197.4,135.8h4.3l2.2,3.8l-2.2,3.8h-4.3l-2.2-3.8
					L197.4,135.8 M389,43.6l-3,5.2l3,5.2h6l3-5.2l-3-5.2H389 M387.7,48.8l2.1-3.8h4.4l2.2,3.8l-2.2,3.8h-4.4L387.7,48.8z"/>
				<path fill="#BAD727" d="M509.8,314.4c0.5,0,1-0.2,1.4-0.5c0.4-0.4,0.6-0.8,0.6-1.4c0-0.5-0.2-1-0.6-1.4
					c-0.4-0.4-0.8-0.5-1.4-0.5s-1,0.2-1.4,0.5c-0.4,0.4-0.5,0.8-0.5,1.4s0.2,1,0.5,1.4C508.8,314.2,509.2,314.4,509.8,314.4
					 M699.5,131.4c0.4-0.4,0.5-0.9,0.5-1.4c0-0.5-0.2-1-0.5-1.3c-0.4-0.4-0.8-0.6-1.3-0.6s-1,0.2-1.4,0.6c-0.4,0.4-0.6,0.8-0.6,1.3
					c0,0.5,0.2,1,0.6,1.4c0.4,0.4,0.8,0.5,1.4,0.5S699.1,131.7,699.5,131.4z"/>
				<path fill="#D1D1D1" d="M438.2,177.2c0.7-0.8,1.1-1.7,1.1-2.8c0-1.1-0.4-2-1.1-2.7c-0.8-0.7-1.7-1.1-2.8-1.1s-2,0.4-2.7,1.1
					c-0.8,0.8-1.1,1.7-1.1,2.7c0,1.1,0.4,2,1.1,2.8c0.7,0.7,1.6,1.1,2.7,1.1S437.4,177.9,438.2,177.2z"/>
			</g>
		</g>
		<g>
			<path id="Layer11_0_1_STROKES" fill="none" stroke="#BFBFBF" stroke-width="2" stroke-miterlimit="10" d="M561.8,124.8
				c0,0.9-0.3,1.7-1,2.3c-0.6,0.6-1.4,1-2.3,1c-0.9,0-1.7-0.3-2.3-1c-0.6-0.6-1-1.4-1-2.3c0-0.9,0.3-1.6,1-2.3c0.6-0.6,1.4-1,2.3-1
				c0.9,0,1.6,0.3,2.3,1C561.5,123.2,561.8,123.9,561.8,124.8z M206.6,42.3c0,0.9-0.3,1.7-0.9,2.3c-0.6,0.6-1.4,1-2.3,1
				c-0.9,0-1.6-0.3-2.3-1c-0.6-0.6-0.9-1.4-0.9-2.3c0-0.9,0.3-1.6,0.9-2.3s1.4-1,2.3-1c0.9,0,1.7,0.3,2.3,1S206.6,41.4,206.6,42.3z
				 M195.3,262c0,0.9-0.3,1.7-0.9,2.3s-1.4,1-2.3,1c-0.9,0-1.7-0.3-2.3-1s-0.9-1.4-0.9-2.3s0.3-1.7,0.9-2.3s1.4-1,2.3-1
				c0.9,0,1.6,0.3,2.3,1S195.3,261.1,195.3,262z"/>
		</g>
	</g>
</g>
<g id="circles">
	<g transform="matrix( 0.5916595458984375, 0, 0, 0.5916595458984375, -168.2,-114.75) ">
		<g>
			<g id="Layer10_0_FILL">
				<path fill="#F7571A" d="M966,477.3c0-10.7-3.8-19.8-11.3-27.3c-7.6-7.6-16.7-11.4-27.4-11.4c-10.7,0-19.8,3.8-27.3,11.4
					c-7.5,7.5-11.3,16.6-11.3,27.3c0,10.7,3.8,19.8,11.3,27.3c7.6,7.5,16.7,11.3,27.3,11.3c10.7,0,19.8-3.8,27.4-11.3
					C962.2,497.1,966,488,966,477.3z"/>
			</g>
		</g>
	</g>
	<g transform="matrix( 0.52783203125, 0, 0, 0.52783203125, -3.35,-12.25) ">
		<g>
			<g id="Layer10_1_FILL">
				<path fill="#BAD727" d="M483.4,389.1c-3.8-11.8-11.2-20.5-22.2-26.1c-11-5.6-22.4-6.6-34.2-2.8c-11.8,3.8-20.5,11.2-26.1,22.2
					c-5.6,11-6.5,22.4-2.8,34.2s11.2,20.5,22.2,26.1c11,5.6,22.4,6.6,34.2,2.8s20.5-11.2,26.1-22.2
					C486.3,412.3,487.2,400.9,483.4,389.1z"/>
			</g>
		</g>
	</g>
	<g transform="matrix( 0.2603607177734375, 0, 0, 0.2603607177734375, 325.55,129.8) ">
		<g>
			<g id="Layer10_2_FILL">
				<path fill="#2C538A" d="M809.6,252.9c-4.7-14.7-14-25.6-27.8-32.6c-13.8-7.1-28-8.2-42.7-3.5c-14.7,4.8-25.6,14-32.7,27.7
					c-7,13.8-8.2,28-3.4,42.7c4.7,14.7,14,25.6,27.7,32.6c13.8,7.1,28,8.2,42.7,3.5c14.7-4.7,25.6-14,32.6-27.7
					C813.1,281.9,814.3,267.6,809.6,252.9z"/>
			</g>
		</g>
	</g>
</g>
<g id="outer_circles">
	<g transform="matrix( 1, 0, 0, 1, 0,0) ">
		<g>
			<path id="Layer9_0_1_STROKES" fill="none" stroke="#A3A3A3" stroke-miterlimit="10" d="M522.5,181.3c5.2,0,9.7,1.8,13.4,5.6
				c3.3,3.3,5.1,7.3,5.5,11.8l-0.1,3.7c-0.4,4.4-2.2,8.2-5.4,11.4c-3.7,3.7-8.2,5.6-13.4,5.6s-9.7-1.8-13.5-5.6
				c-3.7-3.7-5.5-8.2-5.5-13.4 M638,248.6c-17.8,0-33-6.3-45.5-18.8c-12.6-12.6-18.9-27.8-18.9-45.6c0-1.5,0-3,0.2-4.4
				c0-0.4,0.1-0.8,0.1-1.2l0.4-3.5c0-0.4,0.1-0.9,0.1-1.3c2-13.4,8.1-25.1,18.1-35.2c12.6-12.6,27.8-18.8,45.5-18.8
				c17.8,0,33,6.3,45.5,18.8c12.6,12.5,18.9,27.7,18.9,45.6 M518.3,49.5c-12.6-12.6-27.7-18.9-45.5-18.9c-14.6,0-27.4,4.2-38.4,12.7
				c-2.5,1.9-4.8,3.9-7.1,6.2c-0.3,0.3-0.6,0.7-1,1c-0.7,0.7-1.4,1.5-2.1,2.2c-0.3,0.3-0.5,0.6-0.8,0.9l-2.2,2.8
				c-0.3,0.3-0.6,0.6-0.8,1c-2.1,2.8-3.9,5.7-5.4,8.8c-0.8,1.6-1.6,3.2-2.3,4.8c-3,7.4-4.4,15.4-4.4,24c0,17.8,6.3,33,18.9,45.6
				c12.6,12.6,27.8,18.9,45.5,18.9c17.8,0.1,33-6.2,45.6-18.9 M282.3,26.6c19,0,35.2,6.7,48.6,20.1C344.3,60.1,351,76.3,351,95.3
				s-6.7,35.2-20.1,48.6c-13.4,13.4-29.6,20.1-48.6,20.1c-5.8,0-11.3-0.6-16.5-1.8l-3.5-0.9c-10.6-3.2-20.1-8.9-28.5-17.3
				c-13.4-13.4-20.1-29.6-20.1-48.6 M360.5,147.9c5.5-5.5,12.1-8.2,19.8-8.1c2.4,0,4.7,0.2,6.9,0.8c1.8,0.4,3.6,1,5.3,1.8
				c2.8,1.3,5.4,3.2,7.8,5.6c2.4,2.4,4.2,5,5.6,7.8c1.7,3.7,2.6,7.8,2.6,12.2c0,3-0.4,5.8-1.2,8.5c-0.6,2-1.5,4-2.6,5.8
				c-0.9,1.5-1.9,2.9-3.1,4.2l-2.6,2.6c-1.3,1.1-2.7,2.2-4.2,3.1c-4.2,2.5-9,3.8-14.4,3.8c-7.7,0-14.4-2.8-19.9-8.3 M72.6,230.1
				c12.4,12.4,27.4,18.6,44.9,18.6c17.6,0,32.5-6.2,44.9-18.6c12.4-12.4,18.6-27.4,18.6-44.9c0-15.5-4.8-28.9-14.4-40.4l-2.4-2.8
				c-0.6-0.6-1.2-1.2-1.8-1.8c-12.4-12.4-27.4-18.7-45-18.7c-17.5-0.1-32.5,6.1-45,18.5 M257.2,200.6c0,7.8-2.8,14.4-8.3,19.8
				c-5.1,5.1-11.1,7.8-18.1,8.2h-3.7c-6.9-0.4-12.9-3.2-17.9-8.2c-2.9-2.9-5.1-6.2-6.4-9.8c-1.2-3.1-1.8-6.5-1.8-10.1
				c0-2.2,0.2-4.3,0.6-6.3c1.1-5.1,3.7-9.6,7.6-13.6c5.5-5.5,12.1-8.2,19.9-8.2"/>
		</g>
	</g>
</g>
<g id="connectors">
	<g transform="matrix( 1, 0, 0, 1, 0,0) ">
		<g>
			<g id="Layer8_0_FILL">
				<path fill="#FEFEFE" d="M603.8,237.4c-0.5,0-1,0.2-1.3,0.6c-0.4,0.4-0.5,0.8-0.5,1.3v0.1c0,0.5,0.2,0.9,0.5,1.3
					c0.3,0.3,0.7,0.5,1.1,0.6c0.1,0,0.1,0,0.2,0c0.5,0,1-0.2,1.3-0.6c0.4-0.4,0.5-0.8,0.5-1.3v-0.1c0-0.5-0.2-0.9-0.5-1.3
					C604.7,237.6,604.3,237.4,603.8,237.4 M149.2,239.6c-0.3-0.4-0.8-0.6-1.3-0.6c-0.5,0-0.9,0.2-1.3,0.6c-0.4,0.4-0.5,0.8-0.5,1.3
					v0c0,0.5,0.2,0.9,0.5,1.3c0.3,0.4,0.8,0.6,1.3,0.6c0.1,0,0.1,0,0.2,0c0.4,0,0.8-0.2,1.1-0.6c0.3-0.4,0.5-0.8,0.5-1.3v0
					C149.8,240.4,149.6,240,149.2,239.6 M520.3,218c-0.4,0.4-0.5,0.8-0.5,1.3v0.1c0,0.5,0.2,0.9,0.5,1.3c0.3,0.3,0.7,0.5,1.1,0.5
					c0.1,0,0.1,0,0.2,0c0.5,0,1-0.2,1.3-0.5c0.4-0.4,0.6-0.8,0.6-1.3v-0.1c0-0.5-0.2-0.9-0.6-1.3c-0.3-0.4-0.8-0.6-1.3-0.6
					C521.1,217.4,520.6,217.6,520.3,218 M230.4,228.7L230.4,228.7c0-0.5-0.2-0.9-0.5-1.3c-0.3-0.4-0.8-0.5-1.3-0.5
					c-0.5,0-0.9,0.2-1.3,0.5c-0.4,0.4-0.6,0.8-0.6,1.3v0.1c0,0.5,0.2,0.9,0.6,1.3c0.3,0.4,0.8,0.6,1.3,0.6c0.1,0,0.1,0,0.2,0
					c0.4,0,0.8-0.2,1.1-0.6C230.2,229.6,230.4,229.2,230.4,228.7 M280.9,163.1c-0.4,0.4-0.5,0.8-0.5,1.3v0.1c0,0.5,0.2,0.9,0.5,1.3
					c0.3,0.4,0.8,0.6,1.3,0.6c0.1,0,0.1,0,0.2,0c0.4,0,0.8-0.2,1.1-0.6c0.3-0.4,0.5-0.8,0.5-1.3v-0.1c0-0.5-0.2-0.9-0.5-1.3
					c-0.3-0.4-0.8-0.6-1.3-0.6C281.6,162.5,281.2,162.7,280.9,163.1 M473.6,159.4L473.6,159.4c0-0.6-0.2-1-0.5-1.3
					c-0.3-0.4-0.8-0.5-1.3-0.5c-0.5,0-0.9,0.2-1.3,0.5c-0.4,0.4-0.5,0.8-0.5,1.3s0.2,0.9,0.5,1.3c0.3,0.4,0.7,0.6,1.3,0.6h0.1
					c0.5,0,0.9-0.2,1.3-0.6C473.5,160.4,473.6,159.9,473.6,159.4 M379.1,195.6c-0.1,0.1-0.1,0.3-0.1,0.5c0,0.5,0.2,0.9,0.6,1.3
					c0.3,0.4,0.8,0.6,1.3,0.6h0c0.5,0,0.9-0.2,1.3-0.6c0,0,0.1-0.1,0.1-0.1c0-0.1,0.1-0.1,0.2-0.1c0.1-0.2,0.2-0.4,0.2-0.6
					c0-0.1,0.1-0.2,0.1-0.3v-0.1c0-0.5-0.2-1-0.5-1.3c-0.4-0.4-0.8-0.6-1.3-0.6c-0.5,0-1,0.2-1.3,0.6c-0.1,0-0.1,0.1-0.1,0.1v0.1
					C379.3,195.1,379.2,195.3,379.1,195.6z"/>
			</g>
		</g>
		<g>
			<path id="Layer8_0_1_STROKES" fill="none" stroke="#A3A3A3" stroke-miterlimit="10" d="M380.9,197.9c-0.5,0-0.9-0.2-1.3-0.6
				c-0.4-0.3-0.6-0.8-0.6-1.3c0-0.2,0-0.4,0.1-0.5c0-0.2,0.1-0.4,0.3-0.6v-0.1c0-0.1,0.1-0.1,0.1-0.1c0.3-0.4,0.8-0.6,1.3-0.6
				c0.5,0,0.9,0.2,1.3,0.6c0.3,0.3,0.5,0.8,0.5,1.3v0.1c0,0.1,0,0.2-0.1,0.3c0,0.2-0.1,0.4-0.2,0.6c-0.1,0-0.1,0.1-0.2,0.1
				c0,0-0.1,0.1-0.1,0.1C381.8,197.7,381.4,197.9,380.9,197.9L380.9,197.9v39.5 M471.8,161.3c-0.5,0-0.9-0.2-1.3-0.6
				c-0.4-0.4-0.5-0.8-0.5-1.3s0.2-0.9,0.5-1.3c0.3-0.4,0.7-0.5,1.3-0.5c0.5,0,1,0.2,1.3,0.5c0.3,0.3,0.5,0.8,0.5,1.3v0.1
				c0,0.5-0.2,0.9-0.5,1.3C472.8,161.1,472.4,161.3,471.8,161.3L471.8,161.3v4.8c-0.1,3.3-1.3,6.2-3.8,8.6c-2.4,2.4-5.3,3.7-8.6,3.8
				h-4.9c-3.4,0.1-6.3,1.3-8.7,3.7c-2.4,2.4-3.6,5.3-3.7,8.7v130.4 M603.5,241.1c0.1,0,0.1,0,0.2,0c0.5,0,1-0.2,1.3-0.6
				c0.4-0.4,0.5-0.8,0.5-1.3v-0.1c0-0.5-0.2-0.9-0.5-1.3c-0.3-0.4-0.8-0.6-1.3-0.6c-0.5,0-1,0.2-1.3,0.6c-0.4,0.4-0.5,0.8-0.5,1.3
				v0.1c0,0.5,0.2,0.9,0.5,1.3C602.8,240.9,603.1,241.1,603.5,241.1V270c-0.1,3.3-1.3,6.2-3.7,8.6c-2.4,2.4-5.3,3.7-8.7,3.8H451.4
				 M521.3,221.1c0.1,0,0.1,0,0.2,0c0.5,0,1-0.2,1.3-0.5c0.4-0.4,0.6-0.8,0.6-1.3v-0.1c0-0.5-0.2-0.9-0.6-1.3
				c-0.3-0.4-0.8-0.6-1.3-0.6c-0.5,0-1,0.2-1.3,0.6c-0.4,0.4-0.5,0.8-0.5,1.3v0.1c0,0.5,0.2,0.9,0.5,1.3
				C520.6,220.9,521,221.1,521.3,221.1v19.3c-0.1,3.3-1.3,6.2-3.7,8.6c-2.4,2.4-5.3,3.7-8.7,3.8h-65 M282.4,166.2
				c-0.1,0-0.1,0-0.2,0c-0.5,0-1-0.2-1.3-0.6c-0.4-0.4-0.5-0.8-0.5-1.3v-0.1c0-0.5,0.2-0.9,0.5-1.3c0.3-0.4,0.8-0.6,1.3-0.6
				c0.5,0,1,0.2,1.3,0.6c0.4,0.4,0.5,0.8,0.5,1.3v0.1c0,0.5-0.2,0.9-0.5,1.3C283.2,166,282.8,166.2,282.4,166.2v9
				c0.1,3.3,1.3,6.2,3.7,8.6c2.4,2.4,5.3,3.7,8.7,3.8h16c3.3,0.1,6.2,1.3,8.6,3.7c2.4,2.4,3.7,5.3,3.8,8.7v86.6 M148.1,242.8
				c-0.1,0-0.1,0-0.2,0c-0.5,0-1-0.2-1.3-0.6c-0.4-0.4-0.5-0.8-0.5-1.3v0c0-0.5,0.2-0.9,0.5-1.3c0.3-0.4,0.8-0.6,1.3-0.6
				c0.5,0,1,0.2,1.3,0.6c0.4,0.4,0.6,0.8,0.6,1.3v0c0,0.5-0.2,0.9-0.5,1.3C148.9,242.5,148.6,242.7,148.1,242.8v28.9
				c0.1,3.3,1.3,6.2,3.7,8.6c2.4,2.4,5.3,3.7,8.7,3.8h139.8 M228.8,230.6c-0.1,0-0.1,0-0.2,0c-0.5,0-1-0.2-1.3-0.6
				c-0.4-0.4-0.6-0.8-0.6-1.3v-0.1c0-0.5,0.2-0.9,0.6-1.3c0.3-0.4,0.8-0.5,1.3-0.5c0.5,0,1,0.2,1.3,0.5c0.4,0.4,0.5,0.8,0.5,1.3v0.1
				c0,0.5-0.2,0.9-0.5,1.3C229.6,230.3,229.2,230.5,228.8,230.6v19.3c0.1,3.3,1.3,6.2,3.7,8.6c2.4,2.4,5.3,3.7,8.7,3.8h64.9"/>
		</g>
	</g>
</g>
<g id="salesforce">
	<g transform="matrix( 1.1847991943359375, 0, 0, 1.1847991943359375, 74.35,156) ">
		<g>
			<g transform="matrix( 0.17108154296875, 0, 0, 0.17108154296875, 0,0) ">
				<g>
					<g id="salesforce_0_Layer0_0_MEMBER_0_FILL">
						<path fill="#4A98D6" d="M387.2,49.9c-11.9-5.1-24.4-7.6-37.4-7.6c-13.6,0-26.6,2.8-38.9,8.3c-7-12.4-16.5-22.3-28.5-29.5
							C270,13.5,256.6,9.7,242.1,9.7c-10.9,0-21.3,2.2-31.2,6.5c-9.6,4.2-18,10.1-25.3,17.7c-8.1-10.6-18-18.8-29.8-24.8
							c-12.2-6.2-25.2-9.2-39-9.2c-11.8,0-23,2.3-33.7,6.8c-10.4,4.4-19.5,10.5-27.5,18.5c-8,8-14.2,17.1-18.5,27.4
							c-4.5,10.7-6.8,22-6.8,33.7c0,12,2.4,23.4,7.1,34.4c-11.3,6.6-20.3,15.6-26.9,27C3.4,159.6,0,172.3,0,186
							c0,10.2,1.9,20,5.8,29.3c3.8,9,9.1,17,15.9,23.9c6.9,6.9,14.7,12.3,23.6,16.1c9.2,3.9,18.8,5.9,28.9,5.9
							c5.2,0,10.3-0.5,15.3-1.6c5.7,15.5,15.4,28.1,28.9,37.7c13.8,9.8,29.3,14.7,46.3,14.7c16.3,0,31.2-4.5,44.7-13.6
							c13.2-8.9,22.8-20.6,29-35.2c9.7,4.7,19.9,7.1,30.7,7.1c13,0,25-3.3,36-9.9c10.7-6.4,19.2-15.1,25.3-26
							c6.3,1.2,12.6,1.8,18.9,1.8c13,0,25.5-2.5,37.4-7.6c11.5-4.9,21.7-11.9,30.5-20.8c8.9-8.9,15.7-19.2,20.6-30.8
							c5-12,7.5-24.6,7.5-37.7c0-13.2-2.5-25.7-7.5-37.7c-4.9-11.6-11.7-21.9-20.6-30.8C408.9,61.7,398.7,54.8,387.2,49.9z"/>
					</g>
				</g>
			</g>
		</g>
	</g>
</g>
<g id="servicenow">
	<g transform="matrix( 1.44085693359375, 0, 0, 1.44085693359375, 236.5,48.9) ">
		<g transform="matrix( 1, 0, 0, 1, 0,0) ">
			<g>
				<g id="now_0_Layer0_0_FILL">
					<path fill="#81B5A1" d="M55.4,9.4c-1.8-1.8-3.7-3.2-5.6-4.4c-3.6-2.2-7.4-3.7-11.3-4.4c-0.4-0.1-0.9-0.2-1.6-0.3
						c-0.9-0.1-1.5-0.2-1.7-0.2c0,0-0.1,0-0.1,0L35,0h-5.2c-0.3,0.1-0.5,0.1-0.6,0.1c-0.3,0.1-0.5,0.1-0.6,0.1
						c-2.1,0.2-4.4,0.7-6.9,1.6c-3.6,1.3-6.7,3-9.4,5.3c-1.5,1.3-2.7,2.3-3.5,3.2c-1.8,1.9-3.3,4.1-4.7,6.5
						c-1.4,2.5-2.4,5.1-3.1,7.9c-0.2,0.7-0.3,1.5-0.4,2.5c-0.1,0.6-0.2,1.4-0.4,2.6c0,0,0,0.1-0.1,0.2v5.3c0.1,0.8,0.2,1.3,0.2,1.4
						c0.1,0.6,0.3,1.5,0.5,2.7c0.2,1.1,0.4,2,0.6,2.7c0.5,2.1,1.3,4.1,2.4,5.9c0.8,1.2,1.9,2.9,3.3,5c0.5,0.7,1.2,1.5,2.1,2.3
						c0.7,0.7,1.4,1.3,2,1.7c0.8,0.5,1.6,0.8,2.4,0.9c0,0,0,0.1,0.1,0.1h2.2c0.3-0.1,0.7-0.3,1.3-0.5c0.5-0.2,1-0.4,1.3-0.6
						c0.4-0.2,1.1-0.7,2-1.3c0.9-0.6,1.5-1,2-1.3c2-1.1,4.1-1.7,6.2-2c1.7-0.2,3.2-0.3,4.4-0.3c1.7,0,3.6,0.3,5.6,0.9
						c2.5,0.7,4.8,1.8,6.8,3.3c0.6,0.4,1.1,0.7,1.4,0.9c0.6,0.3,1.1,0.5,1.6,0.7c0.1,0,0.3,0.1,0.6,0.2h2c0.3-0.1,0.7-0.2,1.2-0.4
						c0.4-0.2,0.8-0.3,1-0.5c0.9-0.5,1.7-1.2,2.5-1.9c0.8-0.9,1.7-2,2.7-3.3c1.3-1.8,2.5-3.8,3.5-6c0.9-2.1,1.6-4.2,2.1-6.3
						c0.1-0.6,0.3-1.9,0.6-3.9c0.1-0.3,0.2-0.9,0.3-1.9v-3L65,30.9c0-0.1-0.1-0.1-0.1-0.2c0-1.6-0.3-3.5-0.8-5.8
						c-0.7-3-1.8-5.7-3.3-8.3c-0.4-0.7-0.9-1.5-1.5-2.3c-0.3-0.5-0.9-1.2-1.6-2.3C57.1,11.1,56.3,10.2,55.4,9.4 M41.2,18.2
						c1.5,1,2.6,1.9,3.2,2.6c2,2.1,3.3,4.6,4,7.4c0.4,1.7,0.5,3.5,0.4,5.4c-0.2,3.4-1.3,6.4-3.3,9c-2.5,3.2-5.6,5.2-9.2,5.9
						c-1.5,0.3-3.1,0.4-4.8,0.4c-3.2-0.1-6.1-1.2-8.8-3.2c-1.8-1.4-3.2-3.1-4.3-5c-1-1.8-1.7-3.8-2-6c0-0.3-0.1-0.7-0.1-1.2
						c0-0.5,0-0.8,0-1c0-1.9,0.2-3.7,0.7-5.3c0.5-1.6,1.2-3.2,2.1-4.6c2.5-3.5,5.8-5.7,9.9-6.7c1.3-0.3,2.5-0.4,3.6-0.4
						C36,15.7,38.8,16.6,41.2,18.2z"/>
				</g>
			</g>
		</g>
	</g>
</g>
<g id="marketo">
	<g transform="matrix( 0.1250762939453125, 0, 0, 0.1250762939453125, 584.45,130.3) ">
		<g transform="matrix( 1, 0, 0, 1, -197.25,55.15) ">
			<g>
				<g id="marketo_0_Layer0_0_MEMBER_0_FILL">
					<path fill="#9068C5" d="M467.7,422.7c-3.7-4.7-9-7-15.7-7h-55.6c-6.8,0-13.1,2.3-19,7c-5.9,4.7-9.6,10.3-11.2,16.9l-11.9,50.6
						c9.1-0.7,18.2-1.1,27.1-1.3c25.7-0.3,51.6,0.1,77.7,1l11.8-50.3C472.5,432.9,471.4,427.3,467.7,422.7 M522.7,359.3
						c-5.9,4.7-9.6,10.3-11.2,16.9l-27,115c35.4,2,69.5,5.3,102.4,9.9l29.2-124.8c1.5-6.6,0.4-12.2-3.3-16.9c-3.7-4.7-8.9-7-15.7-7
						h-55.6C534.9,352.3,528.6,354.6,522.7,359.3 M905.4,225.9c1.5-6.5,0.4-12.1-3.3-16.8c-3.7-4.7-8.9-7-15.7-7h-55.5
						c-6.8,0-13.1,2.3-19,7s-9.6,10.3-11.2,16.8l-71.6,305.7c34.9,10.7,66.9,23.1,95.9,37.4L905.4,225.9 M660.8,304.6
						c-5.9,4.7-9.6,10.3-11.2,16.9l-42.8,182.4c34.9,5.5,68.2,12.6,99.8,21.2l47.7-203.6c1.5-6.6,0.5-12.2-3.3-16.9
						c-3.7-4.7-9-7-15.8-7h-55.5C673,297.6,666.7,299.9,660.8,304.6z"/>
				</g>
			</g>
		</g>
		<g transform="matrix( 1, 0, 0, 1, -197.25,55.15) ">
			<g>
				<g id="marketo_0_Layer0_0_MEMBER_1_FILL">
					<path fill="#9068C5" d="M630.2-55.2c-58.7,0-114.9,11.3-168.5,34C409.9,0.8,364,31.7,324.1,71.7
						c-39.9,39.9-70.9,85.8-92.8,137.6c-22.7,53.6-34.1,109.8-34.1,168.6c0,58.7,11.4,114.9,34.1,168.5
						c21.9,51.8,52.8,97.7,92.8,137.7c40,39.9,85.9,70.9,137.7,92.8c53.6,22.7,109.8,34,168.5,34c58.7,0,114.9-11.3,168.6-34
						c51.8-21.9,97.7-52.9,137.7-92.8c39.9-40,70.9-85.9,92.8-137.7c22.7-53.6,34.1-109.8,34.1-168.5c0-58.7-11.4-114.9-34.1-168.6
						c-21.9-51.8-52.8-97.7-92.8-137.6c-40-39.9-85.9-70.9-137.7-92.8C745.1-43.8,688.9-55.2,630.2-55.2 M365.6,113.1
						c34.5-34.5,74.2-61.3,119-80.2c46.4-19.6,94.9-29.4,145.7-29.4c50.8,0,99.3,9.8,145.7,29.4c44.8,18.9,84.5,45.7,119,80.2
						s61.3,74.2,80.3,119c19.6,46.4,29.4,94.9,29.4,145.7s-9.8,99.3-29.4,145.7c-19,44.8-45.7,84.4-80.3,119s-74.2,61.3-119,80.3
						c-46.4,19.6-94.9,29.4-145.7,29.4c-50.8,0-99.3-9.8-145.7-29.4c-44.8-19-84.4-45.7-119-80.3s-61.3-74.2-80.3-119
						c-19.6-46.4-29.4-94.9-29.4-145.7c0-50.8,9.8-99.3,29.4-145.7C304.3,187.3,331,147.6,365.6,113.1z"/>
				</g>
			</g>
		</g>
	</g>
</g>
<g id="successfactors">
	<g transform="matrix( 1.9429168701171875, 0, 0, 1.9429168701171875, 426.2,54) ">
		<g transform="matrix( 1, 0, 0, 1, -371.85,-10.25) ">
			<g>
				<g id="successfactors_0_Layer0_0_MEMBER_0_FILL">
					<path fill="#F3BD25" d="M414.5,38.2c3.1-4.3,4.7-8.4,4.7-12.4c0-4.5-1.4-8.2-4.3-11.1c-2.9-2.9-6.5-4.4-10.9-4.4
						c-3.2,0-6,0.9-8.6,2.8c-2.6-1.9-5.4-2.8-8.5-2.8c-4.4,0-8,1.5-10.9,4.4c-2.9,2.9-4.3,6.6-4.3,11.1c0,4,1.5,8.1,4.6,12.4
						c1.9,2.6,5.5,6.6,10.9,11.9l8.2,8.2l8.2-8.2C409.1,44.7,412.7,40.7,414.5,38.2 M411.3,18.3c1.8,1.9,2.7,4.4,2.7,7.4
						c0,3-1.4,6.4-4.2,10.1c-1.7,2.2-5,5.7-9.8,10.5l-4.5,4.5l-4.5-4.5c-4.8-4.8-8.1-8.3-9.8-10.5c-2.8-3.7-4.1-7-4.1-10.1
						c0-3.1,0.9-5.5,2.8-7.4c1.8-1.9,4.2-2.8,7.1-2.8c2.6,0,4.8,0.9,6.6,2.9l1.9,1.9l1.9-1.9c1.8-1.9,4.1-2.9,6.7-2.9
						C407.1,15.5,409.4,16.4,411.3,18.3z"/>
				</g>
			</g>
		</g>
	</g>
</g>
<g id="apps_graphics">
	<g transform="matrix( 1, 0, 0, 1, 0,0) ">
		<g>
			<path id="Layer3_0_1_STROKES" fill="none" stroke="#FFFFFF" stroke-miterlimit="10" d="M514.7,200.1l3.8-6.5h7.6l3.8,6.5
				l-3.8,6.6h-7.6L514.7,200.1z M228.9,188.8v12h12 M228.9,212.8v-12h-12"/>
		</g>
	</g>
	<g transform="matrix( 3.3882293701171875, 0, 0, 3.3882293701171875, -1907.25,-1700.9) ">
		<g transform="matrix( 0.295135498046875, 0, 0, 0.295135498046875, 562.9,502) ">
			<path id="Layer3_1_1_STROKES" fill="none" stroke="#FFFFFF" stroke-miterlimit="10" d="M678.4,551.4c0,0.9-0.3,1.7-0.9,2.3
				c-0.6,0.6-1.4,1-2.3,1c-0.9,0-1.7-0.3-2.3-1c-0.6-0.6-1-1.4-1-2.3c0-0.9,0.3-1.7,1-2.3c0.6-0.6,1.4-1,2.3-1c0.9,0,1.6,0.3,2.3,1
				C678.1,549.8,678.4,550.5,678.4,551.4z"/>
		</g>
	</g>
</g>
<g id="monitor">
	<g transform="matrix( 1, 0, 0, 1, 282.3,227.2) ">
		<g transform="matrix( 1, 0, 0, 1, 0,0) ">
			<g>
				<g id="monitor_0_Layer0_0_FILL">
					<path fill="#CACACA" d="M81.8,112.2v21h33.7v-21H81.8 M62.1,137.1c-0.1,0.3-0.1,0.7-0.1,1v4.7h73.1v-4.6c0-0.4,0-0.7-0.1-1.1
						H62.1 M76.8,133.1h-9.9c-1.3,0-2.4,0.5-3.4,1.5c-0.7,0.7-1.1,1.6-1.3,2.5H135c-0.2-0.9-0.7-1.8-1.4-2.5c-1-1-2.2-1.5-3.6-1.5
						h-14.7H81.8H76.8 M192.8,4.4c0-1.2-0.4-2.3-1.3-3.1S189.6,0,188.4,0H9.1C7.9,0,7,0.4,6.2,1.2C5.4,2,5,3,5,4.1v104.1
						c0,1.1,0.4,2,1.2,2.8s1.7,1.2,2.9,1.2h67.7h5h33.7h73.1c1.2,0,2.2-0.5,3-1.3c0.8-0.8,1.3-1.8,1.3-3V4.4 M185.3,8.4v95.7H12.5
						V8.4H185.3z"/>
					<path fill="#828282" d="M76.8,112.2v21h5v-21H76.8 M57,137.1v5.7h5v-4.7c0-0.3,0-0.7,0.1-1H57 M58.4,134.6
						c-0.7,0.7-1.2,1.6-1.4,2.5h5.1c0.2-0.9,0.6-1.8,1.3-2.5c1-0.9,2.1-1.4,3.4-1.5h-4.9C60.6,133.1,59.4,133.6,58.4,134.6 M9.1,0
						H4.2C3,0,2,0.4,1.2,1.2S0,3,0,4.1v104.1c0,1.1,0.4,2,1.2,2.8s1.7,1.2,2.9,1.2h5c-1.1,0-2.1-0.4-2.9-1.2S5,109.3,5,108.2V4.1
						C5,3,5.4,2,6.2,1.2C7,0.4,7.9,0,9.1,0z"/>
					<path fill="#FFFFFF" d="M185.3,104.1V8.4H12.5v95.7H185.3z"/>
				</g>
			</g>
			<g>
				<path id="monitor_0_Layer0_0_1_STROKES" fill="none" stroke="#000000" stroke-miterlimit="10" d="M9.1,0h179.3
					c1.2,0,2.3,0.4,3.1,1.3s1.3,1.9,1.3,3.1v103.4c0,1.2-0.5,2.2-1.3,3c-0.8,0.8-1.8,1.3-3,1.3h-73.1v21h14.7c1.4,0,2.6,0.5,3.6,1.5
					c0.7,0.7,1.2,1.6,1.4,2.5c0.1,0.4,0.1,0.7,0.1,1.1v4.6H62h-5v-5.7c0.2-0.9,0.7-1.8,1.4-2.5c1-1,2.2-1.5,3.5-1.5h4.9h9.9v-21H9.1
					h-5c-1.1,0-2.1-0.4-2.9-1.2S0,109.3,0,108.2V4.1C0,3,0.4,2,1.2,1.2S3,0,4.2,0H9.1C7.9,0,7,0.4,6.2,1.2C5.4,2,5,3,5,4.1v104.1
					c0,1.1,0.4,2,1.2,2.8s1.7,1.2,2.9,1.2 M185.3,104.1H12.5V8.4h172.8V104.1z M66.8,133.1c-1.3,0-2.4,0.5-3.4,1.5
					c-0.7,0.7-1.1,1.6-1.3,2.5H135 M62.1,137.1c-0.1,0.3-0.1,0.7-0.1,1v4.7 M62.1,137.1H57 M81.8,112.2v21h33.7 M115.4,112.2H81.8
					h-5 M81.8,133.1h-5"/>
			</g>
		</g>
	</g>
</g>
<g id="ICONS">
	<g transform="matrix( 1, 0, 0, 1, 0,0) ">
		<g>
			<path id="Layer1_0_1_STROKES" fill="none" stroke="#3A6FBB" stroke-linejoin="round" d="M398.8,268.2L398.8,268.2
				c0,4.1-1.1,7.7-3.2,10.9c-0.8,1.2-1.7,2.3-2.8,3.3c-3.7,3.7-8.1,5.7-13.3,5.9c-0.3,0-0.6,0-1,0c-0.3,0-0.5,0-0.8,0
				c-5.2-0.2-9.6-2.2-13.4-6.1c-1-1-1.8-2-2.5-3.1c-2.1-3.2-3.2-6.8-3.3-10.8c0-0.1,0-0.3,0-0.4c0-3.9,1-7.4,2.9-10.4
				c0.8-1.2,1.7-2.3,2.7-3.3c3.7-3.7,8.2-5.7,13.6-5.9h0.9c0.3,0,0.6,0,0.9,0c5.2,0.2,9.6,2.1,13.3,5.8c1.1,1.1,2,2.2,2.8,3.4
				C397.8,260.6,398.8,264.2,398.8,268.2z M395.8,257.5l-10.1,0c1.3,3.1,1.9,6.3,1.9,9.8c0,0.3,0,0.7,0,1h11.3 M385.6,257.5h-13.8
				c-1.2,3.1-1.9,6.3-1.9,9.8c0,0.3,0,0.7,0,1h17.5c-0.1,3.6-0.9,7.2-2.5,10.8l10.6,0 M377.9,248.2c-2.7,2.9-4.7,6-6,9.3l-10.3,0
				 M379.6,288.3c2.3-3.1,4.1-6.2,5.4-9.3h-12.6c1.3,3.1,3.1,6.2,5.4,9.3 M370,268.3c0.1,3.6,0.9,7.2,2.4,10.8l-10.5,0 M379.6,248.2
				c2.7,2.9,4.7,6,6,9.3 M358.6,268.3H370"/>
		</g>
		<g>
			<path id="Layer1_0_2_STROKES" fill="none" stroke="#3A6FBB" stroke-linecap="round" stroke-linejoin="round" d="M363.3,299.1
				c0,2.1-0.8,4-2.3,5.5c-1.4,1.5-3.2,2.2-5.3,2.3c2.6,0,4.9,0.8,7,2.3c2.1,1.5,3.5,3.5,4.4,5.9c0.9-2.4,2.3-4.4,4.3-5.9
				c2.1-1.5,4.5-2.3,7.1-2.3c-2.1,0-3.8-0.8-5.3-2.3c-1.5-1.5-2.3-3.4-2.3-5.5c0-2.1,0.7-4,2.3-5.5c1.5-1.5,3.3-2.2,5.4-2.2
				c2.1,0,4,0.7,5.5,2.2c1.5,1.5,2.2,3.3,2.2,5.5c0,2.2-0.7,4-2.2,5.5c-1.5,1.5-3.3,2.2-5.5,2.3c2.6,0,5,0.8,7.1,2.3
				c2.1,1.5,3.5,3.5,4.4,5.9c0.9-2.4,2.4-4.4,4.5-5.9c2.1-1.5,4.4-2.3,7-2.3c-2.1,0-3.9-0.8-5.4-2.3c-1.5-1.5-2.2-3.3-2.2-5.5
				c0-2.1,0.7-4,2.2-5.5c1.6-1.5,3.4-2.2,5.5-2.2c2.1,0,3.9,0.7,5.4,2.2c1.5,1.5,2.2,3.3,2.3,5.5c0,2.1-0.8,4-2.3,5.5
				c-1.5,1.5-3.2,2.2-5.3,2.3c3.3,0,6.2,1.3,8.6,3.9c2.4,2.5,3.6,5.3,3.6,8.4h-71c0-3.2,1.2-6,3.6-8.4c2.4-2.5,5.3-3.8,8.7-3.9
				c-2.1,0-3.9-0.8-5.4-2.3c-1.5-1.5-2.3-3.3-2.3-5.5c0-2.1,0.8-4,2.3-5.5c1.5-1.5,3.4-2.2,5.5-2.2c2.1,0,3.9,0.7,5.4,2.2
				C362.5,295.1,363.3,297,363.3,299.1z M402,306.9h-0.2 M378.8,306.9h-0.2 M355.8,306.9h-0.2"/>
		</g>
	</g>
</g>
</svg>
