<?xml version="1.0" encoding="utf-8"?>
<!-- Generator: Adobe Illustrator 23.0.1, SVG Export Plug-In . SVG Version: 6.00 Build 0)  -->
<svg version="1.1" id="Layer_weter1" xmlns="http://www.w3.org/2000/svg" xmlns:xlink="http://www.w3.org/1999/xlink" x="0px" y="0px"
	 viewBox="0 0 750 400" enable-background="new 0 0 750 400" xml:space="preserve">
<g id="clouds_bits">
	<g transform="matrix( 1, 0, 0, 1, 0,0) ">
		<g>
			<g id="Layer7_0_FILL">
				<path fill="#83C4EC" d="M147.8,219.6c-0.3,0-0.5,0.1-0.6,0.3c-0.2,0.2-0.3,0.4-0.3,0.7v2.5h-2.6c-0.3,0-0.5,0.1-0.7,0.3
					c-0.2,0.2-0.3,0.4-0.3,0.7c0,0.3,0.1,0.5,0.3,0.7c0.2,0.2,0.4,0.3,0.7,0.3h2.6v2.5c0,0.3,0.1,0.5,0.3,0.7
					c0.2,0.2,0.4,0.3,0.6,0.3c0.3,0,0.5-0.1,0.7-0.3c0.2-0.2,0.3-0.4,0.3-0.7v-2.5h2.6c0.3,0,0.5-0.1,0.6-0.3
					c0.2-0.2,0.3-0.4,0.3-0.7c0-0.2-0.1-0.4-0.3-0.7c-0.2-0.2-0.4-0.3-0.6-0.3h-2.6v-2.5c0-0.3-0.1-0.5-0.3-0.7
					C148.3,219.7,148,219.6,147.8,219.6 M539.1,72.2c-0.6,0-0.9,0.3-0.9,1v2.5h-2.6c-0.3,0-0.5,0.1-0.7,0.3
					c-0.2,0.2-0.3,0.4-0.3,0.7c0,0.3,0.1,0.5,0.3,0.7c0.2,0.2,0.4,0.3,0.7,0.3h2.6v2.6c0,0.3,0.1,0.5,0.3,0.7
					c0.2,0.2,0.4,0.3,0.7,0.3s0.5-0.1,0.7-0.3c0.2-0.2,0.3-0.4,0.3-0.7v-2.6h2.5c0.3,0,0.5-0.1,0.7-0.3c0.2-0.2,0.3-0.4,0.3-0.7
					c0-0.3-0.1-0.5-0.3-0.7c-0.2-0.2-0.4-0.3-0.7-0.3H540v-2.5C540,72.5,539.7,72.2,539.1,72.2 M169.1,71.5c0-0.2-0.1-0.5-0.3-0.7
					c-0.2-0.2-0.4-0.3-0.6-0.3c-0.3,0-0.5,0.1-0.7,0.3c-0.2,0.2-0.3,0.4-0.3,0.7v2.6h-2.6c-0.3,0-0.5,0.1-0.7,0.3
					c-0.2,0.2-0.3,0.4-0.3,0.7c0,0.3,0.1,0.5,0.3,0.6c0.2,0.2,0.4,0.3,0.7,0.3h2.6v2.6c0,0.3,0.1,0.5,0.3,0.7
					c0.2,0.2,0.4,0.3,0.7,0.3c0.3,0,0.5-0.1,0.6-0.3c0.2-0.2,0.3-0.4,0.3-0.7V76h2.6c0.3,0,0.5-0.1,0.7-0.3c0.2-0.2,0.3-0.4,0.3-0.6
					c0-0.6-0.3-1-0.9-1h-2.6V71.5 M293.9,181h2.6c0.3,0,0.5-0.1,0.6-0.3c0.2-0.2,0.3-0.4,0.3-0.6c0-0.3-0.1-0.5-0.3-0.7
					c-0.2-0.2-0.4-0.2-0.6-0.3h-2.6v-2.6c0-0.3-0.1-0.5-0.3-0.6c-0.2-0.2-0.4-0.3-0.7-0.3c-0.2,0-0.5,0.1-0.6,0.3s-0.3,0.4-0.3,0.6
					v2.6h-2.6c-0.6,0-0.9,0.3-0.9,0.9c0,0.3,0.1,0.5,0.3,0.6c0.2,0.2,0.4,0.3,0.7,0.3h2.6v2.6c0,0.3,0.1,0.5,0.3,0.7
					c0.2,0.2,0.4,0.3,0.6,0.3c0.6,0,1-0.3,1-0.9V181 M650.8,260.8c0-0.6-0.3-0.9-1-0.9h-2.5v-2.6c0-0.2-0.1-0.4-0.3-0.6
					c-0.2-0.2-0.4-0.3-0.7-0.3c-0.3,0-0.5,0.1-0.7,0.3c-0.2,0.2-0.3,0.4-0.3,0.6v2.6h-2.5c-0.3,0-0.5,0.1-0.7,0.3
					c-0.2,0.2-0.3,0.4-0.3,0.7c0,0.3,0.1,0.5,0.3,0.7c0.2,0.2,0.4,0.3,0.7,0.3h2.5v2.5c0,0.3,0.1,0.5,0.3,0.7
					c0.2,0.2,0.4,0.3,0.7,0.3c0.3,0,0.5-0.1,0.7-0.3c0.2-0.2,0.3-0.4,0.3-0.7v-2.5h2.5c0.3,0,0.5-0.1,0.7-0.3
					C650.7,261.3,650.8,261.1,650.8,260.8z"/>
				<path fill="#F7571A" d="M630.2,112.2c0-0.5-0.2-1-0.6-1.3c-0.4-0.4-0.8-0.5-1.3-0.5c-0.5,0-1,0.2-1.4,0.5
					c-0.4,0.4-0.5,0.8-0.5,1.3c0,0.5,0.2,1,0.5,1.4c0.4,0.4,0.8,0.6,1.4,0.6s1-0.2,1.3-0.6C630,113.2,630.2,112.7,630.2,112.2
					 M153.3,122.7c-0.4-0.4-0.8-0.5-1.4-0.5c-0.5,0-1,0.2-1.3,0.5c-0.4,0.4-0.6,0.8-0.6,1.4c0,0.5,0.2,1,0.6,1.3
					c0.4,0.4,0.8,0.6,1.3,0.6c0.5,0,1-0.2,1.4-0.6c0.4-0.4,0.6-0.8,0.6-1.3C153.9,123.5,153.7,123.1,153.3,122.7 M328.9,221.6
					c-0.5,0-1,0.2-1.4,0.6s-0.5,0.8-0.5,1.4c0,0.5,0.2,1,0.5,1.4c0.4,0.4,0.8,0.6,1.4,0.6c0.5,0,1-0.2,1.4-0.6
					c0.4-0.4,0.6-0.9,0.6-1.4c0-0.5-0.2-1-0.6-1.4C329.9,221.8,329.4,221.6,328.9,221.6z"/>
				<path fill="#BFBFBF" d="M186.9,165.1l3-5.2l-3-5.2h-6.1l-3,5.2l3,5.2H186.9 M188.3,159.9l-2.2,3.8h-4.4l-2.2-3.8l2.2-3.8h4.4
					L188.3,159.9 M576.2,218.2h-6l-3.1,5.2l3.1,5.2h6l3-5.2L576.2,218.2 M571,219.6h4.3l2.2,3.8l-2.2,3.8H571l-2.2-3.8L571,219.6z"
					/>
				<path fill="#DEDEDE" d="M411.2,216c0.4-0.4,0.5-0.8,0.5-1.4s-0.2-1-0.5-1.4c-0.4-0.4-0.8-0.6-1.4-0.6c-0.5,0-1,0.2-1.3,0.6
					c-0.4,0.4-0.6,0.9-0.6,1.4s0.2,1,0.6,1.4c0.4,0.4,0.8,0.6,1.3,0.6C410.3,216.6,410.8,216.4,411.2,216 M210.3,295.6
					c-0.8-0.7-1.7-1.1-2.8-1.1s-2,0.4-2.7,1.1c-0.7,0.8-1.1,1.7-1.1,2.8c0,1.1,0.4,2,1.1,2.7c0.8,0.7,1.7,1.1,2.7,1.1
					c1.1,0,2-0.4,2.8-1.1c0.7-0.7,1.1-1.6,1.1-2.7C211.4,297.3,211,296.4,210.3,295.6z"/>
				<path fill="#D1D1D1" d="M353.6,122.2c0-1.1-0.4-2-1.1-2.7c-0.8-0.7-1.7-1.1-2.8-1.1s-2,0.4-2.7,1.1c-0.8,0.8-1.1,1.7-1.1,2.7
					c0,1.1,0.4,2,1.1,2.8c0.7,0.7,1.6,1.1,2.7,1.1s2-0.4,2.8-1.1C353.2,124.1,353.6,123.2,353.6,122.2z"/>
				<path fill="#BAD727" d="M603.7,145.3c0-0.5-0.2-1-0.6-1.4c-0.4-0.4-0.8-0.5-1.3-0.5s-1,0.2-1.3,0.5c-0.4,0.4-0.6,0.8-0.6,1.4
					s0.2,1,0.6,1.4c0.4,0.4,0.8,0.6,1.3,0.6s1-0.2,1.3-0.6C603.5,146.3,603.7,145.8,603.7,145.3 M511.1,313.9
					c0.4-0.4,0.6-0.8,0.6-1.4c0-0.5-0.2-1-0.6-1.4c-0.4-0.4-0.8-0.5-1.4-0.5s-1,0.2-1.4,0.5c-0.4,0.4-0.5,0.8-0.5,1.4s0.2,1,0.5,1.4
					c0.4,0.4,0.8,0.5,1.4,0.5S510.7,314.2,511.1,313.9z"/>
				<path fill="#3D3D3D" fill-opacity="0.1686" d="M290.4,230.8c-0.1-1.5-0.8-2.8-1.9-3.9c-1.1-1.1-2.5-1.6-4.1-1.6
					c-1.7,0-3.1,0.6-4.3,1.9c-0.9-2.3-2.4-4.2-4.5-5.6c-2.1-1.4-4.4-2.2-7-2.2c-3.4,0-6.3,1.2-8.6,3.6c-1.7-1.1-3.5-1.6-5.4-1.6
					c-1.3,0-2.5,0.2-3.7,0.7c-0.4-1.7-1.3-3.1-2.7-4.2c-1.4-1.1-3-1.7-4.8-1.7c-1.4,0-2.8,0.4-4,1.2c-1.2,0.7-2.1,1.7-2.8,2.9
					c-1.6-2-3.6-3.6-5.9-4.8c-2.4-1.2-5-1.8-7.7-1.8c-4.7,0-8.8,1.7-12.2,5c-3.4,3.3-5.1,7.3-5.3,12.1H290.4 M439.3,81.2
					c-0.2-5.6-2.2-10.3-6.2-14.2c-4-3.9-8.8-5.9-14.4-5.9c-3.2,0-6.2,0.7-9.1,2.2c-2.8,1.3-5.1,3.2-7,5.6c-0.8-1.5-1.9-2.6-3.3-3.5
					c-1.4-0.9-3-1.3-4.7-1.3c-2.1,0-3.9,0.7-5.6,1.9c-1.6,1.3-2.7,3-3.2,5c-1.4-0.5-2.8-0.8-4.3-0.8c-2.3,0-4.4,0.6-6.4,1.8
					c-2.8-2.8-6.2-4.1-10.2-4.1c-3,0-5.8,0.8-8.3,2.5c-2.4,1.7-4.2,3.9-5.3,6.6c-1.4-1.5-3.1-2.2-5.1-2.2c-1.8,0-3.4,0.6-4.8,1.9
					c-1.3,1.3-2.1,2.8-2.3,4.6H439.3 M463,247.3c-2.4-1.9-5.1-2.8-8.1-2.8c-2.4,0-4.7,0.6-6.8,1.9c-2,1.2-3.6,2.9-4.7,5
					c-2.8-3.5-6.1-6.2-10.1-8.1c-4.1-2-8.5-3.1-13.1-3.1c-8,0-14.9,2.8-20.7,8.5c-5.8,5.6-8.8,12.5-9,20.5h144
					c-0.2-2.6-1.2-4.8-3.1-6.6c-2-1.8-4.3-2.8-6.9-2.8c-2.9,0-5.3,1-7.3,3.1c-1.5-3.9-4-7.1-7.6-9.4c-3.6-2.5-7.5-3.7-11.9-3.7
					c-2.8,0-5.5,0.6-8.1,1.6c-2.5,1-4.8,2.5-6.7,4.4c-2.8-1.8-5.8-2.8-9.2-2.8c-2.1,0-4.2,0.4-6.3,1.2
					C466.9,251.5,465.4,249.2,463,247.3z"/>
			</g>
		</g>
		<g>
			<path id="Layer7_0_1_STROKES" fill="none" stroke="#BFBFBF" stroke-width="2" stroke-miterlimit="10" d="M639.8,182.2
				c0,0.9-0.3,1.7-1,2.3c-0.6,0.6-1.4,0.9-2.3,0.9c-0.9,0-1.7-0.3-2.3-0.9c-0.6-0.6-1-1.4-1-2.3c0-0.9,0.3-1.6,1-2.3
				c0.6-0.6,1.4-0.9,2.3-0.9c0.9,0,1.6,0.3,2.3,0.9C639.5,180.6,639.8,181.3,639.8,182.2z M90.3,156.5c0,0.9-0.3,1.7-0.9,2.3
				c-0.6,0.6-1.4,0.9-2.3,0.9c-0.9,0-1.6-0.3-2.3-0.9s-0.9-1.4-0.9-2.3c0-0.9,0.3-1.6,0.9-2.3s1.4-0.9,2.3-0.9
				c0.9,0,1.7,0.3,2.3,0.9C89.9,154.9,90.3,155.6,90.3,156.5z M129.6,272.5c0,0.9-0.3,1.7-0.9,2.3s-1.4,1-2.3,1
				c-0.9,0-1.7-0.3-2.3-1c-0.6-0.6-1-1.4-1-2.3c0-0.9,0.3-1.7,1-2.3c0.6-0.6,1.4-0.9,2.3-0.9c0.9,0,1.6,0.3,2.3,0.9
				C129.3,270.8,129.6,271.6,129.6,272.5z"/>
		</g>
	</g>
</g>
<g id="circles">
	<g transform="matrix( 1, 0, 0, 1, 0,0) ">
		<g>
			<g id="Layer6_0_FILL">
				<path fill="#2C538A" d="M541.8,188.1c8.5-16.6,9.9-33.8,4.2-51.4c-5.8-17.8-16.9-30.9-33.5-39.4c-16.6-8.5-33.7-9.9-51.5-4.2
					c-17.8,5.7-30.9,16.9-39.4,33.5c-8.5,16.6-9.9,33.8-4.2,51.5c5.8,17.8,16.9,30.9,33.5,39.4c16.6,8.5,33.8,9.9,51.5,4.2
					C520.2,215.9,533.3,204.7,541.8,188.1z"/>
				<path fill="#F7571A" d="M371.9,287c-5.1-15.7-15-27.4-29.6-34.9c-14.8-7.5-30-8.8-45.7-3.7c-15.8,5.1-27.4,15-35,29.6
					c-7.5,14.8-8.7,30-3.6,45.8c5,15.7,14.9,27.3,29.6,34.9c14.7,7.5,30,8.7,45.7,3.6c15.7-5.1,27.3-15,34.9-29.6
					C375.7,318,376.9,302.8,371.9,287z"/>
				<path fill="#BAD727" d="M311.7,79c-4.5-13.8-13.2-24.1-26.2-30.8c-12.9-6.6-26.3-7.7-40.1-3.3c-13.8,4.5-24.1,13.2-30.8,26.1
					c-6.6,13-7.7,26.4-3.3,40.2c4.5,13.9,13.2,24.2,26.1,30.8c13,6.6,26.4,7.8,40.1,3.4c13.9-4.5,24.1-13.3,30.8-26.3
					C315.1,106.2,316.2,92.8,311.7,79z"/>
			</g>
		</g>
		<g>
			<path id="Layer6_0_1_STROKES" fill="none" stroke="#A3A3A3" stroke-miterlimit="10" d="M555.8,134.4c6.6,20.4,5,40.2-4.8,59.3
				c-9.7,19.1-24.8,31.9-45.3,38.5c-10.5,3.4-20.9,4.6-31.1,3.6c-2.1-0.2-4.3-0.5-6.4-0.9l-5.3-1.2c-2-0.5-3.9-1.1-5.8-1.8
				c-3.7-1.3-7.3-2.8-10.8-4.6c-19.1-9.7-31.9-24.8-38.5-45.3c-6.6-20.5-5-40.2,4.9-59.3c9.8-19.1,24.8-31.9,45.2-38.5 M283.4,366
				c-16.8-8.6-28.1-21.9-33.8-39.9c-5.8-17.8-4.4-35.2,4.2-52.1c4.4-8.6,10.1-15.8,17-21.5c1.5-1.3,3-2.4,4.6-3.4l3.9-2.6
				c1.6-0.9,3.2-1.7,4.8-2.4c3-1.4,6.2-2.7,9.6-3.9c17.8-5.9,35.2-4.5,52,4.2c16.8,8.7,28,22,33.8,39.9c5.8,18,4.4,35.3-4.2,52.1
				 M322.3,76.3c5.4,16.8,4.1,33.1-4,48.8c-8,15.7-20.4,26.2-37.3,31.7c-8.6,2.8-17.1,3.8-25.6,3c-1.8-0.1-3.6-0.4-5.3-0.8l-4.3-0.9
				c-1.7-0.5-3.3-1-4.8-1.5c-3-1.1-5.9-2.3-8.9-3.8c-15.7-8-26.3-20.4-31.7-37.3c-5.4-16.9-4-33.1,4.1-48.8
				c8-15.7,20.4-26.3,37.2-31.7"/>
		</g>
	</g>
</g>
<g id="comp">
	<g transform="matrix( 1, 0, 0, 1, 0,0) ">
		<g>
			<path id="Layer5_0_1_STROKES" fill="none" stroke="#FFFFFF" stroke-linecap="round" stroke-linejoin="round" d="M496.9,179h-30.7
				c-0.4,0-0.7-0.2-1-0.5s-0.5-0.7-0.5-1.1v-0.1c0-0.5,0.2-0.9,0.5-1.2c0.4-0.3,0.8-0.5,1.2-0.5h3.8v-10.4h-23.9
				c-1.1,0-2.1-0.4-2.9-1.3c-0.8-0.8-1.2-1.7-1.3-2.9v-42.8c0-0.7,0.2-1.3,0.5-1.8c0.1-0.2,0.3-0.5,0.5-0.8l0.3-0.3
				c0.4-0.4,0.8-0.6,1.3-0.8l0.1-0.1c0.5-0.2,1-0.3,1.6-0.3h70.5c1.1,0,2.1,0.4,2.9,1.2c0.8,0.8,1.2,1.8,1.3,2.9V161
				c0,1.2-0.4,2.1-1.3,2.9c-0.8,0.8-1.8,1.2-2.9,1.3h-23.8v10.4h3.8c0.5,0,0.9,0.2,1.2,0.5c0.3,0.3,0.5,0.7,0.5,1.2v0.1
				c0,0.5-0.2,0.8-0.5,1.1C497.6,178.8,497.3,179,496.9,179z M465,128.3v-3.4h43.9v3.4v25.9H465V128.3h43.9 M516.5,163.1
				c0,0.2-0.1,0.4-0.2,0.5c-0.1,0.2-0.3,0.3-0.5,0.3c-0.2,0-0.4-0.1-0.5-0.3c-0.1-0.1-0.2-0.3-0.2-0.5s0.1-0.4,0.2-0.5
				c0.1-0.1,0.3-0.2,0.5-0.2c0.2,0,0.3,0.1,0.5,0.2C516.4,162.8,516.5,162.9,516.5,163.1z M491.9,188.1v3.4h3.5v-3.4H491.9h-3.4v3.4
				h3.4v3.4h3.5v-3.4h3.4v-3.4h-3.4 M488.5,191.5v3.4h3.4v3.5h3.5v-3.5h3.4v-3.4h3.4v-3.4h-3.4 M502.2,188.1h3.4h3.5h3.4h3.5v3.4
				v3.4v3.5h-3.5h-3.4h-3.5h-3.4h-3.4h-3.4 M502.2,191.5h3.4v-3.4 M502.2,191.5v3.4h3.4v-3.4h3.5v-3.4 M498.8,194.9h3.4v3.5
				 M442,189.2c0-1,0.4-1.8,1-2.6l0.3-0.3c0.2-0.2,0.4-0.4,0.7-0.6l0.5-0.3c0.5-0.2,1.1-0.4,1.7-0.4h70.5c0.6,0,1.2,0.2,1.7,0.4
				c0.5,0.2,0.9,0.5,1.2,0.9l0.3,0.3c0.6,0.7,0.9,1.6,1,2.6v7.8c0,1-0.3,1.9-1,2.6c-0.1,0.1-0.2,0.2-0.3,0.3
				c-0.4,0.4-0.8,0.7-1.2,0.9c-0.5,0.2-1.1,0.4-1.7,0.4h-70.5c-0.6,0-1.2-0.1-1.7-0.4c-0.4-0.2-0.9-0.5-1.3-0.9
				c-0.1-0.1-0.2-0.2-0.3-0.3c-0.6-0.7-0.9-1.6-1-2.6V189.2z M512.5,188.1v3.4h3.5 M516,194.9h-3.5v3.5 M512.5,191.5h-3.4v3.4h3.4
				V191.5z M509.1,198.4v-3.5h-3.5v3.5 M446.6,118.3h69.8v42.5h-69.8V118.3z M450,122.2h4.6v4.6H450V122.2z M450,129.8h4.6v4.6H450
				V129.8z M450,137.4h4.6v4.6H450V137.4z M450,144.9h4.6v4.7H450V144.9z M450,152.6h4.6v4.6H450V152.6z M450.6,191.5v3.4h3.4v-3.4
				H450.6v-3.4h-3.4v3.4H450.6z M454,191.5v-3.4h-3.4 M450.6,198.4v-3.5h-3.4v3.5H450.6h3.4v-3.5h3.5v-3.4H454 M447.2,194.9v-3.4
				 M454,188.1h3.5h3.5h3.4h3.5h3.4h3.5h3.4h3.5h3.4h3.5 M464.4,188.1v3.4h3.5v-3.4 M457.5,188.1v3.4h3.5v-3.4 M461,194.9h3.4v-3.4
				H461V194.9v3.5h3.4v-3.5h3.5v-3.4h3.4v-3.4 M457.5,194.9h3.5 M474.7,194.9v-3.4h-3.5v3.4H474.7h3.4v-3.4h-3.4v-3.4 M467.9,194.9
				h3.4v3.5h3.5v-3.5 M481.6,188.1v3.4h3.4v-3.4 M478.1,191.5v-3.4 M485,198.4v-3.5h-3.4v3.5H485h3.5v-3.5H485v-3.4h3.5
				 M478.1,194.9h3.5v-3.4h-3.5 M481.6,198.4h-3.5h-3.4 M471.3,198.4h-3.4h-3.5 M461,198.4h-3.5H454 M491.9,198.4h-3.4 M457.5,198.4
				v-3.5 M467.9,194.9v3.5 M478.1,194.9v3.5 M498.8,198.4v-3.5 M470.1,165.1h22.7 M470.1,175.6h22.7"/>
		</g>
	</g>
</g>
<g id="tablet">
	<g transform="matrix( 1, 0, 0, 1, 0,0) ">
		<g>
			<path id="Layer4_0_1_STROKES" fill="none" stroke="#FFFFFF" stroke-linecap="round" stroke-linejoin="round" d="M301.9,323.5h-15
				c-1.6,0-3-0.6-4.2-1.8c-1.2-1.2-1.8-2.6-1.8-4.2v-38.8c0-1.6,0.6-3.1,1.8-4.3c1.2-1.2,2.6-1.8,4.2-1.8h56.7
				c1.7,0,3.1,0.6,4.3,1.8c1.2,1.2,1.8,2.6,1.8,4.3v26.8 M301.9,317.5H293v-38.8h47.7v26.8"/>
		</g>
		<g>
			<path id="Layer4_0_2_STROKES" fill="none" stroke="#FFFFFF" stroke-linejoin="round" d="M331.7,311V295c0-2-0.8-2.9-2.3-2.9h-4.3
				c-1.6,0-2.4,1-2.4,2.9v27.5l-5.2-6.2c-0.5-0.7-1.3-1.1-2.3-1.1l-3,0.1c-1.2,0-2,0.5-2.5,1.4c-0.6,1.1-0.6,2-0.1,2.8l11.1,20.3
				c0.6,1,1.4,1.5,2.5,1.5h19.1c1.2,0,2.1-0.6,2.6-1.8l4.5-20c0-1.5-0.6-2.5-1.8-2.8L331.7,311z M288.5,298.1c0,0.4-0.1,0.8-0.5,1.1
				c-0.3,0.3-0.6,0.4-1.1,0.4c-0.3,0-0.7-0.1-1-0.4c-0.3-0.3-0.4-0.6-0.4-1.1c0-0.4,0.1-0.8,0.4-1.1c0.4-0.3,0.7-0.4,1-0.4
				c0.5,0,0.9,0.1,1.1,0.4C288.3,297.4,288.5,297.8,288.5,298.1z"/>
		</g>
	</g>
</g>
<g id="phone">
	<g transform="matrix( 1, 0, 0, 1, 0,0) ">
		<g>
			<path id="Layer3_0_1_STROKES" fill="none" stroke="#3A6FBB" stroke-linecap="round" stroke-linejoin="round" d="M240.8,68.7V66
				c0-1,0.3-2,0.7-2.9c0.2-0.5,0.5-0.9,0.9-1.3l0.4-0.5c0.6-0.6,1.3-1.1,2-1.4l0.1-0.1c0.8-0.3,1.7-0.5,2.7-0.5h26.3
				c1,0,1.8,0.2,2.6,0.5l0.1,0.1c0.7,0.3,1.3,0.8,2,1.4l0.4,0.5c0.3,0.4,0.6,0.8,0.8,1.3c0.5,0.9,0.7,1.8,0.8,2.9v2.7V119v3.2
				c0,1.1-0.3,2.1-0.8,3c-0.2,0.4-0.4,0.8-0.8,1.3l-0.4,0.5c-0.7,0.6-1.3,1.1-2,1.5l-0.1,0c-0.8,0.3-1.7,0.5-2.6,0.6h-26.3
				c-1,0-1.9-0.2-2.7-0.6l-0.1,0c-0.7-0.3-1.4-0.8-2-1.5c-0.1-0.1-0.2-0.2-0.4-0.5c-0.3-0.4-0.6-0.8-0.9-1.3c-0.4-0.9-0.7-1.9-0.7-3
				V119V68.7h39.7 M267.5,74.4c0-0.3,0.1-0.5,0.4-0.8c0.2-0.2,0.5-0.3,0.9-0.3h5.4c0.3,0,0.6,0.1,0.9,0.3c0.2,0.2,0.4,0.5,0.4,0.8
				v5.5c0,0.3-0.1,0.6-0.4,0.8c-0.2,0.3-0.5,0.4-0.8,0.5h-5.5c-0.3,0-0.6-0.2-0.8-0.5c-0.3-0.2-0.4-0.4-0.4-0.8V74.4z M256.8,74.4
				c0-0.3,0.1-0.5,0.4-0.8c0.3-0.2,0.5-0.3,0.8-0.3h5.6c0.3,0,0.5,0.1,0.8,0.3c0.2,0.2,0.4,0.5,0.4,0.8v5.5c0,0.3-0.1,0.6-0.4,0.8
				c-0.2,0.3-0.5,0.4-0.8,0.5h-5.6c-0.3,0-0.6-0.2-0.8-0.5c-0.2-0.2-0.3-0.4-0.4-0.8V74.4z M256.1,65.4c-0.4,0-0.8-0.2-1.1-0.4
				c-0.3-0.3-0.4-0.7-0.4-1c0-0.4,0.1-0.8,0.4-1.1c0.3-0.3,0.7-0.4,1.1-0.4h9.1c0.4,0,0.8,0.1,1.1,0.4c0.2,0.3,0.4,0.6,0.4,1.1
				c0,0.4-0.1,0.8-0.4,1c-0.3,0.3-0.7,0.4-1.1,0.4H256.1z M246.1,74.4c0-0.3,0.1-0.6,0.3-0.8c0.2-0.2,0.5-0.3,0.8-0.3h5.4
				c0.3,0,0.6,0.1,0.8,0.3c0.3,0.2,0.4,0.5,0.4,0.8v5.5c0,0.3-0.2,0.6-0.4,0.8c-0.2,0.3-0.5,0.4-0.8,0.5h-5.4
				c-0.3,0-0.6-0.2-0.8-0.5c-0.2-0.2-0.3-0.5-0.3-0.8V74.4z M246.1,85.4c0-0.3,0.1-0.5,0.3-0.8c0.2-0.2,0.5-0.3,0.8-0.3h5.4
				c0.4,0,0.6,0.2,0.8,0.3c0.3,0.3,0.4,0.5,0.4,0.8v5.5c0,0.3-0.2,0.6-0.4,0.8c-0.2,0.2-0.4,0.4-0.8,0.4h-5.5
				c-0.3,0-0.6-0.1-0.8-0.4c-0.2-0.2-0.3-0.5-0.3-0.8V85.4z M256.8,85.4c0-0.3,0.1-0.6,0.4-0.8c0.3-0.2,0.5-0.3,0.8-0.3h5.6
				c0.3,0,0.5,0.2,0.8,0.3c0.2,0.3,0.4,0.5,0.4,0.8V91c0,0.3-0.1,0.5-0.4,0.7c-0.3,0.3-0.5,0.4-0.8,0.4h-5.6c-0.3,0-0.6-0.2-0.8-0.4
				c-0.2-0.2-0.3-0.5-0.4-0.8V85.4z M246.1,96.4c0-0.3,0.1-0.6,0.3-0.8c0.2-0.2,0.5-0.3,0.8-0.3h5.4c0.4,0,0.6,0.1,0.8,0.3
				c0.3,0.3,0.4,0.6,0.4,0.8v5.6c0,0.3-0.1,0.5-0.4,0.7c-0.2,0.3-0.4,0.4-0.8,0.4h-5.6c-0.3,0-0.6-0.1-0.8-0.4
				c-0.2-0.2-0.3-0.5-0.3-0.8V96.4z M256.8,96.4c0-0.3,0.1-0.6,0.4-0.8c0.3-0.2,0.5-0.3,0.8-0.3h5.6c0.3,0,0.5,0.1,0.8,0.3
				c0.2,0.3,0.4,0.6,0.4,0.8v5.7c0,0.3-0.1,0.5-0.4,0.7c-0.3,0.3-0.5,0.4-0.8,0.4h-5.6c-0.2,0-0.5-0.1-0.8-0.4
				c-0.2-0.2-0.3-0.4-0.4-0.8V96.4z M267.5,85.4c0-0.3,0.1-0.5,0.4-0.8c0.2-0.2,0.5-0.3,0.9-0.3h5.4c0.3,0,0.6,0.2,0.9,0.3
				c0.2,0.3,0.4,0.5,0.4,0.8V91c0,0.3-0.1,0.5-0.4,0.7c-0.2,0.2-0.4,0.4-0.8,0.4h-5.5c-0.3,0-0.6-0.2-0.8-0.4
				c-0.3-0.2-0.4-0.5-0.4-0.8V85.4z M267.5,96.4c0-0.3,0.1-0.6,0.4-0.8c0.2-0.2,0.5-0.3,0.9-0.3h5.4c0.3,0,0.6,0.1,0.9,0.3
				c0.2,0.3,0.4,0.6,0.4,0.8v5.7c0,0.3-0.1,0.5-0.4,0.7c-0.3,0.3-0.5,0.4-0.8,0.4h-5.6c-0.3,0-0.5-0.1-0.7-0.4
				c-0.3-0.2-0.4-0.4-0.4-0.8V96.4z M267.5,107.4c0-0.3,0.1-0.6,0.4-0.8c0.2-0.3,0.5-0.4,0.9-0.4h5.4c0.3,0,0.6,0.1,0.9,0.4
				c0.2,0.2,0.4,0.5,0.4,0.7v5.7c0,0.3-0.1,0.5-0.4,0.8c-0.2,0.2-0.4,0.3-0.8,0.3h-5.6c-0.3,0-0.5-0.1-0.7-0.3
				c-0.3-0.2-0.4-0.5-0.4-0.8V107.4z M256.8,107.4c0-0.3,0.1-0.6,0.4-0.8c0.3-0.3,0.5-0.4,0.8-0.4h5.6c0.3,0,0.5,0.1,0.8,0.4
				c0.2,0.2,0.4,0.5,0.4,0.7v5.7c0,0.3-0.1,0.5-0.4,0.8c-0.3,0.2-0.5,0.3-0.8,0.3h-5.6c-0.2,0-0.5-0.1-0.8-0.3
				c-0.2-0.2-0.3-0.5-0.4-0.8V107.4z M246.1,107.4c0-0.3,0.1-0.6,0.3-0.8c0.2-0.3,0.5-0.4,0.8-0.4h5.4c0.4,0,0.6,0.1,0.8,0.4
				c0.3,0.2,0.4,0.5,0.4,0.8v5.5c0,0.3-0.2,0.6-0.4,0.8c-0.2,0.2-0.4,0.3-0.8,0.3h-5.6c-0.3,0-0.6-0.1-0.8-0.3
				c-0.2-0.3-0.3-0.6-0.3-0.8V107.4z M263,123.7c0,0.7-0.2,1.2-0.7,1.6c-0.5,0.5-1,0.8-1.6,0.8c-0.7,0-1.2-0.2-1.7-0.8
				c-0.5-0.4-0.7-0.9-0.7-1.6c0-0.7,0.2-1.3,0.7-1.8c0.5-0.4,1.1-0.6,1.7-0.6c0.6,0,1.2,0.2,1.6,0.6C262.8,122.4,263,123,263,123.7z
				 M240.8,119h39.7"/>
		</g>
	</g>
</g>
<g id="cloud">
	<g transform="matrix( 1, 0, 0, 1, 0,0) ">
		<g>
			<g id="Layer2_0_FILL">
				<path fill="#FEFEFE" d="M364.3,173.8c0-6.2-2.2-11.4-6.6-15.8c-4.4-4.4-9.6-6.6-15.8-6.6c-6.2,0-11.5,2.2-15.9,6.6
					c-4.4,4.4-6.5,9.7-6.5,15.8c0,1.3,0.1,2.5,0.3,3.6c-1.4-0.6-2.8-0.8-4.3-0.8c-3,0-5.6,1.1-7.7,3.2s-3.2,4.7-3.2,7.7
					c0,1.7,0.4,3.3,1.1,4.7c-0.9-0.1-1.5-0.2-2-0.2c-3,0-5.6,1.1-7.7,3.2c-2.1,2.1-3.2,4.7-3.2,7.7c0,3,1.1,5.5,3.2,7.6
					c2.1,2.1,4.6,3.2,7.4,3.2h71.3c2.9,0,5.3-1.1,7.4-3.2c2.1-2.1,3.1-4.7,3.1-7.6c0-2.1-0.5-3.9-1.5-5.6c1-2,1.5-4.2,1.5-6.7
					c0-4.1-1.5-7.6-4.4-10.4s-6.4-4.3-10.5-4.3c-2.2,0-4.3,0.4-6.2,1.3C364.2,176.3,364.3,175.2,364.3,173.8z"/>
			</g>
		</g>
		<g>
			<path id="Layer2_0_1_STROKES" fill="none" stroke="#2C538A" stroke-linecap="round" stroke-linejoin="round" d="M303.3,213.7
				c-2.8,0-5.3-1.1-7.4-3.2c-2.1-2.1-3.2-4.7-3.2-7.6c0-3,1.1-5.6,3.2-7.7c2.1-2.1,4.7-3.2,7.7-3.2c0.5,0,1.1,0.1,2,0.2
				c-0.7-1.4-1.1-3-1.1-4.7c0-3,1.1-5.6,3.2-7.7s4.7-3.2,7.7-3.2c1.5,0,2.9,0.3,4.3,0.8c-0.2-1.2-0.3-2.4-0.3-3.6
				c0-6.1,2.2-11.4,6.5-15.8c4.4-4.4,9.7-6.6,15.9-6.6c6.2,0,11.4,2.2,15.8,6.6c4.4,4.4,6.6,9.6,6.6,15.8c0,1.4-0.1,2.5-0.2,3.4
				c1.9-0.9,4-1.3,6.2-1.3c4.1,0,7.6,1.4,10.5,4.3s4.4,6.4,4.4,10.4c0,2.5-0.5,4.7-1.5,6.7c1,1.6,1.5,3.5,1.5,5.6c0,3-1,5.5-3.1,7.6
				c-2.1,2.1-4.5,3.2-7.4,3.2H303.3z"/>
		</g>
	</g>
</g>
<g id="connectors">
	<g transform="matrix( 1, 0, 0, 1, 0,0) ">
		<g>
			<g id="Layer1_0_FILL">
				<path fill="#FEFEFE" d="M355.5,248.3c-0.5,0-0.9,0.2-1.3,0.5c-0.4,0.4-0.5,0.8-0.5,1.3c0,0.5,0.2,1,0.5,1.3
					c0.4,0.4,0.8,0.5,1.3,0.5c0.5,0,0.9-0.2,1.3-0.5c0.4-0.3,0.5-0.8,0.5-1.3c0-0.5-0.2-0.9-0.5-1.3
					C356.4,248.4,356,248.3,355.5,248.3 M352.5,210.6c-0.9,0.9-1.3,1.9-1.3,3.2c0,1.2,0.4,2.3,1.3,3.1c0.8,0.8,1.8,1.2,2.9,1.3
					c0.1,0,0.1,0,0.3,0c1.2,0,2.3-0.4,3.1-1.3c0.9-0.8,1.3-1.9,1.3-3.1c0-1.2-0.4-2.3-1.3-3.2c-0.9-0.9-1.9-1.3-3.1-1.3
					C354.5,209.4,353.4,209.8,352.5,210.6 M219.1,146.5c0.5,0,0.9-0.2,1.3-0.5c0.4-0.4,0.6-0.8,0.6-1.3c0-0.5-0.2-1-0.6-1.3
					c-0.4-0.4-0.8-0.5-1.3-0.5c-0.5,0-0.9,0.2-1.3,0.5c-0.4,0.3-0.5,0.8-0.5,1.3c0,0.5,0.2,0.9,0.5,1.3
					C218.2,146.3,218.6,146.5,219.1,146.5 M292.5,191.6c-0.8,0.8-1.2,1.8-1.3,2.9c0,0.1,0,0.1,0,0.3c0,1.2,0.4,2.3,1.3,3.2
					c0.8,0.9,1.9,1.3,3.1,1.3c1.2,0,2.3-0.4,3.1-1.3s1.3-1.9,1.3-3.2c0-1.2-0.4-2.3-1.3-3.1s-1.9-1.3-3.1-1.3
					S293.3,190.7,292.5,191.6 M430.2,100.9c0-0.5-0.2-0.9-0.6-1.3c-0.3-0.4-0.8-0.6-1.3-0.6c-0.5,0-0.9,0.2-1.3,0.6
					c-0.3,0.3-0.5,0.8-0.5,1.3c0,0.5,0.2,0.9,0.5,1.3c0.4,0.4,0.8,0.6,1.3,0.6c0.5,0,1-0.2,1.3-0.6
					C430,101.8,430.2,101.4,430.2,100.9 M376.6,172.9c-0.1,0-0.2,0-0.3,0c-1.2,0-2.3,0.4-3.1,1.3c-0.9,0.8-1.3,1.9-1.3,3.1
					c0,1.2,0.4,2.3,1.3,3.1c0.9,0.9,1.9,1.3,3.1,1.3s2.3-0.4,3.1-1.3s1.3-1.9,1.3-3.1c0-1.2-0.4-2.3-1.3-3.1
					C378.7,173.4,377.7,173,376.6,172.9z"/>
			</g>
		</g>
		<g>
			<path id="Layer1_0_1_STROKES" fill="none" stroke="#A3A3A3" stroke-miterlimit="10" d="M376.6,172.9v-46.8c0-7,2.5-12.9,7.4-17.8
				s10.9-7.4,17.9-7.4h24.7c0-0.5,0.2-0.9,0.5-1.3c0.4-0.4,0.8-0.6,1.3-0.6c0.5,0,1,0.2,1.3,0.6c0.4,0.3,0.6,0.8,0.6,1.3
				c0,0.5-0.2,0.9-0.6,1.3c-0.3,0.4-0.8,0.6-1.3,0.6c-0.5,0-0.9-0.2-1.3-0.6c-0.3-0.4-0.5-0.8-0.5-1.3 M371.9,177.4
				c0,1.2,0.4,2.3,1.3,3.1c0.9,0.9,1.9,1.3,3.1,1.3s2.3-0.4,3.1-1.3s1.3-1.9,1.3-3.1c0-1.2-0.4-2.3-1.3-3.1
				c-0.8-0.8-1.8-1.2-2.9-1.3c-0.1,0-0.2,0-0.3,0c-1.2,0-2.3,0.4-3.1,1.3C372.3,175.1,371.9,176.1,371.9,177.4z M355.5,218.2
				c0.1,0,0.1,0,0.3,0c1.2,0,2.3-0.4,3.1-1.3c0.9-0.8,1.3-1.9,1.3-3.1c0-1.2-0.4-2.3-1.3-3.2c-0.9-0.9-1.9-1.3-3.1-1.3
				c-1.2,0-2.3,0.4-3.2,1.3c-0.9,0.9-1.3,1.9-1.3,3.2c0,1.2,0.4,2.3,1.3,3.1C353.4,217.7,354.3,218.1,355.5,218.2v30.1
				c0.5,0,0.9,0.2,1.3,0.5c0.4,0.4,0.5,0.8,0.5,1.3c0,0.5-0.2,1-0.5,1.3c-0.3,0.4-0.7,0.5-1.3,0.5c-0.5,0-0.9-0.2-1.3-0.5
				c-0.4-0.3-0.5-0.8-0.5-1.3c0-0.5,0.2-0.9,0.5-1.3c0.4-0.3,0.8-0.5,1.3-0.5 M219.1,146.5c0.5,0,0.9-0.2,1.3-0.5
				c0.4-0.4,0.6-0.8,0.6-1.3c0-0.5-0.2-1-0.6-1.3c-0.4-0.4-0.8-0.5-1.3-0.5c-0.5,0-0.9,0.2-1.3,0.5c-0.4,0.3-0.5,0.8-0.5,1.3
				c0,0.5,0.2,0.9,0.5,1.3C218.2,146.3,218.6,146.5,219.1,146.5v22.7c0,7,2.5,12.9,7.4,17.9c4.9,4.9,10.9,7.4,17.8,7.4h46.8
				c0.1-1.1,0.5-2.1,1.3-2.9c0.8-0.9,1.9-1.3,3.1-1.3s2.3,0.4,3.1,1.3s1.3,1.9,1.3,3.1c0,1.2-0.4,2.3-1.3,3.2s-1.9,1.3-3.1,1.3
				c-1.2,0-2.3-0.4-3.1-1.3c-0.9-0.9-1.3-1.9-1.3-3.2c0-0.1,0-0.2,0-0.3"/>
		</g>
	</g>
</g>
</svg>
