<?xml version="1.0" encoding="utf-8"?>
<!-- Generator: Adobe Illustrator 22.1.0, SVG Export Plug-In . SVG Version: 6.00 Build 0)  -->
<svg version="1.1" id="Layer_06" xmlns="http://www.w3.org/2000/svg" xmlns:xlink="http://www.w3.org/1999/xlink" x="0px" y="0px"
	 viewBox="0 0 936 792" style="enable-background:new 0 0 936 792;" xml:space="preserve">
<style type="text/css">
	.st0{fill:#1776BF;}
	.st1{opacity:0.17;fill:#3B3B3B;}
	.st2{opacity:0.17;fill:#FFFFFF;}
	.st3{opacity:0.17;fill:#606060;}
	.st4{fill:none;stroke:#A3A3A3;}
	.st5{fill:#C2D500;}
	.st6{fill:#0899CC;}
	.st7{fill:none;stroke:#000000;stroke-miterlimit:10;}
	.st8{fill:none;stroke:#1776BF;stroke-miterlimit:10;}
	.st9{fill:none;stroke:#FFFFFF;stroke-linejoin:round;stroke-miterlimit:10;}
	.st10{fill:none;stroke:#0C3B60;stroke-miterlimit:10;}
	.st11{fill:none;stroke:#0899CC;stroke-miterlimit:10;}
	.st12{fill:#0C3B60;}
	.st13{fill:none;stroke:#FFFFFF;stroke-miterlimit:10;}
	.st14{fill:#7BCAEF;}
	.st15{fill:#FF4D00;}
	.st16{fill:none;stroke:#FFFFFF;stroke-linecap:round;stroke-linejoin:round;stroke-miterlimit:10;}
	.st17{fill:#1776BF;stroke:#FFFFFF;stroke-miterlimit:10;}
	.st18{fill:#FFFFFF;}
	.st19{fill:#C2C2C2;}
	.st20{fill:#FEFEFE;}
	.st21{fill:#7C4B39;}
	.st22{fill:#E79271;}
	.st23{fill:#5C5C5C;stroke:#000000;stroke-miterlimit:10;}
	.st24{fill:#CFCFCF;}
	.st25{fill:#FFC7B0;}
	.st26{fill:#363636;}
	.st27{fill:#595959;stroke:#000000;stroke-miterlimit:10;}
	.st28{fill:#595959;}
	.st29{fill:#969696;}
	.st30{fill:#525252;}
	.st31{fill:none;stroke:#FFFFFF;stroke-linecap:round;stroke-linejoin:round;}
	.st32{fill:none;}
	.st33{fill:#FF5C66;}
	.st34{fill:#9F293B;}
	.st35{fill:none;stroke:#828282;stroke-miterlimit:10;}
</style>
<path class="st0" d="M534.7,668L367.4,531.2c-19.4-15.8-43.1-25.3-68.1-27.1l-47.9-3.4c-83.2-5.9-135.7-92.2-102.7-168.8l34.8-80.8
	c28.5-66.3,108.2-93.1,171-57.6l50.1,28.3c36.6,20.7,81.3,21,118.1,0.7l99.4-54.7c52.3-28.8,117.7-15.2,154.2,31.9l29.5,38
	c37.2,48,33.2,116.1-9.5,159.3l-35.2,35.7c-27.5,27.9-39.8,67.3-33.1,105.8l2.6,14.8c8.6,49.3-14,98.7-56.8,124.6l0,0
	C630.1,704.4,574.4,700.4,534.7,668z"/>
<path class="st1" d="M385,141.8c0.7-27.7,23.3-50,51.2-50c16.2,0,30.6,7.5,40,19.2c3.8-7.1,11.2-11.8,19.8-11.8
	c10.6,0,19.4,7.3,21.9,17.1c3.3-1.4,7-2.1,10.8-2.1c5.8,0,11.3,1.7,15.8,4.7c6.5-6.5,15.5-10.5,25.4-10.5c15.2,0,28.2,9.4,33.5,22.7
	c3.2-3.4,7.7-5.4,12.6-5.4c9.2,0,16.7,7.1,17.3,16.1H385z"/>
<path class="st2" d="M641.2,414.3c-0.4-17.1-14.4-30.8-31.6-30.8c-10,0-18.9,4.6-24.6,11.8c-2.3-4.3-6.9-7.3-12.2-7.3
	c-6.5,0-12,4.5-13.5,10.6c-2.1-0.8-4.3-1.3-6.7-1.3c-3.6,0-6.9,1.1-9.7,2.9c-4-4-9.6-6.5-15.7-6.5c-9.4,0-17.4,5.8-20.6,14
	c-2-2.1-4.7-3.4-7.8-3.4c-5.7,0-10.3,4.4-10.7,10H641.2z"/>
<g>
	<path class="st3" d="M935.1,369.3c-0.4-6.2-5.6-11-11.9-11c-3.4,0-6.5,1.4-8.6,3.7c-3.6-9.1-12.5-15.5-22.9-15.5
		c-6.8,0-12.9,2.7-17.4,7.2c-3.1-2-6.8-3.2-10.8-3.2c-2.6,0-5.1,0.5-7.4,1.4c-1.6-6.7-7.7-11.7-14.9-11.7c-5.9,0-10.9,3.3-13.5,8.1
		c-0.5-0.6-0.9-1.1-1.4-1.7c-2.3,7.8-5.4,15.4-9.4,22.7H935.1z"/>
	<path class="st2" d="M800.4,335.2c-19,0-34.5,15.2-35,34.1h51.5c3.9-7.3,7-14.9,9.4-22.7C819.9,339.6,810.7,335.2,800.4,335.2z"/>
</g>
<path class="st1" d="M176.5,174c-0.4-18.1-15.2-32.7-33.5-32.7c-10.6,0-20,4.9-26.1,12.5c-2.5-4.6-7.4-7.7-13-7.7
	c-6.9,0-12.7,4.8-14.3,11.2c-2.2-0.9-4.6-1.4-7.1-1.4c-3.8,0-7.4,1.1-10.3,3.1c-4.3-4.2-10.1-6.9-16.6-6.9
	c-9.9,0-18.4,6.1-21.9,14.8c-2.1-2.2-5-3.6-8.3-3.6c-6,0-10.9,4.7-11.3,10.5H176.5z"/>
<path class="st1" d="M220.9,644.3c-0.5-18.7-15.8-33.8-34.6-33.8c-10.9,0-20.7,5.1-27,13c-2.6-4.8-7.6-8-13.4-8
	c-7.2,0-13.1,4.9-14.8,11.6c-2.3-0.9-4.7-1.4-7.3-1.4c-3.9,0-7.6,1.2-10.7,3.2c-4.4-4.4-10.5-7.1-17.2-7.1c-10.3,0-19,6.4-22.6,15.3
	c-2.1-2.3-5.2-3.7-8.5-3.7c-6.2,0-11.3,4.8-11.7,10.9H220.9z"/>
<g>
	<g>
		<polyline class="st4" points="701.9,273.1 701.9,152 450.5,152 450.5,333.9 502.4,333.9 658.5,333.9 701.9,333.9 		"/>
		<line class="st4" x1="495" y1="161.3" x2="495" y2="334.1"/>
		<line class="st4" x1="450.5" y1="161.5" x2="701.9" y2="161.5"/>
		<line class="st4" x1="450.5" y1="182.8" x2="495" y2="182.8"/>
		<line class="st4" x1="519.5" y1="227.6" x2="681.6" y2="227.6"/>
		<line class="st4" x1="521.2" y1="239.2" x2="681.6" y2="239.2"/>
		<line class="st4" x1="514.6" y1="215.9" x2="681.6" y2="215.9"/>
		<line class="st4" x1="513.2" y1="204.3" x2="681.6" y2="204.3"/>
		<line class="st4" x1="513.2" y1="192.6" x2="681.6" y2="192.6"/>
		<line class="st4" x1="513.2" y1="180.9" x2="681.6" y2="180.9"/>
		<g>
			<circle class="st4" cx="535.6" cy="297.1" r="21.4"/>
			<path class="st4" d="M551.8,267.9h-32.3c-0.8,0-1.5-0.7-1.5-1.5V265c0-0.8,0.7-1.5,1.5-1.5h32.3c0.8,0,1.5,0.7,1.5,1.5v1.4
				C553.3,267.2,552.6,267.9,551.8,267.9z"/>
		</g>
		<path class="st4" d="M485.7,174.7h-26.8c-0.8,0-1.5-0.7-1.5-1.5v-1.4c0-0.8,0.7-1.5,1.5-1.5h26.8c0.8,0,1.5,0.7,1.5,1.5v1.4
			C487.2,174,486.5,174.7,485.7,174.7z"/>
		<path class="st4" d="M485.7,196.3h-26.8c-0.8,0-1.5-0.7-1.5-1.5v-1.4c0-0.8,0.7-1.5,1.5-1.5h26.8c0.8,0,1.5,0.7,1.5,1.5v1.4
			C487.2,195.6,486.5,196.3,485.7,196.3z"/>
		<path class="st4" d="M485.7,209.7h-26.8c-0.8,0-1.5-0.7-1.5-1.5v-1.4c0-0.8,0.7-1.5,1.5-1.5h26.8c0.8,0,1.5,0.7,1.5,1.5v1.4
			C487.2,209,486.5,209.7,485.7,209.7z"/>
		<path class="st4" d="M485.7,223.1h-26.8c-0.8,0-1.5-0.7-1.5-1.5v-1.4c0-0.8,0.7-1.5,1.5-1.5h26.8c0.8,0,1.5,0.7,1.5,1.5v1.4
			C487.2,222.4,486.5,223.1,485.7,223.1z"/>
		<path class="st4" d="M485.7,249.9h-26.8c-0.8,0-1.5-0.7-1.5-1.5V247c0-0.8,0.7-1.5,1.5-1.5h26.8c0.8,0,1.5,0.7,1.5,1.5v1.4
			C487.2,249.2,486.5,249.9,485.7,249.9z"/>
		<path class="st4" d="M485.7,236.5h-26.8c-0.8,0-1.5-0.7-1.5-1.5v-1.4c0-0.8,0.7-1.5,1.5-1.5h26.8c0.8,0,1.5,0.7,1.5,1.5v1.4
			C487.2,235.8,486.5,236.5,485.7,236.5z"/>
		<path class="st4" d="M485.7,263.3h-26.8c-0.8,0-1.5-0.7-1.5-1.5v-1.4c0-0.8,0.7-1.5,1.5-1.5h26.8c0.8,0,1.5,0.7,1.5,1.5v1.4
			C487.2,262.6,486.5,263.3,485.7,263.3z"/>
		<path class="st4" d="M485.7,276.7h-26.8c-0.8,0-1.5-0.7-1.5-1.5v-1.4c0-0.8,0.7-1.5,1.5-1.5h26.8c0.8,0,1.5,0.7,1.5,1.5v1.4
			C487.2,276,486.5,276.7,485.7,276.7z"/>
		<path class="st4" d="M485.7,290.1h-26.8c-0.8,0-1.5-0.7-1.5-1.5v-1.4c0-0.8,0.7-1.5,1.5-1.5h26.8c0.8,0,1.5,0.7,1.5,1.5v1.4
			C487.2,289.4,486.5,290.1,485.7,290.1z"/>
		<g>
			<circle class="st4" cx="598.2" cy="297.8" r="21.4"/>
			<path class="st4" d="M614.3,267.9h-32.3c-0.8,0-1.5-0.7-1.5-1.5V265c0-0.8,0.7-1.5,1.5-1.5h32.3c0.8,0,1.5,0.7,1.5,1.5v1.4
				C615.8,267.2,615.2,267.9,614.3,267.9z"/>
		</g>
		<g>
			<path class="st4" d="M682.1,297.8c0,11.8-9.6,21.4-21.4,21.4s-21.4-9.6-21.4-21.4s9.6-21.4,21.4-21.4"/>
			<path class="st4" d="M676.9,267.9h-32.3c-0.8,0-1.5-0.7-1.5-1.5V265c0-0.8,0.7-1.5,1.5-1.5h32.3c0.8,0,1.5,0.7,1.5,1.5v1.4
				C678.4,267.2,677.7,267.9,676.9,267.9z"/>
		</g>
		<g>
			<circle class="st4" cx="459.2" cy="156.6" r="1.9"/>
			<circle class="st4" cx="467.2" cy="156.6" r="1.9"/>
			<circle class="st4" cx="475.3" cy="156.6" r="1.9"/>
		</g>
		<circle class="st4" cx="624.3" cy="192.6" r="2.6"/>
		<circle class="st4" cx="533.3" cy="180.9" r="2.6"/>
		<circle class="st4" cx="588.6" cy="204.6" r="2.6"/>
		<circle class="st4" cx="663.3" cy="215.9" r="2.6"/>
		<circle class="st4" cx="541.2" cy="227.9" r="2.6"/>
		<circle class="st4" cx="604.9" cy="239.5" r="2.6"/>
	</g>
</g>
<g>
	<line class="st4" x1="142.1" y1="250" x2="142.1" y2="259"/>
	<line class="st4" x1="148.3" y1="259" x2="148.3" y2="250.3"/>
	<path class="st4" d="M77.3,239C77.4,239,77.4,239,77.3,239h46.7v12.7h-36H88"/>
	<path class="st4" d="M102.7,299.4L102.7,299.4l-30.1-52.1c-1.5-2.7-0.6-6.1,2-7.6c2.7-1.5,6.1-0.6,7.6,2l29.7,51.5"/>
	<polyline class="st4" points="97.4,318 97.4,353.3 116.3,353.3 	"/>
	<line class="st4" x1="125.1" y1="327.4" x2="125.1" y2="318"/>
	<g>
		<rect x="172.2" y="293.3" class="st4" width="34.1" height="34.1"/>
		<rect x="186.7" y="293.3" class="st4" width="5.2" height="9.8"/>
		<rect x="172.2" y="293.3" class="st4" width="34.1" height="34.1"/>
	</g>
	<g>
		<polyline class="st4" points="214.6,293.3 214.6,327.4 248.7,327.4 248.7,293.3 		"/>
		<rect x="229" y="293.3" class="st4" width="5.2" height="9.8"/>
		<polyline class="st4" points="218.1,293.3 214.6,293.3 214.6,327.4 248.7,327.4 248.7,293.3 226.2,293.3 		"/>
	</g>
	<rect x="128.5" y="293.3" class="st4" width="34.1" height="34.1"/>
	<g>
		<path class="st4" d="M117.2,327.4h142.3c7.2,0,13,5.8,13,13c0,7.2-5.8,13-13,13H117.2c-7.2,0-13-5.8-13-13
			C104.2,333.2,110,327.4,117.2,327.4z"/>
	</g>
	<g>
		<path class="st4" d="M225.1,340.3c0-3.6-2.9-6.5-6.5-6.5c-3.6,0-6.5,2.9-6.5,6.5c0,3.6,2.9,6.5,6.5,6.5
			C222.2,346.8,225.1,343.9,225.1,340.3z"/>
	</g>
	<g>
		<path class="st4" d="M204.9,340.3c0-3.6-2.9-6.5-6.5-6.5c-3.6,0-6.5,2.9-6.5,6.5c0,3.6,2.9,6.5,6.5,6.5
			C202,346.8,204.9,343.9,204.9,340.3z"/>
	</g>
	<g>
		<path class="st4" d="M184.8,340.3c0-3.6-2.9-6.5-6.5-6.5c-3.6,0-6.5,2.9-6.5,6.5c0,3.6,2.9,6.5,6.5,6.5
			C181.9,346.8,184.8,343.9,184.8,340.3z"/>
	</g>
	<g>
		<path class="st4" d="M164.7,340.3c0-3.6-2.9-6.5-6.5-6.5c-3.6,0-6.5,2.9-6.5,6.5c0,3.6,2.9,6.5,6.5,6.5
			C161.7,346.8,164.7,343.9,164.7,340.3z"/>
	</g>
	<g>
		<path class="st4" d="M144.5,340.3c0-3.6-2.9-6.5-6.5-6.5c-3.6,0-6.5,2.9-6.5,6.5c0,3.6,2.9,6.5,6.5,6.5
			C141.6,346.8,144.5,343.9,144.5,340.3z"/>
	</g>
	<g>
		<path class="st4" d="M124.4,340.3c0-3.6-2.9-6.5-6.5-6.5c-3.6,0-6.5,2.9-6.5,6.5c0,3.6,2.9,6.5,6.5,6.5
			C121.4,346.8,124.4,343.9,124.4,340.3z"/>
	</g>
	<path class="st4" d="M217.2,340.3c0,0.8,0.7,1.5,1.5,1.5c0.8,0,1.5-0.7,1.5-1.5c0-0.8-0.7-1.5-1.5-1.5
		C217.9,338.8,217.2,339.5,217.2,340.3z"/>
	<path class="st4" d="M196.9,340.3c0,0.8,0.7,1.5,1.5,1.5c0.8,0,1.5-0.7,1.5-1.5c0-0.8-0.7-1.5-1.5-1.5
		C197.6,338.8,196.9,339.5,196.9,340.3z"/>
	<g>
		<path class="st4" d="M245.1,340.3c0-3.6-2.9-6.5-6.5-6.5c-3.6,0-6.5,2.9-6.5,6.5c0,3.6,2.9,6.5,6.5,6.5
			C242.2,346.8,245.1,343.9,245.1,340.3z"/>
	</g>
	<path class="st4" d="M237.2,340.3c0,0.8,0.7,1.5,1.5,1.5c0.8,0,1.5-0.7,1.5-1.5c0-0.8-0.7-1.5-1.5-1.5
		C237.8,338.8,237.2,339.5,237.2,340.3z"/>
	<path class="st4" d="M216.9,340.3c0,0.8,0.7,1.5,1.5,1.5c0.8,0,1.5-0.7,1.5-1.5c0-0.8-0.7-1.5-1.5-1.5
		C217.6,338.8,216.9,339.5,216.9,340.3z"/>
	<g>
		<path class="st4" d="M265.1,340.3c0-3.6-2.9-6.5-6.5-6.5c-3.6,0-6.5,2.9-6.5,6.5c0,3.6,2.9,6.5,6.5,6.5
			C262.1,346.8,265.1,343.9,265.1,340.3z"/>
	</g>
	<path class="st4" d="M257.1,340.3c0,0.8,0.7,1.5,1.5,1.5c0.8,0,1.5-0.7,1.5-1.5c0-0.8-0.7-1.5-1.5-1.5
		C257.8,338.8,257.1,339.5,257.1,340.3z"/>
	<path class="st4" d="M236.9,340.3c0,0.8,0.7,1.5,1.5,1.5c0.8,0,1.5-0.7,1.5-1.5c0-0.8-0.7-1.5-1.5-1.5
		C237.5,338.8,236.9,339.5,236.9,340.3z"/>
	<path class="st4" d="M176.8,340.3c0,0.8,0.7,1.5,1.5,1.5c0.8,0,1.5-0.7,1.5-1.5c0-0.8-0.7-1.5-1.5-1.5
		C177.4,338.8,176.8,339.5,176.8,340.3z"/>
	<path class="st4" d="M156.6,340.3c0,0.8,0.7,1.5,1.5,1.5c0.8,0,1.5-0.7,1.5-1.5c0-0.8-0.7-1.5-1.5-1.5
		C157.3,338.8,156.6,339.5,156.6,340.3z"/>
	<path class="st4" d="M136.5,340.3c0,0.8,0.7,1.5,1.5,1.5c0.8,0,1.5-0.7,1.5-1.5c0-0.8-0.7-1.5-1.5-1.5
		C137.1,338.8,136.5,339.5,136.5,340.3z"/>
	<path class="st4" d="M116.3,340.3c0,0.8,0.7,1.5,1.5,1.5c0.8,0,1.5-0.7,1.5-1.5c0-0.8-0.7-1.5-1.5-1.5
		C117,338.8,116.3,339.5,116.3,340.3z"/>
	<path class="st4" d="M115.9,302.2c-0.1,2.6-2.1,4.6-4.7,4.6c-1.9,0-3.5-1.1-4.3-2.7c-0.3-0.6-0.4-1.2-0.5-1.9"/>
	<path class="st4" d="M124.9,318c0-5.9-2.1-11-5.1-13.8c-1,3.9-4.5,6.8-8.6,6.8c-4.2,0-7.7-2.9-8.6-6.8c-3.1,2.7-5.1,7.9-5.1,13.8"
		/>
	<path class="st4" d="M106.4,302.2c0,0.7,0.2,1.3,0.5,1.9c0.8,1.6,2.4,2.7,4.3,2.7c2.6,0,4.7-2,4.7-4.6"/>
	<path class="st4" d="M119.8,304.2c0.2-0.7,0.3-1.4,0.3-2.1c0-4.7-3.6-8.5-8.1-8.9c-0.3,0-0.5,0-0.8,0c-4,0-7.4,2.6-8.5,6.2v0
		c-0.3,0.8-0.4,1.7-0.4,2.6c0,0.7,0.1,1.5,0.3,2.1"/>
	<polyline class="st4" points="140.8,248.8 124.1,248.8 124.1,242.2 140.2,242.2 	"/>
	<path class="st4" d="M150.8,245.3c0-3.1-2.5-5.6-5.6-5.6c-3.1,0-5.6,2.5-5.6,5.6c0,3.1,2.5,5.6,5.6,5.6
		C148.3,250.9,150.8,248.4,150.8,245.3z"/>
	<line class="st4" x1="128.5" y1="293.3" x2="120.6" y2="285.4"/>
	<line class="st4" x1="170.3" y1="285.4" x2="162.4" y2="293.3"/>
	<polygon class="st4" points="149.5,259 157.1,264.4 151.4,276 148.6,276 152,267.5 148.1,265 142.3,265 138.3,267.5 141.7,276 
		139,276 133.2,264.4 140.8,259 	"/>
	<path class="st4" d="M106.4,302.1c0,0,0,0.1,0,0.1c0,0.7,0.2,1.3,0.5,1.9c0.8,1.6,2.4,2.7,4.3,2.7c2.6,0,4.7-2,4.7-4.6
		c0,0,0-0.1,0-0.1c0-1-0.3-1.9-0.8-2.7c-0.9-1.2-2.3-2.1-3.9-2.1C108.6,297.4,106.4,299.5,106.4,302.1z"/>
	<path class="st4" d="M109.9,302.1c0,0.7,0.5,1.2,1.2,1.2c0.7,0,1.2-0.5,1.2-1.2c0-0.7-0.5-1.2-1.2-1.2
		C110.5,300.9,109.9,301.4,109.9,302.1z"/>
	<path class="st4" d="M76.1,245.3c0,0.7,0.5,1.2,1.2,1.2c0.7,0,1.2-0.5,1.2-1.2c0-0.7-0.5-1.2-1.2-1.2
		C76.7,244.1,76.1,244.7,76.1,245.3z"/>
	<path class="st4" d="M144,276.8c0,0.7,0.5,1.2,1.2,1.2c0.7,0,1.2-0.5,1.2-1.2c0-0.7-0.5-1.2-1.2-1.2
		C144.5,275.5,144,276.1,144,276.8z"/>
	<path class="st4" d="M144,282.6c0,0.7,0.5,1.2,1.2,1.2c0.7,0,1.2-0.5,1.2-1.2c0-0.7-0.5-1.2-1.2-1.2
		C144.5,281.4,144,281.9,144,282.6z"/>
	<path class="st4" d="M144,245.3c0,0.7,0.5,1.2,1.2,1.2c0.7,0,1.2-0.5,1.2-1.2c0-0.7-0.5-1.2-1.2-1.2
		C144.6,244.1,144,244.7,144,245.3z"/>
	<path class="st4" d="M113.8,245.5c0-1-0.8-1.8-1.8-1.8c-1,0-1.8,0.8-1.8,1.8c0,1,0.8,1.8,1.8,1.8
		C113,247.3,113.8,246.5,113.8,245.5z"/>
	<path class="st4" d="M105.8,245.3c0-1-0.8-1.8-1.8-1.8c-1,0-1.8,0.8-1.8,1.8c0,1,0.8,1.8,1.8,1.8
		C105,247.1,105.8,246.3,105.8,245.3z"/>
	<path class="st4" d="M98.2,245.3c0-1-0.8-1.8-1.8-1.8c-1,0-1.8,0.8-1.8,1.8c0,1,0.8,1.8,1.8,1.8C97.3,247.1,98.2,246.3,98.2,245.3z
		"/>
</g>
<circle class="st5" cx="805.4" cy="179.5" r="44.1"/>
<circle class="st6" cx="376" cy="372.3" r="31.8"/>
<g>
	<g>
		<path class="st4" d="M884.3,507.8h-101c-1.3,0-2.3-1-2.3-2.3v-10c0-1.3,1-2.3,2.3-2.3h101c1.3,0,2.3,1,2.3,2.3v10
			C886.6,506.8,885.6,507.8,884.3,507.8z"/>
		<polyline class="st4" points="794.7,493.2 784.6,430.6 788.3,428.1 812,491.1 		"/>
		<polyline class="st4" points="870.8,487.3 895.5,437.6 893.6,435.4 855.3,487.3 		"/>
		<polyline class="st4" points="812.1,493.1 812.1,482.5 838.2,482.5 838.2,493.1 		"/>
		<polyline class="st4" points="850.1,493 850.1,487.4 873.2,487.4 873.2,493 		"/>
		<polyline class="st4" points="846.4,492.9 839.9,404.3 828.7,404.3 822.9,482.5 		"/>
		<rect x="822.8" y="422.7" class="st4" width="22.7" height="6.2"/>
		<rect x="816.1" y="469.2" class="st4" width="35.8" height="6.5"/>
		<line class="st4" x1="838.2" y1="488.5" x2="845.6" y2="492.9"/>
		<polyline class="st4" points="832.1,422.8 828.1,420.2 840.2,412.1 		"/>
		<polyline class="st4" points="844.4,469.1 825.2,459.4 842.4,449.8 826.8,440.8 841.4,429 		"/>
		<polyline class="st4" points="828.3,482.5 823.7,479.6 831.3,475.7 		"/>
		<line class="st4" x1="834.3" y1="404.3" x2="834.3" y2="482.4"/>
		<polyline class="st4" points="795.7,493.1 807.5,481.7 792.9,478.1 801.3,463.9 790.2,461.3 796.4,449.9 		"/>
		<line class="st4" x1="795.3" y1="527.8" x2="795.3" y2="507.6"/>
		<line class="st4" x1="808.3" y1="507.6" x2="808.3" y2="527.9"/>
		<line class="st4" x1="859.6" y1="527.9" x2="859.6" y2="507.6"/>
		<line class="st4" x1="872.6" y1="507.6" x2="872.6" y2="528"/>
		<polyline class="st4" points="859.6,524 846.8,515.5 835,507.6 		"/>
		<polyline class="st4" points="832.9,507.6 821.1,515.5 808.3,524 		"/>
		<line class="st4" x1="833.9" y1="493.1" x2="833.9" y2="527.8"/>
	</g>
	<path class="st4" d="M771.2,528c2.6,0,4.9-1.3,6.4-3.2c1.4,2,3.8,3.2,6.4,3.2c2.6,0,4.9-1.3,6.4-3.2c1.4,2,3.8,3.2,6.4,3.2
		c2.6,0,4.9-1.3,6.4-3.2c1.4,2,3.8,3.2,6.4,3.2s4.9-1.3,6.4-3.2c1.4,2,3.8,3.2,6.4,3.2c2.6,0,4.9-1.3,6.4-3.2c1.4,2,3.8,3.2,6.4,3.2
		s4.9-1.3,6.4-3.2c1.4,2,3.8,3.2,6.4,3.2c2.6,0,4.9-1.3,6.4-3.2c1.4,2,3.8,3.2,6.4,3.2c2.6,0,4.9-1.3,6.4-3.2c1.4,2,3.8,3.2,6.4,3.2
		s4.9-1.3,6.4-3.2c1.4,2,3.8,3.2,6.4,3.2c2.6,0,4.9-1.3,6.4-3.2c1.4,2,3.8,3.2,6.4,3.2"/>
</g>
<path class="st7" d="M676.5,143.8"/>
<g>
	<polyline class="st8" points="830.1,204.3 780.6,204.3 780.6,154.8 	"/>
	<circle class="st8" cx="795.7" cy="189.2" r="3.2"/>
	<line class="st8" x1="815.9" y1="171.6" x2="824.7" y2="160.4"/>
	<line class="st8" x1="800.9" y1="169.8" x2="810.9" y2="173.3"/>
	<line class="st8" x1="780.6" y1="179.1" x2="795.1" y2="170.4"/>
	<line class="st8" x1="814.6" y1="187.6" x2="824.1" y2="182.2"/>
	<line class="st8" x1="798.9" y1="189.2" x2="808.6" y2="189.2"/>
	<line class="st8" x1="780.6" y1="198.9" x2="792.9" y2="190.9"/>
	<circle class="st8" cx="797.8" cy="168.8" r="3.2"/>
	<circle class="st8" cx="814" cy="174.2" r="3.2"/>
	<circle class="st8" cx="826.9" cy="158" r="3.2"/>
	<circle class="st8" cx="826.9" cy="180.6" r="3.2"/>
	<circle class="st8" cx="811.8" cy="189.2" r="3.2"/>
</g>
<g>
	<path class="st9" d="M385.2,366.4c2.2,0.9,4.9,0.5,6.8-1.3c1.8-1.8,2.3-4.4,1.3-6.7l-2.9,3.1h-3.5V358l3.1-2.9
		c-2.2-0.9-4.9-0.5-6.7,1.3c-1.8,1.8-2.2,4.5-1.3,6.8l-15,15c-2.2-0.9-4.9-0.5-6.8,1.3c-1.8,1.8-2.3,4.4-1.3,6.6l2.9-3.1h3.5v3.5
		l-3.1,2.9c2.2,1,4.9,0.5,6.7-1.3c1.8-1.8,2.2-4.5,1.3-6.8L385.2,366.4z"/>
	<path class="st9" d="M376,375.6l5.9,5.9c-0.9,2.2-0.5,4.9,1.3,6.8c1.8,1.8,4.4,2.3,6.6,1.3l-3.1-2.9v-3.5h3.5l2.9,3.1
		c0.9-2.2,0.5-4.9-1.3-6.7c-1.8-1.8-4.5-2.2-6.8-1.3l-5.9-5.9"/>
	<path class="st9" d="M376,369l-5.9-5.9c0.9-2.2,0.5-4.9-1.3-6.8c-1.8-1.8-4.4-2.3-6.6-1.3l3.1,2.9v3.5h-3.5l-2.9-3.1
		c-0.9,2.2-0.5,4.9,1.3,6.7c1.8,1.8,4.5,2.2,6.8,1.3l5.9,5.9"/>
</g>
<circle class="st5" cx="68" cy="520.4" r="37.8"/>
<g>
	<polyline class="st10" points="55.3,532.1 47.9,526.3 40.5,520.4 47.9,514.5 55.3,508.6 	"/>
	<polyline class="st10" points="80.6,532.1 88.1,526.3 95.5,520.4 88.1,514.5 80.6,508.6 	"/>
	<line class="st10" x1="73.8" y1="502" x2="63.1" y2="538.8"/>
</g>
<g>
	<line class="st11" x1="18.7" y1="366" x2="70.1" y2="366"/>
	<line class="st11" x1="18.7" y1="397.6" x2="113.8" y2="397.6"/>
	<g>
		<line class="st11" x1="18.7" y1="387.1" x2="45.1" y2="387.1"/>
		<line class="st11" x1="53.6" y1="387.1" x2="151.8" y2="387.1"/>
	</g>
	<polyline class="st11" points="11.8,371 9,366.1 11.8,361.2 	"/>
	<g>
		<line class="st11" x1="18.7" y1="376.6" x2="92" y2="376.6"/>
		<line class="st11" x1="101.4" y1="376.6" x2="127.3" y2="376.6"/>
	</g>
	<polyline class="st11" points="125,392.6 127.8,397.5 125,402.4 	"/>
	<line class="st11" x1="122.5" y1="393" x2="119.1" y2="401.9"/>
</g>
<g>
	<g>
		<line class="st11" x1="870.7" y1="617.9" x2="886.5" y2="617.9"/>
		<line class="st11" x1="787.6" y1="617.9" x2="863.7" y2="617.9"/>
		<line class="st11" x1="787.6" y1="649.5" x2="886.5" y2="649.5"/>
		<g>
			<line class="st11" x1="787.6" y1="639" x2="814" y2="639"/>
			<line class="st11" x1="822.5" y1="639" x2="886.2" y2="639"/>
		</g>
		<polyline class="st11" points="780.7,622.9 777.8,618 780.7,613.1 		"/>
		<g>
			<line class="st11" x1="787.6" y1="628.5" x2="840.3" y2="628.5"/>
			<line class="st11" x1="849.7" y1="628.5" x2="886.3" y2="628.5"/>
		</g>
		<polyline class="st11" points="893.9,644.4 896.7,649.4 893.9,654.3 		"/>
	</g>
	<g>
		<circle class="st11" cx="867.2" cy="617.9" r="3.5"/>
	</g>
</g>
<g>
	<g>
		<line class="st11" x1="456.2" y1="428.2" x2="471.9" y2="428.2"/>
		<line class="st11" x1="329.3" y1="428.2" x2="449.1" y2="428.2"/>
		<line class="st11" x1="329.3" y1="459.8" x2="472" y2="459.8"/>
		<g>
			<line class="st11" x1="329.3" y1="449.2" x2="355.7" y2="449.2"/>
			<line class="st11" x1="364.2" y1="449.2" x2="471.6" y2="449.2"/>
		</g>
		<polyline class="st11" points="322.5,433.1 319.6,428.2 322.5,423.3 		"/>
		<g>
			<line class="st11" x1="329.3" y1="438.7" x2="425.7" y2="438.7"/>
			<line class="st11" x1="435.1" y1="438.7" x2="471.8" y2="438.7"/>
		</g>
		<polyline class="st11" points="479.3,454.7 482.2,459.6 479.3,464.5 		"/>
	</g>
	<circle class="st11" cx="452.6" cy="428.1" r="3.5"/>
</g>
<ellipse class="st12" cx="472.5" cy="240.8" rx="40.3" ry="39.5"/>
<g>
	<g>
		<path class="st13" d="M495.3,227.2c0,6.1-4.9,11-11,11c-6.1,0-11-4.9-11-11c0-6.1,4.9-11,11-11
			C490.4,216.2,495.3,221.2,495.3,227.2z"/>
		<line class="st13" x1="492.1" y1="235" x2="500.8" y2="243.8"/>
	</g>
	<g>
		<path class="st13" d="M489,242.9v11.3c0,1.5-1.2,2.8-2.6,2.8h-35.2c-1.5,0-2.6-1.3-2.6-2.8v-26.1c0-1.5,1.2-2.8,2.6-2.8h18.5"/>
		<line class="st13" x1="456.4" y1="260.5" x2="481" y2="260.5"/>
		<line class="st13" x1="468.7" y1="257" x2="468.7" y2="260.5"/>
		<circle class="st13" cx="468.7" cy="253.5" r="0.9"/>
		<line class="st13" x1="448.5" y1="250" x2="489" y2="250"/>
	</g>
	<polyline class="st13" points="477.2,241.2 457.3,241.2 457.3,234.1 470.8,234.1 	"/>
	<g>
		<circle class="st13" cx="461.7" cy="237.6" r="0.9"/>
		<circle class="st13" cx="467.2" cy="237.6" r="0.9"/>
		<circle class="st13" cx="472.7" cy="237.6" r="0.9"/>
	</g>
</g>
<g>
	<g>
		<path class="st4" d="M372.8,335.3V256c0-8.4,6.8-15.2,15.2-15.2h35.8"/>
	</g>
	<path class="st4" d="M438,275.3c-19-19-19-49.9,0-69"/>
	<path class="st4" d="M506.9,206.3c19,19,19,49.9,0,69"/>
	<circle class="st4" cx="423.6" cy="240.9" r="1.8"/>
</g>
<ellipse class="st14" cx="702.5" cy="330.3" rx="47.9" ry="47.1"/>
<g>
	<line class="st10" x1="702.5" y1="338.4" x2="702.5" y2="315.9"/>
	<line class="st10" x1="721.8" y1="338.4" x2="721.8" y2="332"/>
	<line class="st10" x1="683.2" y1="319.1" x2="683.2" y2="303.1"/>
	<line class="st10" x1="683.2" y1="338.4" x2="683.2" y2="325.5"/>
	<line class="st10" x1="721.8" y1="325.5" x2="721.8" y2="303.1"/>
	<line class="st10" x1="702.5" y1="309.5" x2="702.5" y2="303.1"/>
	<rect x="715.4" y="325.5" class="st10" width="12.8" height="6.4"/>
	<rect x="696.1" y="309.5" class="st10" width="12.8" height="6.4"/>
	<rect x="676.8" y="319.1" class="st10" width="12.8" height="6.4"/>
	<circle class="st10" cx="721.9" cy="352.8" r="4.8"/>
	<circle class="st10" cx="702.5" cy="352.8" r="4.8"/>
	<circle class="st10" cx="683.2" cy="352.8" r="4.8"/>
</g>
<g>
	<path class="st4" d="M524.7,477.8v-81.9c0-12.8-10.4-23.3-23.2-23.3h-86"/>
	<circle class="st4" cx="415.4" cy="372.7" r="1.8"/>
	<circle class="st4" cx="524.7" cy="481.3" r="3.5"/>
</g>
<g>
	<path class="st4" d="M743.4,371.2c-22.1,22.1-58.4,21.8-80.9-0.8"/>
	<path class="st4" d="M661.7,289.5c22.1-22.1,58.4-21.8,80.9,0.8"/>
	<path class="st4" d="M702.5,387v34.1c0,5.9-4.8,10.6-10.6,10.6h-55.1c-5.9,0-10.6,4.8-10.6,10.6v35.4"/>
	<circle class="st4" cx="626.2" cy="481.3" r="3.5"/>
	<circle class="st4" cx="702.5" cy="387.7" r="1.8"/>
</g>
<ellipse class="st15" cx="222.2" cy="160" rx="63" ry="61.9"/>
<g>
	<g>
		<g>
			<g>
				<g>
					<g>
						<rect x="218.3" y="168.8" class="st16" width="9.1" height="9.1"/>
					</g>
				</g>
			</g>
		</g>
	</g>
	<g>
		<g>
			<g>
				<g>
					<g>
						<rect x="201.6" y="168.8" class="st16" width="9.1" height="9.1"/>
					</g>
				</g>
			</g>
		</g>
	</g>
	<g>
		<g>
			<g>
				<g>
					<g>
						<rect x="184.9" y="168.8" class="st16" width="9.1" height="9.1"/>
					</g>
				</g>
			</g>
		</g>
	</g>
	<g>
		<g>
			<g>
				<g>
					<g>
						<rect x="235" y="168.8" class="st16" width="9.1" height="9.1"/>
					</g>
				</g>
			</g>
		</g>
	</g>
	<g>
		<g>
			<g>
				<g>
					<g>
						<rect x="251.7" y="168.8" class="st16" width="9.1" height="9.1"/>
					</g>
				</g>
			</g>
		</g>
	</g>
	<g>
		<g>
			<g>
				<g>
					<g>
						<rect x="218.3" y="184.5" class="st16" width="9.1" height="9.1"/>
					</g>
				</g>
			</g>
		</g>
	</g>
	<g>
		<g>
			<g>
				<g>
					<g>
						<rect x="201.6" y="184.5" class="st16" width="9.1" height="9.1"/>
					</g>
				</g>
			</g>
		</g>
	</g>
	<g>
		<g>
			<g>
				<g>
					<g>
						<rect x="184.9" y="184.5" class="st16" width="9.1" height="9.1"/>
					</g>
				</g>
			</g>
		</g>
	</g>
	<g>
		<g>
			<g>
				<g>
					<g>
						<rect x="218.3" y="153" class="st17" width="9.1" height="9.1"/>
					</g>
				</g>
			</g>
		</g>
	</g>
	<g>
		<g>
			<g>
				<g>
					<g>
						<rect x="201.6" y="153" class="st16" width="9.1" height="9.1"/>
					</g>
				</g>
			</g>
		</g>
	</g>
	<g>
		<g>
			<g>
				<g>
					<g>
						<rect x="235" y="153" class="st16" width="9.1" height="9.1"/>
					</g>
				</g>
			</g>
		</g>
	</g>
	<g>
		<g>
			<g>
				<g>
					<g>
						<rect x="251.7" y="153" class="st16" width="9.1" height="9.1"/>
					</g>
				</g>
			</g>
		</g>
	</g>
	<line class="st16" x1="181.6" y1="144.3" x2="266.6" y2="144.3"/>
	<path class="st16" d="M251.6,135.2h-56.7c-1.6,0-2.8-1.3-2.8-2.8v-3.9c0-1.6,1.3-2.8,2.8-2.8h56.7c1.6,0,2.8,1.3,2.8,2.8v3.9
		C254.4,133.9,253.2,135.2,251.6,135.2z"/>
</g>
<ellipse class="st15" cx="756.6" cy="543.6" rx="39.8" ry="39.1"/>
<g>
	<path class="st16" d="M760.5,541.4l5.6-12.1l-8.7,9.9c-1.8-0.3-3.6,0.4-4.7,2c-1.4,2.1-0.8,4.9,1.3,6.3c2.1,1.4,4.9,0.8,6.3-1.3
		C761.3,544.6,761.3,542.8,760.5,541.4z"/>
	<g>
		<circle class="st13" cx="756.6" cy="543.6" r="25.6"/>
		<g>
			<line class="st13" x1="756.6" y1="518" x2="756.6" y2="522.5"/>
			<line class="st13" x1="771.5" y1="528.7" x2="774.7" y2="525.5"/>
			<line class="st13" x1="731" y1="543.6" x2="735.5" y2="543.6"/>
			<line class="st13" x1="741.7" y1="528.7" x2="738.5" y2="525.5"/>
			<line class="st13" x1="771.5" y1="558.5" x2="774.7" y2="561.7"/>
			<line class="st13" x1="782.1" y1="543.6" x2="777.6" y2="543.6"/>
			<line class="st13" x1="756.6" y1="569.1" x2="756.6" y2="564.6"/>
			<line class="st13" x1="741.7" y1="558.5" x2="738.5" y2="561.7"/>
		</g>
	</g>
</g>
<circle class="st18" cx="489.3" cy="353.2" r="2.1"/>
<circle class="st18" cx="288.7" cy="271.2" r="2.1"/>
<circle class="st18" cx="222.1" cy="430.1" r="2.1"/>
<circle class="st6" cx="167.1" cy="669.8" r="2.1"/>
<circle class="st18" cx="53.8" cy="410.2" r="2.1"/>
<circle class="st6" cx="358.8" cy="96.5" r="2.2"/>
<circle class="st18" cx="585.2" cy="367.2" r="4"/>
<circle class="st18" cx="119.2" cy="112.2" r="4"/>
<circle class="st5" cx="769.4" cy="468.7" r="4"/>
<circle class="st18" cx="657" cy="133.2" r="5.2"/>
<circle class="st5" cx="308" cy="330.2" r="5.2"/>
<circle class="st18" cx="737" cy="405.8" r="5.2"/>
<g>
	<path class="st14" d="M346.2,313.2h-7.3c-0.6,0-1-0.4-1-1s0.4-1,1-1h7.3c0.6,0,1,0.4,1,1S346.7,313.2,346.2,313.2z"/>
	<path class="st14" d="M342.5,316.8c-0.6,0-1-0.4-1-1v-7.3c0-0.6,0.4-1,1-1s1,0.4,1,1v7.3C343.5,316.4,343.1,316.8,342.5,316.8z"/>
</g>
<g>
	<path class="st14" d="M419.9,166.1h-7.3c-0.6,0-1-0.4-1-1s0.4-1,1-1h7.3c0.6,0,1,0.4,1,1S420.5,166.1,419.9,166.1z"/>
	<path class="st14" d="M416.3,169.7c-0.6,0-1-0.4-1-1v-7.3c0-0.6,0.4-1,1-1s1,0.4,1,1v7.3C417.3,169.3,416.8,169.7,416.3,169.7z"/>
</g>
<g>
	<path class="st14" d="M585.7,303.2h-7.3c-0.6,0-1-0.4-1-1s0.4-1,1-1h7.3c0.6,0,1,0.4,1,1S586.3,303.2,585.7,303.2z"/>
	<path class="st14" d="M582,306.8c-0.6,0-1-0.4-1-1v-7.3c0-0.6,0.4-1,1-1s1,0.4,1,1v7.3C583,306.4,582.6,306.8,582,306.8z"/>
</g>
<g>
	<path class="st14" d="M901.2,560.2h-7.3c-0.6,0-1-0.4-1-1s0.4-1,1-1h7.3c0.6,0,1,0.4,1,1S901.7,560.2,901.2,560.2z"/>
	<path class="st14" d="M897.5,563.8c-0.6,0-1-0.4-1-1v-7.3c0-0.6,0.4-1,1-1s1,0.4,1,1v7.3C898.5,563.4,898.1,563.8,897.5,563.8z"/>
</g>
<g>
	<path class="st14" d="M216,373.6h-7.3c-0.6,0-1-0.4-1-1s0.4-1,1-1h7.3c0.6,0,1,0.4,1,1S216.5,373.6,216,373.6z"/>
	<path class="st14" d="M212.3,377.3c-0.6,0-1-0.4-1-1v-7.3c0-0.6,0.4-1,1-1s1,0.4,1,1v7.3C213.3,376.8,212.9,377.3,212.3,377.3z"/>
</g>
<g>
	<path class="st14" d="M116.2,209.9h-7.3c-0.6,0-1-0.4-1-1s0.4-1,1-1h7.3c0.6,0,1,0.4,1,1S116.8,209.9,116.2,209.9z"/>
	<path class="st14" d="M112.6,213.6c-0.6,0-1-0.4-1-1v-7.3c0-0.6,0.4-1,1-1s1,0.4,1,1v7.3C113.6,213.1,113.1,213.6,112.6,213.6z"/>
</g>
<g>
	<path class="st14" d="M882.8,135.2h-7.3c-0.6,0-1-0.4-1-1s0.4-1,1-1h7.3c0.6,0,1,0.4,1,1S883.3,135.2,882.8,135.2z"/>
	<path class="st14" d="M879.1,138.8c-0.6,0-1-0.4-1-1v-7.3c0-0.6,0.4-1,1-1s1,0.4,1,1v7.3C880.1,138.4,879.6,138.8,879.1,138.8z"/>
</g>
<path class="st19" d="M729.2,105.7h-6.3l-3.1-5.4l3.1-5.4h6.3l3.1,5.4L729.2,105.7z M723.8,104.2h4.5l2.3-3.9l-2.3-3.9h-4.5
	l-2.3,3.9L723.8,104.2z"/>
<path class="st19" d="M355.9,238.7h-6.3l-3.1-5.4l3.1-5.4h6.3l3.1,5.4L355.9,238.7z M350.5,237.2h4.5l2.3-3.9l-2.3-3.9h-4.5
	l-2.3,3.9L350.5,237.2z"/>
<path class="st19" d="M250.7,458.2h-6.3l-3.1-5.4l3.1-5.4h6.3l3.1,5.4L250.7,458.2z M245.3,456.7h4.5l2.3-3.9l-2.3-3.9h-4.5
	l-2.3,3.9L245.3,456.7z"/>
<path class="st19" d="M554.6,443.5h-6.3l-3.1-5.4l3.1-5.4h6.3l3.1,5.4L554.6,443.5z M549.2,442h4.5l2.3-3.9l-2.3-3.9h-4.5l-2.3,3.9
	L549.2,442z"/>
<path class="st19" d="M353.8,173.4h-6.3l-3.1-5.4l3.1-5.4h6.3l3.1,5.4L353.8,173.4z M348.4,171.9h4.5l2.3-3.9l-2.3-3.9h-4.5
	l-2.3,3.9L348.4,171.9z"/>
<circle class="st20" cx="242.1" cy="625.2" r="5.2"/>
<circle class="st20" cx="826.3" cy="326.8" r="1.6"/>
<circle class="st18" cx="342.2" cy="487.2" r="1.8"/>
<g>
	<g>
		<g>
			<g>
				<path class="st4" d="M176.3,480.5v-59.9c0-4.1-3.4-7.5-7.5-7.5H124c-4.1,0-7.5,3.4-7.5,7.5v106.1c0,4.1,3.4,7.5,7.5,7.5h39.4"/>
			</g>
			<g>
				<polyline class="st4" points="170.2,480.5 170.2,426.8 122.7,426.8 122.7,519.9 163.2,519.9 				"/>
			</g>
		</g>
		<line class="st4" x1="150.5" y1="526.5" x2="142.3" y2="526.5"/>
	</g>
	<path class="st4" d="M182,568.6v-8.3c0-2.7,1.1-5.3,3-7.2l0.2-0.2c1.9-1.9,3-4.5,3-7.2v-41.3c0-1.9-0.4-3.7-1.1-5.4l-7.7-17.7
		c-0.2-0.5-0.7-0.9-1.3-0.9H159c-0.5,0-1,0.4-1,1v3.3c0.1,5.8,4.8,10.4,10.6,10.3h2c0.3,0,0.6,0.2,0.6,0.5l2.8,9.1
		c-6.6,4.8-11,14.1-11,24.7c0,8.1,2.6,15.5,6.8,20.6"/>
	<path class="st4" d="M146.9,568.5v-12.8c0-3.9-1.5-7.6-4.3-10.3l-11.2-11.3"/>
	<path class="st4" d="M109.7,432.7c-2.4,2.3-2.4,6.2,0,8.5l6.9,6.9v-16.5C114.3,430.4,111.5,430.8,109.7,432.7z"/>
	<path class="st4" d="M106,450.3c-2.3,2.3-2.3,6.2,0,8.5l10.5,10.5v-17l-2-2C112.2,447.9,108.4,447.9,106,450.3z"/>
	<path class="st4" d="M111.6,495.3c-2.3,2.3-2.3,6.2,0,8.5l5,5v-15.2C114.8,493.4,112.9,493.9,111.6,495.3z"/>
	<path class="st4" d="M106.4,471.5c-2.3,2.3-2.3,6.2,0,8.5l10.2,10.2v-17l-1.7-1.7C112.5,469.1,108.7,469.1,106.4,471.5z"/>
	<g>
		<polyline class="st4" points="141.3,610.2 141.3,568.5 187.2,568.5 187.2,622.8 		"/>
	</g>
	<g>
		<rect x="127" y="431.1" class="st4" width="14.6" height="9.9"/>
		<g>
			<line class="st4" x1="145.2" y1="431.1" x2="166" y2="431.1"/>
			<line class="st4" x1="145.2" y1="434.3" x2="163.1" y2="434.3"/>
		</g>
		<rect x="145.2" y="437.4" class="st4" width="10.8" height="1.6"/>
	</g>
	<g>
		<rect x="127" y="446" class="st4" width="14.6" height="9.9"/>
		<g>
			<line class="st4" x1="145.2" y1="446" x2="166" y2="446"/>
			<line class="st4" x1="145.2" y1="449.2" x2="163.1" y2="449.2"/>
		</g>
		<rect x="145.2" y="452.3" class="st4" width="10.8" height="1.6"/>
	</g>
	<g>
		<rect x="127" y="460.9" class="st4" width="14.6" height="9.9"/>
		<g>
			<line class="st4" x1="145.2" y1="460.9" x2="166" y2="460.9"/>
			<line class="st4" x1="145.2" y1="464.1" x2="163.1" y2="464.1"/>
		</g>
		<rect x="145.2" y="467.1" class="st4" width="10.8" height="1.6"/>
	</g>
	<g>
		<rect x="127" y="475.8" class="st4" width="14.6" height="9.9"/>
		<g>
			<line class="st4" x1="145.2" y1="475.7" x2="166" y2="475.7"/>
			<line class="st4" x1="145.2" y1="478.9" x2="151.6" y2="478.9"/>
		</g>
		<rect x="145.2" y="482" class="st4" width="10.8" height="1.6"/>
	</g>
	<g>
		<rect x="127" y="490.7" class="st4" width="14.6" height="9.9"/>
		<g>
			<line class="st4" x1="145.2" y1="490.6" x2="159.8" y2="490.6"/>
			<line class="st4" x1="145.2" y1="493.8" x2="158.4" y2="493.8"/>
		</g>
		<rect x="145.2" y="496.9" class="st4" width="10.8" height="1.6"/>
	</g>
	<g>
		<rect x="127" y="505.5" class="st4" width="14.6" height="9.9"/>
		<g>
			<line class="st4" x1="145.2" y1="505.5" x2="166" y2="505.5"/>
			<line class="st4" x1="145.2" y1="508.7" x2="163.1" y2="508.7"/>
		</g>
		<rect x="145.2" y="511.8" class="st4" width="10.8" height="1.6"/>
	</g>
</g>
<g>
	<circle class="st4" cx="224.2" cy="597.1" r="4.3"/>
	<path class="st4" d="M100.6,553c-18,18-47.2,18-65.2,0"/>
	<polyline class="st4" points="68.1,566.5 68.1,597.1 219.9,597.1 	"/>
	<circle class="st4" cx="68" cy="566.5" r="2.2"/>
</g>
<g>
	<line class="st11" x1="893.2" y1="273.6" x2="913.3" y2="273.6"/>
	<line class="st11" x1="787.6" y1="273.6" x2="884.3" y2="273.6"/>
	<line class="st11" x1="787.6" y1="313.7" x2="913.3" y2="313.7"/>
	<g>
		<line class="st11" x1="787.6" y1="300.4" x2="821.1" y2="300.4"/>
		<line class="st11" x1="831.9" y1="300.4" x2="912.8" y2="300.4"/>
	</g>
	<polyline class="st11" points="778.9,279.9 775.3,273.7 778.9,267.4 	"/>
	<g>
		<line class="st11" x1="787.6" y1="287" x2="854.6" y2="287"/>
		<line class="st11" x1="866.5" y1="287" x2="913.1" y2="287"/>
	</g>
	<polyline class="st11" points="922.6,307.3 926.3,313.5 922.6,319.8 	"/>
</g>
<path class="st4" d="M843.6,141.3c21.1,21.1,21.1,55.4,0,76.6"/>
<path class="st4" d="M767.1,217.8c-21.1-21.1-21.1-55.4,0-76.6"/>
<g>
	<polyline class="st4" points="896.7,268.7 896.7,179.5 859.5,179.5 	"/>
	<circle class="st4" cx="896.7" cy="272.3" r="3.5"/>
</g>
<circle class="st4" cx="859.5" cy="179.5" r="1.8"/>
<g>
	<path class="st4" d="M277.2,500.6V396c0-13,10.5-23.5,23.5-23.5H337"/>
	<path class="st4" d="M348.5,399.9c-15.2-15.2-15.2-39.9,0-55.2"/>
	<path class="st4" d="M403.6,344.7c15.2,15.2,15.2,39.9,0,55.2"/>
	<circle class="st4" cx="277.2" cy="504.2" r="3.5"/>
	<circle class="st4" cx="336.9" cy="372.7" r="1.8"/>
</g>
<g>
	<polyline class="st4" points="678.1,498.4 712.6,498.4 720.7,508.7 	"/>
	<circle class="st4" cx="674.5" cy="498.3" r="3.5"/>
	<g>
		<path class="st4" d="M805.9,543.6c0,27.2-22.1,49.3-49.3,49.3"/>
		<path class="st4" d="M707.3,543.6c0-27.2,22.1-49.3,49.3-49.3"/>
	</g>
	<circle class="st4" cx="721.1" cy="509.3" r="1.8"/>
</g>
<g>
	<g>
		<line class="st4" x1="222.2" y1="233.1" x2="222.2" y2="289.6"/>
		<path class="st4" d="M274.2,212c-28.2,28.2-74.3,27.8-103-1"/>
		<path class="st4" d="M170.2,108c28.2-28.2,74.3-27.8,103,1"/>
		<circle class="st4" cx="222.3" cy="233.1" r="1.8"/>
	</g>
	<circle class="st4" cx="222.2" cy="293" r="3.5"/>
</g>
<g>
	<g>
		<rect x="647" y="669.8" class="st21" width="15.9" height="19"/>
		<path class="st22" d="M611,657h94.9c4.2,0,7.5,3.4,7.5,7.5v8.6h-82.9L611,657z"/>
		<path class="st21" d="M207.5,673.1v-8c0-4.5,3.6-8.1,8.1-8.1h229.3h178c4.4,0,8,3.6,8,8v8.1h-186H207.5z"/>
		<path class="st23" d="M395.7,635.3H232.9c-3.2,0-5.8-2.6-5.8-5.8V511.6c0-3.2,2.6-5.8,5.8-5.8h162.8c3.2,0,5.8,2.6,5.8,5.8v117.9
			C401.5,632.7,398.9,635.3,395.7,635.3z"/>
		<path class="st24" d="M401.8,635.3H239c-3.2,0-5.8-2.6-5.8-5.8V511.6c0-3.2,2.6-5.8,5.8-5.8h162.8c3.2,0,5.8,2.6,5.8,5.8v117.9
			C407.6,632.7,405,635.3,401.8,635.3z"/>
		<rect x="240.1" y="512.2" class="st18" width="160.6" height="100.9"/>
		<rect x="383.1" y="484.6" class="st25" width="32.8" height="69.7"/>
		<path class="st25" d="M439.9,481.3l-6.6-8.3h-18.9v46.2H438v-10.1l3.9-0.9c2-0.6,2.9-2.8,2-4.7l-5.3-12v-10.2L439.9,481.3z"/>
		<g>
			<path class="st26" d="M438.4,512.5h-15c-4.5,0-8.2-3.7-8.2-8.2v-17.5c0-2.1,1.7-3.9,3.9-3.9h22.2c2.1,0,3.9-1.7,3.9-3.9l0-6.5
				c0-14.2-11.5-25.7-25.7-25.7h-26.9c-14.2,0-25.7,11.5-25.7,25.7v24.6c0,14.2,11.5,25.7,25.7,25.7l17-22.3v34.4
				c0,2.2,1.7,3.9,3.9,3.9h13.1c7.3,0,13.2-5.9,13.2-13.2V514C439.9,513.2,439.3,512.5,438.4,512.5z"/>
		</g>
		<path class="st25" d="M409.7,509.2h-3.3c-4.4,0-8-3.6-8-8v-0.9c0-4.4,3.6-8,8-8h0.6c1.5,0,2.7,1.2,2.7,2.7V509.2z"/>
		<path class="st27" d="M661,635.3H465.9c-3.2,0-5.8-2.6-5.8-5.8V487.7c0-3.2,2.6-5.8,5.8-5.8H661c3.2,0,5.8,2.6,5.8,5.8v141.9
			C666.7,632.7,664.1,635.3,661,635.3z"/>
		<path class="st24" d="M668.1,635.3H473.1c-3.2,0-5.8-2.6-5.8-5.8V487.7c0-3.2,2.6-5.8,5.8-5.8h195.1c3.2,0,5.8,2.6,5.8,5.8v141.9
			C673.9,632.7,671.3,635.3,668.1,635.3z"/>
		<rect x="474.7" y="489.5" class="st18" width="190.3" height="119.6"/>
		<g>
			<path class="st28" d="M683.4,580.7l-17.6,76.2h18.3c1.4,0,2.7-1,3-2.3l18.3-67.6c0.3-1.2,0-2.5-0.9-3.4c-1.5-1.4-5-5.1-5-5.1
				L683.4,580.7z"/>
		</g>
		<path class="st24" d="M677.4,656.8H601c-2.1,0-3.6-2-3-4l19.3-72.9c0.4-1.4,1.6-2.3,3-2.3h77c2.1,0,3.6,2,3,4L681.1,654
			C680.7,655.7,679.2,656.8,677.4,656.8z"/>
		<path class="st18" d="M676.6,641.9h-66.4c-1.8,0-3.1-1.7-2.6-3.4l14.4-53.8c0.3-1.2,1.4-2,2.6-2H691c1.8,0,3.1,1.7,2.6,3.4
			l-14.4,53.8C679,641.1,677.9,641.9,676.6,641.9z"/>
		<path class="st24" d="M621,656.9h-78.2c-2.2,0-4-1.8-4-4l0,0c0-2.2,1.8-4,4-4H621"/>
		<path class="st29" d="M676.6,656.9h-56.2c-2.1,0-3.8-1.7-3.8-3.8v-0.4c0-2.1,1.7-3.8,3.8-3.8h56.2c2.1,0,3.8,1.7,3.8,3.8v0.4
			C680.3,655.3,678.7,656.9,676.6,656.9z"/>
		<path class="st25" d="M519.9,656.9v-18.8h10.7c10.4,0,18.8,8.4,18.8,18.8L519.9,656.9z"/>
		<path class="st30" d="M350.6,688.8v-122c0-9.1,7.4-16.5,16.5-16.5H424c7.9,0,15,4.7,18.1,11.9l29.6,69c0.5,1.3,1.8,2.1,3.2,2.1
			h50.5V657h-64.6c-5.5,0-10.4-3.3-12.5-8.3l-3.2-7.6v48.1L350.6,688.8z"/>
		<path class="st31" d="M372.7,544.1"/>
		<path class="st31" d="M400.7,544.1"/>
		<path class="st31" d="M428.1,544.1"/>
		<path class="st31" d="M400.7,544.1"/>
		<polygon class="st18" points="421.8,550.2 376.6,550.2 376.6,536.2 421.8,544.5 		"/>
		<g>
			<path class="st32" d="M343.4,615.4l10.1,67.3l-10.1-67.8C343.4,615.1,343.4,615.2,343.4,615.4z"/>
			<path class="st33" d="M343.5,614.9l10.1,67.8l0.9,6.1h23.2l-11-74.1c0-6-4.9-10.9-10.9-10.9H355
				C348.8,603.8,343.7,608.7,343.5,614.9z"/>
			<path class="st34" d="M353.5,682.7l-10.1-67.3c0-0.2,0-0.3,0-0.5l0-0.2c0-6,4.9-10.9,10.9-10.9h-51.4h0
				c-6.4,0-11.6,5.2-11.6,11.6l11,73.4h52.1L353.5,682.7z"/>
			<polygon class="st34" points="353.5,682.7 354.4,688.8 354.4,688.8 			"/>
			<path class="st34" d="M343.4,614.7l0,0.2c0.3-6.2,5.4-11.1,11.6-11.1h-0.7C348.3,603.8,343.4,608.7,343.4,614.7z"/>
		</g>
		<rect x="260" y="669.8" class="st21" width="15.9" height="19"/>
	</g>
	<path class="st7" d="M427.7,688.7"/>
	<g>
		<line class="st7" x1="776.1" y1="688.8" x2="85.6" y2="688.8"/>
		<line class="st7" x1="240.7" y1="701.4" x2="286" y2="701.4"/>
		<line class="st7" x1="356.5" y1="701.4" x2="422.6" y2="701.4"/>
		<line class="st7" x1="441.5" y1="701.4" x2="571.2" y2="701.4"/>
		<line class="st7" x1="589.6" y1="701.4" x2="704.8" y2="701.4"/>
		<line class="st7" x1="381.7" y1="714.7" x2="511.9" y2="714.7"/>
		<line class="st7" x1="530.2" y1="714.7" x2="607.1" y2="714.7"/>
		<line class="st7" x1="297.5" y1="701.4" x2="342.8" y2="701.4"/>
	</g>
	<g>
		<g>
			<path class="st35" d="M314.1,564.1h-62.6c-0.8,0-1.4-0.6-1.4-1.4v-18.6c0-0.8,0.6-1.4,1.4-1.4h62.6c0.8,0,1.4,0.6,1.4,1.4v18.6
				C315.5,563.5,314.9,564.1,314.1,564.1z"/>
			<g>
				<line class="st35" x1="250.1" y1="571.8" x2="315.5" y2="571.8"/>
				<line class="st35" x1="250.1" y1="579.1" x2="315.5" y2="579.1"/>
				<line class="st35" x1="250.1" y1="586.5" x2="315.5" y2="586.5"/>
				<line class="st35" x1="250.1" y1="593.8" x2="315.5" y2="593.8"/>
			</g>
			<g>
				<path class="st35" d="M350.8,593.6h-24.6c-0.8,0-1.5-0.7-1.5-1.5v-18.4c0-0.8,0.7-1.5,1.5-1.5h24.6"/>
				<g>
					<line class="st35" x1="324.7" y1="542.9" x2="376.7" y2="542.9"/>
					<line class="st35" x1="324.7" y1="550.3" x2="363.7" y2="550.3"/>
					<line class="st35" x1="324.7" y1="557.6" x2="353.2" y2="557.6"/>
					<line class="st35" x1="324.7" y1="564.9" x2="350.6" y2="564.9"/>
				</g>
			</g>
			<g>
				<path class="st35" d="M368,534.9H251.6c-0.8,0-1.5-0.7-1.5-1.5v-8.3c0-0.8,0.7-1.5,1.5-1.5h124.6"/>
				<g>
					<circle class="st35" cx="256.8" cy="529.2" r="1.5"/>
					<circle class="st35" cx="264.1" cy="529.2" r="1.5"/>
					<circle class="st35" cx="271.4" cy="529.2" r="1.5"/>
				</g>
			</g>
		</g>
		<g>
			<g>
				<line class="st35" x1="622.4" y1="517.7" x2="651.8" y2="517.7"/>
				<line class="st35" x1="611.3" y1="517.7" x2="617.7" y2="517.7"/>
				<line class="st35" x1="578.2" y1="517.7" x2="608.1" y2="517.7"/>
				<line class="st35" x1="553.5" y1="517.7" x2="574.9" y2="517.7"/>
				<line class="st35" x1="488.5" y1="517.7" x2="550" y2="517.7"/>
			</g>
			<g>
				<line class="st35" x1="601.8" y1="528" x2="651.8" y2="528"/>
				<line class="st35" x1="572.1" y1="528" x2="598.4" y2="528"/>
				<line class="st35" x1="558.7" y1="528" x2="568.9" y2="528"/>
				<line class="st35" x1="514.6" y1="528" x2="555.4" y2="528"/>
				<line class="st35" x1="488.5" y1="528" x2="511.2" y2="528"/>
			</g>
			<g>
				<line class="st35" x1="584.2" y1="589.6" x2="607" y2="589.6"/>
				<line class="st35" x1="559" y1="589.6" x2="581.2" y2="589.6"/>
				<line class="st35" x1="547.8" y1="589.6" x2="556.4" y2="589.6"/>
				<line class="st35" x1="510.6" y1="589.6" x2="545" y2="589.6"/>
				<line class="st35" x1="488.5" y1="589.6" x2="507.6" y2="589.6"/>
			</g>
			<g>
				<line class="st35" x1="573" y1="558.8" x2="626.3" y2="558.8"/>
				<line class="st35" x1="552.9" y1="558.8" x2="570.1" y2="558.8"/>
				<line class="st35" x1="525.5" y1="558.8" x2="550.2" y2="558.8"/>
				<line class="st35" x1="516.1" y1="558.8" x2="522.7" y2="558.8"/>
				<line class="st35" x1="488.5" y1="558.8" x2="513.2" y2="558.8"/>
			</g>
			<g>
				<line class="st35" x1="584.3" y1="569" x2="626.3" y2="569"/>
				<line class="st35" x1="558.9" y1="569" x2="581.4" y2="569"/>
				<line class="st35" x1="547.8" y1="569" x2="556.2" y2="569"/>
				<line class="st35" x1="510.4" y1="569" x2="545" y2="569"/>
				<line class="st35" x1="488.5" y1="569" x2="507.5" y2="569"/>
			</g>
			<g>
				<line class="st35" x1="564.5" y1="579.3" x2="588.9" y2="579.3"/>
				<line class="st35" x1="544.4" y1="579.3" x2="561.8" y2="579.3"/>
				<line class="st35" x1="510.4" y1="579.3" x2="541.6" y2="579.3"/>
				<line class="st35" x1="488.5" y1="579.3" x2="507.5" y2="579.3"/>
			</g>
			<g>
				<line class="st35" x1="514.6" y1="538.2" x2="555.4" y2="538.2"/>
				<line class="st35" x1="488.5" y1="538.2" x2="511.2" y2="538.2"/>
			</g>
			<g>
				<line class="st35" x1="525.4" y1="548.5" x2="559.2" y2="548.5"/>
				<line class="st35" x1="488.5" y1="548.5" x2="522.4" y2="548.5"/>
			</g>
		</g>
		<g>
			<g>
				<line class="st35" x1="675.3" y1="593.6" x2="685" y2="593.6"/>
				<line class="st35" x1="671.2" y1="593.6" x2="672.6" y2="593.6"/>
				<line class="st35" x1="659.2" y1="593.6" x2="669.1" y2="593.6"/>
				<line class="st35" x1="649.3" y1="593.6" x2="657.1" y2="593.6"/>
				<line class="st35" x1="625.7" y1="593.6" x2="647.1" y2="593.6"/>
			</g>
			<g>
				<line class="st35" x1="665.9" y1="600.6" x2="683.1" y2="600.6"/>
				<line class="st35" x1="655.1" y1="600.6" x2="663.7" y2="600.6"/>
				<line class="st35" x1="650.2" y1="600.6" x2="653" y2="600.6"/>
				<line class="st35" x1="634.2" y1="600.6" x2="648.1" y2="600.6"/>
				<line class="st35" x1="623.8" y1="600.6" x2="632" y2="600.6"/>
			</g>
			<g>
				<line class="st35" x1="630.9" y1="621.6" x2="632.8" y2="621.6"/>
				<line class="st35" x1="618.1" y1="621.6" x2="628.7" y2="621.6"/>
			</g>
			<g>
				<line class="st35" x1="642.6" y1="628.6" x2="645.3" y2="628.6"/>
				<line class="st35" x1="626.6" y1="628.6" x2="640.5" y2="628.6"/>
				<line class="st35" x1="616.2" y1="628.6" x2="624.4" y2="628.6"/>
			</g>
			<g>
				<line class="st35" x1="632.4" y1="607.6" x2="646.2" y2="607.6"/>
				<line class="st35" x1="621.9" y1="607.6" x2="630.1" y2="607.6"/>
			</g>
			<g>
				<line class="st35" x1="636.8" y1="614.6" x2="650.4" y2="614.6"/>
				<line class="st35" x1="620" y1="614.6" x2="634.6" y2="614.6"/>
				<line class="st35" x1="661.3" y1="614.6" x2="675.9" y2="614.6"/>
			</g>
		</g>
	</g>
	<line class="st7" x1="646.9" y1="688.7" x2="646.9" y2="672.9"/>
	<line class="st7" x1="662.9" y1="672.9" x2="662.9" y2="688.7"/>
	<path class="st7" d="M623.9,656.9h82c4.2,0,7.5,3.4,7.5,7.5v8.6h-82.9"/>
	<path class="st7" d="M300.1,673h-92.6v-8c0-4.5,3.6-8.1,8.1-8.1h81.8"/>
	<path class="st7" d="M444.9,656.9h178c4.4,0,8,3.6,8,8v8.1h-186"/>
	<path class="st7" d="M294.3,635.2h-55c-3.4,0-6.1-2.7-6.1-6.1V511.9c0-3.4,2.7-6.1,6.1-6.1h129.1"/>
	<polyline class="st7" points="291.5,613 240.1,613 240.1,512.1 371.9,512.1 	"/>
	<polyline class="st7" points="525.1,635.2 557.5,635.2 595,635.2 602.6,635.2 	"/>
	<path class="st7" d="M467.3,621.1V487.9c0-3.4,2.7-6.1,6.1-6.1h194.4c3.4,0,6.1,2.7,6.1,6.1v89.7"/>
	<polyline class="st7" points="609.3,608.9 474.7,608.9 474.7,489.4 665,489.4 665,577.3 	"/>
	<g>
		<path class="st7" d="M674.8,656.8h9.4c1.4,0,2.7-1,3-2.3l18.1-67.4c0.3-1.2,0-2.5-0.8-3.4l-5-5.2"/>
	</g>
	<path class="st7" d="M598.9,648.8l18.3-69c0.4-1.4,1.6-2.3,3-2.3h77c2.1,0,3.6,2,3,4l-19.2,72.5c-0.4,1.7-2,2.8-3.7,2.8"/>
	<path class="st7" d="M676.5,641.7h-66.2c-1.8,0-3.1-1.7-2.6-3.4l14.4-53.6c0.3-1.2,1.4-2,2.6-2h66.2c1.8,0,3.1,1.7,2.6,3.4
		l-14.4,53.6C678.8,640.8,677.7,641.7,676.5,641.7z"/>
	<polyline class="st7" points="621,648.9 595,648.9 568.1,648.9 547.7,648.9 	"/>
	<path class="st7" d="M676.6,656.8h-56.2c-2.1,0-3.8-1.7-3.8-3.7v-0.4c0-2.1,1.7-3.8,3.8-3.8h56.2c2.1,0,3.8,1.7,3.8,3.8v0.4
		C680.3,655.2,678.6,656.8,676.6,656.8z"/>
	<g>
		<line class="st7" x1="648.2" y1="652.9" x2="662.3" y2="652.9"/>
		<line class="st7" x1="640.5" y1="652.9" x2="642.8" y2="652.9"/>
		<line class="st7" x1="635.5" y1="652.9" x2="637.8" y2="652.9"/>
	</g>
	<path class="st31" d="M372.6,544"/>
	<path class="st31" d="M400.7,544"/>
	<path class="st31" d="M428,544"/>
	<path class="st31" d="M400.7,544"/>
	<g>
		<line class="st7" x1="383.1" y1="537.2" x2="383.1" y2="520.7"/>
		<line class="st7" x1="415.8" y1="538.7" x2="415.8" y2="542.6"/>
		<path class="st7" d="M438,512.2v-3.4l3.9-0.9c2-0.6,2.9-2.8,2-4.7l-5.3-12v-8.7"/>
		<path class="st7" d="M445.3,472.3c0-14.2-11.5-25.7-25.7-25.7h-26.9c-14.2,0-25.7,11.5-25.7,25.7v24.6c0,14.2,11.5,25.7,25.7,25.7
			l11-14.4c-3.1-1.3-5.3-4.3-5.3-7.9c0-4.7,3.8-8.5,8.5-8.5c1.6,0,2.9,1.3,2.9,2.9v5.6l0,0v34.4c0,2.2,1.7,3.9,3.9,3.9h13.1
			c7.3,0,13.2-5.9,13.2-13.2v-11.8c0-0.8-0.7-1.5-1.5-1.5h-15c-4.5,0-8.2-3.7-8.2-8.2v-17.5c0-2.1,1.7-3.9,3.9-3.9h22.2
			c2.1,0,3.9-1.7,3.9-3.9L445.3,472.3z"/>
		<path class="st7" d="M525.3,637.8h5.2c10.4,0,18.8,8.4,18.8,18.8"/>
		<path class="st7" d="M430.6,604l17.9,45.1c2,4.7,6.6,7.8,11.7,7.8"/>
		<path class="st7" d="M350.6,604.1v-37.7c0-9.1,7.4-16.5,16.5-16.5H424c7.9,0,15,4.7,18.1,11.9l29.6,69c0.5,1.3,1.8,2.1,3.2,2.1
			h50.5v23.8"/>
		<polygon class="st7" points="421.8,549.9 376.6,549.9 376.6,535.9 421.8,544.5 		"/>
	</g>
	<path class="st7" d="M377.7,688.7l-11-74.1c0-6-4.9-10.9-10.9-10.9H355c-6.2,0-11.3,4.9-11.6,11.1l11,73.9"/>
	<path class="st7" d="M354.3,603.7h-51.4h0c-6.4,0-11.6,5.2-11.6,11.6l11,73.4"/>
	<line class="st7" x1="260" y1="688.7" x2="260" y2="672.9"/>
	<line class="st7" x1="275.9" y1="673.2" x2="275.9" y2="688.7"/>
	<line class="st7" x1="445" y1="640.7" x2="445" y2="688.7"/>
</g>
</svg>
