<svg enable-background="new 0 0 840 560" viewBox="0 0 840 560" xmlns="http://www.w3.org/2000/svg"><path d="m353.1 291.7v-2.9c0-.3-.1-.6-.3-.8s-.4-.3-.8-.3c-.3 0-.6.1-.7.3-.2.2-.3.4-.3.8v2.9h-2.8c-.3 0-.6.1-.8.3s-.3.4-.3.7.1.6.3.8.4.3.8.3h2.8v2.9c0 .3.1.6.3.8s.4.3.7.3.6-.1.8-.3.3-.4.3-.8v-2.9h2.8c.3 0 .6-.1.7-.3.2-.2.3-.4.3-.8 0-.2-.1-.4-.3-.7-.2-.2-.4-.3-.7-.3zm-174 129.8c-.2-.2-.4-.3-.7-.3h-2.9v-2.8c0-.3-.1-.6-.3-.8s-.4-.3-.8-.3c-.2 0-.4.1-.7.3-.2.2-.3.4-.3.8v2.9h-2.9c-.7 0-1 .3-1 1.1 0 .3.1.6.3.7.2.2.4.3.8.3h2.9v2.8c0 .3.1.6.3.8s.4.3.7.3c.7 0 1-.3 1-1.1v-2.8h2.9c.3 0 .6-.1.7-.3.2-.2.3-.4.3-.7 0-.2-.1-.6-.3-.9m371.2-60.5c-.3 0-.6.1-.8.3s-.3.4-.3.7.1.6.3.8.4.3.8.3h2.8v2.9c0 .3.1.6.3.8s.4.3.8.3.6-.1.8-.3.2-.4.3-.8v-3h2.9c.3 0 .6-.1.8-.3s.3-.4.3-.8-.1-.6-.3-.7c-.2-.2-.4-.3-.8-.3h-3v-2.8c0-.7-.3-1.1-1-1.1s-1.1.3-1.1 1.1v2.8zm113.3-236.1v-2.8c0-.2-.1-.6-.3-.8s-.4-.3-.8-.3c-.3 0-.6.1-.8.3s-.3.4-.3.8v2.9h-2.8c-.3 0-.6.1-.8.3s-.3.4-.3.8.1.6.3.8.4.3.8.3h2.8v2.6c0 .3.1.6.3.8s.4.3.8.3c.3 0 .6-.1.8-.3s.3-.4.3-.8v-2.8h2.8c.3 0 .6-.1.8-.3s.3-.4.3-.8c0-.7-.3-1.1-1.1-1.1zm57.6 223.9c0-.7-.3-1-1.1-1h-2.8v-2.8c0-.2-.1-.4-.3-.7-.2-.2-.4-.3-.8-.3-.3 0-.6.1-.8.3s-.3.4-.3.7v2.9h-2.8c-.3 0-.6.1-.8.3s-.3.4-.3.8c0 .3.1.6.3.8s.4.3.8.3h2.8v2.8c0 .3.1.6.3.8s.4.3.8.3c.3 0 .6-.1.8-.3s.3-.4.3-.8v-2.8h2.8c.3 0 .6-.1.8-.3.2-.4.3-.6.3-1z" fill="#83c4ec"/><path d="m292.6 397.4c.8-.8 1.2-1.8 1.2-3s-.4-2.2-1.2-3.1c-.9-.8-1.9-1.2-3.1-1.2s-2.2.4-3 1.2c-.8.9-1.2 1.9-1.2 3.1s.4 2.2 1.2 3c.9.8 1.9 1.2 3 1.2 1.3 0 2.3-.4 3.1-1.2m327-10.9c-.4.4-.6 1-.6 1.5s.2 1.1.6 1.4c.3.3.9.7 1.4.7s1.1-.2 1.5-.7c.4-.4.6-.9.6-1.4s-.2-1.1-.6-1.5-.9-.6-1.5-.6c-.5.1-1 .3-1.4.6z" fill="#dedede"/><path d="m120.1 378.2c-1.5-1.2-3.3-1.8-5.3-1.8-1.5 0-3.1.4-4.4 1.2s-2.3 1.9-3.1 3.2c-1.8-2.2-4-4-6.5-5.3-2.6-1.3-5.5-2-8.5-2-5.2 0-9.7 1.9-13.4 5.5s-5.6 8-5.8 13.2h93.4c-.1-1.7-.9-3.1-2.1-4.3s-2.8-1.8-4.5-1.8c-1.9 0-3.4.7-4.7 2.1-1-2.5-2.6-4.6-4.8-6.2-2.3-1.5-4.8-2.4-7.7-2.4-3.7 0-6.9 1.3-9.5 4-1.9-1.2-3.9-1.8-5.9-1.8-1.4 0-2.8.2-4.1.8-.6-1.6-1.6-3.1-3.1-4.4m97.3-240.1c-6.8-7.3-15-10.9-24.5-10.9-5.4 0-10.6 1.3-15.4 4-4.6 2.5-8.6 5.9-11.9 10.4-1.3-2.6-3.1-4.7-5.5-6.4s-5.1-2.4-8-2.4c-3.6 0-6.8 1.2-9.6 3.6s-4.5 5.4-5.4 9.1c-2.4-1-4.8-1.5-7.4-1.5-3.9 0-7.5 1.2-10.8 3.5-2.2-2.5-4.8-4.4-7.8-5.7-3.1-1.4-6.3-2.1-9.6-2.1-5.1 0-9.7 1.5-14 4.7-4.1 3.1-7 7.2-8.9 12.2-1.1-1.3-2.4-2.3-3.9-3.1-1.5-.7-3.1-1.1-4.7-1.1-3.2 0-5.8 1.2-8.2 3.5-2.2 2.3-3.5 5.2-3.7 8.6h169.6c.1-10.4-3.4-19.2-10.3-26.4m564.4 297.5c-.2-2.9-1.3-5.3-3.4-7.3-2.2-2-4.7-3.1-7.6-3.1-3.2 0-5.8 1.2-8 3.4-1.7-4.3-4.4-7.7-8.3-10.4-4-2.8-8.3-4.1-13.1-4.1-3.1 0-6.1.7-8.9 1.8s-5.3 2.8-7.4 5c-3.1-2-6.4-3.1-10.1-3.1-2.3 0-4.6.4-6.9 1.3-.8-3.2-2.4-5.7-5-7.8s-5.6-3.1-8.9-3.1c-2.6 0-5.2.7-7.5 2.1-2.2 1.3-4 3.2-5.2 5.5-3.1-3.9-6.7-6.8-11.1-8.9-4.5-2.2-9.4-3.3-14.4-3.3-8.8 0-16.4 3.1-22.8 9.4-6.4 6.2-9.7 13.8-9.9 22.6zm-48-274c-3.7-3.6-8.3-5.5-13.4-5.5-3 0-5.8.7-8.5 2-2.5 1.2-4.7 3-6.6 5.3-.8-1.3-1.8-2.4-3.1-3.2-1.3-.9-2.9-1.3-4.4-1.3-2 0-3.7.7-5.3 1.9-1.5 1.2-2.5 2.8-3 4.6-1.3-.6-2.6-.8-4.1-.8-2.1 0-4.1.6-5.9 1.8-2.6-2.6-5.8-3.9-9.6-3.9-2.9 0-5.4.8-7.7 2.3s-3.9 3.6-5 6.2c-1.3-1.4-2.9-2.1-4.7-2.1s-3.2.6-4.4 1.8-2 2.6-2.1 4.3h93.4c0-5.3-2-9.7-5.6-13.4z" fill="#3d3d3d" fill-opacity=".1686"/><path d="m90.7 193c.4.4.9.6 1.4.6s1.1-.2 1.5-.6.7-1 .7-1.5-.2-1.1-.7-1.4c-.4-.4-.9-.7-1.5-.7s-1.1.2-1.4.7c-.4.4-.6.9-.6 1.4s.2 1 .6 1.5m329.1-32.6c.6 0 1.1-.2 1.5-.7.4-.4.7-.9.7-1.4s-.2-1.1-.7-1.4c-.4-.4-.9-.7-1.5-.7s-1.1.2-1.5.7c-.4.4-.6.9-.6 1.4s.2 1.1.6 1.4c.4.5.9.7 1.5.7z" fill="#f7571a"/><path d="m227.6 221.1 3.3-5.7-3.3-5.7h-6.7l-3.3 5.7 3.3 5.7zm-5.7-9.9h4.7l2.4 4.2-2.4 4.2h-4.7l-2.4-4.2zm211-101.6-3.3 5.7 3.3 5.7h6.6l3.3-5.7-3.3-5.7zm-1.4 5.7 2.3-4.2h4.8l2.4 4.2-2.4 4.2h-4.8z" fill="#bfbfbf"/><path d="m565.9 407.9c.6 0 1.1-.2 1.5-.6s.7-.9.7-1.5-.2-1.1-.7-1.5c-.4-.4-.9-.6-1.5-.6s-1.1.2-1.5.6-.6.9-.6 1.5c0 .7.2 1.1.6 1.5s.9.6 1.5.6m209-201.6c.4-.4.6-1 .6-1.5s-.2-1.1-.6-1.4c-.4-.4-.9-.7-1.4-.7s-1.1.2-1.5.7c-.4.4-.7.9-.7 1.4s.2 1.1.7 1.5c.4.4.9.6 1.5.6s.9-.3 1.4-.6z" fill="#bad727"/><path d="m487.1 256.8c.8-.9 1.2-1.9 1.2-3.1s-.4-2.2-1.2-3c-.9-.8-1.9-1.2-3.1-1.2s-2.2.4-3 1.2c-.9.9-1.2 1.9-1.2 3 0 1.2.4 2.2 1.2 3.1.8.8 1.8 1.2 3 1.2s2.2-.5 3.1-1.2z" fill="#d1d1d1"/><path d="m623.2 199c0 1-.3 1.9-1.1 2.5-.7.7-1.5 1.1-2.5 1.1s-1.9-.3-2.5-1.1c-.7-.7-1.1-1.5-1.1-2.5s.3-1.8 1.1-2.5c.7-.7 1.5-1.1 2.5-1.1s1.8.3 2.5 1.1 1.1 1.6 1.1 2.5zm-391.2-90.8c0 1-.3 1.9-1 2.5-.7.7-1.5 1.1-2.5 1.1s-1.8-.3-2.5-1.1c-.7-.7-1-1.5-1-2.5s.3-1.8 1-2.5c.7-.8 1.5-1.1 2.5-1.1s1.9.3 2.5 1.1c.7.7 1 1.5 1 2.5zm-12.5 242c0 1-.3 1.9-1 2.5-.7.7-1.5 1.1-2.5 1.1s-1.9-.3-2.5-1.1c-.7-.8-1-1.5-1-2.5s.3-1.9 1-2.5c.7-.7 1.5-1.1 2.5-1.1s1.8.3 2.5 1.1c.8.7 1 1.5 1 2.5z" fill="none" stroke="#bfbfbf" stroke-miterlimit="10" stroke-width="2.2029"/><path d="m1042.6 610.1c0-11.8-4.2-21.8-12.4-30.1-8.4-8.4-18.4-12.6-30.2-12.6s-21.8 4.2-30.1 12.6c-8.3 8.3-12.4 18.3-12.4 30.1s4.2 21.8 12.4 30.1c8.4 8.3 18.4 12.4 30.1 12.4 11.8 0 21.8-4.2 30.2-12.4 8.2-8.3 12.4-18.3 12.4-30.1z" fill="#f7571a" transform="matrix(.59165955 0 0 .59165955 -168.2 -114.75)"/><path d="m540.2 542.9c-4.2-13-12.3-22.6-24.5-28.7-12.1-6.2-24.7-7.3-37.7-3.1s-22.6 12.3-28.7 24.5c-6.2 12.1-7.2 24.7-3.1 37.7s12.3 22.6 24.5 28.7c12.1 6.2 24.7 7.3 37.7 3.1s22.6-12.3 28.7-24.5c6.3-12.2 7.3-24.7 3.1-37.7z" fill="#bad727" transform="matrix(.52783203 0 0 .52783203 -3.35 -12.25)"/><path d="m1035.6 565.7c-5.2-16.2-15.4-28.2-30.6-35.9-15.2-7.8-30.8-9-47-3.9-16.2 5.3-28.2 15.4-36 30.5-7.7 15.2-9 30.8-3.7 47 5.2 16.2 15.4 28.2 30.5 35.9 15.2 7.8 30.8 9 47 3.9s28.2-15.4 35.9-30.5 9-30.8 3.9-47z" fill="#2c538a" transform="matrix(.26036072 0 0 .26036072 325.55 129.8)"/><path d="m579.9 261.3c5.7 0 10.7 2 14.8 6.2 3.6 3.6 5.6 8 6.1 13l-.1 4.1c-.4 4.8-2.4 9-5.9 12.6-4.1 4.1-9 6.2-14.8 6.2s-10.7-2-14.9-6.2c-4.1-4.1-6.1-9-6.1-14.8m148.1 53c-19.6 0-36.3-6.9-50.1-20.7-13.9-13.9-20.8-30.6-20.8-50.2 0-1.7 0-3.3.2-4.8 0-.4.1-.9.1-1.3l.4-3.9c0-.4.1-1 .1-1.4 2.2-14.8 8.9-27.6 19.9-38.8 13.9-13.9 30.6-20.7 50.1-20.7 19.6 0 36.3 6.9 50.1 20.7 13.9 13.8 20.8 30.5 20.8 50.2m-202.6-148.4c-13.9-13.9-30.5-20.8-50.1-20.8-16.1 0-30.2 4.6-42.3 14-2.8 2.1-5.3 4.3-7.8 6.8-.3.3-.7.8-1.1 1.1-.8.8-1.5 1.7-2.3 2.4-.3.3-.6.7-.9 1l-2.4 3.1c-.3.3-.7.7-.9 1.1-2.3 3.1-4.3 6.3-5.9 9.7-.9 1.8-1.8 3.5-2.5 5.3-3.3 8.2-4.8 17-4.8 26.4 0 19.6 6.9 36.3 20.8 50.2s30.6 20.8 50.1 20.8c19.6.1 36.3-6.8 50.2-20.8m-260-125.5c20.9 0 38.8 7.4 53.5 22.1s22.1 32.6 22.1 53.5-7.4 38.8-22.1 53.5-32.6 22.1-53.5 22.1c-6.4 0-12.4-.7-18.2-2l-3.9-1c-11.7-3.5-22.1-9.8-31.4-19.1-14.8-14.8-22.1-32.6-22.1-53.5m161.7 58c6.1-6.1 13.3-9 21.8-8.9 2.6 0 5.2.2 7.6.9 2 .4 4 1.1 5.8 2 3.1 1.4 5.9 3.5 8.6 6.2 2.6 2.6 4.6 5.5 6.2 8.6 1.9 4.1 2.9 8.6 2.9 13.4 0 3.3-.4 6.4-1.3 9.4-.7 2.2-1.7 4.4-2.9 6.4-1 1.7-2.1 3.2-3.4 4.6l-2.9 2.9c-1.4 1.2-3 2.4-4.6 3.4-4.6 2.8-9.9 4.2-15.9 4.2-8.5 0-15.9-3.1-21.9-9.1m-317.1 46.5c13.7 13.7 30.2 20.5 49.5 20.5 19.4 0 35.8-6.8 49.5-20.5s20.5-30.2 20.5-49.5c0-17.1-5.3-31.8-15.9-44.5l-2.6-3.1c-.7-.7-1.3-1.3-2-2-13.7-13.7-30.2-20.6-49.6-20.6-19.3-.1-35.8 6.7-49.6 20.4m203.5 66.8c0 8.6-3.1 15.9-9.1 21.8-5.6 5.6-12.2 8.6-19.9 9h-4.1c-7.6-.4-14.2-3.5-19.7-9-3.2-3.2-5.6-6.8-7-10.8-1.3-3.4-2-7.2-2-11.1 0-2.4.2-4.7.7-6.9 1.2-5.6 4.1-10.6 8.4-15 6.1-6.1 13.3-9 21.9-9" fill="none" stroke="#a3a3a3" stroke-miterlimit="10" stroke-width="1.1014"/><path d="m669.5 323.1c-.6 0-1.1.2-1.4.7-.4.4-.6.9-.6 1.4v.1c0 .6.2 1 .6 1.4.3.3.8.6 1.2.7h.2c.6 0 1.1-.2 1.4-.7.4-.4.6-.9.6-1.4v-.1c0-.6-.2-1-.6-1.4-.4-.5-.9-.7-1.4-.7m-500.7 2.4c-.3-.4-.9-.7-1.4-.7s-1 .2-1.4.7c-.4.4-.6.9-.6 1.4 0 .6.2 1 .6 1.4.3.4.9.7 1.4.7h.2c.4 0 .9-.2 1.2-.7.3-.4.6-.9.6-1.4 0-.5-.2-1-.6-1.4m408.7-23.8c-.4.4-.6.9-.6 1.4v.1c0 .6.2 1 .6 1.4.3.3.8.6 1.2.6h.2c.6 0 1.1-.2 1.4-.6.4-.4.7-.9.7-1.4v-.1c0-.6-.2-1-.7-1.4-.3-.4-.9-.7-1.4-.7s-1.1.3-1.4.7m-319.3 11.8c0-.6-.2-1-.6-1.4-.3-.4-.9-.6-1.4-.6s-1 .2-1.4.6-.7.9-.7 1.4v.1c0 .6.2 1 .7 1.4.3.4.9.7 1.4.7h.2c.4 0 .9-.2 1.2-.7.4-.5.6-1 .6-1.5m55.6-72.3c-.4.4-.6.9-.6 1.4v.1c0 .6.2 1 .6 1.4.3.4.9.7 1.4.7h.2c.4 0 .9-.2 1.2-.7.3-.4.6-.9.6-1.4v-.1c0-.6-.2-1-.6-1.4-.3-.4-.9-.7-1.4-.7-.6.1-1 .3-1.4.7m212.3-4c0-.7-.2-1.1-.6-1.4-.3-.4-.9-.6-1.4-.6s-1 .2-1.4.6-.6.9-.6 1.4c0 .6.2 1 .6 1.4.3.4.8.7 1.4.7h.1c.6 0 1-.2 1.4-.7.4-.3.5-.9.5-1.4m-104.1 39.8c-.1.1-.1.3-.1.6 0 .6.2 1 .7 1.4.3.4.9.7 1.4.7.6 0 1-.2 1.4-.7l.1-.1c0-.1.1-.1.2-.1.1-.2.2-.4.2-.7 0-.1.1-.2.1-.3v-.1c0-.6-.2-1.1-.6-1.4-.4-.4-.9-.7-1.4-.7s-1.1.2-1.4.7c-.1 0-.1.1-.1.1v.1c-.3 0-.4.2-.5.5z" fill="#fefefe"/><path d="m424 279.6c-.6 0-1-.2-1.4-.7-.4-.3-.7-.9-.7-1.4 0-.2 0-.4.1-.6 0-.2.1-.4.3-.7v-.1c0-.1.1-.1.1-.1.3-.4.9-.7 1.4-.7s1 .2 1.4.7c.3.3.6.9.6 1.4v.1c0 .1 0 .2-.1.3 0 .2-.1.4-.2.7-.1 0-.1.1-.2.1l-.1.1c-.2.6-.7.9-1.2.9v43.5m100.1-83.9c-.6 0-1-.2-1.4-.7-.4-.4-.6-.9-.6-1.4 0-.6.2-1 .6-1.4.3-.4.8-.6 1.4-.6s1.1.2 1.4.6c.3.3.6.9.6 1.4v.1c0 .6-.2 1-.6 1.4-.3.4-.8.6-1.4.6v5.3c-.1 3.6-1.4 6.8-4.2 9.5-2.6 2.6-5.8 4.1-9.5 4.2h-5.4c-3.7.1-6.9 1.4-9.6 4.1s-4 5.8-4.1 9.6v143.6m177.8-88.4h.2c.6 0 1.1-.2 1.4-.7.4-.4.6-.9.6-1.4v-.1c0-.6-.2-1-.6-1.4s-.9-.7-1.4-.7-1.1.2-1.4.7c-.4.4-.6.9-.6 1.4v.1c0 .6.2 1 .6 1.4.5.5.8.7 1.2.7v31.9c-.1 3.6-1.4 6.8-4.1 9.5s-5.8 4.1-9.6 4.2h-153.8m77-67.6h.2c.6 0 1.1-.2 1.4-.6.4-.4.7-.9.7-1.4v-.1c0-.6-.2-1-.7-1.4-.3-.4-.9-.7-1.4-.7s-1.1.2-1.4.7c-.4.4-.6.9-.6 1.4v.1c0 .6.2 1 .6 1.4s.9.6 1.2.6v21.3c-.1 3.6-1.4 6.8-4.1 9.5-2.6 2.6-5.8 4.1-9.6 4.2h-71.6m-177.8-95.5c-.1 0-.1 0-.2 0-.6 0-1.1-.2-1.4-.7-.4-.4-.6-.9-.6-1.4v-.1c0-.6.2-1 .6-1.4.3-.4.9-.7 1.4-.7.6 0 1.1.2 1.4.7.4.4.6.9.6 1.4v.1c0 .6-.2 1-.6 1.4-.3.5-.8.7-1.2.7v9.9c.1 3.6 1.4 6.8 4.1 9.5 2.6 2.6 5.8 4.1 9.6 4.2h17.6c3.6.1 6.8 1.4 9.5 4.1 2.6 2.6 4.1 5.8 4.2 9.6v95.4m-192.9-48.3c-.1 0-.1 0-.2 0-.6 0-1.1-.2-1.4-.7-.4-.4-.6-.9-.6-1.4 0-.6.2-1 .6-1.4.3-.4.9-.7 1.4-.7.6 0 1.1.2 1.4.7.4.4.7.9.7 1.4 0 .6-.2 1-.6 1.4-.5.4-.8.6-1.3.7v31.8c.1 3.6 1.4 6.8 4.1 9.5 2.6 2.6 5.8 4.1 9.6 4.2h154m-78.9-58.9c-.1 0-.1 0-.2 0-.6 0-1.1-.2-1.4-.7-.4-.4-.7-.9-.7-1.4v-.1c0-.6.2-1 .7-1.4.3-.4.9-.6 1.4-.6.6 0 1.1.2 1.4.6.4.4.6.9.6 1.4v.1c0 .6-.2 1-.6 1.4-.3.3-.7.6-1.2.7v21.3c.1 3.6 1.4 6.8 4.1 9.5 2.6 2.6 5.8 4.1 9.6 4.2h71.5" fill="none" stroke="#a3a3a3" stroke-miterlimit="10" stroke-width="1.1014"/><path d="m485.5 436.9c-13.1-5.6-26.9-8.4-41.2-8.4-15 0-29.3 3.1-42.8 9.1-7.7-13.7-18.2-24.6-31.4-32.5-13.7-8.4-28.4-12.6-44.4-12.6-12 0-23.5 2.4-34.4 7.2-10.6 4.6-19.8 11.1-27.9 19.5-8.9-11.7-19.8-20.7-32.8-27.3-13.4-6.8-27.8-10.1-43-10.1-13 0-25.3 2.5-37.1 7.5-11.5 4.8-21.5 11.6-30.3 20.4s-15.6 18.8-20.4 30.2c-5 11.8-7.5 24.2-7.5 37.1 0 13.2 2.6 25.8 7.8 37.9-12.4 7.3-22.4 17.2-29.6 29.7-7.8 13.1-11.6 27.1-11.6 42.2 0 11.2 2.1 22 6.4 32.3 4.2 9.9 10 18.7 17.5 26.3 7.6 7.6 16.2 13.5 26 17.7 10.1 4.3 20.7 6.5 31.8 6.5 5.7 0 11.3-.6 16.9-1.8 6.3 17.1 17 31 31.8 41.5 15.2 10.8 32.3 16.2 51 16.2 18 0 34.4-5 49.2-15 14.5-9.8 25.1-22.7 31.9-38.8 10.7 5.2 21.9 7.8 33.8 7.8 14.3 0 27.5-3.6 39.7-10.9 11.8-7 21.1-16.6 27.9-28.6 6.9 1.3 13.9 2 20.8 2 14.3 0 28.1-2.8 41.2-8.4 12.7-5.4 23.9-13.1 33.6-22.9 9.8-9.8 17.3-21.1 22.7-33.9 5.5-13.2 8.3-27.1 8.3-41.5 0-14.5-2.8-28.3-8.3-41.5-5.4-12.8-12.9-24.1-22.7-33.9-9-10-20.2-17.6-32.9-23z" fill="#4a98d6" transform="matrix(.20269727002 0 0 .20269727002 74.35 156)"/><path d="m80.7 56.5c-2-2-4.1-3.5-6.2-4.8-4-2.4-8.2-4.1-12.4-4.8-.4-.1-1-.2-1.8-.3-1-.1-1.7-.2-1.9-.2h-.1l-.1-.1h-5.7c-.3.1-.6.1-.7.1-.3.1-.6.1-.7.1-2.3.2-4.8.8-7.6 1.8-4 1.4-7.4 3.3-10.4 5.8-1.7 1.4-3 2.5-3.9 3.5-2 2.1-3.6 4.5-5.2 7.2-1.5 2.8-2.6 5.6-3.4 8.7-.2.8-.3 1.7-.4 2.8-.1.7-.2 1.5-.4 2.9 0 0 0 .1-.1.2v5.8c.1.9.2 1.4.2 1.5.1.7.3 1.7.6 3 .2 1.2.4 2.2.7 3 .6 2.3 1.4 4.5 2.6 6.5.9 1.3 2.1 3.2 3.6 5.5.6.8 1.3 1.7 2.3 2.5.8.8 1.5 1.4 2.2 1.9.9.6 1.8.9 2.6 1 0 0 0 .1.1.1h2.4c.3-.1.8-.3 1.4-.6.6-.2 1.1-.4 1.4-.7.4-.2 1.2-.8 2.2-1.4 1-.7 1.7-1.1 2.2-1.4 2.2-1.2 4.5-1.9 6.8-2.2 1.9-.2 3.5-.3 4.8-.3 1.9 0 4 .3 6.2 1 2.8.8 5.3 2 7.5 3.6.7.4 1.2.8 1.5 1 .7.3 1.2.6 1.8.8.1 0 .3.1.7.2h2.5c.3-.1.8-.2 1.3-.4.4-.2.9-.3 1.1-.6 1-.6 1.9-1.3 2.8-2.1.9-1 1.9-2.2 3-3.6 1.4-2 2.8-4.2 3.9-6.6 1-2.3 1.8-4.6 2.3-6.9.1-.7.3-2.1.7-4.3.1-.3.2-1 .3-2.1v-3.3.1c0-.1-.1-.1-.1-.2 0-1.8-.3-3.9-.9-6.4-.8-3.3-2-6.3-3.6-9.1-.4-.8-1-1.7-1.7-2.5-.3-.6-1-1.3-1.8-2.5-.7-1.3-1.6-2.3-2.6-3.2m-15.6 9.7c1.7 1.1 2.9 2.1 3.5 2.9 2.2 2.3 3.6 5.1 4.4 8.2.4 1.9.6 3.9.4 5.9-.2 3.7-1.4 7-3.6 9.9-2.8 3.5-6.2 5.7-10.1 6.5-1.7.3-3.4.4-5.3.4-3.5-.1-6.7-1.3-9.7-3.5-2-1.5-3.5-3.4-4.7-5.5-1.1-2-1.9-4.2-2.2-6.6 0-.3-.1-.8-.1-1.3 0-.6 0-.9 0-1.1 0-2.1.2-4.1.8-5.8.6-1.8 1.3-3.5 2.3-5.1 2.8-3.9 6.4-6.3 10.9-7.4 1.4-.3 2.8-.4 4-.4 3.7.2 6.8 1.2 9.4 2.9z" fill="#81b5a1" transform="matrix(1.44085693 0 0 1.44085693 236.5 48.9)"/><path d="m1004.5 1069.2c-4.1-5.2-9.9-7.7-17.3-7.7h-61.2c-7.5 0-14.4 2.5-20.9 7.7s-10.6 11.3-12.3 18.6l-13.1 55.7c10-.8 20-1.2 29.8-1.4 28.3-.3 56.8.1 85.6 1.1l13-55.4c1.7-7.3.5-13.5-3.6-18.6m60.6-69.8c-6.5 5.2-10.6 11.3-12.3 18.6l-29.7 126.7c39 2.2 76.5 5.8 112.8 10.9l32.2-137.5c1.7-7.3.4-13.4-3.6-18.6-4.1-5.2-9.8-7.7-17.3-7.7h-61.2c-7.5-.1-14.4 2.4-20.9 7.6m421.5-146.9c1.7-7.2.4-13.3-3.6-18.5s-9.8-7.7-17.3-7.7h-61.1c-7.5 0-14.4 2.5-20.9 7.7s-10.6 11.3-12.3 18.5l-78.9 336.7c38.4 11.8 73.7 25.4 105.6 41.2zm-269.4 86.6c-6.5 5.2-10.6 11.3-12.3 18.6l-47.1 200.9c38.4 6.1 75.1 13.9 109.9 23.4l52.5-224.3c1.7-7.3.6-13.4-3.6-18.6-4.1-5.2-9.9-7.7-17.4-7.7h-61.2c-7.3 0-14.3 2.6-20.8 7.7z" fill="#9068c5" transform="matrix(.12507629 0 0 .12507629 559.7787017975 137.1979573935)"/><path d="m1183.5 542.8c-64.7 0-126.6 12.4-185.6 37.4-57.1 24.2-107.6 58.3-151.6 102.3-43.9 43.9-78.1 94.5-102.2 151.6-25 59-37.6 120.9-37.6 185.7 0 64.7 12.6 126.6 37.6 185.6 24.1 57.1 58.2 107.6 102.2 151.7 44.1 43.9 94.6 78.1 151.7 102.2 59 25 120.9 37.4 185.6 37.4s126.6-12.4 185.7-37.4c57.1-24.1 107.6-58.3 151.7-102.2 43.9-44.1 78.1-94.6 102.2-151.7 25-59 37.6-120.9 37.6-185.6s-12.6-126.6-37.6-185.7c-24.1-57.1-58.2-107.6-102.2-151.6-44.1-43.9-94.6-78.1-151.7-102.2-59.2-24.9-121.1-37.5-185.8-37.5m-291.4 185.4c38-38 81.7-67.5 131.1-88.3 51.1-21.6 104.5-32.4 160.5-32.4s109.4 10.8 160.5 32.4c49.3 20.8 93.1 50.3 131.1 88.3s67.5 81.7 88.4 131.1c21.6 51.1 32.4 104.5 32.4 160.5s-10.8 109.4-32.4 160.5c-20.9 49.3-50.3 93-88.4 131.1s-81.7 67.5-131.1 88.4c-51.1 21.6-104.5 32.4-160.5 32.4s-109.4-10.8-160.5-32.4c-49.3-20.9-93-50.3-131.1-88.4s-67.5-81.7-88.4-131.1c-21.6-51.1-32.4-104.5-32.4-160.5s10.8-109.4 32.4-160.5c20.9-49.4 50.3-93.1 88.4-131.1z" fill="#9068c5" transform="matrix(.12507629 0 0 .12507629 559.7787017975 137.1979573935)"/><path d="m443.4 75.6c3.4-4.7 5.2-9.3 5.2-13.7 0-5-1.5-9-4.7-12.2s-7.2-4.8-12-4.8c-3.5 0-6.6 1-9.5 3.1-2.9-2.1-5.9-3.1-9.4-3.1-4.8 0-8.8 1.7-12 4.8-3.2 3.2-4.7 7.3-4.7 12.2 0 4.4 1.7 8.9 5.1 13.7 2.1 2.9 6.1 7.3 12 13.1l9 9 9-9c6-6 10-10.4 12-13.1m-3.6-22c2 2.1 3 4.8 3 8.2 0 3.3-1.5 7-4.6 11.1-1.9 2.4-5.5 6.3-10.8 11.6l-5 5-5-5c-5.3-5.3-8.9-9.1-10.8-11.6-3.1-4.1-4.5-7.7-4.5-11.1s1-6.1 3.1-8.2c2-2.1 4.6-3.1 7.8-3.1 2.9 0 5.3 1 7.3 3.2l2.1 2.1 2.1-2.1c2-2.1 4.5-3.2 7.4-3.2 3.3 0 5.8 1 7.9 3.1z" fill="#f3bd25" transform="matrix(1.94291687 0 0 1.94291687 -296.2736381095 34.0851020825)"/><path d="m571.3 282 4.2-7.2h8.4l4.2 7.2-4.2 7.3h-8.4zm-314.8-12.5v13.2h13.2m-13.2 13.3v-13.2h-13.2" fill="none" stroke="#fff" stroke-miterlimit="10" stroke-width="1.1014"/><g transform="translate(282.3 227.2)"><path d="m123.2 208.2v23.1h37.1v-23.1zm-21.7 27.4c-.1.3-.1.8-.1 1.1v5.2h80.5v-5.1c0-.4 0-.8-.1-1.2zm16.2-4.4h-10.9c-1.4 0-2.6.6-3.7 1.7-.8.8-1.2 1.8-1.4 2.8h80.2c-.2-1-.8-2-1.5-2.8-1.1-1.1-2.4-1.7-4-1.7h-16.2-36.9zm127.7-141.7c0-1.3-.4-2.5-1.4-3.4s-2.1-1.4-3.4-1.4h-197.5c-1.3 0-2.3.4-3.2 1.3s-1.3 2-1.3 3.2v114.7c0 1.2.4 2.2 1.3 3.1s1.9 1.3 3.2 1.3h74.6 5.5 37.1 80.5c1.3 0 2.4-.6 3.3-1.4.9-.9 1.4-2 1.4-3.3v-114m-8.3 4.3v105.4h-190.4v-105.4z" fill="#cacaca"/><path d="m117.7 208.2v23.1h5.5v-23.1zm-21.9 27.4v6.3h5.5v-5.2c0-.3 0-.8.1-1.1zm1.6-2.7c-.8.8-1.3 1.8-1.5 2.8h5.6c.2-1 .7-2 1.4-2.8 1.1-1 2.3-1.5 3.7-1.7h-5.4c-1.4 0-2.7.6-3.8 1.7m-54.3-148.3h-5.4c-1.3 0-2.4.4-3.3 1.3s-1.3 2-1.3 3.2v114.7c0 1.2.4 2.2 1.3 3.1s1.9 1.3 3.2 1.3h5.5c-1.2 0-2.3-.4-3.2-1.3s-1.3-1.9-1.3-3.1v-114.7c0-1.2.4-2.3 1.3-3.2s1.9-1.3 3.2-1.3z" fill="#828282"/><path d="m237.2 199.3v-105.4h-190.4v105.4z" fill="#fff"/></g><g fill="none" stroke-width="1.1014"><path d="m43.1 84.6h197.5c1.3 0 2.5.4 3.4 1.4s1.4 2.1 1.4 3.4v113.9c0 1.3-.6 2.4-1.4 3.3-.9.9-2 1.4-3.3 1.4h-80.5v23.1h16.2c1.5 0 2.9.6 4 1.7.8.8 1.3 1.8 1.5 2.8.1.4.1.8.1 1.2v5.1h-80.6-5.5v-6.3c.2-1 .8-2 1.5-2.8 1.1-1.1 2.4-1.7 3.9-1.7h5.4 10.9v-23.1h-74.5-5.5c-1.2 0-2.3-.4-3.2-1.3s-1.3-1.8-1.3-3v-114.6c0-1.2.4-2.3 1.3-3.2s2-1.3 3.3-1.3h5.4c-1.3 0-2.3.4-3.2 1.3s-1.3 2-1.3 3.2v114.7c0 1.2.4 2.2 1.3 3.1s1.9 1.3 3.2 1.3m194.1-8.9h-190.4v-105.4h190.3zm-130.6 31.9c-1.4 0-2.6.6-3.7 1.7-.8.8-1.2 1.8-1.4 2.8h80.3m-80.3-.1c-.1.3-.1.8-.1 1.1v5.2m.1-6.3h-5.6m27.3-27.4v23.1h37.1m-.1-23.1h-37-5.5m5.5 23h-5.5" stroke="#000" stroke-miterlimit="10" transform="translate(282.3 227.2)"/><path d="m443.7 357c0 4.5-1.2 8.5-3.5 12-.9 1.3-1.9 2.5-3.1 3.6-4.1 4.1-8.9 6.3-14.6 6.5-.3 0-.7 0-1.1 0-.3 0-.6 0-.9 0-5.7-.2-10.6-2.4-14.8-6.7-1.1-1.1-2-2.2-2.8-3.4-2.3-3.5-3.5-7.5-3.6-11.9 0-.1 0-.3 0-.4 0-4.3 1.1-8.2 3.2-11.5.9-1.3 1.9-2.5 3-3.6 4.1-4.1 9-6.3 15-6.5h1 1c5.7.2 10.6 2.3 14.6 6.4 1.2 1.2 2.2 2.4 3.1 3.7 2.4 3.4 3.5 7.4 3.5 11.8zm-3.3-11.8h-11.1c1.4 3.4 2.1 6.9 2.1 10.8v1.1h12.4m-14.7-11.9h-15.2c-1.3 3.4-2.1 6.9-2.1 10.8v1.1h19.3c-.1 4-1 7.9-2.8 11.9h11.7m-19.3-34c-3 3.2-5.2 6.6-6.6 10.2h-11.3m19.7 33.9c2.5-3.4 4.5-6.8 5.9-10.2h-13.9c1.4 3.4 3.4 6.8 5.9 10.2m-8.4-22c.1 4 1 7.9 2.6 11.9h-11.6m19.5-34c3 3.2 5.2 6.6 6.6 10.2m-29.7 11.9h12.6" stroke="#3a6fbb" stroke-linejoin="round"/><path d="m404.6 391c0 2.3-.9 4.4-2.5 6.1-1.5 1.7-3.5 2.4-5.8 2.5 2.9 0 5.4.9 7.7 2.5s3.9 3.9 4.8 6.5c1-2.6 2.5-4.8 4.7-6.5 2.3-1.7 5-2.5 7.8-2.5-2.3 0-4.2-.9-5.8-2.5s-2.5-3.7-2.5-6.1.8-4.4 2.5-6.1 3.6-2.4 5.9-2.4 4.4.8 6.1 2.4c1.7 1.7 2.4 3.6 2.4 6.1 0 2.4-.8 4.4-2.4 6.1s-3.6 2.4-6.1 2.5c2.9 0 5.5.9 7.8 2.5 2.3 1.7 3.9 3.9 4.8 6.5 1-2.6 2.6-4.8 5-6.5s4.8-2.5 7.7-2.5c-2.3 0-4.3-.9-5.9-2.5s-2.4-3.6-2.4-6.1c0-2.3.8-4.4 2.4-6.1 1.8-1.7 3.7-2.4 6.1-2.4 2.3 0 4.3.8 5.9 2.4 1.7 1.7 2.4 3.6 2.5 6.1 0 2.3-.9 4.4-2.5 6.1-1.7 1.7-3.5 2.4-5.8 2.5 3.6 0 6.8 1.4 9.5 4.3 2.6 2.8 4 5.8 4 9.3h-78.2c0-3.5 1.3-6.6 4-9.3 2.6-2.8 5.8-4.2 9.6-4.3-2.3 0-4.3-.9-5.9-2.5-1.7-1.7-2.5-3.6-2.5-6.1 0-2.3.9-4.4 2.5-6.1 1.7-1.7 3.7-2.4 6.1-2.4s4.3.8 5.9 2.4c1.7 1.7 2.6 3.8 2.6 6.1zm42.6 8.6h-.2m-25.3 0h-.2m-25.2 0h-.2" stroke="#3a6fbb" stroke-linecap="round" stroke-linejoin="round"/></g></svg>