<?xml version="1.0" encoding="utf-8"?>
<!-- Generator: Adobe Illustrator 22.1.0, SVG Export Plug-In . SVG Version: 6.00 Build 0)  -->
<svg version="1.1" id="Layer_611234" xmlns="http://www.w3.org/2000/svg" xmlns:xlink="http://www.w3.org/1999/xlink" x="0px" y="0px"
	 viewBox="0 0 936 792" style="enable-background:new 0 0 936 792;" xml:space="preserve">
<style type="text/css">
	.st0{fill:#1776BF;}
	.st1{fill-rule:evenodd;clip-rule:evenodd;fill:none;stroke:#A6A6A6;stroke-miterlimit:10;}
	.st2{fill-rule:evenodd;clip-rule:evenodd;fill:none;stroke:#A6A6A6;stroke-width:2;stroke-miterlimit:10;}
	.st3{fill:none;stroke:#A6A6A6;stroke-width:2;stroke-miterlimit:10;}
	.st4{fill:#A6A6A6;}
	.st5{fill:none;stroke:#A6A6A6;stroke-miterlimit:10;}
	.st6{fill:#FFFFFF;stroke:#A6A6A6;stroke-width:0;stroke-miterlimit:10;}
	.st7{fill:#FFFFFF;stroke:#A6A6A6;stroke-miterlimit:10;}
	.st8{opacity:0.17;fill:#3B3B3B;}
	.st9{fill:#FFFFFF;}
	.st10{fill:#7BCAEF;stroke:#000000;stroke-miterlimit:10;}
	.st11{fill:#7BCAEF;}
	.st12{fill:#C2C2C2;}
	.st13{fill:#C2D500;}
	.st14{fill:#0899CC;}
	.st15{opacity:0.6;fill:#1776BF;}
	.st16{fill:none;stroke:#000000;stroke-miterlimit:10;}
	.st17{fill:#FF5C66;}
	.st18{fill:none;stroke:#000000;stroke-linecap:round;stroke-linejoin:round;stroke-miterlimit:10;}
	.st19{fill:#1776BF;stroke:#000000;}
	.st20{fill:#BAD80A;}
	.st21{clip-path:url(#SVGID_2_);}
	.st22{fill:#C2C2C2;stroke:#000000;stroke-linejoin:bevel;stroke-miterlimit:10;}
	.st23{fill:#11578D;}
	.st24{fill:none;stroke:#1776BF;}
	.st25{fill:none;stroke:#FFFFFF;stroke-linecap:round;stroke-linejoin:round;stroke-miterlimit:10;}
	.st26{fill:none;stroke:#0C3B60;}
	.st27{fill:#FF4D00;}
	.st28{fill:none;stroke:#FFFFFF;stroke-miterlimit:10;}
	.st29{opacity:0.36;}
	.st30{fill:#B3B3B3;stroke:#000000;stroke-miterlimit:10;}
	.st31{fill:#757575;}
	.st32{fill:#F6FAFB;stroke:#000000;stroke-miterlimit:10;}
	.st33{fill:none;stroke:#000000;}
	.st34{fill:#BABABA;stroke:#000000;}
	.st35{fill:#CCCCCC;}
	.st36{clip-path:url(#SVGID_4_);}
	.st37{clip-path:url(#SVGID_6_);}
	.st38{fill:#999999;}
	.st39{fill:#CDD5D7;stroke:#000000;stroke-miterlimit:10;}
	.st40{fill:#FFFFFF;stroke:#000000;}
	.st41{opacity:0.32;}
	.st42{fill:none;stroke:#B0B0B0;stroke-linecap:round;stroke-linejoin:round;stroke-miterlimit:10;}
	.st43{fill:none;stroke:#B0B0B0;stroke-miterlimit:10;}
	.st44{fill:#FFFFFF;stroke:#B0B0B0;stroke-miterlimit:10;}
	.st45{fill:none;stroke:#999999;stroke-linecap:round;stroke-linejoin:round;stroke-miterlimit:10;}
	.st46{fill:none;stroke:#999999;stroke-miterlimit:10;}
	.st47{fill:#FFFFFF;stroke:#999999;stroke-miterlimit:10;}
	.st48{fill:#595959;stroke:#000000;stroke-miterlimit:10;}
	.st49{fill:none;stroke:#FF4D00;stroke-miterlimit:10;}
</style>
<path class="st0" d="M713,507.1l-113.5,70.6c-37.7,23.4-83,31.5-126.4,22.4l-60.8-12.7c-52.9-11-108-2.5-155.1,24.1l-23.5,13.3
	c-26.2,14.8-58.9,10.6-80.6-10.2l0,0c-32.9-31.7-25.9-86.2,14.1-108.5l61.4-34.2c40.1-22.3,62.8-66.5,57.5-112l-0.6-5.5
	c-4.8-42.1,13.6-83.4,48.1-108l0,0c37.7-26.8,83.6-39.5,129.7-35.8l47.6,3.8c37.6,3,74.8-8.5,104.1-32.3l0,0
	c32.4-26.2,79.6-22.6,107.6,8.2l0,0c27.4,30.1,30.5,75.2,7.5,108.8l-7.5,10.9c-19.9,29.1-17.6,68,5.7,94.5l0,0
	C755.9,436.1,748.7,484.9,713,507.1z"/>
<g>
	<path class="st1" d="M480.6,479.5v69.8c0,13.9,11.3,25.3,25.3,25.3h15.7"/>
	<line class="st2" x1="254.9" y1="437.9" x2="254.9" y2="490.6"/>
	<line class="st2" x1="419.4" y1="127.7" x2="419.4" y2="180.3"/>
	<line class="st1" x1="879.9" y1="180.9" x2="879.9" y2="233.6"/>
	<g>
		<g>
			<path class="st3" d="M449,173.6h0.2c8,0,14.4,6.4,14.4,14.4v136.7"/>
			<g>
				<polygon class="st4" points="449.8,167.5 449.8,179.7 443.7,173.6 				"/>
			</g>
			<g>
				<polygon class="st4" points="469.7,323.9 457.5,323.9 463.6,330 				"/>
			</g>
		</g>
	</g>
	<path class="st1" d="M501.6,200.9h-8.9c-4.5,0-8.1,3.6-8.1,8.1v81.2"/>
	<line class="st1" x1="299.6" y1="372.9" x2="346.2" y2="372.9"/>
	<path class="st1" d="M657.3,334.9v-83.6c0-6.6-5.3-11.9-11.9-11.9H618"/>
	<g>
		<g>
			<path class="st3" d="M769.6,375.2v3.6c0,10-8.1,18.2-18.2,18.2h-35"/>
			<g>
				<polygon class="st4" points="775.7,376 763.5,376 769.6,369.9 				"/>
			</g>
			<g>
				<polygon class="st4" points="717.2,403 717.2,390.8 711.1,396.9 				"/>
			</g>
		</g>
	</g>
	<path class="st2" d="M768.9,204.5v13.4c0,4.8-3.9,8.7-8.7,8.7h-164"/>
	<g>
		<g>
			<path class="st3" d="M162.4,621.7V451.5c0-22.1,17.9-40,40-40h134.6"/>
			<g>
				<polygon class="st4" points="156.3,620.9 168.5,620.9 162.4,627 				"/>
			</g>
			<g>
				<polygon class="st4" points="336.1,405.5 336.1,417.7 342.2,411.6 				"/>
			</g>
		</g>
	</g>
	<g>
		<g>
			<path class="st3" d="M427.1,481.3v47.5c0,12.3-9.3,22.2-20.9,22.2H215.9c-10.7,0-19.3,9.2-19.3,20.5v6.4"/>
			<g>
				<polygon class="st4" points="433.2,482.1 421.1,482.1 427.1,476 				"/>
			</g>
			<g>
				<polygon class="st4" points="202.7,577.1 190.6,577.1 196.6,583.2 				"/>
			</g>
		</g>
	</g>
	<g>
		<g>
			<path class="st5" d="M466.9,428.6v192.5c0,9.3-7.6,16.9-16.9,16.9H217.5"/>
			<g>
				<polygon class="st4" points="470,429 463.9,429 466.9,426 				"/>
			</g>
			<g>
				<polygon class="st4" points="217.9,641 217.9,635 214.9,638 				"/>
			</g>
		</g>
	</g>
	<g>
		<g>
			<line class="st3" x1="728.9" y1="604.6" x2="652.7" y2="604.6"/>
			<g>
				<polygon class="st4" points="728.1,610.7 728.1,598.5 734.1,604.6 				"/>
			</g>
			<g>
				<polygon class="st4" points="653.5,610.7 653.5,598.5 647.5,604.6 				"/>
			</g>
		</g>
	</g>
	<g>
		<g>
			<line class="st5" x1="722.3" y1="487.6" x2="722.3" y2="592"/>
			<g>
				<polygon class="st4" points="725.3,488 719.2,488 722.3,485 				"/>
			</g>
			<g>
				<polygon class="st4" points="725.3,591.6 719.2,591.6 722.3,594.7 				"/>
			</g>
		</g>
	</g>
	<path class="st1" d="M67.6,553.9V517c0-11.3,9.2-20.5,20.5-20.5h23.5v3.3"/>
	<path class="st2" d="M865,528h-36.9c-11.3,0-20.5-9.2-20.5-20.5V484"/>
	<g>
		<g>
			<line class="st5" x1="370.8" y1="142.6" x2="262.1" y2="142.6"/>
			<g>
				<polygon class="st4" points="370.4,145.6 370.4,139.6 373.5,142.6 				"/>
			</g>
		</g>
	</g>
	<g>
		<g>
			<path class="st3" d="M305.9,160.3h11.4c10,0,18,8.1,18,18v165.3c0,2.4,2,4.4,4.4,4.4h2.6"/>
			<g>
				<polygon class="st4" points="306.7,154.2 306.7,166.3 300.6,160.3 				"/>
			</g>
			<g>
				<polygon class="st4" points="341.5,341.9 341.5,354.1 347.5,348 				"/>
			</g>
		</g>
	</g>
	<g>
		<g>
			<path class="st5" d="M709.8,128H574.3c-5.2,0-9.3,4.2-9.3,9.3v12.6v3.1"/>
			<g>
				<polygon class="st4" points="709.4,131 709.4,125 712.5,128 				"/>
			</g>
		</g>
	</g>
	<g>
		<g>
			<path class="st5" d="M187.8,167.6v53c0,6,4.8,10.8,10.8,10.8h27.6c6,0,10.9,4.9,10.9,10.9V266"/>
			<g>
				<polygon class="st4" points="190.9,168 184.8,168 187.8,165 				"/>
			</g>
			<g>
				<polygon class="st4" points="240.1,265.6 234.1,265.6 237.1,268.6 				"/>
			</g>
		</g>
	</g>
	<g>
		<g>
			<line class="st3" x1="689.4" y1="455.6" x2="555.4" y2="455.6"/>
			<g>
				<polygon class="st4" points="688.6,461.6 688.6,449.5 694.6,455.6 				"/>
			</g>
			<g>
				<polygon class="st4" points="556.2,461.6 556.2,449.5 550.1,455.6 				"/>
			</g>
		</g>
	</g>
	<g>
		<g>
			<path class="st3" d="M154.9,142.5H91.6c-10.5,0-19,8.5-19,19v32.6"/>
			<g>
				<polygon class="st4" points="154.1,148.6 154.1,136.4 160.1,142.5 				"/>
			</g>
			<g>
				<polygon class="st4" points="78.7,193.3 66.6,193.3 72.6,199.3 				"/>
			</g>
		</g>
	</g>
	<circle class="st6" cx="519.5" cy="200.6" r="2.1"/>
	<path class="st5" d="M309.8,562.1c0-25.9,21-46.9,46.9-46.9s46.9,21,46.9,46.9c0,25.9-21,46.9-46.9,46.9"/>
	<path class="st5" d="M226,277.4c33.8-10.9,70.1,7.7,81,41.5s-7.7,70.1-41.5,81s-70.1-7.7-81-41.5"/>
	<path class="st5" d="M502.9,233.7c-10.4-32.4,7.3-67,39.7-77.5s67,7.3,77.5,39.7s-7.3,67-39.7,77.5"/>
	<path class="st5" d="M649.6,572.2c0,35.3-28.6,63.9-63.9,63.9c-35.3,0-63.9-28.6-63.9-63.9c0-35.3,28.6-63.9,63.9-63.9"/>
	<path class="st5" d="M658.9,422.7c-24.2,0-43.8-19.6-43.8-43.8s19.6-43.8,43.8-43.8c24.2,0,43.8,19.6,43.8,43.8"/>
	<line class="st1" x1="587.5" y1="376" x2="614.6" y2="376"/>
	<line class="st1" x1="379.6" y1="471.7" x2="379.6" y2="521.1"/>
	<circle class="st5" cx="583.9" cy="376" r="3.5"/>
	<circle class="st5" cx="484.6" cy="293.7" r="3.5"/>
	<circle class="st5" cx="349.5" cy="373" r="3.5"/>
	<circle class="st5" cx="379.6" cy="468.2" r="3.5"/>
	<circle class="st7" cx="615.3" cy="376.2" r="1.8"/>
	<circle class="st7" cx="657.3" cy="334.9" r="1.8"/>
	<circle class="st7" cx="300.7" cy="372.9" r="1.8"/>
	<circle class="st7" cx="501.3" cy="201.1" r="1.8"/>
	<circle class="st7" cx="379.4" cy="520.9" r="1.8"/>
	<circle class="st7" cx="521.8" cy="574.5" r="1.8"/>
</g>
<path class="st8" d="M933.7,353c-0.5-21.1-17.8-38-39-38c-12.3,0-23.3,5.7-30.4,14.6c-2.9-5.4-8.6-9-15.1-9c-8.1,0-14.8,5.6-16.6,13
	c-2.5-1-5.3-1.6-8.3-1.6c-4.4,0-8.6,1.3-12,3.6c-5-4.9-11.8-8-19.4-8c-11.6,0-21.4,7.2-25.5,17.3c-2.4-2.6-5.8-4.1-9.6-4.1
	c-7,0-12.7,5.4-13.2,12.3H933.7z"/>
<path class="st8" d="M42.7,434.7c0.4-17.9,15.1-32.2,33-32.2c10.4,0,19.7,4.8,25.8,12.4c2.5-4.5,7.3-7.6,12.8-7.6
	c6.8,0,12.5,4.7,14.1,11.1c2.2-0.9,4.5-1.4,7-1.4c3.8,0,7.3,1.1,10.2,3c4.2-4.2,10-6.8,16.4-6.8c9.8,0,18.2,6.1,21.6,14.6
	c2-2.2,4.9-3.5,8.2-3.5c5.9,0,10.8,4.6,11.2,10.4H42.7z"/>
<path class="st8" d="M471.2,105.9c0.4-16.1,13.5-29,29.7-29c9.4,0,17.7,4.3,23.2,11.1c2.2-4.1,6.5-6.9,11.5-6.9
	c6.1,0,11.3,4.2,12.7,9.9c1.9-0.8,4.1-1.2,6.3-1.2c3.4,0,6.5,1,9.2,2.7c3.8-3.8,9-6.1,14.7-6.1c8.8,0,16.3,5.5,19.4,13.2
	c1.8-1.9,4.4-3.2,7.3-3.2c5.3,0,9.7,4.1,10.1,9.4H471.2z"/>
<path class="st8" d="M221.9,724.2c0.3-12.5,10.5-22.5,23.1-22.5c7.3,0,13.8,3.4,18,8.7c1.7-3.2,5.1-5.3,8.9-5.3
	c4.8,0,8.8,3.3,9.9,7.7c1.5-0.6,3.2-1,4.9-1c2.6,0,5.1,0.8,7.1,2.1c2.9-2.9,7-4.7,11.5-4.7c6.8,0,12.7,4.2,15.1,10.2
	c1.4-1.5,3.5-2.5,5.7-2.5c4.1,0,7.5,3.2,7.8,7.3H221.9z"/>
<circle class="st9" cx="649.6" cy="500.6" r="2.1"/>
<circle class="st9" cx="725.1" cy="343.1" r="2.1"/>
<circle class="st0" cx="904.1" cy="184" r="2.1"/>
<circle class="st9" cx="237.8" cy="476.3" r="2.1"/>
<circle class="st9" cx="656.2" cy="178.5" r="2.2"/>
<circle class="st0" cx="168.2" cy="228.1" r="4"/>
<circle class="st9" cx="370.1" cy="206" r="4"/>
<circle class="st10" cx="100.8" cy="537.3" r="4"/>
<circle class="st9" cx="855.1" cy="208.8" r="5.2"/>
<g>
	<path class="st11" d="M32.8,475.3h-7.3c-0.6,0-1-0.4-1-1s0.4-1,1-1h7.3c0.6,0,1,0.4,1,1S33.3,475.3,32.8,475.3z"/>
	<path class="st11" d="M29.1,479c-0.6,0-1-0.4-1-1v-7.3c0-0.6,0.4-1,1-1s1,0.4,1,1v7.3C30.1,478.6,29.7,479,29.1,479z"/>
</g>
<g>
	<path class="st11" d="M796.8,379.7h-7.3c-0.6,0-1-0.4-1-1s0.4-1,1-1h7.3c0.6,0,1,0.4,1,1S797.4,379.7,796.8,379.7z"/>
	<path class="st11" d="M793.2,383.4c-0.6,0-1-0.4-1-1V375c0-0.6,0.4-1,1-1s1,0.4,1,1v7.3C794.2,382.9,793.7,383.4,793.2,383.4z"/>
</g>
<g>
	<path class="st11" d="M610.8,489.3h-7.3c-0.6,0-1-0.4-1-1s0.4-1,1-1h7.3c0.6,0,1,0.4,1,1S611.3,489.3,610.8,489.3z"/>
	<path class="st11" d="M607.1,493c-0.6,0-1-0.4-1-1v-7.3c0-0.6,0.4-1,1-1s1,0.4,1,1v7.3C608.1,492.6,607.7,493,607.1,493z"/>
</g>
<g>
	<path class="st11" d="M304.8,449.7h-7.3c-0.6,0-1-0.4-1-1s0.4-1,1-1h7.3c0.6,0,1,0.4,1,1S305.3,449.7,304.8,449.7z"/>
	<path class="st11" d="M301.1,453.3c-0.6,0-1-0.4-1-1V445c0-0.6,0.4-1,1-1s1,0.4,1,1v7.3C302.1,452.9,301.7,453.3,301.1,453.3z"/>
</g>
<g>
	<path class="st11" d="M179.3,301.6h-7.3c-0.6,0-1-0.4-1-1s0.4-1,1-1h7.3c0.6,0,1,0.4,1,1S179.8,301.6,179.3,301.6z"/>
	<path class="st11" d="M175.6,305.3c-0.6,0-1-0.4-1-1v-7.3c0-0.6,0.4-1,1-1s1,0.4,1,1v7.3C176.6,304.8,176.2,305.3,175.6,305.3z"/>
</g>
<g>
	<path class="st11" d="M111.8,111.3h-7.3c-0.6,0-1-0.4-1-1s0.4-1,1-1h7.3c0.6,0,1,0.4,1,1S112.3,111.3,111.8,111.3z"/>
	<path class="st11" d="M108.1,115c-0.6,0-1-0.4-1-1v-7.3c0-0.6,0.4-1,1-1s1,0.4,1,1v7.3C109.1,114.6,108.7,115,108.1,115z"/>
</g>
<path class="st12" d="M677.7,268h-6.3l-3.1-5.4l3.1-5.4h6.3l3.1,5.4L677.7,268z M672.3,266.5h4.5l2.3-3.9l-2.3-3.9h-4.5l-2.3,3.9
	L672.3,266.5z"/>
<path class="st12" d="M338.1,667h-6.3l-3.1-5.4l3.1-5.4h6.3l3.1,5.4L338.1,667z M332.7,665.5h4.5l2.3-3.9l-2.3-3.9h-4.5l-2.3,3.9
	L332.7,665.5z"/>
<path class="st12" d="M201,458.3h-6.3l-3.1-5.4l3.1-5.4h6.3l3.1,5.4L201,458.3z M195.6,456.8h4.5l2.3-3.9l-2.3-3.9h-4.5l-2.3,3.9
	L195.6,456.8z"/>
<path class="st12" d="M318.9,298.5h-6.3l-3.1-5.4l3.1-5.4h6.3l3.1,5.4L318.9,298.5z M313.5,297h4.5l2.3-3.9l-2.3-3.9h-4.5l-2.3,3.9
	L313.5,297z"/>
<path class="st12" d="M517.5,164.5h-6.3l-3.1-5.4l3.1-5.4h6.3l3.1,5.4L517.5,164.5z M512.1,163h4.5l2.3-3.9l-2.3-3.9h-4.5l-2.3,3.9
	L512.1,163z"/>
<circle class="st13" cx="453.2" cy="701.7" r="5.2"/>
<circle class="st14" cx="867.1" cy="504.5" r="3.5"/>
<g>
	<path class="st13" d="M484,121.6c-6.6,8.8-19.1,10.6-27.9,4c-8.8-6.6-10.6-19.1-4-27.9c6.6-8.8,19.1-10.6,27.9-4
		C488.8,100.3,490.6,112.8,484,121.6z"/>
</g>
<g>
	<path class="st15" d="M246.1,522.7H126.6c-2.6,0-4.7-2.1-4.7-4.7l0,0c0-2.6,2.1-4.7,4.7-4.7h119.5c2.6,0,4.7,2.1,4.7,4.7l0,0
		C250.8,520.6,248.7,522.7,246.1,522.7z"/>
	<path class="st16" d="M246.1,522.6H126.6c-2.6,0-4.7-2.1-4.7-4.7v0c0-2.6,2.1-4.7,4.7-4.7h119.5c2.6,0,4.7,2.1,4.7,4.7v0
		C250.8,520.5,248.7,522.6,246.1,522.6z"/>
	<circle class="st17" cx="294" cy="518" r="7.1"/>
	<g>
		<circle class="st16" cx="270.7" cy="518" r="7.1"/>
		<polyline class="st18" points="267.2,518.4 269.4,520.6 274.5,515.6 		"/>
	</g>
	<circle class="st19" cx="294" cy="518" r="7.1"/>
	<line class="st18" x1="291.1" y1="515.1" x2="296.8" y2="520.8"/>
	<line class="st18" x1="296.8" y1="515.1" x2="291.1" y2="520.8"/>
</g>
<g>
	<path class="st15" d="M378.5,255.7H258.9c-2.6,0-4.7-2.1-4.7-4.7l0,0c0-2.6,2.1-4.7,4.7-4.7h119.5c2.6,0,4.7,2.1,4.7,4.7l0,0
		C383.2,253.6,381.1,255.7,378.5,255.7z"/>
	<path class="st16" d="M378.5,255.6H258.9c-2.6,0-4.7-2.1-4.7-4.7l0,0c0-2.6,2.1-4.7,4.7-4.7h119.5c2.6,0,4.7,2.1,4.7,4.7l0,0
		C383.2,253.5,381.1,255.6,378.5,255.6z"/>
	<circle class="st20" cx="403" cy="251" r="7.1"/>
	<g>
		<circle class="st16" cx="403" cy="251" r="7.1"/>
		<polyline class="st18" points="399.5,251.4 401.8,253.6 406.8,248.6 		"/>
	</g>
	<circle class="st16" cx="426.3" cy="251" r="7.1"/>
	<line class="st18" x1="423.4" y1="248.1" x2="429.2" y2="253.8"/>
	<line class="st18" x1="429.2" y1="248.1" x2="423.4" y2="253.8"/>
</g>
<g>
	<path class="st15" d="M605.5,676.7H485.9c-2.6,0-4.7-2.1-4.7-4.7l0,0c0-2.6,2.1-4.7,4.7-4.7h119.5c2.6,0,4.7,2.1,4.7,4.7l0,0
		C610.2,674.6,608.1,676.7,605.5,676.7z"/>
	<path class="st16" d="M605.5,676.6H485.9c-2.6,0-4.7-2.1-4.7-4.7v0c0-2.6,2.1-4.7,4.7-4.7h119.5c2.6,0,4.7,2.1,4.7,4.7v0
		C610.2,674.5,608.1,676.6,605.5,676.6z"/>
	<circle class="st20" cx="630" cy="672" r="7.1"/>
	<g>
		<circle class="st16" cx="630" cy="672" r="7.1"/>
		<polyline class="st18" points="626.5,672.4 628.8,674.6 633.8,669.6 		"/>
	</g>
	<circle class="st16" cx="653.3" cy="672" r="7.1"/>
	<line class="st18" x1="650.4" y1="669.1" x2="656.2" y2="674.8"/>
	<line class="st18" x1="656.2" y1="669.1" x2="650.4" y2="674.8"/>
</g>
<g>
	<path class="st15" d="M824.5,293.7H704.9c-2.6,0-4.7-2.1-4.7-4.7v0c0-2.6,2.1-4.7,4.7-4.7h119.5c2.6,0,4.7,2.1,4.7,4.7v0
		C829.2,291.6,827.1,293.7,824.5,293.7z"/>
	<path class="st16" d="M824.5,293.6H704.9c-2.6,0-4.7-2.1-4.7-4.7l0,0c0-2.6,2.1-4.7,4.7-4.7h119.5c2.6,0,4.7,2.1,4.7,4.7l0,0
		C829.2,291.5,827.1,293.6,824.5,293.6z"/>
	<circle class="st0" cx="872.4" cy="289" r="7.1"/>
	<g>
		<circle class="st16" cx="849" cy="289" r="7.1"/>
		<polyline class="st18" points="845.5,289.4 847.8,291.6 852.8,286.6 		"/>
	</g>
	<circle class="st16" cx="872.3" cy="289" r="7.1"/>
	<line class="st18" x1="869.4" y1="286.1" x2="875.2" y2="291.8"/>
	<line class="st18" x1="875.2" y1="286.1" x2="869.4" y2="291.8"/>
</g>
<g>
	<path class="st13" d="M410.7,659.3c-11.8,0-21.4-9.6-21.4-21.4c0-11.8,9.6-21.4,21.4-21.4c11.8,0,21.4,9.6,21.4,21.4
		C432,649.8,422.5,659.3,410.7,659.3z"/>
	<g>
		<defs>
			<path id="SVGID_1_" d="M410.7,659.3c-11.8,0-21.4-9.6-21.4-21.4c0-11.8,9.6-21.4,21.4-21.4c11.8,0,21.4,9.6,21.4,21.4
				C432,649.8,422.5,659.3,410.7,659.3z"/>
		</defs>
		<clipPath id="SVGID_2_">
			<use xlink:href="#SVGID_1_"  style="overflow:visible;"/>
		</clipPath>
		<g class="st21">
			<g>
				<path class="st22" d="M426.4,651.5c-3.6-1.7-7.4-2.8-11.4-3.3c0.1-0.9,0.3-1.9,0.4-2.8c0.9-0.6,1.5-1.4,1.6-2.1
					c0.1-0.9,0.2-1.7,0.3-2.6c0.1,0.1,0.3,0.2,0.5,0.2c0.4,0,0.8-0.3,0.8-0.7l0.4-4c0-0.4-0.3-0.8-0.7-0.8c-0.2,0-0.3,0-0.4,0.1
					c0.1-0.8,0.2-1.5,0.3-2.3c0.1-1,0.6-3.8-1.4-5.6c-2.9-2.8-9.3-2.8-12.2,0c-2,1.8-1.5,4.6-1.4,5.6c0.1,0.8,0.2,1.5,0.3,2.3
					c-0.1-0.1-0.3-0.1-0.4-0.1c-0.4,0-0.7,0.4-0.7,0.8l0.4,4c0,0.4,0.4,0.7,0.8,0.7c0.2,0,0.3-0.1,0.5-0.2c0.1,0.9,0.2,1.7,0.3,2.6
					c0,0.7,0.7,1.5,1.5,2.1c0.1,0.9,0.3,1.9,0.4,2.8c-3.9,0.5-7.8,1.5-11.4,3.3c-1.2,0.6-2,2.2-1.9,3.4c0.1,1.4,0.3,2.8,0.4,4.2
					c0.1,1.2,1.2,2.4,2.3,2.7c9.8,1.6,19.8,1.6,29.7,0c1.2-0.2,2.2-1.4,2.3-2.7c0.1-1.4,0.3-2.8,0.4-4.2
					C428.4,653.7,427.6,652.1,426.4,651.5z"/>
			</g>
		</g>
		<use xlink:href="#SVGID_1_"  style="overflow:visible;fill:none;stroke:#000000;stroke-linejoin:bevel;stroke-miterlimit:10;"/>
	</g>
</g>
<circle class="st9" cx="356.7" cy="562.1" r="38.2"/>
<circle class="st13" cx="245.8" cy="338.7" r="55.9"/>
<circle class="st23" cx="561.4" cy="214.8" r="54"/>
<circle class="st14" cx="585.7" cy="572.2" r="54.9"/>
<g>
	<line class="st24" x1="206.6" y1="326" x2="291.1" y2="326"/>
	<circle class="st24" cx="219.5" cy="316.8" r="1.8"/>
	<circle class="st24" cx="230.5" cy="316.8" r="1.8"/>
	<circle class="st24" cx="241.5" cy="316.8" r="1.8"/>
	<rect x="217.6" y="337" class="st24" width="3.7" height="3.7"/>
	<rect x="217.6" y="348" class="st24" width="3.7" height="3.7"/>
	<rect x="217.6" y="359" class="st24" width="3.7" height="3.7"/>
	<rect x="232.3" y="337" class="st24" width="3.7" height="3.7"/>
	<rect x="232.3" y="348" class="st24" width="3.7" height="3.7"/>
	<rect x="232.3" y="359" class="st24" width="3.7" height="3.7"/>
	<rect x="247" y="337" class="st24" width="3.7" height="3.7"/>
	<rect x="247" y="348" class="st24" width="3.7" height="3.7"/>
	<rect x="247" y="359" class="st24" width="3.7" height="3.7"/>
	<rect x="261.7" y="337" class="st24" width="3.7" height="3.7"/>
	<rect x="261.7" y="348" class="st24" width="3.7" height="3.7"/>
	<rect x="261.7" y="359" class="st24" width="3.7" height="3.7"/>
	<rect x="276.4" y="337" class="st24" width="3.7" height="3.7"/>
	<rect x="276.4" y="348" class="st24" width="3.7" height="3.7"/>
	<rect x="276.4" y="359" class="st24" width="3.7" height="3.7"/>
</g>
<g>
	<line class="st25" x1="539.1" y1="550" x2="630.5" y2="550"/>
	<rect x="590.7" y="561.9" class="st25" width="27.8" height="19.9"/>
	<rect x="590.7" y="589.7" class="st25" width="27.8" height="19.9"/>
	<rect x="551" y="561.9" class="st25" width="27.8" height="31.8"/>
	<circle class="st25" cx="564.9" cy="575.8" r="6"/>
	<path class="st25" d="M574.8,593.7H555c0-6.6,4.4-11.9,9.9-11.9S574.8,587.1,574.8,593.7z"/>
	<line class="st25" x1="553" y1="601.6" x2="568.9" y2="601.6"/>
	<line class="st25" x1="553" y1="609.6" x2="568.9" y2="609.6"/>
	<circle class="st25" cx="553" cy="540" r="2"/>
	<circle class="st25" cx="564.9" cy="540" r="2"/>
	<circle class="st25" cx="576.8" cy="540" r="2"/>
</g>
<g>
	<line class="st26" x1="332.9" y1="549.9" x2="378.5" y2="549.9"/>
	<circle class="st26" cx="339.8" cy="544.9" r="1"/>
	<circle class="st26" cx="345.8" cy="544.9" r="1"/>
	<circle class="st26" cx="351.7" cy="544.9" r="1"/>
	<line class="st26" x1="368.5" y1="555.8" x2="348.7" y2="555.8"/>
	<line class="st26" x1="340.8" y1="555.8" x2="342.8" y2="555.8"/>
	<line class="st26" x1="356.7" y1="561.8" x2="348.7" y2="561.8"/>
	<line class="st26" x1="340.8" y1="561.8" x2="342.8" y2="561.8"/>
	<line class="st26" x1="356.7" y1="567.7" x2="348.7" y2="567.7"/>
	<line class="st26" x1="340.8" y1="567.7" x2="342.8" y2="567.7"/>
	<path class="st26" d="M378.5,581.6c0-4.9-4-8.9-8.9-8.9c-4.9,0-8.9,4-8.9,8.9H378.5z"/>
	<circle class="st26" cx="369.5" cy="567.2" r="5.4"/>
</g>
<circle class="st27" cx="658.9" cy="378.8" r="35.2"/>
<g>
	<line class="st28" x1="637.6" y1="364" x2="685.7" y2="364"/>
	<circle class="st28" cx="645" cy="358.8" r="1"/>
	<circle class="st28" cx="651.2" cy="358.8" r="1"/>
	<circle class="st28" cx="657.5" cy="358.8" r="1"/>
	<line class="st28" x1="654.4" y1="364" x2="654.4" y2="400.3"/>
	<rect x="660.6" y="368.2" class="st28" width="18.8" height="10.5"/>
	<rect x="660.6" y="384.9" class="st28" width="18.8" height="10.5"/>
	<line class="st28" x1="641.9" y1="368.2" x2="646" y2="368.2"/>
	<line class="st28" x1="646" y1="372.4" x2="650.2" y2="372.4"/>
	<line class="st28" x1="646" y1="376.5" x2="650.2" y2="376.5"/>
	<line class="st28" x1="646" y1="380.7" x2="650.2" y2="380.7"/>
	<line class="st28" x1="641.9" y1="384.9" x2="646" y2="384.9"/>
	<line class="st28" x1="646" y1="389.1" x2="650.2" y2="389.1"/>
	<line class="st28" x1="646" y1="393.3" x2="650.2" y2="393.3"/>
</g>
<g>
	<g>
		<g>
			<line class="st25" x1="530.5" y1="193.9" x2="594.3" y2="193.9"/>
			<circle class="st25" cx="540.2" cy="187" r="1.4"/>
			<circle class="st25" cx="548.5" cy="187" r="1.4"/>
			<circle class="st25" cx="556.8" cy="187" r="1.4"/>
		</g>
		<rect x="538.8" y="205" class="st25" width="27.8" height="11.1"/>
		<circle class="st25" cx="545.7" cy="210.6" r="1.4"/>
		<circle class="st25" cx="554.1" cy="210.6" r="1.4"/>
		<polyline class="st25" points="572.1,209.2 577.7,214.8 587.4,205 		"/>
	</g>
	<rect x="538.6" y="225.4" class="st25" width="8.3" height="5.6"/>
	<rect x="538.6" y="239.3" class="st25" width="8.3" height="5.6"/>
	<line class="st25" x1="555.3" y1="228.2" x2="585.8" y2="228.2"/>
	<line class="st25" x1="555.3" y1="242.1" x2="585.8" y2="242.1"/>
</g>
<g>
	<path class="st9" d="M727.6,179.2c-13.4,0-24.2-10.9-24.2-24.2c0-11.7,8.3-21.6,19.7-23.8c0.8-20.5,17.7-36.9,38.4-36.9
		c18.3,0,34.1,13.1,37.7,30.9c1.7-0.3,3.4-0.5,5-0.5c14.8,0,26.8,12,26.8,26.8c0,0.4,0,0.7,0,1.1c6.2,1.2,10.8,6.6,10.8,13.1
		c0,7.1-5.6,13-12.7,13.4l0,0H727.6z"/>
	<path class="st12" d="M767,124.8L767,124.8c-10.9,0-19.7,8.8-19.7,19.7v14.1l39.4-0.3v-13.8C786.7,133.6,777.9,124.8,767,124.8z
		 M777.8,155.4l-21.6,0v-10c0-6,4.8-10.8,10.8-10.8c6,0,10.8,4.8,10.8,10.8V155.4z"/>
	<g>
		<path class="st27" d="M737.8,206.4v-47.5c0-2,1.6-3.6,3.6-3.6h51.3c2,0,3.6,1.6,3.6,3.6v47.5c0,2-1.6,3.6-3.6,3.6h-51.3
			C739.4,210,737.8,208.4,737.8,206.4z"/>
	</g>
	<g class="st29">
		<path d="M767,171.2c-2.7,0-4.8,2.2-4.8,4.8c0,1.8,0.9,3.3,2.4,4.1l-1.1,11.9h3.6h3.6l-1.1-11.9c1.4-0.8,2.4-2.4,2.4-4.1
			C771.8,173.3,769.7,171.2,767,171.2L767,171.2z"/>
	</g>
	<g>
		<g>
			<g>
				<path class="st16" d="M737.4,179.3h-9.8c-13.4,0-24.2-10.9-24.2-24.2c0-11.7,8.3-21.6,19.7-23.8c0.8-20.5,17.7-36.9,38.4-36.9
					c18.3,0,34.1,13.1,37.7,30.9c1.7-0.3,3.4-0.5,5-0.5c14.8,0,26.8,12,26.8,26.8c0,0.4,0,0.7,0,1.1c6.2,1.2,10.8,6.6,10.8,13.1
					c0,7.1-5.6,13-12.7,13.4l0,0H796"/>
			</g>
		</g>
		<g>
			<path class="st16" d="M747.3,155.4v-10.8c0-10.9,8.8-19.7,19.7-19.7h0c10.9,0,19.7,8.8,19.7,19.7v10.5"/>
		</g>
		<g>
			<path class="st16" d="M756.2,155.3v-9.8c0-6,4.8-10.8,10.8-10.8h0c6,0,10.8,4.8,10.8,10.8v5.7v4.3"/>
		</g>
		<path class="st16" d="M737.8,206.8v-48.3c0-1.8,1.4-3.2,3.2-3.2h52.1c1.8,0,3.2,1.4,3.2,3.2v48.3c0,1.8-1.4,3.2-3.2,3.2H741
			C739.2,210,737.8,208.6,737.8,206.8z"/>
		<g>
			<path class="st16" d="M767,171c-2.7,0-4.8,2.2-4.8,4.8c0,1.8,0.9,3.3,2.4,4.1l-1.1,11.9h3.6h3.6l-1.1-11.9
				c1.4-0.8,2.4-2.4,2.4-4.1C771.8,173.2,769.7,171,767,171L767,171z"/>
		</g>
	</g>
	<g>
		<line class="st16" x1="791.7" y1="162.1" x2="793.1" y2="162.1"/>
		<line class="st16" x1="783.4" y1="162.1" x2="788.7" y2="162.1"/>
		<line class="st16" x1="737.9" y1="162.1" x2="779.9" y2="162.1"/>
	</g>
	<g>
		<line class="st16" x1="742.8" y1="201" x2="741.4" y2="201"/>
		<line class="st16" x1="751.1" y1="201" x2="745.8" y2="201"/>
		<line class="st16" x1="796.5" y1="201" x2="754.6" y2="201"/>
	</g>
</g>
<g>
	<path class="st30" d="M101.7,670.9c-2.7,0-4.9-2.3-4.9-5.1v-74.7c0-2.8,2.2-5.1,4.9-5.1h104.4c2.7,0,4.9,2.3,4.9,5.1v74.7
		c0,2.8-2.2,5.1-4.9,5.1H101.7z"/>
	<path class="st31" d="M225.6,680.1h-144c-2.1,0-3.9-1.7-3.9-3.9v-5.1h151.7v5.1C229.5,678.4,227.8,680.1,225.6,680.1z"/>
	<path class="st18" d="M225.6,680h-144c-2.1,0-3.9-1.7-3.9-3.9V671h151.7v5.1C229.5,678.2,227.8,680,225.6,680z"/>
	<rect x="103.6" y="592.8" class="st32" width="100.6" height="71.3"/>
	<g>
		<polyline class="st33" points="121.2,632.7 143,612.8 164.8,623.7 186.6,605 		"/>
		<g>
			<circle class="st34" cx="143" cy="612.8" r="3.9"/>
			<g>
				<rect x="136.1" y="626.1" class="st14" width="13.5" height="37.9"/>
				<rect x="136.3" y="626.1" class="st33" width="13.5" height="37.9"/>
			</g>
		</g>
		<g>
			<circle class="st34" cx="164.8" cy="623.7" r="3.9"/>
			<g>
				<rect x="157.9" y="634" class="st27" width="13.5" height="30.1"/>
				<rect x="158.1" y="634" class="st33" width="13.5" height="30.1"/>
			</g>
		</g>
		<g>
			<circle class="st34" cx="186.6" cy="605" r="3.9"/>
			<g>
				<rect x="179.7" y="616.8" class="st13" width="13.5" height="47.2"/>
				<rect x="179.9" y="616.8" class="st33" width="13.5" height="47.2"/>
			</g>
		</g>
		<g>
			<circle class="st34" cx="121.2" cy="632.7" r="3.9"/>
			<g>
				<rect x="114.3" y="643.9" class="st11" width="13.5" height="20.2"/>
				<rect x="114.5" y="643.9" class="st33" width="13.5" height="20.2"/>
			</g>
		</g>
	</g>
</g>
<g>
	<g>
		<path class="st35" d="M812.3,569.6H690v-7c0-2.2,1.8-3.9,3.9-3.9h114.4c2.2,0,3.9,1.8,3.9,3.9V569.6z"/>
		<path class="st9" d="M808.5,652.4H694.1c-2.2,0-3.9-1.7-3.9-3.9v-78.8h122.1v79C812.3,650.7,810.6,652.4,808.5,652.4z"/>
		<path class="st16" d="M808.4,652.4H693.9c-2.1,0-3.9-1.7-3.9-3.9v-85.9c0-2.1,1.7-3.9,3.9-3.9h114.5c2.1,0,3.9,1.7,3.9,3.9v85.9
			C812.3,650.6,810.5,652.4,808.4,652.4z"/>
		<line class="st16" x1="689.8" y1="569.6" x2="812.1" y2="569.6"/>
		<circle class="st16" cx="696.6" cy="563.8" r="1.5"/>
		<circle class="st16" cx="702.3" cy="563.8" r="1.5"/>
		<circle class="st16" cx="708" cy="563.8" r="1.5"/>
	</g>
	<g>
		<path class="st11" d="M798.4,629.1c0,26-21.1,47-47,47c-26,0-47-21.1-47-47c0-26,21.1-47,47-47
			C777.3,582.1,798.4,603.1,798.4,629.1z"/>
		<g>
			<path class="st16" d="M798.1,628.9c0,25.9-21,47-47,47c-26,0-47-21-47-47c0-25.9,21-47,47-47C777,581.9,798.1,602.9,798.1,628.9z
				"/>
			<path class="st16" d="M778.2,628.9c0,25.9-12.2,47-27.2,47c-15,0-27.2-21-27.2-47c0-25.9,12.2-47,27.2-47
				C766.1,581.9,778.2,602.9,778.2,628.9z"/>
			<path class="st16" d="M751.1,675.8c25.9,0,47-21,47-47c0-25.9-21-47-47-47V675.8z"/>
			<line class="st16" x1="798.1" y1="628.8" x2="704.1" y2="628.8"/>
			<line class="st16" x1="710.1" y1="605.2" x2="791.8" y2="605.2"/>
			<line class="st16" x1="710.1" y1="652.4" x2="791.8" y2="652.4"/>
		</g>
	</g>
</g>
<g>
	<path class="st9" d="M721,476.9c-11.8,0-21.4-9.6-21.4-21.4c0-11.8,9.6-21.4,21.4-21.4c11.8,0,21.4,9.6,21.4,21.4
		C742.3,467.4,732.8,476.9,721,476.9z"/>
	<g>
		<defs>
			<path id="SVGID_3_" d="M721,476.9c-11.8,0-21.4-9.6-21.4-21.4c0-11.8,9.6-21.4,21.4-21.4c11.8,0,21.4,9.6,21.4,21.4
				C742.3,467.4,732.8,476.9,721,476.9z"/>
		</defs>
		<clipPath id="SVGID_4_">
			<use xlink:href="#SVGID_3_"  style="overflow:visible;"/>
		</clipPath>
		<g class="st36">
			<g>
				<path class="st22" d="M736.7,469.1c-3.6-1.7-7.4-2.8-11.4-3.3c0.1-0.9,0.3-1.9,0.4-2.8c0.9-0.6,1.5-1.4,1.6-2.1
					c0.1-0.9,0.2-1.7,0.3-2.6c0.1,0.1,0.3,0.2,0.5,0.2c0.4,0,0.8-0.3,0.8-0.7l0.4-4c0-0.4-0.3-0.8-0.7-0.8c-0.2,0-0.3,0-0.4,0.1
					c0.1-0.8,0.2-1.5,0.3-2.3c0.1-1,0.6-3.8-1.4-5.6c-2.9-2.8-9.3-2.8-12.2,0c-2,1.8-1.5,4.6-1.4,5.6c0.1,0.8,0.2,1.5,0.3,2.3
					c-0.1-0.1-0.3-0.1-0.4-0.1c-0.4,0-0.7,0.4-0.7,0.8l0.4,4c0,0.4,0.4,0.7,0.8,0.7c0.2,0,0.3-0.1,0.5-0.2c0.1,0.9,0.2,1.7,0.3,2.6
					c0,0.7,0.7,1.5,1.5,2.1c0.1,0.9,0.3,1.9,0.4,2.8c-3.9,0.5-7.8,1.5-11.4,3.3c-1.2,0.6-2,2.2-1.9,3.4c0.1,1.4,0.3,2.8,0.4,4.2
					c0.1,1.2,1.2,2.4,2.3,2.7c9.8,1.6,19.9,1.6,29.7,0c1.2-0.2,2.2-1.4,2.3-2.7c0.1-1.4,0.3-2.8,0.4-4.2
					C738.7,471.3,737.9,469.7,736.7,469.1z"/>
			</g>
		</g>
		<use xlink:href="#SVGID_3_"  style="overflow:visible;fill:none;stroke:#000000;stroke-linejoin:bevel;stroke-miterlimit:10;"/>
	</g>
</g>
<g>
	<path class="st27" d="M71.7,276c-19.2,0-34.8-15.6-34.8-34.8c0-19.2,15.6-34.8,34.8-34.8c19.2,0,34.8,15.6,34.8,34.8
		C106.6,260.4,91,276,71.7,276z"/>
	<g>
		<defs>
			<path id="SVGID_5_" d="M71.7,276c-19.2,0-34.8-15.6-34.8-34.8c0-19.2,15.6-34.8,34.8-34.8c19.2,0,34.8,15.6,34.8,34.8
				C106.6,260.4,91,276,71.7,276z"/>
		</defs>
		<clipPath id="SVGID_6_">
			<use xlink:href="#SVGID_5_"  style="overflow:visible;"/>
		</clipPath>
		<g class="st37">
			<g>
				<path class="st22" d="M97.4,263.3c-5.9-2.8-12.1-4.6-18.5-5.3c0.2-1.5,0.4-3,0.6-4.6c1.4-0.9,2.5-2.3,2.5-3.4
					c0.2-1.4,0.3-2.8,0.5-4.2c0.2,0.2,0.5,0.4,0.8,0.4c0.7,0.1,1.3-0.4,1.3-1.1l0.7-6.5c0.1-0.7-0.4-1.3-1.1-1.3
					c-0.2,0-0.5,0-0.7,0.1c0.1-1.2,0.3-2.5,0.4-3.7c0.1-1.7,1-6.2-2.3-9.1c-4.7-4.6-15.1-4.6-19.8,0c-3.3,2.9-2.4,7.4-2.3,9.1
					c0.2,1.2,0.3,2.5,0.4,3.7c-0.2-0.1-0.5-0.2-0.7-0.1c-0.7,0.1-1.2,0.7-1.1,1.3l0.7,6.5c0.1,0.7,0.7,1.2,1.3,1.1
					c0.3,0,0.6-0.2,0.8-0.4c0.2,1.4,0.3,2.8,0.5,4.2c0.1,1.1,1.1,2.5,2.5,3.4c0.2,1.5,0.4,3,0.6,4.6c-6.4,0.7-12.7,2.5-18.5,5.3
					c-1.9,1-3.2,3.6-3,5.6c0.2,2.3,0.4,4.6,0.7,6.8c0.2,2,1.9,4,3.8,4.3c16.1,2.6,32.4,2.6,48.4,0c1.9-0.4,3.6-2.3,3.8-4.3
					c0.2-2.3,0.5-4.6,0.7-6.8C100.6,266.8,99.3,264.3,97.4,263.3z"/>
			</g>
		</g>
		<use xlink:href="#SVGID_5_"  style="overflow:visible;fill:none;stroke:#000000;stroke-linejoin:bevel;stroke-miterlimit:10;"/>
	</g>
</g>
<g>
	<polyline class="st16" points="462.4,114.4 459.1,111.8 455.7,109.1 459.1,106.5 462.4,103.9 	"/>
	<polyline class="st16" points="473.7,114.4 477.1,111.8 480.4,109.1 477.1,106.5 473.7,103.9 	"/>
	<line class="st16" x1="470.7" y1="100.9" x2="465.9" y2="117.4"/>
</g>
<g>
	<path class="st16" d="M484,121.6c-6.6,8.8-19.1,10.6-27.9,4c-8.8-6.6-10.6-19.1-4-27.9c6.6-8.8,19.1-10.6,27.9-4
		C488.8,100.3,490.6,112.8,484,121.6z"/>
</g>
<g>
	<path class="st38" d="M214.2,208.5L214.2,208.5c2.9,0,5.2-2.3,5.2-5.2v-10.1h26.3v10c0,2.9,2.4,5.3,5.3,5.3h0H214.2z"/>
	<path class="st39" d="M295.1,185.8v-75.6c0-1.8-1.5-3.2-3.2-3.2h-122c-1.8,0-3.2,1.5-3.2,3.2v75.6H295.1z"/>
	<path class="st40" d="M166.6,182.7v6.5c0,1.9,2,4,3.9,4h121.7c1.9,0,3.1-2,3.1-3.9v-6.7H166.6z"/>
	<rect x="171.6" y="112.3" class="st9" width="117.8" height="64.8"/>
	<rect x="171.6" y="120.1" class="st14" width="117.8" height="56.9"/>
	<g>
		<rect x="171.6" y="112.3" class="st16" width="117.8" height="64.8"/>
		<rect x="171.6" y="112.3" class="st16" width="117.8" height="8.1"/>
		<line class="st16" x1="175.8" y1="116.3" x2="179.5" y2="116.3"/>
		<line class="st16" x1="182.2" y1="116.3" x2="185.9" y2="116.3"/>
		<line class="st16" x1="188.6" y1="116.3" x2="192.3" y2="116.3"/>
		<g>
			<g>
				<line class="st16" x1="192.3" y1="127.6" x2="203" y2="127.6"/>
				<line class="st16" x1="216.9" y1="127.6" x2="238.8" y2="127.6"/>
				<line class="st16" x1="206.1" y1="127.6" x2="211.1" y2="127.6"/>
				<line class="st16" x1="195.9" y1="139.7" x2="206.9" y2="139.7"/>
				<line class="st16" x1="222.1" y1="139.7" x2="238.8" y2="139.7"/>
				<line class="st16" x1="210" y1="139.7" x2="216.3" y2="139.7"/>
				<line class="st16" x1="239.5" y1="151.8" x2="272" y2="151.8"/>
				<line class="st16" x1="210.6" y1="151.8" x2="235.4" y2="151.8"/>
				<line class="st16" x1="255.9" y1="139.7" x2="275" y2="139.7"/>
				<line class="st16" x1="243.5" y1="139.7" x2="252.4" y2="139.7"/>
				<line class="st16" x1="201.7" y1="145.7" x2="208.2" y2="145.7"/>
				<line class="st16" x1="210.6" y1="145.7" x2="235.9" y2="145.7"/>
				<line class="st16" x1="254.2" y1="127.6" x2="276.1" y2="127.6"/>
				<line class="st16" x1="243.3" y1="127.6" x2="248.4" y2="127.6"/>
				<line class="st16" x1="192.3" y1="133.6" x2="235.4" y2="133.6"/>
				<line class="st16" x1="192.3" y1="157.9" x2="251.6" y2="157.9"/>
				<line class="st16" x1="192.3" y1="164" x2="261" y2="164"/>
				<line class="st16" x1="192.3" y1="170" x2="222.1" y2="170"/>
				<line class="st16" x1="179.7" y1="127.6" x2="184.1" y2="127.6"/>
				<line class="st16" x1="179.7" y1="133.6" x2="184.1" y2="133.6"/>
				<line class="st16" x1="184.1" y1="139.7" x2="179.7" y2="139.7"/>
				<line class="st16" x1="179.7" y1="145.7" x2="184.1" y2="145.7"/>
				<line class="st16" x1="179.7" y1="151.8" x2="184.1" y2="151.8"/>
				<line class="st16" x1="179.7" y1="157.8" x2="184.1" y2="157.8"/>
				<line class="st16" x1="179.7" y1="163.9" x2="184.1" y2="163.9"/>
				<line class="st16" x1="179.7" y1="169.9" x2="184.1" y2="169.9"/>
			</g>
		</g>
	</g>
	<path class="st33" d="M219.4,193.1v10.5c0,2.7-2.2,4.8-4.8,4.8l0,0"/>
	<path class="st33" d="M251.1,208.4L251.1,208.4c-2.9,0-5.3-2.4-5.3-5.3v-10"/>
	<line class="st16" x1="198" y1="208.4" x2="266.5" y2="208.4"/>
</g>
<g class="st41">
	<polyline class="st42" points="12.2,357.3 8.6,363.4 12.2,369.4 	"/>
	<polyline class="st42" points="112.8,310.7 116.3,316.7 112.8,322.8 	"/>
	<path class="st43" d="M45.7,360.8H20.8c-1.4,0-2.6,1.1-2.6,2.6l0,0c0,1.4,1.1,2.6,2.6,2.6h24.9c1.4,0,2.6-1.1,2.6-2.6l0,0
		C48.2,362,47.1,360.8,45.7,360.8z"/>
	<path class="st43" d="M73.3,348.8H29.5c-1.4,0-2.6,1.1-2.6,2.6l0,0c0,1.4,1.1,2.6,2.6,2.6h43.8c1.4,0,2.6-1.1,2.6-2.6l0,0
		C75.9,349.9,74.7,348.8,73.3,348.8z"/>
	<path class="st43" d="M96.5,348.8H82.8c-1.4,0-2.6,1.1-2.6,2.6l0,0c0,1.4,1.1,2.6,2.6,2.6h13.7c1.4,0,2.6-1.1,2.6-2.6l0,0
		C99,349.9,97.9,348.8,96.5,348.8z"/>
	<path class="st44" d="M26.1,337.9H21c-1.4,0-2.6,1.1-2.6,2.6v0c0,1.4,1.1,2.6,2.6,2.6h5.1c1.4,0,2.6-1.1,2.6-2.6v0
		C28.7,339,27.5,337.9,26.1,337.9z"/>
	<path class="st43" d="M82.5,337.9H36.4c-1.4,0-2.6,1.1-2.6,2.6v0c0,1.4,1.1,2.6,2.6,2.6h46.1c1.4,0,2.6-1.1,2.6-2.6v0
		C85,339,83.9,337.9,82.5,337.9z"/>
	<path class="st44" d="M72.5,325.4H34.7c-1.4,0-2.6,1.1-2.6,2.6l0,0c0,1.4,1.1,2.6,2.6,2.6h37.8c1.4,0,2.6-1.1,2.6-2.6l0,0
		C75,326.6,73.9,325.4,72.5,325.4z"/>
	<path class="st43" d="M40.7,314.2H21.1c-1.4,0-2.6,1.1-2.6,2.6l0,0c0,1.4,1.1,2.6,2.6,2.6h19.6c1.4,0,2.6-1.1,2.6-2.6l0,0
		C43.2,315.3,42.1,314.2,40.7,314.2z"/>
	<path class="st43" d="M104,314.2H51.7c-1.4,0-2.6,1.1-2.6,2.6l0,0c0,1.4,1.1,2.6,2.6,2.6H104c1.4,0,2.6-1.1,2.6-2.6l0,0
		C106.5,315.3,105.4,314.2,104,314.2z"/>
	<path class="st43" d="M97.4,325.4H83.2c-1.4,0-2.6,1.1-2.6,2.6l0,0c0,1.4,1.1,2.6,2.6,2.6h14.2c1.4,0,2.6-1.1,2.6-2.6l0,0
		C99.9,326.6,98.8,325.4,97.4,325.4z"/>
	<path class="st44" d="M90.2,360.8H59.5c-1.4,0-2.6,1.1-2.6,2.6l0,0c0,1.4,1.1,2.6,2.6,2.6h30.7c1.4,0,2.6-1.1,2.6-2.6l0,0
		C92.8,362,91.6,360.8,90.2,360.8z"/>
</g>
<g class="st41">
	<polyline class="st45" points="914.7,392.6 918.2,387.2 914.7,381.7 	"/>
	<polyline class="st45" points="811,466.4 807.5,461 811,455.5 	"/>
	<path class="st46" d="M880.5,389.5h25.7c1.3,0,2.3-1,2.3-2.3l0,0c0-1.3-1-2.3-2.3-2.3h-25.7c-1.3,0-2.3,1-2.3,2.3l0,0
		C878.2,388.5,879.3,389.5,880.5,389.5z"/>
	<path class="st46" d="M824.6,400.4h72.8c1.3,0,2.3-1,2.3-2.3l0,0c0-1.3-1-2.3-2.3-2.3h-72.8c-1.3,0-2.3,1-2.3,2.3l0,0
		C822.3,399.4,823.4,400.4,824.6,400.4z"/>
	<path class="st47" d="M894.2,410.3H906c1.3,0,2.3-1,2.3-2.3l0,0c0-1.3-1-2.3-2.3-2.3h-11.7c-1.3,0-2.3,1-2.3,2.3l0,0
		C891.9,409.2,892.9,410.3,894.2,410.3z"/>
	<path class="st46" d="M843.4,410.3h41c1.3,0,2.3-1,2.3-2.3l0,0c0-1.3-1-2.3-2.3-2.3h-41c-1.3,0-2.3,1-2.3,2.3l0,0
		C841.1,409.2,842.1,410.3,843.4,410.3z"/>
	<path class="st47" d="M853.5,421.5h38.7c1.3,0,2.3-1,2.3-2.3l0,0c0-1.3-1-2.3-2.3-2.3h-38.7c-1.3,0-2.3,1-2.3,2.3l0,0
		C851.2,420.5,852.2,421.5,853.5,421.5z"/>
	<path class="st46" d="M860,431.8h23.7c1.3,0,2.3-1,2.3-2.3v0c0-1.3-1-2.3-2.3-2.3H860c-1.3,0-2.3,1-2.3,2.3v0
		C857.7,430.7,858.7,431.8,860,431.8z"/>
	<path class="st47" d="M815.6,431.8h27.7c1.3,0,2.3-1,2.3-2.3v0c0-1.3-1-2.3-2.3-2.3h-27.7c-1.3,0-2.3,1-2.3,2.3v0
		C813.3,430.7,814.4,431.8,815.6,431.8z"/>
	<path class="st46" d="M815.6,442.2h15.5c1.3,0,2.3-1,2.3-2.3l0,0c0-1.3-1-2.3-2.3-2.3h-15.5c-1.3,0-2.3,1-2.3,2.3l0,0
		C813.3,441.2,814.4,442.2,815.6,442.2z"/>
	<path class="st46" d="M841.5,442.2h23.3c1.3,0,2.3-1,2.3-2.3l0,0c0-1.3-1-2.3-2.3-2.3h-23.3c-1.3,0-2.3,1-2.3,2.3l0,0
		C839.2,441.2,840.2,442.2,841.5,442.2z"/>
	<g>
		<path class="st47" d="M848.8,463.3h30.4c1.3,0,2.3-1,2.3-2.3l0,0c0-1.3-1-2.3-2.3-2.3h-30.4c-1.3,0-2.3,1-2.3,2.3l0,0
			C846.5,462.3,847.5,463.3,848.8,463.3z"/>
		<path class="st46" d="M820.1,463.3h17.5c1.3,0,2.3-1,2.3-2.3l0,0c0-1.3-1-2.3-2.3-2.3h-17.5c-1.3,0-2.3,1-2.3,2.3l0,0
			C817.8,462.3,818.8,463.3,820.1,463.3z"/>
	</g>
	<path class="st47" d="M875,442.2h30.9c1.3,0,2.3-1,2.3-2.3l0,0c0-1.3-1-2.3-2.3-2.3H875c-1.3,0-2.3,1-2.3,2.3l0,0
		C872.6,441.2,873.7,442.2,875,442.2z"/>
	<path class="st46" d="M904.1,453.3h0.8c1.3,0,2.3-1,2.3-2.3l0,0c0-1.3-1-2.3-2.3-2.3h-0.8c-1.3,0-2.3,1-2.3,2.3l0,0
		C901.8,452.3,902.8,453.3,904.1,453.3z"/>
	<path class="st47" d="M839.3,453.3h0.8c1.3,0,2.3-1,2.3-2.3l0,0c0-1.3-1-2.3-2.3-2.3h-0.8c-1.3,0-2.3,1-2.3,2.3l0,0
		C837,452.3,838,453.3,839.3,453.3z"/>
	<path class="st46" d="M855.6,453.3h39.2c1.3,0,2.3-1,2.3-2.3l0,0c0-1.3-1-2.3-2.3-2.3h-39.2c-1.3,0-2.3,1-2.3,2.3l0,0
		C853.3,452.3,854.3,453.3,855.6,453.3z"/>
	<path class="st46" d="M807.7,421.5h27.8c1.3,0,2.3-1,2.3-2.3l0,0c0-1.3-1-2.3-2.3-2.3h-27.8c-1.3,0-2.3,1-2.3,2.3l0,0
		C805.4,420.5,806.5,421.5,807.7,421.5z"/>
	<path class="st47" d="M835.6,389.5h31.5c1.3,0,2.3-1,2.3-2.3l0,0c0-1.3-1-2.3-2.3-2.3h-31.5c-1.3,0-2.3,1-2.3,2.3l0,0
		C833.3,388.5,834.3,389.5,835.6,389.5z"/>
</g>
<circle class="st9" cx="345.8" cy="446.9" r="1.8"/>
<path class="st48" d="M568.9,294.1H357.3c-4,0-7.2,3.2-7.2,7.2V460c0,4,3.2,7.2,7.2,7.2h74.9H543h25.9c4,0,7.2-3.2,7.2-7.2V301.3
	C576.1,297.3,572.9,294.1,568.9,294.1z"/>
<g>
	<path class="st35" d="M583,314.4H357.1v-12.9c0-4,3.3-7.3,7.3-7.3h211.4c4,0,7.2,3.2,7.2,7.2V314.4z"/>
	<path class="st9" d="M576.1,467.3H363.8c-3.6,0-6.4-2.9-6.4-6.4V314.5H583v146C583,464.3,579.9,467.3,576.1,467.3z"/>
	<path class="st16" d="M575.8,467.3H364.3c-4,0-7.2-3.2-7.2-7.2V301.4c0-4,3.2-7.2,7.2-7.2h211.5c4,0,7.2,3.2,7.2,7.2v158.8
		C583,464.1,579.8,467.3,575.8,467.3z"/>
	<path class="st13" d="M561.1,438.6l0-18.2l-10.8-2.3c-0.5-2.2-1.2-4.4-2-6.5l8.1-7.3l-9.1-15.7l-11.2,3.6c-1.4-1.5-2.9-3-4.5-4.3
		l3.5-11l-15.7-9.1l-8,8.9c-1.9-0.6-3.9-1.1-6-1.5l-2.4-11.3h-18.2l-2.4,11.3c-2.2,0.4-4.3,1-6.3,1.7l-7.5-8.3l-15.7,9.1l3.3,10.3
		c-1.8,1.6-3.6,3.3-5.2,5.1l-9.8-3.2l-9.1,15.7l7.2,6.5c-0.9,2.6-1.8,5.2-2.3,7.9l-8.9,1.9v18.2l8.5,1.8c0.5,3.1,1.3,6,2.2,8.9
		l-6,5.5l9.1,15.7l7.6-2.4c2.1,2.5,4.4,4.8,7,6.9l-2.3,7.2l15.7,9.1l5.2-5.7c3.1,1.1,6.3,1.9,9.6,2.4l1.6,7.3l18.2,0l1.7-7.9
		c3.2-0.7,6.2-1.6,9.2-2.8l5.4,5.9l15.7-9.1l-2.7-8.5c2.1-2,4.1-4.1,5.9-6.4l8.5,2.7l9.1-15.7l-7.4-6.7c0.7-2.5,1.2-5,1.6-7.6
		L561.1,438.6z M518.8,432.1c0,13.8-11.1,24.9-24.9,24.9c-13.8,0-24.9-11.1-24.9-24.9c0-13.8,11.2-24.9,24.9-24.9
		C507.6,407.2,518.8,418.3,518.8,432.1z"/>
	<path class="st16" d="M561.1,438.6l0-18.2l-10.8-2.3c-0.5-2.2-1.2-4.4-2-6.5l8.1-7.3l-9.1-15.7l-11.2,3.6c-1.4-1.5-2.9-3-4.5-4.3
		l3.5-11l-15.7-9.1l-8,8.9c-1.9-0.6-3.9-1.1-6-1.5l-2.4-11.3h-18.2l-2.4,11.3c-2.2,0.4-4.3,1-6.3,1.7l-7.5-8.3l-15.7,9.1l3.3,10.3
		c-1.8,1.6-3.6,3.3-5.2,5.1l-9.8-3.2l-9.1,15.7l7.2,6.5c-0.9,2.6-1.8,5.2-2.3,7.9l-8.9,1.9v18.2l8.5,1.8c0.5,3.1,1.3,6,2.2,8.9
		l-6,5.5l9.1,15.7l7.6-2.4c2.1,2.5,4.4,4.8,7,6.9l-2.3,7.2l15.7,9.1l5.2-5.7c3.1,1.1,6.3,1.9,9.6,2.4l1.6,7.3l18.2,0l1.7-7.9
		c3.2-0.7,6.2-1.6,9.2-2.8l5.4,5.9l15.7-9.1l-2.7-8.5c2.1-2,4.1-4.1,5.9-6.4l8.5,2.7l9.1-15.7l-7.4-6.7c0.7-2.5,1.2-5,1.6-7.6
		L561.1,438.6z M518.8,432.1c0,13.8-11.1,24.9-24.9,24.9c-13.8,0-24.9-11.1-24.9-24.9c0-13.8,11.2-24.9,24.9-24.9
		C507.6,407.2,518.8,418.3,518.8,432.1z"/>
	<path class="st28" d="M493.8,389.8c-23.4,0-42.3,18.9-42.3,42.3c0,23.4,18.9,42.3,42.3,42.3c23.4,0,42.3-18.9,42.3-42.3
		C536.1,408.8,517.2,389.8,493.8,389.8z"/>
	<path class="st10" d="M443,365.5l0-12.4l-11.1-2.6l6.3-10.1l-8.7-8.7l-9.7,6L417,326h-12.4l-2.6,11.1l-10.1-6.3l-8.7,8.7l6,9.7
		l-11.6,2.7v12.4l11.1,2.6l-6.3,10.1l8.7,8.7l9.7-6l2.7,11.6H416l2.6-11.1l10.1,6.3l8.7-8.7l-6-9.7L443,365.5z M410.3,368.4
		c-5.4,0-9.7-4.3-9.7-9.7c0-5.4,4.3-9.7,9.7-9.7c5.4,0,9.7,4.3,9.7,9.7C420,364.1,415.7,368.4,410.3,368.4z"/>
	<line class="st16" x1="356.7" y1="314.5" x2="582.7" y2="314.5"/>
	<circle class="st16" cx="369.3" cy="303.7" r="2.8"/>
	<circle class="st16" cx="379.8" cy="303.7" r="2.8"/>
	<circle class="st16" cx="390.3" cy="303.7" r="2.8"/>
	<path class="st26" d="M415.6,417.9h-5.9c-0.7-1.9-1.7-3.7-3.1-5.2l2.9-5.1c-2.6-2.6-5.9-4.5-9.5-5.4l-2.9,5.1
		c-0.9-0.2-1.9-0.3-2.8-0.3c-1.1,0-2.1,0.1-3.1,0.3l-2.9-5.1c-3.6,1-6.9,3-9.5,5.5l2.9,5.1c-1.2,1.5-2.2,3.2-2.9,5h-5.9
		c-0.5,1.8-0.7,3.6-0.7,5.5c0,1.9,0.2,3.7,0.7,5.5h5.8c0.7,1.9,1.6,3.6,2.9,5.1l-2.9,5.1c2.6,2.6,5.8,4.5,9.5,5.6l2.9-5.1
		c1,0.2,2.1,0.3,3.1,0.3c1,0,2-0.1,2.9-0.3l2.9,5.1c3.6-1,6.9-2.9,9.5-5.5l-2.9-5.1c1.3-1.5,2.4-3.3,3.1-5.3h5.8
		c0.4-1.7,0.7-3.6,0.7-5.5C416.3,421.5,416,419.6,415.6,417.9z M394.3,428.6c-2.9,0-5.2-2.3-5.2-5.2s2.3-5.2,5.2-5.2
		c2.9,0,5.2,2.3,5.2,5.2S397.1,428.6,394.3,428.6z"/>
	<path class="st24" d="M481.4,338.6h-4c-0.5-1.3-1.2-2.5-2.1-3.6l2-3.4c-1.8-1.7-4-3-6.5-3.7l-2,3.5c-0.6-0.1-1.3-0.2-1.9-0.2
		c-0.7,0-1.4,0.1-2.1,0.2l-2-3.5c-2.5,0.7-4.7,2-6.5,3.8l2,3.5c-0.8,1-1.5,2.2-2,3.4h-4c-0.3,1.2-0.5,2.5-0.5,3.8
		c0,1.3,0.2,2.5,0.5,3.7h4c0.4,1.3,1.1,2.5,2,3.5l-2,3.5c1.8,1.8,4,3.1,6.5,3.8l2-3.4c0.7,0.1,1.4,0.2,2.1,0.2c0.7,0,1.3-0.1,2-0.2
		l2,3.5c2.5-0.7,4.7-2,6.5-3.7l-2-3.4c0.9-1,1.6-2.3,2.1-3.6h4c0.3-1.2,0.5-2.4,0.5-3.7C481.9,341.1,481.7,339.8,481.4,338.6z
		 M466.9,345.9c-2,0-3.6-1.6-3.6-3.6c0-2,1.6-3.6,3.6-3.6c2,0,3.6,1.6,3.6,3.6C470.4,344.3,468.8,345.9,466.9,345.9z"/>
	<path class="st49" d="M567.9,365.2h-2.8c-0.3-0.9-0.8-1.8-1.5-2.5l1.4-2.4c-1.3-1.2-2.9-2.2-4.6-2.6l-1.4,2.5
		c-0.4-0.1-0.9-0.1-1.4-0.1c-0.5,0-1,0.1-1.5,0.1l-1.4-2.4c-1.8,0.5-3.3,1.4-4.6,2.7l1.4,2.5c-0.6,0.7-1.1,1.5-1.4,2.4h-2.8
		c-0.2,0.9-0.3,1.8-0.3,2.7c0,0.9,0.1,1.8,0.3,2.6h2.8c0.3,0.9,0.8,1.7,1.4,2.5l-1.4,2.5c1.3,1.3,2.8,2.2,4.6,2.7l1.4-2.4
		c0.5,0.1,1,0.1,1.5,0.1c0.5,0,0.9,0,1.4-0.1l1.4,2.5c1.8-0.5,3.3-1.4,4.6-2.6l-1.4-2.4c0.6-0.7,1.1-1.6,1.5-2.5h2.8
		c0.2-0.8,0.3-1.7,0.3-2.6C568.2,367,568.1,366.1,567.9,365.2z M557.6,370.4c-1.4,0-2.5-1.1-2.5-2.5c0-1.4,1.1-2.5,2.5-2.5
		s2.5,1.1,2.5,2.5C560.1,369.3,559,370.4,557.6,370.4z"/>
</g>
</svg>
