<?xml version="1.0" encoding="utf-8"?>
<!-- Generator: Adobe Illustrator 22.1.0, SVG Export Plug-In . SVG Version: 6.00 Build 0)  -->
<svg version="1.1" id="Layer_234121" xmlns="http://www.w3.org/2000/svg" xmlns:xlink="http://www.w3.org/1999/xlink" x="0px" y="0px"
	 viewBox="0 0 936 792" style="enable-background:new 0 0 936 792;" xml:space="preserve">
<style type="text/css">
	.st0{fill:#11578D;}
	.st1{fill:none;stroke:#A6A6A6;stroke-miterlimit:10;}
	.st2{fill:#FFFFFF;stroke:#A6A6A6;stroke-miterlimit:10;}
	.st3{fill:#C2D500;}
	.st4{fill:none;stroke:#0899CC;}
	.st5{fill:#FF4D00;}
	.st6{fill:none;stroke:#1776BF;stroke-linecap:round;stroke-linejoin:round;stroke-miterlimit:10;}
	.st7{fill:#595959;stroke:#000000;stroke-miterlimit:10;}
	.st8{fill:#FFFFFF;}
	.st9{fill:#D6D6D6;}
	.st10{fill:url(#SVGID_1_);}
	.st11{fill:none;stroke:#000000;stroke-miterlimit:10;}
	.st12{fill:#A6A6A6;stroke:#000000;stroke-miterlimit:10;}
	.st13{opacity:0.17;fill:#3B3B3B;}
	.st14{fill:none;stroke:#000000;stroke-miterlimit:10;stroke-dasharray:3.8933,3.8933;}
	.st15{fill:none;stroke:#000000;stroke-miterlimit:10;stroke-dasharray:4.1687,4.1687;}
	.st16{fill:none;stroke:#000000;stroke-miterlimit:10;stroke-dasharray:3.9441,3.9441;}
	.st17{fill:none;stroke:#E5E8EC;stroke-miterlimit:10;}
	.st18{fill:none;stroke:#FFFFFF;stroke-miterlimit:10;}
	.st19{fill:#A9F4F0;}
	.st20{clip-path:url(#SVGID_3_);fill:#E0E0E0;}
	.st21{clip-path:url(#SVGID_3_);fill:#A8A8A8;}
	.st22{clip-path:url(#SVGID_3_);fill:none;stroke:#000000;stroke-miterlimit:10;}
	.st23{clip-path:url(#SVGID_3_);fill:#FFDC69;}
	.st24{clip-path:url(#SVGID_3_);fill:#008FFF;}
	.st25{fill:#FFFFFF;stroke:#000000;stroke-miterlimit:10;}
	.st26{fill:none;stroke:#000000;stroke-linecap:round;stroke-linejoin:round;stroke-miterlimit:10;}
	.st27{opacity:0.35;fill:#1776BF;}
	.st28{fill:#008FFF;}
	.st29{fill:#7BCAEF;}
	.st30{fill:#BAD80A;}
	.st31{fill:#CCCCCC;stroke:#000000;stroke-miterlimit:10;}
	.st32{fill:none;stroke:#FFFFFF;stroke-linecap:round;stroke-linejoin:round;stroke-miterlimit:10;}
	.st33{fill:#1776BF;}
	.st34{fill:#F1DAD5;}
	.st35{fill:#292929;}
	.st36{fill:#7A7A7A;}
	.st37{fill:#6B6B6B;}
	.st38{fill:#D6D6D6;stroke:#000000;stroke-miterlimit:10;}
	.st39{fill:#76BBFF;}
	.st40{fill:#FFF794;}
	.st41{fill:#2B2B2B;}
	.st42{fill:#484848;}
	.st43{fill:#0899CC;}
	.st44{fill:#F1DAD5;stroke:#000000;stroke-miterlimit:10;}
	.st45{fill:#2B2B2B;stroke:#000000;stroke-miterlimit:10;}
	.st46{fill:#6AE700;stroke:#000000;stroke-miterlimit:10;}
	.st47{fill:#C2C2C2;}
</style>
<path class="st0" d="M214.4,273l135.2-59.2c44.9-19.7,95.7-21.1,141.8-4.1l64.5,23.9c56.1,20.7,117.7,20.3,173.3-1.2l27.8-10.8
	c30.9-12,66.1-2.1,86.4,24.3l0,0c31,40.2,14.6,99-32.6,117l-72.5,27.6c-47.3,18-79.1,62.9-80.7,113.9l-0.2,6.1
	c-1.4,47.1-28.1,89.6-69.7,111l0,0c-45.4,23.4-97.6,29.8-147.4,18.3L389,627.9c-40.6-9.4-83.2-2.8-118.9,18.5l0,0
	c-39.5,23.6-90.6,11.9-116.3-26.5l0,0c-25.2-37.6-21.4-87.6,9.1-120.9l9.9-10.8c26.4-28.8,30-71.9,8.8-104.9l0,0
	C156.3,344.1,172,291.5,214.4,273z"/>
<g>
	<path class="st1" d="M856.4,423.6c-15.1-15.1-15.1-39.7,0-54.8"/>
	<path class="st1" d="M911.2,368.8c15.1,15.1,15.1,39.7,0,54.8"/>
	<line class="st1" x1="845.3" y1="396.2" x2="750.9" y2="396.2"/>
	<circle class="st1" cx="747.6" cy="396.2" r="3.6"/>
	<circle class="st2" cx="844.9" cy="396.2" r="1.8"/>
</g>
<g>
	<path class="st1" d="M96.3,121c14.9-14.9,39-14.9,53.9,0"/>
	<path class="st1" d="M150.1,174.9c-14.9,14.9-39,14.9-53.9,0"/>
	<polyline class="st1" points="123.3,186 123.3,279 180,279 	"/>
	<circle class="st1" cx="183.5" cy="279.1" r="3.6"/>
	<circle class="st2" cx="123.2" cy="186" r="1.8"/>
</g>
<circle class="st3" cx="123.2" cy="147.9" r="31.2"/>
<g>
	<g>
		<line class="st4" x1="215.8" y1="92.7" x2="318.8" y2="92.7"/>
		<line class="st4" x1="249.4" y1="132.9" x2="348.4" y2="132.9"/>
		<line class="st4" x1="249.4" y1="122.9" x2="429.7" y2="122.9"/>
		<g>
			<line class="st4" x1="249.4" y1="112.8" x2="285" y2="112.8"/>
			<line class="st4" x1="296.5" y1="112.8" x2="429.1" y2="112.8"/>
		</g>
		<polyline class="st4" points="206.5,97.4 202.6,92.7 206.5,88 		"/>
		<g>
			<line class="st4" x1="249.4" y1="102.7" x2="348.4" y2="102.7"/>
			<line class="st4" x1="361.1" y1="102.7" x2="396.1" y2="102.7"/>
		</g>
		<line class="st4" x1="304.4" y1="163.1" x2="348.4" y2="163.1"/>
		<line class="st4" x1="249.4" y1="163.1" x2="297.2" y2="163.1"/>
		<line class="st4" x1="249.4" y1="153" x2="409" y2="153"/>
		<g>
			<line class="st4" x1="249.4" y1="142.9" x2="285" y2="142.9"/>
			<line class="st4" x1="296.5" y1="142.9" x2="374.8" y2="142.9"/>
		</g>
		<polyline class="st4" points="363.7,158.4 367.6,163.1 363.7,167.8 		"/>
		<line class="st4" x1="360.3" y1="158.8" x2="355.9" y2="167.3"/>
	</g>
	<path class="st1" d="M300.8,166.7v50.7c0,6.4,5.2,11.6,11.6,11.6h59.4c6.4,0,11.6,5.2,11.6,11.6v84.4"/>
	<circle class="st4" cx="300.8" cy="163.1" r="3.6"/>
</g>
<circle class="st5" cx="735" cy="111.8" r="43.4"/>
<g>
	<polyline class="st6" points="112.8,157.6 106.6,152.8 100.5,147.9 106.6,143 112.8,138.2 	"/>
	<polyline class="st6" points="133.6,157.6 139.8,152.8 145.9,147.9 139.8,143 133.6,138.2 	"/>
	<line class="st6" x1="128" y1="132.7" x2="119.2" y2="163.1"/>
</g>
<rect x="182" y="266" class="st7" width="559" height="346.4"/>
<polygon class="st7" points="515.6,651.2 407.3,651.2 421,612.4 501.9,612.4 "/>
<path class="st7" d="M609.5,670.3c-0.1-11.5-9.6-21-21.2-21H328.8c-11.6,0-21,9.4-21.2,21H609.5z"/>
<g>
	<rect x="188.4" y="266.1" class="st8" width="559" height="346.4"/>
</g>
<g>
	<rect x="188.2" y="266" class="st9" width="559" height="21.6"/>
</g>
<linearGradient id="SVGID_1_" gradientUnits="userSpaceOnUse" x1="321.925" y1="364.6864" x2="455.0148" y2="364.6864">
	<stop  offset="0" style="stop-color:#FFFFFF;stop-opacity:0"/>
	<stop  offset="1" style="stop-color:#000000;stop-opacity:0.2"/>
</linearGradient>
<rect x="321.9" y="327.1" class="st10" width="133.1" height="75.1"/>
<rect x="188.5" y="266" class="st11" width="559" height="346.4"/>
<polygon class="st12" points="522.1,651.2 413.8,651.2 427.5,612.4 508.4,612.4 "/>
<line class="st11" x1="188.6" y1="287.8" x2="747.3" y2="287.8"/>
<line class="st11" x1="200.6" y1="277.1" x2="332.6" y2="277.1"/>
<line class="st11" x1="399.9" y1="277.1" x2="428.1" y2="277.1"/>
<line class="st11" x1="438.3" y1="277.1" x2="466.5" y2="277.1"/>
<line class="st11" x1="476.7" y1="277.1" x2="504.9" y2="277.1"/>
<line class="st11" x1="515.1" y1="277.1" x2="543.3" y2="277.1"/>
<g>
	<line class="st11" x1="361.9" y1="344.8" x2="393.3" y2="344.8"/>
	<line class="st11" x1="361.9" y1="364.8" x2="406.7" y2="364.8"/>
	<g>
		<line class="st11" x1="361.9" y1="354.8" x2="378" y2="354.8"/>
		<line class="st11" x1="383.2" y1="354.8" x2="443.3" y2="354.8"/>
	</g>
	<line class="st11" x1="361.9" y1="384.7" x2="406.7" y2="384.7"/>
	<line class="st11" x1="361.9" y1="374.7" x2="434.2" y2="374.7"/>
</g>
<g>
	<path class="st1" d="M18.5,320.2c15.1-15.1,39.7-15.1,54.8,0"/>
	<path class="st1" d="M73.3,375c-15.1,15.1-39.7,15.1-54.8,0"/>
	<line class="st1" x1="45.9" y1="386.1" x2="45.9" y2="498.9"/>
	<circle class="st4" cx="45.9" cy="502.6" r="3.6"/>
	<circle class="st2" cx="45.9" cy="386.4" r="1.8"/>
	<g>
		<g>
			<line class="st4" x1="25.5" y1="502.6" x2="42.6" y2="502.6"/>
			<line class="st4" x1="49.7" y1="502.6" x2="156.8" y2="502.6"/>
		</g>
		<g>
			<line class="st4" x1="25.5" y1="516" x2="63.1" y2="516"/>
			<line class="st4" x1="73.6" y1="516" x2="157" y2="516"/>
		</g>
		<g>
			<line class="st4" x1="25.5" y1="529.5" x2="40.5" y2="529.5"/>
			<line class="st4" x1="51" y1="529.5" x2="157" y2="529.5"/>
		</g>
		<g>
			<line class="st4" x1="25.5" y1="542.9" x2="40.5" y2="542.9"/>
			<line class="st4" x1="51" y1="542.9" x2="156.2" y2="542.9"/>
		</g>
		<g>
			<line class="st4" x1="25.5" y1="556.3" x2="89" y2="556.3"/>
			<line class="st4" x1="97.3" y1="556.3" x2="156.5" y2="556.3"/>
		</g>
		<polyline class="st4" points="15.2,508.4 10.9,502.7 15.2,497 		"/>
		<g>
			<line class="st4" x1="25.5" y1="569.7" x2="68.5" y2="569.7"/>
			<polyline class="st1" points="126.1,564 130.4,569.7 126.1,575.4 			"/>
			<line class="st1" x1="122.3" y1="564.5" x2="117.4" y2="574.8"/>
		</g>
	</g>
</g>
<path class="st13" d="M898.3,206.2c-0.6-26.1-22-47.1-48.2-47.1c-15.2,0-28.8,7.1-37.6,18.1c-3.6-6.6-10.6-11.2-18.7-11.2
	c-10,0-18.3,6.9-20.6,16.1c-3.2-1.3-6.6-2-10.2-2c-5.5,0-10.6,1.6-14.9,4.5c-6.1-6.1-14.6-9.9-23.9-9.9c-14.3,0-26.5,8.9-31.5,21.4
	c-3-3.2-7.2-5.1-11.9-5.1c-8.7,0-15.7,6.7-16.3,15.2H898.3z"/>
<path class="st13" d="M31.5,247.3c0.6-25.3,21.3-45.7,46.8-45.7c14.8,0,27.9,6.9,36.5,17.5c3.5-6.4,10.3-10.8,18.1-10.8
	c9.7,0,17.8,6.7,20,15.7c3.1-1.2,6.4-1.9,9.9-1.9c5.3,0,10.3,1.6,14.4,4.3c6-5.9,14.2-9.6,23.2-9.6c13.9,0,25.7,8.6,30.6,20.7
	c2.9-3.1,7-5,11.5-5c8.4,0,15.3,6.5,15.9,14.7L31.5,247.3z"/>
<path class="st13" d="M453.6,103.2c0.4-15.6,13.1-28.1,28.8-28.1c9.1,0,17.2,4.2,22.5,10.8c2.1-4,6.3-6.7,11.1-6.7
	c5.9,0,10.9,4.1,12.3,9.6c1.9-0.8,3.9-1.2,6.1-1.2c3.3,0,6.3,1,8.9,2.7c3.7-3.6,8.7-5.9,14.3-5.9c8.5,0,15.8,5.3,18.8,12.8
	c1.8-1.9,4.3-3.1,7.1-3.1c5.2,0,9.4,4,9.8,9.1H453.6z"/>
<path class="st13" d="M9.6,633.8c0.3-12,10.1-21.7,22.3-21.7c7,0,13.3,3.3,17.4,8.3c1.7-3.1,4.9-5.1,8.6-5.1c4.6,0,8.4,3.2,9.5,7.4
	c1.5-0.6,3-0.9,4.7-0.9c2.5,0,4.9,0.8,6.9,2.1c2.8-2.8,6.7-4.6,11-4.6c6.6,0,12.2,4.1,14.5,9.9c1.4-1.5,3.3-2.4,5.5-2.4
	c4,0,7.3,3.1,7.5,7H9.6z"/>
<path class="st13" d="M905.3,503.2c-0.4-16.8-14.2-30.4-31.1-30.4c-9.8,0-18.6,4.6-24.3,11.7c-2.3-4.3-6.8-7.2-12-7.2
	c-6.4,0-11.8,4.4-13.3,10.4c-2-0.8-4.3-1.3-6.6-1.3c-3.5,0-6.8,1.1-9.6,2.9c-4-3.9-9.4-6.4-15.4-6.4c-9.2,0-17.1,5.7-20.3,13.8
	c-1.9-2-4.7-3.3-7.7-3.3c-5.6,0-10.2,4.3-10.5,9.8H905.3z"/>
<g>
	<g>
		<line class="st11" x1="353.9" y1="402" x2="355.9" y2="402"/>
		<line class="st14" x1="359.8" y1="402" x2="451.3" y2="402"/>
		<polyline class="st11" points="453.3,402 455.3,402 455.3,400 		"/>
		<line class="st15" x1="455.3" y1="395.8" x2="455.3" y2="331.2"/>
		<polyline class="st11" points="455.3,329.1 455.3,327.1 453.3,327.1 		"/>
		<line class="st16" x1="449.3" y1="327.1" x2="356.6" y2="327.1"/>
		<line class="st11" x1="354.7" y1="327.1" x2="352.7" y2="327.1"/>
	</g>
</g>
<g>
	<g>
		<g>
			<path class="st17" d="M717.2,125.7h-4.9c-6.6,0-12-5.4-12-12c0-5.8,4.1-10.7,9.7-11.8c0.4-10.1,8.8-18.2,19-18.2
				c9.1,0,16.9,6.5,18.6,15.3c0.8-0.2,1.7-0.2,2.5-0.2c7.3,0,13.3,6,13.3,13.3c0,0.2,0,0.4,0,0.5c3.1,0.6,5.4,3.3,5.4,6.5
				c0,3.5-2.8,6.4-6.3,6.6l0,0h-16.4"/>
		</g>
	</g>
	<g>
		<g>
			<path class="st18" d="M722,114v-5.5c0-5.4,4.4-9.8,9.8-9.8l0,0c5.4,0,9.8,4.4,9.8,9.8v5.5"/>
		</g>
		<g>
			<rect x="717.1" y="113.8" class="st18" width="28.9" height="27.1"/>
		</g>
		<g>
			<path class="st18" d="M731.7,121.6c-1.3,0-2.4,1.1-2.4,2.4c0,0.9,0.5,1.6,1.2,2l-0.5,5.9h1.8h1.8L733,126c0.7-0.4,1.2-1.2,1.2-2
				C734.1,122.7,733.1,121.6,731.7,121.6L731.7,121.6z"/>
		</g>
	</g>
</g>
<g>
	<line class="st4" x1="533.3" y1="167.9" x2="544.8" y2="156.8"/>
	<line class="st4" x1="517.8" y1="162.6" x2="528.1" y2="168.5"/>
	<line class="st4" x1="501.4" y1="175.2" x2="512.8" y2="163.3"/>
	<circle class="st4" cx="499.1" cy="177.6" r="3.2"/>
	<circle class="st4" cx="515" cy="161" r="3.2"/>
	<circle class="st4" cx="530.9" cy="170.1" r="3.2"/>
	<circle class="st4" cx="547.1" cy="154.5" r="3.2"/>
</g>
<g>
	<rect x="477.2" y="327.1" class="st3" width="228.4" height="132"/>
	<rect x="477.3" y="327.1" class="st11" width="228.4" height="132"/>
	<rect x="497.7" y="384.8" class="st8" width="162" height="4.7"/>
	<line class="st8" x1="508.1" y1="402.2" x2="633.1" y2="402.2"/>
	<rect x="497.7" y="347.8" class="st8" width="188.3" height="7.7"/>
	<rect x="497.7" y="367.2" class="st8" width="101.5" height="4.7"/>
	<rect x="497" y="417.4" class="st19" width="20.8" height="20.8"/>
	<circle class="st5" cx="580.6" cy="427.8" r="10.4"/>
	<rect x="497.6" y="384.8" class="st11" width="162" height="4.7"/>
	<line class="st11" x1="497.6" y1="402.2" x2="622.6" y2="402.2"/>
	<rect x="497.6" y="347.8" class="st11" width="188.3" height="7.7"/>
	<rect x="497.6" y="367.2" class="st11" width="101.5" height="4.7"/>
	<rect x="496.9" y="417.4" class="st11" width="20.8" height="20.8"/>
	<circle class="st11" cx="580.5" cy="427.8" r="10.4"/>
</g>
<g>
	<rect x="492.9" y="478.6" class="st5" width="228.1" height="91.4"/>
	<g>
		<rect x="604.7" y="497.2" class="st8" width="97.6" height="4.7"/>
		<rect x="604.4" y="543.5" class="st8" width="60" height="9.1"/>
	</g>
	<g>
		<g>
			<defs>
				<circle id="SVGID_2_" cx="541.2" cy="524.2" r="31.4"/>
			</defs>
			<clipPath id="SVGID_3_">
				<use xlink:href="#SVGID_2_"  style="overflow:visible;"/>
			</clipPath>
			<circle class="st20" cx="541.1" cy="524.1" r="32.2"/>
			<path class="st21" d="M528.5,520.8v-7.6c0-2.7,2.2-5,5-5h1.3h2.1h2.6v12.7L528.5,520.8"/>
			<path class="st22" d="M552.6,517.9"/>
			<path class="st21" d="M539.6,512.8c-5.8,0-5.2-6.9-5.2-6.9h13.3c2.9,0,6.8,2.6,6.7,6.8v7.9v0.6H549L539.6,512.8"/>
			<path class="st23" d="M530.4,520.6h-1c-1.3,0-2.6,1.1-2.4,2.5l0.6,3.9c0.2,1.4,1.1,2.5,2.4,2.5h0.3"/>
			<path class="st23" d="M552.6,529.4h0.2c1.3,0,2.2-1,2.4-2.5l0.6-3.9c0.2-1.4-1.1-2.5-2.4-2.5h-0.9"/>
			<path class="st23" d="M547.6,512.8H540h-4.5c-2.8,0-5.1,2.3-5.1,5.1v9.9c0,6.8,4.9,11.7,10.9,11.7h0.4c6,0,10.9-4.9,10.9-11.7
				v-9.9l0,0C552.7,515.1,550.4,512.8,547.6,512.8z"/>
			<path class="st23" d="M534.6,544.3c1-0.9,1.6-2.1,1.6-3.3V538l3.8-0.9l6.8,0.9v2.9c0,1.3,0.6,2.5,1.5,3.3v3.3h-13.6L534.6,544.3z
				"/>
			<path class="st24" d="M548.5,596.2h-13.9c-9.3,0-16.8-7.5-16.8-16.8v-18.3c0-9.3,7.5-16.8,16.8-16.8h13.9
				c9.3,0,16.8,7.5,16.8,16.8v18.3C565.3,588.6,557.8,596.2,548.5,596.2z"/>
			<path class="st22" d="M534.7,508.2h-1.3c-2.7,0-5,2.2-5,5v7.6"/>
			<path class="st22" d="M552.5,517.9"/>
			<path class="st22" d="M554.3,520.7v-7.9c0-4.3-3.9-6.8-6.7-6.8h-13.3c0,0-0.5,6.9,5.2,6.9"/>
			<path class="st22" d="M530.4,520.6h-1c-1.3,0-2.6,1.1-2.4,2.5l0.6,3.9c0.2,1.4,1.1,2.5,2.4,2.5h0.3"/>
			<path class="st22" d="M552.5,529.4h0.2c1.3,0,2.2-1,2.4-2.5l0.6-3.9c0.2-1.4-1.1-2.5-2.4-2.5h-0.9"/>
			<path class="st22" d="M547.5,512.8H540h-4.5c-2.8,0-5.1,2.3-5.1,5.1v9.9c0,6.8,4.9,11.7,10.9,11.7h0.4c6,0,10.9-4.9,10.9-11.7
				v-9.9l0,0C552.6,515.1,550.3,512.8,547.5,512.8z"/>
			<path class="st22" d="M548.3,544.3c-0.9-0.9-1.5-2.1-1.5-3.3V538"/>
			<path class="st22" d="M536.2,538v2.9c0,1.3-0.6,2.5-1.6,3.3"/>
			<path class="st22" d="M548.3,596.2h-13.7c-9.3,0-16.9-7.6-16.9-16.9v-18.1c0-9.3,7.6-16.9,16.9-16.9h13.7
				c9.3,0,16.9,7.6,16.9,16.9v18.1C565.2,588.6,557.7,596.2,548.3,596.2z"/>
		</g>
		<circle class="st11" cx="541.3" cy="524.2" r="31.3"/>
	</g>
	<g>
		<circle class="st25" cx="570.3" cy="506.5" r="13.7"/>
		<polyline class="st26" points="563,506.9 567.5,511.4 577.4,501.5 		"/>
	</g>
	<g>
		<rect x="605.1" y="497.2" class="st11" width="97.6" height="4.7"/>
		<rect x="604.8" y="543.5" class="st11" width="60" height="9.1"/>
		<line class="st11" x1="605.1" y1="515.4" x2="688" y2="515.4"/>
		<line class="st11" x1="604.9" y1="528.9" x2="638.4" y2="528.9"/>
	</g>
</g>
<rect x="492.8" y="478.5" class="st11" width="228.1" height="91.4"/>
<rect x="725.7" y="266" class="st27" width="21.8" height="21.8"/>
<g>
	<line class="st11" x1="729.5" y1="269.7" x2="743.8" y2="284"/>
	<line class="st11" x1="729.5" y1="284" x2="743.8" y2="269.7"/>
</g>
<line class="st11" x1="725.7" y1="266.4" x2="725.7" y2="287.4"/>
<polyline class="st25" points="446.3,413.4 446.3,572.4 230,572.4 230,421.1 "/>
<g>
	<path class="st28" d="M372.3,460.6H252.7c-2.6,0-4.7-2.1-4.7-4.7l0,0c0-2.6,2.1-4.7,4.7-4.7h119.5c2.6,0,4.7,2.1,4.7,4.7l0,0
		C377,458.5,374.9,460.6,372.3,460.6z"/>
	<path class="st11" d="M372.2,460.6H252.6c-2.6,0-4.7-2.1-4.7-4.7l0,0c0-2.6,2.1-4.7,4.7-4.7h119.5c2.6,0,4.7,2.1,4.7,4.7l0,0
		C376.9,458.5,374.8,460.6,372.2,460.6z"/>
	<circle class="st5" cx="420.1" cy="455.8" r="7.1"/>
	<g>
		<circle class="st11" cx="396.8" cy="455.9" r="7.1"/>
		<polyline class="st26" points="393.3,456.2 395.6,458.5 400.6,453.5 		"/>
	</g>
	<circle class="st11" cx="420.1" cy="455.9" r="7.1"/>
	<line class="st26" x1="417.2" y1="452.9" x2="423" y2="458.7"/>
	<line class="st26" x1="423" y1="452.9" x2="417.2" y2="458.7"/>
</g>
<g>
	<path class="st29" d="M372.3,437.4H252.7c-2.6,0-4.7-2.1-4.7-4.7l0,0c0-2.6,2.1-4.7,4.7-4.7h119.5c2.6,0,4.7,2.1,4.7,4.7l0,0
		C377,435.2,374.9,437.4,372.3,437.4z"/>
	<path class="st11" d="M372.2,437.4H252.6c-2.6,0-4.7-2.1-4.7-4.7l0,0c0-2.6,2.1-4.7,4.7-4.7h119.5c2.6,0,4.7,2.1,4.7,4.7l0,0
		C376.9,435.2,374.8,437.4,372.2,437.4z"/>
	<circle class="st30" cx="396.8" cy="432.6" r="7.1"/>
	<g>
		<circle class="st11" cx="396.8" cy="432.6" r="7.1"/>
		<polyline class="st26" points="393.3,433 395.6,435.3 400.6,430.2 		"/>
	</g>
	<circle class="st11" cx="420.1" cy="432.6" r="7.1"/>
	<line class="st26" x1="417.2" y1="429.7" x2="423" y2="435.4"/>
	<line class="st26" x1="423" y1="429.7" x2="417.2" y2="435.4"/>
</g>
<g>
	<path class="st28" d="M372.3,507.1H252.7c-2.6,0-4.7-2.1-4.7-4.7l0,0c0-2.6,2.1-4.7,4.7-4.7h119.5c2.6,0,4.7,2.1,4.7,4.7l0,0
		C377,505,374.9,507.1,372.3,507.1z"/>
	<path class="st11" d="M372.2,507.1H252.6c-2.6,0-4.7-2.1-4.7-4.7l0,0c0-2.6,2.1-4.7,4.7-4.7h119.5c2.6,0,4.7,2.1,4.7,4.7l0,0
		C376.9,505,374.8,507.1,372.2,507.1z"/>
	<circle class="st30" cx="396.8" cy="502.3" r="7.1"/>
	<g>
		<circle class="st11" cx="396.8" cy="502.4" r="7.1"/>
		<polyline class="st26" points="393.3,502.7 395.6,505 400.6,500 		"/>
	</g>
	<circle class="st11" cx="420.1" cy="502.4" r="7.1"/>
	<line class="st26" x1="417.2" y1="499.4" x2="423" y2="505.2"/>
	<line class="st26" x1="423" y1="499.4" x2="417.2" y2="505.2"/>
</g>
<g>
	<path class="st29" d="M372.3,483.9H252.7c-2.6,0-4.7-2.1-4.7-4.7l0,0c0-2.6,2.1-4.7,4.7-4.7h119.5c2.6,0,4.7,2.1,4.7,4.7l0,0
		C377,481.7,374.9,483.9,372.3,483.9z"/>
	<path class="st11" d="M372.2,483.9H252.6c-2.6,0-4.7-2.1-4.7-4.7l0,0c0-2.6,2.1-4.7,4.7-4.7h119.5c2.6,0,4.7,2.1,4.7,4.7l0,0
		C376.9,481.7,374.8,483.9,372.2,483.9z"/>
	<circle class="st30" cx="396.8" cy="479.1" r="7.1"/>
	<g>
		<circle class="st11" cx="396.8" cy="479.1" r="7.1"/>
		<polyline class="st26" points="393.3,479.5 395.6,481.8 400.6,476.7 		"/>
	</g>
	<circle class="st11" cx="420.1" cy="479.1" r="7.1"/>
	<line class="st26" x1="417.2" y1="476.2" x2="423" y2="481.9"/>
	<line class="st26" x1="423" y1="476.2" x2="417.2" y2="481.9"/>
</g>
<g>
	<path class="st28" d="M372.3,553.6H252.7c-2.6,0-4.7-2.1-4.7-4.7l0,0c0-2.6,2.1-4.7,4.7-4.7h119.5c2.6,0,4.7,2.1,4.7,4.7l0,0
		C377,551.5,374.9,553.6,372.3,553.6z"/>
	<path class="st11" d="M372.2,553.6H252.6c-2.6,0-4.7-2.1-4.7-4.7l0,0c0-2.6,2.1-4.7,4.7-4.7h119.5c2.6,0,4.7,2.1,4.7,4.7l0,0
		C376.9,551.5,374.8,553.6,372.2,553.6z"/>
	<circle class="st30" cx="396.8" cy="548.8" r="7.1"/>
	<g>
		<circle class="st11" cx="396.8" cy="548.9" r="7.1"/>
		<polyline class="st26" points="393.3,549.2 395.6,551.5 400.6,546.5 		"/>
	</g>
	<circle class="st11" cx="420.1" cy="548.9" r="7.1"/>
	<line class="st26" x1="417.2" y1="545.9" x2="423" y2="551.7"/>
	<line class="st26" x1="423" y1="545.9" x2="417.2" y2="551.7"/>
</g>
<g>
	<path class="st29" d="M372.3,530.4H252.7c-2.6,0-4.7-2.1-4.7-4.7l0,0c0-2.6,2.1-4.7,4.7-4.7h119.5c2.6,0,4.7,2.1,4.7,4.7l0,0
		C377,528.2,374.9,530.4,372.3,530.4z"/>
	<path class="st11" d="M372.2,530.4H252.6c-2.6,0-4.7-2.1-4.7-4.7l0,0c0-2.6,2.1-4.7,4.7-4.7h119.5c2.6,0,4.7,2.1,4.7,4.7l0,0
		C376.9,528.2,374.8,530.4,372.2,530.4z"/>
	<circle class="st5" cx="420.1" cy="525.6" r="7.1"/>
	<g>
		<circle class="st11" cx="396.8" cy="525.6" r="7.1"/>
		<polyline class="st26" points="393.3,526 395.6,528.3 400.6,523.2 		"/>
	</g>
	<circle class="st11" cx="420.1" cy="525.6" r="7.1"/>
	<line class="st26" x1="417.2" y1="522.7" x2="423" y2="528.4"/>
	<line class="st26" x1="423" y1="522.7" x2="417.2" y2="528.4"/>
</g>
<path class="st31" d="M616,670.3c-0.1-11.5-9.6-21-21.2-21H335.3c-11.6,0-21,9.4-21.2,21H616z"/>
<circle class="st28" cx="45.9" cy="348.1" r="32.2"/>
<g>
	<g>
		<g>
			<circle class="st32" cx="30.8" cy="328.4" r="1.5"/>
			<circle class="st32" cx="39.7" cy="328.4" r="1.5"/>
			<circle class="st32" cx="48.6" cy="328.4" r="1.5"/>
			<g>
				<path class="st32" d="M66.1,365.4c0,2.5-2,4.5-4.5,4.5H31.9c-2.5,0-4.5-2-4.5-4.5v-17.8c0-2.5,2-4.5,4.5-4.5h29.7
					c2.5,0,4.5,2,4.5,4.5V365.4z"/>
				<polyline class="st32" points="60.1,350.5 46.7,358 33.4,350.5 				"/>
				<line class="st32" x1="60.1" y1="362.4" x2="51.6" y2="355.3"/>
				<line class="st32" x1="33.4" y1="362.4" x2="41.9" y2="355.3"/>
			</g>
		</g>
	</g>
	<line class="st18" x1="69.2" y1="336.1" x2="23.4" y2="336.1"/>
</g>
<g>
	<g>
		<path class="st28" d="M591.8,240.6l-2.6-15.9l18.2,0l-5.6-24.6c-1-4.3-0.2-8.7,2-12.4c3.3-5.4,7.8-13.4,8.6-18.9l14.5-12.2l0,0
			l7.2,6.9c5,4.8,8.4,11,9.6,17.8l1.3,7c0.6,3.3,0.9,6.6,0.9,10v42.5H591.8z"/>
		<path class="st33" d="M543.3,250.5l-24,67.6l18,6.7l17.2-45.6l12.9-38.1l-10.4,0C551,241.2,545.6,244.9,543.3,250.5z"/>
		<path class="st33" d="M577.7,266h43.5c13.7,0,24.8-11.1,24.8-24.8v0h-78.4c-7.3,0-13.2,5.9-13.2,13.2l2.7,82.7h20.6V266z"/>
		<path class="st34" d="M593.8,133c2.1-1,4.6-0.4,6,1.5l3.4,4.6c1,1.3,2.7,1.7,4.2,1l0.9-2c0.4-0.8,1-1.5,1.8-1.9
			c2-1,4.5,0.2,5.6,2.5c1.1,2.3,0.4,5-1.6,6c-0.4,0.2-0.8,0.3-1.2,0.3l0.5,1.2c0.3,0.7,1,1.2,1.8,1.3l8.3,1.3l3.6,7.6l-14.5,12.2
			l-4.3-9c-0.3-0.6-0.9-0.9-1.6-0.7l-2.6,0.7c-0.9,0.2-1.9,0-2.6-0.7l-3.1-4.8c-0.4-0.4-0.9-0.6-1.4-0.8l-3.4-0.7
			c-0.8-0.2-1.4-1-1.2-1.8l0.4-5.3c-0.4-0.7-0.9-1.4-1.2-2.2c-1.3-2.7-1.8-5.5-1.8-8.3L593.8,133z"/>
		<g>
			<path class="st35" d="M625.4,121.8c2.2-4,6.7-5.9,12.2-3.9c5.6,2,9.5,7.8,9.4,14.8c-0.1,7-5,13.8-4.9,17l0.9,12l-4.2-3.5
				c-3.7-3.1-5.3-7.9-4.2-12.6l0,0c3.8-17.3-6.5-19.7-8.6-19.1l-0.1,0c-0.5-1-1.1-1.9-1.7-2.7C624.5,123.3,625,122.7,625.4,121.8z"
				/>
			<path class="st35" d="M600.4,118.6c8.1-3.8,18.4-1.7,23.7,5.1c0.7,0.8,1.2,1.8,1.7,2.7c0.1,0.2,0.2,0.3,0.2,0.4
				c2.9,6.1,1.3,13.3-2.3,18.6c-0.7,1-0.8,2.2-0.3,3.3v0l-8.3-1.3c-0.8-0.1-1.4-0.6-1.8-1.3l-0.5-1.2c0.4,0,0.8-0.1,1.2-0.3
				c2-1,2.7-3.6,1.6-6c-1.1-2.3-3.6-3.5-5.6-2.5c-0.8,0.4-1.4,1.1-1.8,1.9l-0.9,2c-1.5,0.7-3.2,0.3-4.2-1l-3.4-4.6
				c-1.4-1.9-3.9-2.5-6-1.5l-4,1.9C590,128.1,593.9,121.7,600.4,118.6z"/>
		</g>
		<path class="st36" d="M560.7,241.3h32c1.4,0,2.5-1.1,2.5-2.5c0-1.4-1.1-2.5-2.5-2.5h-30.3l-10.7-28c-0.5-1.3-2-2-3.3-1.5
			c-1.3,0.5-2,2-1.5,3.3l11.3,29.7C558.7,240.7,559.7,241.3,560.7,241.3z"/>
		<path class="st34" d="M590,228.4h-10.9c-4.1,0-7.5,3.3-7.5,7.5l0,0h19.3L590,228.4z"/>
		<path class="st37" d="M559,337.1c-2.6,5-8.7,6.1-12.6,6.4l-1.8,0.1c-4.6,0.4-8.1,4.2-8.1,8.8v0.6h37.5v-15.9L559,337.1z"/>
		<path class="st37" d="M521.3,318.8c-4.3,3.7-10.3,2.6-14.1,1.4l-1.8-0.5c-4.4-1.3-9.1,1-10.8,5.3l-0.2,0.5l35,13.5l5.7-14.8
			L521.3,318.8z"/>
	</g>
	<g>
		<path class="st11" d="M646.1,241v-43c0-3.4-0.3-6.7-0.9-10l-1.3-7c-1.2-6.8-4.6-13-9.6-17.8l-7.2-6.9"/>
		<path class="st11" d="M592.5,150.7l0.4-5.3c-0.4-0.7-0.9-1.4-1.2-2.2c-4.4-9.2-0.4-20.3,8.8-24.6c9.2-4.4,21.3-0.9,25.7,8.3
			c2.9,6.1,1.3,13.3-2.3,18.6c-0.7,1-0.8,2.3-0.3,3.3l3.6,7.6l-14.5,12.2l-4.3-9c-0.3-0.6-0.9-0.9-1.6-0.7l-2.6,0.7
			c-0.9,0.2-1.9,0-2.6-0.7l-3.1-4.8c-0.4-0.4-0.9-0.6-1.4-0.8l-3.4-0.7C592.9,152.4,592.3,151.6,592.5,150.7z"/>
		<path class="st11" d="M589.9,135l3.9-1.9c2.1-1,4.6-0.4,6,1.5l3.4,4.6c1,1.3,2.7,1.7,4.2,1l0,0l0.9-2c0.4-0.8,1-1.5,1.8-1.9
			c2-1,4.5,0.2,5.6,2.5c1.1,2.3,0.4,5-1.6,6c-0.4,0.2-0.8,0.3-1.2,0.3l0.5,1.2c0.3,0.7,1,1.2,1.8,1.3l8.4,1.4"/>
		<path class="st11" d="M624.2,123.7c0.4-0.4,0.8-1.1,1.3-1.9c2.2-4,6.7-5.9,12.2-3.9c5.6,2,9.5,7.8,9.4,14.8c-0.1,7-5,13.8-4.9,17
			l0.9,12l-4.2-3.5c-3.7-3.1-5.3-7.9-4.2-12.6v0c3.8-17.3-6.5-19.7-8.6-19.1"/>
		<path class="st11" d="M591.9,241.2H622c6.3,0,11.4-5.1,11.4-11.4v-35.7"/>
		<path class="st11" d="M625.3,179.7L625.3,179.7c-5.3,0-9.6,4.3-9.6,9.6v34c0,0.9-0.7,1.6-1.6,1.6h-24.8l1.8,11.2"/>
		<path class="st11" d="M612.6,168.6c-0.8,5.4-5.3,13.5-8.6,18.9c-2.3,3.7-3,8.2-2,12.4l5.6,24.8"/>
		<path class="st11" d="M560.8,241.2h32c1.4,0,2.5-1.1,2.5-2.5c0-1.4-1.1-2.5-2.5-2.5h-30.3l-10.7-28c-0.5-1.3-2-2-3.3-1.5
			c-1.3,0.5-2,2-1.5,3.3l11.3,29.7C558.8,240.5,559.7,241.2,560.8,241.2z"/>
		<path class="st11" d="M590,228.6h-10.9c-4.1,0-7.5,3.3-7.5,7.5l0,0H591"/>
		<g>
			<path class="st11" d="M577.7,266h43.5c13.7,0,24.8-11.1,24.8-24.8v0h-78.4c-7.3,0-13.2,5.9-13.2,13.2l2.7,82.7h20.6v-82"/>
			<path class="st11" d="M573.8,337.1V353h-37.5v-0.6c0-4.6,3.5-8.5,8.1-8.8l1.8-0.1c3.9-0.3,9.9-1.4,12.6-6.4"/>
		</g>
		<g>
			<path class="st11" d="M567.7,241.2l-10.4,0c-6,0-11.4,3.7-13.7,9.3l-24.3,67.6l17.5,7.2l18.4-47"/>
			<path class="st11" d="M535.2,324.2l-5.7,14.8l-35-13.5l0.2-0.5c1.7-4.3,6.4-6.6,10.8-5.3l1.8,0.5c3.7,1.1,9.8,2.3,14.1-1.4"/>
		</g>
	</g>
</g>
<g>
	<g>
		<line class="st26" x1="932.4" y1="670.3" x2="197.4" y2="670.3"/>
		<line class="st26" x1="654.8" y1="682.6" x2="762.1" y2="682.6"/>
		<line class="st26" x1="515.6" y1="682.6" x2="636.3" y2="682.6"/>
		<line class="st26" x1="420.9" y1="695.5" x2="581.5" y2="695.5"/>
		<line class="st26" x1="598.5" y1="695.5" x2="670.7" y2="695.5"/>
		<line class="st26" x1="347.5" y1="695.5" x2="404.2" y2="695.5"/>
		<line class="st26" x1="443.8" y1="682.6" x2="497.4" y2="682.6"/>
		<line class="st26" x1="399.4" y1="682.6" x2="426.8" y2="682.6"/>
		<line class="st26" x1="283.5" y1="682.6" x2="380.2" y2="682.6"/>
	</g>
</g>
<g>
	<path class="st7" d="M849.5,579.9v85.5c0,2.7-2.2,4.8-4.8,4.8H683.8c-2.7,0-4.8-2.2-4.8-4.8v-85.5c0-2.7,2.2-4.8,4.8-4.8h160.9
		C847.3,575.1,849.5,577.3,849.5,579.9z"/>
	<path class="st38" d="M854.8,579.9v85.5c0,2.7-2.2,4.8-4.8,4.8H689.1c-2.7,0-4.8-2.2-4.8-4.8v-85.5c0-2.7,2.2-4.8,4.8-4.8H850
		C852.7,575.1,854.8,577.3,854.8,579.9z"/>
	<path class="st25" d="M830,585.8v73.7c0,1.5-1.3,2.8-2.8,2.8H702c-1.5,0-2.8-1.3-2.8-2.8v-73.7c0-1.5,1.3-2.8,2.8-2.8h125.2
		C828.7,583.1,830,584.3,830,585.8z"/>
	<g>
		<line class="st11" x1="691.8" y1="626.5" x2="691.8" y2="612"/>
		<line class="st11" x1="691.8" y1="633.3" x2="691.8" y2="631.7"/>
	</g>
	<circle class="st11" cx="841.9" cy="622.7" r="5.9"/>
</g>
<g>
	<path class="st39" d="M874.9,552.6l8.9-24c1.2-3.2,1.2-6.8-0.1-10l-15.6-40.4c-2.1-5.4-7.3-9-13.2-9h-47.2c-5.8,0-11.1,3.6-13.2,9
		L779,518.6c-1.2,3.2-1.3,6.8-0.1,10l8.9,24H874.9"/>
	<path class="st11" d="M813.3,469.1h-5.7c-5.8,0-11.1,3.6-13.2,9l-15.6,40.4c-1.2,3.2-1.3,6.8-0.1,10l8.9,24h87.1"/>
	<path class="st11" d="M874.8,552.6l8.9-24c1.2-3.2,1.2-6.8-0.1-10L868,478.2c-2.1-5.4-7.3-9-13.2-9h-7.6"/>
	<polygon class="st39" points="830.5,479 825.9,485 811.1,471.4 817,465.7 844.3,465.6 850.2,472.1 835.2,485 	"/>
	<polyline class="st11" points="830.6,479 835.2,485 850.2,472.1 844.3,465.6 	"/>
	<polyline class="st11" points="817,465.7 811.1,471.4 825.9,485 830.5,479 	"/>
	<path class="st34" d="M810.5,541.2h-11c-5.6,0-10.2,4.6-10.2,10.2l0,0h21.8L810.5,541.2z"/>
	<path class="st34" d="M851.5,541.2h11c5.6,0,10.2,4.6,10.2,10.2l0,0h-21.8L851.5,541.2z"/>
	<path class="st11" d="M872.6,551.4L872.6,551.4c0-5.6-4.6-10.2-10.2-10.2h-11"/>
	<line class="st11" x1="796.1" y1="518.7" x2="804.1" y2="539"/>
	<line class="st11" x1="866.8" y1="517.3" x2="859" y2="538.5"/>
	<path class="st37" d="M869.8,670.1h41.3v-4.5c0-4.1-3.4-7.5-7.5-7.5h-31.5c-1.3,0-2.3,1-2.3,2.3V670.1z"/>
	<path class="st37" d="M781.1,645.1h29.3v-7.2c0-2.8-2.2-5-5-5h-19.3c-2.8,0-5,2.2-5,5V645.1z"/>
	<path class="st11" d="M869.9,670.3h41.3v-4.7c0-4.1-3.4-7.5-7.5-7.5h-31.5c-1.3,0-2.3,1-2.3,2.3V670.3z"/>
	<path class="st11" d="M781.1,645.1h29.3v-7.2c0-2.8-2.2-5-5-5h-19.3c-2.8,0-5,2.2-5,5V645.1z"/>
	<path class="st34" d="M844.3,440.2v25c0,7.6-6.1,13.7-13.7,13.7l0,0c-7.6,0-13.7-6.1-13.7-13.7v-4.4c-0.2-0.4,0-20.6,0-20.6H844.3z
		"/>
	<path class="st40" d="M826.6,508.4v-18.9c0-0.9,0.8-1.7,1.7-1.7h5.1c0.9,0,1.7,0.8,1.7,1.7v18.9"/>
	<circle class="st40" cx="830.7" cy="484.4" r="3.3"/>
	<path class="st41" d="M835.5,441.6v1.9c0,4.2-3.4,7.6-7.6,7.6h-7.3c-2,0-3.6,1.6-3.6,3.6v7.1l0,0c-2.3,0-4.2-1.9-4.2-4.2v-14.9l0,0
		c0-7.3,5.9-13.2,13.2-13.2h2.9c3.7,0,6.7,3.1,6.7,6.8L835.5,441.6z"/>
	<path class="st41" d="M839.1,432.1l1,0c4.5,0.6,7.8,4.5,7.8,9.1V453c0,2-1.6,3.7-3.7,3.7v-1.8c0-3-2.4-5.4-5.4-5.4h-0.5
		c-1.6,0-2.9-1.3-2.9-2.9v-11.4C835.6,433.3,837.3,431.9,839.1,432.1z"/>
	<path class="st11" d="M844.3,455.5v9.8c0,7.6-6.1,13.7-13.7,13.7l0,0c-7.6,0-13.7-6.1-13.7-13.7v-4.4c-0.2-0.4,0-2,0-2"/>
	<path class="st11" d="M835.5,441.6v1.9c0,4.2-3.4,7.6-7.6,7.6h-7.3c-2,0-3.6,1.6-3.6,3.6v7.1l0,0c-2.3,0-4.2-1.9-4.2-4.2v-14.9l0,0
		c0-7.3,5.9-13.2,13.2-13.2h2.9c3.7,0,6.7,3.1,6.7,6.8L835.5,441.6z"/>
	<path class="st11" d="M839.1,432.1l1,0c4.5,0.6,7.8,4.5,7.8,9.1V453c0,2-1.6,3.7-3.7,3.7v-1.8c0-3-2.4-5.4-5.4-5.4h-0.5
		c-1.6,0-2.9-1.3-2.9-2.9v-11.4C835.6,433.3,837.3,431.9,839.1,432.1z"/>
	<path class="st11" d="M789.2,551.4L789.2,551.4c0-5.6,4.6-10.2,10.2-10.2h11"/>
	<path class="st42" d="M881.4,559.9c-0.6-5.1-4.9-8.9-10.1-8.9h-79.1c-5.1,0-9.3,4.2-9.1,9.4l2.3,72.5h19.8l2.5-57.6h52l11.9,82.8
		h19.8L881.4,559.9z"/>
	<path class="st11" d="M859.3,571.2l12.5,86.9h19.8l-10.2-98.2c-0.6-5.1-4.9-8.9-10.1-8.9h-79.1c-5.1,0-9.3,4.2-9.1,9.4l2.3,72.5
		h19.8l2.7-62.6"/>
	<line class="st11" x1="807.8" y1="575.2" x2="859.8" y2="575.2"/>
	<path class="st12" d="M802.6,550.8h57.7c1.6,0,2.9-1.3,2.9-2.9v-36.8c0-1.6-1.3-2.9-2.9-2.9h-57.7c-1.6,0-2.9,1.3-2.9,2.9V548
		C799.7,549.5,801,550.8,802.6,550.8z"/>
	<path class="st11" d="M826.5,508.4v-18.9c0-0.9,0.8-1.7,1.7-1.7h5.1c0.9,0,1.7,0.8,1.7,1.7v18.9"/>
	<circle class="st11" cx="830.6" cy="484.4" r="3.3"/>
</g>
<g>
	<rect x="146.3" y="327.1" class="st43" width="228.1" height="75.1"/>
	<rect x="146.2" y="327" class="st11" width="228.1" height="75.1"/>
	<g>
		<path class="st28" d="M292.1,380.6H172.6c-2.6,0-4.7-2.1-4.7-4.7l0,0c0-2.6,2.1-4.7,4.7-4.7h119.5c2.6,0,4.7,2.1,4.7,4.7l0,0
			C296.8,378.5,294.7,380.6,292.1,380.6z"/>
		<path class="st11" d="M292,380.6H172.5c-2.6,0-4.7-2.1-4.7-4.7l0,0c0-2.6,2.1-4.7,4.7-4.7H292c2.6,0,4.7,2.1,4.7,4.7l0,0
			C296.7,378.5,294.6,380.6,292,380.6z"/>
		<circle class="st5" cx="340" cy="375.8" r="7.1"/>
		<g>
			<circle class="st11" cx="316.7" cy="375.9" r="7.1"/>
			<polyline class="st26" points="313.1,376.2 315.4,378.5 320.5,373.5 			"/>
		</g>
		<circle class="st11" cx="339.9" cy="375.9" r="7.1"/>
		<line class="st26" x1="337.1" y1="372.9" x2="342.8" y2="378.7"/>
		<line class="st26" x1="342.8" y1="372.9" x2="337.1" y2="378.7"/>
	</g>
	<g>
		<path class="st29" d="M292.1,357.4H172.6c-2.6,0-4.7-2.1-4.7-4.7l0,0c0-2.6,2.1-4.7,4.7-4.7h119.5c2.6,0,4.7,2.1,4.7,4.7l0,0
			C296.8,355.2,294.7,357.4,292.1,357.4z"/>
		<path class="st11" d="M292,357.4H172.5c-2.6,0-4.7-2.1-4.7-4.7l0,0c0-2.6,2.1-4.7,4.7-4.7H292c2.6,0,4.7,2.1,4.7,4.7l0,0
			C296.7,355.2,294.6,357.4,292,357.4z"/>
		<circle class="st30" cx="316.7" cy="352.6" r="7.1"/>
		<g>
			<circle class="st11" cx="316.7" cy="352.6" r="7.1"/>
			<polyline class="st26" points="313.1,353 315.4,355.3 320.5,350.2 			"/>
		</g>
		<circle class="st11" cx="339.9" cy="352.6" r="7.1"/>
		<line class="st26" x1="337.1" y1="349.7" x2="342.8" y2="355.4"/>
		<line class="st26" x1="342.8" y1="349.7" x2="337.1" y2="355.4"/>
	</g>
</g>
<path class="st1" d="M700,146.8c-19.3-19.3-19.3-50.7,0-70"/>
<path class="st1" d="M770,76.8c19.3,19.3,19.3,50.7,0,70"/>
<g>
	<line class="st4" x1="795.7" y1="250.3" x2="813.3" y2="250.3"/>
	<line class="st4" x1="856.4" y1="250.3" x2="904.2" y2="250.3"/>
	<line class="st4" x1="821.3" y1="250.3" x2="849.4" y2="250.3"/>
</g>
<g>
	<line class="st4" x1="795.7" y1="261.8" x2="813.3" y2="261.8"/>
	<line class="st4" x1="821.3" y1="261.8" x2="904.2" y2="261.8"/>
</g>
<g>
	<line class="st4" x1="795.7" y1="273.4" x2="813.3" y2="273.4"/>
	<line class="st4" x1="821.3" y1="273.4" x2="904.5" y2="273.4"/>
</g>
<g>
	<line class="st4" x1="795.7" y1="284.9" x2="813.3" y2="284.9"/>
	<line class="st4" x1="821.3" y1="284.9" x2="889.6" y2="284.9"/>
</g>
<g>
	<line class="st4" x1="795.7" y1="296.5" x2="813.3" y2="296.5"/>
	<line class="st4" x1="821.3" y1="296.5" x2="904.2" y2="296.5"/>
</g>
<polyline class="st4" points="784,255.2 779.1,250.3 784,245.4 "/>
<g>
	<line class="st4" x1="795.7" y1="308" x2="891.2" y2="308"/>
	<polyline class="st4" points="910.6,303.1 915.5,308 910.6,312.9 	"/>
	<line class="st4" x1="906.3" y1="303.6" x2="900.6" y2="312.5"/>
</g>
<path class="st1" d="M784.3,111.7h51.6c9.4,0,16.9,7.6,16.9,16.9v118.2"/>
<circle class="st4" cx="852.9" cy="250.3" r="3.6"/>
<circle class="st2" cx="784.5" cy="111.7" r="1.8"/>
<circle class="st1" cx="448.9" cy="156.5" r="3.6"/>
<circle class="st18" cx="275.8" cy="622.5" r="3.6"/>
<circle class="st29" cx="883.8" cy="396" r="32.2"/>
<g>
	<line class="st6" x1="858.3" y1="388.4" x2="909.5" y2="388.4"/>
	<circle class="st6" cx="866.1" cy="382.8" r="1.1"/>
	<circle class="st6" cx="872.8" cy="382.8" r="1.1"/>
	<circle class="st6" cx="879.5" cy="382.8" r="1.1"/>
	<rect x="865" y="395.1" class="st6" width="15.6" height="15.6"/>
	<polygon class="st6" points="865,410.7 874,399.6 880.6,410.7 	"/>
	<rect x="887.2" y="395.1" class="st6" width="15.6" height="15.6"/>
	<polygon class="st6" points="887.2,410.7 896.2,399.6 902.8,410.7 	"/>
</g>
<g>
	<path class="st11" d="M138.7,388.2"/>
	<path class="st34" d="M148.6,364.5c-0.9-0.4-1.9-0.2-2.9,0.8v-10.5l-6.6,7.7c-0.9,1.1-1.5,2.5-1.5,3.9v9.2l5.3,4.9l1.5-1.9
		l5.3-11.2C150.2,366.4,149.7,365,148.6,364.5z"/>
	<path class="st34" d="M220.1,413.8l6.2-4.4l10-2l3.1-4.7H231h-12.4c-1.7,0-3.2,1.2-3.9,2.8l-2.8,6.4L220.1,413.8z"/>
	<path class="st11" d="M137.6,373.6v-7.1c0-1.4,0.5-2.8,1.5-3.9l7-8.1"/>
	<path class="st11" d="M138.8,388.2"/>
	<path class="st11" d="M142.5,372.2l3.2-6.6c0.5-1.1,1.9-1.6,3-1.1l0,0c1.1,0.5,1.6,1.9,1.1,3l-5.3,11.2"/>
	<path class="st11" d="M240,402.1l-2.9,4.1c-0.5,0.8-1.3,1.3-2.3,1.5l-7.5,1.4c-0.5,0.1-1,0.3-1.5,0.6l-5,3.5"/>
	<path class="st29" d="M102.6,472.8l-0.4-57.2c0-3.7,1.4-7.3,3.9-10.1l30.4-32.7l9.1,6.6l-26.6,33.8l4.9,49.6L102.6,472.8z"/>
	<path class="st44" d="M123.6,445.9c11,9.9,23.3-0.5,23.3-0.5l-3-32.5l-21.8,1.9L123.6,445.9z"/>
	<polyline class="st44" points="137.9,449.7 137.9,460.1 117.1,460.1 117.1,442.6 	"/>
	<polygon class="st28" points="126.8,586.5 112.9,682.5 90.5,682.5 102.5,542.8 161.2,542.8 161.2,682.4 140.5,682.4 131.1,597.6 	
		"/>
	<path class="st29" d="M117.8,457.4h38.2l30.7-5.9c2-0.6,3.6-2,4.6-3.8l19-37.9l12,3.9l-16.8,43c-1.7,4.8-5.4,8.5-10.2,10.3
		l-34,11.7l-3,54.4l3,9.8h-58.7v-70.3C102.5,464.2,109.4,457.4,117.8,457.4z"/>
	<path class="st37" d="M157.6,682.5c2.6,5,8.6,6.1,12.5,6.4l1.8,0.1c4.6,0.4,8.1,4.2,8.1,8.8v0.6h-37.2v-15.8L157.6,682.5z"/>
	<path class="st37" d="M93.6,682.5l-1.8,15.8h39.1v-0.6c0-4.6-3.5-8.4-8.1-8.8l-1.8-0.1c-3.9-0.3-9.9-1.4-12.5-6.4L93.6,682.5z"/>
	<path class="st45" d="M150.6,408.5L150.6,408.5c0.3,3.5-2.3,6.7-5.8,7l-6.8,0.6c-3.5,0.3-6.2,3.5-5.8,7l1,11.1
		c0.6,6.3-4,11.8-10.3,12.4h0c-6.3,0.6-11.8-4-12.4-10.3l-1.8-19.4c-0.6-6,3.9-11.4,9.9-11.9l24.9-2.3
		C147.1,402.3,150.3,404.9,150.6,408.5z"/>
	<path class="st11" d="M126.8,586.5l-13.9,96H90.6l12-139.6h58.7v139.5h-20.7l-8.3-78.6c-0.3-2.8-1-5.5-2-8l-8.8-22.4"/>
	<polyline class="st11" points="161.2,478.7 158.4,533.4 161.3,543 	"/>
	<path class="st11" d="M102.5,543v-70.3c0-8.4,6.8-15.3,15.3-15.3H156l30.7-5.9c2-0.6,3.6-2,4.6-3.8l19-37.9l12,3.9l-16.8,43
		c-1.7,4.8-5.4,8.5-10.2,10.3l-41.8,14.4"/>
	<path class="st11" d="M102.6,472.8l-0.4-57.2c0-3.8,1.4-7.4,3.9-10.1l30.3-32.7l9.1,6.6l-19.6,25"/>
	<g>
		<path class="st11" d="M150.6,408.5L150.6,408.5c0.3,3.5-2.3,6.7-5.8,7l-6.8,0.6c-3.5,0.3-6.2,3.5-5.8,7l1,11.1
			c0.6,6.3-4,11.8-10.3,12.4h0c-6.3,0.6-11.8-4-12.4-10.3l-1.8-19.4c-0.6-6,3.9-11.4,9.9-11.9l24.9-2.3
			C147.1,402.3,150.3,404.9,150.6,408.5z"/>
		<path class="st11" d="M144.1,415.6l2.8,29.8c0,0-11.8,9.3-21.8,0.7"/>
		<path class="st11" d="M132.2,423.2l18.9-1.8c0,0,1.3,6.3-5.7,8.6"/>
	</g>
	<line class="st11" x1="138" y1="457.4" x2="138" y2="449.7"/>
	<line class="st11" x1="117.1" y1="445.6" x2="117.1" y2="457.1"/>
	<path class="st11" d="M142.8,682.5v15.8H180v-0.6c0-4.6-3.5-8.4-8.1-8.8l-1.8-0.1c-3.9-0.3-9.9-1.4-12.5-6.4"/>
	<path class="st11" d="M93.6,682.5l-1.9,15.8h39.1v-0.6c0-4.6-3.5-8.4-8.1-8.8l-1.8-0.1c-3.9-0.3-9.9-1.4-12.5-6.4"/>
	<path class="st46" d="M213.3,410.6"/>
	<path class="st11" d="M212.7,410.5l2.6-6c0.6-1.4,2-2.3,3.6-2.3"/>
</g>
<circle class="st43" cx="879.8" cy="90.6" r="2.1"/>
<circle class="st8" cx="414.5" cy="245" r="2.1"/>
<circle class="st8" cx="661.2" cy="235.8" r="2.1"/>
<circle class="st43" cx="23.9" cy="455.1" r="2.1"/>
<circle class="st43" cx="908.5" cy="463.8" r="2.1"/>
<ellipse class="st8" cx="662.3" cy="115.5" rx="2.2" ry="0.2"/>
<circle class="st43" cx="71.9" cy="112.6" r="2.5"/>
<g>
	<path class="st29" d="M97.3,383.3H90c-0.6,0-1-0.4-1-1s0.4-1,1-1h7.3c0.6,0,1,0.4,1,1S97.9,383.3,97.3,383.3z"/>
	<path class="st29" d="M93.7,387c-0.6,0-1-0.4-1-1v-7.3c0-0.6,0.4-1,1-1s1,0.4,1,1v7.3C94.7,386.6,94.2,387,93.7,387z"/>
</g>
<g>
	<path class="st29" d="M772.7,414h-7.3c-0.6,0-1-0.4-1-1s0.4-1,1-1h7.3c0.6,0,1,0.4,1,1S773.2,414,772.7,414z"/>
	<path class="st29" d="M769,417.7c-0.6,0-1-0.4-1-1v-7.3c0-0.6,0.4-1,1-1s1,0.4,1,1v7.3C770,417.3,769.6,417.7,769,417.7z"/>
</g>
<g>
	<path class="st29" d="M492.2,130.2h-7.3c-0.6,0-1-0.4-1-1s0.4-1,1-1h7.3c0.6,0,1,0.4,1,1S492.7,130.2,492.2,130.2z"/>
	<path class="st29" d="M488.5,133.9c-0.6,0-1-0.4-1-1v-7.3c0-0.6,0.4-1,1-1s1,0.4,1,1v7.3C489.5,133.5,489,133.9,488.5,133.9z"/>
</g>
<g>
	<path class="st29" d="M255.6,222.8h-7.3c-0.6,0-1-0.4-1-1s0.4-1,1-1h7.3c0.6,0,1,0.4,1,1S256.1,222.8,255.6,222.8z"/>
	<path class="st29" d="M251.9,226.4c-0.6,0-1-0.4-1-1v-7.3c0-0.6,0.4-1,1-1s1,0.4,1,1v7.3C252.9,226,252.5,226.4,251.9,226.4z"/>
</g>
<path class="st47" d="M76.6,277.3h-6.3l-3.1-5.4l3.1-5.4h6.3l3.1,5.4L76.6,277.3z M71.2,275.8h4.5l2.3-3.9l-2.3-3.9h-4.5l-2.3,3.9
	L71.2,275.8z"/>
<path class="st47" d="M812.2,335.8h-6.3l-3.1-5.4l3.1-5.4h6.3l3.1,5.4L812.2,335.8z M806.8,334.3h4.5l2.3-3.9l-2.3-3.9h-4.5
	l-2.3,3.9L806.8,334.3z"/>
<path class="st47" d="M497.3,229.3h-6.3l-3.1-5.4l3.1-5.4h6.3l3.1,5.4L497.3,229.3z M491.9,227.8h4.5l2.3-3.9l-2.3-3.9h-4.5
	l-2.3,3.9L491.9,227.8z"/>
<path class="st47" d="M213.3,645.5H207l-3.1-5.4l3.1-5.4h6.3l3.1,5.4L213.3,645.5z M207.9,644h4.5l2.3-3.9l-2.3-3.9h-4.5l-2.3,3.9
	L207.9,644z"/>
<circle class="st5" cx="175.7" cy="175.8" r="5.2"/>
</svg>
