<?xml version="1.0" encoding="utf-8"?>
<!-- Generator: Adobe Illustrator 22.1.0, SVG Export Plug-In . SVG Version: 6.00 Build 0)  -->
<svg version="1.1" id="Layer_716521" xmlns="http://www.w3.org/2000/svg" xmlns:xlink="http://www.w3.org/1999/xlink" x="0px" y="0px"
	 viewBox="0 0 936 792" style="enable-background:new 0 0 936 792;" xml:space="preserve">
<style type="text/css">
	.st0{fill:#11578D;}
	.st1{opacity:0.17;fill:#3B3B3B;}
	.st2{fill:#FFFFFF;}
	.st3{fill:none;stroke:#A3A3A3;stroke-width:5;stroke-miterlimit:10;}
	.st4{fill:none;stroke:#A3A3A3;stroke-miterlimit:10;}
	.st5{fill-rule:evenodd;clip-rule:evenodd;fill:none;stroke:#A3A3A3;stroke-miterlimit:10;}
	.st6{fill:#FFFFFF;stroke:#A3A3A3;stroke-miterlimit:10;}
	.st7{opacity:0.6;fill:#1776BF;}
	.st8{fill:none;stroke:#000000;stroke-miterlimit:10;}
	.st9{fill:#BAD80A;}
	.st10{fill:none;stroke:#000000;stroke-linecap:round;stroke-linejoin:round;stroke-miterlimit:10;}
	.st11{fill:#FF5C66;}
	.st12{opacity:0.6;fill:#1776BF;stroke:#FFFFFF;stroke-miterlimit:10;}
	.st13{fill:none;stroke:#FFFFFF;stroke-miterlimit:10;}
	.st14{fill:#FF5C66;stroke:#FFFFFF;stroke-miterlimit:10;}
	.st15{fill:none;stroke:#FFFFFF;stroke-linecap:round;stroke-linejoin:round;stroke-miterlimit:10;}
	.st16{fill:none;stroke:#FFFFFF;stroke-linejoin:round;stroke-miterlimit:10;}
	.st17{fill:none;stroke:#E5E8EC;stroke-miterlimit:10;}
	.st18{opacity:0.32;}
	.st19{fill:none;stroke:#808080;stroke-linecap:round;stroke-linejoin:round;stroke-miterlimit:10;}
	.st20{fill:none;stroke:#808080;stroke-miterlimit:10;}
	.st21{fill:#FFFFFF;stroke:#808080;stroke-miterlimit:10;}
	.st22{fill-rule:evenodd;clip-rule:evenodd;fill:#C2D500;}
	.st23{fill-rule:evenodd;clip-rule:evenodd;fill:#FEFEFE;}
	.st24{fill-rule:evenodd;clip-rule:evenodd;fill:#FF4D00;}
	.st25{fill-rule:evenodd;clip-rule:evenodd;fill:#0899CC;}
	.st26{fill-rule:evenodd;clip-rule:evenodd;fill:#1A8BE2;}
	.st27{fill-rule:evenodd;clip-rule:evenodd;fill:#7BCAEF;}
	.st28{fill:none;stroke:#0899CC;stroke-linecap:round;stroke-linejoin:round;stroke-miterlimit:10;}
	.st29{fill:none;stroke:#0C3B60;stroke-miterlimit:10;}
	.st30{fill:none;stroke:#1A8BE2;stroke-miterlimit:10;}
	.st31{fill:none;stroke:#FFFFFF;stroke-linejoin:round;}
	.st32{fill:none;stroke:#FFFFFF;stroke-linecap:round;stroke-linejoin:round;}
	.st33{fill:none;stroke:#11578D;stroke-miterlimit:10;}
	.st34{fill:none;stroke:#8A8A8A;stroke-miterlimit:10;}
	.st35{fill:#D1D1D1;}
	.st36{fill:#1A8BE2;}
	.st37{fill:#0899CC;}
	.st38{fill:#7BCAEF;}
	.st39{fill:#C2C2C2;}
	.st40{fill:#C2D500;}
	.st41{fill:#0C3B60;}
	.st42{fill:none;stroke:#FFFFFF;stroke-width:5;stroke-miterlimit:10;}
</style>
<path class="st0" d="M661.7,137.4l-6.2-3.6c-75.9-44.7-188.6-22.6-258.1,50.6l0,0c-16.5,17.4-38.7,29.8-62.3,34.9l-30,6.5
	C201.6,248.1,127.8,344,148,430.2l37.5,160.6c13.3,56.8,90.4,73.3,147.5,31.5l0,0c29.4-21.5,66.9-28.9,98-19.2l68.6,21.2
	c63.8,19.7,141.5,1.9,198.6-45.6l32.6-27.1c68.7-57.2,60.6-149-15.3-174.2l0,0c-49.3-16.4-64.7-69.7-33.4-115.7l0,0
	C713.2,216,704.4,162.6,661.7,137.4z"/>
<path class="st1" d="M329,183.6c-0.6-24.4-20.6-44.1-45.2-44.1c-14.3,0-27,6.6-35.2,16.9c-3.4-6.2-9.9-10.4-17.5-10.4
	c-9.3,0-17.1,6.4-19.3,15.1c-3-1.2-6.2-1.9-9.6-1.9c-5.1,0-9.9,1.5-13.9,4.2c-5.7-5.7-13.7-9.3-22.4-9.3c-13.4,0-24.8,8.3-29.5,20
	c-2.8-3-6.8-4.8-11.1-4.8c-8.1,0-14.7,6.3-15.3,14.2H329z"/>
<path class="st1" d="M20.1,489c0.5-19.3,16.2-34.8,35.6-34.8c11.2,0,21.3,5.2,27.8,13.4c2.6-4.9,7.8-8.2,13.8-8.2
	c7.4,0,13.5,5.1,15.2,11.9c2.3-0.9,4.9-1.5,7.5-1.5c4.1,0,7.8,1.2,11,3.3c4.5-4.5,10.8-7.3,17.7-7.3c10.6,0,19.6,6.5,23.3,15.8
	c2.2-2.3,5.3-3.8,8.8-3.8c6.4,0,11.6,5,12.1,11.2H20.1z"/>
<path class="st1" d="M721.1,213.7c0.4-16.7,14.1-30.1,30.9-30.1c9.7,0,18.4,4.5,24.1,11.6c2.3-4.2,6.8-7.1,11.9-7.1
	c6.4,0,11.7,4.4,13.2,10.3c2-0.8,4.2-1.3,6.5-1.3c3.5,0,6.8,1,9.5,2.8c3.9-3.9,9.3-6.3,15.3-6.3c9.1,0,17,5.7,20.2,13.7
	c1.9-2,4.6-3.3,7.6-3.3c5.5,0,10.1,4.3,10.5,9.7H721.1z"/>
<path class="st1" d="M307.8,656.3c0.4-16.7,14.1-30.1,30.9-30.1c9.7,0,18.4,4.5,24.1,11.6c2.3-4.2,6.8-7.1,11.9-7.1
	c6.4,0,11.7,4.4,13.2,10.3c2-0.8,4.2-1.3,6.5-1.3c3.5,0,6.8,1,9.5,2.8c3.9-3.9,9.3-6.3,15.3-6.3c9.1,0,17,5.7,20.2,13.7
	c1.9-2,4.6-3.3,7.6-3.3c5.5,0,10.1,4.3,10.5,9.7H307.8z"/>
<path class="st1" d="M763.7,379.8c-0.4-15.8-13.3-28.4-29.1-28.4c-9.2,0-17.4,4.3-22.7,10.9c-2.2-4-6.4-6.7-11.3-6.7
	c-6,0-11.1,4.2-12.4,9.7c-1.9-0.8-4-1.2-6.2-1.2c-3.3,0-6.4,1-9,2.7c-3.7-3.7-8.8-6-14.5-6c-8.6,0-16,5.3-19,12.9
	c-1.8-1.9-4.4-3.1-7.2-3.1c-5.2,0-9.5,4.1-9.9,9.2H763.7z"/>
<circle class="st2" cx="461.2" cy="403.5" r="90.9"/>
<g>
	<g>
		<g>
			<circle class="st3" cx="170.4" cy="523.4" r="26.9"/>
			<circle class="st3" cx="170.6" cy="282.6" r="15.9"/>
			<circle class="st3" cx="341" cy="112.5" r="15.9"/>
			<circle class="st3" cx="340" cy="693.6" r="18"/>
			<circle class="st3" cx="580.9" cy="694.9" r="25.7"/>
			<circle class="st3" cx="752" cy="283.6" r="27.3"/>
			<circle class="st3" cx="751.6" cy="524.7" r="15.8"/>
		</g>
		<g>
			<path class="st4" d="M465.1,603.9"/>
			<path class="st5" d="M277.2,361.6c0,0,0.1,0,0.1-0.1c22.7-11,32.6-38.1,22.5-61"/>
			<path class="st5" d="M236.4,277c0,0-0.1,0-0.1,0.1c-23.3,11.3-33,39.4-21.8,62.7c0,0,0,0.1,0.1,0.1"/>
			<path class="st5" d="M392.5,182.7"/>
			<path class="st5" d="M426.3,61.3C426.2,61.4,426.2,61.4,426.3,61.3c-19.4,19.4-19.4,50.9-0.1,70.2c0,0,0.1,0.1,0.1,0.1"/>
			<path class="st5" d="M496.4,131.6C496.4,131.6,496.4,131.5,496.4,131.6c19.4-19.4,19.4-50.9,0.1-70.2c0,0-0.1-0.1-0.1-0.1"/>
			<path class="st5" d="M774.2,129.2c0,0,0-0.1,0-0.1c0-23.1-18.9-42-42-42c0,0-0.1,0-0.1,0"/>
			<path class="st5" d="M690.1,129.1c0,0,0,0.1,0,0.1c0,23.1,18.9,42,42,42c0,0,0.1,0,0.1,0"/>
			<path class="st5" d="M192.6,177.7c0,0,0.1,0,0.1,0c26.1,0,47.3-21.3,47.3-47.3c0,0,0-0.1,0-0.1c0-26.1-21.3-47.3-47.3-47.3
				c0,0-0.1,0-0.1,0"/>
			<path class="st5" d="M593.5,194.8c0,0,0-0.1,0-0.1c-9.8-29.8-42.1-46.1-72-36.3c0,0-0.1,0-0.1,0c-29.8,9.8-46.1,42.1-36.3,72
				c0,0,0,0.1,0,0.1c9.8,29.8,42.1,46.1,72,36.3c0,0,0.1,0,0.1,0"/>
			<path class="st5" d="M255.8,534.2c0,0,0.1,0,0.1,0c25.9,2.2,48.8-17.1,51-43c0,0,0-0.1,0-0.1c2.2-25.9-17.1-48.8-43-51
				c0,0-0.1,0-0.1,0"/>
			<path class="st5" d="M717.7,624.2C717.7,624.2,717.6,624.2,717.7,624.2c-18.5,0-33.6,15.1-33.6,33.5c0,0,0,0.1,0,0.1"/>
			<path class="st5" d="M717.6,691.3C717.6,691.3,717.7,691.3,717.6,691.3c18.5,0,33.6-15.1,33.6-33.5c0,0,0-0.1,0-0.1"/>
			<path class="st5" d="M500.3,699.1c0,0,0-0.1,0-0.1c0-22.2-18.1-40.3-40.3-40.3c0,0-0.1,0-0.1,0c-22.2,0-40.3,18.1-40.3,40.3
				c0,0,0,0.1,0,0.1c0,22.2,18.1,40.3,40.3,40.3c0,0,0.1,0,0.1,0C482.2,739.4,500.3,721.3,500.3,699.1z"/>
			<g>
				<path class="st5" d="M396.6,608.6C396.7,608.6,396.7,608.5,396.6,608.6c18.8-4.9,30-24.1,25.1-42.8c0,0,0-0.1,0-0.1"/>
				<path class="st5" d="M378.9,540.6C378.9,540.7,378.9,540.7,378.9,540.6c-18.8,4.9-30,24.1-25.1,42.8c0,0,0,0.1,0,0.1"/>
			</g>
			<path class="st5" d="M278.1,632.5c0,0,0-0.1,0-0.1c0-23.3-19-42.3-42.3-42.3c0,0-0.1,0-0.1,0"/>
			<path class="st5" d="M193.4,632.4c0,0,0,0.1,0,0.1c0,23.3,19,42.3,42.3,42.3c0,0,0.1,0,0.1,0"/>
			<path class="st5" d="M886.2,367.1C886.2,367.1,886.2,367,886.2,367.1c-20.2-20.2-52.9-20.2-72.9-0.1c0,0-0.1,0.1-0.1,0.1
				c-20.1,20.1-20.1,52.8,0,72.8c0,0,0.1,0.1,0.1,0.1c20.1,20.1,52.8,20.1,72.8,0c0,0,0.1-0.1,0.1-0.1
				C906.3,419.9,906.3,387.2,886.2,367.1z"/>
			<path class="st5" d="M623.2,310C623.2,310,623.2,310.1,623.2,310c-7.7,17.9,0.6,38.7,18.4,46.3c0,0,0.1,0,0.1,0"/>
			<path class="st5" d="M688,337.9C688,337.9,688,337.9,688,337.9c7.7-17.9-0.6-38.7-18.4-46.3c0,0-0.1,0-0.1,0"/>
			<path class="st5" d="M671.9,537.8c0,0,0.1,0,0.1-0.1c29-13.3,41.8-47.8,28.5-76.8c0,0,0-0.1-0.1-0.1"/>
			<path class="st5" d="M623.7,432.3c0,0-0.1,0-0.1,0.1c-29,13.3-41.8,47.8-28.5,76.8c0,0,0,0.1,0.1,0.1"/>
			<circle class="st4" cx="238.8" cy="181.1" r="3.6"/>
			<circle class="st4" cx="170.7" cy="282.5" r="8.7"/>
			<circle class="st4" cx="683.6" cy="181" r="3.6"/>
			<circle class="st6" cx="496.3" cy="716.3" r="2"/>
			<circle class="st6" cx="423.4" cy="715.8" r="2"/>
			<circle class="st6" cx="461.2" cy="658.9" r="2"/>
			<circle class="st6" cx="352.9" cy="571.9" r="2"/>
			<circle class="st6" cx="413.6" cy="598.3" r="2"/>
			<circle class="st6" cx="303.1" cy="468.7" r="2"/>
			<circle class="st6" cx="169.4" cy="403.6" r="2"/>
			<circle class="st6" cx="300.7" cy="336.3" r="2"/>
			<circle class="st6" cx="411.9" cy="92.9" r="2"/>
			<circle class="st6" cx="510.7" cy="92.9" r="2"/>
			<circle class="st6" cx="518.6" cy="265.8" r="2"/>
			<circle class="st6" cx="562.4" cy="160.7" r="2"/>
			<circle class="st6" cx="704.1" cy="160.7" r="2"/>
			<circle class="st6" cx="798.3" cy="403.4" r="2"/>
			<circle class="st6" cx="702.7" cy="503.8" r="2"/>
			<circle class="st6" cx="692.9" cy="635.1" r="2"/>
			<circle class="st6" cx="223.7" cy="166" r="2"/>
			<circle class="st6" cx="397.4" cy="249.1" r="2"/>
			<circle class="st6" cx="370.2" cy="182.2" r="2"/>
			<circle class="st6" cx="213.8" cy="300.4" r="2"/>
			<circle class="st6" cx="149.4" cy="361.4" r="2"/>
			<circle class="st6" cx="264" cy="600.8" r="2"/>
			<circle class="st6" cx="595.9" cy="459.5" r="2"/>
			<circle class="st6" cx="622.9" cy="336.9" r="2"/>
			<circle class="st6" cx="687.9" cy="310.2" r="2"/>
			<circle class="st4" cx="752.2" cy="283.6" r="18.7"/>
			<circle class="st4" cx="751.7" cy="524.6" r="7.7"/>
			<circle class="st4" cx="775.8" cy="403.6" r="3.6"/>
			<circle class="st4" cx="170.4" cy="523.4" r="18"/>
			<ellipse class="st4" cx="260.8" cy="403.5" rx="3.6" ry="3.6"/>
			<circle class="st4" cx="683.7" cy="626" r="3.6"/>
			<circle class="st4" cx="340.3" cy="694" r="9.5"/>
			<circle class="st4" cx="580.9" cy="694.6" r="16.3"/>
			<ellipse class="st4" cx="573.5" cy="403.5" rx="3.6" ry="3.6"/>
			<ellipse class="st4" cx="636.9" cy="579.2" rx="13.5" ry="13.7"/>
			<circle class="st4" cx="666" cy="403.4" r="3.6"/>
			<circle class="st4" cx="341.3" cy="112.3" r="8.3"/>
			<circle class="st4" cx="461.3" cy="203.2" r="3.6"/>
			<circle class="st4" cx="461.3" cy="603.9" r="3.6"/>
			<circle class="st4" cx="582.2" cy="113" r="3.6"/>
			<g>
				<path class="st4" d="M359,357c5.1-11.2,12-21.4,20.3-30.3"/>
				<path class="st4" d="M356.2,363.8c-4.3,11.3-6.8,23.5-7.2,36.2"/>
				<path class="st4" d="M384.3,321.7c9-8.5,19.4-15.5,30.9-20.7"/>
				<path class="st4" d="M507.3,505.9c11.4-5.1,21.8-12.1,30.8-20.6"/>
				<path class="st4" d="M543.1,480.3c8.3-8.9,15.2-19.1,20.3-30.3"/>
				<path class="st4" d="M421.8,298.3c11.2-4.2,23.3-6.7,35.8-7.1"/>
				<path class="st4" d="M464.9,515.7c12.6-0.4,24.6-2.9,35.8-7.1"/>
				<path class="st4" d="M421.5,508.5c11.3,4.3,23.5,6.8,36.2,7.2"/>
				<path class="st4" d="M538.1,321.7c-8.9-8.4-19.2-15.3-30.5-20.4"/>
				<path class="st4" d="M358.8,449.5c5.1,11.4,12.1,21.8,20.6,30.8"/>
				<path class="st4" d="M563.5,450"/>
				<path class="st4" d="M464.8,291.3c12.8,0.4,25,2.9,36.3,7.2"/>
				<path class="st4" d="M573.5,407.3c-0.4,12.7-2.9,24.8-7.2,36.1"/>
				<path class="st4" d="M384.4,485.4c8.9,8.4,19.2,15.3,30.4,20.4"/>
				<path class="st4" d="M563.6,357.4c-5.1-11.3-12.1-21.7-20.5-30.6"/>
				<path class="st4" d="M573.5,399.6c-0.4-12.5-2.9-24.4-7.1-35.5"/>
				<path class="st4" d="M349,407.2c0.4,12.5,2.9,24.5,7.1,35.7"/>
				<line class="st4" x1="461.2" y1="403.5" x2="461.2" y2="403.5"/>
				<path class="st4" d="M461.2,403.5"/>
				<line class="st4" x1="461.2" y1="294.7" x2="461.2" y2="302"/>
				<line class="st4" x1="461.2" y1="600.3" x2="461.2" y2="519.3"/>
				<line class="st4" x1="461.2" y1="403.5" x2="461.2" y2="403.5"/>
				<line class="st4" x1="461.2" y1="505" x2="461.2" y2="512.2"/>
				<path class="st4" d="M461.2,403.5"/>
				<line class="st4" x1="461.2" y1="287.6" x2="461.2" y2="206.9"/>
				<line class="st4" x1="461.2" y1="607.4" x2="461.2" y2="658.6"/>
				<line class="st4" x1="798.3" y1="403.5" x2="779.4" y2="403.5"/>
				<line class="st4" x1="669.5" y1="403.5" x2="772.3" y2="403.5"/>
				<line class="st4" x1="662.5" y1="403.5" x2="577" y2="403.5"/>
				<line class="st4" x1="360.5" y1="403.5" x2="352.5" y2="403.5"/>
				<path class="st4" d="M461.2,403.5"/>
				<path class="st4" d="M461.2,403.5"/>
				<line class="st4" x1="569.9" y1="403.5" x2="562.7" y2="403.5"/>
				<line class="st4" x1="461.2" y1="403.5" x2="461.2" y2="403.5"/>
				<line class="st4" x1="264.5" y1="403.5" x2="345.4" y2="403.5"/>
				<line class="st4" x1="461.2" y1="403.5" x2="461.2" y2="403.5"/>
				<line class="st4" x1="257" y1="403.5" x2="169.3" y2="403.5"/>
				<line class="st4" x1="686.3" y1="178.4" x2="704.1" y2="160.6"/>
				<line class="st4" x1="461.2" y1="403.5" x2="461.2" y2="403.5"/>
				<line class="st4" x1="461.2" y1="403.5" x2="461.2" y2="403.5"/>
				<line class="st4" x1="461.2" y1="403.5" x2="461.2" y2="403.5"/>
				<line class="st4" x1="461.2" y1="403.5" x2="461.2" y2="403.5"/>
				<path class="st4" d="M461.3,403.5"/>
				<line class="st4" x1="538.1" y1="326.6" x2="533.1" y2="331.6"/>
				<line class="st4" x1="379.3" y1="485.4" x2="312.7" y2="552"/>
				<path class="st4" d="M461.2,403.5"/>
				<line class="st4" x1="384.4" y1="480.4" x2="389.7" y2="475.1"/>
				<line class="st4" x1="633.7" y1="231" x2="681.1" y2="183.7"/>
				<line class="st4" x1="543.2" y1="321.6" x2="618.6" y2="246.3"/>
				<line class="st4" x1="461.2" y1="403.5" x2="461.3" y2="403.5"/>
				<line class="st4" x1="461.2" y1="403.5" x2="461.2" y2="403.5"/>
				<line class="st4" x1="296.8" y1="567.9" x2="264" y2="600.8"/>
				<line class="st4" x1="692.9" y1="635.1" x2="686.3" y2="628.6"/>
				<line class="st4" x1="532.6" y1="474.9" x2="538.2" y2="480.4"/>
				<path class="st4" d="M461.2,403.5"/>
				<line class="st4" x1="293.7" y1="236" x2="379.3" y2="321.5"/>
				<line class="st4" x1="241.4" y1="183.6" x2="278.6" y2="220.8"/>
				<path class="st4" d="M461.2,403.5"/>
				<line class="st4" x1="384.3" y1="326.6" x2="389.3" y2="331.5"/>
				<line class="st4" x1="461.2" y1="403.5" x2="461.2" y2="403.5"/>
				<line class="st4" x1="461.2" y1="403.5" x2="461.2" y2="403.5"/>
				<line class="st4" x1="646.5" y1="588.7" x2="681.1" y2="623.3"/>
				<line class="st4" x1="543.2" y1="485.5" x2="627.4" y2="569.5"/>
				<line class="st4" x1="223.7" y1="166" x2="236.2" y2="178.5"/>
				<line class="st4" x1="583.7" y1="109.6" x2="591" y2="92.1"/>
				<line class="st4" x1="562.2" y1="161.3" x2="580.8" y2="116.4"/>
				<line class="st4" x1="461.2" y1="403.5" x2="461.2" y2="403.5"/>
				<line class="st4" x1="505.8" y1="296.6" x2="519" y2="264.9"/>
				<path class="st4" d="M461.2,403.5"/>
				<line class="st4" x1="419.4" y1="504" x2="422.3" y2="497"/>
				<line class="st4" x1="416.6" y1="510.6" x2="343.9" y2="685.2"/>
				<path class="st4" d="M461.2,403.5"/>
				<line class="st4" x1="503" y1="303.2" x2="500.3" y2="309.7"/>
				<line class="st4" x1="461.2" y1="403.5" x2="461.2" y2="403.5"/>
				<line class="st4" x1="554.6" y1="442.4" x2="561.5" y2="445.3"/>
				<path class="st4" d="M461.2,403.5"/>
				<line class="st4" x1="461.2" y1="403.5" x2="461.2" y2="403.5"/>
				<line class="st4" x1="461.2" y1="403.5" x2="461.2" y2="403.5"/>
				<line class="st4" x1="596.7" y1="459.7" x2="568.1" y2="448"/>
				<line class="st4" x1="744.5" y1="521.5" x2="701.8" y2="503.4"/>
				<path class="st4" d="M461.2,403.5"/>
				<line class="st4" x1="360.9" y1="361.7" x2="367.4" y2="364.4"/>
				<line class="st4" x1="461.2" y1="403.5" x2="461.2" y2="403.5"/>
				<path class="st4" d="M561.5,445.3"/>
				<path class="st4" d="M568.1,448"/>
				<line class="st4" x1="354.3" y1="359" x2="299.6" y2="336.2"/>
				<line class="st4" x1="687.2" y1="310.4" x2="734.8" y2="290.8"/>
				<line class="st4" x1="568.4" y1="359.3" x2="623.4" y2="336.7"/>
				<line class="st4" x1="461.2" y1="403.5" x2="461.2" y2="403.5"/>
				<line class="st4" x1="461.2" y1="403.5" x2="461.2" y2="403.5"/>
				<line class="st4" x1="555" y1="364.9" x2="561.8" y2="362.1"/>
				<path class="st4" d="M461.3,403.5"/>
				<path class="st4" d="M461.2,403.5"/>
				<line class="st4" x1="360.7" y1="444.9" x2="367.3" y2="442.2"/>
				<line class="st4" x1="461.2" y1="403.5" x2="461.3" y2="403.5"/>
				<line class="st4" x1="461.2" y1="403.5" x2="461.2" y2="403.5"/>
				<line class="st4" x1="223.9" y1="501.2" x2="187.1" y2="516.4"/>
				<line class="st4" x1="354.1" y1="447.6" x2="302.5" y2="468.9"/>
				<line class="st4" x1="461.2" y1="403.5" x2="461.2" y2="403.5"/>
				<line class="st4" x1="461.2" y1="403.5" x2="461.2" y2="403.5"/>
				<path class="st4" d="M461.2,403.5"/>
				<line class="st4" x1="419.8" y1="303" x2="422.4" y2="309.2"/>
				<line class="st4" x1="461.2" y1="403.5" x2="461.2" y2="403.5"/>
				<line class="st4" x1="397.2" y1="247.9" x2="417.1" y2="296.3"/>
				<line class="st4" x1="461.2" y1="403.5" x2="461.2" y2="403.5"/>
				<line class="st4" x1="499.8" y1="497.2" x2="502.6" y2="504"/>
				<path class="st4" d="M461.2,403.5"/>
				<line class="st4" x1="461.2" y1="403.5" x2="461.2" y2="403.5"/>
				<path class="st4" d="M379.3,321.5c-0.7,0.7-1.2,1.6-1.2,2.6c0,1,0.5,2,1.2,2.6"/>
				<path class="st4" d="M384.3,326.6c-0.7,0.7-1.6,1.2-2.6,1.2c-0.9,0-1.8-0.4-2.4-1"/>
				<path class="st4" d="M384.3,326.6c0.6-0.6,1-1.5,1-2.4c0-0.9-0.4-1.8-1-2.4"/>
				<path class="st4" d="M379.3,321.5c0.6-0.6,1.5-1,2.4-1c1,0,2,0.4,2.6,1.2"/>
				<path class="st4" d="M543.2,326.7c0.7-0.7,1.1-1.6,1.1-2.6c0-1-0.4-1.9-1.1-2.6"/>
				<path class="st4" d="M538.1,326.6c0.7,0.7,1.6,1.1,2.6,1.1c1,0,1.8-0.4,2.5-1"/>
				<path class="st4" d="M538.1,326.6c-0.6-0.6-1-1.5-1-2.5c0-1,0.4-1.8,1-2.5"/>
				<path class="st4" d="M538.1,321.7c0.7-0.7,1.6-1.1,2.6-1.1c1,0,1.8,0.4,2.5,1"/>
				<path class="st4" d="M379.3,485.4c-0.6-0.6-1-1.5-1-2.5c0-1,0.4-1.9,1.1-2.6"/>
				<path class="st4" d="M384.4,480.4c-0.6-0.6-1.5-1-2.5-1c-1,0-1.9,0.4-2.5,1"/>
				<path class="st4" d="M384.4,485.4c-0.7,0.7-1.6,1.1-2.6,1.1c-1,0-1.9-0.4-2.6-1.1"/>
				<path class="st4" d="M384.4,485.4c0.6-0.6,1-1.5,1-2.5c0-1-0.4-1.9-1.1-2.6"/>
				<path class="st4" d="M354.1,447.6c-0.2-0.4-0.3-0.9-0.3-1.4c0-1.5,0.9-2.8,2.3-3.3"/>
				<path class="st4" d="M356.1,442.9c0.4-0.2,0.9-0.3,1.3-0.3c1.5,0,2.8,0.9,3.3,2.2"/>
				<path class="st4" d="M358.8,449.5c1.3-0.5,2.2-1.8,2.2-3.3c0-0.5-0.1-0.9-0.3-1.3"/>
				<path class="st4" d="M358.8,449.5c-0.4,0.2-0.9,0.3-1.4,0.3c-1.5,0-2.8-0.9-3.3-2.2"/>
				<path class="st4" d="M354.3,359c-0.2,0.4-0.3,0.9-0.3,1.4c0,1.5,0.9,2.8,2.2,3.3"/>
				<path class="st4" d="M360.9,361.7c-0.5,1.4-1.8,2.3-3.3,2.3c-0.5,0-1-0.1-1.4-0.3"/>
				<path class="st4" d="M360.9,361.7c0.2-0.4,0.2-0.8,0.2-1.3c0-1.5-0.9-2.8-2.2-3.4"/>
				<path class="st4" d="M354.3,359c0.6-1.3,1.8-2.2,3.3-2.2c0.5,0,0.9,0.1,1.4,0.3"/>
				<path class="st4" d="M349,399.9c1.9,0,3.5,1.6,3.5,3.6"/>
				<path class="st4" d="M345.4,403.5c0-2,1.6-3.6,3.6-3.6c0,0,0,0,0.1,0"/>
				<path class="st4" d="M349,407.2C349,407.2,349,407.2,349,407.2c-2,0-3.6-1.6-3.6-3.6c0,0,0,0,0-0.1"/>
				<path class="st4" d="M349,407.2c1.9,0,3.5-1.6,3.5-3.6c0,0,0,0,0-0.1"/>
				<path class="st4" d="M568.1,448c0.2-0.4,0.3-0.9,0.3-1.4c0-1.5-0.9-2.8-2.2-3.3"/>
				<path class="st4" d="M566.2,443.4c-0.4-0.2-0.9-0.3-1.4-0.3c-1.5,0-2.8,0.9-3.3,2.2"/>
				<path class="st4" d="M561.5,445.3c-0.2,0.4-0.3,0.9-0.3,1.4c0,1.5,0.9,2.8,2.2,3.3"/>
				<path class="st4" d="M563.5,450c0.4,0.2,0.9,0.3,1.4,0.3c1.5,0,2.8-0.9,3.3-2.2"/>
				<path class="st4" d="M568.4,359.3c0.2,0.4,0.3,0.9,0.3,1.3c0,1.5-1,2.9-2.3,3.4"/>
				<path class="st4" d="M566.4,364.1c-0.4,0.2-0.8,0.3-1.3,0.3c-1.5,0-2.8-0.9-3.3-2.3"/>
				<path class="st4" d="M563.6,357.4c0.5-0.2,0.9-0.3,1.5-0.3c1.5,0,2.8,1,3.3,2.3"/>
				<path class="st4" d="M563.6,357.4c-1.2,0.6-2.1,1.8-2.1,3.3c0,0.5,0.1,1,0.3,1.4"/>
				<path class="st4" d="M543.2,485.5c0.7-0.6,1.1-1.6,1.1-2.6c0-1-0.4-2-1.1-2.6"/>
				<path class="st4" d="M543.1,480.3c-0.6-0.6-1.5-1-2.4-1c-1,0-1.9,0.4-2.6,1.1"/>
				<path class="st4" d="M543.2,485.5c-0.6,0.6-1.5,1-2.5,1c-1,0-2-0.4-2.6-1.2"/>
				<path class="st4" d="M538.2,480.4c-0.6,0.6-1,1.5-1,2.5c0,0.9,0.4,1.8,1,2.4"/>
				<path class="st4" d="M419.8,303c-0.4,0.2-0.9,0.3-1.4,0.3c-1.5,0-2.7-0.9-3.3-2.2"/>
				<path class="st4" d="M417.1,296.3c-1.3,0.5-2.2,1.8-2.2,3.3c0,0.5,0.1,1,0.3,1.4"/>
				<path class="st4" d="M421.8,298.3c0.2,0.4,0.3,0.8,0.3,1.3c0,1.5-0.9,2.8-2.2,3.3"/>
				<path class="st4" d="M417.1,296.3c0.4-0.2,0.9-0.3,1.4-0.3c1.5,0,2.8,0.9,3.3,2.3"/>
				<path class="st4" d="M461.2,287.6C461.2,287.6,461.2,287.6,461.2,287.6c-2,0-3.6,1.6-3.6,3.6c0,0,0,0.1,0,0.1"/>
				<path class="st4" d="M457.6,291.3c0.1,1.9,1.6,3.4,3.6,3.4c0,0,0,0,0,0"/>
				<path class="st4" d="M464.8,291.3c-0.1,1.9-1.6,3.4-3.5,3.4"/>
				<path class="st4" d="M464.8,291.3c0,0,0-0.1,0-0.1c0-2-1.6-3.6-3.5-3.6"/>
				<path class="st4" d="M464.9,515.7C464.9,515.7,464.9,515.8,464.9,515.7c0,2-1.6,3.6-3.6,3.6c0,0,0,0,0,0"/>
				<path class="st4" d="M464.9,515.7c0-2-1.6-3.5-3.6-3.5c0,0,0,0,0,0"/>
				<path class="st4" d="M461.2,512.2c-1.9,0-3.5,1.6-3.5,3.5"/>
				<path class="st4" d="M457.7,515.7C457.7,515.7,457.7,515.8,457.7,515.7c0,2,1.6,3.6,3.5,3.6"/>
				<path class="st4" d="M505.8,296.6c1.3,0.5,2.2,1.8,2.2,3.3c0,0.5-0.1,0.9-0.3,1.4"/>
				<path class="st4" d="M503,303.2c0.4,0.2,0.9,0.3,1.3,0.3c1.5,0,2.8-0.9,3.3-2.2"/>
				<path class="st4" d="M501.1,298.5c0.5-1.3,1.8-2.2,3.3-2.2c0.5,0,1,0.1,1.4,0.3"/>
				<path class="st4" d="M503,303.2c-1.3-0.5-2.2-1.8-2.2-3.3c0-0.5,0.1-1,0.3-1.4"/>
				<path class="st4" d="M414.9,505.8c-0.2,0.5-0.4,1-0.4,1.6c0,1.4,0.9,2.7,2.1,3.3"/>
				<path class="st4" d="M414.9,505.8c0.6-1.2,1.8-2,3.2-2c0.4,0,0.9,0.1,1.3,0.2"/>
				<path class="st4" d="M421.5,508.5c0.1-0.4,0.2-0.7,0.2-1.2c0-1.5-1-2.8-2.3-3.3"/>
				<path class="st4" d="M421.5,508.5c-0.5,1.4-1.8,2.4-3.4,2.4c-0.5,0-1-0.1-1.5-0.3"/>
				<path class="st4" d="M507.3,505.9c-0.5-1.3-1.8-2.2-3.3-2.2c-0.5,0-0.9,0.1-1.3,0.3"/>
				<path class="st4" d="M507.3,505.9c0.2,0.4,0.3,0.9,0.3,1.4c0,1.5-0.9,2.8-2.2,3.3"/>
				<path class="st4" d="M500.6,508.7c0.5,1.3,1.8,2.2,3.3,2.2c0.5,0,1-0.1,1.4-0.3"/>
				<path class="st4" d="M502.6,504c-1.3,0.5-2.2,1.8-2.2,3.3c0,0.5,0.1,0.9,0.3,1.3"/>
				<line class="st4" x1="461.2" y1="199.6" x2="461.2" y2="118.9"/>
			</g>
			<path class="st4" d="M174.3,274.3c15.2-33.8,36.3-64.5,61.9-90.7"/>
			<path class="st4" d="M149.3,362c3.3-24.8,9.4-48.7,18.1-71.3"/>
			<path class="st4" d="M163.8,506.4c-6.8-19.5-11.6-39.9-14.4-61"/>
			<path class="st4" d="M331.4,690.1c-67.2-30.5-121.7-83.9-153.7-150.2"/>
			<path class="st4" d="M423.4,715.9c-25.8-3.1-50.7-9.3-74.2-18.3"/>
			<path class="st4" d="M565.6,700.4c-22.2,7.8-45.6,13.2-69.8,15.8"/>
			<path class="st4" d="M681,628.6c-24.8,24.2-53.5,44.3-85.1,59.3"/>
			<path class="st4" d="M748.5,532c-15.3,34.1-36.4,64.9-62.1,91.3"/>
			<path class="st4" d="M775.8,407.2c-0.5,38.7-7.9,75.8-21.2,110"/>
			<path class="st4" d="M758.8,301c10.7,31,16.7,64.2,17.1,98.8"/>
			<path class="st4" d="M686.1,183.5c23.7,24.2,43.5,52.2,58.4,83"/>
			<path class="st4" d="M585.5,114.4c35.8,15.4,68.1,37.2,95.6,64.1"/>
			<path class="st4" d="M511.3,92.8c23.5,3.8,46.2,10.1,67.6,18.8"/>
			<path class="st4" d="M349.3,109.4c19.8-7.5,40.5-13.1,62-16.6"/>
			<path class="st4" d="M241.5,178.4c0.1-0.1,0.1-0.1,0.2-0.2c26.5-25.9,57.6-47.1,92-62.3"/>
			<circle class="st4" cx="286.2" cy="228.3" r="10.6"/>
			<circle class="st4" cx="625.8" cy="238.3" r="10.7"/>
			<line class="st4" x1="505.2" y1="510.6" x2="522.3" y2="551.1"/>
			<line class="st4" x1="558.1" y1="638.5" x2="574.6" y2="679.4"/>
			<path class="st5" d="M521.1,636.8c0,0,0.1,0,0.1,0.1c23.4,11.1,51.6,1,62.6-22.5c0,0,0-0.1,0.1-0.1c11.1-23.4,1-51.6-22.5-62.6
				c0,0-0.1,0-0.1-0.1c-23.4-11.1-51.6-1-62.6,22.5c0,0,0,0.1-0.1,0.1"/>
			<circle class="st6" cx="522.3" cy="551.1" r="2"/>
			<circle class="st6" cx="558.1" cy="638.5" r="2"/>
			<line class="st4" x1="344.4" y1="119.9" x2="370.1" y2="182.4"/>
			<circle class="st4" cx="381" cy="216.9" r="36.4"/>
			<line class="st4" x1="214.1" y1="300.3" x2="178.5" y2="285.5"/>
			<circle class="st4" cx="304.9" cy="559.9" r="11.1"/>
		</g>
	</g>
	<path class="st4" d="M113.6,348.1c30.8,0,55.8,25,55.8,55.8s-25,55.8-55.8,55.8s-55.8-25-55.8-55.8"/>
	<circle class="st6" cx="149.4" cy="446.6" r="2.4"/>
</g>
<g>
	<path class="st7" d="M241.3,232.5H129.4c-2.4,0-4.4-2-4.4-4.4l0,0c0-2.4,2-4.4,4.4-4.4h111.9c2.4,0,4.4,2,4.4,4.4l0,0
		C245.7,230.5,243.7,232.5,241.3,232.5z"/>
	<path class="st8" d="M241.3,232.3H129.4c-2.4,0-4.4-2-4.4-4.4l0,0c0-2.4,2-4.4,4.4-4.4h111.9c2.4,0,4.4,2,4.4,4.4l0,0
		C245.7,230.4,243.7,232.3,241.3,232.3z"/>
	<circle class="st9" cx="264.2" cy="228" r="6.7"/>
	<g>
		<circle class="st8" cx="264.3" cy="228.1" r="6.7"/>
		<polyline class="st10" points="261,228.4 263.1,230.5 267.9,225.8 		"/>
	</g>
	<circle class="st8" cx="286.1" cy="228.1" r="6.7"/>
	<line class="st10" x1="283.4" y1="225.3" x2="288.8" y2="230.7"/>
	<line class="st10" x1="288.8" y1="225.3" x2="283.4" y2="230.7"/>
</g>
<g>
	<path class="st7" d="M260.2,564.3h-32.4c-2.4,0-4.4-2-4.4-4.4l0,0c0-2.4,2-4.4,4.4-4.4h32.4c2.4,0,4.4,2,4.4,4.4l0,0
		C264.6,562.3,262.6,564.3,260.2,564.3z"/>
	<path class="st8" d="M260.2,564.1h-32.4c-2.4,0-4.4-2-4.4-4.4l0,0c0-2.4,2-4.4,4.4-4.4h32.4c2.4,0,4.4,2,4.4,4.4l0,0
		C264.6,562.1,262.6,564.1,260.2,564.1z"/>
	<circle class="st9" cx="283.1" cy="559.8" r="6.7"/>
	<g>
		<circle class="st8" cx="283.1" cy="559.9" r="6.7"/>
		<polyline class="st10" points="279.9,560.2 282,562.3 286.7,557.6 		"/>
	</g>
	<circle class="st8" cx="304.9" cy="559.9" r="6.7"/>
	<line class="st10" x1="302.3" y1="557.1" x2="307.6" y2="562.5"/>
	<line class="st10" x1="307.6" y1="557.1" x2="302.3" y2="562.5"/>
</g>
<g>
	<path class="st7" d="M782.7,244.8l-111.9-1.6c-2.4,0-4.4-2-4.3-4.5v0c0-2.4,2-4.4,4.5-4.3l111.9,1.6c2.4,0,4.4,2,4.3,4.5l0,0
		C787.2,242.9,785.2,244.9,782.7,244.8z"/>
	<path class="st8" d="M782.7,244.7l-111.9-1.6c-2.4,0-4.4-2-4.3-4.5l0,0c0-2.4,2-4.4,4.5-4.3l111.9,1.6c2.4,0,4.4,2,4.3,4.5v0
		C787.2,242.7,785.2,244.7,782.7,244.7z"/>
	<circle class="st11" cx="647.9" cy="238.5" r="6.7"/>
	<g>
		<circle class="st8" cx="626" cy="238.2" r="6.7"/>
		<polyline class="st10" points="622.7,238.5 624.8,240.7 629.6,236 		"/>
	</g>
	<circle class="st8" cx="647.8" cy="238.5" r="6.7"/>
	<line class="st10" x1="645.2" y1="235.7" x2="650.5" y2="241.2"/>
	<line class="st10" x1="650.5" y1="235.8" x2="645.1" y2="241.1"/>
</g>
<g>
	<path class="st12" d="M741.2,584.5l-59.1-0.4c-2.4,0-4.4-2-4.3-4.5l0,0c0-2.4,2-4.4,4.5-4.3l59.1,0.4c2.4,0,4.4,2,4.3,4.5l0,0
		C745.6,582.5,743.6,584.5,741.2,584.5z"/>
	<path class="st13" d="M741.2,584.3l-59.1-0.4c-2.4,0-4.4-2-4.3-4.5l0,0c0-2.4,2-4.4,4.5-4.3l59.1,0.4c2.4,0,4.4,2,4.3,4.5l0,0
		C745.6,582.4,743.6,584.3,741.2,584.3z"/>
	<circle class="st14" cx="659.1" cy="579.3" r="6.7"/>
	<g>
		<circle class="st13" cx="637.2" cy="579" r="6.7"/>
		<polyline class="st15" points="633.9,579.3 636.1,581.5 640.8,576.8 		"/>
	</g>
	<circle class="st13" cx="659" cy="579.3" r="6.7"/>
	<line class="st15" x1="656.4" y1="576.5" x2="661.7" y2="582"/>
	<line class="st15" x1="661.8" y1="576.6" x2="656.3" y2="581.9"/>
</g>
<g>
	<line class="st13" x1="548.4" y1="207" x2="559.8" y2="213.6"/>
	<line class="st13" x1="532.4" y1="207" x2="520.5" y2="213.9"/>
	<line class="st13" x1="548.4" y1="196.9" x2="559.5" y2="190.5"/>
	<line class="st13" x1="559.7" y1="219.5" x2="551.3" y2="224.3"/>
	<line class="st13" x1="564.7" y1="194" x2="564.7" y2="210.8"/>
	<line class="st13" x1="545.2" y1="176.7" x2="559.9" y2="185.2"/>
	<line class="st13" x1="520.3" y1="185" x2="535" y2="176.6"/>
	<line class="st13" x1="515.2" y1="210.9" x2="515.2" y2="194"/>
	<line class="st13" x1="529" y1="224.5" x2="520.5" y2="219.7"/>
	<path class="st13" d="M545.8,174.2c0,3.1-2.5,5.7-5.7,5.7c-3.1,0-5.7-2.5-5.7-5.7c0-3.1,2.5-5.7,5.7-5.7
		C543.3,168.6,545.8,171.1,545.8,174.2z"/>
	<path class="st13" d="M518.6,183.4c2.7,1.6,3.6,5,2.1,7.7c-1.6,2.7-5,3.6-7.7,2.1c-2.7-1.6-3.6-5-2.1-7.7
		C512.4,182.8,515.9,181.9,518.6,183.4z"/>
	<path class="st13" d="M512.9,211.6c2.7-1.6,6.2-0.6,7.7,2.1c1.6,2.7,0.6,6.2-2.1,7.7c-2.7,1.6-6.2,0.6-7.7-2.1
		C509.3,216.7,510.2,213.2,512.9,211.6z"/>
	<path class="st13" d="M561.8,221.4c-2.7-1.6-3.6-5-2.1-7.7c1.6-2.7,5-3.6,7.7-2.1c2.7,1.6,3.6,5,2.1,7.7
		C567.9,222.1,564.5,223,561.8,221.4z"/>
	<path class="st13" d="M567.4,193.2c-2.7,1.6-6.2,0.6-7.7-2.1c-1.6-2.7-0.6-6.2,2.1-7.7c2.7-1.6,6.2-0.6,7.7,2.1
		C571.1,188.2,570.1,191.7,567.4,193.2z"/>
	<line class="st13" x1="540.2" y1="193" x2="540.2" y2="179.9"/>
	<line class="st13" x1="532.4" y1="196.9" x2="521" y2="190.4"/>
	<path class="st13" d="M545.8,202.4c0,3.1-2.5,5.7-5.7,5.7c-3.1,0-5.7-2.5-5.7-5.7c0-3.1,2.5-5.7,5.7-5.7
		C543.3,196.8,545.8,199.3,545.8,202.4z"/>
	<g>
		<line class="st13" x1="534.2" y1="217.8" x2="534.2" y2="255.2"/>
		<line class="st13" x1="546.2" y1="217.8" x2="546.2" y2="255.2"/>
	</g>
	<line class="st13" x1="540.2" y1="236.4" x2="540.2" y2="255.2"/>
	<path class="st13" d="M547.5,237.3c1.6,0,3.9-1.3,3.8-2.9c0-5.9,0-11.7,0-17.6c0-1.6-1.2-3.4-2.8-3.9c-5.4-1.6-11.2-1.6-16.6,0
		c-1.6,0.5-2.8,2.3-2.8,3.9c0,5.9,0,11.7,0,17.6c0,1.6,2.3,2.9,3.8,2.9"/>
	<path class="st13" d="M545.8,202.4c0,3.1-2.5,5.7-5.7,5.7c-3.1,0-5.7-2.5-5.7-5.7c0-3.1,2.5-5.7,5.7-5.7
		C543.3,196.8,545.8,199.3,545.8,202.4z"/>
	<g>
		<line class="st13" x1="534.2" y1="217.8" x2="534.2" y2="255.2"/>
		<line class="st13" x1="546.2" y1="217.8" x2="546.2" y2="255.2"/>
	</g>
	<line class="st13" x1="540.2" y1="236.4" x2="540.2" y2="255.2"/>
	<path class="st13" d="M547.5,237.3c1.6,0,3.9-1.3,3.8-2.9c0-5.9,0-11.7,0-17.6c0-1.6-1.2-3.4-2.8-3.9c-5.4-1.6-11.2-1.6-16.6,0
		c-1.6,0.5-2.8,2.3-2.8,3.9c0,5.9,0,11.7,0,17.6c0,1.6,2.3,2.9,3.8,2.9"/>
</g>
<g>
	<g>
		<g>
			<g>
				<polygon class="st16" points="260,448.6 266.9,452.6 259.9,456.6 253,452.7 				"/>
			</g>
		</g>
		<g>
			<g>
				<polygon class="st16" points="266.9,452.6 267,460.7 260,464.7 259.9,456.6 				"/>
			</g>
		</g>
		<g>
			<g>
				<polygon class="st16" points="259.9,456.6 260,464.7 253,460.7 253,452.7 				"/>
			</g>
		</g>
	</g>
	<g>
		<g>
			<g>
				<polygon class="st16" points="259.9,473.4 272,480.3 259.9,487.3 247.8,480.4 				"/>
			</g>
		</g>
		<g>
			<g>
				<polygon class="st16" points="272,480.3 272.1,494.3 260,501.3 259.9,487.3 				"/>
			</g>
		</g>
		<g>
			<g>
				<polygon class="st16" points="259.9,487.3 260,501.3 248,494.4 247.8,480.4 				"/>
			</g>
		</g>
	</g>
	<g>
		<g>
			<g>
				<polygon class="st16" points="233.5,494.2 240.4,498.1 233.5,502.2 226.5,498.2 				"/>
			</g>
		</g>
		<g>
			<g>
				<polygon class="st16" points="240.4,498.1 240.5,506.2 233.5,510.2 233.5,502.2 				"/>
			</g>
		</g>
		<g>
			<g>
				<polygon class="st16" points="233.5,502.2 233.5,510.2 226.6,506.3 226.5,498.2 				"/>
			</g>
		</g>
	</g>
	<g>
		<g>
			<g>
				<polygon class="st16" points="286.5,494.2 293.5,498.1 286.5,502.2 279.6,498.2 				"/>
			</g>
		</g>
		<g>
			<g>
				<polygon class="st16" points="293.5,498.1 293.6,506.2 286.6,510.2 286.5,502.2 				"/>
			</g>
		</g>
		<g>
			<g>
				<polygon class="st16" points="286.5,502.2 286.6,510.2 279.6,506.3 279.6,498.2 				"/>
			</g>
		</g>
	</g>
	<g>
		<g>
			<g>
				<polygon class="st16" points="233.5,463.9 240.4,467.9 233.5,471.9 226.5,467.9 				"/>
			</g>
		</g>
		<g>
			<g>
				<polygon class="st16" points="240.4,467.9 240.5,475.9 233.5,480 233.5,471.9 				"/>
			</g>
		</g>
		<g>
			<g>
				<polygon class="st16" points="233.5,471.9 233.5,480 226.6,476 226.5,467.9 				"/>
			</g>
		</g>
	</g>
	<g>
		<g>
			<g>
				<polygon class="st16" points="286.5,463.9 293.5,467.9 286.5,471.9 279.6,467.9 				"/>
			</g>
		</g>
		<g>
			<g>
				<polygon class="st16" points="293.5,467.9 293.6,475.9 286.6,480 286.5,471.9 				"/>
			</g>
		</g>
		<g>
			<g>
				<polygon class="st16" points="286.5,471.9 286.6,480 279.6,476 279.6,467.9 				"/>
			</g>
		</g>
	</g>
	<g>
		<g>
			<g>
				<polygon class="st16" points="260,509.8 266.9,513.8 259.9,517.8 253,513.9 				"/>
			</g>
		</g>
		<g>
			<g>
				<polygon class="st16" points="266.9,513.8 267,521.9 260,525.9 259.9,517.8 				"/>
			</g>
		</g>
		<g>
			<g>
				<polygon class="st16" points="259.9,517.8 260,525.9 253,521.9 253,513.9 				"/>
			</g>
		</g>
	</g>
	<g>
		<line class="st16" x1="240.4" y1="476.2" x2="248.1" y2="480.6"/>
		<line class="st16" x1="272" y1="494.1" x2="279.7" y2="498.5"/>
	</g>
	<g>
		<line class="st16" x1="279.8" y1="476.2" x2="272.1" y2="480.6"/>
		<line class="st16" x1="248.2" y1="494.1" x2="240.5" y2="498.5"/>
	</g>
	<line class="st16" x1="260" y1="464.2" x2="260" y2="473.6"/>
	<line class="st16" x1="260" y1="500.5" x2="260" y2="509.9"/>
</g>
<g>
	<g>
		<g>
			<g>
				<path class="st17" d="M626.1,501.7h-5.4c-7.3,0-13.2-5.9-13.2-13.2c0-6.4,4.5-11.8,10.7-13c0.4-11.2,9.7-20.1,21-20.1
					c10,0,18.6,7.2,20.6,16.9c0.9-0.2,1.8-0.3,2.7-0.3c8.1,0,14.6,6.6,14.6,14.6c0,0.2,0,0.4,0,0.6c3.4,0.6,5.9,3.6,5.9,7.2
					c0,3.9-3.1,7.1-6.9,7.3l0,0H658"/>
			</g>
		</g>
		<g>
			<g>
				<path class="st13" d="M631.4,488.8v-6c0-5.9,4.8-10.8,10.8-10.8h0c5.9,0,10.8,4.8,10.8,10.8v6"/>
			</g>
			<g>
				<rect x="626" y="488.6" class="st13" width="31.9" height="29.9"/>
			</g>
			<g>
				<path class="st13" d="M642.2,497.2c-1.5,0-2.6,1.2-2.6,2.6c0,1,0.5,1.8,1.3,2.3l-0.6,6.5h1.9h1.9l-0.6-6.5
					c0.8-0.5,1.3-1.3,1.3-2.3C644.8,498.4,643.6,497.2,642.2,497.2L642.2,497.2z"/>
			</g>
		</g>
	</g>
	<path class="st13" d="M639.1,449.6c0.5,0,1,0,1.6,0"/>
	<path class="st13" d="M628.5,451.8c2.3-1,4.9-1.7,7.5-2"/>
	<path class="st13" d="M614.2,467c2.1-5.8,6.1-10.6,11.3-13.7"/>
	<path class="st13" d="M683,483.6c-0.3-0.2-0.7-0.4-1.1-0.5"/>
	<path class="st13" d="M688.9,491.2c-0.7-2.4-2.1-4.5-3.9-6.1"/>
	<path class="st13" d="M676.8,507.2c7,0,12.6-5.7,12.6-12.6v0"/>
	<line class="st13" x1="669.9" y1="507.2" x2="671.7" y2="507.2"/>
	<line class="st13" x1="658" y1="507.2" x2="666.4" y2="507.2"/>
</g>
<g class="st18">
	<polyline class="st19" points="795.1,487.8 791.6,481.7 795.1,475.7 	"/>
	<polyline class="st19" points="897.7,569.4 901.3,563.3 897.7,557.3 	"/>
	<path class="st20" d="M828.6,484.3h-24.9c-1.4,0-2.6-1.1-2.6-2.6l0,0c0-1.4,1.1-2.6,2.6-2.6h24.9c1.4,0,2.6,1.1,2.6,2.6l0,0
		C831.2,483.2,830,484.3,828.6,484.3z"/>
	<path class="st20" d="M884,496.4h-71.6c-1.4,0-2.6-1.1-2.6-2.6l0,0c0-1.4,1.1-2.6,2.6-2.6H884c1.4,0,2.6,1.1,2.6,2.6l0,0
		C886.5,495.2,885.4,496.4,884,496.4z"/>
	<path class="st21" d="M815.1,507.3H804c-1.4,0-2.6-1.1-2.6-2.6l0,0c0-1.4,1.1-2.6,2.6-2.6h11.1c1.4,0,2.6,1.1,2.6,2.6l0,0
		C817.6,506.1,816.5,507.3,815.1,507.3z"/>
	<path class="st20" d="M865.4,507.3h-40.1c-1.4,0-2.6-1.1-2.6-2.6l0,0c0-1.4,1.1-2.6,2.6-2.6h40.1c1.4,0,2.6,1.1,2.6,2.6l0,0
		C868,506.1,866.8,507.3,865.4,507.3z"/>
	<path class="st21" d="M855.4,519.7h-37.8c-1.4,0-2.6-1.1-2.6-2.6l0,0c0-1.4,1.1-2.6,2.6-2.6h37.8c1.4,0,2.6,1.1,2.6,2.6l0,0
		C858,518.5,856.8,519.7,855.4,519.7z"/>
	<path class="st20" d="M849,531h-23c-1.4,0-2.6-1.1-2.6-2.6l0,0c0-1.4,1.1-2.6,2.6-2.6h23c1.4,0,2.6,1.1,2.6,2.6l0,0
		C851.5,529.9,850.4,531,849,531z"/>
	<path class="st21" d="M892.9,531H866c-1.4,0-2.6-1.1-2.6-2.6l0,0c0-1.4,1.1-2.6,2.6-2.6h26.9c1.4,0,2.6,1.1,2.6,2.6l0,0
		C895.5,529.9,894.3,531,892.9,531z"/>
	<path class="st20" d="M892.9,542.6h-14.8c-1.4,0-2.6-1.1-2.6-2.6l0,0c0-1.4,1.1-2.6,2.6-2.6h14.8c1.4,0,2.6,1.1,2.6,2.6l0,0
		C895.5,541.5,894.3,542.6,892.9,542.6z"/>
	<path class="st20" d="M867.3,542.6h-22.5c-1.4,0-2.6-1.1-2.6-2.6l0,0c0-1.4,1.1-2.6,2.6-2.6h22.5c1.4,0,2.6,1.1,2.6,2.6l0,0
		C869.9,541.5,868.7,542.6,867.3,542.6z"/>
	<g>
		<path class="st21" d="M860.1,565.9h-29.5c-1.4,0-2.6-1.1-2.6-2.6l0,0c0-1.4,1.1-2.6,2.6-2.6h29.5c1.4,0,2.6,1.1,2.6,2.6l0,0
			C862.6,564.7,861.5,565.9,860.1,565.9z"/>
		<path class="st20" d="M888.5,565.9h-16.8c-1.4,0-2.6-1.1-2.6-2.6l0,0c0-1.4,1.1-2.6,2.6-2.6h16.8c1.4,0,2.6,1.1,2.6,2.6l0,0
			C891,564.7,889.9,565.9,888.5,565.9z"/>
	</g>
	<path class="st21" d="M834.1,542.6h-30c-1.4,0-2.6-1.1-2.6-2.6l0,0c0-1.4,1.1-2.6,2.6-2.6h30c1.4,0,2.6,1.1,2.6,2.6l0,0
		C836.7,541.5,835.6,542.6,834.1,542.6z"/>
	<path class="st20" d="M805.3,554.9H805c-1.4,0-2.6-1.1-2.6-2.6l0,0c0-1.4,1.1-2.6,2.6-2.6h0.3c1.4,0,2.6,1.1,2.6,2.6l0,0
		C807.9,553.7,806.7,554.9,805.3,554.9z"/>
	<path class="st21" d="M869.4,554.9h-0.3c-1.4,0-2.6-1.1-2.6-2.6l0,0c0-1.4,1.1-2.6,2.6-2.6h0.3c1.4,0,2.6,1.1,2.6,2.6l0,0
		C872,553.7,870.9,554.9,869.4,554.9z"/>
	<path class="st20" d="M853.3,554.9H815c-1.4,0-2.6-1.1-2.6-2.6l0,0c0-1.4,1.1-2.6,2.6-2.6h38.3c1.4,0,2.6,1.1,2.6,2.6l0,0
		C855.9,553.7,854.7,554.9,853.3,554.9z"/>
	<path class="st20" d="M900.7,519.7h-27c-1.4,0-2.6-1.1-2.6-2.6l0,0c0-1.4,1.1-2.6,2.6-2.6h27c1.4,0,2.6,1.1,2.6,2.6l0,0
		C903.3,518.5,902.1,519.7,900.7,519.7z"/>
	<path class="st21" d="M873.1,484.3h-30.7c-1.4,0-2.6-1.1-2.6-2.6l0,0c0-1.4,1.1-2.6,2.6-2.6h30.7c1.4,0,2.6,1.1,2.6,2.6l0,0
		C875.7,483.2,874.6,484.3,873.1,484.3z"/>
</g>
<g class="st18">
	<polyline class="st19" points="35.1,299.2 31.5,305.2 35.1,311.3 	"/>
	<polyline class="st19" points="135.7,252.5 139.2,258.6 135.7,264.6 	"/>
	<path class="st20" d="M68.6,302.7H43.7c-1.4,0-2.6,1.1-2.6,2.6v0c0,1.4,1.1,2.6,2.6,2.6h24.9c1.4,0,2.6-1.1,2.6-2.6v0
		C71.1,303.8,70,302.7,68.6,302.7z"/>
	<path class="st20" d="M96.2,290.6H52.4c-1.4,0-2.6,1.1-2.6,2.6l0,0c0,1.4,1.1,2.6,2.6,2.6h43.8c1.4,0,2.6-1.1,2.6-2.6l0,0
		C98.8,291.8,97.6,290.6,96.2,290.6z"/>
	<path class="st20" d="M119.4,290.6h-13.7c-1.4,0-2.6,1.1-2.6,2.6l0,0c0,1.4,1.1,2.6,2.6,2.6h13.7c1.4,0,2.6-1.1,2.6-2.6l0,0
		C121.9,291.8,120.8,290.6,119.4,290.6z"/>
	<path class="st21" d="M49,279.7h-5.1c-1.4,0-2.6,1.1-2.6,2.6l0,0c0,1.4,1.1,2.6,2.6,2.6H49c1.4,0,2.6-1.1,2.6-2.6l0,0
		C51.6,280.8,50.4,279.7,49,279.7z"/>
	<path class="st20" d="M105.4,279.7H59.3c-1.4,0-2.6,1.1-2.6,2.6l0,0c0,1.4,1.1,2.6,2.6,2.6h46.1c1.4,0,2.6-1.1,2.6-2.6l0,0
		C107.9,280.8,106.8,279.7,105.4,279.7z"/>
	<path class="st21" d="M95.4,267.3H57.6c-1.4,0-2.6,1.1-2.6,2.6l0,0c0,1.4,1.1,2.6,2.6,2.6h37.8c1.4,0,2.6-1.1,2.6-2.6l0,0
		C97.9,268.4,96.8,267.3,95.4,267.3z"/>
	<path class="st20" d="M63.5,256H44c-1.4,0-2.6,1.1-2.6,2.6l0,0c0,1.4,1.1,2.6,2.6,2.6h19.6c1.4,0,2.6-1.1,2.6-2.6l0,0
		C66.1,257.1,65,256,63.5,256z"/>
	<path class="st20" d="M126.9,256H74.6c-1.4,0-2.6,1.1-2.6,2.6l0,0c0,1.4,1.1,2.6,2.6,2.6h52.3c1.4,0,2.6-1.1,2.6-2.6l0,0
		C129.4,257.1,128.3,256,126.9,256z"/>
	<path class="st20" d="M120.3,267.3h-14.2c-1.4,0-2.6,1.1-2.6,2.6l0,0c0,1.4,1.1,2.6,2.6,2.6h14.2c1.4,0,2.6-1.1,2.6-2.6l0,0
		C122.8,268.4,121.7,267.3,120.3,267.3z"/>
	<path class="st21" d="M113.1,302.7H82.4c-1.4,0-2.6,1.1-2.6,2.6v0c0,1.4,1.1,2.6,2.6,2.6h30.7c1.4,0,2.6-1.1,2.6-2.6v0
		C115.7,303.8,114.5,302.7,113.1,302.7z"/>
</g>
<path class="st22" d="M234.4,130.4c0,0,0-0.1,0-0.1c0-22.9-18.7-41.6-41.6-41.6c0,0-0.1,0-0.1,0c-22.9,0-41.6,18.7-41.6,41.6
	c0,0,0,0.1,0,0.1c0,22.9,18.7,41.6,41.6,41.6c0,0,0.1,0,0.1,0C215.7,172,234.4,153.3,234.4,130.4z"/>
<path class="st23" d="M271.7,632.5C271.7,632.4,271.7,632.4,271.7,632.5c0-19.9-16.1-36-35.9-36c0,0-0.1,0-0.1,0
	c-19.8,0-35.9,16.1-35.9,35.9c0,0,0,0.1,0,0.1c0,19.8,16.1,35.9,35.9,35.9c0,0,0.1,0,0.1,0C255.6,668.4,271.7,652.3,271.7,632.5z"/>
<path class="st24" d="M162.6,404.2c0,0,0-0.1,0-0.1c0-26.8-21.9-48.7-48.7-48.7c0,0-0.1,0-0.1,0c-26.8,0-48.7,21.9-48.7,48.7
	c0,0,0,0.1,0,0.1c0,26.8,21.9,48.7,48.7,48.7c0,0,0.1,0,0.1,0C140.7,453,162.6,431.1,162.6,404.2z"/>
<path class="st24" d="M494.1,699.1C494.1,699.1,494.1,699.1,494.1,699.1c0-18.8-15.3-34.1-34-34.1c0,0-0.1,0-0.1,0
	c-18.7,0-34,15.3-34,34c0,0,0,0.1,0,0.1c0,18.7,15.3,34,34,34c0,0,0.1,0,0.1,0C478.8,733.1,494.1,717.9,494.1,699.1z"/>
<path class="st23" d="M411.1,217C411.1,217,411.1,216.9,411.1,217c0-16.7-13.5-30.2-30.1-30.2c0,0-0.1,0-0.1,0
	c-16.6,0-30.1,13.5-30.1,30.1c0,0,0,0.1,0,0.1c0,16.6,13.5,30.1,30.1,30.1c0,0,0.1,0,0.1,0C397.6,247.1,411.1,233.6,411.1,217z"/>
<path class="st22" d="M416.3,574.6C416.3,574.6,416.3,574.6,416.3,574.6c0-15.8-12.8-28.6-28.5-28.6c0,0,0,0-0.1,0
	c-15.7,0-28.5,12.8-28.5,28.5c0,0,0,0,0,0.1c0,15.7,12.8,28.5,28.5,28.5c0,0,0,0,0.1,0C403.5,603.1,416.3,590.3,416.3,574.6z"/>
<path class="st25" d="M298,319.4c0,0,0-0.1,0-0.1c0-22.7-18.5-41.2-41.2-41.2c0,0-0.1,0-0.1,0c-22.7,0-41.2,18.5-41.2,41.2
	c0,0,0,0.1,0,0.1c0,22.7,18.5,41.2,41.2,41.2c0,0,0.1,0,0.1,0C279.5,360.5,298,342,298,319.4z"/>
<path class="st26" d="M684.2,324C684.2,324,684.2,324,684.2,324c0-15.8-12.8-28.7-28.6-28.7c0,0-0.1,0-0.1,0
	c-15.8,0-28.6,12.8-28.6,28.6c0,0,0,0.1,0,0.1c0,15.8,12.8,28.6,28.6,28.6c0,0,0,0,0.1,0C671.4,352.6,684.2,339.8,684.2,324z"/>
<path class="st22" d="M895.6,403.6c0,0,0-0.1,0-0.1c0-25.2-20.6-45.8-45.8-45.8c0,0-0.1,0-0.1,0c-25.2,0-45.8,20.6-45.8,45.8
	c0,0,0,0.1,0,0.1c0,25.2,20.6,45.8,45.8,45.8c0,0,0.1,0,0.1,0C875,449.4,895.6,428.8,895.6,403.6z"/>
<path class="st24" d="M767.3,128.7C767.3,128.6,767.3,128.6,767.3,128.7c0-19.4-15.7-35.1-35-35.1c0,0-0.1,0-0.1,0
	c-19.3,0-35,15.7-35,35c0,0,0,0.1,0,0.1c0,19.3,15.7,35,35,35c0,0,0.1,0,0.1,0C751.6,163.7,767.3,148,767.3,128.7z"/>
<path class="st27" d="M745.7,657.8C745.7,657.8,745.7,657.8,745.7,657.8c0-15.5-12.6-28.1-28.1-28.1c0,0,0,0-0.1,0
	c-15.5,0-28.1,12.6-28.1,28.1c0,0,0,0,0,0.1c0,15.4,12.6,28.1,28.1,28.1c0,0,0,0,0.1,0C733.1,685.9,745.7,673.3,745.7,657.8z"/>
<path class="st26" d="M582.8,594.3c0,0,0-0.1,0-0.1c0-22.8-18.6-41.4-41.4-41.4c0,0-0.1,0-0.1,0c-22.8,0-41.4,18.6-41.4,41.4
	c0,0,0,0.1,0,0.1c0,22.8,18.6,41.4,41.4,41.4c0,0,0.1,0,0.1,0C564.2,635.7,582.8,617.1,582.8,594.3z"/>
<path class="st27" d="M504.3,96.5c0,0,0-0.1,0-0.1c0-23.7-19.3-42.9-42.9-42.9c0,0-0.1,0-0.1,0c-23.7,0-42.9,19.3-42.9,42.9
	c0,0,0,0.1,0,0.1c0,23.7,19.3,42.9,42.9,42.9c0,0,0.1,0,0.1,0C485,139.5,504.3,120.2,504.3,96.5z"/>
<g>
	<path class="st28" d="M213.9,147.4c0,2-1.6,3.6-3.6,3.6h-34c-2,0-3.6-1.6-3.6-3.6v-34c0-2,1.6-3.6,3.6-3.6h34c2,0,3.6,1.6,3.6,3.6
		V147.4z"/>
	<line class="st28" x1="172.7" y1="118.7" x2="213.9" y2="118.7"/>
	<rect x="196" y="124.1" class="st28" width="12.5" height="9"/>
	<rect x="196" y="136.6" class="st28" width="12.5" height="9"/>
	<rect x="178.1" y="124.1" class="st28" width="12.5" height="14.3"/>
	<circle class="st28" cx="184.3" cy="130.3" r="2.7"/>
	<path class="st28" d="M188.8,138.4h-9c0-3,2-5.4,4.5-5.4C186.8,133,188.8,135.4,188.8,138.4z"/>
	<line class="st28" x1="179" y1="142" x2="186.1" y2="142"/>
	<line class="st28" x1="179" y1="145.6" x2="186.1" y2="145.6"/>
	<circle class="st28" cx="179" cy="114.2" r="0.9"/>
	<circle class="st28" cx="184.3" cy="114.2" r="0.9"/>
	<circle class="st28" cx="189.7" cy="114.2" r="0.9"/>
</g>
<g>
	<polyline class="st15" points="727.3,148.5 713,148.5 713,134.2 	"/>
	<polyline class="st15" points="727.3,107.3 713,107.3 713,121.7 	"/>
	<polyline class="st15" points="739.9,148.5 754.2,148.5 754.2,134.2 	"/>
	<polyline class="st15" points="739.9,107.3 754.2,107.3 754.2,121.7 	"/>
	<circle class="st15" cx="733.6" cy="121.7" r="7.2"/>
	<path class="st15" d="M746.1,139.6h-25.1c0-6.9,5.7-10.7,12.5-10.7C740.5,128.8,746.1,132.7,746.1,139.6z"/>
</g>
<g>
	<g>
		<line class="st29" x1="377.2" y1="591.9" x2="388.3" y2="591.9"/>
		<line class="st29" x1="382.7" y1="588.7" x2="382.7" y2="591.9"/>
		<line class="st29" x1="370" y1="585.6" x2="395.4" y2="585.6"/>
	</g>
	<path class="st29" d="M402.2,569.7c0,0,4.3-0.6,4.3-4.8c0-2.7-2.2-4.9-5-4.8c-1.1-2.3-3.4-3.9-6.1-3.9c-3.6,0-6.5,2.8-6.7,6.4
		c-2.3-0.5-4.4,1.2-4.4,3.5c0,3.7,3.9,3.6,3.9,3.6H402.2z"/>
	<path class="st29" d="M395.4,573.7v12.5c0,1.4-1.1,2.5-2.4,2.5h-20.6c-1.3,0-2.4-1.1-2.4-2.5v-14.1c0-1.3,1.1-2.4,2.4-2.4h7.9"/>
	<g>
		<line class="st29" x1="382.7" y1="575.3" x2="382.7" y2="582.4"/>
		<polyline class="st29" points="379.5,578.4 382.7,575.3 385.9,578.4 		"/>
	</g>
</g>
<g>
	<rect x="524.3" y="570.4" class="st15" width="41.8" height="41.8"/>
	<polyline class="st15" points="524.3,578.7 518.1,578.7 518.1,618.4 557.8,618.4 557.8,612.2 	"/>
	<g>
		<circle class="st16" cx="545.3" cy="591.1" r="4.4"/>
		<path class="st16" d="M555.2,588.8l2.9-1.7l-2.9-5l-2.9,1.7c-1.1-1.1-2.5-1.9-4-2.4V578h-5.8v3.4c-1.5,0.5-2.9,1.3-4.1,2.3
			l-2.9-1.7l-2.9,5l2.9,1.7c-0.4,1.6-0.3,3.2,0,4.7l-2.9,1.7l2.9,5l2.9-1.7c1.1,1.1,2.5,1.9,4.1,2.4v3.4h5.8v-3.4
			c1.5-0.5,2.9-1.3,4.1-2.4l2.9,1.7l2.9-5l-2.9-1.7C555.6,591.8,555.6,590.3,555.2,588.8z"/>
	</g>
</g>
<g>
	<path class="st16" d="M476.1,692.9c0-9-8.5-14.2-16.2-14.2c-9.6,0-17,7.5-17,17.1c0,5.4,1.8,10.6,7.2,13.7v10.3h17.9v-6.2
		c3.6,0,5.4-0.2,6.7-1.5c1.6-1.6,1.5-8.4,1.5-8.4s1.5,0.1,2.7,0c0.4,0,0.8-0.2,1-0.5c0.2-0.3,0.2-0.7,0.2-1.1
		C480.1,699.3,476.1,694.4,476.1,692.9z"/>
	<rect x="451.8" y="689.5" class="st16" width="3.6" height="5.4"/>
	<rect x="455.4" y="698.5" class="st16" width="3.6" height="5.4"/>
	<rect x="466.1" y="689.5" class="st16" width="3.6" height="5.4"/>
	<line class="st16" x1="459" y1="688.6" x2="459" y2="695.8"/>
	<line class="st16" x1="462.5" y1="688.6" x2="462.5" y2="695.8"/>
	<line class="st16" x1="451.8" y1="697.6" x2="451.8" y2="704.7"/>
	<line class="st16" x1="462.5" y1="697.6" x2="462.5" y2="704.7"/>
	<line class="st16" x1="466.1" y1="697.6" x2="466.1" y2="704.7"/>
	<line class="st16" x1="469.7" y1="697.6" x2="469.7" y2="704.7"/>
</g>
<g>
	<path class="st16" d="M664.9,318.8c2.2,0.9,4.8,0.5,6.6-1.3c1.8-1.8,2.2-4.3,1.3-6.5l-2.9,3h-3.4v-3.4l3-2.9
		c-2.2-0.9-4.8-0.5-6.6,1.3c-1.8,1.8-2.2,4.4-1.3,6.6l-14.8,14.8c-2.2-0.9-4.8-0.5-6.6,1.3c-1.8,1.8-2.2,4.3-1.3,6.5l2.9-3h3.4v3.4
		l-3,2.9c2.2,0.9,4.8,0.5,6.6-1.3c1.8-1.8,2.2-4.4,1.3-6.6L664.9,318.8z"/>
	<path class="st16" d="M655.9,327.8l5.8,5.8c-0.9,2.2-0.5,4.8,1.3,6.6c1.8,1.8,4.3,2.2,6.5,1.3l-3-2.9v-3.4h3.4l2.9,3
		c0.9-2.2,0.5-4.8-1.3-6.6c-1.8-1.8-4.4-2.2-6.6-1.3l-5.8-5.8"/>
	<path class="st16" d="M655.9,321.3l-5.8-5.8c0.9-2.2,0.5-4.8-1.3-6.6c-1.8-1.8-4.3-2.2-6.5-1.3l3,2.9v3.4h-3.4l-2.9-3
		c-0.9,2.2-0.5,4.8,1.3,6.6c1.8,1.8,4.4,2.2,6.6,1.3l5.8,5.8"/>
</g>
<g>
	<g>
		<rect x="217.8" y="634.4" class="st30" width="16.5" height="16.5"/>
		<polyline class="st30" points="217.8,629.4 217.8,612.9 234.3,612.9 		"/>
		<polyline class="st30" points="239.3,612.9 255.8,612.9 255.8,629.4 		"/>
		<polyline class="st30" points="255.8,634.4 255.8,650.9 239.3,650.9 		"/>
	</g>
	<g>
		<line class="st30" x1="250.5" y1="618.9" x2="238.4" y2="631.1"/>
		<polyline class="st30" points="242.2,618.9 250.5,618.9 250.5,627.2 		"/>
	</g>
</g>
<g>
	<g>
		<path class="st13" d="M830.2,402c-0.1,0.6-0.1,1.2-0.1,1.9c0,3.4,1,6.3,3,8.6c0.7,0.9,1.5,1.6,2.3,2.2c1.5,1,3.1,1.4,4.9,1.4
			c2,0,3.8-0.6,5.4-1.8c0.6-0.5,1.2-1.1,1.8-1.8c2-2.4,3-5.3,3-8.6v-1.1l-1.1,0.1c-1.7,0.3-3.2,0.2-4.4-0.4
			c-1.2-0.7-2.2-1.8-3.2-3.5c-0.6,1.1-1.6,2-3.2,2.8c-1.5,0.8-3,1.1-4.5,1.1C832.7,402.8,831.4,402.5,830.2,402 M840.2,416.1
			c-1.8,0-3.4-0.5-4.9-1.4v5.5h10.3v-5.8C844,415.5,842.2,416.1,840.2,416.1"/>
		<path class="st13" d="M840.2,391.6c-2.8,0-5.2,1.2-7.2,3.5c-1.6,1.9-2.5,4.2-2.8,6.8c1.2,0.6,2.5,0.8,3.9,0.8c1.5,0,3-0.4,4.5-1.1
			c1.5-0.8,2.6-1.7,3.2-2.8c1,1.7,2,2.9,3.2,3.5c1.2,0.6,2.7,0.8,4.4,0.4l1.1-0.1c-0.2-2.9-1.3-5.4-3-7.6
			C845.5,392.8,843.1,391.6,840.2,391.6 M825.2,423.8c-1.2,0.4-2.2,1.2-3,2.2c-0.7,1-1.1,2.2-1.1,3.5v3.8h38.7v-3.8
			c0-1.3-0.4-2.5-1.1-3.5c-0.7-1.1-1.7-1.8-2.9-2.2l-10.2-3.7h-10.3L825.2,423.8z"/>
		<path class="st31" d="M835.5,419.9h10.2 M845.7,414.1c-1.6,1.2-3.3,1.8-5.3,1.8c-1.8,0-3.4-0.5-4.8-1.4 M830.5,402
			c0.3-2.6,1.2-4.8,2.8-6.7c1.9-2.3,4.3-3.5,7.1-3.5c2.8,0,5.2,1.2,7.1,3.5c1.8,2.1,2.8,4.6,3,7.5v1.1c0,3.3-1,6.2-3,8.5
			c-0.6,0.7-1.1,1.3-1.8,1.8v5.8l10.1,3.6c1.2,0.4,2.1,1.2,2.9,2.2c0.7,1,1.1,2.2,1.1,3.5v3.8h-38.2v-3.8c0-1.3,0.4-2.4,1.1-3.5
			c0.8-1,1.7-1.8,2.9-2.2l10-3.6v-5.4c-0.8-0.6-1.6-1.3-2.3-2.1c-1.9-2.3-2.9-5.2-2.9-8.5C830.3,403.1,830.4,402.5,830.5,402
			c1.2,0.6,2.5,0.8,3.9,0.8c1.5,0,3-0.4,4.5-1.1c1.5-0.8,2.6-1.7,3.1-2.8c1,1.7,2,2.8,3.1,3.5c1.2,0.6,2.6,0.8,4.3,0.4l1.1-0.1
			 M853.4,397.3h3.8v5l6.3-5h5.1c3.2,0,5.9-1.1,8.1-3.3c2.2-2.2,3.3-4.9,3.3-8.1c0-3.2-1.1-5.9-3.3-8.1c-2.2-2.3-4.9-3.4-8.1-3.4
			h-15.3c-3.2,0-5.9,1.1-8.1,3.4c-2.2,2.2-3.3,4.9-3.3,8.1"/>
	</g>
	<rect x="868.9" y="385.7" class="st13" width="2.5" height="2.5"/>
	<rect x="869.3" y="386" class="st32" width="1.8" height="1.8"/>
	<rect x="861.1" y="385.7" class="st13" width="2.6" height="2.5"/>
	<rect x="861.5" y="386" class="st32" width="1.8" height="1.8"/>
	<rect x="853.4" y="385.7" class="st13" width="2.6" height="2.5"/>
	<rect x="853.8" y="386" class="st32" width="1.8" height="1.8"/>
</g>
<g>
	<path class="st13" d="M114,419.1c0.3,0.3,0.4,0.6,0.4,1c0,0.4-0.1,0.7-0.4,1c-0.2,0.2-0.6,0.3-1,0.3c-0.3,0-0.6-0.1-0.9-0.3
		c-0.3-0.3-0.4-0.6-0.4-1c0-0.3,0.1-0.6,0.4-1c0.3-0.2,0.5-0.3,0.9-0.3C113.4,418.8,113.7,418.9,114,419.1 M137.7,414.9H88.4v-31.1
		h49.3V414.9z M141.7,379.7c-0.7-0.8-1.6-1.2-2.7-1.2H87.1c-1.1,0-2,0.4-2.7,1.2c-0.8,0.8-1.1,1.7-1.1,2.8v38.9c0,1.1,0.4,2,1.1,2.7
		c0.7,0.8,1.6,1.2,2.7,1.2h19.5h13H139c1.1,0,2-0.4,2.7-1.2c0.8-0.7,1.2-1.6,1.2-2.7v-38.9C142.9,381.4,142.5,380.5,141.7,379.7
		 M106.6,425.2L104,433h18.2l-2.6-7.8H106.6z"/>
	<path class="st13" d="M117.4,395.2h-8.8v8.7h8.8V395.2z M103.9,408.8l3.2-3.2L103.9,408.8h4H103.9v-4V408.8z M103.9,390.5l3.2,3.2
		L103.9,390.5v4V390.5h4H103.9z M108.6,395.2h8.8v8.7h-8.8V395.2z M122.2,408.8v-4V408.8h-4H122.2l-3.2-3.2L122.2,408.8z
		 M122.2,394.4v-4l-3.2,3.2l3.2-3.2h-4h4V394.4z M137.7,383.7H88.4v31.1h49.3V383.7z M114.4,420.1c0-0.3-0.1-0.6-0.4-1
		c-0.2-0.2-0.6-0.3-1-0.3c-0.3,0-0.6,0.1-0.9,0.3c-0.3,0.3-0.4,0.6-0.4,1c0,0.4,0.1,0.7,0.4,1c0.3,0.2,0.5,0.3,0.9,0.3
		c0.4,0,0.7-0.1,1-0.3C114.2,420.8,114.4,420.5,114.4,420.1"/>
	<path class="st32" d="M118.1,408.7h3.9 M122.1,390.6h-3.9 M107.9,408.7H104 M104,404.8v3.9l3.1-3.1 M104,394.6v-3.9 M107.9,390.6
		H104l3.1,3.1 M117.3,395.4h-8.7v8.6h8.7V395.4z M118.9,405.6l3.2,3.1v-3.9 M122.1,394.6v-3.9l-3.2,3.1 M106.7,425h12.8 M95.1,432.7
		h9h18 M114.3,419.9c0,0.4-0.1,0.7-0.4,0.9c-0.2,0.2-0.6,0.3-0.9,0.3c-0.3,0-0.6-0.1-0.8-0.3c-0.3-0.3-0.4-0.6-0.4-0.9
		c0-0.3,0.1-0.6,0.4-0.9c0.3-0.2,0.5-0.3,0.8-0.3c0.4,0,0.7,0.1,0.9,0.3C114.2,419.3,114.3,419.6,114.3,419.9z M137.5,414.7H88.7
		V384h48.8V414.7z M104.1,432.7l2.6-7.7H87.4c-1.1,0-1.9-0.4-2.7-1.2c-0.7-0.7-1.1-1.6-1.1-2.7v-38.4c0-1,0.4-2,1.1-2.7
		c0.7-0.8,1.6-1.2,2.7-1.2h51.3c1.1,0,2,0.4,2.7,1.2c0.8,0.8,1.2,1.7,1.2,2.7v38.4c0,1.1-0.4,2-1.2,2.7c-0.7,0.8-1.6,1.2-2.7,1.2
		h-19.2l2.6,7.7h8.9"/>
</g>
<g>
	<polyline class="st8" points="727.6,649 733.4,653.6 739.2,658.2 733.4,662.9 727.6,667.5 	"/>
	<polyline class="st8" points="707.7,649 701.9,653.6 696.1,658.2 701.9,662.9 707.7,667.5 	"/>
	<line class="st8" x1="713.1" y1="672.7" x2="721.5" y2="643.8"/>
</g>
<g>
	<g>
		<path class="st33" d="M481.3,107.8c0,4.7-3.8,8.5-8.5,8.5c-4.7,0-8.5-3.8-8.5-8.5c0-4.7,3.8-8.5,8.5-8.5
			C477.5,99.2,481.3,103,481.3,107.8z"/>
		<line class="st33" x1="478.8" y1="113.8" x2="485.6" y2="120.6"/>
	</g>
	<g>
		<path class="st33" d="M458.7,109.9h-17.9c-2.4,0-4.3-1.9-4.3-4.3V75.8c0-2.4,1.9-4.3,4.3-4.3h40.5c2.4,0,4.3,1.9,4.3,4.3v29.9"/>
		<line class="st33" x1="436.5" y1="82.2" x2="485.6" y2="82.2"/>
		<circle class="st33" cx="444" cy="76.8" r="1.1"/>
		<circle class="st33" cx="450.4" cy="76.8" r="1.1"/>
		<circle class="st33" cx="456.8" cy="76.8" r="1.1"/>
		<line class="st33" x1="442.9" y1="88.6" x2="451.4" y2="88.6"/>
		<line class="st33" x1="442.9" y1="101.4" x2="447.1" y2="101.4"/>
		<line class="st33" x1="442.9" y1="95" x2="453.5" y2="95"/>
		<line class="st33" x1="451.5" y1="101.4" x2="459.9" y2="101.4"/>
		<line class="st33" x1="457.9" y1="95" x2="468.4" y2="95"/>
		<line class="st33" x1="455.7" y1="88.6" x2="466.3" y2="88.6"/>
		<line class="st33" x1="470.7" y1="88.6" x2="479.2" y2="88.6"/>
		<line class="st33" x1="472.8" y1="95" x2="479.2" y2="95"/>
	</g>
</g>
<g>
	<circle class="st16" cx="256.2" cy="319.3" r="25.9"/>
	<path class="st16" d="M249.4,299.5c-0.5-1.6-0.8-3.3-0.9-5"/>
	<path class="st16" d="M269.1,318c-6.4-1.3-12-5.2-15.8-10.3"/>
	<path class="st16" d="M282,316.8c-1.4,0.4-2.5,0.9-3.9,1.1"/>
	<path class="st16" d="M264,333.2c-4,4.5-8.7,8.3-13.8,11.3"/>
	<path class="st16" d="M271.6,322c-1,2-2.1,4.1-3.3,5.9"/>
	<path class="st16" d="M277.1,304c-0.4,3.3-1.1,6.5-2.1,9.8"/>
	<path class="st16" d="M237.7,329.6c-1.8-0.4-4.1-0.9-5.9-1.4"/>
	<path class="st16" d="M252.8,331.5c-3.8-0.2-7.3-0.4-10.8-1"/>
	<path class="st16" d="M262.9,331.5c-1.2,0.1-2.2,0-3.3,0"/>
	<path class="st16" d="M280.4,328.6c-3.6,1-7.2,1.4-10.8,1.9"/>
	<path class="st16" d="M246.6,303.1c-2.7-0.6-5.2-1.7-7.5-3.2"/>
	<path class="st16" d="M269.9,297.3c-4,3.5-9.1,5.9-14.4,6.5"/>
	<path class="st16" d="M258.2,334.3c1.8,2.8,4,6.6,5.1,9.9"/>
	<path class="st16" d="M246.2,322.3c2.6,1.6,5.7,4.4,7.9,6.5"/>
	<path class="st16" d="M230.5,316.6c2.6,0.4,5,1,7.5,1.9"/>
	<path class="st16" d="M239,332.6c-0.6,1.2-1.5,2.6-2.3,3.7"/>
	<path class="st16" d="M241.5,324.8c-0.2,1.2-0.5,2.6-0.8,3.7"/>
	<path class="st16" d="M236,303c2.8,3.6,4.8,8,5.6,12.7"/>
	<circle class="st16" cx="251" cy="303.8" r="4.5"/>
	<circle class="st16" cx="242" cy="320.2" r="4.5"/>
	<circle class="st16" cx="239.8" cy="330.5" r="2.3"/>
	<circle class="st16" cx="256.2" cy="331.5" r="3.4"/>
	<circle class="st16" cx="266.2" cy="330.6" r="3.4"/>
	<circle class="st16" cx="273.6" cy="318" r="4.5"/>
</g>
<g>
	<g>
		<g>
			<polyline class="st30" points="402.6,221.5 402.6,226 398.1,226 			"/>
			<path class="st30" d="M386.5,226c1.1-3.1,4.6-5.4,8.1-5.4s7,2.2,8.1,5.4"/>
		</g>
		<g>
			<polyline class="st30" points="386.5,235.8 386.5,231.3 390.9,231.3 			"/>
			<path class="st30" d="M402.6,231.3c-1.1,3.1-4.6,5.4-8.1,5.4s-7-2.2-8.1-5.4"/>
		</g>
	</g>
	<g>
		<line class="st30" x1="363.9" y1="226" x2="382" y2="226"/>
		<line class="st30" x1="365" y1="204.5" x2="399" y2="204.5"/>
		<line class="st30" x1="402.6" y1="215.2" x2="361.4" y2="215.2"/>
		<path class="st30" d="M380.9,236.7c-10.9-0.6-19.5-9.6-19.5-20.6c0-11.4,9.2-20.6,20.6-20.6c11.1,0,20.1,8.7,20.6,19.7"/>
		<path class="st30" d="M380.7,195.6c-10.7,11.6-10.6,26.8,0.2,41.1"/>
		<path class="st30" d="M383.3,195.6c5.4,5.8,8,12.6,8,19.7"/>
	</g>
</g>
<circle class="st13" cx="811.1" cy="307.6" r="3.6"/>
<circle class="st34" cx="381.1" cy="74" r="3.6"/>
<ellipse class="st34" cx="792.4" cy="157" rx="3.3" ry="3.1"/>
<circle class="st13" cx="482.5" cy="547.6" r="3.6"/>
<circle class="st35" cx="103.5" cy="150.6" r="3.6"/>
<circle class="st2" cx="312.1" cy="426.1" r="2.5"/>
<circle class="st2" cx="630.1" cy="169.1" r="2.5"/>
<circle class="st36" cx="662.1" cy="693.1" r="2.5"/>
<circle class="st37" cx="55.6" cy="369.6" r="2.5"/>
<circle class="st2" cx="594" cy="393.6" r="2.5"/>
<g>
	<path class="st38" d="M798.1,596.6h-7.3c-0.6,0-1-0.4-1-1s0.4-1,1-1h7.3c0.6,0,1,0.4,1,1S798.7,596.6,798.1,596.6z"/>
	<path class="st38" d="M794.5,600.2c-0.6,0-1-0.4-1-1v-7.3c0-0.6,0.4-1,1-1s1,0.4,1,1v7.3C795.5,599.8,795,600.2,794.5,600.2z"/>
</g>
<g>
	<path class="st38" d="M132.8,619.9h-7.3c-0.6,0-1-0.4-1-1s0.4-1,1-1h7.3c0.6,0,1,0.4,1,1S133.3,619.9,132.8,619.9z"/>
	<path class="st38" d="M129.1,623.6c-0.6,0-1-0.4-1-1v-7.3c0-0.6,0.4-1,1-1s1,0.4,1,1v7.3C130.1,623.1,129.7,623.6,129.1,623.6z"/>
</g>
<g>
	<path class="st38" d="M609.8,285.9h-7.3c-0.6,0-1-0.4-1-1s0.4-1,1-1h7.3c0.6,0,1,0.4,1,1S610.3,285.9,609.8,285.9z"/>
	<path class="st38" d="M606.1,289.6c-0.6,0-1-0.4-1-1v-7.3c0-0.6,0.4-1,1-1s1,0.4,1,1v7.3C607.1,289.1,606.7,289.6,606.1,289.6z"/>
</g>
<g>
	<path class="st38" d="M558.8,135.2h-7.3c-0.6,0-1-0.4-1-1s0.4-1,1-1h7.3c0.6,0,1,0.4,1,1S559.3,135.2,558.8,135.2z"/>
	<path class="st38" d="M555.1,138.9c-0.6,0-1-0.4-1-1v-7.3c0-0.6,0.4-1,1-1s1,0.4,1,1v7.3C556.1,138.4,555.7,138.9,555.1,138.9z"/>
</g>
<g>
	<path class="st38" d="M361.1,328.2h-7.3c-0.6,0-1-0.4-1-1s0.4-1,1-1h7.3c0.6,0,1,0.4,1,1S361.7,328.2,361.1,328.2z"/>
	<path class="st38" d="M357.5,331.9c-0.6,0-1-0.4-1-1v-7.3c0-0.6,0.4-1,1-1s1,0.4,1,1v7.3C358.5,331.4,358,331.9,357.5,331.9z"/>
</g>
<path class="st39" d="M734.5,445.1h-6.3l-3.1-5.4l3.1-5.4h6.3l3.1,5.4L734.5,445.1z M729.1,443.6h4.5l2.3-3.9l-2.3-3.9h-4.5
	l-2.3,3.9L729.1,443.6z"/>
<path class="st39" d="M913.5,464.1h-6.3l-3.1-5.4l3.1-5.4h6.3l3.1,5.4L913.5,464.1z M908.1,462.6h4.5l2.3-3.9l-2.3-3.9h-4.5
	l-2.3,3.9L908.1,462.6z"/>
<circle class="st36" cx="393.1" cy="151.8" r="5.2"/>
<circle class="st40" cx="212.1" cy="383.8" r="5.2"/>
<g>
	<path class="st37" d="M400,380.5l-2.1,2.3c-0.5-0.6-1.5-0.9-2.2-0.9c-0.8,0-2.1,0.4-2.1,1.4c0,1.2,1.5,1.5,3,1.9
		c1.7,0.5,3.4,1.3,3.4,3.8c0,3.2-2.5,4.6-5.3,4.6c-1.8,0-3.3-0.5-4.7-1.7l2.2-2.4c0.6,0.8,1.6,1.3,2.7,1.3c0.8,0,2.1-0.4,2.1-1.4
		c0-1.2-1.5-1.5-3-2c-1.7-0.5-3.5-1.3-3.5-3.8c0-3,2.6-4.5,5.3-4.5C397.3,379.1,398.8,379.5,400,380.5z"/>
	<path class="st37" d="M416.5,386.3c0,4.4-3.1,7.3-7.5,7.3c-4.4,0-7.5-2.9-7.5-7.3c0-4.4,3.1-7.3,7.5-7.3
		C413.5,379.1,416.5,381.9,416.5,386.3z M409.1,390.8c2.6,0,4.3-1.9,4.3-4.5c0-2.6-1.7-4.5-4.3-4.5c-2.6,0-4.3,1.8-4.3,4.5
		C404.7,388.9,406.5,390.8,409.1,390.8z"/>
	<path class="st37" d="M428,379.4v2.8h-6.2v2.8h5.8v2.8h-5.8v5.4h-3.1v-13.9H428z"/>
	<path class="st37" d="M439.9,379.4v2.7h-4v11.2h-3.1v-11.2h-4v-2.7H439.9z"/>
	<path class="st37" d="M443.3,379.4l2.2,8.9h0l2.9-8.9h2.8l2.9,9.1h0l2.3-9.1h3.1l-4.1,13.9h-2.7l-3.1-9.6h0l-3.1,9.6h-2.6
		l-4.1-13.9H443.3z"/>
	<path class="st37" d="M467.6,379.4l6,13.9h-3.4l-1.2-2.9h-5.4l-1.2,2.9h-3.4l6-13.9H467.6z M464.6,387.8h3.4l-1.7-4.3L464.6,387.8z
		"/>
	<path class="st37" d="M480.5,379.4c2.5,0,5.1,0.8,5.1,4.2c0,2-1.1,3.4-3,3.8l3.5,5.9h-3.7l-2.9-5.5h-1.5v5.5H475v-13.9H480.5z
		 M480,385.1c1.4,0,2.5-0.2,2.5-1.5c0-1.1-0.8-1.6-2.3-1.6h-2.1v3.2H480z"/>
	<path class="st37" d="M497.2,379.4v2.8h-6.4v2.6h6v2.8h-6v2.8h6.7v2.8h-9.8v-13.9H497.2z"/>
	<path class="st37" d="M512.9,379.4l6,13.9h-3.4l-1.2-2.9h-5.4l-1.2,2.9h-3.4l6-13.9H512.9z M509.9,387.8h3.4l-1.7-4.3L509.9,387.8z
		"/>
	<path class="st37" d="M532.6,380.8l-2.2,2.3c-0.9-1-2-1.3-3.3-1.3c-2.6,0-4.3,1.9-4.3,4.5c0,2.6,1.7,4.5,4.3,4.5c1,0,2-0.2,2.9-0.7
		v-2.3h-2.5v-2.8h5.4v7.2c-1.8,1-3.8,1.3-5.8,1.3c-4.4,0-7.5-2.8-7.5-7.3c0-4.4,3.1-7.3,7.5-7.3
		C529.1,379.1,531.1,379.5,532.6,380.8z"/>
</g>
<g>
	<path class="st41" d="M418.2,405l-4.7,3.8c-1.3-1.6-3.2-2.3-5.2-2.3c-4.3,0-8,3.5-8,8.9c0,4.6,3,8.9,7.8,8.9c2.4,0,4.4-1,5.7-3
		l5.1,3.8c-2.2,3.2-6.2,4.8-10,4.8c-8.6,0-14.9-5.7-14.9-14.5c0-8.7,6.2-14.5,14.9-14.5C412.5,400.9,416.1,402.3,418.2,405z"/>
	<path class="st41" d="M428.5,401.6v22h11.3v5.6h-17.3v-27.6H428.5z"/>
	<path class="st41" d="M471.4,415.4c0,8.8-6.2,14.5-14.9,14.5c-8.7,0-14.9-5.7-14.9-14.5c0-8.8,6.2-14.5,14.9-14.5
		C465.3,400.9,471.4,406.6,471.4,415.4z M456.5,424.3c5.1,0,8.6-3.7,8.6-8.9c0-5.2-3.4-8.9-8.6-8.9c-5.1,0-8.5,3.7-8.5,8.9
		C447.9,420.6,451.3,424.3,456.5,424.3z"/>
	<path class="st41" d="M481.6,401.6v16.8c0,3.3,2.3,5.9,5.6,5.9c2.9,0,5.5-2.3,5.5-5.9v-16.8h6.1v17.1c0,6-3.7,11.2-11.6,11.2
		c-7.9,0-11.6-5.2-11.6-11.2v-17.1H481.6z"/>
	<path class="st41" d="M513.7,401.6c8.7,0,16.1,3.9,16.1,13.8c0,8.8-7.1,13.7-15.3,13.7h-10.1v-27.6H513.7z M513.8,423.6
		c5.4,0,9.7-2.2,9.7-8.4c0-5.5-4.4-8-9.3-8h-3.7v16.4H513.8z"/>
</g>
<circle class="st42" cx="461.2" cy="403.5" r="101.5"/>
</svg>
