<?xml version="1.0" encoding="utf-8"?>
<!-- Generator: Adobe Illustrator 23.0.1, SVG Export Plug-In . SVG Version: 6.00 Build 0)  -->
<svg version="1.1" id="Layer_1" xmlns="http://www.w3.org/2000/svg" xmlns:xlink="http://www.w3.org/1999/xlink" x="0px" y="0px"
	 viewBox="0 0 750 400" enable-background="new 0 0 750 400" xml:space="preserve">
<g id="clouds_bits">
	<g transform="matrix( 1, 0, 0, 1, 0,0) ">
		<g>
			<g id="Layer6_0_FILL">
				<path fill="#83C4EC" d="M141.9,65.6c0.3,0,0.5-0.1,0.7-0.3c0.2-0.2,0.3-0.4,0.3-0.7c0-0.3-0.1-0.5-0.3-0.6
					c-0.2-0.2-0.4-0.3-0.7-0.3h-2.6v-2.6c0-0.6-0.3-0.9-0.9-0.9c-0.6,0-1,0.3-1,0.9v2.6h-2.5c-0.3,0-0.5,0.1-0.7,0.3
					c-0.2,0.2-0.3,0.4-0.3,0.6c0,0.3,0.1,0.5,0.3,0.7c0.2,0.2,0.4,0.3,0.7,0.3h2.5v2.6c0,0.3,0.1,0.5,0.3,0.7
					c0.2,0.2,0.4,0.3,0.7,0.3c0.3,0,0.5-0.1,0.7-0.3c0.2-0.2,0.3-0.4,0.3-0.7v-2.6H141.9 M597.2,314.5v-2.6c0-0.3-0.1-0.5-0.3-0.6
					c-0.2-0.2-0.4-0.3-0.7-0.3c-0.2,0-0.5,0.1-0.7,0.3c-0.2,0.2-0.3,0.4-0.3,0.6v2.6h-2.5c-0.6,0-1,0.3-1,0.9c0,0.3,0.1,0.5,0.3,0.6
					c0.2,0.2,0.4,0.3,0.7,0.3h2.5v2.5c0,0.3,0.1,0.5,0.3,0.7c0.2,0.2,0.4,0.3,0.7,0.3c0.6,0,1-0.3,1-1v-2.5h2.6
					c0.3,0,0.5-0.1,0.7-0.3c0.2-0.2,0.3-0.4,0.3-0.6s-0.1-0.5-0.3-0.7c-0.2-0.2-0.4-0.3-0.7-0.3H597.2 M355.1,230.6v2.6h-2.6
					c-0.3,0-0.5,0.1-0.7,0.3c-0.2,0.2-0.3,0.4-0.3,0.6c0,0.3,0.1,0.5,0.3,0.7c0.2,0.2,0.4,0.3,0.7,0.3h2.6v2.6
					c0,0.3,0.1,0.5,0.3,0.7c0.2,0.2,0.4,0.3,0.6,0.3c0.3,0,0.5-0.1,0.7-0.3c0.2-0.2,0.3-0.4,0.3-0.7v-2.6h2.6c0.3,0,0.5-0.1,0.6-0.3
					c0.2-0.2,0.3-0.4,0.3-0.7c0-0.2-0.1-0.4-0.3-0.6c-0.2-0.2-0.4-0.3-0.6-0.3H357v-2.6c0-0.3-0.1-0.5-0.3-0.7
					c-0.2-0.2-0.4-0.3-0.7-0.3s-0.5,0.1-0.6,0.3C355.2,230.2,355.1,230.4,355.1,230.6 M507.6,268.1c-0.2,0.2-0.3,0.4-0.3,0.6v2.6
					h-2.5c-0.3,0-0.5,0.1-0.6,0.3c-0.2,0.2-0.3,0.4-0.3,0.7c0,0.3,0.1,0.5,0.3,0.6c0.2,0.2,0.4,0.3,0.6,0.3h2.5v2.6
					c0,0.3,0.1,0.5,0.3,0.7c0.2,0.2,0.4,0.3,0.7,0.3s0.5-0.1,0.7-0.3c0.2-0.2,0.3-0.4,0.3-0.7v-2.6h2.5c0.3,0,0.5-0.1,0.7-0.3
					c0.2-0.2,0.3-0.4,0.3-0.6c0-0.6-0.3-1-1-1h-2.5v-2.6c0-0.2-0.1-0.4-0.3-0.6c-0.2-0.2-0.4-0.3-0.7-0.3S507.8,267.9,507.6,268.1
					 M435.6,49.3H433c-0.3,0-0.5,0.1-0.6,0.3c-0.2,0.2-0.3,0.4-0.3,0.7c0,0.3,0.1,0.5,0.3,0.7c0.2,0.2,0.4,0.3,0.6,0.3h2.6v2.5
					c0,0.3,0.1,0.5,0.3,0.7c0.2,0.2,0.4,0.3,0.7,0.3s0.5-0.1,0.6-0.3c0.2-0.2,0.3-0.4,0.3-0.7v-2.5h2.6c0.3,0,0.5-0.1,0.7-0.3
					c0.2-0.2,0.2-0.4,0.3-0.7c0-0.6-0.3-1-0.9-1h-2.6v-2.6c0-0.2-0.1-0.5-0.3-0.7c-0.2-0.2-0.4-0.3-0.6-0.3s-0.5,0.1-0.7,0.3
					c-0.2,0.2-0.3,0.4-0.3,0.7V49.3z"/>
				<path fill="#BFBFBF" d="M363.3,330.6h-6l-3,5.2l3,5.2h6l3-5.2L363.3,330.6 M358.1,332h4.4l2.2,3.8l-2.2,3.8h-4.4l-2.2-3.8
					L358.1,332 M116.8,184.9l-3-5.2h-6l-3.1,5.2l3.1,5.2h6L116.8,184.9 M112.9,181.2l2.2,3.8l-2.2,3.8h-4.3l-2.2-3.8l2.2-3.8H112.9z
					"/>
				<path fill="#D1D1D1" d="M553.7,330.9c0.7-0.8,1.1-1.7,1.1-2.8c0-1.1-0.4-2-1.1-2.7c-0.8-0.7-1.7-1.1-2.8-1.1
					c-1.1,0-2,0.4-2.7,1.1c-0.8,0.8-1.2,1.7-1.2,2.7c0,1.1,0.4,2,1.2,2.8c0.7,0.7,1.6,1.1,2.7,1.1C552,332,552.9,331.6,553.7,330.9z
					"/>
				<path fill="#DEDEDE" d="M620,291c0.4-0.4,0.5-0.8,0.5-1.3c0-0.5-0.2-1-0.5-1.4c-0.4-0.4-0.8-0.5-1.4-0.5c-0.5,0-1,0.2-1.4,0.5
					c-0.4,0.4-0.5,0.9-0.5,1.4c0,0.5,0.2,1,0.5,1.3c0.4,0.4,0.8,0.6,1.4,0.6C619.2,291.6,619.6,291.4,620,291 M539,221.3
					c-1.1,0-2,0.4-2.7,1.1c-0.7,0.8-1.1,1.7-1.1,2.8c0,1.1,0.4,2,1.1,2.7c0.8,0.7,1.7,1.1,2.7,1.1c1.1,0,2-0.4,2.8-1.1
					c0.7-0.7,1.1-1.6,1.1-2.7c0-1.1-0.4-2-1.1-2.8C540.9,221.6,540,221.3,539,221.3 M414.6,162.6c0.4-0.4,0.6-0.8,0.6-1.4
					c0-0.5-0.2-1-0.6-1.4c-0.4-0.4-0.8-0.6-1.4-0.6c-0.5,0-1,0.2-1.4,0.6c-0.4,0.4-0.5,0.9-0.5,1.4c0,0.5,0.2,1,0.5,1.4
					c0.4,0.4,0.8,0.6,1.4,0.6S414.3,162.9,414.6,162.6z"/>
				<path fill="#F7571A" d="M670.3,111.8c0-0.5-0.2-1-0.6-1.3c-0.4-0.4-0.8-0.6-1.3-0.6c-0.5,0-1,0.2-1.4,0.6
					c-0.4,0.4-0.5,0.8-0.5,1.3s0.2,1,0.5,1.3c0.4,0.4,0.8,0.6,1.4,0.6c0.5,0,1-0.2,1.3-0.6C670.1,112.7,670.3,112.3,670.3,111.8
					 M374.6,216.6c0.4-0.4,0.6-0.9,0.6-1.4s-0.2-1-0.6-1.4c-0.4-0.4-0.8-0.5-1.4-0.5c-0.5,0-1,0.2-1.3,0.5c-0.4,0.4-0.6,0.8-0.6,1.4
					s0.2,1,0.6,1.4c0.4,0.4,0.8,0.6,1.3,0.6C373.8,217.2,374.3,217,374.6,216.6z"/>
				<path fill="#BAD727" d="M568.8,221c0.5,0,1-0.2,1.4-0.6c0.4-0.4,0.6-0.8,0.6-1.3s-0.2-1-0.6-1.4c-0.4-0.4-0.8-0.6-1.4-0.6
					s-1,0.2-1.3,0.6c-0.4,0.4-0.5,0.8-0.5,1.4s0.2,1,0.5,1.3C567.8,220.8,568.3,221,568.8,221 M100.3,98.4c0.4-0.4,0.5-0.9,0.5-1.4
					s-0.2-1-0.5-1.3c-0.4-0.4-0.8-0.6-1.4-0.6c-0.5,0-1,0.2-1.3,0.6C97.2,96,97,96.5,97,97s0.2,1,0.6,1.4c0.4,0.4,0.8,0.5,1.3,0.5
					C99.5,98.9,99.9,98.8,100.3,98.4z"/>
				<path fill="#3D3D3D" fill-opacity="0.1686" d="M687,246.9c-1.6-1.1-3.3-1.7-5.3-1.7c-1.2,0-2.4,0.3-3.5,0.8
					c-1.1,0.5-2.1,1.1-3,1.9c-1.2-0.8-2.5-1.2-4-1.2c-0.9,0-1.9,0.2-2.8,0.6c-0.3-1.3-1-2.3-2-3.1c-1.1-0.8-2.3-1.2-3.6-1.3
					c-1.1,0-2.1,0.3-3,0.8c-0.9,0.5-1.6,1.3-2.1,2.2c-1.2-1.5-2.7-2.7-4.5-3.6c-1.8-0.9-3.7-1.4-5.8-1.4c-3.5,0-6.6,1.3-9.1,3.8
					c-2.6,2.5-3.9,5.5-3.9,9.1H698c-0.1-1.1-0.5-2.1-1.4-2.9c-0.9-0.8-1.9-1.2-3-1.2c-1.3,0-2.4,0.5-3.3,1.4
					C689.6,249.3,688.5,247.9,687,246.9 M684.5,166.4c-7.5-8-16.5-12-27-12c-6,0-11.7,1.4-17.1,4.3c-5.2,2.8-9.6,6.6-13.2,11.5
					c-1.4-2.9-3.5-5.3-6.1-7c-2.7-1.8-5.7-2.7-8.8-2.7c-4,0-7.5,1.3-10.6,4c-3,2.6-5,6-5.9,10.1c-2.7-1.2-5.4-1.8-8.2-1.8
					c-4.3,0-8.3,1.3-12,3.9c-2.5-2.7-5.4-4.8-8.6-6.3c-3.4-1.5-6.9-2.3-10.6-2.3c-5.7,0-10.8,1.8-15.5,5.3
					c-4.5,3.4-7.8,7.9-9.8,13.4c-1.2-1.4-2.6-2.5-4.3-3.3c-1.7-0.8-3.5-1.2-5.3-1.2c-3.3,0-6.2,1.1-8.6,3.4
					c-0.1,0.1-0.3,0.3-0.4,0.4c-2.5,2.6-3.9,5.7-4.2,9.4h187.8C695.9,184.1,692,174.4,684.5,166.4 M374.7,47.4
					c-2.1-1.4-4.4-2.2-7-2.2c-3.4,0-6.3,1.2-8.7,3.5c-1.7-1.1-3.5-1.6-5.4-1.6c-1.3,0-2.5,0.2-3.7,0.7c-0.4-1.7-1.3-3.1-2.7-4.2
					c-1.4-1.1-3-1.7-4.8-1.7c-1.4,0-2.8,0.4-4,1.2c-1.2,0.7-2.1,1.7-2.8,2.9c-1.6-2-3.6-3.6-6-4.8c-2.4-1.2-5-1.8-7.7-1.8
					c-4.7,0-8.8,1.7-12.2,5c-3.4,3.3-5.1,7.3-5.3,12h84.8c-0.1-1.5-0.8-2.8-1.9-3.9c-1.1-1.1-2.5-1.6-4-1.6c-1.7,0-3.1,0.6-4.3,1.9
					C378.3,50.7,376.8,48.8,374.7,47.4z"/>
			</g>
		</g>
		<g>
			<path id="Layer6_0_1_STROKES" fill="none" stroke="#BFBFBF" stroke-width="2" stroke-miterlimit="10" d="M696.1,131.8
				c0,0.9-0.3,1.7-0.9,2.3s-1.4,0.9-2.3,0.9c-0.9,0-1.6-0.3-2.3-0.9s-0.9-1.4-0.9-2.3c0-0.9,0.3-1.6,0.9-2.3s1.4-0.9,2.3-0.9
				c0.9,0,1.7,0.3,2.3,0.9S696.1,130.9,696.1,131.8z M84.1,213.9c0,0.9-0.3,1.7-0.9,2.3c-0.6,0.6-1.4,0.9-2.3,0.9
				c-0.9,0-1.7-0.3-2.3-0.9c-0.6-0.6-0.9-1.4-0.9-2.3c0-0.9,0.3-1.6,0.9-2.3c0.6-0.6,1.4-0.9,2.3-0.9c0.9,0,1.6,0.3,2.3,0.9
				C83.8,212.3,84.1,213.1,84.1,213.9z M214.1,324.1c0,0.9-0.3,1.7-0.9,2.3s-1.4,0.9-2.3,0.9c-0.9,0-1.7-0.3-2.3-0.9
				s-0.9-1.4-0.9-2.3c0-0.9,0.3-1.7,0.9-2.3c0.6-0.6,1.4-1,2.3-1c0.9,0,1.6,0.3,2.3,1C213.7,322.5,214.1,323.3,214.1,324.1z"/>
		</g>
	</g>
</g>
<g id="man">
	<g transform="matrix( 1, 0, 0, 1, 0,0) ">
		<g>
			<g id="Layer5_0_FILL">
				<path fill="#FFC89E" d="M450.5,231.4l3.7,3.7l9.3,9.3l10.9-10.9l-13-12.9l-7.2,7.1L450.5,231.4 M439.4,159.8v-10.5h-0.1
					c-2.6,2.2-5.8,3.4-9.4,3.4c-3.7,0-6.8-1.1-9.5-3.4v10.5h9.6H439.4 M414.9,126.7V138c0.1,4,1.6,7.4,4.4,10.3l1.1,1
					c2.6,2.2,5.8,3.4,9.5,3.4c3.7,0,6.8-1.1,9.4-3.4h0.1l1.1-1c0.7-0.8,1.2-1.4,1.5-1.8c1.9-2.4,2.8-5.2,2.9-8.4v-0.9h-2.3
					c-1-0.1-1.7-0.4-2.3-1c-0.6-0.7-1-1.5-1-2.3v-2.4c-0.1-1.3-0.5-2.4-1.4-3.3c-0.9-0.9-2-1.3-3.3-1.4H414.9 M397.9,136.3
					L387,147.1l13,13l0.3-0.4l10.6-10.5L397.9,136.3z"/>
				<path fill="#5EB9E7" d="M439.6,165.3c-0.5,0.5-1.2,0.8-1.9,0.8c-0.8,0-1.4-0.2-1.9-0.6l-4.4,4.4l7.6,57.3l-9,8.6l0-0.1v2.9h24.3
					v-3.6l-3.7-3.7l3.7-3.7v-39.8c0-0.6,0.2-1.2,0.7-1.6c0.4-0.4,0.9-0.7,1.5-0.7c0.1,0,0.1,0,0.3,0c0.7,0,1.2,0.2,1.7,0.7
					c0,0,0,0,0.1,0.1l16.3,20.9l-13.2,13.3l13,12.9l21.8-21.8c1.4-1.7,2.2-3.6,2.3-5.9c-0.1-2.4-0.9-4.5-2.4-6.2l-26-33.4
					c-0.5-0.8-1.1-1.5-1.9-2.2c-2.2-2.2-4.7-3.5-7.6-4c-0.4-0.1-0.9-0.1-1.3-0.1H458h-1.4h-11.5L439.6,165.3 M445.1,159.8h-5.8H430
					l5.8,5.6c0,0,0.1,0.1,0.1,0.1c0.5,0.4,1.1,0.6,1.9,0.6c0.7,0,1.4-0.3,1.9-0.8L445.1,159.8 M400.3,159.8l-0.3,0.4l-21.4,21.4
					c-1.5,1.5-3.4,2.3-5.5,2.4h27.6c1.4,0.1,2.6,0.6,3.5,1.5c1,1,1.5,2.2,1.5,3.6v49.6H430v-2.9l-8.9-8.6l7.7-57.3l-4.5-4.4
					c-0.5,0.4-1.1,0.6-1.8,0.6c-0.8,0-1.5-0.3-2-0.8l-3.9-4l-1.5-1.6H400.3 M420.4,159.8h-5.3l1.5,1.6l3.9,4c0.5,0.5,1.1,0.8,2,0.8
					c0.7,0,1.3-0.2,1.8-0.6c0.1,0,0.1-0.1,0.2-0.1l5.5-5.6H420.4 M366.3,167.9l-1,1.1c-1.4,1.7-2.2,3.6-2.3,5.9
					c0.1,2.5,1,4.7,2.7,6.5c1.7,1.6,3.6,2.5,5.7,2.6h1.6c2.2-0.2,4-1,5.5-2.4l21.4-21.4l-13-13L366.3,167.9z"/>
				<path fill="#828282" d="M454.2,244.9v-6.3H430h-24.3v6.3h18.5h11.4H454.2 M424.1,252.1h-18.5v6.4L391.2,304
					c-0.4,1.3-0.6,2.8-0.6,4.3c0,1.2,0.1,2.4,0.4,3.6c0.1,0.6,0.3,1.2,0.6,1.9l13.9,52.3h0.2l20.5-5.5l-12.7-47.4l11.4-36.9
					c0.2-0.6,0.5-1.1,1-1.6c0.8-0.8,1.7-1.2,2.8-1.2c1.1,0,2.1,0.4,2.9,1.2c0.6,0.6,1,1.4,1.1,2.4c0,0.2,0.1,0.4,0.1,0.6
					c0,0.2,0,0.4-0.1,0.6v27.1V366h21.4v-60.8v-53.1h-18.7H424.1 M451.8,122.1c-0.1-3.6-1.4-6.7-4-9.3c-0.8-0.8-1.7-1.5-2.6-2.1
					c2-1.2,4.2-1.9,6.6-2l-10.5,0.1c1-1.1,2.1-1.9,3.2-2.6c0.1,0,0.1-0.1,0.1-0.1c1.8-0.9,3.8-1.4,5.9-1.5h-25
					c-3.3,0.1-6.2,1.3-8.6,3.7c-1.8,1.9-3,4-3.5,6.3c-1,0.3-2,0.8-2.8,1.6c-1.2,1.2-1.8,2.6-1.8,4.3c0,1.7,0.6,3.2,1.8,4.3
					c1.2,1.2,2.5,1.8,4.1,1.8h0.1h19.7c1.3,0.1,2.4,0.5,3.3,1.4c0.9,0.9,1.3,1.9,1.4,3.3v2.4c0,0.8,0.3,1.6,1,2.3
					c0.6,0.6,1.4,0.9,2.3,1h2.3v0.9c0,3.2-1,6.1-2.9,8.4c0.5,0.2,1.1,0.3,2,0.3c2.2,0,4-0.8,5.5-2.3c0.9-0.9,1.5-1.9,1.9-3
					c0.2-0.8,0.4-1.6,0.4-2.3V122.1z"/>
				<path fill="#B96D00" d="M454.2,244.9h-18.7v7.2h18.7V244.9 M432.8,366v16h21.4v-16H432.8 M392.8,376.9v5.1h15.1l22.6-6
					l-4.2-15.5l-20.5,5.5l-0.1,0l-0.1,0h-2c-2.9,0.1-5.4,1.2-7.4,3.2C394,371.3,392.9,373.9,392.8,376.9 M424.1,244.9h-18.5v7.2
					h18.5V244.9z"/>
				<path fill="#FFFFFF" d="M435.5,244.9h-11.4v7.2h11.4V244.9 M428.7,169.9h2.6l4.4-4.4c0-0.1-0.1-0.1-0.1-0.1l-5.8-5.6l-5.5,5.6
					c-0.1,0.1-0.1,0.1-0.2,0.1L428.7,169.9 M431.4,169.9h-2.6l-7.7,57.3l8.9,8.6l0,0.1l9-8.6L431.4,169.9z"/>
			</g>
		</g>
		<g>
			<path id="Layer5_0_1_STROKES" fill="none" stroke="#000000" stroke-linecap="round" stroke-linejoin="round" d="M387,147.1
				l10.9-10.8l13,12.9l-10.6,10.5h14.9 M450.5,104.7h-25 M451.8,108.8l-10.5,0.1 M456.7,159.8c0.4,0,0.8-0.1,1.3-0.1
				c0.2,0,0.5,0,0.7,0c0.2,0,0.5,0,0.7,0c0.4,0,0.8,0.1,1.2,0.2c2.9,0.5,5.4,1.8,7.5,4c0.7,0.7,1.3,1.4,1.9,2.2l26,33.4
				c1.5,1.7,2.3,3.8,2.4,6.2c-0.1,2.3-0.8,4.2-2.3,5.9l-21.8,21.8l-10.9,10.9l-9.3-9.3 M454.2,305.2V366v16h-21.4v-16v-60.8
				 M403.5,366h2 M405.6,189.1c0-1.4-0.5-2.6-1.5-3.6c-0.9-0.9-2.1-1.4-3.5-1.5H373c-0.2,0-0.4,0.1-0.8,0.1c-0.4,0-0.6,0-0.8-0.1
				c-2.1-0.1-4-1-5.7-2.6c-1.7-1.8-2.6-4-2.7-6.5c0.1-2.3,0.8-4.2,2.3-5.9l0.5-0.6l0.6-0.5l20.7-20.8l13,13l0.3-0.4 M366.3,167.9
				l-1,1.1 M373,184h-1.6 M400,160.1l-21.4,21.4c-1.5,1.5-3.4,2.3-5.5,2.4 M431.4,169.9h-2.6l-7.7,57.3l8.9,8.6l0,0.1l9-8.6
				L431.4,169.9l4.4-4.4 M428.7,169.9l-4.5-4.4 M416.6,161.3l-1.5-1.6 M458,159.8c0.2,0,0.4,0,0.6,0c0.2,0,0.4,0,0.6,0
				c0.5,0,0.9,0.1,1.4,0.2 M454.2,187.9c0-0.6,0.2-1.2,0.7-1.6c0.4-0.4,0.9-0.7,1.5-0.7c0.1,0,0.1,0,0.3,0c0.7,0,1.2,0.2,1.7,0.7
				c0,0,0,0,0.1,0.1l16.3,20.9l-13.2,13.2l13,12.9 M454.2,235.1l-3.7-3.7l3.7-3.7l7.2-7.2 M405.5,366h0.2 M432.8,366h21.4"/>
		</g>
		<g>
			<path id="Layer5_0_2_STROKES" fill="none" stroke="#080A09" stroke-linecap="round" stroke-linejoin="round" d="M415.1,159.8h5.3
				v-10.5l-1.1-1c-2.8-2.8-4.3-6.3-4.4-10.3v-11.3h-0.1c-1.6,0-3-0.6-4.1-1.8c-1.2-1.1-1.8-2.6-1.8-4.3c0-1.7,0.6-3.1,1.8-4.3
				c0.8-0.8,1.7-1.3,2.8-1.6c0.5-2.3,1.7-4.4,3.5-6.3c2.5-2.4,5.3-3.6,8.6-3.7 M450.5,104.7c-2.1,0.1-4.1,0.6-5.9,1.5
				c0,0-0.1,0.1-0.1,0.1c-1.1,0.6-2.2,1.5-3.2,2.6 M451.8,108.8c-2.4,0.1-4.6,0.8-6.6,2c0.9,0.6,1.8,1.3,2.6,2.1
				c2.6,2.6,3.9,5.7,4,9.3v17c0,0.7-0.1,1.4-0.4,2.3c-0.4,1.2-1.1,2.2-1.9,3c-1.5,1.5-3.3,2.3-5.5,2.3c-0.8,0-1.5-0.1-2-0.3
				c-0.3,0.4-0.8,1-1.5,1.8l-1.1,1v10.5h5.8h11.5 M454.2,235.1v3.6v6.3v7.2v53.1 M432.8,305.2v-27.1V277c-0.1-0.9-0.5-1.7-1.1-2.4
				c-0.8-0.8-1.7-1.2-2.9-1.2c-1.1,0-2,0.4-2.8,1.2c-0.5,0.5-0.8,1-1,1.6l-11.4,36.9l12.7,47.4l4.2,15.5l-22.6,6h-15.1v-5.1
				c0.1-3,1.2-5.5,3.4-7.6c2-2,4.5-3.1,7.4-3.2 M405.5,366l-13.9-52.3c-0.2-0.6-0.4-1.3-0.6-1.9c-0.3-1.2-0.4-2.4-0.4-3.6
				c0-1.5,0.2-3,0.6-4.3l14.4-45.5v-6.4v-7.2v-6.3v-49.6 M442,146.4c1.9-2.4,2.8-5.2,2.9-8.4v-0.9h-2.3c-1-0.1-1.7-0.4-2.3-1
				c-0.6-0.7-1-1.5-1-2.3v-2.4c-0.1-1.3-0.5-2.4-1.4-3.3c-0.9-0.9-2-1.3-3.3-1.4h-19.7 M439.4,149.3h-0.1c-2.6,2.2-5.8,3.4-9.4,3.4
				c-3.7,0-6.8-1.1-9.5-3.4 M435.8,165.4c0-0.1-0.1-0.1-0.1-0.1l-5.8-5.6l-5.5,5.6c-0.1,0.1-0.1,0.1-0.2,0.1 M435.8,165.4
				c0.5,0.4,1.1,0.6,1.9,0.6c0.7,0,1.4-0.3,1.9-0.8l5.5-5.6 M420.4,159.8h9.6h9.4 M424.3,165.4c-0.5,0.4-1.1,0.6-1.8,0.6
				c-0.8,0-1.5-0.3-2-0.8l-3.9-4 M456.7,159.8h1.4h1.2 M454.2,227.7v-39.8 M424.1,244.9h-18.5 M430,238.6v-2.9 M435.5,244.9h-11.4
				v7.2h11.4V244.9h18.7 M405.6,238.6H430h24.3 M424.1,252.1h-18.5 M432.8,278.1c0-0.2,0.1-0.4,0.1-0.6c0-0.2,0-0.4-0.1-0.6
				 M435.5,252.1h18.7 M405.8,366l-0.2,0l-0.1,0 M426.3,360.5l-20.5,5.5"/>
		</g>
	</g>
</g>
<g id="bubble">
	<g transform="matrix( 1, 0, 0, 1, 0,0) ">
		<g>
			<g id="Layer4_0_FILL">
				<path fill="#FFFFFF" d="M594.7,42.8c-1.3-3.7-3.4-7-6.4-10c-5.1-5.1-11.3-7.6-18.5-7.6c-7.2,0-13.4,2.5-18.5,7.6
					c-0.8,0.8-1.6,1.7-2.3,2.6c-0.1-0.1-0.2-0.2-0.3-0.3c-3.1-3.1-6.8-4.7-11.2-4.7c-4.4,0-8.1,1.5-11.2,4.7
					c-3.1,3.1-4.7,6.8-4.7,11.2c0,3.7,1.1,6.9,3.3,9.7c-2.7,0.9-5.2,2.5-7.4,4.7c-3.9,3.9-5.8,8.6-5.8,14c0,5.5,1.9,10.1,5.8,14
					c3.9,3.9,8.6,5.8,14,5.8c0.9,0,1.9-0.1,2.8-0.2c1.4,3.1,3.4,6,6.1,8.7c5.8,5.8,12.7,8.7,20.8,8.7c8.1,0,15.1-2.9,20.9-8.7
					c1.6-1.6,3-3.3,4.1-5.1c3.2,1.8,6.7,2.7,10.7,2.7c6.1,0,11.2-2.2,15.5-6.5c0.2-0.2,0.4-0.4,0.6-0.6c1.5,0.4,3.2,0.7,4.9,0.7
					c4.6,0,8.5-1.6,11.6-4.8c3.2-3.2,4.9-7.1,4.9-11.7s-1.6-8.5-4.9-11.7c-1.3-1.3-2.8-2.4-4.3-3.1c-0.7-5.3-3-10-7-14
					c-4.7-4.7-10.5-7.1-17.2-7.1C598.8,42,596.7,42.3,594.7,42.8 M518.2,138.9c0,1.2,0.4,2.2,1.3,3c0.8,0.8,1.8,1.3,3,1.3
					c1.2,0,2.2-0.4,3-1.3c0.8-0.8,1.3-1.8,1.3-3s-0.4-2.2-1.3-3c-0.8-0.8-1.8-1.3-3-1.3c-1.2,0-2.2,0.4-3,1.3
					C518.6,136.7,518.2,137.7,518.2,138.9 M503.8,137.1c0,0.6,0.2,1.2,0.7,1.6s1,0.7,1.6,0.7c0.6,0,1.2-0.2,1.6-0.7
					c0.4-0.4,0.6-1,0.6-1.6c0-0.6-0.2-1.2-0.6-1.6c-0.4-0.4-1-0.6-1.6-0.6c-0.6,0-1.2,0.2-1.6,0.6
					C504,135.9,503.8,136.4,503.8,137.1 M540.1,119.8c-1.9,0-3.6,0.7-4.9,2c-1.4,1.4-2.1,3-2.1,5s0.7,3.6,2.1,4.9
					c1.4,1.4,3,2.1,4.9,2.1c1.9,0,3.6-0.7,5-2.1c1.4-1.4,2-3,2-4.9s-0.7-3.6-2-5C543.7,120.5,542,119.8,540.1,119.8z"/>
			</g>
		</g>
		<g>
			<path id="Layer4_0_1_STROKES" fill="none" stroke="#2C538A" stroke-linecap="round" stroke-linejoin="round" d="M582.2,103.2
				c-5.8,5.8-12.7,8.7-20.9,8.7c-8.1,0-15.1-2.9-20.8-8.7c-2.7-2.7-4.7-5.6-6.1-8.7c-0.9,0.1-1.9,0.2-2.8,0.2
				c-5.5,0-10.2-1.9-14-5.8c-3.9-3.9-5.8-8.5-5.8-14c0-5.5,1.9-10.2,5.8-14c2.2-2.2,4.7-3.8,7.4-4.7c-2.2-2.8-3.3-6-3.3-9.7
				c0-4.4,1.5-8.1,4.7-11.2c3.1-3.1,6.8-4.7,11.2-4.7c4.4,0,8.1,1.5,11.2,4.7c0.1,0.1,0.2,0.2,0.3,0.3c0.7-0.9,1.5-1.8,2.3-2.6
				c5.1-5.1,11.3-7.6,18.5-7.6c7.2,0,13.4,2.5,18.5,7.6c3,3,5.1,6.3,6.4,10c2-0.6,4.2-0.8,6.4-0.8c6.7,0,12.4,2.4,17.2,7.1
				c4,4,6.3,8.6,7,14c1.6,0.8,3,1.8,4.3,3.1c3.2,3.2,4.9,7.1,4.9,11.7s-1.6,8.4-4.9,11.7c-3.2,3.2-7.1,4.8-11.6,4.8
				c-1.7,0-3.3-0.2-4.9-0.7c-0.2,0.2-0.4,0.4-0.6,0.6c-4.3,4.3-9.4,6.5-15.5,6.5c-3.9,0-7.5-0.9-10.7-2.7
				C585.1,99.9,583.8,101.5,582.2,103.2z M533.1,126.8c0,1.9,0.7,3.6,2.1,4.9c1.4,1.4,3,2.1,4.9,2.1c1.9,0,3.6-0.7,5-2.1
				c1.4-1.4,2-3,2-4.9s-0.7-3.6-2-5c-1.4-1.4-3-2-5-2c-1.9,0-3.6,0.7-4.9,2C533.8,123.2,533.1,124.9,533.1,126.8z M503.8,137.1
				c0,0.6,0.2,1.2,0.7,1.6s1,0.7,1.6,0.7c0.6,0,1.2-0.2,1.6-0.7c0.4-0.4,0.6-1,0.6-1.6c0-0.6-0.2-1.2-0.6-1.6
				c-0.4-0.4-1-0.6-1.6-0.6c-0.6,0-1.2,0.2-1.6,0.6C504,135.9,503.8,136.4,503.8,137.1z M518.2,138.9c0,1.2,0.4,2.2,1.3,3
				c0.8,0.8,1.8,1.3,3,1.3c1.2,0,2.2-0.4,3-1.3c0.8-0.8,1.3-1.8,1.3-3s-0.4-2.2-1.3-3c-0.8-0.8-1.8-1.3-3-1.3c-1.2,0-2.2,0.4-3,1.3
				C518.6,136.7,518.2,137.7,518.2,138.9z"/>
		</g>
	</g>
</g>
<g id="circles">
	<g transform="matrix( 1, 0, 0, 1, 0,0) ">
		<g>
			<g id="Layer3_0_FILL">
				<path fill="#BAD727" d="M121.7,254.1c-3.4,10.6-2.6,20.9,2.4,30.9c5.1,9.9,13,16.5,23.5,19.9c10.6,3.4,20.9,2.6,30.8-2.5
					c9.9-5.1,16.6-12.9,20-23.5c3.4-10.6,2.6-20.9-2.4-30.8c-5.1-9.9-13-16.6-23.6-20c-10.6-3.4-20.8-2.6-30.8,2.5
					C131.8,235.7,125.1,243.5,121.7,254.1z"/>
				<path fill="#2C538A" d="M301.1,75.9c-14.9-14.8-32.9-22.2-54-22.2c-21,0-39,7.4-53.9,22.2c-14.9,15-22.3,33-22.3,54
					c0,4.1,0.3,8.1,0.9,12c1.2,8.6,3.9,16.7,7.9,24.1c3.2,5.8,7.2,11.3,12.1,16.4c0.5,0.5,1,1,1.5,1.5
					c14.9,14.9,32.9,22.3,53.9,22.3c18.8,0,35.2-5.9,49.1-17.8c1.7-1.4,3.3-2.9,4.9-4.5c0.5-0.5,1-1,1.5-1.5
					c11-11.6,17.7-25.1,19.9-40.4c0.6-3.9,0.9-7.9,0.9-12C323.5,108.9,316,90.9,301.1,75.9z"/>
				<path fill="#F7571A" d="M335.9,292.4c-0.2-11.8-4-22.1-11.6-30.8c-0.8-0.9-1.6-1.8-2.5-2.6c-9.4-9.4-20.8-14.2-34.2-14.2
					c-12.5,0-23.3,4.1-32.3,12.4c-0.6,0.5-1.2,1.1-1.8,1.7c-0.9,0.9-1.7,1.7-2.5,2.6c-4.9,5.6-8.3,11.8-10.1,18.8
					c-0.4,1.3-0.6,2.7-0.9,4c-0.5,2.8-0.8,5.7-0.8,8.7c0,13.3,4.7,24.7,14.2,34.1c9.4,9.4,20.8,14.1,34.1,14.1
					c13.3,0,24.7-4.7,34.2-14.1c9.4-9.4,14.1-20.8,14.1-34.1C335.9,292.9,335.9,292.6,335.9,292.4z"/>
			</g>
		</g>
		<g>
			<path id="Layer3_0_1_STROKES" fill="none" stroke="#A3A3A3" stroke-miterlimit="10" d="M343.8,293.1c0-0.3,0-0.5,0-0.8
				c-0.1-11.5-3.3-21.8-9.5-30.8c-2-2.9-4.3-5.6-6.9-8.2c-11-11-24.2-16.4-39.8-16.4c-14,0-26.2,4.5-36.5,13.4
				c-1.1,0.9-2.2,1.9-3.3,3c-2.6,2.6-4.9,5.3-6.9,8.2c0,0-0.1,0.1-0.1,0.1c-4.7,6.8-7.7,14.4-8.9,22.6c-0.4,2.8-0.6,5.8-0.6,8.8
				c0,15.5,5.5,28.8,16.5,39.8c11,10.9,24.2,16.4,39.7,16.4 M246.6,46c-23.2,0-43.1,8.2-59.5,24.6c-16.3,16.4-24.5,36.2-24.5,59.3
				c0,4,0.3,7.8,0.8,11.6c1,8.2,3.2,16,6.5,23.4c2.5,5.5,5.7,10.8,9.6,15.8c1.2,1.6,2.5,3.1,3.9,4.7c1.2,1.4,2.4,2.7,3.8,3.9
				c0.5,0.5,1,1,1.4,1.4c7.4,7.1,15.5,12.5,24.2,16.4c10.3,4.6,21.6,6.9,33.9,6.9c12.2,0,23.5-2.3,33.8-6.9c5-2.2,9.8-4.9,14.3-8.3
				c3.9-2.8,7.7-6,11.3-9.6c2.8-2.8,5.3-5.7,7.7-8.7c2.7-3.5,5.1-7.1,7.1-10.9c6.5-11.9,9.8-25.2,9.8-39.8 M145.9,310.6
				c12.2,4,24,3,35.4-2.9c11.4-5.8,19.1-14.9,23-27s3-24-2.9-35.4c-5.8-11.4-14.8-19.1-27-23c-12.2-3.9-24.1-3-35.5,2.8
				c-11.4,5.9-19.1,14.9-23,27.1"/>
		</g>
	</g>
</g>
<g id="connectors">
	<g transform="matrix( 1, 0, 0, 1, 0,0) ">
		<g>
			<g id="Layer2_0_FILL">
				<path fill="#FEFEFE" d="M140.9,222.3C140.9,222.3,140.9,222.3,140.9,222.3c-0.6,0-1,0.2-1.3,0.6c-0.4,0.4-0.6,0.8-0.6,1.3
					s0.2,1,0.6,1.4c0.4,0.4,0.8,0.6,1.3,0.6c0.5,0,1-0.2,1.4-0.6s0.6-0.8,0.6-1.4s-0.2-1-0.6-1.3S141.5,222.3,140.9,222.3
					 M162.8,141.9c0.8,0,1.4-0.3,2-0.8c0.5-0.6,0.8-1.2,0.8-2c0-0.8-0.3-1.4-0.8-2c-0.6-0.6-1.2-0.8-2-0.8c-0.8,0-1.4,0.3-2,0.8
					c-0.6,0.6-0.9,1.2-0.9,2c0,0.8,0.3,1.4,0.9,2C161.4,141.7,162,141.9,162.8,141.9 M286.5,206.9c0.6-0.6,0.9-1.2,0.9-2
					c0-0.8-0.3-1.4-0.9-2c-0.6-0.6-1.2-0.8-2-0.8c-0.8,0-1.4,0.3-2,0.8c-0.5,0.6-0.8,1.2-0.8,2c0,0.8,0.3,1.4,0.8,2
					c0.6,0.5,1.2,0.8,2,0.8C285.3,207.8,286,207.5,286.5,206.9 M328.3,254.3c-0.4,0.4-0.5,0.8-0.5,1.3c0,0.5,0.2,1,0.5,1.4
					s0.8,0.5,1.4,0.5c0.5,0,1-0.2,1.4-0.5s0.5-0.8,0.5-1.4c0-0.5-0.2-1-0.5-1.3c-0.3-0.3-0.8-0.5-1.3-0.6c0,0-0.1,0-0.1,0
					C329.1,253.8,328.6,253.9,328.3,254.3z"/>
			</g>
		</g>
		<g>
			<path id="Layer2_0_1_STROKES" fill="none" stroke="#A3A3A3" stroke-miterlimit="10" d="M329.7,253.8v-40.4c0-2.3-0.8-4.3-2.5-6
				s-3.6-2.4-6-2.4h-33.9c0,0.8-0.3,1.4-0.9,2c-0.6,0.5-1.2,0.8-2,0.8c-0.8,0-1.4-0.3-2-0.8c-0.5-0.6-0.8-1.2-0.8-2
				c0-0.8,0.3-1.4,0.8-2c0.6-0.6,1.2-0.8,2-0.8c0.8,0,1.4,0.3,2,0.8c0.6,0.6,0.9,1.2,0.9,2 M329.7,253.8c0.5,0,0.9,0.2,1.3,0.6
				c0.4,0.4,0.5,0.8,0.5,1.3c0,0.5-0.2,1-0.5,1.4s-0.8,0.5-1.4,0.5c-0.5,0-1-0.2-1.4-0.5s-0.5-0.8-0.5-1.4c0-0.5,0.2-1,0.5-1.3
				s0.8-0.6,1.4-0.6C329.6,253.8,329.7,253.8,329.7,253.8z M159.9,139.1c0,0.8,0.3,1.4,0.9,2c0.6,0.5,1.2,0.8,2,0.8
				c0.8,0,1.4-0.3,2-0.8c0.5-0.6,0.8-1.2,0.8-2c0-0.8-0.3-1.4-0.8-2c-0.6-0.6-1.2-0.8-2-0.8c-0.8,0-1.4,0.3-2,0.8
				C160.2,137.7,159.9,138.4,159.9,139.1h-10.7c-2.3,0-4.3,0.8-5.9,2.5c-1.6,1.6-2.4,3.6-2.4,5.9v74.7c0,0,0.1,0,0.1,0
				c0.5,0,1,0.2,1.4,0.6s0.6,0.8,0.6,1.3s-0.2,1-0.6,1.4s-0.8,0.6-1.4,0.6c-0.5,0-1-0.2-1.3-0.6c-0.4-0.4-0.6-0.8-0.6-1.4
				s0.2-1,0.6-1.3c0.3-0.3,0.8-0.5,1.3-0.6"/>
		</g>
	</g>
</g>
<g id="icons">
	<g transform="matrix( 1, 0, 0, 1, 0,0) ">
		<g>
			<g id="Layer1_0_FILL">
				<path fill="#FEFEFE" d="M265.9,147.8h-1.6h-1.6v3.6h1.6h1.6V147.8 M258.8,141.4h-1.6v7.2h1.6h1.6v-7.2H258.8 M247.6,141.4H246
					v9.9h1.6h1.7v-9.9H247.6 M212.9,165.4h1.8h1.5v-1.2h-1.5h-1.8V165.4 M207.6,164.6h1.5h1.7v-1.9h-1.7h-1.5V164.6 M240.4,142.2
					h1.6h1.6v-5.6h-3.3V142.2 M271.4,148.1h-1.8H268v5.2h3.3V148.1 M255.1,141.3h-1.8h-1.5v9.9h1.5h1.8V141.3 M275.5,119.2h-1.8
					v22.3h1.8h1.4v-22.3H275.5 M197.9,172.2h-1.6v1.3h1.6h1.7v-1.3H197.9 M201.8,167.6v2.3h3.3v-2.3h-1.7H201.8 M238.5,137.8v-1.3
					h-1.8h-1.4v1.3h1.4H238.5 M229.6,144.6h1.7h1.6v-1.9h-1.6h-1.7V144.6 M227.3,143.6h-1.8H224v1.1h1.6h1.8V143.6 M220,146.1h-1.6
					v19.8h1.6h1.8v-19.8H220 M282.5,83.7h-1.6h-1.7V116h3.3V83.7z"/>
			</g>
		</g>
		<g>
			<path id="Layer1_0_1_STROKES" fill="none" stroke="#F7571A" stroke-linecap="round" stroke-linejoin="round" d="M550.8,51.2
				c0-1,1.3-1.8,4-2.5c2.6-0.7,5.8-1.1,9.5-1.1c3.7,0,6.9,0.4,9.5,1.1c2.6,0.7,3.9,1.5,3.9,2.5v0v5.4V62v5.3v3.6c0.3,0,0.6,0,0.9,0
				c3.7,0,6.9,0.3,9.5,1c2.6,0.7,4,1.5,4,2.5v0v5.4v5.3c0,1-1.3,1.8-4,2.6c-2.6,0.7-5.8,1.1-9.5,1.1c-3.7,0-6.9-0.3-9.5-1.1
				c-2.6-0.7-4-1.6-4-2.6v-3.5h-0.8c-3.7,0-6.9-0.4-9.5-1.1c-2.6-0.7-4-1.5-4-2.5v-5.3v-5.4V62v-5.4V51.2L550.8,51.2z M550.8,72.7
				c0,1,1.3,1.8,4,2.5c2.6,0.7,5.8,1.1,9.5,1.1h0.8v-1.8v0c0-1,1.3-1.8,4-2.5c2.4-0.6,5.3-1,8.6-1 M577.7,67.3c0,1-1.3,1.8-3.9,2.5
				c-2.6,0.7-5.8,1.1-9.5,1.1c-3.7,0-6.9-0.4-9.5-1.1c-2.6-0.7-3.9-1.5-4-2.5 M577.7,62c0,1-1.3,1.8-3.9,2.5
				c-2.6,0.7-5.8,1.1-9.5,1.1c-3.7,0-6.9-0.3-9.5-1.1c-2.6-0.7-3.9-1.5-4-2.5 M577.7,56.6c0,1-1.3,1.8-3.9,2.5
				c-2.6,0.7-5.8,1.1-9.5,1.1c-3.7,0-6.9-0.4-9.5-1.1c-2.6-0.7-3.9-1.5-4-2.5 M577.7,51.2c0,1-1.3,1.8-3.9,2.5c-2.6,0.7-5.8,1-9.5,1
				c-3.7,0-6.9-0.4-9.5-1c-2.6-0.7-3.9-1.5-4-2.5 M592,79.9c0,1-1.3,1.8-4,2.5c-2.6,0.7-5.8,1.1-9.5,1.1c-3.7,0-6.9-0.4-9.5-1.1
				c-2.6-0.7-3.9-1.5-4-2.5v1.8 M592,74.5c0,1-1.3,1.8-4,2.5c-2.6,0.7-5.8,1.1-9.5,1.1c-3.7,0-6.9-0.3-9.5-1.1
				c-2.6-0.7-3.9-1.5-4-2.5 M565.1,79.9v-3.6"/>
		</g>
		<g>
			<path id="Layer1_0_2_STROKES" fill="none" stroke="#FFFFFF" stroke-linejoin="round" d="M280.9,83.7V70.8 M220,146.1v-1.4
				 M220,170.1v-4.2 M225.6,150.9v-6.3 M225.6,143.6V135 M231.3,142.8V140 M242.1,144.3v-2.1 M236.7,142.7v-4.9 M236.7,136.6v-11.3
				 M231.3,150.3v-5.6 M203.4,167.6v-6.5 M197.9,172.2V166 M197.9,174.6v-1.2 M209.1,162.8v-2.1 M209.1,166.1v-1.5 M214.6,164.2
				v-4.4 M214.6,178.4v-13 M275.5,119.2V116 M275.5,145.6v-4.2 M247.6,141.4v-1.9 M247.6,154.4v-3 M253.4,141.3v-2.9 M253.4,153.1
				v-1.9 M258.8,141.4v-1.8 M258.8,149.9v-1.3 M264.3,153.9v-2.6 M264.3,147.8v-9 M269.6,148.1v-3.8 M309.1,272.5
				c0.4-0.1,0.9-0.4,1.3-0.8c0.8-0.7,1.3-1.7,1.3-2.8c0-1.2-0.5-2.1-1.5-2.8c-0.8-0.5-1.8-0.8-2.9-0.8c-1,0-2.1-0.2-3.1-0.6
				c-1.1-0.5-1.9-1.2-2.4-2c-0.4-0.7-0.5-1.6-0.3-2.5l0.3-1.1c-0.6-1.2-0.6-2.4,0-3.6c0.4-0.7,0.9-1.3,1.7-1.6
				c0.4-0.1,0.7-0.2,1-0.2l0.4,1.1c0.1,0.9,0,1.7-0.4,2.4c-0.4,0.8-0.9,1.3-1.7,1.6l-1,0.2 M309.6,276.8c-0.3,1-0.2,2,0.3,2.9
				c0.8,1.5,1.7,2.4,2.7,2.7l-0.9,5.4h-3.5c0.6-1.2,0.6-2.4,0-3.6c-0.4-0.7-1.1-1.3-2.1-1.5l-1.4-0.2 M291.3,307.4h4
				c2.4,0,4.5-0.3,6.3-0.9l-0.6,2.4c-0.5,1.6-0.9,2.6-1.3,3c-0.6,0.6-3,1.2-7.2,1.8"/>
		</g>
		<g>
			<path id="Layer1_0_3_STROKES" fill="none" stroke="#3A6FBB" stroke-linecap="round" stroke-linejoin="round" d="M154.1,269.4
				l-14.3,8v9l14.3-9.9l11.7,0.9l15.2-3.6V263l-15.2,6.3H154.1z M181,273.8v13.5h-41.1v-0.9 M139.9,277.4v-10.8v-19.7 M139.9,266.6
				l16.1-8.9l13.4,4.4l11.6-13.4V263"/>
		</g>
		<g>
			<path id="Layer1_0_4_STROKES" fill="none" stroke="#FFFFFF" stroke-linecap="round" stroke-linejoin="round" d="M297.4,275.2
				c0,0.9,0.2,1.8,0.5,2.6l0.6,1.6c0,0.1,0.1,0.2,0.1,0.3c0.4,1.1,0.5,2,0.5,2.7c0,1.2-0.3,3-0.9,5.4h4.5l0.9-4.5
				c0.3-0.3,0.6-0.5,1-0.9c0.5-0.5,1.2-1,2-1.7c1.6-1.3,2.6-2.6,3-4c0.2-0.5,0.3-1,0.3-1.6c0-1-0.2-1.9-0.7-2.7
				c-0.3-0.5-0.7-1-1.1-1.4c-1.1-1-2.6-1.7-4.4-2.1c-1.9-0.5-3.9-1.9-6.1-4.2c-1.9-2-4.3-3-7.4-3c-2.3,0-4.8,0.8-7.5,2.4
				c-1.6,0.9-3.9,2.5-7.1,4.8c0,1.3-0.2,2.5-0.6,3.8c-0.5,1.5-1,2.3-1.5,2.4c-0.6,0-1-0.3-1.4-0.9c-0.3-0.5-0.5-1.1-0.6-1.7l0.1,3.3
				c0.2,2.2,0.4,3.5,0.8,3.9c0.4,0.4,1.1,0.3,2.3-0.2c0.9-0.5,1.6-1,2.3-1.6c0.5-0.5,0.9-1.1,1.3-1.9c0.4-0.9,0.5-1.7,0.5-2.5
				 M275.5,268.9c0-0.4,0-0.8,0-1.1c-0.1-1.5-0.8-2.8-2.1-3.9l-1.9-1.2l0.9,1.6c0.6,1.3,0.7,2.5,0.4,3.7c-0.1,0.5-0.4,1.4-0.9,2.6
				c-0.4,1-0.6,1.6-0.5,1.9 M278.5,276.1c0.9,0,2.3,0.2,4,0.5c0.2,0,0.3,0.1,0.5,0.1c1.6,0.4,2.8,0.7,3.6,1.1l0.4,0.7
				c0.3,0.6,0.5,1.3,0.5,2c0,1.8-0.6,4.2-1.8,7.1h2.7l4.5-8h5.7 M283,276.8l-1.8,2.1c-1.2,1.4-1.8,2.2-1.8,2.6
				c0,0.6,0.6,1.8,1.8,3.5l1.8-0.9c0-0.6,0.3-1.1,0.9-1.8c0.4-0.4,1.1-0.8,2.1-1.3c0.5-0.2,1-0.4,1.5-0.5 M282.8,314.5l0.8,1.1
				c0.5,0.6,1,1.1,1.7,1.6c0.3,0.3,0.7,0.5,1.1,0.8c1.1,0.8,2.8,1.3,5,1.6c1.1,0.1,2.2,0.2,3.1,0.2l3.5-3.5
				c-0.9-0.3-1.9-0.7-2.9-1.2c-1-0.5-1.9-1-2.6-1.5c-0.7-0.5-1.2-1-1.5-1.4c-0.6-1-0.7-2.2-0.3-3.8l0.5-1.1l0.4-0.9
				c3-1.2,5.1-2.4,6.3-3.6c0.8-0.8,1.3-2,1.5-3.4c0.1-1.3-0.1-2-0.6-2h-7.6c-0.2-0.3-0.5-0.6-0.9-0.8c-0.7-0.4-1.5-0.5-2.3-0.1
				c-0.7,0.4-1,0.8-0.6,1.2c0.1,0.2,0.4,0.4,0.6,0.5c-0.9,0.5-2.3,1-4,1.5c-1.9,0.5-3.2,0.9-4,1.3c-1.2,0.5-2.5,1.5-3.9,2.8
				c-1.1,1-2.3,1.7-3.4,1.9c-1.7,0.3-3.2,0.9-4.6,1.8c-1.3,0.8-2.4,1.9-3.3,3.2c-0.1,0.1-0.1,0.1-0.2,0.2c-0.6,0.6-1.3,0.9-2.2,0.9
				h-2.3v2.7c0.3,1.8,1.2,2.7,2.7,2.7c0,1.9,0.4,3.6,1.3,5.3c0.8,1.6,1.9,2.9,3.3,4l0.8,4.2h6.2v-6.3c0.6-0.5,1-1.1,1.3-1.7
				c0.4-0.8,0.6-1.7,0.6-2.8c0-1.8-0.6-3.3-1.9-4.4 M276,322.7l0.5-0.1l1-0.1c1.3-0.3,2.6-0.7,3.8-1.3c1-0.5,1.9-1.1,2.7-2
				c0.1-0.2,0.3-0.3,0.4-0.5l0.9-1.5 M284,319.3c0.4,0.7,0.6,1.5,0.6,2.5c0,1.5-0.5,2.7-1.6,3.8l1.6,5.2h-6.3l-1.8-8"/>
		</g>
	</g>
</g>
</svg>
