<?xml version="1.0" encoding="utf-8"?>
<!-- Generator: Adobe Illustrator 22.1.0, SVG Export Plug-In . SVG Version: 6.00 Build 0)  -->
<svg version="1.1" id="Layer_hgfh1" xmlns="http://www.w3.org/2000/svg" xmlns:xlink="http://www.w3.org/1999/xlink" x="0px" y="0px"
	 viewBox="0 0 750 400" enable-background="new 0 0 750 400" xml:space="preserve">
<g>
	<path fill="#595959" stroke="#000000" stroke-miterlimit="10" d="M539.3,133.2H340.9c-3.7,0-6.7,3-6.7,6.7v148.9
		c0,3.7,3,6.7,6.7,6.7h70.3H515h24.3c3.7,0,6.7-3,6.7-6.7V139.9C546,136.2,543,133.2,539.3,133.2z"/>
	<path fill="#CCCCCC" d="M555.3,152.3H343.4v-12.1c0-3.8,3.1-6.8,6.8-6.8h198.3c3.7,0,6.8,3,6.8,6.8V152.3z"/>
	<path fill="#FFFFFF" d="M548.4,295.7H350.1c-3.6,0-6.4-2.9-6.4-6.4v-137h211.7v136.5C555.3,292.6,552.2,295.7,548.4,295.7z"/>
	<path fill="none" stroke="#000000" stroke-miterlimit="10" d="M548.6,295.7H350.2c-3.7,0-6.7-3-6.7-6.7V140c0-3.7,3-6.7,6.7-6.7
		h198.4c3.7,0,6.7,3,6.7,6.7V289C555.3,292.7,552.3,295.7,548.6,295.7z"/>
	<line fill="none" stroke="#000000" stroke-miterlimit="10" x1="343.1" y1="152.3" x2="555" y2="152.3"/>
	<circle fill="none" stroke="#000000" stroke-miterlimit="10" cx="354.9" cy="142.2" r="2.6"/>
	<circle fill="none" stroke="#000000" stroke-miterlimit="10" cx="364.7" cy="142.2" r="2.6"/>
	<circle fill="none" stroke="#000000" stroke-miterlimit="10" cx="374.6" cy="142.2" r="2.6"/>
	<g>
		<path fill="#FCB618" d="M422.4,159.5v3.2c0,4.4,3.5,7.9,7.9,7.9h12.9c4.6,0,8.3,3.7,8.3,8.3v8.4h3.5v-18.1c0-5.3-4.3-9.6-9.6-9.6
			H422.4z"/>
		<path fill="#FCB618" d="M430.3,161.4H420c-4.1,0-7.3,3.3-7.3,7.3v23.9h3.2v-6.8h14.4V161.4z"/>
		<path fill="none" stroke="#000000" stroke-miterlimit="10" d="M454.9,184.3v-15.1c0-5.3-4.3-9.6-9.6-9.6h-22.9v3.2
			c0,4.4,3.5,7.9,7.9,7.9"/>
		<path fill="none" stroke="#000000" stroke-miterlimit="10" d="M422.3,161.3H420c-4.1,0-7.3,3.3-7.3,7.3v15.4"/>
		<path fill="none" stroke="#000000" stroke-miterlimit="10" d="M430.3,185.7"/>
		<g>
			<path fill="#AB8967" d="M442.2,214.8V205h-17.1v9.9c0,5-4.1,9.1-9.1,9.1l0,0h35.4l0,0C446.3,224,442.2,219.9,442.2,214.8z"/>
			<path fill="#FCC995" d="M420.1,183.5h-5.3c-2.1,0-4.1,1.5-3.9,3.4l1,5.3c0.3,2,1.7,3.4,3.9,3.4h5.3c0.2,0,0.4-0.2,0.4-0.4
				l-1-11.3C420.6,183.7,420.4,183.5,420.1,183.5z"/>
			<path fill="#FCC995" d="M453.1,183.5h-5.3c-0.2,0-0.4,0.2-0.4,0.4l-1,11.3c0,0.2,0.2,0.4,0.4,0.4h5.3c2.1,0,3.5-1.4,3.9-3.4
				l1-5.3C457.2,185,455.2,183.5,453.1,183.5z"/>
			<path fill="#FCC995" d="M440.3,213.7h-12.9c-6.3,0-11.4-5.1-11.4-11.4V176c0-3,2.4-5.4,5.4-5.4h25c2.9,0,5.2,2.3,5.2,5.2v26.5
				C451.7,208.6,446.6,213.7,440.3,213.7z"/>
			<path fill="none" stroke="#000000" stroke-miterlimit="10" d="M424.9,213.6v1.2c0,5-4.1,9.1-9.1,9.1l0,0h35.4l0,0
				c-5,0-9.1-4.1-9.1-9.1v-1.2"/>
			<path fill="none" stroke="#000000" stroke-miterlimit="10" d="M415.7,183.5h-1.1c-2.1,0-4.1,1.5-3.9,3.4l1,5.3
				c0.3,2,1.7,3.4,3.9,3.4"/>
			<path fill="none" stroke="#000000" stroke-miterlimit="10" d="M451.9,195.6c2.1,0,3.5-1.4,3.9-3.4l1-5.3c0.3-1.9-1.7-3.4-3.9-3.4
				h-1.7"/>
			<path fill="none" stroke="#000000" stroke-miterlimit="10" d="M440.1,213.7h-12.9c-6.3,0-11.4-5.1-11.4-11.4V176
				c0-3,2.4-5.4,5.4-5.4h25c2.9,0,5.2,2.3,5.2,5.2v26.5C451.5,208.6,446.4,213.7,440.1,213.7z"/>
		</g>
	</g>
	<path fill="#4D4D4D" d="M445.7,220.6h5.1c7.9,0,15.3,3.8,19.9,10.2l34.9,48.7c1.3,2,1.9,4.5,1.6,7.2c-0.6,5-4.6,8.9-9.6,9.5h-25.7
		v-17.7h8.3l-24.3-33.9L445.7,220.6L445.7,220.6"/>
	<path fill="#055198" d="M403.8,295.8h59.1v-63c0-6.8-5.5-12.2-12.2-12.2h-34.2c-7.9,0-15.3,3.8-19.9,10.2l-34.9,48.7
		c-1.3,2-1.9,4.5-1.6,7.2c0.6,5,4.6,8.9,9.6,9.5h34.1V295.8z M390.7,278.4l-2.6-0.1l15.9-21.7l-0.2,21.8H390.7z"/>
	<path fill="#F0D9D4" d="M471.9,295.6h-16.1v0c0-7.7,6.3-14,14-14h2.1V295.6z"/>
	<path fill="none" stroke="#000000" stroke-linecap="round" stroke-linejoin="round" stroke-miterlimit="10" d="M446,220.1h5.1
		c7.9,0,15.3,3.8,19.9,10.2l34.9,48.7c1.3,2,1.9,4.5,1.6,7.2c-0.6,5-4.6,8.9-9.6,9.5H472V278h15.9"/>
	
		<line fill="none" stroke="#000000" stroke-linecap="round" stroke-linejoin="round" stroke-miterlimit="10" x1="462.9" y1="254.8" x2="479.7" y2="277.9"/>
	<path fill="none" stroke="#000000" stroke-miterlimit="10" d="M472.2,281.5H470c-7.7,0-14,6.3-14,14v0h16.1"/>
	
		<line fill="none" stroke="#000000" stroke-linecap="round" stroke-linejoin="round" stroke-miterlimit="10" x1="404.1" y1="256.6" x2="404.1" y2="277.6"/>
	
		<line fill="none" stroke="#000000" stroke-linecap="round" stroke-linejoin="round" stroke-miterlimit="10" x1="410.6" y1="247" x2="388.5" y2="277.9"/>
	<path fill="#FFFFFF" d="M478.8,295.8h-53.8V288H471C475.3,288,478.8,291.5,478.8,295.8L478.8,295.8z"/>
	<path fill="none" stroke="#000000" stroke-miterlimit="10" d="M424.9,287.9h46.2c4.2,0,7.6,3.4,7.6,7.6v0.1h-50.4"/>
	<path fill="#F0D9D4" d="M412,281.7h2.1c7.7,0,14,6.3,14,14l0,0H412"/>
	<path fill="none" stroke="#000000" stroke-miterlimit="10" d="M412.2,281.7h2.1c7.7,0,14,6.3,14,14v0h-16.1"/>
	<path fill="none" stroke="#000000" stroke-linecap="round" stroke-linejoin="round" stroke-miterlimit="10" d="M463.2,283.5v-51.1
		c0-6.8-5.5-12.2-12.2-12.2h-34.2c-7.9,0-15.3,3.8-19.9,10.2L362,279c-1.3,2-1.9,4.5-1.6,7.2c0.6,5,4.6,8.9,9.6,9.5h42.5V278h-29.6"
		/>
	<g>
		<rect x="458.9" y="266.8" fill="#DBDBDB" width="31.4" height="22.4"/>
		<path fill="#ADADAD" d="M504.1,295.5h-59.2l0,0c0-4.6,3.7-8.3,8.3-8.3h42.5C500.4,287.1,504.1,290.9,504.1,295.5L504.1,295.5z"/>
		<path fill="#D1D1D1" stroke="#000000" stroke-miterlimit="10" d="M517.5,271.4H434c-3.6,0-6.5-2.9-6.5-6.5v-52.3
			c0-3.6,2.9-6.5,6.5-6.5h83.5c3.6,0,6.5,2.9,6.5,6.5v52.3C524,268.5,521.1,271.4,517.5,271.4z"/>
		<path fill="#ADADAD" d="M522.6,271.4H439c-3.6,0-6.5-2.9-6.5-6.5v-52.3c0-3.6,2.9-6.5,6.5-6.5h83.5c3.6,0,6.5,2.9,6.5,6.5v52.3
			C529.1,268.5,526.2,271.4,522.6,271.4z"/>
		<g>
			<line fill="none" stroke="#000000" stroke-miterlimit="10" x1="458.9" y1="287" x2="458.9" y2="271.2"/>
			<line fill="none" stroke="#000000" stroke-miterlimit="10" x1="490.3" y1="271.2" x2="490.3" y2="287"/>
			<path fill="none" stroke="#000000" stroke-miterlimit="10" d="M504.1,295.5h-59.2l0,0c0-4.6,3.7-8.3,8.3-8.3h42.5
				C500.4,287.1,504.1,290.9,504.1,295.5L504.1,295.5z"/>
			<path fill="none" stroke="#000000" stroke-miterlimit="10" d="M522.6,271.4H439c-3.6,0-6.5-2.9-6.5-6.5v-52.3
				c0-3.6,2.9-6.5,6.5-6.5h83.5c3.6,0,6.5,2.9,6.5,6.5v52.3C529.1,268.5,526.2,271.4,522.6,271.4z"/>
		</g>
	</g>
</g>
<path opacity="0.13" d="M183.9,142.6c-0.4-15.6-13.2-28.2-28.9-28.2c-9.1,0-17.3,4.2-22.6,10.8c-2.1-4-6.4-6.7-11.2-6.7
	c-6,0-11,4.1-12.3,9.7c-1.9-0.8-4-1.2-6.1-1.2c-3.3,0-6.4,1-8.9,2.7c-3.7-3.7-8.8-5.9-14.4-5.9c-8.6,0-15.9,5.3-18.9,12.8
	c-1.8-1.9-4.3-3.1-7.1-3.1c-5.2,0-9.4,4-9.8,9.1H183.9z"/>
<circle fill="#0B98CC" cx="100.8" cy="272.1" r="51.2"/>
<circle fill="#FF4D00" cx="230.6" cy="111" r="73.2"/>
<path opacity="0.13" d="M700.3,82.4c-0.5-22.1-18.6-39.8-40.8-39.8c-12.9,0-24.4,6-31.9,15.3c-3-5.6-9-9.4-15.8-9.4
	c-8.4,0-15.5,5.8-17.4,13.7c-2.7-1.1-5.6-1.7-8.6-1.7c-4.7,0-9,1.4-12.6,3.8c-5.2-5.2-12.4-8.4-20.3-8.4c-12.1,0-22.4,7.5-26.7,18.1
	c-2.5-2.7-6.1-4.3-10.1-4.3c-7.3,0-13.3,5.7-13.8,12.9H700.3z"/>
<g>
	<g>
		<line fill="none" stroke="#A6A6A6" stroke-width="2" stroke-miterlimit="10" x1="206.6" y1="234.8" x2="206.6" y2="281.8"/>
		<g>
			<polygon fill="#A6A6A6" points="212.6,235.6 200.5,235.6 206.6,229.5 			"/>
		</g>
		<g>
			<polygon fill="#A6A6A6" points="212.6,281 200.5,281 206.6,287 			"/>
		</g>
	</g>
</g>
<g>
	<g>
		<line fill="none" stroke="#A6A6A6" stroke-width="2" stroke-miterlimit="10" x1="117.6" y1="69.8" x2="70.6" y2="69.8"/>
		<g>
			<polygon fill="#A6A6A6" points="116.8,75.9 116.8,63.7 122.8,69.8 			"/>
		</g>
		<g>
			<polygon fill="#A6A6A6" points="71.4,75.9 71.4,63.7 65.3,69.8 			"/>
		</g>
	</g>
</g>
<g>
	<g>
		<line fill="none" stroke="#A6A6A6" stroke-width="2" stroke-miterlimit="10" x1="547.9" y1="351.8" x2="500.9" y2="351.8"/>
		<g>
			<polygon fill="#A6A6A6" points="547.1,357.9 547.1,345.7 553.2,351.8 			"/>
		</g>
		<g>
			<polygon fill="#A6A6A6" points="501.7,357.9 501.7,345.7 495.7,351.8 			"/>
		</g>
	</g>
</g>
<g>
	<g>
		<polyline fill="none" stroke="#A6A6A6" stroke-width="2" stroke-miterlimit="10" points="529.8,186.4 582.1,186.4 599.6,203.9 		
			"/>
		<g>
			<polygon fill="#A6A6A6" points="530.7,180.3 530.7,192.5 524.6,186.4 			"/>
		</g>
		<g>
			<polygon fill="#A6A6A6" points="603.3,199 594.7,207.6 603.3,207.6 			"/>
		</g>
	</g>
</g>
<circle fill="#FFFFFF" stroke="#A6A6A6" stroke-miterlimit="10" cx="543.3" cy="216" r="2"/>
<circle fill="#C2D500" cx="118.3" cy="358.1" r="1.9"/>
<circle fill="#FF4D00" cx="102.3" cy="164" r="1.9"/>
<circle fill="#C2D500" cx="302.3" cy="288.9" r="1.9"/>
<circle fill="#C2D500" cx="362.3" cy="98.9" r="1.9"/>
<circle fill="#C2D500" cx="165.3" cy="38.9" r="1.9"/>
<circle fill="#E0E0E0" cx="108.2" cy="339" r="3.8"/>
<circle fill="#E0E0E0" cx="56.3" cy="198.9" r="1.9"/>
<circle fill="#E0E0E0" cx="555.3" cy="365" r="1.9"/>
<circle fill="#E0E0E0" cx="369.3" cy="199.9" r="1.9"/>
<circle fill="#E0E0E0" cx="565.3" cy="143" r="1.9"/>
<circle fill="#FF4D00" cx="469.2" cy="115.4" r="3.8"/>
<circle fill="#FF4D00" cx="291.2" cy="347" r="3.8"/>
<circle fill="none" stroke="#C2C2C2" stroke-width="2" stroke-miterlimit="10" cx="700.6" cy="304" r="3.2"/>
<circle fill="none" stroke="#C2C2C2" stroke-width="2" stroke-miterlimit="10" cx="525.1" cy="336" r="3.2"/>
<circle fill="none" stroke="#C2C2C2" stroke-width="2" stroke-miterlimit="10" cx="141.6" cy="186" r="3.2"/>
<circle fill="none" stroke="#C2C2C2" stroke-width="2" stroke-miterlimit="10" cx="568.3" cy="30.8" r="3.2"/>
<g>
	<path fill="#7BCAEF" d="M608.3,268.9h-7c-0.5,0-1-0.4-1-1c0-0.5,0.4-1,1-1h7c0.5,0,1,0.4,1,1C609.3,268.5,608.9,268.9,608.3,268.9z
		"/>
	<path fill="#7BCAEF" d="M604.8,272.5c-0.5,0-1-0.4-1-1v-7c0-0.5,0.4-1,1-1s1,0.4,1,1v7C605.8,272,605.3,272.5,604.8,272.5z"/>
</g>
<g>
	<path fill="#7BCAEF" d="M457.4,52.9h-7c-0.5,0-1-0.4-1-1c0-0.5,0.4-1,1-1h7c0.5,0,1,0.4,1,1C458.3,52.5,457.9,52.9,457.4,52.9z"/>
	<path fill="#7BCAEF" d="M453.9,56.5c-0.5,0-1-0.4-1-1v-7c0-0.5,0.4-1,1-1s1,0.4,1,1v7C454.8,56,454.4,56.5,453.9,56.5z"/>
</g>
<g>
	<path fill="#7BCAEF" d="M302,220.6h-7c-0.5,0-1-0.4-1-1s0.4-1,1-1h7c0.5,0,1,0.4,1,1S302.5,220.6,302,220.6z"/>
	<path fill="#7BCAEF" d="M298.5,224.1c-0.5,0-1-0.4-1-1v-7c0-0.5,0.4-1,1-1c0.5,0,1,0.4,1,1v7C299.4,223.7,299,224.1,298.5,224.1z"
		/>
</g>
<g>
	<path fill="#7BCAEF" d="M176.3,354h-7c-0.5,0-1-0.4-1-1s0.4-1,1-1h7c0.5,0,1,0.4,1,1S176.9,354,176.3,354z"/>
	<path fill="#7BCAEF" d="M172.8,357.5c-0.5,0-1-0.4-1-1v-7c0-0.5,0.4-1,1-1c0.5,0,1,0.4,1,1v7C173.8,357.1,173.3,357.5,172.8,357.5z
		"/>
</g>
<path fill="#C2C2C2" d="M640.2,216.5h-6l-3-5.2l3-5.2h6l3,5.2L640.2,216.5z M635,215h4.4l2.2-3.8l-2.2-3.8H635l-2.2,3.8L635,215z"/>
<path fill="#C2C2C2" d="M90.7,97.2h-6l-3-5.2l3-5.2h6l3,5.2L90.7,97.2z M85.5,95.8h4.4l2.2-3.8l-2.2-3.8h-4.4L83.3,92L85.5,95.8z"/>
<path opacity="0.13" d="M303.4,375.5c0.5-20.2,17-36.4,37.3-36.4c11.8,0,22.3,5.5,29.1,14c2.8-5.1,8.2-8.6,14.4-8.6
	c7.7,0,14.2,5.3,15.9,12.5c2.4-1,5.1-1.5,7.9-1.5c4.3,0,8.2,1.3,11.5,3.4c4.7-4.7,11.3-7.7,18.5-7.7c11.1,0,20.5,6.9,24.4,16.5
	c2.3-2.4,5.6-4,9.2-4c6.7,0,12.2,5.2,12.6,11.8H303.4z"/>
<circle fill="#C2D500" cx="633.6" cy="120.9" r="51.8"/>
<circle fill="#7BCAEF" cx="623.2" cy="326" r="32.3"/>
<path fill="none" stroke="#A6A6A6" stroke-miterlimit="10" d="M144.1,228.8c23.9,23.9,23.9,62.7,0,86.6"/>
<path fill="none" stroke="#A6A6A6" stroke-miterlimit="10" d="M57.5,315.5c-23.9-23.9-23.9-62.7,0-86.6"/>
<path fill="none" stroke="#A6A6A6" stroke-miterlimit="10" d="M230.6,28c45.8,0,83,37.2,83,83s-37.2,83-83,83s-83-37.2-83-83"/>
<path fill="none" stroke="#A6A6A6" stroke-miterlimit="10" d="M633.6,180.7c-33,0-59.8-26.8-59.8-59.8S600.5,61,633.6,61"/>
<path fill="none" stroke="#A6A6A6" stroke-miterlimit="10" d="M623.2,366.1c-22.2,0-40.1-18-40.1-40.1s18-40.1,40.1-40.1
	c22.2,0,40.1,18,40.1,40.1"/>
<path fill="none" stroke="#A6A6A6" stroke-miterlimit="10" d="M260,188.7v28.7c0,10.3,8.4,18.7,18.7,18.7h151.2"/>
<path fill="none" stroke="#A6A6A6" stroke-miterlimit="10" d="M574.7,110h-64.3c-9.3,0-16.8,7.5-16.8,16.8v78.9"/>
<path fill="none" stroke="#A6A6A6" stroke-miterlimit="10" d="M583.1,326h-4.3c-8.5,0-16.6-3.4-22.6-9.3L538.6,299"/>
<line fill="none" stroke="#A6A6A6" stroke-miterlimit="10" x1="653.6" y1="240.6" x2="557.5" y2="240.6"/>
<line fill="none" stroke="#A6A6A6" stroke-miterlimit="10" x1="395" y1="95" x2="395" y2="151.4"/>
<path fill="none" stroke="#A6A6A6" stroke-miterlimit="10" d="M268.8,326.5h198.4c6,0,10.9-4.9,10.9-10.9v-44.1"/>
<path fill="none" stroke="#A6A6A6" stroke-miterlimit="10" d="M424,60.9c0,17.8-14.4,32.2-32.2,32.2c-17.8,0-32.2-14.4-32.2-32.2"/>
<path fill="none" stroke="#A6A6A6" stroke-miterlimit="10" d="M694.1,280.8c-22.2,0-40.2-18-40.2-40.2s18-40.2,40.2-40.2"/>
<path fill="none" stroke="#A6A6A6" stroke-miterlimit="10" d="M238.7,296.1c16.7,0,30.2,13.5,30.2,30.2c0,16.7-13.5,30.2-30.2,30.2"
	/>
<circle fill="#FFFFFF" stroke="#A6A6A6" stroke-miterlimit="10" cx="583.1" cy="326.1" r="2"/>
<circle fill="#FFFFFF" stroke="#A6A6A6" stroke-miterlimit="10" cx="654" cy="240.6" r="2"/>
<line fill="none" stroke="#A6A6A6" stroke-miterlimit="10" x1="338.8" y1="272.1" x2="161.5" y2="272.1"/>
<circle fill="#FFFFFF" stroke="#A6A6A6" stroke-miterlimit="10" cx="162.1" cy="272.1" r="2"/>
<circle fill="#FFFFFF" stroke="#A6A6A6" stroke-miterlimit="10" cx="268.8" cy="326.5" r="2"/>
<circle fill="#FFFFFF" stroke="#A6A6A6" stroke-miterlimit="10" cx="574.7" cy="110" r="2"/>
<circle fill="#FFFFFF" stroke="#A6A6A6" stroke-miterlimit="10" cx="395" cy="93" r="2"/>
<circle fill="#FFFFFF" stroke="#A6A6A6" stroke-miterlimit="10" cx="260.1" cy="188.5" r="2"/>
<g>
	<polyline fill="none" stroke="#0B98CC" stroke-linecap="round" stroke-linejoin="round" stroke-miterlimit="10" points="
		381.6,67.9 390.6,48.6 396.2,60.5 397.9,64.4 401.7,72.5 390.6,72.5 386.1,72.5 	"/>
	<polyline fill="none" stroke="#0B98CC" stroke-linecap="round" stroke-linejoin="round" stroke-miterlimit="10" points="
		399.6,67.5 406.1,53.7 410.4,63.1 414.8,72.5 404.2,72.5 	"/>
	<polygon fill="none" stroke="#0B98CC" stroke-linecap="round" stroke-linejoin="round" stroke-miterlimit="10" points="377.5,72.5 
		371.4,72.5 374.5,65.9 377.5,59.3 380.6,65.9 383.7,72.5 	"/>
	
		<line fill="none" stroke="#0B98CC" stroke-linecap="round" stroke-linejoin="round" stroke-miterlimit="10" x1="371" y1="76.9" x2="415" y2="76.9"/>
	<polyline fill="none" stroke="#0B98CC" stroke-linecap="round" stroke-linejoin="round" stroke-miterlimit="10" points="
		371.2,48.5 380.8,48.5 391.2,59 	"/>
	
		<line fill="none" stroke="#0B98CC" stroke-linecap="round" stroke-linejoin="round" stroke-miterlimit="10" x1="371.2" y1="44.4" x2="378.8" y2="44.4"/>
</g>
<g>
	<rect x="601.8" y="92.2" fill="none" stroke="#FFFFFF" stroke-miterlimit="10" width="11.2" height="11.2"/>
	<polyline fill="none" stroke="#FFFFFF" stroke-miterlimit="10" points="612.8,97.2 623.2,97.2 623.2,142.9 612.8,142.9 	"/>
	<rect x="601.8" y="137.5" fill="none" stroke="#FFFFFF" stroke-miterlimit="10" width="11.2" height="11.2"/>
</g>
<g>
	
		<rect x="653" y="92.2" transform="matrix(-1 4.476141e-11 -4.476141e-11 -1 1317.1105 195.5422)" fill="none" stroke="#FFFFFF" stroke-miterlimit="10" width="11.2" height="11.2"/>
	<polyline fill="none" stroke="#FFFFFF" stroke-miterlimit="10" points="653.1,97.2 642.7,97.2 642.7,142.9 653.1,142.9 	"/>
	
		<rect x="653" y="137.5" transform="matrix(-1 4.484267e-11 -4.484267e-11 -1 1317.1105 286.2215)" fill="none" stroke="#FFFFFF" stroke-miterlimit="10" width="11.2" height="11.2"/>
</g>
<rect x="608" y="109.8" fill="#C2D500" stroke="#FEFEFE" stroke-miterlimit="10" width="50" height="20.5"/>
<g>
	<path fill="none" stroke="#0B98CC" stroke-linecap="round" stroke-linejoin="round" stroke-miterlimit="10" d="M238.1,326
		L228,336.1c5.6,5.6,14.7,5.6,20.4,0c2.8-2.8,4.2-6.4,4.2-10H238.1z"/>
	<path fill="none" stroke="#0B98CC" stroke-linecap="round" stroke-linejoin="round" stroke-miterlimit="10" d="M238.1,311.5
		c-3.6,0-7.3,1.4-10,4.2c-5.6,5.6-5.6,14.7,0,20.4l10.1-10.1V311.5z"/>
	<polygon fill="none" stroke="#0B98CC" stroke-linecap="round" stroke-linejoin="round" stroke-miterlimit="10" points="238.1,326 
		238.1,326 228,336.1 228,336.1 228,336.1 238.1,326 	"/>
	<path fill="none" stroke="#0B98CC" stroke-linecap="round" stroke-linejoin="round" stroke-miterlimit="10" d="M251.3,312.8
		L251.3,312.8C251.3,312.8,251.3,312.8,251.3,312.8C251.3,312.8,251.3,312.8,251.3,312.8L251.3,312.8c-2.9-2.9-6.6-4.3-10.3-4.2
		v14.5h14.5C255.6,319.4,254.2,315.6,251.3,312.8z"/>
	<g>
		
			<line fill="none" stroke="#0B98CC" stroke-linecap="round" stroke-linejoin="round" stroke-miterlimit="10" x1="229.4" y1="344.7" x2="248.6" y2="344.7"/>
		
			<line fill="none" stroke="#0B98CC" stroke-linecap="round" stroke-linejoin="round" stroke-miterlimit="10" x1="232.6" y1="348" x2="245.3" y2="348"/>
	</g>
</g>
<circle fill="#FFFFFF" stroke="#A6A6A6" stroke-miterlimit="10" cx="535.1" cy="295.2" r="5.2"/>
<circle fill="#FFFFFF" stroke="#A6A6A6" stroke-miterlimit="10" cx="555.2" cy="240.6" r="5.2"/>
<circle fill="#FFFFFF" stroke="#A6A6A6" stroke-miterlimit="10" cx="429.8" cy="236.1" r="5.2"/>
<circle fill="#FFFFFF" stroke="#A6A6A6" stroke-miterlimit="10" cx="493.9" cy="206" r="5.2"/>
<circle fill="#FFFFFF" stroke="#A6A6A6" stroke-miterlimit="10" cx="395.1" cy="152.8" r="5.2"/>
<circle fill="#FFFFFF" stroke="#A6A6A6" stroke-miterlimit="10" cx="344.3" cy="272.1" r="5.2"/>
<circle fill="#FFFFFF" stroke="#A6A6A6" stroke-miterlimit="10" cx="478.2" cy="271.5" r="5.2"/>
<g>
	<g>
		<path fill="none" stroke="#FFFFFF" stroke-linejoin="round" stroke-miterlimit="10" d="M258.8,154.1l1.9-1.1l-2.7-4.7l-1.9,1.1
			c-0.9-0.9-2.1-1.5-3.3-1.9v-2.2h-5.4v2.2c-1.3,0.4-2.4,1-3.3,1.9l-1.9-1.1l-2.7,4.7l1.9,1.1c-0.3,1.3-0.3,2.5,0,3.9l-1.9,1.1
			l2.7,4.7l1.9-1.1c0.9,0.9,2.1,1.5,3.3,1.9v2.2h5.4v-2.2c1.3-0.4,2.4-1,3.3-1.9l1.9,1.1l2.7-4.7l-1.9-1.1
			C259.1,156.6,259.1,155.4,258.8,154.1z"/>
		<circle fill="none" stroke="#FFFFFF" stroke-linejoin="round" stroke-miterlimit="10" cx="250.1" cy="156" r="3.6"/>
	</g>
	<g>
		<path fill="none" stroke="#FFFFFF" stroke-linecap="round" stroke-linejoin="round" stroke-miterlimit="10" d="M234,154.2
			c-4.5,0-8.1-3.6-8.1-8.1c0-4.4,3.6-8.1,8.1-8.1c3.9,0,7.1,2.7,7.9,6.3"/>
		<polyline fill="none" stroke="#FFFFFF" stroke-linecap="round" stroke-linejoin="round" stroke-miterlimit="10" points="
			233.1,142.6 233.1,147 235.8,147 		"/>
		<g>
			<polyline fill="none" stroke="#FFFFFF" stroke-linecap="round" stroke-linejoin="round" stroke-miterlimit="10" points="
				236.7,163.2 220.6,163.2 220.6,125.6 240.3,125.6 249.2,134.5 249.2,141.7 			"/>
			<polyline fill="none" stroke="#FFFFFF" stroke-linecap="round" stroke-linejoin="round" stroke-miterlimit="10" points="
				240.3,125.6 240.3,134.5 249.2,134.5 			"/>
		</g>
	</g>
</g>
<g>
	<g>
		<path fill="none" stroke="#0B98CC" stroke-linecap="round" stroke-linejoin="round" stroke-miterlimit="10" d="M713.4,245.3
			c0.9,1.8,0.2,3.9-1.6,4.8c-1.8,0.9-3.9,0.2-4.8-1.6c-0.9-1.8-0.2-3.9,1.6-4.8C710.4,242.8,712.6,243.5,713.4,245.3z"/>
		<path fill="none" stroke="#0B98CC" stroke-linecap="round" stroke-linejoin="round" stroke-miterlimit="10" d="M713.6,260.7
			c-0.7,1.9-2.8,2.8-4.6,2.1c-1.9-0.7-2.8-2.8-2.1-4.6c0.7-1.9,2.8-2.8,4.6-2.1C713.4,256.7,714.3,258.8,713.6,260.7z"/>
		
			<circle fill="none" stroke="#0B98CC" stroke-linecap="round" stroke-linejoin="round" stroke-miterlimit="10" cx="695.9" cy="254" r="3.6"/>
		
			<line fill="none" stroke="#0B98CC" stroke-linecap="round" stroke-linejoin="round" stroke-miterlimit="10" x1="699.1" y1="252.4" x2="707" y2="248.5"/>
		
			<line fill="none" stroke="#0B98CC" stroke-linecap="round" stroke-linejoin="round" stroke-miterlimit="10" x1="699.3" y1="255.3" x2="706.9" y2="258.1"/>
	</g>
	<g>
		
			<line fill="none" stroke="#0B98CC" stroke-linecap="round" stroke-linejoin="round" stroke-miterlimit="10" x1="678" y1="232.5" x2="678" y2="236.1"/>
		
			<line fill="none" stroke="#0B98CC" stroke-linecap="round" stroke-linejoin="round" stroke-miterlimit="10" x1="688.8" y1="232.5" x2="688.8" y2="236.1"/>
		
			<line fill="none" stroke="#0B98CC" stroke-linecap="round" stroke-linejoin="round" stroke-miterlimit="10" x1="685.2" y1="241.5" x2="685.2" y2="245.1"/>
		
			<line fill="none" stroke="#0B98CC" stroke-linecap="round" stroke-linejoin="round" stroke-miterlimit="10" x1="688.8" y1="241.5" x2="688.8" y2="245.1"/>
		
			<rect x="681.6" y="232.5" fill="none" stroke="#0B98CC" stroke-linecap="round" stroke-linejoin="round" stroke-miterlimit="10" width="3.6" height="3.6"/>
		
			<rect x="678" y="241.5" fill="none" stroke="#0B98CC" stroke-linecap="round" stroke-linejoin="round" stroke-miterlimit="10" width="3.6" height="3.6"/>
		
			<rect x="685.2" y="250.4" fill="none" stroke="#0B98CC" stroke-linecap="round" stroke-linejoin="round" stroke-miterlimit="10" width="3.6" height="3.6"/>
		
			<line fill="none" stroke="#0B98CC" stroke-linecap="round" stroke-linejoin="round" stroke-miterlimit="10" x1="678" y1="250.4" x2="678" y2="254"/>
		
			<line fill="none" stroke="#0B98CC" stroke-linecap="round" stroke-linejoin="round" stroke-miterlimit="10" x1="681.6" y1="250.4" x2="681.6" y2="254"/>
		<g>
			<polyline fill="none" stroke="#0B98CC" stroke-linecap="round" stroke-linejoin="round" stroke-miterlimit="10" points="
				690.5,259.4 672.6,259.4 672.6,221.8 692.3,221.8 701.3,230.7 701.3,237.9 			"/>
			<polyline fill="none" stroke="#0B98CC" stroke-linecap="round" stroke-linejoin="round" stroke-miterlimit="10" points="
				692.3,221.8 692.3,230.7 701.3,230.7 			"/>
		</g>
	</g>
</g>
<g>
	
		<line fill="none" stroke="#FFFFFF" stroke-linecap="round" stroke-linejoin="round" stroke-miterlimit="10" x1="189.6" y1="71.3" x2="275" y2="71.3"/>
	
		<circle fill="none" stroke="#FFFFFF" stroke-linecap="round" stroke-linejoin="round" stroke-miterlimit="10" cx="202.6" cy="62" r="1.9"/>
	
		<circle fill="none" stroke="#FFFFFF" stroke-linecap="round" stroke-linejoin="round" stroke-miterlimit="10" cx="213.8" cy="62" r="1.9"/>
	
		<circle fill="none" stroke="#FFFFFF" stroke-linecap="round" stroke-linejoin="round" stroke-miterlimit="10" cx="224.9" cy="62" r="1.9"/>
	
		<rect x="204.5" y="101" fill="none" stroke="#FFFFFF" stroke-linecap="round" stroke-linejoin="round" stroke-miterlimit="10" width="11.1" height="11.1"/>
	
		<rect x="226.7" y="78.7" fill="none" stroke="#FFFFFF" stroke-linecap="round" stroke-linejoin="round" stroke-miterlimit="10" width="11.1" height="11.1"/>
	
		<rect x="226.7" y="101" fill="none" stroke="#FFFFFF" stroke-linecap="round" stroke-linejoin="round" stroke-miterlimit="10" width="11.1" height="11.1"/>
	
		<rect x="249" y="101" fill="none" stroke="#FFFFFF" stroke-linecap="round" stroke-linejoin="round" stroke-miterlimit="10" width="11.1" height="11.1"/>
	<polyline fill="none" stroke="#FFFFFF" stroke-linecap="round" stroke-linejoin="round" stroke-miterlimit="10" points="
		237.9,86.2 252.7,86.2 252.7,101 	"/>
	<polyline fill="none" stroke="#FFFFFF" stroke-linecap="round" stroke-linejoin="round" stroke-miterlimit="10" points="
		226.7,86.2 211.9,86.2 211.9,101 	"/>
	<line fill="none" stroke="#FFFFFF" stroke-linejoin="round" stroke-miterlimit="10" x1="230.5" y1="89.9" x2="230.5" y2="101"/>
	<line fill="none" stroke="#FFFFFF" stroke-linejoin="round" stroke-miterlimit="10" x1="230.5" y1="112.4" x2="230.5" y2="125.7"/>
</g>
<g>
	<g>
		
			<line fill="none" stroke="#FFFFFF" stroke-linecap="round" stroke-linejoin="round" stroke-miterlimit="10" x1="195.2" y1="121.5" x2="205.1" y2="111.6"/>
		<polyline fill="none" stroke="#FFFFFF" stroke-linecap="round" stroke-linejoin="round" stroke-miterlimit="10" points="
			195.2,113.5 195.2,121.5 203.3,121.5 		"/>
	</g>
</g>
<g>
	<g>
		
			<line fill="none" stroke="#FFFFFF" stroke-linecap="round" stroke-linejoin="round" stroke-miterlimit="10" x1="270.1" y1="121.9" x2="260" y2="111.7"/>
		<polyline fill="none" stroke="#FFFFFF" stroke-linecap="round" stroke-linejoin="round" stroke-miterlimit="10" points="
			270.1,113.8 270.1,121.9 262,121.9 		"/>
	</g>
	
		<rect x="268.3" y="127.2" fill="none" stroke="#FFFFFF" stroke-linecap="round" stroke-linejoin="round" stroke-miterlimit="10" width="16.1" height="3.6"/>
</g>
<g>
	
		<rect x="197.3" y="127" fill="none" stroke="#FFFFFF" stroke-linecap="round" stroke-linejoin="round" stroke-miterlimit="10" width="9.5" height="9"/>
	
		<rect x="197.3" y="139.5" fill="none" stroke="#FFFFFF" stroke-linecap="round" stroke-linejoin="round" stroke-miterlimit="10" width="9.5" height="9"/>
	
		<rect x="179.4" y="127" fill="none" stroke="#FFFFFF" stroke-linecap="round" stroke-linejoin="round" stroke-miterlimit="10" width="12.5" height="14.3"/>
	
		<circle fill="none" stroke="#FFFFFF" stroke-linecap="round" stroke-linejoin="round" stroke-miterlimit="10" cx="185.7" cy="133.3" r="2.7"/>
	<path fill="none" stroke="#FFFFFF" stroke-linecap="round" stroke-linejoin="round" stroke-miterlimit="10" d="M190.2,141.3h-9
		c0-3,2-5.4,4.5-5.4C188.2,135.9,190.2,138.3,190.2,141.3z"/>
	
		<line fill="none" stroke="#FFFFFF" stroke-linecap="round" stroke-linejoin="round" stroke-miterlimit="10" x1="180.3" y1="144.9" x2="187.5" y2="144.9"/>
	
		<line fill="none" stroke="#FFFFFF" stroke-linecap="round" stroke-linejoin="round" stroke-miterlimit="10" x1="180.3" y1="148.5" x2="187.5" y2="148.5"/>
</g>
<g>
	<g>
		<path fill="none" stroke="#FFFFFF" stroke-miterlimit="10" d="M639,335.4c0,4-3.3,7.3-7.3,7.3c-4,0-7.3-3.3-7.3-7.3
			c0-4,3.3-7.3,7.3-7.3C635.7,328.2,639,331.4,639,335.4z"/>
		<line fill="none" stroke="#FFFFFF" stroke-miterlimit="10" x1="636.8" y1="340.6" x2="642.6" y2="346.4"/>
	</g>
	<g>
		<line fill="none" stroke="#FFFFFF" stroke-miterlimit="10" x1="600.8" y1="313.6" x2="642.6" y2="313.6"/>
		<circle fill="none" stroke="#FFFFFF" stroke-miterlimit="10" cx="607.1" cy="309.1" r="0.9"/>
		<circle fill="none" stroke="#FFFFFF" stroke-miterlimit="10" cx="612.6" cy="309.1" r="0.9"/>
		<circle fill="none" stroke="#FFFFFF" stroke-miterlimit="10" cx="618" cy="309.1" r="0.9"/>
		<line fill="none" stroke="#FFFFFF" stroke-miterlimit="10" x1="606.2" y1="319.1" x2="613.4" y2="319.1"/>
		<line fill="none" stroke="#FFFFFF" stroke-miterlimit="10" x1="606.2" y1="330" x2="609.8" y2="330"/>
		<line fill="none" stroke="#FFFFFF" stroke-miterlimit="10" x1="606.2" y1="324.5" x2="615.3" y2="324.5"/>
		<line fill="none" stroke="#FFFFFF" stroke-miterlimit="10" x1="613.5" y1="330" x2="620.7" y2="330"/>
		<line fill="none" stroke="#FFFFFF" stroke-miterlimit="10" x1="619" y1="324.5" x2="628" y2="324.5"/>
		<line fill="none" stroke="#FFFFFF" stroke-miterlimit="10" x1="617.2" y1="319.1" x2="626.2" y2="319.1"/>
		<line fill="none" stroke="#FFFFFF" stroke-miterlimit="10" x1="629.9" y1="319.1" x2="637.1" y2="319.1"/>
		<line fill="none" stroke="#FFFFFF" stroke-miterlimit="10" x1="631.7" y1="324.5" x2="637.1" y2="324.5"/>
	</g>
</g>
<g>
	
		<line fill="none" stroke="#FFFFFF" stroke-linecap="round" stroke-linejoin="round" stroke-miterlimit="10" x1="66.2" y1="253.5" x2="132.9" y2="253.5"/>
	
		<circle fill="none" stroke="#FFFFFF" stroke-linecap="round" stroke-linejoin="round" stroke-miterlimit="10" cx="76.4" cy="246.3" r="1.5"/>
	
		<circle fill="none" stroke="#FFFFFF" stroke-linecap="round" stroke-linejoin="round" stroke-miterlimit="10" cx="85.1" cy="246.3" r="1.5"/>
	
		<circle fill="none" stroke="#FFFFFF" stroke-linecap="round" stroke-linejoin="round" stroke-miterlimit="10" cx="93.8" cy="246.3" r="1.5"/>
	
		<line fill="none" stroke="#FFFFFF" stroke-linecap="round" stroke-linejoin="round" stroke-miterlimit="10" x1="118.4" y1="262.2" x2="89.4" y2="262.2"/>
	
		<line fill="none" stroke="#FFFFFF" stroke-linecap="round" stroke-linejoin="round" stroke-miterlimit="10" x1="77.8" y1="262.2" x2="80.7" y2="262.2"/>
	
		<line fill="none" stroke="#FFFFFF" stroke-linecap="round" stroke-linejoin="round" stroke-miterlimit="10" x1="101" y1="270.9" x2="89.4" y2="270.9"/>
	
		<line fill="none" stroke="#FFFFFF" stroke-linecap="round" stroke-linejoin="round" stroke-miterlimit="10" x1="77.8" y1="270.9" x2="80.7" y2="270.9"/>
	
		<line fill="none" stroke="#FFFFFF" stroke-linecap="round" stroke-linejoin="round" stroke-miterlimit="10" x1="101" y1="279.6" x2="89.4" y2="279.6"/>
	
		<line fill="none" stroke="#FFFFFF" stroke-linecap="round" stroke-linejoin="round" stroke-miterlimit="10" x1="77.8" y1="279.6" x2="80.7" y2="279.6"/>
	<path fill="none" stroke="#FFFFFF" stroke-linecap="round" stroke-linejoin="round" stroke-miterlimit="10" d="M132.9,299.9
		c0-7.2-5.8-13.1-13.1-13.1s-13.1,5.8-13.1,13.1H132.9z"/>
	
		<circle fill="none" stroke="#FFFFFF" stroke-linecap="round" stroke-linejoin="round" stroke-miterlimit="10" cx="119.9" cy="278.9" r="8"/>
</g>
<polyline fill="none" stroke="#FFFFFF" stroke-miterlimit="10" points="614.5,123.8 623.5,116.9 634.3,123.8 651,117 "/>
<rect x="648.6" y="114.7" fill="#C2D500" stroke="#FEFEFE" stroke-miterlimit="10" width="4.6" height="4.6"/>
<rect x="631.9" y="121.8" fill="#C2D500" stroke="#FEFEFE" stroke-miterlimit="10" width="4.6" height="4.6"/>
<rect x="612.3" y="121.5" fill="#C2D500" stroke="#FEFEFE" stroke-miterlimit="10" width="4.6" height="4.6"/>
<rect x="621.2" y="114.1" fill="#C2D500" stroke="#FEFEFE" stroke-miterlimit="10" width="4.6" height="4.6"/>
</svg>
